<?xml version="1.0" encoding="UTF-8"?>
<svg id="Layer_1" data-name="Layer 1" xmlns="http://www.w3.org/2000/svg" viewBox="0 0 677.07 533.16">
  <defs>
      <style>
          :root { fill:#222 }
          .accent { fill: #f9322c; }
          .cls-3 { stroke: #222; }

          @media (prefers-color-scheme: dark) {
          :root {  fill: #f9322c; }
          .accent { fill:#dee2e6; }
          .cls-3 { stroke: #f9322c; }
          }

          .cls-1, .cls-2 {
          stroke-width: 0px;
          }

          .cls-2 {
          fill: #ff2d20;
          }

          .cls-3 {
          fill: none;
          stroke-linecap: round;
          stroke-linejoin: round;
          stroke-width: 2px;
          }
      </style>
  </defs>
  <path class="accent" d="m57.64,233.3H21.41l-10,17.37v49.82h10l10-10h16.23l10,10h10v-49.82l-10-17.37Zm-32.89,5.3h29.55l3.6,6.77H21.15l3.6-6.77Zm36.15,46.03H18.15v-20.73h42.76v20.73Z"/>
  <path class="cls-1" d="m667.29,300.79c-.43,0-.83-.28-.96-.72-.19-.66-.2-3.07,5.87-9.12-5.81,3.09-7.38,8.62-7.4,8.69-.11.39-.44.68-.84.73-.41.05-.8-.15-1-.51-.29-.52-2.5-5.36,2.11-24.63-3.24,6.04-4.4,13.74-5.08,18.33-.53,3.52-.65,4.36-1.6,4.59-.46.11-.92-.07-1.22-.49-.34-.47-1.54-1.77-3.1-3.39.71,1.62,1.32,3.4,1.72,5.31.11.54-.23,1.07-.77,1.19-.55.12-1.07-.23-1.19-.77-1.24-5.89-4.63-10.46-6.87-12.96-.85-.85-1.6-1.6-2.17-2.17-.38-.38-.39-.99-.03-1.38.36-.4.97-.43,1.38-.09.11.09,1.12.95,2.46,2.46,2.74,2.76,7.03,7.09,9.1,9.38.1-.58.2-1.27.3-1.96.9-6.01,2.57-17.2,8.64-23.74.31-.34.81-.42,1.22-.2.4.22.6.69.48,1.13-3.85,14.38-4.31,21.9-4.11,25.52,1.69-2.96,5.19-7.14,11.96-8.57.45-.09.9.12,1.1.53.21.41.11.9-.23,1.2-8.45,7.48-8.78,10.27-8.79,10.49.08.49-.22.98-.71,1.12-.09.03-.19.04-.28.04Zm.99-1.15h0Zm-.02-.12h0Zm0,0h0s0,0,0,0Zm0,0h0s0,0,0,0Z"/>
  <path class="cls-1" d="m433.52,300.79c-.48,0-.9-.34-.98-.83-.16-.92.65-3.56,10.07-9.54-7.6,2.32-11.29,5.67-11.34,5.72-.26.24-.63.33-.97.22s-.6-.38-.68-.73l-.72-3.13-4.72,5.08c-.18.2-.44.31-.71.32-.26,0-.53-.1-.72-.29l-2.73-2.68c.85,1.12,1.79,2.35,2.82,3.7.34.44.25,1.07-.19,1.4-.44.34-1.07.25-1.4-.19-8.22-10.75-10.29-13.81-10.38-13.94-.29-.43-.2-1,.19-1.33.39-.33.97-.3,1.34.06l11.01,10.82,5.3-5.7c.25-.27.63-.38.99-.29.36.09.63.38.72.74l.79,3.43c2.36-1.71,7.98-5.08,17.22-6.62.47-.09.94.19,1.11.65.16.46-.03.96-.45,1.2-13.33,7.61-14.47,10.59-14.56,10.92,0,.48-.34.9-.83.98-.06.01-.12.02-.17.02Zm.99-1.17h0s0,0,0,0Z"/>
  <path class="cls-1" d="m656.59,301.77c-.15,0-.3-.03-.43-.1l-4.54-2.19-.33.72c-.21.46-.74.69-1.22.54l-4.83-1.55-4.31,1.54c-.16.06-.33.07-.5.05l-7.91-1.29-5.48,2.22c-.17.07-.35.09-.53.06l-10.85-1.73-5.97-.57-10.21,1.32c-.15.02-.31,0-.45-.05l-4.59-1.56-11.73,2.58c-.15.03-.31.03-.46,0l-7.48-1.87-7.99.91c-.17.02-.35,0-.51-.07l-6.41-2.74-3.18,1.11c-.31.11-.65.06-.92-.14l-2.12-1.54-3.82,1.65c-.32.14-.69.1-.97-.1l-4.45-3.15-6.46,3.79c-.27.16-.59.18-.88.07l-4.23-1.68-2.83,1.1c-.14.05-.29.08-.44.06l-7.07-.55-6.94.55c-.34.02-.67-.12-.88-.4l-1.32-1.76,1.33,2.31c.22.38.16.87-.14,1.19-.31.32-.79.4-1.18.2l-4.21-2.14-4.19,1.51c-.46.16-.96-.02-1.2-.44l-1-1.72-1.51,1.53c-.23.23-.57.34-.89.28-.32-.06-.6-.27-.74-.57l-2.32-5.09-8.85,5.89c-.44.29-1.04.19-1.35-.23l-1.36-1.81h-4.1c-.12,0-.24-.02-.36-.07l-1.34-.51-6.06,1.78c-.09.03-.19.04-.28.04h-5.3l-7.86.91c-.11.01-.23,0-.34-.02-.46-.1-2.75-.67-3.84-1.66-1.1-.29-6.57.87-8.56,1.44-.93.26-4.41.92-4.56.95-.13.03-.27.02-.4,0l-7.12-1.56-3.6,2.4c-.25.17-.57.21-.86.12l-5.68-1.81-5.04,1.8c-.23.08-.48.08-.71-.01l-6.22-2.47-2.96,1.48c-.49.25-1.09.05-1.34-.45-.25-.49-.05-1.09.45-1.34l3.36-1.68c.25-.13.55-.14.82-.04l6.29,2.5,5.01-1.79c.21-.07.43-.08.64-.01l5.54,1.77,3.56-2.37c.22-.15.5-.2.77-.14l7.33,1.61c1.11-.21,3.52-.69,4.18-.87.91-.26,8.95-2.5,10.43-1.02.45.45,1.85.93,2.8,1.17l7.74-.9s.08,0,.12,0h5.22l6.24-1.83c.21-.06.44-.05.64.03l1.49.57h4.41c.31,0,.61.15.8.4l1.09,1.46,9.04-6.02c.24-.16.55-.21.83-.13.28.08.51.28.64.55l2.21,4.84,1.41-1.43c.22-.22.52-.33.84-.29.31.04.58.22.74.49l1.24,2.13,3.81-1.38c.26-.09.55-.08.79.05l1.6.81-7.77-13.52c-.26-.46-.12-1.04.32-1.33.44-.29,1.03-.19,1.35.23l10.77,14.34,6.47-.51c.05,0,.1,0,.16,0l6.92.54,2.98-1.16c.23-.09.5-.09.73,0l4.14,1.65,6.6-3.87c.34-.2.76-.18,1.08.05l4.52,3.2,3.82-1.65c.32-.14.7-.1.98.11l2.16,1.57,3.05-1.07c.23-.08.49-.07.72.02l6.52,2.79,7.91-.9c.12-.01.24,0,.36.02l7.43,1.86,11.77-2.58c.18-.04.36-.03.54.03l4.63,1.58,10.09-1.31c.08,0,.15-.01.22,0l6.15.59,10.64,1.69,5.49-2.22c.17-.07.36-.09.54-.06l7.93,1.3,4.39-1.57c.21-.07.43-.08.64,0l4.3,1.38.38-.84c.11-.25.32-.44.57-.53.25-.09.53-.08.78.04l4.93,2.38,3.27-2.3c.33-.23.76-.24,1.11-.03l.89.56,2.65-1.78c.32-.21.73-.23,1.06-.04l3.7,2.14c.48.28.64.89.36,1.37-.28.48-.89.64-1.37.36l-3.16-1.83-2.67,1.79c-.33.22-.75.23-1.09.02l-.88-.55-3.21,2.25c-.17.12-.37.18-.57.18Z"/>
  <path class="cls-1" d="m244.84,313.34c-7.94,0-16.94-1.42-20.17-2.28-3.72-1-6.09-.79-8.19-.6-.74.07-1.45.13-2.15.13-1.15,0-2.02.34-3.23.81-1.17.46-2.62,1.02-4.81,1.47-5.04,1.02-9.09-2.21-12.65-5.07-.43-.34-.5-.97-.16-1.41.34-.43.97-.5,1.41-.16,4.03,3.22,7.18,5.44,11.01,4.67,2.01-.41,3.32-.92,4.48-1.37,1.3-.51,2.43-.95,3.96-.95.61,0,1.27-.06,1.97-.12,2.15-.19,4.82-.42,8.88.66,5.35,1.43,24.63,3.89,30.38.49,4.97-2.94,8.71-3.21,11.18-3.38.74-.05,1.38-.1,1.9-.2,1.77-.36,3.93-.24,6.03-.13.95.05,1.94.1,2.86.11.9,0,2.57.26,4.67.57,4.61.69,12.34,1.85,14.59.49,3.55-2.16,5.11-2.98,7.95-1.72,2.46,1.09,10.87,4.55,15.92,3.14,2.64-.74,5.04-1.25,7.36-1.76,2.44-.53,4.74-1.02,6.77-1.68,1.05-.34,1.86-.73,2.65-1.11,2.08-1,3.88-1.87,7.93-.55,3.18,1.03,6.01,1.56,8.75,2.08,1.62.3,3.15.59,4.71.97,1.51.37,2.74.86,3.93,1.34,2.18.88,4.06,1.63,7.1,1.32,2.37-.24,3.27-.45,3.93-.61.83-.19,1.33-.29,2.94-.29,2.88,0,11.66,0,15.14-.62,2.25-.4,3.85.24,5.25.8,1.09.43,2.12.85,3.48.85,2.75,0,3.13-.56,4.55-2.66l.24-.35c.31-.46.93-.57,1.39-.26.46.31.57.93.26,1.39l-.24.35c-1.55,2.28-2.4,3.53-6.2,3.53-1.74,0-3.06-.53-4.22-.99-1.33-.53-2.48-.99-4.16-.69-3.66.65-12.26.65-15.5.65-1.45,0-1.82.09-2.49.24-.71.17-1.68.39-4.18.65-3.52.36-5.72-.52-8.05-1.46-1.12-.45-2.29-.92-3.65-1.25-1.51-.37-3.02-.65-4.61-.95-2.8-.52-5.69-1.07-9-2.14-3.29-1.07-4.47-.5-6.44.45-.81.39-1.72.83-2.9,1.21-2.12.69-4.47,1.19-6.96,1.73-2.29.5-4.67,1.01-7.25,1.73-5.53,1.55-13.92-1.75-17.27-3.24-1.77-.79-2.46-.61-6.1,1.6-2.65,1.61-9.04.82-15.93-.22-1.95-.29-3.63-.54-4.39-.55-.97,0-1.98-.06-2.95-.11-1.97-.11-4-.22-5.52.09-.64.13-1.34.18-2.15.24-2.42.17-5.74.41-10.3,3.11-2.5,1.48-6.93,2-11.75,2Z"/>
  <path class="cls-1" d="m236.16,389.54c-.49,0-.91-.35-.99-.85l-2.11-13.79c-.03-.18,0-.36.06-.53,1.14-2.84,4.99-12.19,6.4-13.41.62-.94,1.41-9.04,1.75-16.01-.32-1.54-3.74-17.34-9.62-27.14-.28-.47-.13-1.09.34-1.37.47-.29,1.09-.13,1.37.34,6.33,10.56,9.75,27.19,9.89,27.89.02.08.02.16.02.25-.36,7.36-1.08,16.38-2.46,17.56-.75.7-3.49,6.79-5.75,12.38l2.06,13.52c.08.55-.29,1.06-.84,1.14-.05,0-.1.01-.15.01Z"/>
  <path class="cls-1" d="m367.91,353.92c-.55,0-1-.45-1-1v-10.99l-9.59-13.92c-.08-.11-.13-.24-.16-.37l-2.3-11.68c-.09-.48.17-.95.62-1.13l12.06-4.6c.51-.2,1.09.06,1.29.58.2.52-.06,1.09-.58,1.29l-11.28,4.3,2.1,10.65,9.65,14c.12.17.18.36.18.57v11.3c0,.55-.45,1-1,1Z"/>
  <path class="cls-1" d="m276.38,505.39c-.26,0-.51-.1-.71-.29l-9-9c-.2-.2-.31-.47-.29-.76.02-.41.22-4.05.85-5.51.29-.82.2-6.4-.06-11.45l-16.99-18.31c-.09-.1-.16-.21-.2-.33l-5.45-14.66c-5.77-4.32-14.96-11.12-16.12-11.73-.41-.13-.7-.51-.7-.96,0-.55.45-1,1-1,.4,0,.91,0,17.26,12.26.15.12.27.27.34.45l5.48,14.75,17.1,18.43c.16.17.25.39.27.63.18,3.35.52,11.3-.08,12.7-.33.77-.57,2.93-.66,4.39l8.68,8.68c.39.39.39,1.02,0,1.41-.2.2-.45.29-.71.29Z"/>
  <path class="cls-1" d="m273.89,519.09c-.21,0-.42-.07-.6-.2l-9.96-7.57s-.08-.07-.12-.1c-.39-.4-9.51-9.91-11.09-13.08-1.17-2.34-7.44-9.91-10.59-13.58-.36-.42-.31-1.05.11-1.41.42-.36,1.05-.31,1.41.11.38.44,9.29,10.85,10.86,13.99,1.19,2.38,8.07,9.79,10.69,12.53l9.9,7.52c.44.33.52.96.19,1.4-.2.26-.5.39-.8.39Z"/>
  <path class="cls-1" d="m318.7,520.71c-.05,0-.11,0-.16-.01-.55-.09-.92-.6-.83-1.14.85-5.34,1.61-11.37,1.49-12.68-.04-.06-.08-.12-.11-.18-.21-.44-.61-1.26,4.82-13.44.07-.15.17-.28.29-.38l13.1-10.43-2.28-5.03c-.23-.5,0-1.1.5-1.32.51-.23,1.09,0,1.32.5l2.61,5.74c.19.42.07.91-.29,1.2l-13.52,10.76c-2.14,4.82-4.35,10.2-4.64,11.61.4,1.02.27,4.06-1.31,13.96-.08.49-.5.84-.99.84Zm.84-13.54c.07.05.16.08.26.11-.09-.02-.18-.06-.26-.11Z"/>
  <path class="cls-1" d="m358.23,516.77c-.12,0-.25-.02-.37-.07-.51-.2-.76-.79-.56-1.3l7.47-18.8-1.89-16.79c-.04-.32.08-.63.32-.85l10.73-9.79,2.98-8.19c.19-.52.76-.79,1.28-.6.52.19.79.76.6,1.28l-3.06,8.42c-.05.15-.15.29-.27.4l-10.54,9.62,1.86,16.54c.02.16,0,.33-.06.48l-7.57,19.04c-.16.39-.53.63-.93.63Z"/>
  <path class="cls-1" d="m356.99,440.67c-.09,0-.18-.01-.27-.04-.53-.15-.84-.7-.69-1.23l4.88-17.23c.04-.12.09-.24.17-.34l5.11-6.51-5.29-21.74c-.09-.39.05-.8.38-1.04l10.82-8.04c.44-.33,1.07-.24,1.4.21.33.44.24,1.07-.21,1.4l-10.29,7.65,5.25,21.57c.07.3,0,.61-.18.85l-5.29,6.74-4.83,17.04c-.12.44-.53.73-.96.73Z"/>
  <path class="cls-1" d="m279.44,426.88c-.55,0-1-.45-1-1v-13.18c-2.41-5.21-6.88-14.89-7.17-15.47-.28-.56-.63-1.25,7.31-14.56.28-.48.9-.63,1.37-.35.47.28.63.9.35,1.37-3.22,5.4-6.65,11.51-7.11,12.91,1.02,2.15,6.89,14.88,7.16,15.46.06.13.09.27.09.42v13.4c0,.55-.45,1-1,1Zm-6.29-30.11h0Zm-.09-.44s0,0,0,0c0,0,0,0,0,0Z"/>
  <path class="cls-1" d="m285.38,351.24c-.29,0-.58-.13-.78-.38l-10.9-13.6c-.3-.37-.29-.9.01-1.27l7.6-9.1v-9.98l-15.17-8.82c-.48-.28-.64-.89-.36-1.37.28-.48.89-.64,1.37-.36l15.67,9.1c.31.18.5.51.5.86v10.92c0,.23-.08.46-.23.64l-7.31,8.75,10.39,12.96c.35.43.28,1.06-.16,1.41-.18.15-.41.22-.62.22Z"/>
  <path class="cls-1" d="m308.35,341.86c-.55,0-1-.45-1-1v-10.92c0-.13.03-.26.08-.38l7.28-17.59c.08-.2.22-.36.4-.47l7.08-4.31c.47-.29,1.09-.14,1.38.33.29.47.14,1.09-.33,1.38l-6.81,4.14-7.08,17.11v10.72c0,.55-.45,1-1,1Z"/>
  <path class="cls-1" d="m327.12,389.54c-.39,0-.76-.23-.92-.61l-4.4-10.53-4.04-11.54c-.08-.22-.07-.46,0-.68l4.02-10.92c.19-.52.77-.78,1.28-.59.52.19.78.77.59,1.28l-3.9,10.58,3.9,11.15,4.38,10.48c.21.51-.03,1.1-.54,1.31-.13.05-.26.08-.39.08Z"/>
  <path class="cls-1" d="m390.31,373.07c-.55,0-1-.45-1-1v-15.13c0-.18.05-.36.15-.52l7.58-12.46c.29-.47.9-.62,1.37-.33.47.29.62.9.33,1.37l-7.43,12.22v14.85c0,.55-.45,1-1,1Z"/>
  <path class="cls-1" d="m239.03,429.94c-.15,0-.29-.03-.43-.1l-15.43-7.43-17.34-4.96c-.43-.12-.73-.52-.73-.96v-23.94c0-.55.45-1,1-1s1,.45,1,1v23.18l16.7,4.77c.05.02.11.04.16.06l15.51,7.47c.5.24.71.84.47,1.33-.17.36-.53.57-.9.57Z"/>
  <path class="cls-1" d="m214.33,326.92c-.37,0-.72-.2-.9-.56l-6.7-13.57c-.25-.5-.04-1.09.45-1.34.49-.25,1.1-.04,1.34.45l6.7,13.57c.25.5.04,1.09-.45,1.34-.14.07-.29.1-.44.1Z"/>
  <path class="cls-1" d="m455.16,344.32c-3.4,0-14.48-3.62-14.61-3.66-.39-.13-1.2-.4-2.34-7.97-1-6.62-.12-7.25.35-7.58,1.45-1.03,8.45-2.4,9.84-2.66.2-.04.4-.01.59.07,4.78,2.11,12.92,5.8,13.72,6.8.59.74.99,2.27-1.2,7.52-1.04,2.5-4.65,6.67-5.49,7.31-.15.12-.45.17-.86.17Zm-13.62-5.44c2.28.71,11.63,3.45,13.44,3.53.88-.83,3.84-4.31,4.68-6.33,1.9-4.56,1.47-5.52,1.47-5.52-.63-.56-6.89-3.52-12.66-6.07-3.63.7-7.66,1.67-8.63,2.19-.51,1.56.98,10.29,1.7,12.21Zm13.6,3.53h0Zm-13.5-3.29h0Z"/>
  <path class="cls-1" d="m448.44,353.93c-.7,0-1.3-.28-1.73-.79-1.18-1.43-.63-4.31-.39-5.31l-.26-.65c-.15-.38-.06-.81.23-1.1.3-.28.73-.36,1.1-.19,3.66,1.65,5.66,2.98,5.94,3.96.11.37.05.74-.15,1.05-.68,1.02-1.85,2.8-4.51,3.03-.08,0-.16,0-.23,0Zm-.22-5.44c-.29,1.3-.34,2.91.04,3.37.03.04.06.08.24.06,1.43-.12,2.18-.94,2.71-1.68-.53-.43-1.71-1.11-2.99-1.76Z"/>
  <path class="cls-1" d="m557.7,376.35c-3.01,0-6.27-.77-7.12-4.02-.48-1.84-.81-2.6-1.01-3.05-.43-.97-.38-1.22-.05-2.83l.21-1.07c.85-4.32,3.33-8.73,3.43-8.92.11-.2.29-.35.5-.44,4.29-1.7,10.59-2.5,16.25,3.33l.14.15c.08.08,7.32,9.49,6.59,11.08-.66,1.45-13.46,5.18-13.57,5.18-.09,0-.31.05-.62.1-1.01.17-2.84.49-4.77.49Zm-2.96-18.6c-.56,1.05-2.38,4.63-3.04,8.01l-.22,1.08q-.25,1.24-.08,1.63c.22.51.6,1.36,1.12,3.36.92,3.56,7.46,2.43,9.61,2.06.54-.09.77-.13.96-.13.91-.13,9.12-2.97,11.45-4.04-1.04-2.01-5.06-7.98-5.89-8.81l-.16-.17c-3.85-3.96-8.47-4.97-13.75-3Zm20.33,11.69h0Z"/>
  <path class="cls-1" d="m631.01,344.93c-.71,0-1.48-.22-2.05-.38-.26-.07-.62-.18-.82-.21-.25.11-.52.13-.79.05-.72-.22-.95-.93-1.37-2.22-.33-1.01-.73-2.26-1.3-3-.45-.59-.52-1.31-.19-1.98.95-1.92,5.43-3.26,5.77-3.26.26,0,.5.1.69.28,4.44,4.25,4.22,5,4.08,5.5-.12.43-.42.96-.95,1.86-.43.73-.92,1.56-1.19,2.22-.36.89-1.1,1.15-1.88,1.15Zm-2.62-.74s0,0,0,0c0,0,0,0,0,0Zm-.25-1.85c.41.02.87.15,1.36.29.41.12,1.23.36,1.58.31.33-.77.83-1.63,1.28-2.39.22-.38.5-.86.66-1.16-.39-.62-1.74-2.08-3.04-3.35-1.19.39-3.32,1.37-3.67,1.97.76,1.02,1.21,2.42,1.57,3.55.08.25.17.54.26.78Z"/>
  <path class="cls-1" d="m645.78,376.73c-2.98,0-6.92-2.28-8.01-3.37-1.57-1.57-1.8-3.32-2.36-7.54v-.12c-.81-6.03,10.14-8.37,10.25-8.39.07-.01.13-.02.2-.02h0c.77,0,7.55.09,9.7,3.1,1.64,2.3.53,3.91-.46,5.34-.5.73-1.02,1.49-1.32,2.43-1.07,3.42-3.8,6.63-5.94,8.03-.58.38-1.29.54-2.07.54Zm.19-17.44c-2.94.63-9,3-8.59,6.15l.02.12c.55,4.2.74,5.35,1.79,6.39,1.32,1.32,6.17,3.5,7.57,2.58,1.8-1.18,4.21-4.01,5.13-6.96.39-1.24,1.02-2.16,1.58-2.97.99-1.43,1.26-1.94.48-3.04-1.16-1.62-5.46-2.25-7.97-2.27Z"/>
  <path class="cls-1" d="m476.2,452.17c-1.79,0-3.92-.41-6.36-1.22-1.38-.46-3-2.23-4.12-4.51-1.41-2.87-1.77-5.92-.98-8.42l-.41-3.61c-.04-.33.1-.67.36-.88l8.09-6.7c.26-.22.62-.28.94-.18l9.76,3.06c.29.09.52.31.63.59.06.15,1.4,3.65,1.79,9.29.39,5.69-2.08,8.14-4.46,10.5l-.43.42c-1.1,1.1-2.72,1.65-4.81,1.65Zm-9.82-17.44l.37,3.29c.02.15,0,.3-.05.44-.7,2.03-.41,4.62.81,7.1.96,1.95,2.24,3.26,2.96,3.5,4.44,1.48,7.68,1.5,9.12.05l.43-.43c2.25-2.24,4.2-4.17,3.87-8.94-.29-4.22-1.15-7.19-1.5-8.26l-8.77-2.75-7.26,6.01Z"/>
  <path class="cls-1" d="m496.25,455.97c-.67,0-1.4-.13-2.17-.26-.63-.11-1.28-.22-2-.29-1.61-.16-2.72-.74-3.32-1.71-.68-1.13-.38-2.35-.24-2.76.11-.74.77-5.19.95-6.1.04-.21.22-.73.9-.94,1.63-.49,8.97,1.53,9.97,2.53.67.67.75,1.08.41,1.94-.17.43-.54,1.34-.9,3.53-.3,1.82-.83,2.9-1.7,3.52-.58.41-1.22.55-1.92.55Zm-5.82-4.42s-.23.66.05,1.12c.31.5,1.15.69,1.8.75.79.08,1.51.2,2.14.32,1.19.21,2.14.37,2.59.05.38-.27.68-1.02.88-2.22.36-2.18.74-3.23.95-3.78-1-.57-5.88-1.92-7.51-1.99-.27,1.63-.84,5.49-.85,5.53-.01.07-.03.15-.06.22Zm-.93-.37h0,0Z"/>
  <path class="cls-1" d="m600.32,494.74c-2.5,0-4.73-.91-6.29-1.55-.47-.19-.89-.37-1.25-.49-2.26-.75-3.19-3.94-4.26-7.62-.3-1.03-.61-2.1-.96-3.16-1.46-4.37,2.35-8.68,4.18-10.75.33-.37.59-.66.74-.87,1.07-1.5,6.15-2.65,8.28-3.08.3-.06.61.02.84.22.26.22,6.36,5.4,7.53,6.57,1.14,1.14,5.46,7.51,5.46,10.28,0,3.93-8.72,8.77-9.71,9.3-1.56.84-3.1,1.15-4.55,1.15Zm.35-25.46c-3.19.67-6.14,1.65-6.57,2.19-.19.26-.49.6-.86,1.03-1.7,1.93-4.88,5.52-3.79,8.79.36,1.08.68,2.18.99,3.23.84,2.88,1.71,5.87,2.98,6.29.4.13.86.32,1.38.53,2.41.99,5.72,2.34,9.12.49,5.35-2.9,8.67-6.18,8.67-7.55,0-1.82-3.72-7.71-4.88-8.87-.95-.95-5.67-4.98-7.04-6.14Z"/>
  <path class="cls-1" d="m590.6,465.81c-2.37,0-5.85-1.25-5.9-1.27-2-.75-2.89-2.99-2.51-4.12,0-.11-.07-.96-.12-1.58-.22-2.69-.26-3.94.35-4.57.6-.62,7.87-4.08,9.65-3.49.3.1.53.33.63.63l3.25,9.58c.13.39.01.81-.29,1.08-1.28,1.11-2.8,2.56-3.02,2.95-.29.59-1.08.79-2.05.79Zm.26-1.69h0s0,0,0,0Zm-6.91-8.51c-.09.58.04,2.24.11,3.07.12,1.48.15,1.99.02,2.37,0,.2.36,1.26,1.32,1.62,1.51.57,4.7,1.24,5.64,1.15.56-.78,1.89-2.02,2.8-2.82l-2.8-8.25c-1.65.33-6.07,2.19-7.09,2.86Zm.03-.12h0Zm7.54-2.78h0,0Z"/>
  <path class="cls-1" d="m619.52,471.88c-.28,0-.87,0-5.32-2.84-.19-.12-.34-.31-.41-.53,0,0-.95-2.84-1.14-3.35-.36-.95-.54-1.43,8.04-4.79.28-.11.59-.09.85.06.26.14.44.4.5.69.58,3.04,1.55,8.22,1.55,8.8,0,1.84-4.02,1.96-4.06,1.96Zm-3.95-4.33c1.63,1.03,3.51,2.13,4.05,2.33.45-.02,1.4-.2,1.91-.37-.17-1.09-.69-3.97-1.23-6.82-2.26.91-4.58,1.92-5.54,2.45.26.75.63,1.86.81,2.41Z"/>
  <path class="cls-1" d="m169.31,333.48c-4.01,0-12.82-3.04-14.55-3.82-3.19-1.43-5.56-7.43-6.13-10.33-.67-3.45,4.03-7.33,4.57-7.76.22-.18.51-.25.79-.21l17.23,2.85c.17.03.33.1.47.21,1.71,1.4,4.58,3.98,4.58,5.56,0,1.79-4.63,12.36-4.68,12.47-.12.26-.37.62-.93.83-.34.13-.8.19-1.35.19Zm-15.2-20.06c-1.65,1.41-3.83,3.93-3.52,5.53.58,2.97,2.8,7.91,4.98,8.88,3.11,1.39,12.51,4.12,14.27,3.63,1.33-3.02,4.37-10.39,4.43-11.48-.11-.51-1.79-2.29-3.64-3.84l-16.52-2.73Z"/>
  <path class="cls-1" d="m155.93,346.07c-.21,0-.42-.07-.6-.2-.25-.19-.4-.49-.4-.8v-8.43c0-.29.13-.57.35-.76.23-.19.52-.27.81-.22l9,1.53c.3.05.56.23.7.5.15.26.17.58.06.86l-1.92,4.79c-.11.28-.35.5-.64.59l-7.08,2.11c-.09.03-.19.04-.29.04Zm1-8.24v5.9l5.34-1.59,1.28-3.19-6.61-1.13Z"/>
  <path class="cls-1" d="m142.14,329.74c-.16,0-.31-.04-.46-.11l-3.64-1.86c-.33-.17-.54-.52-.54-.89v-5.36c0-.33.16-.64.43-.82.27-.19.62-.23.92-.11,7.73,2.93,7.73,4.49,7.73,5,0,1.8-2.79,3.43-3.99,4.05-.14.07-.3.11-.46.11Zm-2.64-3.47l2.62,1.34c1.15-.66,2.2-1.49,2.42-1.93-.51-.57-2.6-1.67-5.04-2.69v3.28Z"/>
  <path class="cls-3" d="m28.4,327.07s-6.51,7.85-4.02,9.96,9.57,6.37,9.57,6.37c0,0,8.62-6.13,9-8.16s.96-9.31.96-9.31l-15.51,1.15Z"/>
  <path class="cls-3" d="m48.5,334.66s.77,3.13,1.34,3.33,9.57,1.53,9.57,1.53v-5.74h-10.91v.89Z"/>
  <path class="cls-1" d="m77.44,424.91c-1.07,0-3.91-.76-12.92-4.19-.15-.06-.28-.15-.38-.26l-7.66-8.42c-.32-.35-.35-.88-.06-1.27l7.66-10.34c.25-.34.7-.49,1.11-.36l19.34,6.13c.31.1.55.34.65.64l2.87,8.81c.13.39,0,.82-.31,1.08,0,0-9,7.47-9.57,7.95-.14.12-.29.24-.72.24Zm-11.98-5.98c4.88,1.85,10.31,3.75,11.68,3.98,1.36-1.13,7.03-5.83,8.79-7.29l-2.5-7.67-18.17-5.76-6.75,9.11,6.95,7.64Z"/>
  <path class="cls-1" d="m130.65,402.31c-.23,0-.45-.08-.63-.22l-3.06-2.49c-.33-.27-.45-.72-.31-1.12l3.06-8.43c.17-.48.67-.75,1.16-.63l7.47,1.72c.31.07.57.29.7.59,2.57,6.12,2.57,6.69,2.57,6.9,0,.89,0,1.38-10.75,3.66-.07.01-.14.02-.21.02Zm-1.88-3.82l2.14,1.74c3.44-.74,7.13-1.63,8.53-2.11-.35-.98-1.21-3.12-2.05-5.15l-6.11-1.41-2.52,6.92Z"/>
  <path class="cls-1" d="m63.25,494.44c-1.5,0-3.6-.19-6.58-.71-.09-.02-.18-.04-.26-.08l-11.11-5.36c-.4-.19-.63-.63-.55-1.07l4.79-27.58c.05-.3.24-.56.5-.71s.58-.16.87-.05c4.11,1.7,13.78,5.82,14.79,7.24.42.59,1.39,1.95-7.21,10.3l9.97,5.88c.36.21.55.63.47,1.05-.06.33-1.54,8.09-1.93,9.63-.12.46-.36,1.46-3.75,1.46Zm-6.1-2.66c3.56.61,7.06.82,7.97.5.36-1.58,1.36-6.73,1.72-8.6l-10.5-6.2c-.27-.16-.45-.44-.49-.75-.04-.31.08-.62.3-.84,3.45-3.29,7.22-7.43,7.75-8.76-1.22-.91-7.01-3.57-12.6-5.92l-4.44,25.6,10.3,4.97Z"/>
  <polygon class="cls-3" points="37.5 471.11 33.86 479.15 39.32 480.68 39.32 471.11 37.5 471.11"/>
  <path class="cls-1" d="m82.69,481.68s-.1,0-.15-.01c-.16-.02-3.93-.6-6.46-1.37-3.21-.99-1.93-7.38-1.64-8.65.1-.46.51-.78.97-.78h7.28c.55,0,1,.45,1,1v8.81c0,.29-.13.57-.35.76-.18.16-.41.24-.65.24Zm-6.46-8.81c-.46,2.54-.39,5.26.43,5.51,1.57.48,3.72.89,5.03,1.12v-6.63h-5.46Z"/>
  <path class="cls-1" d="m183.69,517.41c-.34,0-.67-.18-.85-.48l-5.75-9.38c-.27-.44-.16-1.01.25-1.32l8.43-6.32c.18-.14.41-.22.63-.2,18.56.59,19.32,1.92,19.6,2.42.67,1.18-.53,5.34-3.59,12.38-.14.32-.44.55-.79.59l-17.81,2.3s-.09,0-.13,0Zm-4.42-10.13l4.93,8.05,16.6-2.14c1.71-4.01,3.38-8.63,3.43-9.97-1.72-.64-9.99-1.25-17.54-1.5l-7.42,5.56Zm25.17-3.96h0Z"/>
  <path class="cls-1" d="m200.92,494.43h-4.98c-.42,0-.79-.26-.93-.64-.16-.43-1.6-4.24-1.6-5.91,0-.43.27-.81.68-.95l7.85-2.68c.33-.11.7-.04.97.18.27.23.4.58.34.92l-1.34,8.23c-.08.48-.5.84-.99.84Zm-4.28-2h3.43l.94-5.75-5.51,1.88c.2,1.04.71,2.65,1.15,3.87Z"/>
  <path class="cls-1" d="m217.21,519.09h-6.13c-.45,0-.84-.3-.96-.73l-1.72-6.23c-.09-.32-.01-.67.21-.92.22-.25.55-.38.88-.34l9.58,1.15c.3.04.57.21.73.46.16.25.2.57.1.85l-1.72,5.08c-.14.41-.52.68-.95.68Zm-5.37-2h4.65l1.1-3.23-6.87-.82,1.12,4.06Z"/>
  <path class="cls-1" d="m321.69,520.71s-.02,0-.03,0l-56.42-1.92c-.21,0-.4-.08-.57-.2-.19-.14-18.89-14.26-30.25-22.59-7.18-5.27-8.75-7-10.02-8.39-.75-.82-1.33-1.47-3.01-2.73-4.39-3.29-6.98-15.53-7.83-19.55-.09-.44-.16-.76-.2-.92-.41-.9-5.51-5.2-9.98-8.64-.15-.11-.26-.27-.33-.44-.19-.51-4.66-12.48-4.66-17.59,0-.74-.03-1.94-.08-3.46-.4-14.21-.34-29.36,3.16-33.91,3.45-4.5,9.59-33.69,11.79-45.19-2.14-2.55-9.45-11.33-10.2-13.2-.57-1.42-.46-5.97-.22-12.75.08-2.18.15-4.24.15-5.62,0-2.13-2.17-5.23-4.92-9.17-1.82-2.6-3.87-5.54-5.95-9.05-1.68-2.85-4.77-4.62-8.07-4.62-.18,0-.36-.05-.51-.14l-5.79-3.48-8.47,3.54c-.34.14-.73.08-1.02-.15l-3.65-2.98-7.13.47-7.58,2.67c-.21.07-.44.07-.65,0l-6.35-2.13c-4.62.81-11.44,2.03-11.93,2.15-.68.17-7.03-.26-8.32-1.06-.71-.31-5.47-1.17-9.81-1.85l-8.29,3.47c-.17.07-.36.1-.55.06l-9.32-1.53c-.24-.04-.46-.17-.61-.35l-1.81-2.21-4.79,2.23c-.16.08-.33.11-.51.09l-7.15-.64c-.09,0-.18-.03-.26-.06l-3.28-1.21c-2.56,1.37-5.4,3.02-5.8,3.45-.33.48-.89,1.28-8.09-1h-4.43l-9.19,2.5c-.23.06-.48.04-.7-.07l-8.1-3.93-8.84,2.12c-.08.02-.15.03-.23.03-.1,0-2.58-.03-5.01-2.21-.27-.24-.49-.44-.66-.6l-6.31,2.72c-.22.1-.46.11-.69.04-1.76-.54-3.94-1.12-4.4-1.12h0c-.72.01-1.94,0-2.4,0l-3.02,1.11c-.22.08-.46.08-.68,0l-6.64-2.34c-.52-.18-.79-.75-.61-1.28.18-.52.75-.8,1.28-.61l6.3,2.22,2.85-1.04c.11-.04.28-.04.35-.06,0,0,1.64.02,2.52,0h.03c.91,0,3.47.74,4.65,1.1l5.76-2.49c.04-.11.11-.21.21-.32.45-.5.73-.55,1.42-.02l.02-.02.21.19s.04.04.06.06c.29.24.64.56,1.09.96,1.6,1.44,3.16,1.66,3.58,1.69l9.05-2.17c.22-.06.46-.03.67.07l8.09,3.92,8.96-2.44c.09-.02.17-.04.26-.04h4.72c.1,0,.21.02.3.05,2.43.78,5.42,1.51,6.28,1.5.99-.89,4.06-2.61,6.61-3.96.25-.13.55-.16.82-.05l3.58,1.32,6.75.6,5.25-2.44c.42-.19.91-.08,1.2.27l2.06,2.52,8.66,1.42,8.29-3.46c.17-.07.36-.09.54-.07,9.34,1.46,10.56,1.98,10.88,2.2.88.38,6.02.89,6.77.78.59-.16,10.33-1.87,12.28-2.21.16-.03.33-.01.49.04l6.26,2.1,7.38-2.6c.09-.03.18-.05.27-.05l7.66-.51c.24,0,.5.06.7.22l3.49,2.85,8.38-3.51c.29-.12.63-.1.9.07l6,3.6c3.89.1,7.52,2.22,9.51,5.6,2.03,3.44,4.07,6.35,5.86,8.92,3.07,4.39,5.29,7.56,5.29,10.31,0,1.42-.07,3.5-.15,5.69-.15,4.3-.38,10.8.08,11.93.51,1.29,6.52,8.67,10.18,13.02.19.23.27.54.22.83-.31,1.66-7.75,40.63-12.25,46.5-3.53,4.61-2.98,24.25-2.75,32.64.04,1.55.08,2.77.08,3.52,0,4.35,3.77,14.82,4.43,16.62,3.85,2.97,10.07,7.97,10.47,9.57.04.17.12.52.22.99,2.18,10.3,4.56,16.48,7.07,18.37,1.83,1.37,2.51,2.12,3.29,2.98,1.2,1.32,2.7,2.97,9.72,8.12,10.64,7.81,27.73,20.69,30.01,22.41l56.04,1.9c1.77-.15,40.95-3.52,49.76-6.46,6.39-2.13,7.59-13.61,8.24-19.77.26-2.49.41-3.83.73-4.57.28-.65.99-2.15,1.98-4.22,3.11-6.51,8.89-18.62,10.62-24.4.3-1,.62-2.02.94-3.06,2.17-6.92,4.41-14.07,2.51-20.1-.54-1.7-1.48-3.9-2.58-6.44-3.52-8.18-8.34-19.38-4.63-26.49,1.47-2.81,3.3-5.36,5.07-7.83,3.76-5.23,7.31-10.16,6.32-16.39-.56-3.5-1.22-7.12-1.86-10.63-1.16-6.32-2.25-12.29-2.74-17.44-.8-8.4,8.57-22.45,11.65-27.07.94-1.4-.07-5.61-.96-9.32-1.3-5.39-2.63-10.97-.34-13.89.96-1.22,2.45-1.84,4.43-1.84.55,0,1,.45,1,1s-.45,1-1,1c-1.35,0-2.29.35-2.86,1.08-1.7,2.16-.42,7.48.71,12.18,1.13,4.7,2.11,8.77.69,10.89-2.98,4.48-12.06,18.09-11.33,25.78.48,5.07,1.57,11,2.72,17.27.64,3.52,1.31,7.16,1.87,10.68,1.12,7.04-2.66,12.3-6.67,17.87-1.73,2.41-3.52,4.9-4.92,7.59-3.27,6.27,1.33,16.97,4.69,24.78,1.12,2.59,2.08,4.84,2.65,6.63,2.09,6.63-.35,14.42-2.5,21.3-.32,1.03-.64,2.04-.94,3.03-1.78,5.92-7.6,18.13-10.73,24.69-.94,1.97-1.68,3.53-1.95,4.14-.21.5-.39,2.19-.58,3.99-.74,7.08-1.98,18.92-9.6,21.46-9.2,3.07-48.61,6.42-50.28,6.56-.03,0-.06,0-.08,0Zm-252.8-220.78h0Zm0,0s0,0,0,0c0,0,0,0,0,0Zm0,0s0,0,0,0c0,0,0,0,0,0Zm0,0s0,0,0,0c0,0,0,0,0,0Zm53.66-.28s.04.03.05.04c-.02-.01-.03-.02-.05-.04Z"/>
  <polyline class="cls-3" points="41.53 256.04 13.41 256.04 13.41 298.49 23.41 298.49 33.41 288.49 41.53 288.49"/>
  <path class="cls-1" d="m69.64,299.49h-10c-.27,0-.52-.11-.71-.29l-9.71-9.71h-7.7c-.55,0-1-.45-1-1s.45-1,1-1h8.11c.27,0,.52.11.71.29l9.71,9.71h8.59v-40.45h-27.11c-.55,0-1-.45-1-1s.45-1,1-1h28.11c.55,0,1,.45,1,1v42.45c0,.55-.45,1-1,1Z"/>
  <path class="cls-1" d="m69.64,257.04H13.41c-.55,0-1-.45-1-1v-7.37c0-.55.45-1,1-1h56.23c.55,0,1,.45,1,1v7.37c0,.55-.45,1-1,1Zm-55.23-2h54.23v-5.37H14.41v5.37Z"/>
  <rect class="cls-3" x="20.15" y="261.9" width="42.76" height="20.73"/>
  <path class="cls-1" d="m69.64,249.67H13.41c-.36,0-.69-.19-.87-.5-.18-.31-.18-.69,0-1l10-17.37c.18-.31.51-.5.87-.5h36.23c.36,0,.69.19.87.5l10,17.37c.18.31.18.69,0,1-.18.31-.51.5-.87.5Zm-54.5-2h52.77l-8.85-15.37H23.99l-8.85,15.37Z"/>
  <polygon class="cls-3" points="56.3 236.6 26.75 236.6 23.15 243.37 59.91 243.37 56.3 236.6"/>
  <path class="cls-1" d="m74.16,268.02h-4.51c-.55,0-1-.45-1-1v-13.17c0-.55.45-1,1-1h4.51c.55,0,1,.45,1,1v13.17c0,.55-.45,1-1,1Zm-3.51-2h2.51v-11.17h-2.51v11.17Z"/>
  <g>
    <path class="cls-1" d="m318.69,520.71c-.09,0-.19-.01-.29-.04-.53-.16-.83-.71-.67-1.24.74-2.48,1.46-5.51,1.47-6.42-.06-.08-.12-.17-.15-.27-.21-.57-.47-1.27,8.49-13.81.21-.29.55-.44.91-.41l11.27,1.11,6.09-14.67c.21-.51.79-.75,1.31-.54.51.21.75.8.54,1.31l-6.38,15.36c-.17.41-.58.65-1.02.61l-11.43-1.13c-3.45,4.85-7.04,10.16-7.75,11.65.18.51.29,1.98-1.44,7.79-.13.43-.53.71-.96.71Zm1.09-7.31s0,0,0,0t0,0Zm-.1-.03s.07.02.1.03c-.03,0-.07-.02-.1-.03Zm1.29-.88h0Z"/>
    <g>
      <path class="accent" d="m322.54,508.92c.34.49.54.98.58,1.47.04.49-.03.98-.23,1.45s-.5.93-.89,1.37c-.4.44-.86.84-1.39,1.21l-5.31,3.74-7.6-10.81,6.27-4.41c.38-.26.77-.42,1.19-.47.42-.05.82-.02,1.22.09s.77.29,1.12.53c.35.25.64.55.89.89.36.51.57,1.08.63,1.73.07.64-.08,1.26-.43,1.86.75-.25,1.46-.28,2.14-.08.68.2,1.29.68,1.82,1.44Zm-10.1-1.13l1.17,1.66,2.02-1.42c.2-.14.35-.33.44-.56.09-.23.01-.51-.22-.85-.21-.29-.43-.45-.66-.48-.23-.03-.44.03-.64.16l-2.12,1.49Zm6.66,2.64c-.19-.26-.41-.43-.68-.51-.27-.08-.51-.04-.73.12l-2.45,1.72,1.27,1.81,2.34-1.65c.24-.17.4-.39.46-.66s-.01-.55-.21-.83Z"/>
      <path class="accent" d="m329.9,508c-.69.49-1.41.8-2.16.96-.75.15-1.47.17-2.16.04-.7-.13-1.34-.38-1.94-.75-.6-.38-1.09-.84-1.49-1.4s-.67-1.2-.81-1.89c-.14-.69-.14-1.38,0-2.08.13-.69.4-1.36.81-2,.41-.64.95-1.2,1.63-1.68s1.42-.81,2.17-.96,1.47-.16,2.16-.03c.69.13,1.34.38,1.93.76s1.08.84,1.47,1.39.67,1.19.81,1.88.14,1.37,0,2.06c-.13.69-.4,1.36-.8,2.01-.4.65-.94,1.21-1.62,1.69Zm-5.09-2.97c.19.26.41.49.67.68.26.19.55.32.85.4s.63.09.96.03c.33-.06.68-.21,1.02-.46s.6-.51.77-.81c.17-.3.26-.61.28-.93.02-.32-.02-.63-.11-.93-.09-.31-.23-.59-.42-.86s-.41-.49-.67-.68c-.26-.19-.54-.32-.84-.39-.3-.07-.62-.07-.95-.01s-.67.21-1.01.45-.6.51-.77.81c-.17.3-.27.6-.3.92-.03.31,0,.62.1.93.1.31.24.59.41.85Z"/>
      <path class="accent" d="m335.69,503.82l-6.08-8.65,2.59-1.82,4.5,6.39,3.78-2.65,1.58,2.25-6.36,4.47Z"/>
      <path class="accent" d="m348.42,493.93c-.15.47-.36.88-.62,1.22-.26.34-.59.66-1,.94-.59.41-1.23.69-1.93.83-.7.14-1.39.14-2.08.02-.69-.12-1.34-.37-1.95-.75-.61-.37-1.13-.86-1.56-1.47s-.71-1.26-.84-1.96-.13-1.38.02-2.06c.14-.68.42-1.32.83-1.94.41-.61.94-1.15,1.59-1.61.82-.58,1.67-.93,2.55-1.05.88-.12,1.68,0,2.41.37l-.9,2.84c-.38-.2-.81-.28-1.29-.24-.47.04-.89.18-1.26.44-.56.39-.88.9-.97,1.53s.09,1.27.54,1.9.99,1.01,1.61,1.13c.63.12,1.23-.04,1.82-.45.53-.37.9-.92,1.13-1.63l-1.43,1.01-1.31-1.86,3.93-2.76,3.28,4.66-2.15,1.51-.44-.62Z"/>
      <path class="accent" d="m357.68,484.99l1.58,2.25-6.91,4.86-6.08-8.65,6.79-4.77,1.58,2.25-4.2,2.95.66.94,3.59-2.53,1.48,2.1-3.59,2.53.77,1.1,4.32-3.04Z"/>
      <path class="accent" d="m360.45,480.65l2.71,3.85-2.59,1.82-6.08-8.65,2.02-1.42,6.82,1.16-2.8-3.99,2.59-1.82,6.08,8.65-2.06,1.45-6.7-1.05Z"/>
      <path class="accent" d="m375.91,475.68c-.82.58-1.68.95-2.57,1.1-.89.16-1.76.15-2.59-.03-.84-.18-1.62-.5-2.35-.98-.73-.47-1.34-1.06-1.83-1.76s-.84-1.49-1.03-2.34c-.19-.85-.22-1.7-.08-2.55.14-.85.44-1.66.9-2.43.47-.77,1.1-1.44,1.9-2.01s1.68-.95,2.57-1.1c.89-.16,1.76-.14,2.6.04s1.62.51,2.35.99c.72.48,1.33,1.06,1.81,1.75s.84,1.49,1.03,2.34c.19.85.21,1.69.08,2.54-.13.85-.43,1.66-.89,2.44-.46.78-1.09,1.45-1.89,2.01Zm-6.31-3.76c.26.37.56.68.9.95.34.27.71.46,1.09.58.39.12.79.16,1.22.1s.85-.23,1.27-.53.74-.64.93-1.03c.2-.39.3-.79.31-1.2s-.06-.82-.21-1.23c-.15-.41-.34-.8-.59-1.15s-.56-.68-.9-.95c-.34-.27-.71-.46-1.1-.57s-.8-.14-1.21-.08c-.42.06-.84.24-1.26.53s-.74.64-.93,1.02-.3.78-.31,1.19c-.01.41.05.82.19,1.23.14.41.34.79.59,1.14Z"/>
      <path class="accent" d="m384.22,461.26s-.18.01-.39.04c-.22.03-.47.07-.77.14-.29.07-.6.17-.93.29-.33.13-.63.28-.9.48-.22.16-.39.3-.5.43-.11.13-.13.24-.05.35.13.18.37.21.73.07.36-.13.87-.31,1.52-.52.51-.18,1-.32,1.45-.41.45-.1.88-.13,1.27-.09.39.04.75.15,1.08.34.33.19.64.49.93.9.38.54.59,1.06.64,1.57s-.02.99-.21,1.44c-.18.45-.45.88-.81,1.27s-.76.74-1.2,1.05c-.33.24-.7.46-1.1.66s-.81.39-1.22.55c-.41.16-.83.3-1.25.41-.42.11-.82.2-1.19.25l-.47-3.06c.08.02.24.02.49,0s.55-.09.9-.18.72-.22,1.11-.38c.39-.16.77-.37,1.12-.62.26-.19.43-.34.51-.46s.09-.21.05-.27c-.07-.1-.19-.14-.35-.13-.16.01-.35.05-.58.13-.23.07-.49.17-.78.28-.29.12-.6.23-.94.33-1.01.31-1.83.41-2.48.3s-1.2-.5-1.66-1.16c-.33-.47-.52-.95-.59-1.45-.06-.5-.02-.99.13-1.45.15-.47.39-.91.72-1.34.33-.42.73-.8,1.18-1.12.33-.24.69-.44,1.06-.61s.74-.32,1.1-.44c.36-.12.71-.21,1.05-.28s.64-.13.92-.19l.4,2.93Z"/>
    </g>
    <g>
      <path class="cls-1" d="m316.37,517.2c-.16,0-.31-.07-.41-.21l-7.6-10.81c-.16-.23-.1-.54.12-.7l6.27-4.41c.44-.31.92-.5,1.42-.56.49-.06.96-.03,1.42.1.45.12.88.33,1.27.61.4.28.74.62,1.01,1.01.4.57.65,1.24.72,1.96.04.42,0,.82-.1,1.22.5-.05.98,0,1.45.13.79.23,1.49.78,2.09,1.63.39.56.62,1.13.67,1.71.05.57-.04,1.14-.27,1.68-.22.52-.55,1.03-.99,1.51-.42.46-.91.9-1.47,1.29l-5.31,3.74c-.09.06-.19.09-.29.09Zm-6.9-11.19l7.02,9.99,4.91-3.45c.5-.35.93-.73,1.3-1.14.36-.39.63-.81.8-1.23.17-.39.23-.8.2-1.21-.04-.4-.2-.82-.49-1.23t0,0c-.47-.66-.99-1.08-1.55-1.25-.58-.17-1.18-.14-1.84.07-.2.07-.42,0-.55-.16-.13-.16-.15-.39-.04-.57.3-.51.42-1.02.37-1.55-.06-.56-.24-1.05-.55-1.49-.21-.29-.47-.55-.77-.77-.3-.21-.62-.37-.96-.46-.33-.09-.67-.11-1.03-.07-.33.04-.66.17-.96.39l-5.86,4.12Zm8.12,6.6s-.06,0-.09,0c-.13-.02-.25-.1-.32-.21l-1.27-1.81c-.16-.23-.1-.54.12-.7l2.45-1.72c.35-.25.75-.31,1.16-.19.38.11.69.34.95.7h0c.28.41.38.82.29,1.23-.09.39-.31.72-.66.96l-2.35,1.65c-.08.06-.18.09-.29.09Zm-.58-2.19l.7.99,1.94-1.36c.14-.1.22-.21.25-.36.01-.05.04-.19-.13-.44-.12-.17-.25-.27-.41-.32-.12-.04-.21-.02-.31.05l-2.04,1.44Zm-2.32-1.94s-.06,0-.09,0c-.13-.02-.25-.1-.32-.21l-1.17-1.66c-.16-.23-.1-.54.12-.7l2.12-1.49c.29-.21.62-.29.98-.25.38.04.72.28,1.01.69.34.48.43.92.28,1.32-.13.32-.33.59-.62.79l-2.03,1.42c-.08.06-.18.09-.29.09Zm-.47-2.04l.59.84,1.62-1.14c.12-.09.21-.19.26-.33,0-.02,0-.14-.17-.38-.17-.24-.28-.27-.31-.27-.1-.01-.2.01-.29.08l-1.71,1.2Z"/>
      <path class="cls-1" d="m327.61,508.13c-.35,0-.7-.03-1.04-.09-.75-.14-1.47-.41-2.12-.82-.65-.41-1.2-.92-1.63-1.54-.44-.62-.74-1.33-.89-2.08-.15-.75-.15-1.52,0-2.27.14-.75.44-1.48.88-2.17s1.03-1.31,1.76-1.82c.76-.53,1.55-.88,2.36-1.04.8-.16,1.59-.17,2.35-.03.76.14,1.47.42,2.11.83.65.42,1.19.93,1.61,1.52.44.62.74,1.32.89,2.07.15.74.16,1.5,0,2.26-.14.75-.44,1.48-.87,2.18-.44.7-1.03,1.32-1.76,1.83h0c-.74.52-1.53.87-2.34,1.04-.44.09-.88.14-1.31.14Zm.6-10.96c-.36,0-.72.04-1.09.11-.67.13-1.34.43-1.98.88-.62.44-1.13.96-1.49,1.54-.37.59-.62,1.2-.74,1.83-.12.63-.12,1.26,0,1.88.12.63.36,1.19.72,1.7.35.5.8.93,1.34,1.26.54.34,1.13.57,1.76.68.63.12,1.29.1,1.98-.04.68-.14,1.34-.44,1.97-.88h0c.62-.44,1.12-.96,1.49-1.54.37-.59.62-1.21.74-1.84.12-.62.12-1.25,0-1.87-.12-.62-.37-1.18-.73-1.69-.34-.49-.79-.91-1.33-1.26-.54-.34-1.12-.57-1.75-.69-.29-.05-.59-.08-.89-.08Zm2.77,9.38h0,0Zm-3.04-1.32c-.23,0-.45-.03-.66-.08-.37-.1-.71-.26-1.02-.48-.3-.22-.57-.49-.79-.79-.21-.29-.37-.62-.48-.98-.12-.38-.16-.77-.12-1.14.04-.37.16-.75.36-1.11.2-.36.51-.69.92-.98.39-.27.79-.45,1.2-.53.4-.08.79-.07,1.16.02.37.09.71.25,1.02.47.3.22.57.48.79.79.22.31.38.64.49,1,.11.35.16.73.13,1.11-.03.39-.14.78-.34,1.14-.21.36-.51.69-.92.98-.4.28-.81.46-1.22.54-.17.03-.35.05-.52.05Zm-.03-5.15c-.12,0-.24.01-.37.04-.26.05-.54.17-.81.36-.28.2-.49.42-.62.65-.13.24-.21.48-.24.72-.03.24,0,.49.08.74.08.26.2.5.35.71h0c.15.22.34.4.55.56.21.15.44.26.69.33.24.06.48.07.75.02.26-.05.54-.17.82-.37.28-.2.49-.42.62-.65.13-.24.2-.47.22-.72.01-.25-.02-.51-.09-.75-.08-.26-.2-.5-.35-.72-.15-.22-.34-.41-.55-.56-.21-.15-.42-.25-.67-.31-.12-.03-.24-.04-.38-.04Z"/>
      <path class="cls-1" d="m336.77,502.85s-.06,0-.09,0c-.13-.02-.25-.1-.32-.21l-6.08-8.65c-.08-.11-.11-.24-.08-.37.02-.13.1-.25.21-.32l2.59-1.82c.22-.16.54-.1.7.12l4.21,5.99,3.37-2.37c.11-.08.24-.1.37-.08.13.02.25.1.32.21l1.58,2.25c.16.23.1.54-.12.7l-6.36,4.47c-.08.06-.19.09-.29.09Zm-5.38-9.03l5.5,7.83,5.55-3.9-1.01-1.44-3.37,2.37c-.22.16-.54.1-.7-.12l-4.21-5.99-1.77,1.24Z"/>
      <path class="cls-1" d="m344.85,496.06c-.36,0-.72-.03-1.08-.1-.74-.13-1.46-.41-2.12-.81-.67-.41-1.24-.95-1.71-1.61-.46-.66-.78-1.38-.92-2.15-.14-.76-.14-1.52.02-2.26.16-.74.46-1.45.9-2.11.44-.66,1.02-1.25,1.72-1.74.89-.62,1.82-1,2.77-1.13.98-.13,1.89.01,2.71.42.22.11.33.36.25.6l-.87,2.74,1.99-1.4c.22-.16.54-.1.7.12l3.28,4.66c.08.11.11.24.08.37-.02.13-.1.25-.21.32l-2.15,1.51c-.11.08-.24.11-.37.08-.09-.02-.17-.05-.24-.11-.1.19-.21.36-.34.52-.29.38-.66.73-1.11,1.05-.64.45-1.36.76-2.12.91-.4.08-.8.12-1.19.12Zm.29-10.96c-.18,0-.37.01-.57.04-.79.11-1.58.43-2.33.96-.6.42-1.09.92-1.46,1.48-.37.56-.63,1.15-.76,1.76-.13.61-.14,1.24-.02,1.86.12.62.38,1.22.76,1.76.39.55.86,1,1.41,1.34.56.34,1.15.57,1.77.68.62.11,1.26.11,1.9-.02.63-.12,1.21-.37,1.74-.74.36-.25.66-.54.89-.83.23-.3.41-.66.54-1.07.06-.18.21-.31.4-.34.18-.03.37.05.48.21l.15.21,1.33-.93-2.7-3.84-3.11,2.19.73,1.04,1.02-.72c.17-.12.41-.12.58,0,.17.13.25.35.18.55-.25.82-.7,1.46-1.32,1.89-.7.49-1.44.67-2.2.53-.76-.14-1.41-.59-1.93-1.33-.52-.74-.74-1.5-.63-2.26.11-.77.5-1.4,1.18-1.88.44-.31.95-.49,1.51-.53.36-.03.69,0,1.01.08l.6-1.9c-.37-.13-.75-.2-1.17-.2Zm-.18,3c-.06,0-.12,0-.19,0-.39.03-.72.15-1.01.35-.44.31-.69.7-.76,1.2-.07.5.08,1.01.46,1.55.37.53.8.83,1.29.92.38.07.76.01,1.14-.18-.04-.03-.08-.07-.12-.12l-1.31-1.86c-.08-.11-.11-.24-.08-.37.02-.13.1-.25.21-.32l1.33-.93s-.08-.02-.12-.05c-.25-.13-.52-.2-.83-.2Z"/>
      <path class="cls-1" d="m353.43,491.14s-.06,0-.09,0c-.13-.02-.25-.1-.32-.21l-6.08-8.65c-.16-.23-.1-.54.12-.7l6.79-4.77c.11-.08.25-.1.37-.08.13.02.25.1.32.21l1.58,2.25c.08.11.11.24.08.37-.02.13-.1.25-.21.32l-3.79,2.67.09.13,3.18-2.24c.11-.08.25-.11.37-.08.13.02.25.1.32.21l1.48,2.1c.16.23.1.54-.12.7l-3.18,2.24.2.28,3.92-2.75c.11-.08.24-.1.37-.08.13.02.25.1.32.21l1.58,2.25c.16.23.1.54-.12.7l-6.91,4.86c-.08.06-.18.09-.29.09Zm-5.38-9.03l5.5,7.83,6.09-4.29-1.01-1.44-3.92,2.75c-.11.08-.24.11-.37.08-.13-.02-.25-.1-.32-.21l-.77-1.1c-.16-.23-.1-.54.12-.7l3.18-2.24-.9-1.28-3.18,2.24c-.23.16-.54.1-.7-.12l-.66-.94c-.08-.11-.11-.24-.08-.37.02-.13.1-.25.21-.32l3.79-2.67-1.01-1.44-5.97,4.2Z"/>
      <path class="cls-1" d="m361.65,485.36c-.16,0-.31-.07-.41-.21l-6.08-8.65c-.16-.23-.1-.54.12-.7l2.02-1.42c.11-.08.24-.11.37-.08l5.64.96-2.11-3.01c-.08-.11-.11-.24-.08-.37.02-.13.1-.25.21-.32l2.59-1.82c.22-.16.54-.1.7.12l6.08,8.65c.16.23.1.54-.12.7l-2.05,1.45c-.11.07-.24.1-.37.08l-5.53-.87,2.03,2.89c.16.23.1.54-.12.7l-2.59,1.82c-.09.06-.19.09-.29.09Zm-5.38-9.03l5.5,7.83,1.77-1.24-2.42-3.44c-.12-.16-.12-.38-.02-.55.11-.17.31-.26.5-.23l6.5,1.02,1.48-1.04-5.5-7.83-1.77,1.24,2.52,3.58c.12.17.12.38.01.55-.11.17-.3.26-.51.23l-6.62-1.13-1.45,1.02Z"/>
      <path class="cls-1" d="m373.18,475.92c-.5,0-.98-.05-1.46-.15-.89-.19-1.74-.54-2.52-1.05-.78-.51-1.44-1.14-1.97-1.89-.54-.76-.91-1.61-1.11-2.52-.2-.91-.23-1.83-.08-2.74.15-.91.47-1.78.97-2.61.5-.83,1.19-1.56,2.04-2.16.88-.62,1.81-1.02,2.77-1.18.95-.17,1.89-.15,2.79.04.9.2,1.75.55,2.52,1.06.77.51,1.42,1.14,1.94,1.88.53.76.91,1.61,1.11,2.52.2.91.23,1.82.08,2.72-.14.91-.47,1.79-.96,2.61-.5.84-1.18,1.57-2.04,2.17h0c-.88.62-1.81,1.02-2.77,1.19-.44.08-.88.12-1.32.12Zm-.05-13.43c-.37,0-.75.03-1.14.1-.81.14-1.61.49-2.37,1.02-.74.52-1.33,1.14-1.76,1.85-.43.72-.71,1.48-.84,2.26s-.1,1.58.07,2.36c.17.79.5,1.51.96,2.17.45.64,1.02,1.19,1.69,1.63.67.44,1.41.74,2.18.91.77.16,1.58.17,2.4.03.81-.14,1.61-.49,2.37-1.02.74-.52,1.33-1.14,1.75-1.86.43-.72.71-1.48.83-2.26.12-.78.1-1.57-.07-2.35-.17-.78-.49-1.51-.95-2.16-.45-.64-1.01-1.18-1.68-1.62-.67-.44-1.4-.75-2.18-.92-.41-.09-.84-.13-1.27-.13Zm3.86,11.71h0,0Zm-3.49-1.6c-.33,0-.66-.05-.98-.15-.44-.13-.86-.36-1.25-.67-.38-.3-.71-.65-1-1.06h0c-.27-.39-.49-.82-.65-1.27-.16-.47-.24-.94-.22-1.41.02-.48.14-.95.37-1.4.23-.45.6-.85,1.09-1.2.48-.34.97-.54,1.47-.62.49-.07.97-.04,1.42.09.45.13.88.35,1.27.66.38.3.71.65,1,1.06.27.39.5.82.66,1.27.17.47.24.94.23,1.41-.01.48-.13.96-.36,1.41-.23.46-.6.87-1.09,1.22-.49.35-1,.55-1.5.62-.15.02-.31.03-.46.03Zm-2.41-2.45c.23.32.5.61.8.85.29.23.61.4.93.5.33.1.65.13,1.01.08.34-.04.7-.19,1.05-.45.36-.25.62-.54.78-.85.16-.32.25-.65.26-.98,0-.34-.05-.7-.18-1.05-.13-.37-.31-.71-.53-1.03-.23-.33-.5-.61-.8-.85-.29-.23-.59-.39-.93-.48-.32-.09-.66-.12-1-.06-.34.05-.69.2-1.04.44-.36.25-.62.53-.77.84-.16.31-.25.64-.26.97-.01.35.04.7.16,1.05.13.36.3.71.53,1.02h0Z"/>
      <path class="cls-1" d="m382.38,469.48c-.24,0-.46-.18-.49-.42l-.47-3.06c-.03-.17.04-.34.17-.45.05-.04.1-.07.15-.09-.31.01-.59,0-.85-.05-.77-.14-1.44-.6-1.98-1.37-.37-.53-.6-1.1-.67-1.68-.07-.57-.03-1.13.14-1.67.17-.53.44-1.03.81-1.5.36-.46.79-.87,1.29-1.22.36-.25.74-.47,1.14-.66.38-.18.77-.33,1.16-.46.38-.12.75-.23,1.11-.3l.92-.19c.14-.03.28,0,.39.08.11.08.19.2.21.34l.4,2.93c.02.13-.02.27-.1.37.38-.06.74-.07,1.08-.04.46.04.89.18,1.28.41.4.23.76.58,1.09,1.04.43.61.67,1.22.72,1.81.05.58-.03,1.14-.24,1.67-.2.51-.51.99-.91,1.42-.39.42-.82.79-1.28,1.12-.35.25-.74.48-1.16.7-.41.21-.84.41-1.27.57-.43.17-.86.31-1.3.43-.43.12-.86.21-1.25.26-.02,0-.05,0-.07,0Zm.11-3.08l.31,2c.21-.04.42-.09.64-.15.4-.11.8-.24,1.2-.39.39-.15.79-.33,1.17-.53.38-.2.74-.41,1.05-.63.4-.28.78-.61,1.12-.98.32-.34.56-.72.72-1.11.15-.38.21-.78.17-1.21-.04-.42-.22-.86-.55-1.33-.24-.34-.5-.59-.77-.75-.27-.16-.56-.25-.88-.28-.34-.03-.71,0-1.11.08-.43.09-.9.23-1.39.4-.65.22-1.15.39-1.51.52-.78.29-1.16-.04-1.32-.26-.2-.29-.17-.65.08-.95.14-.16.33-.33.59-.52.3-.21.64-.39,1.01-.53.35-.13.68-.24.99-.31.27-.06.51-.11.71-.14l-.26-1.88-.4.08c-.32.07-.66.16-1,.27-.35.11-.7.25-1.05.41-.35.16-.68.35-.98.57-.42.29-.78.63-1.08,1.01-.29.37-.51.77-.64,1.18-.12.4-.16.81-.11,1.24.05.42.22.83.5,1.23.39.55.83.87,1.34.96.56.1,1.31,0,2.24-.28.33-.1.62-.2.9-.32.3-.12.58-.23.82-.3.27-.08.5-.13.69-.15.48-.03.69.2.79.34.09.13.22.42-.03.82-.11.18-.31.37-.65.61-.38.27-.79.49-1.22.67-.41.17-.81.31-1.17.4-.36.09-.67.16-.94.19Zm-.47-.97s.02,0,.03,0c-.01,0,.06,0,.3-.02.22-.02.5-.08.82-.16.32-.08.67-.21,1.04-.36.06-.03.12-.05.19-.08-.25.1-.53.19-.82.28-.58.18-1.1.29-1.57.34Zm2.21-4.97c-.26.06-.55.15-.85.27-.07.03-.13.05-.2.08.2-.07.42-.14.66-.22.13-.04.26-.09.39-.13Z"/>
    </g>
  </g>
  <g>
    <g>
      <path class="accent" d="m256.18,510.58l-2.93-13.18,5.07-1.13c1.09-.24,2.09-.28,2.99-.12.91.16,1.7.48,2.39.95.69.47,1.26,1.07,1.73,1.81.46.73.79,1.56.99,2.46.22,1,.27,1.94.13,2.83-.14.88-.43,1.67-.88,2.38s-1.05,1.31-1.8,1.8c-.75.5-1.62.86-2.62,1.08l-5.07,1.13Zm6.57-8.39c-.11-.51-.28-.96-.51-1.35-.23-.39-.5-.71-.82-.95-.32-.24-.68-.4-1.09-.49-.41-.08-.84-.08-1.3.03l-1.45.32,1.53,6.87,1.45-.32c.47-.1.87-.28,1.21-.54s.59-.57.78-.93.3-.77.33-1.22c.04-.45,0-.92-.11-1.42Z"/>
      <path class="accent" d="m277.18,503.03l.61,2.75-8.43,1.87-2.34-10.54,8.28-1.84.61,2.75-5.12,1.14.26,1.15,4.38-.97.57,2.56-4.38.97.3,1.34,5.27-1.17Z"/>
      <path class="accent" d="m281.5,500.03l1.04,4.7-3.16.7-2.34-10.54,2.47-.55,5.98,3.78-1.08-4.86,3.16-.7,2.34,10.54-2.51.56-5.91-3.62Z"/>
      <path class="accent" d="m293.42,491.24l2.9-.64,1.78,2.94.37-3.41,2.91-.65-.83,5.54,1.13,1.48,1.28-7.38,3.45-.77-2.33,11.58-2.62.58-2.52-3.18-.92,3.94-2.64.59-7-9.51,3.42-.76,4.32,6.13.36-1.81-3.07-4.68Z"/>
      <path class="accent" d="m317.39,494.1l.61,2.75-8.43,1.87-2.34-10.54,8.28-1.84.61,2.75-5.12,1.14.26,1.15,4.38-.97.57,2.56-4.38.97.3,1.34,5.27-1.17Z"/>
      <path class="accent" d="m319.6,496.49l-2.34-10.54,5.42-1.2c.58-.13,1.14-.14,1.67-.03.53.11,1.01.3,1.44.57.43.27.79.6,1.09.99s.49.82.6,1.28c.13.59.1,1.19-.08,1.78-.19.59-.52,1.13-1,1.61l3.55,3.25-3.58.8-2.96-2.63-1.34.3.7,3.14-3.16.7Zm1.84-6.61l2.15-.48c.22-.05.41-.17.55-.37.14-.2.18-.45.11-.77s-.23-.54-.47-.64c-.25-.11-.48-.14-.7-.09l-2.06.46.42,1.89Z"/>
    </g>
    <g>
      <path class="cls-1" d="m257.36,510.1c-.23,0-.44-.16-.49-.39l-2.93-13.18c-.03-.13,0-.26.07-.38.07-.11.18-.19.31-.22l5.07-1.12c1.15-.26,2.23-.3,3.19-.12.97.17,1.84.52,2.59,1.03.74.51,1.37,1.17,1.87,1.96.49.78.85,1.66,1.06,2.61.24,1.06.28,2.07.14,3.01-.15.95-.47,1.81-.96,2.57-.49.76-1.14,1.42-1.94,1.95-.79.53-1.73.92-2.79,1.15l-5.07,1.12s-.07.01-.11.01Zm-2.33-13.3l2.71,12.2,4.58-1.02c.94-.21,1.77-.55,2.46-1.01.69-.46,1.24-1.01,1.66-1.66.41-.64.69-1.38.81-2.18.12-.81.08-1.7-.13-2.64-.19-.84-.5-1.62-.93-2.3-.42-.67-.96-1.23-1.59-1.66-.63-.43-1.37-.72-2.2-.87-.83-.15-1.77-.11-2.8.12l-4.58,1.02Zm5.25,9.34c-.23,0-.44-.16-.49-.39l-1.53-6.87c-.03-.13,0-.26.07-.38s.18-.19.31-.22l1.45-.32c.52-.12,1.03-.13,1.51-.03.48.1.91.29,1.29.58.37.28.69.65.96,1.09.25.43.45.93.57,1.49h0c.12.54.16,1.07.12,1.57-.04.51-.17.99-.38,1.41-.22.43-.52.8-.92,1.1-.39.3-.86.51-1.4.63l-1.45.32s-.07.01-.11.01Zm-.93-6.99l1.31,5.89.96-.21c.4-.09.74-.24,1.01-.45.27-.21.48-.46.63-.76.16-.31.25-.65.28-1.04.03-.4,0-.83-.1-1.27h0c-.1-.45-.25-.86-.46-1.2-.2-.33-.42-.6-.7-.8-.26-.19-.56-.33-.89-.4-.34-.07-.71-.06-1.09.02l-.96.21Z"/>
      <path class="cls-1" d="m270.54,507.17c-.23,0-.44-.16-.49-.39l-2.34-10.54c-.03-.13,0-.26.07-.38.07-.11.18-.19.31-.22l8.28-1.84c.28-.06.54.11.6.38l.61,2.75c.03.13,0,.26-.07.38-.07.11-.18.19-.31.22l-4.63,1.03.04.17,3.89-.87c.13-.03.27,0,.38.07s.19.18.22.31l.57,2.56c.06.27-.11.54-.38.6l-3.89.87.08.36,4.78-1.06c.28-.05.54.11.6.38l.61,2.75c.06.27-.11.54-.38.6l-8.43,1.87s-.07.01-.11.01Zm-1.75-10.67l2.13,9.57,7.45-1.66-.39-1.77-4.78,1.06c-.27.06-.54-.11-.6-.38l-.3-1.33c-.03-.13,0-.26.07-.38.07-.11.18-.19.31-.22l3.89-.87-.35-1.59-3.89.87c-.13.03-.26,0-.38-.07-.11-.07-.19-.18-.22-.31l-.26-1.15c-.03-.13,0-.26.07-.38.07-.11.18-.19.31-.22l4.63-1.03-.39-1.77-7.3,1.62Z"/>
      <path class="cls-1" d="m280.57,504.94c-.09,0-.19-.03-.27-.08-.11-.07-.19-.18-.22-.31l-2.34-10.54c-.06-.27.11-.54.38-.6l2.47-.55c.13-.03.26,0,.38.07l4.97,3.13-.82-3.69c-.03-.13,0-.26.07-.38.07-.11.18-.19.31-.22l3.16-.7c.13-.03.27,0,.38.07s.19.18.22.31l2.34,10.54c.06.27-.11.54-.38.6l-2.51.56c-.13.03-.26,0-.37-.06l-4.9-3,.79,3.55c.06.27-.11.54-.38.6l-3.16.7s-.07.01-.11.01Zm-1.75-10.67l2.13,9.57,2.18-.48-.93-4.21c-.04-.2.03-.4.2-.52.16-.12.38-.12.55-.02l5.73,3.51,1.82-.4-2.12-9.57-2.18.48.97,4.38c.04.2-.04.4-.2.52-.17.12-.39.12-.55.01l-5.81-3.67-1.78.4Z"/>
      <path class="cls-1" d="m296.57,501.39c-.16,0-.31-.07-.4-.2l-7-9.51c-.1-.14-.12-.31-.07-.47.06-.16.19-.28.36-.31l3.42-.76c.2-.04.4.04.52.2l3.65,5.17.09-.46-2.95-4.51c-.09-.14-.11-.31-.04-.46.06-.15.19-.26.35-.3l2.9-.64c.21-.04.42.05.54.23l1.02,1.68.21-1.95c.02-.21.18-.39.39-.43l2.91-.65c.16-.03.33,0,.45.12.12.11.18.28.15.44l-.8,5.33.31.4,1.09-6.25c.03-.2.19-.36.38-.4l3.45-.77c.17-.03.34.01.46.13.12.12.17.29.14.46l-2.33,11.58c-.04.19-.19.35-.38.39l-2.62.58c-.18.04-.38-.03-.5-.18l-1.87-2.37-.68,2.93c-.04.19-.19.33-.38.38l-2.64.59s-.07.01-.11.01Zm-6.14-9.69l6.35,8.63,2.01-.45.85-3.64c.04-.19.19-.33.38-.38.19-.04.38.03.5.18l2.32,2.94,2-.44,2.12-10.51-2.38.53-1.23,7.05c-.03.2-.18.35-.37.4-.19.05-.4-.02-.52-.18l-1.13-1.48c-.08-.11-.12-.24-.1-.38l.72-4.82-1.85.41-.33,3.06c-.02.21-.18.39-.39.43-.21.05-.42-.04-.54-.23l-1.6-2.63-1.84.41,2.67,4.07c.07.11.1.24.07.37l-.36,1.81c-.04.2-.19.35-.39.39-.2.04-.4-.04-.51-.2l-4.13-5.86-2.34.52Z"/>
      <path class="cls-1" d="m310.75,498.24c-.23,0-.44-.16-.49-.39l-2.34-10.54c-.03-.13,0-.26.07-.38.07-.11.18-.19.31-.22l8.28-1.84c.13-.03.26,0,.38.07.11.07.19.18.22.31l.61,2.75c.06.27-.11.54-.38.6l-4.63,1.03.04.17,3.89-.87c.13-.03.26,0,.38.07.11.07.19.18.22.31l.57,2.56c.06.27-.11.54-.38.6l-3.89.87.08.36,4.78-1.06c.27-.06.54.11.6.38l.61,2.75c.06.27-.11.54-.38.6l-8.43,1.87s-.07.01-.11.01Zm-1.75-10.67l2.13,9.57,7.45-1.66-.39-1.77-4.78,1.06c-.27.06-.54-.11-.6-.38l-.3-1.33c-.03-.13,0-.26.07-.38.07-.11.18-.19.31-.22l3.89-.87-.35-1.59-3.89.87c-.13.03-.26,0-.38-.07s-.19-.18-.22-.31l-.25-1.15c-.06-.27.11-.54.38-.6l4.63-1.03-.39-1.77-7.3,1.62Z"/>
      <path class="cls-1" d="m320.78,496.01c-.23,0-.44-.16-.49-.39l-2.34-10.54c-.03-.13,0-.26.07-.38.07-.11.18-.19.31-.22l5.42-1.2c.65-.14,1.28-.15,1.88-.03.59.12,1.13.34,1.61.63.48.3.89.67,1.22,1.12.34.45.57.95.68,1.47.15.68.12,1.36-.09,2.04-.16.51-.42.99-.77,1.43l3.18,2.91c.14.13.19.32.15.5-.05.18-.19.32-.38.36l-3.58.8c-.16.03-.32,0-.44-.11l-2.77-2.46-.6.13.59,2.65c.03.13,0,.26-.07.38-.07.11-.18.19-.31.22l-3.16.7s-.07.01-.11.01Zm-1.75-10.67l2.13,9.57,2.18-.48-.59-2.65c-.03-.13,0-.26.07-.38.07-.11.18-.19.31-.22l1.34-.3c.16-.04.32,0,.44.11l2.77,2.46,2.39-.53-2.84-2.6c-.1-.09-.16-.22-.16-.36,0-.14.05-.27.14-.36.42-.42.71-.9.88-1.41.16-.51.18-1.02.07-1.52-.08-.39-.26-.75-.51-1.09-.26-.35-.58-.64-.95-.87-.38-.24-.81-.41-1.28-.5-.46-.09-.95-.08-1.46.03l-4.93,1.1Zm3.59,4.06c-.23,0-.44-.16-.49-.39l-.42-1.89c-.03-.13,0-.26.07-.38.07-.11.18-.19.31-.22l2.06-.46c.33-.07.67-.03,1.01.12.27.12.63.39.76.99.13.58-.04.96-.2,1.18-.22.29-.5.48-.85.56l-2.15.48s-.07.01-.11.01Zm.18-2.01l.2.92,1.66-.37c.11-.02.19-.08.26-.18.05-.07.06-.19.02-.37-.05-.24-.15-.28-.19-.29-.15-.07-.28-.09-.39-.06l-1.57.35Z"/>
    </g>
  </g>
  <g>
    <path class="accent" d="m227.11,468.81c.14,2.09,1.33,6.67,2.11,8.1s-3.4,2.69-3.02,3.56-.1,2.17.98,1.73,3.44-2.85,4.11-2.24,4.75,3.11,5.82,2.92c.72-.13,4.88,5.77,7.56,9.7,1.26,1.84,3.8,2.26,5.58.92l4.29-3.23-4.38-5.82,19.21-14.45c.62-.46.74-1.34.28-1.96l-17.26-22.94c-1.05-1.4-2.62-2.33-4.36-2.57l-5.31-.75c-1.74-.25-3.5.21-4.9,1.26l-16.1,12.12c-1.73,1.3-2.07,3.75-.77,5.48l6.16,8.18Z"/>
    <path class="cls-1" d="m227.48,477.7c.23-.18.47-.35.69-.55.46-.43.92-.87,1.36-1.31.14-.14.09-.3-.04-.45-1.52-1.8-2.19-3.96-2.63-6.21-.15-.79-.04-1.63-.07-2.44,0-.17-.05-.38-.16-.52-1.85-2.48-3.71-4.96-5.58-7.43-1-1.32-1.24-2.75-.59-4.28.2-.48.56-.88.85-1.32,6.23-4.69,12.46-9.37,18.69-14.06.83-.39,1.68-.31,2.55-.18,2.36.36,4.73.69,7.1,1.01.97.13,1.7.57,2.29,1.35,3.41,4.56,6.84,9.11,10.27,13.66l.25.33-.68.51-.28-.38c-3.3-4.39-6.61-8.77-9.9-13.17-.65-.86-1.42-1.36-2.51-1.5-2.34-.31-4.68-.68-7.02-1.05-.8-.13-1.49.04-2.14.53-5.77,4.35-11.55,8.69-17.32,13.04-1.83,1.38-2.11,3.37-.75,5.19,1.69,2.26,3.39,4.51,5.09,6.77.06.07.12.14.24.29.96-2.22,2.8-3.24,5.03-3.78-.13-.25-.27-.46-.35-.69-.24-.63-.5-1.25-.67-1.9-.2-.78.09-1.5.61-2.06.77-.82,1.73-1.16,2.86-.84.49.14.97.31,1.46.43.52.13.6.07.71-.45.33-1.59,1.35-2.59,2.77-3.25.43-.2.84-.17,1.25.03.73.36,1.4.79,1.73,1.57.29.69.58,1.4.75,2.14.21.92.23,1.85-.53,2.65.37.17.69.31,1,.47.68.34.74.5.6,1.23-.24,1.26-.97,2.23-1.79,3.17-.4.45-.84.81-1.44.95,0,.03,0,.06,0,.09.43.27.86.55,1.31.83.09-.12.16-.21.23-.3.51.28.74-.24,1.11-.35-.01-.04-.02-.08-.03-.11-.31.09-.62.18-.93.27-.02-.01-.04-.03-.06-.04.15-.14.27-.34.45-.41.25-.1.54-.15.81-.16.34,0,.61-.12.84-.34,1.2-1.15,2.73-1.8,4.14-2.62.25-.15.56-.22.85-.28.12-.02.3.04.39.13.05.05,0,.27-.08.35-.57.65-1.17,1.28-1.74,1.93-.25.29-.51.59-.69.92-.31.56-.75.93-1.34,1.15-.24.09-.33.22-.35.5-.03.4-.12.82-.27,1.19-.32.77-.92,1.07-1.75.95-.11-.02-.23-.02-.32-.07-.52-.29-.93-.1-1.32.26-.18.17-.39.32-.6.47-.32.22-.53.49-.6.9-.07.39-.37.6-.8.58-.35-.02-.63.09-.89.3-1.22.93-2.44,1.85-3.66,2.79-.28.22-.5.52-.77.76-.18.16-.39.37-.61.4-.79.13-1.35.61-1.98,1.17.31.32.57.69.92.95,1.23.9,2.61,1.5,4.08,1.87,1.25.32,2.24-.27,3.07-1.13.47-.48.46-.98.1-1.55-.53-.85-1.39-1.23-2.27-1.58-.05-.02-.16,0-.19.03-.25.36-.52.72-.72,1.12-.08.17-.01.41,0,.65.34-.02.61-.03.93-.05l-.5-.66c.37-.2.73-.29,1.11-.15.3.1.39.33.33.64-.17.84-1.05,1.38-1.86,1.12-.17-.05-.34-.13-.5-.2-.74-.33-.91-.72-.67-1.51.05-.17.11-.35.15-.52.36-1.43,1.82-2.14,3.19-1.56.87.37,1.68.84,2.27,1.61.33.43.51.93.57,1.46.01.1,0,.22-.03.32-.66,1.78-1.83,3-3.73,3.43-.02,0-.04.03-.08.06.05.07.09.15.15.23,2.15,2.86,4.31,5.73,6.46,8.59.76,1.02,1.74,1.62,3.05,1.57.84-.03,1.56-.38,2.22-.88,1.15-.87,2.31-1.74,3.47-2.61l.34-.25.5.67-4.63,3.48c-.79.36-1.6.59-2.48.48-1.07-.13-1.99-.57-2.68-1.42-.67-.84-1.31-1.7-1.95-2.56-1.74-2.31-3.49-4.61-5.21-6.95-.24-.33-.49-.46-.86-.55-2.04-.49-3.95-1.26-5.45-2.8-.08-.08-.18-.15-.31-.25-.91.68-1.81,1.36-2.72,2.04-.71.53-1.6.18-1.78-.69-.02-.08.02-.19.07-.26.2-.33.42-.65.63-.97-.04.38-.05.77-.12,1.14-.07.34.16.51.32.72.05.06.21.1.28.06.44-.27.87-.56,1.39-.9-.71-.31-1.32-.59-1.06-1.49-.33.2-.57.35-.81.49Zm6.22-4.7c-.06-.04-.07-.06-.09-.07-.04-.02-.09-.03-.14-.04-.91-.09-1.34-.66-1.54-1.49-.03-.14-.08-.28-.12-.42-.05-.16-.1-.31.11-.43.21-.12.35-.09.48.1.2.3.46.33.78.18.4-.19.81-.37,1.23-.53.76-.28,1.39-.74,1.94-1.33.25-.27.23-.4.03-.69-.16-.23-.2-.57-.25-.86-.01-.07.13-.2.22-.24.05-.02.18.09.23.17.19.28.36.57.54.85.24.35.56.58,1.07.68-.22-.27-.42-.46-.56-.69-.25-.39-.48-.8-.69-1.21-.13-.27-.03-.48.29-.61.19.41.37.8.6,1.3.41-.31.8-.57,1.15-.87.63-.53,1.02-1.24,1.34-1.98.05-.12.2-.26.32-.28.6-.08,1.06-.35,1.4-.85.19-.28.43-.52.64-.78.46-.61.88-1.24,1.03-2.01.02-.1-.01-.28-.09-.33-.99-.63-2.02-1.11-3.23-.61-.17.07-.34.13-.52.15-.21.03-.29.14-.29.34,0,.42.04.85,0,1.26-.04.36-.09.76-.26,1.07-.37.67-.96,1.13-1.7,1.31-1.41.34-2.78.36-3.93-.74-.21-.2-.42-.4-.66-.55-.2-.13-.47-.29-.68-.25-1.54.31-2.94.83-3.88,2.25-.65.99-1.03,2.01-1,3.18.01.46.06.91.12,1.37.19,1.47.83,2.81,1.25,4.22.17.57.5,1.03.89,1.47.24.27.44.31.67.06.1-.1.18-.27.18-.41-.02-.32-.09-.64-.16-.96-.2-.88-.02-1.75.1-2.62.01-.1.21-.23.34-.26.15-.03.33.01.33.27,0,.51.22.95.59,1.28.36.32.78.58,1.21.9-.03.13-.08.32-.12.51-.04.19-.08.38-.09.57,0,.1.02.25.09.31.28.25,1.13.27,1.5.04-.17-.03-.33-.05-.48-.08-.16-.04-.33-.08-.48-.16-.48-.25-.54-.63-.18-1.02.14-.15.28-.29.44-.46Zm4.1-14.47c-.25-.27-.49-.56-.76-.82-.2-.19-.42-.41-.66-.47-.62-.17-1.27-.23-1.9-.38-1.79-.43-2.76,1.14-2.57,2.36.07.48.22.97.42,1.41.67,1.43,1.72,2.45,3.28,2.89.81.23,1.56.08,2.25-.31.99-.55,1.3-1.34,1.01-2.44-.21-.81-.56-1.56-1.06-2.24Zm4.58.79c.1-.44.23-.85.29-1.28.23-1.42-.09-2.71-1.08-3.78-.7-.76-1.46-.92-2.24-.48-.33.18-.63.45-.88.73-.58.66-1.05,1.39-1.06,2.31,0,.14,0,.31.08.41.56.78,1.15,1.54,1.73,2.31,1.03-.4,2.05-.7,3.15-.23Zm-10.56,17.67c0,.05-.02.1-.03.15.16.17.31.33.47.5,1.17,1.23,2.71,1.8,4.28,2.3.57.18,1.19.23,1.79.23.42,0,.89-.08,1.25-.28.55-.31,1.07-.7,1.53-1.14.93-.88.88-2.5-.08-3.25-.47-.37-1-.67-1.53-.96-.26-.14-.57-.21-.86-.23-.65-.05-1.1.3-1.41.84-.31.53-.34,1.2-.09,1.6-.09-.71.06-1.2.49-1.67.35-.38.94-.53,1.39-.29.52.28,1.04.57,1.5.92,1.11.84,1.23,2.01.32,3.07-.2.23-.44.45-.71.61-1.16.67-2.4.61-3.59.16-1.41-.54-2.77-1.18-3.88-2.25-.1-.1-.22-.2-.35-.24-.15-.05-.32-.05-.48-.07Zm4.03-5.36l2.73-2.05c-.25-.14-.46-.26-.67-.36-.35-.18-.67-.19-.98.12-.22.22-.49.39-.74.58q-.88.67-.34,1.72Zm-2.5,2.12c.25.12.48.32.58.27.42-.22.8-.5,1.18-.78.25-.18.43-.49.7-.6,1.24-.49,2.15-1.45,3.21-2.19.07-.05.1-.28.08-.3-.12-.06-.31-.15-.38-.1-.84.62-1.71,1.22-2.49,1.91-.49.44-.93.98-1.6,1.07-.52.07-.8.44-1.28.71Zm4.92-5.64c.4.77.47.81,1,.62.04-.16.06-.32.11-.46.1-.27.22-.43.6-.37.76.12,1.28-.39,1.82-.84-.63-.11-1.2-.22-1.78-.32-.09-.01-.22.03-.29.1-.49.41-.96.83-1.46,1.27Zm8.79-2.63c.43-.53.81-1.04,1.23-1.51.21-.23.18-.41,0-.62-.08-.09-.17-.17-.27-.27-.53.28-1.06.55-1.57.82.12.28.33.54.27.7-.14.39.09.58.34.88Zm-12.43,8.66c.32.3.53.11.73-.03,1.36-1.01,2.72-2.03,4.08-3.06.08-.06.12-.18.18-.27l-.11-.1c-1.61,1.15-3.22,2.29-4.87,3.46Zm-3.33.43c.05,0,.1.01.16.02.34-.35.67-.71,1.06-1.11-.76-.3-1.21-.75-1.47-1.39-.3.2-.36.44-.3.74.07.3.08.62.17.92.09.29.25.55.38.82Zm14.86-8.67c-.16-.25-.35-.25-.52-.12-.37.28-.74.58-1.1.87-.7.56-1.36,1.17-2.15,1.62-.58.33-1.11.76-1.65,1.17-.07.05-.05.21-.07.32.1,0,.23.02.3-.03.51-.39,1-.79,1.5-1.19.24-.2.46-.43.71-.61.36-.26.73-.5,1.1-.74.53-.35,1.06-.7,1.58-1.05.1-.07.19-.14.3-.22Zm-.14-.98s-.04-.09-.06-.14c-.27.07-.6.06-.81.21-.73.55-1.41,1.16-2.1,1.76-.07.06-.06.22-.09.34.04.03.09.05.13.08.95-.78,2.17-1.2,2.92-2.25Zm-15.9,11.82c.06.04.11.07.17.11.62-.47,1.24-.94,1.87-1.4.16-.12.3-.26.16-.43-.07-.08-.33-.12-.42-.06-.55.39-1.1.8-1.61,1.24-.12.1-.12.35-.17.53Zm2.5-5.06c.31.61.73.96,1.25,1.06.08-.24.15-.48.23-.72,0-.02.02-.04.03-.07.08-.41-.3-.77-.69-.63-.27.1-.53.23-.81.35Zm8.1-1.22c-.32-.31-.81-.57-.94-.96-.12-.38.13-.87.22-1.32-.39-.1-.4-.09-.71.92-.14,0-.28,0-.44,0,.83.81,1.36,1.49,1.88,1.36Zm1.96-4.32s-.08.03-.12.06c-.23.23-.44.18-.7.03-.31-.18-.64-.33-.99-.44-.11-.03-.28.11-.42.17.09.1.16.26.27.29.42.11.84.19,1.27.27.24.05.38.16.38.43,0,.15.07.3.11.44.06-.43.12-.84.18-1.26Zm-9.51,9.36s-.05-.08-.07-.12c-.82.54-1.74.93-2.41,1.72.12.03.26.06.33,0,.72-.53,1.44-1.07,2.15-1.61Zm8.87-7.93c-.05-.02-.11-.05-.16-.07-.49.4-.98.8-1.45,1.22-.08.08-.09.24-.13.37.04.02.08.04.11.06.52-.39,1.06-.78,1.56-1.19.07-.06.04-.25.06-.38Zm1.54.67c.45.15.91.35,1.34.02.37-.28.62-.94.53-1.28-.32.02-.33.28-.37.49-.05.3-.2.46-.5.51-.34.06-.66.17-1,.26Zm-14.63,8.69s-.08-.04-.12-.06c-.07.16-.19.32-.2.49-.05.53.31.76.75.88.08.02.18-.03.27-.04,0-.03.01-.06.02-.09-.58-.19-.62-.7-.71-1.17Zm5.8-6.1c0,.5.02.93.02,1.35.79-.35.81-.45.23-1.09-.06-.07-.13-.13-.26-.26Zm-5,6.34c-.02-.17-.04-.39-.07-.61-.06,0-.11,0-.17,0,0,.23-.05.49.04.69.09.21.3.38.47.55.03.03.18.02.22-.03.04-.05.03-.18,0-.22-.14-.14-.3-.25-.47-.39Zm8.77-.9l.38.5c.04-.15.06-.25.1-.37-.16-.05-.29-.08-.47-.13Z"/>
    <path class="cls-1" d="m253.5,486.33l-.62.47c-.08-.1-.17-.19-.24-.3-3.29-4.37-6.57-8.73-9.86-13.1-.42-.56-.44-.95.07-1.43.37-.35.82-.62,1.28-.85.37-.18.73-.03.99.31,2.37,3.15,4.74,6.31,7.11,9.46.01.02.02.04.04.09l-.62.46c-.08-.11-.17-.22-.25-.34-2.23-2.96-4.45-5.92-6.68-8.88-.35-.47-.62-.51-1.06-.18-.44.33-.46.58-.1,1.06,3.22,4.28,6.44,8.56,9.66,12.84l.28.37Z"/>
    <path class="cls-1" d="m265.88,461.32l-3.23-4.3.62-.47c.08.09.17.19.24.29,2.28,3.03,4.56,6.05,6.83,9.08.45.6.45,1.01-.09,1.52-.31.29-.68.54-1.06.73-.49.25-.87.12-1.2-.32-1.08-1.43-2.16-2.87-3.24-4.31-.34-.46-.35-.85.04-1.27.31-.34.7-.62,1.09-.95Zm2.31,3.04c-.5-.66-.99-1.34-1.51-1.98-.13-.16-.4-.33-.59-.31-.67.07-.92.7-.53,1.24.52.71,1.06,1.41,1.59,2.11.44.59.87,1.19,1.34,1.75.14.16.4.33.59.32.66-.04.94-.7.55-1.22-.47-.64-.95-1.27-1.43-1.91Z"/>
    <path class="cls-1" d="m262.3,473.43l2.07,2.76-.62.47c-.08-.1-.16-.18-.23-.28-1.89-2.5-3.77-5.01-5.65-7.51-.43-.58-.44-1,.08-1.5.32-.31.72-.57,1.12-.77.47-.23.82-.11,1.14.31,1.1,1.45,2.19,2.9,3.28,4.36.33.44.32.81-.05,1.24-.15.18-.34.34-.52.49-.18.15-.39.27-.62.43Zm-1.06-3.85c-.5-.66-1-1.33-1.5-1.99-.3-.4-.58-.43-.99-.13-.41.3-.48.61-.17,1.02.98,1.31,1.97,2.62,2.96,3.93.31.41.61.44,1.02.13.41-.31.45-.59.14-1.01-.48-.65-.97-1.29-1.46-1.94Z"/>
    <path class="cls-1" d="m264.01,466.11c-.3-.4-.61-.85-.97-1.27-.22-.26-.56-.22-.9.06-.33.27-.4.54-.2.85.12.19.27.36.42.56-.12.1-.21.18-.3.25-.09.07-.19.14-.31.23-.24-.32-.49-.59-.67-.91-.18-.31-.09-.68.15-.9.39-.36.82-.71,1.28-.97.46-.25.85-.1,1.17.32,1.08,1.43,2.16,2.87,3.24,4.31.33.44.36.86-.02,1.24-.36.36-.78.68-1.23.92-.46.25-.85.1-1.17-.32-.54-.71-1.08-1.42-1.61-2.14-.36-.48-.36-.89.06-1.33.31-.32.69-.59,1.06-.9Zm.3,2.81c.24.32.47.64.72.95.27.34.55.36.94.08.39-.28.48-.58.24-.92-.48-.66-.97-1.32-1.48-1.96-.26-.33-.55-.31-.95,0-.37.29-.43.55-.19.89.23.32.48.64.71.95Z"/>
    <path class="cls-1" d="m258.95,473.68l.6-.45c.21.28.44.55.62.84.19.31.12.63-.09.92-.35.49-.82.85-1.39,1.05-.44.16-.77.06-1.05-.32-1.11-1.47-2.22-2.94-3.33-4.42-.29-.39-.33-.78.01-1.12.39-.39.86-.73,1.34-1,.4-.22.77-.08,1.06.28.58.75,1.16,1.51,1.72,2.28.31.42.28.85-.11,1.25-.31.32-.69.59-1.06.9.32.42.63.9,1.01,1.33.25.28.56.1.81-.09.25-.19.46-.42.28-.77-.12-.23-.28-.44-.43-.68Zm-1.97-2.58s0,0,0,0c-.25-.34-.49-.69-.76-1.01-.27-.31-.59-.3-.95,0-.36.29-.43.56-.18.9.47.64.95,1.28,1.43,1.91.27.36.54.37.93.08.41-.3.49-.57.23-.94-.22-.32-.46-.62-.69-.93Z"/>
    <path class="cls-1" d="m252.77,475.94c.54.71,1.08,1.42,1.61,2.14.35.47.37.86-.03,1.27-.35.35-.77.66-1.2.9-.47.25-.86.11-1.18-.31-1.09-1.44-2.18-2.89-3.26-4.34-.32-.43-.35-.84.01-1.21.36-.36.78-.69,1.22-.93.49-.27.85-.13,1.2.32.55.72,1.09,1.44,1.63,2.17Zm-.63.48c-.49-.65-.98-1.31-1.48-1.96-.32-.42-.6-.45-1.01-.15-.41.31-.46.61-.16,1.02.98,1.31,1.97,2.62,2.96,3.93.31.4.62.43,1.02.11.4-.31.44-.58.14-.99-.49-.66-.98-1.31-1.48-1.97Z"/>
    <path class="cls-1" d="m251.6,471.75c-.18.12-.31.2-.45.29l-.35-.46c.12-.11.24-.23.39-.36l-2.68-3.56.63-.47,2.69,3.58.99-.75.38.5-.97.73,5.25,6.98-.64.48-5.23-6.96Z"/>
    <path class="cls-1" d="m245.04,445.38c.13-.1.24-.18.34-.26,1.22-.92,2.45-1.84,3.67-2.76.13-.09.25-.23.39-.25.14-.02.35.02.42.12.07.1.04.31-.01.44-.04.1-.17.16-.27.23-1.34,1.01-2.68,2.02-4.02,3.02-.5.37-.83.33-1.2-.16-1.07-1.41-2.13-2.83-3.2-4.25-.07-.1-.18-.2-.18-.31,0-.13.04-.32.14-.39.09-.07.31-.07.41,0,.16.1.27.27.39.42.95,1.26,1.9,2.52,2.85,3.78.08.1.16.21.26.35Z"/>
    <path class="cls-1" d="m270.59,457.82c.29.39.59.75.85,1.14.17.25.31.25.51.06.12-.11.26-.2.41-.31l.36.48-.69.52,1.07,1.43-.65.49-1.06-1.41-.7.53-.36-.48.69-.52-1.07-1.43.65-.49Z"/>
    <path class="cls-1" d="m269.27,461.04l.72-.54.35.46c-.21.18-.43.36-.67.56l1.06,1.4-.64.49-1.06-1.41-.7.53-.36-.48.69-.52-1.08-1.44.64-.48,1.08,1.43Z"/>
    <path class="cls-1" d="m234.42,461.58c-.27-.37-.2-.69.22-1,.47-.35.77-.36,1.02-.02.33.45.32,1.05-.02,1.31-.29.22-.96.07-1.21-.28Z"/>
    <path class="cls-1" d="m240.96,455.05c.38.15.62.46.77.83.1.26-.07.47-.3.53-.23.05-.49.01-.73-.02-.06,0-.13-.15-.15-.24-.08-.42-.01-.81.42-1.1Z"/>
  </g>
  <g>
    <g id="layer1">
      <path id="path821" class="accent" d="m317.56,473.04c-3.05-3.1-5.26-6.94-6.31-10.98-2.7-10.36,1.45-21.03,10.49-26.94,2.22-1.45,5-2.57,7.94-3.2l2.59-.55-6.06,9.31c-5.8,8.91-6.08,9.37-6.4,10.76-.65,2.79-.7,4.8-.19,7.37,1.33,6.64,6.52,11.54,13.13,12.41,6.21.82,12.51-2.22,15.55-7.52,2.04-3.55,2.57-6.81,1.76-10.95-.61-3.13-1.99-5.82-4.04-7.92-2.09-2.14-1.93-2.13-3.3-.07l-1.19,1.78,1.17,1.14c4.53,4.41,4.56,11.76.06,16.16-1.44,1.41-3.17,2.34-5.29,2.84-3.22.77-6.5-.02-8.8-1.57-3.8-2.55-5.53-6.83-4.93-11.05,0,0,.21-1.18.46-1.83,1.46-3.83,6.61-10.49,6.61-10.49l6.77-10.25.81.09c.45.05.86.12.92.16s-3.01,4.78-6.81,10.53c0,0-5.76,7.03-6.78,10.51-.15.5-.37,1.38-.37,1.38-.29,2.15.03,4.42,1.16,6.3.86,1.43,1.31,2.12,3.16,3.36,1.21.81,2.54,1.15,4.16,1.4,1.9.3,4.76-.36,6.46-1.56,4.69-3.33,5.53-9.72,1.87-14.11-1.5-1.79-1.44-1.8-2.8.23l-1.18,1.77.74.84c2.65,3.02.74,8-3.28,8.53-1.42.19-2.46,0-3.87-.95-1.51-1.01-2.34-2.89-2.15-4.78.12-1.14.61-1.96.85-2.33,2.26-3.37,6.24-9.49,6.24-9.49l6.9-10.45.54.19c.3.11,1.43.64,2.52,1.18,3.7,1.84,7.99,6.32,10.08,10.52,2.85,5.72,3.31,12.59,1.26,18.8-.71,2.14-1,2.7-2.94,5.6s-2.35,3.39-4.02,4.83c-6.74,5.8-15.17,7.53-23.8,4.89-1.82-.56-2.58-.94-5.29-2.67-2.19-1.39-3.54-2.4-4.36-3.23h0Z"/>
    </g>
    <g id="layer1-2" data-name="layer1">
      <path class="cls-1" d="m338.03,481.15c-2.66,0-5.37-.42-8.11-1.25-1.92-.59-2.75-1.01-5.54-2.79-2.26-1.44-3.66-2.48-4.53-3.37h0c-3.19-3.24-5.46-7.2-6.57-11.43-2.83-10.84,1.45-21.84,10.91-28.03,2.34-1.53,5.2-2.68,8.27-3.34l2.59-.55c.39-.09.8.08,1.03.41.23.33.23.77.01,1.11l-6.06,9.31c-5.69,8.73-5.98,9.22-6.27,10.44-.62,2.64-.67,4.52-.18,6.95,1.25,6.24,6.07,10.8,12.28,11.61,5.85.77,11.7-2.05,14.55-7.02,1.93-3.37,2.41-6.34,1.64-10.26-.58-2.95-1.85-5.44-3.78-7.41l-.28-.28c-.31-.32-.63-.65-.86-.85-.13.18-.29.42-.44.65l-.91,1.36.57.56c2.39,2.33,3.71,5.46,3.72,8.82,0,3.34-1.29,6.46-3.66,8.77-1.57,1.54-3.45,2.55-5.76,3.1-3.26.78-6.84.14-9.59-1.71-3.98-2.67-6.03-7.28-5.36-12.02.03-.16.24-1.33.51-2.05,1.49-3.92,6.54-10.47,6.76-10.74l6.73-10.19c.21-.31.58-.48.95-.44l.81.09c1.05.12,1.22.23,1.36.32.83.56.39,1.25-.21,2.22-.34.54-.84,1.32-1.46,2.28-1.24,1.91-2.95,4.54-4.86,7.42-.02.03-.04.06-.06.08-.06.07-5.64,6.91-6.59,10.16-.12.41-.3,1.09-.35,1.29-.26,2.05.11,4.04,1.04,5.6.78,1.3,1.13,1.89,2.86,3.05,1.06.7,2.27,1.01,3.76,1.25,1.7.27,4.27-.35,5.73-1.39,2.05-1.45,3.34-3.58,3.66-6,.31-2.39-.39-4.76-1.98-6.66l-.09-.11c-.18-.22-.37-.44-.52-.61-.15.21-.33.48-.51.74l-.84,1.25.23.26c1.48,1.69,1.88,4,1.06,6.18-.82,2.17-2.72,3.71-4.96,4-1.74.23-3.02-.08-4.56-1.11-1.8-1.21-2.82-3.45-2.59-5.72.1-.98.44-1.92,1.02-2.78,2.23-3.33,6.19-9.42,6.23-9.48l6.9-10.45c.25-.39.74-.55,1.17-.39l.54.2c.38.14,1.64.73,2.63,1.23,3.9,1.95,8.33,6.56,10.53,10.97,2.97,5.96,3.45,13.1,1.31,19.56-.73,2.22-1.08,2.88-3.06,5.84s-2.45,3.53-4.2,5.03c-4.86,4.19-10.59,6.34-16.64,6.34Zm-4.93-48.3l-.22.05c-2.8.6-5.5,1.68-7.6,3.06-8.73,5.71-12.68,15.85-10.07,25.85,1.02,3.89,3.11,7.54,6.06,10.53h0c.76.77,2.09,1.75,4.18,3.09,2.62,1.67,3.33,2.03,5.05,2.56,8.28,2.54,16.4.87,22.86-4.69,1.59-1.37,1.95-1.8,3.84-4.62,1.88-2.82,2.15-3.32,2.82-5.36,1.97-5.97,1.53-12.55-1.2-18.05-1.99-4-6.13-8.33-9.63-10.07-.97-.49-1.83-.88-2.22-1.06l-6.46,9.78c-.04.06-4.01,6.16-6.24,9.49-.39.59-.62,1.22-.69,1.87-.16,1.54.52,3.05,1.71,3.85,1.28.85,2.07.93,3.18.79,1.53-.2,2.78-1.22,3.34-2.73.55-1.48.3-3.03-.69-4.16l-.74-.84c-.3-.34-.33-.84-.08-1.21l1.26-1.89c.79-1.18,1.22-1.83,2.05-1.87.05,0,.11,0,.16,0-.33-.34-.38-.86-.12-1.26l1.37-2.05c.65-.98,1.08-1.63,1.89-1.71.85-.07,1.4.49,2.5,1.62l.27.28c2.21,2.25,3.66,5.09,4.31,8.43.86,4.38.3,7.87-1.87,11.64-3.26,5.67-9.9,8.88-16.55,8.01-7.07-.93-12.56-6.11-13.98-13.2-.54-2.7-.49-4.89.2-7.8.37-1.56.61-1.98,6.54-11.08l4.74-7.28Z"/>
    </g>
  </g>
  <path class="accent" d="m381.09,75.39l-.61,6.89-2.96,12.57,3.28-.52,4.17-17.99s4.51-3.33,4.58-3.45,12.23-9.19,12.23-9.19l-.72-.89-19.96,12.57Z"/>
  <polygon class="accent" points="338.03 145.36 344.28 161.37 347.22 158.68 341.22 143.04 338.03 145.36"/>
  <polygon class="accent" points="416.35 154.36 415.84 157.7 435.75 161.95 435.37 158.16 416.35 154.36"/>
  <g>
    <path class="cls-1" d="m368.47,54.44c-.81,0-1.65-.25-2.31-1.12-.54-.72-.75-1.61-.61-2.58.2-1.37,1.04-2.53,1.78-3.08.59-.44,1.55-2.6.89-4.52-.69-2.01,1.98-7.31,3.33-8.94.35-.42.98-.49,1.41-.13.43.35.49.98.13,1.41-1.46,1.76-3.22,6.17-2.98,7.02.95,2.77-.29,5.82-1.6,6.78-.4.29-.88,1.03-.98,1.75-.06.43.01.8.23,1.08.34.45.89.39,2.07.07.41-.11.79-.22,1.16-.24.23-.01.62-.26.78-.58.11-.22.07-.34,0-.45-.29-.47-.15-1.08.32-1.38.47-.29,1.08-.15,1.38.32.46.74.49,1.62.08,2.42-.47.92-1.47,1.6-2.43,1.66-.16.01-.46.09-.76.17-.51.14-1.19.32-1.88.32Z"/>
    <path class="cls-1" d="m370.58,57.56c-.49,0-.9,0-1.06-.03-.83-.12-1.89-1.22-1.9-1.23-.52-.58-.23-1.29-.02-1.81.14-.34.31-.76.31-1.08,0-.55.45-1,1-1s1,.45,1,1c0,.72-.27,1.37-.47,1.85,0,0,0,0,0,.01.15.12.31.24.42.29.32.01,1.46,0,2.42-.01.55-.02,1.01.43,1.02.98.01.55-.43,1.01-.98,1.02-.57.01-1.22.02-1.76.02Z"/>
    <path class="cls-1" d="m372.32,65.61c-.19,0-.36-.01-.49-.04-1.57-.35-2.54-1.59-2.88-3.67l-.02-.1c-.11-.64.23-1.12.66-1.49-.69-.34-1.1-.55-1.34-.78-.2-.19-.45-.54-.46-1.13-.01-.83.45-1.86,1.16-2.56.39-.39,1.02-.39,1.41,0s.39,1.02,0,1.41c-.32.32-.48.69-.55.93.2.1.49.25.71.36,1.12.56,1.59.79,1.75,1.33.24.79-.42,1.24-.89,1.58-.12.08-.31.21-.44.32.15.83.45,1.65,1.31,1.85,1.46.28,10.46-3.05,11.32-4.21.3-.7.26-3.91.03-6.46-.05-.55.36-1.04.91-1.09.54-.04,1.04.36,1.09.91.09.97.49,5.89-.23,7.51-.84,1.9-10.11,5.34-13.06,5.34Zm-1.42-4.16h0s0,0,0,0Zm-1.11-3.08h0,0Z"/>
    <path class="cls-1" d="m375.43,46.44c-.29,0-.58-.13-.78-.37-.03-.03-.89-1.02-2.56-1.04-.55,0-1-.46-.99-1.01,0-.55.45-.99,1-.99h.01c2.64.03,4.04,1.71,4.09,1.78.35.43.28,1.06-.15,1.41-.19.15-.41.22-.63.22Z"/>
    <path class="cls-1" d="m372.65,47.1c-.41,0-.79-.25-.94-.66-.07-.19-.63-1.89.41-2.93.39-.39,1.02-.39,1.41,0,.39.39.39,1.02,0,1.41-.07.1-.06.52.06.85.18.52-.1,1.09-.62,1.27-.11.04-.22.06-.33.06Z"/>
    <path class="cls-1" d="m372.96,43.22c-.84,0-2.09-.33-2.66-1.61-.23-.5,0-1.1.5-1.32.5-.23,1.1,0,1.32.5.22.48.92.42.95.42.53-.05,1.04.35,1.09.89.06.54-.33,1.03-.87,1.1-.1.01-.21.02-.33.02Z"/>
    <path class="cls-1" d="m375.14,43.83s-.09,0-.14,0c-.16-.02-1.64-.27-2.81-1.79-.34-.44-.25-1.07.18-1.4.44-.34,1.07-.25,1.4.18.68.88,1.48,1.03,1.51,1.03.54.09.91.6.83,1.14-.08.49-.5.85-.98.85Z"/>
    <path class="cls-1" d="m376.62,44.28c-.73,0-1.99-.49-2.45-2.33-.13-.54.19-1.08.73-1.21.54-.13,1.08.19,1.21.73.18.7.49.82.5.82h0c.54-.04,1.02.4,1.04.96s-.4,1.02-.96,1.04c-.02,0-.04,0-.07,0Z"/>
    <path class="cls-1" d="m385.84,53.07h-.05c-1.25-.02-2.09-.09-2.34-.85-.17-.52.11-1.09.63-1.26.26-.09.53-.06.76.05.11.02.38.05.98.06h.01c.79,0,2.12-1.29,2.39-1.99,1.07-2.78.74-3.88.27-4.32-.63-.59-1.44-.88-2.16-.76-.69.11-1.29.59-1.73,1.4-.27.48-.87.66-1.36.4-.48-.26-.66-.87-.4-1.36.74-1.35,1.86-2.2,3.17-2.41,1.33-.21,2.77.27,3.85,1.28,2,1.88.67,5.33.24,6.46-.44,1.15-2.33,3.31-4.27,3.31Zm-.49-1.49h0s0,0,0,0Zm-.17-.3c.07.09.13.19.17.3-.04-.12-.1-.22-.17-.3Z"/>
    <path class="cls-1" d="m385.07,50.19c-.23,0-.45-.08-.64-.23-.42-.35-.48-.98-.13-1.41.06-.08.13-.19.17-.28-.05-.02-.13-.04-.23-.06-.54-.11-.9-.63-.79-1.17.1-.54.63-.9,1.17-.79,1.17.23,1.62.84,1.79,1.31.38,1.07-.4,2.08-.56,2.27-.2.24-.48.36-.77.36Zm-.49-1.87h0Z"/>
    <path class="cls-1" d="m388.09,48.83c-.2,0-.39-.06-.57-.18-.45-.31-.57-.94-.25-1.39h0s.27-.42.3-.99c.02-.3-.09-.71-.27-.83-.14-.1-.51-.09-1.13.2-.5.23-1.1.02-1.33-.48-.23-.5-.02-1.1.48-1.33,1.54-.73,2.54-.43,3.1-.05.92.62,1.19,1.79,1.15,2.6-.06,1.14-.59,1.94-.66,2.02-.19.28-.51.43-.82.43Z"/>
    <path class="cls-1" d="m403.06,62.21c-.1,0-.2-.01-.3-.05-2.65-.84-4.54-1.87-5.81-2.73.07.14.14.29.23.43.27.44.16,1.02-.25,1.33-.41.31-1,.25-1.34-.13-.66-.74-1.25-1.39-1.76-1.95.05.13.12.25.19.36.43.68.16,1.19.03,1.37-.13.19-.54.6-1.33.41-1.69-.41-7.17-4.26-7.88-9.03-.08-.55.29-1.05.84-1.14.55-.07,1.06.3,1.14.84.41,2.75,2.97,5.19,4.75,6.46-.19-1.14-.11-2.14-.09-2.31.04-.39.3-.72.67-.85.37-.13.78-.03,1.05.25,0,0,.5.52,1.37,1.46,0-.08.01-.13.02-.15.06-.4.34-.72.73-.82.39-.11.8.03,1.05.35,0,.01.8.97,2.72,2.08-1.28-1.86-2.47-4.43-2.72-7.68-.04-.52.32-.98.84-1.06.52-.09,1,.24,1.13.74.08.32.2.65.35.96.06-1.6.29-3.74.87-6.41,1.59-7.34-1.5-12.09-2.9-13.78-2.7-3.27-8.78-4.48-8.84-4.49-.07-.01-.13-.03-.19-.06-1.1-.45-4.26-1.34-5.7,0-.27.25-.67.33-1.02.21-.11-.04-2.98-1-4.99,1.25-.21.23-.51.37-.83.33-.57-.04-1.23.24-1.8.77-.63.58-1.04,1.35-1.04,1.97,0,2.04,2.26,5.08,3.93,6.99h0c.12-.44.51-.75.97-.75h.01c.46,0,.85.32.96.77.3,1.26,1.55,4.63,3.63,5.13,1.21.29,2.14.11,2.15.11.54-.11,1.07.23,1.18.77s-.23,1.07-.77,1.18c-.14.03-1.38.27-3.02-.12-2.11-.5-3.45-2.49-4.23-4.16-.04.01-.07.03-.11.04-.34.09-.71,0-.97-.25-.59-.58-5.73-5.8-5.73-9.71,0-1.18.63-2.47,1.68-3.44.84-.78,1.84-1.23,2.81-1.29,2.27-2.23,5.08-1.9,6.27-1.63,2.56-1.77,6.58-.33,7.28-.05.88.18,6.92,1.54,9.91,5.16,1.59,1.92,5.09,7.28,3.31,15.48-1.3,6.01-.71,9.13-.7,9.16.09.43-.12.88-.51,1.08-.15.08-.3.12-.46.12,1.53,2.97,3.7,4.57,3.84,4.67.4.29.53.82.31,1.26-.17.34-.52.55-.89.55Z"/>
    <path class="cls-1" d="m383.36,53.43c-.31,0-.6-.14-.79-.39-.49-.64-4.76-6.37-4.01-9.82.12-.54.65-.88,1.19-.77.54.12.88.65.77,1.19-.25,1.16.53,3.12,1.55,4.96l-.3-3.94c-.04-.55.37-1.03.92-1.07.56-.04,1.03.37,1.07.92l.61,7.85c.03.44-.23.85-.64,1.01-.12.04-.24.07-.36.07Z"/>
    <path class="cls-1" d="m370.32,39.3c-.21,0-.42-.06-.6-.2-1.71-1.27-2.54-2.71-2.47-4.26.1-2.34,2.19-3.99,3.43-4.76.47-.29,1.09-.15,1.38.32.29.47.15,1.09-.32,1.38-1.52.95-2.45,2.13-2.5,3.15-.04.85.53,1.72,1.67,2.58.44.33.53.96.2,1.4-.2.26-.5.4-.8.4Z"/>
    <path class="cls-1" d="m377.11,39.39s-.03,0-.05,0c-.55-.02-.98-.49-.95-1.04.15-3.39-.67-6.9-.68-6.94-.13-.54.21-1.08.74-1.2.54-.13,1.08.21,1.2.74.04.15.89,3.82.73,7.49-.02.54-.47.96-1,.96Z"/>
    <path class="cls-1" d="m383.53,40.86s-.04,0-.05,0c-.55-.03-.97-.5-.95-1.05,0-.08.38-7.62-1.37-11.99-.21-.51.04-1.09.56-1.3.51-.2,1.09.04,1.3.56,1.91,4.78,1.52,12.51,1.51,12.84-.03.53-.47.95-1,.95Z"/>
    <path class="cls-1" d="m387.61,43.97c-.1,0-.19-.01-.29-.04-.53-.16-.83-.72-.66-1.25.67-2.19.47-4.43.47-4.45-.05-.55.35-1.04.9-1.09.55-.04,1.04.36,1.09.9,0,.11.23,2.65-.55,5.21-.13.43-.53.71-.96.71Z"/>
    <path class="cls-1" d="m391.85,55.25c-.47,0-.89-.33-.98-.81,0,0-.4-1.71-2.68-3.67-.42-.36-.47-.99-.11-1.41.36-.42.99-.46,1.41-.11,2.81,2.42,3.29,4.57,3.34,4.81.11.54-.25,1.07-.79,1.17-.06.01-.13.02-.19.02Z"/>
    <path class="cls-1" d="m394.69,54.44c-.46,0-.87-.32-.98-.78-.01-.06-1.39-6.24-2.4-11.24-.11-.54.24-1.07.78-1.18.54-.11,1.07.24,1.18.78,1.01,4.98,2.38,11.15,2.39,11.21.12.54-.22,1.07-.76,1.19-.07.02-.15.02-.22.02Z"/>
    <path class="cls-1" d="m397.47,48.52s-.05,0-.08,0c-.55-.04-.96-.52-.92-1.07,0-.09.64-8.84-2.26-14.73-.24-.5-.04-1.09.46-1.34.49-.24,1.09-.04,1.34.46,3.15,6.4,2.49,15.39,2.46,15.77-.04.52-.48.92-1,.92Z"/>
    <path class="cls-1" d="m391.31,33.39c-.47,0-.89-.33-.98-.81,0-.04-.79-3.96-3.24-6.23-.41-.38-.43-1.01-.05-1.41.38-.4,1.01-.43,1.41-.05,2.93,2.73,3.81,7.13,3.84,7.32.1.54-.25,1.06-.79,1.17-.06.01-.13.02-.19.02Z"/>
    <path class="cls-1" d="m382.35,74.08c-.2,0-.41-.06-.59-.2-.84-.63-1.53-2.28-2.49-4.74-.37-.95-.76-1.93-.97-2.26-.11-.17-.19-.32-.26-.45-.03-.06-.05-.11-.08-.15-.22-.11-1.72-.3-4.21-.62l-.44-.06c-.55-.07-.93-.57-.86-1.12s.57-.93,1.12-.86l.44.06c4.99.65,5.19.67,5.8,1.81.05.08.1.18.17.3.31.48.64,1.31,1.16,2.63.48,1.22,1.37,3.5,1.83,3.87.43.34.51.97.18,1.4-.2.26-.5.39-.79.39Z"/>
    <path class="cls-1" d="m398.62,63.57c-.09,0-.18-.01-.28-.04-1.64-.47-2.15-1.39-2.52-2.07-.09-.16-.17-.32-.29-.47-.34-.43-.26-1.06.17-1.4.43-.34,1.06-.26,1.4.17.2.25.34.51.47.74.3.54.48.87,1.32,1.11.53.15.84.71.69,1.24-.13.44-.53.73-.96.73Z"/>
    <path class="cls-1" d="m431.35,162.71c-1.8,0-5.65-.6-14.19-3.12-.41-.12-.7-.49-.72-.92-.07-1.5-.36-9.07.17-10.86.26-.87-.02-3-.25-4.72-.16-1.2-.31-2.33-.31-3.17,0-1.95.53-3.14.84-3.85.05-.1.09-.2.12-.28.09-.25,0-1.18-.05-1.73-.03-.35-.07-.7-.08-1.03-.02-.3-.16-1.42-.32-2.72-.58-4.58-1.09-8.82-.95-10.38.12-1.4-.19-2.5-.75-4.5-.24-.86-.52-1.86-.82-3.08-.93-3.79-2.31-5.36-2.32-5.38-.37-.41-.34-1.04.07-1.41s1.03-.34,1.4.06c.07.08,1.72,1.9,2.79,6.25.3,1.2.57,2.18.81,3.02.58,2.08.97,3.45.82,5.21-.13,1.47.54,6.79.94,9.96.21,1.63.31,2.5.33,2.86.02.3.05.63.08.95.1,1.02.19,1.98-.08,2.67-.04.1-.09.22-.15.35-.28.64-.67,1.52-.67,3.04,0,.7.14,1.77.29,2.91.28,2.1.56,4.27.18,5.55-.31,1.06-.25,6.1-.12,9.49,5.09,1.47,10.82,2.83,12.81,2.9-.47-2.04-1.25-5.82-1.25-7.5,0-1.2.51-5.69,2.15-6.51.07-.09.32-.69.32-1.53,0-.74-.21-1.36-.56-1.7-2.09-1.99-1.72-21.6-1.71-21.79l.03-.42c.18-2.53.34-4.72-1.33-6.4-1.41-1.41-2.25-5.01-3.05-8.48-.46-2-.99-4.26-1.42-4.85-.92-1.26-1.18-3.11-1.41-4.75-.12-.88-.25-1.79-.45-2.21-.37-.76-.44-1.78-.52-2.86-.09-1.17-.19-2.49-.68-3.17-.35-.49-.71-.63-1.16-.82-.68-.28-1.6-.67-1.89-2.17-.34-1.82-2.95-9.78-5.31-12-1.99-1.88-4.4-3.45-6.73-4.96-.65-.42-1.29-.84-1.9-1.25-.76-.51-1.51-1.14-2.27-1.9-2.15,2.29-8.82,8.79-19.14,13.37-.25.11-.54.12-.79,0-.25-.11-.45-.31-.55-.57l-1.44-3.83c-.1-.28-.08-.59.07-.85.15-.26.4-.44.69-.49,2.69-.48,11.67-6.77,17.05-10.87.89-.68,1.3-1.3,1.31-1.31.18-.28.5-.45.84-.45h0c.34,0,.66.18.84.46,0,.01.72,1.13,1.84,2.39.89.99,1.78,1.79,2.65,2.38.6.41,1.24.82,1.88,1.24,2.29,1.49,4.89,3.18,7.01,5.19,2.88,2.72,5.54,11.21,5.9,13.08.08.44.15.47.69.69.56.23,1.32.55,2.01,1.49.83,1.14.95,2.76,1.05,4.19.06.84.13,1.72.33,2.14.34.7.47,1.67.63,2.8.2,1.4.42,2.99,1.04,3.84.64.87,1.08,2.69,1.75,5.58.64,2.75,1.51,6.51,2.52,7.52,2.32,2.32,2.11,5.31,1.92,7.96l-.03.42c-.23,3.26.1,18.65,1.15,20.26.9.85,1.31,2.36,1.07,4-.08.57-.39,1.93-1.36,2.42-.37.37-1.04,3-1.04,4.72,0,1.6.93,5.95,1.38,7.81.11.45-.02.9-.35,1.21-.16.15-.44.42-1.65.42Zm-48.95-87.93l.69,1.83c9.53-4.46,15.79-10.63,17.64-12.59-.26-.32-.5-.62-.69-.88-.23.23-.52.48-.85.73-1.3.99-11.94,9.06-16.78,10.92Z"/>
    <path class="cls-1" d="m416.71,123.69c-.42,0-.8-.26-.95-.68-.24-.7-.64-1.85-.77-2.16-.26-.38-2.96-3.17-5.28-5.5-1.5-1.5-3.93-4.32-3.42-6.43.23-.95-1.55-4.24-2.61-4.82-1.17-.64-1.69-2.04-2.15-3.28-.24-.66-.49-1.33-.79-1.72-.47-.63-.77-1.49-1.09-2.4-.29-.85-.74-2.14-1.17-2.31-1.23-.5-2.91-2.19-5.44-4.75-.81-.82-1.7-1.72-2.67-2.67-.39-.39-.4-1.02-.01-1.41.38-.39,1.02-.4,1.41-.01.97.96,1.87,1.86,2.69,2.69,2.1,2.12,3.92,3.96,4.78,4.31,1.27.52,1.79,2.04,2.3,3.51.25.73.51,1.48.8,1.86.47.62.77,1.44,1.06,2.23.33.91.72,1.93,1.23,2.22,1.74.95,4.06,5.11,3.59,7.05-.16.66.78,2.44,2.89,4.55,3.57,3.57,5.49,5.63,5.7,6.12.2.47.76,2.11.83,2.29.18.52-.1,1.09-.62,1.27-.11.04-.22.05-.32.05Z"/>
    <path class="cls-1" d="m420.28,87.75c-.13,0-.26-.03-.39-.08-.31-.13-7.68-3.32-10.24-8.51-.25-.5-.04-1.09.45-1.34.5-.25,1.09-.04,1.34.45,2.23,4.52,9.16,7.53,9.23,7.56.51.22.74.8.53,1.31-.16.38-.53.61-.92.61Z"/>
    <path class="cls-1" d="m429.57,115.21c-.18,0-.36-.05-.52-.15-.2-.12-4.9-3.01-9.23-7.85-.37-.41-.33-1.04.08-1.41.41-.37,1.04-.33,1.41.08,4.12,4.61,8.73,7.44,8.77,7.47.47.29.62.9.33,1.37-.19.31-.52.48-.85.48Z"/>
    <path class="cls-1" d="m432.57,143.81c-.42,0-.82-.27-.95-.7-.03-.08-2.57-8.04-4.59-14.09-.17-.52.11-1.09.63-1.26.53-.18,1.09.11,1.26.63,2.02,6.06,4.57,14.04,4.6,14.12.17.53-.12,1.09-.65,1.26-.1.03-.2.05-.3.05Z"/>
    <path class="cls-1" d="m417.6,137.97c-.17,0-.34-.04-.5-.13-.48-.27-.65-.88-.37-1.36.02-.03,1.92-3.49,1.68-9.59-.02-.55.41-1.02.96-1.04.57-.05,1.02.41,1.04.96.26,6.72-1.85,10.5-1.94,10.66-.18.32-.52.5-.87.5Z"/>
    <path class="cls-1" d="m417.61,149.81c-.1,0-.19-.01-.29-.04-.53-.16-.83-.72-.67-1.25,1-3.3,4.41-10.15,4.56-10.44.25-.49.85-.69,1.34-.45.49.25.69.85.45,1.34-.04.07-3.48,6.98-4.43,10.12-.13.43-.53.71-.96.71Z"/>
    <path class="cls-1" d="m430.91,160.9c-.25,0-.51-.1-.71-.29-.17-.17-4.26-4.3-5.13-9.73-.09-.54.28-1.06.83-1.15.54-.09,1.06.28,1.15.83.77,4.78,4.53,8.6,4.57,8.63.39.39.39,1.02,0,1.41-.2.2-.45.29-.71.29Z"/>
    <path class="cls-1" d="m399.76,95.34c-.49,0-.92-.36-.99-.87,0-.05-.71-5.13-2.24-10.03-.17-.53.13-1.09.66-1.25.53-.17,1.09.13,1.25.66,1.59,5.07,2.29,10.15,2.32,10.36.07.55-.31,1.05-.86,1.13-.05,0-.09,0-.14,0Z"/>
    <path class="cls-1" d="m399.44,94.9c-.26,0-.52-.1-.71-.3-.14-.14-3.35-3.45-5.7-9.05-.21-.51.03-1.09.54-1.31.51-.21,1.09.03,1.31.54,2.19,5.23,5.25,8.39,5.28,8.42.39.39.38,1.03-.01,1.41-.2.19-.45.29-.7.29Z"/>
    <path class="cls-1" d="m384.01,101.88c-.12,0-.24,0-.35-.02-1.14-.17-6.84-1.48-6.54-10.6.02-.55.49-.99,1.03-.97.55.02.98.48.97,1.03-.24,7.23,3.64,8.37,4.83,8.55.87.14,4.13-1.21,6.67-2.52.49-.25,1.09-.06,1.35.43.25.49.06,1.09-.43,1.35-1.29.67-5.47,2.74-7.53,2.74Z"/>
    <path class="cls-1" d="m393.25,102.25c-.46,0-.87-.31-.97-.78-.12-.54.21-1.08.75-1.2,3.74-.86,5.81-3.34,5.83-3.36.35-.42.98-.49,1.41-.14.43.35.49.98.14,1.4-.1.12-2.5,3.02-6.93,4.05-.08.02-.15.03-.23.03Z"/>
    <path class="cls-1" d="m386.74,122.61c-.29,0-.59-.13-.78-.38-.34-.43-.27-1.06.16-1.41,7.56-6.01,13.51-15.24,13.57-15.33.3-.46.92-.6,1.38-.3.46.3.6.92.3,1.38-.25.39-6.18,9.59-14.01,15.82-.18.15-.4.22-.62.22Z"/>
    <path class="cls-1" d="m391.53,132.91c-.3,0-.59-.13-.79-.38-.34-.43-.27-1.06.17-1.4,15.48-12.2,16.8-16.17,16.81-16.2.1-.54.61-.9,1.16-.8.54.1.9.62.8,1.16-.08.43-1.24,4.57-17.53,17.41-.18.14-.4.21-.62.21Z"/>
    <path class="cls-1" d="m374.93,148.33c-.08,0-.15,0-.2-.01-1-.2-2.08-1.67-2.08-5.19,0-2.52.26-3.47.96-6.02.25-.9.55-2.01.92-3.48.13-.54.68-.86,1.21-.72.54.14.86.68.72,1.21-.38,1.49-.68,2.61-.93,3.52-.68,2.48-.89,3.23-.89,5.49,0,2.04.4,2.9.59,3.19,1.32-.16,5.93-1.06,7.22-1.96,1.15-.81,4.26-4.9,5.95-7.29.32-.45.94-.56,1.39-.24.45.32.56.94.24,1.39-.47.66-4.62,6.5-6.43,7.77-1.7,1.2-7.36,2.35-8.68,2.35Zm.41-1.89h.01-.01Z"/>
    <path class="cls-1" d="m391.53,144.55c-1.21,0-2.01-.19-2.79-.37-.83-.19-1.6-.38-2.96-.38-.55,0-1-.45-1-1s.45-1,1-1c1.59,0,2.56.23,3.42.43,1.03.24,1.92.45,3.87.22,3.47-.41,6.19-2.4,7.25-4.07,1.21-1.91,1.97-3.15,1.97-3.15.29-.47.9-.62,1.38-.33.47.29.62.91.33,1.38,0,0-.77,1.25-1.99,3.17-1.35,2.13-4.56,4.5-8.71,4.99-.68.08-1.26.11-1.77.11Z"/>
    <path class="cls-1" d="m404.99,133.46c-.23,0-.47-.08-.66-.25-.42-.36-.46-.99-.1-1.41.03-.04,3.42-3.93,4.43-6.33.21-.51.8-.75,1.31-.53.51.21.75.8.53,1.31-1.13,2.7-4.62,6.7-4.76,6.87-.2.23-.47.34-.75.34Z"/>
    <path class="cls-1" d="m406.87,145.81c-1.18,0-2.23-.45-3.42-.96-1.33-.57-2.99-1.28-5.43-1.62-.55-.08-.93-.58-.85-1.13s.58-.92,1.13-.85c2.7.38,4.5,1.15,5.94,1.76,1.14.49,1.99.86,2.81.79,1.85-.68,3.71-1.69,3.94-2.14,0-.02,0-.03,0-.05-.06-.03-.14-.07-.2-.1-.29-.14-.68-.33-1.11-.65-1.12-.86-.74-2.71-.34-4.66.13-.61.32-1.52.29-1.84-.7-1.35-1.48-6.68-.96-9.06.1-.44.23-.96.37-1.53.62-2.45,1.47-5.8.85-8.43-.13-.54.21-1.08.74-1.2.53-.13,1.08.2,1.2.74.74,3.1-.18,6.73-.85,9.38-.14.55-.26,1.04-.36,1.46-.47,2.16.41,7.04.77,7.7.4.65.24,1.54-.1,3.19-.17.8-.47,2.27-.33,2.72.24.17.47.28.69.39.6.29,1.6.77,1.27,2.4-.32,1.59-3.47,2.95-5.33,3.62-.07.03-.15.04-.23.05-.17.02-.34.03-.5.03Zm2.76-11.49h0Z"/>
    <path class="cls-1" d="m374.8,138.76s-.03,0-.04,0c-.55-.02-.98-.49-.96-1.04.06-1.33,0-3.21-.05-5.37-.13-4.68-.29-10.51.67-13.94.68-2.44.53-3.17.29-4.26-.21-.97-.47-2.19-.32-4.65.17-2.87-.38-4.8-.92-6.66-.42-1.45-.81-2.81-.81-4.45,0-3.56.87-10.6,3.22-14.32.29-.47.91-.61,1.38-.31.47.29.61.91.31,1.38-1.99,3.15-2.91,9.77-2.91,13.25,0,1.35.34,2.53.73,3.89.56,1.93,1.19,4.12.99,7.34-.13,2.19.09,3.21.28,4.11.27,1.24.5,2.31-.32,5.23-.88,3.13-.72,8.79-.59,13.34.06,2.21.11,4.11.05,5.52-.02.54-.47.96-1,.96Z"/>
    <path class="cls-1" d="m378.11,122.61c-.13,0-.26-.02-.38-.08-.51-.21-.75-.79-.54-1.31.04-.09,3.93-9.49,8.71-17.07.29-.47.91-.61,1.38-.31s.61.91.31,1.38c-4.68,7.43-8.51,16.67-8.55,16.76-.16.39-.53.62-.92.62Z"/>
    <path class="cls-1" d="m378.31,111.19s-.05,0-.07,0c-.55-.04-.97-.52-.93-1.07l.26-3.64c.04-.55.51-.97,1.07-.93.55.04.97.52.93,1.07l-.25,3.64c-.04.53-.48.93-1,.93Z"/>
    <path class="cls-1" d="m376.72,141.06c-.35,0-.68-.18-.87-.5-.27-.48-.11-1.09.37-1.36,7.73-4.42,15.59-16.91,15.67-17.03.29-.47.91-.61,1.38-.32.47.29.61.91.32,1.38-.33.53-8.21,13.04-16.37,17.71-.16.09-.33.13-.5.13Z"/>
    <path class="cls-1" d="m413.66,73.9c-.18,0-.35-.05-.51-.14-4.23-2.54-7.95-3.15-12.82-2.1-.54.12-1.07-.23-1.19-.77-.12-.54.23-1.07.77-1.19,5.35-1.16,9.62-.46,14.27,2.34.47.29.63.9.34,1.37-.19.31-.52.48-.86.48Z"/>
    <path class="cls-1" d="m373.92,95.34s-.09,0-.14,0c-.55-.08-.93-.58-.86-1.13,0,0,.16-1.33-.27-4.54-.53-3.99,2.13-11.48,8.33-14.59.5-.25,1.09-.05,1.34.45.25.49.05,1.09-.45,1.34-5.56,2.78-7.64,9.53-7.24,12.53.46,3.47.29,4.92.27,5.08-.07.5-.5.86-.99.86Z"/>
    <path class="cls-1" d="m379.14,97.09c-.23,0-.46-.08-.65-.24-.27-.23-.4-.59-.34-.94l3.22-17.75c.1-.54.62-.9,1.16-.81.54.1.9.62.81,1.16l-2.92,16.06,1.11-.39,3.25-17.56c.1-.54.62-.91,1.17-.8.54.1.9.62.8,1.17l-3.36,18.13c-.07.35-.31.64-.65.76l-3.28,1.16c-.11.04-.22.06-.33.06Z"/>
    <path class="cls-1" d="m369.95,117.89c-.48,0-.91-.35-.99-.84-.26-1.59-.05-3.61.13-5.39.1-.99.2-1.93.18-2.52-.07-1.8,1.34-7.9,3.71-10.42.38-.4,1.01-.42,1.41-.04.4.38.42,1.01.04,1.41-1.88,1.99-3.23,7.46-3.17,8.98.03.73-.07,1.69-.18,2.8-.17,1.66-.36,3.54-.15,4.87.09.54-.28,1.06-.83,1.15-.05,0-.11.01-.16.01Z"/>
    <path class="cls-1" d="m365.16,130.95s-.03,0-.04,0c-.55-.02-.98-.49-.96-1.04,0-.04.16-4.02.4-7.3.12-1.67.25-2.91.38-3.66.2-1.18.95-2.92,1.81-4.94,1.09-2.54,2.45-5.71,2.45-7.47,0-.55.45-1,1-1s1,.45,1,1c0,2.17-1.39,5.41-2.61,8.26-.78,1.82-1.52,3.53-1.68,4.48-.12.68-.24,1.88-.36,3.47-.24,3.24-.39,7.19-.4,7.23-.02.54-.46.96-1,.96Z"/>
    <path class="cls-1" d="m342.06,161.87c-.12,0-.25-.02-.36-.07-.36-.14-.6-.47-.63-.85l-.13-1.66c-.07-.92-2.47-6.08-4.74-10.54-.16-.31-.14-.67.03-.97.06-.1,1.55-2.58,4.33-4.41l.45-.29c2.51-1.65,7.73-5.09,8.82-6.06,1.07-.96,3.33-4.55,3.79-6.28.35-1.32,1.95-2.23,4.16-3.49,2.14-1.22,4.8-2.73,7.07-5,.39-.39,1.02-.39,1.41,0s.39,1.02,0,1.41c-2.46,2.46-5.25,4.05-7.49,5.33-1.38.78-3.09,1.76-3.22,2.27-.56,2.11-3.05,6.06-4.38,7.25-1.11.99-5.25,3.74-9.05,6.24l-.45.29c-1.73,1.14-2.9,2.6-3.41,3.32,1.27,2.5,4.17,8.37,4.63,10.41,1.16-1.04,2.71-2.39,3.6-3.01.71-.53,2.18-4.72,3.11-8.3.14-.54.68-.86,1.22-.72.53.14.85.68.72,1.22-.64,2.47-2.31,8.33-3.91,9.44-1.39.97-4.83,4.16-4.87,4.19-.19.17-.43.27-.68.27Z"/>
    <path class="cls-1" d="m348.57,154.92c-.55,0-1-.45-1-1s.45-1,1-1c5.07,0,7.37-2.65,8.88-4.4l.32-.37c.93-1.05,1.91-5.28,2.32-7.7.09-.54.59-.92,1.15-.82.54.09.91.61.82,1.15-.19,1.14-1.21,6.91-2.79,8.7l-.31.36c-1.54,1.78-4.41,5.09-10.4,5.09Z"/>
    <path class="cls-1" d="m360.82,145.27c-.36,0-.71-.19-.88-.53-.26-.49-.07-1.09.42-1.35,2.34-1.24,4.06-2.25,5.31-2.99,1.09-.64,1.81-1.07,2.32-1.27.36-.19,1.19-1.57,1.64-2.31.37-.61.72-1.19,1.06-1.66,1-1.36,3.28-3.58,3.38-3.67.4-.38,1.03-.37,1.41.02.38.4.37,1.03-.02,1.41-.02.02-2.26,2.19-3.15,3.41-.29.39-.61.93-.96,1.51-1.03,1.72-1.72,2.78-2.61,3.14-.37.15-1.07.56-2.04,1.14-1.27.75-3.01,1.77-5.39,3.03-.15.08-.31.12-.47.12Z"/>
    <path class="cls-1" d="m369.84,135.76c-.08,0-.15,0-.23-.03-.54-.13-.87-.67-.75-1.2.01-.06,1.31-5.6,1.62-7.82.08-.55.58-.93,1.13-.85.55.08.93.58.85,1.13-.32,2.32-1.6,7.78-1.66,8.01-.11.46-.52.77-.97.77Z"/>
    <path class="cls-1" d="m355.91,145.27c-.11,0-.22-.02-.33-.06-.52-.18-.79-.75-.61-1.28,1.51-4.29,1.35-9.09,1.35-9.14-.02-.55.41-1.02.96-1.04.53,0,1.02.41,1.04.96,0,.21.18,5.22-1.46,9.88-.14.41-.53.67-.94.67Z"/>
    <path class="cls-1" d="m349.91,143.49c-.18,0-.36-.05-.52-.15-.47-.29-.62-.91-.33-1.38.02-.03,1.78-2.92,2.62-6.44.13-.54.67-.87,1.21-.74.54.13.87.67.74,1.21-.92,3.85-2.79,6.9-2.87,7.03-.19.31-.52.47-.85.47Z"/>
    <path class="cls-1" d="m341.67,148.59c-.1,0-.21-.02-.31-.05-.52-.17-.81-.74-.64-1.26.04-.13,1.07-3.26,2.45-5.52.29-.47.9-.62,1.37-.33.47.29.62.9.33,1.37-1.26,2.06-2.25,5.07-2.26,5.1-.14.42-.53.69-.95.69Z"/>
    <path class="cls-1" d="m430.1,158.69c-4.82,0-12.53-3.26-12.89-3.42-.51-.22-.74-.8-.53-1.31.22-.51.8-.75,1.31-.53,2.51,1.07,9.75,3.73,13.07,3.19.55-.09,1.06.28,1.15.83.09.55-.28,1.06-.83,1.15-.4.06-.83.09-1.28.09Z"/>
    <path class="cls-1" d="m345.63,158.7c-.34,0-.67-.17-.86-.49-.21-.35-5.2-8.69-6.1-12.67-.12-.54.22-1.07.75-1.2.54-.12,1.07.22,1.2.75.83,3.67,5.82,12,5.87,12.08.28.47.13,1.09-.34,1.37-.16.1-.34.14-.51.14Z"/>
    <path class="cls-1" d="m394.53,184.07c-1.07,0-1.98-.08-2.69-.28-5.34-1.44-24.08-5.56-24.27-5.6-.5-.11-.83-.58-.78-1.08.02-.15.41-3.73,2.09-9.37.61-2.05,1.04-4.51,1.5-7.11.76-4.38,1.63-9.35,3.64-13.7.23-.5.82-.72,1.33-.49.5.23.72.83.49,1.33-1.9,4.11-2.74,8.94-3.49,13.21-.46,2.66-.9,5.18-1.55,7.34-1.15,3.86-1.69,6.75-1.9,8.13,3.83.85,18.75,4.16,23.46,5.43,4.02,1.08,17.39-2.12,23.23-3.72-.37-2.51-1.37-9.82-1.32-15.56.06-6.54-2.03-13.32-5.47-17.69-.34-.43-.27-1.06.17-1.4.44-.34,1.06-.27,1.4.17,3.7,4.71,5.96,11.97,5.89,18.95-.06,6.73,1.41,16.02,1.43,16.11.08.5-.23.98-.71,1.12-.69.2-15.08,4.24-22.45,4.24Z"/>
    <path class="cls-1" d="m367.01,153.06c-.18,0-.36-.05-.52-.15-.47-.29-.62-.9-.33-1.37.13-.22,3.36-5.36,8.61-4.43.54.1.91.62.81,1.16-.1.54-.61.91-1.16.81-3.9-.68-6.53,3.46-6.55,3.5-.19.31-.52.47-.85.47Z"/>
    <path class="cls-1" d="m369.12,158.16c-.47,0-.88-.33-.98-.8-.05-.23-1.06-5.79,5.93-10.12.47-.29,1.09-.15,1.38.32.29.47.15,1.09-.32,1.38-5.75,3.56-5.05,7.85-5.02,8.03.1.54-.26,1.06-.8,1.17-.06.01-.13.02-.19.02Z"/>
    <path class="cls-1" d="m395.17,184.07c-.38,0-.74-.22-.91-.58-.23-.5-.01-1.1.49-1.33,7.96-3.67,12.97-15.8,13.02-15.92.21-.51.79-.76,1.3-.55.51.21.76.79.55,1.3-.21.53-5.36,12.99-14.03,16.99-.14.06-.28.09-.42.09Z"/>
    <path class="cls-1" d="m389.48,153.95c-.5,0-.93-.37-.99-.87-.04-.27-.92-6.72-5.76-6.72-.55,0-1-.45-1-1s.45-1,1-1c5.29,0,7.38,5.54,7.75,8.47.07.55-.32,1.05-.87,1.12-.04,0-.09,0-.13,0Z"/>
    <path class="cls-1" d="m399.63,150.16c-.44,0-.85-.29-.96-.74,0-.04-1.04-3.7-4.02-5.53-.47-.29-.62-.9-.33-1.38.29-.47.9-.62,1.38-.33,3.67,2.25,4.86,6.53,4.9,6.71.14.53-.17,1.08-.71,1.22-.09.02-.17.03-.26.03Z"/>
    <path class="cls-1" d="m372.38,173.23c-.07,0-.15,0-.23-.03-.54-.12-.87-.66-.75-1.2.03-.13,2.94-12.79,3.75-18.93.07-.55.57-.93,1.12-.86.55.07.93.58.86,1.12-.83,6.23-3.66,18.59-3.78,19.11-.11.46-.52.78-.97.78Z"/>
    <path class="cls-1" d="m386.48,175.84c-.21,0-.43-.07-.61-.21-.44-.34-.51-.97-.17-1.4.08-.1,7.63-9.82,9.6-16.39.16-.53.71-.83,1.24-.67.53.16.83.71.67,1.24-2.07,6.93-9.62,16.64-9.94,17.05-.2.25-.49.38-.79.38Z"/>
    <path class="cls-1" d="m409.59,157.03c-.53,0-.97-.41-1-.95,0-.07-.4-7.08-2.66-10.75-.29-.47-.14-1.09.33-1.38.47-.29,1.08-.14,1.38.33,2.53,4.11,2.94,11.39,2.96,11.7.03.55-.39,1.02-.95,1.05-.02,0-.04,0-.05,0Z"/>
    <path class="cls-1" d="m372.55,279.93c-1.11,0-4.71-1.37-20.29-7.29-.29-.11-.51-.35-.6-.65-.09-.3-.03-.62.15-.87.05-.06,4.58-6.41,4.41-12.12-.2-6.24,1.24-17.54,2.36-20.49,1.07-2.83,1.85-6.21,1.94-8.4.07-1.6.22-3.61.31-4.8.04-.58.07-.98.08-1.1,0,0,0,0,0,0,0,0-.04-.16-.08-.38-1.07-6.13-1.18-10.19-.34-12.41,1.36-3.59,8.49-15.46,8.79-15.96.28-.47.9-.63,1.37-.34.47.28.63.9.34,1.37-.07.12-7.34,12.22-8.63,15.64-.48,1.28-.8,4.28.44,11.36.07.42.11.68.11.73,0,.1-.03.57-.08,1.24-.09,1.19-.24,3.17-.3,4.74-.1,2.39-.93,6.01-2.07,9.03-.94,2.49-2.43,13.38-2.23,19.72.16,4.96-2.69,10.09-4.07,12.28,6.36,2.41,14.86,5.6,17.57,6.53.1-.26.23-.56.38-.93.64-1.54,1.99-4.76,1.83-5.83-.18-1.29,1-7.04,3.4-17.91.64-2.91,1.25-5.66,1.29-6.06,0-.12.02-.37.04-.72.45-9.42,1.54-14.5,3.45-15.98,1.63-1.26.81-4.78.22-7.35-.18-.79-.36-1.54-.45-2.16-.32-2.22,1.58-4.46,2.97-6.1.42-.49.99-1.17,1.08-1.39.07-.3.2-1.09.34-2.01.32-2.08.81-5.22,1.49-7.32.88-2.74,6.17-10.46,12.98-20.28l.84-1.21c.32-.45.94-.57,1.39-.25.45.31.57.94.25,1.39l-.84,1.21c-5,7.21-11.86,17.08-12.72,19.75-.63,1.95-1.1,5-1.42,7.02-.16,1.04-.28,1.8-.38,2.21-.15.61-.68,1.24-1.48,2.18-1.08,1.27-2.71,3.19-2.52,4.52.08.53.24,1.24.41,1.99.72,3.09,1.7,7.33-.94,9.38-.62.48-2.13,2.86-2.68,14.49-.02.38-.03.65-.04.78-.03.44-.39,2.09-1.33,6.33-1.23,5.56-3.51,15.92-3.37,17.2.21,1.49-.81,4.11-1.97,6.88-.23.56-.5,1.19-.57,1.43,0,.22-.09.44-.24.62-.14.16-.25.28-.58.28Zm.72-1.38s0,0,0,0t0,0Zm-.02-.05s.02.03.02.05c0-.02-.02-.03-.02-.05Zm0,0s0,0,0,0c0,0,0,0,0,0Zm0,0s0,0,0,0c0,0,0,0,0,0Zm0,0s0,0,0,0c0,0,0,0,0,0Z"/>
    <path class="cls-1" d="m364.2,205.78c-.51,0-.95-.39-1-.91-.11-1.31-.42-3.41-.74-4.01-1.06-1.94,3.47-20.24,4.35-23.52.14-.53.7-.85,1.22-.71.53.14.85.69.71,1.22-2.55,9.55-4.69,20.62-4.48,22.14.61,1.24.88,4.13.93,4.71.05.55-.36,1.03-.91,1.08-.03,0-.06,0-.09,0Zm.07-5.75h0Z"/>
    <path class="cls-1" d="m381.15,228.48c-.14,0-.28-.03-.42-.09-.26-.12-6.32-2.95-9.79-8-.31-.46-.2-1.08.26-1.39s1.08-.2,1.39.26c3.16,4.6,8.92,7.29,8.98,7.32.5.23.72.82.49,1.33-.17.37-.53.58-.91.58Z"/>
    <path class="cls-1" d="m369.38,242.17c-.3,0-.59-.13-.79-.39-.27-.34-6.56-8.47-7.88-14.08-.13-.54.21-1.08.74-1.2.54-.12,1.08.21,1.2.74,1.22,5.18,7.45,13.23,7.52,13.31.34.44.26,1.06-.17,1.4-.18.14-.4.21-.61.21Z"/>
    <path class="cls-1" d="m363.26,272.61c-.25,0-.5-.09-.69-.28-.21-.2-5.13-4.97-6.47-10.86-.12-.54.22-1.07.75-1.2.54-.12,1.07.21,1.2.75,1.2,5.3,5.86,9.81,5.9,9.86.4.38.41,1.02.03,1.41-.2.2-.46.31-.72.31Z"/>
    <path class="cls-1" d="m409.94,203.1s-.03,0-.04,0c-.55-.02-.98-.49-.96-1.04,0-.15.6-15.51,0-21.36-.06-.55.34-1.04.89-1.1.57-.04,1.04.35,1.1.89.61,5.99.03,21,0,21.64-.02.54-.46.96-1,.96Z"/>
    <path class="cls-1" d="m412.08,209.04c-.55,0-1-.45-1-1v-4.24c-.38-.25-1.24-.66-2.01-1.03-2.63-1.27-6.61-3.19-9.93-6.26-.41-.38-.43-1.01-.05-1.41.37-.41,1.01-.43,1.41-.05,3.1,2.87,6.91,4.71,9.43,5.92,2.29,1.1,3.14,1.51,3.14,2.47v4.6c0,.55-.45,1-1,1Zm-.83-5.11h.01-.01Z"/>
    <path class="cls-1" d="m410.21,277.69c-.15,0-.3-.04-.45-.11-.38-.19-.6-.6-.54-1.02,0-.05.69-5.55-1.46-11.28-1.7-4.53-2.75-9.83-3.53-13.7-.26-1.33-.49-2.47-.69-3.28-.4-1.67-.9-5.27-1.38-8.75-.44-3.17-.89-6.45-1.2-7.71-.67-2.7-1.15-5.8-1.17-5.93-.08-.55.29-1.06.84-1.14.55-.09,1.06.29,1.14.84,0,.03.48,3.15,1.13,5.75.34,1.36.78,4.55,1.25,7.92.47,3.43.96,6.99,1.34,8.55.21.85.44,2.01.71,3.36.76,3.8,1.8,9.01,3.44,13.39,1.38,3.69,1.69,7.23,1.7,9.55.35-.38.69-.74.93-1.04.52-.63,1.86-.95,7.38-2.04,3.56-.7,10.11-1.99,11.19-2.9.03-2.39-5.17-18.94-6.81-22.22-.93-1.86-2.68-6.43-4.09-10.11-.85-2.22-1.73-4.52-1.93-4.89-.31-.56-.9-2.5-2.09-6.47-.8-2.69-1.71-5.73-2.07-6.53-.24-.55-.46-1.35-.73-2.36-.66-2.46-1.66-6.19-4.01-9.64-.31-.46-.19-1.08.26-1.39.46-.31,1.08-.19,1.39.26,2.54,3.73,3.59,7.66,4.28,10.25.24.89.44,1.66.62,2.07.41.91,1.25,3.76,2.15,6.77.71,2.37,1.68,5.62,1.93,6.09.25.47.88,2.08,2.04,5.13,1.39,3.64,3.12,8.16,4.01,9.93,1.3,2.59,7.45,21.02,6.98,23.6-.3,1.67-3.3,2.52-12.76,4.38-2.51.5-5.62,1.11-6.3,1.43-.92,1.1-2.75,2.88-2.83,2.96-.19.19-.44.28-.7.28Z"/>
    <path class="cls-1" d="m402.24,239.27s-4.85-6.7-6.19-8.52c-.4-.54-.89-1.02-1.46-1.58-1.17-1.15-2.63-2.58-3.73-5.12-1.5-3.46-2.67-9.9-3.71-15.59l-.17-.92c-.1-.54.26-1.06.8-1.16.55-.11,1.06.26,1.16.8l.17.92c.97,5.31,2.17,11.91,3.58,15.16.95,2.19,2.14,3.36,3.29,4.49.6.59,1.18,1.15,1.67,1.82,1.34,1.82,6.2,8.53,6.2,8.53l-1.62,1.17Z"/>
    <path class="cls-1" d="m358.59,299.14c-5.4,0-32.24-10.17-35.58-12.65-1.23-.92-1.89-2.25-1.9-3.85-.02-3.08,2.33-6.5,4.67-8.28,3.49-2.67,13.8,2.37,16.3,3.65,2.35.17,5.11.26,5.86.13.96-.96,5.71-5.72,6.23-6.26.38-.4,1.02-.41,1.41-.03.4.38.41,1.02.03,1.41-.56.58-5.96,6-6.41,6.44-.32.31-.8.79-7.48.28-.13,0-.27-.05-.39-.11-4.81-2.5-12.45-5.38-14.35-3.93-1.92,1.47-3.9,4.37-3.88,6.68,0,.98.36,1.71,1.09,2.26,3.48,2.58,29.64,12.26,34.31,12.26.06,0,.12,0,.17,0,2.22-.14,3.75-2.77,4.31-3.89,1.21-2.44,1.34-4.56,1.07-4.96-1.4-1.93.73-8.76,1.71-11.61.18-.52.75-.8,1.27-.62.52.18.8.75.62,1.27-1.53,4.44-2.45,9.01-1.98,9.79,1,1.38.3,4.48-.78,6.77-1.5,3.19-3.73,5.1-6.09,5.25-.07,0-.14,0-.22,0Z"/>
    <path class="cls-1" d="m364.12,288.73c-5.58,0-18.29-3.55-23.07-9.08-.36-.42-.31-1.05.1-1.41.42-.36,1.05-.32,1.41.1,4.41,5.11,17.61,8.76,22.24,8.36.54-.03,1.03.36,1.08.92.04.55-.37,1.03-.92,1.08-.26.02-.54.03-.84.03Z"/>
    <path class="cls-1" d="m332.05,290.63c-.21,0-.42-.06-.6-.2-.29-.22-7.11-5.37-8.79-11.98-.14-.54.19-1.08.72-1.21.53-.14,1.08.19,1.21.72,1.5,5.91,7.99,10.82,8.05,10.87.44.33.53.96.2,1.4-.2.26-.5.4-.8.4Z"/>
    <path class="cls-1" d="m345.43,295.62c-.2,0-.4-.06-.58-.19-.53-.38-13.1-9.41-17.93-20.4-.22-.51,0-1.1.51-1.32.51-.22,1.1,0,1.32.51,4.6,10.48,17.13,19.49,17.26,19.58.45.32.55.94.23,1.39-.2.27-.5.42-.82.42Z"/>
    <path class="cls-1" d="m352.62,297.9c-.21,0-.42-.07-.6-.2-5.1-3.86-7.73-8.53-11.06-14.46-.92-1.64-1.87-3.33-2.95-5.13-.28-.47-.13-1.09.35-1.37.48-.28,1.09-.13,1.37.35,1.09,1.82,2.04,3.53,2.97,5.18,3.21,5.72,5.75,10.24,10.52,13.84.44.33.53.96.2,1.4-.2.26-.5.4-.8.4Z"/>
    <path class="cls-1" d="m362.16,297.27c-.17,0-.35-.04-.51-.14-.31-.18-7.57-4.54-13.17-11.9-.33-.44-.25-1.07.19-1.4.44-.33,1.07-.25,1.4.19,5.36,7.04,12.53,11.35,12.6,11.39.47.28.63.9.35,1.37-.19.31-.52.49-.86.49Z"/>
    <path class="cls-1" d="m403.8,300.01c-7.54,0-13.91-.21-14.6-.58-1.42-.75-1.86-3.32-1.98-4.39-.31-2.7.15-6.26,2.37-8.18,4.14-3.59,16-2.3,17.34-2.14.11.01.23.05.33.1.03.01,2.75,1.33,4.03-.3,1.08-1.37,1.09-7.09.75-10.71-.05-.55.35-1.04.9-1.09.53-.08,1.04.35,1.09.9.15,1.59.8,9.65-1.17,12.14-2.06,2.6-5.5,1.29-6.32.93-3.52-.4-12.73-.83-15.63,1.68-1.48,1.28-1.87,3.88-1.74,5.88.13,2.01.71,3.23.98,3.41,2.23.7,36.02.43,38.91-.83,1.17-1.32,1.52-8.28.9-9.47-.59-1.15-1.73-1.7-1.74-1.7-.28-.13-.48-.38-.55-.68l-3.29-13.87c-.13-.54.21-1.08.74-1.2.53-.13,1.08.21,1.2.74l3.19,13.44c.58.36,1.58,1.12,2.22,2.35.88,1.69.68,9.94-1.35,11.89-1.24,1.19-15.23,1.67-26.58,1.67Z"/>
    <path class="cls-1" d="m416.07,289.48c-4.03,0-7.85-.93-9.97-3.06-.39-.39-.39-1.02,0-1.41s1.02-.39,1.41,0c3.99,3.99,16.29,2.81,20.45-.99.41-.37,1.04-.35,1.41.06.37.41.34,1.04-.06,1.41-2.72,2.48-8.15,3.98-13.24,3.98Z"/>
    <path class="cls-1" d="m401.26,299.45c-.13,0-.27-.03-.4-.08-.05-.02-5.04-2.22-13.04-4.98-.52-.18-.8-.75-.62-1.27s.75-.8,1.27-.62c8.08,2.79,13.14,5.02,13.19,5.04.5.22.73.81.51,1.32-.17.37-.53.6-.92.6Z"/>
    <path class="cls-1" d="m411.6,299.45c-.18,0-.36-.05-.52-.15-.13-.08-13.02-8.01-21.14-10.73-.52-.18-.81-.74-.63-1.27.17-.52.74-.8,1.27-.63,8.34,2.79,21.02,10.6,21.56,10.93.47.29.62.91.33,1.38-.19.31-.52.47-.85.47Z"/>
    <path class="cls-1" d="m420.02,299.45c-.22,0-.44-.07-.63-.22-.09-.07-8.77-7.09-20.03-12.94-.49-.25-.68-.86-.43-1.35.25-.49.86-.68,1.35-.43,11.45,5.95,20.28,13.1,20.37,13.17.43.35.49.98.15,1.41-.2.24-.49.37-.78.37Z"/>
    <path class="cls-1" d="m426.65,299.25c-.33,0-.66-.17-.85-.47-.05-.08-4.88-7.68-9.11-9.33-.51-.2-.77-.78-.57-1.3.2-.51.78-.77,1.3-.57,4.85,1.9,9.87,9.79,10.08,10.13.29.47.15,1.08-.31,1.38-.17.1-.35.15-.53.15Z"/>
    <path class="cls-1" d="m430.46,293.63c-.33,0-.66-.17-.85-.47,0,0-1.2-1.73-6.17-4.67-.48-.28-.63-.89-.35-1.37s.9-.63,1.37-.35c5.42,3.2,6.72,5.12,6.85,5.33.29.47.15,1.08-.32,1.38-.17.1-.35.15-.53.15Z"/>
    <path class="cls-1" d="m328.84,160.56c-.59,0-1.14-.12-1.59-.3-.94-.38-1.53-1.04-1.57-1.76-.05-.85.53-1.37,1.04-1.83.46-.42.99-.89,1.29-1.71.86-2.38,5.64-5.47,7.89-6.52.5-.23,1.1-.02,1.33.48.23.5.02,1.1-.48,1.33-2.6,1.22-6.35,4-6.86,5.4-.47,1.29-1.29,2.03-1.83,2.52-.06.05-.13.12-.2.18.17.09.43.18.76.21.59.05,1.48-.07,2.45-.96,1.67-1.54,3.11-1.4,4.16-1.31.77.07,1.14.09,1.6-.27.43-.34,1.06-.27,1.41.16.34.43.27,1.06-.16,1.41-1.1.88-2.17.78-3.03.7-.93-.09-1.6-.15-2.62.79-1.19,1.1-2.48,1.5-3.59,1.5Z"/>
    <path class="cls-1" d="m324.74,167.97c-1.01,0-2.79-.21-3.45-.93-1.14-1.25.25-6.81.41-7.29.42-1.25,2.26-2.66,5.02-4.66,1.06-.77,2.07-1.5,2.52-1.96.39-.39,1.02-.39,1.41,0,.39.39.39,1.02,0,1.41-.56.56-1.58,1.3-2.76,2.16-1.41,1.03-4.05,2.94-4.3,3.68-.49,1.45-.86,4.47-.74,5.34.27.1.89.19,1.4.23-.03-.48-.07-1.1-.11-1.65-.04-.55.37-1.03.92-1.08.54-.04,1.03.37,1.08.92.21,2.64.14,2.86.07,3.05-.06.18-.26.59-.86.72-.12.03-.34.04-.62.04Zm-1.85-2.1h0,0Z"/>
    <path class="cls-1" d="m327.08,168.16c-.47,0-1.36-.42-2.88-4.09-.78-1.87,1-3.24,2.3-4.24.44-.34,1.06-.26,1.4.18.34.44.26,1.07-.18,1.4-1.54,1.19-1.79,1.62-1.67,1.89.31.75,1,2.08,1.41,2.73.12-.04.25-.08.37-.12-.08-.37-.25-.91-.43-1.39-.13-.34-.07-.72.16-1l1.63-1.96c.35-.43.98-.49,1.41-.13.43.35.48.98.13,1.41l-1.26,1.52c.7,2.01.45,2.7-.15,3.07-.57.36-1.77.66-2.03.71-.06,0-.13.02-.21.02Zm.62-1.78h0,0Z"/>
    <path class="cls-1" d="m331.9,167.07c-1.18,0-2.63-.46-2.65-.47-.21-.07-.54-.18-1.33-1.36-.31-.46-.18-1.08.27-1.39.2-.14.43-.19.66-.17.05-.25.21-.48.44-.63,1.07-.68,2.45-.94,3.52-.65.59.16,1.01.46,1.24.89.54,1.02-.05,2.98-1.06,3.56-.28.16-.66.22-1.08.22Zm-1.64-2.27c.55.14,1.4.3,1.76.27.09-.14.21-.51.23-.75-.35-.08-1.14-.06-1.88.42-.03.02-.07.04-.11.06Zm1.84.26h0Z"/>
    <path class="cls-1" d="m333.74,167.12c-.32,0-.69-.09-1.11-.26-.51-.21-.75-.8-.54-1.31.21-.51.8-.75,1.31-.54.07.03.16.06.24.08.04-.02.08-.04.13-.07.98-.52,1.38-.8,1.54-.95.03-.21.06-.57.02-.89,0-.02,0-.04,0-.05-.29.22-.72.6-1.06.91-.41.37-1.04.34-1.41-.07-.37-.41-.34-1.04.07-1.41,1.22-1.1,2.37-2.15,3.59-1.25.46.34.73.9.81,1.66.07.62,0,1.26-.06,1.58-.13.82-1,1.42-2.55,2.25-.11.06-.19.1-.24.13-.2.13-.44.2-.73.2Zm-.34-1.9s-.03.02-.04.03c0,0,.02-.02.04-.03Zm1.96-1.22h0Z"/>
    <path class="cls-1" d="m336.34,164.29c-.55,0-1-.45-1-1s.45-1,1-1c1.25,0,3.47-2.44,4.64-4.17.31-.46.93-.58,1.39-.27.46.31.58.93.27,1.39-.57.84-3.56,5.05-6.3,5.05Z"/>
    <path class="cls-1" d="m419.45,181.34s-.02,0-.04,0c-.64-.02-1.15-.24-1.51-.64-.59-.66-.53-1.55-.49-2.14,0-.09.01-.18.02-.25-.44-.57-.79-1.78-1.33-5.35-.47-3.16.96-6.75,1.25-7.43.47-1.1,1.56-3.66.89-5.86-.16-.53.14-1.09.67-1.25.54-.16,1.09.14,1.25.67.88,2.89-.41,5.93-.96,7.23-.16.37-1.51,3.67-1.11,6.35.47,3.14.76,4.14.93,4.42.48.46.43,1.1.4,1.62-.01.17-.03.48,0,.63.02,0,.05,0,.09,0,.55.02.98.48.96,1.04-.02.54-.46.96-1,.96Zm-1.8-2.79h.01-.01Zm1.3-1.52h0s0,0,0,0Z"/>
    <path class="cls-1" d="m422.95,185.48c-.29,0-.59-.05-.89-.16-1.46-.57-2.92-3.93-3.16-4.98-.11-.47-.27-1.47-.47-2.72-.3-1.84-.67-4.13-.99-5.47-.13-.54.2-1.08.74-1.21.54-.13,1.08.2,1.21.74.34,1.41.72,3.74,1.02,5.61.19,1.17.36,2.19.45,2.6.24,1.05,1.47,3.29,1.97,3.58.11.04.3.02.49-.04l-.92-5.41c-.09-.54.28-1.06.82-1.15.55-.09,1.06.27,1.15.82l1.04,6.16c.07.39-.1.78-.43,1-.12.08-1.01.64-2.02.64Z"/>
    <path class="cls-1" d="m422.05,183.51c-.28,0-.63-.02-1.06-.08-.55-.07-.93-.57-.86-1.12.07-.55.57-.92,1.12-.86.66.08.95.06,1.03.05.43-.16.94,0,1.19.41.29.47.15,1.08-.32,1.38-.17.1-.45.22-1.09.22Zm.03-1.92h0s0,0,0,0Zm0,0s0,0,0,0c0,0,0,0,0,0Zm0,0h0,0Z"/>
    <path class="cls-1" d="m421.85,181.61c-.21,0-1.16-.03-2.39-.58-.5-.22-.73-.82-.51-1.32.22-.5.82-.73,1.32-.51.9.4,1.57.41,1.58.41.55,0,1,.44,1,.99,0,.55-.43,1-.97,1.01h-.03Z"/>
    <path class="cls-1" d="m425.42,184.82c-.17,0-.39,0-1.44-.52-.5-.24-.7-.84-.46-1.34.24-.5.85-.7,1.34-.46.17.09.37.17.52.24.28-.17.73-.53.71-.99-.02-.51-.11-1.03-.21-1.63-.14-.86-.33-1.94-.36-3.37-.01-.55.42-1.01.97-1.03.57,0,1.01.42,1.03.97.04,1.29.2,2.25.34,3.09.11.64.21,1.24.24,1.87.04.78-.26,1.52-.85,2.14-.48.5-1.28,1.01-1.81,1.01Z"/>
    <path class="cls-1" d="m425.45,182.87c-.55,0-1-.45-1-1s.45-1,1-1c.89,0,1.35-.12,1.36-.12.52-.14,1.08.17,1.23.69.15.53-.15,1.08-.68,1.23-.07.02-.71.2-1.91.2Z"/>
    <path class="cls-1" d="m425.75,180.63c-.5,0-.93-.38-.99-.88-.06-.55.33-1.04.88-1.11.74-.09,1.2-.2,1.21-.2.53-.14,1.08.2,1.21.73s-.19,1.08-.73,1.21c-.02,0-.58.14-1.46.25-.04,0-.08,0-.12,0Z"/>
    <path class="cls-1" d="m425.45,177.28c-.12,0-.24-.02-.35-.06-.69-.26-1.91-.8-2.35-1.49-.29-.47-.15-1.08.32-1.38.46-.29,1.06-.16,1.36.29.16.16.81.5,1.37.71.52.2.78.77.58,1.29-.15.4-.53.65-.94.65Z"/>
    <path class="cls-1" d="m421.41,177.95c-.34,0-.67-.17-.86-.48-.26-.43-.89-1.5-1.03-1.98-.16-.53.13-1.09.66-1.25.53-.16,1.09.13,1.25.66.07.2.49.96.84,1.54.29.47.13,1.09-.34,1.37-.16.1-.34.14-.51.14Z"/>
    <path class="cls-1" d="m428.07,182.87c-.33,0-.66-.17-.85-.47-.29-.47-.16-1.08.31-1.38.49-.31,1.4-1.27,1.57-1.65-.05-.53-.32-2-.96-4.57-.13-.54.2-1.08.73-1.21.54-.13,1.08.2,1.21.73.29,1.17.96,4,1.02,5.04.07,1.38-2.19,3.15-2.51,3.35-.17.1-.35.15-.53.15Zm1.04-3.41h0,0Zm.01-.14h0Z"/>
    <path class="cls-1" d="m429.28,180.72c-.32,0-.71-.02-1.17-.1-.55-.08-.92-.59-.84-1.14.08-.54.58-.92,1.14-.84.93.14,1.37.03,1.37.03.53-.14,1.08.16,1.23.67.16.52-.11,1.06-.62,1.23-.09.03-.45.14-1.11.14Z"/>
    <path class="cls-1" d="m430.59,179.81c-.35,0-.68-.18-.87-.5-.27-.48-.11-1.09.37-1.37,0,0,.59-.35,1.34-1.07.02-.08-.1-.42-.19-.7-.21-.65-.51-1.54-.6-2.82-.21-2.61-.62-5.81-.94-6.41-.7-1.32-.62-4.42-.59-5.03.02-.55.46-1.01,1.04-.96.55.02.98.48.96,1.04-.05,1.25.04,3.4.36,4.02.65,1.24,1.06,5.82,1.17,7.19.08,1.04.31,1.76.5,2.35.29.87.61,1.86-.33,2.76-.93.89-1.65,1.32-1.73,1.36-.16.09-.33.13-.5.13Z"/>
  </g>
</svg>
