<?xml version="1.0" encoding="UTF-8"?>
<svg id="Layer_1" data-name="Layer 1" xmlns="http://www.w3.org/2000/svg" viewBox="0 0 677.07 533.16">
  <defs>
      <style>
          :root { fill:#222 }
          .accent { fill: #f9322c; }
          .cls-3 { stroke: #222; }

          @media (prefers-color-scheme: dark) {
          :root {  fill: #f9322c; }
          .accent { fill:#dee2e6; }
          .cls-3 { stroke: #f9322c; }
          }

          .cls-1, .cls-2 {
          stroke-width: 0px;
          }

          .cls-2 {
          fill: #ff2d20;
          }

          .cls-3 {
          fill: none;
          stroke-linecap: round;
          stroke-linejoin: round;
          stroke-width: 2px;
          }
      </style>
  </defs>
  <path class="accent" d="m27.48,208.13L1.42,233.3l4.87,19.44,5.12,5.3,40.45-39.06-5.12-5.3-19.26-5.55Zm-17.86,34.03l-2.11-7.38,21.25-20.53,7.3,2.37-26.44,25.53Z"/>
  <path class="accent" d="m11.41,258.04v42.45h10l10-10h16.23l10,10h10v-42.45m-6.74,26.59H18.15v-20.73h42.76v20.73Z"/>
  <path class="cls-1" d="m667.29,300.79c-.43,0-.83-.28-.96-.72-.19-.66-.2-3.07,5.87-9.12-5.81,3.09-7.38,8.62-7.4,8.69-.11.39-.44.68-.84.73-.41.05-.8-.15-1-.51-.29-.52-2.5-5.36,2.11-24.63-3.24,6.04-4.4,13.74-5.08,18.33-.53,3.52-.65,4.36-1.6,4.59-.46.11-.92-.07-1.22-.49-.34-.47-1.54-1.77-3.1-3.39.71,1.62,1.32,3.4,1.72,5.31.11.54-.23,1.07-.77,1.19-.55.12-1.07-.23-1.19-.77-1.24-5.89-4.63-10.46-6.87-12.96-.85-.85-1.6-1.6-2.17-2.17-.38-.38-.39-.99-.03-1.38.36-.39.97-.43,1.38-.09.11.09,1.12.95,2.46,2.46,2.74,2.75,7.02,7.09,9.1,9.38.1-.58.2-1.27.3-1.96.9-6.01,2.57-17.2,8.64-23.74.31-.34.81-.42,1.22-.2.4.22.6.69.48,1.13-3.85,14.38-4.31,21.9-4.11,25.52,1.69-2.96,5.19-7.14,11.96-8.57.45-.09.9.12,1.1.53.21.41.11.9-.23,1.2-8.45,7.48-8.78,10.27-8.79,10.49.08.49-.22.98-.71,1.12-.09.03-.19.04-.28.04Zm.99-1.15h0Zm-.02-.12h0Zm0,0h0s0,0,0,0Zm0,0h0s0,0,0,0Z"/>
  <path class="cls-1" d="m433.52,300.79c-.48,0-.9-.34-.98-.83-.16-.92.65-3.56,10.07-9.54-7.6,2.32-11.29,5.67-11.34,5.72-.26.24-.63.33-.97.22-.34-.1-.6-.38-.68-.73l-.72-3.13-4.72,5.08c-.18.2-.44.31-.71.32-.26-.01-.53-.1-.72-.29l-2.73-2.68c.85,1.12,1.79,2.35,2.82,3.7.34.44.25,1.07-.19,1.4-.44.34-1.07.25-1.4-.19-8.22-10.75-10.29-13.81-10.38-13.94-.29-.43-.2-1,.19-1.33.39-.33.97-.3,1.34.06l11.01,10.82,5.3-5.7c.25-.27.63-.39.99-.29.36.09.63.38.72.74l.79,3.43c2.36-1.71,7.98-5.08,17.22-6.62.47-.08.94.19,1.11.65.16.46-.03.96-.45,1.2-13.33,7.61-14.47,10.59-14.56,10.92,0,.48-.34.9-.83.98-.06.01-.12.02-.17.02Zm.99-1.17h0s0,0,0,0Z"/>
  <path class="cls-1" d="m656.59,301.77c-.15,0-.3-.03-.43-.1l-4.54-2.19-.33.72c-.21.46-.74.69-1.22.54l-4.83-1.55-4.31,1.54c-.16.06-.33.07-.5.04l-7.91-1.29-5.48,2.22c-.17.07-.35.09-.53.06l-10.85-1.73-5.97-.57-10.21,1.32c-.15.02-.31,0-.45-.04l-4.59-1.56-11.73,2.58c-.15.03-.31.03-.46,0l-7.48-1.87-7.99.91c-.17.02-.35,0-.51-.07l-6.41-2.74-3.18,1.11c-.31.11-.65.06-.92-.14l-2.12-1.54-3.82,1.65c-.32.14-.69.1-.97-.1l-4.45-3.15-6.46,3.79c-.27.16-.59.18-.88.07l-4.23-1.69-2.83,1.1c-.14.05-.29.08-.44.06l-7.07-.55-6.94.55c-.34.03-.67-.12-.88-.4l-1.32-1.76,1.33,2.31c.22.38.16.87-.14,1.19-.31.32-.79.4-1.18.2l-4.21-2.14-4.19,1.51c-.46.16-.96-.02-1.2-.44l-1-1.72-1.51,1.53c-.23.23-.57.34-.89.28-.32-.06-.6-.27-.74-.57l-2.32-5.09-8.85,5.89c-.44.29-1.04.19-1.35-.23l-1.36-1.81h-4.1c-.12,0-.24-.02-.36-.07l-1.34-.51-6.06,1.78c-.09.03-.19.04-.28.04h-5.3l-7.86.91c-.11.01-.23,0-.34-.02-.46-.1-2.75-.67-3.84-1.66-1.1-.29-6.57.87-8.56,1.44-.93.26-4.41.92-4.56.95-.13.03-.27.02-.4,0l-7.12-1.56-3.6,2.4c-.25.17-.57.21-.86.12l-5.68-1.81-5.04,1.8c-.23.08-.48.08-.71-.01l-6.22-2.47-2.96,1.48c-.49.25-1.09.05-1.34-.45-.25-.49-.05-1.09.45-1.34l3.36-1.68c.25-.13.55-.14.82-.04l6.29,2.5,5.01-1.79c.21-.07.43-.08.64-.01l5.54,1.77,3.56-2.37c.22-.15.5-.21.77-.14l7.33,1.61c1.11-.21,3.52-.69,4.18-.87.91-.26,8.95-2.5,10.43-1.02.45.45,1.85.93,2.8,1.17l7.74-.9s.08,0,.12,0h5.22l6.24-1.83c.21-.06.44-.05.64.03l1.49.57h4.41c.31,0,.61.15.8.4l1.09,1.46,9.04-6.02c.24-.16.55-.21.83-.13.28.08.51.28.64.55l2.21,4.84,1.41-1.43c.22-.22.52-.33.84-.29.31.04.58.22.74.49l1.24,2.13,3.81-1.38c.26-.09.55-.08.79.05l1.6.81-7.77-13.52c-.26-.46-.12-1.04.32-1.33.44-.29,1.03-.19,1.35.23l10.77,14.34,6.47-.51c.05,0,.1,0,.16,0l6.92.54,2.98-1.16c.23-.09.5-.09.73,0l4.14,1.65,6.6-3.87c.34-.2.76-.18,1.08.05l4.52,3.2,3.82-1.65c.32-.14.7-.1.98.11l2.16,1.57,3.05-1.07c.23-.08.49-.07.72.02l6.52,2.79,7.91-.9c.12-.01.24,0,.36.02l7.43,1.86,11.77-2.58c.18-.04.36-.03.54.03l4.63,1.58,10.09-1.31c.08,0,.15,0,.22,0l6.15.59,10.64,1.69,5.49-2.22c.17-.07.36-.09.54-.06l7.93,1.3,4.39-1.57c.21-.07.43-.08.64,0l4.3,1.38.38-.84c.11-.25.32-.44.57-.53.25-.09.53-.08.78.04l4.93,2.38,3.27-2.3c.33-.23.76-.24,1.11-.03l.89.56,2.65-1.78c.32-.21.73-.23,1.06-.04l3.7,2.14c.48.28.64.89.36,1.37-.28.48-.89.64-1.37.36l-3.16-1.83-2.67,1.79c-.33.22-.75.23-1.09.02l-.88-.55-3.21,2.25c-.17.12-.37.18-.57.18Z"/>
  <path class="cls-1" d="m244.84,313.34c-7.94,0-16.94-1.42-20.17-2.28-3.72-1-6.09-.79-8.19-.6-.74.07-1.45.13-2.15.13-1.15,0-2.02.34-3.23.81-1.17.46-2.62,1.02-4.81,1.47-5.04,1.02-9.09-2.21-12.65-5.07-.43-.34-.5-.97-.16-1.41.34-.43.97-.5,1.41-.16,4.03,3.22,7.18,5.45,11.01,4.67,2.01-.41,3.32-.92,4.48-1.37,1.3-.51,2.43-.95,3.96-.95.61,0,1.27-.06,1.97-.12,2.15-.19,4.82-.42,8.88.66,5.34,1.43,24.63,3.89,30.38.49,4.97-2.94,8.71-3.21,11.18-3.38.74-.05,1.38-.1,1.9-.2,1.77-.36,3.93-.24,6.03-.13.95.05,1.94.1,2.86.11.9,0,2.56.26,4.67.57,4.62.69,12.34,1.85,14.6.49,3.55-2.16,5.11-2.98,7.95-1.72,2.46,1.09,10.87,4.55,15.92,3.14,2.64-.74,5.04-1.25,7.36-1.76,2.44-.53,4.74-1.02,6.77-1.68,1.05-.34,1.86-.73,2.65-1.11,2.08-1,3.88-1.87,7.93-.55,3.18,1.03,6.01,1.56,8.75,2.08,1.62.3,3.15.59,4.71.97,1.51.37,2.74.86,3.92,1.34,2.18.88,4.06,1.63,7.1,1.32,2.37-.24,3.27-.45,3.93-.61.83-.19,1.33-.29,2.94-.29,2.88,0,11.66,0,15.14-.62,2.25-.4,3.85.24,5.25.8,1.09.43,2.12.85,3.48.85,2.75,0,3.13-.56,4.55-2.66l.24-.35c.31-.46.93-.57,1.39-.26.46.31.57.93.26,1.39l-.24.35c-1.55,2.28-2.4,3.53-6.2,3.53-1.74,0-3.06-.53-4.22-.99-1.33-.53-2.48-.99-4.16-.69-3.66.65-12.26.65-15.5.65-1.45,0-1.82.09-2.49.24-.71.17-1.68.39-4.18.65-3.52.36-5.72-.52-8.05-1.46-1.12-.45-2.29-.92-3.65-1.25-1.51-.37-3.02-.65-4.61-.95-2.8-.52-5.69-1.07-9-2.14-3.29-1.07-4.48-.5-6.44.45-.81.39-1.72.83-2.9,1.21-2.12.68-4.47,1.19-6.96,1.73-2.29.5-4.67,1.01-7.25,1.73-5.53,1.55-13.92-1.75-17.27-3.24-1.77-.79-2.46-.61-6.1,1.6-2.65,1.61-9.05.81-15.93-.22-1.94-.29-3.62-.54-4.38-.55-.97,0-1.98-.06-2.95-.11-1.97-.11-4-.22-5.52.09-.64.13-1.34.18-2.15.24-2.42.17-5.74.41-10.3,3.11-2.5,1.48-6.93,2-11.75,2Z"/>
  <path class="cls-1" d="m236.16,389.54c-.49,0-.91-.35-.99-.85l-2.11-13.79c-.03-.18,0-.36.06-.53,1.14-2.84,4.99-12.19,6.4-13.41.62-.94,1.41-9.04,1.75-16.01-.32-1.54-3.74-17.34-9.62-27.14-.28-.47-.13-1.09.34-1.37.47-.28,1.09-.13,1.37.34,6.33,10.56,9.75,27.19,9.89,27.89.02.08.02.16.02.25-.36,7.36-1.08,16.38-2.46,17.56-.75.7-3.49,6.8-5.75,12.38l2.06,13.52c.08.55-.29,1.06-.84,1.14-.05,0-.1.01-.15.01Z"/>
  <path class="cls-1" d="m367.91,353.92c-.55,0-1-.45-1-1v-10.99l-9.59-13.92c-.08-.11-.13-.24-.16-.37l-2.3-11.68c-.09-.48.17-.95.62-1.13l12.06-4.6c.51-.2,1.09.06,1.29.58.2.52-.06,1.09-.58,1.29l-11.28,4.3,2.1,10.65,9.65,14c.12.17.18.36.18.57v11.3c0,.55-.45,1-1,1Z"/>
  <path class="cls-1" d="m276.38,505.39c-.26,0-.51-.1-.71-.29l-9-9c-.2-.2-.31-.47-.29-.76.02-.41.22-4.05.85-5.51.29-.82.2-6.4-.06-11.45l-16.99-18.31c-.09-.1-.16-.21-.2-.33l-5.45-14.66c-5.77-4.32-14.96-11.12-16.12-11.73-.41-.13-.7-.51-.7-.96,0-.55.45-1,1-1,.4,0,.91,0,17.26,12.26.15.12.27.27.34.45l5.48,14.75,17.1,18.43c.16.17.25.39.27.63.18,3.35.52,11.3-.08,12.7-.33.77-.57,2.93-.66,4.39l8.68,8.68c.39.39.39,1.02,0,1.41-.2.2-.45.29-.71.29Z"/>
  <path class="cls-1" d="m273.89,519.09c-.21,0-.42-.07-.6-.2l-9.96-7.57s-.08-.07-.12-.1c-.39-.4-9.51-9.91-11.09-13.08-1.17-2.34-7.44-9.91-10.59-13.58-.36-.42-.31-1.05.11-1.41.42-.36,1.05-.31,1.41.11.38.44,9.29,10.85,10.86,13.99,1.19,2.38,8.07,9.79,10.69,12.53l9.9,7.52c.44.33.52.96.19,1.4-.2.26-.5.39-.8.39Z"/>
  <path class="cls-1" d="m318.7,520.71c-.05,0-.11,0-.16-.01-.55-.09-.92-.6-.83-1.14.85-5.34,1.61-11.37,1.49-12.68-.04-.06-.08-.12-.11-.18-.21-.44-.61-1.26,4.82-13.44.07-.15.17-.28.29-.38l13.1-10.43-2.28-5.03c-.23-.5,0-1.1.5-1.32.51-.23,1.09,0,1.32.5l2.61,5.74c.19.42.07.91-.29,1.2l-13.52,10.76c-2.14,4.82-4.35,10.2-4.64,11.61.4,1.02.27,4.06-1.31,13.96-.08.49-.5.84-.99.84Zm.84-13.54c.07.05.16.08.26.11-.09-.02-.18-.06-.26-.11Z"/>
  <path class="cls-1" d="m358.23,516.77c-.12,0-.25-.02-.37-.07-.51-.2-.76-.79-.56-1.3l7.47-18.8-1.89-16.79c-.04-.32.08-.63.32-.85l10.73-9.79,2.98-8.19c.19-.52.76-.79,1.28-.6.52.19.79.76.6,1.28l-3.06,8.43c-.05.15-.15.29-.27.4l-10.54,9.61,1.86,16.54c.02.16,0,.33-.06.48l-7.57,19.04c-.16.39-.53.63-.93.63Z"/>
  <path class="cls-1" d="m356.99,440.67c-.09,0-.18-.01-.27-.04-.53-.15-.84-.7-.69-1.23l4.88-17.23c.04-.12.09-.24.17-.34l5.11-6.51-5.29-21.74c-.09-.39.05-.8.38-1.04l10.82-8.04c.44-.33,1.07-.24,1.4.21.33.44.24,1.07-.21,1.4l-10.29,7.65,5.25,21.57c.07.3,0,.61-.18.85l-5.29,6.74-4.83,17.04c-.12.44-.53.73-.96.73Z"/>
  <path class="cls-1" d="m279.44,426.88c-.55,0-1-.45-1-1v-13.18c-2.41-5.21-6.88-14.89-7.17-15.47-.28-.56-.63-1.25,7.31-14.56.28-.47.9-.63,1.37-.35.47.28.63.9.35,1.37-3.22,5.4-6.65,11.51-7.11,12.91,1.02,2.15,6.89,14.88,7.16,15.46.06.13.09.27.09.42v13.4c0,.55-.45,1-1,1Zm-6.29-30.11h0Zm-.09-.44s0,0,0,0c0,0,0,0,0,0Z"/>
  <path class="cls-1" d="m285.38,351.24c-.29,0-.58-.13-.78-.38l-10.9-13.6c-.3-.37-.29-.9.01-1.27l7.6-9.1v-9.98l-15.17-8.82c-.48-.28-.64-.89-.36-1.37.28-.48.89-.64,1.37-.36l15.67,9.1c.31.18.5.51.5.86v10.92c0,.23-.08.46-.23.64l-7.31,8.75,10.39,12.96c.35.43.28,1.06-.16,1.41-.18.15-.41.22-.62.22Z"/>
  <path class="cls-1" d="m308.35,341.86c-.55,0-1-.45-1-1v-10.92c0-.13.03-.26.08-.38l7.28-17.59c.08-.2.22-.36.4-.47l7.08-4.31c.47-.29,1.09-.14,1.38.33.29.47.14,1.09-.33,1.38l-6.81,4.14-7.08,17.11v10.72c0,.55-.45,1-1,1Z"/>
  <path class="cls-1" d="m327.12,389.54c-.39,0-.76-.23-.92-.61l-4.4-10.53-4.04-11.54c-.08-.22-.07-.46,0-.68l4.02-10.92c.19-.52.77-.78,1.28-.59.52.19.78.77.59,1.28l-3.9,10.58,3.9,11.15,4.38,10.48c.21.51-.03,1.1-.54,1.31-.13.05-.26.08-.39.08Z"/>
  <path class="cls-1" d="m390.31,373.07c-.55,0-1-.45-1-1v-15.13c0-.18.05-.36.15-.52l7.58-12.46c.29-.47.9-.62,1.37-.33s.62.9.33,1.37l-7.43,12.22v14.85c0,.55-.45,1-1,1Z"/>
  <path class="cls-1" d="m239.03,429.94c-.15,0-.29-.03-.43-.1l-15.43-7.43-17.34-4.96c-.43-.12-.73-.52-.73-.96v-23.94c0-.55.45-1,1-1s1,.45,1,1v23.18l16.7,4.77c.05.02.11.04.16.06l15.51,7.47c.5.24.71.84.47,1.33-.17.36-.53.57-.9.57Z"/>
  <path class="cls-1" d="m345.89,452.73c-.51,0-.94-.39-.99-.9-.01-.12-1.15-11.62-1.88-14.19-.81-2.84,4.1-12.71,5.63-15.67.25-.49.86-.69,1.35-.43.49.25.68.86.43,1.35-2.95,5.73-5.89,12.78-5.48,14.2.78,2.74,1.9,14.06,1.95,14.54.05.55-.35,1.04-.9,1.09-.03,0-.07,0-.1,0Z"/>
  <path class="cls-1" d="m214.33,326.92c-.37,0-.72-.2-.9-.56l-6.7-13.57c-.25-.5-.04-1.09.45-1.34.49-.25,1.1-.04,1.34.45l6.7,13.57c.25.5.04,1.09-.45,1.34-.14.07-.29.1-.44.1Z"/>
  <path class="cls-1" d="m455.16,344.32c-3.4,0-14.48-3.62-14.61-3.66-.39-.13-1.2-.4-2.34-7.97-1-6.62-.12-7.25.35-7.58,1.45-1.03,8.45-2.4,9.84-2.66.2-.04.41-.01.59.07,4.78,2.11,12.92,5.8,13.72,6.8.59.74.99,2.27-1.2,7.52-1.04,2.5-4.65,6.67-5.49,7.31-.15.12-.45.17-.86.17Zm-13.62-5.44c2.28.71,11.63,3.45,13.44,3.53.88-.83,3.84-4.31,4.68-6.33,1.9-4.56,1.47-5.52,1.47-5.52-.63-.56-6.89-3.52-12.66-6.07-3.63.7-7.66,1.67-8.63,2.19-.51,1.56.98,10.29,1.7,12.21Zm13.6,3.53h0Zm-13.5-3.29h0Z"/>
  <path class="cls-1" d="m448.44,353.93c-.69,0-1.3-.28-1.73-.79-1.18-1.43-.63-4.31-.39-5.31l-.26-.65c-.15-.38-.06-.81.23-1.1.3-.28.73-.36,1.1-.19,3.66,1.65,5.66,2.98,5.94,3.96.11.37.05.74-.15,1.05-.68,1.02-1.86,2.8-4.51,3.03-.08,0-.15,0-.23,0Zm-.22-5.44c-.29,1.3-.34,2.91.04,3.37.03.04.06.08.24.06,1.43-.12,2.18-.94,2.71-1.68-.53-.43-1.71-1.11-2.99-1.76Z"/>
  <path class="cls-1" d="m557.7,376.35c-3.01,0-6.27-.77-7.12-4.02-.48-1.84-.81-2.6-1.01-3.05-.43-.97-.38-1.22-.05-2.83l.21-1.07c.85-4.32,3.33-8.73,3.43-8.92.11-.2.29-.35.5-.44,4.29-1.7,10.59-2.5,16.25,3.33l.14.15c.08.08,7.32,9.49,6.59,11.08-.66,1.44-13.46,5.18-13.57,5.18-.09,0-.31.05-.62.1-1.01.17-2.84.49-4.77.49Zm-2.96-18.6c-.56,1.05-2.38,4.63-3.04,8.01l-.22,1.08q-.25,1.24-.08,1.63c.22.51.6,1.36,1.12,3.36.92,3.56,7.46,2.43,9.61,2.06.54-.09.77-.13.96-.13.91-.13,9.12-2.97,11.45-4.04-1.04-2.01-5.06-7.98-5.89-8.81l-.16-.17c-3.85-3.96-8.47-4.97-13.75-3Zm20.33,11.69h0Z"/>
  <path class="cls-1" d="m631.01,344.93c-.71,0-1.48-.22-2.05-.38-.26-.07-.62-.18-.82-.21-.25.11-.52.13-.79.05-.72-.22-.95-.93-1.37-2.22-.33-1.01-.73-2.26-1.3-3-.45-.59-.52-1.31-.19-1.98.95-1.92,5.43-3.26,5.77-3.26.26,0,.5.1.69.28,4.44,4.25,4.22,5,4.08,5.5-.12.43-.42.96-.95,1.86-.43.73-.92,1.56-1.19,2.22-.36.89-1.1,1.15-1.88,1.15Zm-2.62-.74s0,0,0,0c0,0,0,0,0,0Zm-.25-1.85c.41.02.87.15,1.36.29.41.12,1.23.35,1.58.31.33-.77.83-1.63,1.28-2.39.22-.38.5-.86.66-1.16-.39-.62-1.74-2.08-3.04-3.35-1.19.39-3.32,1.37-3.67,1.97.76,1.02,1.21,2.42,1.57,3.55.08.25.17.54.26.78Zm4.96-2.78h0Z"/>
  <path class="cls-1" d="m645.78,376.73c-2.97,0-6.92-2.28-8.01-3.37-1.57-1.57-1.8-3.32-2.36-7.54v-.12c-.81-6.03,10.14-8.37,10.25-8.39.07-.01.13-.02.2-.02h0c.77,0,7.55.09,9.7,3.1,1.64,2.3.53,3.91-.46,5.34-.5.73-1.02,1.49-1.32,2.43-1.07,3.42-3.8,6.63-5.94,8.03-.58.38-1.29.54-2.08.54Zm.19-17.44c-2.94.63-9,3-8.59,6.15l.02.12c.55,4.2.74,5.35,1.79,6.39,1.32,1.32,6.16,3.49,7.57,2.58,1.8-1.18,4.21-4.01,5.13-6.96.39-1.24,1.02-2.16,1.58-2.97.99-1.43,1.26-1.94.48-3.04-1.16-1.62-5.46-2.25-7.97-2.27Z"/>
  <path class="cls-1" d="m476.2,452.17c-1.79,0-3.92-.4-6.36-1.22-1.38-.46-3-2.23-4.12-4.51-1.41-2.87-1.77-5.92-.98-8.42l-.41-3.61c-.04-.33.1-.67.36-.88l8.09-6.7c.26-.22.62-.28.94-.18l9.76,3.06c.29.09.52.31.63.59.06.15,1.4,3.65,1.79,9.29.39,5.69-2.08,8.14-4.46,10.5l-.42.42c-1.1,1.1-2.72,1.65-4.81,1.65Zm-9.82-17.44l.37,3.29c.02.15,0,.3-.05.44-.7,2.03-.41,4.62.81,7.1.96,1.95,2.24,3.26,2.96,3.5,4.44,1.48,7.68,1.5,9.12.05l.43-.43c2.26-2.24,4.2-4.17,3.87-8.95-.29-4.22-1.15-7.19-1.5-8.26l-8.77-2.75-7.26,6.01Z"/>
  <path class="cls-1" d="m496.25,455.97c-.67,0-1.4-.13-2.17-.26-.63-.11-1.28-.22-2-.29-1.61-.16-2.72-.74-3.32-1.71-.68-1.13-.38-2.35-.24-2.76.11-.74.77-5.19.95-6.1.04-.21.22-.73.9-.94,1.64-.5,8.97,1.53,9.97,2.53.67.67.75,1.08.41,1.94-.17.43-.54,1.34-.9,3.53-.3,1.82-.83,2.9-1.7,3.52-.58.41-1.22.55-1.92.55Zm-5.82-4.42s-.23.66.05,1.12c.31.5,1.15.69,1.8.75.79.08,1.51.21,2.14.32,1.19.21,2.14.38,2.59.05.38-.27.68-1.02.88-2.22.36-2.18.74-3.23.95-3.78-1-.57-5.88-1.92-7.51-1.99-.27,1.63-.84,5.49-.85,5.53-.01.07-.03.15-.06.22Zm-.93-.36h0,0Z"/>
  <path class="cls-1" d="m600.32,494.74c-2.5,0-4.73-.91-6.29-1.55-.47-.19-.89-.37-1.25-.49-2.26-.75-3.19-3.94-4.26-7.62-.3-1.03-.61-2.1-.96-3.16-1.46-4.37,2.35-8.68,4.18-10.75.33-.37.59-.66.74-.87,1.07-1.5,6.15-2.65,8.28-3.08.3-.06.61.02.84.22.26.22,6.36,5.4,7.53,6.57,1.14,1.14,5.46,7.51,5.46,10.28,0,3.93-8.72,8.77-9.71,9.3-1.56.84-3.1,1.15-4.55,1.15Zm.35-25.46c-3.19.67-6.14,1.65-6.57,2.19-.19.26-.49.6-.86,1.03-1.7,1.93-4.88,5.52-3.79,8.79.36,1.08.68,2.18.99,3.23.84,2.88,1.71,5.87,2.98,6.29.4.13.86.32,1.38.53,2.41.99,5.72,2.34,9.12.49,5.35-2.9,8.67-6.18,8.67-7.55,0-1.82-3.72-7.71-4.88-8.87-.95-.95-5.67-4.98-7.04-6.14Z"/>
  <path class="cls-1" d="m590.6,465.81c-2.37,0-5.85-1.25-5.9-1.27-2-.75-2.89-2.99-2.51-4.12,0-.11-.07-.96-.12-1.58-.22-2.69-.26-3.94.35-4.57.6-.62,7.89-4.08,9.65-3.49.3.1.53.33.63.63l3.25,9.57c.13.39.01.81-.29,1.08-1.28,1.11-2.8,2.56-3.02,2.95-.29.59-1.08.79-2.05.79Zm.26-1.7s0,0,0,0c0,0,0,0,0,0Zm-6.91-8.51c-.09.58.04,2.24.11,3.07.12,1.48.15,1.99.02,2.37,0,.21.36,1.26,1.32,1.62,1.52.57,4.72,1.24,5.64,1.15.56-.78,1.89-2.02,2.8-2.82l-2.8-8.25c-1.65.33-6.07,2.19-7.09,2.86Zm.03-.12h0Zm7.54-2.78h0Z"/>
  <path class="cls-1" d="m619.52,471.88c-.28,0-.87,0-5.32-2.84-.19-.12-.34-.31-.41-.53,0,0-.95-2.84-1.14-3.35-.36-.95-.54-1.43,8.04-4.79.28-.11.59-.09.85.06.26.14.44.4.5.69.58,3.04,1.55,8.22,1.55,8.8,0,1.84-4.02,1.96-4.06,1.96Zm-3.95-4.33c1.63,1.03,3.51,2.13,4.05,2.33.45-.02,1.4-.2,1.91-.37-.17-1.09-.69-3.97-1.23-6.82-2.26.91-4.58,1.92-5.54,2.45.26.75.63,1.86.81,2.41Z"/>
  <path class="cls-1" d="m169.31,333.48c-4.01,0-12.82-3.04-14.55-3.82-3.19-1.43-5.56-7.43-6.13-10.33-.67-3.45,4.03-7.33,4.57-7.76.22-.18.51-.25.79-.21l17.23,2.85c.17.03.33.1.47.21,1.71,1.4,4.58,3.98,4.58,5.56,0,1.79-4.63,12.36-4.68,12.47-.12.26-.37.62-.93.83-.34.13-.8.19-1.35.19Zm-15.2-20.06c-1.65,1.41-3.83,3.93-3.52,5.53.58,2.97,2.8,7.91,4.98,8.88,3.11,1.39,12.52,4.12,14.27,3.63,1.39-3.15,4.37-10.43,4.43-11.48-.11-.51-1.79-2.29-3.64-3.84l-16.52-2.73Z"/>
  <path class="cls-1" d="m155.93,346.07c-.21,0-.42-.07-.6-.2-.25-.19-.4-.49-.4-.8v-8.43c0-.29.13-.57.35-.76.23-.19.52-.27.81-.22l9,1.53c.3.05.56.23.7.5.15.26.17.58.06.86l-1.92,4.79c-.11.28-.35.5-.64.59l-7.08,2.11c-.09.03-.19.04-.29.04Zm1-8.24v5.9l5.34-1.59,1.28-3.19-6.61-1.13Z"/>
  <path class="cls-1" d="m142.14,329.74c-.16,0-.31-.04-.46-.11l-3.64-1.86c-.33-.17-.54-.52-.54-.89v-5.36c0-.33.16-.64.43-.82.27-.19.62-.23.92-.11,7.73,2.93,7.73,4.49,7.73,5,0,1.8-2.79,3.43-3.99,4.05-.14.07-.3.11-.46.11Zm-2.64-3.47l2.62,1.34c1.15-.66,2.2-1.49,2.42-1.93-.51-.57-2.6-1.67-5.04-2.69v3.28Z"/>
  <path class="cls-3" d="m28.4,327.07s-6.51,7.85-4.02,9.96,9.57,6.37,9.57,6.37c0,0,8.62-6.13,9-8.16s.96-9.31.96-9.31l-15.51,1.15Z"/>
  <path class="cls-3" d="m48.5,334.66s.77,3.13,1.34,3.33,9.57,1.53,9.57,1.53v-5.74h-10.91v.89Z"/>
  <path class="cls-1" d="m77.44,424.91c-1.07,0-3.91-.76-12.92-4.19-.15-.06-.28-.15-.38-.26l-7.66-8.42c-.32-.35-.35-.88-.06-1.27l7.66-10.34c.25-.34.7-.49,1.11-.36l19.34,6.13c.31.1.55.34.65.64l2.87,8.81c.13.39,0,.82-.31,1.08,0,0-9,7.47-9.57,7.95-.14.12-.29.24-.72.24Zm-.56-1.78h0s0,0,0,0Zm-11.42-4.2c4.88,1.85,10.31,3.75,11.68,3.98,1.36-1.13,7.03-5.83,8.79-7.29l-2.5-7.67-18.17-5.76-6.75,9.11,6.95,7.64Z"/>
  <path class="cls-1" d="m130.65,402.31c-.23,0-.45-.08-.63-.22l-3.06-2.49c-.33-.27-.45-.72-.31-1.12l3.06-8.43c.17-.48.67-.74,1.16-.63l7.47,1.72c.31.07.57.29.7.59,2.57,6.12,2.57,6.69,2.57,6.9,0,.89,0,1.38-10.75,3.66-.07.01-.14.02-.21.02Zm-1.88-3.82l2.14,1.74c3.44-.74,7.13-1.63,8.53-2.11-.35-.98-1.21-3.12-2.05-5.15l-6.11-1.41-2.52,6.92Z"/>
  <path class="cls-1" d="m63.25,494.44c-1.5,0-3.6-.19-6.58-.71-.09-.02-.18-.04-.26-.08l-11.11-5.36c-.4-.19-.63-.63-.55-1.07l4.79-27.57c.05-.3.24-.56.5-.71.27-.15.58-.16.87-.05,4.11,1.7,13.78,5.82,14.79,7.24.42.59,1.39,1.95-7.21,10.3l9.97,5.88c.36.21.55.63.47,1.05-.06.33-1.54,8.09-1.93,9.63-.12.46-.36,1.46-3.75,1.46Zm-6.1-2.66c3.56.61,7.06.82,7.97.5.36-1.57,1.36-6.73,1.72-8.6l-10.5-6.2c-.27-.16-.45-.44-.49-.75-.04-.31.08-.62.3-.84,3.45-3.29,7.22-7.43,7.75-8.76-1.22-.91-7.01-3.57-12.6-5.92l-4.44,25.6,10.3,4.97Z"/>
  <polygon class="cls-3" points="37.5 471.11 33.86 479.15 39.32 480.68 39.32 471.11 37.5 471.11"/>
  <path class="cls-1" d="m82.69,481.68s-.1,0-.15-.01c-.16-.02-3.93-.59-6.46-1.37-3.21-.99-1.93-7.38-1.64-8.65.1-.46.51-.78.97-.78h7.28c.55,0,1,.45,1,1v8.81c0,.29-.13.57-.35.76-.18.16-.41.24-.65.24Zm-6.46-8.81c-.46,2.54-.39,5.26.43,5.51,1.57.48,3.72.89,5.03,1.12v-6.63h-5.46Z"/>
  <path class="cls-1" d="m183.69,517.41c-.34,0-.67-.18-.85-.48l-5.75-9.38c-.27-.44-.16-1.01.25-1.32l8.43-6.32c.18-.14.41-.21.63-.2,18.56.59,19.32,1.92,19.6,2.42.67,1.18-.53,5.34-3.59,12.38-.14.32-.44.55-.79.59l-17.81,2.3s-.09,0-.13,0Zm-4.42-10.13l4.93,8.06,16.6-2.14c1.71-4.01,3.38-8.63,3.43-9.97-1.72-.64-9.99-1.25-17.54-1.5l-7.42,5.56Z"/>
  <path class="cls-1" d="m200.92,494.43h-4.98c-.42,0-.79-.26-.93-.64-.16-.43-1.6-4.24-1.6-5.91,0-.43.27-.81.68-.95l7.85-2.68c.33-.11.7-.04.97.18.27.23.4.58.34.92l-1.34,8.23c-.08.48-.5.84-.99.84Zm-4.28-2h3.43l.94-5.75-5.51,1.88c.2,1.04.71,2.65,1.15,3.87Z"/>
  <path class="cls-1" d="m217.21,519.09h-6.13c-.45,0-.84-.3-.96-.73l-1.72-6.23c-.09-.32-.01-.67.21-.92.22-.25.55-.38.88-.34l9.58,1.15c.3.04.57.21.73.46.16.25.2.57.1.85l-1.72,5.08c-.14.41-.52.68-.95.68Zm-5.37-2h4.65l1.1-3.23-6.87-.82,1.12,4.06Z"/>
  <path class="cls-1" d="m321.69,520.71s-.02,0-.03,0l-56.42-1.92c-.21,0-.4-.08-.57-.2-.19-.14-18.89-14.26-30.25-22.59-7.18-5.27-8.75-7-10.02-8.39-.75-.82-1.33-1.47-3.01-2.73-4.39-3.29-6.98-15.53-7.83-19.55-.09-.44-.16-.76-.2-.92-.41-.9-5.51-5.2-9.98-8.64-.15-.11-.26-.27-.33-.44-.19-.51-4.66-12.48-4.66-17.59,0-.74-.03-1.94-.08-3.46-.4-14.21-.34-29.35,3.16-33.91,3.45-4.5,9.59-33.69,11.79-45.18-2.14-2.55-9.45-11.34-10.2-13.2-.57-1.42-.46-5.97-.22-12.75.08-2.18.15-4.24.15-5.62,0-2.13-2.17-5.23-4.92-9.17-1.82-2.6-3.87-5.54-5.95-9.05-1.68-2.85-4.77-4.62-8.07-4.62-.18,0-.36-.05-.51-.14l-5.79-3.48-8.47,3.54c-.34.14-.73.09-1.02-.15l-3.65-2.98-7.13.47-7.58,2.67c-.21.07-.44.07-.65,0l-6.35-2.13c-4.62.81-11.44,2.03-11.93,2.15-.67.18-7.03-.26-8.32-1.06-.71-.31-5.47-1.17-9.81-1.85l-8.29,3.47c-.17.07-.36.1-.55.06l-9.32-1.53c-.24-.04-.46-.17-.61-.35l-1.81-2.21-4.79,2.23c-.16.08-.33.11-.51.09l-7.15-.64c-.09,0-.18-.03-.26-.06l-3.28-1.21c-2.56,1.37-5.4,3.02-5.8,3.45-.33.48-.89,1.28-8.09-1h-4.43l-9.19,2.5c-.23.06-.48.04-.7-.07l-8.1-3.93-8.84,2.12c-.08.02-.15.03-.23.03-.1,0-2.58-.03-5.01-2.21-.27-.24-.49-.44-.66-.6l-6.31,2.72c-.22.09-.46.11-.69.04-1.76-.54-3.94-1.12-4.4-1.12h0c-.72.01-1.94,0-2.4,0l-3.02,1.11c-.22.08-.46.08-.68,0l-6.64-2.34c-.52-.18-.79-.75-.61-1.28.18-.52.75-.8,1.28-.61l6.3,2.22,2.85-1.04c.11-.04.25-.06.36-.06,0,0,1.64.02,2.52,0h.03c.91,0,3.47.74,4.66,1.1l5.76-2.49c.04-.11.11-.21.21-.32.45-.5.73-.55,1.42-.02l.02-.02.21.19s.04.04.06.06c.29.24.64.56,1.09.96,1.6,1.44,3.16,1.66,3.58,1.69l9.05-2.17c.22-.06.46-.03.67.07l8.09,3.92,8.96-2.44c.09-.02.17-.04.26-.04h4.72c.1,0,.21.02.3.05,2.43.78,5.42,1.49,6.28,1.5.99-.89,4.06-2.61,6.61-3.96.25-.14.55-.16.82-.05l3.58,1.32,6.75.6,5.25-2.44c.42-.19.91-.08,1.2.27l2.06,2.52,8.66,1.42,8.29-3.46c.17-.07.36-.09.54-.07,9.34,1.46,10.56,1.98,10.88,2.2.88.38,6.01.88,6.77.78.59-.16,10.33-1.87,12.28-2.21.16-.03.33-.01.49.04l6.26,2.1,7.38-2.6c.09-.03.18-.05.27-.05l7.66-.51c.24-.02.5.06.7.22l3.49,2.85,8.38-3.51c.29-.12.63-.1.9.07l6,3.6c3.89.1,7.52,2.22,9.51,5.6,2.03,3.44,4.07,6.35,5.86,8.92,3.07,4.39,5.29,7.56,5.29,10.31,0,1.42-.07,3.5-.15,5.69-.15,4.3-.38,10.8.08,11.93.51,1.29,6.52,8.67,10.18,13.02.19.23.27.54.22.83-.31,1.66-7.75,40.63-12.25,46.49-3.53,4.61-2.98,24.25-2.75,32.64.04,1.55.08,2.77.08,3.52,0,4.35,3.77,14.82,4.43,16.62,3.85,2.97,10.07,7.97,10.47,9.57.04.17.12.52.22.99,2.18,10.3,4.56,16.48,7.07,18.37,1.83,1.37,2.51,2.12,3.29,2.98,1.2,1.32,2.7,2.97,9.72,8.12,10.64,7.81,27.73,20.69,30.01,22.41l56.04,1.9c1.77-.15,40.95-3.52,49.76-6.46,6.39-2.13,7.59-13.61,8.24-19.77.26-2.49.41-3.83.73-4.57.28-.65.99-2.15,1.98-4.22,3.11-6.51,8.89-18.62,10.62-24.4.3-1,.62-2.02.94-3.06,2.17-6.92,4.41-14.07,2.51-20.1-.54-1.7-1.48-3.9-2.58-6.44-3.52-8.18-8.34-19.38-4.63-26.49,1.47-2.81,3.3-5.36,5.07-7.83,3.76-5.23,7.31-10.16,6.32-16.39-.56-3.5-1.22-7.12-1.86-10.63-1.16-6.32-2.25-12.29-2.74-17.44-.8-8.4,8.57-22.45,11.65-27.07.94-1.4-.07-5.61-.96-9.32-1.3-5.39-2.63-10.97-.34-13.89.96-1.22,2.45-1.84,4.43-1.84.55,0,1,.45,1,1s-.45,1-1,1c-1.35,0-2.29.35-2.86,1.08-1.7,2.16-.42,7.48.71,12.18,1.13,4.7,2.11,8.77.69,10.89-2.98,4.48-12.06,18.09-11.33,25.78.48,5.07,1.57,11,2.72,17.27.64,3.52,1.31,7.16,1.87,10.68,1.12,7.04-2.66,12.3-6.67,17.87-1.73,2.41-3.52,4.9-4.92,7.58-3.27,6.27,1.33,16.97,4.69,24.78,1.12,2.59,2.08,4.84,2.65,6.63,2.09,6.63-.35,14.42-2.5,21.3-.32,1.03-.64,2.04-.94,3.03-1.78,5.92-7.6,18.13-10.73,24.69-.94,1.97-1.68,3.53-1.95,4.14-.21.5-.39,2.19-.58,3.99-.74,7.08-1.98,18.92-9.6,21.46-9.2,3.07-48.61,6.42-50.28,6.56-.03,0-.06,0-.08,0Zm-252.8-220.78h0,0Zm.01-.02s0,.01-.01.02c0,0,0-.01.01-.02Zm53.77-.21s0,0,0,0c0,0,0,0,0,0Zm-.11-.07s.03.02.04.03c-.02-.01-.03-.02-.04-.03Z"/>
  <polyline class="cls-3" points="41.53 256.04 13.41 256.04 13.41 298.49 23.41 298.49 33.41 288.49 41.53 288.49"/>
  <path class="cls-1" d="m69.64,299.49h-10c-.27,0-.52-.11-.71-.29l-9.71-9.71h-7.7c-.55,0-1-.45-1-1s.45-1,1-1h8.11c.27,0,.52.11.71.29l9.71,9.71h8.59v-40.45h-27.11c-.55,0-1-.45-1-1s.45-1,1-1h28.11c.55,0,1,.45,1,1v42.45c0,.55-.45,1-1,1Z"/>
  <rect class="cls-3" x="2.96" y="230.18" width="56.23" height="7.37" transform="translate(-153.73 87.22) rotate(-44)"/>
  <rect class="cls-3" x="20.15" y="261.9" width="42.76" height="20.73"/>
  <polygon class="cls-3" points="29.48 206.13 3.42 231.3 8.3 250.74 48.74 211.68 29.48 206.13"/>
  <polygon class="cls-3" points="30.76 212.26 9.51 232.79 11.62 240.17 38.06 214.63 30.76 212.26"/>
  <path class="cls-1" d="m74.16,268.02h-4.51c-.55,0-1-.45-1-1v-13.17c0-.55.45-1,1-1h4.51c.55,0,1,.45,1,1v13.17c0,.55-.45,1-1,1Zm-3.51-2h2.51v-11.17h-2.51v11.17Z"/>
  <g>
    <path class="cls-1" d="m318.69,520.71c-.09,0-.19-.01-.29-.04-.53-.16-.83-.71-.67-1.24.74-2.48,1.46-5.51,1.47-6.42-.06-.08-.12-.17-.15-.27-.21-.57-.47-1.27,8.49-13.82.21-.29.55-.44.91-.41l11.27,1.11,6.09-14.67c.21-.51.79-.75,1.31-.54.51.21.75.8.54,1.31l-6.38,15.36c-.17.41-.58.65-1.02.61l-11.43-1.13c-3.45,4.85-7.04,10.16-7.75,11.65.18.51.29,1.98-1.44,7.79-.13.43-.53.71-.96.71Zm1.09-7.31h0,0Zm-.1-.03s.07.02.1.03c-.04,0-.07-.02-.1-.03Z"/>
    <g>
      <path class="accent" d="m322.54,508.92c.34.49.54.98.58,1.47.04.49-.03.98-.23,1.45s-.5.93-.89,1.37c-.4.44-.86.84-1.39,1.21l-5.31,3.74-7.6-10.81,6.27-4.41c.38-.26.77-.42,1.19-.47.42-.05.82-.02,1.22.09s.77.29,1.12.53c.35.25.64.55.89.89.36.51.57,1.08.63,1.73.07.64-.08,1.26-.43,1.86.75-.25,1.46-.28,2.14-.08.68.2,1.29.68,1.82,1.44Zm-10.1-1.13l1.17,1.66,2.02-1.42c.2-.14.35-.33.44-.56.09-.23.01-.51-.22-.85-.21-.29-.43-.45-.66-.48-.23-.03-.44.03-.64.16l-2.12,1.49Zm6.66,2.64c-.19-.26-.41-.43-.68-.51-.27-.08-.51-.04-.73.12l-2.45,1.72,1.27,1.81,2.34-1.65c.24-.17.4-.39.46-.66s-.01-.55-.21-.83Z"/>
      <path class="accent" d="m329.9,508c-.69.49-1.41.8-2.16.96-.75.15-1.47.17-2.16.04-.7-.13-1.34-.38-1.94-.75-.6-.38-1.09-.84-1.49-1.4s-.67-1.2-.81-1.89c-.14-.69-.14-1.38,0-2.08.13-.69.4-1.36.81-2,.41-.64.95-1.2,1.63-1.68s1.42-.81,2.17-.96,1.47-.16,2.16-.03c.69.13,1.34.38,1.93.76s1.08.84,1.47,1.39.67,1.19.81,1.88.14,1.37,0,2.06c-.13.69-.4,1.36-.8,2.01-.4.65-.94,1.21-1.62,1.69Zm-5.09-2.97c.19.26.41.49.67.68.26.19.55.32.85.4s.63.09.96.03c.33-.06.68-.21,1.02-.46s.6-.51.77-.81c.17-.3.26-.61.28-.93.02-.32-.02-.63-.11-.93-.09-.31-.23-.59-.42-.86s-.41-.49-.67-.68c-.26-.19-.54-.32-.84-.39-.3-.07-.62-.07-.95-.01s-.67.21-1.01.45-.6.51-.77.81c-.17.3-.27.6-.3.92-.03.31,0,.62.1.93.1.31.24.59.41.85Z"/>
      <path class="accent" d="m335.69,503.82l-6.08-8.65,2.59-1.82,4.5,6.39,3.78-2.65,1.58,2.25-6.36,4.47Z"/>
      <path class="accent" d="m348.42,493.93c-.15.47-.36.88-.62,1.22-.26.34-.59.66-1,.94-.59.41-1.23.69-1.93.83-.7.14-1.39.14-2.08.02-.69-.12-1.34-.37-1.95-.75-.61-.37-1.13-.86-1.56-1.47s-.71-1.26-.84-1.96-.13-1.38.02-2.06c.14-.68.42-1.32.83-1.94.41-.61.94-1.15,1.59-1.61.82-.58,1.67-.93,2.55-1.05.88-.12,1.68,0,2.41.37l-.9,2.84c-.38-.2-.81-.28-1.29-.24-.47.04-.89.18-1.26.44-.56.39-.88.9-.97,1.53s.09,1.27.54,1.9.99,1.01,1.61,1.13c.63.12,1.23-.04,1.82-.45.53-.37.9-.92,1.13-1.63l-1.43,1.01-1.31-1.86,3.93-2.76,3.28,4.66-2.15,1.51-.44-.62Z"/>
      <path class="accent" d="m357.68,484.99l1.58,2.25-6.91,4.86-6.08-8.65,6.79-4.77,1.58,2.25-4.2,2.95.66.94,3.59-2.53,1.48,2.1-3.59,2.53.77,1.1,4.32-3.04Z"/>
      <path class="accent" d="m360.45,480.65l2.71,3.85-2.59,1.82-6.08-8.65,2.02-1.42,6.82,1.16-2.8-3.99,2.59-1.82,6.08,8.65-2.06,1.45-6.7-1.05Z"/>
      <path class="accent" d="m375.91,475.68c-.82.58-1.68.95-2.57,1.1-.89.16-1.76.15-2.59-.03-.84-.18-1.62-.5-2.35-.98-.73-.47-1.34-1.06-1.83-1.76s-.84-1.49-1.03-2.34c-.19-.85-.22-1.7-.08-2.55.14-.85.44-1.66.9-2.43.47-.77,1.1-1.44,1.9-2.01s1.68-.95,2.57-1.1c.89-.16,1.76-.14,2.6.04s1.62.51,2.35.99c.72.48,1.33,1.06,1.81,1.75s.84,1.49,1.03,2.34c.19.85.21,1.69.08,2.54-.13.85-.43,1.66-.89,2.44-.46.78-1.09,1.45-1.89,2.01Zm-6.31-3.76c.26.37.56.68.9.95.34.27.71.46,1.09.58.39.12.79.16,1.22.1s.85-.23,1.27-.53.74-.64.93-1.03c.2-.39.3-.79.31-1.2s-.06-.82-.21-1.23c-.15-.41-.34-.8-.59-1.15s-.56-.68-.9-.95c-.34-.27-.71-.46-1.1-.57s-.8-.14-1.21-.08c-.42.06-.84.24-1.26.53s-.74.64-.93,1.02-.3.78-.31,1.19c-.01.41.05.82.19,1.23.14.41.34.79.59,1.14Z"/>
      <path class="accent" d="m384.22,461.26s-.18.01-.39.04c-.22.03-.47.07-.77.14-.29.07-.6.17-.93.29-.33.13-.63.28-.9.48-.22.16-.39.3-.5.43-.11.13-.13.24-.05.35.13.18.37.21.73.07.36-.13.87-.31,1.52-.52.51-.18,1-.32,1.45-.41.45-.1.88-.13,1.27-.09.39.04.75.15,1.08.34.33.19.64.49.93.9.38.54.59,1.06.64,1.57s-.02.99-.21,1.44c-.18.45-.45.88-.81,1.27s-.76.74-1.2,1.05c-.33.24-.7.46-1.1.66s-.81.39-1.22.55c-.41.16-.83.3-1.25.41-.42.11-.82.2-1.19.25l-.47-3.06c.08.02.24.02.49,0s.55-.09.9-.18.72-.22,1.11-.38c.39-.16.77-.37,1.12-.62.26-.19.43-.34.51-.46s.09-.21.05-.27c-.07-.1-.19-.14-.35-.13-.16.01-.35.05-.58.13-.23.07-.49.17-.78.28-.29.12-.6.23-.94.33-1.01.31-1.83.41-2.48.3s-1.2-.5-1.66-1.16c-.33-.47-.52-.95-.59-1.45-.06-.5-.02-.99.13-1.45.15-.47.39-.91.72-1.34.33-.42.73-.8,1.18-1.12.33-.24.69-.44,1.06-.61s.74-.32,1.1-.44c.36-.12.71-.21,1.05-.28s.64-.13.92-.19l.4,2.93Z"/>
    </g>
    <g>
      <path class="cls-1" d="m316.37,517.2c-.16,0-.31-.07-.41-.21l-7.6-10.81c-.16-.23-.1-.54.12-.7l6.27-4.41c.44-.31.92-.5,1.42-.56.49-.06.96-.03,1.41.1.45.12.88.33,1.27.61.4.28.74.62,1.01,1.01.4.57.65,1.24.72,1.96.04.42,0,.82-.1,1.22.5-.05.98,0,1.44.13.79.23,1.49.78,2.09,1.63.39.56.62,1.13.67,1.71.05.57-.04,1.14-.27,1.68-.22.52-.55,1.03-.99,1.51-.42.46-.91.9-1.47,1.29l-5.31,3.74c-.09.06-.19.09-.29.09Zm-6.9-11.19l7.02,9.99,4.91-3.45c.5-.35.93-.73,1.3-1.14.36-.39.63-.81.8-1.23.17-.39.23-.8.2-1.21-.04-.4-.2-.82-.49-1.23t0,0c-.47-.66-.99-1.08-1.55-1.25-.58-.17-1.18-.14-1.84.07-.2.07-.42,0-.55-.16-.13-.16-.15-.39-.04-.57.3-.51.42-1.02.37-1.55-.06-.56-.24-1.05-.55-1.49-.21-.29-.47-.55-.77-.77-.3-.21-.62-.37-.96-.46-.33-.09-.67-.11-1.03-.07-.33.04-.66.17-.96.39l-5.86,4.12Zm8.12,6.6s-.06,0-.09,0c-.13-.02-.25-.1-.32-.21l-1.27-1.81c-.16-.23-.1-.54.12-.7l2.45-1.72c.35-.25.75-.31,1.16-.19.38.11.69.34.95.7h0c.28.41.38.82.29,1.23-.09.39-.31.72-.66.96l-2.35,1.65c-.08.06-.18.09-.29.09Zm-.58-2.19l.7.99,1.94-1.36c.14-.1.22-.21.25-.36.01-.05.04-.19-.13-.44-.12-.17-.25-.27-.41-.32-.12-.04-.21-.02-.31.05l-2.04,1.44Zm-2.32-1.94s-.06,0-.09,0c-.13-.02-.25-.1-.32-.21l-1.17-1.66c-.16-.23-.1-.54.12-.7l2.12-1.49c.3-.21.63-.29.98-.25.38.04.72.28,1.01.69.34.48.43.92.28,1.32-.13.32-.33.59-.62.79l-2.03,1.42c-.08.06-.18.09-.29.09Zm-.47-2.04l.59.84,1.62-1.14c.12-.09.21-.19.26-.33,0-.02,0-.14-.16-.38-.17-.24-.28-.27-.31-.27-.1-.01-.2.01-.29.08l-1.71,1.2Z"/>
      <path class="cls-1" d="m327.6,508.13c-.35,0-.7-.03-1.04-.09-.76-.14-1.47-.41-2.12-.82-.65-.41-1.2-.92-1.63-1.54-.44-.62-.74-1.32-.89-2.08-.15-.75-.15-1.52,0-2.27.14-.75.44-1.48.88-2.17s1.03-1.31,1.76-1.82c.76-.53,1.55-.88,2.36-1.04.8-.16,1.59-.17,2.35-.03.76.14,1.47.42,2.11.83.65.42,1.19.93,1.61,1.52.44.62.74,1.32.89,2.07.15.74.16,1.5,0,2.26-.14.75-.44,1.48-.87,2.18-.44.71-1.03,1.32-1.76,1.83h0c-.74.52-1.53.87-2.34,1.04-.45.09-.88.14-1.32.14Zm.61-10.96c-.36,0-.72.04-1.09.11-.67.13-1.34.43-1.98.88-.62.44-1.13.96-1.49,1.54-.37.59-.62,1.2-.74,1.83-.12.63-.12,1.26,0,1.88.12.62.37,1.19.72,1.7.35.5.8.93,1.34,1.26.54.34,1.13.57,1.76.68.63.11,1.29.1,1.97-.04.68-.14,1.34-.44,1.97-.88h0c.62-.43,1.12-.95,1.49-1.54.37-.59.62-1.21.74-1.84.12-.62.12-1.25,0-1.87-.12-.62-.37-1.18-.73-1.69-.34-.49-.79-.91-1.33-1.26-.54-.34-1.12-.57-1.75-.69-.29-.05-.59-.08-.89-.08Zm-.27,8.05c-.23,0-.45-.03-.66-.08-.37-.1-.71-.26-1.02-.48-.3-.22-.57-.48-.79-.79-.21-.29-.37-.62-.48-.98-.12-.38-.16-.77-.12-1.14.04-.38.16-.75.36-1.11.2-.36.51-.69.92-.98.39-.28.8-.45,1.2-.53.4-.07.79-.07,1.16.02.37.09.71.24,1.02.47.3.22.57.48.79.79.22.31.38.64.49,1,.11.35.16.73.13,1.11-.03.39-.14.78-.34,1.14-.21.36-.51.69-.92.98-.4.28-.81.46-1.22.54-.17.03-.35.05-.52.05Zm-.03-5.15c-.12,0-.24.01-.37.04-.27.05-.54.17-.81.36-.28.2-.49.42-.62.65-.13.24-.21.48-.24.72-.03.24,0,.48.08.73.08.26.2.5.35.71h0c.15.22.34.41.55.56.21.15.44.26.69.33.24.06.48.07.75.02.26-.05.54-.17.82-.37.28-.2.49-.42.62-.65.13-.24.2-.47.22-.72.01-.25-.02-.51-.09-.75-.08-.26-.2-.5-.35-.72-.15-.22-.34-.41-.55-.56-.21-.15-.42-.25-.67-.31-.12-.03-.25-.04-.38-.04Z"/>
      <path class="cls-1" d="m336.77,502.85s-.06,0-.09,0c-.13-.02-.25-.1-.32-.21l-6.08-8.65c-.16-.23-.1-.54.12-.7l2.59-1.82c.11-.08.24-.1.37-.08.13.02.25.1.32.2l4.21,5.99,3.37-2.37c.11-.08.24-.1.37-.08.13.02.25.1.32.21l1.58,2.25c.16.23.1.54-.12.7l-6.36,4.47c-.08.06-.19.09-.29.09Zm-5.38-9.03l5.5,7.83,5.55-3.9-1.01-1.44-3.37,2.37c-.22.16-.54.1-.7-.12l-4.21-5.99-1.77,1.25Z"/>
      <path class="cls-1" d="m344.85,496.06c-.36,0-.72-.03-1.08-.1-.74-.13-1.46-.41-2.12-.81-.67-.41-1.24-.95-1.71-1.61-.46-.66-.78-1.38-.92-2.15-.14-.76-.14-1.52.02-2.26.16-.74.46-1.45.9-2.11.44-.66,1.02-1.25,1.72-1.74.89-.62,1.82-1,2.77-1.13.98-.13,1.89.01,2.71.42.22.11.33.36.25.6l-.87,2.74,1.99-1.4c.11-.08.24-.1.37-.08.13.02.25.1.32.21l3.28,4.66c.16.23.1.54-.12.7l-2.15,1.51c-.11.08-.24.11-.37.08-.09-.02-.17-.05-.24-.11-.1.19-.21.36-.34.52-.29.38-.66.73-1.11,1.05-.64.45-1.36.76-2.12.91-.4.08-.79.12-1.19.12Zm.29-10.96c-.18,0-.37.01-.57.04-.79.11-1.58.43-2.33.96-.6.42-1.09.92-1.46,1.47-.37.56-.63,1.15-.76,1.76-.13.61-.14,1.24-.02,1.86s.38,1.22.76,1.76c.39.55.86,1,1.41,1.34.56.34,1.15.57,1.77.68.62.11,1.26.11,1.9-.02.63-.12,1.21-.37,1.74-.74.36-.25.66-.54.89-.83.23-.3.41-.66.54-1.07.06-.18.21-.31.4-.34.18-.03.37.05.48.21l.15.21,1.33-.93-2.7-3.84-3.11,2.19.73,1.04,1.02-.72c.18-.12.41-.12.58,0,.17.13.25.35.18.55-.25.82-.7,1.46-1.32,1.89-.7.49-1.44.67-2.2.53-.76-.14-1.41-.59-1.93-1.33-.52-.74-.74-1.5-.63-2.26.11-.77.5-1.4,1.18-1.88.44-.31.95-.49,1.51-.53.36-.03.69,0,1.01.08l.6-1.9c-.37-.13-.75-.2-1.17-.2Zm-.18,3c-.06,0-.12,0-.19,0-.39.03-.72.15-1.01.35-.44.31-.69.7-.76,1.2-.07.5.08,1.01.46,1.55.37.53.8.83,1.29.92.38.07.76.01,1.13-.18-.04-.03-.08-.07-.12-.12l-1.31-1.86c-.08-.11-.11-.24-.08-.37.02-.13.1-.25.21-.32l1.33-.93s-.08-.02-.12-.05c-.25-.13-.52-.2-.83-.2Z"/>
      <path class="cls-1" d="m353.43,491.14s-.06,0-.09,0c-.13-.02-.25-.1-.32-.21l-6.08-8.65c-.16-.23-.1-.54.12-.7l6.79-4.77c.11-.08.25-.1.37-.08.13.02.25.1.32.21l1.58,2.25c.08.11.11.24.08.37-.02.13-.1.25-.21.32l-3.79,2.67.09.13,3.18-2.24c.11-.08.25-.11.37-.08.13.02.25.1.32.21l1.48,2.1c.16.23.1.54-.12.7l-3.18,2.24.2.28,3.92-2.75c.11-.08.24-.1.37-.08.13.02.25.1.32.21l1.58,2.25c.16.23.1.54-.12.7l-6.91,4.86c-.08.06-.18.09-.29.09Zm-5.38-9.03l5.5,7.83,6.09-4.29-1.01-1.44-3.92,2.75c-.11.08-.24.11-.37.08-.13-.02-.25-.1-.32-.21l-.77-1.1c-.16-.23-.1-.54.12-.7l3.18-2.24-.9-1.28-3.18,2.24c-.23.16-.54.1-.7-.12l-.66-.94c-.08-.11-.11-.24-.08-.37.02-.13.1-.25.21-.32l3.79-2.67-1.01-1.44-5.97,4.2Z"/>
      <path class="cls-1" d="m361.65,485.36c-.16,0-.31-.07-.41-.21l-6.08-8.65c-.16-.23-.1-.54.12-.7l2.02-1.42c.11-.08.24-.11.37-.08l5.64.96-2.11-3.01c-.08-.11-.11-.24-.08-.37.02-.13.1-.25.21-.32l2.59-1.82c.22-.16.54-.1.7.12l6.08,8.65c.16.23.1.54-.12.7l-2.05,1.45c-.11.07-.24.1-.37.08l-5.53-.87,2.03,2.89c.16.23.1.54-.12.7l-2.59,1.82c-.09.06-.19.09-.29.09Zm-5.38-9.03l5.5,7.83,1.77-1.24-2.42-3.44c-.12-.16-.12-.38-.02-.55.11-.17.31-.26.5-.23l6.5,1.02,1.48-1.04-5.5-7.83-1.77,1.24,2.52,3.58c.12.17.12.38.01.55-.11.17-.3.26-.51.23l-6.62-1.13-1.45,1.02Z"/>
      <path class="cls-1" d="m373.18,475.92c-.5,0-.98-.05-1.46-.15-.9-.19-1.74-.54-2.52-1.05-.78-.51-1.44-1.14-1.97-1.89-.54-.76-.91-1.61-1.11-2.52-.2-.91-.23-1.83-.08-2.74.15-.91.47-1.78.97-2.61.5-.83,1.19-1.56,2.04-2.16.88-.62,1.81-1.02,2.77-1.18.95-.17,1.89-.15,2.79.04.9.19,1.74.55,2.51,1.06.77.51,1.42,1.14,1.95,1.88.53.76.91,1.61,1.11,2.52.2.91.23,1.82.08,2.72-.14.91-.47,1.79-.96,2.61-.5.84-1.18,1.57-2.04,2.17h0c-.88.62-1.81,1.02-2.77,1.19-.44.08-.88.12-1.32.12Zm-.05-13.43c-.37,0-.75.03-1.14.1-.81.14-1.61.49-2.37,1.02-.74.52-1.33,1.14-1.76,1.85-.43.72-.71,1.48-.84,2.26s-.1,1.58.07,2.36c.17.79.5,1.51.96,2.17.45.64,1.02,1.19,1.69,1.63.67.44,1.41.74,2.18.91.77.16,1.58.17,2.4.03.81-.14,1.61-.49,2.37-1.02h0c.74-.52,1.33-1.14,1.75-1.86.43-.72.71-1.48.83-2.26.12-.78.1-1.57-.07-2.35-.17-.78-.49-1.51-.95-2.16-.45-.64-1.01-1.18-1.68-1.62-.67-.44-1.4-.75-2.18-.92-.41-.09-.84-.13-1.27-.13Zm3.86,11.71h0,0Zm-3.49-1.6c-.33,0-.66-.05-.98-.15-.44-.13-.86-.36-1.25-.67-.38-.3-.71-.65-1-1.06h0c-.27-.39-.49-.82-.65-1.27-.16-.47-.24-.94-.22-1.41.02-.48.14-.95.37-1.4.23-.45.6-.85,1.09-1.2.48-.34.98-.54,1.47-.62.49-.07.97-.04,1.43.09.45.13.88.35,1.27.66.38.3.71.65,1,1.06.27.39.5.82.66,1.27.17.47.24.94.23,1.41-.01.48-.13.96-.36,1.41-.23.46-.6.87-1.09,1.22-.49.35-1,.55-1.5.62-.15.02-.31.03-.46.03Zm-.67-6.8c-.12,0-.24,0-.36.03-.34.05-.69.2-1.04.44-.36.25-.62.53-.77.84-.16.31-.25.64-.26.97-.01.35.04.7.16,1.05.13.36.3.71.53,1.02h0c.23.32.5.61.8.85.29.23.61.4.93.5.33.1.65.13,1.01.08.34-.04.7-.19,1.05-.45.36-.25.62-.54.78-.85.16-.32.25-.65.26-.98,0-.34-.05-.7-.18-1.05-.13-.37-.31-.71-.53-1.03-.23-.33-.5-.61-.8-.85-.29-.23-.59-.39-.92-.48-.21-.06-.43-.09-.65-.09Z"/>
      <path class="cls-1" d="m382.38,469.48c-.24,0-.46-.18-.49-.42l-.47-3.06c-.03-.17.04-.34.17-.45.05-.04.1-.07.15-.09-.31.01-.59,0-.85-.05-.77-.14-1.44-.6-1.98-1.37-.37-.53-.6-1.1-.67-1.68-.07-.57-.03-1.13.14-1.67.17-.53.44-1.03.81-1.5.36-.46.79-.87,1.29-1.22.36-.25.74-.47,1.14-.65.38-.18.77-.33,1.16-.46.38-.12.75-.22,1.1-.3l.92-.19c.13-.03.28,0,.39.08.11.08.19.2.21.34l.4,2.93c.02.13-.02.27-.1.37.38-.06.74-.07,1.08-.04.46.04.89.18,1.28.41.4.23.76.58,1.09,1.04.43.61.67,1.22.72,1.81.05.58-.03,1.14-.24,1.67-.2.51-.51.99-.91,1.42-.39.42-.82.79-1.28,1.12-.35.24-.74.48-1.16.7-.42.21-.84.41-1.27.57-.43.17-.87.31-1.3.43-.43.12-.86.21-1.25.26-.02,0-.05,0-.07,0Zm.11-3.08l.31,2c.21-.04.42-.09.64-.15.4-.11.8-.24,1.2-.39.39-.15.79-.33,1.17-.53.38-.2.74-.41,1.05-.63.4-.28.78-.61,1.12-.98.32-.34.56-.72.72-1.11.15-.38.21-.78.17-1.21-.04-.42-.22-.86-.55-1.33-.24-.34-.5-.59-.77-.75-.27-.16-.56-.25-.88-.28-.34-.03-.71,0-1.11.08-.43.09-.9.23-1.39.4-.65.22-1.15.39-1.51.52-.78.29-1.16-.04-1.32-.26-.2-.29-.17-.65.08-.95.13-.16.33-.33.59-.52.31-.21.65-.39,1.01-.54.35-.13.68-.24.99-.31.27-.06.51-.11.71-.14l-.26-1.88-.4.08c-.32.07-.66.16-1,.27-.35.12-.7.25-1.05.42-.35.16-.68.35-.99.56-.42.29-.78.63-1.08,1.01-.29.37-.51.77-.64,1.18-.12.4-.16.81-.11,1.24.05.42.22.83.5,1.23.39.55.83.87,1.34.96.56.1,1.31,0,2.24-.28.33-.1.62-.2.9-.32.3-.12.58-.23.82-.3.27-.08.49-.13.69-.14.46-.04.69.2.79.34.09.13.22.42-.03.82-.11.18-.32.38-.65.61-.38.27-.79.49-1.22.67-.41.17-.81.31-1.17.4-.36.09-.67.16-.94.19Zm-.47-.97s.02,0,.03,0c-.01,0,.06,0,.3-.02.23-.02.5-.08.83-.16.32-.08.67-.21,1.04-.36.06-.03.12-.05.19-.08-.25.1-.53.19-.82.28-.58.18-1.1.29-1.57.34Zm2.21-4.97c-.26.06-.55.15-.85.27-.07.03-.13.05-.2.08.2-.07.42-.14.66-.22.13-.04.26-.09.39-.13Z"/>
    </g>
  </g>
  <g>
    <g>
      <path class="accent" d="m256.18,510.58l-2.93-13.18,5.07-1.13c1.09-.24,2.09-.28,2.99-.12.91.16,1.7.48,2.39.95.69.47,1.26,1.07,1.73,1.81.46.73.79,1.56.99,2.46.22,1,.27,1.94.13,2.83-.14.88-.43,1.67-.88,2.38s-1.05,1.31-1.8,1.8c-.75.5-1.62.86-2.62,1.08l-5.07,1.13Zm6.57-8.39c-.11-.51-.28-.96-.51-1.35-.23-.39-.5-.71-.82-.95-.32-.24-.68-.4-1.09-.49-.41-.08-.84-.08-1.3.03l-1.45.32,1.53,6.87,1.45-.32c.47-.1.87-.28,1.21-.54s.59-.57.78-.93.3-.77.33-1.22c.04-.45,0-.92-.11-1.42Z"/>
      <path class="accent" d="m277.18,503.03l.61,2.75-8.43,1.87-2.34-10.54,8.28-1.84.61,2.75-5.12,1.14.26,1.15,4.38-.97.57,2.56-4.38.97.3,1.34,5.27-1.17Z"/>
      <path class="accent" d="m281.5,500.03l1.04,4.7-3.16.7-2.34-10.54,2.47-.55,5.98,3.78-1.08-4.86,3.16-.7,2.34,10.54-2.51.56-5.91-3.62Z"/>
      <path class="accent" d="m293.42,491.24l2.9-.64,1.78,2.94.37-3.41,2.91-.65-.83,5.54,1.13,1.48,1.28-7.38,3.45-.77-2.33,11.58-2.62.58-2.52-3.18-.92,3.94-2.64.59-7-9.51,3.42-.76,4.32,6.13.36-1.81-3.07-4.68Z"/>
      <path class="accent" d="m317.39,494.1l.61,2.75-8.43,1.87-2.34-10.54,8.28-1.84.61,2.75-5.12,1.14.26,1.15,4.38-.97.57,2.56-4.38.97.3,1.34,5.27-1.17Z"/>
      <path class="accent" d="m319.6,496.49l-2.34-10.54,5.42-1.2c.58-.13,1.14-.14,1.67-.03.53.11,1.01.3,1.44.57.43.27.79.6,1.09.99s.49.82.6,1.28c.13.59.1,1.19-.08,1.78-.19.59-.52,1.13-1,1.61l3.55,3.25-3.58.8-2.96-2.63-1.34.3.7,3.14-3.16.7Zm1.84-6.61l2.15-.48c.22-.05.41-.17.55-.37.14-.2.18-.45.11-.77s-.23-.54-.47-.64c-.25-.11-.48-.14-.7-.09l-2.06.46.42,1.89Z"/>
    </g>
    <g>
      <path class="cls-1" d="m257.36,510.1c-.23,0-.44-.16-.49-.39l-2.93-13.18c-.03-.13,0-.26.07-.38.07-.11.18-.19.31-.22l5.07-1.12c1.15-.26,2.23-.3,3.19-.12.97.17,1.84.52,2.58,1.03.74.51,1.37,1.17,1.87,1.96.49.78.85,1.66,1.06,2.61.24,1.06.28,2.07.14,3.01-.15.95-.47,1.81-.96,2.57-.49.76-1.14,1.42-1.94,1.95-.79.53-1.74.92-2.79,1.15l-5.07,1.12s-.07.01-.11.01Zm-2.33-13.3l2.71,12.2,4.58-1.02c.94-.21,1.76-.55,2.46-1.01.69-.46,1.24-1.01,1.66-1.66.41-.64.69-1.38.81-2.18.12-.81.08-1.7-.13-2.64-.19-.84-.5-1.62-.93-2.3-.42-.67-.96-1.23-1.59-1.66-.63-.43-1.37-.72-2.2-.87-.83-.15-1.77-.11-2.8.12l-4.58,1.02Zm5.25,9.34c-.23,0-.44-.16-.49-.39l-1.53-6.87c-.03-.13,0-.26.07-.38s.18-.19.31-.22l1.45-.32c.52-.12,1.03-.13,1.51-.03.48.1.92.29,1.29.58.37.28.69.65.96,1.09.25.43.45.93.57,1.49h0c.12.54.16,1.07.12,1.57-.04.51-.17.99-.38,1.41-.22.43-.53.8-.92,1.1-.39.3-.86.51-1.4.63l-1.45.32s-.07.01-.11.01Zm-.93-6.99l1.31,5.89.96-.21c.4-.09.74-.24,1.01-.45.27-.21.48-.46.63-.76.16-.31.25-.66.28-1.04.03-.4,0-.83-.1-1.27h0c-.1-.46-.25-.86-.46-1.2-.2-.34-.42-.6-.69-.8-.26-.2-.55-.33-.89-.4-.34-.07-.71-.06-1.09.02l-.96.21Z"/>
      <path class="cls-1" d="m270.54,507.17c-.23,0-.44-.16-.49-.39l-2.34-10.54c-.03-.13,0-.26.07-.38.07-.11.18-.19.31-.22l8.28-1.84c.28-.06.54.11.6.38l.61,2.75c.03.13,0,.26-.07.38-.07.11-.18.19-.31.22l-4.63,1.03.04.17,3.89-.87c.13-.03.27,0,.38.07.11.07.19.18.22.31l.57,2.56c.06.27-.11.54-.38.6l-3.89.87.08.36,4.78-1.06c.28-.06.54.11.6.38l.61,2.75c.06.27-.11.54-.38.6l-8.43,1.87s-.07.01-.11.01Zm-1.75-10.67l2.13,9.57,7.45-1.66-.39-1.77-4.78,1.06c-.27.06-.54-.11-.6-.38l-.3-1.33c-.03-.13,0-.26.07-.38.07-.11.18-.19.31-.22l3.89-.87-.35-1.59-3.89.87c-.13.03-.26,0-.38-.07-.11-.07-.19-.18-.22-.31l-.26-1.15c-.03-.13,0-.26.07-.38.07-.11.18-.19.31-.22l4.63-1.03-.39-1.77-7.3,1.62Z"/>
      <path class="cls-1" d="m280.57,504.94c-.09,0-.19-.03-.27-.08-.11-.07-.19-.18-.22-.31l-2.34-10.54c-.06-.27.11-.54.38-.6l2.47-.55c.13-.03.26,0,.38.07l4.97,3.14-.82-3.69c-.03-.13,0-.26.07-.38.07-.11.18-.19.31-.22l3.16-.7c.13-.03.27,0,.38.07.11.07.19.18.22.31l2.34,10.54c.06.27-.11.54-.38.6l-2.51.56c-.13.03-.26,0-.37-.06l-4.9-3,.79,3.55c.06.27-.11.54-.38.6l-3.16.7s-.07.01-.11.01Zm-1.75-10.67l2.13,9.57,2.18-.48-.93-4.21c-.04-.2.03-.4.2-.52.16-.12.38-.12.55-.02l5.73,3.51,1.82-.41-2.12-9.57-2.18.48.97,4.38c.04.2-.04.4-.2.52-.17.12-.39.12-.55.01l-5.81-3.67-1.78.4Z"/>
      <path class="cls-1" d="m296.57,501.39c-.16,0-.31-.07-.4-.2l-7-9.51c-.1-.14-.12-.31-.07-.47.06-.16.19-.28.36-.31l3.42-.76c.2-.04.4.04.52.2l3.65,5.17.09-.46-2.95-4.51c-.09-.14-.11-.31-.04-.46.06-.15.19-.26.35-.3l2.9-.64c.21-.05.42.04.54.23l1.02,1.68.21-1.95c.02-.21.18-.39.39-.43l2.91-.65c.16-.03.33,0,.45.12.12.11.18.28.15.44l-.8,5.33.31.4,1.09-6.25c.03-.2.19-.36.38-.4l3.45-.77c.17-.04.34.01.46.13.12.12.17.29.14.46l-2.33,11.58c-.04.19-.19.35-.38.39l-2.62.58c-.18.04-.38-.03-.5-.18l-1.87-2.37-.68,2.93c-.04.19-.19.33-.38.38l-2.64.59s-.07.01-.11.01Zm-6.14-9.69l6.35,8.63,2.01-.45.85-3.64c.04-.19.19-.33.38-.38.19-.04.38.03.5.18l2.32,2.94,2-.44,2.12-10.51-2.38.53-1.23,7.05c-.03.2-.18.35-.37.4-.19.05-.4-.02-.52-.18l-1.13-1.48c-.08-.11-.12-.24-.1-.38l.72-4.82-1.85.41-.33,3.06c-.02.21-.18.39-.39.43-.21.04-.42-.05-.54-.23l-1.6-2.63-1.84.41,2.67,4.07c.07.11.1.24.07.37l-.36,1.81c-.04.2-.19.35-.39.39-.2.04-.4-.04-.51-.2l-4.13-5.86-2.34.52Z"/>
      <path class="cls-1" d="m310.75,498.24c-.23,0-.44-.16-.49-.39l-2.34-10.54c-.03-.13,0-.26.07-.38.07-.11.18-.19.31-.22l8.28-1.84c.13-.03.26,0,.38.07.11.07.19.18.22.31l.61,2.75c.06.27-.11.54-.38.6l-4.63,1.03.04.17,3.89-.87c.13-.03.26,0,.38.07.11.07.19.18.22.31l.57,2.56c.06.27-.11.54-.38.6l-3.89.87.08.36,4.78-1.06c.27-.06.54.11.6.38l.61,2.75c.06.27-.11.54-.38.6l-8.43,1.87s-.07.01-.11.01Zm-1.75-10.67l2.13,9.57,7.45-1.66-.39-1.77-4.78,1.06c-.27.06-.54-.11-.6-.38l-.3-1.33c-.03-.13,0-.26.07-.38.07-.11.18-.19.31-.22l3.89-.87-.35-1.59-3.89.87c-.13.03-.26,0-.38-.07s-.19-.18-.22-.31l-.25-1.15c-.06-.27.11-.54.38-.6l4.63-1.03-.39-1.77-7.3,1.62Z"/>
      <path class="cls-1" d="m320.78,496.01c-.23,0-.44-.16-.49-.39l-2.34-10.54c-.03-.13,0-.26.07-.38.07-.11.18-.19.31-.22l5.42-1.2c.65-.14,1.28-.15,1.88-.03.59.12,1.13.34,1.61.63.48.3.89.67,1.22,1.12.34.45.57.95.68,1.47.15.68.12,1.36-.09,2.04-.16.51-.42.99-.77,1.43l3.18,2.91c.14.13.19.32.15.5-.05.18-.19.32-.38.36l-3.58.8c-.16.03-.32,0-.44-.11l-2.77-2.46-.6.13.59,2.65c.03.13,0,.26-.07.38-.07.11-.18.19-.31.22l-3.16.7s-.07.01-.11.01Zm-1.75-10.67l2.13,9.57,2.18-.48-.59-2.65c-.03-.13,0-.26.07-.38.07-.11.18-.19.31-.22l1.34-.3c.16-.03.32,0,.44.11l2.77,2.46,2.39-.53-2.84-2.6c-.1-.09-.16-.22-.16-.36,0-.14.05-.27.14-.36.42-.42.71-.9.88-1.41.16-.51.18-1.02.07-1.52-.09-.39-.25-.75-.51-1.09-.26-.34-.58-.64-.95-.87-.38-.24-.81-.41-1.28-.5-.46-.09-.95-.08-1.46.03l-4.93,1.1Zm3.59,4.06c-.23,0-.44-.16-.49-.39l-.42-1.89c-.03-.13,0-.26.07-.38.07-.11.18-.19.31-.22l2.06-.46c.33-.07.67-.03,1.01.12.27.12.63.39.76.99.1.46.04.86-.2,1.18-.22.3-.51.48-.85.56l-2.15.48s-.07.01-.11.01Zm.18-2.01l.2.92,1.66-.37c.11-.02.19-.08.26-.18.05-.07.06-.19.02-.37-.05-.24-.15-.28-.19-.29-.15-.07-.28-.08-.39-.06l-1.57.35Z"/>
    </g>
  </g>
  <g>
    <path class="accent" d="m227.11,468.81c.14,2.09,1.33,6.67,2.11,8.1s-3.4,2.69-3.02,3.56-.1,2.17.98,1.73,3.44-2.85,4.11-2.24,4.75,3.11,5.82,2.92c.72-.13,4.88,5.77,7.56,9.7,1.26,1.84,3.8,2.26,5.58.92l4.29-3.23-4.38-5.82,19.21-14.45c.62-.46.74-1.34.28-1.96l-17.26-22.94c-1.05-1.4-2.62-2.33-4.36-2.57l-5.31-.75c-1.74-.25-3.5.21-4.9,1.26l-16.1,12.12c-1.73,1.3-2.07,3.75-.77,5.48l6.16,8.18Z"/>
    <path class="cls-1" d="m227.48,477.7c.23-.18.47-.35.69-.55.46-.43.92-.87,1.36-1.31.14-.14.09-.3-.04-.45-1.52-1.8-2.19-3.96-2.63-6.21-.15-.79-.04-1.63-.07-2.44,0-.17-.05-.38-.16-.52-1.85-2.48-3.71-4.96-5.58-7.43-1-1.32-1.24-2.75-.59-4.28.2-.48.56-.88.85-1.32,6.23-4.69,12.46-9.37,18.69-14.06.83-.39,1.68-.31,2.55-.18,2.36.36,4.73.69,7.1,1.01.97.13,1.7.57,2.29,1.35,3.41,4.56,6.84,9.11,10.27,13.66l.25.33-.68.51-.28-.38c-3.3-4.39-6.61-8.77-9.9-13.17-.65-.86-1.42-1.36-2.51-1.5-2.34-.31-4.68-.68-7.02-1.05-.8-.13-1.49.04-2.14.53-5.77,4.35-11.55,8.69-17.32,13.04-1.83,1.38-2.11,3.37-.75,5.19,1.69,2.26,3.39,4.51,5.09,6.77.06.07.12.14.24.29.96-2.22,2.8-3.24,5.03-3.78-.13-.25-.27-.46-.35-.69-.24-.63-.5-1.25-.67-1.9-.2-.78.09-1.5.61-2.06.77-.82,1.73-1.16,2.86-.84.49.14.97.31,1.46.43.52.13.6.07.71-.45.33-1.59,1.35-2.59,2.77-3.25.43-.2.84-.17,1.25.03.73.36,1.4.79,1.73,1.57.29.69.58,1.4.75,2.14.21.92.23,1.85-.53,2.65.37.17.69.31,1,.47.68.34.74.5.6,1.23-.24,1.26-.97,2.23-1.79,3.17-.4.45-.84.81-1.44.95,0,.03,0,.06,0,.09.43.27.86.55,1.31.83.09-.12.16-.21.23-.3.51.28.74-.24,1.11-.35-.01-.04-.02-.08-.03-.11-.31.09-.62.18-.93.27-.02-.01-.04-.03-.06-.04.15-.14.27-.34.45-.41.25-.1.54-.15.81-.16.34,0,.61-.12.84-.34,1.2-1.15,2.73-1.8,4.14-2.62.25-.15.56-.22.85-.28.12-.02.3.04.39.13.05.05,0,.27-.08.35-.57.65-1.17,1.28-1.74,1.93-.25.29-.51.59-.69.92-.31.56-.75.93-1.34,1.15-.24.09-.33.22-.35.5-.03.4-.12.82-.27,1.19-.32.77-.92,1.07-1.75.95-.11-.02-.23-.02-.32-.07-.52-.29-.93-.1-1.32.26-.18.17-.39.32-.6.47-.32.22-.53.49-.6.9-.07.39-.37.6-.8.58-.35-.02-.63.09-.89.3-1.22.93-2.44,1.85-3.66,2.79-.28.22-.5.52-.77.76-.18.16-.39.37-.61.4-.79.13-1.35.61-1.98,1.17.31.32.57.69.92.95,1.23.9,2.61,1.5,4.08,1.87,1.25.32,2.24-.27,3.07-1.13.47-.48.46-.98.1-1.55-.53-.85-1.39-1.23-2.27-1.58-.05-.02-.16,0-.19.03-.25.36-.52.72-.72,1.12-.08.17-.01.41,0,.65.34-.02.61-.03.93-.05l-.5-.66c.37-.2.73-.29,1.11-.15.3.1.39.33.33.64-.17.84-1.05,1.38-1.86,1.12-.17-.05-.34-.13-.5-.2-.74-.33-.91-.72-.67-1.51.05-.17.11-.35.15-.52.36-1.43,1.82-2.14,3.19-1.56.87.37,1.68.84,2.27,1.61.33.43.51.93.57,1.46.01.1,0,.22-.03.32-.66,1.78-1.83,3-3.73,3.43-.02,0-.04.03-.08.06.05.07.09.15.15.23,2.15,2.86,4.31,5.73,6.46,8.59.76,1.02,1.74,1.62,3.05,1.57.84-.03,1.56-.38,2.22-.88,1.15-.87,2.31-1.74,3.47-2.61l.34-.25.5.67-4.63,3.48c-.79.36-1.6.59-2.48.48-1.07-.13-1.99-.57-2.68-1.42-.67-.84-1.31-1.7-1.95-2.56-1.74-2.31-3.49-4.61-5.21-6.95-.24-.33-.49-.46-.86-.55-2.04-.49-3.95-1.26-5.45-2.8-.08-.08-.18-.15-.31-.25-.91.68-1.81,1.36-2.72,2.04-.71.53-1.6.18-1.78-.69-.02-.08.02-.19.07-.26.2-.33.42-.65.63-.97-.04.38-.05.77-.12,1.14-.07.34.16.51.32.72.05.06.21.1.28.06.44-.27.87-.56,1.39-.9-.71-.31-1.32-.59-1.06-1.49-.33.2-.57.35-.81.49Zm6.22-4.7c-.06-.04-.07-.06-.09-.07-.04-.02-.09-.03-.14-.04-.91-.09-1.34-.66-1.54-1.49-.03-.14-.08-.28-.12-.42-.05-.16-.1-.31.11-.43.21-.12.35-.09.48.1.2.3.46.33.78.18.4-.19.81-.37,1.23-.53.76-.28,1.39-.74,1.94-1.33.25-.27.23-.4.03-.69-.16-.23-.2-.57-.25-.86-.01-.07.13-.2.22-.24.05-.02.18.09.23.17.19.28.36.57.54.85.24.35.56.58,1.07.68-.22-.27-.42-.46-.56-.69-.25-.39-.48-.8-.69-1.21-.13-.27-.03-.48.29-.61.19.41.37.8.6,1.3.41-.31.8-.57,1.15-.87.63-.53,1.02-1.24,1.34-1.98.05-.12.2-.26.32-.28.6-.08,1.06-.35,1.4-.85.19-.28.43-.52.64-.78.46-.61.88-1.24,1.03-2.01.02-.1-.01-.28-.09-.33-.99-.63-2.02-1.11-3.23-.61-.17.07-.34.13-.52.15-.21.03-.29.14-.29.34,0,.42.04.85,0,1.26-.04.36-.09.76-.26,1.07-.37.67-.96,1.13-1.7,1.31-1.41.34-2.78.36-3.93-.74-.21-.2-.42-.4-.66-.55-.2-.13-.47-.29-.68-.25-1.54.31-2.94.83-3.88,2.25-.65.99-1.03,2.01-1,3.18.01.46.06.91.12,1.37.19,1.47.83,2.81,1.25,4.22.17.57.5,1.03.89,1.47.24.27.44.31.67.06.1-.1.18-.27.18-.41-.02-.32-.09-.64-.16-.96-.2-.88-.02-1.75.1-2.62.01-.1.21-.23.34-.26.15-.03.33.01.33.27,0,.51.22.95.59,1.28.36.32.78.58,1.21.9-.03.13-.08.32-.12.51-.04.19-.08.38-.09.57,0,.1.02.25.09.31.28.25,1.13.27,1.5.04-.17-.03-.33-.05-.48-.08-.16-.04-.33-.08-.48-.16-.48-.25-.54-.63-.18-1.02.14-.15.28-.29.44-.46Zm4.1-14.47c-.25-.27-.49-.56-.76-.82-.2-.19-.42-.41-.66-.47-.62-.17-1.27-.23-1.9-.38-1.79-.43-2.76,1.14-2.57,2.36.07.48.22.97.42,1.41.67,1.43,1.72,2.45,3.28,2.89.81.23,1.56.08,2.25-.31.99-.55,1.3-1.34,1.01-2.44-.21-.81-.56-1.56-1.06-2.24Zm4.58.79c.1-.44.23-.85.29-1.28.23-1.42-.09-2.71-1.08-3.78-.7-.76-1.46-.92-2.24-.48-.33.18-.63.45-.88.73-.58.66-1.05,1.39-1.06,2.31,0,.14,0,.31.08.41.56.78,1.15,1.54,1.73,2.31,1.03-.4,2.05-.7,3.15-.23Zm-10.56,17.67c0,.05-.02.1-.03.15.16.17.31.33.47.5,1.17,1.23,2.71,1.8,4.28,2.3.57.18,1.19.23,1.79.23.42,0,.89-.08,1.25-.28.55-.31,1.07-.7,1.53-1.14.93-.88.88-2.5-.08-3.25-.47-.37-1-.67-1.53-.96-.26-.14-.57-.21-.86-.23-.65-.05-1.1.3-1.41.84-.31.53-.34,1.2-.09,1.6-.09-.71.06-1.2.49-1.67.35-.38.94-.53,1.39-.29.52.28,1.04.57,1.5.92,1.11.84,1.23,2.01.32,3.07-.2.23-.44.45-.71.61-1.16.67-2.4.61-3.59.16-1.41-.54-2.77-1.18-3.88-2.25-.1-.1-.22-.2-.35-.24-.15-.05-.32-.05-.48-.07Zm4.03-5.36l2.73-2.05c-.25-.14-.46-.26-.67-.36-.35-.18-.67-.19-.98.12-.22.22-.49.39-.74.58q-.88.67-.34,1.72Zm-2.5,2.12c.25.12.48.32.58.27.42-.22.8-.5,1.18-.78.25-.18.43-.49.7-.6,1.24-.49,2.15-1.45,3.21-2.19.07-.05.1-.28.08-.3-.12-.06-.31-.15-.38-.1-.84.62-1.71,1.22-2.49,1.91-.49.44-.93.98-1.6,1.07-.52.07-.8.44-1.28.71Zm4.92-5.64c.4.77.47.81,1,.62.04-.16.06-.32.11-.46.1-.27.22-.43.6-.37.76.12,1.28-.39,1.82-.84-.63-.11-1.2-.22-1.78-.32-.09-.01-.22.03-.29.1-.49.41-.96.83-1.46,1.27Zm8.79-2.63c.43-.53.81-1.04,1.23-1.51.21-.23.18-.41,0-.62-.08-.09-.17-.17-.27-.27-.53.28-1.06.55-1.57.82.12.28.33.54.27.7-.14.39.09.58.34.88Zm-12.43,8.66c.32.3.53.11.73-.03,1.36-1.01,2.72-2.03,4.08-3.06.08-.06.12-.18.18-.27l-.11-.1c-1.61,1.15-3.22,2.29-4.87,3.46Zm-3.33.43c.05,0,.1.01.16.02.34-.35.67-.71,1.06-1.11-.76-.3-1.21-.75-1.47-1.39-.3.2-.36.44-.3.74.07.3.08.62.17.92.09.29.25.55.38.82Zm14.86-8.67c-.16-.25-.35-.25-.52-.12-.37.28-.74.58-1.1.87-.7.56-1.36,1.17-2.15,1.62-.58.33-1.11.76-1.65,1.17-.07.05-.05.21-.07.32.1,0,.23.02.3-.03.51-.39,1-.79,1.5-1.19.24-.2.46-.43.71-.61.36-.26.73-.5,1.1-.74.53-.35,1.06-.7,1.58-1.05.1-.07.19-.14.3-.22Zm-.14-.98s-.04-.09-.06-.14c-.27.07-.6.06-.81.21-.73.55-1.41,1.16-2.1,1.76-.07.06-.06.22-.09.34.04.03.09.05.13.08.95-.78,2.17-1.2,2.92-2.25Zm-15.9,11.82c.06.04.11.07.17.11.62-.47,1.24-.94,1.87-1.4.16-.12.3-.26.16-.43-.07-.08-.33-.12-.42-.06-.55.39-1.1.8-1.61,1.24-.12.1-.12.35-.17.53Zm2.5-5.06c.31.61.73.96,1.25,1.06.08-.24.15-.48.23-.72,0-.02.02-.04.03-.07.08-.41-.3-.77-.69-.63-.27.1-.53.23-.81.35Zm8.1-1.22c-.32-.31-.81-.57-.94-.96-.12-.38.13-.87.22-1.32-.39-.1-.4-.09-.71.92-.14,0-.28,0-.44,0,.83.81,1.36,1.49,1.88,1.36Zm1.96-4.32s-.08.03-.12.06c-.23.23-.44.18-.7.03-.31-.18-.64-.33-.99-.44-.11-.03-.28.11-.42.17.09.1.16.26.27.29.42.11.84.19,1.27.27.24.05.38.16.38.43,0,.15.07.3.11.44.06-.43.12-.84.18-1.26Zm-9.51,9.36s-.05-.08-.07-.12c-.82.54-1.74.93-2.41,1.72.12.03.26.06.33,0,.72-.53,1.44-1.07,2.15-1.61Zm8.87-7.93c-.05-.02-.11-.05-.16-.07-.49.4-.98.8-1.45,1.22-.08.08-.09.24-.13.37.04.02.08.04.11.06.52-.39,1.06-.78,1.56-1.19.07-.06.04-.25.06-.38Zm1.54.67c.45.15.91.35,1.34.02.37-.28.62-.94.53-1.28-.32.02-.33.28-.37.49-.05.3-.2.46-.5.51-.34.06-.66.17-1,.26Zm-14.63,8.69s-.08-.04-.12-.06c-.07.16-.19.32-.2.49-.05.53.31.76.75.88.08.02.18-.03.27-.04,0-.03.01-.06.02-.09-.58-.19-.62-.7-.71-1.17Zm5.8-6.1c0,.5.02.93.02,1.35.79-.35.81-.45.23-1.09-.06-.07-.13-.13-.26-.26Zm-5,6.34c-.02-.17-.04-.39-.07-.61-.06,0-.11,0-.17,0,0,.23-.05.49.04.69.09.21.3.38.47.55.03.03.18.02.22-.03.04-.05.03-.18,0-.22-.14-.14-.3-.25-.47-.39Zm8.77-.9l.38.5c.04-.15.06-.25.1-.37-.16-.05-.29-.08-.47-.13Z"/>
    <path class="cls-1" d="m253.5,486.33l-.62.47c-.08-.1-.17-.19-.24-.3-3.29-4.37-6.57-8.73-9.86-13.1-.42-.56-.44-.95.07-1.43.37-.35.82-.62,1.28-.85.37-.18.73-.03.99.31,2.37,3.15,4.74,6.31,7.11,9.46.01.02.02.04.04.09l-.62.46c-.08-.11-.17-.22-.25-.34-2.23-2.96-4.45-5.92-6.68-8.88-.35-.47-.62-.51-1.06-.18-.44.33-.46.58-.1,1.06,3.22,4.28,6.44,8.56,9.66,12.84l.28.37Z"/>
    <path class="cls-1" d="m265.88,461.32l-3.23-4.3.62-.47c.08.09.17.19.24.29,2.28,3.03,4.56,6.05,6.83,9.08.45.6.45,1.01-.09,1.52-.31.29-.68.54-1.06.73-.49.25-.87.12-1.2-.32-1.08-1.43-2.16-2.87-3.24-4.31-.34-.46-.35-.85.04-1.27.31-.34.7-.62,1.09-.95Zm2.31,3.04c-.5-.66-.99-1.34-1.51-1.98-.13-.16-.4-.33-.59-.31-.67.07-.92.7-.53,1.24.52.71,1.06,1.41,1.59,2.11.44.59.87,1.19,1.34,1.75.14.16.4.33.59.32.66-.04.94-.7.55-1.22-.47-.64-.95-1.27-1.43-1.91Z"/>
    <path class="cls-1" d="m262.3,473.43l2.07,2.76-.62.47c-.08-.1-.16-.18-.23-.28-1.89-2.5-3.77-5.01-5.65-7.51-.43-.58-.44-1,.08-1.5.32-.31.72-.57,1.12-.77.47-.23.82-.11,1.14.31,1.1,1.45,2.19,2.9,3.28,4.36.33.44.32.81-.05,1.24-.15.18-.34.34-.52.49-.18.15-.39.27-.62.43Zm-1.06-3.85c-.5-.66-1-1.33-1.5-1.99-.3-.4-.58-.43-.99-.13-.41.3-.48.61-.17,1.02.98,1.31,1.97,2.62,2.96,3.93.31.41.61.44,1.02.13.41-.31.45-.59.14-1.01-.48-.65-.97-1.29-1.46-1.94Z"/>
    <path class="cls-1" d="m264.01,466.11c-.3-.4-.61-.85-.97-1.27-.22-.26-.56-.22-.9.06-.33.27-.4.54-.2.85.12.19.27.36.42.56-.12.1-.21.18-.3.25-.09.07-.19.14-.31.23-.24-.32-.49-.59-.67-.91-.18-.31-.09-.68.15-.9.39-.36.82-.71,1.28-.97.46-.25.85-.1,1.17.32,1.08,1.43,2.16,2.87,3.24,4.31.33.44.36.86-.02,1.24-.36.36-.78.68-1.23.92-.46.25-.85.1-1.17-.32-.54-.71-1.08-1.42-1.61-2.14-.36-.48-.36-.89.06-1.33.31-.32.69-.59,1.06-.9Zm.3,2.81c.24.32.47.64.72.95.27.34.55.36.94.08.39-.28.48-.58.24-.92-.48-.66-.97-1.32-1.48-1.96-.26-.33-.55-.31-.95,0-.37.29-.43.55-.19.89.23.32.48.64.71.95Z"/>
    <path class="cls-1" d="m258.95,473.68l.6-.45c.21.28.44.55.62.84.19.31.12.63-.09.92-.35.49-.82.85-1.39,1.05-.44.16-.77.06-1.05-.32-1.11-1.47-2.22-2.94-3.33-4.42-.29-.39-.33-.78.01-1.12.39-.39.86-.73,1.34-1,.4-.22.77-.08,1.06.28.58.75,1.16,1.51,1.72,2.28.31.42.28.85-.11,1.25-.31.32-.69.59-1.06.9.32.42.63.9,1.01,1.33.25.28.56.1.81-.09.25-.19.46-.42.28-.77-.12-.23-.28-.44-.43-.68Zm-1.97-2.58s0,0,0,0c-.25-.34-.49-.69-.76-1.01-.27-.31-.59-.3-.95,0-.36.29-.43.56-.18.9.47.64.95,1.28,1.43,1.91.27.36.54.37.93.08.41-.3.49-.57.23-.94-.22-.32-.46-.62-.69-.93Z"/>
    <path class="cls-1" d="m252.77,475.94c.54.71,1.08,1.42,1.61,2.14.35.47.37.86-.03,1.27-.35.35-.77.66-1.2.9-.47.25-.86.11-1.18-.31-1.09-1.44-2.18-2.89-3.26-4.34-.32-.43-.35-.84.01-1.21.36-.36.78-.69,1.22-.93.49-.27.85-.13,1.2.32.55.72,1.09,1.44,1.63,2.17Zm-.63.48c-.49-.65-.98-1.31-1.48-1.96-.32-.42-.6-.45-1.01-.15-.41.31-.46.61-.16,1.02.98,1.31,1.97,2.62,2.96,3.93.31.4.62.43,1.02.11.4-.31.44-.58.14-.99-.49-.66-.98-1.31-1.48-1.97Z"/>
    <path class="cls-1" d="m251.6,471.75c-.18.12-.31.2-.45.29l-.35-.46c.12-.11.24-.23.39-.36l-2.68-3.56.63-.47,2.69,3.58.99-.75.38.5-.97.73,5.25,6.98-.64.48-5.23-6.96Z"/>
    <path class="cls-1" d="m245.04,445.38c.13-.1.24-.18.34-.26,1.22-.92,2.45-1.84,3.67-2.76.13-.09.25-.23.39-.25.14-.02.35.02.42.12.07.1.04.31-.01.44-.04.1-.17.16-.27.23-1.34,1.01-2.68,2.02-4.02,3.02-.5.37-.83.33-1.2-.16-1.07-1.41-2.13-2.83-3.2-4.25-.07-.1-.18-.2-.18-.31,0-.13.04-.32.14-.39.09-.07.31-.07.41,0,.16.1.27.27.39.42.95,1.26,1.9,2.52,2.85,3.78.08.1.16.21.26.35Z"/>
    <path class="cls-1" d="m270.59,457.82c.29.39.59.75.85,1.14.17.25.31.25.51.06.12-.11.26-.2.41-.31l.36.48-.69.52,1.07,1.43-.65.49-1.06-1.41-.7.53-.36-.48.69-.52-1.07-1.43.65-.49Z"/>
    <path class="cls-1" d="m269.27,461.04l.72-.54.35.46c-.21.18-.43.36-.67.56l1.06,1.4-.64.49-1.06-1.41-.7.53-.36-.48.69-.52-1.08-1.44.64-.48,1.08,1.43Z"/>
    <path class="cls-1" d="m234.42,461.58c-.27-.37-.2-.69.22-1,.47-.35.77-.36,1.02-.02.33.45.32,1.05-.02,1.31-.29.22-.96.07-1.21-.28Z"/>
    <path class="cls-1" d="m240.96,455.05c.38.15.62.46.77.83.1.26-.07.47-.3.53-.23.05-.49.01-.73-.02-.06,0-.13-.15-.15-.24-.08-.42-.01-.81.42-1.1Z"/>
  </g>
  <g>
    <g id="layer1">
      <path id="path821" class="accent" d="m317.56,473.04c-3.05-3.1-5.26-6.94-6.31-10.98-2.7-10.36,1.45-21.03,10.49-26.94,2.22-1.45,5-2.57,7.94-3.2l2.59-.55-6.06,9.31c-5.8,8.91-6.08,9.37-6.4,10.76-.65,2.79-.7,4.8-.19,7.37,1.33,6.64,6.52,11.54,13.13,12.41,6.21.82,12.51-2.22,15.55-7.52,2.04-3.55,2.57-6.81,1.76-10.95-.61-3.13-1.99-5.82-4.04-7.92-2.09-2.14-1.93-2.13-3.3-.07l-1.19,1.78,1.17,1.14c4.53,4.41,4.56,11.76.06,16.16-1.44,1.41-3.17,2.34-5.29,2.84-3.22.77-6.5-.02-8.8-1.57-3.8-2.55-5.53-6.83-4.93-11.05,0,0,.21-1.18.46-1.83,1.46-3.83,6.61-10.49,6.61-10.49l6.77-10.25.81.09c.45.05.86.12.92.16s-3.01,4.78-6.81,10.53c0,0-5.76,7.03-6.78,10.51-.15.5-.37,1.38-.37,1.38-.29,2.15.03,4.42,1.16,6.3.86,1.43,1.31,2.12,3.16,3.36,1.21.81,2.54,1.15,4.16,1.4,1.9.3,4.76-.36,6.46-1.56,4.69-3.33,5.53-9.72,1.87-14.11-1.5-1.79-1.44-1.8-2.8.23l-1.18,1.77.74.84c2.65,3.02.74,8-3.28,8.53-1.42.19-2.46,0-3.87-.95-1.51-1.01-2.34-2.89-2.15-4.78.12-1.14.61-1.96.85-2.33,2.26-3.37,6.24-9.49,6.24-9.49l6.9-10.45.54.19c.3.11,1.43.64,2.52,1.18,3.7,1.84,7.99,6.32,10.08,10.52,2.85,5.72,3.31,12.59,1.26,18.8-.71,2.14-1,2.7-2.94,5.6s-2.35,3.39-4.02,4.83c-6.74,5.8-15.17,7.53-23.8,4.89-1.82-.56-2.58-.94-5.29-2.67-2.19-1.39-3.54-2.4-4.36-3.23h0Z"/>
    </g>
    <g id="layer1-2" data-name="layer1">
      <path class="cls-1" d="m338.03,481.15c-2.66,0-5.37-.42-8.11-1.25-1.92-.59-2.74-1-5.54-2.79-2.25-1.44-3.65-2.48-4.53-3.37-3.19-3.24-5.46-7.2-6.57-11.43-2.83-10.84,1.45-21.84,10.91-28.03,2.34-1.53,5.2-2.68,8.27-3.34l2.59-.55c.39-.09.8.08,1.03.41.23.33.23.77.01,1.11l-6.06,9.31c-5.69,8.73-5.98,9.22-6.27,10.44-.62,2.64-.67,4.52-.18,6.95,1.25,6.24,6.07,10.8,12.28,11.61,5.85.77,11.7-2.05,14.55-7.02,1.93-3.37,2.41-6.34,1.64-10.26-.58-2.95-1.85-5.44-3.78-7.41l-.28-.28c-.31-.32-.63-.65-.86-.85-.13.18-.29.42-.44.65l-.91,1.36.57.56c2.39,2.33,3.71,5.46,3.72,8.82,0,3.34-1.29,6.46-3.66,8.77-1.57,1.54-3.45,2.55-5.76,3.1-3.25.78-6.84.14-9.59-1.71-3.98-2.67-6.03-7.28-5.36-12.02.03-.16.24-1.33.51-2.05,1.49-3.92,6.54-10.47,6.76-10.74l6.73-10.19c.21-.31.58-.48.95-.44l.81.09c1.05.12,1.22.23,1.35.32.83.56.39,1.25-.21,2.22-.34.54-.84,1.32-1.46,2.28-1.24,1.91-2.95,4.54-4.86,7.42-.02.03-.04.06-.06.08-.06.07-5.64,6.91-6.59,10.16-.12.41-.3,1.09-.35,1.29-.26,2.05.11,4.04,1.04,5.6.78,1.3,1.13,1.89,2.86,3.05,1.06.71,2.27,1.01,3.76,1.25,1.7.27,4.26-.35,5.73-1.39,2.05-1.45,3.34-3.58,3.66-6,.31-2.39-.39-4.76-1.98-6.66l-.09-.11c-.18-.22-.37-.44-.52-.61-.15.21-.33.48-.51.74l-.84,1.25.23.26c1.48,1.69,1.88,4,1.06,6.18-.82,2.17-2.72,3.71-4.96,4-1.74.23-3.02-.08-4.56-1.11-1.8-1.21-2.82-3.45-2.59-5.72.1-.98.44-1.92,1.02-2.78,2.23-3.33,6.19-9.42,6.23-9.48l6.9-10.45c.25-.39.74-.54,1.17-.39l.54.2c.38.14,1.64.73,2.63,1.23,3.9,1.95,8.33,6.56,10.53,10.97,2.97,5.96,3.45,13.1,1.31,19.56-.73,2.22-1.08,2.88-3.06,5.84s-2.45,3.53-4.2,5.03c-4.86,4.19-10.59,6.34-16.64,6.34Zm-4.93-48.3l-.22.05c-2.8.6-5.5,1.68-7.6,3.06-8.73,5.71-12.68,15.85-10.07,25.85,1.02,3.89,3.11,7.54,6.06,10.53h0c.76.77,2.09,1.75,4.18,3.09,2.63,1.67,3.33,2.03,5.05,2.56,8.28,2.54,16.4.87,22.86-4.69,1.59-1.37,1.95-1.8,3.84-4.62,1.88-2.82,2.15-3.32,2.82-5.36,1.97-5.97,1.53-12.55-1.2-18.05-1.99-4-6.13-8.33-9.63-10.07-.97-.49-1.83-.88-2.22-1.06l-6.46,9.78c-.04.06-4.01,6.16-6.24,9.49-.39.59-.62,1.22-.69,1.87-.16,1.54.52,3.05,1.71,3.85,1.28.85,2.07.94,3.18.79,1.53-.2,2.78-1.22,3.34-2.73.55-1.48.3-3.03-.69-4.16l-.74-.84c-.3-.34-.33-.84-.08-1.21l1.26-1.89c.79-1.18,1.22-1.83,2.05-1.87.05,0,.11,0,.16,0-.33-.34-.38-.86-.12-1.26l1.37-2.05c.65-.98,1.08-1.63,1.89-1.71.85-.08,1.4.49,2.5,1.62l.27.28c2.21,2.25,3.66,5.09,4.31,8.43.86,4.38.3,7.87-1.87,11.64-3.26,5.67-9.9,8.89-16.55,8.01-7.07-.93-12.56-6.11-13.98-13.2-.54-2.7-.49-4.89.2-7.8.37-1.57.61-1.98,6.54-11.08l4.74-7.28Z"/>
    </g>
  </g>
  <g>
    <g>
      <path class="accent" d="m253.66,437.08c3.64,11.01,13.19,18.41,23.96,19.86l-25.29-31.98c-.4,3.97,0,8.09,1.33,12.12Z"/>
      <path class="accent" d="m299.8,420.27c-1.14-3.44-3.16-5.41-4.83-6.91-2.17-1.83-4.13-3.33-4.89-5.62-.85-2.56.31-5.58,3.04-6.48.12-.04.25-.06.37-.1-6.45-2.9-13.96-3.49-21.2-1.09-9.72,3.21-16.62,11.03-19.1,20.23.66-.2,1.28-.39,1.8-.56,2.91-.96,7.3-2.8,7.3-2.8,1.47-.58,2.38,1.56.94,2.23,0,0-1.45.68-3.1,1.32l20.09,26.79.05-20.27-8.26-10.44c-1.53.41-3.01.7-3.01.7-1.53.41-2.11-1.94-.58-2.35,0,0,4.71-1.17,7.45-2.07,2.91-.96,7.3-2.8,7.3-2.8,1.47-.58,2.38,1.56.94,2.23,0,0-1.45.68-3.1,1.32l19.94,26.58-.29-10.19c-.07-4.25-.07-7.31-.86-9.69Z"/>
      <path class="accent" d="m282.77,430.15l-.33,27.02c2.73-.09,5.5-.56,8.23-1.46,3.24-1.07,6.16-2.66,8.72-4.63-.11-.09-.22-.2-.32-.32l-16.3-20.6Z"/>
      <path class="accent" d="m301.48,406.46c.41.85.79,1.78,1.13,2.8.93,2.82,1.46,6.17,1.18,10.67l-.38,27.38c6.68-7.56,9.28-18.36,5.89-28.62-1.6-4.84-4.34-8.98-7.82-12.22Z"/>
      <path class="accent" d="m270.76,395.45c-17.88,5.91-27.62,25.27-21.71,43.15s25.27,27.62,43.15,21.71c17.88-5.91,27.63-25.27,21.71-43.16-5.91-17.88-25.27-27.62-43.16-21.71Zm20.95,63.38c-17.06,5.64-35.54-3.65-41.18-20.72-5.64-17.06,3.65-35.53,20.72-41.17,17.06-5.64,35.53,3.65,41.17,20.72,5.64,17.06-3.65,35.54-20.71,41.18Z"/>
    </g>
    <g>
      <path class="cls-1" d="m279.61,455.94s-.09,0-.13,0c-11.61-1.55-21.1-9.42-24.77-20.54-1.34-4.06-1.81-8.28-1.38-12.53.04-.41.32-.75.71-.86s.81.02,1.06.34l25.29,31.98c.25.32.29.76.08,1.11-.18.32-.51.51-.87.51Zm-24.44-30.29c-.03,3.09.45,6.15,1.43,9.12h0c3.16,9.55,10.92,16.54,20.59,18.72l-22.02-27.84Z"/>
      <path class="cls-1" d="m282.21,446.26c-.31,0-.61-.14-.8-.4l-20.09-26.79c-.19-.25-.25-.57-.16-.87s.31-.54.6-.66c1.6-.62,3.02-1.29,3.04-1.29.08-.04.21-.1.12-.3-.08-.17-.18-.14-.27-.1-.16.07-4.44,1.86-7.35,2.82-.53.17-1.16.37-1.83.57-.35.1-.72,0-.98-.24-.26-.25-.36-.63-.27-.98,2.66-9.89,10.05-17.71,19.75-20.91,7.21-2.38,15-1.98,21.93,1.13.38.17.62.57.59.99s-.33.78-.73.89l-.17.04s-.1.02-.15.04c-2.3.76-3.04,3.3-2.4,5.22.61,1.84,2.22,3.19,4.08,4.75l.5.42c1.87,1.68,3.94,3.75,5.14,7.37.79,2.38.83,5.25.89,9.22v.78s.3,10.18.3,10.18c.01.44-.26.83-.67.97-.41.14-.87,0-1.13-.34l-19.94-26.58c-.19-.25-.25-.57-.16-.87s.31-.54.6-.66c1.6-.62,3.02-1.29,3.04-1.29.08-.04.21-.1.12-.3-.08-.18-.18-.14-.27-.1-.16.07-4.44,1.86-7.35,2.82-2.74.91-7.32,2.04-7.52,2.09-.11.03-.12.07-.13.11-.03.1,0,.24.07.3.01.01.03.04.14,0,.08-.02,1.53-.31,3-.7.38-.11.79.03,1.04.35l8.26,10.44c.14.18.22.4.22.62l-.05,20.27c0,.43-.28.81-.68.95-.1.03-.21.05-.32.05Zm-18.51-27.35l17.52,23.36.04-16.94-7.64-9.66c-1.29.32-2.38.54-2.43.55-.71.19-1.46,0-2.01-.54-.57-.57-.8-1.45-.59-2.23.2-.76.77-1.31,1.56-1.52.06-.02,4.72-1.17,7.39-2.05,2.84-.94,7.18-2.76,7.23-2.78,1.17-.47,2.37.02,2.86,1.16.49,1.13,0,2.38-1.11,2.9-.04.02-.85.4-1.94.85l17.27,23.03-.21-7.83c-.06-3.79-.1-6.53-.79-8.62h0c-1.04-3.15-2.89-5-4.55-6.49l-.47-.4c-2.01-1.68-3.91-3.27-4.7-5.66-.85-2.56,0-5.27,1.92-6.8-5.94-2.14-12.41-2.23-18.46-.24-8.48,2.8-15.06,9.37-17.91,17.76,2.84-.94,7.16-2.75,7.21-2.77,1.17-.47,2.37.02,2.86,1.16.49,1.13,0,2.38-1.11,2.9-.04.02-.85.4-1.94.85Z"/>
      <path class="cls-1" d="m284.44,456.17c-.26,0-.51-.1-.7-.29-.2-.19-.3-.45-.3-.73l.33-27.02c0-.42.28-.8.68-.93.4-.14.84,0,1.11.33l16.3,20.6c.04.05.11.11.18.17.23.19.37.48.36.79,0,.3-.15.59-.39.77-2.72,2.1-5.75,3.71-9.02,4.79-2.75.91-5.61,1.42-8.51,1.51-.01,0-.02,0-.03,0Zm1.29-25.18l-.28,23.13c2.35-.17,4.67-.62,6.91-1.36,2.71-.89,5.25-2.18,7.56-3.84l-14.19-17.93Z"/>
      <path class="cls-1" d="m305.42,446.31c-.12,0-.24-.02-.36-.07-.39-.15-.65-.53-.64-.95l.38-27.38c.25-4-.11-7.27-1.13-10.34-.31-.94-.67-1.84-1.08-2.67-.21-.43-.08-.96.3-1.24.38-.29.92-.26,1.28.07,3.7,3.44,6.5,7.82,8.09,12.64,3.37,10.19,1.04,21.54-6.09,29.6-.19.22-.47.34-.75.34Zm.7-37.42c.67,2.75.88,5.69.67,9.1l-.33,24.41c5.23-7.31,6.74-16.79,3.9-25.4-.97-2.92-2.4-5.66-4.23-8.11Z"/>
      <path class="cls-1" d="m283.47,461.05c-5.42,0-10.8-1.27-15.79-3.78-8.4-4.23-14.64-11.46-17.59-20.36-2.94-8.9-2.24-18.43,1.99-26.83,4.23-8.4,11.46-14.64,20.36-17.59,18.41-6.09,38.33,3.94,44.42,22.35,2.94,8.9,2.24,18.43-1.99,26.83-4.23,8.4-11.46,14.64-20.36,17.59-3.62,1.2-7.33,1.79-11.04,1.79Zm0-66.77c-3.33,0-6.67.53-9.92,1.61-8,2.64-14.5,8.26-18.29,15.8s-4.43,16.11-1.79,24.11c2.64,8,8.26,14.5,15.8,18.29,7.55,3.8,16.11,4.43,24.11,1.79h0c16.54-5.47,25.55-23.37,20.08-39.91-2.64-8-8.26-14.5-15.8-18.29-4.48-2.25-9.32-3.39-14.19-3.39Zm10.23,62.55h0,0Z"/>
    </g>
  </g>
  <path class="cls-3" d="m31.59,240.17c1.09-.79,1.4-1.69,2.62-1.88s4.34.13,5.17.38,3.13,1.14,3.38,1.5-1.98-.03,4.21,1.12,5.81.32,7.02,1.98,2.74,3.51,3.38,4.28,1.28,1.85,1.91,2.68,1.98,1.72,2.11,2.49.7,2.74.7,2.74"/>
  <path class="cls-3" d="m23.78,249.58c.27.7-.75,1.91,2,1.6s4.4-3,4.4-3"/>
  <path class="cls-3" d="m33.95,242.17c.64,2.44-.7,2.18,1.09,2.95s6.19-.83,6.19-.83"/>
  <path class="cls-3" d="m45.95,246.84c1.4,1.91,1.05,2.17,2.79,2.17s3.08-.83,3.08-.83l1.15-1.34"/>
  <path class="cls-3" d="m34.01,251.31c1.79,1.53,4.28,3.19,5.68,1.34s1.82-1.79,1.83-2.68,0-1.28,0-1.28"/>
  <line class="cls-3" x1="48.31" y1="235.41" x2="50.99" y2="224.63"/>
  <path class="cls-1" d="m54.82,238.52c-.23,0-.46-.08-.65-.24-.42-.36-.47-.99-.11-1.41l8.94-10.47c.36-.42.99-.47,1.41-.11.42.36.47.99.11,1.41l-8.94,10.47c-.2.23-.48.35-.76.35Z"/>
  <path class="cls-1" d="m60.91,244.2c-.34,0-.67-.17-.86-.48-.29-.47-.13-1.09.34-1.37l12.3-7.4c.47-.29,1.09-.13,1.37.34.29.47.13,1.09-.34,1.37l-12.3,7.4c-.16.1-.34.14-.51.14Z"/>
  <path class="cls-1" d="m62.9,250.71c-.51,0-.94-.38-.99-.9-.06-.55.34-1.04.89-1.1l6.74-.7c.54-.05,1.04.34,1.1.89.06.55-.34,1.04-.89,1.1l-6.74.7s-.07,0-.1,0Z"/>
  <g>
    <path class="accent" d="m120.15,66.99c-.24,2.87,4.36,12.68,9.57,13.79,3.69.72,5.07.96,5.07.96l-2.48,12.02,4.81-.24,2.55-11.73s7.28-2.39,9.86-9.43l-3.45-.91s-5.27,7.47-13.31,4.6-8.03-8.23-8.03-8.23l-4.61-.81Z"/>
    <path class="cls-1" d="m136.89,71.63c-.27,0-.52-.02-.75-.06-2.32-.44-7.5-4.74-8.13-5.99-.47-.94-2.94-8.68-2.05-13.83.09-.54.61-.91,1.15-.82.54.09.91.61.82,1.15-.78,4.56,1.51,11.87,1.87,12.6.5.86,5.09,4.61,6.71,4.92,1.63.31,5.46-1.33,6.52-3.56,1.23-2.6,3.53-13.08,3.45-14.45-.03-.55.38-1.03.94-1.06.54-.04,1.03.38,1.06.94.11,1.8-2.36,12.73-3.64,15.43-1.37,2.89-5.45,4.74-7.95,4.74Z"/>
    <path class="cls-1" d="m137.5,57.82c-1.31,0-2.62-.94-3.02-1.26-.61-.48-1.35-1.21-1.4-2-.03-.5.18-1.12.49-2.07.38-1.14.85-2.56.9-3.83.02-.55.48-1,1.04-.96.55.02.98.49.96,1.04-.06,1.55-.6,3.18-1,4.38-.15.45-.33,1-.38,1.26.33.54,1.84,1.53,2.5,1.43.59-.1,1.31-1.18,1.57-1.74.23-.5.83-.72,1.33-.49.5.23.72.83.49,1.33-.12.26-1.23,2.54-3.03,2.86-.15.03-.29.04-.44.04Zm-2.45-3.51h0Z"/>
    <path class="cls-1" d="m129.72,49.37c-.29,0-.58-.13-.78-.37-.35-.43-.28-1.06.15-1.41,2.14-1.73,4.19-.71,4.97.07.39.39.39,1.02,0,1.41s-1.02.39-1.41,0c-.23-.22-1.11-.89-2.3.07-.18.15-.41.22-.63.22Z"/>
    <path class="cls-1" d="m144.51,50.71c-.3,0-.6-.14-.8-.4-.18-.23-1.21-1.38-2.86-.41-.48.28-1.09.12-1.37-.36-.28-.48-.12-1.09.36-1.37,2.62-1.53,4.72-.06,5.47.93.33.44.25,1.07-.2,1.4-.18.14-.39.2-.6.2Z"/>
    <path class="cls-1" d="m128.95,46.98c-.39,0-.76-.23-.92-.62-.21-.51.03-1.1.54-1.31,3.22-1.34,5.77-.33,5.88-.29.51.21.76.79.55,1.3-.21.51-.79.76-1.3.55-.07-.03-1.93-.73-4.36.28-.13.05-.26.08-.38.08Z"/>
    <path class="cls-1" d="m145.71,48.65c-.3,0-.6-.13-.79-.39-.76-.98-2.24-2.01-4.99-1.31-.54.13-1.08-.19-1.22-.72-.14-.54.19-1.08.72-1.22,4.01-1.02,6.15.84,7.07,2.03.34.44.25,1.07-.18,1.4-.18.14-.4.21-.61.21Z"/>
    <path class="cls-1" d="m148.72,51.61c-.44,0-.82-.17-1.05-.35-.21-.17-.34-.41-.37-.68-.02-.17-.16-1.69,0-2.72-.04-.41-.86-2.24-1.79-4.06-.17.2-.41.33-.67.35-.26.02-.53-.06-.74-.23-.86-.72-1.97-1.81-2.91-2.77-.15.41-.38.85-.7,1.32-.24.35-.67.51-1.07.41-5.39-1.38-8.75-4.46-10.01-9.18-.05-.18-.04-.36,0-.54.68-2.35,2.42-4.01,4.89-4.66,4.2-1.1,9.64.85,13.87,4.99,4.15,4.06,4.21,11.06,3.23,14.78-.49,1.88-1.19,2.95-2.14,3.26-.19.06-.37.09-.55.09Zm-1.9-9.64c1.75,3.3,2.58,5.38,2.46,6.19-.02.11-.03.24-.04.37.08-.21.16-.47.24-.78.82-3.14.82-9.4-2.7-12.84-4.25-4.15-9.07-5.24-11.96-4.48-1.19.31-2.73,1.09-3.39,3.02,1.48,5.08,5.65,6.69,7.77,7.29.5-1.02.17-1.5.12-1.56h0c-.37-.4-.35-1.02.04-1.4.39-.38,1.01-.37,1.4.01,0,0,.01.01.03.03h0s2.16,2.33,3.84,3.88c.1-.12.2-.23.29-.33l.09-.12h.01c.59-.62.9-.65,1.44-.22.17.13.46.45.36.93Z"/>
    <path class="cls-1" d="m126.86,53.52c-.55,0-1-.44-1-.99l-.09-9.18c0-.32.14-.61.39-.81,2.65-2.01,5.05-4.4,5.15-5.12,0-.55.45-.99,1-.99s1,.46,1,1.01c0,1.79-3.3,4.65-5.54,6.38l.08,8.68c0,.55-.44,1-.99,1.01h0Z"/>
    <path class="cls-1" d="m125.75,51.61c-.31,0-.62-.15-.82-.42-1.58-2.22-4.23-11-.58-15.51,3.83-4.74,6.71-2.56,6.83-2.46.43.34.51.97.17,1.4-.34.43-.97.51-1.4.17-.04-.02-1.51-.97-4.03,2.15-2.8,3.45-.69,11.19.66,13.1.32.45.21,1.07-.24,1.39-.18.12-.38.18-.58.18Z"/>
    <path class="cls-1" d="m137.04,66.77c-1.6,0-3.09-.22-3.54-.33-.51-.13-1.35-.34-2.93-6.86-.08-.33.01-.68.25-.93.23-.25.58-.36.91-.29,3.31.63,9.84,0,9.91-.01.29-.03.57.07.78.26.21.2.33.47.32.76-.04,1.47-.35,6.33-2.77,7.06-.86.26-1.91.35-2.92.35Zm-2.81-2.22c.99.18,3.64.42,5.16-.04.53-.16,1.08-2,1.28-4.07-1.75.13-5.13.33-7.79.09.47,1.75,1.03,3.46,1.35,4.02Z"/>
    <path class="cls-1" d="m132.78,63.88c-.39,0-.76-.23-.92-.61-.22-.51.02-1.1.53-1.31,1.85-.78,7.1-.57,8.37.01.5.23.72.82.5,1.32-.23.5-.82.73-1.32.5-.76-.34-5.38-.57-6.76.01-.13.05-.26.08-.39.08Z"/>
    <path class="cls-1" d="m146.91,58.47c-.2,0-.39-.06-.57-.18-.46-.31-.57-.94-.26-1.39,1.43-2.08,2.94-4.88,2.89-5.79-.03-.55.39-1.02.95-1.05.52-.02,1.02.4,1.05.95.11,2.05-2.68,6.22-3.24,7.03-.19.28-.51.43-.83.43Z"/>
    <path class="cls-1" d="m126.77,58.27c-.33,0-.65-.16-.84-.46-.1-.16-2.5-3.92-2.14-7.72.05-.55.54-.97,1.09-.9.55.05.95.54.9,1.09-.3,3.11,1.81,6.41,1.83,6.45.3.46.17,1.08-.3,1.38-.17.11-.36.16-.54.16Z"/>
    <path class="cls-1" d="m127.04,70.87s-.03,0-.04,0c-.55-.02-.98-.49-.96-1.04l.34-8.09c.02-.54.46-.96,1-.96.01,0,.03,0,.04,0,.55.02.98.49.96,1.04l-.34,8.09c-.02.54-.46.96-1,.96Z"/>
    <path class="cls-1" d="m142.7,74.6c-.06,0-.11,0-.17-.01-.54-.09-.91-.61-.81-1.16l1.24-7.13c.09-.54.6-.91,1.16-.81.54.09.91.61.81,1.16l-1.24,7.13c-.08.49-.51.83-.98.83Z"/>
    <path class="cls-1" d="m135.81,76.36c-.98,0-1.99-.1-2.99-.3-6.13-1.25-8.07-6.3-7.49-9.49.1-.54.62-.91,1.16-.8.54.1.9.62.8,1.16-.44,2.39,1.11,6.19,5.92,7.17,5.04,1.03,9.61-1.12,10.33-3.73.15-.53.7-.85,1.23-.7.53.15.85.7.7,1.23-.9,3.28-5.01,5.46-9.66,5.46Z"/>
    <path class="cls-1" d="m132.15,146.07c-3.07,0-6.99-.48-8.36-1.42-.96-.66-5.49-.58-8.2-.53-.87.02-1.7.03-2.43.03-.98,0-1.92.23-2.83.45-2.22.54-4.74,1.16-7.33-2.07-3.25-4.04-4.16-5.91-4.05-8.33.08-1.8.67-3.94,1.3-6.21.15-.54.3-1.1.45-1.66.3-1.13.47-2.86.65-4.69.26-2.69.56-5.74,1.37-8.29l.09-.28c1.26-3.96,1.84-5.77,1.12-11.25-.24-1.86-.49-3.29-.69-4.44-.44-2.55-.71-4.08-.36-6.64.18-1.34.67-2.12,1.06-2.74.62-1,1.08-1.72-1.15-6.05-.99-1.92-1.46-2.52-1.65-2.71-1.19.09-1.62-.87-3.19-5.31-3.23-9.14-2.08-13.58-2.03-13.76.15-.53.7-.85,1.23-.7.53.15.85.7.7,1.23,0,.03-1,4.11,1.99,12.57.89,2.52,1.33,3.57,1.56,3.97.99.07,1.75,1.02,3.18,3.8,2.56,4.99,2.11,6.36,1.07,8.03-.33.53-.65,1.04-.77,1.95-.3,2.25-.07,3.59.35,6.03.2,1.17.45,2.62.7,4.52.78,5.93.12,8-1.19,12.12l-.09.28c-.75,2.34-1.03,5.28-1.29,7.87-.2,2-.37,3.72-.71,5.01-.15.57-.31,1.13-.46,1.68-.6,2.15-1.16,4.19-1.23,5.77-.08,1.67.41,3.01,3.61,6.99,1.8,2.24,3.19,1.9,5.3,1.38.98-.24,2.08-.51,3.3-.51.72,0,1.54-.02,2.4-.03,4.62-.09,7.99-.07,9.37.88,1.19.82,7.22,1.37,9.78.89,2.43-.45,6.56-2.39,6.6-2.41.16-.08.35-.11.53-.09l5.4.54c1.5-.98,3.16-2.11,3.42-2.36.35-.35,2.5-3.22,3.7-6.35,1.02-2.65-.03-5.68-1.15-8.88l-.3-.87c-.97-2.84-.19-11.72.71-20.02.11-.97.18-1.65.2-1.91.02-.32,0-.87-.04-1.51-.11-2.13-.29-5.69.86-8.91.12-.35.28-.7.47-1.05,1.91-3.49,6.57-5.71,7.42-6.09l4.4-3.47c.12-.1.27-.16.42-.19.14-.03,14.12-2.88,18.37-3.83,3.51-.78,5.17-1.55,6.62-2.23.29-.13.56-.26.84-.39.59-.28,1.27-3.16,1.41-5.94-.06-.54-.35-3.27.01-5.65.17-1.14.61-2.59,1.08-4.13.59-1.96,1.21-3.99,1.31-5.47.06-.88.07-1.7.08-2.42.02-1.65.04-2.96.6-4.05.9-1.75,1.78-4.16,1.71-5.56-.04-.79.12-2.27.31-3.99.2-1.77.51-4.63.38-5.63-.14.07-.3.18-.43.25-.45.28-1.01.62-1.69.8-1.18.32-3.59.08-5.76-.17-.4-.04-.7-.08-.82-.08-.2,0-.61,0-3.71-1.81l.3,1.79c.02.12.02.24,0,.35-.01.06-1.16,6.18-1.92,9.61-.26,1.17-.42,1.73-.54,2.15-.21.72-.24.85-.49,3.8-.24,2.9.07,3.72.58,5.09.25.68.54,1.45.83,2.58.94,3.74,0,5.13-.2,5.38-.11.14-.26.24-.42.3l-2.44.92c-1.01.51-3.34,1.63-4.3,1.66-.43,0-.82-.04-1.3-.1-.69-.08-1.47-.17-2.5-.12-1.57.08-5.67,1.89-8.04,3.8-2.75,2.22-4.06,1.93-5.88,1.2-1.24-.49-6.82-.24-7.76.35-.47.3-1.09.7-1.74,1.11-1.13.73-2.29,1.48-2.89,1.83-1.16.67-2.46-.12-3.71-.88-.39-.24-.8-.49-1.15-.66-.5-.24-.71-.84-.47-1.33.24-.5.84-.7,1.33-.47.45.21.89.49,1.33.75.53.33,1.46.85,1.72.84.5-.3,1.69-1.07,2.75-1.75.65-.42,1.28-.82,1.76-1.13,1.57-.99,7.86-1.19,9.57-.51,1.31.52,1.85.74,3.88-.9,2.52-2.03,7.07-4.14,9.19-4.24,1.2-.06,2.11.05,2.84.13.4.05.77.09,1.01.08.42-.03,2.15-.79,3.5-1.47.03-.02.07-.03.1-.04l2.12-.8c.1-.37.27-1.41-.25-3.46-.26-1.02-.52-1.73-.76-2.36-.55-1.46-.99-2.62-.7-5.96.26-3.05.31-3.29.56-4.18.11-.38.26-.92.51-2.03.68-3.07,1.68-8.34,1.88-9.37l-.64-3.75c-.07-.39.1-.77.42-.99.33-.22.74-.23,1.08-.03,1.88,1.13,4.16,2.43,4.7,2.64.19.01.5.05.89.09,1.23.14,4.12.46,5.02.22.39-.11.78-.34,1.15-.57.7-.43,2.01-1.24,3.05.05.63.79.57,2.5.04,7.25-.17,1.49-.33,3.03-.3,3.67.12,2.45-1.58,5.91-1.93,6.57-.34.67-.36,1.77-.38,3.16,0,.75-.02,1.59-.09,2.53-.12,1.7-.76,3.84-1.39,5.91-.44,1.47-.86,2.85-1.02,3.85-.36,2.32,0,5.15,0,5.18,0,.06,0,.12,0,.17-.09,2.03-.54,6.84-2.6,7.76-.27.12-.54.24-.81.37-1.47.69-3.31,1.54-7.04,2.37-3.96.88-16.32,3.41-18.17,3.79l-4.31,3.4c-.07.05-.14.1-.22.13-.05.02-4.85,2.11-6.58,5.27-.14.25-.25.51-.34.76-1.02,2.85-.85,6.03-.75,8.13.04.73.07,1.31.04,1.74-.02.27-.09.98-.2,2-.44,4.04-1.77,16.35-.81,19.16l.3.87c1.18,3.4,2.4,6.92,1.12,10.25-1.35,3.52-3.65,6.55-4.15,7.05-.51.51-3.22,2.28-4.04,2.81-.19.12-.42.18-.64.16l-5.48-.55c-.98.45-4.5,2.02-6.84,2.45-.73.14-1.77.2-2.92.2Zm59.23-116.22s.02,0,.03,0c-.01,0-.02,0-.03,0Z"/>
    <path class="cls-1" d="m155.82,91.85c-.16,0-.32-.04-.47-.12-.49-.26-.67-.86-.42-1.35,2.29-4.32,4.1-7.16,5.19-8.85.44-.69.86-1.35.93-1.53.2-.54.41-2.96.41-3.96,0-.55.45-1,1-1s1,.45,1,1c0,.75-.17,3.66-.54,4.66-.14.37-.46.88-1.12,1.9-1.07,1.67-2.85,4.47-5.1,8.71-.18.34-.53.53-.88.53Z"/>
    <path class="cls-1" d="m175.65,80.64c-.33,0-.64-.16-.84-.45-.3-.46-.17-1.08.29-1.39,2.32-1.52,3.72-4.62,4.1-6.33.12-.54.66-.87,1.19-.76.54.12.88.65.76,1.19-.42,1.88-1.93,5.58-4.95,7.57-.17.11-.36.16-.55.16Z"/>
    <path class="cls-1" d="m197.41,55.26c-.28,0-.56-.12-.75-.34-2.21-2.53-3.66-10.27-4.05-12.58l.98-.21h0s-.08-1-.08-1c.52-.06.99.37,1.08.88.73,4.28,2.1,9.89,3.59,11.59.36.42.32,1.05-.1,1.41-.19.17-.42.25-.66.25Z"/>
    <path class="cls-1" d="m189.37,62.77c-.55,0-1-.45-1-1h0s-.25-1.61-3.98-6.45c-.34-.44-.26-1.07.18-1.4.44-.34,1.07-.26,1.4.18,4.08,5.29,4.39,7.21,4.39,7.67,0,.55-.45,1-1,1Z"/>
    <path class="cls-1" d="m168.97,70.87c-.17,0-.35-.05-.51-.14-.47-.28-.63-.9-.35-1.37.1-.17,2.58-4.3,5.62-7.49.38-.4,1.02-.41,1.41-.04.4.38.42,1.01.04,1.41-2.89,3.04-5.33,7.1-5.35,7.14-.19.31-.52.49-.86.49Z"/>
    <path class="cls-1" d="m134.91,81.78c-1.04,0-2.03-.16-2.93-.49-4.57-1.66-7.97-6.13-9.5-9.45-.6-1.31-1.51-3.75-.87-5.44.47-1.23,1.28-1.69,1.87-1.86,1.76-.49,3.7.97,3.91,1.14.44.34.51.97.17,1.4s-.97.51-1.4.17c-.43-.33-1.53-.97-2.14-.78-.08.02-.33.09-.54.64-.2.53-.11,1.87.82,3.9,1.47,3.21,4.63,7.05,8.36,8.41,3.17,1.16,7.19-.55,9.89-2.53,2.7-1.98,4.53-4.53,4.46-6.2-.02-.55.41-1.02.96-1.04.55-.03,1.02.41,1.04.96.12,2.88-2.65,5.97-5.28,7.9-2.94,2.15-6.06,3.29-8.82,3.29Z"/>
    <path class="cls-1" d="m136.64,93.13h-4.32c-.29,0-.57-.13-.76-.35-.19-.22-.27-.52-.23-.8l1.76-11.35c.09-.55.59-.92,1.14-.83.55.08.92.6.83,1.14l-1.58,10.19h2.29l1.53-11.06c.08-.55.58-.94,1.13-.85.55.08.93.58.85,1.13l-1.65,11.93c-.07.49-.49.86-.99.86Z"/>
    <path class="cls-1" d="m143.32,104.71c-.18,0-.36-.05-.52-.15-.47-.29-.62-.9-.33-1.38,3.17-5.17,5.33-13.36,6.08-23.07.04-.55.5-.97,1.07-.92.55.04.96.52.92,1.07-.77,10.01-3.04,18.52-6.37,23.96-.19.31-.52.48-.85.48Z"/>
    <path class="cls-1" d="m126.77,121.37c-.22,0-.44-.07-.63-.22-.35-.29-8.67-7.24-13.1-26.5-.12-.54.21-1.08.75-1.2.54-.12,1.08.21,1.2.75,4.26,18.52,12.33,25.33,12.41,25.4.43.35.49.98.14,1.41-.2.24-.48.37-.77.37Z"/>
    <path class="cls-1" d="m115.93,134.58c-.29,0-.57-.12-.77-.36-.15-.19-3.79-4.66-7.26-14.67-.18-.52.1-1.09.62-1.27.52-.18,1.09.1,1.27.62,3.33,9.63,6.88,14.01,6.91,14.05.35.43.29,1.06-.14,1.41-.19.15-.41.23-.63.23Z"/>
    <path class="cls-1" d="m145.14,134.58c-.38,0-.75-.22-.92-.59-.22-.5,0-1.1.51-1.32.71-.46,6.03-6.52,8.44-15.06.15-.53.7-.84,1.23-.69.53.15.84.7.69,1.23-2.48,8.78-8.2,15.74-9.56,16.34-.13.06-.27.09-.41.09Z"/>
    <path class="cls-1" d="m132.32,130.75c-.28,0-.56-.12-.75-.34-.36-.42-.32-1.05.09-1.41.12-.11,12.03-10.63,14.27-20.81.12-.54.65-.88,1.19-.76.54.12.88.65.76,1.19-2.39,10.82-14.4,21.44-14.91,21.89-.19.17-.42.25-.66.25Z"/>
    <path class="cls-1" d="m121.3,88.91c-.34,0-.67-.17-.86-.49-.32-.53-7.81-13.18-7.42-21.15.03-.55.51-.99,1.05-.95.55.03.98.5.95,1.05-.36,7.36,7.06,19.9,7.14,20.02.28.47.13,1.09-.35,1.37-.16.1-.34.14-.51.14Z"/>
    <path class="cls-1" d="m99.3,75.75c-.15,0-.3-.03-.45-.11-.87-.43-1.95-.94-2.29-1.04h-.1c-3.93,0-7.48-.57-10.26-1.65-2.92-1.13-4.91-2.49-6.65-3.69-1.01-.7-1.97-1.35-3.03-1.92-.95-.51-1.57-.72-2.06-.89-1.26-.43-1.8-.76-2.98-2.66-2.02-3.26.58-12.62,1.8-15.12.69-1.41,1.25-6.36,1.71-10.34.33-2.9.64-5.64.99-7.08.83-3.44,1.85-7.86,1.85-7.86.09-.39.41-.69.8-.76.15-.03,3.62-.61,6.15.37,2.22.86,7.57,2.33,7.62,2.34.45.12.75.54.74,1.01,0,.14-.17,3.57-2.02,7.47-1.67,3.53-3.32,10.17-3.46,10.81-.06.31-.48,2.68-.63,3.6.66.71,2.73,2.63,3.31,3.05.64.4,5.77,1.87,6.48,1.97.67.1,6.92.96,7.48,1.03.53.07,1.25.52,4.71,3.26l.82.64c.51.39,2.53.54,4.09.44,5.86-.72,6.01-.68,6.27-.59.45.15.56.18,4.19,6.58.27.48.1,1.09-.38,1.36-.48.27-1.09.1-1.36-.38-1.26-2.22-2.68-4.66-3.26-5.59-.96.09-3.22.35-5.27.6-.72.05-4.13.22-5.51-.84l-.83-.66c-.98-.77-3.23-2.55-3.83-2.86-.95-.12-6.71-.92-7.43-1.03-.57-.09-6.38-1.63-7.35-2.33-.04-.03-4.18-3.33-4.18-4.39,0-.42.7-4.23.71-4.27.01-.07,1.72-7.29,3.61-11.28,1.18-2.49,1.6-4.77,1.75-5.92-1.61-.45-5.21-1.48-7.01-2.19-1.44-.56-3.43-.46-4.44-.35-.32,1.37-1.06,4.57-1.7,7.2-.32,1.32-.62,4-.95,6.84-.52,4.56-1.05,9.28-1.9,10.99-1.39,2.84-3.21,11.07-1.9,13.19.91,1.47,1.08,1.53,1.93,1.82.53.18,1.26.43,2.35,1.01,1.16.62,2.16,1.3,3.22,2.03,1.74,1.19,3.53,2.43,6.24,3.47,1.78.69,4.88,1.5,9.54,1.51.13,0,.21,0,.25,0,.18,0,.57.02,3.03,1.25.49.25.69.85.45,1.34-.18.35-.53.55-.9.55Zm4.61-19.5h0,0Z"/>
    <path class="cls-1" d="m85.9,72.75c-.26,0-.51-.1-.71-.29-4.07-4.07-6.37-6.45-6.45-8.18-.06-1.35-.82-7.71-.82-7.78-.07-.55.33-1.05.88-1.11.55-.06,1.05.33,1.11.88.03.26.77,6.5.84,7.92.05,1.03,3.41,4.4,5.87,6.86.39.39.39,1.02,0,1.41-.2.2-.45.29-.71.29Z"/>
    <path class="cls-1" d="m89.06,58.91c-.41,0-.8-.26-.94-.67-.02-.05-1.75-4.94-3.18-9.97-.15-.53.16-1.08.69-1.24.53-.15,1.08.16,1.24.69,1.41,4.96,3.12,9.79,3.14,9.84.18.52-.09,1.09-.61,1.28-.11.04-.22.06-.33.06Z"/>
    <path class="cls-1" d="m82.31,24.76c-.2,0-.41-.06-.58-.19-.45-.32-.55-.95-.23-1.39h0s1.2-1.7,1.35-3.5c.19-2.24.53-6.13.73-6.92.15-.61,3.07-5.66,4.59-5.76.92-.09,10.9,2.59,11.51,3.05.73.55,1.87,3.74,1.19,4.93-.44.78-1.26,1.74-1.3,1.79-.36.42-.99.47-1.41.11-.42-.36-.47-.99-.11-1.41.19-.23.74-.9,1.04-1.4.05-.47-.38-1.86-.66-2.4-1.37-.47-8.43-2.37-9.99-2.64-.77.7-2.72,3.62-2.94,4.25-.11.42-.38,3.08-.67,6.58-.2,2.36-1.66,4.41-1.72,4.5-.2.27-.5.42-.81.42Zm16.82-10.75s0,0,0,0c0,0,0,0,0,0Zm-.77-2.47h0Zm-9.78-2.62h0Z"/>
    <path class="cls-1" d="m90.77,25.58c-.16,0-.28-.01-.34-.03-.25-.08-.49-.16-3.69-3.46-.38-.4-.38-1.03.02-1.41.4-.39,1.03-.38,1.41.02,1.09,1.12,2.38,2.42,2.91,2.89,1.03-.1,4.31-.59,5.28-.75.3-.3.97-1,1.53-1.59.72-.93,1.85-2.51,2.22-3.27-.4-.52-1.75-1.43-2.45-1.77-.2.2-.44.44-.58.61.04.45.14,1.43.24,2.32.06.55-.34,1.04-.89,1.1-.55.07-1.04-.34-1.1-.89-.18-1.67-.27-2.6-.27-2.77,0-.92,1.7-2.25,1.72-2.26.3-.23.92-.69,3.43,1.11,1.58,1.14,2.19,2.08,1.9,2.95-.39,1.16-2.31,3.67-2.7,4.16-1.91,2.05-2.02,2.09-2.28,2.18-.04.01-4.9.87-6.35.87Zm7.2-9.67h0s0,0,0,0Z"/>
    <path class="cls-1" d="m88.21,18.71c-.22,0-.44-.07-.63-.2-1.22-.81-1.38-4.65-1.38-4.81-.02-.55.41-1.02.96-1.04.54-.05,1.02.41,1.04.96.04,1.1.21,2,.36,2.6.33-.34.65-.78.67-1.17.03-1.02-.22-4.27-.31-5.44-.05-.55.36-1.04.91-1.08.57-.06,1.04.36,1.08.91.02.18.37,4.33.32,5.68-.06,1.9-2.11,3.32-2.63,3.51-.12.05-.25.07-.38.07Z"/>
    <path class="cls-1" d="m91.56,18.08c-.26,0-.52-.03-.77-.06-.2-.02-.41-.05-.63-.06-.55-.03-.97-.5-.94-1.05.03-.55.51-.99,1.05-.94.26.01.52.04.76.08.08,0,.17.02.25.03.24-.62.67-1.84.75-2.38.09-.55.13-3.08.14-4.54,0-.55.45-1,1-1h0c.55,0,1,.45,1,1,0,.4-.03,3.96-.17,4.84-.14.9-.91,3.07-1.21,3.52-.3.46-.76.57-1.24.57Z"/>
    <path class="cls-1" d="m94.74,18.31c-.49,0-1.01-.29-1.85-.82-.47-.29-.61-.91-.31-1.38.29-.47.91-.61,1.38-.31.15.09.27.17.38.23.24-.65.62-1.67.96-2.63l.33-3.42c.05-.55.52-.96,1.09-.9.55.05.95.54.9,1.09l-.34,3.54c0,.08-.03.17-.05.24-.55,1.53-1.24,3.41-1.37,3.67-.22.42-.54.58-.77.64-.11.03-.22.04-.33.04Z"/>
    <path class="cls-1" d="m88.62,27.37c-.26,0-.51-.1-.71-.29-.39-.39-.39-1.02,0-1.41l1.87-1.87c.39-.39,1.02-.39,1.41,0s.39,1.02,0,1.41l-1.87,1.87c-.2.2-.45.29-.71.29Z"/>
    <path class="cls-1" d="m196.98,31.95h-.03c-.55-.01-.99-.47-.97-1.02,0-.11.08-2.63,1.34-4.62,1.88-2.96,3.26-5.24,3.45-5.67.2-.6.41-4.14.21-5.14-1.25-.66-8.16-3.46-9.56-3.91-.55.26-1.74,1.11-1.97,1.51-.07.58-.04,1.45-.02,1.75.03.55-.39,1.02-.94,1.06-.52.04-1.02-.39-1.06-.94,0-.05-.08-1.32.04-2.21.19-1.36,3.02-3.21,3.93-3.21h0c.76,0,10.33,3.93,11.01,4.52,1.16,1,.43,6.79.18,7.37-.32.75-2.39,4.06-3.6,5.96-.96,1.52-1.03,3.58-1.03,3.6-.02.54-.46.97-1,.97Zm3.96-16.62h0Zm-9.37-3.82h0Z"/>
    <path class="cls-1" d="m189.84,27.53c-.23,0-.31-.03-.4-.06-.7-.24-4.81-4.67-4.83-4.71-.15-.22-.22-.32-.5-3.02-.01-.71-.03-3.88.36-5.04.29-.87,1.33-1.26,3.29-1.2,3.09.07,3.3.83,3.41,1.19,0,.02.56,2.11,0,2.84-.1.14-.74.83-1.89,2.05-.38.4-1.01.42-1.41.04-.4-.38-.42-1.01-.04-1.41.61-.65,1.27-1.36,1.59-1.71,0-.22-.05-.56-.09-.84-.76-.16-2.38-.24-3.02-.07-.16.83-.21,2.77-.2,4.03.08.75.19,1.7.25,2.11.57.61,2.97,3.06,3.75,3.78.7-.06,2.52-.31,4.06-.55.54-.08,1.06.29,1.14.84.08.55-.29,1.06-.84,1.14-3.05.47-4.16.58-4.63.58Z"/>
    <path class="cls-1" d="m196.03,23.59s-.04,0-.07,0c-.37-.02-.7-.21-.89-.52-.29-.47-1.06-2.84.03-4.38.77-1.1,3.56-4.2,3.68-4.33.37-.41,1-.44,1.41-.07.41.37.44,1,.07,1.41-.78.87-2.95,3.32-3.54,4.15-.22.31-.23.85-.17,1.33.49-.38,1.16-1,1.86-1.85.35-.43.98-.49,1.41-.14.43.35.49.98.14,1.41-.1.12-2.48,3-3.94,3Z"/>
    <path class="cls-1" d="m194.79,21.75c-.19,0-.39-.06-.56-.17-.18-.12-.37-.23-.54-.33-.63-.37-1.35-.78-1.3-1.62.03-.53.73-2.73,1.16-3.53.42-.79,2.55-3.64,2.79-3.96.33-.44.96-.53,1.4-.2.44.33.53.96.2,1.4-.88,1.17-2.37,3.21-2.63,3.7-.26.48-.65,1.69-.83,2.35.07.04.15.09.21.12.21.12.44.25.65.4.46.31.58.93.27,1.39-.19.29-.51.44-.83.44Z"/>
    <path class="cls-1" d="m192.43,19.57s-.06,0-.09,0c-1.21-.11-1.83-.21-2.21-.7-.15-.19-.31-.52-.23-.98.05-.29.64-2.2,1.12-3.75.03-.08.06-.16.1-.23l1.87-3.03c.29-.47.9-.62,1.38-.33.47.29.62.91.33,1.38l-1.8,2.92c-.3.97-.62,2-.82,2.68.12.01.27.03.44.04.55.05.96.53.91,1.08-.04.52-.48.91-1,.91Z"/>
    <path class="cls-1" d="m190.38,30.23c-.49,0-.92-.36-.99-.86l-.36-2.61c-.08-.55.31-1.05.85-1.13.56-.09,1.05.31,1.13.85l.36,2.61c.08.55-.31,1.05-.85,1.13-.05,0-.09,0-.14,0Z"/>
    <path class="cls-1" d="m123.24,183.38c-1.33,0-3.05-.07-5.67-.26-8.57-.64-20.67-4.23-21.18-4.38-.31-.09-.56-.33-.66-.64-.23-.71-.13-4.13-.05-6.1.2-4.86,4.02-25.04,8.28-30.81.33-.44.95-.54,1.4-.21s.54.95.21,1.4c-3.8,5.15-7.69,24.92-7.89,29.7-.12,2.85-.1,4.26-.07,4.93,2.64.75,12.87,3.57,20.12,4.12,4.94.37,6.6.26,8.53.14,1.41-.09,3.01-.19,6.08-.14,7.63.12,24.36-.65,26.22-1.35.8-.74,3.27-3.62,4.56-5.13l-12.69-34.02c-.19-.52.07-1.09.59-1.29.52-.19,1.09.07,1.29.59l12.89,34.56c.13.34.06.72-.17.99-.42.5-4.17,4.94-5.22,5.85-1.62,1.41-23.59,1.84-27.5,1.78-2.99-.05-4.54.05-5.92.14-.97.06-1.88.12-3.14.12Zm35.37-3.63h0s0,0,0,0Z"/>
    <path class="cls-1" d="m123.52,162.33c-.52,0-.96-.4-1-.92-.11-1.39-.91-13.71,3-17.62.39-.39,1.02-.39,1.41,0s.39,1.02,0,1.41c-2.77,2.77-2.69,12.53-2.42,16.06.04.55-.37,1.03-.92,1.07-.03,0-.05,0-.08,0Z"/>
    <path class="cls-1" d="m135.2,156.45c-.42,0-.82-.27-.95-.7-.02-.07-2.36-7.29-5.04-9.98-.39-.39-.39-1.02,0-1.41s1.02-.39,1.41,0c3.03,3.03,5.43,10.46,5.53,10.78.17.53-.12,1.09-.65,1.26-.1.03-.2.05-.3.05Z"/>
    <path class="cls-1" d="m120.39,177.71c-.25,0-.5-.09-.69-.27-.55-.52-13.5-12.9-15.79-22.42-.13-.54.2-1.08.74-1.21.54-.12,1.08.2,1.21.74,2.15,8.95,15.09,21.31,15.22,21.44.4.38.42,1.01.04,1.41-.2.21-.46.31-.73.31Z"/>
    <path class="cls-1" d="m155.82,174.97c-.09,0-.17-.01-.26-.03-.54-.15-13.3-3.67-21.87-12.92-.38-.41-.35-1.04.05-1.41.4-.38,1.04-.35,1.41.05,8.18,8.83,20.8,12.32,20.93,12.35.53.14.85.69.71,1.23-.12.45-.52.74-.96.74Z"/>
    <path class="cls-1" d="m156.57,283.71c-.95,0-1.04-.24-1.17-.6-.09-.24-.08-.5.02-.73-.08-.49-.5-1.75-.85-2.79-.84-2.51-1.89-5.64-1.96-8-.05-1.48-.35-3.68-.7-6.23-.56-4.06-1.25-9.12-1.17-13.43.12-6.7-.58-9.62-1.32-12.71-.75-3.11-3.48-8.46-6.38-11.6-2.77-2.99-3.01-9.9-3.15-14.03-.03-.85-.05-1.58-.1-2-.22-2.12-3.83-11.01-6.17-14.22-2.5-3.42-4.01-8.27-5.65-14.99-.13-.54.2-1.08.74-1.21.53-.13,1.08.2,1.21.74,1.58,6.48,3.02,11.13,5.32,14.28,2.44,3.33,6.26,12.55,6.54,15.19.05.49.08,1.22.11,2.14.12,3.6.35,10.29,2.62,12.74,3.22,3.48,6.06,9.15,6.84,12.41.76,3.17,1.52,6.35,1.4,13.3-.08,4.16.61,9.13,1.15,13.12.36,2.61.67,4.86.71,6.44.07,2.07,1.1,5.17,1.86,7.43.4,1.19.69,2.07.84,2.73,2.69-.35,10.5-1.61,15.98-2.53-.06-8.74-.29-21.58-.71-23.3-.46-1.88-.73-3.57-1.31-7.28-.22-1.39-.48-3.08-.82-5.18-.62-3.87-1.24-6.31-1.78-8.46-.52-2.05-.96-3.83-1.22-6.17-.23-2.12-1.64-5.93-3.01-9.62-1.53-4.12-2.97-8.02-2.97-10.05,0-1.04.07-2.66.15-4.53.19-4.31.47-10.81-.11-12.89-.86-3.06-3.28-10.71-3.3-10.79-.17-.53.12-1.09.65-1.25.53-.17,1.09.13,1.25.65.02.08,2.46,7.76,3.32,10.85.67,2.39.4,8.56.19,13.52-.08,1.85-.15,3.44-.15,4.44,0,1.67,1.45,5.58,2.85,9.35,1.41,3.8,2.87,7.73,3.13,10.1.24,2.21.65,3.84,1.17,5.9.52,2.08,1.18,4.67,1.81,8.63.34,2.1.6,3.79.82,5.19.59,3.75.83,5.31,1.28,7.11.63,2.57.76,22.37.78,24.62,0,.49-.35.91-.83.99-11.91,2-16.23,2.72-17.89,2.72Zm-1.14-1.21h.01-.01Z"/>
    <path class="cls-1" d="m124.82,282.25s-.03,0-.04,0l-18.31-.72c-.4-.02-.75-.26-.89-.63-.67-1.7-2.82-7.39-2.55-9.22.22-1.49-.37-14.01-.63-16.09-.05-.4-.17-1.22-.32-2.3-.63-4.48-1.81-12.81-1.81-15.74,0-2.41-2.24-9.44-3.57-13.64-.65-2.05-1-3.14-1.1-3.63-.38-1.87-1.17-25.34-1.06-28.77.06-1.75.6-3.27,1.18-4.89.73-2.03,1.56-4.34,1.56-7.67,0-.55.45-1,1-1s1,.45,1,1c0,3.67-.89,6.15-1.67,8.34-.55,1.52-1.02,2.84-1.07,4.28-.12,3.76.7,26.77,1.02,28.3.08.41.53,1.81,1.05,3.43,1.46,4.59,3.67,11.52,3.67,14.24s1.21,11.35,1.79,15.46c.16,1.09.27,1.92.32,2.33.26,2.11.89,14.78.62,16.63-.12.83,1.01,4.46,2.2,7.59l16.52.65c-.28-3.14-1.06-11.94-1.32-15.3-.12-1.61-.69-4.72-1.28-8.02-.95-5.23-1.93-10.64-1.72-12.86.16-1.7-.32-3.71-.82-5.83-.46-1.94-.98-4.14-1.1-6.46-.06-1.24-.21-2.47-.36-3.65-.4-3.32-.82-6.75.52-11.06,1.45-4.67,2.76-10.79,3.63-14.84.17-.79.32-1.51.46-2.15.86-3.93,3.49-17.71,3.52-17.85.1-.54.63-.89,1.17-.79.54.1.9.63.79,1.17-.03.14-2.67,13.95-3.53,17.91-.14.63-.29,1.35-.46,2.14-.87,4.08-2.19,10.25-3.67,15.01-1.21,3.9-.84,6.97-.45,10.22.15,1.21.3,2.47.37,3.78.11,2.13.59,4.15,1.05,6.1.54,2.29,1.05,4.46.87,6.48-.18,1.95.86,7.7,1.7,12.32.61,3.35,1.18,6.51,1.31,8.22.32,4.08,1.4,16.28,1.42,16.41.03.29-.07.57-.27.78-.19.2-.45.31-.72.31Z"/>
    <path class="cls-1" d="m109.38,211.48c-.12,0-.25-.02-.37-.07-.51-.21-.76-.79-.56-1.3.02-.06,2.32-5.78,8.48-20.33.22-.51.8-.74,1.31-.53.51.22.75.8.53,1.31-6.15,14.52-8.44,20.23-8.46,20.29-.16.39-.53.63-.93.63Z"/>
    <path class="cls-1" d="m111.99,256.29c-.13,0-.26-.03-.39-.08-.51-.21-.75-.8-.53-1.31.04-.09,3.99-9.43,4.48-10.65.1-.34.13-2.12.17-3.85.09-4.69.25-12.55,1.78-20.03.11-.54.64-.89,1.18-.78.54.11.89.64.78,1.18-1.49,7.3-1.65,15.04-1.74,19.67-.06,2.95-.09,4-.31,4.55-.5,1.24-4.33,10.3-4.49,10.69-.16.38-.53.61-.92.61Z"/>
    <path class="cls-1" d="m104.39,237.57c-.39,0-.77-.24-.93-.62-.02-.06-2.53-6.21-7.41-15.16-.26-.48-.09-1.09.4-1.36.48-.26,1.09-.09,1.36.4,4.94,9.05,7.49,15.3,7.51,15.37.21.51-.04,1.09-.55,1.3-.12.05-.25.07-.38.07Z"/>
    <path class="cls-1" d="m117.35,273.58c-.14,0-.28-.03-.42-.09-.5-.23-.72-.83-.49-1.33.13-.28.36-.66.7-1.23,1.08-1.8,3.34-5.55,5.31-11.22.18-.52.75-.8,1.27-.62.52.18.8.75.62,1.27-2.04,5.88-4.37,9.74-5.49,11.6-.29.48-.52.86-.6,1.04-.17.36-.53.58-.91.58Z"/>
    <path class="cls-1" d="m155.82,237.57c-.3,0-.61-.14-.8-.4l-5.63-7.54c-.23-.2-.89-.77-1.8-1.58-.48-.43-4.81-4.57-7.98-17.33-.13-.54.19-1.08.73-1.21.53-.13,1.08.19,1.21.73,3.08,12.39,7.2,16.16,7.37,16.32,1.11.99,1.85,1.62,1.85,1.62.06.05.11.1.15.16l5.7,7.63c.33.44.24,1.07-.2,1.4-.18.13-.39.2-.6.2Z"/>
    <path class="cls-1" d="m166.07,242.87c-.25,0-.49-.09-.68-.27-.4-.38-.42-1.01-.05-1.41.42-.45,1.62-1.83,2.08-2.74.27-.56.17-3.38.06-6.1-.08-2.15-.17-4.59-.17-7.29,0-.55.45-1,1-1s1,.45,1,1c0,2.66.09,5.08.17,7.21.16,4.21.2,6.11-.27,7.07-.68,1.36-2.34,3.14-2.41,3.21-.2.21-.46.32-.73.32Z"/>
    <path class="cls-1" d="m162.08,219.58c-.09,0-.17-.01-.26-.03-.53-.14-.85-.69-.71-1.22,0-.02.48-1.88.78-6.79.03-.55.52-.96,1.06-.94.55.03.97.51.94,1.06-.31,5.16-.82,7.1-.84,7.18-.12.45-.52.74-.96.74Z"/>
    <path class="cls-1" d="m163.58,272.15c-.27,0-.54-.11-.74-.32-.28-.31-6.89-7.5-7.8-8.64-1.16-1.43-3.48-10.27-4.32-15.07-.1-.54.27-1.06.81-1.16.54-.1,1.06.27,1.16.81.95,5.37,3.21,13.26,3.91,14.16.87,1.08,7.65,8.46,7.71,8.54.37.41.35,1.04-.06,1.41-.19.18-.43.26-.68.26Z"/>
    <path class="cls-1" d="m171.55,263.94c-.13,0-.27-.03-.4-.08-.51-.22-.74-.81-.52-1.31l2.74-6.36c.22-.51.81-.74,1.31-.52.51.22.74.81.52,1.31l-2.74,6.36c-.16.38-.53.6-.92.6Z"/>
    <path class="cls-1" d="m156.47,199.64c-.55,0-1-.45-1-1-.03-.64-1.58-11.67-3.33-16.89-.18-.52.11-1.09.63-1.27.52-.17,1.09.11,1.27.63,1.81,5.38,3.44,16.75,3.44,17.52,0,.55-.45,1-1,1Z"/>
    <path class="cls-1" d="m99.28,204c-.48,0-.9-.35-.99-.83-.03-.16-2.21-17.46-1.2-21.55.13-.54.67-.86,1.21-.73.54.13.86.67.73,1.21-.82,3.33,1,19.39,1.23,20.74.09.54-.28,1.06-.82,1.15-.06,0-.11.01-.17.01Z"/>
    <path class="cls-1" d="m99.54,301.46c-2.8,0-5.48-.3-7.42-1.88-1.37-1.12-2.17-2.52-2.3-4.05-.13-1.52.41-3.08,1.54-4.4,1.89-2.22,11.53-7.21,15.57-5.85.6.2,1.27.47,1.98.76,1.56.63,3.34,1.35,5.04,1.56,2.1.26,4.94-1.1,5.61-1.55.02-.09.05-.21.07-.33.19-.88.49-2.21,1.65-2.66.78-.3,1.67-.1,2.69.63,3.42,2.41,2.65,8.61,2.64,8.67-.13.66-3,5.07-7.74,5.71-1.76.24-4.12.85-6.62,1.5-3.29.86-6.7,1.74-8.97,1.8l-1.21.04c-.84.03-1.7.05-2.54.05Zm5.7-14.43c-3.58,0-10.84,3.62-12.36,5.4-.79.92-1.15,1.93-1.07,2.92.09.98.63,1.9,1.58,2.68,1.93,1.59,5.33,1.48,8.62,1.38l1.23-.04c2.04-.05,5.33-.91,8.51-1.73,2.55-.67,4.97-1.29,6.85-1.55,3.41-.46,5.69-3.54,6.06-4.21.12-.97.23-5.1-1.84-6.56-.59-.42-.83-.39-.83-.39-.17.13-.34.92-.41,1.22-.11.5-.2.9-.48,1.2-.64.7-4.53,2.59-7.41,2.23-1.96-.24-3.87-1.01-5.54-1.69-.67-.27-1.3-.53-1.86-.72h0c-.3-.1-.65-.14-1.05-.14Z"/>
    <path class="cls-1" d="m106.62,287.23c-.05,0-.11,0-.17-.01-.54-.09-.91-.61-.82-1.15l.89-5.3c.09-.54.6-.91,1.15-.82.54.09.91.61.82,1.15l-.89,5.3c-.08.49-.51.83-.99.83Z"/>
    <path class="cls-1" d="m121.87,284.58s-.08,0-.12,0c-.55-.07-.94-.57-.87-1.12l.38-3.05c.07-.55.56-.93,1.12-.87.55.07.94.57.87,1.12l-.38,3.05c-.06.51-.49.88-.99.88Z"/>
    <path class="cls-1" d="m177.66,303.19c-3.28,0-6.87-.46-8.56-1.18-3.32-1.41-7.08-3.72-9.59-5.89-2.64-2.28-3.15-5.42-2.79-6.26.68-1.6,1.5-2.53,2.43-2.8-.1-1.47.28-3.28.62-4.54.14-.53.7-.85,1.23-.71.53.14.85.69.71,1.23-.5,1.88-.71,3.97-.46,4.54.03.02.06.05.09.08.21.12.42.25.63.38,1.2.74,1.62.94,2.39.13,1.63-1.7,5.27-4.14,7.06-4.14.03,0,.06,0,.09,0,.24.02.55,0,.91-.01,1.74-.06,4.36-.15,5.94,1.44,1.67,1.69,6.11,7.47,6.74,8.59.78,1.39.53,6.21-.96,7.86-.82.91-3.52,1.29-6.48,1.29Zm-19.06-12.64c0,.54.45,2.52,2.22,4.06,2.33,2.01,5.97,4.25,9.07,5.56,3.12,1.32,11.75,1.23,12.79.38.88-.97,1.05-4.82.68-5.52-.5-.89-4.81-6.55-6.41-8.16-.96-.97-3.06-.9-4.45-.85-.43.01-.8.02-1.08.01,0,0-.02,0-.03,0-.8,0-3.87,1.74-5.59,3.53-1.93,2-3.78.87-4.88.19-.21-.13-.42-.26-.62-.37-.02,0-.03-.02-.05-.03-.16-.09-.3-.2-.42-.33-.05-.03-.08-.03-.09-.04,0,0-.5.13-1.13,1.58Zm-.03.06h0s0,0,0,0Z"/>
    <path class="cls-1" d="m106.3,300.32c-.12,0-.24-.02-.36-.07-1.28-.5-12.6-4.94-14.86-7.37-.38-.4-.35-1.04.05-1.41.4-.38,1.04-.36,1.41.05,1.48,1.59,9.26,4.98,14.12,6.87.51.2.77.78.57,1.29-.15.4-.53.64-.93.64Z"/>
    <path class="cls-1" d="m116.19,297.76c-.07,0-.14,0-.21-.02-.43-.09-10.53-2.35-17.91-8.37-.43-.35-.49-.98-.14-1.41.35-.43.98-.49,1.41-.14,7,5.71,16.97,7.95,17.07,7.97.54.12.88.65.76,1.19-.1.47-.52.79-.98.79Z"/>
    <path class="cls-1" d="m124.23,294.19c-.06,0-.12,0-.17-.01-.41-.07-10.13-1.81-14.56-5.38-.43-.35-.5-.98-.15-1.41.35-.43.97-.5,1.41-.15,4.02,3.24,13.56,4.95,13.65,4.96.54.1.91.61.81,1.16-.09.49-.51.83-.98.83Z"/>
    <path class="cls-1" d="m125.13,289.59c-.08,0-1.96-.01-5.5-.99-.53-.15-.84-.7-.7-1.23s.7-.84,1.23-.7c3.24.9,4.95.92,4.97.92.55,0,1,.45,1,1,0,.55-.45,1-1,1Z"/>
    <path class="cls-1" d="m158.16,293.68c-.55,0-1-.45-1-1,0-.46.31-.84.73-.96.15-.07.91-.48,3.45-2.45.44-.34,1.07-.26,1.4.18.34.44.26,1.07-.18,1.4-3.65,2.83-4.11,2.83-4.41,2.83Z"/>
    <path class="cls-1" d="m160.64,296.76c-.27,0-.54-.11-.74-.33-.37-.41-.34-1.04.07-1.41.01-.01,1.71-1.61,5.62-7.46.31-.46.93-.58,1.39-.27.46.31.58.93.27,1.39-4.11,6.13-5.87,7.76-5.94,7.82-.19.17-.43.26-.67.26Z"/>
    <path class="cls-1" d="m163.53,298.59c-.27,0-.54-.11-.74-.33-.37-.41-.34-1.04.07-1.41.08-.07,8.15-7.45,11.37-11.91.32-.45.95-.55,1.4-.22.45.32.55.95.22,1.4-3.34,4.63-11.31,11.91-11.65,12.22-.19.17-.43.26-.67.26Z"/>
    <path class="cls-1" d="m167.61,300.95c-.29,0-.57-.12-.77-.36-.35-.42-.3-1.05.13-1.41l11.2-9.35c.42-.35,1.05-.3,1.41.13s.3,1.05-.13,1.41l-11.2,9.35c-.19.16-.41.23-.64.23Z"/>
    <path class="cls-1" d="m175.04,302.74c-.23,0-.47-.08-.66-.25-.42-.36-.46-1-.1-1.41.05-.06,5.17-5.94,6.76-9.06.25-.49.85-.69,1.34-.44.49.25.69.85.44,1.34-1.7,3.33-6.81,9.22-7.03,9.47-.2.23-.48.34-.75.34Z"/>
    <path class="cls-1" d="m173.21,285.64c-.44,0-.85-.3-.97-.75l-.98-3.7c-.14-.53.18-1.08.71-1.22.53-.14,1.08.18,1.22.71l.98,3.7c.14.53-.18,1.08-.71,1.22-.08.02-.17.03-.26.03Z"/>
    <path class="cls-1" d="m124.45,61.53c-.23,0-.46-.08-.64-.23-.27-.22-.4-.56-.35-.91.6-4.32.9-4.81,1-4.97.28-.47.9-.63,1.37-.34.46.27.62.86.37,1.32-.11.29-.32,1.42-.52,2.67l.77-.26c.53-.17,1.09.11,1.26.63.17.52-.11,1.09-.63,1.26l-2.32.77c-.1.03-.21.05-.31.05Z"/>
    <path class="cls-1" d="m140.06,39.51c-.27,0-.54-.11-.74-.32-1.96-2.14-5.56-5.73-6.91-6.26-.51-.2-.77-.78-.56-1.3.2-.52.79-.76,1.3-.56,2.21.87,7.1,6.16,7.65,6.76.37.41.35,1.04-.06,1.41-.19.18-.43.26-.68.26Z"/>
    <path class="cls-1" d="m146.19,41.28c-.1,0-.21-.02-.32-.05-.36-.12-.6-.42-.67-.76-.28-.81-2.82-6.01-6.68-7.86-.5-.24-.71-.83-.47-1.33.24-.5.84-.71,1.33-.47,4.55,2.18,8.1,8.71,7.75,9.79-.14.42-.53.68-.95.68Z"/>
  </g>
</svg>
