<?xml version="1.0" encoding="UTF-8"?>
<svg id="Layer_1" data-name="Layer 1" xmlns="http://www.w3.org/2000/svg" viewBox="0 0 677.07 533.16">
  <defs>
      <style>
          :root { fill:#222 }
          .accent { fill: #f9322c; }
          .cls-3 { stroke: #222; }

          @media (prefers-color-scheme: dark) {
          :root {  fill: #f9322c; }
          .accent { fill:#dee2e6; }
          .cls-3 { stroke: #f9322c; }
          }

          .cls-1, .cls-2 {
          stroke-width: 0px;
          }

          .cls-2 {
          fill: #ff2d20;
          }

          .cls-3 {
          fill: none;
          stroke-linecap: round;
          stroke-linejoin: round;
          stroke-width: 2px;
          }
      </style>
  </defs>
  <path class="accent" d="m359.63,307.55c-.86,1.62-.72,6.07,1.82,10.43s13.6,9.1,15.85,8.9l.27-3.16s-15.69-1.58-16.16-15.75l-1.77-.42Z"/>
  <path class="accent" d="m290.16,271.48c4.79.38,13.95-3.35,13.95-3.35l-1.31-3.86s-9.67,3.54-12.26,3l-.38,4.21Z"/>
  <path class="cls-1" d="m667.29,300.79c-.43,0-.83-.28-.96-.72-.19-.66-.2-3.07,5.87-9.12-5.81,3.09-7.38,8.62-7.4,8.69-.11.39-.44.68-.84.73-.41.05-.8-.15-1-.51-.29-.52-2.5-5.36,2.11-24.63-3.24,6.04-4.4,13.74-5.08,18.33-.53,3.52-.65,4.36-1.6,4.59-.46.11-.92-.07-1.22-.49-.34-.47-1.54-1.77-3.1-3.39.71,1.62,1.32,3.4,1.72,5.31.11.54-.23,1.07-.77,1.19-.55.11-1.07-.23-1.19-.77-1.24-5.89-4.63-10.46-6.87-12.96-.85-.85-1.6-1.6-2.17-2.17-.38-.38-.39-.99-.03-1.38.36-.39.97-.43,1.38-.09.11.09,1.12.95,2.46,2.46,2.74,2.76,7.03,7.09,9.1,9.38.1-.58.2-1.27.3-1.96.9-6.01,2.57-17.2,8.64-23.74.31-.34.81-.42,1.22-.2.4.22.6.69.48,1.13-3.85,14.38-4.31,21.9-4.11,25.52,1.69-2.96,5.19-7.14,11.96-8.57.45-.09.9.12,1.1.53.21.41.11.9-.23,1.2-8.45,7.48-8.78,10.27-8.79,10.49.08.49-.22.98-.71,1.12-.09.03-.19.04-.28.04Zm.99-1.15h0Zm-.02-.12h0Zm0,0h0s0,0,0,0Zm0,0h0s0,0,0,0Z"/>
  <path class="cls-1" d="m433.52,300.79c-.48,0-.9-.34-.98-.83-.16-.92.65-3.56,10.07-9.54-7.6,2.32-11.29,5.67-11.34,5.72-.26.24-.63.33-.97.22-.34-.1-.6-.38-.68-.73l-.72-3.13-4.72,5.08c-.18.2-.44.31-.71.32-.26,0-.53-.1-.72-.29l-2.73-2.68c.85,1.12,1.79,2.35,2.82,3.7.34.44.25,1.07-.19,1.4-.44.34-1.07.25-1.4-.19-8.22-10.75-10.29-13.81-10.38-13.94-.29-.43-.2-1,.19-1.33.39-.33.97-.3,1.34.06l11.01,10.82,5.3-5.7c.25-.27.63-.38.99-.29.36.09.63.38.72.74l.79,3.43c2.36-1.71,7.98-5.08,17.22-6.62.47-.09.94.19,1.11.65.16.46-.03.96-.45,1.2-13.33,7.61-14.47,10.59-14.56,10.92,0,.48-.34.9-.83.98-.06.01-.12.02-.17.02Zm.99-1.17h0s0,0,0,0Zm0,0h0s0,0,0,0Z"/>
  <path class="cls-1" d="m656.59,301.78c-.15,0-.3-.03-.43-.1l-4.54-2.19-.33.72c-.21.46-.74.69-1.22.54l-4.83-1.55-4.31,1.54c-.16.06-.33.07-.5.05l-7.91-1.29-5.48,2.22c-.17.07-.35.09-.53.06l-10.85-1.73-5.97-.57-10.21,1.32c-.15.02-.31,0-.45-.05l-4.59-1.56-11.73,2.58c-.15.03-.31.03-.46,0l-7.48-1.87-7.99.91c-.17.02-.35,0-.51-.07l-6.41-2.74-3.18,1.11c-.31.11-.65.06-.92-.14l-2.12-1.54-3.82,1.65c-.32.14-.69.1-.97-.1l-4.45-3.15-6.46,3.79c-.27.16-.59.18-.88.07l-4.23-1.69-2.82,1.1c-.14.05-.29.07-.44.06l-7.07-.55-6.94.55c-.34.03-.67-.12-.88-.4l-1.32-1.76,1.33,2.31c.22.38.16.87-.14,1.19-.31.32-.79.4-1.18.2l-4.21-2.14-4.19,1.51c-.46.16-.96-.02-1.2-.44l-1-1.72-1.51,1.53c-.23.23-.57.34-.89.28-.32-.06-.6-.27-.74-.57l-2.32-5.09-8.85,5.89c-.44.29-1.04.19-1.35-.23l-1.36-1.81h-4.1c-.12,0-.24-.02-.36-.07l-1.34-.51-6.06,1.78c-.09.03-.19.04-.28.04h-5.3l-7.86.91c-.11.02-.23,0-.34-.02-.46-.1-2.75-.67-3.84-1.66-1.1-.29-6.57.87-8.56,1.44-.93.26-4.41.92-4.56.95-.13.03-.27.02-.4,0l-7.12-1.56-3.6,2.4c-.25.17-.57.21-.86.12l-5.68-1.81-5.04,1.8c-.23.08-.48.08-.71-.01l-6.22-2.47-2.96,1.48c-.5.24-1.1.05-1.34-.45-.25-.49-.05-1.09.45-1.34l3.36-1.68c.25-.13.55-.14.82-.04l6.29,2.5,5.01-1.79c.21-.07.43-.08.64-.01l5.54,1.77,3.56-2.37c.22-.15.5-.21.77-.14l7.33,1.61c1.11-.21,3.52-.69,4.18-.87.91-.26,8.95-2.5,10.43-1.02.45.45,1.85.93,2.8,1.17l7.74-.9s.08,0,.12,0h5.22l6.24-1.83c.21-.06.43-.05.64.03l1.49.57h4.41c.31,0,.61.15.8.4l1.09,1.46,9.04-6.02c.24-.16.55-.21.83-.13.28.08.51.28.64.55l2.21,4.84,1.41-1.43c.22-.22.52-.33.84-.29.31.04.58.22.74.49l1.24,2.13,3.81-1.38c.26-.09.55-.08.79.05l1.6.81-7.77-13.52c-.26-.46-.12-1.04.32-1.33.44-.29,1.03-.19,1.35.23l10.77,14.34,6.47-.51c.05,0,.1,0,.16,0l6.92.54,2.98-1.16c.24-.09.5-.09.73,0l4.14,1.65,6.6-3.87c.34-.2.76-.18,1.08.05l4.52,3.2,3.82-1.65c.32-.14.7-.1.98.11l2.16,1.57,3.05-1.07c.24-.08.49-.07.72.02l6.52,2.79,7.91-.9c.12-.01.24,0,.36.02l7.43,1.86,11.77-2.58c.18-.04.36-.03.54.03l4.63,1.58,10.09-1.31c.08,0,.15,0,.22,0l6.15.59,10.64,1.69,5.49-2.22c.17-.07.36-.09.54-.06l7.93,1.3,4.39-1.57c.21-.07.43-.08.64,0l4.3,1.38.38-.84c.11-.25.32-.44.57-.53.25-.09.53-.08.78.04l4.93,2.38,3.27-2.3c.33-.23.76-.24,1.11-.03l.89.56,2.65-1.78c.32-.21.73-.23,1.06-.04l3.7,2.14c.48.28.64.89.36,1.37-.28.48-.89.64-1.37.36l-3.16-1.83-2.67,1.8c-.33.22-.75.23-1.09.02l-.88-.55-3.21,2.25c-.17.12-.37.18-.57.18Z"/>
  <path class="cls-1" d="m400.59,311.22c-1.82,0-2.86-.53-3.7-.95-.91-.46-1.56-.79-3.17-.5-.55.1-1.06-.27-1.16-.81-.1-.54.26-1.06.81-1.16,2.26-.41,3.41.17,4.43.68.79.4,1.46.74,2.8.74,2.75,0,3.13-.56,4.55-2.65l.24-.35c.31-.46.93-.57,1.39-.26.46.31.57.93.26,1.39l-.24.35c-1.55,2.28-2.4,3.53-6.2,3.53Z"/>
  <path class="cls-1" d="m317.93,310.82c-5.16,0-11.27-2.43-14.01-3.64-.5-.22-.73-.82-.51-1.32.23-.5.82-.73,1.32-.51,2.46,1.09,10.87,4.55,15.92,3.14.53-.15,1.08.16,1.23.69.15.53-.16,1.08-.69,1.23-1.01.28-2.11.4-3.26.4Z"/>
  <path class="cls-1" d="m244.84,313.34c-7.94,0-16.94-1.42-20.17-2.28-3.72-1-6.09-.79-8.19-.6-.74.07-1.45.13-2.15.13-1.15,0-2.02.34-3.23.81-1.17.46-2.62,1.02-4.81,1.47-5.04,1.02-9.09-2.21-12.65-5.07-.43-.34-.5-.97-.16-1.41.34-.43.97-.5,1.41-.16,4.03,3.23,7.18,5.45,11.01,4.67,2.01-.41,3.32-.92,4.48-1.37,1.3-.51,2.43-.95,3.96-.95.61,0,1.27-.06,1.97-.12,2.15-.19,4.82-.42,8.88.66,5.35,1.43,24.63,3.89,30.38.49,4.97-2.94,8.71-3.21,11.18-3.38.74-.05,1.38-.1,1.9-.2,1.77-.36,3.93-.24,6.03-.13.95.05,1.94.1,2.86.11.55,0,1,.45.99,1.01,0,.55-.43,1.03-1.01.99-.97,0-1.98-.06-2.96-.11-1.97-.1-4-.21-5.52.09-.64.13-1.34.18-2.15.24-2.42.17-5.74.41-10.3,3.11-2.5,1.48-6.93,2-11.75,2Z"/>
  <path class="cls-1" d="m276.38,505.39c-.26,0-.51-.1-.71-.29l-9-9c-.2-.2-.31-.47-.29-.76.02-.41.22-4.05.85-5.51.29-.82.2-6.4-.06-11.45l-16.99-18.31c-.09-.1-.16-.21-.2-.33l-5.45-14.66c-5.77-4.32-14.96-11.12-16.12-11.73-.41-.13-.7-.51-.7-.96,0-.55.45-1,1-1,.4,0,.91,0,17.26,12.26.15.12.27.27.34.45l5.48,14.75,17.1,18.43c.16.17.25.39.27.63.18,3.35.52,11.3-.08,12.7-.33.77-.57,2.94-.66,4.39l8.68,8.68c.39.39.39,1.02,0,1.41-.2.2-.45.29-.71.29Z"/>
  <path class="cls-1" d="m273.89,519.09c-.21,0-.42-.07-.6-.2l-9.96-7.57s-.08-.07-.12-.1c-.39-.4-9.51-9.91-11.09-13.07-1.17-2.34-7.44-9.91-10.59-13.58-.36-.42-.31-1.05.11-1.41.42-.36,1.05-.31,1.41.11.38.44,9.29,10.85,10.86,13.99,1.19,2.38,8.07,9.79,10.69,12.53l9.9,7.52c.44.33.52.96.19,1.4-.2.26-.5.39-.8.39Z"/>
  <path class="cls-1" d="m318.7,520.71c-.05,0-.11,0-.16-.01-.55-.09-.92-.6-.83-1.14.85-5.34,1.61-11.37,1.49-12.68-.04-.06-.08-.12-.11-.18-.21-.44-.61-1.26,4.82-13.44.07-.15.17-.28.29-.38l13.1-10.43-2.28-5.03c-.23-.5,0-1.1.5-1.32.51-.23,1.09,0,1.32.5l2.61,5.74c.19.42.07.91-.29,1.2l-13.52,10.76c-2.14,4.82-4.35,10.2-4.64,11.61.4,1.01.27,4.06-1.31,13.96-.08.49-.5.84-.99.84Zm.84-13.54c.07.05.16.08.26.11-.09-.02-.18-.06-.26-.11Z"/>
  <path class="cls-1" d="m358.23,516.77c-.12,0-.25-.02-.37-.07-.51-.2-.76-.79-.56-1.3l7.47-18.8-1.89-16.79c-.04-.32.08-.63.32-.85l10.73-9.79,2.98-8.19c.19-.52.76-.79,1.28-.6.52.19.79.76.6,1.28l-3.06,8.42c-.05.15-.15.29-.27.4l-10.54,9.62,1.86,16.54c.02.16,0,.33-.06.48l-7.57,19.04c-.16.39-.53.63-.93.63Z"/>
  <path class="cls-1" d="m275.74,317.61c-.26,0-.52-.1-.72-.3l-9.09-9.36c-.38-.4-.38-1.03.02-1.41.39-.38,1.03-.38,1.41.02l9.09,9.36c.38.4.38,1.03-.02,1.41-.19.19-.45.28-.7.28Z"/>
  <path class="cls-1" d="m327.12,389.54c-.39,0-.76-.23-.92-.61l-4.4-10.53-4.04-11.55c-.08-.22-.07-.46,0-.68l4.02-10.91c.19-.52.77-.78,1.28-.59.52.19.78.77.59,1.28l-3.9,10.58,3.9,11.15,4.38,10.48c.21.51-.03,1.1-.54,1.31-.13.05-.26.08-.39.08Z"/>
  <path class="cls-1" d="m390.31,373.07c-.55,0-1-.45-1-1v-15.13c0-.18.05-.36.15-.52l7.58-12.46c.29-.47.9-.62,1.37-.33s.62.9.33,1.37l-7.43,12.22v14.85c0,.55-.45,1-1,1Z"/>
  <path class="cls-1" d="m239.03,429.95c-.15,0-.29-.03-.43-.1l-15.43-7.43-17.34-4.96c-.43-.12-.73-.52-.73-.96v-23.94c0-.55.45-1,1-1s1,.45,1,1v23.18l16.7,4.77c.05.02.11.04.16.06l15.51,7.47c.5.24.71.84.47,1.33-.17.36-.53.57-.9.57Z"/>
  <path class="cls-1" d="m345.89,452.73c-.51,0-.94-.39-.99-.9-.01-.12-1.15-11.62-1.88-14.18-.81-2.84,4.1-12.71,5.63-15.67.25-.49.86-.68,1.35-.43.49.25.68.86.43,1.35-2.95,5.73-5.89,12.78-5.48,14.2.78,2.74,1.9,14.06,1.95,14.54.05.55-.35,1.04-.9,1.09-.03,0-.07,0-.1,0Z"/>
  <path class="cls-1" d="m213.25,324.13c-.36,0-.71-.2-.89-.54l-5.62-10.78c-.25-.49-.07-1.09.42-1.35.49-.26,1.09-.07,1.35.42l5.62,10.78c.25.49.07,1.09-.42,1.35-.15.08-.31.11-.46.11Z"/>
  <path class="cls-1" d="m455.16,344.32c-3.4,0-14.48-3.62-14.61-3.66-.39-.13-1.21-.4-2.34-8-.99-6.59-.11-7.21.36-7.55,1.45-1.03,8.45-2.4,9.84-2.66.2-.04.4-.01.59.07,4.78,2.11,12.92,5.8,13.72,6.8.59.74.99,2.27-1.2,7.52-1.04,2.5-4.65,6.67-5.49,7.31-.15.12-.45.17-.86.17Zm-13.62-5.44c2.28.71,11.63,3.45,13.44,3.53.88-.83,3.84-4.31,4.68-6.33,1.9-4.56,1.47-5.52,1.47-5.52-.63-.56-6.89-3.52-12.66-6.07-3.63.7-7.66,1.67-8.63,2.19-.51,1.56.98,10.29,1.7,12.21Zm13.6,3.53h0s0,0,0,0Z"/>
  <path class="cls-1" d="m448.44,353.93c-.69,0-1.3-.28-1.73-.79-1.18-1.43-.63-4.31-.39-5.31l-.26-.65c-.15-.38-.06-.81.23-1.1.3-.28.73-.36,1.1-.19,3.66,1.65,5.66,2.98,5.94,3.96.11.37.05.74-.15,1.05-.68,1.02-1.86,2.8-4.51,3.02-.08,0-.15,0-.23,0Zm-.22-5.43c-.29,1.3-.34,2.91.04,3.37.03.04.06.08.24.06,1.43-.12,2.18-.94,2.71-1.67-.53-.43-1.71-1.11-2.99-1.76Z"/>
  <path class="cls-1" d="m557.7,376.35c-3.01,0-6.27-.77-7.12-4.02-.48-1.84-.81-2.6-1.01-3.05-.43-.97-.38-1.22-.05-2.83l.21-1.07c.85-4.32,3.33-8.73,3.43-8.92.11-.2.29-.35.5-.44,4.29-1.7,10.59-2.5,16.25,3.33l.14.15c.08.08,7.32,9.49,6.59,11.08-.66,1.45-13.46,5.18-13.57,5.18-.09,0-.31.05-.62.1-1.01.17-2.84.49-4.77.49Zm-2.96-18.6c-.56,1.05-2.38,4.63-3.04,8.01l-.22,1.08q-.25,1.24-.08,1.63c.22.51.6,1.36,1.12,3.36.92,3.56,7.46,2.43,9.61,2.06.54-.09.77-.13.96-.13.91-.13,9.12-2.97,11.45-4.04-1.04-2.01-5.06-7.98-5.89-8.81l-.16-.17c-3.85-3.96-8.47-4.97-13.75-3Zm20.33,11.69h0Z"/>
  <path class="cls-1" d="m631.01,344.93c-.71,0-1.48-.22-2.05-.38-.26-.07-.62-.18-.82-.21-.25.11-.52.13-.79.05-.72-.22-.95-.93-1.37-2.22-.33-1.01-.73-2.26-1.3-3-.45-.59-.52-1.31-.19-1.98.95-1.92,5.43-3.26,5.77-3.26.26,0,.5.1.69.28,4.44,4.25,4.22,5,4.08,5.5-.12.43-.42.96-.95,1.86-.43.73-.92,1.56-1.19,2.22-.36.89-1.1,1.15-1.88,1.15Zm-2.62-.74s0,0,0,0c0,0,0,0,0,0Zm-.25-1.85c.41.02.87.15,1.36.29.41.12,1.23.35,1.58.31.33-.77.83-1.63,1.28-2.39.22-.38.5-.86.66-1.16-.39-.62-1.74-2.08-3.04-3.35-1.19.39-3.32,1.37-3.67,1.97.76,1.02,1.21,2.42,1.57,3.55.08.25.17.54.26.78Zm4.96-2.78h0Z"/>
  <path class="cls-1" d="m645.78,376.73c-2.98,0-6.92-2.28-8.01-3.37-1.57-1.57-1.8-3.32-2.36-7.54v-.12c-.81-6.03,10.14-8.37,10.25-8.39.07-.01.13-.02.2-.02h0c.77,0,7.55.09,9.7,3.1,1.64,2.3.53,3.91-.46,5.34-.5.73-1.02,1.49-1.32,2.43-1.07,3.42-3.8,6.63-5.94,8.03-.58.38-1.29.54-2.07.54Zm.19-17.44c-2.94.63-9,3-8.59,6.15l.02.12c.55,4.2.74,5.35,1.79,6.39,1.32,1.32,6.17,3.5,7.57,2.58,1.8-1.18,4.21-4.01,5.13-6.96.39-1.24,1.02-2.16,1.58-2.97.99-1.43,1.26-1.94.48-3.04-1.16-1.62-5.46-2.25-7.97-2.27Z"/>
  <path class="cls-1" d="m476.2,452.17c-1.79,0-3.92-.4-6.36-1.21-1.38-.46-3-2.23-4.12-4.51-1.41-2.87-1.77-5.92-.98-8.42l-.41-3.61c-.04-.33.1-.67.36-.88l8.09-6.7c.26-.22.62-.28.94-.18l9.76,3.06c.29.09.52.31.63.59.06.15,1.4,3.65,1.79,9.29.39,5.69-2.08,8.14-4.46,10.5l-.42.42c-1.1,1.1-2.72,1.65-4.82,1.65Zm-9.82-17.44l.37,3.29c.02.15,0,.3-.05.44-.7,2.03-.41,4.62.81,7.1.96,1.95,2.24,3.26,2.96,3.5,4.44,1.48,7.68,1.5,9.12.05l.43-.43c2.26-2.24,4.2-4.17,3.87-8.94-.29-4.21-1.15-7.19-1.5-8.26l-8.77-2.75-7.26,6.01Z"/>
  <path class="cls-1" d="m496.25,455.97c-.67,0-1.4-.13-2.17-.26-.63-.11-1.28-.22-2-.29-1.61-.16-2.72-.74-3.32-1.71-.68-1.13-.38-2.35-.24-2.76.11-.74.77-5.19.95-6.1.04-.21.22-.73.9-.94,1.63-.48,8.97,1.53,9.97,2.53.67.67.75,1.08.41,1.94-.17.43-.54,1.34-.9,3.53-.3,1.82-.83,2.9-1.7,3.52-.58.41-1.22.55-1.92.55Zm-5.82-4.42s-.23.66.05,1.12c.31.5,1.15.69,1.8.75.79.08,1.51.2,2.14.32,1.19.21,2.14.37,2.59.05.38-.27.68-1.02.88-2.22.36-2.18.74-3.23.95-3.78-1-.57-5.88-1.92-7.51-1.99-.27,1.63-.84,5.49-.85,5.53-.01.07-.03.15-.06.22Zm-.93-.37h0,0Z"/>
  <path class="cls-1" d="m600.32,494.74c-2.5,0-4.73-.91-6.29-1.55-.47-.19-.89-.37-1.26-.49-2.26-.75-3.19-3.94-4.26-7.62-.3-1.03-.61-2.1-.96-3.16-1.46-4.37,2.35-8.68,4.19-10.75.33-.37.59-.66.74-.87,1.07-1.5,6.15-2.65,8.28-3.08.3-.06.61.02.84.22.26.22,6.36,5.4,7.53,6.57,1.14,1.14,5.46,7.51,5.46,10.28,0,3.93-8.72,8.77-9.71,9.3-1.56.84-3.1,1.15-4.55,1.15Zm.35-25.46c-3.19.67-6.14,1.65-6.57,2.19-.19.26-.49.6-.86,1.03-1.58,1.79-4.88,5.52-3.79,8.8.36,1.08.68,2.18.99,3.23.84,2.88,1.71,5.87,2.98,6.29.4.13.87.32,1.38.53,2.41.99,5.71,2.34,9.12.49,5.35-2.9,8.67-6.18,8.67-7.55,0-1.82-3.72-7.71-4.88-8.87-.95-.95-5.67-4.98-7.04-6.14Z"/>
  <path class="cls-1" d="m590.6,465.81c-2.37,0-5.85-1.25-5.9-1.27-2-.75-2.89-2.99-2.51-4.12,0-.11-.07-.96-.12-1.58-.22-2.69-.26-3.94.35-4.57.6-.62,7.87-4.08,9.65-3.49.3.1.53.33.63.63l3.25,9.58c.13.39.01.81-.29,1.08-1.28,1.11-2.8,2.56-3.02,2.95-.29.59-1.08.79-2.05.79Zm.26-1.69h0s0,0,0,0Zm-6.91-8.51c-.09.58.04,2.24.11,3.07.12,1.48.15,1.99.02,2.37,0,.2.36,1.26,1.32,1.62,1.51.57,4.7,1.25,5.64,1.15.56-.78,1.89-2.02,2.8-2.82l-2.8-8.25c-1.65.33-6.07,2.19-7.09,2.86Zm.03-.12h0Zm7.54-2.78h0,0Z"/>
  <path class="cls-1" d="m619.52,471.88c-.28,0-.87,0-5.32-2.84-.19-.12-.34-.31-.41-.53,0,0-.95-2.84-1.14-3.35-.36-.95-.54-1.43,8.04-4.79.28-.11.59-.09.85.06.26.14.44.4.5.69.58,3.04,1.55,8.22,1.55,8.8,0,1.84-4.02,1.96-4.06,1.96Zm-3.95-4.33c1.63,1.03,3.51,2.13,4.05,2.33.45-.02,1.4-.2,1.91-.37-.17-1.09-.69-3.97-1.23-6.82-2.26.91-4.58,1.92-5.54,2.45.26.75.63,1.86.81,2.41Z"/>
  <path class="cls-1" d="m169.31,333.48c-4.01,0-12.82-3.04-14.55-3.82-3.19-1.43-5.56-7.43-6.13-10.33-.67-3.45,4.03-7.33,4.57-7.76.22-.18.51-.25.79-.21l17.23,2.85c.17.03.33.1.47.21,1.71,1.4,4.58,3.98,4.58,5.56,0,1.79-4.63,12.36-4.68,12.47-.12.26-.37.62-.93.83-.34.13-.8.19-1.35.19Zm-15.2-20.06c-1.65,1.41-3.83,3.93-3.52,5.53.58,2.97,2.8,7.91,4.98,8.88,3.11,1.39,12.51,4.12,14.27,3.63,1.33-3.02,4.37-10.39,4.43-11.48-.11-.51-1.79-2.29-3.64-3.84l-16.52-2.73Z"/>
  <path class="cls-1" d="m155.93,346.07c-.21,0-.42-.07-.6-.2-.25-.19-.4-.49-.4-.8v-8.43c0-.29.13-.57.35-.76.23-.19.52-.27.81-.22l9,1.53c.3.05.56.23.7.5.15.26.17.58.06.86l-1.92,4.79c-.11.28-.35.5-.64.59l-7.08,2.11c-.09.03-.19.04-.29.04Zm1-8.24v5.9l5.34-1.59,1.28-3.19-6.61-1.13Z"/>
  <path class="cls-1" d="m142.14,329.74c-.16,0-.31-.04-.46-.11l-3.64-1.86c-.33-.17-.54-.52-.54-.89v-5.36c0-.33.16-.64.43-.82.27-.19.62-.23.92-.11,7.73,2.93,7.73,4.49,7.73,5,0,1.8-2.79,3.43-3.99,4.05-.14.07-.3.11-.46.11Zm-2.64-3.47l2.62,1.34c1.15-.66,2.2-1.49,2.42-1.93-.51-.57-2.6-1.67-5.04-2.69v3.28Z"/>
  <path class="cls-3" d="m28.4,327.07s-6.51,7.85-4.02,9.96,9.57,6.37,9.57,6.37c0,0,8.62-6.13,9-8.16s.96-9.31.96-9.31l-15.51,1.15Z"/>
  <path class="cls-3" d="m48.5,334.66s.77,3.13,1.34,3.33,9.57,1.53,9.57,1.53v-5.74h-10.91v.89Z"/>
  <path class="cls-1" d="m77.44,424.91c-1.07,0-3.91-.76-12.92-4.19-.15-.06-.28-.15-.38-.26l-7.66-8.43c-.32-.35-.35-.88-.06-1.27l7.66-10.34c.25-.34.7-.49,1.11-.36l19.34,6.13c.31.1.55.34.65.64l2.87,8.81c.13.39,0,.82-.31,1.08,0,0-9,7.47-9.57,7.95-.14.12-.29.24-.72.24Zm-11.98-5.98c4.88,1.85,10.31,3.75,11.68,3.98,1.36-1.13,7.03-5.83,8.79-7.29l-2.5-7.67-18.17-5.76-6.75,9.11,6.95,7.64Z"/>
  <path class="cls-1" d="m130.65,402.31c-.23,0-.45-.08-.63-.22l-3.06-2.49c-.33-.27-.45-.72-.31-1.12l3.06-8.43c.17-.48.67-.75,1.16-.63l7.47,1.72c.31.07.57.29.7.59,2.57,6.12,2.57,6.69,2.57,6.9,0,.89,0,1.38-10.75,3.66-.07.01-.14.02-.21.02Zm-1.88-3.82l2.14,1.74c3.44-.74,7.13-1.63,8.53-2.11-.35-.98-1.21-3.12-2.05-5.15l-6.11-1.41-2.52,6.92Z"/>
  <path class="cls-1" d="m63.25,494.44c-1.5,0-3.6-.19-6.58-.71-.09-.02-.18-.04-.26-.08l-11.11-5.36c-.4-.19-.63-.63-.55-1.07l4.79-27.58c.05-.3.24-.56.5-.71.27-.15.58-.16.87-.05,4.11,1.7,13.78,5.82,14.79,7.24.42.59,1.39,1.95-7.21,10.3l9.97,5.88c.36.21.55.63.47,1.05-.06.33-1.54,8.09-1.93,9.63-.12.46-.36,1.46-3.75,1.46Zm-6.1-2.66c3.56.61,7.06.82,7.97.5.36-1.58,1.36-6.73,1.72-8.6l-10.5-6.2c-.27-.16-.45-.44-.49-.75-.04-.31.08-.62.3-.84,3.45-3.29,7.22-7.43,7.75-8.76-1.22-.91-7.01-3.57-12.61-5.92l-4.44,25.6,10.3,4.97Z"/>
  <polygon class="cls-3" points="37.5 471.11 33.86 479.15 39.32 480.68 39.32 471.11 37.5 471.11"/>
  <path class="cls-1" d="m82.69,481.68s-.1,0-.15-.01c-.16-.02-3.93-.6-6.46-1.37-3.21-.99-1.93-7.38-1.64-8.65.1-.46.51-.78.97-.78h7.28c.55,0,1,.45,1,1v8.81c0,.29-.13.57-.35.76-.18.16-.41.24-.65.24Zm-6.46-8.81c-.46,2.54-.39,5.26.43,5.51,1.57.48,3.72.89,5.03,1.12v-6.63h-5.46Z"/>
  <path class="cls-1" d="m183.69,517.4c-.34,0-.67-.18-.85-.48l-5.75-9.38c-.27-.44-.16-1.01.25-1.32l8.43-6.32c.18-.14.41-.21.63-.2,18.56.59,19.32,1.92,19.6,2.42.67,1.18-.53,5.34-3.59,12.38-.14.32-.44.55-.79.59l-17.81,2.3s-.09,0-.13,0Zm-4.42-10.13l4.93,8.05,16.6-2.14c1.71-4.01,3.38-8.63,3.43-9.97-1.72-.64-9.99-1.25-17.54-1.5l-7.42,5.56Z"/>
  <path class="cls-1" d="m200.92,494.43h-4.98c-.42,0-.79-.26-.93-.64-.16-.43-1.6-4.24-1.6-5.91,0-.43.27-.81.68-.95l7.85-2.68c.33-.11.7-.04.97.18.27.23.4.58.34.92l-1.34,8.23c-.08.48-.5.84-.99.84Zm-4.28-2h3.43l.94-5.75-5.51,1.88c.2,1.04.71,2.65,1.15,3.87Z"/>
  <path class="cls-1" d="m217.21,519.09h-6.13c-.45,0-.84-.3-.96-.73l-1.72-6.23c-.09-.32-.01-.67.21-.92.22-.25.55-.38.88-.34l9.58,1.15c.3.04.57.21.73.46.16.25.2.57.1.85l-1.72,5.08c-.14.41-.52.68-.95.68Zm-5.37-2h4.65l1.1-3.23-6.87-.82,1.12,4.06Z"/>
  <path class="cls-1" d="m321.69,520.71s-.02,0-.03,0l-56.42-1.92c-.21,0-.4-.08-.57-.2-.19-.14-18.89-14.26-30.25-22.59-7.18-5.27-8.75-7-10.02-8.39-.75-.82-1.33-1.47-3.01-2.73-4.39-3.29-6.98-15.53-7.83-19.55-.09-.44-.16-.76-.2-.92-.41-.9-5.51-5.2-9.98-8.64-.15-.11-.26-.27-.33-.44-.19-.51-4.66-12.48-4.66-17.59,0-.74-.03-1.94-.08-3.46-.4-14.21-.34-29.36,3.16-33.91,3.45-4.5,9.59-33.69,11.79-45.19-2.14-2.55-9.45-11.33-10.2-13.2-.57-1.42-.46-5.97-.22-12.75.08-2.18.15-4.24.15-5.62,0-2.12-2.17-5.23-4.92-9.17-1.82-2.6-3.87-5.54-5.95-9.05-1.68-2.85-4.77-4.62-8.07-4.62-.18,0-.36-.05-.51-.14l-5.79-3.48-8.47,3.54c-.34.14-.73.09-1.02-.15l-3.65-2.98-7.13.47-7.58,2.67c-.21.07-.44.07-.65,0l-6.35-2.13c-4.62.81-11.43,2.02-11.93,2.15-.67.17-7.03-.26-8.32-1.06-.71-.31-5.47-1.17-9.81-1.86l-8.29,3.47c-.17.07-.36.1-.55.06l-9.32-1.53c-.24-.04-.46-.17-.61-.35l-1.81-2.21-4.79,2.23c-.16.08-.33.11-.51.09l-7.15-.64c-.09,0-.18-.03-.26-.06l-3.28-1.21c-2.56,1.38-5.4,3.02-5.8,3.45-.33.48-.89,1.27-8.09-1h-4.43l-9.19,2.5c-.23.06-.48.04-.7-.07l-8.1-3.93-8.84,2.12c-.08.02-.15.03-.23.03-.1,0-2.58-.03-5.01-2.21-.27-.24-.49-.44-.66-.6l-6.31,2.72c-.22.09-.46.11-.69.04-1.76-.54-3.94-1.12-4.4-1.12h0c-.72.01-1.94,0-2.4,0l-3.02,1.11c-.22.08-.46.08-.68,0l-6.64-2.34c-.52-.18-.79-.75-.61-1.28.18-.52.75-.8,1.28-.61l6.3,2.22,2.85-1.04c.11-.04.28-.05.35-.06,0,0,1.64.02,2.52,0h.03c.91,0,3.47.74,4.65,1.1l5.76-2.49c.04-.11.11-.21.21-.32.45-.5.73-.55,1.42-.02l.02-.02.21.19s.04.04.06.06c.29.24.64.56,1.08.96,1.6,1.44,3.16,1.66,3.58,1.69l9.05-2.17c.22-.06.46-.03.67.07l8.09,3.92,8.96-2.44c.09-.02.17-.04.26-.04h4.72c.1,0,.21.02.3.05,2.43.78,5.42,1.55,6.28,1.5.99-.89,4.06-2.61,6.61-3.96.25-.13.55-.16.82-.05l3.58,1.32,6.75.6,5.25-2.44c.42-.19.91-.08,1.2.27l2.06,2.52,8.66,1.42,8.29-3.46c.17-.07.36-.09.54-.07,9.34,1.46,10.56,1.99,10.88,2.2.88.38,6.02.88,6.77.78.59-.16,10.33-1.87,12.28-2.21.16-.03.33-.01.49.04l6.26,2.1,7.38-2.6c.09-.03.18-.05.27-.05l7.66-.51c.24-.01.5.06.7.22l3.49,2.85,8.38-3.51c.29-.12.63-.1.9.07l6,3.6c3.89.1,7.52,2.22,9.51,5.6,2.03,3.44,4.07,6.35,5.86,8.92,3.07,4.39,5.29,7.56,5.29,10.31,0,1.42-.07,3.5-.15,5.7-.15,4.3-.38,10.8.08,11.93.51,1.29,6.52,8.67,10.18,13.02.19.23.27.54.22.83-.31,1.66-7.75,40.63-12.25,46.5-3.53,4.61-2.98,24.25-2.75,32.64.04,1.55.08,2.77.08,3.52,0,4.35,3.77,14.82,4.43,16.62,3.85,2.97,10.07,7.97,10.47,9.57.04.17.12.52.22.99,2.18,10.3,4.56,16.48,7.07,18.37,1.83,1.37,2.51,2.12,3.29,2.98,1.2,1.32,2.7,2.97,9.72,8.12,10.64,7.8,27.73,20.69,30.01,22.41l56.04,1.9c1.77-.15,40.95-3.52,49.76-6.46,6.39-2.13,7.59-13.61,8.24-19.77.26-2.49.41-3.83.73-4.57.28-.65.99-2.15,1.98-4.22,3.1-6.51,8.88-18.62,10.62-24.39.3-1,.62-2.02.95-3.06,2.17-6.92,4.41-14.07,2.51-20.1-.54-1.7-1.48-3.9-2.58-6.44-3.52-8.18-8.34-19.38-4.63-26.49,1.47-2.81,3.3-5.36,5.07-7.83,3.76-5.23,7.31-10.16,6.32-16.39-.56-3.49-1.22-7.12-1.86-10.63-1.16-6.32-2.25-12.29-2.74-17.45-.8-8.39,8.57-22.45,11.65-27.07.94-1.4-.07-5.61-.96-9.32-1.3-5.39-2.63-10.97-.34-13.89.96-1.22,2.45-1.84,4.43-1.84.55,0,1,.45,1,1s-.45,1-1,1c-1.35,0-2.29.35-2.86,1.08-1.7,2.16-.42,7.48.71,12.18,1.13,4.7,2.11,8.77.69,10.89-2.98,4.48-12.06,18.09-11.33,25.78.48,5.07,1.57,11,2.72,17.28.64,3.52,1.31,7.16,1.87,10.68,1.12,7.04-2.66,12.3-6.67,17.87-1.73,2.41-3.52,4.9-4.92,7.58-3.27,6.27,1.33,16.97,4.69,24.78,1.12,2.59,2.08,4.84,2.65,6.63,2.09,6.63-.35,14.42-2.5,21.3-.32,1.03-.64,2.04-.94,3.03-1.78,5.92-7.6,18.12-10.73,24.68-.94,1.97-1.69,3.53-1.95,4.15-.21.5-.39,2.2-.58,3.99-.74,7.08-1.98,18.92-9.6,21.46-9.2,3.07-48.61,6.42-50.28,6.56-.03,0-.06,0-.08,0Zm-252.78-220.81s-.02.03-.03.04c0-.01.02-.03.03-.04Zm53.76-.19s0,0,0,0h0Zm-.11-.07s.04.03.05.04c-.02-.01-.03-.02-.05-.04Z"/>
  <g>
    <path class="cls-1" d="m318.69,520.71c-.09,0-.19-.01-.29-.04-.53-.16-.83-.71-.67-1.24.74-2.48,1.46-5.51,1.47-6.42-.06-.08-.12-.17-.15-.27-.21-.57-.47-1.27,8.49-13.81.21-.29.55-.45.91-.41l11.27,1.11,6.09-14.67c.21-.51.79-.75,1.31-.54.51.21.75.8.54,1.31l-6.38,15.36c-.17.41-.58.65-1.02.61l-11.43-1.13c-3.45,4.85-7.04,10.16-7.75,11.65.18.51.29,1.98-1.44,7.79-.13.43-.53.71-.96.71Zm1.09-7.31h0,0Zm-.1-.03s.07.02.1.03c-.04,0-.07-.02-.1-.03Zm1.29-.88h0Z"/>
    <g>
      <path class="accent" d="m322.54,508.92c.34.49.54.98.58,1.47.04.49-.03.98-.23,1.45s-.5.93-.89,1.37c-.4.44-.86.84-1.39,1.21l-5.31,3.74-7.6-10.81,6.27-4.41c.38-.26.77-.42,1.19-.47.42-.05.82-.02,1.22.09s.77.29,1.12.53c.35.25.64.55.89.89.36.51.57,1.08.63,1.73.07.64-.08,1.26-.43,1.86.75-.25,1.46-.28,2.14-.08.68.2,1.29.68,1.82,1.44Zm-10.1-1.13l1.17,1.66,2.02-1.42c.2-.14.35-.33.44-.56.09-.23.01-.51-.22-.85-.21-.29-.43-.45-.66-.48-.23-.03-.44.03-.64.16l-2.12,1.49Zm6.66,2.64c-.19-.26-.41-.43-.68-.51-.27-.08-.51-.04-.73.12l-2.45,1.72,1.27,1.81,2.34-1.65c.24-.17.4-.39.46-.66s-.01-.55-.21-.83Z"/>
      <path class="accent" d="m329.9,508c-.69.49-1.41.8-2.16.96-.75.15-1.47.17-2.16.04-.7-.13-1.34-.38-1.94-.75-.6-.38-1.09-.84-1.49-1.4s-.67-1.2-.81-1.89c-.14-.69-.14-1.38,0-2.08.13-.69.4-1.36.81-2,.41-.64.95-1.2,1.63-1.68s1.42-.81,2.17-.96,1.47-.16,2.16-.03c.69.13,1.34.38,1.93.76s1.08.84,1.47,1.39.67,1.19.81,1.88.14,1.37,0,2.06c-.13.69-.4,1.36-.8,2.01-.4.65-.94,1.21-1.62,1.69Zm-5.09-2.97c.19.26.41.49.67.68.26.19.55.32.85.4s.63.09.96.03c.33-.06.68-.21,1.02-.46s.6-.51.77-.81c.17-.3.26-.61.28-.93.02-.32-.02-.63-.11-.93-.09-.31-.23-.59-.42-.86s-.41-.49-.67-.68c-.26-.19-.54-.32-.84-.39-.3-.07-.62-.07-.95-.01s-.67.21-1.01.45-.6.51-.77.81c-.17.3-.27.6-.3.92-.03.31,0,.62.1.93.1.31.24.59.41.85Z"/>
      <path class="accent" d="m335.69,503.82l-6.08-8.65,2.59-1.82,4.5,6.39,3.78-2.65,1.58,2.25-6.36,4.47Z"/>
      <path class="accent" d="m348.42,493.93c-.15.47-.36.88-.62,1.22-.26.34-.59.66-1,.94-.59.41-1.23.69-1.93.83-.7.14-1.39.14-2.08.02-.69-.12-1.34-.37-1.95-.75-.61-.37-1.13-.86-1.56-1.47s-.71-1.26-.84-1.96-.13-1.38.02-2.06c.14-.68.42-1.32.83-1.94.41-.61.94-1.15,1.59-1.61.82-.58,1.67-.93,2.55-1.05.88-.12,1.68,0,2.41.37l-.9,2.84c-.38-.2-.81-.28-1.29-.24-.47.04-.89.18-1.26.44-.56.39-.88.9-.97,1.53s.09,1.27.54,1.9.99,1.01,1.61,1.13c.63.12,1.23-.04,1.82-.45.53-.37.9-.92,1.13-1.63l-1.43,1.01-1.31-1.86,3.93-2.76,3.28,4.66-2.15,1.51-.44-.62Z"/>
      <path class="accent" d="m357.68,484.99l1.58,2.25-6.91,4.86-6.08-8.65,6.79-4.77,1.58,2.25-4.2,2.95.66.94,3.59-2.53,1.48,2.1-3.59,2.53.77,1.1,4.32-3.04Z"/>
      <path class="accent" d="m360.45,480.65l2.71,3.85-2.59,1.82-6.08-8.65,2.02-1.42,6.82,1.16-2.8-3.99,2.59-1.82,6.08,8.65-2.06,1.45-6.7-1.05Z"/>
      <path class="accent" d="m375.91,475.68c-.82.58-1.68.95-2.57,1.1-.89.16-1.76.15-2.59-.03-.84-.18-1.62-.5-2.35-.98-.73-.47-1.34-1.06-1.83-1.76s-.84-1.49-1.03-2.34c-.19-.85-.22-1.7-.08-2.55.14-.85.44-1.66.9-2.43.47-.77,1.1-1.44,1.9-2.01s1.68-.95,2.57-1.1c.89-.16,1.76-.14,2.6.04s1.62.51,2.35.99c.72.48,1.33,1.06,1.81,1.75s.84,1.49,1.03,2.34c.19.85.21,1.69.08,2.54-.13.85-.43,1.66-.89,2.44-.46.78-1.09,1.45-1.89,2.01Zm-6.31-3.76c.26.37.56.68.9.95.34.27.71.46,1.09.58.39.12.79.16,1.22.1s.85-.23,1.27-.53.74-.64.93-1.03c.2-.39.3-.79.31-1.2s-.06-.82-.21-1.23c-.15-.41-.34-.8-.59-1.15s-.56-.68-.9-.95c-.34-.27-.71-.46-1.1-.57s-.8-.14-1.21-.08c-.42.06-.84.24-1.26.53s-.74.64-.93,1.02-.3.78-.31,1.19c-.01.41.05.82.19,1.23.14.41.34.79.59,1.14Z"/>
      <path class="accent" d="m384.22,461.26s-.18.01-.39.04c-.22.03-.47.07-.77.14-.29.07-.6.17-.93.29-.33.13-.63.28-.9.48-.22.16-.39.3-.5.43-.11.13-.13.24-.05.35.13.18.37.21.73.07.36-.13.87-.31,1.52-.52.51-.18,1-.32,1.45-.41.45-.1.88-.13,1.27-.09.39.04.75.15,1.08.34.33.19.64.49.93.9.38.54.59,1.06.64,1.57s-.02.99-.21,1.44c-.18.45-.45.88-.81,1.27s-.76.74-1.2,1.05c-.33.24-.7.46-1.1.66s-.81.39-1.22.55c-.41.16-.83.3-1.25.41-.42.11-.82.2-1.19.25l-.47-3.06c.08.02.24.02.49,0s.55-.09.9-.18.72-.22,1.11-.38c.39-.16.77-.37,1.12-.62.26-.19.43-.34.51-.46s.09-.21.05-.27c-.07-.1-.19-.14-.35-.13-.16.01-.35.05-.58.13-.23.07-.49.17-.78.28-.29.12-.6.23-.94.33-1.01.31-1.83.41-2.48.3s-1.2-.5-1.66-1.16c-.33-.47-.52-.95-.59-1.45-.06-.5-.02-.99.13-1.45.15-.47.39-.91.72-1.34.33-.42.73-.8,1.18-1.12.33-.24.69-.44,1.06-.61s.74-.32,1.1-.44c.36-.12.71-.21,1.05-.28s.64-.13.92-.19l.4,2.93Z"/>
    </g>
    <g>
      <path class="cls-1" d="m316.37,517.2c-.16,0-.31-.07-.41-.21l-7.6-10.81c-.16-.23-.1-.54.12-.7l6.27-4.41c.44-.31.92-.5,1.42-.56.49-.06.96-.02,1.42.1.45.12.88.33,1.27.61.4.28.74.62,1.01,1.01.4.57.65,1.24.72,1.96.04.42,0,.82-.1,1.22.5-.05.98,0,1.45.13.79.23,1.49.78,2.09,1.63.39.56.62,1.13.67,1.71.05.57-.04,1.14-.27,1.68-.22.52-.55,1.03-.99,1.51-.42.46-.91.89-1.47,1.29l-5.31,3.74c-.09.06-.19.09-.29.09Zm-6.9-11.19l7.02,9.99,4.91-3.45c.5-.35.94-.73,1.3-1.14.36-.4.63-.81.8-1.23.17-.39.23-.8.2-1.21-.04-.4-.2-.82-.49-1.23t0,0c-.47-.66-.99-1.08-1.55-1.25-.58-.17-1.18-.14-1.84.07-.2.07-.42,0-.55-.16-.13-.16-.15-.39-.04-.57.3-.51.42-1.02.37-1.55-.06-.56-.24-1.05-.55-1.49-.21-.29-.47-.55-.77-.77-.3-.21-.62-.37-.96-.46-.33-.09-.67-.11-1.03-.07-.34.04-.65.17-.96.39l-5.86,4.12Zm8.12,6.6s-.06,0-.09,0c-.13-.02-.25-.1-.32-.21l-1.27-1.81c-.16-.23-.1-.54.12-.7l2.45-1.72c.35-.25.75-.31,1.16-.19.38.11.69.34.95.7h0c.28.4.38.82.29,1.23-.09.39-.31.72-.66.96l-2.35,1.65c-.08.06-.18.09-.29.09Zm-.58-2.19l.7.99,1.94-1.36c.14-.1.22-.21.25-.36.01-.05.04-.19-.13-.44h0c-.12-.17-.25-.27-.41-.32-.13-.04-.21-.02-.31.05l-2.04,1.44Zm-2.32-1.94c-.16,0-.31-.07-.41-.21l-1.17-1.66c-.16-.23-.1-.54.12-.7l2.12-1.49c.29-.21.62-.29.98-.25.38.04.72.28,1.01.69.34.48.43.92.28,1.32-.13.32-.33.59-.62.79l-2.03,1.42c-.09.06-.19.09-.29.09Zm-.47-2.04l.59.84,1.62-1.14c.12-.09.21-.19.26-.33,0-.02,0-.14-.17-.38-.17-.24-.28-.27-.31-.27-.1,0-.2.01-.29.08l-1.71,1.2Z"/>
      <path class="cls-1" d="m327.61,508.13c-.35,0-.7-.03-1.04-.09-.75-.14-1.47-.41-2.12-.82-.65-.41-1.2-.92-1.63-1.54-.44-.62-.74-1.32-.89-2.08-.15-.75-.15-1.52,0-2.27.14-.75.44-1.48.88-2.17s1.03-1.31,1.76-1.82c.76-.53,1.55-.88,2.36-1.04.8-.16,1.59-.17,2.35-.03.76.14,1.47.42,2.11.83.65.42,1.19.93,1.61,1.52.44.62.73,1.31.89,2.06.15.75.16,1.51,0,2.26-.14.75-.44,1.48-.87,2.18-.44.7-1.03,1.32-1.76,1.83h0c-.74.52-1.53.87-2.34,1.04-.44.09-.88.14-1.31.14Zm.6-10.96c-.36,0-.72.04-1.09.11-.67.13-1.34.43-1.98.88-.62.44-1.13.96-1.49,1.54-.37.59-.62,1.2-.74,1.83-.12.63-.12,1.26,0,1.88.12.62.37,1.19.72,1.7.35.5.8.93,1.34,1.26.54.34,1.13.57,1.76.68.63.12,1.29.1,1.98-.04.68-.14,1.34-.44,1.97-.88h0c.62-.44,1.12-.96,1.49-1.54.37-.59.62-1.21.74-1.84.12-.62.12-1.25,0-1.87-.12-.61-.37-1.18-.73-1.69-.34-.49-.79-.91-1.33-1.26-.53-.34-1.12-.57-1.75-.69-.29-.05-.59-.08-.89-.08Zm2.77,9.38h0,0Zm-3.04-1.32c-.23,0-.45-.03-.66-.08-.37-.1-.71-.26-1.02-.48-.3-.22-.57-.49-.79-.79-.21-.29-.37-.62-.48-.98-.12-.38-.16-.77-.12-1.14.04-.37.16-.75.36-1.11.2-.36.51-.69.92-.98.39-.27.79-.45,1.2-.53.4-.08.79-.07,1.16.02.37.09.71.25,1.02.47.3.22.57.48.79.79.22.31.38.64.49,1,.11.35.16.73.13,1.11-.03.4-.14.78-.34,1.14-.2.36-.51.69-.92.98-.4.28-.81.46-1.22.54-.17.03-.35.05-.52.05Zm-.03-5.15c-.12,0-.24.01-.37.04-.27.05-.54.17-.81.36-.28.2-.49.42-.62.65-.13.24-.21.48-.24.72-.03.24,0,.49.08.74.08.26.2.5.35.71h0c.15.22.34.4.55.56.21.15.44.26.69.33.24.06.48.07.75.02.26-.05.54-.17.82-.37.28-.2.49-.42.62-.65.13-.24.2-.47.22-.72.01-.25-.02-.51-.09-.75-.08-.26-.2-.5-.35-.72-.15-.22-.34-.41-.55-.56-.21-.15-.42-.25-.67-.31-.12-.03-.24-.04-.38-.04Z"/>
      <path class="cls-1" d="m336.77,502.85c-.16,0-.31-.07-.41-.21l-6.08-8.65c-.08-.11-.11-.24-.08-.37.02-.13.1-.25.21-.32l2.59-1.82c.22-.16.54-.1.7.12l4.21,5.99,3.37-2.37c.11-.08.24-.1.37-.08.13.02.25.1.32.21l1.58,2.25c.16.23.1.54-.12.7l-6.36,4.47c-.09.06-.19.09-.29.09Zm-5.38-9.03l5.5,7.83,5.55-3.9-1.01-1.44-3.37,2.37c-.22.16-.54.1-.7-.12l-4.21-5.99-1.77,1.24Z"/>
      <path class="cls-1" d="m344.85,496.06c-.36,0-.72-.03-1.08-.1-.74-.13-1.46-.41-2.12-.81-.67-.41-1.24-.95-1.71-1.61-.46-.66-.78-1.38-.92-2.15-.14-.76-.14-1.52.02-2.26.16-.73.46-1.45.9-2.11.44-.66,1.02-1.25,1.72-1.74.89-.62,1.82-1,2.77-1.13.97-.13,1.89,0,2.71.42.22.11.33.36.25.6l-.87,2.74,1.99-1.4c.22-.16.54-.1.7.12l3.28,4.66c.08.11.11.24.08.37-.02.13-.1.25-.21.32l-2.15,1.51c-.11.08-.24.11-.37.08-.09-.02-.17-.05-.24-.11-.1.19-.21.36-.34.52-.29.38-.66.73-1.11,1.05-.64.45-1.36.76-2.12.91-.4.08-.8.12-1.19.12Zm.29-10.96c-.18,0-.37.01-.57.04-.8.11-1.58.43-2.33.96-.6.42-1.09.92-1.46,1.48-.37.56-.63,1.15-.76,1.76-.13.61-.14,1.24-.02,1.86.12.62.38,1.22.76,1.76.39.56.85,1,1.41,1.34.56.34,1.15.57,1.77.68.62.11,1.26.11,1.9-.02.63-.12,1.21-.37,1.74-.74.36-.25.66-.54.89-.83.23-.3.41-.66.54-1.07.06-.18.21-.31.4-.34.18-.03.37.05.48.21l.15.21,1.33-.93-2.7-3.84-3.11,2.19.73,1.04,1.02-.72c.17-.12.41-.12.58,0,.17.13.25.35.18.55-.25.82-.7,1.46-1.32,1.89-.7.49-1.44.67-2.2.53-.76-.14-1.41-.58-1.93-1.33-.52-.74-.74-1.5-.63-2.26.11-.77.5-1.4,1.18-1.88.44-.31.95-.49,1.51-.53.36-.03.69,0,1.01.08l.6-1.9c-.37-.13-.75-.2-1.17-.2Zm-.18,3c-.06,0-.12,0-.19,0-.39.03-.72.15-1.01.35-.44.31-.69.7-.76,1.2-.07.5.08,1.01.46,1.55.37.53.8.83,1.29.92.39.07.76.01,1.14-.18-.04-.03-.08-.07-.12-.12l-1.31-1.86c-.08-.11-.11-.24-.08-.37.02-.13.1-.25.21-.32l1.33-.93s-.08-.02-.12-.05c-.25-.13-.52-.2-.83-.2Z"/>
      <path class="cls-1" d="m353.43,491.14s-.06,0-.09,0c-.13-.02-.25-.1-.32-.21l-6.08-8.65c-.16-.23-.1-.54.12-.7l6.79-4.77c.11-.08.25-.1.37-.08.13.02.25.1.32.21l1.58,2.25c.08.11.11.24.08.37-.02.13-.1.25-.21.32l-3.79,2.67.09.13,3.18-2.24c.11-.08.25-.11.37-.08.13.02.25.1.32.21l1.48,2.1c.16.23.1.54-.12.7l-3.18,2.24.2.28,3.92-2.75c.11-.08.24-.1.37-.08.13.02.25.1.32.21l1.58,2.25c.16.23.1.54-.12.7l-6.91,4.86c-.08.06-.18.09-.29.09Zm-5.38-9.03l5.5,7.83,6.09-4.29-1.01-1.44-3.92,2.75c-.11.08-.24.11-.37.08-.13-.02-.25-.1-.32-.21l-.77-1.1c-.16-.23-.1-.54.12-.7l3.18-2.24-.9-1.28-3.18,2.24c-.23.16-.54.1-.7-.12l-.66-.94c-.08-.11-.11-.24-.08-.37.02-.13.1-.25.21-.32l3.79-2.67-1.01-1.44-5.97,4.2Z"/>
      <path class="cls-1" d="m361.65,485.36s-.06,0-.09,0c-.13-.02-.25-.1-.32-.21l-6.08-8.65c-.16-.23-.1-.54.12-.7l2.02-1.42c.11-.08.24-.11.37-.08l5.64.96-2.11-3.01c-.08-.11-.11-.24-.08-.37.02-.13.1-.25.21-.32l2.59-1.82c.22-.16.54-.1.7.12l6.08,8.65c.16.23.1.54-.12.7l-2.05,1.45c-.11.08-.24.11-.37.08l-5.53-.87,2.03,2.89c.16.23.1.54-.12.7l-2.59,1.82c-.08.06-.19.09-.29.09Zm-5.38-9.03l5.5,7.83,1.77-1.25-2.42-3.44c-.12-.16-.12-.38-.02-.55.11-.17.31-.26.5-.23l6.5,1.02,1.48-1.04-5.5-7.83-1.77,1.24,2.52,3.58c.12.17.12.38.01.55-.11.17-.3.26-.51.23l-6.62-1.13-1.45,1.02Z"/>
      <path class="cls-1" d="m373.18,475.92c-.49,0-.98-.05-1.46-.15-.89-.19-1.74-.54-2.52-1.05-.78-.51-1.44-1.14-1.97-1.89-.54-.76-.91-1.61-1.11-2.52-.2-.91-.23-1.83-.08-2.74.15-.91.47-1.79.97-2.61.5-.83,1.19-1.56,2.04-2.16.88-.62,1.81-1.02,2.77-1.18.95-.17,1.89-.15,2.79.04.9.2,1.75.55,2.52,1.06.77.51,1.42,1.14,1.94,1.88.53.76.91,1.61,1.11,2.52.2.91.23,1.82.08,2.72-.14.91-.47,1.79-.96,2.61-.5.84-1.18,1.57-2.04,2.17h0c-.88.62-1.81,1.02-2.77,1.18-.44.08-.88.12-1.32.12Zm-.05-13.43c-.37,0-.75.03-1.14.1-.81.14-1.61.49-2.37,1.02-.74.52-1.33,1.14-1.76,1.85-.43.72-.71,1.48-.84,2.26-.13.78-.1,1.58.07,2.36.17.78.5,1.51.96,2.17.45.64,1.02,1.19,1.69,1.63.67.44,1.41.74,2.18.91.77.16,1.58.17,2.4.03.81-.14,1.61-.49,2.37-1.02.74-.52,1.33-1.14,1.75-1.86.43-.72.71-1.48.83-2.26.12-.78.1-1.57-.07-2.35-.17-.78-.49-1.51-.95-2.16-.45-.64-1.01-1.18-1.68-1.62s-1.4-.75-2.18-.92c-.41-.09-.84-.13-1.27-.13Zm3.86,11.71h0,0Zm-3.49-1.6c-.33,0-.66-.05-.98-.15-.44-.14-.87-.36-1.25-.67-.38-.3-.71-.65-1-1.06h0c-.27-.39-.49-.82-.65-1.27-.16-.47-.24-.94-.22-1.41.02-.48.14-.95.37-1.4.23-.45.6-.85,1.09-1.2.48-.34.97-.54,1.47-.62.49-.07.97-.04,1.42.09.45.13.88.35,1.27.66.38.3.71.65,1,1.06.27.39.5.82.66,1.27.17.47.24.94.23,1.41-.01.48-.13.96-.36,1.41-.23.46-.6.87-1.09,1.22-.49.35-1,.55-1.5.62-.15.02-.3.03-.45.03Zm-2.41-2.45c.23.32.5.61.8.85.29.23.61.4.93.5.33.1.65.13,1,.08.34-.04.7-.19,1.05-.45.36-.25.62-.54.78-.85.16-.32.25-.65.26-.98,0-.34-.05-.7-.18-1.05-.13-.37-.31-.71-.53-1.03-.23-.33-.5-.61-.8-.85-.29-.23-.59-.39-.93-.48-.32-.09-.66-.12-1-.06-.34.05-.69.2-1.04.44-.36.25-.62.53-.77.84-.16.31-.25.64-.26.97-.01.35.04.7.16,1.05.13.36.3.71.53,1.02h0Z"/>
      <path class="cls-1" d="m382.38,469.48c-.24,0-.46-.18-.49-.42l-.47-3.06c-.03-.17.04-.34.17-.45.05-.04.1-.07.15-.09-.31.01-.59,0-.85-.05-.78-.14-1.44-.6-1.98-1.37-.37-.53-.6-1.1-.67-1.68-.07-.57-.03-1.13.14-1.67.17-.53.44-1.03.81-1.5.36-.46.79-.87,1.29-1.22.36-.25.74-.47,1.14-.66.38-.18.77-.33,1.16-.46.38-.12.75-.23,1.11-.3l.92-.19c.14-.03.28,0,.39.08.11.08.19.2.21.34l.4,2.93c.02.13-.02.27-.1.37.37-.06.73-.07,1.07-.04.46.04.89.18,1.29.41.4.23.76.58,1.08,1.04.43.61.67,1.22.72,1.81.05.58-.03,1.14-.24,1.67-.2.51-.51.99-.91,1.42-.39.42-.82.79-1.28,1.12-.35.25-.75.48-1.16.7-.42.22-.85.41-1.27.57-.43.17-.86.31-1.3.43-.44.12-.86.21-1.25.26-.02,0-.05,0-.07,0Zm.11-3.08l.31,2c.21-.04.42-.09.64-.15.4-.11.8-.24,1.2-.39.39-.15.78-.33,1.17-.53.38-.19.73-.41,1.05-.63.4-.28.78-.61,1.12-.98.32-.34.56-.72.72-1.11.15-.38.21-.78.17-1.21-.04-.42-.22-.86-.55-1.32-.24-.34-.5-.6-.77-.75-.27-.16-.56-.25-.88-.28-.33-.03-.71,0-1.11.08-.43.09-.9.23-1.39.4-.65.22-1.15.39-1.51.52-.78.29-1.16-.04-1.32-.26-.21-.29-.17-.65.08-.95.14-.16.33-.33.59-.52.3-.21.64-.39,1.01-.53.35-.13.68-.24.99-.31.27-.06.51-.11.71-.14l-.25-1.88-.4.08c-.32.07-.66.16-1,.27-.35.11-.7.25-1.05.41-.34.16-.67.35-.98.57-.42.29-.78.63-1.08,1.01-.29.37-.51.77-.64,1.18-.12.4-.16.81-.11,1.24.05.42.22.83.5,1.23.39.55.83.87,1.34.96.56.1,1.31,0,2.24-.28.33-.1.62-.2.9-.32.3-.12.58-.23.82-.3.27-.08.5-.13.69-.15.46-.03.7.2.79.35.09.13.22.42-.03.82-.11.18-.31.37-.65.61-.38.27-.79.49-1.22.67-.41.17-.81.31-1.17.4-.36.09-.67.16-.94.19Zm-.47-.97s.02,0,.03,0c-.01,0,.06,0,.3-.02.22-.02.5-.08.82-.16.32-.08.67-.21,1.04-.36.06-.03.12-.05.19-.08-.25.1-.53.19-.82.28-.58.18-1.1.29-1.57.34Zm2.21-4.97c-.26.06-.55.15-.85.27-.07.03-.13.05-.2.08.2-.07.42-.14.66-.22.13-.04.26-.09.39-.13Z"/>
    </g>
  </g>
  <g>
    <g>
      <path class="accent" d="m256.18,510.58l-2.93-13.18,5.07-1.13c1.09-.24,2.09-.28,2.99-.12.91.16,1.7.48,2.39.95.69.47,1.26,1.07,1.73,1.81.46.73.79,1.56.99,2.46.22,1,.27,1.94.13,2.83-.14.88-.43,1.67-.88,2.38s-1.05,1.31-1.8,1.8c-.75.5-1.62.86-2.62,1.08l-5.07,1.13Zm6.57-8.39c-.11-.51-.28-.96-.51-1.35-.23-.39-.5-.71-.82-.95-.32-.24-.68-.4-1.09-.49-.41-.08-.84-.08-1.3.03l-1.45.32,1.53,6.87,1.45-.32c.47-.1.87-.28,1.21-.54s.59-.57.78-.93.3-.77.33-1.22c.04-.45,0-.92-.11-1.42Z"/>
      <path class="accent" d="m277.18,503.03l.61,2.75-8.43,1.87-2.34-10.54,8.28-1.84.61,2.75-5.12,1.14.26,1.15,4.38-.97.57,2.56-4.38.97.3,1.34,5.27-1.17Z"/>
      <path class="accent" d="m281.5,500.03l1.04,4.7-3.16.7-2.34-10.54,2.47-.55,5.98,3.78-1.08-4.86,3.16-.7,2.34,10.54-2.51.56-5.91-3.62Z"/>
      <path class="accent" d="m293.42,491.24l2.9-.64,1.78,2.94.37-3.41,2.91-.65-.83,5.54,1.13,1.48,1.28-7.38,3.45-.77-2.33,11.58-2.62.58-2.52-3.18-.92,3.94-2.64.59-7-9.51,3.42-.76,4.32,6.13.36-1.81-3.07-4.68Z"/>
      <path class="accent" d="m317.39,494.1l.61,2.75-8.43,1.87-2.34-10.54,8.28-1.84.61,2.75-5.12,1.14.26,1.15,4.38-.97.57,2.56-4.38.97.3,1.34,5.27-1.17Z"/>
      <path class="accent" d="m319.6,496.49l-2.34-10.54,5.42-1.2c.58-.13,1.14-.14,1.67-.03.53.11,1.01.3,1.44.57.43.27.79.6,1.09.99s.49.82.6,1.28c.13.59.1,1.19-.08,1.78-.19.59-.52,1.13-1,1.61l3.55,3.25-3.58.8-2.96-2.63-1.34.3.7,3.14-3.16.7Zm1.84-6.61l2.15-.48c.22-.05.41-.17.55-.37.14-.2.18-.45.11-.77s-.23-.54-.47-.64c-.25-.11-.48-.14-.7-.09l-2.06.46.42,1.89Z"/>
    </g>
    <g>
      <path class="cls-1" d="m257.36,510.1c-.23,0-.44-.16-.49-.39l-2.93-13.18c-.03-.13,0-.26.07-.38.07-.11.18-.19.31-.22l5.07-1.12c1.15-.26,2.23-.3,3.19-.12.97.17,1.84.52,2.58,1.03.74.51,1.37,1.17,1.87,1.96.49.78.85,1.66,1.06,2.61.24,1.06.28,2.07.14,3.01-.15.95-.47,1.81-.96,2.57-.49.76-1.14,1.41-1.94,1.95-.79.53-1.73.92-2.79,1.15l-5.07,1.12s-.07.01-.11.01Zm-2.33-13.3l2.71,12.2,4.58-1.02c.94-.21,1.77-.55,2.46-1.01.69-.46,1.24-1.01,1.66-1.66.41-.64.69-1.38.81-2.18.12-.81.08-1.7-.13-2.64-.19-.84-.5-1.62-.93-2.3-.42-.67-.96-1.23-1.59-1.66-.63-.43-1.37-.72-2.2-.87-.83-.15-1.77-.11-2.8.12l-4.58,1.02Zm5.25,9.34c-.23,0-.44-.16-.49-.39l-1.53-6.87c-.03-.13,0-.26.07-.38s.18-.19.31-.22l1.45-.32c.52-.12,1.03-.13,1.51-.03.48.1.91.29,1.29.58.37.28.69.65.96,1.09.25.43.45.93.57,1.49h0c.12.54.16,1.07.12,1.57-.04.51-.17.99-.38,1.41-.22.43-.53.8-.92,1.1-.39.3-.86.51-1.4.63l-1.45.32s-.07.01-.11.01Zm-.93-6.99l1.31,5.89.96-.21c.4-.09.74-.24,1.01-.45.28-.21.48-.46.63-.76.16-.31.25-.66.28-1.04.03-.4,0-.83-.1-1.27h0c-.1-.46-.25-.86-.46-1.2-.2-.33-.43-.6-.69-.8-.26-.19-.56-.33-.89-.4-.34-.07-.71-.06-1.09.02l-.96.21Z"/>
      <path class="cls-1" d="m270.54,507.17c-.23,0-.44-.16-.49-.39l-2.34-10.54c-.03-.13,0-.26.07-.38.07-.11.18-.19.31-.22l8.28-1.84c.28-.06.54.11.6.38l.61,2.75c.03.13,0,.26-.07.38-.07.11-.18.19-.31.22l-4.63,1.03.04.17,3.89-.87c.13-.03.27,0,.38.07s.19.18.22.31l.57,2.56c.06.27-.11.54-.38.6l-3.89.87.08.36,4.78-1.06c.28-.06.54.11.6.38l.61,2.75c.06.27-.11.54-.38.6l-8.43,1.87s-.07.01-.11.01Zm-1.75-10.67l2.13,9.57,7.45-1.66-.39-1.77-4.78,1.06c-.27.06-.54-.11-.6-.38l-.3-1.33c-.03-.13,0-.26.07-.38.07-.11.18-.19.31-.22l3.89-.87-.35-1.59-3.89.87c-.13.03-.26,0-.38-.07-.11-.07-.19-.18-.22-.31l-.26-1.15c-.03-.13,0-.26.07-.38.07-.11.18-.19.31-.22l4.63-1.03-.39-1.77-7.3,1.62Z"/>
      <path class="cls-1" d="m280.57,504.94c-.23,0-.44-.16-.49-.39l-2.34-10.54c-.03-.13,0-.26.07-.38s.18-.19.31-.22l2.47-.55c.13-.03.26,0,.38.07l4.97,3.13-.82-3.69c-.03-.13,0-.26.07-.38.07-.11.18-.19.31-.22l3.16-.7c.13-.03.27,0,.38.07s.19.18.22.31l2.34,10.54c.06.27-.11.54-.38.6l-2.51.56c-.13.03-.26,0-.37-.06l-4.9-3,.79,3.55c.03.13,0,.26-.07.38s-.18.19-.31.22l-3.16.7s-.07.01-.11.01Zm-1.75-10.67l2.13,9.57,2.18-.48-.93-4.21c-.04-.2.03-.4.2-.52.16-.12.38-.12.55-.02l5.73,3.51,1.82-.4-2.12-9.57-2.18.48.97,4.38c.04.2-.04.4-.2.52-.17.12-.39.12-.55.01l-5.81-3.67-1.78.39Z"/>
      <path class="cls-1" d="m296.57,501.39c-.16,0-.31-.07-.4-.2l-7-9.51c-.1-.14-.12-.31-.07-.47.06-.16.19-.28.36-.31l3.42-.76c.2-.04.4.03.52.2l3.65,5.17.09-.46-2.95-4.51c-.09-.14-.11-.31-.04-.46.06-.15.19-.26.35-.3l2.9-.64c.21-.04.42.04.54.23l1.02,1.68.21-1.95c.02-.21.18-.39.39-.43l2.91-.65c.16-.03.33.01.45.12s.18.28.15.44l-.8,5.33.31.4,1.09-6.25c.03-.2.19-.36.38-.4l3.45-.77c.17-.03.34.01.46.13.12.12.17.29.14.46l-2.33,11.58c-.04.19-.19.35-.38.39l-2.62.58c-.18.04-.38-.03-.5-.18l-1.87-2.37-.68,2.93c-.04.19-.19.33-.38.38l-2.64.59s-.07.01-.11.01Zm-6.14-9.69l6.35,8.63,2.01-.45.85-3.64c.04-.19.19-.33.38-.38.19-.04.38.03.5.18l2.32,2.94,2-.44,2.12-10.51-2.38.53-1.23,7.05c-.03.2-.18.35-.37.4-.19.05-.4-.02-.52-.18l-1.13-1.48c-.08-.11-.12-.24-.1-.38l.72-4.82-1.85.41-.33,3.06c-.02.21-.18.39-.39.43-.21.04-.42-.04-.54-.23l-1.6-2.63-1.84.41,2.67,4.07c.07.11.1.24.07.37l-.36,1.81c-.04.2-.19.35-.39.39-.2.04-.4-.04-.51-.2l-4.13-5.86-2.34.52Z"/>
      <path class="cls-1" d="m310.75,498.24c-.23,0-.44-.16-.49-.39l-2.34-10.54c-.03-.13,0-.26.07-.38.07-.11.18-.19.31-.22l8.28-1.84c.13-.03.26,0,.38.07.11.07.19.18.22.31l.61,2.75c.06.27-.11.54-.38.6l-4.63,1.03.04.17,3.89-.87c.13-.03.26,0,.38.07.11.07.19.18.22.31l.57,2.56c.06.27-.11.54-.38.6l-3.89.87.08.36,4.78-1.06c.27-.06.54.11.6.38l.61,2.75c.06.27-.11.54-.38.6l-8.43,1.87s-.07.01-.11.01Zm-1.75-10.67l2.13,9.57,7.45-1.66-.39-1.77-4.78,1.06c-.27.06-.54-.11-.6-.38l-.3-1.33c-.03-.13,0-.26.07-.38.07-.11.18-.19.31-.22l3.89-.87-.35-1.59-3.89.87c-.13.03-.26,0-.38-.07s-.19-.18-.22-.31l-.25-1.15c-.06-.27.11-.54.38-.6l4.63-1.03-.39-1.77-7.3,1.62Z"/>
      <path class="cls-1" d="m320.78,496.01c-.23,0-.44-.16-.49-.39l-2.34-10.54c-.03-.13,0-.26.07-.38.07-.11.18-.19.31-.22l5.42-1.2c.64-.14,1.28-.15,1.88-.03.59.12,1.13.34,1.61.63.48.3.89.67,1.22,1.12.34.45.57.95.68,1.47.15.68.12,1.36-.09,2.04-.16.51-.42.99-.77,1.43l3.18,2.91c.14.13.19.32.15.5-.05.18-.19.32-.38.36l-3.58.8c-.16.03-.32,0-.44-.11l-2.77-2.46-.6.13.59,2.65c.03.13,0,.26-.07.38-.07.11-.18.19-.31.22l-3.16.7s-.07.01-.11.01Zm-1.75-10.67l2.13,9.57,2.18-.48-.59-2.65c-.03-.13,0-.26.07-.38.07-.11.18-.19.31-.22l1.34-.3c.16-.04.32,0,.44.11l2.77,2.46,2.39-.53-2.84-2.6c-.1-.09-.16-.22-.16-.36,0-.14.05-.27.14-.36.42-.42.71-.9.88-1.41.16-.51.18-1.01.07-1.52-.08-.39-.26-.75-.51-1.09-.26-.34-.58-.64-.95-.87-.38-.24-.81-.4-1.28-.5-.46-.09-.95-.08-1.46.03l-4.93,1.1Zm3.59,4.06c-.23,0-.44-.16-.49-.39l-.42-1.89c-.03-.13,0-.26.07-.38.07-.11.18-.19.31-.22l2.06-.46c.33-.07.67-.03,1.01.12.27.12.63.39.76.99.1.47.04.86-.2,1.18-.22.3-.51.48-.85.56l-2.15.48s-.07.01-.11.01Zm.18-2.01l.2.92,1.66-.37c.11-.02.19-.08.26-.18.05-.07.06-.2.02-.37-.05-.23-.15-.28-.19-.29-.15-.07-.28-.09-.39-.06l-1.57.35Z"/>
    </g>
  </g>
  <g>
    <path class="cls-1" d="m376.97,313.28c-.62,0-1.24-.2-1.82-.6l-.35-.25c-1.62-1.13-3.01-2.15-3.54-3.2-.75-1.48.6-3.32.93-3.73,1.07-1.45,3.29-1.48,4.28-.78.37.26,3,2.33,3.63,3.25.77,1.13.61,2.66-.41,3.88-.78.93-1.75,1.42-2.72,1.42Zm-3.21-6.54h0c-.48.6-.8,1.39-.72,1.59.35.69,1.95,1.8,2.9,2.46l.36.25c.76.54,1.43.05,1.85-.46.45-.54.56-1.09.29-1.48-.34-.51-2.51-2.3-3.13-2.75-.22-.12-1.15-.16-1.51.34-.01.01-.02.03-.03.04Zm-.78-.63h0,0Z"/>
    <path class="cls-1" d="m379.43,306.7c-.09,0-.18-.01-.27-.04-2.43-.67-3.34-1.84-3.67-2.69-.26-.66-.23-1.34.06-1.8.45-.71,1.38-1.52,2.47-1.71.54-.1,1.07-.04,1.54.18.36-.37.88-1.11,1.14-1.47.43-.61.59-.82.81-.98.46-.32,1.08-.2,1.39.25.3.42.22,1-.17,1.33-.09.11-.23.31-.41.56-.98,1.38-1.68,2.3-2.54,2.43-.34.06-.69-.03-.96-.24-.08-.06-.21-.13-.44-.09-.4.07-.83.4-1.06.71.05.29.5,1.09,2.38,1.61.53.15.85.7.7,1.23-.12.44-.52.73-.96.73Zm-2.18-3.47s0,0,0,0c0,0,0,0,0,0Z"/>
    <path class="cls-1" d="m378.12,317.29c-2.6,0-7.51-1.96-9.05-3.75-2.7-3.14-2.04-8.93-1.81-9.86.28-1.1,3.61-5.59,5.02-7.48l5.52-6.07c.38-.41,1.01-.44,1.41-.07.41.37.44,1,.07,1.41l-5.46,6c-2.03,2.7-4.41,6.08-4.63,6.71-.26,1.04-.59,5.75,1.39,8.05,1.29,1.5,6.46,3.35,7.86,3.03,1.77-.4,8.08-3.84,9.21-5.62,1.47-2.33,5.82-8.35,6-8.61.32-.45.95-.55,1.4-.22.45.32.55.95.22,1.4-.04.06-4.5,6.22-5.93,8.5-1.52,2.42-8.49,6.06-10.45,6.5-.22.05-.48.08-.77.08Z"/>
    <path class="cls-1" d="m370.05,301.06c-.12,0-.24-.02-.35-.06-.52-.2-.78-.77-.58-1.29.06-.17,1.55-4.09,2.01-5.15.45-1.04,1.62-1.67,2.66-1.46.76.16,1.58.85,1.58,2.31,0,.55-.45,1-1,1s-1-.45-1-1c0-.25-.05-.37-.07-.4,0,.04-.26.17-.33.35-.44,1.02-1.96,5.02-1.97,5.06-.15.4-.53.65-.94.65Z"/>
    <path class="cls-1" d="m386.62,313.38c-.28,0-.5-.06-.66-.2-.41-.37-.43-1.01-.06-1.41.21-.23.52-.34.81-.32.74-.23,3.39-1.64,4.68-2.43-.39-.23-.91-.44-1.14-.46-.54-.04-.98-.49-.96-1.03.02-.54.43-.97.97-.97.79,0,3,.83,3.42,2.08.2.6,0,1.21-.52,1.61-.05.04-4.57,3.14-6.53,3.14Zm.7-1.68h0s0,0,0,0Zm0,0s0,0,0,0c0,0,0,0,0,0Zm0,0h0,0Zm4.5-2.37h0,0Z"/>
    <path class="cls-1" d="m362.13,311.25c-.26,0-.51-.1-.71-.29-.39-.39-.39-1.02,0-1.41.03-.03,2.58-2.58,5.89-5.72.4-.38,1.03-.36,1.41.04.38.4.36,1.03-.04,1.41-3.29,3.11-5.83,5.65-5.85,5.68-.2.2-.45.29-.71.29Z"/>
    <path class="cls-1" d="m374.58,324.94c-.11,0-.21-.02-.32-.05-.52-.18-.8-.75-.63-1.27.07-.22,1.83-5.38,3.29-7.44.32-.45.94-.56,1.39-.24.45.32.56.94.24,1.39-1.29,1.82-3.01,6.88-3.03,6.93-.14.42-.53.68-.95.68Z"/>
    <path class="cls-1" d="m388.03,305.87s-.1,0-.15-.01c-.55-.08-.92-.59-.84-1.14.09-.61-.03-1.1-.36-1.51-.48-.58-1.39-.95-2.5-1-.55-.03-.98-.5-.95-1.05.03-.55.5-.99,1.05-.95,1.7.08,3.1.7,3.95,1.73.69.84.96,1.9.79,3.07-.07.5-.5.85-.99.85Z"/>
    <path class="cls-1" d="m385.32,304.93c-.17,0-.35-.04-.51-.14-.47-.28-.63-.9-.35-1.37.15-.25.93-1.55,1.48-2.09.39-.39,1.02-.39,1.41,0,.39.39.39,1.02,0,1.41-.27.28-.85,1.16-1.17,1.7-.19.31-.52.49-.86.49Z"/>
    <path class="cls-1" d="m380.04,299.22c-.51,0-.94-.38-.99-.9-.07-.27-.92-1.25-2.21-.96-.53.12-1.07-.21-1.2-.75-.12-.54.21-1.07.75-1.2,1.16-.26,2.31-.03,3.27.65.78.56,1.31,1.35,1.38,2.06.06.55-.34,1.04-.89,1.1-.03,0-.07,0-.1,0Z"/>
    <path class="cls-1" d="m377.64,299.04c-.2,0-.41-.06-.58-.19-.45-.32-.55-.95-.23-1.4l.94-1.31c.32-.45.95-.55,1.4-.23.45.32.55.95.23,1.4l-.94,1.31c-.2.27-.5.42-.81.42Z"/>
    <path class="cls-1" d="m382.48,296.78c-.29,0-.57-.12-.77-.36-.02-.02-1.66-1.94-3.49-2.14-.55-.06-.95-.55-.89-1.1.06-.55.56-.95,1.1-.89,2.65.28,4.73,2.74,4.82,2.84.35.42.3,1.05-.12,1.41-.19.16-.42.23-.64.23Z"/>
    <path class="cls-1" d="m390.36,303.26c-.29,0-.58-.13-.78-.37-.64-.78-2.65-2.94-4.28-3.54-.52-.19-.78-.77-.59-1.28.19-.52.77-.78,1.28-.59,2.48.91,5.03,4.02,5.14,4.15.35.43.28,1.06-.14,1.41-.19.15-.41.23-.63.23Z"/>
    <path class="cls-1" d="m384.39,289.64c-.08,0-.16,0-.24-.01h0c-.76-.06-1.83-.43-2.6-1.8-1.53-2.74-.96-8.07-.08-9.8,1.07-2.1,3.53-3.73,3.63-3.8.32-.21.72-.22,1.05-.03s.52.54.5.92c0,.04-.2,4.4.63,7.23.69,2.35.42,4.85-.69,6.2-.58.71-1.35,1.09-2.2,1.09Zm.24-12.46c-.52.5-1.05,1.11-1.38,1.75-.57,1.12-1.12,5.84.04,7.92.37.66.75.76,1.02.78h0c.19.02.45,0,.73-.35.59-.72.88-2.45.32-4.37-.54-1.82-.69-4.09-.73-5.73Z"/>
    <path class="cls-1" d="m379.4,290.73c-.75,0-1.66-.23-2.78-.79-1.32-.67-2.3-2.09-2.77-4-.54-2.19-.29-4.51.62-5.77.21-.29.55-.44.91-.41.35.03.66.25.81.57.6,1.28,1.98,1.68,3.31,2.07,1.12.32,2.18.63,2.63,1.55.25.49.05,1.09-.45,1.34-.49.25-1.09.05-1.34-.45-.13-.15-.9-.37-1.4-.52-1.02-.29-2.29-.66-3.32-1.52-.1.77-.07,1.72.17,2.67.32,1.32.95,2.3,1.73,2.69,2.23,1.13,2.73.38,3.25-.42.3-.46.92-.59,1.38-.29.46.3.59.92.29,1.38-.62.95-1.51,1.9-3.05,1.9Z"/>
    <path class="cls-1" d="m373.69,294.29c-.27,0-.53-.11-.73-.31-1.74-1.84-2.8-4.61-2.76-7.21,0-.4.25-.76.62-.91.37-.15.79-.07,1.08.21,2.64,2.58,4.57,2.12,4.59,2.12.52-.13,1.08.17,1.23.68.15.52-.11,1.05-.62,1.22-.03,0-1.96.61-4.6-1.01.36,1.33,1.04,2.59,1.91,3.52.38.4.36,1.04-.04,1.41-.19.18-.44.27-.69.27Z"/>
    <path class="cls-1" d="m390.92,283.59c-.16,0-.33-.04-.48-.13-.48-.27-.66-.88-.39-1.36.02-.04.45-.93.15-2.59-.37.39-.78.67-1.17.94-.47.32-.91.62-1.33,1.13-.36.42-.99.47-1.41.11-.42-.36-.47-.99-.11-1.41.6-.7,1.22-1.13,1.72-1.48.82-.57,1.28-.88,1.48-2.12.07-.43.42-.77.85-.83.44-.06.86.17,1.04.57,1.9,4.08.58,6.54.53,6.65-.18.33-.52.51-.88.51Z"/>
    <path class="cls-1" d="m390.25,292.14c-.41,0-.82-.06-1.22-.19-1.33-.43-2.5-1.58-3.29-3.23-.24-.5-.03-1.09.47-1.33.49-.24,1.09-.03,1.33.47.54,1.14,1.31,1.94,2.1,2.19.59.19,1.22.1,1.91-.28,2.15-1.17,6.07-6.25,5.55-9.83-.17-1.18-.36-2.15-.55-2.93-1.11,2.42-3.07,5.8-5.79,7.04-.5.23-1.1,0-1.33-.49-.23-.5,0-1.1.49-1.33,2.93-1.34,5.16-6.58,5.77-8.49.12-.39.47-.66.88-.69.41-.04.79.19.97.55.04.08.94,1.92,1.53,6.05.64,4.52-3.88,10.4-6.58,11.87-.75.41-1.52.62-2.27.62Z"/>
    <path class="cls-1" d="m394.01,296.29c-2.18,0-3.04-1.39-3.82-3.89-.16-.53.13-1.09.66-1.25.53-.16,1.09.13,1.25.66.81,2.6,1.3,2.56,2.27,2.46,1.28-.12,4.82-2.18,5.77-7.36-2.49,1.24-4.22,1.1-4.31,1.09-.55-.05-.95-.54-.9-1.09s.53-.95,1.09-.9c0,0,1.99.12,4.76-1.8.31-.22.72-.24,1.06-.05.33.18.53.54.52.92-.37,7.86-5.51,10.98-7.8,11.19-.19.02-.38.03-.55.03Z"/>
    <path class="cls-1" d="m395.2,302.13c-.33,0-.65-.08-.93-.29-1.64-1.25-2.24-2.46-1.25-5.98.15-.53.7-.84,1.23-.69.53.15.84.7.69,1.23-.75,2.64-.4,3.11.37,3.72.72-.15,2.94-1.45,5.15-3.71,1.13-1.16,2-2.32,2.55-3.39-3.21,2.17-4.9,2.07-5.26,2.02-.55-.08-.92-.59-.84-1.14.08-.55.59-.91,1.14-.84-.02,0,1.93.08,6.04-3.37.29-.25.7-.3,1.06-.15.35.16.58.51.59.89.08,4.44-5.56,9.54-8.74,11.16-.51.26-1.18.55-1.8.55Zm.29-1.88h.01-.01Z"/>
    <path class="cls-1" d="m392.61,308.97c-.46,0-.87-.32-.98-.78-.12-.54.22-1.07.76-1.19,2.75-.61,5.25-5.86,5.98-7.83.19-.52.77-.78,1.28-.59.52.19.78.77.59,1.28-.31.83-3.12,8.13-7.42,9.09-.07.02-.15.02-.22.02Z"/>
    <path class="cls-1" d="m377.88,312.52c-.52,0-.96-.4-1-.93-.12-1.67-2.89-2.93-4.27-3.21-.54-.11-.89-.63-.78-1.18.11-.54.63-.9,1.18-.78,2.16.43,5.67,2.18,5.88,5.03.04.55-.37,1.03-.92,1.07-.02,0-.05,0-.07,0Z"/>
    <path class="cls-1" d="m374.57,328.66s-.09,0-.14,0c-.42-.06-10.21-1.49-14.05-8.76-3.77-7.14-2.75-11.68-2.71-11.87.07-.3.28-.56.57-.68.29-.13.62-.11.89.04l2.62,1.47c.32.18.51.51.51.87,0,7.09,12.09,14.08,13.46,14.65.37.16.62.52.62.92,0,1.79-.91,2.9-1.02,3.02-.19.22-.47.35-.76.35Zm-15.04-18.77c.01,1.7.42,4.88,2.63,9.07,2.83,5.37,9.79,7.16,11.92,7.6.08-.17.16-.4.21-.66-3.13-1.63-13.46-8.18-14-15.58l-.77-.43Z"/>
    <path class="cls-1" d="m354.25,332.36c-.26,0-.52-.1-.72-.3l-2.43-2.49c-.22-.22-.32-.53-.27-.84.04-.31.23-.58.5-.73l10.72-6.06c.48-.27,1.09-.1,1.36.38.27.48.1,1.09-.38,1.36l-9.59,5.43.98,1.01,11.29-6.43c.48-.27,1.09-.11,1.36.37s.11,1.09-.37,1.36l-11.96,6.82c-.16.09-.33.13-.5.13Z"/>
    <path class="cls-1" d="m358.14,308.97c-.34,0-.66-.17-.85-.48-.9-1.46-3.63-5.46-5.42-6.39-1.25-.65-4.5-1.54-7.37-2.33-2.45-.67-4.76-1.31-5.91-1.81-.83-.36-1.52-.77-2.14-1.14-1.26-.76-2.1-1.26-3.44-1.05-3.45.53-5.5-.54-6.04-.88-.52-.33-.98-.92-1.51-1.6-.65-.83-1.45-1.87-2.29-2.21-2.13-.87-6.77-4.22-9.61-8.01-1.75-2.33-2.48-4.05-3.12-5.58-.45-1.06-.83-1.97-1.5-2.95-1.16-1.72-3.62-7.71-5.23-11.76-.5,1.06-1.36,2.05-2.77,2.72-3.9,1.85-8,2.07-8.17,2.07-.45.04-.85-.26-1-.68-.06-.17-1.39-4.2.89-6.4.4-.38,1.03-.37,1.41.02.38.4.37,1.03-.02,1.41-.88.85-.79,2.49-.58,3.57,1.32-.15,4.04-.59,6.61-1.81,2.95-1.4,2.12-4.76,2.08-4.91-.13-.51.16-1.04.66-1.21.5-.16,1.05.1,1.24.59,1.36,3.56,5.17,13.23,6.53,15.24.77,1.15,1.22,2.19,1.68,3.29.63,1.49,1.28,3.02,2.88,5.16,2.72,3.62,7.09,6.67,8.77,7.36,1.34.55,2.33,1.82,3.12,2.84.36.46.77.99.99,1.13.78.49,2.48.94,4.68.6,2.06-.32,3.44.51,4.77,1.31.59.35,1.2.71,1.9,1.02,1.02.44,3.27,1.06,5.65,1.71,3.11.86,6.32,1.74,7.76,2.49,2.6,1.35,5.84,6.53,6.2,7.11.29.47.14,1.09-.33,1.38-.16.1-.34.15-.52.15Z"/>
    <path class="cls-1" d="m302.48,262.57c-.39,0-.76-.23-.92-.62-1.1-2.64-2.79-7.24-1.79-8.43.15-.17.47-.79.72-1.28.61-1.17,1.05-1.97,1.53-2.38.24-.21.61-.97.8-1.52-.61-.11-1.71-.11-2.6.65-.67.57-1.33.98-1.9,1.33-1.07.66-1.54.98-1.65,1.67-.23,1.45-.17,1.93-.17,1.95.08.53-.27,1.04-.79,1.15-.53.11-1.03-.2-1.16-.72-.05-.21-.14-.9.14-2.7.26-1.63,1.44-2.36,2.58-3.06.54-.33,1.1-.68,1.65-1.15,1.53-1.31,3.62-1.4,4.92-.92.65.24,1.01.61,1.09,1.11.13.88-.8,3.03-1.62,3.72-.23.2-.76,1.23-1.05,1.78-.36.69-.61,1.16-.85,1.49-.03.77.79,3.67,1.99,6.53.21.51-.03,1.1-.54,1.31-.13.05-.26.08-.38.08Z"/>
    <path class="cls-1" d="m302.48,247.98c-.09,0-.19-.01-.28-.04-.53-.16-.83-.71-.68-1.24.24-.8.54-1.76.86-2.77.7-2.21,1.66-5.24,1.68-6.06.02-.89-.11-1.75-.21-2.19-.24-.05-.56-.08-.81-.09-.03.15-.07.33-.11.53-.49,2.25-1.05,4.74-1.64,5.87-.77,1.48-1.61,3.91-1.59,4.45.1.54-.26,1.04-.81,1.14-.54.1-1.07-.28-1.17-.83-.23-1.26,1.35-4.83,1.79-5.68.51-.98,1.15-3.94,1.46-5.37.12-.58.22-1,.26-1.14.07-.23.28-.65.88-.85.82-.28,2.54-.04,3.05.33.96.69.9,3.84.9,3.87-.03,1.03-.72,3.29-1.78,6.62-.32,1-.62,1.95-.85,2.74-.13.44-.53.72-.96.72Zm1.29-12.57h0Z"/>
    <path class="cls-1" d="m297.76,243.54c-.07,0-.13,0-.2-.02-.54-.11-.89-.64-.78-1.18.28-1.37.31-2.49.34-3.49.04-1.12.07-2.1.45-3.02.25-.6.44-1.34.61-2,.3-1.16.48-1.86.98-2.24.73-.56,2.28-.94,3.31-.21,1,.71.98,2.39.95,2.88-.03.55-.49.96-1.06.94-.55-.03-.97-.51-.94-1.06.03-.45-.05-1.03-.16-1.18-.08-.05-.54.03-.79.16-.1.24-.24.79-.35,1.21-.19.72-.4,1.53-.7,2.26-.24.58-.26,1.35-.29,2.31-.03,1.02-.07,2.29-.38,3.82-.1.47-.51.8-.98.8Zm2.75-10.49h0Z"/>
    <path class="cls-1" d="m295.08,245.68c-.34,0-.67-.17-.85-.48-.09-.12-.32-.38-.6-.69-1.08-1.22-1.94-2.2-2.21-2.85-.02-.05-2.02-4.97-2.02-5.6s.46-1.04,1.81-2.1c.19-.15.37-.29.49-.39.33-.27.75-.36,1.17-.24,1.4.4,2.46,3.48,2.5,3.61.12.37.48.85.86,1.36.71.95,1.59,2.13,1.74,3.64.05.55-.35,1.04-.9,1.09-.56.07-1.04-.35-1.09-.9-.09-.94-.73-1.8-1.35-2.63-.48-.64-.93-1.25-1.16-1.92-.28-.82-.7-1.62-1-2.06,0,0-.02.01-.03.02-.24.19-.66.52-.93.76.38,1.1,1.44,3.86,1.75,4.58.17.4,1.36,1.74,1.87,2.31.6.67.76.85.86,1.05.25.49.05,1.09-.45,1.34-.14.07-.3.11-.45.11Zm-3.83-9.15h0Z"/>
    <path class="cls-1" d="m296.34,259.06c-1.46,0-3.42-.21-4.29-1.25-1.42-1.68-1.07-3.68-.68-5.03.29-1.02.17-4.2.04-5.05-.18-.33-.36-.84-.63-1.64-.07-.19-.13-.37-.17-.51-.1-.06-.22-.13-.36-.21-2.71-1.6-3.6-2.3-3.84-3.01-.37-1.11.33-2.55.48-2.82.16-.3.45-.5.79-.53.1,0,2.41-.22,4.16,1.41.4.38.43,1.01.05,1.41-.38.41-1.01.43-1.41.05-.67-.62-1.5-.81-2.04-.87-.09.26-.14.51-.13.66.29.32,1.28.99,2.97,1.98.71.42.8.47.95.67.13.17.18.31.46,1.12.12.36.34.99.45,1.23.02.02.04.05.06.08.46.7.48,5.31.12,6.58-.43,1.5-.34,2.45.29,3.2.39.46,2.48.63,4.08.48.57-.06,1.04.35,1.09.9.05.55-.35,1.04-.9,1.09-.32.03-.87.07-1.52.07Zm-3.89-12.77c.14.02.27.06.39.13-.11-.06-.24-.11-.39-.13Zm0,0h0,0Z"/>
    <path class="cls-1" d="m295.5,267.29c-.46,0-.88-.32-.98-.79l-1.82-8.59c-.11-.54.23-1.07.77-1.19.54-.12,1.07.23,1.19.77l1.82,8.59c.11.54-.23,1.07-.77,1.19-.07.01-.14.02-.21.02Z"/>
    <path class="cls-1" d="m331.88,314.46c-.17,0-.34-.04-.5-.13-1.85-1.06-3.77-1.35-4.69-1.08-2.12.61-9.97-4.97-10.04-5.02-2.01-1.44-8.83-7.35-10.57-9.1-1.67-1.69-9.25-9.99-9.97-11.18-.38-.62-.74-2.11-1.35-4.7-.5-2.12-1.07-4.52-1.63-6.04-.28-.76-.61-1.33-.97-1.92-1.01-1.72-1.96-3.34-1.29-8.48.07-.55.57-.94,1.12-.86.55.07.93.57.86,1.12-.58,4.46.13,5.67,1.03,7.21.36.62.77,1.31,1.12,2.24.61,1.63,1.19,4.1,1.7,6.27.39,1.66.88,3.73,1.12,4.12.55.9,7.78,8.89,9.68,10.81,1.65,1.66,8.4,7.52,10.31,8.88,2.92,2.08,7.46,4.71,8.42,4.71h0c1.52-.44,4.02.07,6.14,1.29.48.27.65.88.37,1.36-.18.32-.52.5-.87.5Z"/>
    <path class="cls-1" d="m326.04,320.68c-.26,0-.51-.1-.71-.29-.39-.39-.39-1.02,0-1.41.13-.26,0-1.57-.08-2.53-.1-1.03-.21-2.19-.21-3.47,0-.55.45-1,1-1s1,.45,1,1c0,1.18.11,2.3.2,3.28.18,1.93.32,3.32-.49,4.13-.2.2-.45.29-.71.29Z"/>
    <path class="cls-1" d="m316.75,333.32c-.3,0-.59-.13-.79-.38-.5-.64-2.15-2.73-2.34-3.03-.05-.06-.21-.27-.43-.54-2.62-3.28-2.9-3.86-2.9-4.42,0-1.44,2.09-2.45,2.51-2.64.23-.1.59-.23,1.06-.38,1.25-.41,3.35-1.09,4.96-2.36,1.76-1.39,2.67-1.32,3.85-1.05.43.1.88.2,1.51.17.05,0,.11,0,.16,0,2.67,0,10.21,2.47,16.51,7.63.43.35.49.98.14,1.41-.35.43-.98.49-1.41.14-6.37-5.23-13.56-7.27-15.31-7.18-.91.04-1.56-.11-2.04-.22-.75-.17-1.03-.23-2.17.67-1.89,1.5-4.2,2.25-5.58,2.7-.37.12-.67.22-.86.3-.55.25-1.02.6-1.24.82.3.5,1.09,1.56,2.37,3.16.29.36.49.61.53.68.14.2,1.4,1.82,2.25,2.9.34.43.27,1.06-.17,1.4-.18.14-.4.21-.62.21Zm-4.48-8.22h0Z"/>
    <path class="cls-1" d="m329.96,359.08c-.47,0-.88-.33-.98-.8-.66-3.28-1.74-8.9-1.64-9.79.02-.15.06-.47.11-.9.22-1.81.82-6.62.75-7.63-.1-1.4-.34-4.9-4.22-10.21-2.95-4.04-4.62-5.37-5.85-6.33-.47-.37-.91-.72-1.34-1.14-.39-.39-.39-1.02,0-1.41.39-.39,1.02-.39,1.41,0,.34.34.72.64,1.16.99,1.32,1.04,3.12,2.46,6.23,6.72,4.21,5.77,4.48,9.69,4.59,11.16.08,1.14-.31,4.56-.75,8.09-.05.42-.09.73-.11.88-.01.6.81,5.14,1.61,9.17.11.54-.24,1.07-.78,1.18-.07.01-.13.02-.2.02Z"/>
    <path class="cls-1" d="m361.75,392.11s-.06,0-.09,0c-2.23-.19-3.75-1.03-4.5-2.48-1.46-2.83.73-6.72.99-7.16.5-.85,1.08-3.77.96-4.43-.27-.56-.31-1.64-.31-4.74,0-1.27,0-2.58-.06-3.11-.18-1.36,1.03-5.64,1.65-7.7-.61-.43-1.21-.78-1.43-.82-.65,0-4.32.78-5.07,1.47l-.39.36c-1.39,1.28-4.29,3.94-5.96,4.77-1.63.81-7.11,2.4-7.82,2.4-.2,0-.39-.05-.97-.18-4-.95-4.9-.67-5.11-.51-1.5,1.18-3.09,1.1-3.61,1.08-.88,0-6.24-2.96-6.61-5.45-.17-1.16.25-2.22.66-3.25.37-.93.73-1.81.51-2.56-.38-1.33-.52-3.08-.71-5.5-.12-1.5-.25-3.2-.47-5.19-.06-.55.33-1.04.88-1.1.55-.05,1.04.34,1.1.88.22,2.02.36,3.74.48,5.26.18,2.31.31,3.98.64,5.11.4,1.4-.12,2.7-.58,3.85-.33.82-.64,1.59-.54,2.21.16,1.07,3.65,3.31,4.74,3.75.38.01,1.37.06,2.27-.65,1.2-.94,3.59-.63,6.81.13.22.05.4.1.52.12.89-.17,5.43-1.44,6.92-2.18,1.42-.71,4.28-3.34,5.5-4.46l.4-.37c1.4-1.27,5.79-1.98,6.46-1.98.93,0,2.38,1.04,3.16,1.65.32.26.46.69.33,1.08-.94,3.03-1.88,6.77-1.78,7.52.09.66.09,1.92.08,3.38,0,1.38,0,3.48.12,3.91.63,1.09-.43,5.21-1.06,6.27-.54.92-1.75,3.64-.94,5.23.42.8,1.39,1.28,2.89,1.41.55.05.96.53.91,1.08-.04.52-.48.91-1,.91Zm-2.59-14h0Zm-.05-.1h0Z"/>
    <path class="cls-1" d="m353.51,358.41c-.16,0-.32-.04-.47-.12-.49-.26-.67-.87-.41-1.35.02-.03,1.57-2.94,4.64-8.44,2.27-4.07,2.32-6.04,2.39-9.02.02-.9.05-1.93.14-3.11.04-.55.52-.98,1.07-.92.55.04.96.52.92,1.07-.08,1.13-.11,2.09-.13,3.01-.08,3.16-.13,5.44-2.64,9.94-3.05,5.48-4.6,8.38-4.62,8.41-.18.34-.53.53-.88.53Z"/>
    <path class="cls-1" d="m337.81,362.62c-.21,0-.43-.07-.61-.21-.44-.34-.51-.97-.17-1.4,1.39-1.79,3.02-3.99,3.21-4.43.03-.09.12-.3.25-.63,2.72-6.84,4.72-12.59,5.95-17.09.15-.53.7-.85,1.23-.7.53.14.85.69.7,1.23-1.24,4.57-3.27,10.39-6.02,17.3-.12.3-.2.51-.24.6-.31.82-2.55,3.74-3.5,4.96-.2.25-.49.38-.79.38Z"/>
    <path class="cls-1" d="m338.77,309.26c-.2,0-.41-.06-.58-.19-.28-.2-6.97-5-8.34-6.31-.82-.78-1.2-2.01-1.63-3.43-.45-1.46-.96-3.13-2.04-4.71-.31-.46-.19-1.08.26-1.39.46-.31,1.08-.19,1.39.26,1.25,1.84,1.84,3.73,2.3,5.25.36,1.16.66,2.15,1.1,2.57,1.06,1.01,6.23,4.77,8.13,6.13.45.32.55.95.23,1.4-.2.27-.5.42-.81.42Z"/>
    <path class="cls-1" d="m325.23,306.7c-.16,0-.33-.04-.48-.12l-1.5-.83c-.15-.08-.28-.21-.37-.36-4.3-7.06-6.44-11.16-6.37-12.17.01-.17-.17-.74-.31-1.15-.52-1.6-1.31-4.03-.18-6.84.21-.51.79-.77,1.3-.56.51.21.76.79.56,1.3-.86,2.14-.23,4.07.23,5.48.25.75.44,1.35.4,1.91.14.82,3.11,6.1,5.95,10.77l1.27.7c.48.27.66.88.39,1.36-.18.33-.52.52-.88.52Z"/>
    <path class="cls-1" d="m373.99,388.76c-.06,0-.11,0-.17-.01-.54-.09-.91-.61-.81-1.16.1-.56.43-2.44.63-2.96.18-.46,2.48-6.86,3.04-8.9.29-1.05-.2-2.27-.71-3.55-.31-.78-.62-1.58-.79-2.4-.48-2.33,1.34-6.22,3.96-11.47.92-1.83,1.67-6.24.03-16.83l-.03-.18c-.24-1.54-1.43-4.62-2.69-7.87-.69-1.77-1.39-3.59-2.05-5.41-.19-.52.08-1.09.6-1.28.52-.19,1.09.08,1.28.6.64,1.79,1.35,3.61,2.03,5.36,1.36,3.51,2.54,6.54,2.81,8.29l.03.18c1.38,8.92,1.3,14.99-.22,18.03-1.76,3.52-4.17,8.34-3.79,10.17.13.65.41,1.34.69,2.06.58,1.46,1.24,3.12.78,4.82-.59,2.15-2.91,8.6-3.1,9.1-.09.25-.35,1.54-.53,2.59-.08.49-.51.83-.98.83Z"/>
    <path class="cls-1" d="m361.8,389.04c-.16,0-.33-.04-.48-.13-1.27-.7-1.26-2.1-1.25-3.22,0-.61,0-1.24-.18-1.64-.7-1.51.19-2.92.78-3.85.14-.22.33-.52.37-.63.24-.81,1.49-2.73,2.93-3.37.86-.38,1.54-.23,1.96-.03,1.64.78,1.39,3.04,1.26,4.25l-.03.29c-.11,1.21-1.28,2.92-1.52,3.26-.32.45-.94.56-1.39.24-.45-.32-.56-.94-.24-1.39.53-.75,1.12-1.84,1.16-2.3l.03-.32c.18-1.7.03-2.15-.14-2.23-.07-.04-.21.02-.28.05-.81.36-1.72,1.75-1.82,2.11-.11.37-.33.73-.59,1.14-.51.8-.88,1.46-.66,1.94.38.81.37,1.71.36,2.5,0,.62-.01,1.33.22,1.46.48.27.66.88.39,1.36-.18.33-.52.51-.88.51Z"/>
    <path class="cls-1" d="m374.63,396.49c-.16,0-.27-.04-.39-.1-.17-.08-.32-.2-.43-.36-.33-.41-3.36-3.65-5.22-5.63-.38-.4-.36-1.04.04-1.41.4-.38,1.04-.36,1.41.04,2.94,3.13,4.29,4.58,4.93,5.3.25-.1.56-.23.87-.36l.13-1.34c-.85-.85-3.02-3.02-3.21-3.21-.07-.07-.25-.28-.5-.59-.61-.75-1.74-2.14-2.72-3.01-.77-.69-1.22-1.35-1.7-2.04-.46-.67-.93-1.35-1.79-2.21-.39-.39-.39-1.02,0-1.41s1.02-.39,1.41,0c.99.99,1.54,1.79,2.02,2.5.44.64.79,1.15,1.38,1.68,1.09.98,2.29,2.45,2.93,3.24.18.22.31.38.37.44.23.23,3.54,3.54,3.54,3.54.21.21.32.51.29.81l-.24,2.39c-.04.35-.26.66-.58.81-1.61.73-2.22.93-2.56.93Zm.7-1.73c.12.15.17.23.2.29-.05-.12-.12-.21-.2-.29Z"/>
    <path class="cls-1" d="m375.63,400.73c-.09,0-.19-.01-.28-.04-3.12-.91-3.31-1.07-3.47-1.53-.28-.51-2.31-4-3.58-6.15-.28-.48-.12-1.09.36-1.37.48-.28,1.09-.12,1.37.36,2.3,3.92,3.16,5.42,3.5,6.02.37.14,1.13.38,1.88.61.06-.06.12-.11.16-.16-.07-.28-.29-.86-.49-1.38-.12-.31-.25-.65-.39-1.03-.19-.52.08-1.09.59-1.28.52-.19,1.09.08,1.28.59.13.37.26.7.38,1,.4,1.04.64,1.67.64,2.21,0,.87-.87,1.61-1.38,1.97-.17.12-.37.18-.57.18Zm-1.98-2.49c.06.12.08.16.09.19-.03-.07-.06-.14-.09-.19Z"/>
    <path class="cls-1" d="m365.1,402.02c-.22,0-.44-.07-.62-.21l-1.65-1.29c-.24-.19-.38-.47-.38-.77,0-.3.13-.59.36-.78l2.93-2.45-.15-2.02c-.04-.55.37-1.03.92-1.07.54-.04,1.03.37,1.07.92l.19,2.54c.02.32-.11.64-.36.84l-2.38,1.98.19.15c1.14-.54,2.28-1.09,2.62-1.28.3-.35,1.52-1.79,2.28-2.69.35-.42.98-.48,1.41-.12s.48.99.12,1.41c-1.04,1.24-2.31,2.74-2.45,2.89-.14.14-.27.27-3.68,1.87-.14.06-.28.1-.43.1Z"/>
    <path class="cls-1" d="m364,399.34c-.13,0-.27-.03-.39-.08l-6.13-2.63c-.42-.18-.67-.63-.59-1.08l.34-2.01c.05-.3.24-.56.51-.71.27-.15.59-.16.87-.04l2.41,1.02c.26,0,.76.01,1.29.01l-1.12-1.54c-.04-.06-.08-.13-.11-.2l-1.63-3.93c-.09-.21-.1-.45-.03-.67l.69-2.3c.16-.53.71-.83,1.25-.67.53.16.83.72.67,1.25l-.59,1.96,1.45,3.49,2.18,3.02c.21.3.25.69.09,1.02-.16.33-.48.55-.85.57-.93.05-3.41,0-3.52,0-.08,0-.16-.01-.24-.03l3.86,1.66c.51.22.74.81.52,1.31-.16.38-.53.61-.92.61Z"/>
    <path class="cls-1" d="m377.11,373.32c-.34,0-.67-.17-.86-.48-.69-1.14-4.28-5.78-9.19-7.55-.52-.19-.79-.76-.6-1.28.19-.52.76-.79,1.28-.6,5.38,1.94,9.28,6.83,10.22,8.39.29.47.13,1.09-.34,1.37-.16.1-.34.14-.52.14Z"/>
    <path class="cls-1" d="m375.15,385.45c-.53,0-.97-.41-1-.95,0-.02-.09-1.68-.51-2.76-.4-1.03-1.98-2.85-4.23-4.88-.41-.37-.45-1-.08-1.41.37-.41,1-.45,1.41-.08,1.81,1.62,4.1,3.92,4.77,5.65.53,1.38.63,3.29.64,3.37.03.55-.39,1.02-.95,1.05-.02,0-.04,0-.05,0Z"/>
    <path class="cls-1" d="m363.76,373.77c-.21,0-.42-.06-.6-.2-.11-.08-2.73-2.06-3.5-4.99-.14-.53.18-1.08.71-1.22.53-.14,1.08.18,1.22.71.59,2.24,2.74,3.88,2.76,3.89.44.33.53.96.2,1.4-.2.26-.5.4-.8.4Z"/>
    <path class="cls-1" d="m365.79,359.04c-.26,0-.53-.1-.73-.3-.58-.58-2.17-3.7-1.82-10.14.03-.55.5-.98,1.05-.95.55.03.97.5.95,1.05-.29,5.47.93,8.22,1.27,8.65.39.39.38,1.01-.02,1.4-.19.19-.44.28-.7.28Z"/>
    <path class="cls-1" d="m380.71,346.29c-.43,0-.84-.29-.96-.73-.23-.79-2.64-2.58-7.02-2.1-.56.05-1.04-.34-1.1-.88-.06-.55.34-1.04.88-1.1,5.39-.59,8.65,1.76,9.16,3.54.15.53-.16,1.08-.69,1.24-.09.03-.18.04-.27.04Z"/>
    <path class="cls-1" d="m292.08,271.97c-.14,0-.27,0-.41,0-.55,0-.99-.46-.99-1.01,0-.55.45-.99,1-.99h.01c6.39.1,11.64-1.82,13.35-4.85.27-.48.88-.65,1.36-.38.48.27.65.88.38,1.36-2.44,4.33-9.12,5.87-14.71,5.87Z"/>
    <path class="cls-1" d="m307.33,330.96c-.52,0-.96-.4-1-.92-.05-.6-.44-5.94-.04-7.82.31-1.46-1.22-7.93-2.31-9.74-.9-1.5-1.26-4.99-1.69-9.04-.18-1.76-.37-3.57-.61-5.25-.68-4.77-2.63-6.77-4.2-8.38l-.25-.26c-1.49-1.54-6.64-5.79-8.07-6.91-.36-.28-.83-.29-1.37-.31-.73-.02-1.84-.04-2.37-1.16-.26-.56-1.24-.55-1.79-.41-1.61.4-9.86-2.83-13.74-4.94-1.23-.67-2.46-1.56-3.88-2.6-3.57-2.61-8.38-6.13-16.81-8.21.95,9.5-3.92,17.9-7.13,20.08-2.43,1.65-7.47.03-10.47-2.46-2.36-1.96-3.23-4.21-2.37-6.17.62-1.43,1.44-3.63,1.45-3.65.19-.52.77-.78,1.29-.59.52.19.78.77.59,1.29-.03.09-.85,2.28-1.49,3.75-.67,1.55,1.04,3.2,1.81,3.84,2.57,2.13,6.65,3.31,8.07,2.34,2.91-1.98,7.57-10.44,6.09-19.57-.05-.33.06-.66.3-.89s.58-.32.9-.25c9.71,2.12,15.05,6.02,18.96,8.87,1.36.99,2.53,1.85,3.65,2.46,4.36,2.37,11.22,4.75,12.35,4.75.01,0,.02,0,.03,0,1.43-.36,3.27-.05,4.01,1.51.04,0,.38,0,.6.01.71.02,1.67.04,2.56.73,1.2.94,6.61,5.37,8.27,7.09l.25.25c1.58,1.62,3.98,4.08,4.75,9.49.25,1.72.44,3.55.62,5.33.37,3.49.74,7.1,1.41,8.21,1.25,2.09,2.99,9.13,2.55,11.19-.29,1.35-.04,5.69.08,7.25.04.55-.37,1.03-.92,1.07-.03,0-.05,0-.08,0Z"/>
    <path class="cls-1" d="m320.84,367.98s-.04,0-.06,0c-.55-.03-.97-.51-.94-1.06.13-2.17.26-4.06.36-5.72.59-9.11.73-11.28-.34-15.67-1-4.11-1.39-4.88-2.34-6.76-.26-.52-.57-1.13-.93-1.9-1.4-2.95-4.11-5.46-4.91-5.9-.28.01-.61-.03-1.16-.09-1.56-.17-4.45-.48-7.94.06-3.25.5-7.09,2.14-9.9,3.34-1.38.59-2.46,1.05-3.15,1.24-.86.23-2.32.55-4.02.93-2.23.49-4.76,1.05-6.97,1.63-1.28.33-4.39.35-8.7.39-8.86.07-23.54.18-28.04,3.67.94,11.98.51,16.13-.05,19.64-.26,1.62-.82,2.71-1.37,3.44,1.42.21,4.26.15,9.38-1.6,1.05-.36,2.02-.69,2.91-.99,7.03-2.36,9.15-3.07,12.59-7.37,4.25-5.31,14.07-7.25,17.29-7.89l.14-.03c.54-.1,1.07.25,1.18.79.11.54-.25,1.07-.79,1.18l-.14.03c-3.05.6-12.33,2.43-16.12,7.18-3.81,4.76-6.45,5.65-13.51,8.02-.89.3-1.85.62-2.9.98-9.42,3.22-12.17,1.23-12.63.8-.25-.23-.36-.57-.3-.9.06-.33.28-.61.59-.74.03-.02,1.3-.66,1.71-3.2.44-2.75,1.04-6.52,0-19.68-.02-.3.09-.6.31-.81,4.61-4.32,19.14-4.43,29.75-4.51,3.85-.03,7.17-.05,8.21-.32,2.25-.58,4.9-1.17,7.04-1.64,1.67-.37,3.12-.69,3.93-.91.55-.15,1.63-.61,2.88-1.14,2.9-1.24,6.88-2.94,10.38-3.48,3.75-.58,6.82-.25,8.46-.07.36.04.79.07.88.08,1.4-.35,5.3,3.89,6.79,7.04.36.75.65,1.34.91,1.85.96,1.9,1.44,2.86,2.49,7.19,1.15,4.69.99,7.14.39,16.28-.11,1.66-.23,3.55-.36,5.72-.03.53-.47.94-1,.94Zm-8.85-37.05s0,0,0,0c0,0,0,0,0,0Zm-.4,0h0Z"/>
    <path class="cls-1" d="m275.81,360.52c-1.51,0-2.96-.15-4.55-.31-2.14-.22-4.56-.46-7.91-.46-.55,0-1-.45-1-1s.45-1,1-1c3.46,0,5.93.25,8.11.47,3.39.34,5.83.59,9.78-.44,3.02-.79,4.72-1.51,5.97-2.04,1.54-.65,2.54-1.08,4.41-1,1.01.04,2.02.24,3,.44,2.12.42,4.12.82,6.02-.31,2.46-1.47,7.42-8.38,9.13-10.93.31-.46.93-.58,1.39-.27.46.31.58.93.27,1.39-.26.39-6.42,9.53-9.76,11.53-2.55,1.53-5.14,1.01-7.43.55-.95-.19-1.84-.37-2.7-.4-1.42-.05-2.13.24-3.55.85-1.3.55-3.08,1.31-6.24,2.13-2.31.6-4.17.8-5.93.8Z"/>
    <path class="cls-1" d="m306.58,353.66c-.4,0-.8,0-1.18,0h-.96c-.55,0-1-.45-1-1s.45-1,1-1h.97c3.25.02,8.7.04,9.82-1.8.29-.47.9-.63,1.37-.34.47.29.62.9.34,1.37-1.55,2.57-6.23,2.78-10.36,2.78Z"/>
    <path class="cls-1" d="m299.72,387.73c-1.2,0-2.56-.43-4.1-2.06-1.02-1.08-2.25-1.67-3.44-2.24-2.27-1.08-4.62-2.21-4.69-6.44-.07-4.3-.5-6.35-.87-8.16-.12-.56-.23-1.1-.33-1.68-.43-2.56-.35-4.71-.35-4.8.02-.55.46-.97,1.04-.96.55.02.98.49.96,1.04,0,.02-.08,2.04.32,4.39.09.55.2,1.07.31,1.61.39,1.9.83,4.04.91,8.53.05,3,1.44,3.66,3.55,4.67,1.29.62,2.75,1.31,4.03,2.67,1.69,1.79,2.74,1.53,4.2,1.18.84-.2,1.79-.43,2.86-.23,3.39.64,5.47-.17,6.73-2.63.75-1.46,2.1-3.24,3.54-5.13,2.34-3.08,5-6.56,5.53-9.34.1-.54.63-.89,1.17-.79.54.1.9.63.79,1.17-.62,3.24-3.43,6.92-5.91,10.18-1.38,1.81-2.68,3.52-3.35,4.82-2.49,4.9-7.3,3.99-8.88,3.69-.65-.12-1.28.03-2.01.21-.62.15-1.29.31-2.03.31Z"/>
    <path class="cls-1" d="m304.54,377.59c-.96,0-1.77-.38-2.79-.92-.64-.34-1.37-.72-2.37-1.1-2.85-1.07-4.19-2.16-5.47-3.21-.65-.53-1.27-1.04-2.1-1.56-3-1.89-6.88-9.25-7.03-13.35-.02-.55.41-1.02.96-1.04.56-.04,1.02.41,1.04.96.14,3.67,3.86,10.33,6.09,11.73.93.59,1.63,1.16,2.3,1.7,1.22.99,2.37,1.93,4.91,2.89,1.12.42,1.94.85,2.6,1.2,1.74.91,2.14,1.13,4.92-.62,3.33-2.1,4.22-2.25,5.51-2.34.33-.02.67-.04,1.14-.14,1.62-.33,2.81-1.24,3.85-2.94,1.01-1.65,1.9-3.62,1.91-3.64.19-.42.63-.65,1.08-.57.45.08.79.45.83.91.27,3.41,1.56,6.48,3.22,7.65.56.39,1.08.52,1.6.38,2.02-.54,4.01-3.36,4.61-4.41.27-.48.88-.65,1.36-.37.48.27.64.88.37,1.36-.1.18-2.59,4.48-5.83,5.35-1.1.29-2.23.06-3.27-.68-1.57-1.11-2.85-3.33-3.54-6.03-.2.36-.41.73-.63,1.09-1.33,2.19-2.97,3.41-5.15,3.86-.6.12-1.05.15-1.41.18-.88.06-1.51.1-4.58,2.03-1.87,1.18-3.09,1.62-4.12,1.62Z"/>
    <path class="cls-1" d="m309,386.89c-.55,0-1-.45-1-1s.45-1,1-1c5,0,7.08-2.65,8.63-5.13.97-1.56,1.35-2.5,1.78-3.58.18-.46.37-.93.61-1.46.8-1.8,1.55-3.65,1.55-3.65l1.85.75s-.76,1.88-1.58,3.71c-.23.51-.4.96-.58,1.39-.45,1.13-.87,2.19-1.94,3.91-1.23,1.97-3.79,6.07-10.33,6.07Z"/>
    <path class="cls-1" d="m296.16,385.02c-.42,0-.81-.27-.95-.69-1.86-5.68-1.68-8.19-1.67-8.29.04-.55.53-.95,1.08-.92.55.04.96.53.92,1.08,0,.01-.13,2.29,1.58,7.51.17.53-.11,1.09-.64,1.26-.1.03-.21.05-.31.05Z"/>
    <path class="cls-1" d="m307.11,325.85c-.54,0-.98-.43-1-.97-.01-.55.42-1.01.97-1.03l3.48-.1c.51-.01,1.01.42,1.03.97.01.55-.42,1.01-.97,1.03l-3.48.1h-.03Z"/>
    <path class="cls-1" d="m252.53,288.45c-4.52,0-10-.5-14.44-2.29-.51-.21-.76-.79-.56-1.3.2-.51.79-.76,1.3-.56,8.17,3.28,20.41,1.95,21.8,1.51,1.69-.53,9.88-.5,11.51-.48.55,0,1,.46.99,1.01,0,.55-.45.99-1,.99h0c-3.64-.03-9.82.05-10.89.39-.76.24-4.28.72-8.7.72Z"/>
    <path class="cls-1" d="m274.55,299.52c-1.49,0-2.6-.15-3.05-.52-1.02-.84-3.31-1.32-5.96-1.87-.75-.16-1.54-.32-2.34-.5-2.44-.55-3.74-1.7-5.55-3.29-1.35-1.19-3.02-2.66-5.8-4.51-.46-.31-.58-.93-.28-1.39.3-.46.92-.58,1.39-.28,2.89,1.93,4.62,3.45,6.01,4.68,1.76,1.55,2.73,2.4,4.67,2.84.79.18,1.57.34,2.31.49,3.03.63,5.42,1.13,6.82,2.28,1.1.52,9.25-.47,16.14-1.7.56-.1,1.06.27,1.16.81.1.54-.27,1.06-.81,1.16-4.29.76-10.81,1.8-14.71,1.8Z"/>
    <path class="cls-1" d="m289.08,309.26c-.06,0-.11,0-.17-.01-4.03-.68-10.94-1.95-11.95-2.76-.92-.74-1.13-1.81-1.51-3.77-.18-.91-.4-2.04-.75-3.48-.13-.54.2-1.08.73-1.21.53-.13,1.08.2,1.21.73.36,1.48.59,2.64.77,3.57.28,1.44.45,2.31.8,2.59.7.41,6.17,1.52,11.03,2.35.54.09.91.61.82,1.15-.08.49-.51.83-.99.83Z"/>
    <path class="cls-1" d="m285.77,325.85c-.2,0-.4-.06-.58-.19-.46-.33-2.82-2.58-4.27-4.2-.99-1.11-1.25-1.58-1.33-1.95-.25-1.14.32-9.97.66-12.12.08-.55.6-.92,1.14-.83.55.08.92.6.83,1.14-.37,2.36-.8,10.19-.69,11.34.06.1.26.4.88,1.09,1.4,1.56,3.63,3.67,3.96,3.91.44.33.54.95.21,1.4-.2.27-.5.41-.81.41Zm-4.23-6.75h0,0Z"/>
    <path class="cls-1" d="m281.61,337.44c-.47,0-.88-.33-.98-.8-.05-.27-1.35-6.64-1.56-7.99-.13-.82.26-1.75.79-3.04.67-1.63,1.51-3.66,1.51-5.92,0-.55.45-1,1-1s1,.45,1,1c0,2.66-.96,4.99-1.66,6.69-.29.71-.7,1.69-.67,1.97.2,1.3,1.53,7.83,1.54,7.9.11.54-.24,1.07-.78,1.18-.07.01-.13.02-.2.02Z"/>
    <path class="cls-1" d="m240.38,356.56h-.01c-.46,0-4.54-.1-6.5-1.29-1.49-.91-5.45-3.31-6.47-9.17-.29-1.71.02-3.16.93-4.32,1.71-2.17,4.9-2.39,5.03-2.4.07,0,.14,0,.21,0l6.96,1.02c.55.08.92.59.84,1.13-.08.54-.58.93-1.13.84l-6.84-1c-.45.05-2.48.34-3.5,1.64-.55.7-.72,1.6-.53,2.73.76,4.4,3.36,6.48,5.53,7.81,1.27.77,4.4.99,5.5,1,.55,0,.99.46.98,1.02,0,.55-.46.98-1,.98Z"/>
    <path class="cls-1" d="m229.46,359.94c-3.46,0-5.78-3.72-8.02-7.31-.94-1.51-1.83-2.94-2.76-4.01-1.38-1.6-8.28-9.82-9.1-14.39-.71-3.97,1.48-9.71,2.85-11.66,1.61-2.29,4.74-2.4,6.82-2.46,2.5-.08,5.53,2.25,7.32,5.53.69,1.27,2.4,3.85,4.06,6.35,2.89,4.38,4.68,7.11,4.96,8.12.15.53-.16,1.08-.69,1.23-.52.15-1.08-.16-1.23-.69-.21-.76-2.81-4.68-4.71-7.55-1.75-2.65-3.41-5.15-4.14-6.5-1.53-2.8-3.95-4.5-5.35-4.5-.02,0-.04,0-.06,0-1.87.06-4.31.14-5.34,1.62-1.22,1.74-3.1,6.92-2.52,10.17.53,2.95,4.72,8.87,8.65,13.44,1.02,1.19,2,2.75,2.94,4.26,1.96,3.13,3.98,6.37,6.33,6.37,3.77,0,7.28-3.1,7.31-3.13.41-.37,1.04-.33,1.41.08.37.41.33,1.04-.08,1.41-.17.15-4.1,3.64-8.65,3.64Z"/>
    <path class="cls-1" d="m211.85,338.33s-.08,0-.12,0c-.55-.06-.94-.56-.88-1.11.58-4.96,5.14-13.47,9.42-15.97.48-.28,1.09-.12,1.37.36.28.48.12,1.09-.36,1.37-3.38,1.97-7.88,9.69-8.45,14.48-.06.51-.49.88-.99.88Z"/>
    <path class="cls-1" d="m214.45,342.53c-.13,0-.27-.03-.4-.08-.51-.22-.74-.81-.52-1.32,4.75-10.93,11.87-14.9,12.17-15.07.48-.26,1.09-.08,1.36.4.26.48.08,1.09-.4,1.36-.07.04-6.83,3.85-11.29,14.11-.16.38-.53.6-.92.6Z"/>
    <path class="cls-1" d="m218.8,347.62c-.08,0-.17,0-.25-.03-.53-.14-.86-.68-.72-1.22,1.9-7.35,10.33-15.15,10.69-15.48.41-.37,1.04-.35,1.41.06.37.41.35,1.04-.06,1.41-.08.08-8.35,7.73-10.11,14.51-.12.45-.52.75-.97.75Z"/>
    <path class="cls-1" d="m222.19,352.93c-.12,0-.25-.02-.38-.07-.51-.21-.76-.79-.55-1.3,4.36-10.79,9.19-15.94,9.39-16.16.38-.4,1.01-.42,1.41-.04s.42,1.01.04,1.41c-.05.05-4.79,5.13-8.99,15.53-.16.39-.53.62-.93.62Z"/>
    <path class="cls-1" d="m225.7,358.41c-.07,0-.14,0-.21-.02-.54-.12-.88-.65-.77-1.19,1.48-6.84,3.07-8.7,3.24-8.89.38-.41,1.01-.43,1.41-.06.41.37.43,1.01.06,1.41,0,0-1.4,1.7-2.76,7.96-.1.47-.52.79-.98.79Z"/>
    <path class="cls-1" d="m229.59,359.36c-.07,0-.14,0-.21-.02-.54-.11-.89-.64-.77-1.18,1.24-5.92,1.56-6.11,1.93-6.33.47-.29,1.09-.13,1.37.34.21.34.18.76-.03,1.07-.08.19-.45,1.18-1.32,5.33-.1.47-.51.79-.98.79Z"/>
    <path class="cls-1" d="m219.34,265.93c-1,0-1.92-.41-2.61-1.21-1.37-1.58-1.72-4.67.33-7.29h0c2.54-3.24,8.58-6.67,13-9.17,1.92-1.09,3.74-2.12,4.2-2.57,1.9-1.83,19.25-8,24.99-8.13,2.03-.06,2.69.77,2.92,1.46.99,2.93-5.69,8.21-5.76,8.26-.66.48-2.32,1.04-5.42,2.05-3.67,1.2-8.25,2.7-10.46,4.11-1.5.96-14.73,9.41-18.93,11.83-.76.44-1.53.66-2.26.66Zm-.71-7.26h0c-1.32,1.69-1.24,3.78-.4,4.74.71.82,1.68.52,2.37.13,4.17-2.4,17.36-10.83,18.85-11.79,2.43-1.55,7.13-3.09,10.91-4.33,2.07-.68,4.42-1.45,4.87-1.77,1.68-1.22,5.25-5.01,5.04-6-.02.02-.22-.11-.86-.11-.04,0-.08,0-.12,0-5.56.13-22.25,6.22-23.65,7.57-.62.59-2.08,1.43-4.6,2.87-4.03,2.29-10.11,5.75-12.41,8.67Z"/>
    <path class="cls-1" d="m226.13,273.6c-1.56,0-4.04-1.12-5.92-2.71-1.55-1.31-3.4-3.5-3.4-6.5,0-.55.45-1,1-1s1,.45,1,1c0,2.23,1.46,3.93,2.69,4.97,1.95,1.65,4.1,2.33,4.73,2.23,1.38-.23,2.14-1.63,2.15-1.64.05-.1.12-.18.19-.26.73-.7,7.25-6.87,11.06-6.28,2.06.31,3.23.21,3.76.12.49-1.15,1.89-3.94,4.44-5.24,1.38-.71,3.01-1.8,4.9-3.06,1.87-1.25,4-2.68,6.24-3.94,2.23-1.26,3.22-4.96,3.03-7.96-.12-1.99-.69-2.83-.88-2.91-.51-.21-.75-.8-.54-1.31.21-.51.8-.75,1.31-.54,1.7.7,2.04,3.48,2.11,4.64.22,3.63-.95,8.07-4.05,9.82-2.17,1.23-4.26,2.63-6.11,3.86-1.94,1.3-3.61,2.42-5.1,3.18-2.47,1.26-3.65,4.59-3.66,4.62-.09.26-.28.47-.53.58-.25.11-1.66.65-5.23.11-2.13-.31-6.76,3.25-9.27,5.65-.32.53-1.47,2.19-3.5,2.53-.13.02-.28.03-.43.03Z"/>
    <path class="cls-1" d="m261.94,250.27c-.25,0-.5-.09-.7-.28h0s-1.87-1.57-8.27-1.36c-.52-.02-1.01-.42-1.03-.97-.02-.55.42-1.01.97-1.03,7.29-.19,9.49,1.71,9.71,1.93.4.38.41,1.02.02,1.41-.2.2-.46.3-.72.3Z"/>
    <path class="cls-1" d="m257.37,253.79c-.09,0-.19-.01-.28-.04-.07-.02-7.23-2.1-14.01-1.3-.55.06-1.05-.33-1.11-.88-.06-.55.33-1.05.88-1.11,7.19-.85,14.5,1.28,14.81,1.37.53.16.83.71.68,1.24-.13.43-.53.72-.96.72Z"/>
    <path class="cls-1" d="m250.62,258.7c-.11,0-.23-.02-.34-.06-.07-.03-7.22-2.58-14.85-1.56-.55.08-1.05-.31-1.12-.86-.07-.55.31-1.05.86-1.12,8.13-1.08,15.49,1.55,15.8,1.67.52.19.79.76.6,1.28-.15.41-.53.66-.94.66Z"/>
    <path class="cls-1" d="m225.89,262.57c-.45,0-.85-.3-.97-.76-.13-.54.19-1.08.73-1.21,8.97-2.26,19.92-.59,20.38-.52.55.09.92.6.83,1.14s-.59.92-1.14.83c-.11-.02-11.02-1.68-19.58.48-.08.02-.16.03-.25.03Z"/>
    <path class="cls-1" d="m218.37,267.93c-.39,0-.75-.22-.92-.6-.22-.51,0-1.1.52-1.32,4.62-2.02,16.87-1.32,17.39-1.29.55.03.97.51.94,1.06-.03.55-.52.97-1.06.94-.12,0-12.29-.7-16.47,1.13-.13.06-.27.08-.4.08Z"/>
    <path class="cls-1" d="m220.8,271.07c-.41,0-.79-.25-.94-.66-.19-.52.08-1.09.59-1.28,4.25-1.56,9.43-1.58,9.64-1.58.55,0,1,.45,1,1s-.45,1-1,1c-.05,0-5.05.02-8.96,1.46-.11.04-.23.06-.34.06Z"/>
    <path class="cls-1" d="m245.29,280.48c-.22,0-.44-.07-.62-.22l-2.49-1.99c-1.36-1.09-8.45-5.15-14.58-5.21-.55,0-1-.46-.99-1.01,0-.55.45-.99,1-.99h0c6.74.07,14.28,4.42,15.81,5.65l2.49,1.99c.43.34.5.97.16,1.41-.2.25-.49.38-.78.38Z"/>
    <path class="cls-1" d="m248.25,270.31c-.25,0-.49-.09-.69-.27-4.33-4.1-4.44-4.59-4.51-4.89-.12-.54.22-1.07.76-1.2.47-.11.96.15,1.14.59.33.48,2.3,2.45,3.98,4.04.4.38.42,1.01.04,1.41-.2.21-.46.31-.73.31Zm-3.24-5.6s0,0,0,0c0,0,0,0,0,0Zm-.07-.2h0Z"/>
  </g>
  <g>
    <path class="accent" d="m227.11,468.81c.14,2.09,1.33,6.67,2.11,8.1s-3.4,2.69-3.02,3.56-.1,2.17.98,1.73,3.44-2.85,4.11-2.24,4.75,3.11,5.82,2.92c.72-.13,4.88,5.77,7.56,9.7,1.26,1.84,3.8,2.26,5.58.92l4.29-3.23-4.38-5.82,19.21-14.45c.62-.46.74-1.34.28-1.96l-17.26-22.94c-1.05-1.4-2.62-2.33-4.36-2.57l-5.31-.75c-1.74-.25-3.5.21-4.9,1.26l-16.1,12.12c-1.73,1.3-2.07,3.75-.77,5.48l6.16,8.18Z"/>
    <path class="cls-1" d="m227.48,477.7c.23-.18.47-.35.69-.55.46-.43.92-.87,1.36-1.31.14-.14.09-.3-.04-.45-1.52-1.8-2.19-3.96-2.63-6.21-.15-.79-.04-1.63-.07-2.44,0-.17-.05-.38-.16-.52-1.85-2.48-3.71-4.96-5.58-7.43-1-1.32-1.24-2.75-.59-4.28.2-.48.56-.88.85-1.32,6.23-4.69,12.46-9.37,18.69-14.06.83-.39,1.68-.31,2.55-.18,2.36.36,4.73.69,7.1,1.01.97.13,1.7.57,2.29,1.35,3.41,4.56,6.84,9.11,10.27,13.66l.25.33-.68.51-.28-.38c-3.3-4.39-6.61-8.77-9.9-13.17-.65-.86-1.42-1.36-2.51-1.5-2.34-.31-4.68-.68-7.02-1.05-.8-.13-1.49.04-2.14.53-5.77,4.35-11.55,8.69-17.32,13.04-1.83,1.38-2.11,3.37-.75,5.19,1.69,2.26,3.39,4.51,5.09,6.77.06.07.12.14.24.29.96-2.22,2.8-3.24,5.03-3.78-.13-.25-.27-.46-.35-.69-.24-.63-.5-1.25-.67-1.9-.2-.78.09-1.5.61-2.06.77-.82,1.73-1.16,2.86-.84.49.14.97.31,1.46.43.52.13.6.07.71-.45.33-1.59,1.35-2.59,2.77-3.25.43-.2.84-.17,1.25.03.73.36,1.4.79,1.73,1.57.29.69.58,1.4.75,2.14.21.92.23,1.85-.53,2.65.37.17.69.31,1,.47.68.34.74.5.6,1.23-.24,1.26-.97,2.23-1.79,3.17-.4.45-.84.81-1.44.95,0,.03,0,.06,0,.09.43.27.86.55,1.31.83.09-.12.16-.21.23-.3.51.28.74-.24,1.11-.35-.01-.04-.02-.08-.03-.11-.31.09-.62.18-.93.27-.02-.01-.04-.03-.06-.04.15-.14.27-.34.45-.41.25-.1.54-.15.81-.16.34,0,.61-.12.84-.34,1.2-1.15,2.73-1.8,4.14-2.62.25-.15.56-.22.85-.28.12-.02.3.04.39.13.05.05,0,.27-.08.35-.57.65-1.17,1.28-1.74,1.93-.25.29-.51.59-.69.92-.31.56-.75.93-1.34,1.15-.24.09-.33.22-.35.5-.03.4-.12.82-.27,1.19-.32.77-.92,1.07-1.75.95-.11-.02-.23-.02-.32-.07-.52-.29-.93-.1-1.32.26-.18.17-.39.32-.6.47-.32.22-.53.49-.6.9-.07.39-.37.6-.8.58-.35-.02-.63.09-.89.3-1.22.93-2.44,1.85-3.66,2.79-.28.22-.5.52-.77.76-.18.16-.39.37-.61.4-.79.13-1.35.61-1.98,1.17.31.32.57.69.92.95,1.23.9,2.61,1.5,4.08,1.87,1.25.32,2.24-.27,3.07-1.13.47-.48.46-.98.1-1.55-.53-.85-1.39-1.23-2.27-1.58-.05-.02-.16,0-.19.03-.25.36-.52.72-.72,1.12-.08.17-.01.41,0,.65.34-.02.61-.03.93-.05l-.5-.66c.37-.2.73-.29,1.11-.15.3.1.39.33.33.64-.17.84-1.05,1.38-1.86,1.12-.17-.05-.34-.13-.5-.2-.74-.33-.91-.72-.67-1.51.05-.17.11-.35.15-.52.36-1.43,1.82-2.14,3.19-1.56.87.37,1.68.84,2.27,1.61.33.43.51.93.57,1.46.01.1,0,.22-.03.32-.66,1.78-1.83,3-3.73,3.43-.02,0-.04.03-.08.06.05.07.09.15.15.23,2.15,2.86,4.31,5.73,6.46,8.59.76,1.02,1.74,1.62,3.05,1.57.84-.03,1.56-.38,2.22-.88,1.15-.87,2.31-1.74,3.47-2.61l.34-.25.5.67-4.63,3.48c-.79.36-1.6.59-2.48.48-1.07-.13-1.99-.57-2.68-1.42-.67-.84-1.31-1.7-1.95-2.56-1.74-2.31-3.49-4.61-5.21-6.95-.24-.33-.49-.46-.86-.55-2.04-.49-3.95-1.26-5.45-2.8-.08-.08-.18-.15-.31-.25-.91.68-1.81,1.36-2.72,2.04-.71.53-1.6.18-1.78-.69-.02-.08.02-.19.07-.26.2-.33.42-.65.63-.97-.04.38-.05.77-.12,1.14-.07.34.16.51.32.72.05.06.21.1.28.06.44-.27.87-.56,1.39-.9-.71-.31-1.32-.59-1.06-1.49-.33.2-.57.35-.81.49Zm6.22-4.7c-.06-.04-.07-.06-.09-.07-.04-.02-.09-.03-.14-.04-.91-.09-1.34-.66-1.54-1.49-.03-.14-.08-.28-.12-.42-.05-.16-.1-.31.11-.43.21-.12.35-.09.48.1.2.3.46.33.78.18.4-.19.81-.37,1.23-.53.76-.28,1.39-.74,1.94-1.33.25-.27.23-.4.03-.69-.16-.23-.2-.57-.25-.86-.01-.07.13-.2.22-.24.05-.02.18.09.23.17.19.28.36.57.54.85.24.35.56.58,1.07.68-.22-.27-.42-.46-.56-.69-.25-.39-.48-.8-.69-1.21-.13-.27-.03-.48.29-.61.19.41.37.8.6,1.3.41-.31.8-.57,1.15-.87.63-.53,1.02-1.24,1.34-1.98.05-.12.2-.26.32-.28.6-.08,1.06-.35,1.4-.85.19-.28.43-.52.64-.78.46-.61.88-1.24,1.03-2.01.02-.1-.01-.28-.09-.33-.99-.63-2.02-1.11-3.23-.61-.17.07-.34.13-.52.15-.21.03-.29.14-.29.34,0,.42.04.85,0,1.26-.04.36-.09.76-.26,1.07-.37.67-.96,1.13-1.7,1.31-1.41.34-2.78.36-3.93-.74-.21-.2-.42-.4-.66-.55-.2-.13-.47-.29-.68-.25-1.54.31-2.94.83-3.88,2.25-.65.99-1.03,2.01-1,3.18.01.46.06.91.12,1.37.19,1.47.83,2.81,1.25,4.22.17.57.5,1.03.89,1.47.24.27.44.31.67.06.1-.1.18-.27.18-.41-.02-.32-.09-.64-.16-.96-.2-.88-.02-1.75.1-2.62.01-.1.21-.23.34-.26.15-.03.33.01.33.27,0,.51.22.95.59,1.28.36.32.78.58,1.21.9-.03.13-.08.32-.12.51-.04.19-.08.38-.09.57,0,.1.02.25.09.31.28.25,1.13.27,1.5.04-.17-.03-.33-.05-.48-.08-.16-.04-.33-.08-.48-.16-.48-.25-.54-.63-.18-1.02.14-.15.28-.29.44-.46Zm4.1-14.47c-.25-.27-.49-.56-.76-.82-.2-.19-.42-.41-.66-.47-.62-.17-1.27-.23-1.9-.38-1.79-.43-2.76,1.14-2.57,2.36.07.48.22.97.42,1.41.67,1.43,1.72,2.45,3.28,2.89.81.23,1.56.08,2.25-.31.99-.55,1.3-1.34,1.01-2.44-.21-.81-.56-1.56-1.06-2.24Zm4.58.79c.1-.44.23-.85.29-1.28.23-1.42-.09-2.71-1.08-3.78-.7-.76-1.46-.92-2.24-.48-.33.18-.63.45-.88.73-.58.66-1.05,1.39-1.06,2.31,0,.14,0,.31.08.41.56.78,1.15,1.54,1.73,2.31,1.03-.4,2.05-.7,3.15-.23Zm-10.56,17.67c0,.05-.02.1-.03.15.16.17.31.33.47.5,1.17,1.23,2.71,1.8,4.28,2.3.57.18,1.19.23,1.79.23.42,0,.89-.08,1.25-.28.55-.31,1.07-.7,1.53-1.14.93-.88.88-2.5-.08-3.25-.47-.37-1-.67-1.53-.96-.26-.14-.57-.21-.86-.23-.65-.05-1.1.3-1.41.84-.31.53-.34,1.2-.09,1.6-.09-.71.06-1.2.49-1.67.35-.38.94-.53,1.39-.29.52.28,1.04.57,1.5.92,1.11.84,1.23,2.01.32,3.07-.2.23-.44.45-.71.61-1.16.67-2.4.61-3.59.16-1.41-.54-2.77-1.18-3.88-2.25-.1-.1-.22-.2-.35-.24-.15-.05-.32-.05-.48-.07Zm4.03-5.36l2.73-2.05c-.25-.14-.46-.26-.67-.36-.35-.18-.67-.19-.98.12-.22.22-.49.39-.74.58q-.88.67-.34,1.72Zm-2.5,2.12c.25.12.48.32.58.27.42-.22.8-.5,1.18-.78.25-.18.43-.49.7-.6,1.24-.49,2.15-1.45,3.21-2.19.07-.05.1-.28.08-.3-.12-.06-.31-.15-.38-.1-.84.62-1.71,1.22-2.49,1.91-.49.44-.93.98-1.6,1.07-.52.07-.8.44-1.28.71Zm4.92-5.64c.4.77.47.81,1,.62.04-.16.06-.32.11-.46.1-.27.22-.43.6-.37.76.12,1.28-.39,1.82-.84-.63-.11-1.2-.22-1.78-.32-.09-.01-.22.03-.29.1-.49.41-.96.83-1.46,1.27Zm8.79-2.63c.43-.53.81-1.04,1.23-1.51.21-.23.18-.41,0-.62-.08-.09-.17-.17-.27-.27-.53.28-1.06.55-1.57.82.12.28.33.54.27.7-.14.39.09.58.34.88Zm-12.43,8.66c.32.3.53.11.73-.03,1.36-1.01,2.72-2.03,4.08-3.06.08-.06.12-.18.18-.27l-.11-.1c-1.61,1.15-3.22,2.29-4.87,3.46Zm-3.33.43c.05,0,.1.01.16.02.34-.35.67-.71,1.06-1.11-.76-.3-1.21-.75-1.47-1.39-.3.2-.36.44-.3.74.07.3.08.62.17.92.09.29.25.55.38.82Zm14.86-8.67c-.16-.25-.35-.25-.52-.12-.37.28-.74.58-1.1.87-.7.56-1.36,1.17-2.15,1.62-.58.33-1.11.76-1.65,1.17-.07.05-.05.21-.07.32.1,0,.23.02.3-.03.51-.39,1-.79,1.5-1.19.24-.2.46-.43.71-.61.36-.26.73-.5,1.1-.74.53-.35,1.06-.7,1.58-1.05.1-.07.19-.14.3-.22Zm-.14-.98s-.04-.09-.06-.14c-.27.07-.6.06-.81.21-.73.55-1.41,1.16-2.1,1.76-.07.06-.06.22-.09.34.04.03.09.05.13.08.95-.78,2.17-1.2,2.92-2.25Zm-15.9,11.82c.06.04.11.07.17.11.62-.47,1.24-.94,1.87-1.4.16-.12.3-.26.16-.43-.07-.08-.33-.12-.42-.06-.55.39-1.1.8-1.61,1.24-.12.1-.12.35-.17.53Zm2.5-5.06c.31.61.73.96,1.25,1.06.08-.24.15-.48.23-.72,0-.02.02-.04.03-.07.08-.41-.3-.77-.69-.63-.27.1-.53.23-.81.35Zm8.1-1.22c-.32-.31-.81-.57-.94-.96-.12-.38.13-.87.22-1.32-.39-.1-.4-.09-.71.92-.14,0-.28,0-.44,0,.83.81,1.36,1.49,1.88,1.36Zm1.96-4.32s-.08.03-.12.06c-.23.23-.44.18-.7.03-.31-.18-.64-.33-.99-.44-.11-.03-.28.11-.42.17.09.1.16.26.27.29.42.11.84.19,1.27.27.24.05.38.16.38.43,0,.15.07.3.11.44.06-.43.12-.84.18-1.26Zm-9.51,9.36s-.05-.08-.07-.12c-.82.54-1.74.93-2.41,1.72.12.03.26.06.33,0,.72-.53,1.44-1.07,2.15-1.61Zm8.87-7.93c-.05-.02-.11-.05-.16-.07-.49.4-.98.8-1.45,1.22-.08.08-.09.24-.13.37.04.02.08.04.11.06.52-.39,1.06-.78,1.56-1.19.07-.06.04-.25.06-.38Zm1.54.67c.45.15.91.35,1.34.02.37-.28.62-.94.53-1.28-.32.02-.33.28-.37.49-.05.3-.2.46-.5.51-.34.06-.66.17-1,.26Zm-14.63,8.69s-.08-.04-.12-.06c-.07.16-.19.32-.2.49-.05.53.31.76.75.88.08.02.18-.03.27-.04,0-.03.01-.06.02-.09-.58-.19-.62-.7-.71-1.17Zm5.8-6.1c0,.5.02.93.02,1.35.79-.35.81-.45.23-1.09-.06-.07-.13-.13-.26-.26Zm-5,6.34c-.02-.17-.04-.39-.07-.61-.06,0-.11,0-.17,0,0,.23-.05.49.04.69.09.21.3.38.47.55.03.03.18.02.22-.03.04-.05.03-.18,0-.22-.14-.14-.3-.25-.47-.39Zm8.77-.9l.38.5c.04-.15.06-.25.1-.37-.16-.05-.29-.08-.47-.13Z"/>
    <path class="cls-1" d="m253.5,486.33l-.62.47c-.08-.1-.17-.19-.24-.3-3.29-4.37-6.57-8.73-9.86-13.1-.42-.56-.44-.95.07-1.43.37-.35.82-.62,1.28-.85.37-.18.73-.03.99.31,2.37,3.15,4.74,6.31,7.11,9.46.01.02.02.04.04.09l-.62.46c-.08-.11-.17-.22-.25-.34-2.23-2.96-4.45-5.92-6.68-8.88-.35-.47-.62-.51-1.06-.18-.44.33-.46.58-.1,1.06,3.22,4.28,6.44,8.56,9.66,12.84l.28.37Z"/>
    <path class="cls-1" d="m265.88,461.32l-3.23-4.3.62-.47c.08.09.17.19.24.29,2.28,3.03,4.56,6.05,6.83,9.08.45.6.45,1.01-.09,1.52-.31.29-.68.54-1.06.73-.49.25-.87.12-1.2-.32-1.08-1.43-2.16-2.87-3.24-4.31-.34-.46-.35-.85.04-1.27.31-.34.7-.62,1.09-.95Zm2.31,3.04c-.5-.66-.99-1.34-1.51-1.98-.13-.16-.4-.33-.59-.31-.67.07-.92.7-.53,1.24.52.71,1.06,1.41,1.59,2.11.44.59.87,1.19,1.34,1.75.14.16.4.33.59.32.66-.04.94-.7.55-1.22-.47-.64-.95-1.27-1.43-1.91Z"/>
    <path class="cls-1" d="m262.3,473.43l2.07,2.76-.62.47c-.08-.1-.16-.18-.23-.28-1.89-2.5-3.77-5.01-5.65-7.51-.43-.58-.44-1,.08-1.5.32-.31.72-.57,1.12-.77.47-.23.82-.11,1.14.31,1.1,1.45,2.19,2.9,3.28,4.36.33.44.32.81-.05,1.24-.15.18-.34.34-.52.49-.18.15-.39.27-.62.43Zm-1.06-3.85c-.5-.66-1-1.33-1.5-1.99-.3-.4-.58-.43-.99-.13-.41.3-.48.61-.17,1.02.98,1.31,1.97,2.62,2.96,3.93.31.41.61.44,1.02.13.41-.31.45-.59.14-1.01-.48-.65-.97-1.29-1.46-1.94Z"/>
    <path class="cls-1" d="m264.01,466.11c-.3-.4-.61-.85-.97-1.27-.22-.26-.56-.22-.9.06-.33.27-.4.54-.2.85.12.19.27.36.42.56-.12.1-.21.18-.3.25-.09.07-.19.14-.31.23-.24-.32-.49-.59-.67-.91-.18-.31-.09-.68.15-.9.39-.36.82-.71,1.28-.97.46-.25.85-.1,1.17.32,1.08,1.43,2.16,2.87,3.24,4.31.33.44.36.86-.02,1.24-.36.36-.78.68-1.23.92-.46.25-.85.1-1.17-.32-.54-.71-1.08-1.42-1.61-2.14-.36-.48-.36-.89.06-1.33.31-.32.69-.59,1.06-.9Zm.3,2.81c.24.32.47.64.72.95.27.34.55.36.94.08.39-.28.48-.58.24-.92-.48-.66-.97-1.32-1.48-1.96-.26-.33-.55-.31-.95,0-.37.29-.43.55-.19.89.23.32.48.64.71.95Z"/>
    <path class="cls-1" d="m258.95,473.68l.6-.45c.21.28.44.55.62.84.19.31.12.63-.09.92-.35.49-.82.85-1.39,1.05-.44.16-.77.06-1.05-.32-1.11-1.47-2.22-2.94-3.33-4.42-.29-.39-.33-.78.01-1.12.39-.39.86-.73,1.34-1,.4-.22.77-.08,1.06.28.58.75,1.16,1.51,1.72,2.28.31.42.28.85-.11,1.25-.31.32-.69.59-1.06.9.32.42.63.9,1.01,1.33.25.28.56.1.81-.09.25-.19.46-.42.28-.77-.12-.23-.28-.44-.43-.68Zm-1.97-2.58s0,0,0,0c-.25-.34-.49-.69-.76-1.01-.27-.31-.59-.3-.95,0-.36.29-.43.56-.18.9.47.64.95,1.28,1.43,1.91.27.36.54.37.93.08.41-.3.49-.57.23-.94-.22-.32-.46-.62-.69-.93Z"/>
    <path class="cls-1" d="m252.77,475.94c.54.71,1.08,1.42,1.61,2.14.35.47.37.86-.03,1.27-.35.35-.77.66-1.2.9-.47.25-.86.11-1.18-.31-1.09-1.44-2.18-2.89-3.26-4.34-.32-.43-.35-.84.01-1.21.36-.36.78-.69,1.22-.93.49-.27.85-.13,1.2.32.55.72,1.09,1.44,1.63,2.17Zm-.63.48c-.49-.65-.98-1.31-1.48-1.96-.32-.42-.6-.45-1.01-.15-.41.31-.46.61-.16,1.02.98,1.31,1.97,2.62,2.96,3.93.31.4.62.43,1.02.11.4-.31.44-.58.14-.99-.49-.66-.98-1.31-1.48-1.97Z"/>
    <path class="cls-1" d="m251.6,471.75c-.18.12-.31.2-.45.29l-.35-.46c.12-.11.24-.23.39-.36l-2.68-3.56.63-.47,2.69,3.58.99-.75.38.5-.97.73,5.25,6.98-.64.48-5.23-6.96Z"/>
    <path class="cls-1" d="m245.04,445.38c.13-.1.24-.18.34-.26,1.22-.92,2.45-1.84,3.67-2.76.13-.09.25-.23.39-.25.14-.02.35.02.42.12.07.1.04.31-.01.44-.04.1-.17.16-.27.23-1.34,1.01-2.68,2.02-4.02,3.02-.5.37-.83.33-1.2-.16-1.07-1.41-2.13-2.83-3.2-4.25-.07-.1-.18-.2-.18-.31,0-.13.04-.32.14-.39.09-.07.31-.07.41,0,.16.1.27.27.39.42.95,1.26,1.9,2.52,2.85,3.78.08.1.16.21.26.35Z"/>
    <path class="cls-1" d="m270.59,457.82c.29.39.59.75.85,1.14.17.25.31.25.51.06.12-.11.26-.2.41-.31l.36.48-.69.52,1.07,1.43-.65.49-1.06-1.41-.7.53-.36-.48.69-.52-1.07-1.43.65-.49Z"/>
    <path class="cls-1" d="m269.27,461.04l.72-.54.35.46c-.21.18-.43.36-.67.56l1.06,1.4-.64.49-1.06-1.41-.7.53-.36-.48.69-.52-1.08-1.44.64-.48,1.08,1.43Z"/>
    <path class="cls-1" d="m234.42,461.58c-.27-.37-.2-.69.22-1,.47-.35.77-.36,1.02-.02.33.45.32,1.05-.02,1.31-.29.22-.96.07-1.21-.28Z"/>
    <path class="cls-1" d="m240.96,455.05c.38.15.62.46.77.83.1.26-.07.47-.3.53-.23.05-.49.01-.73-.02-.06,0-.13-.15-.15-.24-.08-.42-.01-.81.42-1.1Z"/>
  </g>
  <g>
    <g>
      <path class="accent" d="m253.66,437.08c3.64,11.01,13.19,18.41,23.96,19.86l-25.29-31.98c-.4,3.97,0,8.09,1.33,12.12Z"/>
      <path class="accent" d="m299.8,420.27c-1.14-3.44-3.16-5.41-4.83-6.91-2.17-1.83-4.13-3.33-4.89-5.62-.85-2.56.31-5.58,3.04-6.48.12-.04.25-.06.37-.1-6.45-2.9-13.96-3.49-21.2-1.09-9.72,3.21-16.62,11.03-19.1,20.23.66-.2,1.28-.39,1.8-.56,2.91-.96,7.3-2.8,7.3-2.8,1.47-.58,2.38,1.56.94,2.23,0,0-1.45.68-3.1,1.32l20.09,26.79.05-20.27-8.26-10.44c-1.53.41-3.01.7-3.01.7-1.53.41-2.11-1.94-.58-2.35,0,0,4.71-1.17,7.45-2.07,2.91-.96,7.3-2.8,7.3-2.8,1.47-.58,2.38,1.56.94,2.23,0,0-1.45.68-3.1,1.32l19.94,26.58-.29-10.19c-.07-4.25-.07-7.31-.86-9.69Z"/>
      <path class="accent" d="m282.77,430.15l-.33,27.02c2.73-.09,5.5-.56,8.23-1.46,3.24-1.07,6.16-2.66,8.72-4.63-.11-.09-.22-.2-.32-.32l-16.3-20.6Z"/>
      <path class="accent" d="m301.48,406.46c.41.85.79,1.78,1.13,2.8.93,2.82,1.46,6.17,1.18,10.67l-.38,27.38c6.68-7.56,9.28-18.36,5.89-28.62-1.6-4.84-4.34-8.98-7.82-12.22Z"/>
      <path class="accent" d="m270.76,395.45c-17.88,5.91-27.62,25.27-21.71,43.15s25.27,27.62,43.15,21.71c17.88-5.91,27.63-25.27,21.71-43.16-5.91-17.88-25.27-27.62-43.16-21.71Zm20.95,63.38c-17.06,5.64-35.54-3.65-41.18-20.72-5.64-17.06,3.65-35.53,20.72-41.17,17.06-5.64,35.53,3.65,41.17,20.72,5.64,17.06-3.65,35.54-20.71,41.18Z"/>
    </g>
    <g>
      <path class="cls-1" d="m279.61,455.93s-.09,0-.13,0c-11.61-1.55-21.1-9.42-24.77-20.53-1.34-4.06-1.81-8.28-1.38-12.53.04-.41.32-.75.71-.86.39-.12.81.02,1.06.34l25.29,31.98c.25.32.29.76.08,1.11-.18.32-.51.51-.87.51Zm-24.44-30.29c-.03,3.09.45,6.15,1.43,9.12h0c3.16,9.55,10.92,16.54,20.59,18.72l-22.02-27.84Z"/>
      <path class="cls-1" d="m282.21,446.26c-.31,0-.61-.14-.8-.4l-20.09-26.79c-.19-.25-.25-.57-.16-.87s.31-.54.6-.66c1.6-.62,3.02-1.29,3.04-1.29.08-.04.21-.1.12-.3-.08-.18-.18-.13-.27-.1-.16.07-4.44,1.86-7.35,2.82-.53.18-1.16.37-1.83.57-.34.11-.72.01-.98-.24-.26-.25-.36-.63-.27-.98,2.66-9.89,10.05-17.71,19.75-20.92,7.21-2.39,15-1.98,21.93,1.13.39.17.62.57.59.99-.04.42-.33.78-.74.88l-.15.04c-.05.01-.11.03-.16.04-2.3.76-3.04,3.3-2.4,5.22.61,1.84,2.22,3.19,4.08,4.75l.5.42c1.87,1.68,3.94,3.75,5.14,7.37.79,2.38.83,5.25.89,9.22v.78s.3,10.18.3,10.18c.01.44-.26.83-.67.97-.41.14-.87,0-1.13-.34l-19.94-26.58c-.19-.25-.25-.57-.16-.87s.31-.54.6-.66c1.59-.62,3.02-1.29,3.04-1.29.08-.04.21-.1.12-.3-.08-.18-.18-.13-.27-.1-.16.07-4.44,1.86-7.35,2.82-2.74.91-7.32,2.04-7.52,2.09-.11.03-.12.07-.13.11-.03.1,0,.24.07.3.01.01.03.04.14,0,.08-.02,1.53-.31,3-.7.38-.1.79.03,1.04.35l8.26,10.44c.14.18.22.4.22.62l-.05,20.27c0,.43-.28.81-.68.95-.1.03-.21.05-.32.05Zm-18.51-27.35l17.52,23.36.04-16.94-7.64-9.66c-1.29.32-2.38.54-2.43.55-.71.19-1.47,0-2.01-.54-.57-.57-.8-1.45-.59-2.23.2-.76.77-1.31,1.56-1.52.06-.02,4.72-1.17,7.39-2.05,2.84-.94,7.18-2.76,7.23-2.78,1.17-.47,2.37.02,2.86,1.16.49,1.13,0,2.38-1.11,2.9-.04.02-.85.4-1.94.85l17.27,23.03-.21-7.83c-.06-3.79-.1-6.53-.79-8.62h0c-1.04-3.15-2.89-5-4.55-6.48l-.47-.4c-2.01-1.68-3.91-3.27-4.7-5.66-.85-2.56,0-5.27,1.92-6.8-5.94-2.14-12.41-2.24-18.46-.24-8.48,2.8-15.06,9.37-17.91,17.76,2.84-.94,7.16-2.75,7.21-2.77,1.17-.47,2.37.02,2.86,1.16.49,1.13,0,2.38-1.11,2.9-.05.02-.85.4-1.94.85Z"/>
      <path class="cls-1" d="m284.44,456.17c-.26,0-.51-.1-.7-.29-.2-.19-.3-.45-.3-.73l.33-27.02c0-.42.28-.8.68-.93.4-.14.84,0,1.11.33l16.3,20.6s.11.11.18.17c.23.19.37.48.36.79,0,.3-.15.59-.39.77-2.72,2.1-5.75,3.71-9.02,4.79-2.75.91-5.61,1.42-8.51,1.51-.01,0-.02,0-.03,0Zm1.29-25.18l-.28,23.13c2.35-.17,4.67-.62,6.91-1.36,2.71-.9,5.25-2.18,7.56-3.84l-14.19-17.93Z"/>
      <path class="cls-1" d="m305.42,446.31c-.12,0-.24-.02-.36-.07-.39-.15-.65-.53-.64-.95l.38-27.38c.25-4-.11-7.27-1.13-10.34-.31-.94-.67-1.84-1.08-2.67-.21-.43-.08-.96.3-1.24.38-.29.92-.26,1.28.07,3.7,3.44,6.5,7.82,8.09,12.64,3.37,10.19,1.04,21.54-6.09,29.6-.19.22-.47.34-.75.34Zm.7-37.42c.67,2.75.88,5.69.67,9.1l-.33,24.41c5.23-7.31,6.74-16.79,3.9-25.4-.97-2.92-2.4-5.66-4.23-8.11Z"/>
      <path class="cls-1" d="m283.51,461.04c-14.76,0-28.53-9.37-33.41-24.13-2.94-8.9-2.24-18.43,1.99-26.83,4.23-8.4,11.46-14.64,20.36-17.59,8.9-2.94,18.43-2.24,26.83,1.99,8.4,4.23,14.65,11.46,17.59,20.36s2.24,18.43-1.99,26.83c-4.23,8.4-11.46,14.64-20.36,17.59-3.65,1.21-7.36,1.78-11.01,1.78Zm-.02-66.76c-3.33,0-6.67.53-9.92,1.61-8,2.64-14.5,8.26-18.29,15.8s-4.43,16.11-1.79,24.11c5.47,16.54,23.37,25.55,39.91,20.08,16.54-5.47,25.55-23.37,20.08-39.91-2.64-8-8.26-14.49-15.8-18.29-4.48-2.25-9.32-3.39-14.19-3.39Zm10.23,62.55h0,0Zm-20.95-63.38h0,0Z"/>
    </g>
  </g>
  <g>
    <g id="layer1">
      <path id="path821" class="accent" d="m317.56,473.04c-3.05-3.1-5.26-6.94-6.31-10.98-2.7-10.36,1.45-21.03,10.49-26.94,2.22-1.45,5-2.57,7.94-3.2l2.59-.55-6.06,9.31c-5.8,8.91-6.08,9.37-6.4,10.76-.65,2.79-.7,4.8-.19,7.37,1.33,6.64,6.52,11.54,13.13,12.41,6.21.82,12.51-2.22,15.55-7.52,2.04-3.55,2.57-6.81,1.76-10.95-.61-3.13-1.99-5.82-4.04-7.92-2.09-2.14-1.93-2.13-3.3-.07l-1.19,1.78,1.17,1.14c4.53,4.41,4.56,11.76.06,16.16-1.44,1.41-3.17,2.34-5.29,2.84-3.22.77-6.5-.02-8.8-1.57-3.8-2.55-5.53-6.83-4.93-11.05,0,0,.21-1.18.46-1.83,1.46-3.83,6.61-10.49,6.61-10.49l6.77-10.25.81.09c.45.05.86.12.92.16s-3.01,4.78-6.81,10.53c0,0-5.76,7.03-6.78,10.51-.15.5-.37,1.38-.37,1.38-.29,2.15.03,4.42,1.16,6.3.86,1.43,1.31,2.12,3.16,3.36,1.21.81,2.54,1.15,4.16,1.4,1.9.3,4.76-.36,6.46-1.56,4.69-3.33,5.53-9.72,1.87-14.11-1.5-1.79-1.44-1.8-2.8.23l-1.18,1.77.74.84c2.65,3.02.74,8-3.28,8.53-1.42.19-2.46,0-3.87-.95-1.51-1.01-2.34-2.89-2.15-4.78.12-1.14.61-1.96.85-2.33,2.26-3.37,6.24-9.49,6.24-9.49l6.9-10.45.54.19c.3.11,1.43.64,2.52,1.18,3.7,1.84,7.99,6.32,10.08,10.52,2.85,5.72,3.31,12.59,1.26,18.8-.71,2.14-1,2.7-2.94,5.6s-2.35,3.39-4.02,4.83c-6.74,5.8-15.17,7.53-23.8,4.89-1.82-.56-2.58-.94-5.29-2.67-2.19-1.39-3.54-2.4-4.36-3.23h0Z"/>
    </g>
    <g id="layer1-2" data-name="layer1">
      <path class="cls-1" d="m338.03,481.15c-2.66,0-5.37-.42-8.11-1.25-1.92-.59-2.75-1.01-5.54-2.79-2.26-1.44-3.66-2.48-4.53-3.37h0c-3.19-3.24-5.46-7.2-6.57-11.43-2.83-10.84,1.45-21.84,10.91-28.03,2.34-1.53,5.2-2.68,8.27-3.34l2.59-.55c.39-.09.8.08,1.03.41.23.33.23.77.01,1.11l-6.06,9.3c-5.69,8.73-5.98,9.22-6.27,10.44-.62,2.64-.67,4.52-.18,6.95,1.25,6.24,6.07,10.79,12.28,11.61,5.85.77,11.7-2.05,14.55-7.02,1.93-3.37,2.41-6.34,1.64-10.26-.58-2.95-1.85-5.44-3.78-7.41l-.28-.28c-.31-.32-.63-.65-.86-.85-.13.18-.29.42-.44.65l-.91,1.36.57.56c2.39,2.33,3.71,5.46,3.72,8.82,0,3.34-1.29,6.46-3.66,8.77-1.57,1.54-3.45,2.55-5.76,3.1-3.25.78-6.84.14-9.59-1.71-3.98-2.67-6.03-7.28-5.36-12.03.03-.16.24-1.33.51-2.05,1.49-3.92,6.54-10.47,6.76-10.74l6.73-10.19c.21-.31.58-.48.95-.44l.81.09c1.05.12,1.22.23,1.36.32.83.56.39,1.25-.21,2.22-.34.54-.84,1.32-1.46,2.28-1.24,1.91-2.95,4.54-4.86,7.42-.02.03-.04.06-.06.08-.06.07-5.64,6.91-6.59,10.16-.12.41-.3,1.09-.35,1.29-.26,2.05.11,4.04,1.04,5.6.77,1.29,1.13,1.89,2.86,3.04,1.06.71,2.27,1.01,3.76,1.25,1.7.27,4.27-.35,5.73-1.39,2.05-1.45,3.34-3.58,3.66-6,.31-2.39-.39-4.76-1.98-6.66l-.09-.11c-.18-.22-.37-.44-.52-.61-.15.21-.33.48-.51.74l-.84,1.25.23.26c1.48,1.69,1.88,4,1.06,6.18-.82,2.17-2.72,3.71-4.96,4-1.74.23-3.02-.08-4.56-1.11-1.8-1.21-2.82-3.45-2.59-5.72.1-.98.44-1.92,1.02-2.78,2.23-3.33,6.19-9.42,6.23-9.48l6.9-10.45c.25-.39.74-.55,1.17-.39l.54.2c.38.14,1.64.73,2.63,1.23,3.9,1.95,8.33,6.56,10.53,10.97,2.97,5.96,3.45,13.1,1.31,19.56-.73,2.22-1.08,2.88-3.06,5.84-1.98,2.96-2.45,3.53-4.2,5.03-4.86,4.19-10.59,6.34-16.64,6.34Zm-4.93-48.3l-.22.05c-2.8.6-5.5,1.68-7.6,3.06-8.73,5.71-12.68,15.85-10.07,25.85,1.02,3.89,3.11,7.54,6.06,10.53h0c.76.77,2.09,1.75,4.18,3.09,2.62,1.67,3.33,2.03,5.05,2.56,8.28,2.54,16.4.87,22.86-4.69,1.6-1.37,1.95-1.81,3.84-4.62,1.88-2.82,2.15-3.32,2.82-5.36,1.97-5.97,1.53-12.55-1.2-18.05-1.99-4-6.13-8.33-9.63-10.07-.97-.49-1.83-.89-2.22-1.06l-6.46,9.78c-.04.06-4.01,6.16-6.24,9.49-.39.59-.62,1.22-.69,1.87-.16,1.54.52,3.05,1.71,3.85,1.28.85,2.07.93,3.18.79,1.53-.2,2.78-1.22,3.34-2.73.55-1.48.3-3.03-.69-4.16l-.74-.84c-.3-.34-.33-.84-.08-1.21l1.26-1.89c.79-1.18,1.22-1.83,2.05-1.87.05,0,.11,0,.16,0-.33-.34-.38-.86-.12-1.26l1.37-2.05c.65-.98,1.08-1.63,1.89-1.71.85-.07,1.4.49,2.5,1.62l.27.28c2.21,2.25,3.66,5.09,4.31,8.43.86,4.38.3,7.86-1.87,11.64-3.26,5.67-9.9,8.89-16.55,8.01-7.07-.93-12.56-6.11-13.98-13.2-.54-2.7-.49-4.89.2-7.8.37-1.56.61-1.98,6.54-11.08l4.74-7.27Z"/>
    </g>
  </g>
  <path class="accent" d="m57.64,233.3H21.41l-10,17.37v49.82h10l10-10h16.23l10,10h10v-49.82l-10-17.37Zm-32.89,5.3h29.55l3.6,6.77H21.15l3.6-6.77Zm36.15,46.03H18.15v-20.73h42.76v20.73Z"/>
  <polyline class="cls-3" points="41.53 256.04 13.41 256.04 13.41 298.49 23.41 298.49 33.41 288.49 41.53 288.49"/>
  <path class="cls-1" d="m69.64,299.49h-10c-.27,0-.52-.11-.71-.29l-9.71-9.71h-7.7c-.55,0-1-.45-1-1s.45-1,1-1h8.11c.27,0,.52.11.71.29l9.71,9.71h8.59v-40.45h-27.11c-.55,0-1-.45-1-1s.45-1,1-1h28.11c.55,0,1,.45,1,1v42.45c0,.55-.45,1-1,1Z"/>
  <path class="cls-1" d="m69.64,257.04H13.41c-.55,0-1-.45-1-1v-7.37c0-.55.45-1,1-1h56.23c.55,0,1,.45,1,1v7.37c0,.55-.45,1-1,1Zm-55.23-2h54.23v-5.37H14.41v5.37Z"/>
  <rect class="cls-3" x="20.15" y="261.9" width="42.76" height="20.73"/>
  <path class="cls-1" d="m69.64,249.67H13.41c-.36,0-.69-.19-.87-.5-.18-.31-.18-.69,0-1l10-17.37c.18-.31.51-.5.87-.5h36.23c.36,0,.69.19.87.5l10,17.37c.18.31.18.69,0,1-.18.31-.51.5-.87.5Zm-54.5-2h52.77l-8.85-15.37H23.99l-8.85,15.37Z"/>
  <polygon class="cls-3" points="56.3 236.6 26.75 236.6 23.15 243.37 59.91 243.37 56.3 236.6"/>
  <path class="cls-1" d="m74.16,268.02h-4.51c-.55,0-1-.45-1-1v-13.17c0-.55.45-1,1-1h4.51c.55,0,1,.45,1,1v13.17c0,.55-.45,1-1,1Zm-3.51-2h2.51v-11.17h-2.51v11.17Z"/>
  <polygon class="accent" points="365.23 320.35 354.07 328.37 357.38 329.18 368.82 322.43 365.23 320.35"/>
</svg>
