<?xml version="1.0" encoding="UTF-8"?>
<svg id="Layer_1" data-name="Layer 1" xmlns="http://www.w3.org/2000/svg" viewBox="0 0 100 100">
  <defs>
    <style>
      .cls-1, .cls-2 {
        stroke-width: 0px;
      }

      .cls-2 {
        fill: #ff2d20;
      }
    </style>
  </defs>
  <path class="cls-1" d="m50,100C22.43,100,0,77.57,0,50S22.43,0,50,0s50,22.43,50,50-22.43,50-50,50Zm0-98C23.53,2,2,23.53,2,50s21.53,48,48,48,48-21.53,48-48S76.47,2,50,2Z"/>
  <g>
    <path class="cls-2" d="m39.83,39.01c-1.87-.6-3.98-.98-5.89-1.21-3.64-.44-7.28.89-9.76,3.59l-8.68,9.44,5.13,3.22s6.58-9.44,13.12-3.35"/>
    <circle class="cls-2" cx="65.15" cy="30.98" r="4.72"/>
    <path class="cls-2" d="m39.83,39.01c-1.87-.6-3.98-.98-5.89-1.21-3.64-.44-7.28.89-9.76,3.59l-8.68,9.44,5.13,3.22s6.58-9.44,13.12-3.35"/>
    <path class="cls-2" d="m57.11,56.29c.6,1.87.98,3.98,1.21,5.89.44,3.64-.89,7.28-3.59,9.76l-9.44,8.68-3.22-5.13s9.44-6.58,3.35-13.12"/>
    <path class="cls-2" d="m57.11,56.29c.6,1.87.98,3.98,1.21,5.89.44,3.64-.89,7.28-3.59,9.76l-9.44,8.68-3.22-5.13s9.44-6.58,3.35-13.12"/>
    <path class="cls-2" d="m29.63,61.37c-4.62-1.7-9.8,1.52-11.8,4.35,3.18-.81,6.11,3.19,1.58,5.04s-4.14,7-4.14,7c0,0,2.83-4.26,5.78-3.28s1.37,3.64,1.37,3.64c0,0,5.01.89,6.17-1.7.54,2.26-1.1,3.9-1.1,3.9,0,0,11.29-4.14,7.27-13.83"/>
    <path class="cls-1" d="m34.01,67.11c-.28,0-.56-.12-.75-.34l-2.38-2.74c-.23-.26-.3-.63-.2-.96,2.83-8.81,10.11-25.14,18.58-34,7.77-8.12,21-14.97,33.03-11.96.54.13.86.68.73,1.21-.13.54-.68.86-1.21.73-11.26-2.81-23.73,3.7-31.1,11.4-7.17,7.5-14.53,22.3-17.95,32.69l2.01,2.31c.36.42.32,1.05-.1,1.41-.19.16-.42.25-.66.25Z"/>
    <path class="cls-1" d="m22.63,57.04c-.18,0-.37-.05-.53-.15l-5.13-3.22c-.25-.16-.42-.42-.46-.71s.05-.59.25-.81l8.68-9.44c2.69-2.93,6.66-4.39,10.62-3.91,2.33.28,4.37.71,6.08,1.25.53.17.82.73.65,1.26-.17.53-.73.81-1.26.65-1.58-.51-3.5-.9-5.71-1.17-3.31-.4-6.64.82-8.9,3.27l-7.87,8.55,3.34,2.1c1.21-1.48,4.2-4.63,7.89-5.02,2.21-.24,4.27.53,6.15,2.27.4.38.43,1.01.05,1.41-.38.4-1.01.43-1.41.05-1.45-1.35-2.94-1.93-4.56-1.75-3.84.41-7.02,4.89-7.06,4.94-.19.28-.5.43-.82.43Z"/>
    <path class="cls-1" d="m67.15,38.7c-1.53,0-2.96-.59-4.04-1.68-2.23-2.23-2.23-5.86,0-8.09,2.23-2.23,5.86-2.23,8.09,0,1.08,1.08,1.68,2.52,1.68,4.04s-.59,2.96-1.68,4.04h0c-1.08,1.08-2.52,1.68-4.04,1.68Zm0-9.44c-.95,0-1.91.36-2.63,1.09-1.45,1.45-1.45,3.81,0,5.26s3.86,1.41,5.26,0h0c.7-.7,1.09-1.64,1.09-2.63s-.39-1.93-1.09-2.63-1.68-1.09-2.63-1.09Z"/>
    <path class="cls-1" d="m56.96,46.36c-.82,0-1.63-.31-2.26-.93s-.94-1.4-.94-2.26.33-1.65.94-2.26c1.2-1.21,3.31-1.21,4.51,0s1.24,3.27,0,4.51c-.62.62-1.44.93-2.26.93Zm0-4.38c-.32,0-.62.12-.84.35s-.35.52-.35.84.12.62.35.84c.46.46,1.22.47,1.68,0,.46-.46.46-1.22,0-1.68-.23-.23-.52-.35-.84-.35Z"/>
    <path class="cls-1" d="m40.69,60.44c-.26,0-.51-.1-.71-.29-1.73-1.73-5.52-3.22-5.56-3.24-.51-.2-.77-.78-.57-1.29.2-.52.78-.77,1.29-.57.17.07,4.22,1.65,6.25,3.69.39.39.39,1.02,0,1.41-.2.2-.45.29-.71.29Z"/>
    <path class="cls-1" d="m34.01,67.11c-.28,0-.56-.12-.75-.34l-2.38-2.74c-.23-.26-.3-.63-.2-.96,2.83-8.81,10.11-25.14,18.58-34,7.77-8.12,21-14.97,33.03-11.96.54.13.86.68.73,1.21-.13.54-.68.86-1.21.73-11.26-2.81-23.73,3.7-31.1,11.4-7.17,7.5-14.53,22.3-17.95,32.69l2.01,2.31c.36.42.32,1.05-.1,1.41-.19.16-.42.25-.66.25Z"/>
    <path class="cls-1" d="m22.63,57.04c-.18,0-.37-.05-.53-.15l-5.13-3.22c-.25-.16-.42-.42-.46-.71s.05-.59.25-.81l8.68-9.44c2.69-2.93,6.66-4.39,10.62-3.91,2.33.28,4.37.71,6.08,1.25.53.17.82.73.65,1.26-.17.53-.73.81-1.26.65-1.58-.51-3.5-.9-5.71-1.17-3.31-.4-6.64.82-8.9,3.27l-7.87,8.55,3.34,2.1c1.21-1.48,4.2-4.63,7.89-5.02,2.21-.24,4.27.53,6.15,2.27.4.38.43,1.01.05,1.41-.38.4-1.01.43-1.41.05-1.45-1.35-2.94-1.93-4.56-1.75-3.84.41-7.02,4.89-7.06,4.94-.19.28-.5.43-.82.43Z"/>
    <path class="cls-1" d="m40.69,60.44c-.26,0-.51-.1-.71-.29-1.73-1.73-5.52-3.22-5.56-3.24-.51-.2-.77-.78-.57-1.29.2-.52.78-.77,1.29-.57.17.07,4.22,1.65,6.25,3.69.39.39.39,1.02,0,1.41-.2.2-.45.29-.71.29Z"/>
    <path class="cls-1" d="m36.75,69.5c-.24,0-.47-.08-.66-.25l-2.74-2.38c-.42-.36-.46-.99-.1-1.41.36-.42.99-.46,1.41-.1l2.31,2.01c10.39-3.42,25.2-10.78,32.69-17.95,7.7-7.37,14.22-19.84,11.4-31.1-.13-.54.19-1.08.73-1.21.53-.14,1.08.19,1.21.73,3.01,12.03-3.84,25.26-11.96,33.03-8.86,8.47-25.18,15.76-34,18.58-.1.03-.2.05-.31.05Z"/>
    <path class="cls-1" d="m47.3,83.62s-.09,0-.13,0c-.29-.04-.56-.21-.71-.46l-3.22-5.12c-.28-.45-.16-1.05.27-1.35.04-.03,4.53-3.21,4.94-7.06.17-1.62-.4-3.11-1.75-4.56-.38-.4-.35-1.04.05-1.41.4-.37,1.04-.35,1.41.05,1.74,1.87,2.51,3.94,2.27,6.14-.4,3.7-3.54,6.68-5.02,7.9l2.1,3.34,8.55-7.87c2.46-2.26,3.68-5.59,3.28-8.9-.27-2.21-.66-4.13-1.17-5.71-.17-.53.12-1.09.65-1.26.53-.17,1.09.12,1.26.65.55,1.7.97,3.75,1.25,6.08.48,3.95-.98,7.92-3.91,10.62l-9.44,8.68c-.19.17-.43.26-.68.26Z"/>
    <path class="cls-1" d="m44.15,66.34c-.4,0-.78-.24-.93-.64-.01-.04-1.5-3.83-3.24-5.56-.39-.39-.39-1.02,0-1.41s1.02-.39,1.41,0c2.03,2.03,3.62,6.08,3.69,6.25.2.51-.05,1.09-.57,1.29-.12.05-.24.07-.36.07Z"/>
    <path class="cls-1" d="m36.75,69.5c-.24,0-.47-.08-.66-.25l-2.74-2.38c-.42-.36-.46-.99-.1-1.41.36-.42.99-.46,1.41-.1l2.31,2.01c10.39-3.42,25.2-10.78,32.69-17.95,7.7-7.37,14.22-19.84,11.4-31.1-.13-.54.19-1.08.73-1.21.53-.14,1.08.19,1.21.73,3.01,12.03-3.84,25.26-11.96,33.03-8.86,8.47-25.18,15.76-34,18.58-.1.03-.2.05-.31.05Z"/>
    <path class="cls-1" d="m47.3,83.62s-.09,0-.13,0c-.29-.04-.56-.21-.71-.46l-3.22-5.12c-.28-.45-.16-1.05.27-1.35.04-.03,4.53-3.21,4.94-7.06.17-1.62-.4-3.11-1.75-4.56-.38-.4-.35-1.04.05-1.41.4-.37,1.04-.35,1.41.05,1.74,1.87,2.51,3.94,2.27,6.14-.4,3.7-3.54,6.68-5.02,7.9l2.1,3.34,8.55-7.87c2.46-2.26,3.68-5.59,3.28-8.9-.27-2.21-.66-4.13-1.17-5.71-.17-.53.12-1.09.65-1.26.53-.17,1.09.12,1.26.65.55,1.7.97,3.75,1.25,6.08.48,3.95-.98,7.92-3.91,10.62l-9.44,8.68c-.19.17-.43.26-.68.26Z"/>
    <path class="cls-1" d="m44.15,66.34c-.4,0-.78-.24-.93-.64-.01-.04-1.5-3.83-3.24-5.56-.39-.39-.39-1.02,0-1.41s1.02-.39,1.41,0c2.03,2.03,3.62,6.08,3.69,6.25.2.51-.05,1.09-.57,1.29-.12.05-.24.07-.36.07Z"/>
    <path class="cls-1" d="m29.48,83.32c-.33,0-.65-.17-.84-.46-.25-.4-.2-.91.14-1.25.02-.02.32-.33.56-.83-2.06.81-4.69.39-5.1.32-.32-.06-.6-.27-.73-.57-.14-.3-.12-.64.05-.93.12-.21.41-.89.22-1.39-.12-.33-.48-.59-1.05-.78-1.82-.6-4.01,1.94-4.63,2.88-.24.36-.67.52-1.09.41-.41-.11-.71-.47-.74-.89-.15-2.03.65-6.33,4.76-8,.61-.25,2-.94,1.66-1.97-.26-.8-1.4-1.48-2.61-1.17-.41.1-.83-.06-1.07-.4-.24-.34-.23-.8,0-1.14,2.14-3.04,7.74-6.64,12.96-4.71.52.19.78.77.59,1.28-.19.52-.77.79-1.28.59-3.28-1.21-7.01.43-9.3,2.5,1.21.37,2.21,1.25,2.6,2.42.46,1.41-.03,3.32-2.8,4.45-1.62.66-2.5,1.84-2.98,2.98,1.24-.96,2.84-1.7,4.56-1.13,1.46.49,2.05,1.35,2.29,1.99.23.61.22,1.22.12,1.73,1.42.07,3.38-.11,3.9-1.25.17-.39.57-.63,1.01-.59.43.04.78.35.88.76.16.69.17,1.33.08,1.91,1.56-.98,3.44-2.53,4.38-4.69.86-1.97.8-4.17-.19-6.53-.21-.51.03-1.1.54-1.31.51-.21,1.1.03,1.31.54,1.2,2.89,1.26,5.62.17,8.11-2.11,4.83-7.78,6.95-8.02,7.04-.11.04-.23.06-.34.06Z"/>
  </g>
</svg>