<?xml version="1.0" encoding="UTF-8"?>
<svg id="Layer_1" data-name="Layer 1" xmlns="http://www.w3.org/2000/svg" viewBox="0 0 100 100">
  <defs>
    <style>
      .cls-1, .cls-2 {
        stroke-width: 0px;
      }

      .cls-2 {
        fill: #ff2d20;
      }
    </style>
  </defs>
  <rect class="cls-2" x="15.85" y="19.69" width="18.31" height="29.47" rx="2.89" ry="2.89"/>
  <rect class="cls-2" x="38.16" y="53.17" width="40.63" height="12.74" rx="2.89" ry="2.89"/>
  <rect class="cls-2" x="15.85" y="69.9" width="40.63" height="12.74" rx="2.89" ry="2.89"/>
  <path class="cls-1" d="m50,100C22.43,100,0,77.57,0,50S22.43,0,50,0s50,22.43,50,50-22.43,50-50,50Zm0-98C23.53,2,2,23.53,2,50s21.53,48,48,48,48-21.53,48-48S76.47,2,50,2Z"/>
  <path class="cls-1" d="m33.95,48.17h-12.53c-2.15,0-3.89-1.75-3.89-3.89v-23.69c0-2.15,1.75-3.89,3.89-3.89h12.53c2.15,0,3.89,1.75,3.89,3.89v23.69c0,2.15-1.75,3.89-3.89,3.89Zm-12.53-29.47c-1.04,0-1.89.85-1.89,1.89v23.69c0,1.04.85,1.89,1.89,1.89h12.53c1.04,0,1.89-.85,1.89-1.89v-23.69c0-1.04-.85-1.89-1.89-1.89h-12.53Z"/>
  <path class="cls-1" d="m56.27,31.43h-12.53c-2.15,0-3.89-1.75-3.89-3.89v-6.95c0-2.15,1.75-3.89,3.89-3.89h12.53c2.15,0,3.89,1.75,3.89,3.89v6.95c0,2.15-1.75,3.89-3.89,3.89Zm-12.53-12.74c-1.04,0-1.89.85-1.89,1.89v6.95c0,1.04.85,1.89,1.89,1.89h12.53c1.04,0,1.89-.85,1.89-1.89v-6.95c0-1.04-.85-1.89-1.89-1.89h-12.53Z"/>
  <path class="cls-1" d="m78.58,31.43h-12.53c-2.15,0-3.89-1.75-3.89-3.89v-6.95c0-2.15,1.75-3.89,3.89-3.89h12.53c2.15,0,3.89,1.75,3.89,3.89v6.95c0,2.15-1.75,3.89-3.89,3.89Zm-12.53-12.74c-1.04,0-1.89.85-1.89,1.89v6.95c0,1.04.85,1.89,1.89,1.89h12.53c1.04,0,1.89-.85,1.89-1.89v-6.95c0-1.04-.85-1.89-1.89-1.89h-12.53Z"/>
  <path class="cls-1" d="m78.58,48.17h-34.85c-2.15,0-3.89-1.75-3.89-3.89v-6.95c0-2.15,1.75-3.89,3.89-3.89h34.85c2.15,0,3.89,1.75,3.89,3.89v6.95c0,2.15-1.75,3.89-3.89,3.89Zm-34.85-12.74c-1.04,0-1.89.85-1.89,1.89v6.95c0,1.04.85,1.89,1.89,1.89h34.85c1.04,0,1.89-.85,1.89-1.89v-6.95c0-1.04-.85-1.89-1.89-1.89h-34.85Z"/>
  <path class="cls-1" d="m33.95,64.9h-12.53c-2.15,0-3.89-1.75-3.89-3.89v-6.95c0-2.15,1.75-3.89,3.89-3.89h12.53c2.15,0,3.89,1.75,3.89,3.89v6.95c0,2.15-1.75,3.89-3.89,3.89Zm-12.53-12.74c-1.04,0-1.89.85-1.89,1.89v6.95c0,1.04.85,1.89,1.89,1.89h12.53c1.04,0,1.89-.85,1.89-1.89v-6.95c0-1.04-.85-1.89-1.89-1.89h-12.53Z"/>
  <path class="cls-1" d="m78.58,64.9h-34.85c-2.15,0-3.89-1.75-3.89-3.89v-6.95c0-2.15,1.75-3.89,3.89-3.89h34.85c2.15,0,3.89,1.75,3.89,3.89v6.95c0,2.15-1.75,3.89-3.89,3.89Zm-34.85-12.74c-1.04,0-1.89.85-1.89,1.89v6.95c0,1.04.85,1.89,1.89,1.89h34.85c1.04,0,1.89-.85,1.89-1.89v-6.95c0-1.04-.85-1.89-1.89-1.89h-34.85Z"/>
  <path class="cls-1" d="m56.27,81.64H21.42c-2.15,0-3.89-1.75-3.89-3.89v-6.95c0-2.15,1.75-3.89,3.89-3.89h34.85c2.15,0,3.89,1.75,3.89,3.89v6.95c0,2.15-1.75,3.89-3.89,3.89Zm-34.85-12.74c-1.04,0-1.89.85-1.89,1.89v6.95c0,1.04.85,1.89,1.89,1.89h34.85c1.04,0,1.89-.85,1.89-1.89v-6.95c0-1.04-.85-1.89-1.89-1.89H21.42Z"/>
  <path class="cls-1" d="m78.58,81.64h-12.53c-2.15,0-3.89-1.75-3.89-3.89v-6.95c0-2.15,1.75-3.89,3.89-3.89h12.53c2.15,0,3.89,1.75,3.89,3.89v6.95c0,2.15-1.75,3.89-3.89,3.89Zm-12.53-12.74c-1.04,0-1.89.85-1.89,1.89v6.95c0,1.04.85,1.89,1.89,1.89h12.53c1.04,0,1.89-.85,1.89-1.89v-6.95c0-1.04-.85-1.89-1.89-1.89h-12.53Z"/>
</svg>