<?xml version="1.0" encoding="UTF-8"?>
<svg id="Layer_1" data-name="Layer 1" xmlns="http://www.w3.org/2000/svg" viewBox="0 0 100 100">
  <defs>
    <style>
      .cls-1, .cls-2 {
        stroke-width: 0px;
      }

      .cls-2 {
        fill: #ff2d20;
      }
    </style>
  </defs>
  <path class="cls-2" d="m84.84,50.94l-31.1-31.1c-1.79-1.79-4.7-1.79-6.49,0,0,0,0,0,0,0l-6.46,6.46,8.19,8.19c1.96-.67,4.14-.16,5.6,1.31,1.48,1.48,1.98,3.67,1.29,5.64l7.9,7.89c1.97-.69,4.17-.18,5.64,1.3,2.13,2.13,2.13,5.59,0,7.72h0c-2.13,2.13-5.59,2.13-7.73,0-1.56-1.56-2.02-3.9-1.18-5.94l-7.36-7.36v19.38c2.7,1.33,3.81,4.61,2.48,7.31-.26.53-.61,1.02-1.03,1.44-2.13,2.13-5.59,2.13-7.72,0h0c-2.13-2.13-2.13-5.59,0-7.72,0,0,0,0,0,0,.51-.51,1.12-.92,1.79-1.19v-19.56c-2.79-1.15-4.12-4.34-2.97-7.13,0,0,0-.02.01-.02l-8.08-8.08-21.33,21.32c-1.79,1.79-1.79,4.7,0,6.49l31.1,31.1c1.79,1.79,4.7,1.79,6.49,0l30.96-30.96c1.79-1.79,1.79-4.7,0-6.49"/>
  <path class="cls-1" d="m50,100C22.43,100,0,77.57,0,50S22.43,0,50,0s50,22.43,50,50-22.43,50-50,50Zm0-98C23.53,2,2,23.53,2,50s21.53,48,48,48,48-21.53,48-48S76.47,2,50,2Z"/>
  <path class="cls-1" d="m50.07,86.61c-1.43,0-2.86-.54-3.95-1.63l-31.1-31.1c-2.18-2.18-2.18-5.72,0-7.9l21.33-21.32c.39-.39,1.02-.39,1.41,0l8.08,8.08c.3.3.38.77.19,1.15-.92,2.23.17,4.85,2.45,5.79.38.15.62.52.62.92v19.56c0,.4-.24.77-.62.92-.55.23-1.04.56-1.46.98-.84.84-1.31,1.96-1.31,3.15s.46,2.31,1.31,3.15c.84.84,1.96,1.31,3.15,1.31s2.31-.46,3.15-1.31c.34-.34.63-.74.84-1.18,1.09-2.2.18-4.88-2.02-5.97-.34-.17-.56-.52-.56-.9v-19.38c0-.4.24-.77.62-.92s.8-.07,1.09.22l7.36,7.36c.29.29.37.71.22,1.09-.69,1.67-.31,3.57.97,4.85,1.74,1.74,4.57,1.74,6.31,0,1.74-1.74,1.74-4.57,0-6.31-1.2-1.2-3.01-1.61-4.61-1.06-.36.12-.76.03-1.04-.24l-7.9-7.89c-.27-.27-.36-.67-.24-1.04.55-1.6.14-3.41-1.06-4.61-1.21-1.21-2.96-1.61-4.58-1.07-.36.12-.76.03-1.03-.24l-8.19-8.19c-.39-.39-.39-1.02,0-1.41l6.46-6.46c2.18-2.18,5.73-2.18,7.9,0l31.1,31.1h0c2.17,2.18,2.17,5.72,0,7.9l-30.96,30.96c-1.09,1.09-2.52,1.63-3.95,1.63Zm-13.02-59.84l-20.62,20.62c-1.4,1.4-1.4,3.68,0,5.08l31.1,31.1c1.4,1.39,3.67,1.4,5.08,0l30.96-30.96c1.4-1.4,1.4-3.68,0-5.08l-31.1-31.1c-.68-.68-1.58-1.05-2.54-1.05h0c-.96,0-1.86.37-2.54,1.05l-5.75,5.75,7.07,7.07c2.16-.51,4.42.12,6.02,1.72,1.58,1.58,2.22,3.9,1.71,6.06l7.06,7.06c2.16-.51,4.48.13,6.06,1.71,2.52,2.52,2.52,6.61,0,9.13-2.52,2.52-6.62,2.52-9.14,0-1.69-1.69-2.29-4.13-1.63-6.38l-5.21-5.21v16.38c1.27.79,2.21,1.98,2.7,3.41.55,1.63.44,3.38-.33,4.93-.31.63-.73,1.21-1.22,1.71-2.52,2.52-6.61,2.52-9.13,0-2.52-2.52-2.52-6.62,0-9.13.44-.45.95-.82,1.49-1.12v-18.3c-1.3-.7-2.31-1.82-2.89-3.2-.58-1.39-.66-2.91-.23-4.33l-6.92-6.92Z"/>
</svg>