<?xml version="1.0" encoding="UTF-8"?>
<svg id="Layer_1" data-name="Layer 1" xmlns="http://www.w3.org/2000/svg" viewBox="0 0 100 100">
  <defs>
    <style>
      .cls-1, .cls-2 {
        stroke-width: 0px;
      }

      .cls-2 {
        fill: #ff2d20;
      }
    </style>
  </defs>
  <path class="cls-2" d="m54.17,43.07c-4.68-3.02-14.15-5.36-17.1-6.08s-7.6,1.12-10.01,1.51-13.71,7.88-14.87,9.25,4.18,11.66,6.48,14.11,13.75,15.91,15.23,17.24,2.84,3.71,5.8,3.35,2.59-5.26,2.59-5.26c0,0,3.78,2.56,5.58,1.19s1.73-5.69,1.73-5.69c0,0,4.54,1.22,7.06-.86s1.62-5.65,1.62-5.65c0,0,4.28,2.34,6.16-.97s-1.3-8.14-2.41-9.25-3.78-1.91-3.78-1.91l-10.71-7.12"/>
  <path class="cls-1" d="m50,100C22.43,100,0,77.57,0,50S22.43,0,50,0s50,22.43,50,50-22.43,50-50,50Zm0-98C23.53,2,2,23.53,2,50s21.53,48,48,48,48-21.53,48-48S76.47,2,50,2Z"/>
  <path class="cls-1" d="m64.17,41.58c-.26,0-.51-.1-.71-.29l-2.13-2.13c-2.31-2.31-3.58-5.38-3.58-8.65,0-3.58,1.39-6.95,3.93-9.48l1.03-1.03c3.19-3.19,7.61-4.88,12.09-4.66.35.02.66.21.83.52s.17.67,0,.97l-5.43,9.62c-.49.87-.34,1.97.37,2.68l2.53,2.53c.39.39.39,1.02,0,1.41s-1.02.39-1.41,0l-2.53-2.53c-1.34-1.34-1.62-3.43-.69-5.08l4.58-8.11c-3.34.23-6.51,1.67-8.91,4.06l-1.03,1.03c-2.15,2.15-3.34,5.02-3.34,8.06,0,2.73,1.06,5.3,3,7.24l2.13,2.13c.39.39.39,1.02,0,1.41-.2.2-.45.29-.71.29Z"/>
  <path class="cls-1" d="m22.63,83.12c-.26,0-.51-.1-.71-.29-1.19-1.19-1.85-2.78-1.85-4.47s.66-3.27,1.85-4.47l5.26-5.26c.39-.39,1.02-.39,1.41,0s.39,1.02,0,1.41l-5.26,5.26c-.82.82-1.26,1.9-1.26,3.05s.45,2.24,1.26,3.05c.39.39.39,1.02,0,1.41-.2.2-.45.29-.71.29Z"/>
  <path class="cls-1" d="m51.31,46.93c-.26,0-.51-.1-.71-.29-.39-.39-.39-1.02,0-1.41l9.11-9.11c.39-.39,1.02-.39,1.41,0s.39,1.02,0,1.41l-9.11,9.11c-.2.2-.45.29-.71.29Z"/>
  <path class="cls-1" d="m74.24,46.99c-3.27,0-6.34-1.27-8.65-3.58l-2.13-2.12c-.39-.39-.39-1.02,0-1.41s1.02-.39,1.41,0l2.13,2.12c1.93,1.93,4.5,3,7.24,3,3.05,0,5.91-1.19,8.06-3.34l1.03-1.03c2.39-2.39,3.82-5.57,4.06-8.91l-8.11,4.58c-1.65.93-3.74.65-5.08-.7l-2.53-2.52c-.39-.39-.39-1.02,0-1.41s1.02-.39,1.41,0l2.53,2.52c.71.71,1.81.86,2.68.37l9.62-5.43c.3-.17.67-.17.97,0,.3.17.5.48.52.83.23,4.5-1.47,8.9-4.66,12.09l-1.03,1.03c-2.53,2.53-5.9,3.93-9.48,3.93Z"/>
  <path class="cls-1" d="m26.39,84.67c-1.62,0-3.24-.62-4.47-1.85-.39-.39-.39-1.02,0-1.41s1.02-.39,1.41,0c1.68,1.68,4.42,1.68,6.1,0l5.47-5.47c.39-.39,1.02-.39,1.41,0s.39,1.02,0,1.41l-5.47,5.47c-1.23,1.23-2.85,1.85-4.47,1.85Z"/>
  <path class="cls-1" d="m60.35,52.92c-.26,0-.51-.1-.71-.29-.39-.39-.39-1.02,0-1.41l7.58-7.58c.39-.39,1.02-.39,1.41,0s.39,1.02,0,1.41l-7.58,7.58c-.2.2-.45.29-.71.29Z"/>
  <path class="cls-1" d="m28.82,79.56c-.93,0-1.86-.35-2.57-1.06-1.42-1.42-1.42-3.72,0-5.14,1.42-1.42,3.72-1.42,5.14,0,1.42,1.42,1.42,3.72,0,5.14-.71.71-1.64,1.06-2.57,1.06Zm0-5.27c-.42,0-.84.16-1.16.48-.64.64-.64,1.68,0,2.31.64.64,1.68.64,2.31,0s.64-1.68,0-2.31c-.32-.32-.74-.48-1.16-.48Z"/>
  <path class="cls-1" d="m41.11,81.48c-2.42,0-3.9-1.58-5.02-2.77-.29-.31-.57-.61-.86-.87-.83-.75-4.18-4.6-8.84-9.96-2.82-3.24-5.47-6.31-6.45-7.34-1.79-1.9-8.41-13.19-6.52-15.44,1.14-1.35,12.67-9.13,15.47-9.59.65-.11,1.52-.34,2.44-.58,2.5-.66,5.61-1.49,7.96-.91,8.3,2.02,14.15,4.11,17.4,6.21.46.3.6.92.3,1.38-.3.46-.92.6-1.38.3-2.11-1.36-6.73-3.5-16.79-5.95-1.85-.45-4.7.3-6.98.9-.97.26-1.89.5-2.63.62-2.02.33-12.8,7.4-14.19,8.83-.22,1.65,4.15,10.49,6.37,12.86,1,1.06,3.67,4.14,6.5,7.4,3.5,4.04,7.87,9.06,8.67,9.79.33.29.65.63.98.99,1.12,1.2,2.18,2.33,4.02,2.11,1.94-.24,1.72-4.15,1.72-4.19-.03-.38.17-.75.5-.94s.74-.18,1.06.04c1.29.87,3.58,1.85,4.41,1.22,1.06-.8,1.35-3.63,1.33-4.88,0-.31.14-.61.38-.8.25-.19.57-.26.87-.18.04.01,4.07,1.06,6.16-.67,1.99-1.65,1.29-4.61,1.29-4.64-.09-.38.05-.79.36-1.03.31-.24.74-.28,1.09-.09.14.08,3.45,1.82,4.81-.59,1.55-2.74-1.37-7.17-2.25-8.05-.76-.76-2.69-1.46-3.36-1.66-.09-.03-.18-.07-.27-.12l-10.71-7.12c-.46-.31-.59-.93-.28-1.39s.93-.59,1.39-.28l10.59,7.04c.65.2,2.92.98,4.06,2.12,1.39,1.39,4.72,6.66,2.58,10.45-1.4,2.48-3.94,2.55-5.87,2.01,0,1.43-.38,3.43-2.14,4.89-2.04,1.69-5.06,1.55-6.74,1.3-.12,1.55-.55,4.12-2.08,5.28-1.51,1.15-3.73.43-5.22-.29-.22,2.02-1.1,4.27-3.44,4.55-.25.03-.48.04-.71.04ZM15.04,46.25h0Z"/>
  <path class="cls-1" d="m53.27,60c-.17,0-.34-.04-.5-.14l-9.2-5.36c-.48-.28-.64-.89-.36-1.37.28-.48.89-.64,1.37-.36l9.2,5.36c.48.28.64.89.36,1.37-.19.32-.52.5-.87.5Z"/>
  <path class="cls-1" d="m43.96,69.31c-.27,0-.53-.11-.73-.31l-6.22-6.61c-.38-.4-.36-1.04.04-1.41.4-.38,1.04-.36,1.41.04l6.22,6.61c.38.4.36,1.04-.04,1.41-.19.18-.44.27-.69.27Z"/>
</svg>