<?xml version="1.0" encoding="UTF-8"?>
<svg id="Layer_1" data-name="Layer 1" xmlns="http://www.w3.org/2000/svg" viewBox="0 0 100 100">
  <defs>
    <style>
      .cls-1, .cls-2 {
        stroke-width: 0px;
      }

      .cls-2 {
        fill: #ff2d20;
        fill-rule: evenodd;
      }
    </style>
  </defs>
  <g>
    <polygon class="cls-2" points="32.36 21.18 20.62 27.92 32.36 34.66 44.1 27.92 32.36 21.18"/>
    <polygon class="cls-2" points="67.64 31.88 55.9 38.62 67.64 45.36 79.38 38.62 67.64 31.88"/>
    <polygon class="cls-2" points="55.9 52.05 31.47 65.79 43.21 72.53 67.64 58.79 55.9 52.05"/>
    <path class="cls-1" d="m45.41,83.64c-.18,0-.35-.05-.51-.14l-23.73-14.05c-.3-.18-.49-.51-.49-.86V24.1c0-.55.45-1,1-1s1,.45,1,1v43.92l22.71,13.45,21.26-13.66v-10.3l-20.72,12.51c-.32.19-.72.19-1.04,0l-11.99-7.31c-.47-.29-.62-.9-.33-1.37s.9-.62,1.37-.33l11.47,6.99,21.72-13.12c.31-.19.69-.19,1.01-.01.31.18.51.51.51.87v12.62c0,.34-.17.66-.46.84l-22.23,14.29c-.17.11-.35.16-.54.16Z"/>
    <path class="cls-1" d="m67.64,56.73c-.17,0-.34-.04-.5-.13l-11.74-6.74c-.31-.18-.5-.51-.5-.87v-13.48c0-.55.45-1,1-1s1,.45,1,1v12.9l10.74,6.17,10.74-6.17v-12.9c0-.55.45-1,1-1s1,.45,1,1v13.48c0,.36-.19.69-.5.87l-11.74,6.74c-.15.09-.33.13-.5.13Z"/>
    <path class="cls-1" d="m67.64,43.25c-.17,0-.34-.04-.5-.13l-11.74-6.74c-.31-.18-.5-.51-.5-.87s.19-.69.5-.87l11.74-6.74c.31-.18.69-.18,1,0l11.74,6.74c.31.18.5.51.5.87s-.19.69-.5.87l-11.74,6.74c-.15.09-.33.13-.5.13Zm-9.73-7.74l9.73,5.59,9.73-5.59-9.73-5.59-9.73,5.59Z"/>
    <path class="cls-1" d="m33.42,31.84c-.17,0-.34-.04-.5-.13l-11.74-6.74c-.31-.18-.5-.51-.5-.87s.19-.69.5-.87l11.74-6.74c.31-.18.69-.18,1,0l11.74,6.74c.31.18.5.51.5.87s-.19.69-.5.87l-11.74,6.74c-.15.09-.33.13-.5.13Zm-9.73-7.74l9.73,5.59,9.73-5.59-9.73-5.59-9.73,5.59Z"/>
    <path class="cls-1" d="m33.42,62.85c-.17,0-.35-.04-.5-.13-.31-.18-.5-.51-.5-.87v-31.01c0-.55.45-1,1-1s1,.45,1,1v29.28l9.74-5.59v-30.43c0-.55.45-1,1-1s1,.45,1,1v31c0,.36-.19.69-.5.87l-11.74,6.74c-.15.09-.33.13-.5.13Z"/>
    <path class="cls-1" d="m67.64,56.73c-.55,0-1-.45-1-1v-13.48c0-.55.45-1,1-1s1,.45,1,1v13.48c0,.55-.45,1-1,1Z"/>
    <path class="cls-1" d="m45.16,56.11c-.35,0-.69-.18-.87-.5-.27-.48-.11-1.09.37-1.36l10.75-6.12c.48-.27,1.09-.11,1.36.37.27.48.11,1.09-.37,1.36l-10.75,6.12c-.16.09-.33.13-.49.13Z"/>
    <path class="cls-1" d="m33.42,62.85c-.55,0-1-.45-1-1v-31.41c0-.55.45-1,1-1s1,.45,1,1v31.41c0,.55-.45,1-1,1Z"/>
    <path class="cls-1" d="m45.16,83.64c-.55,0-1-.45-1-1v-13.48c0-.55.45-1,1-1s1,.45,1,1v13.48c0,.55-.45,1-1,1Z"/>
  </g>
  <path class="cls-1" d="m50,100C22.43,100,0,77.57,0,50S22.43,0,50,0s50,22.43,50,50-22.43,50-50,50Zm0-98C23.53,2,2,23.53,2,50s21.53,48,48,48,48-21.53,48-48S76.47,2,50,2Z"/>
</svg>