<?xml version="1.0" encoding="UTF-8"?>
<svg id="Layer_1" data-name="Layer 1" xmlns="http://www.w3.org/2000/svg" viewBox="0 0 100 100">
  <defs>
    <style>
      .cls-1, .cls-2 {
        stroke-width: 0px;
      }

      .cls-2 {
        fill: #ff2d20;
      }
    </style>
  </defs>
  <g>
    <path class="cls-2" d="m26.03,39.87h-11.61l-6.19,31.05h6.02l1.65-8.23h5.2c1.76,0,3.46-.2,5.11-.61s3.19-1.36,4.63-2.86c1.18-1.18,2.11-2.51,2.77-3.98.69-1.47,1.14-2.97,1.34-4.5.52-3.35.01-5.99-1.52-7.93-1.53-1.93-4-2.92-7.41-2.95Zm2.64,10.83c-.63,3.61-1.88,5.72-3.72,6.32-1.85.58-4.16.85-6.93.82h-.61c-.17,0-.35-.01-.52-.04l2.59-12.95h.88c.32,0,.65-.01,1-.04,2.31-.03,4.23.19,5.76.65,1.56.46,2.08,2.21,1.56,5.24Z"/>
    <path class="cls-2" d="m58.06,41.68c-1.44-1.15-3.64-1.76-6.58-1.82h-5.37l1.69-8.27h-5.98l-6.24,31.1h5.98l3.55-17.8,4.81.04c1.53,0,2.53.3,2.99.91s.55,1.63.26,3.08l-2.77,13.77h6.06l2.9-14.42c.61-3.23.17-5.43-1.3-6.58Z"/>
    <path class="cls-2" d="m84.79,42.81c-1.53-1.93-4-2.92-7.41-2.95h-11.61l-6.19,31.05h6.02l1.65-8.23h5.2c1.76,0,3.46-.2,5.11-.61s3.19-1.36,4.63-2.86c1.18-1.18,2.11-2.51,2.77-3.98.69-1.47,1.14-2.97,1.34-4.5.52-3.35.01-5.99-1.52-7.93Zm-4.76,7.88c-.63,3.61-1.88,5.72-3.72,6.32-1.85.58-4.16.85-6.93.82h-.61c-.17,0-.35-.01-.52-.04l2.59-12.95h.88c.32,0,.65-.01,1-.04,2.31-.03,4.23.19,5.76.65,1.56.46,2.08,2.21,1.56,5.24Z"/>
  </g>
  <path class="cls-1" d="m50,100C22.43,100,0,77.57,0,50S22.43,0,50,0s50,22.43,50,50-22.43,50-50,50Zm0-98C23.53,2,2,23.53,2,50s21.53,48,48,48,48-21.53,48-48S76.47,2,50,2Z"/>
  <g>
    <path class="cls-1" d="m16.89,70.66h-6.02c-.3,0-.58-.13-.77-.37-.19-.23-.27-.54-.21-.83l6.19-31.05c.09-.47.5-.8.98-.8h11.62c3.71.03,6.46,1.15,8.18,3.33,1.7,2.15,2.28,5.08,1.72,8.7-.21,1.6-.69,3.22-1.43,4.78-.7,1.56-1.71,3-2.97,4.27-1.56,1.62-3.28,2.67-5.1,3.12-1.72.42-3.52.64-5.35.64h-4.38l-1.49,7.43c-.09.47-.5.8-.98.8Zm-4.8-2h3.98l1.49-7.43c.09-.47.5-.8.98-.8h5.2c1.67,0,3.31-.19,4.87-.58,1.45-.36,2.85-1.22,4.15-2.58,1.11-1.11,1.97-2.35,2.58-3.7.65-1.39,1.08-2.8,1.26-4.22.48-3.07.04-5.48-1.31-7.18-1.34-1.7-3.51-2.54-6.63-2.57h-10.78l-5.8,29.05Zm8.95-11.08c-.13,0-.26,0-.39,0h-.6c-.23,0-.45-.02-.68-.06-.27-.04-.51-.2-.66-.42-.15-.22-.21-.5-.16-.77l2.59-12.95c.09-.47.5-.8.98-.8h.88c.29,0,.6-.01.92-.04,2.46-.03,4.51.2,6.13.69,2.11.63,2.87,2.77,2.25,6.37h0c-.7,3.99-2.18,6.38-4.4,7.1-1.86.58-4.17.88-6.86.88Zm-.29-2c2.65.03,4.83-.24,6.55-.78,1.45-.48,2.47-2.34,3.04-5.54.42-2.44.13-3.82-.86-4.11-1.43-.43-3.26-.64-5.46-.61-.31.03-.67.04-1.01.04h-.06l-2.2,11Zm10.57-6.15h0,0Z"/>
    <path class="cls-1" d="m59.09,62.43h-6.06c-.3,0-.58-.13-.77-.37-.19-.23-.27-.54-.21-.83l2.77-13.77c.31-1.55.05-2.11-.08-2.27-.09-.12-.52-.51-2.19-.51l-3.99-.04-3.39,16.99c-.09.47-.5.8-.98.8h-5.98c-.3,0-.58-.13-.77-.37-.19-.23-.27-.54-.21-.83l6.24-31.1c.09-.47.5-.8.98-.8h5.98c.3,0,.58.13.77.37.19.23.27.54.21.83l-1.44,7.07h4.15c3.17.06,5.59.75,7.21,2.04,1.78,1.4,2.34,3.94,1.66,7.55l-2.9,14.44c-.09.47-.5.8-.98.8Zm-4.84-2h4.02l2.74-13.62c.53-2.81.21-4.7-.94-5.6,0,0,0,0,0,0-1.26-1.01-3.27-1.55-5.98-1.6h-5.35c-.3,0-.58-.13-.77-.37-.19-.23-.27-.54-.21-.83l1.44-7.07h-3.93l-5.84,29.1h3.94l3.39-17c.09-.47.5-.86.99-.8l4.81.04c1.87,0,3.11.43,3.78,1.3.65.85.79,2.12.44,3.88l-2.53,12.58Z"/>
    <path class="cls-1" d="m68.23,70.66h-6.02c-.3,0-.58-.13-.77-.37-.19-.23-.27-.54-.21-.83l6.19-31.05c.09-.47.5-.8.98-.8h11.61c3.72.03,6.47,1.15,8.19,3.32h0c1.7,2.15,2.28,5.08,1.72,8.7-.21,1.61-.69,3.22-1.43,4.78-.7,1.56-1.71,3-2.97,4.27-1.56,1.62-3.28,2.67-5.1,3.12-1.72.42-3.52.64-5.35.64h-4.38l-1.49,7.43c-.09.47-.5.8-.98.8Zm-4.8-2h3.98l1.49-7.43c.09-.47.5-.8.98-.8h5.2c1.67,0,3.31-.19,4.87-.58,1.45-.36,2.85-1.23,4.15-2.58,1.11-1.11,1.97-2.35,2.58-3.7.65-1.38,1.07-2.8,1.26-4.22.48-3.07.03-5.48-1.31-7.17-1.35-1.7-3.51-2.54-6.63-2.57h-10.78l-5.79,29.05Zm8.95-11.08c-.13,0-.26,0-.39,0h-.6c-.23,0-.45-.02-.68-.06-.27-.04-.51-.19-.66-.42-.15-.22-.21-.5-.16-.77l2.59-12.95c.09-.47.5-.8.98-.8h.88c.29,0,.6-.01.91-.04,2.48-.03,4.51.2,6.13.69,2.11.62,2.87,2.77,2.26,6.37h0c-.7,3.99-2.18,6.38-4.4,7.1-1.86.58-4.17.88-6.86.88Zm-.29-2c2.65.03,4.83-.24,6.55-.78,1.45-.48,2.47-2.34,3.04-5.54.42-2.44.13-3.82-.86-4.11-1.43-.43-3.27-.64-5.46-.61-.3.03-.66.04-1.01.04h-.06l-2.2,11Zm10.57-6.15h0,0Z"/>
  </g>
</svg>