<?xml version="1.0" encoding="UTF-8"?>
<svg id="Layer_1" data-name="Layer 1" xmlns="http://www.w3.org/2000/svg" viewBox="0 0 100 100">
  <defs>
    <style>
      .cls-1, .cls-2 {
        stroke-width: 0px;
      }

      .cls-2 {
        fill: #ff2d20;
        fill-rule: evenodd;
      }
    </style>
  </defs>
  <g>
    <path class="cls-2" d="m49.33,23.11c-10.96,0-17.81,5.48-20.55,16.44,4.11-5.48,8.9-7.53,14.38-6.16,3.13.78,5.36,3.05,7.83,5.56,4.03,4.09,8.69,8.82,18.88,8.82,10.96,0,17.81-5.48,20.55-16.44-4.11,5.48-8.9,7.53-14.38,6.16-3.13-.78-5.36-3.05-7.83-5.56-4.03-4.09-8.69-8.82-18.88-8.82Zm-20.55,24.65c-10.96,0-17.81,5.48-20.55,16.44,4.11-5.48,8.9-7.53,14.38-6.16,3.13.78,5.36,3.05,7.83,5.56,4.03,4.09,8.69,8.82,18.88,8.82,10.96,0,17.81-5.48,20.55-16.44-4.11,5.48-8.9,7.53-14.38,6.16-3.13-.78-5.36-3.05-7.83-5.56-4.03-4.09-8.69-8.82-18.88-8.82Z"/>
    <path class="cls-1" d="m50.68,77.89c-10.61,0-15.59-5.06-19.59-9.12-2.42-2.46-4.51-4.58-7.36-5.29-5.09-1.27-9.46.62-13.34,5.79-.29.38-.8.51-1.23.3-.43-.21-.66-.68-.54-1.15,2.85-11.41,10.09-17.19,21.51-17.19,10.6,0,15.58,5.06,19.59,9.12,2.43,2.46,4.51,4.58,7.36,5.29,5.1,1.28,9.46-.62,13.34-5.79.28-.38.8-.51,1.23-.3.43.21.66.68.54,1.15-2.85,11.41-10.09,17.19-21.51,17.19Zm-29.92-16.79c1.12,0,2.28.15,3.46.44,3.4.85,5.78,3.26,8.3,5.82,3.94,4,8.4,8.53,18.17,8.53,8.98,0,14.96-3.73,18.16-11.36-3.63,3.15-7.73,4.18-12.24,3.06-3.39-.85-5.77-3.26-8.29-5.82-3.95-4.01-8.41-8.54-18.17-8.54-8.98,0-14.96,3.73-18.16,11.36,2.68-2.33,5.62-3.5,8.78-3.5Zm50.47-7.86c-10.6,0-15.58-5.06-19.59-9.12-2.42-2.46-4.51-4.58-7.36-5.29-5.1-1.28-9.46.62-13.34,5.79-.29.38-.8.51-1.23.3-.43-.21-.66-.68-.54-1.15,2.85-11.41,10.09-17.19,21.52-17.19,10.61,0,15.59,5.06,19.59,9.12,2.42,2.46,4.51,4.58,7.36,5.29,5.09,1.27,9.46-.62,13.34-5.79.29-.38.8-.51,1.23-.3.43.21.66.68.54,1.15-2.85,11.41-10.09,17.19-21.52,17.19Zm-29.92-16.79c1.12,0,2.28.15,3.46.44,3.4.85,5.78,3.26,8.3,5.82,3.94,4,8.4,8.53,18.17,8.53,8.98,0,14.96-3.73,18.16-11.36-3.63,3.16-7.73,4.18-12.24,3.06-3.4-.85-5.78-3.27-8.3-5.83-3.94-4-8.4-8.53-18.17-8.53-8.98,0-14.96,3.73-18.16,11.36,2.68-2.33,5.62-3.5,8.78-3.5Z"/>
  </g>
  <path class="cls-1" d="m50,100C22.43,100,0,77.57,0,50S22.43,0,50,0s50,22.43,50,50-22.43,50-50,50Zm0-98C23.53,2,2,23.53,2,50s21.53,48,48,48,48-21.53,48-48S76.47,2,50,2Z"/>
</svg>