<?xml version="1.0" encoding="UTF-8"?>
<svg id="Layer_1" data-name="Layer 1" xmlns="http://www.w3.org/2000/svg" viewBox="0 0 100 100">
  <defs>
    <style>
      .cls-1, .cls-2 {
        stroke-width: 0px;
      }

      .cls-2 {
        fill: #ff2d20;
      }
    </style>
  </defs>
  <rect class="cls-2" x="15.96" y="27.98" width="18.29" height="27.96" rx="2.37" ry="2.37"/>
  <rect class="cls-2" x="39.37" y="27.98" width="41.36" height="20.78" rx="2.37" ry="2.37"/>
  <rect class="cls-2" x="39.37" y="52.39" width="17.62" height="11.01" rx="2.37" ry="2.37"/>
  <rect class="cls-2" x="38.99" y="68.77" width="37.63" height="6.99" rx="2.37" ry="2.37"/>
  <rect class="cls-2" x="15.96" y="61.87" width="18.29" height="11.01" rx="2.37" ry="2.37"/>
  <path class="cls-1" d="m50,100C22.43,100,0,77.57,0,50S22.43,0,50,0s50,22.43,50,50-22.43,50-50,50Zm0-98C23.53,2,2,23.53,2,50s21.53,48,48,48,48-21.53,48-48S76.47,2,50,2Z"/>
  <path class="cls-1" d="m67.19,84.41h-34.37c-3.59,0-6.5-2.92-6.5-6.51v-7.42c0-.55.45-1,1-1s1,.45,1,1v7.42c0,2.48,2.02,4.51,4.5,4.51h34.37c2.48,0,4.5-2.02,4.5-4.51v-4.55c0-.55.45-1,1-1s1,.45,1,1v4.55c0,3.59-2.92,6.51-6.5,6.51Z"/>
  <path class="cls-1" d="m72.69,67.37c-.55,0-1-.45-1-1v-20.39c0-.55.45-1,1-1s1,.45,1,1v20.39c0,.55-.45,1-1,1Z"/>
  <path class="cls-1" d="m27.31,26.58c-.55,0-1-.45-1-1v-3.49c0-3.59,2.92-6.51,6.5-6.51h34.37c3.59,0,6.5,2.92,6.5,6.51v3.11c0,.55-.45,1-1,1s-1-.45-1-1v-3.11c0-2.48-2.02-4.51-4.5-4.51h-34.37c-2.48,0-4.5,2.02-4.5,4.51v3.49c0,.55-.45,1-1,1Z"/>
  <path class="cls-1" d="m27.31,60.48c-.55,0-1-.45-1-1v-5.94c0-.55.45-1,1-1s1,.45,1,1v5.94c0,.55-.45,1-1,1Z"/>
  <path class="cls-1" d="m34.08,54.54h-13.55c-1.86,0-3.37-1.51-3.37-3.37v-23.22c0-1.86,1.51-3.37,3.37-3.37h13.55c1.86,0,3.37,1.51,3.37,3.37v23.22c0,1.86-1.51,3.37-3.37,3.37Zm-13.55-27.96c-.75,0-1.37.61-1.37,1.37v23.22c0,.76.61,1.37,1.37,1.37h13.55c.76,0,1.37-.61,1.37-1.37v-23.22c0-.76-.61-1.37-1.37-1.37h-13.55Z"/>
  <path class="cls-1" d="m80.57,47.36h-36.62c-1.86,0-3.37-1.51-3.37-3.37v-16.04c0-1.86,1.51-3.37,3.37-3.37h36.62c1.86,0,3.37,1.51,3.37,3.37v16.04c0,1.86-1.51,3.37-3.37,3.37Zm-36.62-20.78c-.76,0-1.37.61-1.37,1.37v16.04c0,.75.61,1.37,1.37,1.37h36.62c.76,0,1.37-.61,1.37-1.37v-16.04c0-.76-.61-1.37-1.37-1.37h-36.62Z"/>
  <path class="cls-1" d="m56.82,62.01h-12.88c-1.86,0-3.37-1.51-3.37-3.37v-6.27c0-1.86,1.51-3.37,3.37-3.37h12.88c1.86,0,3.37,1.51,3.37,3.37v6.27c0,1.86-1.51,3.37-3.37,3.37Zm-12.88-11.01c-.76,0-1.37.61-1.37,1.37v6.27c0,.76.61,1.37,1.37,1.37h12.88c.76,0,1.37-.61,1.37-1.37v-6.27c0-.76-.61-1.37-1.37-1.37h-12.88Z"/>
  <path class="cls-1" d="m76.45,74.36h-32.89c-1.86,0-3.37-1.51-3.37-3.37v-2.25c0-1.86,1.51-3.37,3.37-3.37h32.89c1.86,0,3.37,1.51,3.37,3.37v2.25c0,1.86-1.51,3.37-3.37,3.37Zm-32.89-6.99c-.76,0-1.37.61-1.37,1.37v2.25c0,.75.61,1.37,1.37,1.37h32.89c.76,0,1.37-.61,1.37-1.37v-2.25c0-.76-.61-1.37-1.37-1.37h-32.89Z"/>
  <path class="cls-1" d="m34.08,71.49h-13.55c-1.86,0-3.37-1.51-3.37-3.37v-6.27c0-1.86,1.51-3.37,3.37-3.37h13.55c1.86,0,3.37,1.51,3.37,3.37v6.27c0,1.86-1.51,3.37-3.37,3.37Zm-13.55-11.01c-.75,0-1.37.61-1.37,1.37v6.27c0,.75.61,1.37,1.37,1.37h13.55c.76,0,1.37-.61,1.37-1.37v-6.27c0-.76-.61-1.37-1.37-1.37h-13.55Z"/>
</svg>