<svg height="400" class="text-primary opacity-2" fill="currentColor" viewBox="0 0 340 340">
    <circle cx="194.2" cy="2.2" r="2.2"></circle>
    <circle cx="2.2" cy="2.2" r="2.2"></circle>
    <circle cx="218.2" cy="2.2" r="2.2"></circle>
    <circle cx="26.2" cy="2.2" r="2.2"></circle>
    <circle cx="242.2" cy="2.2" r="2.2"></circle>
    <circle cx="50.2" cy="2.2" r="2.2"></circle>
    <circle cx="266.2" cy="2.2" r="2.2"></circle>
    <circle cx="74.2" cy="2.2" r="2.2"></circle>
    <circle cx="290.2" cy="2.2" r="2.2"></circle>
    <circle cx="98.2" cy="2.2" r="2.2"></circle>
    <circle cx="314.2" cy="2.2" r="2.2"></circle>
    <circle cx="122.2" cy="2.2" r="2.2"></circle>
    <circle cx="338.2" cy="2.2" r="2.2"></circle>
    <circle cx="146.2" cy="2.2" r="2.2"></circle>
    <circle cx="170.2" cy="2.2" r="2.2"></circle>
    <circle cx="194.2" cy="26.2" r="2.2"></circle>
    <circle cx="2.2" cy="26.2" r="2.2"></circle>
    <circle cx="218.2" cy="26.2" r="2.2"></circle>
    <circle cx="26.2" cy="26.2" r="2.2"></circle>
    <circle cx="242.2" cy="26.2" r="2.2"></circle>
    <circle cx="50.2" cy="26.2" r="2.2"></circle>
    <circle cx="266.2" cy="26.2" r="2.2"></circle>
    <circle cx="74.2" cy="26.2" r="2.2"></circle>
    <circle cx="290.2" cy="26.2" r="2.2"></circle>
    <circle cx="98.2" cy="26.2" r="2.2"></circle>
    <circle cx="314.2" cy="26.2" r="2.2"></circle>
    <circle cx="122.2" cy="26.2" r="2.2"></circle>
    <circle cx="338.2" cy="26.2" r="2.2"></circle>
    <circle cx="146.2" cy="26.2" r="2.2"></circle>
    <circle cx="170.2" cy="26.2" r="2.2"></circle>
    <circle cx="194.2" cy="50.2" r="2.2"></circle>
    <circle cx="2.2" cy="50.2" r="2.2"></circle>
    <circle cx="218.2" cy="50.2" r="2.2"></circle>
    <circle cx="26.2" cy="50.2" r="2.2"></circle>
    <circle cx="242.2" cy="50.2" r="2.2"></circle>
    <circle cx="50.2" cy="50.2" r="2.2"></circle>
    <circle cx="266.2" cy="50.2" r="2.2"></circle>
    <circle cx="74.2" cy="50.2" r="2.2"></circle>
    <circle cx="290.2" cy="50.2" r="2.2"></circle>
    <circle cx="98.2" cy="50.2" r="2.2"></circle>
    <circle cx="314.2" cy="50.2" r="2.2"></circle>
    <circle cx="122.2" cy="50.2" r="2.2"></circle>
    <circle cx="338.2" cy="50.2" r="2.2"></circle>
    <circle cx="146.2" cy="50.2" r="2.2"></circle>
    <circle cx="170.2" cy="50.2" r="2.2"></circle>
    <circle cx="194.2" cy="74.2" r="2.2"></circle>
    <circle cx="2.2" cy="74.2" r="2.2"></circle>
    <circle cx="218.2" cy="74.2" r="2.2"></circle>
    <circle cx="26.2" cy="74.2" r="2.2"></circle>
    <circle cx="242.2" cy="74.2" r="2.2"></circle>
    <circle cx="50.2" cy="74.2" r="2.2"></circle>
    <circle cx="266.2" cy="74.2" r="2.2"></circle>
    <circle cx="74.2" cy="74.2" r="2.2"></circle>
    <circle cx="290.2" cy="74.2" r="2.2"></circle>
    <circle cx="98.2" cy="74.2" r="2.2"></circle>
    <circle cx="314.2" cy="74.2" r="2.2"></circle>
    <circle cx="122.2" cy="74.2" r="2.2"></circle>
    <circle cx="338.2" cy="74.2" r="2.2"></circle>
    <circle cx="146.2" cy="74.2" r="2.2"></circle>
    <circle cx="170.2" cy="74.2" r="2.2"></circle>
    <circle cx="194.2" cy="98.2" r="2.2"></circle>
    <circle cx="2.2" cy="98.2" r="2.2"></circle>
    <circle cx="218.2" cy="98.2" r="2.2"></circle>
    <circle cx="26.2" cy="98.2" r="2.2"></circle>
    <circle cx="242.2" cy="98.2" r="2.2"></circle>
    <circle cx="50.2" cy="98.2" r="2.2"></circle>
    <circle cx="266.2" cy="98.2" r="2.2"></circle>
    <circle cx="74.2" cy="98.2" r="2.2"></circle>
    <circle cx="290.2" cy="98.2" r="2.2"></circle>
    <circle cx="98.2" cy="98.2" r="2.2"></circle>
    <circle cx="314.2" cy="98.2" r="2.2"></circle>
    <circle cx="122.2" cy="98.2" r="2.2"></circle>
    <circle cx="338.2" cy="98.2" r="2.2"></circle>
    <circle cx="146.2" cy="98.2" r="2.2"></circle>
    <circle cx="170.2" cy="98.2" r="2.2"></circle>
    <circle cx="194.2" cy="122.2" r="2.2"></circle>
    <circle cx="2.2" cy="122.2" r="2.2"></circle>
    <circle cx="218.2" cy="122.2" r="2.2"></circle>
    <circle cx="26.2" cy="122.2" r="2.2"></circle>
    <circle cx="242.2" cy="122.2" r="2.2"></circle>
    <circle cx="50.2" cy="122.2" r="2.2"></circle>
    <circle cx="266.2" cy="122.2" r="2.2"></circle>
    <circle cx="74.2" cy="122.2" r="2.2"></circle>
    <circle cx="290.2" cy="122.2" r="2.2"></circle>
    <circle cx="98.2" cy="122.2" r="2.2"></circle>
    <circle cx="314.2" cy="122.2" r="2.2"></circle>
    <circle cx="122.2" cy="122.2" r="2.2"></circle>
    <circle cx="338.2" cy="122.2" r="2.2"></circle>
    <circle cx="146.2" cy="122.2" r="2.2"></circle>
    <circle cx="170.2" cy="122.2" r="2.2"></circle>
    <circle cx="194.2" cy="146.2" r="2.2"></circle>
    <circle cx="2.2" cy="146.2" r="2.2"></circle>
    <circle cx="218.2" cy="146.2" r="2.2"></circle>
    <circle cx="26.2" cy="146.2" r="2.2"></circle>
    <circle cx="242.2" cy="146.2" r="2.2"></circle>
    <circle cx="50.2" cy="146.2" r="2.2"></circle>
    <circle cx="266.2" cy="146.2" r="2.2"></circle>
    <circle cx="74.2" cy="146.2" r="2.2"></circle>
    <circle cx="290.2" cy="146.2" r="2.2"></circle>
    <circle cx="98.2" cy="146.2" r="2.2"></circle>
    <circle cx="314.2" cy="146.2" r="2.2"></circle>
    <circle cx="122.2" cy="146.2" r="2.2"></circle>
    <circle cx="338.2" cy="146.2" r="2.2"></circle>
    <circle cx="146.2" cy="146.2" r="2.2"></circle>
    <circle cx="170.2" cy="146.2" r="2.2"></circle>
    <circle cx="194.2" cy="170.2" r="2.2"></circle>
    <circle cx="2.2" cy="170.2" r="2.2"></circle>
    <circle cx="218.2" cy="170.2" r="2.2"></circle>
    <circle cx="26.2" cy="170.2" r="2.2"></circle>
    <circle cx="242.2" cy="170.2" r="2.2"></circle>
    <circle cx="50.2" cy="170.2" r="2.2"></circle>
    <circle cx="266.2" cy="170.2" r="2.2"></circle>
    <circle cx="74.2" cy="170.2" r="2.2"></circle>
    <circle cx="290.2" cy="170.2" r="2.2"></circle>
    <circle cx="98.2" cy="170.2" r="2.2"></circle>
    <circle cx="314.2" cy="170.2" r="2.2"></circle>
    <circle cx="122.2" cy="170.2" r="2.2"></circle>
    <circle cx="338.2" cy="170.2" r="2.2"></circle>
    <circle cx="146.2" cy="170.2" r="2.2"></circle>
    <circle cx="170.2" cy="170.2" r="2.2"></circle>
    <circle cx="194.2" cy="194.2" r="2.2"></circle>
    <circle cx="2.2" cy="194.2" r="2.2"></circle>
    <circle cx="218.2" cy="194.2" r="2.2"></circle>
    <circle cx="26.2" cy="194.2" r="2.2"></circle>
    <circle cx="242.2" cy="194.2" r="2.2"></circle>
    <circle cx="50.2" cy="194.2" r="2.2"></circle>
    <circle cx="266.2" cy="194.2" r="2.2"></circle>
    <circle cx="74.2" cy="194.2" r="2.2"></circle>
    <circle cx="290.2" cy="194.2" r="2.2"></circle>
    <circle cx="98.2" cy="194.2" r="2.2"></circle>
    <circle cx="314.2" cy="194.2" r="2.2"></circle>
    <circle cx="122.2" cy="194.2" r="2.2"></circle>
    <circle cx="338.2" cy="194.2" r="2.2"></circle>
    <circle cx="146.2" cy="194.2" r="2.2"></circle>
    <circle cx="170.2" cy="194.2" r="2.2"></circle>
    <circle cx="194.2" cy="218.2" r="2.2"></circle>
    <circle cx="2.2" cy="218.2" r="2.2"></circle>
    <circle cx="218.2" cy="218.2" r="2.2"></circle>
    <circle cx="26.2" cy="218.2" r="2.2"></circle>
    <circle cx="242.2" cy="218.2" r="2.2"></circle>
    <circle cx="50.2" cy="218.2" r="2.2"></circle>
    <circle cx="266.2" cy="218.2" r="2.2"></circle>
    <circle cx="74.2" cy="218.2" r="2.2"></circle>
    <circle cx="290.2" cy="218.2" r="2.2"></circle>
    <circle cx="98.2" cy="218.2" r="2.2"></circle>
    <circle cx="314.2" cy="218.2" r="2.2"></circle>
    <circle cx="122.2" cy="218.2" r="2.2"></circle>
    <circle cx="338.2" cy="218.2" r="2.2"></circle>
    <circle cx="146.2" cy="218.2" r="2.2"></circle>
    <circle cx="170.2" cy="218.2" r="2.2"></circle>
    <circle cx="194.2" cy="242.2" r="2.2"></circle>
    <circle cx="2.2" cy="242.2" r="2.2"></circle>
    <circle cx="218.2" cy="242.2" r="2.2"></circle>
    <circle cx="26.2" cy="242.2" r="2.2"></circle>
    <circle cx="242.2" cy="242.2" r="2.2"></circle>
    <circle cx="50.2" cy="242.2" r="2.2"></circle>
    <circle cx="266.2" cy="242.2" r="2.2"></circle>
    <circle cx="74.2" cy="242.2" r="2.2"></circle>
    <circle cx="290.2" cy="242.2" r="2.2"></circle>
    <circle cx="98.2" cy="242.2" r="2.2"></circle>
    <circle cx="314.2" cy="242.2" r="2.2"></circle>
    <circle cx="122.2" cy="242.2" r="2.2"></circle>
    <circle cx="338.2" cy="242.2" r="2.2"></circle>
    <circle cx="146.2" cy="242.2" r="2.2"></circle>
    <circle cx="170.2" cy="242.2" r="2.2"></circle>
    <circle cx="194.2" cy="266.2" r="2.2"></circle>
    <circle cx="2.2" cy="266.2" r="2.2"></circle>
    <circle cx="218.2" cy="266.2" r="2.2"></circle>
    <circle cx="26.2" cy="266.2" r="2.2"></circle>
    <circle cx="242.2" cy="266.2" r="2.2"></circle>
    <circle cx="50.2" cy="266.2" r="2.2"></circle>
    <circle cx="266.2" cy="266.2" r="2.2"></circle>
    <circle cx="74.2" cy="266.2" r="2.2"></circle>
    <circle cx="290.2" cy="266.2" r="2.2"></circle>
    <circle cx="98.2" cy="266.2" r="2.2"></circle>
    <circle cx="314.2" cy="266.2" r="2.2"></circle>
    <circle cx="122.2" cy="266.2" r="2.2"></circle>
    <circle cx="338.2" cy="266.2" r="2.2"></circle>
    <circle cx="146.2" cy="266.2" r="2.2"></circle>
    <circle cx="170.2" cy="266.2" r="2.2"></circle>
    <circle cx="194.2" cy="290.2" r="2.2"></circle>
    <circle cx="2.2" cy="290.2" r="2.2"></circle>
    <circle cx="218.2" cy="290.2" r="2.2"></circle>
    <circle cx="26.2" cy="290.2" r="2.2"></circle>
    <circle cx="242.2" cy="290.2" r="2.2"></circle>
    <circle cx="50.2" cy="290.2" r="2.2"></circle>
    <circle cx="266.2" cy="290.2" r="2.2"></circle>
    <circle cx="74.2" cy="290.2" r="2.2"></circle>
    <circle cx="290.2" cy="290.2" r="2.2"></circle>
    <circle cx="98.2" cy="290.2" r="2.2"></circle>
    <circle cx="314.2" cy="290.2" r="2.2"></circle>
    <circle cx="122.2" cy="290.2" r="2.2"></circle>
    <circle cx="338.2" cy="290.2" r="2.2"></circle>
    <circle cx="146.2" cy="290.2" r="2.2"></circle>
    <circle cx="170.2" cy="290.2" r="2.2"></circle>
    <circle cx="194.2" cy="314.2" r="2.2"></circle>
    <circle cx="2.2" cy="314.2" r="2.2"></circle>
    <circle cx="218.2" cy="314.2" r="2.2"></circle>
    <circle cx="26.2" cy="314.2" r="2.2"></circle>
    <circle cx="242.2" cy="314.2" r="2.2"></circle>
    <circle cx="50.2" cy="314.2" r="2.2"></circle>
    <circle cx="266.2" cy="314.2" r="2.2"></circle>
    <circle cx="74.2" cy="314.2" r="2.2"></circle>
    <circle cx="290.2" cy="314.2" r="2.2"></circle>
    <circle cx="98.2" cy="314.2" r="2.2"></circle>
    <circle cx="314.2" cy="314.2" r="2.2"></circle>
    <circle cx="122.2" cy="314.2" r="2.2"></circle>
    <circle cx="338.2" cy="314.2" r="2.2"></circle>
    <circle cx="146.2" cy="314.2" r="2.2"></circle>
    <circle cx="170.2" cy="314.2" r="2.2"></circle>
    <circle cx="194.2" cy="338.2" r="2.2"></circle>
    <circle cx="2.2" cy="338.2" r="2.2"></circle>
    <circle cx="218.2" cy="338.2" r="2.2"></circle>
    <circle cx="26.2" cy="338.2" r="2.2"></circle>
    <circle cx="242.2" cy="338.2" r="2.2"></circle>
    <circle cx="50.2" cy="338.2" r="2.2"></circle>
    <circle cx="266.2" cy="338.2" r="2.2"></circle>
    <circle cx="74.2" cy="338.2" r="2.2"></circle>
    <circle cx="290.2" cy="338.2" r="2.2"></circle>
    <circle cx="98.2" cy="338.2" r="2.2"></circle>
    <circle cx="314.2" cy="338.2" r="2.2"></circle>
    <circle cx="122.2" cy="338.2" r="2.2"></circle>
    <circle cx="338.2" cy="338.2" r="2.2"></circle>
    <circle cx="146.2" cy="338.2" r="2.2"></circle>
    <circle cx="170.2" cy="338.2" r="2.2"></circle>
</svg>
