<?xml version="1.0" encoding="UTF-8"?>
<svg color="currentColor" xmlns="http://www.w3.org/2000/svg" viewBox="0 0 20 20">
  <path d="m15.5,17s-.19-.01-.24-.02H4.18s-.26.02-.41,0h-.09c-.1,0-.21-.02-.3-.05-1.93-.31-3.37-1.96-3.37-3.94s1.33-3.49,3.1-3.9c-.07-.36-.1-.73-.1-1.1,0-3.31,2.69-6,6-6s6,2.69,6,6v.03c.17-.02.33-.03.5-.03,2.48,0,4.5,2.02,4.5,4.5,0,2.13-1.53,3.97-3.6,4.4-.12.06-.26.09-.4.09h-.32s-.1.02-.18.02Zm-.18-2.02s.17.01.22.02c-.02,0,.03-.01.09-.02h.12s.07-.02.11-.02c1.22-.18,2.14-1.23,2.14-2.46,0-1.38-1.12-2.5-2.5-2.5-.43,0-.85.12-1.25.35-.36.21-.81.17-1.13-.08-.32-.26-.45-.69-.33-1.08.14-.44.2-.82.2-1.19,0-2.21-1.79-4-4-4s-4,1.79-4,4c0,.56.12,1.11.36,1.63.15.33.11.72-.12,1.01-.22.29-.58.44-.95.38-.11-.02-.2-.03-.3-.03-1.1,0-2,.9-2,2,0,1.01.77,1.86,1.78,1.97.02,0,.05,0,.07.01.06,0,.14.01.18.02-.02,0,.03-.01.09-.02h11.2Z"/>
</svg>
