<?xml version="1.0" encoding="UTF-8"?>
<svg xmlns="http://www.w3.org/2000/svg" viewBox="0 0 20 20">
  <path d="m15.4,20H4.6C2.06,20,0,17.94,0,15.4V4.6C0,2.06,2.06,0,4.6,0h10.8c2.54,0,4.6,2.06,4.6,4.6v10.8c0,2.54-2.06,4.6-4.6,4.6ZM4.6,2c-1.43,0-2.6,1.17-2.6,2.6v10.8c0,1.43,1.17,2.6,2.6,2.6h10.8c1.43,0,2.6-1.17,2.6-2.6V4.6c0-1.43-1.17-2.6-2.6-2.6H4.6Z"/>
  <path d="m8.62,13.8c-.74,0-1.48-.28-2.04-.84l-2.29-2.29c-.39-.39-.39-1.02,0-1.41s1.02-.39,1.41,0l2.29,2.29c.34.34.9.34,1.25,0l5.05-5.05c.39-.39,1.02-.39,1.41,0s.39,1.02,0,1.41l-5.05,5.05c-.56.56-1.3.84-2.04.84Z"/>
</svg>
