<svg width="40" height="40" viewBox="0 0 40 40" fill="currentColor" xmlns="http://www.w3.org/2000/svg">
<g clip-path="url(#clip0_1147_1100)">
<path d="M28.6902 29.9C28.4302 29.9 28.1802 29.8 27.9802 29.61C27.5902 29.22 27.5902 28.59 27.9802 28.2L34.6602 21.52C39.1202 17.06 39.1202 9.8 34.6602 5.34C32.5102 3.19 29.6402 2 26.5702 2C23.5002 2 20.6302 3.18 18.4802 5.34L12.5102 11.31L19.7602 18.56C20.1502 18.95 20.1502 19.58 19.7602 19.97C19.3702 20.36 18.7402 20.36 18.3502 19.97L10.3902 12.01C10.0002 11.62 10.0002 10.99 10.3902 10.6L17.0702 3.92C19.6002 1.39 22.9702 0 26.5702 0C30.1702 0 33.5502 1.39 36.0702 3.92C38.5902 6.45 39.9902 9.83 39.9902 13.42C39.9902 17.01 38.6002 20.4 36.0702 22.93L29.3902 29.61C29.1902 29.81 28.9402 29.9 28.6802 29.9H28.6902Z" fill="#FF2D20"/>
<path d="M36.6402 6.89906C36.3802 6.89906 36.1202 6.78906 35.9302 6.60906L33.3902 4.06906C33.0002 3.67906 33.0002 3.04906 33.3902 2.65906L34.6602 1.38906C35.7102 0.339063 37.5602 0.339063 38.6102 1.38906C39.1402 1.91906 39.4302 2.61906 39.4302 3.36906C39.4302 4.11906 39.1402 4.81906 38.6102 5.34906L37.3402 6.61906C37.1502 6.80906 36.9002 6.90906 36.6302 6.90906L36.6402 6.89906ZM35.5202 3.35906L36.6402 4.47906L37.2002 3.91906C37.3502 3.76906 37.4302 3.56906 37.4302 3.35906C37.4302 3.14906 37.3502 2.94906 37.2002 2.79906C36.9002 2.49906 36.3702 2.49906 36.0802 2.79906L35.5202 3.35906Z" fill="#FF2D20"/>
<path d="M28.0598 39.8101C27.8398 39.8101 27.6098 39.7301 27.4298 39.5901C27.3498 39.5301 19.2998 33.0301 13.1398 26.8601C6.96978 20.6901 0.479779 12.6501 0.409779 12.5701C0.179779 12.2801 0.119779 11.8801 0.269779 11.5401C0.419779 11.2001 0.749779 10.9701 1.11978 10.9401L11.0298 10.3101C11.5598 10.2801 12.0598 10.6901 12.0898 11.2401C12.1298 11.7901 11.7098 12.2701 11.1598 12.3001L3.19978 12.8101C5.36978 15.4201 10.0498 20.9401 14.5498 25.4401C19.0498 29.9401 24.5698 34.6301 27.1798 36.7901L27.6898 28.8301C27.7298 28.2801 28.1998 27.8601 28.7498 27.9001C29.2998 27.9401 29.7198 28.4101 29.6798 28.9601L29.0498 38.8701C29.0298 39.2401 28.7998 39.5701 28.4498 39.7201C28.3198 39.7801 28.1798 39.8001 28.0498 39.8001L28.0598 39.8101Z" fill="#FF2D20"/>
<path d="M8.04961 35.9005C7.03961 35.9005 6.02961 35.5205 5.25961 34.7405C4.48961 33.9605 4.09961 33.0005 4.09961 31.9505C4.09961 30.9005 4.50961 29.9005 5.25961 29.1605C6.74961 27.6705 9.34961 27.6705 10.8496 29.1605C12.3496 30.6505 12.3896 33.2105 10.8496 34.7505C10.0796 35.5205 9.06961 35.9105 8.05961 35.9105L8.04961 35.9005ZM8.04961 30.0005C7.52961 30.0005 7.03961 30.2005 6.66961 30.5705C6.29961 30.9405 6.09961 31.4305 6.09961 31.9505C6.09961 32.4705 6.29961 32.9605 6.66961 33.3305C7.42961 34.0905 8.66961 34.0905 9.42961 33.3305C10.1896 32.5705 10.1896 31.3305 9.42961 30.5705C9.05961 30.2005 8.56961 30.0005 8.04961 30.0005Z" fill="#FF2D20"/>
<path d="M11.399 32.1302C11.139 32.1302 10.889 32.0302 10.689 31.8402C10.299 31.4502 10.299 30.8202 10.689 30.4302L14.229 26.8902C14.619 26.5002 15.249 26.5002 15.639 26.8902C16.029 27.2802 16.029 27.9102 15.639 28.3002L12.099 31.8402C11.899 32.0402 11.649 32.1302 11.389 32.1302H11.399Z" fill="#FF2D20"/>
<path d="M8.86969 29.5989C8.60969 29.5989 8.35969 29.4989 8.15969 29.3089C7.76969 28.9189 7.76969 28.2889 8.15969 27.8989L11.6997 24.3589C12.0897 23.9689 12.7197 23.9689 13.1097 24.3589C13.4997 24.7489 13.4997 25.3789 13.1097 25.7689L9.56969 29.3089C9.36969 29.5089 9.11969 29.5989 8.85969 29.5989H8.86969Z" fill="#FF2D20"/>
<path d="M9.49977 39.4205C8.96977 39.4205 8.39977 39.3505 7.78977 39.1905C7.25977 39.0505 6.93977 38.5005 7.07977 37.9705C7.21977 37.4405 7.76977 37.1205 8.29977 37.2605C9.60977 37.6105 10.7698 37.4005 11.7398 36.6605C12.8998 35.7605 13.4798 34.3005 13.4798 33.7305C13.4798 33.1605 13.9298 32.7305 14.4798 32.7305C15.0298 32.7305 15.4798 33.1805 15.4798 33.7305C15.4798 34.9905 14.5398 37.0305 12.9598 38.2405C12.1998 38.8305 11.0398 39.4205 9.49977 39.4205Z" fill="#FF2D20"/>
<path d="M21.0292 39.1613C20.9092 39.1613 20.7892 39.1413 20.6692 39.0913L17.3192 37.7813C16.8092 37.5813 16.5492 37.0013 16.7492 36.4813C16.9492 35.9713 17.5292 35.7113 18.0492 35.9113L21.3992 37.2213C21.9092 37.4213 22.1692 38.0013 21.9692 38.5213C21.8192 38.9113 21.4392 39.1613 21.0392 39.1613H21.0292Z" fill="#FF2D20"/>
<path d="M1.78918 33.1119C1.34918 33.1119 0.93918 32.8119 0.81918 32.3619C0.17918 29.9419 0.98918 28.2119 1.76918 27.1919C2.98918 25.6119 5.01918 24.6719 6.27918 24.6719C6.82918 24.6719 7.27918 25.1219 7.27918 25.6719C7.27918 26.2219 6.82918 26.6719 6.27918 26.6719C5.72918 26.6719 4.24918 27.2519 3.34918 28.4119C2.59918 29.3819 2.39918 30.5419 2.74918 31.8519C2.88918 32.3819 2.56918 32.9319 2.03918 33.0719C1.95918 33.0919 1.86918 33.1019 1.78918 33.1019V33.1119Z" fill="#FF2D20"/>
<path d="M3.16035 23.4816C2.76035 23.4816 2.38035 23.2416 2.23035 22.8416L0.920349 19.4916C0.720349 18.9816 0.970349 18.4016 1.49035 18.2016C2.00035 18.0016 2.58035 18.2516 2.78035 18.7716L4.09035 22.1216C4.29035 22.6316 4.04035 23.2116 3.52035 23.4116C3.40035 23.4616 3.28035 23.4816 3.16035 23.4816Z" fill="#FF2D20"/>
<path d="M18.1197 12.3116C17.8597 12.3116 17.6097 12.2116 17.4097 12.0216C17.0197 11.6316 17.0197 11.0016 17.4097 10.6116L20.7997 7.22156C23.7097 4.31156 28.4397 4.31156 31.3497 7.22156C31.7397 7.61156 31.7397 8.24156 31.3497 8.63156C30.9597 9.02156 30.3297 9.02156 29.9397 8.63156C27.8097 6.50156 24.3497 6.50156 22.2197 8.63156L18.8297 12.0216C18.6297 12.2216 18.3797 12.3116 18.1197 12.3116Z" fill="#FF2D20"/>
</g>
<defs>
<clipPath id="clip0_1147_1100">
<rect width="40" height="40" fill="white"/>
</clipPath>
</defs>
</svg>
