<svg width="40" height="40" viewBox="0 0 40 40" fill="none" xmlns="http://www.w3.org/2000/svg">
<g clip-path="url(#clip0_834_1149)">
<path d="M9.03003 26.3989L16.35 22.1289V38.9989L9.03003 34.9389V26.4089V26.3989Z" stroke="#FF2D20" stroke-width="2" stroke-linecap="round" stroke-linejoin="round"/>
<path d="M9.03003 9.52734L16.35 13.7973V22.1273L9.03003 26.3973V9.52734ZM23.66 26.3973L30.98 30.4573L16.35 38.9873V30.4573L23.67 26.3973H23.66Z" stroke="#FF2D20" stroke-width="2" stroke-linecap="round" stroke-linejoin="round"/>
<path d="M30.9699 22.1289V30.4589L23.6499 26.3989L30.9699 22.1289Z" stroke="#FF2D20" stroke-width="2" stroke-linecap="round" stroke-linejoin="round"/>
<path d="M23.6599 9.52734L30.9799 13.7973L23.6599 17.8573V9.52734Z" stroke="#FF2D20" stroke-width="2" stroke-linecap="round" stroke-linejoin="round"/>
<path d="M30.9699 5.26781V13.7978L23.6499 9.52781L30.9699 5.25781V5.26781Z" stroke="#FF2D20" stroke-width="2" stroke-linecap="round" stroke-linejoin="round"/>
<path d="M23.6599 17.8694V26.3994L30.9799 22.1294L23.6599 17.8594V17.8694Z" stroke="#FF2D20" stroke-width="2" stroke-linecap="round" stroke-linejoin="round"/>
<path d="M16.3401 22.1272L23.6601 26.3972V17.8672L16.3401 22.1372V22.1272Z" stroke="#FF2D20" stroke-width="2" stroke-linecap="round" stroke-linejoin="round"/>
<path d="M23.6599 0.998281V9.52828L30.9799 5.25828L23.6599 0.988281V0.998281Z" stroke="#FF2D20" stroke-width="2" stroke-linecap="round" stroke-linejoin="round"/>
<path d="M16.34 5.27L9.02002 9.54L16.34 13.81L23.66 9.54V1L16.34 5.27Z" stroke="#FF2D20" stroke-width="2" stroke-linecap="round" stroke-linejoin="round"/>
<path d="M16.3401 22.1289L23.6601 26.3989L16.3401 30.4589V22.1289Z" stroke="#FF2D20" stroke-width="2" stroke-linecap="round" stroke-linejoin="round"/>
</g>
<defs>
<clipPath id="clip0_834_1149">
<rect width="40" height="40" fill="white"/>
</clipPath>
</defs>
</svg>
