<?xml version="1.0" encoding="UTF-8"?>
<svg id="Layer_1" data-name="Layer 1" xmlns="http://www.w3.org/2000/svg" viewBox="0 0 40 40">
  <circle cx="10.5" cy="12.4" r="5.17" style="fill: none; stroke: #ff2d20; stroke-linecap: round; stroke-linejoin: round; stroke-width: 2px;"/>
  <circle cx="10.5" cy="12.4" r="1.31" style="fill: #ff2d20;"/>
  <circle cx="23.13" cy="10.11" r="7.46" style="fill: none; stroke: #ff2d20; stroke-linecap: round; stroke-linejoin: round; stroke-width: 2px;"/>
  <circle cx="23.13" cy="10.11" r="2.27" style="fill: none; stroke: #ff2d20; stroke-linecap: round; stroke-linejoin: round; stroke-width: 2px;"/>
  <path d="m29.66,13.98c.83.66,1.35,1.68,1.35,2.82v7.41c0,2-1.62,3.62-3.62,3.62H8.95c-2,0-3.62-1.62-3.62-3.62v-7.41c0-.68.19-1.31.51-1.85" style="fill: none; stroke: #ff2d20; stroke-linecap: round; stroke-linejoin: round; stroke-width: 2px;"/>
  <polyline points="31.06 16.8 36.1 16.8 36.1 24.21 31.02 24.21" style="fill: none; stroke: #ff2d20; stroke-linecap: round; stroke-linejoin: round; stroke-width: 2px;"/>
  <path d="m36.1,16.8h0c0-1.16.94-2.1,2.1-2.1h.81v5.8" style="fill: none; stroke: #ff2d20; stroke-linecap: round; stroke-linejoin: round; stroke-width: 2px;"/>
  <path d="m36.1,24.21h0c0,1.16.94,2.1,2.1,2.1h.81v-5.8" style="fill: none; stroke: #ff2d20; stroke-linecap: round; stroke-linejoin: round; stroke-width: 2px;"/>
  <polyline points="5.38 16.22 1 16.22 1 18.83 5.33 21.73" style="fill: none; stroke: #ff2d20; stroke-linecap: round; stroke-linejoin: round; stroke-width: 2px;"/>
  <path d="m13.04,23.14h3.88c1.27,0,2.3,1.03,2.3,2.3v2.38h-8.49v-2.38c0-1.27,1.03-2.3,2.3-2.3Z" style="fill: none; stroke: #ff2d20; stroke-linecap: round; stroke-linejoin: round; stroke-width: 2px;"/>
  <polyline points="12.62 27.83 9.3 39 11.47 39 18.59 27.83" style="fill: none; stroke: #ff2d20; stroke-linecap: round; stroke-linejoin: round; stroke-width: 2px;"/>
  <polyline points="23.72 27.83 27.04 39 24.87 39 17.76 27.83" style="fill: none; stroke: #ff2d20; stroke-linecap: round; stroke-linejoin: round; stroke-width: 2px;"/>
  <line x1="16.51" y1="30.72" x2="14.41" y2="30.72" style="fill: none; stroke: #ff2d20; stroke-linecap: round; stroke-linejoin: round; stroke-width: 2px;"/>
  <line x1="14.91" y1="33.61" x2="13.95" y2="33.61" style="fill: none; stroke: #ff2d20; stroke-linecap: round; stroke-linejoin: round; stroke-width: 2px;"/>
  <line x1="24.29" y1="30.72" x2="22.68" y2="30.72" style="fill: none; stroke: #ff2d20; stroke-linecap: round; stroke-linejoin: round; stroke-width: 2px;"/>
  <line x1="25.25" y1="33.61" x2="24.29" y2="33.61" style="fill: none; stroke: #ff2d20; stroke-linecap: round; stroke-linejoin: round; stroke-width: 2px;"/>
  <line x1="33.2" y1="24.21" x2="33.2" y2="21.08" style="fill: none; stroke: #ff2d20; stroke-linecap: round; stroke-linejoin: round; stroke-width: 2px;"/>
  <line x1="30.39" y1="24.1" x2="23.4" y2="24.1" style="fill: none; stroke: #ff2d20; stroke-linecap: round; stroke-linejoin: round; stroke-width: 2px;"/>
  <line x1="30.72" y1="20.59" x2="27.27" y2="20.59" style="fill: none; stroke: #ff2d20; stroke-linecap: round; stroke-linejoin: round; stroke-width: 2px;"/>
</svg>