<?xml version="1.0" encoding="UTF-8"?>
<svg id="Layer_1" data-name="Layer 1" xmlns="http://www.w3.org/2000/svg" viewBox="0 0 309.6 216.68">
  <path d="m25.46,15.26l-3.1,174.68-10.72,2.09v-106.2l3.57-7.06-5.87-5.2L10.36,6.64s4.15.73,15.1,0,149.07,2.96,157.24,1.88,105.45-3.38,105.45-3.38c0,0-2.59,14.04-2.57,19.4s5.13,120.38,6.15,129.38-3.06,50.23-3.06,50.23l-252.11,1.15,1.67-8.5s71.98-1.35,99.04,0,139.94-5.3,139.94-5.3c0,0,3.3-78.62,1.51-107.99s-1.51-65.05-1.51-65.05c0,0-51.09,1.84-68.19,2.55s-120.51-5.35-136.85-5.76-46.69,0-46.69,0Z" style="fill: #ff3939;"/>
  <g>
    <path d="m154.14,149.2h0c3.02-3.34,8.56-1.05,8.33,3.45h0c-.14,2.83,2.19,5.17,5.02,5.02h0c4.5-.23,6.79,5.31,3.45,8.33h0c-2.11,1.9-2.11,5.2,0,7.11h0c3.34,3.02,1.05,8.56-3.45,8.33h0c-2.83-.14-5.17,2.19-5.02,5.02h0c.23,4.5-5.31,6.79-8.33,3.45h0c-1.9-2.11-5.2-2.11-7.11,0h0c-3.02,3.34-8.56,1.05-8.33-3.45h0c.14-2.83-2.19-5.17-5.02-5.02h0c-4.5.23-6.79-5.31-3.45-8.33h0c2.11-1.9,2.11-5.2,0-7.11h0c-3.34-3.02-1.05-8.56,3.45-8.33h0c2.83.14,5.17-2.19,5.02-5.02h0c-.23-4.5,5.31-6.79,8.33-3.45h0c1.9,2.11,5.2,2.11,7.11,0Z" style="fill: #ff3939;"/>
    <rect x="86.34" y="96.28" width="127.53" height="12.85" rx="5" ry="5" style="fill: #ff3939;"/>
    <rect x="115.83" y="116.58" width="68.55" height="12.85" rx="5" ry="5" style="fill: #ff3939;"/>
    <rect x="184.38" y="161.43" width="47.3" height="12.85" rx="5" ry="5" style="fill: #ff3939;"/>
    <path d="m83.41,209.31c-26.19,0-49.82-.29-56.33-.37-1.71-.02-3.26-.91-4.15-2.37l-9.66-15.77c-.49-.81-.75-1.73-.73-2.68l1.95-103.54c.02-1.07.4-2.13,1.06-2.97l.72-.92c.38-.48.51-1.1.36-1.69-.15-.59-.56-1.07-1.12-1.31-1.82-.79-2.99-2.57-2.99-4.55V12.52c0-2.68,2.09-4.86,4.77-4.95,16.87-.61,40.37.35,65.24,1.36,27.7,1.12,56.34,2.29,80.89,1.61,41.76-1.15,106.11-2.4,124.84-2.75,1.4-.05,2.78.55,3.73,1.59.96,1.04,1.42,2.45,1.28,3.86-.76,7.49-2.4,27.32-1.17,49.65.29,5.33.79,12.01,1.37,19.74,2.53,33.92,6.35,85.18.73,121.92-.39,2.52-2.6,4.35-5.12,4.22-48.42-2.18-120.8-.67-159.68.15-14.23.3-30.55.4-45.99.4ZM29.15,10.37c-4.2,0-8.14.06-11.77.19-1.05.04-1.87.9-1.87,1.96v60.62c0,.78.46,1.49,1.18,1.8,1.42.61,2.46,1.83,2.84,3.33.38,1.5.05,3.06-.91,4.28l-.72.92c-.26.33-.41.75-.42,1.17l-1.95,103.53c0,.37.09.74.29,1.06l9.66,15.77c.35.58.96.92,1.63.93,10.35.14,63.91.78,102.22-.03,38.92-.82,111.35-2.33,159.88-.14,1,.03,1.87-.68,2.02-1.68,5.57-36.4,1.76-87.45-.75-121.24-.58-7.75-1.08-14.45-1.37-19.8-1.25-22.54.41-42.56,1.18-50.12.06-.56-.12-1.1-.5-1.52-.38-.42-.92-.63-1.47-.63-18.73.35-83.07,1.6-124.82,2.75-24.65.68-53.34-.48-81.09-1.61-19.44-.79-38.04-1.54-53.24-1.54Z"/>
    <path d="m27.09,208.94c-.73,0-1.37-.53-1.48-1.28-.12-.82.44-1.58,1.26-1.71,3.27-.49,5.63-1.88,7-4.12,2.43-3.98,1.39-9.69.78-12.15-3.21.43-11.7,1.3-20.83-.05-.82-.12-1.39-.88-1.26-1.7s.88-1.39,1.7-1.26c10.89,1.61,21.12-.12,21.22-.13.73-.12,1.44.3,1.68,1,.13.39,3.15,9.52-.72,15.87-1.85,3.04-4.92,4.89-9.11,5.52-.08.01-.15.02-.22.02Z"/>
    <path d="m116.15,45.15c-9.41,0-13.62-5.27-13.62-10.5,0-2.39.86-4.64,2.43-6.35,1.69-1.85,4.07-2.86,6.69-2.86,5.15,0,6.5,2.96,6.84,4.23.83,3.09-.93,6.6-3.03,7.81-1.41.81-2.91.63-4.03-.49-.59-.59-.59-1.54,0-2.12s1.54-.59,2.12,0c.12.12.15.16.41,0,.96-.55,2.09-2.71,1.63-4.43-.36-1.33-1.68-2-3.94-2s-3.69,1.03-4.48,1.89c-1.05,1.14-1.65,2.72-1.65,4.33,0,3.46,2.78,7.5,10.62,7.5,6.45,0,10.9-2.66,15.19-5.23,6.07-3.63,12.34-7.38,23.21-2.51.76.34,1.09,1.23.76,1.98-.34.76-1.23,1.09-1.98.76-9.45-4.23-14.54-1.19-20.45,2.35-4.43,2.65-9.45,5.65-16.73,5.65Z"/>
    <path d="m116.15,45.15c-9.41,0-13.62-5.27-13.62-10.5,0-2.39.86-4.64,2.43-6.35,1.69-1.85,4.07-2.86,6.69-2.86,5.15,0,6.5,2.96,6.84,4.23.83,3.09-.93,6.6-3.03,7.81-1.41.81-2.91.63-4.03-.49-.59-.59-.59-1.54,0-2.12s1.54-.59,2.12,0c.12.12.15.16.41,0,.96-.55,2.09-2.71,1.63-4.43-.36-1.33-1.68-2-3.94-2-3.98,0-6.13,3.2-6.13,6.22,0,3.46,2.78,7.5,10.62,7.5,6.45,0,10.9-2.66,15.19-5.23,4.34-2.6,8.78-5.26,14.95-4.77-5.2-2.22-10.41-1.6-13.6-.81-2.82.7-5.71-.64-6.87-3.18-1.13-2.48-.23-5.24,2.3-7.02.68-.48,1.61-.32,2.09.36.48.68.32,1.61-.36,2.09-1.35.95-1.83,2.17-1.3,3.32.48,1.05,1.82,1.91,3.42,1.51,4.19-1.03,14.81-2.49,23.06,6.33.49.52.54,1.31.12,1.9-.42.58-1.18.79-1.83.5-9.45-4.23-14.54-1.19-20.45,2.35-4.43,2.65-9.45,5.65-16.73,5.65Z"/>
    <path d="m191.73,45.15c-7.28,0-12.3-3-16.73-5.65-5.9-3.53-11-6.58-20.44-2.35-.65.29-1.42.08-1.83-.5-.42-.58-.36-1.37.12-1.9,8.25-8.82,18.87-7.37,23.06-6.33,1.61.4,2.94-.46,3.42-1.51.53-1.16.06-2.37-1.3-3.32-.68-.48-.84-1.41-.36-2.09.48-.68,1.41-.84,2.09-.36,2.53,1.78,3.43,4.54,2.3,7.02-1.16,2.54-4.04,3.87-6.87,3.17-3.19-.79-8.4-1.41-13.6.81,6.17-.48,10.61,2.18,14.95,4.77,4.3,2.57,8.74,5.23,15.19,5.23,3.55,0,6.42-.86,8.29-2.49,1.5-1.31,2.33-3.09,2.33-5.01,0-3.01-2.15-6.22-6.13-6.22-2.26,0-3.58.67-3.94,2-.46,1.73.67,3.88,1.63,4.43.25.15.29.11.41,0,.59-.59,1.54-.59,2.12,0s.59,1.54,0,2.12c-1.12,1.12-2.62,1.3-4.03.49-2.1-1.21-3.85-4.72-3.03-7.81.34-1.27,1.69-4.23,6.84-4.23,5.71,0,9.13,4.69,9.13,9.22,0,5.23-4.21,10.5-13.62,10.5Z"/>
    <path d="m128.98,80.08c-.3,0-.6-.09-.86-.27-2.53-1.78-3.43-4.54-2.3-7.02,1.16-2.54,4.04-3.87,6.87-3.17,3.19.79,8.39,1.41,13.6-.81-6.16.49-10.61-2.18-14.95-4.77-4.3-2.57-8.74-5.23-15.19-5.23-3.55,0-6.42.86-8.29,2.49-1.5,1.31-2.33,3.09-2.33,5.01,0,3.01,2.15,6.22,6.13,6.22,2.26,0,3.58-.67,3.94-2,.46-1.73-.67-3.88-1.63-4.43-.26-.15-.29-.11-.41,0-.59.59-1.54.59-2.12,0s-.59-1.54,0-2.12c1.12-1.12,2.62-1.3,4.03-.49,2.1,1.21,3.85,4.71,3.03,7.81-.34,1.27-1.69,4.23-6.84,4.23-5.71,0-9.13-4.69-9.13-9.22,0-2.81,1.2-5.39,3.37-7.28,2.43-2.11,5.98-3.22,10.26-3.22,7.28,0,12.3,3,16.73,5.65,5.9,3.53,11,6.58,20.45,2.35.65-.29,1.42-.08,1.83.5.42.58.36,1.38-.12,1.9-8.25,8.82-18.88,7.37-23.06,6.33-1.61-.4-2.95.46-3.42,1.51-.53,1.16-.06,2.37,1.3,3.33.68.48.84,1.41.36,2.09-.29.41-.76.64-1.23.64Z"/>
    <path d="m178.9,80.08c-.47,0-.93-.22-1.23-.64-.48-.68-.32-1.61.36-2.09,1.35-.96,1.83-2.17,1.3-3.33-.48-1.05-1.81-1.91-3.42-1.51-4.19,1.04-14.81,2.49-23.06-6.33-.49-.52-.54-1.31-.12-1.9.41-.58,1.18-.79,1.83-.5,9.45,4.23,14.54,1.18,20.44-2.35,4.43-2.65,9.45-5.65,16.73-5.65,4.28,0,7.83,1.12,10.26,3.22,2.17,1.89,3.37,4.47,3.37,7.28,0,4.53-3.42,9.22-9.13,9.22-5.15,0-6.5-2.96-6.84-4.23-.83-3.09.93-6.6,3.03-7.81,1.41-.81,2.91-.63,4.03.49.59.59.59,1.54,0,2.12s-1.54.59-2.12,0c-.12-.12-.15-.16-.41,0-.96.55-2.09,2.71-1.63,4.43.36,1.33,1.68,2,3.94,2,3.98,0,6.13-3.2,6.13-6.22,0-3.46-2.78-7.5-10.62-7.5-6.45,0-10.9,2.66-15.19,5.23-4.34,2.6-8.79,5.26-14.95,4.77,5.21,2.22,10.41,1.6,13.6.81,2.83-.7,5.71.64,6.87,3.17,1.13,2.48.23,5.24-2.3,7.02-.26.19-.56.27-.86.27Z"/>
    <path d="m146.51,190.01c-.81,0-1.64-.16-2.44-.49-2.49-1.03-4.01-3.44-3.87-6.13.05-.94-.29-1.82-.96-2.49-.67-.67-1.54-1-2.49-.96-2.69.14-5.1-1.38-6.13-3.87-1.03-2.49-.41-5.27,1.6-7.07.7-.63,1.08-1.5,1.08-2.44s-.38-1.81-1.08-2.44c-2-1.81-2.63-4.58-1.6-7.07,1.03-2.49,3.43-4.01,6.13-3.87.95.04,1.83-.29,2.49-.96.67-.67,1.01-1.55.96-2.49-.14-2.69,1.38-5.1,3.87-6.13s5.27-.41,7.07,1.59c.63.7,1.5,1.08,2.44,1.08s1.81-.38,2.44-1.08h0c1.81-2,4.58-2.62,7.07-1.6,2.49,1.03,4.01,3.44,3.87,6.13-.05.94.29,1.83.96,2.49s1.55,1,2.49.96c2.7-.15,5.1,1.38,6.13,3.87,1.03,2.49.41,5.26-1.6,7.07-.7.63-1.08,1.5-1.08,2.44s.38,1.81,1.08,2.44c2,1.81,2.63,4.58,1.59,7.07-1.03,2.49-3.44,4-6.13,3.87-.93-.05-1.83.29-2.49.96-.67.67-1.01,1.55-.96,2.49.14,2.69-1.38,5.1-3.87,6.13s-5.27.41-7.07-1.6c-.63-.7-1.5-1.08-2.44-1.08s-1.81.38-2.44,1.08c-1.23,1.36-2.91,2.09-4.64,2.09Zm-9.59-13.07c1.66,0,3.27.66,4.45,1.84,1.25,1.26,1.92,2.99,1.83,4.77-.09,1.71.99,2.78,2.02,3.2,1.03.43,2.55.43,3.7-.83,1.19-1.32,2.89-2.07,4.67-2.07s3.48.75,4.67,2.07c1.15,1.27,2.66,1.26,3.7.83,1.04-.43,2.11-1.5,2.02-3.2-.09-1.77.58-3.51,1.83-4.76s2.99-1.93,4.77-1.83c1.69.07,2.78-.99,3.2-2.02.43-1.04.44-2.55-.83-3.7-1.32-1.19-2.07-2.89-2.07-4.67s.76-3.48,2.07-4.67c1.27-1.15,1.26-2.66.83-3.7-.43-1.04-1.48-2.1-3.2-2.02-1.79.1-3.51-.58-4.77-1.83-1.25-1.25-1.92-2.99-1.83-4.76.09-1.71-.99-2.77-2.02-3.2-1.04-.43-2.55-.44-3.7.83h0c-1.19,1.32-2.89,2.07-4.67,2.07s-3.48-.76-4.67-2.07c-1.15-1.27-2.66-1.26-3.7-.83-1.04.43-2.11,1.5-2.02,3.2.09,1.77-.58,3.51-1.83,4.77-1.25,1.25-2.98,1.94-4.77,1.83-1.72-.08-2.78.99-3.2,2.02-.43,1.04-.44,2.55.83,3.7,1.32,1.19,2.07,2.89,2.07,4.67s-.75,3.48-2.07,4.67c-1.27,1.15-1.26,2.66-.83,3.7.43,1.04,1.49,2.11,3.2,2.02.11,0,.21,0,.32,0Z"/>
    <path d="m153.71,182.87c-2.44,0-5.49-.55-8.03-2.73-4.97-4.26-6.7-7.46-7.09-13.16-.43-6.23,5.3-14.84,12.37-15.64,5.91-.67,11.13,1,14.33,4.6,2.39,2.69,4.8,7.81,2.68,16.96-.19.81-.99,1.31-1.8,1.12-.81-.19-1.31-.99-1.12-1.8,1.45-6.25.76-11.19-2-14.28-2.54-2.86-6.83-4.17-11.75-3.61-5.21.59-10.04,7.74-9.72,12.45.34,4.87,1.7,7.36,6.05,11.09,3.8,3.26,9.51,1.57,9.57,1.55.79-.24,1.63.21,1.87,1,.24.79-.21,1.63-1,1.87-.15.04-1.96.58-4.36.58Z"/>
    <path d="m27.11,41.48c-.83,0-1.5-.67-1.5-1.5v-21.26c0-.81.64-1.47,1.44-1.5.61-.02,14.92-.57,22.39,0,.83.06,1.44.78,1.38,1.61-.06.83-.79,1.44-1.61,1.38-5.94-.46-16.72-.17-20.6-.05v19.81c0,.83-.67,1.5-1.5,1.5Z"/>
    <path d="m281.02,38.8c-.83,0-1.5-.67-1.5-1.5v-14.37c-2.34.42-7,.93-15.93.93-.83,0-1.5-.67-1.5-1.5s.67-1.5,1.5-1.5c13.62,0,16.71-1.17,16.83-1.22.46-.19,1-.14,1.42.14.41.28.68.74.68,1.23v16.28c0,.83-.67,1.5-1.5,1.5Z"/>
    <path d="m281.02,197.17h-20.49c-.83,0-1.5-.67-1.5-1.5s.67-1.5,1.5-1.5h19.3c.91-3.96,3.72-17.36,2.02-24.78-.19-.81.32-1.61,1.13-1.8.81-.19,1.61.32,1.8,1.13,2.16,9.44-2.12,26.59-2.31,27.32-.17.67-.77,1.13-1.45,1.13Z"/>
    <path d="m24.43,190.01c-.83,0-1.5-.67-1.5-1.5v-11.8c0-.83.67-1.5,1.5-1.5s1.5.67,1.5,1.5v11.8c0,.83-.67,1.5-1.5,1.5Z"/>
    <path d="m49.32,201.38s-.08,0-.11,0l-12.77-.95c-.83-.06-1.45-.78-1.39-1.61.06-.83.81-1.45,1.61-1.39l12.77.95c.83.06,1.45.78,1.39,1.61-.06.79-.72,1.39-1.49,1.39Z"/>
    <path d="m268.38,44.65c-.26,0-.51-.1-.71-.3l-3.64-3.67c-.39-.39-.39-1.03,0-1.41.39-.39,1.02-.39,1.41,0l3.64,3.67c.39.39.39,1.03,0,1.41-.2.19-.45.29-.7.29Z"/>
    <path d="m263.6,49.03c-.22,0-.44-.07-.63-.22l-3.06-2.49c-.43-.35-.49-.98-.15-1.41.35-.43.98-.49,1.41-.15l3.06,2.49c.43.35.49.98.15,1.41-.2.24-.49.37-.78.37Z"/>
    <path d="m260.53,54.2c-.15,0-.3-.03-.45-.11l-1.92-.96c-.49-.25-.69-.85-.45-1.34.25-.49.85-.69,1.34-.45l1.92.96c.49.25.69.85.45,1.34-.17.35-.53.55-.9.55Z"/>
    <path d="m27.11,150.13c-.38,0-.74-.22-.91-.58-.23-.5-.01-1.1.49-1.33l12.06-5.55c.5-.23,1.1-.01,1.33.49.23.5.01,1.1-.49,1.33l-12.06,5.55c-.13.06-.28.09-.42.09Z"/>
    <path d="m29.79,154.92c-.39,0-.75-.23-.92-.6-.22-.51.01-1.1.52-1.32l5.75-2.49c.51-.22,1.09.02,1.32.52.22.51-.01,1.1-.52,1.32l-5.75,2.49c-.13.06-.26.08-.4.08Z"/>
    <path d="m229.13,202.6c-.41,0-.79-.25-.94-.65l-3.55-9.57c-.19-.52.07-1.09.59-1.29.52-.2,1.09.07,1.29.59l3.55,9.57c.19.52-.07,1.09-.59,1.29-.11.04-.23.06-.35.06Z"/>
    <path d="m234.68,200.88c-.44,0-.84-.29-.96-.74l-1.13-4.21c-.14-.53.17-1.08.71-1.22.53-.14,1.08.17,1.22.71l1.13,4.21c.14.53-.17,1.08-.71,1.22-.09.02-.17.03-.26.03Z"/>
    <path d="m277.19,117.01c-.44,0-.84-.29-.96-.73-.15-.53.17-1.08.7-1.23l16.77-4.61c.53-.15,1.08.17,1.23.7.15.53-.17,1.08-.7,1.23l-16.77,4.61c-.09.02-.18.04-.27.04Z"/>
    <path d="m211.87,107.64h-117.53c-3.58,0-6.5-2.92-6.5-6.5v-2.85c0-3.58,2.92-6.5,6.5-6.5h117.53c3.58,0,6.5,2.92,6.5,6.5v2.85c0,3.58-2.92,6.5-6.5,6.5Zm-117.53-12.85c-1.93,0-3.5,1.57-3.5,3.5v2.85c0,1.93,1.57,3.5,3.5,3.5h117.53c1.93,0,3.5-1.57,3.5-3.5v-2.85c0-1.93-1.57-3.5-3.5-3.5h-117.53Z"/>
    <path d="m182.38,127.93h-58.55c-3.58,0-6.5-2.92-6.5-6.5v-2.85c0-3.58,2.92-6.5,6.5-6.5h58.55c3.58,0,6.5,2.92,6.5,6.5v2.85c0,3.58-2.92,6.5-6.5,6.5Zm-58.55-12.85c-1.93,0-3.5,1.57-3.5,3.5v2.85c0,1.93,1.57,3.5,3.5,3.5h58.55c1.93,0,3.5-1.57,3.5-3.5v-2.85c0-1.93-1.57-3.5-3.5-3.5h-58.55Z"/>
    <path d="m229.68,172.78h-37.3c-3.58,0-6.5-2.92-6.5-6.5v-2.85c0-3.58,2.92-6.5,6.5-6.5h37.3c3.58,0,6.5,2.92,6.5,6.5v2.85c0,3.58-2.92,6.5-6.5,6.5Zm-37.3-12.85c-1.93,0-3.5,1.57-3.5,3.5v2.85c0,1.93,1.57,3.5,3.5,3.5h37.3c1.93,0,3.5-1.57,3.5-3.5v-2.85c0-1.93-1.57-3.5-3.5-3.5h-37.3Z"/>
    <path d="m103.61,168.92c-1.16,0-2.43-.19-3.81-.56-2.51-.68-5.26-1.63-7.92-2.55-1.69-.58-3.7-1.28-5.62-1.86-1.7,3.11-3.81,4.34-5.47,4.46-2.38.15-4.2-1.64-4.42-4.4-.15-1.84.62-2.84,1.28-3.36,1.45-1.12,3.71-1.07,6.88-.3,1.21-3.43,2.03-8.8,1.54-16.67-.05-.83.58-1.54,1.4-1.59.83-.05,1.54.58,1.59,1.4.51,8.15-.26,13.83-1.59,17.68,1.62.5,3.42,1.11,5.4,1.8,2.61.9,5.31,1.84,7.72,2.49,2.67.72,4.66.59,5.91-.39,1.63-1.27,1.64-3.7,1.64-3.72-.01-.83.65-1.51,1.48-1.52h.02c.82,0,1.49.66,1.5,1.48,0,.16.03,3.94-2.8,6.14-1.26.98-2.85,1.48-4.73,1.48Zm-22.99-6.16c-.51,0-.91.08-1.14.26-.16.13-.15.56-.13.74.02.29.2,1.73,1.22,1.65.73-.05,1.72-.75,2.66-2.28-1.02-.23-1.92-.37-2.61-.37Z"/>
  </g>
</svg>