<?xml version="1.0" encoding="UTF-8"?>
<svg color="currentColor" xmlns="http://www.w3.org/2000/svg" viewBox="0 0 20 20">
  <path d="m17.72,19H5.28c-1.26,0-2.28-1.02-2.28-2.28V6.28c0-1.26,1.02-2.28,2.28-2.28h12.45c1.26,0,2.28,1.02,2.28,2.28v10.45c0,1.25-1.02,2.28-2.28,2.28ZM5.28,6c-.15,0-.28.12-.28.28v10.45c0,.15.12.28.28.28h12.45c.15,0,.28-.12.28-.28V6.28c0-.15-.12-.28-.28-.28H5.28Z" />
  <path d="m4,16h-1.72c-1.26,0-2.28-1.02-2.28-2.28V3.28C0,2.02,1.02,1,2.28,1h12.45c1.26,0,2.28,1.02,2.28,2.28v1.72c0,.55-.45,1-1,1s-1-.45-1-1v-1.72c0-.15-.12-.28-.28-.28H2.28c-.15,0-.28.12-.28.28v10.45c0,.15.12.28.28.28h1.72c.55,0,1,.45,1,1s-.45,1-1,1Z" />
  <path d="m19,10.26H5c-.55,0-1-.45-1-1s.45-1,1-1h14c.55,0,1,.45,1,1s-.45,1-1,1Z" />
</svg>
