<?xml version="1.0" encoding="UTF-8"?>
<svg color="currentColor" xmlns="http://www.w3.org/2000/svg" viewBox="0 0 20 20">
  <path d="m5,15c-.26,0-.51-.1-.71-.29L.29,10.71c-.39-.39-.39-1.02,0-1.41l4-4c.39-.39,1.02-.39,1.41,0s.39,1.02,0,1.41l-3.29,3.29,3.29,3.29c.39.39.39,1.02,0,1.41-.2.2-.45.29-.71.29Z" />
  <path d="m15,15c-.26,0-.51-.1-.71-.29-.39-.39-.39-1.02,0-1.41l3.29-3.29-3.29-3.29c-.39-.39-.39-1.02,0-1.41s1.02-.39,1.41,0l4,4c.39.39.39,1.02,0,1.41l-4,4c-.2.2-.45.29-.71.29Z" />
  <path d="m7,19c-.12,0-.24-.02-.35-.06-.52-.19-.78-.77-.59-1.29L12.06,1.65c.19-.52.77-.78,1.29-.59.52.19.78.77.59,1.29l-6,16c-.15.4-.53.65-.94.65Z" />
</svg>
