<?xml version="1.0" encoding="UTF-8"?>
<svg color="currentColor"  xmlns="http://www.w3.org/2000/svg" viewBox="0 0 20 20">
  <path d="m14.29,3H5.71C3.12,3,1,5.12,1,7.71v4.58c0,2.59,2.12,4.71,4.71,4.71h.49v2l2.5-2h5.59c2.59,0,4.71-2.12,4.71-4.71v-4.58c0-2.59-2.12-4.71-4.71-4.71Z" />
  <path d="m6.2,20c-.15,0-.29-.03-.43-.1-.35-.17-.57-.52-.57-.9v-1.02c-2.91-.26-5.2-2.71-5.2-5.68v-4.58C0,4.56,2.56,2,5.71,2h8.58c3.15,0,5.71,2.56,5.71,5.71v4.58c0,3.15-2.56,5.71-5.71,5.71h-5.24l-2.23,1.78c-.18.14-.4.22-.62.22Zm-.5-16c-2.04,0-3.71,1.66-3.71,3.71v4.58c0,2.04,1.66,3.71,3.71,3.71h.5c.53,0,.96.41,1,.92l.88-.7c.18-.14.4-.22.62-.22h5.59c2.04,0,3.71-1.66,3.71-3.71v-4.58c0-2.04-1.66-3.71-3.71-3.71H5.71Z" />
</svg>
