<?xml version="1.0" encoding="UTF-8"?>
<svg color="currentColor" xmlns="http://www.w3.org/2000/svg" viewBox="0 0 20 20">
  <path d="m15,2c-.06,0-.11.02-.17.03-.4-1.18-1.51-2.03-2.83-2.03h-4c-1.31,0-2.42.86-2.83,2.03-.06-.01-.11-.03-.17-.03C2.8,2,1,3.8,1,6v9.99c0,2.21,1.8,4,4,4h9.99c2.21,0,4-1.8,4-4V6c0-2.21-1.8-4-4-4ZM5.17,11.45c.31-.46.92-.58,1.39-.28l2.32,1.54,4.42-4.42c.39-.39,1.02-.39,1.41,0s.39,1.02,0,1.41l-5,5c-.19.19-.45.29-.71.29-.19,0-.39-.05-.55-.17l-3-2c-.46-.31-.58-.93-.28-1.39Zm2.83-9.45h4c.55,0,1,.45,1,1s-.45,1-1,1h-4c-.55,0-1-.45-1-1s.45-1,1-1Z" />
</svg>
