<?xml version="1.0" encoding="UTF-8"?>
<svg color="currentColor" xmlns="http://www.w3.org/2000/svg" viewBox="0 0 20 20">
  <path d="m12,6h-4c-1.65,0-3-1.35-3-3s1.35-3,3-3h4c1.65,0,3,1.35,3,3s-1.35,3-3,3Zm-4-4c-.55,0-1,.45-1,1s.45,1,1,1h4c.55,0,1-.45,1-1s-.45-1-1-1h-4Z" />
  <path d="m15,20H5c-2.21,0-4-1.8-4-4V6c0-2.21,1.8-4,4-4,.55,0,1,.45,1,1s-.45,1-1,1c-1.11,0-2,.9-2,2v9.99c0,1.11.9,2,2,2h9.99c1.11,0,2-.9,2-2V6c0-1.11-.9-2-2-2-.55,0-1-.45-1-1s.45-1,1-1c2.21,0,4,1.8,4,4v9.99c0,2.21-1.8,4-4,4Z" />
</svg>
