<svg width="40" height="40" viewBox="0 0 40 40" fill="none" xmlns="http://www.w3.org/2000/svg">
<path d="M20 4.8C19.45 4.8 19 4.35 19 3.8V1C19 0.45 19.45 0 20 0C20.55 0 21 0.45 21 1V3.8C21 4.35 20.55 4.8 20 4.8Z" fill="#FF2D20"/>
<path d="M13 7.79859C12.74 7.79859 12.49 7.69859 12.29 7.50859L11.48 6.69859C11.09 6.30859 11.09 5.67859 11.48 5.28859C11.87 4.89859 12.5 4.89859 12.89 5.28859L13.7 6.09859C14.09 6.48859 14.09 7.11859 13.7 7.50859C13.5 7.70859 13.25 7.79859 12.99 7.79859H13Z" fill="#FF2D20"/>
<path d="M26.9996 7.79859C26.7396 7.79859 26.4896 7.69859 26.2896 7.50859C25.8996 7.11859 25.8996 6.48859 26.2896 6.09859L27.0996 5.28859C27.4896 4.89859 28.1196 4.89859 28.5096 5.28859C28.8996 5.67859 28.8996 6.30859 28.5096 6.69859L27.6996 7.50859C27.4996 7.70859 27.2496 7.79859 26.9896 7.79859H26.9996Z" fill="#FF2D20"/>
<path d="M30.8 13.5508H28C27.45 13.5508 27 13.1008 27 12.5508C27 12.0008 27.45 11.5508 28 11.5508H30.8C31.35 11.5508 31.8 12.0008 31.8 12.5508C31.8 13.1008 31.35 13.5508 30.8 13.5508Z" fill="#FF2D20"/>
<path d="M12.0002 13.5508H9.2002C8.6502 13.5508 8.2002 13.1008 8.2002 12.5508C8.2002 12.0008 8.6502 11.5508 9.2002 11.5508H12.0002C12.5502 11.5508 13.0002 12.0008 13.0002 12.5508C13.0002 13.1008 12.5502 13.5508 12.0002 13.5508Z" fill="#FF2D20"/>
<path d="M25.9301 39.9989H14.0801C13.5301 39.9989 13.0801 39.5489 13.0801 38.9989V16.8789C13.0801 16.3289 13.5301 15.8789 14.0801 15.8789H25.9301C26.4801 15.8789 26.9301 16.3289 26.9301 16.8789V38.9989C26.9301 39.5489 26.4801 39.9989 25.9301 39.9989ZM15.0801 37.9989H24.9301V17.8789H15.0801V37.9989Z" fill="#FF2D20"/>
<path d="M36.0197 39.9981C35.4697 39.9981 35.0197 39.5481 35.0197 38.9981V38.0481C35.0197 36.8881 34.0697 35.9381 32.9097 35.9381H31.3797C30.8297 35.9381 30.3797 35.4881 30.3797 34.9381C30.3797 33.7781 29.4297 32.8281 28.2697 32.8281H25.9297C25.3797 32.8281 24.9297 32.3781 24.9297 31.8281C24.9297 31.2781 25.3797 30.8281 25.9297 30.8281H28.2697C30.1897 30.8281 31.8097 32.1581 32.2597 33.9381H32.9097C35.1797 33.9381 37.0197 35.7781 37.0197 38.0481V38.9981C37.0197 39.5481 36.5697 39.9981 36.0197 39.9981Z" fill="#FF2D20"/>
<path d="M11.9598 31.8211C10.2398 31.8211 8.83984 30.4211 8.83984 28.7011V20.2011C8.83984 17.8111 10.7798 15.8711 13.1698 15.8711H14.0798C14.6298 15.8711 15.0798 16.3211 15.0798 16.8711C15.0798 17.4211 14.6298 17.8711 14.0798 17.8711H13.1698C11.8898 17.8711 10.8398 18.9111 10.8398 20.2011V28.7011C10.8398 29.3211 11.3398 29.8211 11.9598 29.8211C12.5798 29.8211 13.0798 29.3211 13.0798 28.7011V27.2311C13.0798 26.6811 13.5298 26.2311 14.0798 26.2311C14.6298 26.2311 15.0798 26.6811 15.0798 27.2311V28.7011C15.0798 30.4211 13.6798 31.8211 11.9598 31.8211Z" fill="#FF2D20"/>
<path d="M8.79004 40.0005C8.24004 40.0005 7.79004 39.5505 7.79004 39.0005C7.79004 36.5105 9.82004 34.4805 12.31 34.4805H14.08C14.63 34.4805 15.08 34.9305 15.08 35.4805C15.08 36.0305 14.63 36.4805 14.08 36.4805H12.31C10.92 36.4805 9.79004 37.6105 9.79004 39.0005C9.79004 39.5505 9.34004 40.0005 8.79004 40.0005Z" fill="#FF2D20"/>
<path d="M31.3799 40.0014C30.8299 40.0014 30.3799 39.5514 30.3799 39.0014V34.9414C30.3799 34.3914 30.8299 33.9414 31.3799 33.9414C31.9299 33.9414 32.3799 34.3914 32.3799 34.9414V39.0014C32.3799 39.5514 31.9299 40.0014 31.3799 40.0014Z" fill="#FF2D20"/>
<path d="M22 28.5989C21.45 28.5989 21 28.1489 21 27.5989V16.8789C21 16.3289 21.45 15.8789 22 15.8789C22.55 15.8789 23 16.3289 23 16.8789V27.5989C23 28.1489 22.55 28.5989 22 28.5989Z" fill="#FF2D20"/>
<path d="M17.9297 39.5305C17.3797 39.5305 16.9297 39.0805 16.9297 38.5305V32.9805C16.9297 32.4305 17.3797 31.9805 17.9297 31.9805C18.4797 31.9805 18.9297 32.4305 18.9297 32.9805V38.5305C18.9297 39.0805 18.4797 39.5305 17.9297 39.5305Z" fill="#FF2D20"/>
<path d="M19.6905 15.8695H19.6805C18.4005 15.8695 17.3605 15.1595 16.8905 13.9695C16.0505 11.8295 16.7505 10.2895 17.3205 9.04947C17.7005 8.21947 18.0005 7.55947 17.8605 6.79947C17.7905 6.43947 17.9305 6.06947 18.2105 5.83947C18.5005 5.60947 18.8905 5.54947 19.2305 5.69947C22.5605 7.10947 24.0705 11.1695 23.1005 13.5895C22.5605 14.9295 21.1605 15.8695 19.6905 15.8695ZM19.7305 8.35947C19.5805 8.90947 19.3505 9.40947 19.1305 9.87947C18.6205 10.9995 18.2105 11.8895 18.7405 13.2295C18.9105 13.6495 19.2205 13.8595 19.6805 13.8595C20.2405 13.8595 20.9705 13.4995 21.2405 12.8395C21.6805 11.7395 21.1705 9.66947 19.7205 8.35947H19.7305Z" fill="#FF2D20"/>
</svg>
