<?xml version="1.0" encoding="UTF-8"?>
<svg color="currentColor" xmlns="http://www.w3.org/2000/svg" viewBox="0 0 20 20">
  <g>
    <path d="m10,7c-3.85,0-8-1.1-8-3.5S6.15,0,10,0s8,1.1,8,3.5-4.15,3.5-8,3.5Zm-6-3.5c.17.43,2.21,1.5,6,1.5s5.88-1.1,6-1.52c-.12-.38-2.16-1.48-6-1.48s-5.82,1.07-6,1.5Z" />
    <path d="m10,10c-3.85,0-8-1.1-8-3.5,0-.55.45-1,1-1s1,.45,1,1c.12.4,2.16,1.5,6,1.5s5.88-1.1,6-1.52c0-.55.45-.99,1-.99s1,.46,1,1.01c0,2.4-4.15,3.5-8,3.5Z" />
    <path d="m17,7c-.55,0-1-.45-1-1v-2c0-.55.45-1,1-1s1,.45,1,1v2c0,.55-.45,1-1,1Z" />
    <path d="m3,7c-.55,0-1-.45-1-1v-2c0-.55.45-1,1-1s1,.45,1,1v2c0,.55-.45,1-1,1Z" />
  </g>
  <g>
    <path d="m10,17c-3.85,0-8-1.1-8-3.5,0-.55.45-1,1-1s1,.45,1,1c.12.4,2.16,1.5,6,1.5s5.88-1.1,6-1.52c0-.55.45-.99,1-.99s1,.46,1,1.01c0,2.4-4.15,3.5-8,3.5Z" />
    <path d="m10,20c-3.85,0-8-1.1-8-3.5,0-.55.45-1,1-1s1,.45,1,1c.12.4,2.16,1.5,6,1.5s5.88-1.1,6-1.52c0-.55.45-.99,1-.99s1,.46,1,1.01c0,2.4-4.15,3.5-8,3.5Z" />
    <path d="m17,17c-.55,0-1-.45-1-1v-2c0-.55.45-1,1-1s1,.45,1,1v2c0,.55-.45,1-1,1Z" />
    <path d="m3,17c-.55,0-1-.45-1-1v-2c0-.55.45-1,1-1s1,.45,1,1v2c0,.55-.45,1-1,1Z" />
  </g>
  <g>
    <path d="m10,12c-3.85,0-8-1.1-8-3.5,0-.55.45-1,1-1s1,.45,1,1c.12.4,2.16,1.5,6,1.5s5.88-1.1,6-1.52c0-.55.45-.99,1-.99s1,.46,1,1.01c0,2.4-4.15,3.5-8,3.5Z" />
    <path d="m10,15c-3.85,0-8-1.1-8-3.5,0-.55.45-1,1-1s1,.45,1,1c.12.4,2.16,1.5,6,1.5s5.88-1.1,6-1.52c0-.55.45-.99,1-.99s1,.46,1,1.01c0,2.4-4.15,3.5-8,3.5Z" />
    <path d="m17,12c-.55,0-1-.45-1-1v-2c0-.55.45-1,1-1s1,.45,1,1v2c0,.55-.45,1-1,1Z" />
    <path d="m3,12c-.55,0-1-.45-1-1v-2c0-.55.45-1,1-1s1,.45,1,1v2c0,.55-.45,1-1,1Z" />
  </g>
</svg>
