<?xml version="1.0" encoding="UTF-8"?>
<svg color="currentColor" xmlns="http://www.w3.org/2000/svg" viewBox="0 0 20 20">
  <path d="m13,20h-6c-2.21,0-4-1.79-4-4V7c0-.55.45-1,1-1s1,.45,1,1v9c0,1.1.9,2,2,2h6c1.1,0,2-.9,2-2V7c0-.55.45-1,1-1s1,.45,1,1v9c0,2.21-1.79,4-4,4Z" />
  <path d="m18,8H2c-.55,0-1-.45-1-1,0-2.21,1.79-4,4-4h10c2.21,0,4,1.79,4,4,0,.55-.45,1-1,1ZM3.27,6h13.46c-.35-.6-.99-1-1.73-1H5c-.74,0-1.39.4-1.73,1Z" />
  <path d="m13,5h-6c-.55,0-1-.45-1-1C6,1.79,7.79,0,10,0s4,1.79,4,4c0,.55-.45,1-1,1Zm-4.73-2h3.46c-.35-.6-.99-1-1.73-1s-1.39.4-1.73,1Z" />
  <path d="m8,16c-.55,0-1-.45-1-1v-5c0-.55.45-1,1-1s1,.45,1,1v5c0,.55-.45,1-1,1Z" />
  <path d="m12,16c-.55,0-1-.45-1-1v-5c0-.55.45-1,1-1s1,.45,1,1v5c0,.55-.45,1-1,1Z" />
</svg>
