<?xml version="1.0" encoding="UTF-8"?>
<svg color="currentColor" xmlns="http://www.w3.org/2000/svg" viewBox="0 0 20 20">
  <path d="m10.26,20h-.51c-3.17,0-5.74-2.58-5.74-5.74V5.74C4,2.58,6.58,0,9.74,0h.51c3.17,0,5.74,2.58,5.74,5.74v8.51c0,3.17-2.58,5.74-5.74,5.74Zm-.51-18c-2.06,0-3.74,1.68-3.74,3.74v8.51c0,2.06,1.68,3.74,3.74,3.74h.51c2.06,0,3.74-1.68,3.74-3.74V5.74c0-2.06-1.68-3.74-3.74-3.74h-.51Z" />
  <path d="m15,8H5c-.55,0-1-.45-1-1s.45-1,1-1h10c.55,0,1,.45,1,1s-.45,1-1,1Z" />
  <path d="m10,19c-.55,0-1-.45-1-1V7c0-.55.45-1,1-1s1,.45,1,1v11c0,.55-.45,1-1,1Z" />
  <path d="m14.39,4c-.55,0-1-.45-1-1s.45-1,1-1c.33,0,.61-.27.61-.61v-.39c0-.55.45-1,1-1s1,.45,1,1v.39c0,1.44-1.17,2.61-2.61,2.61Z" />
  <path d="m18,20c-.55,0-1-.45-1-1v-1.39c0-.33-.27-.61-.61-.61h-1.39c-.55,0-1-.45-1-1s.45-1,1-1h1.39c1.44,0,2.61,1.17,2.61,2.61v1.39c0,.55-.45,1-1,1Z" />
  <path d="m18,9h-3c-.55,0-1-.45-1-1s.45-1,1-1h3c.55,0,1,.45,1,1s-.45,1-1,1Z" />
  <path d="m18,13h-3c-.55,0-1-.45-1-1s.45-1,1-1h3c.55,0,1,.45,1,1s-.45,1-1,1Z" />
  <path d="m5.61,4c-1.44,0-2.61-1.17-2.61-2.61v-.39c0-.55.45-1,1-1s1,.45,1,1v.39c0,.33.27.61.61.61.55,0,1,.45,1,1s-.45,1-1,1Z" />
  <path d="m2,20c-.55,0-1-.45-1-1v-1.39c0-1.44,1.17-2.61,2.61-2.61h1.39c.55,0,1,.45,1,1s-.45,1-1,1h-1.39c-.33,0-.61.27-.61.61v1.39c0,.55-.45,1-1,1Z" />
  <path d="m5,9h-3c-.55,0-1-.45-1-1s.45-1,1-1h3c.55,0,1,.45,1,1s-.45,1-1,1Z" />
  <path d="m5,13h-3c-.55,0-1-.45-1-1s.45-1,1-1h3c.55,0,1,.45,1,1s-.45,1-1,1Z" />
</svg>
