<?xml version="1.0" encoding="UTF-8"?>
<svg xmlns="http://www.w3.org/2000/svg" viewBox="0 0 20 20">
  <path d="m15,16c-.26,0-.51-.1-.71-.29L4.29,5.71c-.39-.39-.39-1.02,0-1.41s1.02-.39,1.41,0l10,10c.39.39.39,1.02,0,1.41-.2.2-.45.29-.71.29Z"/>
  <path d="m5,16c-.26,0-.51-.1-.71-.29-.39-.39-.39-1.02,0-1.41L14.29,4.29c.39-.39,1.02-.39,1.41,0s.39,1.02,0,1.41L5.71,15.71c-.2.2-.45.29-.71.29Z"/>
  <path d="m15.4,20H4.6C2.06,20,0,17.94,0,15.4V4.6C0,2.06,2.06,0,4.6,0h10.8c2.54,0,4.6,2.06,4.6,4.6v10.8c0,2.54-2.06,4.6-4.6,4.6ZM4.6,2c-1.43,0-2.6,1.17-2.6,2.6v10.8c0,1.43,1.17,2.6,2.6,2.6h10.8c1.43,0,2.6-1.17,2.6-2.6V4.6c0-1.43-1.17-2.6-2.6-2.6H4.6Z"/>
</svg>
