<svg width="40" height="40" viewBox="0 0 40 40" fill="none" xmlns="http://www.w3.org/2000/svg">
<g clip-path="url(#clip0_1079_2713)">
<path d="M23 39.9987H17C16.45 39.9987 16 39.5487 16 38.9987V11.4688C16 10.9187 16.45 10.4688 17 10.4688H23C23.55 10.4688 24 10.9187 24 11.4688V38.9987C24 39.5487 23.55 39.9987 23 39.9987ZM18 37.9987H22V12.4688H18V37.9987Z" fill="#FF2D20"/>
<path d="M23 38.9981C22.81 38.9981 22.62 38.9481 22.45 38.8381C22.17 38.6581 22 38.3381 22 37.9981V12.4681C22 12.0681 22.24 11.7081 22.6 11.5481L38.6 4.54812C38.91 4.40812 39.27 4.43812 39.55 4.62812C39.83 4.80812 40 5.12812 40 5.46812V30.9981C40 31.3981 39.76 31.7581 39.4 31.9181L23.4 38.9181C23.27 38.9781 23.14 38.9981 23 38.9981ZM24 13.1281V36.4681L38 30.3481V6.99812L24 13.1181V13.1281Z" fill="#FF2D20"/>
<path d="M27 26.2985C26.81 26.2985 26.62 26.2485 26.46 26.1385C26.18 25.9585 26 25.6385 26 25.2985V14.9485C26 14.5585 26.23 14.1985 26.59 14.0385L34.59 10.4785C34.9 10.3385 35.26 10.3685 35.54 10.5485C35.82 10.7285 36 11.0485 36 11.3885V21.7385C36 22.1285 35.77 22.4885 35.41 22.6485L27.41 26.2085C27.28 26.2685 27.14 26.2985 27 26.2985ZM28 15.5885V23.7585L34 21.0885V12.9185L28 15.5885Z" fill="#FF2D20"/>
<path d="M27.0003 30.2116C26.6203 30.2116 26.2503 29.9916 26.0903 29.6216C25.8603 29.1216 26.0903 28.5216 26.6003 28.3016L34.6003 24.7416C35.1103 24.5116 35.7003 24.7416 35.9203 25.2516C36.1503 25.7516 35.9203 26.3516 35.4103 26.5716L27.4103 30.1316C27.2803 30.1916 27.1403 30.2216 27.0003 30.2216V30.2116Z" fill="#FF2D20"/>
<path d="M29.5597 32.7594C29.1797 32.7594 28.8097 32.5394 28.6397 32.1694C28.4197 31.6694 28.6397 31.0694 29.1497 30.8494L32.0297 29.5694C32.5397 29.3494 33.1297 29.5694 33.3497 30.0794C33.5697 30.5794 33.3497 31.1794 32.8397 31.3994L29.9597 32.6794C29.8297 32.7394 29.6897 32.7694 29.5497 32.7694L29.5597 32.7594Z" fill="#FF2D20"/>
<path d="M20 12.4711C19.45 12.4711 19 12.0211 19 11.4711V8.76105C19 8.42105 19.17 8.11105 19.46 7.92105C19.75 7.73105 26.63 3.31105 34.66 2.46105C35.41 2.38105 36.17 2.71105 36.64 3.32105L38.31 5.51105C38.64 5.95105 38.56 6.58105 38.12 6.91105C37.68 7.25105 37.05 7.16105 36.72 6.72105L35.05 4.53105C35.01 4.47105 34.94 4.45105 34.87 4.44105C28.44 5.12105 22.63 8.33105 21 9.31105V11.4611C21 12.0111 20.55 12.4611 20 12.4611V12.4711Z" fill="#FF2D20"/>
<path d="M20 9.75953C19.45 9.75953 19 9.30953 19 8.75953C19 2.54953 30.53 0.259531 31.84 0.0195312C32.13 -0.0304688 32.43 0.0395313 32.66 0.229531C32.89 0.419531 33.02 0.699531 33.02 0.999531V3.85953C33.02 4.40953 32.57 4.85953 32.02 4.85953C31.47 4.85953 31.02 4.40953 31.02 3.85953V2.22953C27.42 3.07953 21 5.30953 21 8.75953C21 9.30953 20.55 9.75953 20 9.75953Z" fill="#FF2D20"/>
<path d="M17 39.0007C16.86 39.0007 16.73 38.9707 16.6 38.9207L0.6 31.9207C0.24 31.7607 0 31.4007 0 31.0007V5.47075C0 5.14075 0.17 4.82075 0.45 4.64075C0.73 4.46075 1.09 4.42075 1.4 4.56075L17.4 11.5607C17.76 11.7207 18 12.0807 18 12.4807V38.0107C18 38.3507 17.83 38.6607 17.55 38.8507C17.38 38.9607 17.19 39.0107 17 39.0107V39.0007ZM2 30.3507L16 36.4708V13.1307L2 7.00075V30.3407V30.3507Z" fill="#FF2D20"/>
<path d="M13.1101 17.9783C12.9801 17.9783 12.8401 17.9483 12.7101 17.8983L4.49006 14.2983C3.98006 14.0783 3.75006 13.4883 3.97006 12.9783C4.19006 12.4683 4.78006 12.2383 5.29006 12.4583L13.5101 16.0583C14.0201 16.2783 14.2501 16.8683 14.0301 17.3783C13.8701 17.7583 13.5001 17.9783 13.1101 17.9783Z" fill="#FF2D20"/>
<path d="M13.1099 22.0592C12.9799 22.0592 12.8399 22.0292 12.7099 21.9792L9.5799 20.6092C9.0699 20.3892 8.8399 19.7992 9.0599 19.2892C9.2799 18.7892 9.8699 18.5492 10.3799 18.7792L13.5099 20.1492C14.0199 20.3692 14.2499 20.9592 14.0299 21.4692C13.8699 21.8492 13.4999 22.0692 13.1099 22.0692V22.0592Z" fill="#FF2D20"/>
<path d="M6.72992 19.2687C6.59992 19.2687 6.45992 19.2387 6.32992 19.1887L4.48992 18.3787C3.97992 18.1587 3.74992 17.5687 3.97992 17.0587C4.19992 16.5587 4.78992 16.3187 5.29992 16.5487L7.13992 17.3587C7.64992 17.5787 7.87992 18.1687 7.64992 18.6787C7.48992 19.0587 7.11992 19.2787 6.72992 19.2787V19.2687Z" fill="#FF2D20"/>
<path d="M8.50992 24.5582C8.37992 24.5582 8.23992 24.5282 8.10992 24.4782L4.48992 22.8982C3.97992 22.6782 3.74992 22.0882 3.97992 21.5782C4.19992 21.0782 4.78992 20.8382 5.29992 21.0682L8.91992 22.6482C9.42992 22.8682 9.65992 23.4582 9.42992 23.9682C9.26992 24.3482 8.89992 24.5682 8.50992 24.5682V24.5582Z" fill="#FF2D20"/>
<path d="M13.1101 31.0994C12.9801 31.0994 12.8401 31.0694 12.7101 31.0194L4.49006 27.4194C3.98006 27.1994 3.75006 26.6094 3.97006 26.0994C4.19006 25.5894 4.78006 25.3594 5.29006 25.5794L13.5101 29.1794C14.0201 29.3994 14.2501 29.9894 14.0301 30.4994C13.8701 30.8794 13.5001 31.0994 13.1101 31.0994Z" fill="#FF2D20"/>
<path d="M19.9999 12.4689C19.4499 12.4689 18.9999 12.0189 18.9999 11.4689V9.31886C17.3699 8.34886 11.5499 5.12886 5.1299 4.44886C5.0499 4.44886 4.9899 4.47886 4.9499 4.53886L3.2799 6.72886C2.9499 7.16886 2.3199 7.25886 1.8799 6.91886C1.4399 6.58886 1.3599 5.95886 1.6899 5.51886L3.3599 3.32886C3.8299 2.71886 4.5899 2.38886 5.3399 2.46886C13.3799 3.31886 20.2499 7.73886 20.5399 7.92886C20.8199 8.10886 20.9999 8.42886 20.9999 8.76886V11.4789C20.9999 12.0289 20.5499 12.4789 19.9999 12.4789V12.4689Z" fill="#FF2D20"/>
<path d="M20.0005 9.75959C19.4505 9.75959 19.0005 9.30959 19.0005 8.75959C19.0005 5.30959 12.5805 3.07959 8.98047 2.22959V3.85959C8.98047 4.40959 8.53047 4.85959 7.98047 4.85959C7.43047 4.85959 6.98047 4.40959 6.98047 3.85959V0.999592C6.98047 0.699592 7.11047 0.419592 7.34047 0.229592C7.57047 0.0395916 7.87047 -0.0404084 8.16047 0.0195916C9.47047 0.259592 21.0005 2.55959 21.0005 8.76959C21.0005 9.31959 20.5505 9.76959 20.0005 9.76959V9.75959Z" fill="#FF2D20"/>
<path d="M23 18.4609H17C16.45 18.4609 16 18.0109 16 17.4609C16 16.9109 16.45 16.4609 17 16.4609H23C23.55 16.4609 24 16.9109 24 17.4609C24 18.0109 23.55 18.4609 23 18.4609Z" fill="#FF2D20"/>
<path d="M23 34.0586H17C16.45 34.0586 16 33.6086 16 33.0586C16 32.5086 16.45 32.0586 17 32.0586H23C23.55 32.0586 24 32.5086 24 33.0586C24 33.6086 23.55 34.0586 23 34.0586Z" fill="#FF2D20"/>
</g>
<defs>
<clipPath id="clip0_1079_2713">
<rect width="40" height="40" fill="white"/>
</clipPath>
</defs>
</svg>
