<?xml version="1.0" encoding="UTF-8"?>
<svg color="currentColor" xmlns="http://www.w3.org/2000/svg" viewBox="0 0 20 20">
  <path d="m3,18c-.26,0-.52-.1-.71-.29-.24-.24-.34-.58-.27-.9l.89-4.44c.04-.19.13-.37.27-.51L13.8,1.23c.91-.91,2.39-.91,3.3,0l.84.84h0l.84.84c.91.91.91,2.39,0,3.3l-10.61,10.61c-.14.14-.32.23-.51.27l-4.44.89c-.07.01-.13.02-.2.02Zm1.81-4.95l-.54,2.68,2.68-.54,10.4-10.4c.13-.13.13-.34,0-.47l-1.67-1.67c-.13-.13-.34-.13-.47,0L4.81,13.05Z" />
  <path d="m8.81,15.75c-.26,0-.51-.1-.71-.29l-3.56-3.56c-.39-.39-.39-1.02,0-1.41s1.02-.39,1.41,0l3.56,3.56c.39.39.39,1.02,0,1.41-.2.2-.45.29-.71.29Z" />
  <path d="m19,20H1c-.55,0-1-.45-1-1s.45-1,1-1h18c.55,0,1,.45,1,1s-.45,1-1,1Z" />
</svg>
