<?xml version="1.0" encoding="UTF-8"?>
<svg color="currentColor" xmlns="http://www.w3.org/2000/svg" viewBox="0 0 20 20">
  <path d="m15,20H4c-2.21,0-4-1.8-4-4V4C0,1.8,1.8,0,4,0h3.99c.55,0,1,.45,1,1s-.45,1-1,1h-3.99c-1.11,0-2,.9-2,2v11.99c0,1.11.9,2,2,2h10.99c1.11,0,2-.9,2-2v-4c0-.55.45-1,1-1s1,.45,1,1v4c0,2.21-1.8,4-4,4Z" />
  <path d="m6.27,14.73c-.26,0-.52-.1-.71-.29-.24-.24-.34-.58-.27-.9l.71-3.54c.04-.19.13-.37.27-.51L15.46.29c.39-.39,1.02-.39,1.41,0l2.83,2.83c.39.39.39,1.02,0,1.41l-9.19,9.19c-.14.14-.32.23-.51.27l-3.54.71c-.07.01-.13.02-.2.02Zm1.63-4.04l-.35,1.77,1.77-.35L17.59,3.83l-1.41-1.41L7.9,10.69Z" />
  <path d="m10.89,12.94c-.26,0-.51-.1-.71-.29l-2.83-2.83c-.39-.39-.39-1.02,0-1.41s1.02-.39,1.41,0l2.83,2.83c.39.39.39,1.02,0,1.41-.2.2-.45.29-.71.29Z" />
</svg>
