<?xml version="1.0" encoding="UTF-8"?>
<svg id="Layer_1" data-name="Layer 1" xmlns="http://www.w3.org/2000/svg" viewBox="0 0 40 40">
  <path d="m13,26.81c-.35,0-.67-.18-.85-.48l-2.65-4.33h-4.32C2.33,22,0,19.67,0,16.82V5.18C0,2.33,2.33,0,5.18,0h15.63C23.67,0,26,2.33,26,5.18v11.63c0,2.86-2.33,5.18-5.18,5.18h-4.32l-2.65,4.33c-.18.3-.5.48-.85.48ZM5.18,2c-1.76,0-3.18,1.43-3.18,3.18v11.63c0,1.76,1.43,3.18,3.18,3.18h4.88c.35,0,.67.18.85.48l2.08,3.41,2.08-3.41c.18-.3.5-.48.85-.48h4.88c1.76,0,3.18-1.43,3.18-3.18V5.18c0-1.76-1.43-3.18-3.18-3.18H5.18Z" style="fill: #ff2d20;"/>
  <path d="m27,40c-.35,0-.67-.18-.85-.48l-2.65-4.33h-4.32c-2.86,0-5.18-2.33-5.18-5.18v-2.35c0-.55.45-1,1-1s1,.45,1,1v2.35c0,1.76,1.43,3.18,3.18,3.18h4.88c.35,0,.67.18.85.48l2.08,3.41,2.08-3.41c.18-.3.5-.48.85-.48h4.88c1.76,0,3.18-1.43,3.18-3.18v-11.63c0-1.76-1.43-3.18-3.18-3.18h-7.08c-.55,0-1-.45-1-1s.45-1,1-1h7.08c2.86,0,5.18,2.33,5.18,5.18v11.63c0,2.86-2.33,5.18-5.18,5.18h-4.32l-2.65,4.33c-.18.3-.5.48-.85.48Z" style="fill: #ff2d20;"/>
  <path d="m13,17.07c-3.19,0-5.78-2.71-5.78-6.05s2.59-6.05,5.78-6.05,5.78,2.71,5.78,6.05-2.59,6.05-5.78,6.05Zm0-10.1c-2.08,0-3.78,1.82-3.78,4.05s1.7,4.05,3.78,4.05,3.78-1.82,3.78-4.05-1.7-4.05-3.78-4.05Z" style="fill: #ff2d20;"/>
  <path d="m19.34,17.09h-.46c-1.1,0-2.13-.43-2.91-1.21l-1.54-1.54c-.39-.39-.39-1.02,0-1.41s1.02-.39,1.41,0l1.54,1.54c.4.4.93.62,1.5.62h.46c.55,0,1,.45,1,1s-.45,1-1,1Z" style="fill: #ff2d20;"/>
  <path d="m31.78,30.3c-.38,0-.73-.21-.91-.57l-3.88-8.21-3.88,8.21c-.24.5-.83.71-1.33.48-.5-.24-.71-.83-.48-1.33l4.78-10.13c.17-.35.52-.57.9-.57s.74.22.9.57l4.78,10.13c.24.5.02,1.1-.48,1.33-.14.07-.28.1-.43.1Z" style="fill: #ff2d20;"/>
  <path d="m29.81,26.36h-5.73c-.55,0-1-.45-1-1s.45-1,1-1h5.73c.55,0,1,.45,1,1s-.45,1-1,1Z" style="fill: #ff2d20;"/>
</svg>