<?xml version="1.0" encoding="UTF-8"?>
<svg color="currentColor" xmlns="http://www.w3.org/2000/svg" viewBox="0 0 20 20">
  <path d="m14.09,20H5.91c-1.6,0-2.91-1.3-2.91-2.91V2.91c0-1.6,1.3-2.91,2.91-2.91h6.2c.27,0,.52.11.71.29l3.9,3.9c.19.19.29.44.29.71v12.2c0,1.6-1.3,2.91-2.91,2.91ZM5.91,2c-.5,0-.91.41-.91.91v14.18c0,.5.41.91.91.91h8.18c.5,0,.91-.41.91-.91V5.31l-3.31-3.31h-5.78Z" />
  <path d="m16,6h-4c-.55,0-1-.45-1-1V1c0-.55.45-1,1-1s1,.45,1,1v3h3c.55,0,1,.45,1,1s-.45,1-1,1Z" />
  <path d="m12,11h-4c-.55,0-1-.45-1-1s.45-1,1-1h4c.55,0,1,.45,1,1s-.45,1-1,1Z" />
  <path d="m12,15h-4c-.55,0-1-.45-1-1s.45-1,1-1h4c.55,0,1,.45,1,1s-.45,1-1,1Z" />
</svg>
