<?xml version="1.0" encoding="UTF-8"?>
<svg color="currentColor" xmlns="http://www.w3.org/2000/svg" viewBox="0 0 20 20">
  <path d="m10,17c-3.86,0-7-3.14-7-7s3.14-7,7-7,7,3.14,7,7-3.14,7-7,7Zm0-12c-2.76,0-5,2.24-5,5s2.24,5,5,5,5-2.24,5-5-2.24-5-5-5Z" />
  <path d="m10,14c-2.21,0-4-1.79-4-4s1.79-4,4-4,4,1.79,4,4-1.79,4-4,4Zm0-6c-1.1,0-2,.9-2,2s.9,2,2,2,2-.9,2-2-.9-2-2-2Z" />
  <path d="m11.71,5.25c-.09,0-.19-.01-.28-.04-.94-.28-1.91-.28-2.85,0-.33.1-.69.02-.95-.21-.26-.23-.38-.57-.32-.91l.53-3.16c.07-.43.42-.77.86-.83.99-.13,1.63-.13,2.62,0,.44.06.78.39.86.83l.53,3.16c.06.34-.07.69-.32.91-.19.16-.42.25-.66.25Zm-1.71-2.25c.16,0,.33,0,.49.02l-.17-1.01c-.22-.01-.42-.01-.64,0l-.17,1.01c.16-.01.33-.02.49-.02Z" />
  <path d="m10,20c-.4,0-.82-.03-1.31-.09-.44-.06-.78-.39-.86-.83l-.53-3.16c-.06-.34.07-.69.32-.91.26-.23.62-.31.95-.21.94.28,1.92.28,2.85,0,.33-.1.69-.02.95.21.26.23.38.57.32.91l-.53,3.16c-.07.43-.42.77-.86.83-.49.06-.91.09-1.31.09Zm-.32-2.01c.22.01.42.01.64,0l.17-1.01c-.33.02-.65.02-.98,0l.17,1.01Z" />
  <path d="m4.73,8.14c-.32,0-.62-.15-.81-.42l-1.87-2.61c-.26-.36-.25-.84.02-1.19.3-.39.57-.71.86-.99.29-.29.6-.56,1-.86.35-.27.83-.28,1.19-.02l2.61,1.86c.28.2.44.53.42.88s-.22.65-.52.82c-.43.23-.82.52-1.15.86-.34.34-.63.72-.86,1.15-.16.3-.47.5-.82.52-.02,0-.04,0-.06,0Zm-.6-3.57l.59.83c.11-.12.22-.24.33-.36.12-.11.23-.23.36-.33l-.83-.59c-.08.07-.16.15-.23.22-.07.07-.15.15-.22.23Z" />
  <path d="m15.47,18.14c-.2,0-.41-.06-.58-.19l-2.61-1.86c-.28-.2-.44-.53-.42-.88s.22-.65.52-.82c.43-.23.82-.52,1.15-.86.34-.34.63-.72.86-1.15.16-.3.47-.5.82-.52.35-.03.67.14.88.42l1.87,2.61c.26.36.25.84-.02,1.19-.3.39-.57.71-.86.99-.29.29-.6.56-1,.86-.18.14-.39.21-.61.21Zm-.88-2.85l.83.59c.08-.07.16-.15.23-.22.07-.07.15-.15.22-.23l-.59-.83c-.11.12-.22.24-.33.36-.12.11-.23.23-.36.33Z" />
  <path d="m4.25,12.71c-.05,0-.11,0-.16-.01l-3.16-.53c-.43-.07-.77-.42-.83-.86-.06-.49-.09-.91-.09-1.31s.03-.82.09-1.31c.06-.44.39-.78.83-.86l3.16-.53c.34-.06.68.07.91.32s.31.62.21.95c-.14.47-.21.95-.21,1.43s.07.96.21,1.43c.1.33.02.69-.21.95-.19.22-.46.34-.75.34Zm-2.24-2.39l1.01.17c-.01-.16-.02-.33-.02-.49s0-.33.02-.49l-1.01.17c0,.11,0,.22,0,.32s0,.21,0,.32Z" />
  <path d="m15.75,12.71c-.28,0-.56-.12-.75-.34-.23-.26-.31-.62-.21-.95.14-.47.21-.94.21-1.42s-.07-.96-.21-1.43c-.1-.33-.02-.69.21-.95s.57-.38.91-.32l3.16.53c.43.07.77.42.83.86.06.49.09.91.09,1.31s-.03.82-.09,1.31c-.06.44-.39.78-.83.86l-3.16.53c-.05,0-.11.01-.16.01Zm3.16-1.53h0,0Zm-1.93-1.67c.01.16.02.33.02.49s0,.33-.02.49l1.01-.17c0-.11,0-.22,0-.32s0-.21,0-.32l-1.01-.17Z" />
  <path d="m4.53,18.14c-.21,0-.43-.07-.61-.21-.39-.3-.71-.58-1-.86-.29-.29-.56-.6-.86-.99-.27-.35-.28-.83-.02-1.19l1.87-2.61c.2-.28.54-.44.88-.42.34.02.65.22.82.52.23.43.52.82.86,1.15.34.34.73.63,1.16.86.3.16.5.47.52.82s-.14.67-.42.88l-2.61,1.86c-.17.12-.38.19-.58.19Zm-.41-2.71c.07.08.15.16.22.23.07.07.15.15.23.22l.83-.59c-.12-.11-.24-.22-.36-.33s-.23-.23-.33-.36l-.59.83Z" />
  <path d="m15.27,8.14s-.04,0-.06,0c-.34-.02-.65-.22-.82-.52-.23-.43-.52-.82-.86-1.15-.34-.34-.73-.63-1.16-.86-.3-.16-.5-.47-.52-.82s.14-.67.42-.88l2.61-1.86c.36-.26.84-.25,1.19.02.39.3.71.58,1,.86.29.29.56.6.86.99.27.35.28.83.02,1.19l-1.87,2.61c-.19.26-.49.42-.81.42Zm-.68-3.43c.12.11.24.22.36.33s.23.23.33.36l.59-.83c-.07-.08-.15-.16-.22-.23-.07-.07-.15-.15-.23-.22l-.83.59Z" />
</svg>
