<?xml version="1.0" encoding="UTF-8"?>
<svg color="currentColor" xmlns="http://www.w3.org/2000/svg" viewBox="0 0 20 20">
  <path d="m10,18.49h0c-.27,0-.52-.11-.71-.29L1.53,10.43C-.51,8.39-.51,5.08,1.53,3.04c.99-.99,2.3-1.53,3.69-1.53s2.71.54,3.69,1.53l1.08,1.08,1.08-1.08c.99-.99,2.3-1.53,3.69-1.53s2.71.54,3.69,1.53c2.04,2.04,2.04,5.35,0,7.39l-7.76,7.76c-.19.19-.44.29-.71.29ZM5.22,3.51c-.86,0-1.67.34-2.28.94-1.26,1.26-1.26,3.3,0,4.56l7.06,7.06,7.06-7.06c1.26-1.26,1.26-3.3,0-4.56-1.22-1.22-3.34-1.22-4.56,0l-1.79,1.79c-.39.39-1.02.39-1.41,0l-1.79-1.79c-.61-.61-1.42-.94-2.28-.94Z"/>
</svg>
