<svg width="40" height="40" viewBox="0 0 40 40" fill="none" xmlns="http://www.w3.org/2000/svg">
<g clip-path="url(#clip0_1079_2739)">
<path d="M2.88048 15.5261C2.59048 15.5261 2.29047 15.4861 2.00047 15.3961C1.23047 15.1561 0.600475 14.6261 0.240475 13.9061C-0.479525 12.4761 0.0604751 10.7661 1.46048 9.99609L19.5205 0.116094C19.8205 -0.0439062 20.1805 -0.0439062 20.4805 0.116094L38.5405 9.98609C39.9405 10.7561 40.4805 12.4661 39.7605 13.8961C39.4005 14.6161 38.7705 15.1461 38.0005 15.3861C37.2305 15.6261 36.4105 15.5361 35.7005 15.1461L20.0005 6.46609L4.30048 15.1561C3.86048 15.4061 3.37048 15.5261 2.88048 15.5261ZM20.0005 2.13609L2.42048 11.7461C1.97047 11.9961 1.80047 12.5461 2.03047 13.0061C2.15047 13.2361 2.35047 13.4061 2.60047 13.4861C2.85047 13.5661 3.11047 13.5361 3.34047 13.4061L19.5205 4.46609C19.8205 4.29609 20.1905 4.29609 20.4905 4.46609L36.6705 13.4161C36.9005 13.5461 37.1605 13.5661 37.4105 13.4961C37.6605 13.4161 37.8605 13.2461 37.9805 13.0161C38.2105 12.5561 38.0405 12.0061 37.5905 11.7561L20.0005 2.13609Z" fill="#FF2D20"/>
<path d="M6.61035 20.0078C4.68035 20.0078 3.11035 18.4378 3.11035 16.5078C3.11035 14.5778 4.68035 13.0078 6.61035 13.0078C8.54035 13.0078 10.1104 14.5778 10.1104 16.5078C10.1104 18.4378 8.54035 20.0078 6.61035 20.0078ZM6.61035 15.0078C5.78035 15.0078 5.11035 15.6778 5.11035 16.5078C5.11035 17.3378 5.78035 18.0078 6.61035 18.0078C7.44035 18.0078 8.11035 17.3378 8.11035 16.5078C8.11035 15.6778 7.44035 15.0078 6.61035 15.0078Z" fill="#FF2D20"/>
<path d="M6.61035 25.0078C4.68035 25.0078 3.11035 23.4378 3.11035 21.5078C3.11035 19.5778 4.68035 18.0078 6.61035 18.0078C8.54035 18.0078 10.1104 19.5778 10.1104 21.5078C10.1104 23.4378 8.54035 25.0078 6.61035 25.0078ZM6.61035 20.0078C5.78035 20.0078 5.11035 20.6778 5.11035 21.5078C5.11035 22.3378 5.78035 23.0078 6.61035 23.0078C7.44035 23.0078 8.11035 22.3378 8.11035 21.5078C8.11035 20.6778 7.44035 20.0078 6.61035 20.0078Z" fill="#FF2D20"/>
<path d="M6.61035 30.0078C4.68035 30.0078 3.11035 28.4378 3.11035 26.5078C3.11035 24.5778 4.68035 23.0078 6.61035 23.0078C8.54035 23.0078 10.1104 24.5778 10.1104 26.5078C10.1104 28.4378 8.54035 30.0078 6.61035 30.0078ZM6.61035 25.0078C5.78035 25.0078 5.11035 25.6778 5.11035 26.5078C5.11035 27.3378 5.78035 28.0078 6.61035 28.0078C7.44035 28.0078 8.11035 27.3378 8.11035 26.5078C8.11035 25.6778 7.44035 25.0078 6.61035 25.0078Z" fill="#FF2D20"/>
<path d="M6.61035 35.0078C4.68035 35.0078 3.11035 33.4378 3.11035 31.5078C3.11035 29.5778 4.68035 28.0078 6.61035 28.0078C8.54035 28.0078 10.1104 29.5778 10.1104 31.5078C10.1104 33.4378 8.54035 35.0078 6.61035 35.0078ZM6.61035 30.0078C5.78035 30.0078 5.11035 30.6778 5.11035 31.5078C5.11035 32.3378 5.78035 33.0078 6.61035 33.0078C7.44035 33.0078 8.11035 32.3378 8.11035 31.5078C8.11035 30.6778 7.44035 30.0078 6.61035 30.0078Z" fill="#FF2D20"/>
<path d="M6.61035 40.0078C4.68035 40.0078 3.11035 38.4378 3.11035 36.5078C3.11035 34.5778 4.68035 33.0078 6.61035 33.0078C8.54035 33.0078 10.1104 34.5778 10.1104 36.5078C10.1104 38.4378 8.54035 40.0078 6.61035 40.0078ZM6.61035 35.0078C5.78035 35.0078 5.11035 35.6778 5.11035 36.5078C5.11035 37.3378 5.78035 38.0078 6.61035 38.0078C7.44035 38.0078 8.11035 37.3378 8.11035 36.5078C8.11035 35.6778 7.44035 35.0078 6.61035 35.0078Z" fill="#FF2D20"/>
<path d="M32.7998 20.0078C30.8698 20.0078 29.2998 18.4378 29.2998 16.5078C29.2998 14.5778 30.8698 13.0078 32.7998 13.0078C34.7298 13.0078 36.2998 14.5778 36.2998 16.5078C36.2998 18.4378 34.7298 20.0078 32.7998 20.0078ZM32.7998 15.0078C31.9698 15.0078 31.2998 15.6778 31.2998 16.5078C31.2998 17.3378 31.9698 18.0078 32.7998 18.0078C33.6298 18.0078 34.2998 17.3378 34.2998 16.5078C34.2998 15.6778 33.6298 15.0078 32.7998 15.0078Z" fill="#FF2D20"/>
<path d="M32.7998 25.0078C30.8698 25.0078 29.2998 23.4378 29.2998 21.5078C29.2998 19.5778 30.8698 18.0078 32.7998 18.0078C34.7298 18.0078 36.2998 19.5778 36.2998 21.5078C36.2998 23.4378 34.7298 25.0078 32.7998 25.0078ZM32.7998 20.0078C31.9698 20.0078 31.2998 20.6778 31.2998 21.5078C31.2998 22.3378 31.9698 23.0078 32.7998 23.0078C33.6298 23.0078 34.2998 22.3378 34.2998 21.5078C34.2998 20.6778 33.6298 20.0078 32.7998 20.0078Z" fill="#FF2D20"/>
<path d="M32.7998 30.0078C30.8698 30.0078 29.2998 28.4378 29.2998 26.5078C29.2998 24.5778 30.8698 23.0078 32.7998 23.0078C34.7298 23.0078 36.2998 24.5778 36.2998 26.5078C36.2998 28.4378 34.7298 30.0078 32.7998 30.0078ZM32.7998 25.0078C31.9698 25.0078 31.2998 25.6778 31.2998 26.5078C31.2998 27.3378 31.9698 28.0078 32.7998 28.0078C33.6298 28.0078 34.2998 27.3378 34.2998 26.5078C34.2998 25.6778 33.6298 25.0078 32.7998 25.0078Z" fill="#FF2D20"/>
<path d="M32.7998 35.0078C30.8698 35.0078 29.2998 33.4378 29.2998 31.5078C29.2998 29.5778 30.8698 28.0078 32.7998 28.0078C34.7298 28.0078 36.2998 29.5778 36.2998 31.5078C36.2998 33.4378 34.7298 35.0078 32.7998 35.0078ZM32.7998 30.0078C31.9698 30.0078 31.2998 30.6778 31.2998 31.5078C31.2998 32.3378 31.9698 33.0078 32.7998 33.0078C33.6298 33.0078 34.2998 32.3378 34.2998 31.5078C34.2998 30.6778 33.6298 30.0078 32.7998 30.0078Z" fill="#FF2D20"/>
<path d="M32.7998 40.0078C30.8698 40.0078 29.2998 38.4378 29.2998 36.5078C29.2998 34.5778 30.8698 33.0078 32.7998 33.0078C34.7298 33.0078 36.2998 34.5778 36.2998 36.5078C36.2998 38.4378 34.7298 40.0078 32.7998 40.0078ZM32.7998 35.0078C31.9698 35.0078 31.2998 35.6778 31.2998 36.5078C31.2998 37.3378 31.9698 38.0078 32.7998 38.0078C33.6298 38.0078 34.2998 37.3378 34.2998 36.5078C34.2998 35.6778 33.6298 35.0078 32.7998 35.0078Z" fill="#FF2D20"/>
<path d="M35.0398 10.2161C34.8698 10.2161 34.7098 10.1761 34.5598 10.0961L30.0698 7.63609C29.7498 7.45609 29.5498 7.12609 29.5498 6.75609V0.996094C29.5498 0.446094 29.9998 -0.00390625 30.5498 -0.00390625H35.0398C35.5898 -0.00390625 36.0398 0.446094 36.0398 0.996094V9.21609C36.0398 9.56609 35.8498 9.89609 35.5498 10.0761C35.3898 10.1661 35.2198 10.2161 35.0398 10.2161ZM31.5498 6.16609L34.0398 7.52609V1.99609H31.5498V6.17609V6.16609Z" fill="#FF2D20"/>
<path d="M32.8004 15.0078H6.61035C6.06035 15.0078 5.61035 14.5578 5.61035 14.0078C5.61035 13.4578 6.06035 13.0078 6.61035 13.0078H32.8004C33.3503 13.0078 33.8004 13.4578 33.8004 14.0078C33.8004 14.5578 33.3503 15.0078 32.8004 15.0078Z" fill="#FF2D20"/>
<path d="M32.8004 20.0078H6.61035C6.06035 20.0078 5.61035 19.5578 5.61035 19.0078C5.61035 18.4578 6.06035 18.0078 6.61035 18.0078H32.8004C33.3503 18.0078 33.8004 18.4578 33.8004 19.0078C33.8004 19.5578 33.3503 20.0078 32.8004 20.0078Z" fill="#FF2D20"/>
<path d="M24.7599 35.0044H14.1299C13.5799 35.0044 13.1299 34.5544 13.1299 34.0044V19.2344C13.1299 18.6844 13.5799 18.2344 14.1299 18.2344H24.7599C25.3099 18.2344 25.7599 18.6844 25.7599 19.2344V34.0044C25.7599 34.5544 25.3099 35.0044 24.7599 35.0044ZM15.1299 33.0044H23.7599V20.2344H15.1299V33.0044Z" fill="#FF2D20"/>
<path d="M14.1296 25.0078H6.59961C6.04961 25.0078 5.59961 24.5578 5.59961 24.0078C5.59961 23.4578 6.04961 23.0078 6.59961 23.0078H14.1296C14.6796 23.0078 15.1296 23.4578 15.1296 24.0078C15.1296 24.5578 14.6796 25.0078 14.1296 25.0078Z" fill="#FF2D20"/>
<path d="M14.1296 30.0078H6.59961C6.04961 30.0078 5.59961 29.5578 5.59961 29.0078C5.59961 28.4578 6.04961 28.0078 6.59961 28.0078H14.1296C14.6796 28.0078 15.1296 28.4578 15.1296 29.0078C15.1296 29.5578 14.6796 30.0078 14.1296 30.0078Z" fill="#FF2D20"/>
<path d="M14.1296 35.0078H6.59961C6.04961 35.0078 5.59961 34.5578 5.59961 34.0078C5.59961 33.4578 6.04961 33.0078 6.59961 33.0078H14.1296C14.6796 33.0078 15.1296 33.4578 15.1296 34.0078C15.1296 34.5578 14.6796 35.0078 14.1296 35.0078Z" fill="#FF2D20"/>
<path d="M32.2898 25.0078H24.7598C24.2098 25.0078 23.7598 24.5578 23.7598 24.0078C23.7598 23.4578 24.2098 23.0078 24.7598 23.0078H32.2898C32.8398 23.0078 33.2898 23.4578 33.2898 24.0078C33.2898 24.5578 32.8398 25.0078 32.2898 25.0078Z" fill="#FF2D20"/>
<path d="M32.2898 30.0078H24.7598C24.2098 30.0078 23.7598 29.5578 23.7598 29.0078C23.7598 28.4578 24.2098 28.0078 24.7598 28.0078H32.2898C32.8398 28.0078 33.2898 28.4578 33.2898 29.0078C33.2898 29.5578 32.8398 30.0078 32.2898 30.0078Z" fill="#FF2D20"/>
<path d="M32.2898 35.0078H24.7598C24.2098 35.0078 23.7598 34.5578 23.7598 34.0078C23.7598 33.4578 24.2098 33.0078 24.7598 33.0078H32.2898C32.8398 33.0078 33.2898 33.4578 33.2898 34.0078C33.2898 34.5578 32.8398 35.0078 32.2898 35.0078Z" fill="#FF2D20"/>
<path d="M32.8004 40.0078H6.61035C6.06035 40.0078 5.61035 39.5578 5.61035 39.0078C5.61035 38.4578 6.06035 38.0078 6.61035 38.0078H32.8004C33.3503 38.0078 33.8004 38.4578 33.8004 39.0078C33.8004 39.5578 33.3503 40.0078 32.8004 40.0078Z" fill="#FF2D20"/>
<path d="M20.0002 14.687C16.6002 14.687 13.4602 12.837 11.8202 9.85698C11.5502 9.37698 11.7302 8.76698 12.2102 8.49698C12.6902 8.22698 13.3002 8.40698 13.5702 8.88698C14.8702 11.227 17.3302 12.677 20.0002 12.677C22.6702 12.677 25.1402 11.227 26.4302 8.88698C26.7002 8.40698 27.3102 8.22698 27.7902 8.49698C28.2702 8.76698 28.4502 9.37698 28.1802 9.85698C26.5302 12.837 23.3902 14.687 20.0002 14.687Z" fill="#FF2D20"/>
</g>
<defs>
<clipPath id="clip0_1079_2739">
<rect width="40" height="40.01" fill="white" transform="translate(0 -0.00390625)"/>
</clipPath>
</defs>
</svg>
