<?xml version="1.0" encoding="UTF-8"?>
<svg id="Layer_1" data-name="Layer 1" xmlns="http://www.w3.org/2000/svg" viewBox="0 0 40 40">
  <path d="m28.98,40H5.02C2.25,40,0,37.75,0,34.98s2.25-5.02,5.02-5.02h23.96c2.77,0,5.02,2.25,5.02,5.02s-2.25,5.02-5.02,5.02ZM5.02,31.96c-1.66,0-3.02,1.35-3.02,3.02s1.35,3.02,3.02,3.02h23.96c1.66,0,3.02-1.35,3.02-3.02s-1.35-3.02-3.02-3.02H5.02Z" style="fill: #ff2d20;"/>
  <rect x="8.12" y="33.26" width="17.76" height="3.44" rx="1.54" ry="1.54" style="fill: #ff2d20;"/>
  <path d="m5.2,36.7c-.95,0-1.72-.77-1.72-1.72s.77-1.72,1.72-1.72,1.72.77,1.72,1.72-.77,1.72-1.72,1.72Zm0-2c-.16,0-.28.13-.28.28s.13.28.28.28.28-.13.28-.28-.13-.28-.28-.28Z" style="fill: #ff2d20;"/>
  <path d="m28.73,36.7c-.95,0-1.72-.77-1.72-1.72s.77-1.72,1.72-1.72,1.72.77,1.72,1.72-.77,1.72-1.72,1.72Zm0-2c-.16,0-.28.13-.28.28s.13.28.28.28.28-.13.28-.28-.13-.28-.28-.28Z" style="fill: #ff2d20;"/>
  <path d="m22.84,31.96h-11.68c-.55,0-1-.45-1-1v-3.94c0-.55.45-1,1-1h11.68c.55,0,1,.45,1,1v3.94c0,.55-.45,1-1,1Zm-10.68-2h9.68v-1.94h-9.68v1.94Z" style="fill: #ff2d20;"/>
  <path d="m34.97,30.54c-.92,0-1.84-.24-2.66-.71l-4.8-2.77c-.34-.2-.54-.58-.49-.98.04-.4.32-.73.7-.84l9.83-3.06c.27-.08.56-.05.8.09.24.14.41.38.47.65l.84,3.85c.28,1.3-.45,2.61-1.71,3.05l-1.24.43c-.57.2-1.16.3-1.75.3Zm-4.48-4.07l2.82,1.63c.83.48,1.84.58,2.75.26l1.24-.43c.3-.11.48-.42.41-.73l-.61-2.78-6.61,2.06Z" style="fill: #ff2d20;"/>
  <path d="m34.9,25.04c-.43,0-.83-.28-.96-.72l-5.56-19.18c-.37-1.47.46-2.91,1.88-3.31.72-.2,1.49-.1,2.13.28.64.38,1.1,1.02,1.27,1.75l5.15,19.01c.14.53-.17,1.08-.7,1.23-.53.15-1.08-.17-1.23-.7l-5.16-19.06c-.05-.24-.17-.4-.35-.5-.17-.1-.37-.13-.56-.07-.38.11-.6.49-.5.87l5.55,19.14c.15.53-.15,1.08-.68,1.24-.09.03-.19.04-.28.04Z" style="fill: #ff2d20;"/>
  <path d="m24.88,28.02H1C.45,28.02,0,27.58,0,27.02v-8.16c0-.55.45-1,1-1h9.16v-6.98c0-.55.45-1,1-1h9.9c.38,0,.74.22.9.57l3.82,7.98c.06.13.1.28.1.43v8.16c0,.55-.45,1-1,1Zm-22.88-2h21.88v-6.93l-3.45-7.21h-8.27v6.98c0,.55-.45,1-1,1H2v6.16Z" style="fill: #ff2d20;"/>
  <path d="m5.8,24.54c-.26,0-.51-.1-.71-.29l-1.32-1.33c-.39-.39-.39-1.02,0-1.41.39-.39,1.02-.39,1.41,0l1.32,1.33c.39.39.39,1.02,0,1.41-.2.2-.45.29-.71.29Z" style="fill: #ff2d20;"/>
  <path d="m10.18,24.54c-.26,0-.51-.1-.71-.29l-1.33-1.33c-.39-.39-.39-1.02,0-1.41s1.02-.39,1.41,0l1.33,1.33c.39.39.39,1.02,0,1.41-.2.2-.45.29-.71.29Z" style="fill: #ff2d20;"/>
  <path d="m19.2,11.89c-.55,0-1-.45-1-1,0-1.06-.86-1.91-1.92-1.91s-1.92.86-1.92,1.91c0,.55-.45,1-1,1s-1-.45-1-1c0-2.16,1.76-3.91,3.92-3.91s3.92,1.76,3.92,3.91c0,.55-.45,1-1,1Z" style="fill: #ff2d20;"/>
  <path d="m19.12,11.22c-.37,0-.73-.21-.9-.57-.24-.5-.03-1.09.47-1.33l11.24-5.41c.35-.17.5-.57.35-.92-.08-.18-.22-.32-.41-.38-.18-.07-.38-.06-.56.03l-12.58,6.25c-.49.25-1.09.04-1.34-.45-.25-.49-.04-1.09.45-1.34L28.42.83c.67-.33,1.43-.37,2.13-.11.7.26,1.25.78,1.55,1.46.59,1.34,0,2.89-1.31,3.53l-11.24,5.41c-.14.07-.29.1-.43.1Z" style="fill: #ff2d20;"/>
  <path d="m20.44,24.95h-5.66c-.55,0-1-.45-1-1v-9.69c0-.55.45-1,1-1h3.21c.37,0,.7.2.88.52l2.45,4.48c.08.15.12.31.12.48v5.22c0,.55-.45,1-1,1Zm-4.66-2h3.66v-3.96l-2.04-3.73h-1.61v7.69Z" style="fill: #ff2d20;"/>
</svg>