<?xml version="1.0" encoding="UTF-8"?>
<svg id="Layer_1" data-name="Layer 1" xmlns="http://www.w3.org/2000/svg" viewBox="0 0 40 40">
  <path d="m39,11.46H1C.45,11.46,0,11.01,0,10.46s.45-1,1-1h38c.55,0,1,.45,1,1s-.45,1-1,1Z" style="fill: #ff2d20;"/>
  <path d="m20,29.57c-.55,0-1-.45-1-1v-11.8c0-.55.45-1,1-1s1,.45,1,1v11.8c0,.55-.45,1-1,1Z" style="fill: #ff2d20;"/>
  <path d="m30,35.88H4.35C1.95,35.88,0,33.93,0,31.53V8.46C0,6.06,1.95,4.11,4.35,4.11h10.33c.55,0,1,.45,1,1s-.45,1-1,1H4.35c-1.3,0-2.35,1.05-2.35,2.35v23.07c0,1.3,1.05,2.35,2.35,2.35h25.65c.55,0,1,.45,1,1s-.45,1-1,1Z" style="fill: #ff2d20;"/>
  <path d="m35.65,35.89h-5.65c-.55,0-1-.45-1-1s.45-1,1-1h5.65c1.3,0,2.35-1.05,2.35-2.35V8.46c0-1.3-1.05-2.35-2.35-2.35h-10.33c-.55,0-1-.45-1-1s.45-1,1-1h10.33c2.4,0,4.35,1.95,4.35,4.35v23.08c0,2.4-1.95,4.35-4.35,4.35Z" style="fill: #ff2d20;"/>
  <path d="m23.88,8.22h-7.76c-1.34,0-2.44-1.09-2.44-2.44v-3.34C13.68,1.09,14.78,0,16.12,0h7.76C25.22,0,26.32,1.09,26.32,2.44v3.34c0,1.34-1.09,2.44-2.44,2.44Zm-7.76-6.22c-.24,0-.44.2-.44.44v3.34c0,.24.2.44.44.44h7.76c.24,0,.44-.2.44-.44v-3.34c0-.24-.2-.44-.44-.44h-7.76Z" style="fill: #ff2d20;"/>
  <path d="m13.6,28.74h-5.99c-1.7,0-3.08-1.38-3.08-3.08v-5.99c0-1.7,1.38-3.08,3.08-3.08h5.99c1.7,0,3.08,1.38,3.08,3.08v5.99c0,1.7-1.38,3.08-3.08,3.08Zm-5.99-10.14c-.59,0-1.08.48-1.08,1.08v5.99c0,.59.48,1.08,1.08,1.08h5.99c.59,0,1.08-.48,1.08-1.08v-5.99c0-.59-.48-1.08-1.08-1.08h-5.99Z" style="fill: #ff2d20;"/>
  <path d="m29.02,29.12c-3.56,0-6.45-2.89-6.45-6.45s2.89-6.45,6.45-6.45,6.45,2.89,6.45,6.45-2.89,6.45-6.45,6.45Zm0-10.91c-2.46,0-4.45,2-4.45,4.45s2,4.45,4.45,4.45,4.45-2,4.45-4.45-2-4.45-4.45-4.45Z" style="fill: #ff2d20;"/>
  <path d="m10.16,25.36c-.21,0-.43-.07-.61-.21l-1.85-1.42c-.44-.34-.52-.96-.18-1.4.33-.44.96-.52,1.4-.18l1.07.82,2.04-2.59c.34-.43.97-.51,1.4-.17.43.34.51.97.17,1.4l-2.65,3.37c-.2.25-.49.38-.79.38Z" style="fill: #ff2d20;"/>
  <path d="m30.91,25.56c-.26,0-.51-.1-.71-.29l-3.78-3.78c-.39-.39-.39-1.02,0-1.41s1.02-.39,1.41,0l3.78,3.78c.39.39.39,1.02,0,1.41-.2.2-.45.29-.71.29Z" style="fill: #ff2d20;"/>
  <path d="m27.14,25.56c-.26,0-.51-.1-.71-.29-.39-.39-.39-1.02,0-1.41l3.78-3.78c.39-.39,1.02-.39,1.41,0s.39,1.02,0,1.41l-3.78,3.78c-.2.2-.45.29-.71.29Z" style="fill: #ff2d20;"/>
</svg>