<?xml version="1.0" encoding="UTF-8"?>
<svg id="Layer_1" data-name="Layer 1" xmlns="http://www.w3.org/2000/svg" viewBox="0 0 40 40">
  <path d="m39,33.98h-21.66c-.55,0-1-.45-1-1v-6.02c0-.55.45-1,1-1h21.66c.55,0,1,.45,1,1v6.02c0,.55-.45,1-1,1Zm-20.66-2h19.66v-4.02h-19.66v4.02Z" style="fill: #ff2d20;"/>
  <path d="m25,40H1C.45,40,0,39.55,0,39v-6.02c0-.55.45-1,1-1h24c.55,0,1,.45,1,1v6.02c0,.55-.45,1-1,1Zm-23-2h22v-4.02H2v4.02Z" style="fill: #ff2d20;"/>
  <path d="m39,40h-14c-.55,0-1-.45-1-1v-6.02c0-.55.45-1,1-1h14c.55,0,1,.45,1,1v6.02c0,.55-.45,1-1,1Zm-13-2h12v-4.02h-12v4.02Z" style="fill: #ff2d20;"/>
  <path d="m25.88,19.03c-.31,0-.62-.14-.81-.42l-4.39-6.12c-.15-.22-.22-.48-.17-.75.04-.26.19-.5.4-.65l6.12-4.39c.45-.32,1.07-.22,1.4.23l4.39,6.12c.32.45.22,1.07-.23,1.4l-6.12,4.39c-.18.13-.38.19-.58.19Zm-3-6.89l3.22,4.5,4.5-3.22-3.22-4.5-4.5,3.22Z" style="fill: #ff2d20;"/>
  <path d="m17.78,22.91c-.05,0-.11,0-.16-.01-.26-.04-.5-.19-.65-.4l-2.57-3.58c-.32-.45-.22-1.07.23-1.4l7.18-5.15c.21-.16.48-.22.75-.17.26.04.5.19.65.4l2.57,3.58c.32.45.22,1.07-.23,1.4l-7.18,5.15c-.17.12-.38.19-.58.19Zm-1.17-4.35l1.4,1.95,5.56-3.99-1.4-1.95-5.56,3.99Z" style="fill: #ff2d20;"/>
  <path d="m31.09,13.37c-.05,0-.11,0-.16-.01-.26-.04-.5-.19-.65-.4l-2.57-3.58c-.32-.45-.22-1.07.23-1.4l.57-.41c1.44-1.03,3.44-.7,4.47.74.5.7.7,1.54.56,2.39-.14.84-.6,1.58-1.29,2.08l-.57.41c-.17.12-.38.19-.58.19Zm-1.15-4.32l1.36,1.89c.14-.16.23-.36.27-.58.05-.32-.02-.63-.21-.9-.33-.46-.91-.62-1.41-.42Z" style="fill: #ff2d20;"/>
  <path d="m5.85,30.96c-.17,0-.35-.01-.53-.04-.84-.14-1.58-.6-2.08-1.29h0c-.5-.7-.7-1.54-.56-2.39s.6-1.58,1.29-2.08l10.66-7.64c.45-.32,1.07-.22,1.4.23l2.57,3.58c.15.22.22.48.17.75-.04.26-.19.5-.4.65l-10.66,7.64c-.55.39-1.2.6-1.86.6Zm9.14-11.24l-9.85,7.06c-.26.19-.43.46-.49.78-.05.32.02.63.21.9h0c.19.26.46.43.78.49.31.05.63-.02.9-.21l9.85-7.06-1.4-1.95Z" style="fill: #ff2d20;"/>
  <path d="m30,24.78c-.31,0-.62-.14-.81-.42l-2.2-3.06c-.15-.22-.22-.48-.17-.75.04-.26.19-.5.4-.65l6.12-4.39c.21-.15.48-.22.75-.17.26.04.5.19.65.4l2.19,3.06c.32.45.22,1.07-.23,1.4l-6.12,4.39c-.18.13-.38.19-.58.19Zm-.8-3.83l1.03,1.44,4.5-3.22-1.03-1.44-4.5,3.22Z" style="fill: #ff2d20;"/>
  <path d="m29.21,20.71c-.05,0-.11,0-.16-.01-.26-.04-.5-.19-.65-.4l-1.93-2.69c-.32-.45-.22-1.07.23-1.4l3.31-2.38c.21-.15.48-.22.75-.17.26.04.5.19.65.4l1.93,2.69c.32.45.22,1.07-.23,1.4l-3.31,2.38c-.17.12-.38.19-.58.19Zm-.53-3.46l.76,1.07,1.69-1.21-.76-1.07-1.69,1.21Z" style="fill: #ff2d20;"/>
  <path d="m24.63,10.65c-.05,0-.11,0-.16-.01-.26-.04-.5-.19-.65-.4l-1.93-2.69c-.15-.22-.22-.48-.17-.75.04-.26.19-.5.4-.65l2.28-1.63c.22-.16.48-.22.75-.17.26.04.5.19.65.4l1.93,2.69c.32.45.22,1.07-.23,1.39l-2.28,1.63c-.17.12-.38.19-.58.19Zm-.53-3.46l.76,1.07.65-.47-.76-1.07-.65.47Z" style="fill: #ff2d20;"/>
  <path d="m22,8.47c-.31,0-.62-.14-.81-.42l-.1-.14s0,0,0,0c-.86-1.2-1.2-2.67-.96-4.12s1.03-2.74,2.23-3.6c.21-.16.48-.22.75-.17.26.04.5.19.65.4l2.74,3.83c.32.45.22,1.07-.23,1.4l-3.68,2.64c-.18.13-.38.19-.58.19Zm.79-5.95c-.77.99-.96,2.33-.49,3.5l1.98-1.42-1.49-2.08Z" style="fill: #ff2d20;"/>
</svg>