<?xml version="1.0" encoding="UTF-8"?>
<svg id="Layer_1" data-name="Layer 1" xmlns="http://www.w3.org/2000/svg" viewBox="0 0 40 40">
  <path d="m1,15.09V5.26C1,2.91,2.91,1,5.26,1h9.83" style="fill: none; stroke: #ff2d20; stroke-linecap: round; stroke-linejoin: round; stroke-width: 2px;"/>
  <path d="m24.91,1h9.83c2.35,0,4.26,1.91,4.26,4.26v9.83" style="fill: none; stroke: #ff2d20; stroke-linecap: round; stroke-linejoin: round; stroke-width: 2px;"/>
  <path d="m1,24.91v9.83c0,2.35,1.91,4.26,4.26,4.26h9.83" style="fill: none; stroke: #ff2d20; stroke-linecap: round; stroke-linejoin: round; stroke-width: 2px;"/>
  <path d="m24.91,39h9.83c2.35,0,4.26-1.91,4.26-4.26v-9.83" style="fill: none; stroke: #ff2d20; stroke-linecap: round; stroke-linejoin: round; stroke-width: 2px;"/>
  <g>
    <polygon points="14.59 12.31 6.21 12.31 13.66 20.5 6.21 28.7 14.59 28.7 22.04 20.5 14.59 12.31" style="fill: none; stroke: #ff2d20; stroke-linecap: round; stroke-linejoin: round; stroke-width: 2px;"/>
    <polygon points="28.34 12.31 19.96 12.31 27.41 20.5 19.96 28.7 28.34 28.7 35.79 20.5 28.34 12.31" style="fill: none; stroke: #ff2d20; stroke-linecap: round; stroke-linejoin: round; stroke-width: 2px;"/>
  </g>
</svg>