<?xml version="1.0" encoding="UTF-8"?>
<svg color="currentColor" xmlns="http://www.w3.org/2000/svg" viewBox="0 0 20 20">
  <path d="m10,20C2.09,20,0,12.8,0,9c0-.3.13-.58.37-.77s.54-.27.83-.21c.05,0,4.95.98,8.8.98s8.75-.97,8.8-.98c.29-.06.6.02.83.21s.37.47.37.77c0,3.8-2.09,11-10,11ZM2.09,10.22c.32,2.47,1.72,7.78,7.91,7.78s7.59-5.32,7.91-7.78c-1.77.3-5.06.78-7.91.78s-6.13-.48-7.91-.78Z" />
  <path d="m1.4,10.4c-.55,0-1-.45-1-1C.4,3.29,5.35,0,10,0c.55,0,1,.45,1,1s-.45,1-1,1c-3.69,0-7.6,2.59-7.6,7.4,0,.55-.45,1-1,1Z" />
  <path d="m18.6,10.4c-.55,0-1-.45-1-1,0-4.81-3.92-7.4-7.6-7.4-.55,0-1-.45-1-1s.45-1,1-1c4.65,0,9.6,3.29,9.6,9.4,0,.55-.45,1-1,1Z" />
  <path d="m2.6,15.93c-.46,0-.88-.32-.98-.79-.11-.54.23-1.07.77-1.19,3.73-.79,4.74-4.09,4.78-4.23.15-.53.71-.83,1.24-.68.53.15.84.7.69,1.23-.05.19-1.35,4.59-6.29,5.64-.07.01-.14.02-.21.02Z" />
  <path d="m7,19c-.47,0-.88-.33-.98-.8-.11-.54.24-1.07.78-1.18,4.26-.85,6.2-4.24,6.2-7.02,0-.55.45-1,1-1s1,.45,1,1c0,3.57-2.44,7.91-7.8,8.98-.07.01-.13.02-.2.02Z" />
</svg>
