<svg width="40" height="40" viewBox="0 0 40 40" fill="none" xmlns="http://www.w3.org/2000/svg">
<g clip-path="url(#clip0_1079_2814)">
<path d="M20.0001 27.74C8.88012 27.74 5.05012 25.7 4.89012 25.62C4.57012 25.44 4.37012 25.11 4.37012 24.74C4.37012 11.03 10.8901 7.76 15.2001 5.6C17.6901 4.35 18.9901 3.62 18.9901 1.95V1C19.0001 0.45 19.4501 0 20.0001 0C20.5501 0 21.0001 0.45 21.0001 1V1.95C21.0001 4.93 18.6201 6.13 16.1001 7.39C11.8401 9.52 6.56012 12.17 6.38012 24.08C7.71012 24.57 11.7201 25.74 20.0001 25.74C20.5501 25.74 21.0001 26.19 21.0001 26.74C21.0001 27.29 20.5501 27.74 20.0001 27.74Z" fill="#FF2D20"/>
<path d="M20.0003 32.6509H18.3203C17.7703 32.6509 17.3203 32.2009 17.3203 31.6509V26.7109C17.3203 26.1609 17.7703 25.7109 18.3203 25.7109C18.8703 25.7109 19.3203 26.1609 19.3203 26.7109V30.6509H20.0003C20.5503 30.6509 21.0003 31.1009 21.0003 31.6509C21.0003 32.2009 20.5503 32.6509 20.0003 32.6509Z" fill="#FF2D20"/>
<path d="M14.3396 27.5304C14.2496 27.5304 14.1596 27.5204 14.0696 27.4904C13.5396 27.3404 13.2296 26.7904 13.3796 26.2604L15.5596 18.5204C15.7996 17.6804 16.3096 16.9404 16.9896 16.4504L19.4096 14.7104C19.8596 14.3904 20.4796 14.4904 20.8096 14.9404C21.1296 15.3904 21.0296 16.0104 20.5796 16.3404L18.1596 18.0804C17.8396 18.3104 17.5996 18.6604 17.4896 19.0704L15.3096 26.8104C15.1896 27.2504 14.7796 27.5404 14.3496 27.5404L14.3396 27.5304Z" fill="#FF2D20"/>
<path d="M15.3801 23.8483C9.68013 23.8483 5.46013 22.2483 5.28013 22.1783C4.77013 21.9783 4.51013 21.3983 4.71013 20.8883C4.91013 20.3783 5.49013 20.1183 6.00013 20.3083C6.04013 20.3283 10.0701 21.8383 15.3801 21.8383C15.9301 21.8383 16.3801 22.2883 16.3801 22.8383C16.3801 23.3883 15.9301 23.8383 15.3801 23.8383V23.8483Z" fill="#FF2D20"/>
<path d="M7.48001 40.0004H3.00001C2.45001 40.0004 2.00001 39.5604 2.00001 39.0104C2.00001 38.6904 1.98001 31.0604 4.43001 24.3904C4.62001 23.8704 5.20001 23.6104 5.71001 23.8004C6.23001 23.9904 6.49001 24.5604 6.30001 25.0804C4.48001 30.0404 4.09001 35.7404 4.01001 38.0004H6.47001C6.51 34.5104 6.99 25.6604 10.95 25.1904C11.5 25.1204 12 25.5204 12.06 26.0704C12.12 26.6204 11.73 27.1204 11.18 27.1804C9.46 27.3904 8.39001 33.4504 8.46001 38.9904C8.46001 39.2604 8.36001 39.5204 8.17001 39.7104C7.98001 39.9004 7.73001 40.0104 7.46001 40.0104L7.48001 40.0004Z" fill="#FF2D20"/>
<path d="M20 27.74C19.45 27.74 19 27.29 19 26.74C19 26.19 19.45 25.74 20 25.74C28.28 25.74 32.29 24.58 33.62 24.08C33.43 12.17 28.15 9.52 23.9 7.39C21.38 6.13 19 4.94 19 1.95V1C19 0.45 19.45 0 20 0C20.55 0 21 0.45 21 1V1.95C21 3.62 22.3 4.35 24.79 5.6C29.1 7.76 35.62 11.03 35.62 24.74C35.62 25.1 35.42 25.44 35.1 25.62C34.94 25.71 31.11 27.74 19.99 27.74H20Z" fill="#FF2D20"/>
<path d="M21.68 32.6509H20C19.45 32.6509 19 32.2009 19 31.6509C19 31.1009 19.45 30.6509 20 30.6509H20.68V26.7109C20.68 26.1609 21.13 25.7109 21.68 25.7109C22.23 25.7109 22.68 26.1609 22.68 26.7109V31.6509C22.68 32.2009 22.23 32.6509 21.68 32.6509Z" fill="#FF2D20"/>
<path d="M25.6596 27.5286C25.2196 27.5286 24.8196 27.2386 24.6996 26.7986L22.5196 19.0586C22.4096 18.6486 22.1696 18.2986 21.8496 18.0686L19.4296 16.3286C18.9796 16.0086 18.8796 15.3786 19.1996 14.9286C19.5196 14.4786 20.1496 14.3786 20.5996 14.6986L23.0196 16.4386C23.7096 16.9286 24.2196 17.6686 24.4496 18.5086L26.6296 26.2486C26.7796 26.7786 26.4696 27.3286 25.9396 27.4786C25.8496 27.5086 25.7596 27.5186 25.6696 27.5186L25.6596 27.5286Z" fill="#FF2D20"/>
<path d="M24.6201 23.8513C24.0701 23.8513 23.6201 23.4013 23.6201 22.8513C23.6201 22.3013 24.0701 21.8513 24.6201 21.8513C29.9301 21.8513 33.9601 20.3313 34.0001 20.3213C34.5101 20.1213 35.0901 20.3813 35.2901 20.9013C35.4901 21.4213 35.2301 21.9913 34.7201 22.1913C34.5401 22.2613 30.3201 23.8613 24.6201 23.8613V23.8513Z" fill="#FF2D20"/>
<path d="M37.0002 40.0014H32.5202C32.2502 40.0014 32.0002 39.8914 31.8102 39.7014C31.6202 39.5114 31.5202 39.2514 31.5202 38.9814C31.6002 33.4414 30.5202 27.3814 28.8002 27.1714C28.2502 27.1014 27.8602 26.6114 27.9202 26.0614C27.9802 25.5114 28.4802 25.1214 29.0302 25.1814C32.9902 25.6514 33.4801 34.5014 33.5101 37.9914H35.9702C35.8902 35.7314 35.5002 30.0314 33.6802 25.0714C33.4902 24.5514 33.7602 23.9814 34.2702 23.7914C34.7902 23.6014 35.3602 23.8714 35.5502 24.3814C38.0002 31.0514 37.9902 38.6714 37.9802 39.0014C37.9802 39.5514 37.5302 39.9914 36.9802 39.9914L37.0002 40.0014Z" fill="#FF2D20"/>
<path d="M20.0004 9.64889C17.4504 9.64889 15.5504 8.80889 14.8004 7.33889C14.5504 6.84889 14.7404 6.24889 15.2304 5.98889C15.7204 5.73889 16.3204 5.92889 16.5804 6.41889C16.9704 7.16889 18.2804 7.63889 20.0004 7.63889C20.5504 7.63889 21.0004 8.08889 21.0004 8.63889C21.0004 9.18889 20.5504 9.63889 20.0004 9.63889V9.64889Z" fill="#FF2D20"/>
<path d="M20 9.65111C19.45 9.65111 19 9.20111 19 8.65111C19 8.10111 19.45 7.65111 20 7.65111C21.73 7.65111 23.04 7.18111 23.42 6.43111C23.67 5.94111 24.28 5.74111 24.77 6.00111C25.26 6.25111 25.46 6.85111 25.2 7.35111C24.45 8.82111 22.55 9.66111 20 9.66111V9.65111Z" fill="#FF2D20"/>
<path d="M32.5098 38.9483C32.3898 38.9483 32.2598 38.9283 32.1398 38.8783C32.1398 38.8783 28.5398 37.4883 19.9998 37.4883C11.4598 37.4883 7.89983 38.8683 7.85983 38.8783C7.34983 39.0783 6.76983 38.8383 6.55983 38.3283C6.34983 37.8183 6.59983 37.2383 7.10983 37.0283C7.25983 36.9683 10.9898 35.4883 19.9998 35.4883C29.0098 35.4883 32.7398 36.9683 32.8898 37.0283C33.3998 37.2383 33.6498 37.8183 33.4398 38.3283C33.2798 38.7183 32.9098 38.9483 32.5098 38.9483Z" fill="#FF2D20"/>
</g>
<defs>
<clipPath id="clip0_1079_2814">
<rect width="40" height="40" fill="white"/>
</clipPath>
</defs>
</svg>
