<?xml version="1.0" encoding="UTF-8"?>
<svg id="Layer_1" data-name="Layer 1" xmlns="http://www.w3.org/2000/svg" viewBox="0 0 40 40">
  <path d="m27.24,26.08c-4.15,7.11-4.34-1.67-8.33-.32-1.37,1.14-2.43,4.51-4.63,2.52-.89-.71-1.21-2.26-2.33-2.59-3.54-1.49-5.07,10.35-8.72-3.42C-.02,6.13,18.95-5.81,31.44,5.38c3.67,3.85,6.11,9.19,5.64,14.62-.33,2.87-.8,9.47-4.85,8.69-1.62-.91-2.75-4.68-4.98-2.61Zm.65-12.52s.03,0,.05,0c-2.64-11.9-18.02-8.82-16.88,2.93,1.13,10.73,19.51,7.98,16.83-2.93Z" style="fill: none; stroke: #ff2d20; stroke-linecap: round; stroke-linejoin: round; stroke-width: 2px;"/>
  <path d="m17.87,27c1.65-3.42,4.09-.09,5.55,1.62-.31,3,.67,6.39-.51,9.16-1.07,1.67-3.64,1.6-4.64-.09-.96-3.34-.09-7.19-.39-10.69Z" style="fill: none; stroke: #ff2d20; stroke-linecap: round; stroke-linejoin: round; stroke-width: 2px;"/>
  <path d="m27.24,26.08c2.24-2.06,3.36,1.69,4.98,2.61-.13,2.42.93,6.94-2.81,6.7-3.8-1-1.62-6.42-2.18-9.31Z" style="fill: none; stroke: #ff2d20; stroke-linecap: round; stroke-linejoin: round; stroke-width: 2px;"/>
  <path d="m9.05,27.23c1.38-3.07,3.87-1.46,4.99.82.13,2.42.33,7.11-3.41,5.92-2.57-1.1-1.26-4.55-1.57-6.74Z" style="fill: none; stroke: #ff2d20; stroke-linecap: round; stroke-linejoin: round; stroke-width: 2px;"/>
  <path d="m17.09,15.37c-1.28,0-2.27-.97-2.86-2-1.29-3.02,2.27-6.52,5.02-4.11,2.23,1.99,1,6.17-2.16,6.11Zm-.43-2.68c1.99.06,2.16-3.12.03-3.13-2.08-.09-2.12,3.14-.03,3.13Z" style="fill: none; stroke: #ff2d20; stroke-linecap: round; stroke-linejoin: round; stroke-width: 2px;"/>
</svg>