<?xml version="1.0" encoding="UTF-8"?>
<svg color="currentColor" xmlns="http://www.w3.org/2000/svg" viewBox="0 0 20 20">
  <path d="m9.31,20h-4.62c-2.59,0-4.69-2.1-4.69-4.69V4.69C0,2.1,2.1,0,4.69,0h4.62c2.59,0,4.69,2.1,4.69,4.69,0,.55-.45,1-1,1s-1-.45-1-1c0-1.48-1.21-2.69-2.69-2.69h-4.62c-1.48,0-2.69,1.21-2.69,2.69v10.62c0,1.48,1.21,2.69,2.69,2.69h4.62c1.48,0,2.69-1.21,2.69-2.69,0-.55.45-1,1-1s1,.45,1,1c0,2.59-2.1,4.69-4.69,4.69Z" />
  <path d="m19,11H7.5c-.55,0-1-.45-1-1s.45-1,1-1h9.58l-1.7-2.43c-.32-.45-.21-1.08.25-1.39.45-.32,1.08-.21,1.39.25l2.8,4c.21.31.24.7.07,1.04-.17.33-.51.54-.89.54Z" />
  <path d="m16.2,15c-.2,0-.4-.06-.57-.18-.45-.32-.56-.94-.25-1.39l1.7-2.43H7.5c-.55,0-1-.45-1-1s.45-1,1-1h11.5c.37,0,.71.21.89.54.17.33.15.73-.07,1.04l-2.8,4c-.19.28-.5.43-.82.43Z" />
</svg>
