<svg width="50" height="52" viewBox="0 0 50 52" fill="none" xmlns="http://www.w3.org/2000/svg">
<path fill-rule="evenodd" clip-rule="evenodd" d="M49.63 11.5589C49.65 11.6289 49.66 11.6989 49.66 11.7689V22.7389C49.66 23.0289 49.51 23.2889 49.26 23.4289L40.05 28.7289V39.2389C40.05 39.5289 39.9 39.7889 39.65 39.9289L20.43 50.9989C20.43 50.9989 20.34 51.0389 20.29 51.0589C20.27 51.0589 20.26 51.0789 20.24 51.0789C20.11 51.1189 19.96 51.1189 19.83 51.0789C19.81 51.0789 19.79 51.0589 19.77 51.0489C19.73 51.0289 19.68 51.0189 19.64 50.9989L0.4 39.9389C0.15 39.7989 0 39.5289 0 39.2489V6.32891C0 6.25891 0 6.18891 0.03 6.11891C0.03 6.09891 0.05 6.07891 0.06 6.04891C0.08 6.00891 0.09 5.95891 0.11 5.92891C0.13 5.89891 0.15 5.87891 0.16 5.85891C0.18 5.82891 0.2 5.78891 0.23 5.76891C0.25 5.74891 0.28 5.72891 0.31 5.70891C0.34 5.68891 0.37 5.65891 0.4 5.63891L10.01 0.108906C10.26 -0.0310937 10.56 -0.0310937 10.81 0.108906L20.42 5.63891C20.42 5.63891 20.48 5.68891 20.51 5.70891C20.54 5.72891 20.57 5.74891 20.59 5.76891C20.62 5.79891 20.64 5.82891 20.66 5.85891C20.68 5.87891 20.7 5.90891 20.71 5.92891C20.73 5.96891 20.75 6.00891 20.76 6.04891C20.76 6.06891 20.78 6.08891 20.79 6.11891C20.81 6.18891 20.82 6.25891 20.82 6.32891V26.8889L28.83 22.2789V11.7689C28.83 11.6989 28.84 11.6289 28.86 11.5589C28.86 11.5389 28.88 11.5089 28.89 11.4889C28.91 11.4489 28.92 11.3989 28.94 11.3689C28.95 11.3389 28.98 11.3189 28.99 11.2989C29.01 11.2689 29.03 11.2389 29.06 11.2089C29.08 11.1889 29.11 11.1689 29.14 11.1489C29.17 11.1289 29.2 11.0989 29.23 11.0789L38.84 5.54891C39.09 5.40891 39.39 5.40891 39.64 5.54891L49.25 11.0789C49.25 11.0789 49.31 11.1289 49.34 11.1489C49.37 11.1689 49.39 11.1889 49.42 11.2089C49.45 11.2389 49.47 11.2689 49.49 11.2989C49.51 11.3189 49.53 11.3489 49.54 11.3689C49.56 11.4089 49.58 11.4489 49.59 11.4889C49.59 11.5089 49.61 11.5289 49.62 11.5589H49.63ZM48.06 22.2789V13.1589L44.7 15.0989L40.05 17.7689V26.8889L48.06 22.2789ZM38.45 38.7889V29.6589L33.88 32.2689L20.83 39.7189V48.9389L38.45 38.7989V38.7889ZM1.6 7.71891V38.7889L19.22 48.9289V39.7189L10.02 34.5089C9.99 34.4889 9.96 34.4689 9.93 34.4389C9.91 34.4189 9.88 34.3989 9.85 34.3789C9.85 34.3789 9.81 34.3189 9.78 34.2889C9.76 34.2589 9.74 34.2389 9.72 34.2089C9.72 34.2089 9.69 34.1389 9.68 34.1089C9.67 34.0789 9.65 34.0489 9.64 34.0189C9.64 34.0189 9.63 33.9389 9.62 33.8989C9.62 33.8689 9.61 33.8389 9.61 33.8089V12.3289L4.97 9.64891L1.61 7.71891H1.6ZM10.41 1.71891L2.4 6.32891L10.4 10.9389L18.41 6.32891L10.41 1.71891ZM14.57 30.4789L19.22 27.8089V7.71891L15.86 9.65891L11.21 12.3389V32.4389L14.57 30.4989V30.4789ZM39.24 7.15891L31.23 11.7689L39.24 16.3789L47.25 11.7689L39.24 7.15891ZM38.44 17.7589L33.79 15.0789L30.43 13.1389V22.2589L35.08 24.9289L38.44 26.8689V17.7489V17.7589ZM20.02 38.3189L31.76 31.6189L37.63 28.2689L29.63 23.6589L20.42 28.9589L12.02 33.7889L20.01 38.3089L20.02 38.3189Z" fill="#FF2D20"/>
</svg>
