<?xml version="1.0" encoding="UTF-8"?>
<svg color="currentColor" xmlns="http://www.w3.org/2000/svg" viewBox="0 0 20 20">
  <path d="m15.54,14H4.46c-2.46,0-4.46-2-4.46-4.46v-4.08C0,3,2,1,4.46,1h11.09c2.46,0,4.46,2,4.46,4.46v4.08c0,2.46-2,4.46-4.46,4.46ZM4.46,3c-1.35,0-2.46,1.1-2.46,2.46v4.08c0,1.35,1.1,2.46,2.46,2.46h11.09c1.35,0,2.46-1.1,2.46-2.46v-4.08c0-1.35-1.1-2.46-2.46-2.46H4.46Z" />
  <path d="m10,18c-.55,0-1-.45-1-1v-3c0-.55.45-1,1-1s1,.45,1,1v3c0,.55-.45,1-1,1Z" />
  <path d="m15,19H5c-.55,0-1-.45-1-1s.45-1,1-1h10c.55,0,1,.45,1,1s-.45,1-1,1Z" />
</svg>
