<svg width="40" height="40" viewBox="0 0 40 40" fill="none" xmlns="http://www.w3.org/2000/svg">
<g clip-path="url(#clip0_1079_2850)">
<path d="M19.9998 13.8115C17.2898 13.8115 15.0898 11.6115 15.0898 8.90155C15.0898 8.12155 15.2798 7.34155 15.6398 6.64155C15.8898 6.15155 16.4998 5.96155 16.9898 6.21155C17.4798 6.46155 17.6698 7.07155 17.4198 7.56155C17.2098 7.97155 17.0998 8.42155 17.0998 8.89155C17.0998 10.4915 18.3998 11.8015 20.0098 11.8015C20.5598 11.8015 21.0098 12.2515 21.0098 12.8015C21.0098 13.3515 20.5598 13.8015 20.0098 13.8015L19.9998 13.8115Z" fill="#FF2D20"/>
<path d="M20 13.8094C19.45 13.8094 19 13.3594 19 12.8094C19 12.2594 19.45 11.8094 20 11.8094C21.6 11.8094 22.91 10.5094 22.91 8.89936C22.91 8.42936 22.8 7.97936 22.59 7.56936C22.34 7.07936 22.53 6.47936 23.02 6.21936C23.51 5.96936 24.11 6.15936 24.37 6.64936C24.73 7.33936 24.92 8.11936 24.92 8.90936C24.92 11.6194 22.72 13.8194 20.01 13.8194L20 13.8094Z" fill="#FF2D20"/>
<path d="M19.9998 8.11C18.2198 8.11 15.6898 7.47 15.5798 7.44C15.1898 7.34 14.8998 7.02 14.8398 6.63L13.9798 1.16C13.9398 0.87 14.0198 0.58 14.2098 0.36C14.3998 0.13 14.6798 0 14.9698 0H19.9998C20.5498 0 20.9998 0.45 20.9998 1C20.9998 1.55 20.5498 2 19.9998 2H16.1398L16.7098 5.65C17.5198 5.83 18.9498 6.11 19.9998 6.11C20.5498 6.11 20.9998 6.56 20.9998 7.11C20.9998 7.66 20.5498 8.11 19.9998 8.11Z" fill="#FF2D20"/>
<path d="M20 8.11C19.45 8.11 19 7.66 19 7.11C19 6.56 19.45 6.11 20 6.11C21.04 6.11 22.47 5.83 23.28 5.65L23.86 2H20C19.45 2 19 1.55 19 1C19 0.45 19.45 0 20 0H25.03C25.32 0 25.6 0.13 25.79 0.35C25.98 0.57 26.06 0.87 26.02 1.15L25.16 6.62C25.1 7.01 24.81 7.33 24.42 7.43C24.31 7.46 21.79 8.1 20 8.1V8.11Z" fill="#FF2D20"/>
<path d="M7.03012 26.6709C4.32012 26.6709 2.12012 24.4709 2.12012 21.7609C2.12012 20.9809 2.31012 20.2009 2.67012 19.5009C2.92012 19.0109 3.53012 18.8209 4.02012 19.0709C4.51012 19.3209 4.70012 19.9309 4.45012 20.4209C4.24012 20.8309 4.13012 21.2809 4.13012 21.7509C4.13012 23.3509 5.43012 24.6609 7.04012 24.6609C7.59012 24.6609 8.04012 25.1109 8.04012 25.6609C8.04012 26.2109 7.59012 26.6609 7.04012 26.6609L7.03012 26.6709Z" fill="#FF2D20"/>
<path d="M7.03027 26.6687C6.48027 26.6687 6.03027 26.2187 6.03027 25.6687C6.03027 25.1187 6.48027 24.6687 7.03027 24.6687C8.63027 24.6687 9.94027 23.3687 9.94027 21.7587C9.94027 21.2887 9.83027 20.8387 9.62027 20.4287C9.37027 19.9387 9.56027 19.3387 10.0503 19.0787C10.5403 18.8287 11.1403 19.0187 11.4003 19.5087C11.7603 20.1987 11.9503 20.9787 11.9503 21.7687C11.9503 24.4787 9.75027 26.6787 7.04027 26.6787L7.03027 26.6687Z" fill="#FF2D20"/>
<path d="M7.03005 20.9711C5.25005 20.9711 2.72005 20.3311 2.61005 20.3011C2.22005 20.2011 1.93005 19.8811 1.87005 19.4911L1.01005 14.0211C0.970047 13.7311 1.05005 13.4411 1.24005 13.2211C1.43005 13.0011 1.71005 12.8711 2.00005 12.8711H7.03005C7.58005 12.8711 8.03005 13.3211 8.03005 13.8711C8.03005 14.4211 7.58005 14.8711 7.03005 14.8711H3.17005L3.74005 18.5211C4.55005 18.7011 5.98005 18.9811 7.03005 18.9811C7.58005 18.9811 8.03005 19.4311 8.03005 19.9811C8.03005 20.5311 7.58005 20.9811 7.03005 20.9811V20.9711Z" fill="#FF2D20"/>
<path d="M7.03027 20.9694C6.48027 20.9694 6.03027 20.5194 6.03027 19.9694C6.03027 19.4194 6.48027 18.9694 7.03027 18.9694C8.07027 18.9694 9.50027 18.6894 10.3103 18.5094L10.8903 14.8594H7.03027C6.48027 14.8594 6.03027 14.4094 6.03027 13.8594C6.03027 13.3094 6.48027 12.8594 7.03027 12.8594H12.0603C12.3503 12.8594 12.6303 12.9894 12.8203 13.2094C13.0103 13.4294 13.0903 13.7294 13.0503 14.0094L12.1903 19.4794C12.1303 19.8694 11.8403 20.1894 11.4503 20.2894C11.3403 20.3194 8.82027 20.9594 7.03027 20.9594V20.9694Z" fill="#FF2D20"/>
<path d="M20.0002 17.3592C14.4002 17.3592 12.0402 12.4692 11.5702 9.87922C11.5202 9.58922 11.6002 9.28922 11.7902 9.05922C11.9802 8.82922 12.2602 8.69922 12.5602 8.69922H16.1002C16.6502 8.69922 17.1002 9.14922 17.1002 9.69922C17.1002 10.2492 16.6502 10.6992 16.1002 10.6992H13.8802C14.5102 12.4092 16.1402 15.3492 20.0002 15.3492C20.5502 15.3492 21.0002 15.7992 21.0002 16.3492C21.0002 16.8992 20.5502 17.3492 20.0002 17.3492V17.3592Z" fill="#FF2D20"/>
<path d="M11.5703 29.4592C11.0203 29.4592 10.5703 29.0092 10.5703 28.4592V15.6892C10.5703 13.7692 12.1303 12.1992 14.0603 12.1992C14.6103 12.1992 15.0603 12.6492 15.0603 13.1992C15.0603 13.7492 14.6103 14.1992 14.0603 14.1992C13.2403 14.1992 12.5703 14.8692 12.5703 15.6892V28.4592C12.5703 29.0092 12.1203 29.4592 11.5703 29.4592Z" fill="#FF2D20"/>
<path d="M20 23.1509C19.45 23.1509 19 22.7009 19 22.1509V16.3609C19 15.8109 19.45 15.3609 20 15.3609C23.86 15.3609 25.5 12.4109 26.12 10.7109H23.91C23.36 10.7109 22.91 10.2609 22.91 9.71094C22.91 9.16094 23.36 8.71094 23.91 8.71094H27.45C27.75 8.71094 28.03 8.84094 28.22 9.07094C28.41 9.30094 28.49 9.60094 28.44 9.89094C28 12.3209 25.89 16.7709 21.01 17.3109V22.1609C21.01 22.7109 20.56 23.1609 20.01 23.1609L20 23.1509Z" fill="#FF2D20"/>
<path d="M28.4304 21.0209C27.8804 21.0209 27.4304 20.5709 27.4304 20.0209V15.7009C27.4304 14.8809 26.7604 14.2109 25.9404 14.2109C25.3904 14.2109 24.9404 13.7609 24.9404 13.2109C24.9404 12.6609 25.3904 12.2109 25.9404 12.2109C27.8604 12.2109 29.4304 13.7809 29.4304 15.7009V20.0209C29.4304 20.5709 28.9804 21.0209 28.4304 21.0209Z" fill="#FF2D20"/>
<path d="M19.9996 35.8509H8.67956C8.33956 35.8509 8.01956 35.6809 7.83956 35.3909C7.65956 35.1009 7.62956 34.7409 7.76956 34.4309L12.8296 23.3209C13.1696 22.5009 13.9896 21.9609 14.9096 21.9609H20.0096C20.5596 21.9609 21.0096 22.4109 21.0096 22.9609C21.0096 23.5109 20.5596 23.9609 20.0096 23.9609H14.9096C14.7996 23.9609 14.7096 24.0209 14.6696 24.1209L10.2496 33.8409H20.0196C20.5696 33.8409 21.0196 34.2909 21.0196 34.8409C21.0196 35.3909 20.5696 35.8409 20.0196 35.8409L19.9996 35.8509Z" fill="#FF2D20"/>
<path d="M19.9997 40.0016H8.67969C8.12969 40.0016 7.67969 39.5516 7.67969 39.0016V34.8516C7.67969 34.3016 8.12969 33.8516 8.67969 33.8516C9.22969 33.8516 9.67969 34.3016 9.67969 34.8516V38.0016H19.9997C20.5497 38.0016 20.9997 38.4516 20.9997 39.0016C20.9997 39.5516 20.5497 40.0016 19.9997 40.0016Z" fill="#FF2D20"/>
<path d="M9.68 33.6498C9.17 33.6498 8.73 33.2598 8.68 32.7398L8.41 29.6798C5.05 29.6398 0 29.2098 0 24.3398C0 23.7898 0.45 23.3398 1 23.3398C1.55 23.3398 2 23.7898 2 24.3398C2 27.1298 4.69 27.6798 9.33 27.6798C9.85 27.6798 10.28 28.0798 10.33 28.5898L10.68 32.5598C10.73 33.1098 10.32 33.5998 9.77 33.6398C9.74 33.6398 9.71 33.6398 9.68 33.6398V33.6498Z" fill="#FF2D20"/>
<path d="M1.99967 39.9993C1.44967 39.9993 0.999669 39.5593 0.999669 39.0093C0.999669 38.0393 0.949669 29.4993 1.72967 27.2293C1.90967 26.7093 2.47967 26.4293 2.99967 26.6093C3.51967 26.7893 3.79967 27.3593 3.61967 27.8793C3.10967 29.3593 2.96967 35.3293 2.99967 38.9893C2.99967 39.5393 2.55967 39.9893 2.00967 39.9993H1.99967Z" fill="#FF2D20"/>
<path d="M32.9697 26.6687C32.4197 26.6687 31.9697 26.2187 31.9697 25.6687C31.9697 25.1187 32.4197 24.6687 32.9697 24.6687C34.5697 24.6687 35.8797 23.3687 35.8797 21.7587C35.8797 21.2887 35.7697 20.8387 35.5597 20.4287C35.3097 19.9387 35.4997 19.3387 35.9897 19.0787C36.4797 18.8287 37.0797 19.0187 37.3397 19.5087C37.6997 20.1987 37.8897 20.9787 37.8897 21.7687C37.8897 24.4787 35.6897 26.6787 32.9797 26.6787L32.9697 26.6687Z" fill="#FF2D20"/>
<path d="M32.9696 26.6709C30.2596 26.6709 28.0596 24.4709 28.0596 21.7609C28.0596 20.9809 28.2496 20.2009 28.6096 19.5009C28.8596 19.0109 29.4696 18.8209 29.9596 19.0709C30.4496 19.3209 30.6396 19.9309 30.3896 20.4209C30.1796 20.8309 30.0696 21.2809 30.0696 21.7509C30.0696 23.3509 31.3696 24.6609 32.9796 24.6609C33.5296 24.6609 33.9796 25.1109 33.9796 25.6609C33.9796 26.2109 33.5296 26.6609 32.9796 26.6609L32.9696 26.6709Z" fill="#FF2D20"/>
<path d="M32.9697 20.9694C32.4197 20.9694 31.9697 20.5194 31.9697 19.9694C31.9697 19.4194 32.4197 18.9694 32.9697 18.9694C34.0097 18.9694 35.4397 18.6894 36.2597 18.5094L36.8297 14.8594H32.9697C32.4197 14.8594 31.9697 14.4094 31.9697 13.8594C31.9697 13.3094 32.4197 12.8594 32.9697 12.8594H37.9997C38.2897 12.8594 38.5697 12.9894 38.7597 13.2094C38.9497 13.4294 39.0297 13.7294 38.9897 14.0094L38.1297 19.4794C38.0697 19.8694 37.7797 20.1894 37.3897 20.2894C37.2797 20.3194 34.7597 20.9594 32.9697 20.9594V20.9694Z" fill="#FF2D20"/>
<path d="M32.9705 20.9711C31.1905 20.9711 28.6605 20.3311 28.5505 20.3011C28.1605 20.2011 27.8705 19.8811 27.8105 19.4911L26.9505 14.0211C26.9105 13.7311 26.9905 13.4411 27.1805 13.2211C27.3705 13.0011 27.6505 12.8711 27.9405 12.8711H32.9705C33.5205 12.8711 33.9705 13.3211 33.9705 13.8711C33.9705 14.4211 33.5205 14.8711 32.9705 14.8711H29.1105L29.6805 18.5211C30.4905 18.7011 31.9205 18.9811 32.9705 18.9811C33.5205 18.9811 33.9705 19.4311 33.9705 19.9811C33.9705 20.5311 33.5205 20.9811 32.9705 20.9811V20.9711Z" fill="#FF2D20"/>
<path d="M31.32 35.8487H20C19.45 35.8487 19 35.3987 19 34.8487C19 34.2987 19.45 33.8487 20 33.8487H29.77L25.36 24.1588C25.31 24.0288 25.21 23.9688 25.11 23.9688H20.01C19.46 23.9688 19.01 23.5187 19.01 22.9688C19.01 22.4187 19.46 21.9688 20.01 21.9688H25.11C26.03 21.9688 26.85 22.5188 27.2 23.3588L32.24 34.4387C32.38 34.7487 32.36 35.1088 32.17 35.3988C31.99 35.6888 31.67 35.8588 31.33 35.8588L31.32 35.8487Z" fill="#FF2D20"/>
<path d="M31.32 40.0016H20C19.45 40.0016 19 39.5516 19 39.0016C19 38.4516 19.45 38.0016 20 38.0016H30.32V34.8516C30.32 34.3016 30.77 33.8516 31.32 33.8516C31.87 33.8516 32.32 34.3016 32.32 34.8516V39.0016C32.32 39.5516 31.87 40.0016 31.32 40.0016Z" fill="#FF2D20"/>
<path d="M30.3196 33.6516C30.3196 33.6516 30.2596 33.6516 30.2296 33.6516C29.6796 33.6016 29.2696 33.1216 29.3196 32.5716L29.6696 28.6016C29.7096 28.0816 30.1496 27.6916 30.6696 27.6916C35.3096 27.6916 37.9996 27.1416 37.9996 24.3516C37.9996 23.8016 38.4496 23.3516 38.9996 23.3516C39.5496 23.3516 39.9996 23.8016 39.9996 24.3516C39.9996 29.2216 34.9496 29.6516 31.5896 29.6916L31.3196 32.7516C31.2796 33.2716 30.8396 33.6616 30.3196 33.6616V33.6516Z" fill="#FF2D20"/>
<path d="M37.9996 39.9993C37.4496 39.9993 36.9996 39.5393 37.0096 38.9893C37.0396 35.3293 36.8996 29.3493 36.3896 27.8793C36.2096 27.3593 36.4896 26.7893 37.0096 26.6093C37.5296 26.4293 38.0996 26.7093 38.2796 27.2293C39.0596 29.4993 39.0196 38.0393 39.0096 39.0093C39.0096 39.5593 38.5596 39.9993 38.0096 39.9993H37.9996Z" fill="#FF2D20"/>
</g>
<defs>
<clipPath id="clip0_1079_2850">
<rect width="40" height="40" fill="white"/>
</clipPath>
</defs>
</svg>
