<?xml version="1.0" encoding="UTF-8"?>
<svg id="Layer_1" data-name="Layer 1" xmlns="http://www.w3.org/2000/svg" viewBox="0 0 40 40">
  <path d="m20,27.33c-4.04,0-7.33-3.29-7.33-7.33s3.29-7.33,7.33-7.33,7.33,3.29,7.33,7.33-3.29,7.33-7.33,7.33Zm0-12.67c-2.94,0-5.33,2.39-5.33,5.33s2.39,5.33,5.33,5.33,5.33-2.39,5.33-5.33-2.39-5.33-5.33-5.33Z" style="fill: #ff2d20;"/>
  <path d="m20,40C8.97,40,0,31.03,0,20S8.97,0,20,0s20,8.97,20,20-8.97,20-20,20Zm0-38C10.08,2,2,10.07,2,20s8.08,18,18,18,18-8.08,18-18S29.92,2,20,2Z" style="fill: #ff2d20;"/>
  <path d="m39,40c-.26,0-.51-.1-.71-.29L.29,1.71C-.1,1.32-.1.68.29.29S1.32-.1,1.71.29l38,38c.39.39.39,1.02,0,1.41-.2.2-.45.29-.71.29Z" style="fill: #ff2d20;"/>
  <path d="m1,40c-.26,0-.51-.1-.71-.29-.39-.39-.39-1.02,0-1.41L38.29.29c.39-.39,1.02-.39,1.41,0s.39,1.02,0,1.41L1.71,39.71c-.2.2-.45.29-.71.29Z" style="fill: #ff2d20;"/>
  <path d="m13.67,14.67H1C.45,14.67,0,14.22,0,13.67V1C0,.45.45,0,1,0h12.67C14.22,0,14.67.45,14.67,1v12.67c0,.55-.45,1-1,1Zm-11.67-2h10.67V2H2v10.67Z" style="fill: #ff2d20;"/>
  <path d="m26.33,14.67h-12.67c-.55,0-1-.45-1-1V1C12.67.45,13.11,0,13.67,0h12.67c.55,0,1,.45,1,1v12.67c0,.55-.45,1-1,1Zm-11.67-2h10.67V2h-10.67v10.67Z" style="fill: #ff2d20;"/>
  <path d="m39,14.67h-12.67c-.55,0-1-.45-1-1V1C25.33.45,25.78,0,26.33,0h12.67c.55,0,1,.45,1,1v12.67c0,.55-.45,1-1,1Zm-11.67-2h10.67V2h-10.67v10.67Z" style="fill: #ff2d20;"/>
  <path d="m13.67,27.33H1C.45,27.33,0,26.89,0,26.33v-12.67C0,13.11.45,12.67,1,12.67h12.67c.55,0,1,.45,1,1v12.67c0,.55-.45,1-1,1Zm-11.67-2h10.67v-10.67H2v10.67Z" style="fill: #ff2d20;"/>
  <path d="m26.33,27.33h-12.67c-.55,0-1-.45-1-1v-12.67c0-.55.45-1,1-1h12.67c.55,0,1,.45,1,1v12.67c0,.55-.45,1-1,1Zm-11.67-2h10.67v-10.67h-10.67v10.67Z" style="fill: #ff2d20;"/>
  <path d="m39,27.33h-12.67c-.55,0-1-.45-1-1v-12.67c0-.55.45-1,1-1h12.67c.55,0,1,.45,1,1v12.67c0,.55-.45,1-1,1Zm-11.67-2h10.67v-10.67h-10.67v10.67Z" style="fill: #ff2d20;"/>
  <path d="m13.67,40H1C.45,40,0,39.55,0,39v-12.67c0-.55.45-1,1-1h12.67c.55,0,1,.45,1,1v12.67c0,.55-.45,1-1,1Zm-11.67-2h10.67v-10.67H2v10.67Z" style="fill: #ff2d20;"/>
  <path d="m26.33,40h-12.67c-.55,0-1-.45-1-1v-12.67c0-.55.45-1,1-1h12.67c.55,0,1,.45,1,1v12.67c0,.55-.45,1-1,1Zm-11.67-2h10.67v-10.67h-10.67v10.67Z" style="fill: #ff2d20;"/>
  <path d="m39,40h-12.67c-.55,0-1-.45-1-1v-12.67c0-.55.45-1,1-1h12.67c.55,0,1,.45,1,1v12.67c0,.55-.45,1-1,1Zm-11.67-2h10.67v-10.67h-10.67v10.67Z" style="fill: #ff2d20;"/>
</svg>