<?xml version="1.0" encoding="UTF-8"?>
<svg id="Layer_1" data-name="Layer 1" xmlns="http://www.w3.org/2000/svg" viewBox="0 0 40 40">
  <g>
    <path d="m3.92,30.55H1c-.3,0-.58-.13-.77-.37-.19-.23-.27-.54-.21-.83l3.01-15.08c.09-.47.5-.8.98-.8h5.64c1.96.02,3.43.62,4.37,1.81.92,1.16,1.24,2.72.94,4.62-.11.82-.36,1.66-.74,2.46-.36.81-.89,1.56-1.54,2.22-.82.85-1.73,1.41-2.72,1.65-.87.21-1.79.32-2.72.32h-1.7l-.64,3.19c-.09.47-.5.8-.98.8Zm-1.7-2h.88l.64-3.19c.09-.47.5-.8.98-.8h2.52c.77,0,1.53-.09,2.24-.27.61-.15,1.2-.52,1.77-1.11.5-.5.88-1.05,1.15-1.65.3-.63.49-1.27.57-1.91.21-1.37.04-2.38-.53-3.1-.55-.69-1.47-1.04-2.82-1.05h-4.81l-2.61,13.08Zm3.72-4.35c-.07,0-.13,0-.2,0h-.28c-.14,0-.28-.01-.41-.03-.27-.04-.51-.19-.66-.42-.15-.22-.21-.5-.16-.77l1.26-6.29c.09-.47.5-.8.98-.8h.42c.13,0,.26,0,.4-.02,1.29-.01,2.32.1,3.17.36.9.27,1.89,1.12,1.45,3.67h0c-.38,2.14-1.21,3.43-2.48,3.85-.97.3-2.11.45-3.49.45Zm1.34-6.32l-.86,4.31c.95-.03,1.75-.15,2.4-.35.49-.16.89-.97,1.12-2.29.17-.99.02-1.36-.03-1.4-.67-.21-1.51-.3-2.53-.29-.03,0-.06,0-.1,0Zm3.64,1.85h0,0Z" style="fill: #ff2d20;"/>
    <path d="m24.41,26.55h-2.94c-.3,0-.58-.13-.77-.37-.19-.23-.27-.54-.21-.83l1.35-6.69c.08-.37.07-.58.05-.66-.08-.03-.28-.07-.65-.07h-1.52s-1.56,7.82-1.56,7.82c-.09.47-.5.8-.98.8h-2.9c-.3,0-.58-.13-.77-.37-.19-.23-.27-.54-.21-.83l3.03-15.1c.09-.47.5-.8.98-.8h2.9c.3,0,.58.13.77.37.19.23.27.54.21.83l-.58,2.82h1.38c1.69.03,2.93.39,3.82,1.1,1.03.81,1.36,2.21.99,4.16l-1.41,7.02c-.09.47-.5.8-.98.8Zm-1.72-2h.9l1.25-6.2c.12-.64.25-1.81-.27-2.21,0,0,0,0,0,0-.52-.42-1.39-.64-2.59-.66h-2.59c-.3,0-.58-.13-.77-.37-.19-.23-.27-.54-.21-.83l.58-2.82h-.86l-2.63,13.1h.86l1.56-7.84c.09-.47.5-.8.98-.8h0l2.33.02c1.07,0,1.81.27,2.24.84.41.54.51,1.29.31,2.29l-1.1,5.49Z" style="fill: #ff2d20;"/>
    <path d="m28.85,30.55h-2.92c-.3,0-.58-.13-.77-.37-.19-.23-.27-.54-.21-.83l3.01-15.08c.09-.47.5-.8.98-.8h5.64c1.97.02,3.44.62,4.38,1.81h0c.92,1.16,1.24,2.72.94,4.62-.11.82-.36,1.66-.74,2.46-.36.81-.89,1.56-1.54,2.22-.82.85-1.73,1.41-2.72,1.65-.87.21-1.79.32-2.72.32h-1.7l-.64,3.19c-.09.47-.5.8-.98.8Zm-1.7-2h.88l.64-3.19c.09-.47.5-.8.98-.8h2.52c.77,0,1.53-.09,2.24-.27.61-.15,1.2-.52,1.77-1.11.5-.5.88-1.05,1.15-1.65.3-.63.49-1.27.57-1.91.21-1.37.04-2.38-.53-3.1-.55-.7-1.47-1.04-2.82-1.05h-4.81l-2.61,13.08Zm3.72-4.35c-.06,0-.13,0-.19,0h-.28c-.14,0-.27-.01-.41-.03-.27-.04-.51-.19-.66-.42s-.21-.5-.16-.77l1.26-6.29c.09-.47.5-.8.98-.8h.42c.13,0,.26,0,.4-.02,1.3-.01,2.32.1,3.17.36.9.27,1.89,1.12,1.45,3.67h0c-.38,2.14-1.21,3.43-2.48,3.85-.96.3-2.13.45-3.49.45Zm1.35-6.32l-.86,4.31c.95-.03,1.75-.15,2.4-.35.49-.16.89-.97,1.12-2.29.17-.99.02-1.36-.03-1.4-.67-.21-1.51-.3-2.53-.29-.03,0-.06,0-.1,0Zm3.64,1.85h0,0Z" style="fill: #ff2d20;"/>
  </g>
  <path d="m1,9.09C.45,9.09,0,8.64,0,8.09v-2.83C0,2.36,2.36,0,5.26,0h2.83C8.64,0,9.09.45,9.09,1s-.45,1-1,1h-2.83c-1.8,0-3.26,1.46-3.26,3.26v2.83c0,.55-.45,1-1,1Z" style="fill: #ff2d20;"/>
  <path d="m39,9.09c-.55,0-1-.45-1-1v-2.83c0-1.8-1.46-3.26-3.26-3.26h-2.83c-.55,0-1-.45-1-1S31.36,0,31.91,0h2.83C37.64,0,40,2.36,40,5.26v2.83c0,.55-.45,1-1,1Z" style="fill: #ff2d20;"/>
  <path d="m8.09,40h-2.83C2.36,40,0,37.64,0,34.74v-2.83c0-.55.45-1,1-1s1,.45,1,1v2.83c0,1.8,1.46,3.26,3.26,3.26h2.83c.55,0,1,.45,1,1s-.45,1-1,1Z" style="fill: #ff2d20;"/>
  <path d="m34.74,40h-2.83c-.55,0-1-.45-1-1s.45-1,1-1h2.83c1.8,0,3.26-1.46,3.26-3.26v-2.83c0-.55.45-1,1-1s1,.45,1,1v2.83c0,2.9-2.36,5.26-5.26,5.26Z" style="fill: #ff2d20;"/>
</svg>