<?xml version="1.0" encoding="UTF-8"?>
<svg id="Layer_1" data-name="Layer 1" xmlns="http://www.w3.org/2000/svg" viewBox="0 0 40 40">
  <path d="m25.63,6.73h-11.26c-1.2,0-2.18-.98-2.18-2.18v-2.37C12.19.98,13.17,0,14.37,0h11.26C26.83,0,27.81.98,27.81,2.18v2.37c0,1.2-.98,2.18-2.18,2.18ZM14.37,2c-.1,0-.18.08-.18.18v2.37c0,.1.08.18.18.18h11.26c.1,0,.18-.08.18-.18v-2.37c0-.1-.08-.18-.18-.18h-11.26Z" style="fill: #ff2d20;"/>
  <path d="m34.82,25.17h-2.37c-1.2,0-2.18-.98-2.18-2.18v-11.26c0-1.2.98-2.18,2.18-2.18h2.37c1.2,0,2.18.98,2.18,2.18v11.26c0,1.2-.98,2.18-2.18,2.18Zm-2.37-13.62c-.1,0-.18.08-.18.18v11.26c0,.1.08.18.18.18h2.37c.1,0,.18-.08.18-.18v-11.26c0-.1-.08-.18-.18-.18h-2.37Z" style="fill: #ff2d20;"/>
  <path d="m7.55,25.17h-2.37c-1.2,0-2.18-.98-2.18-2.18v-11.26c0-1.2.98-2.18,2.18-2.18h2.37c1.2,0,2.18.98,2.18,2.18v11.26c0,1.2-.98,2.18-2.18,2.18Zm-2.37-13.62c-.1,0-.18.08-.18.18v11.26c0,.1.08.18.18.18h2.37c.1,0,.18-.08.18-.18v-11.26c0-.1-.08-.18-.18-.18h-2.37Z" style="fill: #ff2d20;"/>
  <path d="m8.96,13.5c-.13,0-.27-.03-.4-.08-.5-.22-.73-.81-.51-1.32,1.6-3.62,4.7-6.29,8.52-7.33.53-.15,1.08.17,1.23.7.14.53-.17,1.08-.7,1.23-3.18.87-5.88,3.19-7.21,6.21-.17.37-.53.6-.92.6Z" style="fill: #ff2d20;"/>
  <path d="m20,30.42c-5.39,0-10.16-3.24-12.14-8.25-.2-.51.05-1.09.56-1.3.51-.2,1.09.05,1.3.56,1.68,4.24,5.72,6.98,10.28,6.98.55,0,1,.45,1,1s-.45,1-1,1Z" style="fill: #ff2d20;"/>
  <path d="m31.04,13.5c-.38,0-.75-.22-.92-.6-1.33-3.02-4.03-5.34-7.21-6.21-.53-.14-.85-.69-.7-1.23.14-.53.69-.85,1.23-.7,3.81,1.04,6.92,3.71,8.52,7.33.22.51,0,1.1-.51,1.32-.13.06-.27.08-.4.08Z" style="fill: #ff2d20;"/>
  <path d="m20,30.42c-.55,0-1-.45-1-1s.45-1,1-1c4.57,0,8.6-2.74,10.28-6.98.2-.51.79-.76,1.3-.56.51.2.76.78.56,1.3-1.99,5.01-6.75,8.25-12.14,8.25Z" style="fill: #ff2d20;"/>
  <g>
    <path d="m14.55,20.96c-.06,0-.11,0-.17-.01-.32-.05-.59-.26-.73-.55-.92-1.92-.92-4.13,0-6.06.14-.29.41-.5.73-.55s.65.05.88.28l2.6,2.6c.19.19.29.44.29.71s-.11.52-.29.71l-2.6,2.6c-.19.19-.44.29-.71.29Zm.46-4.32c-.07.48-.07.97,0,1.45l.72-.72-.72-.72Z" style="fill: #ff2d20;"/>
    <path d="m17.15,18.36c-.26,0-.51-.1-.71-.29l-2.6-2.6c-.3-.3-.38-.75-.2-1.14.35-.73.81-1.39,1.37-1.95.56-.56,1.22-1.02,1.95-1.37.38-.18.84-.11,1.14.2l2.6,2.6c.39.39.39,1.02,0,1.41l-2.85,2.85c-.2.2-.45.29-.71.29Zm-1.36-3.77l1.36,1.36,1.43-1.43-1.36-1.36c-.29.19-.55.4-.79.64-.24.24-.45.5-.64.79Z" style="fill: #ff2d20;"/>
    <path d="m20,15.52c-.26,0-.51-.1-.71-.29l-2.6-2.6c-.23-.23-.33-.56-.28-.88.05-.32.26-.59.55-.73,1.93-.92,4.13-.92,6.06,0,.29.14.5.41.55.73.06.32-.05.65-.28.88l-2.6,2.6c-.2.2-.45.29-.71.29Zm-.72-3.14l.72.72.72-.72c-.48-.07-.96-.07-1.44,0Z" style="fill: #ff2d20;"/>
    <path d="m17.4,23.81c-.15,0-.29-.03-.43-.1-.73-.35-1.39-.81-1.95-1.37-.56-.56-1.02-1.22-1.37-1.95-.18-.38-.1-.84.2-1.14l2.6-2.6c.39-.39,1.02-.39,1.41,0l2.85,2.85c.39.39.39,1.02,0,1.41l-2.6,2.6c-.19.19-.45.29-.71.29Zm-1.61-3.67c.19.29.4.55.64.79s.5.45.79.64l1.36-1.36-1.43-1.43-1.36,1.36Z" style="fill: #ff2d20;"/>
    <path d="m22.85,18.36c-.26,0-.51-.1-.71-.29l-2.85-2.85c-.39-.39-.39-1.02,0-1.41l2.6-2.6c.3-.3.76-.38,1.14-.2.73.35,1.39.81,1.95,1.37.56.56,1.02,1.22,1.37,1.95.18.38.1.84-.2,1.14l-2.6,2.6c-.2.2-.45.29-.71.29Zm-1.43-3.85l1.43,1.43,1.36-1.36c-.19-.29-.4-.55-.64-.79-.24-.24-.5-.45-.79-.64l-1.36,1.36Z" style="fill: #ff2d20;"/>
    <path d="m20,24.4c-1.03,0-2.07-.23-3.03-.69-.29-.14-.5-.41-.55-.73-.05-.32.05-.65.28-.88l2.6-2.6c.39-.39,1.02-.39,1.41,0l2.6,2.6c.23.23.33.56.28.88-.05.32-.26.59-.55.73-.96.46-2,.69-3.03.69Zm-.72-2.05c.48.07.97.07,1.45,0l-.72-.72-.72.72Z" style="fill: #ff2d20;"/>
    <path d="m22.6,23.81c-.26,0-.52-.1-.71-.29l-2.6-2.6c-.39-.39-.39-1.02,0-1.41l2.85-2.85c.39-.39,1.02-.39,1.41,0l2.6,2.6c.3.3.38.76.2,1.14-.35.73-.81,1.39-1.37,1.95-.56.56-1.22,1.02-1.95,1.37-.14.07-.28.1-.43.1Zm-1.18-3.6l1.36,1.36c.29-.19.55-.4.79-.64s.45-.5.64-.79l-1.36-1.36-1.43,1.43Z" style="fill: #ff2d20;"/>
    <path d="m25.45,20.96c-.26,0-.52-.1-.71-.29l-2.6-2.6c-.19-.19-.29-.44-.29-.71s.11-.52.29-.71l2.6-2.6c.23-.23.56-.33.88-.28.32.05.59.26.73.55.92,1.92.92,4.13,0,6.06-.14.29-.41.5-.73.55-.06,0-.11.01-.17.01Zm-1.19-3.6l.72.72c.07-.48.07-.97,0-1.45l-.72.72Z" style="fill: #ff2d20;"/>
  </g>
  <path d="m20,30.95h-8.38c-1.4,0-2.53-1.14-2.53-2.53s1.14-2.53,2.53-2.53h.5c.55,0,1,.45,1,1s-.45,1-1,1h-.5c-.29,0-.53.24-.53.53s.24.53.53.53h8.38c.55,0,1,.45,1,1s-.45,1-1,1Z" style="fill: #ff2d20;"/>
  <path d="m28.38,30.95h-8.38c-.55,0-1-.45-1-1s.45-1,1-1h8.38c.29,0,.53-.24.53-.53s-.24-.53-.53-.53h-.5c-.55,0-1-.45-1-1s.45-1,1-1h.5c1.4,0,2.53,1.14,2.53,2.53s-1.14,2.53-2.53,2.53Z" style="fill: #ff2d20;"/>
  <path d="m20,40c-9.76,0-14.34-1.07-16.9-3.93-1.73-1.94-1.45-5.26-1.43-5.4.04-.49.43-.87.92-.91l3.06-.23c.3-.02.61.1.82.33,0,0,1.01,1.09,2.29,1.06.77-.03,1.53-.51,2.25-1.43.34-.43.97-.51,1.4-.17.43.34.51.97.17,1.4-1.11,1.41-2.37,2.14-3.76,2.19-1.62.07-2.85-.83-3.45-1.35l-1.72.13c.04.94.25,2.27.94,3.04,2.1,2.35,6.42,3.27,15.41,3.27s13.31-.92,15.42-3.27c.69-.78.9-2.1.94-3.04l-1.72-.13c-.6.52-1.85,1.43-3.45,1.35-1.39-.05-2.66-.79-3.76-2.19-.34-.43-.27-1.06.17-1.4.44-.34,1.06-.27,1.4.17.72.92,1.48,1.4,2.25,1.43,1.29.03,2.28-1.05,2.29-1.06.21-.22.51-.35.81-.32l3.06.23c.49.04.88.42.92.91.01.14.3,3.46-1.43,5.4-2.57,2.87-7.15,3.93-16.91,3.93Z" style="fill: #ff2d20;"/>
  <path d="m36.55,6.73c-1.85,0-3.36-1.51-3.36-3.36S34.7,0,36.55,0s3.36,1.51,3.36,3.36-1.51,3.36-3.36,3.36Zm0-4.72c-.75,0-1.36.61-1.36,1.36s.61,1.36,1.36,1.36,1.36-.61,1.36-1.36-.61-1.36-1.36-1.36Z" style="fill: #ff2d20;"/>
  <path d="m31.21,8.37c-.89,0-1.62-.73-1.62-1.62s.73-1.62,1.62-1.62,1.62.73,1.62,1.62-.73,1.62-1.62,1.62Zm0-2c-.21,0-.38.17-.38.38s.17.38.38.38.38-.17.38-.38-.17-.38-.38-.38Z" style="fill: #ff2d20;"/>
  <path d="m1.82,28.74c-.89,0-1.62-.73-1.62-1.62s.73-1.62,1.62-1.62,1.62.73,1.62,1.62-.73,1.62-1.62,1.62Zm0-2c-.21,0-.38.17-.38.38s.17.38.38.38.38-.17.38-.38-.17-.38-.38-.38Z" style="fill: #ff2d20;"/>
  <path d="m7,7.75c-1.29,0-2.34-1.05-2.34-2.34s1.05-2.34,2.34-2.34,2.34,1.05,2.34,2.34-1.05,2.34-2.34,2.34Zm0-2.69c-.19,0-.34.15-.34.34s.15.34.34.34.34-.15.34-.34-.15-.34-.34-.34Z" style="fill: #ff2d20;"/>
  <path d="m38.26,40c-.89,0-1.62-.73-1.62-1.62s.73-1.62,1.62-1.62,1.62.73,1.62,1.62-.73,1.62-1.62,1.62Zm0-2c-.21,0-.38.17-.38.38s.17.38.38.38.38-.17.38-.38-.17-.38-.38-.38Z" style="fill: #ff2d20;"/>
</svg>