<svg width="40" height="40" viewBox="0 0 40 40" fill="none" xmlns="http://www.w3.org/2000/svg">
<path d="M20 18.3792C8.26 18.3792 0.94 15.5792 0.64 15.4592C0.25 15.3092 0 14.9392 0 14.5292C0 7.11922 8.22 1.94922 20 1.94922C31.78 1.94922 40 7.11922 40 14.5292C40 14.9392 39.75 15.3092 39.36 15.4592C39.05 15.5792 31.74 18.3792 20 18.3792ZM2.03 13.8292C4.07 14.4992 10.63 16.3792 20 16.3792C29.37 16.3792 35.93 14.4992 37.97 13.8292C37.44 7.96922 30.2 3.94922 20 3.94922C9.8 3.94922 2.56 7.97922 2.03 13.8292Z" fill="#FF2D20"/>
<path d="M20 24.1273C13.18 24.1273 6.54 22.7573 3.18 21.9373C1.31 21.4773 0 19.8173 0 17.8773V14.5273C0 13.9773 0.45 13.5273 1 13.5273C1.55 13.5273 2 13.9773 2 14.5273V17.8773C2 18.8873 2.68 19.7573 3.66 19.9973C6.93 20.7973 13.4 22.1373 20 22.1373C26.6 22.1373 33.08 20.7973 36.34 19.9973C37.32 19.7573 38 18.8873 38 17.8773V14.5273C38 13.9773 38.45 13.5273 39 13.5273C39.55 13.5273 40 13.9773 40 14.5273V17.8773C40 19.8073 38.69 21.4773 36.82 21.9373C33.47 22.7573 26.82 24.1273 20 24.1273Z" fill="#FF2D20"/>
<path d="M19.9998 38.0485C11.3298 38.0485 5.87984 36.4385 3.81984 33.2685C0.62984 28.3485 1.05984 23.8685 1.78984 20.5185C1.90984 19.9785 2.42984 19.6385 2.97984 19.7585C3.51984 19.8785 3.85984 20.4085 3.73984 20.9485C3.04984 24.1085 2.71984 27.9085 5.48984 32.1785C7.10984 34.6785 12.2598 36.0485 19.9898 36.0485C27.7198 36.0485 32.8698 34.6685 34.4898 32.1785C37.2598 27.9085 36.9298 24.1085 36.2398 20.9485C36.1198 20.4085 36.4598 19.8785 36.9998 19.7585C37.5398 19.6385 38.0698 19.9785 38.1898 20.5185C38.9198 23.8685 39.3498 28.3485 36.1598 33.2685C34.0998 36.4385 28.6598 38.0485 19.9798 38.0485H19.9998Z" fill="#FF2D20"/>
<path d="M35.8704 16.4881C35.4304 16.4881 35.0204 16.1981 34.9104 15.7481C33.4404 10.2481 28.5704 7.56813 20.0104 7.56813C11.4504 7.56813 6.57036 10.2381 5.11036 15.7481C4.97036 16.2881 4.42036 16.5981 3.89036 16.4581C3.36036 16.3181 3.04036 15.7681 3.18036 15.2381C4.89036 8.82812 10.5504 5.57812 20.0104 5.57812C29.4704 5.57812 35.1404 8.82812 36.8404 15.2381C36.9804 15.7681 36.6704 16.3181 36.1304 16.4581C36.0404 16.4781 35.9604 16.4881 35.8704 16.4881Z" fill="#FF2D20"/>
<path d="M2.95007 29.1577C2.84007 29.1577 2.73007 29.1577 2.62007 29.1577C2.07007 29.1477 1.63007 28.6877 1.65007 28.1277C1.66007 27.5777 2.11007 27.1577 2.68007 27.1577C2.77007 27.1577 2.86007 27.1577 2.95007 27.1577C8.77007 27.1577 10.1001 22.4177 10.1501 22.2077C10.2901 21.6777 10.8301 21.3577 11.3701 21.4977C11.9001 21.6377 12.2201 22.1777 12.0901 22.7077C12.0701 22.7777 10.3501 29.1577 2.95007 29.1577Z" fill="#FF2D20"/>
<path d="M20.3303 38.0495C19.8703 38.0495 19.4603 37.7295 19.3503 37.2595C19.2303 36.7195 19.5703 36.1895 20.1103 36.0695C24.9003 35.0195 28.6203 32.5095 30.3303 29.1895C31.4903 26.9295 31.6303 24.5195 30.7203 22.3995C30.5003 21.8895 30.7403 21.2995 31.2503 21.0895C31.7603 20.8695 32.3403 21.1095 32.5603 21.6195C33.7103 24.2995 33.5503 27.3195 32.1103 30.1195C30.1003 34.0295 25.9903 36.8395 20.5403 38.0295C20.4703 38.0495 20.4003 38.0495 20.3203 38.0495H20.3303Z" fill="#FF2D20"/>
<path d="M8.30957 36.4011C7.75957 36.4011 7.30957 35.9511 7.30957 35.4011C7.30957 34.8511 7.75957 34.4011 8.30957 34.4011C11.6496 34.4011 14.8396 33.1111 17.0596 30.8511C19.0896 28.7911 20.1296 26.1211 20.0796 23.1411C20.0796 22.5911 20.5096 22.1311 21.0596 22.1211H21.0796C21.6196 22.1211 22.0696 22.5611 22.0796 23.1011C22.1396 26.6311 20.8996 29.7911 18.4896 32.2511C15.8996 34.8911 12.1896 36.4011 8.31957 36.4011H8.30957Z" fill="#FF2D20"/>
<path d="M22.9702 37.9792C22.8902 37.9792 22.8202 37.9792 22.7402 37.9492C14.2202 35.9692 4.7902 30.5892 3.8802 21.4092C3.8302 20.8592 4.2302 20.3692 4.7802 20.3192C5.3502 20.2792 5.8202 20.6692 5.8702 21.2192C6.6802 29.3492 15.3502 34.1892 23.1902 36.0092C23.7302 36.1292 24.0602 36.6692 23.9402 37.2092C23.8302 37.6692 23.4202 37.9792 22.9702 37.9792Z" fill="#FF2D20"/>
<path d="M34.12 35.0273C34.12 35.0273 34.1 35.0273 34.08 35.0273C23.86 34.6573 16.72 30.6873 12.86 23.2373C12.61 22.7473 12.8 22.1473 13.29 21.8873C13.78 21.6373 14.38 21.8273 14.64 22.3173C18.15 29.0773 24.71 32.6773 34.16 33.0273C34.71 33.0473 35.14 33.5073 35.12 34.0673C35.1 34.6073 34.66 35.0273 34.12 35.0273Z" fill="#FF2D20"/>
<path d="M35.6895 28.4094C32.6295 28.4094 26.7895 27.8194 24.4095 23.6094C24.1395 23.1294 24.3095 22.5194 24.7895 22.2494C25.2695 21.9794 25.8795 22.1494 26.1495 22.6294C28.7395 27.1994 37.3195 26.3494 37.4095 26.3394C37.9695 26.2794 38.4495 26.6794 38.5095 27.2294C38.5695 27.7794 38.1695 28.2694 37.6195 28.3294C37.5095 28.3394 36.7795 28.4194 35.6895 28.4194V28.4094Z" fill="#FF2D20"/>
<path d="M7.32981 11.1594C7.32981 11.1594 7.22981 11.1594 7.17981 11.1494C7.04981 11.1294 4.01981 10.6494 3.46981 7.6794C3.36981 7.1394 3.72981 6.6194 4.26981 6.5194C4.80981 6.4094 5.32981 6.7794 5.42981 7.3194C5.71981 8.8694 7.39981 9.1694 7.46981 9.1794C8.00981 9.2694 8.38981 9.7794 8.29981 10.3194C8.21981 10.8094 7.79981 11.1694 7.31981 11.1694L7.32981 11.1594Z" fill="#FF2D20"/>
<path d="M13.3202 7.72875C13.0202 7.72875 12.7302 7.59875 12.5302 7.33875C12.3902 7.15875 11.1202 5.50875 10.7002 4.27875C10.5202 3.75875 10.7902 3.18875 11.3202 3.00875C11.8402 2.82875 12.4102 3.09875 12.5902 3.62875C12.8602 4.40875 13.7802 5.68875 14.1102 6.11875C14.4502 6.55875 14.3702 7.17875 13.9302 7.51875C13.7502 7.65875 13.5302 7.72875 13.3202 7.72875Z" fill="#FF2D20"/>
<path d="M19.9998 7.57073C19.9998 7.57073 19.9498 7.57073 19.9198 7.57073C19.3698 7.53073 18.9598 7.04073 18.9998 6.49073C18.9998 6.48073 19.1098 5.07073 18.9998 3.00073C18.9698 2.45073 19.3898 1.98073 19.9498 1.95073C20.4498 1.92073 20.9698 2.34073 20.9998 2.90073C21.1198 5.11073 20.9998 6.59073 20.9998 6.65073C20.9598 7.17073 20.5198 7.57073 19.9998 7.57073Z" fill="#FF2D20"/>
<path d="M25.9904 8.09963C25.5204 8.09963 25.1105 7.76963 25.0105 7.29963C24.9005 6.75963 25.2505 6.22963 25.7905 6.11963C27.0605 5.85963 27.3605 3.83963 27.3705 3.81963C27.4405 3.26963 27.9504 2.87963 28.4904 2.95963C29.0405 3.02963 29.4205 3.52963 29.3505 4.06963C29.3305 4.20963 28.8905 7.52963 26.1905 8.06963C26.1205 8.07963 26.0604 8.08963 25.9904 8.08963V8.09963Z" fill="#FF2D20"/>
<path d="M32.5597 10.5519C32.0197 10.5519 31.5697 10.1219 31.5597 9.57187C31.5497 9.02187 31.9897 8.56187 32.5397 8.55187C33.5297 8.53187 34.4297 7.41187 34.6897 6.98187C34.9797 6.51187 35.5897 6.36187 36.0597 6.65187C36.5297 6.94187 36.6797 7.55187 36.3997 8.02187C36.3397 8.12187 34.8797 10.5119 32.5797 10.5619H32.5597V10.5519Z" fill="#FF2D20"/>
</svg>
