<?xml version="1.0" encoding="UTF-8"?>
<svg id="Layer_1" data-name="Layer 1" xmlns="http://www.w3.org/2000/svg" viewBox="0 0 40 40">
  <g>
    <path d="m8.77,13.27H1v-3.89c0-2.15,1.74-3.89,3.89-3.89h0c2.15,0,3.89,1.74,3.89,3.89v11.85l3.72,2.81-3.72,2.68v3.89c0,2.15,1.74,3.89,3.89,3.89h0c2.15,0,3.89-1.74,3.89-3.89v-3.89h22.46v3.89c0,2.15-1.74,3.89-3.89,3.89" style="fill: none; stroke: #ff2d20; stroke-linecap: round; stroke-linejoin: round; stroke-width: 2px;"/>
    <path d="m31.23,26.73v-7.48l-2.03-.5,2.03-1.85v-7.51c0-2.15-1.74-3.89-3.89-3.89H4.89" style="fill: none; stroke: #ff2d20; stroke-linecap: round; stroke-linejoin: round; stroke-width: 2px;"/>
    <line x1="12.66" y1="34.5" x2="35.11" y2="34.5" style="fill: none; stroke: #ff2d20; stroke-linecap: round; stroke-linejoin: round; stroke-width: 2px;"/>
    <path d="m28.65,34.5c1.46-.77,2.87-1.99,3.02-4.24" style="fill: none; stroke: #ff2d20; stroke-linecap: round; stroke-linejoin: round; stroke-width: 2px;"/>
    <path d="m13.77,9.85c-.18-1.64-.8-3.4-2.85-4.35" style="fill: none; stroke: #ff2d20; stroke-linecap: round; stroke-linejoin: round; stroke-width: 2px;"/>
    <path d="m18.06,9.85c-.18-1.64-.8-3.4-2.85-4.35" style="fill: none; stroke: #ff2d20; stroke-linecap: round; stroke-linejoin: round; stroke-width: 2px;"/>
    <path d="m32.86,34.5c1.46-.77,2.87-1.99,3.02-4.24" style="fill: none; stroke: #ff2d20; stroke-linecap: round; stroke-linejoin: round; stroke-width: 2px;"/>
  </g>
  <line x1="27.28" y1="1" x2="27.28" y2="2.5" style="fill: none; stroke: #ff2d20; stroke-linecap: round; stroke-linejoin: round; stroke-width: 2px;"/>
  <line x1="35.73" y1="9.5" x2="34.23" y2="9.5" style="fill: none; stroke: #ff2d20; stroke-linecap: round; stroke-linejoin: round; stroke-width: 2px;"/>
  <line x1="32.48" y1="4.29" x2="35.78" y2="1" style="fill: none; stroke: #ff2d20; stroke-linecap: round; stroke-linejoin: round; stroke-width: 2px;"/>
  <line x1="12.75" y1="39" x2="12.75" y2="37.5" style="fill: none; stroke: #ff2d20; stroke-linecap: round; stroke-linejoin: round; stroke-width: 2px;"/>
  <line x1="4.31" y1="30.5" x2="5.81" y2="30.5" style="fill: none; stroke: #ff2d20; stroke-linecap: round; stroke-linejoin: round; stroke-width: 2px;"/>
  <line x1="7.55" y1="35.71" x2="4.26" y2="39" style="fill: none; stroke: #ff2d20; stroke-linecap: round; stroke-linejoin: round; stroke-width: 2px;"/>
  <line x1="13.77" y1="14.64" x2="26.45" y2="14.64" style="fill: none; stroke: #ff2d20; stroke-linecap: round; stroke-linejoin: round; stroke-width: 2px;"/>
  <line x1="13.77" y1="19.33" x2="18.89" y2="19.33" style="fill: none; stroke: #ff2d20; stroke-linecap: round; stroke-linejoin: round; stroke-width: 2px;"/>
</svg>