<svg width="40" height="40" viewBox="0 0 40 40" fill="none" xmlns="http://www.w3.org/2000/svg">
<g clip-path="url(#clip0_1079_2767)">
<path d="M20 7C18.07 7 16.5 5.43 16.5 3.5C16.5 1.57 18.07 0 20 0C21.93 0 23.5 1.57 23.5 3.5C23.5 5.43 21.93 7 20 7ZM20 2C19.17 2 18.5 2.67 18.5 3.5C18.5 4.33 19.17 5 20 5C20.83 5 21.5 4.33 21.5 3.5C21.5 2.67 20.83 2 20 2Z" fill="#FF2D20"/>
<path d="M23.9204 40.01H16.0904C15.8104 40.01 15.5504 39.9 15.3604 39.7C15.1704 39.5 15.0704 39.23 15.0904 38.95L15.7004 28.95C15.7304 28.4 16.2204 27.98 16.7604 28.01C17.3104 28.04 17.7304 28.52 17.7004 29.07L17.1604 38.01H22.8704L22.2704 28.06C22.2404 27.51 22.6604 27.03 23.2104 27C23.7604 27 24.2404 27.39 24.2704 27.94L24.9404 38.95C24.9604 39.23 24.8604 39.49 24.6704 39.7C24.4804 39.9 24.2204 40.01 23.9404 40.01H23.9204Z" fill="#FF2D20"/>
<path d="M22.8196 21.9986C22.2996 21.9986 21.8596 21.5886 21.8196 21.0586L21.4996 15.7086C21.4696 15.1586 21.8896 14.6786 22.4396 14.6486C22.9796 14.6386 23.4696 15.0386 23.4996 15.5886L23.8196 20.9386C23.8496 21.4886 23.4296 21.9686 22.8796 21.9986C22.8596 21.9986 22.8396 21.9986 22.8196 21.9986Z" fill="#FF2D20"/>
<path d="M22.0802 9.67C21.5602 9.67 21.1202 9.26 21.0802 8.73L20.9802 7H19.0302L18.9302 8.73C18.9002 9.28 18.4202 9.69 17.8702 9.67C17.3202 9.64 16.9002 9.16 16.9302 8.61L17.0902 5.94C17.1202 5.41 17.5602 5 18.0902 5H21.9202C22.4502 5 22.8902 5.41 22.9202 5.94L23.0802 8.61C23.1102 9.16 22.6902 9.64 22.1402 9.67C22.1202 9.67 22.1002 9.67 22.0802 9.67Z" fill="#FF2D20"/>
<path d="M17.1499 22.5103C17.1499 22.5103 17.11 22.5103 17.09 22.5103C16.54 22.4803 16.1199 22.0003 16.1499 21.4503L16.4999 15.6003C16.5299 15.0503 17.0099 14.6503 17.5599 14.6603C18.1099 14.6903 18.5299 15.1703 18.4999 15.7203L18.1499 21.5703C18.1199 22.1003 17.6799 22.5103 17.1499 22.5103Z" fill="#FF2D20"/>
<path d="M34.1801 16.6597H6.85012C6.50012 16.6597 6.17012 16.4697 5.99012 16.1697C5.81012 15.8697 5.80012 15.4897 5.97012 15.1797L7.67012 12.0397L5.99012 9.17969C5.81012 8.86969 5.81012 8.48969 5.99012 8.17969C6.17012 7.86969 6.50012 7.67969 6.86012 7.67969H34.1901C34.4801 7.67969 34.7501 7.79969 34.9401 8.01969L37.9101 11.3697C38.2301 11.7397 38.2501 12.2897 37.9401 12.6597L34.9701 16.2997C34.7801 16.5297 34.5001 16.6697 34.1901 16.6697L34.1801 16.6597ZM8.53012 14.6597H33.7101L35.8401 12.0497L33.7301 9.66969H8.60012L9.68012 11.5097C9.86012 11.8097 9.86012 12.1797 9.70012 12.4897L8.53012 14.6497V14.6597Z" fill="#FF2D20"/>
<path d="M7.88041 31.161C7.63041 31.161 7.39041 31.071 7.20041 30.891L3.75041 27.701C3.39041 27.371 3.33041 26.821 3.60041 26.411L6.07041 22.681C6.23041 22.441 6.48041 22.281 6.76041 22.241L33.8204 18.431C34.1804 18.371 34.5304 18.521 34.7504 18.811C34.9704 19.091 35.0204 19.471 34.8804 19.801L33.6104 22.871L35.7304 25.741C35.9404 26.021 35.9804 26.401 35.8504 26.721C35.7104 27.041 35.4204 27.271 35.0704 27.321L8.01041 31.131C8.01041 31.131 7.92041 31.131 7.87041 31.131L7.88041 31.161ZM5.74041 26.811L8.21041 29.101L33.1404 25.591L31.6804 23.611C31.4704 23.331 31.4304 22.961 31.5604 22.641L32.3804 20.661L7.49041 24.161L5.74041 26.811Z" fill="#FF2D20"/>
</g>
<defs>
<clipPath id="clip0_1079_2767">
<rect width="40" height="40" fill="white"/>
</clipPath>
</defs>
</svg>
