<?xml version="1.0" encoding="UTF-8"?>
<svg id="Layer_1" data-name="Layer 1" xmlns="http://www.w3.org/2000/svg" viewBox="0 0 40 40">
  <path d="m30,9.86H4c-.55,0-1-.45-1-1V1C3,.45,3.45,0,4,0h26C30.55,0,31,.45,31,1v7.86c0,.55-.45,1-1,1ZM5,7.86h24V2H5v5.86Z" style="fill: #ff2d20;"/>
  <path d="m36.14,9.86h-6.14c-.55,0-1-.45-1-1V1C29,.45,29.45,0,30,0h6.14C36.69,0,37.14.45,37.14,1v7.86c0,.55-.45,1-1,1Zm-5.14-2h4.14V2h-4.14v5.86Z" style="fill: #ff2d20;"/>
  <path d="m27,38H1c-.42,0-.8-.27-.94-.67s-.02-.84.31-1.11c.02-.02,2.63-2.2,2.63-5.02V6.86c0-.55.45-1,1-1s1,.45,1,1v24.35c0,1.96-.87,3.63-1.73,4.79h23.34c.66-.63,2.38-2.49,2.38-4.79V6.86c0-.55.45-1,1-1s1,.45,1,1v24.35c0,3.78-3.23,6.46-3.37,6.57-.18.15-.4.22-.63.22Z" style="fill: #ff2d20;"/>
  <path d="m36.14,40H8.85c-.55,0-1-.45-1-1v-2c0-.55.45-1,1-1s1,.45,1,1v1h25.29V8.86c0-.55.45-1,1-1s1,.45,1,1v30.14c0,.55-.45,1-1,1Z" style="fill: #ff2d20;"/>
  <path d="m17,28.3c-.55,0-1-.45-1-1v-8.69l-1.09,1.73c-.29.47-.91.61-1.38.31-.47-.29-.61-.91-.31-1.38l2.94-4.66c.24-.38.7-.55,1.12-.43.43.12.72.52.72.96v12.16c0,.55-.45,1-1,1Z" style="fill: #ff2d20;"/>
  <path d="m19.17,28.3h-4.67c-.55,0-1-.45-1-1s.45-1,1-1h4.67c.55,0,1,.45,1,1s-.45,1-1,1Z" style="fill: #ff2d20;"/>
</svg>