<?xml version="1.0" encoding="UTF-8"?>
<svg xmlns="http://www.w3.org/2000/svg" viewBox="0 0 20 20">
  <path d="m16,8c-2.21,0-4-1.79-4-4S13.79,0,16,0s4,1.79,4,4-1.79,4-4,4Zm0-6c-1.1,0-2,.9-2,2s.9,2,2,2,2-.9,2-2-.9-2-2-2Z"/>
  <path d="m4,14c-2.21,0-4-1.79-4-4s1.79-4,4-4,4,1.79,4,4-1.79,4-4,4Zm0-6c-1.1,0-2,.9-2,2s.9,2,2,2,2-.9,2-2-.9-2-2-2Z"/>
  <path d="m6.68,9.66c-.37,0-.72-.2-.9-.55-.25-.49-.05-1.09.45-1.34l6.63-3.32c.49-.25,1.09-.05,1.34.45.25.49.05,1.09-.45,1.34l-6.63,3.32c-.14.07-.3.11-.45.11Z"/>
  <path d="m16,20c-2.21,0-4-1.79-4-4s1.79-4,4-4,4,1.79,4,4-1.79,4-4,4Zm0-6c-1.1,0-2,.9-2,2s.9,2,2,2,2-.9,2-2-.9-2-2-2Z"/>
  <path d="m13.32,15.66c-.15,0-.3-.03-.45-.11l-6.63-3.32c-.49-.25-.69-.85-.45-1.34.25-.49.85-.69,1.34-.45l6.63,3.32c.49.25.69.85.45,1.34-.18.35-.53.55-.9.55Z"/>
</svg>
