<?xml version="1.0" encoding="UTF-8"?>
<svg xmlns="http://www.w3.org/2000/svg" viewBox="0 0 20 20">
  <path d="m15.56,19.56c-.21,0-.41-.06-.59-.19l-4.97-3.61-4.97,3.61c-.35.26-.82.26-1.18,0-.35-.25-.5-.71-.36-1.12l1.9-5.85L.41,8.79c-.35-.25-.5-.71-.36-1.12s.52-.69.95-.69h6.15l1.9-5.85c.13-.41.52-.69.95-.69s.82.28.95.69l1.9,5.85h6.15c.43,0,.82.28.95.69s-.01.86-.36,1.12l-4.97,3.61,1.9,5.85c.13.41-.01.86-.36,1.12-.18.13-.38.19-.59.19Zm-5.56-6.04c.21,0,.41.06.59.19l3.07,2.23-1.17-3.61c-.13-.41.01-.86.36-1.12l3.07-2.23h-3.8c-.43,0-.82-.28-.95-.69l-1.17-3.61-1.17,3.61c-.13.41-.52.69-.95.69h-3.8l3.07,2.23c.35.25.5.71.36,1.12l-1.17,3.61,3.07-2.23c.18-.13.38-.19.59-.19Z"/>
</svg>
