<svg width="20" height="20" viewBox="0 0 20 20" fill="none" xmlns="http://www.w3.org/2000/svg">
<mask id="mask0_1316_1120" style="mask-type:luminance" maskUnits="userSpaceOnUse" x="0" y="0" width="20" height="20">
<path d="M20 0H0V20H20V0Z" fill="white"/>
</mask>
<g mask="url(#mask0_1316_1120)">
<path d="M10 8.00125C8.9 8.00125 8 7.10125 8 6.00125C8 5.65125 8.09 5.32125 8.25 5.03125" stroke="#7F7F7F" stroke-width="2" stroke-linecap="round" stroke-linejoin="round"/>
<path d="M10 1H7L8.16 5.23H10" stroke="#7F7F7F" stroke-width="2" stroke-linecap="round" stroke-linejoin="round"/>
<path d="M10 8.00125C11.1 8.00125 12 7.10125 12 6.00125C12 5.65125 11.91 5.32125 11.75 5.03125" stroke="#7F7F7F" stroke-width="2" stroke-linecap="round" stroke-linejoin="round"/>
<path d="M10 1H13L11.84 5.23H10" stroke="#7F7F7F" stroke-width="2" stroke-linecap="round" stroke-linejoin="round"/>
<path d="M4 19.0012C2.9 19.0012 2 18.1012 2 17.0012C2 16.6512 2.09 16.3212 2.25 16.0312" stroke="#7F7F7F" stroke-width="2" stroke-linecap="round" stroke-linejoin="round"/>
<path d="M4 12H1L2.16 16.23H4" stroke="#7F7F7F" stroke-width="2" stroke-linecap="round" stroke-linejoin="round"/>
<path d="M4 19.0012C5.1 19.0012 6 18.1012 6 17.0012C6 16.6512 5.91 16.3212 5.75 16.0312" stroke="#7F7F7F" stroke-width="2" stroke-linecap="round" stroke-linejoin="round"/>
<path d="M4 12H7L5.84 16.23H4" stroke="#7F7F7F" stroke-width="2" stroke-linecap="round" stroke-linejoin="round"/>
<path d="M16 19.0012C14.9 19.0012 14 18.1012 14 17.0012C14 16.6512 14.09 16.3212 14.25 16.0312" stroke="#7F7F7F" stroke-width="2" stroke-linecap="round" stroke-linejoin="round"/>
<path d="M16 12H13L14.16 16.23H16" stroke="#7F7F7F" stroke-width="2" stroke-linecap="round" stroke-linejoin="round"/>
<path d="M16 19.0012C17.1 19.0012 18 18.1012 18 17.0012C18 16.6512 17.91 16.3212 17.75 16.0312" stroke="#7F7F7F" stroke-width="2" stroke-linecap="round" stroke-linejoin="round"/>
<path d="M16 12H19L17.84 16.23H16" stroke="#7F7F7F" stroke-width="2" stroke-linecap="round" stroke-linejoin="round"/>
<path d="M3.03906 9.23906C3.22906 7.47906 4.06906 5.90906 5.31906 4.78906" stroke="#7F7F7F" stroke-width="2" stroke-linecap="round" stroke-linejoin="round"/>
<path d="M10.0002 17.0012C9.39023 17.0012 8.80023 16.9213 8.24023 16.7812" stroke="#7F7F7F" stroke-width="2" stroke-linecap="round" stroke-linejoin="round"/>
<path d="M16.9597 9.23906C16.7697 7.47906 15.9297 5.90906 14.6797 4.78906" stroke="#7F7F7F" stroke-width="2" stroke-linecap="round" stroke-linejoin="round"/>
<path d="M10 17.0012C10.61 17.0012 11.2 16.9213 11.76 16.7812" stroke="#7F7F7F" stroke-width="2" stroke-linecap="round" stroke-linejoin="round"/>
</g>
</svg>
