<?xml version="1.0" encoding="UTF-8"?>
<svg color="currentColor" xmlns="http://www.w3.org/2000/svg" viewBox="0 0 20 20">
  <path d="m10,17c-3.86,0-7-3.14-7-7s3.14-7,7-7,7,3.14,7,7-3.14,7-7,7Zm0-12c-2.76,0-5,2.24-5,5s2.24,5,5,5,5-2.24,5-5-2.24-5-5-5Z" />
  <path d="m10,5c-.55,0-1-.45-1-1V1c0-.55.45-1,1-1s1,.45,1,1v3c0,.55-.45,1-1,1Z" />
  <path d="m10,20c-.55,0-1-.45-1-1v-3c0-.55.45-1,1-1s1,.45,1,1v3c0,.55-.45,1-1,1Z" />
  <path d="m5.46,6.46c-.26,0-.51-.1-.71-.29l-1.83-1.83c-.39-.39-.39-1.02,0-1.41s1.02-.39,1.41,0l1.83,1.83c.39.39.39,1.02,0,1.41-.2.2-.45.29-.71.29Z" />
  <path d="m16.36,17.36c-.26,0-.51-.1-.71-.29l-1.83-1.83c-.39-.39-.39-1.02,0-1.41s1.02-.39,1.41,0l1.83,1.83c.39.39.39,1.02,0,1.41-.2.2-.45.29-.71.29Z" />
  <path d="m4,11H1c-.55,0-1-.45-1-1s.45-1,1-1h3c.55,0,1,.45,1,1s-.45,1-1,1Z" />
  <path d="m19,11h-3c-.55,0-1-.45-1-1s.45-1,1-1h3c.55,0,1,.45,1,1s-.45,1-1,1Z" />
  <path d="m3.64,17.36c-.26,0-.51-.1-.71-.29-.39-.39-.39-1.02,0-1.41l1.83-1.83c.39-.39,1.02-.39,1.41,0s.39,1.02,0,1.41l-1.83,1.83c-.2.2-.45.29-.71.29Z" />
  <path d="m14.54,6.46c-.26,0-.51-.1-.71-.29-.39-.39-.39-1.02,0-1.41l1.83-1.83c.39-.39,1.02-.39,1.41,0s.39,1.02,0,1.41l-1.83,1.83c-.2.19-.45.29-.71.29Z" />
</svg>
