<?xml version="1.0" encoding="UTF-8"?>
<svg color="currentColor" xmlns="http://www.w3.org/2000/svg" viewBox="0 0 20 20">
  <path d="m10,19c-4.96,0-9-4.04-9-9S5.04,1,10,1s9,4.04,9,9-4.04,9-9,9Zm0-16c-3.86,0-7,3.14-7,7s3.14,7,7,7,7-3.14,7-7-3.14-7-7-7Z" />
  <path d="m10,19c-.55,0-1-.45-1-1V2c0-.55.45-1,1-1s1,.45,1,1v16c0,.55-.45,1-1,1Z" />
  <g>
    <path d="m10,8c-.26,0-.51-.1-.71-.29-.39-.39-.39-1.02,0-1.41l3.56-3.56c.39-.39,1.02-.39,1.41,0s.39,1.02,0,1.41l-3.56,3.56c-.2.2-.45.29-.71.29Z" />
    <path d="m10,13.25c-.26,0-.51-.1-.71-.29-.39-.39-.39-1.02,0-1.41l6.47-6.47c.39-.39,1.02-.39,1.41,0s.39,1.02,0,1.41l-6.47,6.47c-.2.2-.45.29-.71.29Z" />
    <path d="m10,18.51c-.26,0-.51-.1-.71-.29-.39-.39-.39-1.02,0-1.41l7.71-7.71c.39-.39,1.02-.39,1.41,0s.39,1.02,0,1.41l-7.71,7.71c-.2.2-.45.29-.71.29Z" />
  </g>
</svg>
