<?xml version="1.0" encoding="UTF-8"?>
<svg color="currentColor" xmlns="http://www.w3.org/2000/svg" viewBox="0 0 20 20">
  <path d="m10,16c-3.31,0-6-2.69-6-6s2.69-6,6-6,6,2.69,6,6-2.69,6-6,6Zm0-10c-2.21,0-4,1.79-4,4s1.79,4,4,4,4-1.79,4-4-1.79-4-4-4Z" />
  <path d="m11.8,6c-.38,0-.75-.22-.91-.59l-.89-1.97-.89,1.97c-.23.5-.82.73-1.32.5-.5-.23-.73-.82-.5-1.32l1.8-4c.16-.36.52-.59.91-.59s.75.23.91.59l1.8,4c.23.5,0,1.1-.5,1.32-.13.06-.27.09-.41.09Z" />
  <path d="m10,20c-.39,0-.75-.23-.91-.59l-1.8-4c-.23-.5,0-1.1.5-1.32.5-.23,1.09,0,1.32.5l.89,1.97.89-1.97c.23-.5.82-.73,1.32-.5.5.23.73.82.5,1.32l-1.8,4c-.16.36-.52.59-.91.59Z" />
  <path d="m5.19,8.74c-.4,0-.78-.25-.93-.65l-1.56-4.1c-.14-.37-.05-.78.23-1.06.28-.28.69-.37,1.06-.23l4.1,1.56c.52.2.78.77.58,1.29-.2.52-.77.77-1.29.58l-2.02-.77.77,2.02c.2.52-.06,1.09-.58,1.29-.12.04-.24.07-.36.07Z" />
  <path d="m16.36,17.36c-.12,0-.24-.02-.36-.07l-4.1-1.56c-.52-.2-.78-.77-.58-1.29.2-.52.77-.78,1.29-.58l2.02.77-.77-2.02c-.2-.52.06-1.09.58-1.29.52-.2,1.09.06,1.29.58l1.56,4.1c.14.37.05.78-.23,1.06-.19.19-.45.29-.71.29Z" />
  <path d="m5,12.8c-.14,0-.28-.03-.41-.09l-4-1.8c-.36-.16-.59-.52-.59-.91s.23-.75.59-.91l4-1.8c.5-.23,1.1,0,1.32.5.23.5,0,1.1-.5,1.32l-1.97.89,1.97.89c.5.23.73.82.5,1.32-.17.37-.53.59-.91.59Z" />
  <path d="m15,12.8c-.38,0-.75-.22-.91-.59-.23-.5,0-1.1.5-1.32l1.97-.89-1.97-.89c-.5-.23-.73-.82-.5-1.32.23-.5.82-.73,1.32-.5l4,1.8c.36.16.59.52.59.91s-.23.75-.59.91l-4,1.8c-.13.06-.27.09-.41.09Z" />
  <path d="m3.64,17.36c-.26,0-.52-.1-.71-.29-.28-.28-.37-.69-.23-1.06l1.56-4.1c.2-.52.77-.78,1.29-.58.52.2.78.77.58,1.29l-.77,2.02,2.02-.77c.52-.2,1.09.06,1.29.58.2.52-.06,1.09-.58,1.29l-4.1,1.56c-.12.04-.24.07-.36.07Z" />
  <path d="m14.81,8.74c-.12,0-.24-.02-.36-.07-.52-.2-.78-.77-.58-1.29l.77-2.02-2.02.77c-.52.19-1.09-.06-1.29-.58-.2-.52.06-1.09.58-1.29l4.1-1.56c.37-.14.79-.05,1.06.23.28.28.37.69.23,1.06l-1.56,4.1c-.15.4-.53.65-.93.65Z" />
</svg>
