<?xml version="1.0" encoding="UTF-8"?>
<svg color="currentColor" xmlns="http://www.w3.org/2000/svg" viewBox="0 0 20 20">
  <path d="m10,19c-4.96,0-9-4.04-9-9S5.04,1,10,1c1.51,0,3.01.38,4.33,1.11.43.24.63.75.46,1.22-.17.46-.64.74-1.13.64-2.75-.53-5.14,1.6-5.14,4.25,0,2.39,1.94,4.33,4.33,4.33,1.94,0,3.65-1.31,4.17-3.18.13-.47.59-.77,1.08-.73.49.06.86.46.89.95v.11c.01.1.02.2.02.29,0,4.96-4.04,9-9,9Zm-.8-15.96c-3.49.4-6.2,3.37-6.2,6.96,0,3.86,3.14,7,7,7,2.47,0,4.65-1.29,5.9-3.23-.91.51-1.96.79-3.05.79-3.49,0-6.33-2.84-6.33-6.33,0-2.14,1.06-4.03,2.69-5.18Z"/>
</svg>
