<svg width="40" height="40" viewBox="0 0 40 40" fill="none" xmlns="http://www.w3.org/2000/svg">
<g clip-path="url(#clip0_1181_366)">
<path d="M39 39.9986H1C0.45 39.9986 0 39.5486 0 38.9986V33.0486C0 32.4986 0.45 32.0486 1 32.0486C2.67 32.0486 4.02 30.6886 4.02 29.0286C4.02 27.3686 2.66 26.0086 1 26.0086C0.45 26.0086 0 25.5586 0 25.0086V19.0586C0 18.5086 0.45 18.0586 1 18.0586H39C39.55 18.0586 40 18.5086 40 19.0586V25.0086C40 25.5586 39.55 26.0086 39 26.0086C37.33 26.0086 35.98 27.3686 35.98 29.0286C35.98 30.6886 37.34 32.0486 39 32.0486C39.55 32.0486 40 32.4986 40 33.0486V38.9986C40 39.5486 39.55 39.9986 39 39.9986ZM2 37.9986H38V33.9486C35.71 33.4786 33.98 31.4486 33.98 29.0286C33.98 26.6086 35.71 24.5686 38 24.1086V20.0586H2V24.1086C4.29 24.5786 6.02 26.6086 6.02 29.0286C6.02 31.4486 4.29 33.4886 2 33.9486V37.9986Z" fill="#FF2D20"/>
<path d="M28.3809 23.0586C27.8309 23.0586 27.3809 22.6086 27.3809 22.0586V19.0586C27.3809 18.5086 27.8309 18.0586 28.3809 18.0586C28.9309 18.0586 29.3809 18.5086 29.3809 19.0586V22.0586C29.3809 22.6086 28.9309 23.0586 28.3809 23.0586Z" fill="#FF2D20"/>
<path d="M28.3809 32.3492C27.8309 32.3492 27.3809 31.8992 27.3809 31.3492V26.6992C27.3809 26.1492 27.8309 25.6992 28.3809 25.6992C28.9309 25.6992 29.3809 26.1492 29.3809 26.6992V31.3492C29.3809 31.8992 28.9309 32.3492 28.3809 32.3492Z" fill="#FF2D20"/>
<path d="M28.3809 40C27.8309 40 27.3809 39.55 27.3809 39V36C27.3809 35.45 27.8309 35 28.3809 35C28.9309 35 29.3809 35.45 29.3809 36V39C29.3809 39.55 28.9309 40 28.3809 40Z" fill="#FF2D20"/>
<path d="M22.8906 29.4305H9.39062C8.84062 29.4305 8.39062 28.9805 8.39062 28.4305V23.9805C8.39062 23.4305 8.84062 22.9805 9.39062 22.9805H22.8906C23.4406 22.9805 23.8906 23.4305 23.8906 23.9805V28.4305C23.8906 28.9805 23.4406 29.4305 22.8906 29.4305ZM10.3906 27.4305H21.8906V24.9805H10.3906V27.4305Z" fill="#FF2D20"/>
<path d="M20.6004 34.1602H9.40039C8.85039 34.1602 8.40039 33.7102 8.40039 33.1602C8.40039 32.6102 8.85039 32.1602 9.40039 32.1602H20.6004C21.1504 32.1602 21.6004 32.6102 21.6004 33.1602C21.6004 33.7102 21.1504 34.1602 20.6004 34.1602Z" fill="#FF2D20"/>
<path d="M35.0002 20.0986C34.7402 20.0986 34.4902 19.9986 34.2902 19.8086C33.9002 19.4186 33.9002 18.7886 34.2902 18.3986L37.5802 15.1086L34.7202 12.2486C32.7702 13.5386 30.1102 13.3286 28.4002 11.6086C26.6802 9.88859 26.4702 7.22859 27.7602 5.28859L24.9002 2.42859L7.55016 19.7686C7.16016 20.1586 6.53016 20.1586 6.14016 19.7686C5.75016 19.3786 5.75016 18.7486 6.14016 18.3586L24.1902 0.288594C24.5802 -0.101406 25.2102 -0.101406 25.6002 0.288594L29.8102 4.49859C30.2002 4.88859 30.2002 5.51859 29.8102 5.90859C28.6302 7.08859 28.6302 9.00859 29.8102 10.1786C30.9902 11.3486 32.9402 11.3186 34.0802 10.1786C34.4702 9.78859 35.1002 9.78859 35.4902 10.1786L39.7002 14.3886C40.0902 14.7786 40.0902 15.4086 39.7002 15.7986L35.7002 19.7986C35.5002 19.9986 35.2502 20.0886 34.9902 20.0886L35.0002 20.0986Z" fill="#FF2D20"/>
<path d="M27.9792 20.0981C27.7192 20.0981 27.4692 19.9981 27.2692 19.8081L25.1692 17.7081C24.7792 17.3181 24.7792 16.6881 25.1692 16.2981C25.5592 15.9081 26.1892 15.9081 26.5792 16.2981L28.6792 18.3981C29.0692 18.7881 29.0692 19.4181 28.6792 19.8081C28.4792 20.0081 28.2292 20.0981 27.9692 20.0981H27.9792ZM21.6292 13.7481C21.3692 13.7481 21.1192 13.6481 20.9192 13.4581L16.6792 9.21813C16.2892 8.82813 16.2892 8.19813 16.6792 7.80812C17.0692 7.41813 17.6992 7.41813 18.0892 7.80812L22.3292 12.0481C22.7192 12.4381 22.7192 13.0681 22.3292 13.4581C22.1292 13.6581 21.8792 13.7481 21.6192 13.7481H21.6292Z" fill="#FF2D20"/>
<path d="M13.7701 20.0797C13.5101 20.0797 13.2601 19.9797 13.0601 19.7897C12.6701 19.3997 12.6701 18.7697 13.0601 18.3797L16.2801 15.1597C16.6701 14.7697 17.3001 14.7697 17.6901 15.1597L20.8401 18.3097C21.2301 18.6997 21.2301 19.3297 20.8401 19.7197C20.4501 20.1097 19.8201 20.1097 19.4301 19.7197L16.9901 17.2797L14.4801 19.7897C14.2801 19.9897 14.0301 20.0797 13.7701 20.0797Z" fill="#FF2D20"/>
</g>
<defs>
<clipPath id="clip0_1181_366">
<rect width="40" height="40" fill="white"/>
</clipPath>
</defs>
</svg>
