<?xml version="1.0" encoding="UTF-8"?>
<svg xmlns="http://www.w3.org/2000/svg" viewBox="0 0 20 20">
  <path d="m10,13H3C1.35,13,0,11.65,0,10V3C0,1.35,1.35,0,3,0h7c1.65,0,3,1.35,3,3v7c0,1.65-1.35,3-3,3ZM3,2c-.55,0-1,.45-1,1v7c0,.55.45,1,1,1h7c.55,0,1-.45,1-1V3c0-.55-.45-1-1-1H3Z"/>
  <path d="m16.63,20h-7c-1.65,0-3-1.35-3-3v-5c0-.55.45-1,1-1s1,.45,1,1v5c0,.55.45,1,1,1h7c.55,0,1-.45,1-1v-7c0-.55-.45-1-1-1h-4c-.55,0-1-.45-1-1s.45-1,1-1h4c1.65,0,3,1.35,3,3v7c0,1.65-1.35,3-3,3Z"/>
  <path d="m4.63,10c-.11,0-.23-.02-.34-.06-.52-.19-.79-.76-.6-1.28l1.87-5.23c.19-.52.76-.79,1.28-.6.52.19.79.76.6,1.28l-1.87,5.23c-.15.41-.53.66-.94.66Z"/>
  <path d="m8.37,10c-.41,0-.79-.25-.94-.66l-1.87-5.23c-.19-.52.08-1.09.6-1.28.52-.19,1.09.08,1.28.6l1.87,5.23c.19.52-.08,1.09-.6,1.28-.11.04-.22.06-.34.06Z"/>
  <path d="m7.87,8.56h-2.72c-.55,0-1-.45-1-1s.45-1,1-1h2.72c.55,0,1,.45,1,1s-.45,1-1,1Z"/>
  <path d="m15.63,12h-3c-.55,0-1-.45-1-1s.45-1,1-1h3c.55,0,1,.45,1,1s-.45,1-1,1Z"/>
  <path d="m10.63,17c-.42,0-.81-.26-.95-.68-.17-.52.11-1.09.63-1.26.09-.03,2.32-.83,2.32-3.05,0-.55.45-1,1-1s1,.45,1,1c0,3.68-3.53,4.9-3.68,4.95-.11.04-.21.05-.32.05Z"/>
  <path d="m15.63,17c-.24,0-.48-.09-.68-.26l-2.18-2c-.41-.37-.43-1.01-.06-1.41.37-.41,1-.43,1.41-.06l2.18,2c.41.37.43,1.01.06,1.41-.2.21-.47.32-.74.32Z"/>
</svg>
