<svg width="40" height="40" viewBox="0 0 40 40" fill="none" xmlns="http://www.w3.org/2000/svg">
<g clip-path="url(#clip0_1079_2779)">
<path d="M30.9198 16.5986H9.08984C7.57984 16.5986 6.33984 15.3686 6.33984 13.8486V9.55859C6.33984 9.00859 6.78984 8.55859 7.33984 8.55859H32.6598C33.2098 8.55859 33.6598 9.00859 33.6598 9.55859V13.8486C33.6598 15.3586 32.4298 16.5986 30.9098 16.5986H30.9198ZM8.33984 10.5686V13.8586C8.33984 14.2686 8.66984 14.6086 9.08984 14.6086H30.9198C31.3298 14.6086 31.6698 14.2786 31.6698 13.8586V10.5686H8.33984Z" fill="#FF2D20"/>
<path d="M32 40.0105H8C7.45 40.0105 7 39.5605 7 39.0105V35.9805C7 35.7105 7.11 35.4605 7.29 35.2705L10.29 32.2705C10.48 32.0805 10.73 31.9805 11 31.9805H29C29.27 31.9805 29.52 32.0905 29.71 32.2705L32.71 35.2705C32.9 35.4605 33 35.7105 33 35.9805V39.0105C33 39.5605 32.55 40.0105 32 40.0105ZM9 38.0105H31V36.3905L28.59 33.9805H11.41L9 36.3905V38.0105Z" fill="#FF2D20"/>
<path d="M25.9695 33.9816H14.0195C13.4695 33.9816 13.0195 33.5316 13.0195 32.9816V15.6016C13.0195 15.0516 13.4695 14.6016 14.0195 14.6016H25.9695C26.5195 14.6016 26.9695 15.0516 26.9695 15.6016V32.9816C26.9695 33.5316 26.5195 33.9816 25.9695 33.9816ZM15.0195 31.9816H24.9695V16.6016H15.0195V31.9816Z" fill="#FF2D20"/>
<path d="M31.0501 10.4186H27.8701C27.3201 10.4186 26.8701 9.96859 26.8701 9.41859V4.05859C26.8701 3.50859 27.3201 3.05859 27.8701 3.05859H31.0501C31.6001 3.05859 32.0501 3.50859 32.0501 4.05859V9.41859C32.0501 9.96859 31.6001 10.4186 31.0501 10.4186ZM28.8701 8.41859H30.0501V5.05859H28.8701V8.41859Z" fill="#FF2D20"/>
<path d="M29.4497 4.99C29.2597 4.99 29.0697 4.94 28.9097 4.83C28.4497 4.53 28.3197 3.91 28.6197 3.45C28.6897 3.35 28.6897 3.27 28.5297 2.73C28.3997 2.28 28.2297 1.73 28.2297 1.01C28.2197 0.45 28.6597 0 29.2197 0C29.7797 0 30.2197 0.45 30.2197 1C30.2197 1.42 30.3297 1.78 30.4397 2.15C30.6297 2.77 30.8897 3.63 30.2997 4.54C30.1097 4.83 29.7897 5 29.4597 5L29.4497 4.99Z" fill="#FF2D20"/>
<path d="M9.42969 8.56073C8.87969 8.56073 8.42969 8.11073 8.42969 7.56073C8.42969 7.01073 8.87969 6.56073 9.42969 6.56073C10.6697 6.56073 11.9997 6.08073 13.2897 5.62073C15.4097 4.85073 17.7897 4.00073 19.8697 5.44073C21.9497 4.00073 24.3297 4.86073 26.4497 5.62073C27.0097 5.82073 27.5797 6.03073 28.1597 6.20073C28.6897 6.36073 28.9897 6.91073 28.8397 7.44073C28.6797 7.97073 28.1297 8.28073 27.5997 8.12073C26.9897 7.94073 26.3797 7.72073 25.7797 7.50073C23.3897 6.64073 21.8597 6.17073 20.5897 7.45073C20.1997 7.84073 19.5697 7.84073 19.1797 7.45073C17.9097 6.18073 16.3797 6.64073 13.9897 7.50073C12.5397 8.02073 11.0497 8.56073 9.44969 8.56073H9.42969Z" fill="#FF2D20"/>
<path d="M20 33.9792C19.45 33.9792 19 33.5292 19 32.9792V19.4492C19 18.8992 19.45 18.4492 20 18.4492C20.55 18.4492 21 18.8992 21 19.4492V32.9792C21 33.5292 20.55 33.9792 20 33.9792Z" fill="#FF2D20"/>
<path d="M22.9902 33.9792C22.4402 33.9792 21.9902 33.5292 21.9902 32.9792V26.9492C21.9902 26.3992 22.4402 25.9492 22.9902 25.9492C23.5402 25.9492 23.9902 26.3992 23.9902 26.9492V32.9792C23.9902 33.5292 23.5402 33.9792 22.9902 33.9792Z" fill="#FF2D20"/>
<path d="M16.9902 33.9792C16.4402 33.9792 15.9902 33.5292 15.9902 32.9792V26.9492C15.9902 26.3992 16.4402 25.9492 16.9902 25.9492C17.5402 25.9492 17.9902 26.3992 17.9902 26.9492V32.9792C17.9902 33.5292 17.5402 33.9792 16.9902 33.9792Z" fill="#FF2D20"/>
</g>
<defs>
<clipPath id="clip0_1079_2779">
<rect width="40" height="40" fill="white"/>
</clipPath>
</defs>
</svg>
