<?xml version="1.0" encoding="UTF-8"?>
<svg color="currentColor" xmlns="http://www.w3.org/2000/svg" viewBox="0 0 20 20">
  <path d="m9.46,11H2.54c-1.4,0-2.54-1.14-2.54-2.55V3.55C0,2.14,1.14,1,2.54,1h6.91c1.4,0,2.54,1.14,2.54,2.55v4.91c0,1.4-1.14,2.55-2.54,2.55ZM2.54,3c-.3,0-.54.24-.54.55v4.91c0,.3.24.55.54.55h6.91c.3,0,.54-.24.54-.55V3.55c0-.3-.24-.55-.54-.55H2.54Z" />
  <path d="m17.46,17h-1.91c-1.4,0-2.54-1.14-2.54-2.54v-7.91c0-1.4,1.14-2.55,2.54-2.55h1.91c1.4,0,2.54,1.14,2.54,2.55v7.91c0,1.4-1.14,2.54-2.54,2.54Zm-1.91-11c-.3,0-.54.24-.54.55v7.91c0,.3.24.54.54.54h1.91c.3,0,.54-.24.54-.54v-7.91c0-.3-.24-.55-.54-.55h-1.91Z" />
  <path d="m9.46,19H2.54c-1.4,0-2.54-1.14-2.54-2.54v-1.91c0-1.4,1.14-2.54,2.54-2.54h6.91c1.4,0,2.54,1.14,2.54,2.54v1.91c0,1.4-1.14,2.54-2.54,2.54Zm-6.91-5c-.3,0-.54.24-.54.54v1.91c0,.3.24.54.54.54h6.91c.3,0,.54-.24.54-.54v-1.91c0-.3-.24-.54-.54-.54H2.54Z" />
</svg>
