<?xml version="1.0" encoding="UTF-8"?>
<svg color="currentColor" xmlns="http://www.w3.org/2000/svg" viewBox="0 0 20 20">
  <g>
    <path d="m6.14,14.86c-.26,0-.51-.1-.71-.29C.76,9.89.04,5.83.01,5.67c-.07-.41.12-.81.47-1.02l3.75-2.25c.24-.14.53-.18.79-.1.27.08.49.26.62.51.01.03,1.49,2.92,5.06,6.49.39.39.39,1.02,0,1.41s-1.02.39-1.41,0c-2.61-2.61-4.16-4.87-4.9-6.07l-2.23,1.34c.39,1.22,1.55,4.03,4.69,7.18.39.39.39,1.02,0,1.41-.2.2-.45.29-.71.29Z" />
    <path d="m4.75,4.25c-.34,0-.67-.17-.86-.49-.28-.47-.13-1.09.34-1.37L7.99.14c.47-.29,1.09-.13,1.37.34s.13,1.09-.34,1.37l-3.75,2.25c-.16.1-.34.14-.51.14Z" />
    <path d="m14.5,20c-.05,0-.11,0-.17-.01-.17-.03-4.22-.75-8.9-5.42-.39-.39-.39-1.02,0-1.41s1.02-.39,1.41,0c3.14,3.14,5.96,4.31,7.18,4.69l1.34-2.23c-1.21-.74-3.46-2.29-6.07-4.9-.39-.39-.39-1.02,0-1.41s1.02-.39,1.41,0c3.57,3.57,6.46,5.05,6.49,5.06.25.12.43.35.51.62.08.27.04.55-.1.79l-2.25,3.75c-.18.3-.51.49-.86.49Z" />
    <path d="m16.75,16.25c-.17,0-.35-.05-.51-.14-.47-.28-.63-.9-.34-1.37l2.25-3.75c.28-.47.9-.63,1.37-.34.47.28.63.9.34,1.37l-2.25,3.75c-.19.31-.52.49-.86.49Z" />
  </g>
  <path d="m3.5,20c-.94,0-1.82-.36-2.47-1.02-.66-.66-1.02-1.54-1.02-2.47s.36-1.82,1.02-2.47l2.41-2.41c.39-.39,1.02-.39,1.41,0s.39,1.02,0,1.41l-2.41,2.41c-.28.28-.44.66-.44,1.06s.16.78.44,1.06c.56.56,1.56.56,2.12,0l2.41-2.41c.39-.39,1.02-.39,1.41,0s.39,1.02,0,1.41l-2.41,2.41c-.66.66-1.54,1.02-2.47,1.02Z" />
  <path d="m13.04,8.26c-.26,0-.51-.1-.71-.29-.39-.39-.39-1.02,0-1.41l2.79-2.8v-1.46c0-.39.23-.75.59-.91L18.59.09c.35-.16.77-.1,1.06.15.29.25.42.65.31,1.03l-.88,3.17c-.12.43-.51.73-.96.73h-1.59l-2.79,2.8c-.2.2-.45.29-.71.29Zm4.09-5.09h.24l.11-.38-.34.16v.23Z" />
  <path d="m12.89,11.8c-.6,0-1.2-.23-1.65-.68h0l-2.35-2.35c-.91-.91-.91-2.39,0-3.3l.23-.23c.91-.91,2.39-.91,3.3,0l2.35,2.35c.91.91.91,2.39,0,3.3l-.23.23c-.46.46-1.05.68-1.65.68Zm-.24-2.1c.13.13.35.13.48,0l.23-.23c.13-.13.13-.34,0-.48l-2.35-2.35c-.13-.13-.35-.13-.48,0l-.23.23c-.13.13-.13.34,0,.48l2.35,2.35Z" />
</svg>
