<?xml version="1.0" encoding="UTF-8"?>
<svg  xmlns="http://www.w3.org/2000/svg" viewBox="0 0 677.07 533.16">

    <style>
        :root { fill:#222 }
        .accent { fill: #f9322c; }

        @media (prefers-color-scheme: dark) {
        :root {  fill: #f9322c; }
        .accent { fill:#dee2e6; }
        }
    </style>

    <path d="m187.34,208.17c-37.96,30.02-26.78,66.51-3.83,79.17,22.96,12.65,63.6-4.7,63.6-4.7,0,0-34.17,40.31-78.31,20.45-44.14-19.86-32.37-91.97,18.54-94.91Z" class="accent"/>
  <path d="m209.05,182.56c47.45-76.21,96.3-98.58,150.16-86.22,53.86,12.36,57.68,33.55,57.68,33.55l27.96-6.18s-40.32-67.1-119.48-67.1-116.31,58.54-116.31,125.95Z" class="accent"/>
  <path d="m516.95,196.97c37.67,34.75,32.22,76.54,9.12,89.49-30.48,17.09-60.57.88-60.57.88,0,0,29.97,19.01,57.92,11.94,41.2-10.42,46.53-58.14,31.78-79.04-14.74-20.89-38.26-23.27-38.26-23.27Z" class="accent"/>
  <g>
    <g>
      <path d="m202.95,308.39c-29.69,0-53.85-24.16-53.85-53.85,0-24.66,16.67-46.12,40.55-52.19.49-.12,1.02,0,1.39.35.37.35.55.86.46,1.36-.83,4.73-1.25,9.48-1.25,14.13,0,16.32,4.82,32.05,13.94,45.51.46.69.29,1.62-.4,2.08-.69.46-1.62.29-2.08-.4-9.46-13.96-14.46-30.27-14.46-47.19,0-4.05.31-8.19.92-12.31-21.35,6.46-36.06,26.15-36.06,48.66,0,28.04,22.81,50.85,50.85,50.85.83,0,1.5.67,1.5,1.5s-.67,1.5-1.5,1.5Z" />
      <path d="m508.06,308.39c-.83,0-1.5-.67-1.5-1.5s.67-1.5,1.5-1.5c31.97,0,57.98-24.58,57.98-54.8s-26.01-54.8-57.98-54.8c-.26,0-.51,0-.77.02h-.51c-.8.01-1.51-.63-1.53-1.46-.02-.83.64-1.51,1.47-1.53h.48c.29-.02.57-.03.86-.03,33.63,0,60.98,25.93,60.98,57.8s-27.36,57.8-60.98,57.8Z" />
      <path d="m478.28,203.36c-.53,0-1.04-.28-1.32-.78-.4-.73-.13-1.64.59-2.04,8.32-4.56,17.76-7.2,27.39-7.66-6.79-34-34.19-59.8-68.68-64.44-.82-.11-1.4-.87-1.29-1.69.11-.82.86-1.4,1.69-1.29,17.76,2.39,34.01,10.25,46.99,22.71,12.94,12.43,21.44,28.3,24.57,45.88.08.43-.04.88-.32,1.21-.28.34-.69.54-1.13.55-9.76.2-19.37,2.74-27.78,7.35-.23.12-.48.18-.72.18Z" />
      <path d="m190.02,205.31c-.09,0-.17,0-.26-.02-.82-.14-1.36-.92-1.22-1.74,2.86-16.27,10.4-31.24,21.82-43.28.46-.49,1.19-.61,1.78-.3.59.31.91.97.78,1.63-1.6,7.85-2.41,15.93-2.41,24.01,0,5.61.4,11.29,1.19,16.9.12.82-.46,1.58-1.28,1.7-.82.11-1.58-.46-1.69-1.28-.81-5.74-1.22-11.57-1.22-17.32,0-6.48.51-12.96,1.51-19.32-9.05,10.87-15.08,23.83-17.53,37.79-.13.73-.76,1.24-1.48,1.24Z" />
      <path d="m211.45,162.8c-.1,0-.2,0-.3-.03-.81-.17-1.34-.96-1.17-1.77,11.57-56.89,62.17-98.18,120.31-98.18,44.65,0,85.83,24.29,107.49,63.4.27.5.25,1.1-.07,1.57-.32.47-.87.72-1.44.64-3.71-.5-7.39-.75-10.93-.75-.83,0-1.5-.67-1.5-1.5s.67-1.5,1.5-1.5c2.72,0,5.53.14,8.36.43-21.48-36.65-60.83-59.29-103.4-59.29-56.72,0-106.08,40.28-117.37,95.77-.14.71-.77,1.2-1.47,1.2Z" />
      <path d="m436.47,128.46c-.07,0-.13,0-.2-.01-3.71-.5-7.39-.75-10.93-.75-.83,0-1.5-.67-1.5-1.5s.67-1.5,1.5-1.5c3.67,0,7.49.26,11.33.78.82.11,1.4.87,1.29,1.69-.1.75-.75,1.3-1.48,1.3Z" />
      <path d="m508.06,308.39h-177.76c-.83,0-1.5-.67-1.5-1.5s.67-1.5,1.5-1.5h158.46c-11.77-3.74-22.26-10.85-29.79-20.51-.51-.65-.39-1.6.26-2.11.65-.51,1.6-.39,2.11.26,10.9,14,28.37,22.36,46.73,22.36.83,0,1.5.67,1.5,1.5s-.67,1.5-1.5,1.5Z" />
      <path d="m330.29,308.39c-14.6,0-28.89-2.54-42.49-7.56-5.37,1.05-10.86,1.59-16.33,1.59-11.63,0-22.9-2.34-33.53-6.96-9.75,8.35-22.14,12.93-34.99,12.93-.83,0-1.5-.67-1.5-1.5s.67-1.5,1.5-1.5c12.44,0,24.42-4.55,33.73-12.81.44-.39,1.07-.49,1.61-.25,10.5,4.71,21.66,7.09,33.18,7.09,5.42,0,10.86-.54,16.16-1.61.27-.06.56-.03.82.07,13.38,4.99,27.46,7.52,41.84,7.52.83,0,1.5.67,1.5,1.5s-.67,1.5-1.5,1.5Z" />
      <path d="m202.95,308.39c-.83,0-1.5-.67-1.5-1.5s.67-1.5,1.5-1.5c12.44,0,24.42-4.55,33.73-12.81.62-.55,1.57-.49,2.12.13.55.62.49,1.57-.13,2.12-9.86,8.75-22.55,13.57-35.72,13.57Z" />
      <path d="m508.06,308.39c-19.27,0-37.63-8.79-49.09-23.51-.51-.65-.39-1.6.26-2.11.65-.51,1.6-.39,2.11.26,10.9,14,28.37,22.36,46.73,22.36.83,0,1.5.67,1.5,1.5s-.67,1.5-1.5,1.5Z" />
      <path d="m271.47,302.42c-11.95,0-23.52-2.47-34.41-7.35-.46-.21-.79-.64-.87-1.14-.08-.5.11-1.01.49-1.35,5.21-4.62,9.35-10.15,12.3-16.42.2-.43.59-.73,1.05-.83.46-.09.94.03,1.3.34,11,9.65,23.49,17.12,37.13,22.21.63.23,1.02.86.97,1.52-.05.67-.54,1.22-1.2,1.35-5.5,1.11-11.14,1.67-16.75,1.67Zm-31.09-9.19c9.88,4.11,20.33,6.19,31.09,6.19,3.65,0,7.3-.25,10.92-.73-11.45-4.85-22.04-11.39-31.57-19.49-2.69,5.23-6.19,9.94-10.44,14.04Z" />
      <path d="m237.67,295.2c-.41,0-.83-.17-1.12-.5-.55-.62-.49-1.57.13-2.12,5.21-4.62,9.35-10.15,12.3-16.42.35-.75,1.25-1.07,2-.72.75.35,1.07,1.25.72,2-3.12,6.64-7.51,12.5-13.02,17.39-.29.25-.64.38-1,.38Z" />
      <path d="m330.29,308.39c-14.74,0-29.18-2.59-42.89-7.71-.78-.29-1.17-1.15-.88-1.93.29-.78,1.15-1.17,1.93-.88,13.38,4.99,27.46,7.52,41.84,7.52.83,0,1.5.67,1.5,1.5s-.67,1.5-1.5,1.5Z" />
      <path d="m287.93,300.78c-.17,0-.35-.03-.52-.09-13.98-5.21-26.79-12.87-38.06-22.77-.5-.44-.65-1.16-.37-1.77,2.77-5.89,4.36-12.19,4.73-18.72.05-.83.75-1.44,1.58-1.41.83.05,1.46.75,1.41,1.58-.37,6.53-1.89,12.85-4.54,18.79,10.79,9.3,22.99,16.52,36.29,21.48.78.29,1.17,1.15.88,1.93-.22.6-.8.98-1.41.98Z" />
      <path d="m250.33,278.29c-.21,0-.43-.05-.64-.14-.75-.35-1.07-1.25-.72-2,2.77-5.89,4.36-12.19,4.73-18.72.05-.83.75-1.44,1.58-1.41.83.05,1.46.75,1.41,1.58-.39,6.91-2.07,13.58-5.01,19.83-.26.54-.8.86-1.36.86Z" />
    </g>
    <path d="m342.03,308.39c-.83,0-1.5-.67-1.5-1.5s.67-1.5,1.5-1.5c66.83,0,72.02-53.44,72.02-69.82,0-.83.67-1.5,1.5-1.5s1.5.67,1.5,1.5c0,18.82-5.47,36-15.41,48.39-13.01,16.21-33.06,24.43-59.61,24.43Z" />
    <path d="m353.53,198.47c-.83,0-1.5-.67-1.5-1.5,0-10.78,4.69-29.17,17.89-45.5,9.88-12.22,27.51-26.78,55.41-26.78.83,0,1.5.67,1.5,1.5s-.67,1.5-1.5,1.5c-46.81,0-70.3,44.42-70.3,69.28,0,.83-.67,1.5-1.5,1.5Z" />
    <g>
      <g>
        <path d="m131.31,426.26c0,23.51-19.06,42.57-42.57,42.57s-42.57-19.06-42.57-42.57c0-9.52,3.12-18.31,8.4-25.4,7.76-10.42,20.18-17.17,34.17-17.17,23.51,0,42.57,19.06,42.57,42.57Z" class="accent"/>
        <path d="m92.16,463.51c-24.3,0-44.07-19.77-44.07-44.07,0-9.56,3.01-18.65,8.7-26.29,8.29-11.13,21.51-17.78,35.37-17.78,24.3,0,44.07,19.77,44.07,44.07s-19.77,44.07-44.07,44.07Zm0-85.14c-13.11,0-25.12,6.04-32.96,16.57-5.3,7.12-8.1,15.59-8.1,24.5,0,22.65,18.42,41.07,41.07,41.07s41.07-18.42,41.07-41.07-18.42-41.07-41.07-41.07Z" />
        <path d="m79.69,414.13h-28.53c-.83,0-1.5-.67-1.5-1.5s.67-1.5,1.5-1.5h28.53c.83,0,1.5.67,1.5,1.5s-.67,1.5-1.5,1.5Z" />
        <path d="m73.34,433.44h-20.34c-.83,0-1.5-.67-1.5-1.5s.67-1.5,1.5-1.5h20.34c.83,0,1.5.67,1.5,1.5s-.67,1.5-1.5,1.5Z" />
        <path d="m102.29,450.18h-39.69c-.83,0-1.5-.67-1.5-1.5s.67-1.5,1.5-1.5h39.69c.83,0,1.5.67,1.5,1.5s-.67,1.5-1.5,1.5Z" />
      </g>
      <g>
        <path d="m296.71,426.26c0,23.51-19.06,42.57-42.57,42.57s-42.57-19.06-42.57-42.57c0-9.52,3.12-18.31,8.4-25.4,7.76-10.42,20.18-17.17,34.17-17.17,23.51,0,42.57,19.06,42.57,42.57Z" class="accent"/>
        <path d="m257.55,463.51c-24.3,0-44.07-19.77-44.07-44.07,0-9.56,3.01-18.65,8.7-26.29,8.29-11.13,21.51-17.78,35.37-17.78,24.3,0,44.07,19.77,44.07,44.07s-19.77,44.07-44.07,44.07Zm0-85.14c-13.11,0-25.12,6.04-32.96,16.57-5.3,7.12-8.1,15.59-8.1,24.5,0,22.65,18.42,41.07,41.07,41.07s41.07-18.42,41.07-41.07-18.42-41.07-41.07-41.07Z" />
        <path d="m245.08,414.13h-28.53c-.83,0-1.5-.67-1.5-1.5s.67-1.5,1.5-1.5h28.53c.83,0,1.5.67,1.5,1.5s-.67,1.5-1.5,1.5Z" />
        <path d="m238.73,433.44h-20.34c-.83,0-1.5-.67-1.5-1.5s.67-1.5,1.5-1.5h20.34c.83,0,1.5.67,1.5,1.5s-.67,1.5-1.5,1.5Z" />
        <path d="m267.68,450.18h-39.69c-.83,0-1.5-.67-1.5-1.5s.67-1.5,1.5-1.5h39.69c.83,0,1.5.67,1.5,1.5s-.67,1.5-1.5,1.5Z" />
      </g>
      <g>
        <path d="m462.1,426.26c0,23.51-19.06,42.57-42.57,42.57s-42.57-19.06-42.57-42.57c0-9.52,3.12-18.31,8.4-25.4,7.76-10.42,20.18-17.17,34.17-17.17,23.51,0,42.57,19.06,42.57,42.57Z" class="accent"/>
        <path d="m422.94,463.51c-24.3,0-44.07-19.77-44.07-44.07,0-9.56,3.01-18.65,8.7-26.29,8.29-11.13,21.51-17.78,35.37-17.78,24.3,0,44.07,19.77,44.07,44.07s-19.77,44.07-44.07,44.07Zm0-85.14c-13.11,0-25.13,6.04-32.97,16.57-5.3,7.12-8.1,15.59-8.1,24.5,0,22.65,18.42,41.07,41.07,41.07s41.07-18.42,41.07-41.07-18.42-41.07-41.07-41.07Z" />
        <path d="m410.47,414.13h-28.53c-.83,0-1.5-.67-1.5-1.5s.67-1.5,1.5-1.5h28.53c.83,0,1.5.67,1.5,1.5s-.67,1.5-1.5,1.5Z" />
        <path d="m404.12,433.44h-20.33c-.83,0-1.5-.67-1.5-1.5s.67-1.5,1.5-1.5h20.33c.83,0,1.5.67,1.5,1.5s-.67,1.5-1.5,1.5Z" />
        <path d="m433.07,450.18h-39.69c-.83,0-1.5-.67-1.5-1.5s.67-1.5,1.5-1.5h39.69c.83,0,1.5.67,1.5,1.5s-.67,1.5-1.5,1.5Z" />
      </g>
      <g>
        <path d="m627.49,426.26c0,23.51-19.06,42.57-42.57,42.57s-42.57-19.06-42.57-42.57c0-9.52,3.12-18.31,8.4-25.4,7.76-10.42,20.18-17.17,34.17-17.17,23.51,0,42.57,19.06,42.57,42.57Z" class="accent"/>
        <path d="m588.33,463.51c-24.3,0-44.07-19.77-44.07-44.07,0-9.56,3.01-18.65,8.7-26.29,8.29-11.13,21.51-17.78,35.37-17.78,24.3,0,44.07,19.77,44.07,44.07s-19.77,44.07-44.07,44.07Zm0-85.14c-13.11,0-25.12,6.04-32.96,16.57-5.3,7.12-8.11,15.59-8.11,24.5,0,22.65,18.42,41.07,41.07,41.07s41.07-18.42,41.07-41.07-18.42-41.07-41.07-41.07Z" />
        <path d="m575.86,414.13h-28.53c-.83,0-1.5-.67-1.5-1.5s.67-1.5,1.5-1.5h28.53c.83,0,1.5.67,1.5,1.5s-.67,1.5-1.5,1.5Z" />
        <path d="m569.51,433.44h-20.34c-.83,0-1.5-.67-1.5-1.5s.67-1.5,1.5-1.5h20.34c.83,0,1.5.67,1.5,1.5s-.67,1.5-1.5,1.5Z" />
        <path d="m598.46,450.18h-39.69c-.83,0-1.5-.67-1.5-1.5s.67-1.5,1.5-1.5h39.69c.83,0,1.5.67,1.5,1.5s-.67,1.5-1.5,1.5Z" />
      </g>
    </g>
    <path d="m92.16,378.37c-.83,0-1.5-.67-1.5-1.5v-35.8c0-.83.67-1.5,1.5-1.5h107.08v-32.72c0-.83.67-1.5,1.5-1.5s1.5.67,1.5,1.5v34.22c0,.83-.67,1.5-1.5,1.5h-107.08v34.3c0,.83-.67,1.5-1.5,1.5Z" />
    <path d="m258.16,378.37c-.83,0-1.5-.67-1.5-1.5v-35.8c0-.83.67-1.5,1.5-1.5h49.45v-32.72c0-.83.67-1.5,1.5-1.5s1.5.67,1.5,1.5v34.22c0,.83-.67,1.5-1.5,1.5h-49.45v34.3c0,.83-.67,1.5-1.5,1.5Z" />
    <path d="m589.06,378.37c-.83,0-1.5-.67-1.5-1.5v-34.3h-107.08c-.83,0-1.5-.67-1.5-1.5v-34.22c0-.83.67-1.5,1.5-1.5s1.5.67,1.5,1.5v32.72h107.08c.83,0,1.5.67,1.5,1.5v35.8c0,.83-.67,1.5-1.5,1.5Z" />
    <path d="m423.06,378.37c-.83,0-1.5-.67-1.5-1.5v-34.3h-49.45c-.83,0-1.5-.67-1.5-1.5v-34.22c0-.83.67-1.5,1.5-1.5s1.5.67,1.5,1.5v32.72h49.45c.83,0,1.5.67,1.5,1.5v35.8c0,.83-.67,1.5-1.5,1.5Z" />
  </g>
</svg>
