<svg fill="none" height="236" viewBox="0 0 336 236" width="336" xmlns="http://www.w3.org/2000/svg">
    <style>
        :root { fill:#222 }
        .accent { fill: #f9322c; }

        @media (prefers-color-scheme: dark) {
        :root {  fill: #f9322c; }
        .accent { fill:#dee2e6; }
        }
    </style>

    <path
        d="m81.08 86.9858c-21.6972 17.1592-15.3069 38.0162-2.1891 45.2522 13.1177 7.236 36.3521-2.687 36.3521-2.687s-19.5305 23.041-44.7601 11.689c-25.2296-11.351-18.5021-52.568 10.5971-54.2484z"
        class="accent"/>
    <path
        d="m93.489 72.3475c27.122-43.5602 55.043-56.3464 85.829-49.2817 30.785 7.0648 32.968 19.1766 32.968 19.1766l15.982-3.5324s-23.046-38.353066-68.293-38.353066c-45.246 0-66.4803 33.460366-66.4803 71.990566z"
        class="accent"/>
    <path
        d="m269.479 80.584c21.531 19.862 18.416 43.749 5.212 51.151-17.421 9.768-34.62.503-34.62.503s17.13 10.865 33.106 6.824c23.549-5.955 26.595-33.231 18.165-45.1773-8.431-11.9461-21.869-13.3007-21.869-13.3007z"
        class="accent"/>
    <g>
        <path
            d="m90.0023 144.269c-16.9703 0-30.7796-13.809-30.7796-30.78 0-14.0948 9.5282-26.3609 23.1775-29.8304.2858-.0686.583 0 .7945.2001.2115.2.3087.4915.263.7773-.4744 2.7036-.7145 5.4186-.7145 8.0765 0 9.3285 2.755 18.3195 7.9678 26.0125.2629.394.1658.926-.2286 1.189s-.926.166-1.1889-.229c-5.4071-7.979-8.2651-17.307-8.2651-26.9725 0-2.3207.1772-4.6813.5259-7.0362-12.2032 3.6924-20.6112 14.9467-20.6112 27.8127 0 16.028 13.0378 29.065 29.0649 29.065.4744 0 .8574.383.8574.858 0 .474-.383.857-.8574.857z"/>
        <path
            d="m264.397 144.269c-.474 0-.857-.383-.857-.857 0-.475.383-.858.857-.858 18.273 0 33.14-14.049 33.14-31.322 0-17.2735-14.867-31.3229-33.14-31.3229-.149 0-.291 0-.434.0114h-.292c-.446.0229-.863-.3601-.874-.8345-.012-.4744.365-.8631.84-.8745h.274c.166-.0114.326-.0172.492-.0172 19.222 0 34.855 14.8211 34.855 33.0377 0 18.216-15.639 33.037-34.855 33.037z"/>
        <path
            d="m247.376 84.2364c-.303 0-.595-.16-.755-.4458-.229-.4173-.074-.9374.337-1.166 4.756-2.6065 10.152-4.1154 15.656-4.3783-3.881-19.4338-19.542-34.1806-39.256-36.8327-.469-.0629-.8-.4973-.738-.966.063-.4687.492-.8002.966-.7373 10.152 1.3661 19.44 5.8587 26.859 12.9806 7.396 7.1047 12.255 16.1757 14.044 26.2241.045.2458-.023.503-.183.6916-.16.1943-.395.3087-.646.3144-5.579.1143-11.072 1.5661-15.879 4.2011-.131.0686-.274.1029-.411.1029z"/>
        <path
            d="m82.6117 85.3508c-.0514 0-.0971 0-.1486-.0114-.4687-.08-.7773-.5259-.6973-.9946 1.6347-9.2996 5.9444-17.8561 12.4719-24.738.2629-.28.6802-.3486 1.0174-.1714s.5201.5544.4458.9316c-.9145 4.487-1.3775 9.1053-1.3775 13.7237 0 3.2066.2286 6.4588.6802 9.6597.0686.4687-.2629.9031-.7316.9717-.4687.0629-.9031-.2629-.9717-.7316-.463-3.2809-.6973-6.6075-.6973-9.8998 0-3.7039.2915-7.4077.863-11.0429-5.1728 6.213-8.6194 13.6207-10.0198 21.6-.0743.4172-.4344.7087-.8459.7087z"/>
        <path
            d="m94.8608 61.0529c-.0571 0-.1143 0-.1715-.0172-.4629-.0971-.7659-.5487-.6687-1.0117 6.6134-32.5172 35.5354-56.11775 68.7664-56.11775 25.522 0 49.059 13.88365 61.44 36.23825.154.2857.143.6287-.04.8973-.183.2687-.498.4116-.823.3658-2.121-.2858-4.224-.4286-6.248-.4286-.474 0-.857-.383-.857-.8574s.383-.8574.857-.8574c1.555 0 3.161.08 4.779.2458-12.278-20.9484-34.77-33.88901-59.102-33.88901-32.42 0-60.633 23.02321-67.0862 54.74031-.0801.4058-.4402.6858-.8403.6858z"/>
        <path
            d="m223.478 41.425c-.04 0-.074 0-.114-.0057-2.121-.2858-4.224-.4287-6.248-.4287-.474 0-.857-.3829-.857-.8574 0-.4744.383-.8573.857-.8573 2.098 0 4.281.1486 6.476.4458.469.0629.8.4973.738.966-.058.4287-.429.743-.846.743z"/>
        <path
            d="m264.397 144.269h-101.604c-.474 0-.857-.383-.857-.857 0-.475.383-.858.857-.858h90.573c-6.728-2.137-12.724-6.201-17.028-11.723-.291-.371-.223-.914.149-1.206.371-.291.914-.223 1.206.149 6.23 8.002 16.216 12.78 26.704 12.78.474 0 .857.383.857.858 0 .474-.383.857-.857.857z"/>
        <path
            d="m162.787 144.269c-8.345 0-16.518-1.452-24.286-4.321-3.064.6-6.202.909-9.334.909-6.648 0-13.089-1.338-19.165-3.978-5.573 4.772-12.655 7.39-19.9999 7.39-.4744 0-.8573-.383-.8573-.857 0-.475.3829-.858.8573-.858 7.1105 0 13.9579-2.6 19.2799-7.322.251-.222.611-.28.92-.142 6.001 2.692 12.38 4.052 18.965 4.052 3.098 0 6.207-.309 9.237-.92.154-.029.32-.017.468.04 7.648 2.852 15.696 4.298 23.915 4.298.475 0 .858.383.858.857 0 .475-.383.858-.858.858z"/>
        <path
            d="m90.0021 144.269c-.4744 0-.8573-.383-.8573-.857 0-.475.3829-.858.8573-.858 7.1105 0 13.9579-2.6 19.2799-7.322.354-.314.897-.28 1.211.075.315.354.28.897-.074 1.211-5.636 5.002-12.8891 7.757-20.4169 7.757z"/>
        <path
            d="m264.397 144.269c-11.014 0-21.508-5.024-28.059-13.438-.291-.371-.223-.914.149-1.206.371-.291.914-.223 1.206.149 6.23 8.002 16.216 12.78 26.704 12.78.474 0 .857.383.857.858 0 .474-.383.857-.857.857z"/>
        <path
            d="m129.167 140.857c-6.831 0-13.449-1.412-19.668-4.201-.263-.12-.452-.366-.497-.652-.046-.286.062-.577.28-.772 2.978-2.64 5.344-5.801 7.03-9.385.114-.246.337-.417.6-.474.263-.052.537.017.738.194 6.287 5.516 13.426 9.785 21.222 12.695.36.131.583.491.555.869-.029.377-.309.697-.686.771-3.138.635-6.362.955-9.574.955zm-17.771-5.253c5.648 2.349 11.621 3.538 17.771 3.538 2.086 0 4.172-.143 6.242-.417-6.539-2.772-12.598-6.511-18.045-11.14-1.544 2.989-3.544 5.681-5.968 8.025z"/>
        <path
            d="m109.848 136.73c-.235 0-.475-.097-.641-.286-.314-.354-.28-.897.075-1.212 2.978-2.64 5.344-5.801 7.03-9.385.2-.429.709-.612 1.143-.411.429.2.612.714.412 1.143-1.783 3.795-4.293 7.139-7.442 9.939-.166.143-.366.218-.572.218z"/>
        <path
            d="m162.787 144.269c-8.43 0-16.678-1.48-24.515-4.406-.445-.166-.668-.658-.503-1.104.166-.445.663-.668 1.104-.503 7.647 2.853 15.695 4.299 23.914 4.299.475 0 .858.383.858.857s-.383.857-.858.857z"/>
        <path
            d="m138.575 139.919c-.097 0-.2-.017-.297-.051-7.991-2.978-15.313-7.356-21.755-13.009-.285-.252-.371-.663-.211-1.012 1.583-3.367 2.492-6.968 2.704-10.7.028-.474.434-.817.903-.806.474.029.834.429.806.903-.212 3.733-1.081 7.345-2.595 10.74 6.167 5.316 13.14 9.443 20.742 12.278.446.166.669.657.503 1.103-.125.343-.457.56-.806.56z"/>
        <path
            d="m117.084 127.065c-.12 0-.246-.029-.366-.08-.429-.2-.612-.715-.412-1.143 1.584-3.367 2.492-6.968 2.704-10.7.029-.475.434-.818.903-.806.474.028.835.428.806.903-.223 3.949-1.183 7.762-2.864 11.334-.148.309-.451.492-.777.492z"/>
        <path
            d="m169.498 144.269c-.475 0-.858-.383-.858-.857s.383-.857.858-.857c38.198 0 41.165-30.546 41.165-39.908 0-.474.383-.857.857-.857.475 0 .858.383.858.857 0 10.757-3.127 20.577-8.808 27.659-7.437 9.265-18.897 13.963-34.072 13.963z"/>
        <path
            d="m176.071 81.4412c-.475 0-.858-.3829-.858-.8573 0-6.1617 2.681-16.673 10.226-26.007 5.647-6.979 15.724-15.3069 31.671-15.3069.475 0 .858.383.858.8574s-.383.8574-.858.8574c-26.755 0-40.188 25.3896-40.188 39.5991 0 .4744-.383.8573-.857.8573z"/>
    </g>
    <path
        d="m49.0543 211.641c0 13.438-10.8944 24.332-24.3322 24.332-13.4379 0-24.332207-10.894-24.332207-24.332 0-5.441 1.783327-10.465 4.801277-14.518 4.43546-5.956 11.53453-9.814 19.53093-9.814 13.4378 0 24.3322 10.894 24.3322 24.332z"
        class="accent"/>
    <path
        d="m26.6769 232.933c-13.8894 0-25.1896-11.3-25.1896-25.19 0-5.464 1.72046-10.66 4.97276-15.027 4.73844-6.361 12.29474-10.162 20.21684-10.162 13.8894 0 25.1895 11.3 25.1895 25.189 0 13.89-11.3001 25.19-25.1895 25.19zm0-48.665c-7.4935 0-14.3639 3.453-18.83934 9.472-3.02937 4.069-4.63551 8.91-4.63551 14.003 0 12.947 10.52855 23.475 23.47485 23.475s23.4748-10.528 23.4748-23.475c0-12.946-10.5285-23.475-23.4748-23.475z"
        fill="#000"/>
    <path
        d="m19.5493 204.708h-16.30716c-.47442 0-.85737-.383-.85737-.857s.38295-.857.85737-.857h16.30716c.4744 0 .8574.383.8574.857s-.383.857-.8574.857z"
        fill="#000"/>
    <path
        d="m15.9197 215.746h-11.62019c-.47441 0-.85737-.383-.85737-.858 0-.474.38296-.857.85737-.857h11.62019c.4745 0 .8574.383.8574.857 0 .475-.3829.858-.8574.858z"
        fill="#000"/>
    <path
        d="m32.467 225.314h-22.68605c-.47441 0-.85737-.383-.85737-.858 0-.474.38296-.857.85737-.857h22.68605c.4744 0 .8574.383.8574.857 0 .475-.383.858-.8574.858z"
        fill="#000"/>
    <path
        d="m143.594 211.641c0 13.438-10.895 24.332-24.333 24.332-13.437 0-24.3318-10.894-24.3318-24.332 0-5.441 1.7833-10.465 4.8013-14.518 4.4355-5.956 11.5345-9.814 19.5305-9.814 13.438 0 24.333 10.894 24.333 24.332z"
        class="accent"/>
    <path
        d="m121.211 232.933c-13.89 0-25.19-11.3-25.19-25.19 0-5.464 1.7205-10.66 4.973-15.027 4.738-6.361 12.294-10.162 20.217-10.162 13.889 0 25.189 11.3 25.189 25.189 0 13.89-11.3 25.19-25.189 25.19zm0-48.665c-7.494 0-14.359 3.453-18.84 9.472-3.0291 4.069-4.6295 8.91-4.6295 14.003 0 12.947 10.5285 23.475 23.4745 23.475 12.947 0 23.475-10.528 23.475-23.475 0-12.946-10.528-23.475-23.475-23.475z"
        fill="#000"/>
    <path
        d="m114.083 204.708h-16.3074c-.4744 0-.8574-.383-.8574-.857s.383-.857.8574-.857h16.3074c.474 0 .857.383.857.857s-.383.857-.857.857z"
        fill="#000"/>
    <path
        d="m110.453 215.746h-11.6257c-.4744 0-.8573-.383-.8573-.858 0-.474.3829-.857.8573-.857h11.6257c.475 0 .858.383.858.857 0 .475-.383.858-.858.858z"
        fill="#000"/>
    <path
        d="m127.001 225.314h-22.686c-.475 0-.858-.383-.858-.858 0-.474.383-.857.858-.857h22.686c.474 0 .857.383.857.857 0 .475-.383.858-.857.858z"
        fill="#000"/>
    <path
        d="m238.127 211.641c0 13.438-10.894 24.332-24.332 24.332s-24.332-10.894-24.332-24.332c0-5.441 1.783-10.465 4.801-14.518 4.436-5.956 11.535-9.814 19.531-9.814 13.438 0 24.332 10.894 24.332 24.332z"
        class="accent"/>
    <path
        d="m215.744 232.933c-13.889 0-25.189-11.3-25.189-25.19 0-5.464 1.72-10.66 4.972-15.027 4.739-6.361 12.295-10.162 20.217-10.162 13.89 0 25.19 11.3 25.19 25.189 0 13.89-11.3 25.19-25.19 25.19zm0-48.665c-7.493 0-14.364 3.453-18.839 9.472-3.029 4.069-4.636 8.91-4.636 14.003 0 12.947 10.529 23.475 23.475 23.475 12.947 0 23.475-10.528 23.475-23.475 0-12.946-10.528-23.475-23.475-23.475z"
        fill="#000"/>
    <path
        d="m208.616 204.708h-16.307c-.474 0-.857-.383-.857-.857s.383-.857.857-.857h16.307c.475 0 .858.383.858.857s-.383.857-.858.857z"
        fill="#000"/>
    <path
        d="m204.987 215.746h-11.62c-.475 0-.857-.383-.857-.858 0-.474.382-.857.857-.857h11.62c.475 0 .857.383.857.857 0 .475-.382.858-.857.858z"
        fill="#000"/>
    <path
        d="m221.534 225.314h-22.686c-.474 0-.857-.383-.857-.858 0-.474.383-.857.857-.857h22.686c.475 0 .858.383.858.857 0 .475-.383.858-.858.858z"
        fill="#000"/>
    <path
        d="m332.661 211.641c0 13.438-10.894 24.332-24.332 24.332s-24.332-10.894-24.332-24.332c0-5.441 1.783-10.465 4.801-14.518 4.435-5.956 11.534-9.814 19.531-9.814 13.438 0 24.332 10.894 24.332 24.332z"
        class="accent"/>
    <path
        d="m310.278 232.933c-13.889 0-25.19-11.3-25.19-25.19 0-5.464 1.721-10.66 4.973-15.027 4.739-6.361 12.295-10.162 20.217-10.162 13.889 0 25.189 11.3 25.189 25.189 0 13.89-11.3 25.19-25.189 25.19zm0-48.665c-7.493 0-14.358 3.453-18.839 9.472-3.03 4.069-4.63 8.91-4.63 14.003 0 12.947 10.528 23.475 23.475 23.475 12.946 0 23.474-10.528 23.474-23.475 0-12.946-10.528-23.475-23.474-23.475z"
        fill="#000"/>
    <path
        d="m303.15 204.708h-16.307c-.474 0-.857-.383-.857-.857s.383-.857.857-.857h16.307c.475 0 .858.383.858.857s-.383.857-.858.857z"
        fill="#000"/>
    <path
        d="m299.521 215.746h-11.626c-.475 0-.858-.383-.858-.858 0-.474.383-.857.858-.857h11.626c.474 0 .857.383.857.857 0 .475-.383.858-.857.858z"
        fill="#000"/>
    <path
        d="m316.068 225.314h-22.686c-.474 0-.857-.383-.857-.858 0-.474.383-.857.857-.857h22.686c.474 0 .857.383.857.857 0 .475-.383.858-.857.858z"
        fill="#000"/>
    <path
        d="m26.677 184.269c-.4745 0-.8574-.383-.8574-.858v-20.462c0-.475.3829-.858.8574-.858h61.2048v-18.702c0-.474.3829-.857.8574-.857.4744 0 .8573.383.8573.857v19.56c0 .474-.3829.857-.8573.857h-61.2049v19.605c0 .475-.3829.858-.8573.858z"
        fill="#000"/>
    <path
        d="m121.559 184.269c-.474 0-.857-.383-.857-.858v-20.462c0-.475.383-.858.857-.858h28.265v-18.702c0-.474.383-.857.857-.857.475 0 .858.383.858.857v19.56c0 .474-.383.857-.858.857h-28.264v19.605c0 .475-.383.858-.858.858z"
        fill="#000"/>
    <path
        d="m310.695 184.269c-.474 0-.857-.383-.857-.858v-19.605h-61.205c-.474 0-.857-.383-.857-.857v-19.56c0-.474.383-.857.857-.857s.857.383.857.857v18.702h61.205c.475 0 .858.383.858.858v20.462c0 .475-.383.858-.858.858z"
        fill="#000"/>
    <path
        d="m215.813 184.269c-.475 0-.857-.383-.857-.858v-19.605h-28.265c-.475 0-.858-.383-.858-.857v-19.56c0-.474.383-.857.858-.857.474 0 .857.383.857.857v18.702h28.265c.474 0 .857.383.857.858v20.462c0 .475-.383.858-.857.858z"
        fill="#000"/>
</svg>
