<svg width="336" height="236" viewBox="0 0 336 236" fill="none" xmlns="http://www.w3.org/2000/svg">
<path d="M81.08 86.9858C59.3828 104.145 65.7731 125.002 78.8909 132.238C92.0086 139.474 115.243 129.551 115.243 129.551C115.243 129.551 95.7125 152.592 70.4829 141.24C45.2533 129.889 51.9808 88.672 81.08 86.9916V86.9858Z" fill="#FF3939"/>
<path d="M93.489 72.3475C120.611 28.7873 148.532 16.0011 179.318 23.0658C210.103 30.1306 212.286 42.2424 212.286 42.2424L228.268 38.71C228.268 38.71 205.222 0.356934 159.975 0.356934C114.729 0.356934 93.4947 33.8173 93.4947 72.3475H93.489Z" fill="#FF3939"/>
<path d="M269.479 80.584C291.01 100.446 287.895 124.333 274.691 131.735C257.27 141.503 240.071 132.238 240.071 132.238C240.071 132.238 257.201 143.103 273.177 139.062C296.726 133.107 299.772 105.831 291.342 93.8847C282.911 81.9386 269.473 80.584 269.473 80.584H269.479Z" fill="#FF3939"/>
<path d="M90.0023 144.269C73.032 144.269 59.2227 130.46 59.2227 113.489C59.2227 99.3942 68.7509 87.1281 82.4002 83.6586C82.686 83.59 82.9832 83.6586 83.1947 83.8587C83.4062 84.0587 83.5034 84.3502 83.4577 84.636C82.9833 87.3396 82.7432 90.0546 82.7432 92.7125C82.7432 102.041 85.4982 111.032 90.711 118.725C90.9739 119.119 90.8768 119.651 90.4824 119.914C90.088 120.177 89.5564 120.08 89.2935 119.685C83.8864 111.706 81.0284 102.378 81.0284 92.7125C81.0284 90.3918 81.2056 88.0312 81.5543 85.6763C69.3511 89.3687 60.9431 100.623 60.9431 113.489C60.9431 129.517 73.9809 142.554 90.008 142.554C90.4824 142.554 90.8654 142.937 90.8654 143.412C90.8654 143.886 90.4824 144.269 90.008 144.269H90.0023Z" fill="black"/>
<path d="M264.397 144.269C263.923 144.269 263.54 143.886 263.54 143.412C263.54 142.937 263.923 142.554 264.397 142.554C282.67 142.554 297.537 128.505 297.537 111.232C297.537 93.9585 282.67 79.9091 264.397 79.9091C264.248 79.9091 264.106 79.9091 263.963 79.9205H263.671C263.225 79.9434 262.808 79.5604 262.797 79.086C262.785 78.6116 263.162 78.2229 263.637 78.2115H263.911C264.077 78.2001 264.237 78.1943 264.403 78.1943C283.625 78.1943 299.258 93.0154 299.258 111.232C299.258 129.448 283.619 144.269 264.403 144.269H264.397Z" fill="black"/>
<path d="M247.376 84.2364C247.073 84.2364 246.781 84.0764 246.621 83.7906C246.392 83.3733 246.547 82.8532 246.958 82.6246C251.714 80.0181 257.11 78.5092 262.614 78.2463C258.733 58.8125 243.072 44.0657 223.358 41.4136C222.889 41.3507 222.558 40.9163 222.62 40.4476C222.683 39.9789 223.112 39.6474 223.586 39.7103C233.738 41.0764 243.026 45.569 250.445 52.6909C257.841 59.7956 262.7 68.8666 264.489 78.915C264.534 79.1608 264.466 79.418 264.306 79.6066C264.146 79.8009 263.911 79.9153 263.66 79.921C258.081 80.0353 252.588 81.4871 247.781 84.1221C247.65 84.1907 247.507 84.225 247.37 84.225L247.376 84.2364Z" fill="black"/>
<path d="M82.6117 85.3508C82.5603 85.3508 82.5146 85.3508 82.4631 85.3394C81.9944 85.2594 81.6858 84.8135 81.7658 84.3448C83.4005 75.0452 87.7102 66.4887 94.2377 59.6068C94.5006 59.3268 94.9179 59.2582 95.2551 59.4354C95.5923 59.6126 95.7752 59.9898 95.7009 60.367C94.7864 64.854 94.3234 69.4723 94.3234 74.0907C94.3234 77.2973 94.552 80.5495 95.0036 83.7504C95.0722 84.2191 94.7407 84.6535 94.272 84.7221C93.8033 84.785 93.3689 84.4592 93.3003 83.9905C92.8373 80.7096 92.603 77.383 92.603 74.0907C92.603 70.3868 92.8945 66.683 93.466 63.0478C88.2932 69.2608 84.8466 76.6685 83.4462 84.6478C83.3719 85.065 83.0118 85.3565 82.6003 85.3565L82.6117 85.3508Z" fill="black"/>
<path d="M94.8608 61.0529C94.8037 61.0529 94.7465 61.0529 94.6893 61.0357C94.2264 60.9386 93.9234 60.487 94.0206 60.024C100.634 27.5068 129.556 3.90625 162.787 3.90625C188.309 3.90625 211.846 17.7899 224.227 40.1445C224.381 40.4302 224.37 40.7732 224.187 41.0418C224.004 41.3105 223.689 41.4534 223.364 41.4076C221.243 41.1218 219.14 40.979 217.116 40.979C216.642 40.979 216.259 40.596 216.259 40.1216C216.259 39.6472 216.642 39.2642 217.116 39.2642C218.671 39.2642 220.277 39.3442 221.895 39.51C209.617 18.5616 187.125 5.62099 162.793 5.62099C130.373 5.62099 102.16 28.6442 95.7068 60.3613C95.6267 60.7671 95.2666 61.0471 94.8665 61.0471L94.8608 61.0529Z" fill="black"/>
<path d="M223.478 41.425C223.438 41.425 223.404 41.425 223.364 41.4193C221.243 41.1335 219.14 40.9906 217.116 40.9906C216.642 40.9906 216.259 40.6077 216.259 40.1332C216.259 39.6588 216.642 39.2759 217.116 39.2759C219.214 39.2759 221.397 39.4245 223.592 39.7217C224.061 39.7846 224.392 40.219 224.33 40.6877C224.272 41.1164 223.901 41.4307 223.484 41.4307L223.478 41.425Z" fill="black"/>
<path d="M264.397 144.269H162.793C162.319 144.269 161.936 143.886 161.936 143.412C161.936 142.937 162.319 142.554 162.793 142.554H253.366C246.638 140.417 240.642 136.353 236.338 130.831C236.047 130.46 236.115 129.917 236.487 129.625C236.858 129.334 237.401 129.402 237.693 129.774C243.923 137.776 253.909 142.554 264.397 142.554C264.871 142.554 265.254 142.937 265.254 143.412C265.254 143.886 264.871 144.269 264.397 144.269Z" fill="black"/>
<path d="M162.787 144.269C154.442 144.269 146.269 142.817 138.501 139.948C135.437 140.548 132.299 140.857 129.167 140.857C122.519 140.857 116.078 139.519 110.002 136.879C104.429 141.651 97.347 144.269 90.0021 144.269C89.5277 144.269 89.1448 143.886 89.1448 143.412C89.1448 142.937 89.5277 142.554 90.0021 142.554C97.1126 142.554 103.96 139.954 109.282 135.232C109.533 135.01 109.893 134.952 110.202 135.09C116.203 137.782 122.582 139.142 129.167 139.142C132.265 139.142 135.374 138.833 138.404 138.222C138.558 138.193 138.724 138.205 138.872 138.262C146.52 141.114 154.568 142.56 162.787 142.56C163.262 142.56 163.645 142.943 163.645 143.417C163.645 143.892 163.262 144.275 162.787 144.275V144.269Z" fill="black"/>
<path d="M90.0021 144.269C89.5277 144.269 89.1448 143.886 89.1448 143.412C89.1448 142.937 89.5277 142.554 90.0021 142.554C97.1126 142.554 103.96 139.954 109.282 135.232C109.636 134.918 110.179 134.952 110.493 135.307C110.808 135.661 110.773 136.204 110.419 136.518C104.783 141.52 97.5299 144.275 90.0021 144.275V144.269Z" fill="black"/>
<path d="M264.397 144.269C253.383 144.269 242.889 139.245 236.338 130.831C236.047 130.46 236.115 129.917 236.487 129.625C236.858 129.334 237.401 129.402 237.693 129.774C243.923 137.776 253.909 142.554 264.397 142.554C264.871 142.554 265.254 142.937 265.254 143.412C265.254 143.886 264.871 144.269 264.397 144.269Z" fill="black"/>
<path d="M129.167 140.857C122.336 140.857 115.718 139.445 109.499 136.656C109.236 136.536 109.047 136.29 109.002 136.004C108.956 135.718 109.064 135.427 109.282 135.232C112.26 132.592 114.626 129.431 116.312 125.847C116.426 125.601 116.649 125.43 116.912 125.373C117.175 125.321 117.449 125.39 117.65 125.567C123.937 131.083 131.076 135.352 138.872 138.262C139.232 138.393 139.455 138.753 139.427 139.131C139.398 139.508 139.118 139.828 138.741 139.902C135.603 140.537 132.379 140.857 129.167 140.857ZM111.396 135.604C117.044 137.953 123.017 139.142 129.167 139.142C131.253 139.142 133.339 138.999 135.409 138.725C128.87 135.953 122.811 132.214 117.364 127.585C115.82 130.574 113.82 133.266 111.396 135.61V135.604Z" fill="black"/>
<path d="M109.848 136.73C109.613 136.73 109.373 136.633 109.207 136.444C108.893 136.09 108.927 135.547 109.282 135.232C112.26 132.592 114.626 129.431 116.312 125.847C116.512 125.418 117.021 125.235 117.455 125.436C117.884 125.636 118.067 126.15 117.867 126.579C116.084 130.374 113.574 133.718 110.425 136.518C110.259 136.661 110.059 136.736 109.853 136.736L109.848 136.73Z" fill="black"/>
<path d="M162.787 144.269C154.357 144.269 146.109 142.789 138.272 139.863C137.827 139.697 137.604 139.205 137.769 138.759C137.935 138.314 138.432 138.091 138.873 138.256C146.52 141.109 154.568 142.555 162.787 142.555C163.262 142.555 163.645 142.938 163.645 143.412C163.645 143.886 163.262 144.269 162.787 144.269Z" fill="black"/>
<path d="M138.575 139.919C138.478 139.919 138.375 139.902 138.278 139.868C130.287 136.89 122.965 132.512 116.523 126.859C116.238 126.607 116.152 126.196 116.312 125.847C117.895 122.48 118.804 118.879 119.016 115.147C119.044 114.673 119.45 114.33 119.919 114.341C120.393 114.37 120.753 114.77 120.725 115.244C120.513 118.977 119.644 122.589 118.13 125.984C124.297 131.3 131.27 135.427 138.872 138.262C139.318 138.428 139.541 138.919 139.375 139.365C139.25 139.708 138.918 139.925 138.569 139.925L138.575 139.919Z" fill="black"/>
<path d="M117.084 127.065C116.964 127.065 116.838 127.036 116.718 126.985C116.289 126.785 116.106 126.27 116.306 125.842C117.89 122.475 118.798 118.874 119.01 115.142C119.039 114.667 119.444 114.324 119.913 114.336C120.387 114.364 120.748 114.764 120.719 115.239C120.496 119.188 119.536 123.001 117.855 126.573C117.707 126.882 117.404 127.065 117.078 127.065H117.084Z" fill="black"/>
<path d="M169.498 144.269C169.023 144.269 168.64 143.886 168.64 143.412C168.64 142.938 169.023 142.555 169.498 142.555C207.696 142.555 210.663 112.009 210.663 102.647C210.663 102.173 211.046 101.79 211.52 101.79C211.995 101.79 212.378 102.173 212.378 102.647C212.378 113.404 209.251 123.224 203.57 130.306C196.133 139.571 184.673 144.269 169.498 144.269Z" fill="black"/>
<path d="M176.071 81.4412C175.596 81.4412 175.213 81.0583 175.213 80.5839C175.213 74.4222 177.894 63.9109 185.439 54.5769C191.086 47.5979 201.163 39.27 217.11 39.27C217.585 39.27 217.968 39.653 217.968 40.1274C217.968 40.6018 217.585 40.9848 217.11 40.9848C190.355 40.9848 176.922 66.3744 176.922 80.5839C176.922 81.0583 176.539 81.4412 176.065 81.4412H176.071Z" fill="black"/>
<path d="M49.0543 211.641C49.0543 225.079 38.1599 235.973 24.7221 235.973C11.2842 235.973 0.389893 225.079 0.389893 211.641C0.389893 206.2 2.17322 201.176 5.19117 197.123C9.62663 191.167 16.7257 187.309 24.7221 187.309C38.1599 187.309 49.0543 198.203 49.0543 211.641Z" fill="#FF3939"/>
<path d="M26.6769 232.933C12.7875 232.933 1.4873 221.633 1.4873 207.743C1.4873 202.279 3.20776 197.083 6.46006 192.716C11.1985 186.355 18.7548 182.554 26.6769 182.554C40.5663 182.554 51.8664 193.854 51.8664 207.743C51.8664 221.633 40.5663 232.933 26.6769 232.933ZM26.6769 184.268C19.1834 184.268 12.313 187.721 7.83756 193.74C4.80819 197.809 3.20205 202.65 3.20205 207.743C3.20205 220.69 13.7306 231.218 26.6769 231.218C39.6232 231.218 50.1517 220.69 50.1517 207.743C50.1517 194.797 39.6232 184.268 26.6769 184.268Z" fill="black"/>
<path d="M19.5493 204.708H3.24214C2.76772 204.708 2.38477 204.325 2.38477 203.851C2.38477 203.377 2.76772 202.994 3.24214 202.994H19.5493C20.0237 202.994 20.4067 203.377 20.4067 203.851C20.4067 204.325 20.0237 204.708 19.5493 204.708Z" fill="black"/>
<path d="M15.9197 215.746H4.29951C3.8251 215.746 3.44214 215.363 3.44214 214.888C3.44214 214.414 3.8251 214.031 4.29951 214.031H15.9197C16.3942 214.031 16.7771 214.414 16.7771 214.888C16.7771 215.363 16.3942 215.746 15.9197 215.746Z" fill="black"/>
<path d="M32.467 225.314H9.78095C9.30654 225.314 8.92358 224.931 8.92358 224.456C8.92358 223.982 9.30654 223.599 9.78095 223.599H32.467C32.9414 223.599 33.3244 223.982 33.3244 224.456C33.3244 224.931 32.9414 225.314 32.467 225.314Z" fill="black"/>
<path d="M143.594 211.641C143.594 225.079 132.699 235.973 119.261 235.973C105.824 235.973 94.9292 225.079 94.9292 211.641C94.9292 206.2 96.7125 201.176 99.7305 197.123C104.166 191.167 111.265 187.309 119.261 187.309C132.699 187.309 143.594 198.203 143.594 211.641Z" fill="#FF3939"/>
<path d="M121.211 232.933C107.321 232.933 96.021 221.633 96.021 207.743C96.021 202.279 97.7415 197.083 100.994 192.716C105.732 186.355 113.288 182.554 121.211 182.554C135.1 182.554 146.4 193.854 146.4 207.743C146.4 221.633 135.1 232.933 121.211 232.933ZM121.211 184.268C113.717 184.268 106.852 187.721 102.371 193.74C99.3419 197.809 97.7415 202.65 97.7415 207.743C97.7415 220.69 108.27 231.218 121.216 231.218C134.163 231.218 144.691 220.69 144.691 207.743C144.691 194.797 134.163 184.268 121.216 184.268H121.211Z" fill="black"/>
<path d="M114.083 204.708H97.7756C97.3012 204.708 96.9182 204.325 96.9182 203.851C96.9182 203.377 97.3012 202.994 97.7756 202.994H114.083C114.557 202.994 114.94 203.377 114.94 203.851C114.94 204.325 114.557 204.708 114.083 204.708Z" fill="black"/>
<path d="M110.453 215.746H98.8273C98.3529 215.746 97.97 215.363 97.97 214.888C97.97 214.414 98.3529 214.031 98.8273 214.031H110.453C110.928 214.031 111.311 214.414 111.311 214.888C111.311 215.363 110.928 215.746 110.453 215.746Z" fill="black"/>
<path d="M127.001 225.314H104.315C103.84 225.314 103.457 224.931 103.457 224.456C103.457 223.982 103.84 223.599 104.315 223.599H127.001C127.475 223.599 127.858 223.982 127.858 224.456C127.858 224.931 127.475 225.314 127.001 225.314Z" fill="black"/>
<path d="M238.127 211.641C238.127 225.079 227.233 235.973 213.795 235.973C200.357 235.973 189.463 225.079 189.463 211.641C189.463 206.2 191.246 201.176 194.264 197.123C198.7 191.167 205.799 187.309 213.795 187.309C227.233 187.309 238.127 198.203 238.127 211.641Z" fill="#FF3939"/>
<path d="M215.744 232.933C201.855 232.933 190.555 221.633 190.555 207.743C190.555 202.279 192.275 197.083 195.527 192.716C200.266 186.355 207.822 182.554 215.744 182.554C229.634 182.554 240.934 193.854 240.934 207.743C240.934 221.633 229.634 232.933 215.744 232.933ZM215.744 184.268C208.251 184.268 201.38 187.721 196.905 193.74C193.876 197.809 192.269 202.65 192.269 207.743C192.269 220.69 202.798 231.218 215.744 231.218C228.691 231.218 239.219 220.69 239.219 207.743C239.219 194.797 228.691 184.268 215.744 184.268Z" fill="black"/>
<path d="M208.616 204.708H192.309C191.835 204.708 191.452 204.325 191.452 203.851C191.452 203.377 191.835 202.994 192.309 202.994H208.616C209.091 202.994 209.474 203.377 209.474 203.851C209.474 204.325 209.091 204.708 208.616 204.708Z" fill="black"/>
<path d="M204.987 215.746H193.367C192.892 215.746 192.51 215.363 192.51 214.888C192.51 214.414 192.892 214.031 193.367 214.031H204.987C205.462 214.031 205.844 214.414 205.844 214.888C205.844 215.363 205.462 215.746 204.987 215.746Z" fill="black"/>
<path d="M221.534 225.314H198.848C198.374 225.314 197.991 224.931 197.991 224.456C197.991 223.982 198.374 223.599 198.848 223.599H221.534C222.009 223.599 222.392 223.982 222.392 224.456C222.392 224.931 222.009 225.314 221.534 225.314Z" fill="black"/>
<path d="M332.661 211.641C332.661 225.079 321.767 235.973 308.329 235.973C294.891 235.973 283.997 225.079 283.997 211.641C283.997 206.2 285.78 201.176 288.798 197.123C293.233 191.167 300.332 187.309 308.329 187.309C321.767 187.309 332.661 198.203 332.661 211.641Z" fill="#FF3939"/>
<path d="M310.278 232.933C296.389 232.933 285.088 221.633 285.088 207.743C285.088 202.279 286.809 197.083 290.061 192.716C294.8 186.355 302.356 182.554 310.278 182.554C324.167 182.554 335.467 193.854 335.467 207.743C335.467 221.633 324.167 232.933 310.278 232.933ZM310.278 184.268C302.785 184.268 295.92 187.721 291.439 193.74C288.409 197.809 286.809 202.65 286.809 207.743C286.809 220.69 297.337 231.218 310.284 231.218C323.23 231.218 333.758 220.69 333.758 207.743C333.758 194.797 323.23 184.268 310.284 184.268H310.278Z" fill="black"/>
<path d="M303.15 204.708H286.843C286.369 204.708 285.986 204.325 285.986 203.851C285.986 203.377 286.369 202.994 286.843 202.994H303.15C303.625 202.994 304.008 203.377 304.008 203.851C304.008 204.325 303.625 204.708 303.15 204.708Z" fill="black"/>
<path d="M299.521 215.746H287.895C287.42 215.746 287.037 215.363 287.037 214.888C287.037 214.414 287.42 214.031 287.895 214.031H299.521C299.995 214.031 300.378 214.414 300.378 214.888C300.378 215.363 299.995 215.746 299.521 215.746Z" fill="black"/>
<path d="M316.068 225.314H293.382C292.908 225.314 292.525 224.931 292.525 224.456C292.525 223.982 292.908 223.599 293.382 223.599H316.068C316.542 223.599 316.925 223.982 316.925 224.456C316.925 224.931 316.542 225.314 316.068 225.314Z" fill="black"/>
<path d="M26.677 184.269C26.2025 184.269 25.8196 183.886 25.8196 183.411V162.949C25.8196 162.474 26.2025 162.091 26.677 162.091H87.8818V143.389C87.8818 142.915 88.2647 142.532 88.7392 142.532C89.2136 142.532 89.5965 142.915 89.5965 143.389V162.949C89.5965 163.423 89.2136 163.806 88.7392 163.806H27.5343V183.411C27.5343 183.886 27.1514 184.269 26.677 184.269Z" fill="black"/>
<path d="M121.559 184.269C121.085 184.269 120.702 183.886 120.702 183.411V162.949C120.702 162.474 121.085 162.091 121.559 162.091H149.824V143.389C149.824 142.915 150.207 142.532 150.681 142.532C151.156 142.532 151.539 142.915 151.539 143.389V162.949C151.539 163.423 151.156 163.806 150.681 163.806H122.417V183.411C122.417 183.886 122.034 184.269 121.559 184.269Z" fill="black"/>
<path d="M310.695 184.269C310.221 184.269 309.838 183.886 309.838 183.411V163.806H248.633C248.159 163.806 247.776 163.423 247.776 162.949V143.389C247.776 142.915 248.159 142.532 248.633 142.532C249.107 142.532 249.49 142.915 249.49 143.389V162.091H310.695C311.17 162.091 311.553 162.474 311.553 162.949V183.411C311.553 183.886 311.17 184.269 310.695 184.269Z" fill="black"/>
<path d="M215.813 184.269C215.338 184.269 214.956 183.886 214.956 183.411V163.806H186.691C186.216 163.806 185.833 163.423 185.833 162.949V143.389C185.833 142.915 186.216 142.532 186.691 142.532C187.165 142.532 187.548 142.915 187.548 143.389V162.091H215.813C216.287 162.091 216.67 162.474 216.67 162.949V183.411C216.67 183.886 216.287 184.269 215.813 184.269Z" fill="black"/>
</svg>
