<svg fill="none" height="40" viewBox="0 0 41 40" width="41" xmlns="http://www.w3.org/2000/svg" xmlns:xlink="http://www.w3.org/1999/xlink"><clipPath id="a"><path d="m.333252 0h40v40h-40z"/></clipPath><g clip-path="url(#a)" stroke="#ff2d20" stroke-linecap="round" stroke-linejoin="round" stroke-width="2"><path d="m8.97314 32.8906h6.64996"/><path d="m7.27319 29.2812h4.57001"/><path d="m5.97314 25.6602h2.28"/><path d="m35.4631 28.4083c-.98 2.96-4.34 9.53-8.25 9.59-2.26 0-3.58-1.44-6.14-1.44s-4.07 1.39-6.09 1.44c-3.87.12-7.57997-7.11-8.60997-10.06-.77-2.25-1.16-4.42-1.16-6.53 0-7.13 4.77-10.63 9.24997-10.71 2.17 0 4.94 1.58 6.14 1.58 1.14 0 4.26-1.89 7.11-1.66 3.01.23 5.3 1.42 6.81 3.59-2.7 1.64-4.04 3.86-4.02 6.81 0 .15-.28 4.92 4.96 7.38zm-15.1-17.83c-.17-2.22002.65-4.19002 2.06-5.78002 1.28-1.49 3.52-2.69 5.46-2.81.07.85.27 3.22-1.93 5.83-1.57 1.84-3.49 2.92002-5.59 2.76002z"/></g></svg>