<svg fill="none" height="40" viewBox="0 0 40 40" width="40" xmlns="http://www.w3.org/2000/svg" xmlns:xlink="http://www.w3.org/1999/xlink"><clipPath id="a"><path d="m0 0h40v40h-40z"/></clipPath><g clip-path="url(#a)" stroke="#ff2d20" stroke-linecap="round" stroke-linejoin="round" stroke-width="2"><path d="m34.51 34.5508h4.49"/><path d="m36.4299 30.9805h2.57"/><path d="m17.6599 22.0312h4.56"/><path d="m7.45002 30.9811c1.20398 0 2.18-.976 2.18-2.18s-.97602-2.18-2.18-2.18-2.18.976-2.18 2.18.97602 2.18 2.18 2.18z"/><path d="m31.83 26.6616h-18.3c-.88-2.51-3.27-4.31-6.08-4.31-3.56 0-6.45 2.89-6.45 6.45s2.89 6.45 6.45 6.45c2.81 0 5.2-1.8 6.08-4.31h12.73v2.82h3.33v-2.82h2.23v-4.28z"/><path d="m16.78 30.9794v6.02c0 1.1.9 2 2 2h18.22c1.1 0 2-.9 2-2v-16.39c0-1.1-.9-2-2-2h-18.22c-1.1 0-2 .9-2 2v6.02"/><path d="m27.89 1c-4.06 0-7.36 3.29-7.36 7.36v2.25h3.86v-2.05c0-1.93 1.57-3.5 3.5-3.5s3.5 1.57 3.5 3.5v10.05h3.86v-10.25c0-4.06-3.29-7.36-7.36-7.36z"/></g></svg>