<svg width="40" height="40" viewBox="0 0 40 40" fill="none" xmlns="http://www.w3.org/2000/svg">
<g clip-path="url(#clip0_834_1169)">
<path d="M19.6101 35.1211H24.1001" stroke="#FF2D20" stroke-width="2" stroke-linecap="round" stroke-linejoin="round"/>
<path d="M20.79 31.4492H23.18" stroke="#FF2D20" stroke-width="2" stroke-linecap="round" stroke-linejoin="round"/>
<path d="M15.1201 21.1289H17.5101" stroke="#FF2D20" stroke-width="2" stroke-linecap="round" stroke-linejoin="round"/>
<path d="M16.6201 17.75H19.0101" stroke="#FF2D20" stroke-width="2" stroke-linecap="round" stroke-linejoin="round"/>
<path d="M15.1201 14.4609H17.5101" stroke="#FF2D20" stroke-width="2" stroke-linecap="round" stroke-linejoin="round"/>
<path d="M13.1999 23.8295C16.5302 23.8295 19.2299 21.1298 19.2299 17.7995C19.2299 14.4693 16.5302 11.7695 13.1999 11.7695C9.86964 11.7695 7.16992 14.4693 7.16992 17.7995C7.16992 21.1298 9.86964 23.8295 13.1999 23.8295Z" stroke="#FF2D20" stroke-width="2" stroke-linecap="round" stroke-linejoin="round"/>
<path d="M9.95 23.5391L8.56 27.6991L6.4 27.8691C4.74 27.9991 3.35 29.1891 2.96 30.8091L1 38.9891" stroke="#FF2D20" stroke-width="2" stroke-linecap="round" stroke-linejoin="round"/>
<path d="M16.46 23.5391L17.85 27.6991L20.01 27.8691C21.67 27.9991 23.06 29.1891 23.45 30.8091L25.41 38.9891" stroke="#FF2D20" stroke-width="2" stroke-linecap="round" stroke-linejoin="round"/>
<path d="M3 24.82V4.35C3 2.51 4.51 1 6.35 1H33.49C35.33 1 36.84 2.51 36.84 4.35V27.42C36.84 29.26 35.33 30.77 33.49 30.77H27.98" stroke="#FF2D20" stroke-width="2" stroke-linecap="round" stroke-linejoin="round"/>
<path d="M3 6.35156H36.85" stroke="#FF2D20" stroke-width="2" stroke-linecap="round" stroke-linejoin="round"/>
</g>
<defs>
<clipPath id="clip0_834_1169">
<rect width="40" height="40" fill="white"/>
</clipPath>
</defs>
</svg>
