<svg fill="none" height="40" viewBox="0 0 40 40" width="40" xmlns="http://www.w3.org/2000/svg" xmlns:xlink="http://www.w3.org/1999/xlink"><clipPath id="a"><path d="m0 0h40v40h-40z"/></clipPath><g clip-path="url(#a)" stroke="#ff2d20" stroke-linecap="round" stroke-linejoin="round" stroke-width="2"><path d="m19.6101 35.1211h4.49"/><path d="m20.79 31.4492h2.39"/><path d="m15.1201 21.1289h2.39"/><path d="m16.6201 17.75h2.39"/><path d="m15.1201 14.4609h2.39"/><path d="m13.1999 23.8295c3.3303 0 6.03-2.6997 6.03-6.03 0-3.3302-2.6997-6.03-6.03-6.03-3.33026 0-6.02998 2.6998-6.02998 6.03 0 3.3303 2.69972 6.03 6.02998 6.03z"/><path d="m9.95 23.5391-1.39 4.16-2.16.17c-1.66.13-3.05 1.32-3.44 2.94l-1.96 8.18"/><path d="m16.46 23.5391 1.39 4.16 2.16.17c1.66.13 3.05 1.32 3.44 2.94l1.96 8.18"/><path d="m3 24.82v-20.47c0-1.84 1.51-3.35 3.35-3.35h27.14c1.84 0 3.35 1.51 3.35 3.35v23.07c0 1.84-1.51 3.35-3.35 3.35h-5.51"/><path d="m3 6.35156h33.85"/></g></svg>