<svg fill="none" height="174" viewBox="0 0 205 174" width="205" xmlns="http://www.w3.org/2000/svg" xmlns:xlink="http://www.w3.org/1999/xlink"><clipPath id="a"><path d="m0 0h204.792v173.344h-204.792z"/></clipPath><g clip-path="url(#a)"><path d="m101.808 68.2559-92.63222 4.416c2.76002 7.048 61.99202 98.3521 64.24002 98.7601s33.4402-89.9121 34.1122-92.5281-5.72-10.648-5.72-10.648zm-26.0322 32.0961c-3.56 0-6.44-2.8881-6.44-6.4401s2.888-6.44 6.44-6.44 6.44 2.888 6.44 6.44-2.888 6.4401-6.44 6.4401z" fill="#f9322c"/><path d="m168.168 22.144 7.328 10.856s2.96-1.784 5.616.56c6.992-.816 20.936-9.368 21.808-9.712s-1.12-7.136-4.696-11.072c-3.576-3.93603-6.232-10.19203-7.76-9.44003s-19.608 14.19203-19.608 14.19203l-2.68 4.608z" fill="#f9322c"/><g fill="#f4f4f5"><path d="m71.184 173.36c-.92 0-2.384-1.32-12.496-15.736-6.064-8.648-14.376-20.832-23.408-34.328-16.048-23.9841-33.816-51.2641-35.127997-54.5921-.416-1.048.144-1.56.4-1.728.2-.128.432-.2.663997-.2h98.448c.408 0 .784.208 1.008.552l6.336 9.808c.2.312.248.696.128 1.04-.08.232-8.168 23.7681-16.448 47.0401-16.984 47.744-18.12 47.936-19.216 48.12-.096.016-.192.032-.288.032zm-68.112-104.1841c3.24 5.752 16.944 26.96 32.872 50.8001 17.968 26.896 31.584 46.424 35.12 50.416 3.92-7.48 21.816-58.128 33.608-92.4561l-5.664-8.768h-95.936z"/><path d="m106 78.976c-.08 0-.16 0-.24-.024-.32-.064-.592-.256-.768-.528l-6.3355-9.808c-.36-.56-.2-1.296.352-1.656.624-.4 62.0315-40.248 67.1275-44.584 4.368-3.728 3.824-6.064 3.816-6.088-.168-.472-.008-.944.368-1.272 5.224-4.424 17.64-14.72 20.456-14.528 3.504.208 13.808 15.512 13.992 17.32.192 1.88-1.552 4.448-1.896 4.952-.128.176-.304.32-.504.408l-21.448 9.344c-.288.12-.608.136-.896.024-.152-.056-3.912-1.32-8.784 2.2-5.464 3.952-63.984 43.64-64.576 44.04-.2.136-.432.208-.672.208zm-4.672-10.648 5.016 7.768c7.848-5.328 58.464-39.664 63.504-43.304 4.936-3.568 9.12-2.992 10.528-2.648l20.736-9.032c.68-1.032 1.32-2.376 1.288-3.008-.616-1.984-9.552-14.456-11.752-15.2-1.792.336-10.536 7.024-18.256 13.528.056 1.376-.488 4.2-4.688 7.776-4.904 4.184-58.064 38.736-66.376 44.12z"/><path d="m173.24 15.36c-.12 0-.248-.016-.368-.056-1.376-.44-4.624-1.648-5.176-3.384-.192-.608-.088-1.232.304-1.752.888-1.18402 2.664-1.74402 4.312-1.36002 1.84.432 3.112 1.88802 3.496 3.99202.12.648-.312 1.28-.968 1.4-.136.024-.28.024-.408 0 0 .112-.024.216-.056.328-.16.512-.632.832-1.144.832zm-3.064-3.976c.528.448 1.872 1.112 3.216 1.568-.248-.992-.808-1.608-1.624-1.8-.616-.144-1.224 0-1.592.232z"/><path d="m178.304 10.296c-.12 0-.248-.016-.368-.056-1.376-.43998-4.632-1.64798-5.176-3.38398-.192-.608-.088-1.232.304-1.752.888-1.184 2.664-1.744 4.312-1.36 1.84.432 3.112 1.888 3.496 3.992.12.648-.312 1.28-.968 1.4-.136.024-.28.024-.408 0 0 .112-.024.216-.056.328-.16.512-.632.83198-1.144.83198zm-3.064-3.97598c.528.448 1.88 1.112 3.216 1.568-.248-.992-.808-1.608-1.624-1.8-.608-.144-1.224 0-1.592.232z"/><path d="m183.776 6.67199c-.12 0-.248-.016-.368-.056-1.376-.44-4.624-1.648-5.176-3.384-.192-.608-.088-1.232.304-1.752.888-1.183995 2.664-1.743995 4.312-1.359995 1.84.432 3.112 1.887995 3.496 3.991995.12.648-.312 1.28-.968 1.4-.136.024-.28.024-.408 0 0 .112-.024.216-.056.328-.16.512-.632.832-1.144.832zm-3.064-3.976c.528.448 1.872 1.112 3.216 1.568-.248-.992-.808-1.608-1.624-1.8-.616-.144-1.224 0-1.592.232z"/><path d="m35.5275 116.008c-.44 0-.8-.36-.8-.8 0-.336 2.3174-2.083 6.952-5.24 4.2-2.864 10.208-6.928 17.416-11.7921 12.752-8.608 30.528-20.576 52.8485-35.576 38.44-25.84 76.872-51.616 76.872-51.616.368-.248.864-.152 1.112.216s.152.864-.216 1.112c-52.088 34.928-150.9365 101.3121-153.6085 103.4481-.144.152-.352.24-.576.24z"/><path d="m37.2082 118.728c-.44 0-.8-.36-.8-.8 0-.389 7.7893-5.885 23.368-16.488 12.216-8.3201 29.256-19.8881 50.6318-34.3841 36.824-24.96 73.648-49.864 73.648-49.864.368-.248.864-.152 1.112.216s.152.864-.216 1.112c-49.88 33.736-144.5598 97.8481-147.1678 99.9681-.144.152-.352.248-.576.248z"/><path d="m38.8645 121.28c-.44 0-.8-.36-.8-.8 0-.389 7.3706-5.619 22.112-15.688 11.552-7.8958 27.664-18.8638 47.8795-32.6078 34.824-23.672 69.648-47.296 69.648-47.296.368-.248.864-.152 1.112.216s.152.864-.216 1.112c-47.136 31.968-136.6075 92.7438-139.1595 94.8158-.144.152-.352.248-.584.248z"/><path d="m75.4398 98.5441c-3.776 0-6.848-3.072-6.848-6.848s3.072-6.848 6.848-6.848 6.848 3.072 6.848 6.848-3.072 6.848-6.848 6.848zm0-12.104c-2.896 0-5.248 2.352-5.248 5.248s2.352 5.248 5.248 5.248 5.248-2.352 5.248-5.248-2.352-5.248-5.248-5.248z"/><path d="m50.9279 125.656s-.072 0-.104 0c-.216-.032-.416-.144-.544-.328l-15.4-21.368c-.256-.352-.184-.84.16-1.104l2.608-1.992c.176-.136.4-.192.616-.152.216.032.408.16.536.336l14.856 21.68c.232.344.168.808-.152 1.072l-2.064 1.688c-.144.12-.32.176-.504.176zm-14.296-22.008 14.448 20.048.84-.68-13.968-20.376z"/><path d="m62.9525 109.8c-.264 0-.504-.128-.656-.344l-8.576-12.336c-.248-.352-.168-.84.176-1.096l1.528-1.152c.176-.136.4-.184.616-.152.216.04.408.16.528.344l7.968 11.792c.168.248.184.568.04.832l-.92 1.688c-.136.24-.384.4-.656.416-.016 0-.032 0-.04 0zm-7.48-12.952 7.4 10.64.064-.12-7.224-10.696-.24.184z"/><path d="m190.224 12.8159c-1.088 0-1.968-.88-1.968-1.968 0-1.08802.88-1.96802 1.968-1.96802s1.968.88 1.968 1.96802c0 1.088-.88 1.968-1.968 1.968zm0-2.336c-.2 0-.368.168-.368.368s.168.368.368.368.368-.168.368-.368-.168-.368-.368-.368z"/><path d="m185.68 19.4961c-1.088 0-1.968-.88-1.968-1.968s.88-1.968 1.968-1.968 1.968.88 1.968 1.968-.88 1.968-1.968 1.968zm0-2.336c-.2 0-.368.168-.368.368s.168.368.368.368.368-.168.368-.368-.168-.368-.368-.368z"/><path d="m179.696 26.976c-1.088 0-1.968-.88-1.968-1.968s.88-1.968 1.968-1.968 1.968.88 1.968 1.968-.88 1.968-1.968 1.968zm0-2.336c-.2 0-.368.168-.368.368s.168.368.368.368.368-.168.368-.368-.168-.368-.368-.368z"/><path d="m71.1204 148.048c-.168 0-.336-.056-.48-.16l-5.416-4.088c-.352-.264-.424-.768-.16-1.12s.768-.424 1.12-.16l5.416 4.088c.352.264.424.768.16 1.12-.16.208-.4.32-.64.32z"/><path d="m74.4956 143c-.168 0-.336-.056-.48-.16l-2.384-1.8c-.352-.264-.424-.768-.16-1.12s.768-.424 1.12-.16l2.384 1.8c.352.264.424.768.16 1.12-.16.208-.4.32-.64.32z"/><path d="m75.7756 76.2561c-.184 0-.376-.064-.528-.2-.336-.288-.368-.792-.08-1.128l3.92-4.496c.296-.336.8-.368 1.128-.08.336.288.368.792.08 1.128l-3.92 4.496c-.16.184-.384.272-.6.272z"/><path d="m82.2156 73.8158c-.136 0-.264-.032-.392-.104-.384-.216-.52-.704-.304-1.088l1.152-2.056c.216-.384.704-.52 1.088-.304s.52.704.304 1.088l-1.152 2.056c-.144.264-.416.408-.696.408z"/></g></g></svg>