<?xml version="1.0" encoding="UTF-8"?>
<svg id="Layer_1" data-name="Layer 1" xmlns="http://www.w3.org/2000/svg" viewBox="0 0 246.9 240.47">
  <defs>
    <style>
      .cls-1, .cls-2 {
        stroke-width: 0px;
      }

      .cls-2 {
        fill: #ff2d20;
      }
    </style>
  </defs>
  <path class="cls-2" d="m117.45,16.23c-13.54,0-26.5,2.5-38.45,7.05.82.67,1.3,1.72,1.15,2.84l-1.71,12.64c-.23,1.7-1.81,2.91-3.51,2.68-1.7-.23-2.91-1.81-2.68-3.51l1.7-12.57C35.97,42.1,9.45,80.07,9.45,124.23c0,59.65,48.35,108,108,108s108-48.35,108-108S177.1,16.23,117.45,16.23ZM33.08,116.8l-3.01,12.4c-.41,1.67-2.1,2.7-3.78,2.3-1.67-.41-2.7-2.11-2.3-3.78l3.01-12.4c.41-1.67,2.1-2.7,3.78-2.3,1.67.41,2.7,2.11,2.3,3.78Zm17.85,3.48l-4.11,12.07c-.55,1.63-2.34,2.5-3.96,1.95-1.63-.55-2.5-2.34-1.95-3.96l4.11-12.07c.55-1.63,2.34-2.5,3.96-1.95,1.63.55,2.5,2.34,1.95,3.96Zm18.52,5.47l-5.1,11.68c-.69,1.57-2.54,2.3-4.11,1.61s-2.3-2.54-1.61-4.11l5.1-11.68c.69-1.57,2.54-2.3,4.11-1.61s2.3,2.54,1.61,4.11Zm94.61-62.93l8.01-9.91c1.08-1.34,3.05-1.55,4.39-.47s1.55,3.05.47,4.39l-8.01,9.91c-1.08,1.34-3.05,1.55-4.39.47s-1.55-3.05-.47-4.39Zm-17.24-8.44l6.65-10.87c.9-1.46,2.83-1.93,4.29-1.03s1.93,2.83,1.03,4.29l-6.65,10.87c-.9,1.46-2.83,1.93-4.29,1.03-1.46-.9-1.93-2.83-1.03-4.29Zm-1.38,69.93l8.3,9.67c1.12,1.3.97,3.28-.34,4.4h0c-1.3,1.12-3.28.97-4.4-.34l-8.3-9.67c-1.12-1.3-.97-3.28.34-4.4,1.3-1.12,3.28-.97,4.4.34Zm-16.24-77.35l5.32-11.58c.72-1.56,2.58-2.25,4.14-1.53,1.56.72,2.25,2.58,1.53,4.14l-5.32,11.58c-.72,1.56-2.58,2.25-4.14,1.53-1.56-.72-2.25-2.58-1.53-4.14Zm-1.68,88.6c1.52-.8,3.42-.21,4.22,1.31l5.94,11.29c.8,1.52.21,3.42-1.31,4.22-1.52.8-3.42.21-4.22-1.31l-5.94-11.29c-.8-1.52-.21-3.42,1.31-4.22Zm-15.84-93.56l4.06-12.08c.55-1.63,2.33-2.51,3.95-1.97,1.63.55,2.51,2.33,1.97,3.95l-4.06,12.08c-.55,1.63-2.33,2.51-3.95,1.97s-2.51-2.33-1.97-3.95Zm-23.55,91.23l-6.04,11.22c-.81,1.51-2.72,2.08-4.23,1.27h0c-1.51-.81-2.08-2.72-1.27-4.23l6.04-11.22c.81-1.51,2.72-2.08,4.23-1.27,1.51.81,2.08,2.72,1.27,4.23Zm3.78-94.39l2.86-12.42c.39-1.67,2.07-2.73,3.74-2.34s2.73,2.07,2.34,3.74l-2.86,12.42c-.39,1.67-2.07,2.73-3.74,2.34-1.67-.39-2.73-2.07-2.34-3.74Zm14.51,103.87l-7.01,10.64c-.94,1.43-2.89,1.83-4.32.89-1.43-.94-1.83-2.89-.89-4.32l7.01-10.64c.94-1.43,2.89-1.83,4.32-.89h0c1.43.94,1.83,2.89.89,4.32Zm17.37,11.5l-8.03,9.9c-1.08,1.33-3.06,1.54-4.39.46s-1.54-3.06-.46-4.39l8.03-9.9c1.08-1.33,3.06-1.54,4.39-.46,1.33,1.08,1.54,3.06.46,4.39Zm2.35,22.4c-1.2-1.23-1.18-3.21.05-4.42l9.11-8.91c1.23-1.2,3.22-1.18,4.42.05,1.2,1.23,1.18,3.21-.05,4.42l-9.11,8.91c-1.23,1.2-3.21,1.18-4.42-.05Zm12.73,13.68c-1.02-1.38-.74-3.35.64-4.37l10.23-7.61c1.38-1.02,3.35-.73,4.37.64,1.02,1.38.74,3.35-.64,4.37l-10.23,7.61c-1.38,1.02-3.35.73-4.37-.64Zm25.73,10.67l-11.31,5.9c-1.52.8-3.42.2-4.22-1.32-.8-1.52-.2-3.42,1.32-4.22l11.31-5.9c1.52-.8,3.42-.2,4.22,1.32.8,1.52.2,3.42-1.32,4.22Zm2.03-78.71c-1.05,1.36-3.02,1.61-4.38.57l-10.09-7.78c-1.36-1.05-1.61-3.02-.57-4.38,1.05-1.36,3.02-1.61,4.38-.57l10.09,7.78c1.36,1.05,1.61,3.02.57,4.38Zm9.78-17.36c-.79,1.52-2.69,2.12-4.21,1.33l-11.31-5.88c-1.52-.79-2.12-2.69-1.33-4.21.79-1.52,2.69-2.12,4.21-1.33l11.31,5.88c1.52.79,2.12,2.69,1.33,4.21Zm6.84-17.74c-.55,1.63-2.34,2.5-3.97,1.95l-12.07-4.12c-1.63-.55-2.5-2.34-1.95-3.97s2.34-2.5,3.97-1.95l12.07,4.12c1.63.55,2.5,2.34,1.95,3.97Zm3.94-7.02c-1.26,1.17-3.24,1.1-4.41-.15s-1.1-3.24.15-4.41l9.32-8.7c1.26-1.17,3.24-1.1,4.41.15s1.1,3.24-.15,4.41l-9.32,8.7Zm7.53,18.51c-.98-1.41-.62-3.37.79-4.35l10.49-7.25c1.41-.98,3.37-.62,4.35.79h0c.98,1.41.62,3.37-.79,4.35l-10.49,7.25c-1.41.98-3.37.62-4.35-.79Zm28.25,16.35l-11.44,5.65c-1.54.76-3.43.12-4.19-1.42-.76-1.54-.12-3.43,1.42-4.19l11.44-5.65c1.54-.76,3.43-.12,4.19,1.42.76,1.54.12,3.43-1.42,4.19Z"/>
  <path class="cls-1" d="m123.45,229.73c-60.38,0-109.5-49.12-109.5-109.5S63.07,10.73,123.45,10.73s109.5,49.12,109.5,109.5-49.12,109.5-109.5,109.5Zm0-216c-58.72,0-106.5,47.78-106.5,106.5s47.78,106.5,106.5,106.5,106.5-47.78,106.5-106.5S182.17,13.73,123.45,13.73Z"/>
  <path class="cls-1" d="m229.7,141.17c-.64,0-1.24-.42-1.43-1.06-2.44-7.97-5.44-15.67-8.93-22.88-.36-.75-.05-1.64.7-2,.75-.36,1.64-.05,2,.7,3.55,7.35,6.62,15.19,9.1,23.31.24.79-.2,1.63-1,1.87-.15.04-.29.07-.44.07Z"/>
  <path class="cls-1" d="m217.85,112.51c-.54,0-1.05-.29-1.32-.79-3.06-5.71-6.51-11.23-10.26-16.4-.49-.67-.34-1.61.33-2.09.67-.49,1.61-.34,2.09.33,3.82,5.28,7.34,10.91,10.47,16.74.39.73.12,1.64-.61,2.03-.23.12-.47.18-.71.18Z"/>
  <path class="cls-1" d="m203.82,91.1c-.44,0-.88-.2-1.18-.57-3.47-4.38-7.23-8.6-11.2-12.53-.59-.58-.59-1.53,0-2.12.58-.59,1.53-.59,2.12,0,4.05,4.02,7.9,8.33,11.44,12.8.51.65.4,1.59-.25,2.11-.28.22-.6.32-.93.32Z"/>
  <path class="cls-1" d="m188.18,74.31c-.36,0-.72-.13-1.01-.39-4.12-3.77-8.54-7.35-13.14-10.66-.67-.48-.83-1.42-.34-2.09.48-.67,1.42-.82,2.09-.34,4.69,3.37,9.21,7.03,13.42,10.88.61.56.65,1.51.1,2.12-.3.32-.7.49-1.11.49Z"/>
  <path class="cls-1" d="m169.36,59.75c-.28,0-.57-.08-.82-.24-3.56-2.32-7.28-4.54-11.06-6.58-.73-.39-1-1.3-.61-2.03.39-.73,1.3-1,2.03-.61,3.85,2.08,7.65,4.34,11.27,6.71.69.45.89,1.38.44,2.08-.29.44-.77.68-1.26.68Z"/>
  <path class="cls-1" d="m152.79,50.32c-.22,0-.45-.05-.66-.15-3.83-1.88-7.8-3.65-11.82-5.24-.77-.31-1.15-1.18-.84-1.95.31-.77,1.18-1.14,1.95-.84,4.09,1.63,8.14,3.42,12.04,5.34.74.37,1.05,1.26.68,2.01-.26.53-.79.84-1.35.84Z"/>
  <path class="cls-1" d="m134.12,42.52c-.16,0-.33-.03-.49-.08-3.63-1.26-7.37-2.43-11.11-3.45-.8-.22-1.27-1.04-1.05-1.84.22-.8,1.04-1.27,1.84-1.05,3.8,1.04,7.61,2.22,11.3,3.51.78.27,1.2,1.13.92,1.91-.21.62-.8,1.01-1.42,1.01Z"/>
  <path class="cls-1" d="m116.37,37.38c-.11,0-.23-.01-.34-.04-4.52-1.05-9.11-1.92-13.65-2.58-.82-.12-1.39-.88-1.27-1.7.12-.82.88-1.39,1.7-1.27,4.62.68,9.29,1.56,13.89,2.63.81.19,1.31.99,1.12,1.8-.16.69-.78,1.16-1.46,1.16Z"/>
  <path class="cls-1" d="m96.11,33.96c-.05,0-.11,0-.16,0-4.56-.48-9.07-.76-13.41-.82-.83-.01-1.49-.69-1.48-1.52.01-.82.68-1.48,1.5-1.48h.02c4.43.06,9.03.34,13.68.83.82.09,1.42.83,1.33,1.65-.08.77-.73,1.34-1.49,1.34Z"/>
  <path class="cls-1" d="m58.45,35.48c-.67,0-1.28-.45-1.45-1.13-.2-.8.29-1.62,1.09-1.82,5.1-1.28,11.09-2.06,17.81-2.31.8-.02,1.52.61,1.56,1.44.03.83-.61,1.52-1.44,1.56-6.42.24-12.36,1.01-17.19,2.23-.12.03-.25.04-.37.04Z"/>
  <path class="cls-1" d="m168.36,219.98c-.64,0-1.23-.41-1.43-1.04-1.64-5.14-3.73-10.23-6.22-15.13-.38-.74-.08-1.64.66-2.02s1.64-.08,2.02.66c2.56,5.05,4.71,10.29,6.4,15.58.25.79-.18,1.63-.97,1.88-.15.05-.31.07-.46.07Z"/>
  <path class="cls-1" d="m158.93,198.92c-.52,0-1.02-.27-1.3-.74-2.22-3.79-4.72-7.55-7.45-11.17-.5-.66-.37-1.6.29-2.1.66-.5,1.6-.37,2.1.3,2.8,3.71,5.37,7.57,7.65,11.46.42.71.18,1.63-.54,2.05-.24.14-.5.21-.76.21Z"/>
  <path class="cls-1" d="m147.28,182.44c-.43,0-.85-.18-1.15-.54-2.87-3.42-6.02-6.8-9.35-10.03-.59-.58-.61-1.53-.03-2.12.58-.59,1.53-.61,2.12-.03,3.41,3.31,6.62,6.76,9.56,10.26.53.63.45,1.58-.19,2.11-.28.24-.62.35-.96.35Z"/>
  <path class="cls-1" d="m133.38,168.16c-.36,0-.71-.13-1-.38-3.28-2.93-6.79-5.8-10.43-8.54-.66-.5-.8-1.44-.3-2.1.5-.66,1.44-.8,2.1-.3,3.71,2.78,7.29,5.71,10.63,8.7.62.55.67,1.5.12,2.12-.3.33-.71.5-1.12.5Z"/>
  <path class="cls-1" d="m117.77,155.88c-.3,0-.59-.09-.85-.27-3.8-2.64-7.81-5.19-11.92-7.59-.72-.42-.96-1.34-.54-2.05.42-.72,1.34-.96,2.05-.54,4.18,2.44,8.25,5.04,12.11,7.72.68.47.85,1.41.38,2.09-.29.42-.76.64-1.23.64Z"/>
  <path class="cls-1" d="m100.29,145.15c-.24,0-.49-.06-.71-.18-3.8-2.05-7.74-4.02-11.72-5.85-.75-.34-1.08-1.24-.74-1.99.34-.75,1.24-1.08,1.99-.74,4.04,1.85,8.04,3.85,11.9,5.93.73.39,1,1.3.61,2.03-.27.5-.79.79-1.32.79Z"/>
  <path class="cls-1" d="m82.38,136.58c-.19,0-.39-.04-.58-.12-3.92-1.65-7.95-3.19-11.96-4.59-.78-.27-1.2-1.13-.92-1.91.27-.78,1.13-1.19,1.91-.92,4.08,1.42,8.16,2.99,12.14,4.66.76.32,1.12,1.2.8,1.96-.24.57-.8.92-1.38.92Z"/>
  <path class="cls-1" d="m64.23,129.94c-.15,0-.3-.02-.45-.07-3.93-1.23-7.93-2.35-11.86-3.32-.8-.2-1.3-1.01-1.1-1.82.2-.8,1.01-1.29,1.82-1.1,4,.98,8.05,2.12,12.04,3.37.79.25,1.23,1.09.98,1.88-.2.64-.79,1.05-1.43,1.05Z"/>
  <path class="cls-1" d="m45.91,125.15c-.1,0-.21,0-.31-.03-3.7-.77-7.4-1.43-11-1.94-.82-.12-1.39-.88-1.27-1.7.12-.82.86-1.39,1.7-1.27,3.67.52,7.43,1.19,11.19,1.97.81.17,1.33.96,1.16,1.78-.15.71-.77,1.19-1.47,1.19Z"/>
  <path class="cls-1" d="m28.53,122.43c-.05,0-.1,0-.15,0-4.47-.45-8.82-.68-12.93-.68-.83,0-1.5-.67-1.5-1.5s.67-1.5,1.5-1.5h0c4.21,0,8.66.24,13.23.7.82.08,1.42.82,1.34,1.64-.08.77-.73,1.35-1.49,1.35Z"/>
  <path class="cls-1" d="m178.33,81.45c-.14,0-.29-.02-.43-.06-.79-.24-1.24-1.08-1-1.87,1.36-4.51,2.34-8.82,2.91-12.83.12-.82.88-1.39,1.7-1.27.82.12,1.39.88,1.27,1.7-.59,4.16-1.6,8.62-3.01,13.27-.2.65-.79,1.07-1.43,1.07Z"/>
  <path class="cls-1" d="m171.97,98.01c-.21,0-.43-.04-.63-.14-.75-.35-1.08-1.24-.73-1.99,1.59-3.44,3.03-6.92,4.28-10.33.28-.78,1.15-1.18,1.92-.9.78.28,1.18,1.14.9,1.92-1.27,3.49-2.74,7.05-4.37,10.57-.25.55-.8.87-1.36.87Z"/>
  <path class="cls-1" d="m163.19,114.19c-.27,0-.55-.07-.8-.23-.7-.44-.91-1.37-.47-2.07,2.12-3.38,4.13-6.91,5.97-10.47.38-.74,1.29-1.02,2.02-.64.74.38,1.02,1.29.64,2.02-1.88,3.64-3.93,7.23-6.1,10.69-.28.45-.77.7-1.27.7Z"/>
  <path class="cls-1" d="m152.38,129.12c-.34,0-.68-.12-.96-.35-.63-.53-.72-1.48-.19-2.11,2.56-3.05,5.06-6.35,7.43-9.8.47-.68,1.4-.86,2.09-.39.68.47.86,1.4.39,2.09-2.43,3.53-4.99,6.91-7.6,10.03-.3.35-.72.54-1.15.54Z"/>
  <path class="cls-1" d="m137.89,143.39c-.44,0-.88-.2-1.18-.57-.51-.65-.4-1.59.25-2.11,3.38-2.66,6.75-5.78,10.02-9.26.57-.6,1.51-.63,2.12-.07.6.57.63,1.52.07,2.12-3.37,3.59-6.85,6.8-10.34,9.56-.28.22-.6.32-.93.32Z"/>
  <path class="cls-1" d="m126.98,150.47c-.55,0-1.07-.3-1.34-.82-.38-.74-.08-1.64.65-2.02,1.88-.96,3.78-2.07,5.65-3.3.69-.45,1.62-.26,2.08.43.46.69.26,1.62-.43,2.08-1.96,1.29-3.96,2.46-5.93,3.47-.22.11-.45.16-.68.16Z"/>
  <path class="cls-1" d="m115.84,154.56c-.69,0-1.31-.48-1.46-1.18-.18-.81.33-1.61,1.14-1.79.89-.2,1.79-.43,2.68-.69.79-.23,1.63.22,1.86,1.02s-.22,1.63-1.02,1.86c-.96.28-1.93.53-2.89.74-.11.02-.22.04-.32.04Z"/>
  <g>
    <path class="cls-1" d="m30.03,132.09c-.37,0-.73-.04-1.1-.13-1.2-.29-2.21-1.03-2.86-2.09-.64-1.06-.84-2.3-.55-3.5l3.01-12.4c.6-2.48,3.11-4,5.59-3.4,2.48.6,4.01,3.11,3.4,5.59l-3.01,12.4c-.29,1.2-1.03,2.21-2.09,2.86-.74.45-1.56.68-2.4.68Zm3.01-18.65c-.73,0-1.4.5-1.58,1.24l-3.01,12.4c-.1.42-.03.85.19,1.23.23.37.58.63,1,.74h0c.42.1.85.03,1.23-.19.37-.23.63-.58.74-1l3.01-12.4c.1-.42.03-.85-.19-1.23-.23-.37-.58-.63-1-.74-.13-.03-.26-.05-.38-.05Z"/>
    <path class="cls-1" d="m46.85,134.96c-.49,0-1-.08-1.49-.25h0c-1.17-.4-2.11-1.23-2.65-2.34-.55-1.11-.63-2.36-.23-3.53l4.11-12.07c.4-1.17,1.23-2.11,2.34-2.65,1.11-.55,2.36-.63,3.53-.23,1.17.4,2.11,1.23,2.65,2.34.55,1.11.63,2.36.23,3.53l-4.11,12.07c-.65,1.92-2.46,3.13-4.38,3.13Zm-.52-3.09c.85.29,1.77-.17,2.06-1.01l4.11-12.07c.29-.85-.17-1.77-1.01-2.06-.41-.14-.84-.11-1.24.08-.39.19-.68.52-.82.93l-4.11,12.07c-.29.85.17,1.77,1.01,2.06Z"/>
    <path class="cls-1" d="m64.47,139.81c-.63,0-1.25-.13-1.84-.39-2.34-1.02-3.41-3.75-2.39-6.09l5.1-11.68c1.02-2.34,3.75-3.41,6.09-2.39,2.34,1.02,3.41,3.75,2.39,6.09l-5.1,11.68c-.49,1.13-1.4,2-2.55,2.45-.55.22-1.12.32-1.7.32Zm5.11-17.93c-.63,0-1.22.37-1.49.98l-5.1,11.68c-.17.39-.18.83-.02,1.24.16.41.46.72.86.9.39.17.83.18,1.24.02.41-.16.72-.46.9-.86l5.1-11.68c.36-.82-.02-1.78-.84-2.14-.21-.09-.43-.14-.64-.14Z"/>
    <path class="cls-1" d="m82.3,146.58c-.75,0-1.5-.19-2.18-.55-1.08-.58-1.88-1.56-2.23-2.74-.35-1.18-.23-2.43.36-3.52l6.04-11.22c1.21-2.24,4.02-3.09,6.26-1.88,2.24,1.21,3.09,4.02,1.88,6.26l-6.04,11.22c-.58,1.08-1.56,1.88-2.74,2.23-.44.13-.89.2-1.34.2Zm6.06-17.46c-.58,0-1.14.31-1.43.85l-6.04,11.22c-.2.38-.25.82-.12,1.23.12.42.4.76.78.96.38.2.82.25,1.23.12s.76-.4.96-.78l6.04-11.22c.42-.79.13-1.77-.66-2.2-.24-.13-.51-.19-.77-.19Z"/>
    <path class="cls-1" d="m99.78,155.25c-.87,0-1.75-.25-2.54-.76-2.13-1.4-2.72-4.27-1.32-6.4l7.01-10.64c.68-1.03,1.72-1.73,2.93-1.98,1.22-.25,2.45-.01,3.47.66,2.13,1.4,2.72,4.27,1.32,6.4l-7.01,10.64c-.89,1.35-2.36,2.08-3.87,2.08Zm7.02-16.88c-.11,0-.22.01-.33.03-.43.09-.79.33-1.03.69l-7.01,10.64c-.49.75-.28,1.75.46,2.25.75.49,1.76.28,2.25-.46l7.01-10.64c.49-.75.28-1.75-.46-2.25-.26-.17-.57-.26-.88-.26Z"/>
    <path class="cls-1" d="m116.3,165.75c-1.06,0-2.07-.36-2.9-1.03-.96-.78-1.55-1.88-1.68-3.11s.23-2.43,1-3.39l8.03-9.9c.78-.96,1.88-1.55,3.11-1.68,1.23-.13,2.44.23,3.39,1,.96.78,1.55,1.88,1.68,3.11s-.23,2.43-1,3.39l-8.03,9.9c-.78.96-1.88,1.55-3.11,1.68-.16.02-.33.03-.49.03Zm8.05-16.13c-.06,0-.12,0-.17,0-.43.05-.82.25-1.09.59l-8.03,9.9c-.27.33-.4.76-.35,1.19.05.43.25.82.59,1.09h0c.33.27.76.4,1.19.35.43-.05.82-.25,1.09-.59l8.03-9.9c.27-.33.4-.76.35-1.19-.05-.43-.25-.82-.59-1.09-.29-.23-.64-.36-1.02-.36Z"/>
    <path class="cls-1" d="m131.35,178.04h-.05c-1.24-.01-2.39-.51-3.25-1.39h0c-1.78-1.82-1.75-4.75.07-6.54l9.11-8.91c.88-.86,2.07-1.32,3.28-1.31,1.24.01,2.39.51,3.25,1.39,1.78,1.82,1.75,4.75-.07,6.54l-9.11,8.91c-.87.85-2.01,1.31-3.23,1.31Zm-1.16-3.48c.3.31.71.48,1.14.48h.02c.43,0,.83-.16,1.13-.46l9.11-8.91c.64-.63.65-1.66.02-2.29-.3-.31-.71-.48-1.14-.48-.47,0-.85.16-1.15.46l-9.11,8.91c-.64.63-.65,1.66-.03,2.29h0Z"/>
    <path class="cls-1" d="m144.36,192.05c-1.42,0-2.81-.64-3.72-1.86-1.52-2.05-1.09-4.95.95-6.47l10.23-7.61c.99-.73,2.2-1.04,3.43-.86,1.22.18,2.3.82,3.04,1.81,1.52,2.05,1.09,4.95-.95,6.47l-10.23,7.61c-.83.61-1.79.91-2.75.91Zm10.22-13.85c-.35,0-.68.11-.96.32l-10.24,7.61c-.72.53-.87,1.55-.33,2.27.53.72,1.55.87,2.27.33l10.23-7.61c.72-.53.87-1.55.33-2.27-.26-.34-.64-.57-1.07-.63-.08-.01-.16-.02-.24-.02Z"/>
    <path class="cls-1" d="m154.83,207.71c-.47,0-.94-.07-1.4-.22-1.18-.37-2.14-1.18-2.71-2.27h0c-.57-1.09-.68-2.34-.31-3.53.37-1.18,1.18-2.14,2.27-2.71l11.31-5.9c2.26-1.18,5.06-.3,6.24,1.96,1.18,2.26.3,5.06-1.96,6.24l-11.31,5.9c-.67.35-1.39.52-2.13.52Zm11.29-12.15c-.25,0-.51.06-.75.18l-11.31,5.9c-.38.2-.66.54-.79.96-.13.42-.09.86.11,1.24t0,0c.41.79,1.4,1.1,2.19.69l11.31-5.9c.79-.41,1.1-1.4.69-2.19-.29-.55-.86-.87-1.44-.87Z"/>
    <path class="cls-1" d="m78.34,41.97c-.2,0-.41-.01-.62-.04h0c-2.53-.34-4.3-2.67-3.96-5.2l1.71-12.64c.34-2.53,2.69-4.3,5.2-3.96,2.53.34,4.3,2.67,3.96,5.2l-1.71,12.64c-.31,2.32-2.3,4-4.58,4Zm-.22-3.01c.88.12,1.71-.5,1.83-1.39l1.71-12.64c.12-.89-.5-1.71-1.39-1.83-.43-.06-.85.06-1.2.32-.35.26-.57.65-.63,1.07l-1.71,12.64c-.12.89.5,1.71,1.39,1.83h0Z"/>
    <path class="cls-1" d="m97.93,43.15c-.35,0-.7-.04-1.04-.12-1.2-.28-2.22-1.01-2.88-2.06-.66-1.05-.86-2.29-.59-3.49l2.86-12.42c.28-1.2,1.01-2.22,2.06-2.88,1.05-.66,2.29-.86,3.49-.59,2.48.57,4.04,3.06,3.47,5.54l-2.86,12.42c-.28,1.2-1.01,2.22-2.06,2.88-.75.47-1.59.71-2.45.71Zm2.86-18.67c-.3,0-.6.08-.86.25-.37.23-.63.59-.72,1.01l-2.86,12.42c-.1.42-.02.85.21,1.22.23.37.59.63,1.01.72.42.1.85.02,1.22-.21.37-.23.63-.59.72-1.01l2.86-12.42c.2-.87-.34-1.75-1.22-1.95-.12-.03-.24-.04-.36-.04Z"/>
    <path class="cls-1" d="m117.61,46.61c-.49,0-.98-.08-1.47-.24-1.17-.39-2.11-1.22-2.66-2.33-.55-1.11-.64-2.36-.25-3.53l4.06-12.08c.39-1.17,1.22-2.11,2.33-2.66,1.11-.55,2.36-.64,3.53-.25,2.42.81,3.72,3.44,2.91,5.85l-4.06,12.08c-.65,1.93-2.45,3.15-4.39,3.15Zm4.07-18.33c-.25,0-.5.06-.73.17-.39.19-.68.53-.82.93l-4.06,12.08c-.14.41-.11.85.09,1.24.19.39.53.68.93.82.41.13.85.11,1.24-.09.39-.19.68-.53.82-.93l4.06-12.08c.28-.85-.17-1.77-1.02-2.05-.17-.06-.34-.08-.51-.08Z"/>
    <path class="cls-1" d="m135.01,51.88c-.66,0-1.31-.14-1.92-.42h0c-2.32-1.06-3.33-3.81-2.27-6.13l5.32-11.58c1.07-2.32,3.81-3.33,6.13-2.27,1.12.51,1.97,1.44,2.4,2.6.43,1.16.38,2.41-.13,3.53l-5.32,11.58c-.51,1.12-1.44,1.97-2.6,2.4-.53.2-1.07.29-1.61.29Zm5.33-17.82c-.61,0-1.2.35-1.48.95l-5.32,11.58c-.37.81-.02,1.78.8,2.15h0c.81.37,1.78.02,2.15-.8l5.32-11.58c.18-.39.2-.83.04-1.24s-.45-.73-.84-.91c-.22-.1-.45-.15-.67-.15Z"/>
    <path class="cls-1" d="m152.45,59.63c-.84,0-1.67-.23-2.4-.68h0c-1.05-.64-1.79-1.66-2.08-2.86-.29-1.2-.09-2.44.55-3.49l6.65-10.87c.64-1.05,1.66-1.79,2.86-2.08,1.2-.29,2.44-.1,3.49.55,1.05.64,1.79,1.66,2.08,2.86.29,1.2.09,2.44-.55,3.49l-6.65,10.87c-.64,1.05-1.66,1.79-2.86,2.08-.36.09-.73.13-1.1.13Zm6.67-17.11c-.13,0-.26.02-.39.05-.42.1-.78.36-1,.73l-6.65,10.87c-.22.37-.29.8-.19,1.22.1.42.36.78.73,1h0c.76.47,1.76.23,2.23-.54l6.65-10.87c.22-.37.29-.8.19-1.23-.1-.42-.36-.78-.73-1-.26-.16-.54-.24-.84-.24Z"/>
    <path class="cls-1" d="m169.46,68.4c-1.05,0-2.06-.36-2.89-1.02h0c-.96-.77-1.56-1.88-1.69-3.11-.13-1.23.22-2.44,1-3.39l8.01-9.91c.77-.96,1.88-1.56,3.11-1.69,1.23-.13,2.43.22,3.39,1s1.56,1.88,1.69,3.11c.13,1.23-.22,2.43-1,3.39l-8.01,9.91c-.77.96-1.88,1.56-3.11,1.69-.17.02-.33.03-.5.03Zm8.02-16.15c-.47,0-.94.21-1.26.6l-8.01,9.91c-.27.33-.39.76-.35,1.19.05.43.26.82.59,1.09h0c.7.56,1.72.45,2.28-.24l8.01-9.91c.56-.7.45-1.72-.24-2.28-.3-.24-.66-.36-1.02-.36Z"/>
    <path class="cls-1" d="m188.04,81.46c-1.24,0-2.47-.49-3.38-1.47-1.74-1.86-1.64-4.79.23-6.53l9.32-8.7c1.86-1.74,4.79-1.64,6.53.23,1.74,1.86,1.64,4.79-.23,6.53l-9.32,8.7c-.89.83-2.02,1.24-3.15,1.24Zm9.32-14.94c-.42,0-.8.15-1.11.43l-9.32,8.7c-.31.29-.5.7-.51,1.13-.02.44.14.85.43,1.16.29.31.7.5,1.13.51.47.03.85-.14,1.16-.43l9.32-8.7c.31-.29.5-.7.51-1.13.02-.44-.14-.85-.43-1.16-.29-.31-.7-.5-1.13-.51-.02,0-.04,0-.06,0Z"/>
    <path class="cls-1" d="m200.27,100.48c-1.47,0-2.92-.7-3.81-1.99-.7-1.01-.96-2.24-.74-3.46.22-1.22.9-2.27,1.92-2.97l10.49-7.25c2.1-1.45,4.98-.92,6.43,1.17,1.45,2.1.92,4.98-1.18,6.43l-10.49,7.25c-.8.55-1.72.82-2.62.82Zm10.48-13.49c-.32,0-.64.09-.92.29l-10.49,7.25c-.35.24-.59.62-.67,1.04-.08.43.01.86.26,1.21h0c.51.74,1.52.92,2.26.41l10.49-7.25c.74-.51.92-1.52.41-2.26-.31-.46-.82-.7-1.34-.7Z"/>
    <path class="cls-1" d="m213.14,121.46c-.5,0-1-.08-1.49-.25-1.17-.4-2.12-1.22-2.67-2.33-1.13-2.29-.19-5.07,2.1-6.2l11.44-5.65c1.1-.55,2.36-.63,3.53-.23,1.17.4,2.12,1.22,2.67,2.33,1.13,2.29.19,5.06-2.1,6.2l-11.44,5.65c-.64.32-1.34.48-2.04.48Zm11.42-11.9c-.24,0-.49.05-.72.17l-11.44,5.65c-.8.4-1.13,1.37-.74,2.18h0c.4.8,1.37,1.14,2.18.74l11.44-5.65c.8-.4,1.13-1.37.74-2.18-.28-.57-.86-.91-1.46-.91Z"/>
    <path class="cls-1" d="m137.9,153.23c-1.66,0-3.27-.9-4.1-2.47l-5.94-11.29c-1.19-2.26-.32-5.06,1.94-6.25,1.09-.57,2.34-.69,3.52-.32,1.18.37,2.15,1.17,2.72,2.26l5.94,11.29c1.19,2.26.32,5.06-1.94,6.25h0c-.68.36-1.42.53-2.15.53Zm1.45-1.86h0,0Zm-7.4-15.67c-.26,0-.51.06-.75.18-.79.42-1.1,1.4-.68,2.19l5.94,11.29c.42.79,1.4,1.09,2.19.68.79-.42,1.1-1.4.68-2.19l-5.94-11.29c-.2-.38-.54-.66-.96-.79-.16-.05-.33-.08-.49-.08Z"/>
    <path class="cls-1" d="m154.36,139.63c-1.3,0-2.6-.55-3.51-1.61l-8.3-9.67c-1.66-1.93-1.44-4.86.5-6.52.93-.8,2.13-1.19,3.36-1.1,1.23.09,2.35.66,3.16,1.59l8.3,9.67c1.66,1.93,1.44,4.86-.5,6.52h0c-.87.75-1.94,1.11-3.01,1.11Zm2.03-2.25h0,0Zm-10.34-13.66c-.39,0-.76.14-1.05.39-.68.58-.76,1.61-.17,2.29l8.3,9.67c.58.68,1.61.76,2.29.17.68-.58.76-1.61.17-2.29l-8.3-9.67c-.28-.33-.67-.52-1.11-.56-.04,0-.09,0-.13,0Z"/>
    <path class="cls-1" d="m167.12,123.96c-1.02,0-2-.33-2.81-.96l-10.09-7.78c-.97-.75-1.6-1.84-1.76-3.07-.16-1.23.17-2.44.92-3.41,1.56-2.02,4.46-2.39,6.48-.84l10.09,7.78c2.02,1.56,2.39,4.46.84,6.48h0c-.75.97-1.84,1.6-3.07,1.76-.2.03-.4.04-.61.04Zm-10.07-14.02c-.07,0-.14,0-.21.01-.43.06-.81.27-1.08.61-.55.71-.41,1.73.29,2.28l10.09,7.78c.34.26.77.37,1.2.32.43-.06.81-.27,1.08-.61h0c.26-.34.38-.77.32-1.2-.06-.43-.27-.82-.61-1.08l-10.09-7.78c-.28-.22-.63-.33-.98-.33Z"/>
    <path class="cls-1" d="m176.61,107.06c-.72,0-1.45-.17-2.12-.52l-11.31-5.88c-2.26-1.18-3.14-3.97-1.97-6.23,1.18-2.26,3.97-3.14,6.23-1.97l11.31,5.88c2.26,1.18,3.14,3.97,1.97,6.23-.82,1.58-2.44,2.49-4.11,2.49Zm-11.3-12.12c-.59,0-1.15.32-1.44.87-.41.79-.1,1.78.69,2.19l11.31,5.88c.38.2.82.24,1.24.1.42-.13.75-.41.95-.79.41-.79.1-1.77-.69-2.19l-11.31-5.88c-.24-.12-.49-.18-.75-.18Z"/>
    <path class="cls-1" d="m183.26,89.76c-.49,0-1-.08-1.49-.25l-12.07-4.12c-1.17-.4-2.11-1.23-2.65-2.34-.55-1.11-.63-2.37-.23-3.53s1.23-2.11,2.34-2.65c1.11-.54,2.36-.63,3.53-.23l12.07,4.12c2.41.82,3.71,3.46,2.88,5.87h0c-.66,1.92-2.46,3.13-4.38,3.13Zm-12.07-10.37c-.68,0-1.31.42-1.54,1.1-.29.85.17,1.77,1.01,2.06l12.07,4.12c.85.29,1.77-.17,2.06-1.01h0c.29-.85-.17-1.77-1.01-2.06l-12.07-4.12c-.17-.06-.35-.09-.52-.09Zm15.03,6.75h0,0Z"/>
  </g>
</svg>