<svg fill="none" height="40" viewBox="0 0 40 40" width="40" xmlns="http://www.w3.org/2000/svg" xmlns:xlink="http://www.w3.org/1999/xlink"><clipPath id="a"><path d="m0 0h40v40h-40z"/></clipPath><g clip-path="url(#a)" stroke="#ff2d20" stroke-linecap="round" stroke-linejoin="round" stroke-width="2"><path d="m9.03003 26.3989 7.31997-4.27v16.87l-7.31997-4.06v-8.53z"/><path d="m9.03003 9.52734 7.31997 4.26996v8.33l-7.31997 4.27zm14.62997 16.86996 7.32 4.06-14.63 8.53v-8.53l7.32-4.06z"/><path d="m30.9699 22.1289v8.33l-7.32-4.06z"/><path d="m23.6599 9.52734 7.32 4.26996-7.32 4.06z"/><path d="m30.9699 5.26781v8.52999l-7.32-4.26999 7.32-4.27z"/><path d="m23.6599 17.8694v8.53l7.32-4.27-7.32-4.27z"/><path d="m16.3401 22.1272 7.32 4.27v-8.53l-7.32 4.27z"/><path d="m23.6599.998281v8.529999l7.32-4.27-7.32-4.269999z"/><path d="m16.34 5.27-7.31998 4.27 7.31998 4.27 7.32-4.27v-8.54z"/><path d="m16.3401 22.1289 7.32 4.27-7.32 4.06z"/></g></svg>