<?xml version="1.0" encoding="UTF-8"?>
<svg xmlns="http://www.w3.org/2000/svg" viewBox="0 0 331.85 261.96">


    <style>
        :root { fill:#222 }
        .accent { fill: #f9322c; }

        @media (prefers-color-scheme: dark) {
        :root {  fill: #f9322c; }
        .accent { fill:#dee2e6; }
        }
    </style>

    <path d="m278.18,206.64s.02,0,.03,0l16.83,3.84-9.29-178.26s-6.31,4-22.14,7.6c-15.83,3.6-34.3-3.86-55.22-4.36-19.61-.47-37.79,10.15-45.96,18.85-.04-.24-.11-.47-.26-.67-.21-.28-21.27-28.32-58.61-24.01-36.21,4.18-70.12-2.98-70.46-3.05-.44-.1-.9.01-1.26.3-.35.29-.56.71-.56,1.17,0,.63-.04,63.47-3.54,97.99-3.51,34.62-5.89,67.35-5.92,67.68-.05.68.37,1.31,1.01,1.53,1.58.54,38.93,13.04,71.21,1.89,20.88-7.22,40.63-3.56,52.14,2.27,7.05,3.57,11.91,8.25,13.33,12.84,0,.02.02.03.02.05.05.13.1.25.18.37.01.02.03.04.05.06.07.09.15.16.23.24.03.03.07.06.1.08.01,0,.03.02.04.03.05.03.11.05.16.07.07.03.13.07.21.09.1.03.2.04.3.05.04,0,.08.02.13.02.07,0,.15,0,.23-.02.02,0,.04-.02.07-.02.15-.03.29-.07.43-.15.03-.01.05-.04.07-.05.11-.07.21-.15.3-.24.03-.04.06-.07.09-.11.03-.04.07-.07.09-.11.04-.06,1.85-2.82,6.32-5.99l19.17-7.92c3.39-.71,7.17-1.23,11.4-1.47,10.61-.61,26.29.94,41.99,3.17l37.07,6.25Z" class="accent"/>
  <path d="m165.96,209.31c-.65,0-1.23-.42-1.43-1.06-1.43-4.59-6.28-9.27-13.33-12.84-11.52-5.83-31.26-9.49-52.14-2.27-32.28,11.16-69.64-1.35-71.21-1.89-.64-.22-1.06-.85-1.01-1.53.02-.33,2.41-33.06,5.92-67.68,3.5-34.53,3.54-97.36,3.54-97.99,0-.45.21-.88.56-1.17.35-.29.82-.4,1.26-.3.34.07,34.25,7.23,70.46,3.05,37.34-4.3,58.4,23.73,58.61,24.01.19.26.29.57.29.89v157.26c0,.74-.54,1.37-1.28,1.48-.08.01-.15.02-.23.02Zm-42.86-23.22c10.53,0,20.73,2.23,29.45,6.65,5.13,2.6,9.24,5.81,11.91,9.23V51.06c-2.59-3.24-22.33-26.27-55.56-22.44-31.91,3.68-62.05-1.32-69.62-2.74-.04,10.63-.37,65.12-3.55,96.47-3.13,30.88-5.36,60.25-5.82,66.41,6.44,1.98,39.88,11.32,68.16,1.54,8.17-2.82,16.7-4.22,25.03-4.22Z" />
  <path d="m165.96,209.3c-.27,0-.55-.07-.79-.23-.7-.44-.91-1.36-.48-2.06.38-.62,9.74-15.11,39.26-16.79,20.93-1.18,60.95,5.8,82.93,10.07.81.16,1.34.95,1.19,1.76-.16.81-.95,1.35-1.76,1.19-21.85-4.25-61.58-11.2-82.19-10.02-27.84,1.58-36.8,15.24-36.89,15.38-.29.45-.77.7-1.27.7Z" />
  <path d="m298.54,171.7c-.8,0-1.46-.63-1.5-1.43l-6.19-140.23c-6.46,2.5-27.38,9.54-50.15,5.91-26.63-4.24-56.19-5.71-73.57,15.55-.52.64-1.47.74-2.11.21-.64-.52-.74-1.47-.21-2.11,18.34-22.44,48.89-20.99,76.36-16.61,25.95,4.13,50.23-6.41,50.47-6.51.45-.2.98-.16,1.4.1.42.26.69.71.71,1.21l6.29,142.36c.04.83-.61,1.53-1.43,1.57-.02,0-.04,0-.07,0Z" />
  <path d="m165.96,223.1c-10.12,0-15.41-4.57-16.99-6.23H17.21c-.42,0-.82-.17-1.1-.48-.28-.31-.43-.72-.39-1.14L30.14,33.87c.04-.45.27-.86.64-1.11l6.13-4.25c.68-.47,1.62-.3,2.09.38.47.68.3,1.62-.38,2.09l-5.54,3.85-14.24,179.06h130.81c.46,0,.9.22,1.19.58.18.22,4.58,5.64,15.13,5.64s14.95-5.42,15.13-5.65c.29-.36.72-.58,1.18-.58h97.28c.83,0,1.5.67,1.5,1.5s-.67,1.5-1.5,1.5h-96.61c-1.58,1.66-6.87,6.23-16.99,6.23Z" />
  <path d="m310.74,170.92c-.77,0-1.42-.59-1.49-1.37l-10.66-123.36-7.36-11.74c-.44-.7-.23-1.63.47-2.07.7-.44,1.63-.23,2.07.47l7.55,12.05c.13.2.2.43.22.67l10.69,123.72c.07.83-.54,1.55-1.37,1.62-.04,0-.09,0-.13,0Z" />
  <path d="m165.96,230.83c-13.51,0-20.68-4.39-22.49-5.68H8.46c-.42,0-.82-.18-1.11-.49s-.42-.73-.39-1.15L24.71,27.7c.07-.77.72-1.36,1.49-1.36h11.58c.83,0,1.5.67,1.5,1.5s-.67,1.5-1.5,1.5h-10.21L10.11,222.15h133.87c.35,0,.69.12.96.34.06.05,6.72,5.33,21.04,5.33s20.98-5.28,21.04-5.33c.27-.22.61-.34.95-.34h91.35c.83,0,1.5.67,1.5,1.5s-.67,1.5-1.5,1.5h-90.85c-1.82,1.29-8.99,5.68-22.49,5.68Z" />
  <path d="m318.53,172.32c-.77,0-1.42-.58-1.49-1.36l-12.68-135.81h-12.11c-.83,0-1.5-.67-1.5-1.5s.67-1.5,1.5-1.5h13.48c.77,0,1.42.59,1.49,1.36l12.8,137.17c.08.83-.53,1.56-1.35,1.63-.05,0-.09,0-.14,0Z" />
  <path d="m165.37,216.85c-.33,0-.66-.17-.85-.47-11.81-18.84-34.14-18.61-40.7-18.1-.56.05-1.03-.37-1.08-.92-.04-.55.37-1.03.92-1.08,6.85-.54,30.14-.76,42.55,19.03.29.47.15,1.08-.32,1.38-.17.1-.35.15-.53.15Z" />
  <path d="m63.84,210.05c-15.58,0-32.88-3.37-39.29-9.69-.39-.39-.4-1.02,0-1.42.39-.39,1.02-.4,1.42,0,9.22,9.1,42.36,11.7,57.87,6.6.52-.17,1.09.11,1.26.64s-.11,1.09-.64,1.26c-5.35,1.76-12.76,2.62-20.61,2.62Z" />
  <path d="m46.77,214.6s-.08,0-.12,0c-.8-.1-19.67-2.43-25.35-5.94-.47-.29-.62-.91-.33-1.38.29-.47.9-.62,1.38-.33,5.31,3.27,24.35,5.63,24.54,5.65.55.07.94.57.87,1.11-.06.51-.49.88-.99.88Z" />
  <path d="m234.66,210.09c-.11,0-.22-.02-.33-.06-.23-.08-22.95-7.97-45.79-2.58-.55.12-1.08-.21-1.2-.74-.13-.54.21-1.08.74-1.2,23.43-5.54,46.68,2.55,46.92,2.64.52.18.79.76.61,1.28-.15.41-.53.67-.94.67Z" />
  <path d="m282.2,207.48s-.07,0-.1,0c-.1-.01-10.26-1.08-21.55-4.02-.53-.14-.85-.69-.72-1.22.14-.54.69-.85,1.22-.72,11.14,2.9,21.15,3.96,21.25,3.97.55.06.95.55.89,1.1-.05.51-.49.9-.99.9Z" />
  <path d="m165.96,91.77c-.37,0-.74-.13-1.02-.4-.61-.57-.64-1.52-.07-2.12,14.05-15.02,31.46-13.77,32.2-13.71.83.07,1.44.79,1.37,1.62-.07.83-.82,1.43-1.62,1.37-.16-.02-16.74-1.15-29.76,12.77-.3.32-.7.48-1.1.48Z" />
  <path d="m165.96,167.21c-.42,0-.83-.17-1.13-.51-11.3-12.88-24.54-15.33-24.67-15.36-.82-.14-1.36-.92-1.22-1.73.14-.82.92-1.36,1.73-1.22.58.1,14.38,2.61,26.41,16.33.55.62.48,1.57-.14,2.12-.29.25-.64.37-.99.37Z" />
  <path d="m165.96,79.71c-.46,0-.91-.21-1.21-.6-6.45-8.68-17.06-11.72-17.17-11.75-.8-.22-1.26-1.05-1.04-1.85s1.06-1.27,1.84-1.04c.47.13,11.69,3.32,18.78,12.85.49.67.36,1.6-.31,2.1-.27.2-.58.3-.89.3Z" />
  <g>
    <path d="m144.56,51.54c-.14,0-.29-.03-.43-.1-11.7-5.56-26.58-5.66-44.81-5.22h-.02c-.54,0-.99-.43-1-.98-.01-.55.42-1.01.98-1.02,18.5-.45,33.62-.34,45.72,5.41.5.24.71.83.47,1.33-.17.36-.53.57-.9.57Z" />
    <path d="m77.13,46.63c-3.5,0-7.11-.05-10.77-.17-.55-.02-.98-.48-.96-1.03s.49-1,1.03-.96c9.16.31,18.02.14,25.61-.05.56,0,1.01.42,1.03.97.01.55-.42,1.01-.97,1.03-4.59.11-9.64.22-14.95.22Z" />
    <path d="m61.1,46.23s-.04,0-.06,0c-2.77-.15-5.53-.35-8.21-.6-.55-.05-.96-.54-.91-1.09.05-.55.53-.95,1.09-.91,2.66.24,5.39.44,8.14.59.55.03.97.5.94,1.05-.03.53-.47.95-1,.95Z" />
    <path d="m126.11,64.68s-.06,0-.09,0c-4.09-.36-8.68-.49-14.43-.4h-.02c-.54,0-.99-.44-1-.98,0-.55.43-1.01.98-1.02,5.82-.09,10.47.04,14.64.41.55.05.96.53.91,1.08-.05.52-.48.91-1,.91Z" />
    <path d="m73.83,65.41c-7.06,0-14.39-.26-21.88-1.01-.55-.05-.95-.54-.9-1.09.05-.55.55-.94,1.09-.9,15.82,1.58,30.97.94,44.33.37,3-.13,5.93-.25,8.79-.35.57-.03,1.02.41,1.03.96.02.55-.41,1.01-.96,1.03-2.85.1-5.78.22-8.77.35-7.13.3-14.76.63-22.73.63Z" />
    <path d="m143.38,86.41c-.14,0-.28-.03-.42-.09-11.25-5.17-27.07-4.23-45.39-3.13-14.11.84-30.1,1.8-46.51,0-.55-.06-.95-.55-.89-1.1.06-.55.54-.95,1.1-.89,16.24,1.77,32.14.82,46.17-.02,18.59-1.11,34.64-2.07,46.35,3.31.5.23.72.82.49,1.33-.17.37-.53.58-.91.58Z" />
    <path d="m142.79,103.84c-.14,0-.28-.03-.41-.09-10.61-4.79-26.08-3.6-43.99-2.22-14.75,1.14-31.47,2.43-48.22.44-.55-.07-.94-.56-.88-1.11.07-.55.56-.94,1.11-.88,16.56,1.96,33.17.68,47.83-.45,18.18-1.4,33.88-2.61,44.96,2.39.5.23.73.82.5,1.32-.17.37-.53.59-.91.59Z" />
    <path d="m84.14,121.13c-.52,0-.96-.4-1-.93-.04-.55.37-1.03.92-1.07,5.06-.37,10.02-.84,14.82-1.29,2.84-.27,5.61-.53,8.32-.76.56-.06,1.03.36,1.08.91.05.55-.36,1.04-.91,1.08-2.7.23-5.48.5-8.31.76-4.81.46-9.78.92-14.87,1.29-.02,0-.05,0-.07,0Z" />
    <path d="m67.07,121.82c-6.44,0-12.25-.35-17.79-1.06-.55-.07-.94-.57-.87-1.12.07-.55.58-.92,1.12-.87,8.4,1.08,17.43,1.32,28.41.75.53-.04,1.02.39,1.05.95.03.55-.4,1.02-.95,1.05-3.88.2-7.53.3-10.98.3Z" />
    <path d="m141.6,138.7c-.13,0-.27-.03-.4-.08-9.47-4.11-25.11-2.36-40.23-.67-.55.07-1.04-.33-1.11-.88-.06-.55.33-1.04.88-1.11,16.09-1.8,31.29-3.5,41.25.82.51.22.74.81.52,1.32-.16.38-.53.6-.92.6Z" />
    <path d="m68.98,140.59c-.54,0-.99-.43-1-.98-.01-.55.43-1.01.98-1.02,7.97-.17,15.8-.9,21.73-1.52.55-.05,1.04.34,1.1.89.06.55-.34,1.04-.89,1.1-5.97.62-13.85,1.35-21.89,1.53h-.02Z" />
    <path d="m60.49,140.54s-.02,0-.04,0c-4.22-.14-8.28-.48-12.06-1-.55-.08-.93-.58-.85-1.13.08-.55.57-.93,1.13-.85,3.72.51,7.71.85,11.86.99.55.02.98.48.96,1.03-.02.54-.46.97-1,.97Z" />
    <path d="m97.5,156.66c-.5,0-.93-.37-.99-.87-.07-.55.32-1.05.86-1.12l2.45-.32c17.23-2.23,32.1-4.15,41.59-.14.51.22.75.8.53,1.31-.22.51-.8.74-1.31.53-8.98-3.81-23.61-1.91-40.55.28l-2.45.32s-.09,0-.13,0Z" />
    <path d="m63.79,159.43c-5.47,0-10.96-.31-16.29-1.11-.55-.08-.92-.59-.84-1.14.08-.55.59-.91,1.14-.84,14.07,2.09,29.32.78,42.39-.78.55-.07,1.05.33,1.11.88.07.55-.33,1.05-.88,1.11-8.28.99-17.43,1.88-26.64,1.88Z" />
    <path d="m74.87,177.7c-.52,0-.95-.4-1-.92-.04-.55.37-1.03.92-1.08,6.77-.55,13.53-1.45,18.67-2.18.54-.08,1.05.3,1.13.85.08.55-.3,1.05-.85,1.13-5.16.73-11.97,1.64-18.79,2.19-.03,0-.05,0-.08,0Z" />
    <path d="m62.26,178.25c-5.68,0-10.84-.38-15.64-1.15-.55-.09-.92-.6-.83-1.14s.6-.92,1.14-.83c6.2.99,13.03,1.32,20.86,1.01.54-.05,1.02.41,1.04.96s-.41,1.02-.96,1.04c-1.93.08-3.8.12-5.61.12Z" />
  </g>
  <g>
    <path d="m183.22,56.53c-.37,0-.73-.21-.9-.57-.24-.5-.02-1.09.47-1.33,12.1-5.75,27.21-5.86,45.72-5.41.55.01.99.47.98,1.02-.01.54-.46.98-1,.98h-.02c-18.24-.45-33.11-.34-44.81,5.22-.14.07-.28.1-.43.1Z" />
    <path d="m250.65,51.63c-5.31,0-10.36-.11-14.95-.22-.55-.01-.99-.47-.97-1.03.01-.55.45-.97,1.03-.97,7.58.19,16.44.37,25.61.05.57-.06,1.01.41,1.03.96.02.55-.41,1.01-.96,1.03-3.66.13-7.27.17-10.77.17Z" />
    <path d="m266.69,51.22c-.53,0-.97-.41-1-.95-.03-.55.39-1.02.94-1.05,2.74-.15,5.48-.35,8.14-.59.57-.05,1.04.36,1.09.91.05.55-.36,1.04-.91,1.09-2.68.24-5.44.45-8.21.6-.02,0-.04,0-.06,0Z" />
    <path d="m201.68,69.67c-.51,0-.95-.39-1-.91-.05-.55.36-1.04.91-1.08,4.16-.37,8.81-.5,14.64-.41.55,0,.99.46.98,1.02,0,.55-.46.98-1,.98h-.02c-5.75-.09-10.34.04-14.43.4-.03,0-.06,0-.09,0Z" />
    <path d="m253.95,70.41c-7.98,0-15.61-.33-22.73-.63-2.99-.13-5.92-.25-8.77-.35-.55-.02-.98-.48-.96-1.03.02-.55.5-1,1.03-.96,2.86.1,5.79.22,8.79.35,13.36.57,28.51,1.22,44.33-.37.56-.04,1.04.35,1.09.9s-.35,1.04-.9,1.09c-7.49.75-14.83,1.01-21.88,1.01Z" />
    <path d="m184.4,91.4c-.38,0-.74-.22-.91-.58-.23-.5-.01-1.1.49-1.33,9.34-4.29,21.49-4.46,33.22-4.01.55.02.98.49.96,1.04-.02.55-.47,1-1.04.96-11.49-.44-23.35-.29-32.31,3.83-.14.06-.28.09-.42.09Z" />
    <path d="m256.56,89.2c-9.23,0-18.11-.53-26.35-1.02l-4.23-.25c-.55-.03-.97-.5-.94-1.06.03-.55.51-.96,1.06-.94l4.24.25c14.03.84,29.94,1.79,46.18.02.54-.06,1.04.34,1.1.89.06.55-.34,1.04-.89,1.1-6.83.75-13.59,1.02-20.17,1.02Z" />
    <path d="m185,108.83c-.38,0-.75-.22-.91-.59-.23-.5,0-1.1.5-1.32,4.38-1.98,9.82-3.12,16.63-3.48.59,0,1.02.4,1.05.95.03.55-.39,1.02-.95,1.05-6.56.35-11.76,1.43-15.91,3.3-.13.06-.27.09-.41.09Z" />
    <path d="m238.46,107.2s-.05,0-.07,0c-3.05-.21-6.05-.44-9-.67-6.99-.54-13.59-1.05-19.7-1.18-.55-.01-.99-.47-.98-1.02.01-.54.46-.98,1-.98h.02c6.16.14,12.79.65,19.81,1.19,2.93.23,5.93.46,8.98.67.55.04.97.52.93,1.07-.04.53-.48.93-1,.93Z" />
    <path d="m256.3,107.99h-.01c-2.97-.03-6.04-.13-9.37-.29-.55-.03-.98-.5-.95-1.05.03-.55.51-.98,1.05-.95,3.31.16,6.35.25,9.3.29.55,0,.99.46.99,1.01,0,.55-.45.99-1,.99Z" />
    <path d="m186.18,123.75c-.39,0-.75-.22-.92-.6-.22-.51.01-1.1.52-1.32,9.96-4.32,25.16-2.62,41.25-.82.55.06.94.56.88,1.11-.06.55-.55.95-1.11.88-15.12-1.69-30.76-3.44-40.23.67-.13.06-.26.08-.4.08Z" />
    <path d="m258.8,125.64h-.02c-8.06-.17-15.93-.91-21.89-1.53-.55-.06-.95-.55-.89-1.1.06-.55.55-.93,1.1-.89,5.92.62,13.74,1.34,21.73,1.52.55.01.99.47.98,1.02-.01.54-.46.98-1,.98Z" />
    <path d="m267.29,125.59c-.54,0-.98-.43-1-.97-.02-.55.41-1.01.96-1.03,4.16-.14,8.15-.47,11.86-.99.56-.09,1.05.31,1.13.85.08.55-.31,1.05-.85,1.13-3.78.52-7.84.86-12.07,1-.01,0-.02,0-.04,0Z" />
    <path d="m230.28,141.71s-.08,0-.13,0l-2.46-.32c-16.93-2.19-31.56-4.08-40.54-.28-.5.21-1.09-.02-1.31-.53-.21-.51.02-1.09.53-1.31,9.48-4.02,24.35-2.09,41.58.14l2.45.32c.55.07.93.57.86,1.12-.07.5-.5.87-.99.87Z" />
  </g>
  <path d="m270.77,234.14h-61.05c-.83,0-1.5-.67-1.5-1.5s.67-1.5,1.5-1.5h61.05c.83,0,1.5.67,1.5,1.5s-.67,1.5-1.5,1.5Z" />
  <path d="m181.45,243.6h-87.86c-.83,0-1.5-.67-1.5-1.5s.67-1.5,1.5-1.5h87.86c.83,0,1.5.67,1.5,1.5s-.67,1.5-1.5,1.5Z" />
  <path d="m228.49,243.6h-19.96c-.83,0-1.5-.67-1.5-1.5s.67-1.5,1.5-1.5h19.96c.83,0,1.5.67,1.5,1.5s-.67,1.5-1.5,1.5Z" />
  <path d="m219.65,252.11h-48.8c-.83,0-1.5-.67-1.5-1.5s.67-1.5,1.5-1.5h48.8c.83,0,1.5.67,1.5,1.5s-.67,1.5-1.5,1.5Z" />
  <path d="m299.95,205.93c-.1,0-.19,0-.29-.03l-16.67-3.3c-.81-.16-1.34-.95-1.18-1.76.16-.81.95-1.34,1.76-1.18l14.8,2.93-1.53-36.31c-.04-.83.61-1.53,1.44-1.56.84-.05,1.53.61,1.56,1.44l1.61,38.22c.02.46-.17.9-.52,1.2-.27.24-.62.36-.98.36Z" />
  <path d="m314.14,216.93h-36.86c-.83,0-1.5-.67-1.5-1.5s.67-1.5,1.5-1.5h35.24l-3.71-49.04c-.06-.83.56-1.55,1.38-1.61.83-.06,1.55.56,1.61,1.38l3.83,50.65c.03.42-.11.83-.4,1.13-.28.31-.68.48-1.1.48Z" />
  <path d="m322.95,225.35h0l-47.33-.26c-.83,0-1.5-.68-1.49-1.51,0-.83.68-1.49,1.5-1.49h0l45.69.25-4.84-57.92c-.07-.83.54-1.55,1.37-1.62.83-.05,1.55.54,1.62,1.37l4.98,59.55c.04.42-.11.83-.39,1.14-.28.31-.68.48-1.1.48Z" />
</svg>
