<?xml version="1.0" encoding="UTF-8"?>
<svg id="Layer_1" data-name="Layer 1" xmlns="http://www.w3.org/2000/svg" viewBox="0 0 677.07 533.16">
  <defs>
    <style>
      .cls-1, .cls-2 {
        stroke-width: 0px;
      }

        :root { fill:#222 }
        .accent { fill: #f9322c; }

        @media (prefers-color-scheme: dark) {
        :root {  fill: #f9322c; }
        .accent { fill:#dee2e6; }
        }

    </style>
  </defs>
  <path class="accent" d="m227.35,219.72c2.49,6.54.24,22.38.24,22.38l7.56.59s1.15-14.91,0-22.97h-7.8Z"/>
  <path class="accent" d="m51.46,370.21c-3.98,5.69-2.26,18.9-2.26,18.9,0,0-3.07,13.97-2.04,20.96-2.49,3.74-10.47.66-10.47.66,0,0-9.38-21.62,3.19-30.87-3.38-9.65,5.03-22.76,5.03-22.76l6.55,13.11Z"/>
  <path class="accent" d="m148.01,265.35c4.47-2.87,11.41-2.16,11.41-2.16,0,0,5.11-5.67,16.93-4.53,10.8-4.09,18.77-3.48,18.77-3.48,0,0,7.4-5.85,17.68-4,9.57-2.18,16.88-3.5,16.88-3.5,0,0-2-3.52-5.45-5.18-3.45-1.66-22.47,2.04-22.47,2.04,0,0-11.49-.32-18.51,4.15-10.02-.58-17.3,4.25-17.3,4.25,0,0-13.4-.34-19.34,2.23-5.94,2.58-7.09,6.87-7.09,6.87l8.49,3.31Z"/>
  <path class="accent" d="m635.83,299.97c2.17,5.95,2.39,21.65,2.39,21.65,0,0,5.11,10.44,3.5,19.53,2.5,6.89,4.5,13.4,2.07,19.53,2.39,6.7,2.39,17.34,2.39,17.34,0,0,3.3,7.72,2.39,18.41,2.06,6.19,1.43,23.61,1.43,23.61,0,0,5.32-2.38,7.9-9.76,2.59-7.37-.82-25.37-.82-25.37,0,0,1.01-7.8-3.01-16.39-.29-5.63-2.59-19.7-2.59-19.7,1.24-7.95-2.5-16.57-2.5-16.57,3.17-7.37-2.82-19.14-2.82-19.14l-.39-14.24-9.97,1.12Z"/>
  <path class="accent" d="m640.68,273.07l4.69-4.88s10.99,1.68,12.85,10.39-.4,12.02-.4,12.02c0,0-3.93,2.82-3.83,2.68s-.67-17.52-13.31-20.2Z"/>
  <path class="accent" d="m562.05,215.16l-4.42,3.77s10.34,6.65,17.33,5.12l8.28,17.66s7.95-1.02,7.9-1.32-5.89-18.98-5.89-18.98c0,0,11.2-18.43,11.39-27.34l-8.19-.34s-.97,30.56-26.41,21.41Z"/>
  <path class="accent" d="m466.65,232.48c5.23,0,11.68,5.68,11.68,5.68,0,0,9.91.89,13.41,3.35,8.99.55,16.84,7.45,16.84,7.45,0,0,11.68.32,16.69,5.68,9.45,1.56,17.58,7.34,17.58,7.34,0,0,9.52-.72,16.6,6.57,9.57,1.15,16.66,6.85,16.66,6.85,0,0,11.62,1.38,16.91,6.99,6-1.49,16.88,6.77,16.88,6.77,0,0,6.26-1.58,8.8.81l5.74-6.46s-6.85-4.31-13.5-5.51c-6.46-4.4-16.37-4.26-16.37-4.26-4.02-3.3-15.43-4.38-15.43-4.38-3.43-4-12.43-6.82-17.79-6.01-4.31-4.5-12.4-9.38-17.95-11.06-4.02-3.45-12.01-6.43-17.81-6.49-3.73-4.18-15.46-5.62-15.46-5.62-2.97-4.16-13.93-7.42-19.91-8.04-5.46-4.69-21.16-7.47-21.16-7.47l-6.41,2.57s4.04,4.85,4.02,5.04l-.02.19Z"/>
  <path class="accent" d="m262.84,229.21c1.09,2.7,13.21,3.79,14.11,4.9.89,1.11,4.15,4.56,4.15,4.56,0,0,7.76-1.02,9.08-1.66,4.32.26,18.07-1.34,18.07-1.34,0,0,13.83,2.55,17.28.83,4.09.57,18.51-.19,18.51-.19,0,0,11.81,2.23,17.81-.26,3.38,1.28,14.68,1.66,17.43,0,7.47,2.11,18.51-.38,18.51-.38,0,0,15.89,2.52,19.53.62,6.51,1.36,15.64-.81,15.89-.75s9.06,1.85,12.13,1.34c-1.6-1.91,1.09-9.26,1.09-9.26,0,0-15.59-3.57-25.51-.96-6.79-1.91-16.81,1.09-16.81,1.09,0,0-12.83-4.47-19.98-2.04-4.66-1.91-12.45-1.98-16.6,1.02-6.89-1.34-17.87.51-17.87.51,0,0-12.13-3.13-19.15-.64-9.06-2.17-16.15.32-16.15.32,0,0-12.96-3-19.34-.89-10.91-2.43-20.04.89-20.04.89l-12.13,2.28Z"/>
  <path class="cls-1" d="m50.07,202.01c-.42,0-.84-.18-1.14-.52-.49-.57-.48-1.43.03-1.99,2.42-2.67,2.72-13.18,2.93-20.14.08-2.84.15-5.29.33-7.15.42-4.57,2.97-15.61,17.47-19.35.8-.21,1.62.27,1.83,1.08.21.8-.27,1.62-1.08,1.83-12.2,3.15-14.78,11.83-15.23,16.73-.16,1.77-.24,4.29-.31,6.96-.17,5.8-.39,10.92-1.04,14.9,2.69-3.99,4.64-9.05,4.72-12.3.02-.83.73-1.44,1.54-1.46.83.02,1.48.71,1.46,1.54-.13,5.77-4.92,15.81-10.66,19.64-.25.17-.54.25-.83.25Z"/>
  <path class="cls-1" d="m55.91,204.48c-.47,0-.93-.22-1.21-.62-.36-.49-.38-1.14-.07-1.66,2.17-3.58,5.02-14.06,3.43-26.94-.1-.82.48-1.57,1.3-1.67.83-.1,1.57.48,1.67,1.3,1.21,9.74,0,19-2.06,24.94,2.74-2,4.76-4.92,4.79-4.97.47-.68,1.4-.86,2.08-.39.68.47.86,1.4.4,2.08-.18.27-4.54,6.59-9.98,7.88-.12.03-.23.04-.35.04Z"/>
  <path class="cls-1" d="m68.18,208.89c-.56,0-1.07-.31-1.33-.81-6.5-12.46-4.48-43.91,1.64-50.69.56-.61,1.51-.66,2.12-.11.61.56.66,1.5.11,2.12-4.5,4.98-7,30.87-2.5,44.2,1.99-4.91,2.5-8.27,2.5-8.31.12-.82.89-1.39,1.7-1.27.82.12,1.39.88,1.27,1.7-.03.21-.79,5.31-4.16,12.31-.25.51-.76.84-1.33.85h-.02Z"/>
  <path class="cls-1" d="m96.47,174.95c-.05,0-.11,0-.16,0-.82-.09-1.42-.83-1.33-1.65.01-.12,1.32-12.61-2.33-17.79-1.09-1.55-3.36-2.66-6.37-3.12-5.12-.77-11.47.42-14.45,2.73-.66.51-1.6.39-2.1-.27-.51-.66-.38-1.6.27-2.1,3.61-2.79,10.8-4.22,16.73-3.32,3.89.59,6.79,2.09,8.38,4.35,4.3,6.1,2.92,19.29,2.86,19.84-.08.77-.73,1.34-1.49,1.34Z"/>
  <path class="cls-1" d="m96.72,186.83c-.08,0-.16,0-.24-.02-2.13-.35-3.86-2.3-4.75-5.36-.76-2.62-.8-5.91.82-7.35.83-.73,1.95-.88,3.08-.4.76.32,1.12,1.2.8,1.97-.32.76-1.2,1.12-1.96.8-.27.55-.46,2.38.26,4.54.54,1.62,1.4,2.72,2.23,2.85.82.13,1.37.91,1.24,1.72-.12.74-.76,1.26-1.48,1.26Z"/>
  <path class="cls-1" d="m88.94,176.57c-.79,0-1.45-.62-1.5-1.41,0-.13-.83-12.97-7.64-16.61-.73-.39-1.01-1.3-.62-2.03.39-.73,1.3-1.01,2.03-.62,8.31,4.43,9.19,18.49,9.23,19.08.05.83-.59,1.54-1.41,1.58-.03,0-.06,0-.09,0Z"/>
  <path class="cls-1" d="m102.12,190.52c-.05,0-.1,0-.16,0-.82-.09-1.42-.82-1.34-1.65.42-4.01-1.47-8.55-2.23-9.97-.46-.86-.46-1.99-.45-3.71.01-3.08.03-7.74-2.88-12.33-.44-.7-.23-1.63.46-2.07.7-.44,1.62-.23,2.07.46,3.38,5.33,3.35,10.73,3.34,13.95,0,.9,0,2.01.11,2.31,1.08,2.01,3.04,7.08,2.56,11.67-.08.77-.73,1.34-1.49,1.34Z"/>
  <path class="cls-1" d="m95.3,199.74c-.1,0-.21-.01-.31-.03-.63-.13-15.4-3.38-19.17-12.17-.33-.76.03-1.64.79-1.97.76-.32,1.64.03,1.97.79,1.73,4.04,6.64,6.77,10.75,8.42-4.25-4.44-9.87-11.73-11.46-20.47-.15-.81.39-1.6,1.21-1.74.81-.15,1.6.39,1.74,1.21,2.39,13.14,15.27,23.18,15.4,23.28.56.43.74,1.18.45,1.82-.25.54-.79.87-1.36.87Z"/>
  <path class="cls-1" d="m94.01,197.01s-.07,0-.11,0c-.83-.06-1.45-.78-1.39-1.6.19-2.63.35-10.17-1.15-13.33-.35-.75-.04-1.64.71-2,.75-.36,1.64-.04,2,.71,2.14,4.52,1.46,14.41,1.43,14.83-.06.79-.72,1.39-1.49,1.39Z"/>
  <path class="cls-1" d="m82.84,207.27c-.11,0-.21-.01-.32-.03-.31-.07-7.73-1.74-12.22-7.7-.5-.66-.37-1.6.3-2.1.66-.5,1.6-.37,2.1.3,2.34,3.11,5.71,4.87,7.99,5.77-.66-2.82-1.43-7.3-.81-10.96.14-.82.9-1.36,1.73-1.23.82.14,1.37.91,1.23,1.73-.84,4.96,1.42,12.2,1.44,12.28.16.51.04,1.07-.32,1.46-.29.32-.69.49-1.11.49Z"/>
  <path class="cls-1" d="m142.51,206.52c-.23,0-.45-.05-.67-.16-3.34-1.67-6.96-4.41-10.46-7.05-2.87-2.17-5.58-4.21-7.54-5.18-3.93-1.94-21.23-3.61-28.05-3.61-.83,0-1.5-.67-1.5-1.5s.67-1.5,1.5-1.5c6.36,0,24.51,1.52,29.38,3.92,2.22,1.09,5.03,3.22,8.02,5.48,3.39,2.56,6.9,5.21,10,6.76.74.37,1.04,1.27.67,2.01-.26.53-.79.83-1.34.83Z"/>
  <path class="cls-1" d="m136.38,239.13c-.62,0-1.21-.39-1.42-1.01-.02-.06-2.31-6.48-8.85-11.57-3.56-2.76-4.51-6.24-5.62-10.26-1.25-4.54-2.81-10.19-8.98-16.98-.56-.61-.51-1.56.1-2.12.61-.55,1.56-.51,2.12.1,6.65,7.32,8.31,13.35,9.65,18.2,1.04,3.79,1.8,6.53,4.57,8.69,7.28,5.66,9.74,12.67,9.84,12.96.27.78-.15,1.64-.93,1.91-.16.06-.33.08-.49.08Z"/>
  <path class="cls-1" d="m119.15,222.97c-.12,0-.24-.01-.37-.04-.67-.17-16.52-4.18-22.81-7.74-.72-.41-.97-1.32-.56-2.04.41-.72,1.32-.97,2.04-.56,5.93,3.36,21.9,7.4,22.06,7.44.8.2,1.29,1.02,1.09,1.82-.17.68-.78,1.13-1.45,1.13Z"/>
  <path class="cls-1" d="m122.56,217.71s-.04,0-.06,0c-.83-.03-1.47-.73-1.44-1.56,0-.1.37-10.19-.75-15.33-.18-.81.34-1.61,1.15-1.78.81-.18,1.61.34,1.78,1.15,1.19,5.51.83,15.65.81,16.08-.03.81-.7,1.44-1.5,1.44Z"/>
  <path class="cls-1" d="m105.52,198.73c-.17,0-.35-.03-.52-.09l-7.4-2.73c-.78-.29-1.18-1.15-.89-1.93.29-.78,1.15-1.17,1.93-.89l7.4,2.73c.78.29,1.18,1.15.89,1.93-.22.61-.8.98-1.41.98Z"/>
  <path class="cls-1" d="m165.18,230.95c-.25,0-.51-.07-.75-.21-.5-.3-5.07-3.26-10.36-16.3-3.25-8.01-7-10.25-8.95-10.86-1.67-.53-3.01-.24-3.65.18-.7.45-1.63.24-2.07-.46-.45-.7-.24-1.62.46-2.07,1.61-1.03,3.92-1.22,6.18-.51,2.99.95,7.29,3.91,10.82,12.59,4.91,12.1,9.08,14.83,9.12,14.86.69.44.92,1.36.49,2.05-.28.47-.78.73-1.28.73Z"/>
  <path class="cls-1" d="m179.69,222.97c-.24,0-.48-.06-.7-.17-3.06-1.63-6.15-5.11-9.14-8.48-1.99-2.25-3.88-4.37-5.61-5.8-2.39-1.97-5.77-2.43-9.68-2.96-2.64-.36-5.63-.76-8.7-1.7-.79-.24-1.24-1.08-.99-1.88.25-.79,1.08-1.23,1.88-.99,2.83.87,5.57,1.24,8.22,1.6,4.19.56,8.14,1.1,11.19,3.62,1.92,1.58,3.87,3.79,5.95,6.13,2.81,3.17,5.72,6.45,8.3,7.82.73.39,1.01,1.3.62,2.03-.27.51-.79.8-1.33.8Z"/>
  <path class="cls-1" d="m203.83,230.95c-.27,0-.53-.07-.78-.22-1.78-1.08-3.39-3.7-5.11-6.47-1.24-2.01-2.52-4.08-3.56-4.96-2.07-1.76-11.54-5.11-25.02-7.85-.81-.17-1.34-.96-1.17-1.77s.96-1.34,1.77-1.17c10.71,2.18,23.02,5.65,26.37,8.5,1.39,1.18,2.74,3.36,4.16,5.67,1.38,2.24,2.95,4.78,4.11,5.48.71.43.93,1.35.5,2.06-.28.46-.78.72-1.28.72Z"/>
  <path class="cls-1" d="m160.17,242.42c-5.22,0-11.91-2.03-17.93-3.86-2.24-.68-4.36-1.33-6.23-1.81-.8-.21-1.28-1.03-1.08-1.83.21-.8,1.03-1.28,1.83-1.08,1.93.5,4.08,1.15,6.35,1.84,6.63,2.01,14.88,4.52,19.57,3.5.81-.18,1.61.34,1.79,1.15.18.81-.34,1.61-1.15,1.79-.97.21-2.02.31-3.15.31Z"/>
  <path class="cls-1" d="m158.28,242.42c-.18,0-.36-.03-.54-.1-5.81-2.22-15.42-8.84-20.49-15.14-.52-.65-.42-1.59.23-2.11.65-.52,1.59-.42,2.11.23,4.69,5.84,13.9,12.18,19.22,14.22.77.3,1.16,1.16.87,1.94-.23.6-.8.96-1.4.96Z"/>
  <path class="cls-1" d="m177.95,246.43c-.18,0-.35,0-.52,0-6.43-.1-13.12-3.25-17.46-8.2-.55-.62-.48-1.57.14-2.12.62-.55,1.57-.48,2.12.14,3.79,4.33,9.64,7.09,15.25,7.18,4.76.09,12.5-1.11,15.04-1.5.93-.14,1.03-.16,1.19-.16.83,0,1.5.67,1.5,1.5s-.61,1.44-1.39,1.5c-.12.01-.42.06-.84.13-2.78.43-10,1.54-15.02,1.54Z"/>
  <path class="cls-1" d="m237.8,249.09c-.09,0-.18,0-.27-.02-.12-.02-12.55-2.27-15.87-2.65-1.54-.18-5.55.11-9.43.38-4.44.31-8.64.61-10.79.4-4.54-.44-6.42-.98-15.69-9.23-.62-.55-.67-1.5-.12-2.12.55-.62,1.5-.67,2.12-.12,8.98,8,10.35,8.13,13.99,8.48,1.9.19,6.16-.12,10.29-.4,4.2-.3,8.17-.57,9.98-.37,2.84.33,11.72,1.9,14.92,2.47,3.21-7.61,1.09-17.79.35-20.81-10.18-1.92-34.72-6.1-40.15-4.99-.81.16-1.6-.36-1.77-1.17-.17-.81.36-1.6,1.17-1.77,7.31-1.5,40.82,4.88,42.24,5.16.55.11,1,.51,1.16,1.05.18.6,4.29,14.8-.78,24.88-.26.51-.78.83-1.34.83Z"/>
  <path class="cls-1" d="m229.68,247.66c-.11,0-.23-.01-.34-.04-.81-.19-1.31-.99-1.12-1.8.03-.15,3.33-14.58.82-23.04-.24-.79.22-1.63,1.01-1.87.8-.24,1.63.22,1.87,1.01,2.74,9.22-.62,23.95-.77,24.58-.16.69-.78,1.16-1.46,1.16Z"/>
  <path class="cls-1" d="m258.99,251.5c-.17,0-.34,0-.5-.02-1.26-.08-3.86-1.04-8.34-2.71-3.74-1.4-7.99-2.99-10.28-3.44-.81-.16-1.34-.95-1.18-1.76.16-.81.96-1.34,1.76-1.18,2.53.5,6.71,2.07,10.75,3.58,2.94,1.1,6.61,2.47,7.49,2.53,5.35.37,16.75-6.14,17.59-7.89.24-1.03-.04-1.46-.13-1.61-.72-1.11-3.39-1.61-5.98-2.08-1.76-.32-3.58-.66-5.3-1.24-6.61-2.22-6.86-6.02-6.86-6.45-.01-.83.65-1.51,1.48-1.52.81.02,1.51.65,1.52,1.48h0s.31,2.14,4.82,3.65c1.51.51,3.23.82,4.89,1.13,3.35.62,6.52,1.2,7.95,3.4.71,1.1.89,2.45.51,4.02-.87,3.59-14.05,10.12-20.18,10.12Z"/>
  <path class="cls-1" d="m274.11,230.43c-.62,0-1.09-.47-1.9-1.31-1.12-1.15-4.1-4.2-5.57-4.73-2.07-.75-9.35-1.01-12.12,0-3.19,1.16-11.52,2.7-14.98,2.91-.84.05-1.54-.58-1.59-1.41-.05-.83.58-1.54,1.41-1.59,3.13-.19,11.25-1.69,14.13-2.73,3.33-1.22,11.29-1.04,14.16,0,1.96.71,4.49,3.19,6.7,5.46.28.29.5.52.63.64.27.18.48.44.58.77.26.79-.16,1.64-.95,1.9-.19.06-.36.09-.52.09Zm-.43-2.94h0Zm0,0s0,0,0,0t0,0Zm.26-.06c-.09.01-.17.03-.26.06.09-.03.17-.05.26-.06Z"/>
  <path class="cls-1" d="m277.86,240.97c-.79,0-1.45-.61-1.5-1.41-.05-.83.58-1.54,1.41-1.59,3.23-.19,5.38-.54,6.57-.83-1.36-1.71-4.18-4.83-7.43-5.99-3.86-1.38-11.12-1.09-15.03-.94-1.02.04-1.85.07-2.43.07-.83,0-1.5-.67-1.5-1.5s.67-1.5,1.5-1.5c.55,0,1.34-.03,2.31-.07,4.39-.17,11.75-.46,16.15,1.11,5.37,1.91,9.4,7.73,9.77,8.29.38.53.45,1.19.19,1.78-.28.61-.92,2.04-9.93,2.58-.03,0-.06,0-.09,0Z"/>
  <path class="cls-1" d="m297.37,241.12c-4.29,0-9.15-.38-11.46-1.29-.77-.3-1.15-1.17-.85-1.95.3-.77,1.18-1.15,1.95-.85,3.34,1.31,12.48,1.17,15.73.83-.58-1.63-2.42-4.85-5.51-6.11-4.48-1.83-15.81-2.11-21-.98-.81.17-1.61-.34-1.79-1.15-.18-.81.34-1.61,1.15-1.79,5.16-1.12,17.41-1.06,22.78,1.14,4.76,1.95,7.3,7.13,7.55,9.34.13,1.14-.33,1.72-.74,2-.72.5-4.04.8-7.82.8Z"/>
  <path class="cls-1" d="m315.44,241.12c-4.28,0-9.15-.38-11.46-1.29-.77-.3-1.15-1.17-.85-1.95.3-.77,1.17-1.15,1.95-.85,3.34,1.31,12.49,1.17,15.73.83-.58-1.63-2.42-4.85-5.51-6.11-4.48-1.83-15.82-2.11-21-.98-.81.17-1.61-.34-1.79-1.15-.18-.81.34-1.61,1.15-1.79,5.16-1.12,17.41-1.06,22.78,1.14,4.76,1.95,7.3,7.13,7.55,9.34.13,1.14-.33,1.72-.74,2-.71.5-4.04.8-7.82.8Zm6.38-3.41h0Z"/>
  <path class="cls-1" d="m333.51,241.12c-4.28,0-9.15-.38-11.45-1.29-.77-.3-1.15-1.17-.85-1.95.3-.77,1.18-1.15,1.95-.85,3.34,1.31,12.49,1.17,15.73.83-.58-1.63-2.42-4.85-5.51-6.11-4.48-1.83-15.82-2.11-21-.98-.81.17-1.61-.34-1.79-1.15-.18-.81.34-1.61,1.15-1.79,5.16-1.12,17.41-1.06,22.78,1.14,4.76,1.95,7.3,7.13,7.55,9.34.13,1.14-.33,1.72-.74,2-.72.5-4.04.8-7.82.8Z"/>
  <path class="cls-1" d="m351.57,241.12c-4.29,0-9.15-.38-11.46-1.29-.77-.3-1.15-1.17-.85-1.95.3-.77,1.17-1.15,1.95-.85,3.34,1.31,12.48,1.17,15.73.83-.58-1.63-2.42-4.85-5.51-6.11-4.48-1.83-15.82-2.11-21-.98-.81.17-1.61-.34-1.79-1.15-.18-.81.34-1.61,1.15-1.79,5.16-1.12,17.41-1.06,22.78,1.14,4.76,1.95,7.3,7.13,7.55,9.34.13,1.14-.33,1.72-.74,2-.72.5-4.04.8-7.82.8Z"/>
  <path class="cls-1" d="m369.64,241.12c-4.28,0-9.15-.38-11.46-1.29-.77-.3-1.15-1.17-.85-1.95.3-.77,1.18-1.15,1.95-.85,3.34,1.31,12.49,1.17,15.73.83-.58-1.63-2.42-4.85-5.51-6.11-4.48-1.83-15.81-2.11-21-.98-.82.17-1.61-.34-1.79-1.15-.18-.81.34-1.61,1.15-1.79,5.16-1.12,17.41-1.06,22.78,1.14,4.76,1.95,7.3,7.12,7.55,9.34.13,1.14-.33,1.72-.74,2-.71.5-4.04.8-7.82.8Z"/>
  <path class="cls-1" d="m388.17,241.12c-4.28,0-9.15-.38-11.45-1.29-.77-.3-1.15-1.17-.85-1.95.3-.77,1.18-1.15,1.95-.85,3.34,1.31,12.49,1.17,15.73.83-.58-1.63-2.42-4.85-5.51-6.11-4.48-1.83-15.82-2.11-21-.98-.82.17-1.61-.34-1.79-1.15-.18-.81.34-1.61,1.15-1.79,5.16-1.12,17.41-1.06,22.78,1.14,4.76,1.95,7.3,7.13,7.55,9.34.13,1.14-.33,1.72-.74,2-.72.5-4.04.8-7.82.8Z"/>
  <path class="cls-1" d="m406.23,241.12c-4.29,0-9.15-.38-11.46-1.29-.77-.3-1.15-1.17-.85-1.95.3-.77,1.18-1.15,1.95-.85,3.34,1.31,12.48,1.17,15.73.83-.58-1.63-2.42-4.85-5.51-6.11-4.48-1.83-15.81-2.11-21-.98-.81.17-1.61-.34-1.79-1.15-.18-.81.34-1.61,1.15-1.79,5.16-1.12,17.41-1.06,22.78,1.14,4.76,1.95,7.3,7.13,7.55,9.34.13,1.14-.33,1.72-.74,2-.72.5-4.04.8-7.82.8Z"/>
  <g>
    <path class="cls-1" d="m635.72,327.46c-.68,0-1.1-.28-1.36-.56-1.39-1.51-3.9-20.52-2.84-24.81.2-.8,1.02-1.29,1.82-1.1.8.2,1.3,1.01,1.1,1.82-.91,3.68,1.19,17.26,2.08,21.32,1.55-.81,4.45-3.05,5.29-6.25,1.22-4.68,0-15.96-1.81-20.95-.28-.78.12-1.64.9-1.92.78-.28,1.64.12,1.92.9,1.8,4.96,3.36,17.12,1.89,22.73-1.3,4.97-6.09,8.18-8.25,8.72-.27.07-.51.1-.73.1Zm1.07-2.27h0Z"/>
    <path class="cls-1" d="m638.12,345.37c-.68,0-1.1-.28-1.36-.56-1.27-1.37-3.19-14.64-2.07-19.17.2-.8,1.02-1.3,1.82-1.1.8.2,1.3,1.01,1.1,1.82-.86,3.48.5,12.53,1.26,15.7,1.54-.79,4.49-3.04,5.33-6.27,1.22-4.68,0-15.96-1.81-20.95-.28-.78.12-1.64.9-1.92.78-.28,1.64.12,1.92.9,1.8,4.96,3.36,17.12,1.89,22.73-1.3,4.98-6.1,8.18-8.26,8.72-.27.07-.51.1-.72.1Zm1.04-2.33h0s0,0,0,0Z"/>
    <path class="cls-1" d="m640.51,363.27c-.68,0-1.1-.28-1.36-.56-1.27-1.37-3.19-14.64-2.07-19.17.2-.8,1.02-1.3,1.82-1.1.8.2,1.3,1.01,1.1,1.82-.86,3.48.5,12.53,1.26,15.7,1.54-.79,4.49-3.04,5.33-6.27,1.22-4.68,0-15.96-1.81-20.95-.28-.78.12-1.64.9-1.92.78-.28,1.64.12,1.92.9,1.8,4.96,3.36,17.12,1.89,22.73-1.3,4.97-6.1,8.18-8.25,8.72-.27.07-.51.1-.73.1Zm1.04-2.33h0s0,0,0,0Z"/>
    <path class="cls-1" d="m642.91,381.18c-.68,0-1.1-.28-1.36-.56-1.27-1.37-3.19-14.64-2.07-19.17.2-.8,1.01-1.29,1.82-1.1.8.2,1.3,1.01,1.1,1.82-.86,3.48.5,12.53,1.26,15.7,1.54-.79,4.49-3.04,5.33-6.27,1.22-4.68,0-15.96-1.81-20.95-.28-.78.12-1.64.9-1.92.78-.28,1.64.12,1.92.9,1.8,4.96,3.36,17.12,1.89,22.73-1.3,4.97-6.09,8.18-8.25,8.72-.27.07-.51.1-.73.1Zm1.04-2.32h0Z"/>
    <path class="cls-1" d="m645.36,399.54c-.68,0-1.1-.28-1.36-.56-1.27-1.38-3.19-14.65-2.07-19.17.2-.8,1.02-1.3,1.82-1.1.8.2,1.3,1.01,1.1,1.82-.86,3.48.5,12.53,1.26,15.7,1.54-.79,4.49-3.04,5.33-6.27,1.22-4.68,0-15.96-1.81-20.95-.28-.78.12-1.64.9-1.92s1.64.12,1.92.9c1.8,4.96,3.36,17.12,1.89,22.73-1.3,4.97-6.09,8.18-8.25,8.72-.27.07-.51.1-.73.1Zm1.04-2.32h0Z"/>
    <path class="cls-1" d="m647.76,417.45c-.68,0-1.1-.28-1.36-.56-1.27-1.37-3.19-14.64-2.07-19.17.2-.8,1.01-1.3,1.82-1.1.8.2,1.3,1.01,1.1,1.82-.86,3.48.5,12.53,1.26,15.7,1.54-.79,4.49-3.04,5.33-6.27,1.22-4.68,0-15.96-1.81-20.95-.28-.78.12-1.64.9-1.92.78-.28,1.64.12,1.92.9,1.8,4.96,3.36,17.12,1.89,22.73-1.3,4.98-6.1,8.18-8.26,8.72-.27.07-.51.1-.72.1Zm1.04-2.33h0s0,0,0,0Z"/>
  </g>
  <g>
    <path class="cls-1" d="m51.32,394.33c-.22,0-.46-.03-.73-.1-2.16-.54-6.95-3.75-8.25-8.72-1.47-5.61.1-17.77,1.89-22.73.28-.78,1.14-1.18,1.92-.9.78.28,1.18,1.14.9,1.92-1.81,4.99-3.04,16.26-1.81,20.95.84,3.22,3.79,5.47,5.33,6.27.76-3.17,2.12-12.22,1.26-15.7-.2-.8.29-1.62,1.1-1.82.8-.2,1.62.29,1.82,1.1,1.12,4.52-.8,17.79-2.07,19.17-.25.28-.68.56-1.36.56Zm-1.04-2.32h0Zm1.09-.67h0,0Z"/>
    <path class="cls-1" d="m48.93,412.23c-.22,0-.46-.03-.73-.1-2.16-.54-6.96-3.75-8.25-8.72-1.47-5.61.1-17.77,1.89-22.73.28-.78,1.14-1.18,1.92-.9.78.28,1.18,1.14.9,1.92-1.81,4.99-3.03,16.27-1.81,20.95.84,3.22,3.79,5.47,5.33,6.27.76-3.17,2.12-12.22,1.26-15.7-.2-.8.29-1.62,1.1-1.82.8-.2,1.62.29,1.82,1.1,1.12,4.52-.8,17.79-2.07,19.17-.26.28-.68.56-1.36.56Zm-1.04-2.32h0Zm1.09-.67h0,0Z"/>
  </g>
  <path class="cls-1" d="m424.3,241.12c-4.28,0-9.15-.38-11.46-1.29-.77-.3-1.15-1.17-.85-1.95.3-.77,1.17-1.15,1.95-.85,3.34,1.31,12.49,1.17,15.73.83-.58-1.63-2.42-4.85-5.51-6.11-4.48-1.83-15.82-2.11-21-.98-.82.17-1.61-.34-1.79-1.15-.18-.81.34-1.61,1.15-1.79,5.16-1.12,17.41-1.06,22.78,1.14,4.76,1.95,7.3,7.12,7.55,9.34.13,1.14-.33,1.72-.74,2-.71.5-4.04.8-7.82.8Z"/>
  <g>
    <path class="cls-1" d="m152.92,270.04c-.7,0-1.33-.5-1.47-1.21-.16-.81.37-1.6,1.18-1.76,2.86-.56,5.28-1.21,6.58-1.63-.91-1.48-3.37-4.24-6.64-4.84-2.08-.38-5.62-.22-9.72.44-.83.14-1.59-.42-1.72-1.24-.13-.82.42-1.59,1.24-1.72,2.6-.42,7.45-1.03,10.74-.43,5.06.93,8.61,5.47,9.31,7.59.36,1.09.03,1.75-.31,2.11-1.03,1.1-8.58,2.6-8.91,2.67-.1.02-.2.03-.29.03Zm7.26-4.95h0Z"/>
    <path class="cls-1" d="m162.74,267.24c-.73,0-1.37-.04-1.9-.13-.82-.14-1.37-.91-1.23-1.73s.91-1.37,1.73-1.23c3.53.59,12.46-1.43,15.56-2.42-.91-1.48-3.37-4.25-6.65-4.85-4.76-.87-15.91,1.19-20.76,3.36-.76.34-1.65,0-1.98-.75-.34-.76,0-1.64.75-1.98,4.81-2.16,16.82-4.62,22.53-3.57,5.05.93,8.61,5.47,9.31,7.58.36,1.09.03,1.75-.31,2.11-1.13,1.21-11.51,3.61-17.06,3.61Zm15.13-5.87h0Z"/>
    <path class="cls-1" d="m180.42,263.53c-.72,0-1.37-.04-1.9-.13-.82-.14-1.37-.91-1.23-1.73.14-.82.91-1.37,1.73-1.23,3.54.59,12.46-1.43,15.56-2.42-.91-1.48-3.37-4.25-6.65-4.85-4.76-.88-15.91,1.18-20.76,3.36-.76.34-1.64,0-1.98-.75-.34-.76,0-1.64.75-1.98,4.82-2.16,16.83-4.61,22.53-3.57,5.06.93,8.61,5.47,9.31,7.59.36,1.09.03,1.75-.31,2.11-1.13,1.21-11.51,3.62-17.06,3.62Zm15.13-5.87h0Z"/>
    <path class="cls-1" d="m198.55,259.71c-.73,0-1.37-.04-1.9-.13-.82-.14-1.37-.91-1.23-1.73.14-.82.91-1.37,1.73-1.23,3.53.59,12.46-1.43,15.56-2.42-.91-1.48-3.37-4.25-6.65-4.85-4.76-.88-15.91,1.18-20.76,3.36-.76.34-1.64,0-1.98-.75-.34-.76,0-1.64.75-1.98,4.81-2.16,16.81-4.62,22.53-3.57,5.06.93,8.61,5.47,9.31,7.58.36,1.09.03,1.75-.31,2.11-1.13,1.21-11.51,3.61-17.06,3.61Zm15.13-5.87h0Z"/>
    <path class="cls-1" d="m214.53,256.07c-.8,0-1.46-.63-1.5-1.43-.04-.83.6-1.53,1.43-1.57,12.59-.6,16.56-4.99,16.6-5.04.54-.62,1.48-.7,2.11-.17.63.53.71,1.46.19,2.09-.18.22-4.66,5.44-18.76,6.11-.02,0-.05,0-.07,0Z"/>
    <path class="cls-1" d="m237.9,251.55c-3.94,0-7.67-1.28-10.29-3.58-.62-.55-.68-1.49-.14-2.12.54-.62,1.5-.68,2.12-.14,2.49,2.18,6.29,3.21,10.19,2.72,2.92-.36,5.31-1.53,6.41-3.12.47-.68,1.4-.85,2.09-.38.68.47.85,1.4.38,2.09-1.6,2.32-4.71,3.93-8.51,4.4-.75.09-1.5.14-2.25.14Z"/>
  </g>
  <path class="cls-1" d="m440.79,241.18c-3.14,0-7.11-.26-9.88-1.35-.77-.3-1.15-1.17-.85-1.95s1.18-1.15,1.95-.85c2.91,1.15,8.29,1.28,12.37,1.03.84-.04,1.54.58,1.59,1.4.05.83-.58,1.54-1.4,1.59-.9.06-2.24.12-3.78.12Z"/>
  <path class="cls-1" d="m420.91,230.81c-.69,0-1.31-.48-1.46-1.18-.18-.81.34-1.61,1.15-1.79,4.63-1.01,15.73-1.53,21.56-.18.81.19,1.31.99,1.12,1.8-.19.81-.98,1.31-1.8,1.12-5.37-1.24-15.98-.74-20.25.19-.11.02-.21.03-.32.03Z"/>
  <g>
    <path class="cls-1" d="m491.47,247.81c-2.07,0-8.91-2.77-8.98-2.8-.77-.31-1.14-1.19-.82-1.96.31-.77,1.18-1.14,1.96-.82,2.76,1.12,5.36,1.98,6.78,2.37.04-1.74-.52-5.39-2.93-7.68-3.5-3.31-15.52-8.38-20.72-9.19-.82-.13-1.38-.89-1.25-1.71.13-.82.9-1.37,1.71-1.25,5.3.82,18.07,5.96,22.32,9.97,3.74,3.53,4.24,9.28,3.68,11.43-.29,1.11-.93,1.48-1.41,1.6-.09.02-.2.03-.33.03Zm-.07-2.98h0,0Z"/>
    <path class="cls-1" d="m508.34,254.32c-2.62,0-14.22-4.42-17.49-7.43-.61-.56-.65-1.51-.09-2.12.56-.61,1.51-.65,2.12-.09,2.64,2.43,11.23,5.58,14.37,6.44.04-1.74-.51-5.4-2.93-7.69-3.52-3.33-13.99-7.67-19.24-8.49-.82-.13-1.38-.89-1.25-1.71s.9-1.38,1.71-1.25c5.21.81,16.62,5.29,20.84,9.27,3.74,3.53,4.24,9.28,3.68,11.43-.29,1.11-.93,1.48-1.41,1.6-.08.02-.19.03-.31.03Z"/>
    <path class="cls-1" d="m525.19,260.83c-2.62,0-14.22-4.42-17.49-7.43-.61-.56-.65-1.51-.09-2.12.56-.61,1.51-.65,2.12-.09,2.64,2.43,11.23,5.58,14.37,6.44.04-1.74-.51-5.4-2.93-7.69-3.52-3.33-13.99-7.67-19.24-8.49-.82-.13-1.38-.89-1.25-1.71.13-.82.91-1.38,1.71-1.25,5.21.81,16.62,5.29,20.84,9.27,3.73,3.53,4.24,9.28,3.68,11.43-.29,1.11-.92,1.49-1.41,1.6-.08.02-.19.03-.31.03Z"/>
    <path class="cls-1" d="m542.04,267.34c-2.62,0-14.22-4.42-17.49-7.43-.61-.56-.65-1.51-.09-2.12.56-.61,1.51-.65,2.12-.09,2.64,2.43,11.23,5.58,14.37,6.44.04-1.74-.51-5.4-2.93-7.69-3.52-3.33-13.99-7.67-19.24-8.49-.82-.13-1.38-.89-1.25-1.71.13-.82.9-1.37,1.71-1.25,5.21.81,16.62,5.29,20.84,9.27,3.74,3.53,4.24,9.28,3.68,11.43-.29,1.11-.93,1.48-1.41,1.6-.08.02-.19.03-.31.03Z"/>
    <path class="cls-1" d="m558.89,273.85c-2.62,0-14.22-4.42-17.49-7.43-.61-.56-.65-1.51-.09-2.12.56-.61,1.51-.65,2.12-.09,2.64,2.43,11.23,5.58,14.37,6.44.04-1.74-.51-5.4-2.93-7.69-3.52-3.32-13.99-7.67-19.24-8.49-.82-.13-1.38-.89-1.25-1.71.13-.82.91-1.38,1.71-1.25,5.21.81,16.62,5.29,20.84,9.27,3.74,3.53,4.24,9.28,3.68,11.43-.29,1.11-.93,1.48-1.41,1.6-.08.02-.19.03-.31.03Z"/>
    <path class="cls-1" d="m576.18,280.53c-2.62,0-14.22-4.42-17.49-7.43-.61-.56-.65-1.51-.09-2.12.56-.61,1.51-.65,2.12-.09,2.64,2.43,11.23,5.59,14.37,6.44.04-1.73-.51-5.4-2.93-7.69-3.52-3.33-13.99-7.67-19.24-8.49-.82-.13-1.38-.89-1.25-1.71s.9-1.37,1.71-1.25c5.21.81,16.62,5.29,20.84,9.27,3.74,3.53,4.24,9.28,3.68,11.43-.29,1.11-.93,1.48-1.41,1.6-.08.02-.18.03-.31.03Z"/>
    <path class="cls-1" d="m593.03,287.04c-2.62,0-14.22-4.42-17.49-7.43-.61-.56-.65-1.51-.09-2.12.56-.61,1.51-.65,2.12-.09,2.64,2.43,11.23,5.59,14.37,6.44.05-1.73-.51-5.4-2.93-7.69-3.52-3.33-13.99-7.67-19.24-8.49-.82-.13-1.38-.89-1.25-1.71.13-.82.9-1.37,1.71-1.25,5.21.81,16.62,5.29,20.84,9.27,3.73,3.53,4.24,9.28,3.68,11.43-.29,1.11-.93,1.49-1.41,1.61-.08.02-.19.03-.31.03Zm-.09-2.98h0Z"/>
    <path class="cls-1" d="m609.88,293.55c-2.62,0-14.22-4.42-17.49-7.43-.61-.56-.65-1.51-.09-2.12.56-.61,1.51-.65,2.12-.09,2.64,2.43,11.23,5.58,14.37,6.44.04-1.73-.51-5.4-2.93-7.69-3.52-3.33-13.99-7.67-19.24-8.49-.82-.13-1.38-.89-1.25-1.71s.9-1.37,1.71-1.25c5.21.81,16.62,5.29,20.84,9.27,3.74,3.53,4.24,9.28,3.68,11.43-.29,1.11-.93,1.48-1.41,1.6-.08.02-.19.03-.31.03Zm-.09-2.98h0Z"/>
    <path class="cls-1" d="m616.67,284.41c-.29,0-.59-.08-.85-.26-2.24-1.54-5.72-2.15-8.28-1.46-.79.21-1.62-.26-1.84-1.06s.26-1.62,1.06-1.84c3.38-.91,7.8-.13,10.75,1.88.68.47.86,1.4.39,2.08-.29.42-.76.65-1.24.65Z"/>
  </g>
  <path class="cls-1" d="m24.38,259.63c-.52,0-1.02-.27-1.3-.75-2.29-3.96-1.25-14.47.13-25.82.27-2.21.5-4.12.58-5.27.44-6.17,17.05-26.13,25.18-28.71.79-.25,1.63.19,1.88.98.25.79-.19,1.63-.98,1.88-7.36,2.33-22.77,21.53-23.1,26.06-.09,1.23-.31,3.08-.6,5.42-.87,7.18-2.49,20.54-.51,23.96.42.72.17,1.63-.55,2.05-.24.14-.5.2-.75.2Z"/>
  <path class="cls-1" d="m21.39,270.66c-.56,0-1.09-.31-1.35-.85l-.14-.29c-2.06-4.24-5.88-12.12,1.34-19.34.59-.59,1.54-.59,2.12,0s.59,1.54,0,2.12c-5.71,5.71-2.73,11.85-.76,15.91l.14.29c.36.75.05,1.64-.7,2-.21.1-.43.15-.65.15Z"/>
  <path class="cls-1" d="m41.77,260.8c-.24,0-.48-.06-.7-.18-.5-.27-12.37-6.71-14.01-17.84-.12-.82.44-1.58,1.26-1.7.81-.13,1.58.44,1.7,1.26,1.42,9.62,12.35,15.58,12.46,15.64.73.39,1.01,1.3.62,2.03-.27.5-.79.79-1.32.79Z"/>
  <path class="cls-1" d="m39.3,259.63s-.05,0-.07,0c-.23-.01-5.79-.32-10.61-3.49-.69-.46-.88-1.39-.43-2.08.46-.69,1.39-.88,2.08-.43,4.12,2.71,9.06,3,9.11,3,.83.04,1.46.75,1.42,1.57-.04.8-.7,1.42-1.5,1.42Z"/>
  <path class="cls-1" d="m105.01,251.22c-12.96,0-54.12-.72-67.2-9.63-.68-.47-.86-1.4-.4-2.08.47-.68,1.4-.86,2.08-.4,14.49,9.87,68.79,9.09,69.34,9.08.86.03,1.51.65,1.52,1.48.01.83-.65,1.51-1.48,1.52-.33,0-1.71.03-3.88.03Z"/>
  <path class="cls-1" d="m63.7,231.47c-.09,0-.19,0-.28-.03-1.03-.2-25.36-4.94-29.29-19.1-.22-.8.25-1.62,1.04-1.85.79-.22,1.62.25,1.85,1.04,3.44,12.36,26.73,16.91,26.96,16.95.81.15,1.35.94,1.19,1.75-.14.72-.77,1.22-1.47,1.22Z"/>
  <path class="cls-1" d="m87.41,274.94c-7.35,0-15.55-.81-24.06-2.89-.8-.2-1.3-1.01-1.1-1.81.2-.81,1.01-1.3,1.81-1.1,25.88,6.34,46.46.54,51.03-2.28,2.68-1.66,4.51-4.36,6.13-6.74,1.55-2.28,2.89-4.26,4.75-4.99.77-.31,1.64.07,1.95.84.3.77-.07,1.64-.84,1.95-1,.4-2.15,2.09-3.37,3.89-1.7,2.5-3.81,5.61-7.03,7.61-4.17,2.58-15.16,5.54-29.25,5.54Z"/>
  <path class="cls-1" d="m131.13,261.33c-2.07,0-4.36-.15-6.86-.55-.82-.13-1.38-.9-1.24-1.72.13-.82.9-1.38,1.72-1.24,6.12.98,10.92.32,14.43-.16,2.67-.37,4.6-.63,6.02-.02.19-1.04.28-2.88.2-4.56-.61-5.56-2.22-12.17-3.63-12.99-.55-.3-3.2-.55-5.76-.78-9.48-.87-27.12-2.49-47.71-12.6-.74-.37-1.05-1.26-.69-2.01.37-.74,1.26-1.05,2.01-.69,20.1,9.86,37.38,11.45,46.67,12.31,4.09.38,5.94.57,6.99,1.18,3.41,1.98,4.78,12.25,5.12,15.34.34,6.93-1.28,7.74-1.81,8.01-.37.19-1.35.52-2.45-.39-.47-.39-2.63-.09-4.54.17-2.28.31-5.09.7-8.45.7Z"/>
  <path class="cls-1" d="m107.49,343.79c-19.7,0-45.05-7.56-55.85-17.09-3.52-3.1-5.38-6.28-5.53-9.45-.03-.55.25-1.07.72-1.35,1.62-.99,4.06-5.24,6.63-9.74,3.94-6.88,8.85-15.45,14.72-19.42.69-.46,1.62-.28,2.08.4.46.69.28,1.62-.4,2.08-5.3,3.58-10.01,11.81-13.8,18.43-2.66,4.65-4.83,8.43-6.87,10.21.37,2.1,1.86,4.31,4.43,6.59,11.29,9.96,39.36,17.66,58.89,16.15,13.1-1.01,25.68-17.47,32.01-27.19,11-16.87,16.27-32.6,15.35-35.19-1.87-5.33-15.07-14.16-19.99-17.12-.71-.43-.94-1.35-.51-2.06.43-.71,1.35-.94,2.06-.51,1.91,1.14,18.71,11.39,21.28,18.69,1.65,4.69-5.82,22.71-15.67,37.83-6.64,10.18-19.92,27.43-34.3,28.54-1.69.13-3.45.19-5.25.19Z"/>
  <path class="cls-1" d="m86.5,323.63c-10.81,0-20.82-2.64-27.58-7.58-.67-.49-.81-1.43-.33-2.1.49-.67,1.43-.81,2.1-.33,15.5,11.33,49.22,9.7,67.86-9.31.58-.59,1.53-.6,2.12-.02.59.58.6,1.53.02,2.12-11.57,11.8-28.71,17.21-44.2,17.21Z"/>
  <path class="cls-1" d="m102.63,302.46c-.62,0-1.2-.39-1.42-1-.27-.78.14-1.64.92-1.91,27.57-9.69,29.49-29.52,29.5-29.72.07-.83.79-1.43,1.62-1.37.83.07,1.44.79,1.37,1.62-.07.89-2.1,21.98-31.5,32.31-.16.06-.33.08-.5.08Z"/>
  <path class="cls-1" d="m71.62,298.7c-.69,0-1.31-.48-1.46-1.17-.07-.33-1.68-8.11,7.49-13.25.72-.4,1.64-.15,2.04.58.41.72.15,1.64-.58,2.04-7.25,4.06-6.04,9.92-6.03,9.98.18.81-.33,1.61-1.14,1.79-.11.02-.22.04-.33.04Z"/>
  <path class="cls-1" d="m109.51,283.64c-.63,0-1.22-.4-1.42-1.03-.29-.88-2.74-8.67-.52-12.51.41-.72,1.33-.96,2.05-.55.72.41.96,1.33.55,2.05-1.17,2.03-.15,7.26.78,10.08.26.79-.17,1.63-.96,1.89-.16.05-.31.08-.47.08Z"/>
  <path class="cls-1" d="m64.35,281.57c-.12,0-.24-.01-.37-.04-.72-.18-17.75-4.56-27.69-17.42-.51-.66-.39-1.6.27-2.1s1.6-.39,2.1.27c9.29,12.01,25.88,16.3,26.05,16.34.8.2,1.29,1.02,1.09,1.82-.17.68-.78,1.13-1.45,1.13Z"/>
  <path class="cls-1" d="m66.13,288.45c-1,0-1.98-.04-2.91-.11-5.98-.48-10.04-2.42-12.07-5.78-.31-.46-1.7-2.73-2.98-8.55-.18-.81.33-1.61,1.14-1.79.81-.18,1.61.33,1.79,1.14,1.23,5.59,2.52,7.49,2.53,7.51.02.03.05.07.07.1,1.5,2.5,4.78,3.97,9.76,4.37,12.43.99,29.5-5.17,31.28-7.29,2.92-3.49,3.3-5.13,3.31-5.14.12-.82.87-1.36,1.69-1.25s1.39.9,1.27,1.72c-.05.38-.5,2.45-3.97,6.59-2.8,3.34-18.85,8.46-30.9,8.46Z"/>
  <path class="cls-1" d="m37.02,286.39c-.47,0-.93-.22-1.23-.63-.48-.68-.32-1.61.36-2.09.07-.05,7.35-5.27,9.12-10.93.25-.79,1.09-1.23,1.88-.98.79.25,1.23,1.09.98,1.88-2.07,6.64-9.91,12.25-10.25,12.48-.26.19-.57.28-.87.28Z"/>
  <path class="cls-1" d="m25.03,295.19c-.44,0-.87-.19-1.17-.56-.52-.64-.42-1.59.22-2.11,1.29-1.04,2.43-1.99,3.46-2.84,5.51-4.58,8.28-6.87,14.1-7.35,6.06-.49,10.21-1.98,10.25-1.99.78-.28,1.64.12,1.92.9.28.78-.12,1.64-.9,1.92-.18.07-4.55,1.63-11.03,2.16-4.88.4-6.94,2.11-12.43,6.67-1.04.86-2.19,1.82-3.49,2.87-.28.22-.61.33-.94.33Z"/>
  <path class="cls-1" d="m15.94,290.91c-.69,0-1.31-.47-1.46-1.17-.15-.66-3.57-16.27,2-25.52.43-.71,1.35-.94,2.06-.51.71.43.94,1.35.51,2.06-4.95,8.23-1.67,23.17-1.64,23.32.18.81-.33,1.61-1.13,1.79-.11.02-.22.04-.33.04Z"/>
  <path class="cls-1" d="m22.29,316.52c-5.17,0-9.6-3.69-13.52-11.24-4.23-8.15.36-21.79,4.79-28.45.46-.69,1.39-.88,2.08-.42.69.46.88,1.39.42,2.08-4.73,7.11-7.8,19.29-4.62,25.41,3.56,6.87,7.36,10.01,11.66,9.58,4.41-.43,18.64-11.26,20.73-19.01.22-.8,1.04-1.27,1.84-1.06.8.22,1.27,1.04,1.06,1.84-2.36,8.75-17.35,20.63-23.33,21.22-.37.04-.74.05-1.1.05Z"/>
  <path class="cls-1" d="m37.02,307.85c-.82,0-1.49-.66-1.5-1.48,0-.83.66-1.51,1.48-1.52h1.27c6.25-.05,13.33-.09,18.93-4.92.63-.54,1.58-.47,2.12.16.54.63.47,1.57-.16,2.12-6.44,5.55-14.44,5.6-20.87,5.64h-1.25s-.01,0-.02,0Z"/>
  <path class="cls-1" d="m198.87,334.13c-.1,0-.21,0-.31-.03-.81-.17-1.33-.96-1.16-1.78.01-.08,1.55-7.85-2.69-14.03-4.28-6.24-19.45-22.63-34.47-33.1-.68-.47-.85-1.41-.37-2.09.47-.68,1.41-.85,2.09-.37,14.25,9.94,30.12,26.42,35.22,33.87,4.98,7.26,3.23,15.97,3.15,16.34-.15.71-.77,1.19-1.47,1.19Z"/>
  <path class="cls-1" d="m259.01,407.32c-.19,0-.38-.04-.56-.11-.77-.31-1.14-1.18-.83-1.95,2.74-6.78,1.09-13.39.38-16.21-.64-1.78-9.83-9.28-14.76-13.3-2.67-2.18-4.97-4.06-6.25-5.22-4.35-3.96-10.28-12.35-10.54-12.71-.15-.21-.24-.45-.27-.71-.32-3.02-.77-6.59-1.01-7.57-.35-.26-1.27-.76-2.16-1.24-1.49-.8-3.53-1.91-6.07-3.51-4.24-2.67-7.98-10.65-10.45-15.93-.8-1.7-1.48-3.17-1.89-3.8-1.72-2.68-3.5-5.45-8.86-6.14-.82-.11-1.4-.86-1.3-1.68.11-.82.87-1.41,1.68-1.3,6.74.87,9.2,4.7,11,7.49.52.8,1.21,2.28,2.08,4.15,2.18,4.66,5.83,12.46,9.33,14.66,2.46,1.55,4.45,2.62,5.9,3.41,2.05,1.11,2.99,1.61,3.4,2.44.33.66.76,3.45,1.28,8.3,1.12,1.57,6.22,8.58,9.88,11.9,1.22,1.11,3.5,2.97,6.13,5.12,10.47,8.54,15.23,12.72,15.78,14.9.71,2.84,2.59,10.37-.51,18.06-.24.58-.8.94-1.39.94Zm-33.72-57.69h0,0Z"/>
  <path class="cls-1" d="m208.67,363.84c-.43,0-.85-.18-1.15-.53-.53-.63-.45-1.58.18-2.11,4.54-3.83,7.3-11.96,7.33-12.04.26-.79,1.11-1.21,1.9-.95.79.26,1.21,1.11.95,1.9-.12.37-3.05,9.02-8.24,13.39-.28.24-.62.35-.96.35Z"/>
  <path class="cls-1" d="m218.14,360.08c-.68,0-1.3-.47-1.46-1.16-.19-.81.31-1.61,1.12-1.8,4.26-.99,6.2-.04,6.55.17.72.42.96,1.34.54,2.05-.42.71-1.34.96-2.05.54h0s-1.31-.55-4.36.17c-.11.03-.23.04-.34.04Z"/>
  <path class="cls-1" d="m182.84,342.95c-.09,0-.19,0-.29-.03-.41-.08-41.21-7.92-51.51-9.27-.82-.11-1.4-.86-1.29-1.68.11-.82.88-1.4,1.68-1.29,10.38,1.36,50,8.97,51.68,9.3.81.16,1.35.94,1.19,1.76-.14.72-.77,1.22-1.47,1.22Z"/>
  <path class="cls-1" d="m202.95,371.63c-.28,0-.56-.08-.82-.24-.08-.05-8.11-5.25-14.99-7.63-7.74-2.67-27.92-17.37-34.45-26.05-.5-.66-.37-1.6.3-2.1.66-.5,1.6-.37,2.1.3,6.51,8.65,26.36,22.71,33.03,25.02,7.23,2.5,15.3,7.73,15.64,7.95.69.45.89,1.38.44,2.08-.29.44-.77.68-1.26.68Z"/>
  <path class="cls-1" d="m243.81,411.74c-4.84,0-19.56-.44-21.85-5.71-2.19-5.03-4.22-7.83-11.11-12.18-4.62-2.92-9.92-10.66-15.04-18.15-3.42-5-6.66-9.73-9.23-12.3-.59-.59-.59-1.54,0-2.12s1.54-.59,2.12,0c2.77,2.77,6.08,7.6,9.58,12.73,4.72,6.9,10.07,14.72,14.17,17.3,7.51,4.74,9.85,8,12.25,13.52,1.12,2.56,11.24,4.03,20.02,3.9h.02c.82,0,1.49.66,1.5,1.48.01.83-.65,1.51-1.48,1.52-.25,0-.57,0-.96,0Z"/>
  <path class="cls-1" d="m249.16,445.74c-.48,0-.93-.23-1.21-.62-.06-.08-5.65-7.76-9.64-13.81-2.15-3.26-3.74-6.51-5.58-10.28-1.66-3.4-3.54-7.26-6.23-11.9-.42-.72-.17-1.63.55-2.05.72-.42,1.63-.17,2.05.55,2.74,4.73,4.65,8.64,6.33,12.08,1.79,3.68,3.34,6.85,5.38,9.95,3.27,4.96,7.63,11.02,9.07,13.02,10.92-.86,28.08-3.65,30.12-7.8,2.64-5.39,2.74-13.76,2.71-15.9l-24.1-28.1c-.54-.63-.47-1.58.16-2.12.63-.54,1.58-.47,2.12.16l24.45,28.51c.22.26.35.58.36.92.02.45.36,10.97-3.01,17.85-3.45,7.04-28.45,9.17-33.42,9.53-.04,0-.07,0-.11,0Z"/>
  <path class="cls-1" d="m75.71,352c-9.97,0-24.06-1.8-28.1-6.75-.52-.64-.43-1.59.21-2.11.64-.53,1.59-.43,2.11.21,4.63,5.68,29.82,6.72,34.35,4.88,4.39-1.78,9.21-7.75,9.26-7.81.52-.65,1.46-.75,2.11-.23.65.52.75,1.46.23,2.11-.22.27-5.37,6.65-10.47,8.72-1.51.61-5.19.98-9.71.98Z"/>
  <path class="cls-1" d="m84.36,349.67c-4.04,0-10.81-.75-17.31-4.88-.7-.44-.91-1.37-.46-2.07.45-.7,1.37-.91,2.07-.46,8.98,5.7,18.82,4.23,18.92,4.21.82-.13,1.59.43,1.72,1.25.13.82-.42,1.58-1.24,1.72-.16.03-1.54.24-3.69.24Z"/>
  <path class="cls-1" d="m63.7,378.77s-.09,0-.13,0c-11.26-1-18.22-13.68-18.37-17.53-.04-1.15-1.34-3.04-2.71-5.04-1.82-2.66-4.08-5.97-5.22-9.94-2.22-7.75,3-16.49,9.04-26.6.42-.71,1.34-.94,2.06-.52.71.42.94,1.35.52,2.06-5.69,9.52-10.6,17.74-8.74,24.24,1,3.5,3.03,6.46,4.81,9.07,1.76,2.57,3.15,4.6,3.23,6.62.11,2.76,6.19,13.82,15.63,14.66.83.07,1.43.8,1.36,1.63-.07.78-.72,1.37-1.49,1.37Z"/>
  <path class="cls-1" d="m91.88,397.59c-.22,0-.45-.05-.66-.15-.74-.37-1.05-1.26-.69-2.01,1.56-3.19,3-7.36,2.64-8.49-.81-2.57-2.93-7.42-4.65-9.48-1.02-1.23-1.78-4.21-3.15-9.81-1.35-5.51-3.02-12.36-5.02-15.52-.44-.7-.23-1.63.47-2.07.7-.44,1.63-.23,2.07.47,2.26,3.58,3.93,10.4,5.4,16.41.86,3.5,1.92,7.86,2.54,8.61,2.28,2.74,4.53,8.36,5.21,10.5.89,2.82-1.93,8.92-2.81,10.72-.26.53-.79.84-1.35.84Z"/>
  <path class="cls-1" d="m98.2,442.91c-.48,0-.96,0-1.47-.03-13.79-.54-30.04-16.62-30.72-17.31-.56-.56-.59-1.46-.06-2.06l1.65-1.85c-.2-2.26-.92-10.05-2-15.55-1.22-6.21-7.99-21.84-13.75-33.38-.37-.74-.07-1.64.67-2.01.74-.37,1.64-.07,2.01.67,4.85,9.72,12.58,26.83,14.01,34.14,1.3,6.63,2.07,16.12,2.1,16.52.03.41-.1.81-.37,1.12l-1.12,1.25c3.73,3.47,16.92,15.04,27.7,15.46,10.13.4,12.84-3.69,13.41-4.89-1.21-3.71-8.83-26.95-10.93-31.38-2.34-4.94-5.97-12.72-5.97-12.72l2.72-1.27s3.63,7.78,5.97,12.71c2.35,4.96,10.87,31.12,11.23,32.23.09.27.1.55.03.82-.08.32-2,7.53-15.1,7.53Z"/>
  <path class="cls-1" d="m97.32,423.93c-.08,0-.17,0-.25-.02-.8-.14-19.62-3.49-31.13-17.12-.54-.63-.46-1.58.18-2.11.63-.54,1.58-.45,2.11.18,10.79,12.78,29.16,16.07,29.35,16.1.82.14,1.36.92,1.22,1.73-.12.73-.76,1.25-1.48,1.25Z"/>
  <path class="cls-1" d="m272.19,245.02c-1.81,0-4.07-.19-6.24-.91-.79-.26-1.22-1.11-.96-1.89s1.11-1.22,1.89-.96c3.92,1.29,8.41.54,8.46.53.82-.15,1.59.41,1.73,1.22.14.82-.4,1.59-1.22,1.73-.11.02-1.6.27-3.66.27Z"/>
  <path class="cls-1" d="m99.38,446.66c-6.19,0-15.73-.53-24.59-1.39-17.97-1.74-18.82-3.26-19.27-4.07-1.69-3.05-3.16-11.11,3.51-15.24,6.16-3.82,10.02-1.55,10.18-1.45.71.43.93,1.35.5,2.06-.43.71-1.35.93-2.06.5-.08-.04-2.55-1.34-7.04,1.44-4.8,2.97-3.61,8.94-2.56,11.05,3.03,1.75,30.37,4.36,43.14,4.08,4.11-.09,6.97-.98,8.06-2.5.81-1.13.43-2.35.41-2.4-.25-.78.17-1.63.95-1.89.78-.26,1.62.14,1.89.91.34.97.57,3.13-.76,5.05-1.68,2.43-5.21,3.72-10.49,3.83-.58.01-1.2.02-1.86.02Z"/>
  <path class="cls-1" d="m68.57,443.85c-.32,0-.64-.1-.92-.31-1.11-.85-10.8-8.51-10.51-14.75.04-.83.76-1.46,1.57-1.43.83.04,1.47.74,1.43,1.57-.16,3.54,5.65,9.38,9.35,12.24.66.51.78,1.45.27,2.1-.29.38-.74.58-1.19.58Z"/>
  <path class="cls-1" d="m85.44,445.41c-.24,0-.49-.06-.71-.18-1.94-1.05-19.04-10.51-21.36-18.21-.24-.79.21-1.63,1-1.87.79-.24,1.63.21,1.87,1,1.66,5.53,14.94,13.74,19.91,16.44.73.39,1,1.31.6,2.03-.27.5-.79.79-1.32.79Z"/>
  <path class="cls-1" d="m267.28,447.29c-8.68,0-13.12-.58-14.29-2.86-.38-.74-.09-1.64.64-2.02.72-.38,1.62-.1,2.01.62,1.34,1.53,12.44,1.3,19.08,1.17,3.65-.08,7.1-.15,9.95-.06,11.6.34,22.03-.14,24.23-1.1.46-2.09-3.9-11.94-6.7-14.13-1.88-1.47-11.82-2.47-18.28-2.71-.83-.03-1.47-.73-1.44-1.55.03-.83.73-1.46,1.55-1.44,2.76.1,16.68.74,20.01,3.34,3,2.35,8.12,12.49,7.84,16.59-.09,1.41-.76,2.09-1.29,2.4-3.64,2.14-22.31,1.71-26.01,1.6-2.77-.08-6.18-.01-9.8.06-2.79.06-5.28.09-7.49.09Zm-11.63-4.23h0Zm-.02-.04h0Z"/>
  <path class="cls-1" d="m269.08,447.3c-.59,0-1.15-.35-1.39-.93-.31-.77.05-1.64.82-1.96,16.08-6.59,18.48-19.18,18.57-19.71.14-.82.92-1.37,1.74-1.21.82.14,1.36.92,1.21,1.74-.11.6-2.8,14.75-20.39,21.96-.19.08-.38.11-.57.11Z"/>
  <path class="cls-1" d="m284.94,446.32c-.4,0-.8-.16-1.09-.47-.57-.6-.54-1.55.07-2.12.12-.11,11.62-10.98,13.74-17.66.25-.79,1.09-1.23,1.88-.97.79.25,1.23,1.09.97,1.88-2.36,7.42-14.05,18.47-14.55,18.94-.29.27-.66.41-1.03.41Z"/>
  <path class="cls-1" d="m298.02,446.32c-.41,0-.82-.17-1.11-.49-.56-.61-.51-1.56.11-2.12.06-.06,6.48-5.91,8.15-10.91.26-.79,1.11-1.21,1.9-.95.79.26,1.21,1.11.95,1.9-1.92,5.76-8.7,11.93-8.98,12.19s-.65.39-1,.39Z"/>
  <path class="cls-1" d="m545.92,203.91c-2.2,0-4.88-.81-6.22-1.97-.93-.81-1.1-1.65-1.08-2.21.04-.98.49-2.6,1-4.47.38-1.37.81-2.93.89-3.68.11-1.06-1.13-3.04-3.02-3.51-.63-.16-1.5-.59-2.08-1.79-1.49-3.05-.16-9.5,1.85-14.03.33-.76,1.22-1.1,1.98-.76.76.33,1.1,1.22.76,1.98-2.47,5.57-2.62,11.07-1.76,11.71,3.32.82,5.52,4.24,5.25,6.73-.11.99-.53,2.53-.98,4.15-.35,1.28-.78,2.84-.88,3.59.61.61,3.28,1.52,5.03,1.19,1.16-.21,2.32-1.27,2.54-2.04.06-.22.02-.26-.04-.32-.61-.56-.65-1.51-.08-2.12.56-.61,1.51-.64,2.12-.08.93.86,1.26,2.08.89,3.36-.56,1.93-2.7,3.75-4.88,4.15-.4.07-.83.11-1.28.11Z"/>
  <path class="cls-1" d="m554.21,217.32c-3.38,0-5.49-2.4-6.12-3.92-.21-.2-.89-.55-1.3-.77-.97-.5-1.89-.98-2.4-1.76-.28-.43-.47-.93-.03-2.22l-.61-.03c-.53-.02-1-.32-1.25-.79-.17-.31-1.62-3.11-.98-5.77.19-.81,1-1.31,1.81-1.11.81.19,1.3,1,1.11,1.81-.22.94.08,2.11.38,2.92l1.87.09c.51.02.97.3,1.23.74.26.44.27.98.04,1.43-.27.53-.53,1.12-.69,1.54.28.16.65.36.91.49,1.12.58,2.28,1.18,2.69,2.28.01.03,1.35,2.93,4.9,1.82,3.88-1.21,12.12-6.84,14.23-9.71,1.54-2.09.74-6.16.3-7.55-.25-.79.19-1.63.98-1.88.79-.25,1.63.19,1.88.97.08.26,2.02,6.48-.74,10.23-2.51,3.42-11.2,9.37-15.76,10.79-.88.27-1.69.39-2.44.39Z"/>
  <path class="cls-1" d="m573.67,198.38c-.49,0-.98-.24-1.26-.69-.45-.7-.24-1.62.46-2.07.05-.03,5.21-3.45,6.07-9.96.4-2.98-1.42-3.99-2.53-4.33-2.05-.62-4.95.09-6.05,2.34-.37.74-1.27,1.04-2.01.68-.74-.37-1.05-1.27-.68-2.01,1.83-3.7,6.32-4.88,9.62-3.88,3.35,1.02,5.12,3.93,4.63,7.59-1.05,7.93-7.17,11.93-7.43,12.1-.25.16-.53.24-.81.24Z"/>
  <path class="cls-1" d="m572.95,191.84c-.1,0-.21-.01-.31-.04-.81-.18-1.32-.94-1.15-1.74.36-1.56-.04-1.83-.6-2.03-.78-.28-1.18-1.14-.9-1.92s1.14-1.18,1.92-.9c1.05.38,3.39,1.66,2.53,5.42-.16.7-.79,1.21-1.49,1.21Z"/>
  <path class="cls-1" d="m546.4,185.76c-1.42,0-3.27-.18-4.51-.99-.69-.45-.89-1.38-.44-2.08s1.38-.89,2.08-.44c.85.55,3.12.58,4.46.42.82-.1,1.57.49,1.67,1.31.1.82-.49,1.57-1.31,1.67-.28.03-1.02.11-1.95.11Z"/>
  <path class="cls-1" d="m553.29,186.24s-3.76-.04-7.67-3.49c-.62-.55-.68-1.5-.13-2.12.55-.62,1.49-.68,2.12-.13,2.96,2.61,5.67,2.74,5.7,2.74.82.02,1.49.7,1.48,1.52,0,.82-.67,1.48-1.49,1.48Z"/>
  <path class="cls-1" d="m555.27,190.88c-.28,0-.56-.08-.81-.24-2.33-1.5-5.48-1.24-8.26-.79-.82.14-1.59-.42-1.72-1.24s.42-1.59,1.24-1.72c3.34-.54,7.18-.82,10.36,1.22.7.45.9,1.38.45,2.07-.29.45-.77.69-1.26.69Z"/>
  <path class="cls-1" d="m550.93,192.44c-.12,0-.25-.02-.37-.05-.27-.07-2.65-.74-4.06-3.12-.42-.71-.19-1.63.52-2.06.71-.42,1.63-.19,2.06.52.79,1.33,2.23,1.75,2.25,1.75.79.22,1.27,1.04,1.05,1.84-.18.67-.78,1.11-1.44,1.11Z"/>
  <path class="cls-1" d="m546.32,208.75c-.61,0-1.19-.38-1.41-.99-.28-.78.12-1.64.89-1.92,4.01-1.47,7.75-.42,7.9-.38.8.23,1.26,1.06,1.03,1.86-.23.8-1.07,1.25-1.86,1.03-.02,0-2.98-.81-6.04.31-.17.06-.34.09-.51.09Z"/>
  <path class="cls-1" d="m572.4,220.92c-.61,0-1.18-.37-1.41-.97-.02-.04-1.83-4.71-6.35-7.82-.68-.47-.85-1.4-.38-2.09.47-.68,1.4-.85,2.09-.38,5.32,3.66,7.37,9.01,7.46,9.24.29.78-.1,1.64-.88,1.93-.17.06-.35.09-.53.09Z"/>
  <path class="cls-1" d="m536.03,181.1c-.41,0-.81-.16-1.11-.49-3.85-4.2-3.7-8.7-1.93-11.11,1.38-1.88,3.66-2.44,5.82-1.43.75.35,1.07,1.25.72,2-.35.75-1.25,1.07-2,.72-1.08-.51-1.75-.01-2.12.49-.89,1.21-1.17,4.16,1.73,7.31.56.61.52,1.56-.09,2.12-.29.26-.65.39-1.01.39Z"/>
  <path class="cls-1" d="m594.76,191.89s-.09,0-.14,0c-11.62-1.05-13.04-5.29-13.21-6.13l2.94-.58h0s.81,1.92,6.16,3.08c-2.44-3.8-4.72-10.26-7.5-18.61-1.53-4.58-2.97-8.91-4.27-11.64-3.32-6.95-12.08-8.99-26.05-6.06-12.24,2.57-16.04,9.34-16.42,11.5-.21,1.26.31,2.23,1.57,3.88.47-.9,1.11-1.43,1.68-1.74,1.91-1.02,4.57-.47,7.71,1.61,3.16,2.09,5.19,6.95,6.26,10.3.74-2.05,1.09-5.3-.87-9.75-.33-.76,0-1.64.77-1.98.76-.33,1.64.01,1.98.77,4.46,10.14-1.14,15.55-1.39,15.78-.39.37-.96.5-1.47.34-.52-.16-.91-.58-1.02-1.11-.56-2.58-2.72-9.74-5.92-11.85-2.44-1.61-3.99-1.81-4.64-1.47-.52.28-.82,1.21-.82,2.56,0,.64-.41,1.22-1.02,1.42-.61.21-1.29,0-1.67-.52-.39-.52-.77-1-1.12-1.45-1.95-2.47-3.48-4.43-2.99-7.3.49-2.88,4.82-11.01,18.75-13.93,15.5-3.25,25.38-.66,29.37,7.7,1.38,2.89,2.85,7.3,4.41,11.98,2.69,8.07,6.38,19.12,9.44,20.29.7.27,1.09,1.01.92,1.74-.16.68-.77,1.16-1.46,1.16Z"/>
  <path class="cls-1" d="m558.88,162.62c-.5,0-.98-.25-1.27-.7-4.01-6.31-13.12-5.81-16.89-4.17-.76.33-1.64-.02-1.98-.77-.33-.76.02-1.64.77-1.98,5.66-2.47,15.98-2,20.62,5.31.44.7.24,1.63-.46,2.07-.25.16-.53.23-.8.23Z"/>
  <path class="cls-1" d="m559.78,187.41c-.18,0-.36-.03-.54-.1-.68-.26-1.08-.97-.94-1.68.02-.09,1.68-9.34-4.19-14.26-.63-.53-.72-1.48-.19-2.11.53-.63,1.48-.72,2.11-.19,3.68,3.08,4.99,7.33,5.37,10.83.78-1.58.99-2.27,1.05-2.53-.08-.4,0-.83.27-1.18.5-.66,1.44-.8,2.1-.3,1.09.82,1.46,2.07-3.76,10.8-.28.46-.77.73-1.29.73Zm3.25-9.13h0,0Zm0,0s0,0,0,0c0,0,0,0,0,0Zm-.22-.21c.06.07.14.14.22.21-.08-.06-.16-.13-.22-.21Z"/>
  <path class="cls-1" d="m565.17,188.77c-.19,0-.37-.03-.55-.11-.63-.25-1.01-.89-.94-1.56,0-.08.83-8.31-4.4-18.89-.37-.74-.06-1.64.68-2.01.74-.37,1.64-.06,2.01.68,3.24,6.55,4.32,12.23,4.64,15.95l1.18-1.58c.5-.67,1.43-.8,2.1-.3.66.5.8,1.44.3,2.1l-3.83,5.12c-.29.39-.74.6-1.2.6Z"/>
  <path class="cls-1" d="m573.8,181.1c-.07,0-.15,0-.22-.02-.82-.12-1.39-.88-1.27-1.7.77-5.27-1.29-10.37-1.31-10.42-.31-.77.05-1.64.82-1.96.77-.31,1.64.05,1.96.81.1.24,2.4,5.89,1.5,12-.11.75-.75,1.28-1.48,1.28Z"/>
  <path class="cls-1" d="m576.65,167.88c-.66,0-1.26-.44-1.45-1.11-2.22-8.17-6.61-12.66-15.64-16.05-.78-.29-1.17-1.15-.88-1.93.29-.78,1.15-1.17,1.93-.88,9.93,3.72,15,8.96,17.48,18.07.22.8-.25,1.62-1.05,1.84-.13.04-.26.05-.39.05Z"/>
  <path class="cls-1" d="m533.31,176.57c-.44,0-.88-.19-1.17-.56-4.46-5.58-3.98-10.66-2.22-13.32,1.2-1.8,3.03-2.6,4.78-2.11.8.23,1.26,1.06,1.03,1.85-.23.8-1.06,1.25-1.85,1.03-.45-.13-1.01.22-1.45.88-.97,1.46-1.63,5.16,2.06,9.78.52.65.41,1.59-.24,2.11-.28.22-.61.33-.94.33Z"/>
  <path class="cls-1" d="m573.52,220.96c-5.24,0-10.39-2.25-14-6.17-.56-.61-.52-1.56.09-2.12.61-.56,1.56-.52,2.12.09,3.29,3.58,8.13,5.51,12.91,5.16,4.22-.31,7.79-2.32,10.05-5.66,4.6-6.8,4.94-14.8,4.94-16.95l-4.89-4.86c-.59-.58-.59-1.53,0-2.12.59-.59,1.53-.59,2.12,0l5.32,5.29c.26.26.42.61.44.99.02.43.48,10.6-5.45,19.35-2.79,4.12-7.16,6.59-12.31,6.97-.45.03-.9.05-1.35.05Z"/>
  <path class="cls-1" d="m573.83,228.58c-2.67,0-5.5-.39-8.34-1.18-6.48-1.8-11.54-5.3-13.54-9.36-.37-.74-.06-1.64.68-2.01.74-.37,1.64-.06,2.01.68,1.6,3.25,6.07,6.24,11.65,7.79,6.37,1.77,12.79,1.29,16.75-1.25,8.25-5.31,13.55-18.22,15.04-26.67l-7.05-.42c-.83-.05-1.46-.76-1.41-1.59.05-.83.71-1.46,1.59-1.41l8.7.52c.41.02.8.22,1.06.54.27.32.39.73.33,1.15-1.32,10.4-7.6,24.59-16.64,30.4-2.88,1.85-6.67,2.8-10.84,2.8Z"/>
  <path class="cls-1" d="m581,245.98c-.63,0-1.22-.4-1.42-1.03l-5.71-17.41c-.26-.79.17-1.63.96-1.89.79-.26,1.64.17,1.89.96l5.27,16.07,5.2-1.35-7.68-23.22c-.26-.79.17-1.64.95-1.9.79-.26,1.64.17,1.9.95l8.19,24.74c.13.39.09.82-.11,1.19s-.54.63-.94.74l-8.11,2.11c-.13.03-.25.05-.38.05Z"/>
  <path class="cls-1" d="m482.88,254.12c-.11,0-.21-.01-.32-.03-5.99-1.31-12.78-2.72-13.93-2.84-5.11.74-20.47-5.82-21.35-6.45-.61-.43-2.1-2.12-7.42-8.93l-.35-.45c-1.61-2.06-.12-5.63,4.42-10.63.15-.17.34-.3.55-.38,4.44-1.8,17.09-2.4,19.15-2.18,2.41.26,4.35,2.85,4.56,3.14.32.44.37,1.01.15,1.5-.22.49-.69.82-1.23.87-1.88.17-3.87.52-4.81.83.35,1.65,1.27,4.77,1.9,5.64,1.59.17,7.2.94,8.48,3.66,1.17,2.51-.7,6.12-1.09,6.81-.4.72-1.32.98-2.04.58-.72-.4-.99-1.32-.58-2.04.66-1.19,1.37-3.28.99-4.09-.34-.74-3.61-1.75-6.35-1.98-3.08-.25-4.41-8.92-4.42-9-.05-.5.1-.99.43-1.39.53-.65,1.79-1.17,3.77-1.55-.02,0-.05,0-.07-.01-1.72-.18-13.31.41-17.4,1.86-3.42,3.82-4.19,6.04-4.02,6.53l.34.42c5.2,6.66,6.5,8.09,6.82,8.35,1.27.77,15.63,6.56,19.21,5.89.34-.07.93-.17,14.94,2.89.81.18,1.32.98,1.15,1.79-.15.7-.77,1.18-1.46,1.18Zm-14.08-2.91s0,0,0,0c0,0,0,0,0,0Z"/>
  <path class="cls-1" d="m483.05,245.12c-.17,0-.34-.03-.51-.09l-10.58-3.83c-.78-.28-1.18-1.14-.9-1.92s1.14-1.18,1.92-.9l10.58,3.83c.78.28,1.18,1.14.9,1.92-.22.61-.8.99-1.41.99Z"/>
  <path class="cls-1" d="m479.58,265.44c-.17,0-.34-.02-.51-.06-2.04-.5-3.28-3.68-5.47-11.11-.35-1.18-.65-2.21-.89-2.92-.27-.78.15-1.64.93-1.9.78-.27,1.64.15,1.9.93.26.77.57,1.83.93,3.04.64,2.17,2.02,6.85,3.04,8.56,1.55-2.81,3-11.52,2.05-18.15-.12-.82.45-1.58,1.27-1.7.81-.11,1.58.45,1.7,1.27,1.08,7.54-.62,18.48-3.29,21.28-.47.49-1.06.75-1.67.75Z"/>
  <path class="cls-1" d="m548.09,258.63c-.31,0-.62-.09-.89-.29-.67-.49-.81-1.43-.32-2.1,2.79-3.8,3.25-4.8,3.33-5.05.03-.16.09-.3.18-.44l3.41-5.71c.43-.71,1.35-.94,2.06-.52.71.42.94,1.35.52,2.06l-3.31,5.54c-.27.86-1.12,2.3-3.76,5.9-.29.4-.75.61-1.21.61Z"/>
  <path class="cls-1" d="m536.27,273.71c-2.09,0-5.42-1-10.76-2.75-2.87-.94-5.84-1.91-7.4-2.13-4.74-.66-16.22-3.52-19.09-4.48-.7-.23-3.02.18-5.06.55-4.1.74-9.71,1.75-14.75.49-.8-.2-1.29-1.01-1.09-1.82.2-.8,1.01-1.29,1.82-1.09,4.42,1.1,9.45.2,13.49-.53,2.96-.53,5.11-.92,6.54-.44,2.71.91,14.05,3.72,18.55,4.35,1.83.25,4.79,1.22,7.92,2.25,3.18,1.04,8.39,2.75,9.96,2.61.38-.82,1.29-2.23,3.67-5.43.5-.67,1.44-.8,2.1-.31.67.49.8,1.43.31,2.1-2.73,3.67-3.3,4.71-3.4,5-.17.55-.57,1.01-1.11,1.29-.45.23-1.01.34-1.71.34Z"/>
  <path class="cls-1" d="m525.6,249.81c-.47,0-.93-.22-1.22-.63-.7-.99-2.72-3.73-3.69-4.6-1.07-.81-9.41-2.86-16.91-2.22-.83.05-1.55-.54-1.62-1.37-.07-.83.54-1.55,1.37-1.62,7.72-.65,17.41,1.39,19.17,2.98,1.38,1.24,3.85,4.7,4.13,5.09.48.68.32,1.61-.36,2.09-.26.19-.57.28-.87.28Z"/>
  <path class="cls-1" d="m534.13,253.55c-.6,0-1.16-.36-1.4-.95-1.66-4.23-4.68-6.09-9.47-5.88-.83.04-1.53-.6-1.57-1.43-.04-.83.6-1.53,1.43-1.57,6.08-.28,10.26,2.34,12.4,7.78.3.77-.08,1.64-.85,1.94-.18.07-.37.1-.55.1Z"/>
  <path class="cls-1" d="m540.12,257.69c-.58,0-1.14-.34-1.38-.91-.02-.05-2.21-4.99-7.2-7.42-.74-.36-1.05-1.26-.69-2.01.36-.74,1.26-1.05,2.01-.69,6.01,2.94,8.53,8.69,8.64,8.93.33.76-.03,1.64-.79,1.97-.19.08-.39.12-.59.12Z"/>
  <path class="cls-1" d="m527.4,245.98c-.27,0-.54-.07-.78-.22-.71-.43-.93-1.36-.49-2.06,2.34-3.81,2.44-10.57,2.5-15.04,0-.57.02-1.11.03-1.61.09-4.13,2.89-12.89,6.91-16.67,1.47-1.39,3.03-2.06,4.62-2.01l5.52.19c.83.03,1.48.72,1.45,1.55-.03.83-.75,1.49-1.55,1.45l-5.52-.19c-.77-.04-1.58.38-2.45,1.19-3.29,3.1-5.89,10.97-5.97,14.56-.01.5-.02,1.03-.03,1.59-.07,5.09-.17,12.06-2.94,16.57-.28.46-.78.71-1.28.71Z"/>
  <path class="cls-1" d="m563.1,256.13c-.1,0-.2,0-.3-.03-2.99-.62-5.3-4.25-7.75-8.09-1.89-2.96-3.84-6.03-5.94-7.49-5.02-3.48-11.89-8.26-15.68-15.28-.39-.73-.12-1.64.61-2.03.73-.39,1.64-.12,2.03.61,3.45,6.4,9.98,10.93,14.75,14.24,2.6,1.81,4.72,5.13,6.76,8.35,1.91,3,4.07,6.4,5.82,6.76.81.17,1.33.96,1.17,1.77-.15.71-.77,1.2-1.47,1.2Z"/>
  <path class="cls-1" d="m548.24,243.01c-2.73,0-6.4-.46-9.05-2.55-.65-.51-.76-1.46-.25-2.11.51-.65,1.46-.76,2.11-.25,3.57,2.82,10.3,1.68,10.36,1.67.81-.13,1.59.4,1.74,1.22.14.82-.4,1.59-1.21,1.74-.14.03-1.65.28-3.69.28Z"/>
  <path class="cls-1" d="m560.63,262.88s-.05,0-.08,0c-.83-.04-1.46-.75-1.42-1.58.04-.82-1-2.97-1.92-4.86-1.26-2.59-2.68-5.52-3.4-8.58-.19-.81.31-1.61,1.12-1.8.81-.19,1.62.31,1.8,1.12.64,2.73,1.99,5.5,3.18,7.95,1.28,2.64,2.3,4.73,2.21,6.32-.04.8-.7,1.42-1.5,1.42Z"/>
  <path class="cls-1" d="m598.66,261.35c-.49,0-1-.01-1.5-.04-.83-.04-1.47-.74-1.43-1.57s.76-1.45,1.57-1.43c12.95.64,20.46-7.78,22.38-13.58,2.42-7.3,8.99-14.43,12.89-17.16.68-.48,1.62-.31,2.09.37.48.68.31,1.61-.37,2.09-3.46,2.42-9.59,9.07-11.77,15.65-2.13,6.44-10.2,15.68-23.87,15.68Z"/>
  <path class="cls-1" d="m626.04,238.84c-.62,0-1.21-.39-1.42-1.01-.27-.78.15-1.64.93-1.91,5.39-1.85,11.42-4.64,13.45-6.22.65-.51,1.59-.39,2.1.26.51.65.39,1.6-.26,2.1-2.65,2.06-9.35,4.99-14.32,6.69-.16.05-.33.08-.49.08Z"/>
  <path class="cls-1" d="m643.82,258.85c-.19,0-.38-.04-.57-.11-.16-.06-3.85-1.59-5.75-3.75-1.44-1.64-10.06-7.72-16.28-10.11-.77-.3-1.16-1.17-.86-1.94.3-.77,1.17-1.16,1.94-.86,6.49,2.5,15.56,8.78,17.45,10.93,1.19,1.36,3.75,2.59,4.63,2.95.77.31,1.14,1.19.82,1.96-.24.58-.8.93-1.39.93Z"/>
  <path class="cls-1" d="m646.67,241.07c-.21,0-.42-.04-.62-.13-.75-.34-1.09-1.23-.75-1.99.02-.04,1.93-4.27,3.56-9.68,1.45-4.78-5.12-20.05-7.56-22.02-2.41-1.96-11.97-5.4-17.36-5.9-2.13-.2-4.32-.94-6.87-1.81-4.4-1.49-9.87-3.36-17.16-2.86-.81.04-1.54-.57-1.6-1.4-.05-.83.57-1.54,1.4-1.6,7.88-.53,13.68,1.44,18.33,3.02,2.36.8,4.4,1.49,6.18,1.66,5.63.52,15.91,4.08,18.97,6.55,2.92,2.37,10.46,18.86,8.54,25.22-1.7,5.61-3.62,9.87-3.7,10.05-.25.55-.8.88-1.37.88Z"/>
  <path class="cls-1" d="m661.6,244.45c-.36,0-.72-.13-1.01-.39-.61-.56-.66-1.51-.1-2.12.53-.83.02-5.37-.59-7.41-.25-.85-1.74-2.9-3.89-4.54-1.1-.84-1.84-2.29-2.77-4.13-1.32-2.61-2.96-5.85-6.12-7.94-.69-.46-.88-1.39-.43-2.08.46-.69,1.39-.88,2.08-.43,3.83,2.53,5.75,6.32,7.15,9.09.7,1.38,1.35,2.68,1.91,3.1,2.35,1.8,4.43,4.35,4.94,6.07.02.08,2.1,7.89-.07,10.28-.3.33-.7.49-1.11.49Z"/>
  <path class="cls-1" d="m652.12,255.51c-.43,0-.85-.18-1.15-.54-.53-.63-.45-1.58.18-2.11,7.48-6.28,11.05-6.45,13.55-5.78.8.21,1.28,1.04,1.06,1.83-.21.8-1.04,1.28-1.83,1.06-.97-.26-3.56-.95-10.85,5.18-.28.24-.62.35-.96.35Z"/>
  <path class="cls-1" d="m654.2,270.66c-.66,0-1.26-.43-1.44-1.09-.22-.8.24-1.62,1.04-1.85.07-.02,7.31-2.06,11.89-4.43,3.9-2.01,3.97-7.01,3.4-9.64-1.06-4.87-3.64-9.11-7.9-12.96-.61-.56-.66-1.5-.11-2.12.56-.62,1.5-.66,2.12-.11,4.67,4.23,7.64,9.12,8.82,14.55.75,3.47.56,10.09-4.96,12.94-4.86,2.51-12.15,4.57-12.46,4.65-.14.04-.27.06-.41.06Z"/>
  <path class="cls-1" d="m641.34,299.68c-1.74,0-3.01-.41-3.1-.44-.79-.26-1.21-1.11-.95-1.9.26-.79,1.11-1.21,1.9-.95.02,0,2.79.87,5.27-.44,1.68-.89,2.9-2.6,3.64-5.09,1.16-3.91-.25-6.84-1.64-8.61-2.74-3.5-7.81-5.59-12.94-5.36-.6.03-1.17-.31-1.43-.87-.26-.55-.16-1.2.26-1.65,2.6-2.81,5.6-6.32,6.1-7.3,0-.22-.03-.64-.05-.99-.16-2.78-.46-7.95,2.51-9.97.69-.47,1.62-.29,2.08.39.47.68.29,1.62-.39,2.08-1.57,1.07-1.31,5.45-1.2,7.32.04.74.07,1.24.03,1.6-.04.4-.15,1.37-4.7,6.5,4.89.57,9.34,2.88,12.1,6.39,2.58,3.29,3.34,7.3,2.16,11.31-.98,3.31-2.71,5.64-5.15,6.91-1.56.81-3.15,1.05-4.47,1.05Z"/>
  <path class="cls-1" d="m629.28,305.99c-3.61,0-15.6-5.05-15.73-5.11-1.83-.91-6.04-5.07-6.65-6.82-.18-.51-.13-1.06.15-1.54.66-1.17,3.26-2.28,7.75-3.3l4.1-4.51c-.65-.12-1.61-.26-3.02-.35-.55-.04-1.03-.37-1.26-.87-.23-.5-.17-1.08.16-1.52,2.94-3.97,6.71-4.67,9.04-4.06.94.24,5.58.09,9.51-.19.81-.07,1.54.56,1.61,1.39s-.56,1.54-1.39,1.61c-1.42.1-8.58.59-10.48.1-.97-.25-2.38-.08-3.83.91,2.24.4,2.94.99,3.3,1.58.3.5.35,1.09.13,1.59-.06.15-.15.29-.26.41l-5.71,6.29c-.21.23-.49.39-.79.46-2.26.49-4.59,1.2-5.72,1.72,1.07,1.37,3.64,3.9,4.71,4.43,1.74.87,11.85,4.57,14,4.86,1.73-1.11,9.53-6.77,10.3-7.56.51-.62,5.53-8.17,8.56-12.77.46-.69,1.39-.88,2.08-.43.69.46.88,1.39.43,2.08-1.34,2.03-8.06,12.21-8.8,13.08-.97,1.14-10.58,7.96-11.41,8.4-.17.09-.44.14-.77.14Z"/>
  <path class="cls-1" d="m629.67,280.7c-.12,0-.25-.02-.38-.05-.8-.21-1.28-1.02-1.08-1.82.47-1.83,2.09-4.94,5.22-4.94.83,0,1.5.67,1.5,1.5s-.67,1.5-1.5,1.5c-1.56,0-2.3,2.66-2.31,2.69-.18.67-.79,1.12-1.45,1.12Z"/>
  <path class="cls-1" d="m647.47,296.87c-.38,0-.75-.14-1.04-.42-.6-.57-.61-1.52-.04-2.12,2.62-2.72,4.77-4.81,6.5-6.5,3.94-3.84,5.57-5.43,5.86-7.52.44-3.13,2.92-5.97,4.57-7.85.52-.6,1.02-1.17,1.22-1.49.44-.71.71-3.94.68-6.52,0-.83.66-1.51,1.48-1.52h.02c.82,0,1.49.66,1.5,1.48.02,1.46-.02,6.35-1.14,8.14-.33.53-.85,1.12-1.51,1.88-1.5,1.71-3.54,4.05-3.86,6.3-.44,3.11-2.41,5.04-6.74,9.25-1.71,1.67-3.84,3.75-6.43,6.43-.29.31-.69.46-1.08.46Z"/>
  <path class="cls-1" d="m622.47,280.71c-.17,0-.33-.03-.5-.08-.78-.27-1.19-1.13-.92-1.91.39-1.12,1.46-4.19,1.66-4.9.39-1.36,3.5-5.91,5.88-8.36,2.13-2.19,2.02-11.51,1.98-15.02,0-.83.65-1.51,1.48-1.52h.02c.82,0,1.49.66,1.5,1.48.08,6.81-.06,14.31-2.83,17.15-2.39,2.45-4.92,6.44-5.15,7.11-.26.9-1.56,4.62-1.71,5.04-.22.62-.8,1-1.42,1Z"/>
  <path class="cls-1" d="m617.21,268.39c-.37,0-.75-.14-1.04-.42-.6-.57-.62-1.52-.04-2.12,4.14-4.32,5.68-15.97,4.87-20.15-.16-.81.37-1.6,1.19-1.76.81-.16,1.6.37,1.76,1.19.96,4.94-.72,17.67-5.65,22.8-.29.31-.69.46-1.08.46Z"/>
  <path class="cls-1" d="m609.27,279.8c-.75,0-1.51-.03-2.26-.1h-.17c-.41,0-.81-.14-1.12-.44-.59-.58-.6-1.53-.02-2.12.51-.52,1.1-.47,1.58-.42,6.4.58,12.38-1.52,17.27-6.06.61-.56,1.56-.53,2.12.08.56.61.53,1.56-.08,2.12-4.88,4.53-10.96,6.95-17.32,6.95Z"/>
  <path class="cls-1" d="m579.11,269.36c-1.12,0-2.24-.03-3.32-.1-.83-.05-1.45-.77-1.4-1.59.05-.83.78-1.46,1.59-1.4,8.69.56,19.28-1.46,24.37-2.44,3.66-.7,3.96-.76,4.6.04.52.64.42,1.59-.22,2.11-.33.27-.74.37-1.15.32-.41.05-1.56.27-2.67.48-4.58.88-13.53,2.59-21.8,2.59Zm23.51-3.6h0s0,0,0,0Zm0,0h0Zm0,0h0s0,0,0,0Z"/>
  <path class="cls-1" d="m601.54,238.84c-.5,0-.99-.25-1.27-.71-.44-.7-.22-1.63.48-2.07,11.29-7.03,15.65-18.56,16.11-19.86l1.43.46,1.4.53c-.81,2.29-5.44,14-17.35,21.41-.25.15-.52.23-.79.23Z"/>
  <path class="cls-1" d="m625.56,211.35c-.43,0-.85-.18-1.15-.53-.29-.34-.4-.77-.34-1.18-.17-1.04-1.68-5.87-4.11-8.7-.54-.63-.47-1.58.16-2.12.63-.54,1.57-.47,2.12.16,2.97,3.45,4.96,9.51,4.84,10.91-.03.4-.25.85-.55,1.11-.28.24-.62.35-.97.35Zm-1.47-1.6h0,0Zm.5-1.04h0s0,0,0,0Z"/>
  <path class="cls-1" d="m581.45,210.51c-.7,0-1.33-.5-1.47-1.21,0-.05-.97-4.87-2.27-8.48-.28-.78.12-1.64.9-1.92.78-.28,1.64.12,1.92.9,1.39,3.83,2.36,8.71,2.4,8.92.16.81-.37,1.6-1.18,1.76-.1.02-.2.03-.29.03Z"/>
  <path class="cls-1" d="m490.22,265.51c-.25,0-.51-.06-.75-.2-.72-.41-.96-1.33-.55-2.05,3.3-5.73,3.03-12.42,2.58-15.9-.11-.82.47-1.57,1.29-1.68.82-.12,1.57.47,1.68,1.29.5,3.86.79,11.3-2.96,17.79-.28.48-.78.75-1.3.75Z"/>
  <path class="cls-1" d="m475.12,242.25c-.51,0-1-.26-1.28-.72-.43-.71-.21-1.63.5-2.06,1.84-1.12,1.9-2.16,1.92-2.5.11-2.06-2.2-4.93-6.88-8.54-.66-.51-.78-1.45-.27-2.1.51-.66,1.45-.78,2.1-.27,3.56,2.75,8.27,6.89,8.04,11.08-.11,1.96-1.24,3.61-3.36,4.9-.24.15-.51.22-.78.22Z"/>
  <path class="cls-1" d="m631.31,340.84c-.11,0-.21-.01-.32-.03-.81-.18-1.32-.97-1.15-1.78.05-.21,4.5-21.31-2.9-31.16-2.27-3.02-5.36-4.62-9.44-4.89-.47-.03-.94-.05-1.4-.05-12.31,0-21.75,11.05-30.11,20.84-5.2,6.08-9.68,11.33-14.32,13.35-1.11.48-2.3.71-3.55.71-9.38,0-22.37-12.63-33.99-23.94-4.96-4.83-9.65-9.39-13.48-12.39-.36-.28-.57-.72-.57-1.18s.21-.89.57-1.18c18.59-14.78,34.36-18.87,35.03-19.04.81-.2,1.62.29,1.82,1.09.2.8-.28,1.62-1.09,1.82-.15.04-15,3.91-32.42,17.32,3.64,3.03,7.83,7.11,12.24,11.4,11.88,11.55,26.65,25.93,34.25,22.63,4-1.74,8.49-6.99,13.23-12.55,8.68-10.17,19.5-22.79,33.99-21.84,4.93.33,8.85,2.38,11.63,6.08,8.23,10.95,3.63,32.67,3.43,33.59-.15.7-.77,1.18-1.46,1.18Z"/>
  <path class="cls-1" d="m570,328.87c-.17,0-.35-.03-.53-.09-1.04-.39-25.59-9.7-35.86-25.5-.45-.69-.25-1.62.44-2.08.69-.45,1.62-.25,2.08.44,9.73,14.97,34.15,24.24,34.4,24.33.78.29,1.17,1.15.88,1.93-.23.6-.8.97-1.41.97Z"/>
  <path class="cls-1" d="m569.03,317.29c-.17,0-.35-.03-.52-.09-.27-.1-27.32-10.43-23.24-32.29.15-.81.93-1.35,1.75-1.2.81.15,1.35.94,1.2,1.75-3.61,19.37,21.09,28.83,21.34,28.93.78.29,1.17,1.15.88,1.93-.22.6-.8.98-1.41.98Z"/>
  <path class="cls-1" d="m579.15,316.41c-.33,0-.66-.11-.94-.33-.65-.52-.75-1.46-.23-2.11,10.81-13.49,23.47-16.47,24.01-16.59.81-.18,1.61.33,1.79,1.13.18.81-.33,1.61-1.13,1.79-.12.03-12.2,2.9-22.32,15.54-.3.37-.73.56-1.17.56Z"/>
  <path class="cls-1" d="m565.71,286.68c-2.46,0-5.04-.31-7.21-1.25-5.72-2.48-4.59-6.73-3.67-10.14.25-.93.51-1.89.65-2.82.12-.82.88-1.39,1.71-1.26.82.12,1.38.89,1.26,1.71-.16,1.1-.44,2.14-.71,3.15-.98,3.67-1.25,5.21,1.97,6.61,5.3,2.3,14.31-.05,14.4-.07.8-.21,1.62.27,1.83,1.07.21.8-.26,1.62-1.07,1.83-.27.07-4.51,1.17-9.15,1.17Z"/>
  <path class="cls-1" d="m583.44,299.83c-7.21,0-11.78-5.04-16.22-9.94-1.11-1.22-2.25-2.48-3.42-3.65-.59-.59-.59-1.54,0-2.12s1.54-.59,2.12,0c1.23,1.23,2.39,2.51,3.52,3.76,4.77,5.27,8.9,9.82,15.92,8.81,8.56-1.22,10.57-4.07,10.59-4.09.45-.67,1.37-.88,2.06-.45.69.43.92,1.31.5,2.01-.24.41-2.67,4.07-12.73,5.5-.81.12-1.59.17-2.34.17Z"/>
  <path class="cls-1" d="m599.7,296.97c-1.51,0-3.11-.08-4.73-.3-.82-.11-1.4-.87-1.29-1.69.11-.82.87-1.41,1.69-1.29,6.66.89,13.04-.69,13.1-.71.81-.2,1.62.28,1.82,1.09.2.8-.28,1.62-1.08,1.82-.22.06-4.3,1.07-9.51,1.07Z"/>
  <path class="cls-1" d="m501.97,334.71c-.16,0-.32-.03-.48-.08-.79-.26-1.21-1.11-.94-1.9,1.38-4.11,3.38-11.57,2.87-14.12-.71-3.56,4.97-8.44,13.07-14.94,1.73-1.39,3.22-2.58,4.07-3.38.6-.57,1.55-.53,2.12.07.57.61.53,1.55-.07,2.12-.94.87-2.47,2.1-4.24,3.53-3.39,2.73-12.41,9.97-12,12.02.83,4.17-2.58,14.5-2.97,15.67-.21.63-.79,1.02-1.42,1.02Z"/>
  <path class="cls-1" d="m515.15,348.03c-7,0-14.01-.76-14.13-.77-.82-.09-1.42-.84-1.32-1.66s.84-1.42,1.66-1.32c8.12.92,21.66,1.34,24.94-.66,2.15-1.32,4.85-2.43,7.71-3.61,3-1.24,6.1-2.51,8.64-4.08,4.79-2.95,8.61-7.35,8.65-7.39.54-.62,1.49-.7,2.12-.16.63.54.7,1.49.16,2.11-.17.19-4.15,4.79-9.35,7.99-2.75,1.69-5.96,3.01-9.07,4.3-2.75,1.13-5.34,2.2-7.29,3.39-2.35,1.44-7.53,1.86-12.71,1.86Z"/>
  <path class="cls-1" d="m478.8,353.79s-.06,0-.09,0c-.83-.05-1.46-.76-1.41-1.59.03-.46.71-11.34,2.21-16.04,1.08-3.39,8.84-9.11,18.11-15.69,2.63-1.86,5.11-3.62,5.72-4.24s1.54-.59,2.12,0c.59.58.59,1.54,0,2.12-.75.75-2.71,2.15-6.1,4.56-5.63,4-16.12,11.45-16.99,14.16-1.39,4.34-2.07,15.2-2.07,15.31-.05.8-.71,1.41-1.5,1.41Z"/>
  <path class="cls-1" d="m443.96,412.48c-.06,0-.11,0-.17,0-12.34-1.42-26.49-18.79-27.08-19.53-.49-.6-.43-1.48.12-2.02,6.67-6.48,13.94-13.95,14.57-15.22.7-1.53,2.4-2.34,4.36-3.28,1.83-.87,3.91-1.86,5.69-3.59,1.33-1.29,4.67-3.9,9.29-7.5,8.58-6.69,21.55-16.81,28.74-24.35.57-.6,1.52-.62,2.12-.05.6.57.62,1.52.05,2.12-7.34,7.7-20.42,17.9-29.07,24.64-4.37,3.41-7.83,6.1-9.04,7.28-2.13,2.08-4.55,3.23-6.49,4.15-1.32.63-2.68,1.28-2.92,1.82-.92,2.04-10.12,11.15-14.21,15.15,3.17,3.67,14.29,15.84,23.69,17.32,2.34-1.52,12.94-8.29,22.67-13.03,7.3-3.55,8.81-19.75,9.45-26.67.38-4.06.46-4.9,1.8-5.14.55-.1,1.34.1,1.76.97.28.59.15,1.27-.29,1.71-.09.64-.18,1.7-.28,2.74-.75,8.05-2.3,24.79-11.12,29.09-10.79,5.25-22.68,13.06-22.8,13.14-.25.16-.53.25-.83.25Z"/>
  <path class="cls-1" d="m475.06,385.75c-.83,0-1.5-.67-1.5-1.5s.67-1.5,1.5-1.5c5.8,0,21.04-11.74,22.68-14.65,2.06-3.67,9.45-9.12,13.79-11.66,4.21-2.45,7.92-10.45,7.96-10.53.35-.75,1.24-1.08,1.99-.74.75.35,1.08,1.24.74,1.99-.17.36-4.15,8.94-9.17,11.87-4.75,2.77-11.18,7.86-12.69,10.54-1.82,3.24-17.74,16.18-25.29,16.18Z"/>
  <path class="cls-1" d="m523.77,327.12c-.81,0-1.48-.65-1.5-1.46-.02-.83.64-1.52,1.46-1.54,7.83-.18,17.08-6.19,17.17-6.25.69-.45,1.62-.26,2.08.43.45.69.26,1.62-.43,2.08-.41.27-10.05,6.54-18.75,6.74h-.04Z"/>
  <path class="cls-1" d="m377.39,439.36c-3.54,0-5.99-.13-6.67-.44-.97-.45-2.23-1.58-2.69-4.48-.7-4.4.72-11.35,3.66-14.05h0c3.74-3.44,23.66-6.75,27.61-7.38.51-.08,1.03.11,1.37.5.16.19.27.41.33.64.3.31,1.68,1.43,6.93,3.2,7.79,2.63,17.85-.46,17.95-.5.75-.24,1.56.15,1.85.89,2.21,5.69,5.37,15.54,1.67,17.62-2.92,1.64-37.13,4-52.02,4Zm21.36-23.23c-8.89,1.47-22.74,4.36-25.03,6.46h0c-1.96,1.8-3.33,7.54-2.73,11.37.22,1.41.66,2.08.97,2.22,3.57,1.25,52.27-1.75,56-3.46.77-.91-.4-6.75-2.55-12.64-3.21.82-11.44,2.46-18.44.1-4.35-1.47-7.04-2.78-8.23-4.05Zm-26.04,5.36h0,0Zm28.27-6.56h0s0,0,0,0Zm0,0h0s0,0,0,0Zm0,0h0s0,0,0,0Zm0,0h0Zm0,0h0Z"/>
  <path class="cls-1" d="m401.03,416.86c-.4,0-.8-.16-1.1-.48-.57-.61-.53-1.55.07-2.12l20.54-19.18c.6-.56,1.55-.53,2.12.07.57.61.53,1.55-.07,2.12l-20.54,19.18c-.29.27-.66.4-1.02.4Z"/>
  <path class="cls-1" d="m426.53,419c-.39,0-.79-.16-1.08-.46-.57-.6-.55-1.55.05-2.12l9.25-8.86c.6-.57,1.55-.55,2.12.05.57.6.55,1.55-.05,2.12l-9.25,8.86c-.29.28-.66.42-1.04.42Z"/>
  <path class="cls-1" d="m388.96,438.86c-.1,0-.21-.01-.32-.03-.56-.12-13.73-3.02-19.89-10.61-.52-.64-.42-1.59.22-2.11.64-.52,1.59-.42,2.11.22,5.49,6.76,18.06,9.54,18.19,9.56.81.17,1.33.97,1.15,1.78-.15.7-.77,1.18-1.46,1.18Z"/>
  <path class="cls-1" d="m406.68,438.09c-.18,0-.36-.03-.54-.1-.72-.28-17.87-6.92-31.3-16.89-.67-.49-.8-1.43-.31-2.1.49-.66,1.43-.8,2.1-.31,13.09,9.72,30.42,16.43,30.59,16.5.77.3,1.16,1.17.86,1.94-.23.6-.8.96-1.4.96Z"/>
  <path class="cls-1" d="m425.27,435.74c-.11,0-.22-.01-.33-.04-.98-.22-24.14-5.6-36.1-18.45-.56-.61-.53-1.56.08-2.12.6-.56,1.55-.53,2.12.08,11.32,12.16,34.33,17.51,34.57,17.57.81.18,1.31.99,1.13,1.8-.16.7-.78,1.17-1.46,1.17Z"/>
  <path class="cls-1" d="m428.86,427.72s-.07,0-.11,0c-.44-.03-10.92-.85-15.27-6.47-.51-.66-.39-1.6.27-2.1.66-.51,1.6-.39,2.1.27,3.53,4.56,13.02,5.31,13.12,5.32.83.06,1.45.78,1.39,1.61-.06.79-.71,1.39-1.49,1.39Z"/>
  <path class="cls-1" d="m604.63,353.73c-.75,0-1.4-.56-1.49-1.32,0-.06-.74-5.92-4.24-10.67-4.44-6.04-.88-21.74,4.72-27.03.6-.57,1.55-.54,2.12.06s.54,1.55-.06,2.12c-5.06,4.78-7.67,18.59-4.37,23.08,3.99,5.42,4.77,11.83,4.81,12.1.1.82-.49,1.57-1.31,1.66-.06,0-.12.01-.18.01Z"/>
  <path class="cls-1" d="m590.74,339.19c-.25,0-.51-.06-.75-.2-.28-.16-6.84-3.99-10.27-10.53-.38-.73-.1-1.64.63-2.02.73-.39,1.64-.1,2.02.63,3.03,5.78,9.05,9.29,9.11,9.33.72.41.96,1.33.55,2.05-.28.48-.78.75-1.3.75Z"/>
  <path class="cls-1" d="m602.35,347.98c-.22,0-.45-.05-.66-.15-1.6-.78-6.22-2.9-8.38-3.27-2.7-.46-2.96-2.31-3.48-6-.39-2.75-.97-6.9-2.59-13.56-.2-.8.3-1.62,1.1-1.81.81-.2,1.62.3,1.81,1.1,1.66,6.8,2.25,11.04,2.65,13.85.22,1.6.44,3.11.68,3.37h0s.08.05.34.09c3.03.52,8.95,3.41,9.2,3.53.74.36,1.05,1.26.69,2.01-.26.53-.79.84-1.35.84Z"/>
  <path class="cls-1" d="m627.61,351.84c-.13,0-.26-.02-.39-.05-.8-.22-1.27-1.04-1.05-1.84.03-.1,2.59-9.66,2.5-19.16-.09-9.37-3.97-19-8.64-21.46-.73-.39-1.01-1.29-.63-2.03.39-.73,1.29-1.01,2.03-.63,5.73,3.02,10.14,13.38,10.24,24.09.1,9.92-2.49,19.57-2.6,19.97-.18.67-.79,1.11-1.45,1.11Z"/>
  <path class="cls-1" d="m626.44,374.03c-.42,0-.84-.18-1.14-.52-.54-.63-.47-1.58.16-2.11l.17-.14c4.62-3.84,7.06-7.64,6.72-10.41-.13-1.04-.24-2.01-.35-2.97-.46-4.03-.9-7.84-2.55-15.5-.17-.81.34-1.61,1.15-1.78.81-.17,1.61.34,1.78,1.15,1.67,7.8,2.12,11.68,2.59,15.78.11.95.22,1.91.35,2.94.65,5.21-4.59,10.44-7.78,13.09l-.13.11c-.28.24-.63.36-.97.36Z"/>
  <path class="cls-1" d="m607.86,384.01c-.4,0-.8-.16-1.1-.48-1.69-1.8-10.17-10.95-11.3-13.69-1.04-2.52.04-8.89,2.05-19.92.29-1.58.58-3.21.88-4.86.15-.82.92-1.36,1.74-1.21.82.14,1.36.92,1.21,1.74-.29,1.65-.59,3.28-.88,4.87-1.4,7.69-2.98,16.41-2.23,18.25.71,1.73,6.95,8.76,10.72,12.78.57.6.53,1.55-.07,2.12-.29.27-.66.4-1.02.4Z"/>
  <path class="cls-1" d="m598.78,421.53c-.42,0-.83-.18-1.11-.49-.29-.32-.43-.75-.38-1.18,0-.04.51-4.44.32-9.5-.03-.89-.1-2.33-.18-4.15-.39-8.71-1.2-26.82-.76-34.95.05-.83.76-1.44,1.58-1.42.83.04,1.46.75,1.42,1.58-.43,7.98.38,26,.76,34.66.08,1.83.15,3.27.18,4.17.13,3.4-.04,6.45-.18,8.25,12.71-.33,26.59-2.06,28.97-4.46-.49-7.95,1.03-20.74,1.95-28.45.28-2.36.5-4.22.56-5.07.22-3.47-1.57-13.23-1.59-13.32-.15-.81.39-1.6,1.2-1.75.81-.15,1.6.39,1.75,1.2.08.42,1.88,10.22,1.63,14.06-.06.93-.27,2.74-.57,5.23-.87,7.28-2.48,20.82-1.9,28.43.02.3-.05.6-.2.86-3.1,5.38-26.37,6.18-33.43,6.3h-.03Z"/>
  <path class="cls-1" d="m629.71,441.93c-1.06,0-2.11-.02-3.11-.05-5.24-.19-24.02-5.56-26.38-8.91-2.27-3.22-2.32-8.41-.12-12.91.36-.74,1.26-1.05,2.01-.69.74.36,1.05,1.26.69,2.01-1.7,3.49-1.75,7.55-.12,9.87,1.52,2.02,18.59,7.44,24.04,7.64,5.23.19,11.85-.18,14.29-.62,1.19-1.37,1.59-9.98.79-11.56-.17-.32-1.33-1.62-8.86-5.07l-6.95-3.24,1.27-2.72,6.93,3.23c6.32,2.9,9.38,4.8,10.24,6.36,1.17,2.13,1.06,10.53-.52,13.93-.53,1.14-1.25,1.81-2.16,1.99-2.06.41-7.16.76-12.03.76Z"/>
  <path class="cls-1" d="m617.3,425c-4.16,0-8.59-.97-11.41-3.09-.66-.5-.79-1.44-.29-2.1.5-.66,1.44-.79,2.1-.29,4.63,3.5,15.28,2.97,17.33.6l2.65-3.06c.54-.63,1.49-.69,2.12-.15.63.54.69,1.49.15,2.12l-2.65,3.06c-1.62,1.87-5.66,2.92-10,2.92Z"/>
  <path class="cls-1" d="m599.98,430.68c-.57,0-1.12-.33-1.37-.88-.34-.75,0-1.64.75-1.99,5.62-2.54,7.59-6.12,7.61-6.15.39-.72,1.3-1,2.03-.62.73.39,1.01,1.29.63,2.02-.09.18-2.4,4.48-9.03,7.48-.2.09-.41.13-.62.13Z"/>
  <path class="cls-1" d="m605.01,435.8c-.77,0-1.43-.59-1.49-1.37-.07-.83.54-1.55,1.37-1.62,3.29-.28,7.86-6.06,9.97-9.64.42-.71,1.34-.95,2.05-.53.71.42.95,1.34.53,2.05-.64,1.08-6.4,10.61-12.3,11.11-.04,0-.09,0-.13,0Z"/>
  <path class="cls-1" d="m615.44,439.05c-.6,0-1.16-.36-1.39-.95-.31-.77.07-1.64.84-1.95,5.67-2.25,9.51-12.15,10.51-15.78.22-.8,1.04-1.26,1.85-1.05.8.22,1.27,1.05,1.05,1.85-.16.59-4.09,14.51-12.3,17.77-.18.07-.37.11-.55.11Z"/>
  <path class="cls-1" d="m624.22,440.71c-.5,0-.98-.25-1.27-.7-.44-.7-.24-1.63.46-2.07,6.31-4,9.34-16.38,9.37-16.5.19-.81,1-1.3,1.81-1.11.81.19,1.3,1,1.11,1.81-.13.56-3.34,13.69-10.68,18.34-.25.16-.53.23-.8.23Z"/>
  <path class="cls-1" d="m633.76,441.85c-.53,0-1.04-.28-1.31-.77-.4-.72-.14-1.64.58-2.04,5.3-2.94,9.3-10.21,9.34-10.28.4-.73,1.31-1,2.04-.6.73.4,1,1.31.6,2.04-.18.33-4.47,8.11-10.52,11.47-.23.13-.48.19-.73.19Z"/>
  <path class="cls-1" d="m656.58,287.79s-.04,0-.06,0c-.83-.03-1.47-.73-1.44-1.56.36-9.32-5.33-14.32-16.9-14.88-.83-.04-1.47-.74-1.43-1.57.04-.83.73-1.46,1.57-1.43,13.16.63,20.17,7.02,19.75,17.99-.03.81-.7,1.44-1.5,1.44Z"/>
  <path class="cls-1" d="m57.31,443.85c-.29,0-.58-.08-.84-.26-1.09-.74-2.47-1.61-3.03-1.89-.75.12-3.41.67-5.77,1.17-.37.08-.75.02-1.07-.17-.42-.24-1.71-.94-2.7-1.2-.74-.2-2.61-.03-3.69.16l-7.55,1.23c-.69.11-1.36-.27-1.63-.91-.12-.29-.71-1.95-.49-5.49-.7,2.85-.96,5.05-.97,5.1-.09.8-.81,1.38-1.61,1.32-.81-.07-1.42-.76-1.38-1.57,0,0,0-.49-.3-1.41-.17,1.44-.71,2.22-.86,2.41-.31.39-.8.6-1.3.57l-7.28-.59c-.29-.02-.56-.13-.79-.31l-1.12-.86-2.51-1.07-1.97,2.31c-.29.33-.7.53-1.14.53h-5.11c-.83,0-1.5-.67-1.5-1.5s.67-1.5,1.5-1.5h4.41l2.23-2.62c.43-.5,1.12-.66,1.73-.41l3.7,1.57c.12.05.23.11.33.19l.92.71,5.74.47c.24-1.37.06-4.98-5.53-11.57-.52-.61-.47-1.51.11-2.06.58-.55,1.48-.55,2.06,0,4.01,3.8,6.37,6.97,7.74,9.43,1.02-4.07,2.89-9.39,6.15-12.49.5-.48,1.27-.55,1.85-.18.58.38.83,1.1.61,1.75-2.88,8.31-2.9,12.99-2.67,14.98l6.12-1c.53-.09,3.33-.54,4.98-.09,1.08.29,2.25.87,2.9,1.22,5.38-1.15,5.86-1.15,6.02-1.15.41,0,.97,0,4.55,2.44.68.47.86,1.4.39,2.08-.29.43-.76.66-1.24.66Z"/>
  <path class="cls-1" d="m111.85,443.85c-.78,0-1.44-.6-1.49-1.39-.06-.83.56-1.54,1.39-1.6l12.41-.9c3.28-3.44,4.17-3.77,5.23-3.07.13.08.36.24,1.82,1.86.06-4.46-.93-13.07-7.73-23.27-.41-.62-.31-1.44.24-1.94.55-.5,1.38-.52,1.95-.06,14.12,11.37,15.44,23.99,15.49,24.52.08.83-.53,1.56-1.35,1.63-.81.08-1.56-.53-1.63-1.35,0-.09-.79-7.22-7.25-15.33,4.78,11.38,3.02,19.34,2.93,19.75-.13.55-.55.98-1.1,1.11-.55.13-1.12-.05-1.49-.47-1.03-1.19-2.18-2.48-2.91-3.28-.66.59-1.61,1.54-2.4,2.38-.26.27-.61.44-.98.47l-12.99.95s-.07,0-.11,0Z"/>
  <path class="cls-1" d="m138.43,434.77c-.22,0-.43-.05-.64-.14-.75-.36-1.07-1.25-.71-2,2.48-5.22,5.78-9.1,9.15-11.97-3.45,1.82-6.8,4.35-9.08,7.82-.46.69-1.38.88-2.08.43-.69-.46-.89-1.38-.43-2.08,7.75-11.8,25.78-13.68,25.95-13.68.75,0,1.39.56,1.49,1.3.04.31.07,1.33-1.29,1.71-3.38.92-14.9,4.92-21,17.76-.26.54-.79.86-1.36.86Z"/>
  <path class="cls-1" d="m141.95,442.91c-.16,0-.33-.03-.49-.08-.78-.27-1.2-1.13-.92-1.91,1.18-3.4,4.23-6.74,7.21-9.38-2.2,1.16-4.77,2.84-7.6,5.27-.63.54-1.58.46-2.12-.16-.54-.63-.47-1.58.16-2.12,9.86-8.45,17-8.62,17.54-8.62h.02c.67,0,1.25.46,1.43,1.1s-.09,1.33-.66,1.68c-.11.07-10.94,6.83-13.16,13.21-.22.62-.8,1.01-1.42,1.01Z"/>
  <path class="cls-1" d="m155.74,443.85c-.36,0-.72-.13-1-.38l-4.55-4.03h-6.37c-.83,0-1.5-.67-1.5-1.5s.67-1.5,1.5-1.5h6.94c.37,0,.72.13,1,.38l4.37,3.87,10.96-3.09c.38-.11.8-.06,1.15.14.35.2.6.53.71.91l.34,1.26h9.72l5.05-2.59-5.22-9.17c-.38-.67-.2-1.51.43-1.96.62-.45,1.48-.36,1.99.21l8.9,9.89.86-2.01c.23-.54.75-.89,1.33-.91.6-.03,1.12.3,1.39.82l1.43,2.81c3.62.5,14.16,1.96,14.76,2.08.62.12,3.26,1.11,4.76,1.69l7.43-2.01c-.1-2.28-.95-7.88-6.58-12.36-.62-.5-.75-1.39-.29-2.04.46-.65,1.34-.83,2.02-.41,8.73,5.45,11.15,11.33,11.81,13.77l4.43.77,2.57-.88c.16-.05.32-.08.49-.08h6.89c.44,0,.85.19,1.13.52l1.59,1.84h.95c.83,0,1.5.67,1.5,1.5s-.67,1.5-1.5,1.5h-1.64c-.44,0-.85-.19-1.13-.52l-1.59-1.84h-5.96l-2.7.93c-.24.08-.49.11-.74.06l-5.82-1.01c-.67-.11-1.17-.66-1.24-1.33,0-.03-.23-1.76-1.77-4.26.72,2.86.57,4.94.55,5.12-.05.63-.49,1.16-1.1,1.32l-9,2.43c-.31.08-.63.07-.93-.05-1.97-.75-4.34-1.63-4.75-1.72-.55-.1-9.48-1.34-15.35-2.15-.49-.07-.91-.37-1.13-.81l-.33-.66-.53,1.22c-.2.47-.63.8-1.13.89-.5.08-1.02-.1-1.36-.48l-1.85-2.06c0,.13-.02.26-.06.38-.12.39-.39.72-.75.91l-6.77,3.47c-.21.11-.45.17-.68.17h-11.23c-.68,0-1.27-.45-1.45-1.11l-.24-.9-10.29,2.9c-.13.04-.27.06-.41.06Z"/>
  <path class="cls-1" d="m353.48,271.51c-.43,0-.86-.19-1.15-.53-5.68-6.75-8.04-15-6.3-22.09,1.36-5.55,5.17-9.86,10.71-12.12.59-.24,1.27-.08,1.69.4.16.18,3.81,4.42,2.25,11.35-.51,2.29-1.44,4.78-2.42,7.41-1.77,4.73-3.6,9.63-3.29,13.99.05.65-.33,1.25-.93,1.5-.18.07-.38.11-.56.11Zm3.3-31.48c-4.08,2-6.78,5.29-7.83,9.57-1.24,5.06-.03,10.87,3.26,16.12.57-3.69,1.97-7.44,3.25-10.86.95-2.53,1.84-4.92,2.31-7.01.85-3.79-.23-6.5-.98-7.82Z"/>
  <path class="cls-1" d="m365.9,266.63c-.33,0-.66-.11-.93-.33-7.38-5.86-8.45-13.38-8.5-13.7-.11-.82.47-1.58,1.29-1.68.81-.11,1.57.47,1.68,1.29,0,.05.59,3.98,3.78,8.1-.21-2-.29-4.24-.37-6.53-.18-5.2-.38-11.08-2.33-13.04-.59-.59-.59-1.54,0-2.12s1.54-.59,2.12,0c2.79,2.79,2.99,8.75,3.21,15.05.15,4.26.3,8.66,1.38,10.77.32.63.16,1.4-.39,1.84-.28.23-.61.34-.95.34Z"/>
  <path class="cls-1" d="m310.39,438.86c-.79,0-1.45-.62-1.5-1.42-.04-.83.59-1.53,1.42-1.58l13.45-.72,2.91-4.8c.27-.44.75-.72,1.27-.72h.01c.52,0,1,.26,1.27.7.63,1,1.39,2.12,2,2.95,2.54-4.63,9.58-19.51,14.01-29.07.33-.71,1.15-1.04,1.87-.78.73.27,1.14,1.05.94,1.8l-7.81,29.01,6.62-2.36c.44-.16.93-.1,1.32.16l4.27,2.78c2.18-1.48,5.04-3.42,5.34-3.66.73-.59,1.02-.81,12.57,3.11.78.27,1.2,1.12.94,1.9-.27.79-1.12,1.21-1.9.94-4.12-1.4-8.78-2.89-10.27-3.23-1.33.93-4.67,3.19-5.83,3.97-.5.34-1.15.34-1.66.01l-4.48-2.92-8.62,3.08c-.52.19-1.11.07-1.52-.31-.41-.38-.58-.95-.43-1.49l4.08-15.18c-7.95,16.77-8.47,16.55-9.82,16.04-.31-.12-.95-.37-2.86-3.14l-2.08,3.44c-.26.42-.71.69-1.2.72l-14.24.76s-.05,0-.08,0Zm49.26-5.37s-.03.02-.05.04c.02-.01.03-.02.05-.04Z"/>
  <path class="cls-1" d="m436.46,435.74c-.49,0-.96-.24-1.25-.67-.37-.55-.33-1.29.1-1.8l3.4-4.07-8.17,6.22c-.66.5-1.6.38-2.1-.28-.5-.66-.38-1.6.28-2.1l18.83-14.34c.61-.46,1.47-.39,1.99.16.53.55.56,1.41.07,2l-8.72,10.42,8.78-2.75c.5-.16,1.04-.04,1.44.31l4.24,3.74,9.63-2.62c-.03-2.29-.48-7.96-3.96-12.86-.42-.6-.36-1.41.16-1.93.52-.52,1.33-.59,1.93-.17,3.84,2.7,5.82,4.74,6.84,6.14,2.04-1.57,6-3.92,11.18-3.53.6.04,1.11.44,1.31,1.01s.03,1.2-.42,1.6c-4.71,4.24-6.63,7.3-7.41,9.12l5.53-1.61c.28-.08.57-.08.85,0l4.07,1.21,3.2-.58c.69-1.84,2.15-7.44-2.26-14.51-.37-.59-.28-1.36.21-1.86.5-.49,1.26-.58,1.86-.21,6.76,4.25,7.46,13.11,7.42,16.98l8.73-1.09c.19-.02.37-.01.55.03l4.77,1.2,3.53-1.23c.16-.06.33-.08.49-.08h6.1c.97-3.69,4.64-14.59,14.72-18.05.62-.21,1.32,0,1.7.54.39.54.38,1.26-.02,1.79-5.75,7.59-7.35,12.36-7.75,14.82l5.37-2.8c.43-.22.94-.23,1.37,0l8.41,4.27,4.15-.48c.08,0,.17-.01.26,0l8.56.48-4.51-6.54c-.43-.63-.33-1.48.25-1.98.58-.5,1.44-.49,2,.03l9.34,8.56,2.72-3.86c.38-.54,1.06-.77,1.68-.57.62.2,1.05.78,1.05,1.43v3.08l7.67-.11c.41,0,.74.13,1.02.38l3.03,2.7,9.81-1.78c.19-.04.38-.03.57,0l5.99,1.23,2.36-1.01c.76-.32,1.64.03,1.97.79.33.76-.03,1.64-.79,1.97l-2.8,1.2c-.28.12-.59.15-.89.09l-6.16-1.27-10.24,1.86c-.46.08-.92-.05-1.27-.36l-3.14-2.8-8.61.12c-.43,0-.79-.15-1.07-.43-.25-.25-.41-.59-.44-.94l-.98,1.39c-.25.35-.64.58-1.07.63-.43.05-.86-.09-1.17-.39l-1.83-1.68c-.01.22-.08.45-.19.65-.28.5-.84.78-1.39.76l-11.49-.65-4.47.51c-.29.03-.59-.02-.85-.15l-8.12-4.12-6.88,3.59c-.39.2-.85.23-1.26.06-.41-.16-.72-.5-.86-.92-.17-.52-1.27-4.69,4.35-13.86-5.71,5.25-7.39,13.5-7.41,13.61-.14.7-.76,1.21-1.47,1.21h-7.03l-3.72,1.3c-.28.1-.58.11-.86.04l-4.94-1.25-10.21,1.28c-.46.05-.91-.1-1.23-.42-.33-.32-.49-.77-.45-1.22,0-.06.28-3.05-.37-6.56-.02,3.93-1.31,6.45-1.41,6.63-.22.41-.61.69-1.06.77l-4.34.79c-.23.04-.47.03-.7-.04l-3.99-1.19-7.55,2.19c-.42.12-.86.06-1.23-.18-.36-.23-.61-.61-.67-1.04-.07-.45-.39-4.16,5.85-10.76-3.88.99-6.3,3.54-6.34,3.57-.39.42-.99.58-1.54.41-.52-.16-.91-.58-1.02-1.11-.03-.09-.29-.73-1.35-1.89,1.56,4.91,1.26,9.04,1.24,9.29-.05.63-.49,1.16-1.1,1.33l-11.49,3.13c-.49.13-1.01.01-1.39-.32l-4.22-3.72-12.85,4.02c-.15.05-.3.07-.45.07Z"/>
  <path class="cls-1" d="m533.54,426.74c-.65,0-1.25-.42-1.44-1.08-1.7-5.79-2.73-7.12-2.77-7.17-.58-.59-.54-1.51.05-2.09.59-.58,1.57-.54,2.15.05.34.34,1.58,1.96,3.45,8.36.23.79-.22,1.63-1.02,1.86-.14.04-.28.06-.42.06Z"/>
  <path class="cls-1" d="m525.39,420.06c-.54,0-1.07-.3-1.33-.81-4.61-8.96-18.56-15.39-18.7-15.46-.64-.29-.99-.98-.85-1.66.14-.68.73-1.18,1.43-1.2.46-.03,11.59-.17,23.77,11.52.6.57.62,1.52.04,2.12-.57.6-1.52.62-2.12.04-4.2-4.03-8.26-6.54-11.72-8.1,4.07,2.88,8.46,6.78,10.82,11.36.38.74.09,1.64-.65,2.02-.22.11-.45.17-.69.17Z"/>
  <path class="cls-1" d="m671.71,435.74c-.08,0-.17,0-.26-.02-2.64-.45-5.61-.95-6.33-1.05-.19.03-.65.12-1.77.36-1.44.31-3.1.68-3.1.68-.39.09-.8.01-1.14-.21-.34-.22-.57-.56-.65-.96-.08-.41-1.52-8.13,5.69-17.55-8.04,6.96-8.75,16.8-8.76,16.92-.03.57-.39,1.07-.92,1.29-.52.22-1.13.12-1.56-.25l-3.05-2.66-4.64,2.47c-.73.39-1.64.11-2.03-.62-.39-.73-.11-1.64.62-2.03l5.55-2.95c.54-.29,1.22-.22,1.69.19l1.79,1.56c1.17-5.41,5.28-17.15,19.35-21.79.69-.22,1.44.07,1.79.71.35.64.19,1.43-.38,1.89-11.12,8.9-12.34,17.3-12.32,20.68.46-.1.96-.21,1.45-.31,2.06-.44,2.18-.44,2.37-.44.16,0,.42,0,6.86,1.11.82.14,1.36.92,1.22,1.73-.13.73-.76,1.25-1.48,1.25Z"/>
</svg>
