<?xml version="1.0" encoding="UTF-8"?>
<svg xmlns="http://www.w3.org/2000/svg" viewBox="0 0 246.9 240.47">
  <defs>
      <style>
          :root { fill:#222 }
          .accent { fill: #f9322c; }

          @media (prefers-color-scheme: dark) {
          :root {  fill: #f9322c; }
          .accent { fill:#dee2e6; }
          }
      </style>
  </defs>
  <path class="accent" d="m56.62,161.32c-14.67,2.18-24.44,24.38-24.44,24.38,0,0,17.27-1.07,24.44-24.38Z"/>
  <path class="accent" d="m80.57,150.3c-14.9,6.23-20.75,29.11-20.75,29.11,0,0,17.84-5.99,20.75-29.11Z"/>
  <path class="accent" d="m46.87,156.48c-10.9-7.88-3.81-30.68-3.81-30.68,0,0,13.87,8.01,3.81,30.68Z"/>
  <path class="accent" d="m65.36,157.37c-12.61-4.69-8.89-27.44-8.89-27.44,0,0,15.72,4.1,8.89,27.44Z"/>
  <path class="accent" d="m88.73,139.66c-14.85,3.86-19.98-15.28-19.98-15.28,0,0,17.84-6.12,19.98,15.28Z"/>
  <path class="accent" d="m100.39,155.61c-12.94,13.32-10.02,33.83-10.02,33.83,0,0,16.07-14.84,10.02-33.83Z"/>
  <path class="accent" d="m116.49,173.2c-6.36,17.99,6.66,29.01,6.66,29.01,0,0,8.74-21.25-6.66-29.01Z"/>
  <path class="accent" d="m110.87,169.6c7.25-17.78,25.85-21.41,25.85-21.41,0,0-7.55,21.53-25.85,21.41Z"/>
  <path class="accent" d="m99.5,141.17c12.76-13.6,27.58-5.56,27.58-5.56,0,0-14.57,17.26-27.58,5.56Z"/>
  <path class="accent" d="m236.03,58.64l.03-11.75-23.35-18.95-2.42-19.11L118.78,3.6l-77.38,12.75.33,16.85L5.76,62.41l.28,14.3-6.04,4.71,6.49,1.22,8.56,115.4,142.05,42.42,78.43-76.61,2.82-100.3,2.1-1.18-4.41-3.74Zm-93.86,163.57l-115.51-30.3-6.75-91.48,120.37,25.03,1.89,96.75Zm89.19-61.73l-63.48,60.23-2.12-96.5,38.53-23.73c1.15-1.05,2.34-1.72,2.34-1.72l-3.64-9.89-1.6,3.1c-6.41-7.92-2.77-23.95-2.77-23.95,0,0,7.63-1.81,5.39-5.82-2.24-4.01-6.87,2.13-6.87,2.13,0,0-5.51-7.28-1.9-12.21-4.12-1.58-10.86-11.17-9.4-14.31v-.02s-1.9.58-1.9.58h0c-.78.31-1.76.04-2.38-.72-.75-.92-.69-2.21.13-2.87.29-.24.63-.36.99-.38v-.04s13.04-3.64,13.04-3.64c.82-.67,2.09-.46,2.84.45.75.92.69,2.21-.13,2.87h-.31s-.11,0-.11,0l-.43.13.43.22c5.73,4.26,5.55,14.29,5.55,14.29,0,0,6.68,3.89,8.47,7.3-4.41-.36-1.72,5.2.11,5.74,1.83.54,2.49-3.11,2.49-3.11,0,0,6.47,15.67,6.81,23.33l-3.37-.99.61,9.8,14.94-8.98-2.29,78.68Z"/>
  <path class="cls-2" d="m159.52,109.94c-.09,0-.19,0-.28-.03L4.68,80.8c-.58-.11-1.04-.55-1.18-1.12-.14-.57.07-1.17.54-1.54l5.45-4.25-.26-13.55c0-.46.2-.9.55-1.19l35.4-28.76-.32-16.12c-.01-.75.52-1.39,1.26-1.51L123.49.02c.11-.02.21-.02.33-.02l91.5,5.23c.72.04,1.31.59,1.4,1.31l2.34,18.51,22.89,18.57c.35.29.56.71.55,1.17l-.02,11.05,3.88,3.29c.38.32.57.8.52,1.29s-.33.92-.76,1.16l-21.36,11.98c-.72.4-1.64.15-2.04-.58-.41-.72-.15-1.64.58-2.04l19.47-10.92-2.77-2.35c-.34-.29-.53-.71-.53-1.15l.02-11.03-22.8-18.5c-.3-.24-.49-.59-.54-.98l-2.26-17.87L123.82,3.01,47.88,15.52l.3,15.55c0,.46-.2.9-.55,1.19L12.23,61.02l.27,13.56c0,.47-.21.92-.58,1.21l-3.42,2.67,150.76,28.4,41.93-23.51c.72-.4,1.64-.15,2.04.58.41.72.15,1.64-.58,2.04l-42.41,23.78c-.23.13-.48.19-.73.19Z"/>
  <path class="cls-2" d="m151.71,24.03s-.08,0-.12,0L46.24,15.74c-.83-.06-1.44-.79-1.38-1.61.06-.83.79-1.44,1.61-1.38l105.11,8.26,63.3-15.74c.81-.2,1.62.29,1.82,1.09.2.8-.29,1.62-1.09,1.82l-63.53,15.8c-.12.03-.24.04-.36.04Z"/>
  <path class="cls-2" d="m159.52,109.94c-.79,0-1.45-.62-1.5-1.42l-1.39-25.51-4.71-38.88-1.7-21.48c-.07-.83.55-1.55,1.38-1.61.81-.07,1.55.55,1.61,1.38l1.7,21.42,4.71,38.92,1.4,25.61c.04.83-.59,1.53-1.42,1.58-.03,0-.06,0-.08,0Z"/>
  <path class="cls-2" d="m162.06,239.87c-.14,0-.29-.02-.43-.06L19.58,197.39c-.6-.18-1.02-.71-1.07-1.33l-8.56-115.4c-.06-.83.56-1.55,1.38-1.61.83-.05,1.55.56,1.61,1.39l8.48,114.37,140.21,41.88,77.37-75.57,2.8-99.69c.02-.83.7-1.49,1.54-1.46.83.02,1.48.71,1.46,1.54l-2.81,100.3c-.01.39-.17.76-.45,1.03l-78.43,76.61c-.28.28-.66.43-1.05.43Z"/>
  <path class="cls-2" d="m162.06,239.87c-.81,0-1.48-.65-1.5-1.47l-2.54-129.93c-.02-.83.64-1.51,1.47-1.53h.03c.81,0,1.48.65,1.5,1.47l2.54,129.93c.02.83-.64,1.51-1.47,1.53h-.03Z"/>
  <path class="cls-2" d="m202.99,31.47c-.65,0-1.26-.43-1.44-1.09-.23-.8.24-1.63,1.04-1.85l14.66-4.13c.8-.22,1.63.24,1.85,1.04.23.8-.24,1.63-1.04,1.85l-14.66,4.13c-.14.04-.27.06-.41.06Z"/>
  <path class="cls-2" d="m153.4,45.45c-.06,0-.12,0-.18-.01l-106.72-12.85c-.82-.1-1.41-.85-1.31-1.67s.83-1.41,1.67-1.31l106.42,12.82,30.79-8.68c.8-.22,1.63.24,1.85,1.04.23.8-.24,1.63-1.04,1.85l-31.08,8.76c-.13.04-.27.06-.41.06Z"/>
  <path class="cls-2" d="m214,58.72c-.57,0-1.11-.32-1.36-.87-.35-.75-.02-1.64.74-1.99l27.01-12.43c.75-.35,1.64-.02,1.99.74.35.75.02,1.64-.74,1.99l-27.01,12.43c-.2.09-.42.14-.63.14Z"/>
  <path class="cls-2" d="m158.12,84.43c-.08,0-.15,0-.23-.02L10.49,61.8c-.82-.13-1.38-.89-1.25-1.71.12-.82.9-1.38,1.71-1.26l146.96,22.54,49.31-22.69c.75-.35,1.64-.02,1.99.74.35.75.02,1.64-.74,1.99l-49.72,22.88c-.2.09-.41.14-.63.14Z"/>
  <path class="cls-2" d="m221.84,68.36c-.53,0-1.05-.29-1.32-.79-.39-.73-.12-1.64.61-2.03l19.15-10.32c.73-.39,1.64-.12,2.03.61.39.73.12,1.64-.61,2.03l-19.15,10.32c-.23.12-.47.18-.71.18Z"/>
  <path class="cls-2" d="m159.36,102.02c-.09,0-.17,0-.26-.02L10.74,76.09c-.82-.14-1.36-.92-1.22-1.74.14-.82.93-1.36,1.74-1.22l147.85,25.82,41.7-22.47c.73-.39,1.64-.12,2.03.61.39.73.12,1.64-.61,2.03l-42.16,22.72c-.22.12-.46.18-.71.18Z"/>
  <path class="cls-2" d="m146.08,219.63c-.13,0-.25-.02-.38-.05l-115.51-30.3c-.62-.16-1.07-.7-1.12-1.34l-6.75-91.48c-.03-.47.15-.93.51-1.24.35-.31.83-.43,1.29-.34l120.37,25.03c.68.14,1.18.74,1.19,1.44l1.89,96.75c0,.47-.2.92-.57,1.21-.27.21-.59.32-.93.32Zm-114.09-32.98l112.55,29.53-1.83-93.57-117.25-24.38,6.53,88.42Z"/>
  <path class="cls-2" d="m228.41,152.68c-2.87,0-6.05-1.47-7.76-3.69-1.21-1.57-2.08-4.17-3.08-7.19-1.33-3.99-2.83-8.51-5.23-10.55-4.36-3.72-3.44-7.48-2.99-9.04-3.57-4.93-2.06-11.68-1-14.92-1.5-.44-3.14-1.51-3.89-3.76-1.11-3.37,2.12-6.16,3.94-7.43l-2.04-5.56-.04.07c-.23.45-.68.75-1.18.8-.5.05-1-.15-1.32-.55-6.79-8.39-3.22-24.54-3.06-25.23.13-.56.56-1,1.12-1.13,1.59-.38,4.07-1.44,4.57-2.57.1-.22.16-.52-.14-1.06-.32-.57-.55-.58-.63-.59-.97-.04-2.78,1.64-3.73,2.9-.28.37-.73.6-1.2.6h0c-.47,0-.91-.22-1.2-.59-.23-.31-5.19-6.97-2.77-12.52-3.22-2.12-6.8-6.89-8.27-10.53-.85-2.1-.99-3.78-.42-5,.35-.75,1.24-1.08,1.99-.73.75.35,1.08,1.24.73,1.99-.11.24-.14,1.07.49,2.61,1.56,3.84,5.64,8.72,8.09,9.66.44.17.77.53.9.98.13.45.05.93-.23,1.31-1.99,2.72-.33,6.65.89,8.82,1.22-1.22,3.07-2.62,4.94-2.49.88.06,2.13.48,3.04,2.12.88,1.58.63,2.9.27,3.73-1,2.27-4.07,3.51-5.67,4.02-.55,3.01-2.08,13.21,1.32,19.78l.42-.81c.27-.53.81-.85,1.43-.81.59.04,1.11.42,1.31.98l3.64,9.89c.25.69-.03,1.47-.67,1.83-1.42.8-4.18,2.97-3.65,4.56.68,2.06,2.74,1.97,2.98,1.95.53-.03,1.04.2,1.34.63.3.43.37.99.15,1.47-.04.09-3.96,9.14.34,14.25.22.26.35.59.35.94,0,.36-.09.68-.2,1.08-.38,1.3-1.02,3.48,2.01,6.06,3.03,2.58,4.67,7.52,6.13,11.88.88,2.64,1.71,5.14,2.61,6.31,1.43,1.85,4.25,2.73,6.03,2.48.56-.08,1.27-.29,1.5-.86.44-1.09.29-2.34-.38-3.11-.51-.59-1.25-.8-2.15-.58-.81.2-1.61-.3-1.81-1.11-.19-.81.3-1.62,1.11-1.81,2-.48,3.86.09,5.12,1.55,1.4,1.63,1.75,4.06.88,6.19-.6,1.49-1.97,2.45-3.87,2.71-.34.05-.7.07-1.06.07Z"/>
  <path class="cls-2" d="m228.8,149.3c-.71,0-1.57-.2-2.54-.79-4.27-2.65-5.22-11.63-3.01-17.13,1.88-4.67,1.35-8.65-1.77-13.32-.33-.49-.34-1.12-.03-1.62,2.7-4.41,1.28-14.04.51-17.37-.11-.48.02-.98.35-1.35.64-.71,2.17-2.93,1.59-4.56-.56-1.58-1.33-1.63-1.41-1.63-.43.1-.76,0-1.12-.27-.36-.26-.46-.69-.48-1.13l-.7-11.09c-.03-.49.18-.96.56-1.27.38-.3.89-.41,1.36-.27l1.23.36c-.82-5.39-3.58-13.16-5.22-17.48-.18.18-.38.35-.6.48-.67.41-1.43.51-2.19.29-2.03-.6-3.93-3.93-3.52-6.16.07-.4.34-1.35,1.27-1.97-1.97-2.09-5.28-4.26-6.67-5.07-.47-.27-.75-.78-.75-1.32,0-.09.09-9.32-4.94-13.06-.67-.49-.8-1.43-.31-2.1.5-.66,1.44-.8,2.1-.31,5.29,3.93,6.04,11.95,6.14,14.64,1.91,1.18,6.69,4.36,8.32,7.46.25.48.22,1.07-.08,1.52-.3.46-.82.72-1.37.67-.59-.05-.78.07-.78.07,0,.02-.05.37.2,1.02.31.8.82,1.41,1.12,1.64.26-.33.59-1.17.71-1.86.12-.65.66-1.15,1.32-1.22.66-.06,1.29.3,1.54.92.27.65,6.57,16.01,6.92,23.83.02.48-.19.95-.57,1.25-.38.3-.88.4-1.35.26l-1.32-.39.49,7.8c1.05.41,2.21,1.38,2.91,3.37,1,2.82-.77,5.71-1.69,6.95.55,2.72,2.21,12.32-.57,18.05,3.25,5.21,3.72,9.98,1.56,15.34-1.98,4.9-.62,11.96,1.8,13.46.5.31.91.41,1.21.3.6-.22,1.08-1.2,1.18-1.53.25-.79,1.1-1.22,1.89-.97.79.25,1.22,1.1.97,1.89-.09.27-.91,2.66-3,3.43-.35.13-.78.23-1.29.23Z"/>
  <path class="cls-2" d="m219.69,131.14c-.41,0-.82-.17-1.12-.5-.55-.62-.5-1.57.12-2.12,1.25-1.12,1.9-2.92,1.7-4.72-.17-1.5-1.02-3.64-4.05-5.29-.73-.39-1-1.31-.6-2.03.39-.73,1.31-1,2.03-.6,3.25,1.76,5.24,4.46,5.6,7.58.32,2.75-.71,5.55-2.68,7.3-.29.25-.64.38-1,.38Z"/>
  <path class="cls-2" d="m186.87,37.97c-.18,0-.36-.01-.55-.04-.9-.14-1.72-.63-2.32-1.36-.59-.73-.9-1.63-.86-2.54.04-.96.48-1.85,1.2-2.44.72-.59,1.68-.84,2.63-.69.9.14,1.72.63,2.32,1.36.59.73.9,1.63.86,2.54-.04.96-.48,1.85-1.2,2.44-.58.48-1.32.73-2.08.73Zm-.45-4.12c-.06,0-.13.01-.18.06-.08.06-.1.17-.1.25,0,.17.06.36.19.52.13.16.3.26.47.29.08.01.18.01.26-.05.08-.06.1-.17.1-.25,0-.17-.06-.36-.19-.52h0c-.13-.16-.3-.26-.47-.29-.02,0-.05,0-.08,0Z"/>
  <path class="cls-2" d="m186.28,33.83c-.66,0-1.26-.43-1.44-1.1-.22-.8.25-1.62,1.04-1.85l12.8-3.57c1.45-.93,3.47-.58,4.66.88.6.73.9,1.63.86,2.55-.04.96-.48,1.85-1.2,2.44-.64.52-1.59.43-2.11-.22-.52-.64-.43-1.59.22-2.11.08-.06.1-.17.1-.25,0-.17-.06-.36-.19-.52-.23-.29-.58-.36-.73-.24-.16.13-.35.23-.54.28l-13.06,3.64c-.13.04-.27.06-.4.06Z"/>
  <path class="cls-2" d="m187.55,37.85c-.64,0-1.24-.42-1.43-1.06-.24-.79.2-1.63,1-1.87l14.07-4.31c.79-.24,1.63.2,1.87.99.24.79-.2,1.63-1,1.87l-14.07,4.31c-.15.04-.29.07-.44.07Z"/>
  <path class="cls-2" d="m171.78,217.12c-.19,0-.39-.04-.58-.12-.55-.23-.91-.76-.92-1.35l-2.12-96.5c-.01-.53.26-1.03.71-1.31l39.51-24.33c.7-.43,1.63-.22,2.06.49.43.71.21,1.63-.49,2.06l-38.78,23.88,2.02,92.26,60.57-57.47,2.2-75.31-13.06,7.85c-.71.42-1.63.2-2.06-.51-.43-.71-.2-1.63.51-2.06l15.41-9.27c.47-.28,1.06-.29,1.53,0,.47.28.76.79.74,1.34l-2.29,78.68c-.01.4-.18.77-.47,1.04l-63.48,60.23c-.28.27-.66.41-1.03.41Z"/>
  <path class="cls-2" d="m127.01,177.56c-6.19,0-11.35-1.94-15.42-5.8-8.49-8.07-11.2-24.87-7.45-44.09-11.49,20.81-24.73,32.88-38.58,35.07-11.82,1.88-23.66-3.23-35.16-15.15-.38-.4-.37-1.03.03-1.41.4-.38,1.03-.37,1.41.03,11.02,11.42,22.27,16.32,33.41,14.56,14.7-2.33,28.82-16.57,40.83-41.19.23-.46.77-.68,1.25-.5.48.18.75.71.61,1.2-6.06,21.73-4.08,41.37,5.03,50.02,6.13,5.82,15.12,6.8,26.75,2.91.52-.17,1.09.11,1.27.63.18.52-.11,1.09-.63,1.27-4.87,1.63-9.32,2.44-13.34,2.45Z"/>
  <path class="cls-2" d="m36.24,189.62c-.33,0-.63-.16-.82-.43-.2-.29-.24-.66-.09-.98.41-.93,10.17-22.73,25.21-24.96.34-.05.68.08.91.34.22.26.3.62.2.95-7.29,23.7-25.15,25.07-25.33,25.08-.02,0-.04,0-.06,0Zm22.96-24.05c-10.81,2.81-18.76,16.88-21.23,21.78,4.35-.94,15.46-4.94,21.23-21.78Z"/>
  <path class="cls-2" d="m63.88,183.33c-.25,0-.49-.09-.68-.27-.27-.25-.38-.63-.29-.98.24-.95,6.16-23.43,21.34-29.78.33-.14.71-.09.99.13.28.22.43.57.39.92-2.96,23.47-21.24,29.87-21.43,29.93-.1.04-.21.05-.32.05Zm19.49-28.41c-10.62,5.61-16.18,20.23-17.92,25.62,4.41-2.21,15.16-9.2,17.92-25.62Z"/>
  <path class="cls-2" d="m50.93,160.4c-.21,0-.41-.07-.59-.19-11.35-8.21-4.48-30.82-4.18-31.78.09-.29.31-.52.59-.63.28-.11.6-.09.86.07.15.08,14.53,8.73,4.23,31.95-.12.28-.36.48-.65.56-.09.02-.17.03-.26.03Zm-3.23-30.03c-1.22,4.72-4.61,20.59,2.83,27.42,7.12-17.12.05-25.05-2.83-27.42Z"/>
  <path class="cls-2" d="m69.42,161.29c-.12,0-.24-.02-.35-.06-13.22-4.92-9.69-27.58-9.53-28.54.05-.28.21-.52.44-.68.24-.15.53-.2.8-.13.23.06,5.59,1.52,8.89,7.33,3.05,5.38,3.29,12.56.71,21.36-.08.27-.26.49-.51.61-.14.07-.29.11-.45.11Zm-8.06-27.07c-.51,4.51-1.59,20.24,7.41,24.7,2.08-7.73,1.81-14.01-.82-18.68-2.03-3.6-5.01-5.31-6.59-6.01Z"/>
  <path class="cls-2" d="m88.95,144.1c-12.52,0-17.06-16.36-17.11-16.54-.14-.51.14-1.03.64-1.21.31-.11,7.76-2.59,13.91,1.35,4.19,2.69,6.68,7.66,7.4,14.78.05.49-.27.94-.74,1.07-1.45.38-2.82.55-4.1.55Zm-14.89-16.11c1.2,3.65,6.18,16.15,17.64,13.82-.75-6-2.9-10.18-6.38-12.42-4.15-2.67-9.21-1.89-11.26-1.4Z"/>
  <path class="cls-2" d="m94.43,193.37c-.11,0-.23-.02-.33-.06-.35-.12-.6-.43-.66-.8-.12-.86-2.84-21.15,10.29-34.67.25-.25.6-.36.95-.28.34.08.62.33.72.67,6.17,19.37-10.12,34.72-10.29,34.87-.19.17-.43.27-.68.27Zm9.54-32.84c-8.86,10.25-9.04,24.24-8.74,29.54,3.6-4.06,12.24-15.6,8.74-29.54Z"/>
  <path class="cls-2" d="m127.2,206.13c-.23,0-.46-.08-.65-.24-.13-.11-13.47-11.68-6.95-30.11.1-.27.3-.49.57-.59.27-.11.57-.09.82.04,16.04,8.08,7.22,30.06,7.13,30.28-.12.3-.38.52-.69.59-.08.02-.16.03-.24.03Zm-6.09-28.56c-4.28,13.64,2.85,22.82,5.68,25.78,1.56-4.62,5.41-19.24-5.68-25.78Z"/>
  <path class="cls-2" d="m115.07,173.52h-.15c-.33,0-.64-.17-.83-.45-.18-.28-.22-.62-.09-.93,7.37-18.07,26.39-21.98,26.58-22.02.35-.07.71.06.95.33s.31.65.19.99c-.08.22-7.96,22.08-26.64,22.08Zm24-20.93c-4.66,1.42-16.72,6.2-22.61,18.88,13.29-.87,20.41-13.99,22.61-18.88Z"/>
  <path class="cls-2" d="m113.48,149.16c-3.83,0-7.39-1.45-10.58-4.32-.2-.18-.32-.43-.33-.7s.09-.53.27-.73c13.13-14.01,28.63-5.84,28.79-5.76.26.14.45.4.51.69.06.3-.02.6-.22.83-.32.38-7.95,9.3-17.37,9.95-.36.02-.71.04-1.07.04Zm-8.45-5.14c2.86,2.29,6.01,3.33,9.37,3.1,6.82-.47,12.86-5.99,15.08-8.27-3.58-1.49-14.49-4.76-24.45,5.16Z"/>
  <g>
    <path class="accent" d="m188.32,162.17c-6.84,7.98-5.74,27.18-5.74,27.18,0,0,8.46-8.4,5.74-27.18Z"/>
    <path class="accent" d="m197.45,144.14c-5.85,10.79-2.59,28.7-2.59,28.7,0,0,7.41-11.94,2.59-28.7Z"/>
    <path class="accent" d="m182.06,163.26c-7.67-.43-10.29-18.83-10.29-18.83,0,0,9.21-.81,10.29,18.83Z"/>
    <path class="accent" d="m191.67,155.63c-7.67,2.47-11.99-14.41-11.99-14.41,0,0,9.09-4.25,11.99,14.41Z"/>
    <path class="accent" d="m198.69,133.39c-6.48,9.19-14.29-1.34-14.29-1.34,0,0,7.37-12.03,14.29,1.34Z"/>
    <path class="accent" d="m208.94,138.88c-2.93,14.66,4.14,27.09,4.14,27.09,0,0,4.1-17.08-4.14-27.09Z"/>
    <path class="cls-2" d="m223.88,142.1c-.38,0-.74-.21-.91-.58-.23-.5-.01-1.1.49-1.33,2.93-1.35,5.92-4.46,8.89-9.25.29-.47.91-.61,1.38-.32.47.29.61.91.32,1.38-3.18,5.12-6.46,8.48-9.75,10-.14.06-.28.09-.42.09Z"/>
    <path class="cls-2" d="m178.23,163.94c-2.5,0-5.15-.44-7.96-1.32-.53-.17-.82-.73-.65-1.25.17-.53.73-.82,1.25-.65,6.82,2.15,12.63,1.47,17.26-2.03,8.94-6.75,13.28-23.59,12.56-48.71-.01-.53.38-.97.9-1.02.52-.05,1,.31,1.08.83,2.93,17.69,9.61,30.19,16.63,31.12.55.07.93.57.86,1.12-.07.55-.56.94-1.12.86-7.72-1.02-13.17-11.6-16.33-23.43-.55,20.56-5.12,34.58-13.37,40.82-3.23,2.44-6.95,3.67-11.11,3.67Z"/>
    <path class="cls-2" d="m184.54,188.31c-.12,0-.24-.02-.36-.07-.37-.14-.62-.48-.64-.88-.05-.8-1.04-19.7,5.98-27.89.26-.3.66-.42,1.04-.31.38.11.66.43.71.82,2.76,19.06-5.67,27.67-6.03,28.03-.19.19-.45.29-.7.29Zm5.06-25.47c-3.64,6.26-4.12,16.57-4.12,21.54,2.06-3.3,5.19-10.33,4.12-21.54Z"/>
    <path class="cls-2" d="m196.83,171.81c-.06,0-.12,0-.19-.02-.41-.08-.72-.4-.8-.8-.14-.75-3.26-18.38,2.69-29.36.19-.36.59-.56.99-.52.4.04.74.33.85.72,4.89,17-2.38,29-2.7,29.51-.18.3-.51.47-.85.47Zm2.31-26.7c-2.86,7.48-2.32,17.26-1.77,22.27,1.66-4.08,3.95-12.15,1.77-22.27Z"/>
    <path class="cls-2" d="m184.02,162.22s-.04,0-.06,0c-8.39-.47-11.12-18.9-11.23-19.69-.04-.27.04-.55.21-.76.17-.21.42-.35.7-.37.11-.01,2.62-.2,5.26,2.09,3.59,3.11,5.64,9.06,6.12,17.68.02.28-.09.56-.29.76-.19.19-.44.29-.71.29Zm-9.1-18.69c.91,5.11,3.53,14.78,8.01,16.45-.7-9.05-3.23-13.11-5.28-14.92-1.04-.92-2.02-1.34-2.74-1.52Z"/>
    <path class="cls-2" d="m192.1,154.84c-.99,0-1.96-.26-2.92-.79-5.49-3.03-8.39-14.15-8.51-14.62-.12-.47.11-.95.54-1.15.12-.05,2.9-1.32,6.04.35,3.66,1.95,6.13,6.93,7.36,14.8.08.49-.21.95-.68,1.11-.61.2-1.23.3-1.83.3Zm-9.23-14.98c.79,2.66,3.37,10.29,7.28,12.44.77.43,1.55.6,2.33.52-1.44-8.25-4.11-11.3-6.13-12.4-1.4-.76-2.69-.71-3.48-.56Z"/>
    <path class="cls-2" d="m194.63,136.12c-4.93,0-8.91-5.28-9.08-5.51-.24-.33-.26-.77-.05-1.12.14-.23,3.39-5.45,7.91-5.45.07,0,.14,0,.21,0,2.95.11,5.61,2.41,7.91,6.84.17.33.14.73-.07,1.04-1.94,2.75-4.21,4.16-6.75,4.19-.03,0-.06,0-.09,0Zm-7.03-6.16c1.07,1.24,3.92,4.16,7.03,4.16.02,0,.04,0,.07,0,1.72-.02,3.32-.98,4.77-2.85-1.86-3.39-3.84-5.14-5.91-5.22-2.69-.06-5.05,2.68-5.96,3.92Z"/>
    <path class="cls-2" d="m215.05,164.93c-.36,0-.69-.19-.87-.51-.3-.52-7.22-12.92-4.25-27.78.08-.38.36-.68.74-.77.37-.1.77.04,1.02.33,8.46,10.28,4.52,27.24,4.34,27.96-.1.4-.43.7-.83.76-.05,0-.09,0-.14,0Zm-3.55-25.54c-1.18,9.14,1.42,17.2,3.11,21.26.65-4.8,1.21-14.29-3.11-21.26Z"/>
  </g>

<!--
<%%%%|==========>

Ты успешно преодолел все испытания, путник.
Позволь себе отдохнуть, ведь ты поистине проявил выдающиеся усилия.
Теперь тебе открыта самая ценная возможность - объединить людей, стремящихся к общим целям.
Вот ссылка, чтобы ты смог присоединиться к нашему сообществу первым:

https://laravel.su/146q447w424c/auth/login (Не актуально)

UPD: Событие успешно завершено и продолжалось более 24 часов.
Мы открыли веб-сайт для всех пользователей.
Если вы начали это испытание, но не успели завершить его,
то мы добавили специальную ссылку (на некоторое время) для вручения вам заслуженного достижения.

https://laravel.su/goronich/open/146q447w424c

Надеемся, что вы действовали честно и достойны этой награды.

Хотите ещё немного игры? Переходите по https://laravel.su/hangman

<%%%%|==========>
-->
</svg>
