<svg fill="none" height="221" viewBox="0 0 327 221" width="327" xmlns="http://www.w3.org/2000/svg">

    <style>
        :root { fill:#222 }
        .accent { fill: #f9322c; }

        @media (prefers-color-scheme: dark) {
        :root {  fill: #f9322c; }
        .accent { fill:#dee2e6; }
        }
    </style>

    <path d="m282.203 154.018h-28.236v7.533h28.236z" class="accent"/>
    <path
        d="m221.095 76.6197v-64.1885c0-3.7724-3.086-6.85893-6.859-6.85893h-205.09432c-3.77243 0-6.85897 3.08653-6.85897 6.85893v134.7268c0 3.773 3.08654 6.859 6.85897 6.859h200.11632l-.446-5.521 9.488-2.338-10.265-1.84 7.893-45.0008s-1.423-1.0289-9.014-.8803c-7.59.1487-9.951-4.9155-7.442-15.4669 1.932-8.1279 11.358-7.4592 21.629-6.3503zm-123.547-25.3096c0-1.2231.9889-2.212 2.2121-2.212h27.6419c1.223 0 2.212.9889 2.212 2.212v3.0237c0 1.2232-.989 2.212-2.212 2.212h-27.6419c-1.2232 0-2.2121-.9888-2.2121-2.212zm14.061 17.9991c-1.223 0-2.212-.9888-2.212-2.212v-3.0237c0-1.2232.989-2.212 2.212-2.212h5.721c1.224 0 2.212.9888 2.212 2.212v3.0237c0 1.2232-.988 2.212-2.212 2.212zm2.606 7.5391v3.0237c0 1.2232-.989 2.212-2.212 2.212h-10.534c-1.223 0-2.2119-.9888-2.2119-2.212v-3.0237c0-1.2231.9889-2.212 2.2119-2.212h10.534c1.223 0 2.212.9889 2.212 2.212zm3.504 0c0-1.2231.989-2.212 2.212-2.212h5.762c1.223 0 2.212.9889 2.212 2.212v3.0237c0 1.2232-.989 2.212-2.212 2.212h-5.762c-1.223 0-2.212-.9888-2.212-2.212zm-36.6439 43.1777c-4.1497 0-7.5163-3.367-7.5163-7.517v-24.9721c0-2.2292-.9888-4.344-2.7036-5.773l-4.0811-3.4009 4.0811-3.4009c1.7148-1.4289 2.7036-3.5438 2.7036-5.7729v-24.9724c0-4.1497 3.3666-7.5163 7.5163-7.5163h7.1505s-7.5163 3.3666-7.5163 7.5163v24.9724c0 2.2291-.9889 4.344-2.7036 5.7729l-4.0811 3.4009 4.0811 3.4009c1.7147 1.429 2.7036 3.5438 2.7036 5.773v24.9721c0 4.15 3.3666 7.517 7.5163 7.517zm6.7561-52.9231v-3.0237c0-1.2231.9888-2.212 2.212-2.212h13.6438c1.223 0 2.212.9889 2.212 2.212v3.0237c0 1.2232-.989 2.212-2.212 2.212h-13.6438c-1.2232 0-2.212-.9888-2.212-2.212zm4.001 25.5382v-3.0236c0-1.2232.9889-2.2121 2.2121-2.2121h9.6427c1.223 0 2.212.9889 2.212 2.2121v3.0236c0 1.2232-.989 2.212-2.212 2.212h-9.6427c-1.2232 0-2.2121-.9888-2.2121-2.212zm22.3828 12.7689c0 1.223-.989 2.212-2.212 2.212h-12.2487c-1.2231 0-2.212-.989-2.212-2.212v-3.023c0-1.224.9889-2.212 2.212-2.212h12.2487c1.223 0 2.212.988 2.212 2.212zm15.399 0c0 1.223-.989 2.212-2.212 2.212h-7.477c-1.223 0-2.212-.989-2.212-2.212v-3.023c0-1.224.989-2.212 2.212-2.212h7.477c1.223 0 2.212.988 2.212 2.212zm5.715-12.7689c0 1.2232-.988 2.212-2.212 2.212h-21.508c-1.223 0-2.212-.9888-2.212-2.212v-3.0236c0-1.2232.989-2.2121 2.212-2.2121h21.508c1.224 0 2.212.9889 2.212 2.2121zm1.79-23.3262h-11.866c-1.224 0-2.212-.9888-2.212-2.212v-3.0237c0-1.2231.988-2.212 2.212-2.212h11.866c1.223 0 2.212.9889 2.212 2.212v3.0237c0 1.2232-.989 2.212-2.212 2.212zm19.188 12.449c-1.715 1.429-2.704 3.5438-2.704 5.773v24.9721c0 4.15-3.367 7.517-7.516 7.517h-7.151c4.15 0 7.516-3.367 7.516-7.517v-24.9721c0-2.2292.989-4.344 2.704-5.773l4.081-3.4009-4.081-3.4009c-1.715-1.4289-2.704-3.5438-2.704-5.7729v-24.9724c0-4.1497-7.516-7.5163-7.516-7.5163h7.151c4.149 0 7.516 3.3666 7.516 7.5163v24.9724c0 2.2291.989 4.344 2.704 5.7729l4.081 3.4009z"
        class="accent"/>
    <path d="m238.477 124.227h-8.602l13.363 18.662-13.363 18.662h8.602l13.364-18.662z" class="accent"/>
    <g>
        <path
            d="m211.996 151.971h-199.0074c-4.25261 0-7.71638-3.463-7.71638-7.716v-136.36191c0-4.25255 3.46377-7.716332 7.71638-7.716332h205.7574c4.253 0 7.716 3.463782 7.716 7.716332v66.37761c0 .4744-.383.8574-.857.8574s-.857-.383-.857-.8574v-66.37761c0-3.30945-2.692-6.00159-6.002-6.00159h-205.7574c-3.3095 0-6.00164 2.69214-6.00164 6.00159v136.36191c0 3.309 2.69214 6.002 6.00164 6.002h199.0074c.474 0 .857.383.857.857s-.383.857-.857.857z"/>
        <path
            d="m211.121 141.037h-188.4498c-4.2526 0-7.7164-3.463-7.7164-7.716v-114.4933c0-4.2526 3.4638-7.7164 7.7164-7.7164h186.3928c4.252 0 7.716 3.4638 7.716 7.7164v54.6774c0 .4744-.383.8573-.857.8573-.475 0-.858-.3829-.858-.8573v-54.6774c0-3.3095-2.692-6.0016-6.001-6.0016h-186.3928c-3.3095 0-6.0016 2.6921-6.0016 6.0016v114.4933c0 3.309 2.6921 6.002 6.0016 6.002h188.4498c.475 0 .858.383.858.857s-.383.857-.858.857z"/>
        <path
            d="m95.0961 151.971h-88.12061c-3.80672 0-6.9046892-3.098-6.9046892-6.904v-137.98555c0-3.80672 3.0979692-6.904692 6.9046892-6.904692h88.12061c.4744 0 .8573.382959.8573.857372 0 .47441-.3829.85737-.8573.85737h-88.12061c-2.8579 0-5.18995 2.32633-5.18995 5.18995v137.98555c0 2.858 2.32634 5.19 5.18995 5.19h88.12061c.4744 0 .8573.383.8573.857s-.3829.857-.8573.857z"/>
        <path
            d="m115.867 181.556h-32.7283c-.4059 0-.7488-.28-.8346-.674-.0857-.395.1144-.795.4802-.96.1829-.086 18.1477-8.574 18.1477-28.802 0-.475.383-.858.857-.858.475 0 .858.383.858.858 0 16.232-10.9518 25.281-16.2903 28.727h29.5163c.474 0 .857.383.857.858 0 .474-.383.857-.857.857z"/>
        <path
            d="m115.867 187.769h-50.8245c-2.1892 0-3.9668-1.777-3.9668-3.966s1.7776-3.967 3.9668-3.967h50.8245c.475 0 .858.383.858.857 0 .475-.383.858-.858.858h-50.8245c-1.2404 0-2.2521 1.011-2.2521 2.252 0 1.24 1.0117 2.252 2.2521 2.252h50.8245c.475 0 .858.383.858.857 0 .475-.383.857-.858.857z"/>
        <path
            d="m148.602 181.557h-32.729c-.474 0-.857-.383-.857-.858 0-.474.383-.857.857-.857h29.516c-5.338-3.447-16.29-12.495-16.29-28.728 0-.474.383-.857.858-.857.474 0 .857.383.857.857 0 20.234 17.965 28.722 18.148 28.802.366.166.566.572.48.96-.086.389-.434.675-.835.675z"/>
        <path
            d="m166.698 187.769h-50.825c-.474 0-.857-.382-.857-.857 0-.474.383-.857.857-.857h50.825c1.24 0 2.252-1.012 2.252-2.252 0-1.241-1.012-2.252-2.252-2.252h-50.825c-.474 0-.857-.383-.857-.858 0-.474.383-.857.857-.857h50.825c2.189 0 3.967 1.778 3.967 3.967s-1.778 3.966-3.967 3.966z"/>
        <path
            d="m225.519 218.469c-.503 0-1.017-.057-1.532-.188-4.521-1.132-7.899-7.408-10.031-18.663-3.189-16.815-2.795-53.505-2.789-53.871 0-.28.143-.543.377-.697l3.67-2.481-4.424-1.915c-.32-.137-.52-.451-.515-.8.006-.446.212-11.014 4.024-20.251 3.012-7.305 4.161-27.5675.595-37.7816h-8.78c2.298 1.7719 3.475 4.0753 3.241 6.5103-.263 2.7378-2.338 5.0184-5.167 5.6758-3.252.7545-6.733-.0915-9.083-2.2063-2.172-1.9548-3.155-4.8013-2.76-8.0193.491-4.0239 3.858-7.9678 8.368-9.8198 4.315-1.7719 8.739-1.246 12.134 1.4461 1.338 1.0575 2.418 2.8065 3.276 5.0185.114.1372.182.3144.188.5087 3.881 10.7686 2.772 31.5626-.429 39.3186-3.195 7.745-3.778 16.736-3.875 19.057l5.322 2.303c.285.126.485.395.514.709.029.315-.114.617-.372.789l-4.589 3.104c-.035 4.246-.206 37.438 2.76 53.088 2.492 13.124 6.139 16.662 8.763 17.319 3.669.914 7.407-3.138 8.842-4.927 1.343-1.675 1.881-3.532 1.549-5.379-.011-.074-.029-.143-.046-.217-.137.097-.297.154-.474.16l-11.866.332c-.252.011-.492-.097-.657-.28-.166-.189-.246-.435-.218-.686.035-.252.829-6.236 4.116-7.842 1.377-.675 2.932-.503 4.618.497 3.481 2.075 5.693 4.818 6.213 7.728.423 2.343-.234 4.681-1.897 6.756-1.801 2.246-5.208 5.704-9.06 5.704zm1.869-19.371c-.354 0-.68.075-.988.229-1.687.823-2.613 3.704-2.996 5.521l10.798-.303c-.863-1.766-2.521-3.423-4.813-4.789-.737-.441-1.4-.658-1.995-.658zm-21.663-124.4557c-1.428 0-2.903.2972-4.366.8974-3.893 1.5947-6.905 5.0699-7.317 8.4422-.417 3.3952.972 5.4301 2.201 6.5389 1.915 1.7205 4.876 2.435 7.551 1.8119 2.109-.4915 3.652-2.1663 3.846-4.1668.24-2.5092-1.634-4.9099-5.024-6.4188-.371-.1658-.572-.5659-.491-.9603.08-.3944.434-.6802.84-.6802h11.226c-.675-1.4518-1.475-2.6064-2.424-3.3551-1.755-1.3947-3.847-2.1035-6.047-2.1035z"/>
        <path
            d="m217.752 94.2533h-15.547c-.475 0-.858-.3829-.858-.8574 0-.4744.383-.8573.858-.8573h15.547c.474 0 .857.3829.857.8573 0 .4745-.383.8574-.857.8574z"/>
        <path
            d="m313.211 200.356c-.348 0-.68-.218-.806-.566l-4.412-12.118-5.922-.949c-.343-.057-.617-.308-.697-.646-.08-.337.051-.691.331-.891l5.43-3.938c-.445-3.904-3.292-29.757-3.16-47.327.114-14.936 3.046-26.453 4.984-34.0721.548-2.1492 1.017-4.0068 1.309-5.4872.846-4.3326-.498-9.9798-3.19-13.4379-1.166-1.4918-3.166-3.3037-6.081-3.458-3.058-.1658-8.614.6059-14.501 1.4175-8.871 1.2232-18.931 2.6064-24.453 1.4461-9.568-2.0063-40.856-6.2302-56.563-5.6987-.469.0286-.869-.3543-.886-.8288-.017-.4744.354-.8688.829-.8859 15.838-.5487 47.344 3.7153 56.975 5.7329 5.23 1.0975 15.129-.2686 23.863-1.4689 6.225-.8574 11.603-1.5947 14.821-1.429 2.818.1486 5.356 1.5719 7.345 4.1154 2.978 3.8125 4.458 10.0427 3.521 14.8211-.297 1.5261-.777 3.4066-1.332 5.5785-1.92 7.539-4.818 18.937-4.927 33.666-.143 18.845 3.173 47.327 3.207 47.613.034.309-.097.611-.349.794l-4.161 3.018 4.378.698c.309.051.566.263.669.554l4.584 12.592c.16.446-.068.937-.514 1.097-.097.035-.195.052-.292.052z"/>
        <path
            d="m254.35 220.572c-13.73 0-27.973-1.503-30.614-2.309-.452-.137-.709-.617-.572-1.069.138-.451.618-.708 1.069-.571 3.653 1.12 32.129 3.686 47.178 1.103 6.894-1.183 16.862-.835 26.493-.503 11.14.383 22.658.783 25.487-1.635 3.269-2.801 1.612-10.305-.966-14.244-.509-.771-2.275-3.235-3.795-2.503-4.847 2.349-36.679 6.899-47.316 5.698-3.212-.36-6.784-1.12-10.923-1.994-9.071-1.921-20.359-4.31-33.311-3.43-.469.04-.881-.326-.915-.794-.034-.475.326-.881.795-.915 13.203-.903 24.612 1.521 33.786 3.464 4.092.869 7.625 1.618 10.757 1.966 10.123 1.143 41.771-3.309 46.378-5.538 1.903-.926 4.081.211 5.979 3.109 2.92 4.464 4.83 12.901.646 16.484-3.333 2.858-14.147 2.481-26.659 2.047-9.551-.332-19.422-.675-26.144.48-4.898.84-11.077 1.154-17.359 1.154z"/>
        <path
            d="m241.278 204.728h-5.945c-.474 0-.857-.383-.857-.857s.383-.857.857-.857h5.945c.474 0 .857.383.857.857s-.383.857-.857.857z"/>
        <path
            d="m240.186 210.907h-4.979c-.474 0-.857-.383-.857-.857 0-.475.383-.858.857-.858h4.979c.474 0 .857.383.857.858 0 .474-.383.857-.857.857z"/>
        <path
            d="m325.7 213.285h-18.222c-.474 0-.857-.383-.857-.858 0-.474.383-.857.857-.857h18.222c.475 0 .858.383.858.857 0 .475-.383.858-.858.858z"/>
        <path
            d="m324.934 207.592h-5.252c-.475 0-.858-.383-.858-.858 0-.474.383-.857.858-.857h5.252c.475 0 .858.383.858.857 0 .475-.383.858-.858.858z"/>
        <path
            d="m213.916 90.8178h-5.887c-.474 0-.857-.383-.857-.8574s.383-.8574.857-.8574h5.887c.475 0 .858.383.858.8574s-.383.8574-.858.8574z"/>
        <path
            d="m197.026 83.0902h-2.698c-.474 0-.857-.3829-.857-.8573 0-.4745.383-.8574.857-.8574h2.698c.474 0 .857.3829.857.8574 0 .4744-.383.8573-.857.8573z"/>
        <path
            d="m203.519 87.8002h-9.339c-.475 0-.858-.383-.858-.8574s.383-.8574.858-.8574h9.339c.475 0 .858.383.858.8574s-.383.8574-.858.8574z"/>
        <path
            d="m233.984 101.226h-15.69c-.474 0-.857-.382-.857-.857 0-.4743.383-.8573.857-.8573h15.69c.475 0 .858.383.858.8573 0 .475-.383.857-.858.857z"/>
        <path
            d="m310.673 87.3427h-12.403c-.474 0-.857-.383-.857-.8574s.383-.8574.857-.8574h12.403c.475 0 .858.383.858.8574s-.383.8574-.858.8574z"/>
        <path
            d="m304.466 137.476h-15.25c-.474 0-.857-.383-.857-.857 0-.475.383-.858.857-.858h15.25c.474 0 .857.383.857.858 0 .474-.383.857-.857.857z"/>
        <path
            d="m305.009 144.712h-7.693c-.475 0-.858-.383-.858-.857s.383-.857.858-.857h7.693c.474 0 .857.383.857.857s-.383.857-.857.857z"/>
        <path
            d="m268.073 212.953c-.468 0-.851-.377-.857-.851 0-.475.377-.864.852-.864 3.166-.028 8.511-.577 13.226-1.063 3.721-.383 6.916-.703 8.197-.686.474.012.851.401.84.875-.012.469-.389.84-.858.84h-.017c-1.143-.023-4.475.32-7.99.68-4.75.486-10.14 1.041-13.387 1.075h-.006z"/>
        <path
            d="m90.5119 118.597h-7.1505c-4.6183 0-8.3736-3.755-8.3736-8.374v-24.9721c0-1.9834-.8745-3.8468-2.3949-5.1157l-4.0811-3.4009c-.1944-.1657-.3087-.4058-.3087-.6573s.1143-.4973.3087-.6573l4.0811-3.4009c1.5204-1.2689 2.3949-3.1323 2.3949-5.1157v-24.9723c0-4.6184 3.7553-8.3737 8.3736-8.3737h7.1505c.4058 0 .7545.2801.8402.6802.0858.3944-.12.7945-.4858.9603-1.9491.8745-7.0076 3.7895-7.0076 6.7332v24.9723c0 2.4921-1.0974 4.8356-3.0122 6.4303l-3.2923 2.7436 3.2923 2.7436c1.9148 1.5947 3.0122 3.9382 3.0122 6.4303v24.9721c0 3.67 2.9894 6.659 6.6589 6.659.4744 0 .8574.383.8574.858 0 .474-.383.857-.8574.857zm-20.1139-42.52 3.2923 2.7436c1.9148 1.5947 3.0122 3.9382 3.0122 6.4303v24.9721c0 3.67 2.9894 6.659 6.6589 6.659h2.0806c-2.0063-1.532-3.3037-3.944-3.3037-6.659v-24.9721c0-1.9834-.8746-3.8468-2.395-5.1157l-4.081-3.4009c-.1944-.1657-.3087-.4058-.3087-.6573s.1143-.4973.3087-.6573l4.081-3.4009c1.5204-1.2689 2.395-3.1323 2.395-5.1157v-24.9723c0-2.795 2.7778-5.1728 5.0642-6.6589h-3.8411c-3.6695 0-6.6589 2.9893-6.6589 6.6589v24.9723c0 2.4921-1.0974 4.8356-3.0122 6.4303z"/>
        <path
            d="m76.211 76.9286h-7.1505c-.4744 0-.8574-.383-.8574-.8574s.383-.8573.8574-.8573h7.1505c.4744 0 .8573.3829.8573.8573s-.3829.8574-.8573.8574z"/>
        <path
            d="m148.373 118.597h-7.15c-.475 0-.858-.383-.858-.857 0-.475.383-.858.858-.858 3.669 0 6.659-2.989 6.659-6.659v-24.9721c0-2.4921 1.097-4.8356 3.012-6.4303l3.292-2.7436-3.292-2.7436c-1.915-1.5947-3.012-3.9382-3.012-6.4303v-24.9723c0-2.9437-5.059-5.8587-7.008-6.7332-.372-.1658-.572-.5659-.486-.9603s.435-.6802.84-.6802h7.151c4.618 0 8.373 3.7553 8.373 8.3737v24.9723c0 1.9834.875 3.8468 2.395 5.1157l4.081 3.4009c.195.1657.309.4058.309.6573s-.114.4973-.309.6573l-4.081 3.4009c-1.52 1.2689-2.395 3.1323-2.395 5.1157v24.9721c0 4.619-3.755 8.374-8.373 8.374zm-2.08-1.715h2.08c3.67 0 6.659-2.989 6.659-6.659v-24.9721c0-2.4921 1.097-4.8356 3.012-6.4303l3.293-2.7436-3.293-2.7436c-1.915-1.5947-3.012-3.9382-3.012-6.4303v-24.9723c0-3.6696-2.989-6.6589-6.659-6.6589h-3.841c2.286 1.4861 5.064 3.8639 5.064 6.6589v24.9723c0 1.9834.875 3.8468 2.395 5.1157l4.081 3.4009c.195.1657.309.4058.309.6573s-.114.4973-.309.6573l-4.081 3.4009c-1.52 1.2689-2.395 3.1323-2.395 5.1157v24.9721c0 2.715-1.297 5.127-3.303 6.659z"/>
        <path
            d="m162.674 76.9286h-7.151c-.474 0-.857-.383-.857-.8574s.383-.8573.857-.8573h7.151c.474 0 .857.3829.857.8573s-.383.8574-.857.8574z"/>
        <path
            d="m129.688 55.1112h-27.642c-1.691 0-3.0689-1.3775-3.0689-3.0694v-3.0237c0-1.6919 1.3779-3.0694 3.0689-3.0694h27.642c1.692 0 3.069 1.3775 3.069 3.0694v3.0237c0 1.6919-1.377 3.0694-3.069 3.0694zm-27.642-7.442c-.748 0-1.354.6059-1.354 1.3546v3.0237c0 .743.606 1.3546 1.354 1.3546h27.642c.749 0 1.355-.6058 1.355-1.3546v-3.0237c0-.743-.606-1.3546-1.355-1.3546z"/>
        <path
            d="m105.973 67.8802h-13.6434c-1.6918 0-3.0693-1.3775-3.0693-3.0694v-3.0236c0-1.6919 1.3775-3.0694 3.0693-3.0694h13.6434c1.692 0 3.07 1.3775 3.07 3.0694v3.0236c0 1.6919-1.378 3.0694-3.07 3.0694zm-13.6434-7.442c-.7487 0-1.3546.6059-1.3546 1.3547v3.0236c0 .7488.6059 1.3547 1.3546 1.3547h13.6434c.749 0 1.355-.6059 1.355-1.3547v-3.0236c0-.7488-.606-1.3547-1.355-1.3547z"/>
        <path
            d="m119.623 67.8802h-5.722c-1.692 0-3.069-1.3775-3.069-3.0694v-3.0236c0-1.6919 1.377-3.0694 3.069-3.0694h5.722c1.692 0 3.069 1.3775 3.069 3.0694v3.0236c0 1.6919-1.377 3.0694-3.069 3.0694zm-5.722-7.442c-.743 0-1.354.6059-1.354 1.3547v3.0236c0 .7488.605 1.3547 1.354 1.3547h5.722c.743 0 1.354-.6059 1.354-1.3547v-3.0236c0-.7488-.606-1.3547-1.354-1.3547z"/>
        <path
            d="m139.405 67.8802h-11.866c-1.692 0-3.069-1.3775-3.069-3.0694v-3.0236c0-1.6919 1.377-3.0694 3.069-3.0694h11.866c1.692 0 3.07 1.3775 3.07 3.0694v3.0236c0 1.6919-1.378 3.0694-3.07 3.0694zm-11.866-7.442c-.743 0-1.355.6059-1.355 1.3547v3.0236c0 .7488.606 1.3547 1.355 1.3547h11.866c.749 0 1.355-.6059 1.355-1.3547v-3.0236c0-.7488-.606-1.3547-1.355-1.3547z"/>
        <path
            d="m127.974 80.6493h-5.762c-1.692 0-3.069-1.3776-3.069-3.0694v-3.0237c0-1.6919 1.377-3.0694 3.069-3.0694h5.762c1.691 0 3.069 1.3775 3.069 3.0694v3.0237c0 1.6918-1.378 3.0694-3.069 3.0694zm-5.762-7.442c-.743 0-1.355.6058-1.355 1.3546v3.0237c0 .7487.606 1.3546 1.355 1.3546h5.762c.748 0 1.354-.6059 1.354-1.3546v-3.0237c0-.7488-.606-1.3546-1.354-1.3546z"/>
        <path
            d="m114.296 80.6493h-10.535c-1.692 0-3.069-1.3776-3.069-3.0694v-3.0237c0-1.6919 1.377-3.0694 3.069-3.0694h10.535c1.691 0 3.069 1.3775 3.069 3.0694v3.0237c0 1.6918-1.378 3.0694-3.069 3.0694zm-10.535-7.442c-.748 0-1.354.6058-1.354 1.3546v3.0237c0 .7487.606 1.3546 1.354 1.3546h10.535c.743 0 1.354-.6059 1.354-1.3546v-3.0237c0-.7488-.606-1.3546-1.354-1.3546z"/>
        <path
            d="m105.973 93.4183h-9.6424c-1.6919 0-3.0694-1.3775-3.0694-3.0694v-3.0237c0-1.6918 1.3775-3.0693 3.0694-3.0693h9.6424c1.692 0 3.07 1.3775 3.07 3.0693v3.0237c0 1.6919-1.378 3.0694-3.07 3.0694zm-9.6424-7.442c-.7487 0-1.3546.6059-1.3546 1.3547v3.0236c0 .7488.6059 1.3547 1.3546 1.3547h9.6424c.749 0 1.355-.6059 1.355-1.3547v-3.0236c0-.7488-.606-1.3547-1.355-1.3547z"/>
        <path
            d="m135.404 93.4183h-21.509c-1.692 0-3.069-1.3775-3.069-3.0694v-3.0237c0-1.6918 1.377-3.0693 3.069-3.0693h21.509c1.692 0 3.069 1.3775 3.069 3.0693v3.0237c0 1.6919-1.377 3.0694-3.069 3.0694zm-21.509-7.442c-.743 0-1.354.6059-1.354 1.3547v3.0236c0 .7488.606 1.3547 1.354 1.3547h21.509c.749 0 1.355-.6059 1.355-1.3547v-3.0236c0-.7488-.606-1.3547-1.355-1.3547z"/>
        <path
            d="m114.295 106.188h-12.249c-1.691 0-3.0689-1.378-3.0689-3.07v-3.023c0-1.6921 1.3779-3.0696 3.0689-3.0696h12.249c1.692 0 3.07 1.3775 3.07 3.0696v3.023c0 1.692-1.378 3.07-3.07 3.07zm-12.249-7.4421c-.748 0-1.354.6058-1.354 1.3541v3.024c0 .749.606 1.355 1.354 1.355h12.249c.743 0 1.355-.606 1.355-1.355v-3.024c0-.7483-.606-1.3541-1.355-1.3541z"/>
        <path
            d="m129.688 106.188h-7.476c-1.692 0-3.07-1.378-3.07-3.07v-3.023c0-1.6921 1.378-3.0696 3.07-3.0696h7.476c1.692 0 3.069 1.3775 3.069 3.0696v3.023c0 1.692-1.377 3.07-3.069 3.07zm-7.476-7.4421c-.743 0-1.355.6058-1.355 1.3541v3.024c0 .749.606 1.355 1.355 1.355h7.476c.749 0 1.355-.606 1.355-1.355v-3.024c0-.7483-.606-1.3541-1.355-1.3541z"/>
        <path
            d="m240.192 160.694h-8.603c-.32 0-.617-.177-.76-.463s-.12-.629.063-.892l13.004-18.165-13.004-18.165c-.188-.262-.211-.605-.063-.891.149-.286.44-.463.76-.463h8.603c.274 0 .537.131.697.36l13.364 18.662c.211.297.211.697 0 1l-13.364 18.662c-.16.223-.423.36-.697.36zm-6.934-1.715h6.494l12.746-17.805-12.746-17.804h-6.494l12.392 17.307c.212.297.212.697 0 1l-12.392 17.308z"/>
        <path
            d="m283.958 160.693h-28.236c-.475 0-.858-.382-.858-.857v-7.533c0-.475.383-.858.858-.858h28.236c.474 0 .857.383.857.858v7.533c0 .475-.383.857-.857.857zm-27.379-1.714h26.521v-5.819h-26.521z"/>
    </g>
</svg>
