<svg width="327" height="221" viewBox="0 0 327 221" fill="none" xmlns="http://www.w3.org/2000/svg">
<path d="M282.203 154.018H253.967V161.551H282.203V154.018Z" fill="#FF3939"/>
<path d="M221.095 76.6197V12.4312C221.095 8.6588 218.009 5.57227 214.236 5.57227H9.14168C5.36925 5.57227 2.28271 8.6588 2.28271 12.4312V147.158C2.28271 150.931 5.36925 154.017 9.14168 154.017H209.258L208.812 148.496L218.3 146.158L208.035 144.318L215.928 99.3172C215.928 99.3172 214.505 98.2883 206.914 98.4369C199.324 98.5856 196.963 93.5214 199.472 82.97C201.404 74.8421 210.83 75.5108 221.101 76.6197H221.095ZM97.548 51.3101C97.548 50.087 98.5369 49.0981 99.7601 49.0981H127.402C128.625 49.0981 129.614 50.087 129.614 51.3101V54.3338C129.614 55.557 128.625 56.5458 127.402 56.5458H99.7601C98.5369 56.5458 97.548 55.557 97.548 54.3338V51.3101ZM111.609 69.3092C110.386 69.3092 109.397 68.3204 109.397 67.0972V64.0735C109.397 62.8503 110.386 61.8615 111.609 61.8615H117.33C118.554 61.8615 119.542 62.8503 119.542 64.0735V67.0972C119.542 68.3204 118.554 69.3092 117.33 69.3092H111.609ZM114.215 76.8483V79.872C114.215 81.0952 113.226 82.084 112.003 82.084H101.469C100.246 82.084 99.2571 81.0952 99.2571 79.872V76.8483C99.2571 75.6252 100.246 74.6363 101.469 74.6363H112.003C113.226 74.6363 114.215 75.6252 114.215 76.8483ZM117.719 76.8483C117.719 75.6252 118.708 74.6363 119.931 74.6363H125.693C126.916 74.6363 127.905 75.6252 127.905 76.8483V79.872C127.905 81.0952 126.916 82.084 125.693 82.084H119.931C118.708 82.084 117.719 81.0952 117.719 79.872V76.8483ZM81.0751 120.026C76.9254 120.026 73.5588 116.659 73.5588 112.509V87.5369C73.5588 85.3077 72.57 83.1929 70.8552 81.7639L66.7741 78.363L70.8552 74.9621C72.57 73.5332 73.5588 71.4183 73.5588 69.1892V44.2168C73.5588 40.0671 76.9254 36.7005 81.0751 36.7005H88.2256C88.2256 36.7005 80.7093 40.0671 80.7093 44.2168V69.1892C80.7093 71.4183 79.7204 73.5332 78.0057 74.9621L73.9246 78.363L78.0057 81.7639C79.7204 83.1929 80.7093 85.3077 80.7093 87.5369V112.509C80.7093 116.659 84.0759 120.026 88.2256 120.026H81.0751ZM87.8312 67.1029V64.0792C87.8312 62.8561 88.82 61.8672 90.0432 61.8672H103.687C104.91 61.8672 105.899 62.8561 105.899 64.0792V67.1029C105.899 68.3261 104.91 69.3149 103.687 69.3149H90.0432C88.82 69.3149 87.8312 68.3261 87.8312 67.1029ZM91.8322 92.6411V89.6175C91.8322 88.3943 92.8211 87.4054 94.0443 87.4054H103.687C104.91 87.4054 105.899 88.3943 105.899 89.6175V92.6411C105.899 93.8643 104.91 94.8531 103.687 94.8531H94.0443C92.8211 94.8531 91.8322 93.8643 91.8322 92.6411ZM114.215 105.41C114.215 106.633 113.226 107.622 112.003 107.622H99.7543C98.5312 107.622 97.5423 106.633 97.5423 105.41V102.387C97.5423 101.163 98.5312 100.175 99.7543 100.175H112.003C113.226 100.175 114.215 101.163 114.215 102.387V105.41ZM129.614 105.41C129.614 106.633 128.625 107.622 127.402 107.622H119.925C118.702 107.622 117.713 106.633 117.713 105.41V102.387C117.713 101.163 118.702 100.175 119.925 100.175H127.402C128.625 100.175 129.614 101.163 129.614 102.387V105.41ZM135.329 92.6411C135.329 93.8643 134.341 94.8531 133.117 94.8531H111.609C110.386 94.8531 109.397 93.8643 109.397 92.6411V89.6175C109.397 88.3943 110.386 87.4054 111.609 87.4054H133.117C134.341 87.4054 135.329 88.3943 135.329 89.6175V92.6411ZM137.119 69.3149H125.253C124.029 69.3149 123.041 68.3261 123.041 67.1029V64.0792C123.041 62.8561 124.029 61.8672 125.253 61.8672H137.119C138.342 61.8672 139.331 62.8561 139.331 64.0792V67.1029C139.331 68.3261 138.342 69.3149 137.119 69.3149ZM156.307 81.7639C154.592 83.1929 153.603 85.3077 153.603 87.5369V112.509C153.603 116.659 150.236 120.026 146.087 120.026H138.936C143.086 120.026 146.452 116.659 146.452 112.509V87.5369C146.452 85.3077 147.441 83.1929 149.156 81.7639L153.237 78.363L149.156 74.9621C147.441 73.5332 146.452 71.4183 146.452 69.1892V44.2168C146.452 40.0671 138.936 36.7005 138.936 36.7005H146.087C150.236 36.7005 153.603 40.0671 153.603 44.2168V69.1892C153.603 71.4183 154.592 73.5332 156.307 74.9621L160.388 78.363L156.307 81.7639Z" fill="#FF3939"/>
<path d="M238.477 124.227H229.875L243.238 142.889L229.875 161.551H238.477L251.841 142.889L238.477 124.227Z" fill="#FF3939"/>
<path d="M211.996 151.971H12.9886C8.73599 151.971 5.27222 148.508 5.27222 144.255V7.89309C5.27222 3.64054 8.73599 0.176758 12.9886 0.176758H218.746C222.999 0.176758 226.462 3.64054 226.462 7.89309V74.2707C226.462 74.7451 226.079 75.1281 225.605 75.1281C225.131 75.1281 224.748 74.7451 224.748 74.2707V7.89309C224.748 4.58364 222.056 1.8915 218.746 1.8915H12.9886C9.6791 1.8915 6.98696 4.58364 6.98696 7.89309V144.255C6.98696 147.564 9.6791 150.257 12.9886 150.257H211.996C212.47 150.257 212.853 150.64 212.853 151.114C212.853 151.588 212.47 151.971 211.996 151.971Z" fill="black"/>
<path d="M211.121 141.037H22.6712C18.4186 141.037 14.9548 137.574 14.9548 133.321V18.8277C14.9548 14.5751 18.4186 11.1113 22.6712 11.1113H209.064C213.316 11.1113 216.78 14.5751 216.78 18.8277V73.5051C216.78 73.9795 216.397 74.3624 215.923 74.3624C215.448 74.3624 215.065 73.9795 215.065 73.5051V18.8277C215.065 15.5182 212.373 12.8261 209.064 12.8261H22.6712C19.3617 12.8261 16.6696 15.5182 16.6696 18.8277V133.321C16.6696 136.63 19.3617 139.323 22.6712 139.323H211.121C211.596 139.323 211.979 139.706 211.979 140.18C211.979 140.654 211.596 141.037 211.121 141.037Z" fill="black"/>
<path d="M95.0961 151.971H6.97549C3.16877 151.971 0.0708008 148.873 0.0708008 145.067V7.08145C0.0708008 3.27473 3.16877 0.176758 6.97549 0.176758H95.0961C95.5705 0.176758 95.9534 0.559717 95.9534 1.03413C95.9534 1.50854 95.5705 1.8915 95.0961 1.8915H6.97549C4.11759 1.8915 1.78554 4.21783 1.78554 7.08145V145.067C1.78554 147.925 4.11188 150.257 6.97549 150.257H95.0961C95.5705 150.257 95.9534 150.64 95.9534 151.114C95.9534 151.588 95.5705 151.971 95.0961 151.971Z" fill="black"/>
<path d="M115.867 181.556H83.1387C82.7328 181.556 82.3899 181.276 82.3041 180.882C82.2184 180.487 82.4185 180.087 82.7843 179.922C82.9672 179.836 100.932 171.348 100.932 151.12C100.932 150.645 101.315 150.262 101.789 150.262C102.264 150.262 102.647 150.645 102.647 151.12C102.647 167.352 91.6952 176.401 86.3567 179.847H115.873C116.347 179.847 116.73 180.23 116.73 180.705C116.73 181.179 116.347 181.562 115.873 181.562L115.867 181.556Z" fill="black"/>
<path d="M115.867 187.769H65.0425C62.8533 187.769 61.0757 185.992 61.0757 183.803C61.0757 181.614 62.8533 179.836 65.0425 179.836H115.867C116.342 179.836 116.725 180.219 116.725 180.693C116.725 181.168 116.342 181.551 115.867 181.551H65.0425C63.8021 181.551 62.7904 182.562 62.7904 183.803C62.7904 185.043 63.8021 186.055 65.0425 186.055H115.867C116.342 186.055 116.725 186.438 116.725 186.912C116.725 187.387 116.342 187.769 115.867 187.769Z" fill="black"/>
<path d="M148.602 181.557H115.873C115.399 181.557 115.016 181.174 115.016 180.699C115.016 180.225 115.399 179.842 115.873 179.842H145.389C140.051 176.395 129.099 167.347 129.099 151.114C129.099 150.64 129.482 150.257 129.957 150.257C130.431 150.257 130.814 150.64 130.814 151.114C130.814 171.348 148.779 179.836 148.962 179.916C149.328 180.082 149.528 180.488 149.442 180.876C149.356 181.265 149.008 181.551 148.607 181.551L148.602 181.557Z" fill="black"/>
<path d="M166.698 187.769H115.873C115.399 187.769 115.016 187.387 115.016 186.912C115.016 186.438 115.399 186.055 115.873 186.055H166.698C167.938 186.055 168.95 185.043 168.95 183.803C168.95 182.562 167.938 181.551 166.698 181.551H115.873C115.399 181.551 115.016 181.168 115.016 180.693C115.016 180.219 115.399 179.836 115.873 179.836H166.698C168.887 179.836 170.665 181.614 170.665 183.803C170.665 185.992 168.887 187.769 166.698 187.769Z" fill="black"/>
<path d="M225.519 218.469C225.016 218.469 224.502 218.412 223.987 218.281C219.466 217.149 216.088 210.873 213.956 199.618C210.767 182.803 211.161 146.113 211.167 145.747C211.167 145.467 211.31 145.204 211.544 145.05L215.214 142.569L210.79 140.654C210.47 140.517 210.27 140.203 210.275 139.854C210.281 139.408 210.487 128.84 214.299 119.603C217.311 112.298 218.46 92.0355 214.894 81.8214H206.114C208.412 83.5933 209.589 85.8967 209.355 88.3317C209.092 91.0695 207.017 93.3501 204.188 94.0075C200.936 94.762 197.455 93.916 195.105 91.8012C192.933 89.8464 191.95 86.9999 192.345 83.7819C192.836 79.758 196.203 75.8141 200.713 73.9621C205.028 72.1902 209.452 72.7161 212.847 75.4082C214.185 76.4657 215.265 78.2147 216.123 80.4267C216.237 80.5639 216.305 80.7411 216.311 80.9354C220.192 91.704 219.083 112.498 215.882 120.254C212.687 127.999 212.104 136.99 212.007 139.311L217.329 141.614C217.614 141.74 217.814 142.009 217.843 142.323C217.872 142.638 217.729 142.94 217.471 143.112L212.882 146.216C212.847 150.462 212.676 183.654 215.642 199.304C218.134 212.428 221.781 215.966 224.405 216.623C228.074 217.537 231.812 213.485 233.247 211.696C234.59 210.021 235.128 208.164 234.796 206.317C234.785 206.243 234.767 206.174 234.75 206.1C234.613 206.197 234.453 206.254 234.276 206.26L222.41 206.592C222.158 206.603 221.918 206.495 221.753 206.312C221.587 206.123 221.507 205.877 221.535 205.626C221.57 205.374 222.364 199.39 225.651 197.784C227.028 197.109 228.583 197.281 230.269 198.281C233.75 200.356 235.962 203.099 236.482 206.009C236.905 208.352 236.248 210.69 234.585 212.765C232.784 215.011 229.377 218.469 225.525 218.469H225.519ZM227.388 199.098C227.034 199.098 226.708 199.173 226.4 199.327C224.713 200.15 223.787 203.031 223.404 204.848L234.202 204.545C233.339 202.779 231.681 201.122 229.389 199.756C228.652 199.315 227.989 199.098 227.394 199.098H227.388ZM205.725 74.6423C204.297 74.6423 202.822 74.9395 201.359 75.5397C197.466 77.1344 194.454 80.6096 194.042 83.9819C193.625 87.3771 195.014 89.412 196.243 90.5208C198.158 92.2413 201.119 92.9558 203.794 92.3327C205.903 91.8412 207.446 90.1664 207.64 88.1659C207.88 85.6567 206.006 83.256 202.616 81.7471C202.245 81.5813 202.044 81.1812 202.125 80.7868C202.205 80.3924 202.559 80.1066 202.965 80.1066H214.191C213.516 78.6548 212.716 77.5002 211.767 76.7515C210.012 75.3568 207.92 74.648 205.72 74.648L205.725 74.6423Z" fill="black"/>
<path d="M217.752 94.2533H202.205C201.73 94.2533 201.347 93.8704 201.347 93.3959C201.347 92.9215 201.73 92.5386 202.205 92.5386H217.752C218.226 92.5386 218.609 92.9215 218.609 93.3959C218.609 93.8704 218.226 94.2533 217.752 94.2533Z" fill="black"/>
<path d="M313.211 200.356C312.863 200.356 312.531 200.138 312.405 199.79L307.993 187.672L302.071 186.723C301.728 186.666 301.454 186.415 301.374 186.077C301.294 185.74 301.425 185.386 301.705 185.186L307.135 181.248C306.69 177.344 303.843 151.491 303.975 133.921C304.089 118.985 307.021 107.468 308.959 99.8489C309.507 97.6997 309.976 95.8421 310.268 94.3617C311.114 90.0291 309.77 84.3819 307.078 80.9238C305.912 79.432 303.912 77.6201 300.997 77.4658C297.939 77.3 292.383 78.0717 286.496 78.8833C277.625 80.1065 267.565 81.4897 262.043 80.3294C252.475 78.3231 221.187 74.0992 205.48 74.6307C205.011 74.6593 204.611 74.2764 204.594 73.8019C204.577 73.3275 204.948 72.9331 205.423 72.916C221.261 72.3673 252.767 76.6313 262.398 78.6489C267.628 79.7464 277.527 78.3803 286.261 77.18C292.486 76.3226 297.864 75.5853 301.082 75.751C303.9 75.8996 306.438 77.3229 308.427 79.8664C311.405 83.6789 312.885 89.9091 311.948 94.6875C311.651 96.2136 311.171 98.0941 310.616 100.266C308.696 107.805 305.798 119.203 305.689 133.932C305.546 152.777 308.862 181.259 308.896 181.545C308.93 181.854 308.799 182.156 308.547 182.339L304.386 185.357L308.764 186.055C309.073 186.106 309.33 186.318 309.433 186.609L314.017 199.201C314.177 199.647 313.949 200.138 313.503 200.298C313.406 200.333 313.308 200.35 313.211 200.35V200.356Z" fill="black"/>
<path d="M254.35 220.572C240.62 220.572 226.377 219.069 223.736 218.263C223.284 218.126 223.027 217.646 223.164 217.194C223.302 216.743 223.782 216.486 224.233 216.623C227.886 217.743 256.362 220.309 271.411 217.726C278.305 216.543 288.273 216.891 297.904 217.223C309.044 217.606 320.562 218.006 323.391 215.588C326.66 212.787 325.003 205.283 322.425 201.344C321.916 200.573 320.15 198.109 318.63 198.841C313.783 201.19 281.951 205.74 271.314 204.539C268.102 204.179 264.53 203.419 260.391 202.545C251.32 200.624 240.032 198.235 227.08 199.115C226.611 199.155 226.199 198.789 226.165 198.321C226.131 197.846 226.491 197.44 226.96 197.406C240.163 196.503 251.572 198.927 260.746 200.87C264.838 201.739 268.371 202.488 271.503 202.836C281.626 203.979 313.274 199.527 317.881 197.298C319.784 196.372 321.962 197.509 323.86 200.407C326.78 204.871 328.69 213.308 324.506 216.891C321.173 219.749 310.359 219.372 297.847 218.938C288.296 218.606 278.425 218.263 271.703 219.418C266.805 220.258 260.626 220.572 254.344 220.572H254.35Z" fill="black"/>
<path d="M241.278 204.728H235.333C234.859 204.728 234.476 204.345 234.476 203.871C234.476 203.397 234.859 203.014 235.333 203.014H241.278C241.752 203.014 242.135 203.397 242.135 203.871C242.135 204.345 241.752 204.728 241.278 204.728Z" fill="black"/>
<path d="M240.186 210.907H235.207C234.733 210.907 234.35 210.524 234.35 210.05C234.35 209.575 234.733 209.192 235.207 209.192H240.186C240.66 209.192 241.043 209.575 241.043 210.05C241.043 210.524 240.66 210.907 240.186 210.907Z" fill="black"/>
<path d="M325.7 213.285H307.478C307.004 213.285 306.621 212.902 306.621 212.427C306.621 211.953 307.004 211.57 307.478 211.57H325.7C326.175 211.57 326.558 211.953 326.558 212.427C326.558 212.902 326.175 213.285 325.7 213.285Z" fill="black"/>
<path d="M324.934 207.592H319.682C319.207 207.592 318.824 207.209 318.824 206.734C318.824 206.26 319.207 205.877 319.682 205.877H324.934C325.409 205.877 325.792 206.26 325.792 206.734C325.792 207.209 325.409 207.592 324.934 207.592Z" fill="black"/>
<path d="M213.916 90.8178H208.029C207.555 90.8178 207.172 90.4348 207.172 89.9604C207.172 89.486 207.555 89.103 208.029 89.103H213.916C214.391 89.103 214.774 89.486 214.774 89.9604C214.774 90.4348 214.391 90.8178 213.916 90.8178Z" fill="black"/>
<path d="M197.026 83.0902H194.328C193.854 83.0902 193.471 82.7073 193.471 82.2329C193.471 81.7584 193.854 81.3755 194.328 81.3755H197.026C197.5 81.3755 197.883 81.7584 197.883 82.2329C197.883 82.7073 197.5 83.0902 197.026 83.0902Z" fill="black"/>
<path d="M203.519 87.8002H194.18C193.705 87.8002 193.322 87.4172 193.322 86.9428C193.322 86.4684 193.705 86.0854 194.18 86.0854H203.519C203.994 86.0854 204.377 86.4684 204.377 86.9428C204.377 87.4172 203.994 87.8002 203.519 87.8002Z" fill="black"/>
<path d="M233.984 101.226H218.294C217.82 101.226 217.437 100.844 217.437 100.369C217.437 99.8947 217.82 99.5117 218.294 99.5117H233.984C234.459 99.5117 234.842 99.8947 234.842 100.369C234.842 100.844 234.459 101.226 233.984 101.226Z" fill="black"/>
<path d="M310.673 87.3427H298.27C297.796 87.3427 297.413 86.9597 297.413 86.4853C297.413 86.0109 297.796 85.6279 298.27 85.6279H310.673C311.148 85.6279 311.531 86.0109 311.531 86.4853C311.531 86.9597 311.148 87.3427 310.673 87.3427Z" fill="black"/>
<path d="M304.466 137.476H289.216C288.742 137.476 288.359 137.093 288.359 136.619C288.359 136.144 288.742 135.761 289.216 135.761H304.466C304.94 135.761 305.323 136.144 305.323 136.619C305.323 137.093 304.94 137.476 304.466 137.476Z" fill="black"/>
<path d="M305.009 144.712H297.316C296.841 144.712 296.458 144.329 296.458 143.855C296.458 143.381 296.841 142.998 297.316 142.998H305.009C305.483 142.998 305.866 143.381 305.866 143.855C305.866 144.329 305.483 144.712 305.009 144.712Z" fill="black"/>
<path d="M268.073 212.953C267.605 212.953 267.222 212.576 267.216 212.102C267.216 211.627 267.593 211.238 268.068 211.238C271.234 211.21 276.579 210.661 281.294 210.175C285.015 209.792 288.21 209.472 289.491 209.489C289.965 209.501 290.342 209.89 290.331 210.364C290.319 210.833 289.942 211.204 289.473 211.204H289.456C288.313 211.181 284.981 211.524 281.466 211.884C276.716 212.37 271.326 212.925 268.079 212.959H268.073V212.953Z" fill="black"/>
<path d="M90.5119 118.597H83.3614C78.7431 118.597 74.9878 114.842 74.9878 110.223V85.2509C74.9878 83.2675 74.1133 81.4041 72.5929 80.1352L68.5118 76.7343C68.3174 76.5686 68.2031 76.3285 68.2031 76.077C68.2031 75.8255 68.3174 75.5797 68.5118 75.4197L72.5929 72.0188C74.1133 70.7499 74.9878 68.8865 74.9878 66.9031V41.9308C74.9878 37.3124 78.7431 33.5571 83.3614 33.5571H90.5119C90.9177 33.5571 91.2664 33.8372 91.3521 34.2373C91.4379 34.6317 91.2321 35.0318 90.8663 35.1976C88.9172 36.0721 83.8587 38.9871 83.8587 41.9308V66.9031C83.8587 69.3952 82.7613 71.7387 80.8465 73.3334L77.5542 76.077L80.8465 78.8206C82.7613 80.4153 83.8587 82.7588 83.8587 85.2509V110.223C83.8587 113.893 86.8481 116.882 90.5176 116.882C90.992 116.882 91.375 117.265 91.375 117.74C91.375 118.214 90.992 118.597 90.5176 118.597H90.5119ZM70.398 76.077L73.6903 78.8206C75.6051 80.4153 76.7025 82.7588 76.7025 85.2509V110.223C76.7025 113.893 79.6919 116.882 83.3614 116.882H85.442C83.4357 115.35 82.1383 112.938 82.1383 110.223V85.2509C82.1383 83.2675 81.2637 81.4041 79.7433 80.1352L75.6623 76.7343C75.4679 76.5686 75.3536 76.3285 75.3536 76.077C75.3536 75.8255 75.4679 75.5797 75.6623 75.4197L79.7433 72.0188C81.2637 70.7499 82.1383 68.8865 82.1383 66.9031V41.9308C82.1383 39.1358 84.9161 36.758 87.2025 35.2719H83.3614C79.6919 35.2719 76.7025 38.2612 76.7025 41.9308V66.9031C76.7025 69.3952 75.6051 71.7387 73.6903 73.3334L70.398 76.077Z" fill="black"/>
<path d="M76.211 76.9286H69.0605C68.5861 76.9286 68.2031 76.5456 68.2031 76.0712C68.2031 75.5968 68.5861 75.2139 69.0605 75.2139H76.211C76.6854 75.2139 77.0683 75.5968 77.0683 76.0712C77.0683 76.5456 76.6854 76.9286 76.211 76.9286Z" fill="black"/>
<path d="M148.373 118.597H141.223C140.748 118.597 140.365 118.214 140.365 117.74C140.365 117.265 140.748 116.882 141.223 116.882C144.892 116.882 147.882 113.893 147.882 110.223V85.2509C147.882 82.7588 148.979 80.4153 150.894 78.8206L154.186 76.077L150.894 73.3334C148.979 71.7387 147.882 69.3952 147.882 66.9031V41.9308C147.882 38.9871 142.823 36.0721 140.874 35.1976C140.502 35.0318 140.302 34.6317 140.388 34.2373C140.474 33.8429 140.823 33.5571 141.228 33.5571H148.379C152.997 33.5571 156.752 37.3124 156.752 41.9308V66.9031C156.752 68.8865 157.627 70.7499 159.147 72.0188L163.228 75.4197C163.423 75.5854 163.537 75.8255 163.537 76.077C163.537 76.3285 163.423 76.5743 163.228 76.7343L159.147 80.1352C157.627 81.4041 156.752 83.2675 156.752 85.2509V110.223C156.752 114.842 152.997 118.597 148.379 118.597H148.373ZM146.293 116.882H148.373C152.043 116.882 155.032 113.893 155.032 110.223V85.2509C155.032 82.7588 156.129 80.4153 158.044 78.8206L161.337 76.077L158.044 73.3334C156.129 71.7387 155.032 69.3952 155.032 66.9031V41.9308C155.032 38.2612 152.043 35.2719 148.373 35.2719H144.532C146.818 36.758 149.596 39.1358 149.596 41.9308V66.9031C149.596 68.8865 150.471 70.7499 151.991 72.0188L156.072 75.4197C156.267 75.5854 156.381 75.8255 156.381 76.077C156.381 76.3285 156.267 76.5743 156.072 76.7343L151.991 80.1352C150.471 81.4041 149.596 83.2675 149.596 85.2509V110.223C149.596 112.938 148.299 115.35 146.293 116.882Z" fill="black"/>
<path d="M162.674 76.9286H155.523C155.049 76.9286 154.666 76.5456 154.666 76.0712C154.666 75.5968 155.049 75.2139 155.523 75.2139H162.674C163.148 75.2139 163.531 75.5968 163.531 76.0712C163.531 76.5456 163.148 76.9286 162.674 76.9286Z" fill="black"/>
<path d="M129.688 55.1112H102.046C100.355 55.1112 98.9771 53.7337 98.9771 52.0418V49.0181C98.9771 47.3262 100.355 45.9487 102.046 45.9487H129.688C131.38 45.9487 132.757 47.3262 132.757 49.0181V52.0418C132.757 53.7337 131.38 55.1112 129.688 55.1112ZM102.046 47.6692C101.298 47.6692 100.692 48.2751 100.692 49.0238V52.0475C100.692 52.7905 101.298 53.4021 102.046 53.4021H129.688C130.437 53.4021 131.043 52.7963 131.043 52.0475V49.0238C131.043 48.2808 130.437 47.6692 129.688 47.6692H102.046Z" fill="black"/>
<path d="M105.973 67.8802H92.3296C90.6378 67.8802 89.2603 66.5027 89.2603 64.8108V61.7872C89.2603 60.0953 90.6378 58.7178 92.3296 58.7178H105.973C107.665 58.7178 109.043 60.0953 109.043 61.7872V64.8108C109.043 66.5027 107.665 67.8802 105.973 67.8802ZM92.3296 60.4382C91.5809 60.4382 90.975 61.0441 90.975 61.7929V64.8165C90.975 65.5653 91.5809 66.1712 92.3296 66.1712H105.973C106.722 66.1712 107.328 65.5653 107.328 64.8165V61.7929C107.328 61.0441 106.722 60.4382 105.973 60.4382H92.3296Z" fill="black"/>
<path d="M119.623 67.8802H113.901C112.209 67.8802 110.832 66.5027 110.832 64.8108V61.7872C110.832 60.0953 112.209 58.7178 113.901 58.7178H119.623C121.315 58.7178 122.692 60.0953 122.692 61.7872V64.8108C122.692 66.5027 121.315 67.8802 119.623 67.8802ZM113.901 60.4382C113.158 60.4382 112.547 61.0441 112.547 61.7929V64.8165C112.547 65.5653 113.152 66.1712 113.901 66.1712H119.623C120.366 66.1712 120.977 65.5653 120.977 64.8165V61.7929C120.977 61.0441 120.371 60.4382 119.623 60.4382H113.901Z" fill="black"/>
<path d="M139.405 67.8802H127.539C125.847 67.8802 124.47 66.5027 124.47 64.8108V61.7872C124.47 60.0953 125.847 58.7178 127.539 58.7178H139.405C141.097 58.7178 142.475 60.0953 142.475 61.7872V64.8108C142.475 66.5027 141.097 67.8802 139.405 67.8802ZM127.539 60.4382C126.796 60.4382 126.184 61.0441 126.184 61.7929V64.8165C126.184 65.5653 126.79 66.1712 127.539 66.1712H139.405C140.154 66.1712 140.76 65.5653 140.76 64.8165V61.7929C140.76 61.0441 140.154 60.4382 139.405 60.4382H127.539Z" fill="black"/>
<path d="M127.974 80.6493H122.212C120.52 80.6493 119.143 79.2717 119.143 77.5799V74.5562C119.143 72.8643 120.52 71.4868 122.212 71.4868H127.974C129.665 71.4868 131.043 72.8643 131.043 74.5562V77.5799C131.043 79.2717 129.665 80.6493 127.974 80.6493ZM122.212 73.2073C121.469 73.2073 120.857 73.8131 120.857 74.5619V77.5856C120.857 78.3343 121.463 78.9402 122.212 78.9402H127.974C128.722 78.9402 129.328 78.3343 129.328 77.5856V74.5619C129.328 73.8131 128.722 73.2073 127.974 73.2073H122.212Z" fill="black"/>
<path d="M114.296 80.6493H103.761C102.069 80.6493 100.692 79.2717 100.692 77.5799V74.5562C100.692 72.8643 102.069 71.4868 103.761 71.4868H114.296C115.987 71.4868 117.365 72.8643 117.365 74.5562V77.5799C117.365 79.2717 115.987 80.6493 114.296 80.6493ZM103.761 73.2073C103.013 73.2073 102.407 73.8131 102.407 74.5619V77.5856C102.407 78.3343 103.013 78.9402 103.761 78.9402H114.296C115.039 78.9402 115.65 78.3343 115.65 77.5856V74.5619C115.65 73.8131 115.044 73.2073 114.296 73.2073H103.761Z" fill="black"/>
<path d="M105.973 93.4183H96.3306C94.6387 93.4183 93.2612 92.0408 93.2612 90.3489V87.3252C93.2612 85.6334 94.6387 84.2559 96.3306 84.2559H105.973C107.665 84.2559 109.043 85.6334 109.043 87.3252V90.3489C109.043 92.0408 107.665 93.4183 105.973 93.4183ZM96.3306 85.9763C95.5819 85.9763 94.976 86.5822 94.976 87.331V90.3546C94.976 91.1034 95.5819 91.7093 96.3306 91.7093H105.973C106.722 91.7093 107.328 91.1034 107.328 90.3546V87.331C107.328 86.5822 106.722 85.9763 105.973 85.9763H96.3306Z" fill="black"/>
<path d="M135.404 93.4183H113.895C112.203 93.4183 110.826 92.0408 110.826 90.3489V87.3252C110.826 85.6334 112.203 84.2559 113.895 84.2559H135.404C137.096 84.2559 138.473 85.6334 138.473 87.3252V90.3489C138.473 92.0408 137.096 93.4183 135.404 93.4183ZM113.895 85.9763C113.152 85.9763 112.541 86.5822 112.541 87.331V90.3546C112.541 91.1034 113.147 91.7093 113.895 91.7093H135.404C136.153 91.7093 136.759 91.1034 136.759 90.3546V87.331C136.759 86.5822 136.153 85.9763 135.404 85.9763H113.895Z" fill="black"/>
<path d="M114.295 106.188H102.046C100.355 106.188 98.9771 104.81 98.9771 103.118V100.095C98.9771 98.4029 100.355 97.0254 102.046 97.0254H114.295C115.987 97.0254 117.365 98.4029 117.365 100.095V103.118C117.365 104.81 115.987 106.188 114.295 106.188ZM102.046 98.7459C101.298 98.7459 100.692 99.3517 100.692 100.1V103.124C100.692 103.873 101.298 104.479 102.046 104.479H114.295C115.038 104.479 115.65 103.873 115.65 103.124V100.1C115.65 99.3517 115.044 98.7459 114.295 98.7459H102.046Z" fill="black"/>
<path d="M129.688 106.188H122.212C120.52 106.188 119.142 104.81 119.142 103.118V100.095C119.142 98.4029 120.52 97.0254 122.212 97.0254H129.688C131.38 97.0254 132.757 98.4029 132.757 100.095V103.118C132.757 104.81 131.38 106.188 129.688 106.188ZM122.212 98.7459C121.469 98.7459 120.857 99.3517 120.857 100.1V103.124C120.857 103.873 121.463 104.479 122.212 104.479H129.688C130.437 104.479 131.043 103.873 131.043 103.124V100.1C131.043 99.3517 130.437 98.7459 129.688 98.7459H122.212Z" fill="black"/>
<path d="M240.192 160.694H231.589C231.269 160.694 230.972 160.517 230.829 160.231C230.686 159.945 230.709 159.602 230.892 159.339L243.896 141.174L230.892 123.009C230.704 122.747 230.681 122.404 230.829 122.118C230.978 121.832 231.269 121.655 231.589 121.655H240.192C240.466 121.655 240.729 121.786 240.889 122.015L254.253 140.677C254.464 140.974 254.464 141.374 254.253 141.677L240.889 160.339C240.729 160.562 240.466 160.699 240.192 160.699V160.694ZM233.258 158.979H239.752L252.498 141.174L239.752 123.37H233.258L245.65 140.677C245.862 140.974 245.862 141.374 245.65 141.677L233.258 158.985V158.979Z" fill="black"/>
<path d="M283.958 160.693H255.722C255.247 160.693 254.864 160.311 254.864 159.836V152.303C254.864 151.828 255.247 151.445 255.722 151.445H283.958C284.432 151.445 284.815 151.828 284.815 152.303V159.836C284.815 160.311 284.432 160.693 283.958 160.693ZM256.579 158.979H283.1V153.16H256.579V158.979Z" fill="black"/>
</svg>
