<svg fill="currentColor" height="569" viewBox="0 0 447 569" width="447" xmlns="http://www.w3.org/2000/svg">

    <style>
        :root { fill:#222 }
        .accent { fill: #f9322c; }

        @media (prefers-color-scheme: dark) {
        :root {  fill: #f9322c; }
        .accent { fill:#dee2e6; }
        }
    </style>

    <path d="m348.01 357.223-.092 67.802 7.73 3.647-1.358-66.567z" class="accent"/>
    <path d="m366.38 378.25-.428 54.213 6.59 3.345-.436-47.045z" class="accent"/>
    <path d="m346.56 431.672.126 6.118 8.283.244.419-3.185z" class="accent"/>
    <path
        d="m376.39 314.683h-13.792l1.585 11.748h-9.901l-.537-11.748-10.597 1.202 2.733 8.681-42.951-42.549 3.219-21.245-30.434-7.883-82.037-88.509 20.859-35.246-9.23-6.471-3.379 5.681-5.508-1.471-15.796 26.498-46.983-49.617 22.636-36.2707-12.735-7.0844-7.982 9.4963-4.46 7.7232-3.731 3.8405-64.3467-69.5839-10.3207 9.5468-2.8589 6.202-9.3146 13.2193 44.041 42.9185 19.6439 35.6154-16.6341 31.22 6.5982 6.547 7.5709-1.076 2.993-5.79 4.485.319 7.621-10.437 19.627 34.035 9.114 31.002-9.114 22.035 6.632 5.211 7.713-5.581 3.605 10.371-10.06.79 1.224 15.362 13.305 2.546 18.73 60.399-9.952 1.076-.428 9.765 38.156 1.933-8.191 23.169-.797 2.698 4.754 5.563 1.501 24.355-72.564 126.436-19.693 1.773.645 15.555 97.875-1.235 16.424 9.816 20.096 1.37-.696-8.707 14.664 9.757 20.549-.479-.402-14.001 59.886 1.286-1.173-10.782-12.099-3.219-49.18-76.223 12.844 1.555 2.172-8.606 23.726 1.042 1.233 6.354 5.223-1.454-.528-101.611 45.693 3.261.612 4.302 10.538 2.362-2.129-28.75zm-179.165 142.336-5.777 48.683-5.944 1.849v4.261h-40.294l52.015-97.308zm-45.383-312.977 20.876 20.489-11.477 15.774zm19.828 94.552-4.837-20.077s22.2-34.674 22.687-34.834l17.816 25.22.796 35.053-36.47-5.353zm27.961 78.812-16.835-60.39 25.345 5.605 2.984 57.07-11.486-2.277zm33.393-87.762 16.802 22.707-16.802-1.403zm0 35.296 35.322 6.211 1.283 52.078-36.605-2.605zm16.123 84.627-5.827-16.068 1.643-3.824 25.143 1.883 1.627 45.767.545 28.027-4.662.95 1.023 9.672-5.642-8.74-14.312-21.875 1.141-26.606 2.942.092 1.283-8.244-4.913-1.034zm7.159 163.338h-5.776l-.478-45.188 6.263 39.372v5.816zm49.86 0-38.533 1.958-11.318-81.434 49.859 79.476zm-15.586-99.779-1.526-7.371h-2.733l1.207-72.256h6.422l1.845 79.618h-5.223zm12.97.462.604-78.929 10.262-.042.754 78.021zm2.364-87.501-1.207-13.421-10.84-1.538v13.841h-5.777l.78-34.002 25.227 24.909 1.929 10.219h-10.112z"
        class="accent"/>
    <g>
        <path
            d="m123.538 99.0141c-.336 0-.662-.1345-.906-.3782l-74.4912-76.7608c-.4612-.479-.4779-1.2354-.0336-1.7228l9.1553-10.135c.2348-.26056.5701-.41183.9223-.41183.3856 0 .6875.14286.9306.39493l72.0856 76.7609c.402.4286.453 1.0757.134 1.5631l-6.741 10.1351c-.209.3193-.553.521-.93.5546-.042 0-.076 0-.118 0zm-72.7731-78.055 72.5881 74.7943 5.324-8.0089-70.4671-75.0296z"/>
        <path
            d="m121.283 101.106c-.327 0-.654-.126-.897-.378l-73.528-75.1477c-.3353-.3446-.4443-.8404-.2934-1.2942l1.2828-3.6977c.2263-.6555.939-1.0085 1.6013-.7731.6539.2269 1.0061.9496.7713 1.6051l-1.0312 2.9665 72.1272 73.7187 1.35-1.2606c.511-.4706 1.308-.4454 1.777.0672.47.5127.445 1.311-.067 1.7817l-2.247 2.0921c-.243.227-.545.337-.855.337z"/>
        <path
            d="m110.048 149.069c-.285 0-.57-.101-.796-.286l-10.5978-8.69c-.4779-.395-.6036-1.084-.285-1.622l45.2738-76.1218c.184-.311.486-.5211.838-.5883.352-.0673.713.0168.998.2353l10.597 8.0509c.512.3866.646 1.0925.319 1.6471l-45.274 76.7608c-.184.319-.503.538-.863.597-.076.017-.143.017-.218.017zm-8.962-10.236 8.627 7.076 43.957-74.5257-8.585-6.513-43.999 73.9707z"/>
        <path
            d="m118.776 107.888c-.436 0-.855-.227-1.09-.63l-13.23-22.8671c-.352-.6051-.143-1.3698.453-1.7228.603-.3446 1.366-.1429 1.718.4538l13.23 22.8671c.352.605.143 1.37-.453 1.723-.201.117-.419.168-.628.168z"/>
        <path
            d="m147.382 173.977c-.444 0-.872-.235-1.098-.647l-25.278-45.364c-.335-.605-.126-1.378.486-1.714.604-.337 1.375-.126 1.71.487l20.407 36.624-5.483-20.783-12.735-22.009c-.352-.606-.143-1.37.452-1.723.604-.345 1.367-.143 1.719.454l12.819 22.161c.059.1.101.201.126.31l8.082 30.616c.159.613-.159 1.252-.746 1.487-.151.059-.31.093-.47.093z"/>
        <path
            d="m114.533 115.022c-.444 0-.871-.235-1.098-.647l-26.946-48.3643c-.3353-.6051-.1257-1.3782.4863-1.7144.6037-.3362 1.375-.1261 1.7103.4874l26.9464 48.3643c.335.605.125 1.378-.487 1.714-.192.11-.402.16-.612.16z"/>
        <path
            d="m109.235 123.93c-.436 0-.864-.236-1.099-.639l-46.212-82.3661c-.3438-.6051-.1258-1.3783.4778-1.7144.6037-.3446 1.375-.1261 1.7104.479l46.2128 82.3665c.343.605.125 1.378-.478 1.714-.193.109-.411.16-.612.16z"/>
        <path
            d="m137.464 174.246c-.453 0-.872-.244-1.099-.639l-20.608-36.733c-.343-.605-.125-1.378.478-1.714.604-.345 1.375-.126 1.711.479l20.239 36.069 9.155-.244h.033c.68 0 1.241.547 1.258 1.227.017.698-.528 1.278-1.224 1.295l-9.918.268s-.025 0-.034 0z"/>
        <path
            d="m132.039 85.5916c-.461 0-.914-.2605-1.132-.7059-3.077-6.3113-1.173-12.1016 1.644-15.4127 2.817-3.3195 6.833-4.7986 10.22-3.7733.662.2016 1.039.9076.838 1.5715s-.905 1.0421-1.568.8404c-2.431-.7396-5.399.437-7.57 2.9917-2.977 3.5044-3.463 8.2358-1.3 12.6731.302.6218.05 1.3782-.578 1.6891-.176.0841-.369.1261-.554.1261z"/>
        <path
            d="m144.984 89.837h-.008c-.696 0-1.258-.5715-1.258-1.2606 0-.6975.562-1.2605 1.258-1.2605.955 0 2.632-.9077 3.999-2.6473 1.744-2.227 2.381-5.0003 1.744-7.6139-.168-.6723.243-1.3614.922-1.5211.671-.168 1.358.2438 1.517.9245.822 3.3699.017 6.9331-2.213 9.7737-1.719 2.1934-4.066 3.6052-5.978 3.6052z"/>
        <path
            d="m107.315 150.243c-.294 0-.579-.101-.813-.294l-7.8645-6.656c-.2851-.243-.4444-.588-.4444-.966v-3.219c0-.697.5617-1.26 1.2576-1.26.6963 0 1.2573.563 1.2573 1.26v2.631l6.825 5.773 2.012-.874c.637-.277 1.375.017 1.652.656.276.638-.017 1.378-.654 1.655l-2.733 1.177c-.16.067-.327.101-.495.101z"/>
        <path
            d="m138.704 67.8962c-.226 0-.461-.0588-.662-.1933-.587-.3697-.771-1.1429-.402-1.7396l1.366-2.1934c.185-.2941.487-.5042.83-.5714.344-.0673.696.0168.981.2269l2.633 1.9497c.562.4118.679 1.2017.268 1.7648-.411.563-1.199.6807-1.761.2689l-1.542-1.1429-.646 1.0421c-.235.3781-.645.5882-1.065.5882z"/>
        <path
            d="m127.386 86.0284c-.226 0-.461-.0588-.662-.1933-.587-.3697-.772-1.1429-.403-1.7396l3.094-4.9582c.369-.5883 1.14-.7732 1.735-.4034.587.3697.772 1.1429.403 1.7396l-3.094 4.9583c-.235.3781-.645.5882-1.065.5882z"/>
        <path
            d="m99.4507 154.639c-.2934 0-.5784-.101-.8048-.294l-9.7925-8.152c-.4863-.403-.5953-1.101-.2599-1.639l16.7935-26.909c.368-.588 1.14-.773 1.735-.403.587.369.771 1.143.403 1.739l-16.2067 25.977 7.9648 6.63 3.7059-4.588c.436-.538 1.224-.622 1.769-.185.536.437.62 1.235.184 1.773l-4.502 5.58c-.21.261-.5198.429-.8551.462-.0419 0-.0839 0-.1258 0z"/>
        <path
            d="m95.6528 155.176c-.3102 0-.612-.118-.8468-.328l-6.7407-6.118c-.3605-.328-.4947-.824-.3605-1.286l.7462-2.571c.1928-.673.897-1.051 1.5594-.858.6623.194 1.048.9.8551 1.563l-.5281 1.816 5.7262 5.193 3.2195-.454c.6874-.092 1.3249.387 1.4169 1.076s-.386 1.328-1.0732 1.42l-3.7979.538c-.0587 0-.1174.009-.1761.009z"/>
        <path
            d="m186.602 157.86c-.335 0-.671-.135-.914-.395l-50.119-53.625c-.478-.505-.453-1.303.059-1.782.503-.479 1.299-.454 1.777.059l50.119 53.625c.478.504.453 1.302-.058 1.781-.243.227-.554.345-.864.345z"/>
        <path
            d="m275.724 253.207c-.335 0-.671-.134-.914-.395l-79.438-84.988c-.478-.504-.453-1.303.059-1.782.503-.479 1.299-.453 1.777.059l79.438 84.988c.478.505.453 1.303-.059 1.782-.243.227-.553.345-.863.345z"/>
        <path
            d="m346.694 329.139s-.067 0-.1 0l-14.999-1.152c-.311-.025-.604-.159-.814-.386l-7.746-8.202c-.478-.505-.453-1.303.05-1.782s1.299-.454 1.777.05l7.412 7.85 11.285.865-46.741-50.011c-.478-.504-.453-1.303.059-1.782.503-.479 1.299-.454 1.777.059l48.954 52.381c.352.378.444.942.218 1.404-.21.437-.654.714-1.132.714z"/>
        <path
            d="m318.423 313.944c-.335 0-.662-.135-.914-.395l-37.937-40.154c-.478-.504-.453-1.302.05-1.781s1.3-.454 1.778.05l37.937 40.154c.478.504.453 1.302-.05 1.781-.243.236-.553.345-.864.345z"/>
        <path
            d="m258.578 250.585c-.335 0-.662-.135-.913-.395l-68.405-72.408c-.478-.504-.453-1.303.05-1.782s1.3-.453 1.777.051l68.405 72.407c.478.505.453 1.303-.05 1.782-.243.235-.553.345-.864.345z"/>
        <path
            d="m180.633 168.076c-.336 0-.663-.134-.914-.395l-50.354-53.305c-.478-.505-.453-1.303.05-1.782s1.3-.454 1.777.05l50.355 53.306c.477.504.452 1.303-.051 1.782-.243.235-.553.344-.863.344z"/>
        <path
            d="m164.418 238.501c-.553 0-1.065-.37-1.215-.941l-3.178-12.043c-.176-.672.226-1.362.897-1.538.679-.177 1.358.227 1.534.899l3.178 12.043c.176.672-.226 1.361-.897 1.538-.109.025-.218.042-.319.042z"/>
        <path
            d="m156.101 207.011c-.553 0-1.065-.37-1.216-.941l-23.785-90.081c-.151-.555.101-1.143.604-1.421.503-.277 1.132-.184 1.526.236l12.567 13.303c.143.151.243.336.302.53l18.151 65.802c.185.672-.209 1.361-.88 1.546s-1.358-.21-1.543-.882l-18.067-65.5-8.963-9.488 22.52 85.308c.176.672-.227 1.361-.897 1.537-.109.026-.218.042-.319.042z"/>
        <path
            d="m175.116 239.864c-.553 0-1.056-.37-1.207-.925l-6.909-25.035c-.184-.672.21-1.361.881-1.546s1.358.21 1.542.882l6.909 25.036c.184.672-.21 1.361-.88 1.546-.109.033-.227.042-.336.042z"/>
        <path
            d="m196.428 317.146c-.042 0-.084 0-.126 0l-11.57-1.202c-.519-.051-.955-.429-1.09-.933l-15.703-59.482c-.176-.673.227-1.362.897-1.538.671-.177 1.359.227 1.535.899l15.476 58.642 8.871.924-15.779-57.221c-.184-.673.21-1.362.88-1.547.663-.185 1.359.21 1.543.883l16.273 59.003c.109.404.017.832-.251 1.151-.243.286-.595.446-.964.446z"/>
        <path
            d="m81.0562 73.6939c-.3186 0-.6372-.1177-.8887-.3698l-37.9542-37.7585c-.2432-.2437-.3773-.5715-.3689-.9161.0083-.3445.1509-.6639.4024-.8992l7.5204-7.0508c.5031-.479 1.2995-.4454 1.7774.0588.4779.5043.4444 1.3026-.0587 1.7816l-6.5646 6.1517 37.0236 36.8425c.4947.4874.4947 1.2858 0 1.7816-.2431.2521-.5701.3698-.8887.3698z"/>
        <path
            d="m86.791 83.9285c-.3186 0-.6288-.1177-.8803-.353l-45.1393-43.969c-.3521-.3445-.4695-.8656-.3102-1.3278l1.442-4.0254c.2348-.6555.9558-.9917 1.6097-.7564.654.2353.9894.958.7546 1.6135l-1.1738 3.2607 44.5609 43.406c.4946.4874.5114 1.2858.0251 1.7816-.2431.2521-.5701.3782-.9054.3782z"/>
        <path
            d="m158.373 230.493c-.31 0-.62-.117-.855-.336l-10.991-10.135c-.445-.412-.537-1.084-.21-1.605l59.157-93.661c.193-.303.503-.513.864-.572.352-.058.721.042.998.269l9.633 7.883c.486.395.603 1.093.276 1.631l-57.799 95.913c-.192.328-.528.546-.897.596-.058 0-.117.009-.176.009zm-9.365-11.614 9.089 8.379 56.432-93.653-7.688-6.294z"/>
        <path
            d="m158.373 230.491h-3.689c-.301 0-.595-.109-.821-.302l-6.9-5.95c-.243-.211-.403-.513-.428-.841l-.394-4.185c-.067-.697.445-1.311 1.132-1.37.687-.075 1.308.446 1.367 1.135l.343 3.681 6.163 5.319h3.227c.696 0 1.258.563 1.258 1.261 0 .697-.562 1.26-1.258 1.26z"/>
        <path
            d="m148.313 230.491c-.252 0-.512-.075-.738-.235l-10.38-7.513c-.544-.395-.687-1.151-.318-1.714l9.113-13.9c.386-.58 1.166-.74 1.744-.362.579.387.738 1.168.361 1.748l-8.451 12.892 8.409 6.084 1.777-2.344c.419-.555 1.207-.664 1.761-.244.553.42.662 1.21.243 1.765l-2.515 3.319c-.243.328-.621.496-.998.496z"/>
        <path
            d="m160.83 188.054c-.235 0-.478-.067-.688-.21-.578-.386-.738-1.168-.36-1.748l11.997-18.303c.386-.58 1.166-.74 1.744-.362.579.387.738 1.169.361 1.748l-11.998 18.304c-.243.37-.645.571-1.048.571z"/>
        <path
            d="m183.232 153.892c-.235 0-.478-.067-.688-.21-.578-.387-.737-1.168-.36-1.748l7.797-11.883c.386-.58 1.165-.74 1.744-.362.578.387.738 1.168.36 1.748l-7.797 11.883c-.243.37-.645.572-1.048.572z"/>
        <path
            d="m203.764 131.076c-.276 0-.553-.093-.788-.278l-2.574-2.067-1.106 1.689c-.378.58-1.166.74-1.744.361-.579-.386-.738-1.168-.361-1.748l1.87-2.849c.193-.294.503-.495.855-.554s.704.042.981.26l3.655 2.933c.545.437.629 1.227.193 1.773-.251.311-.612.471-.981.471z"/>
        <path
            d="m145.169 231.869c-.269 0-.529-.084-.755-.252l-7.244-5.403c-.318-.236-.503-.614-.503-1.009v-3.487c0-.698.562-1.261 1.258-1.261s1.257.563 1.257 1.261v2.857l6.146 4.588 2.473-1.084c.637-.277 1.375.009 1.66.647.277.639-.008 1.379-.645 1.664l-3.136 1.387c-.159.067-.335.109-.503.109z"/>
        <path
            d="m184.867 315.945s-.067 0-.109 0l-7.009-.588c-.52-.042-.956-.404-1.107-.908l-17.288-60.399c-.192-.672.193-1.369.864-1.563.671-.193 1.366.194 1.559.866l17.045 59.566 6.145.521c.696.059 1.208.664 1.149 1.362-.059.655-.604 1.151-1.249 1.151z"/>
        <path
            d="m158.164 246.578c-.545 0-1.048-.362-1.208-.916l-6.329-22.119c-.193-.673.192-1.37.863-1.564.671-.193 1.367.194 1.56.866l6.329 22.119c.193.672-.192 1.37-.863 1.563-.117.034-.235.051-.352.051z"/>
        <path
            d="m149.637 216.776c-.545 0-1.048-.362-1.207-.916l-12.174-42.532c-.192-.673.193-1.37.864-1.563.671-.194 1.367.193 1.559.865l12.174 42.532c.193.672-.193 1.37-.864 1.563-.117.034-.234.051-.352.051z"/>
        <path
            d="m176.734 173.874c-.335 0-.662-.134-.914-.395l-27.952-29.506c-.478-.504-.461-1.302.042-1.781s1.3-.462 1.778.042l27.952 29.506c.478.504.461 1.302-.042 1.781-.243.236-.554.345-.864.345z"/>
        <path
            d="m211.125 210.165c-.335 0-.662-.134-.914-.395l-24.615-25.976c-.478-.505-.461-1.303.042-1.782s1.299-.462 1.777.042l24.616 25.976c.478.505.461 1.303-.042 1.782-.243.235-.554.345-.864.345z"/>
        <path
            d="m252.291 253.619c-.336 0-.663-.135-.914-.395l-21.513-22.708c-.478-.504-.462-1.302.041-1.781.504-.479 1.3-.462 1.778.042l21.513 22.707c.478.504.461 1.303-.042 1.782-.243.235-.553.344-.863.344z"/>
        <path
            d="m271.733 274.142c-.335 0-.662-.135-.914-.395l-1.626-1.723c-.478-.504-.461-1.302.042-1.781s1.299-.463 1.777.042l1.626 1.722c.478.505.462 1.303-.041 1.782-.244.235-.554.345-.864.345z"/>
        <path
            d="m315.17 319.995c-.335 0-.662-.134-.913-.394l-28.632-30.229c-.478-.504-.461-1.303.042-1.782s1.3-.462 1.778.042l28.631 30.229c.478.504.461 1.303-.042 1.782-.243.235-.553.344-.864.344z"/>
        <path
            d="m193.586 147.203c-.436 0-.855-.226-1.09-.63-.134-.227-3.236-5.647-2.222-9.849.386-1.58 1.627-5.395 4.888-6.74 2.222-.916 4.804-.487 7.671 1.277.596.362.78 1.143.411 1.732-.36.596-1.14.781-1.727.411-2.146-1.319-3.957-1.689-5.391-1.101-2.255.933-3.177 4.068-3.404 5.009-.645 2.664 1.191 6.673 1.954 7.992.352.605.142 1.37-.453 1.723-.201.118-.419.168-.629.168z"/>
        <path
            d="m205.315 152.59c-.528 0-1.023-.336-1.19-.865-.218-.664.142-1.379.796-1.597 1.476-.488 5.341-5.034 4.712-7.698-.159-.681.26-1.353.931-1.521.67-.16 1.349.26 1.517.933.973 4.101-3.789 9.824-6.363 10.681-.135.042-.269.067-.394.067z"/>
        <path
            d="m299.895 276.757c-.067 0-.134 0-.193-.017l-138.227-21.808c-.612-.093-1.064-.622-1.064-1.244v-17.295c0-.37.167-.731.452-.966.285-.236.663-.337 1.032-.278l90.488 16.388c.687.126 1.14.781 1.014 1.462-.125.689-.779 1.135-1.458 1.017l-89.005-16.119v14.715l135.913 21.439c.218-.32.578-.53.989-.547.679-.033 1.275.521 1.3 1.219l.025.731c.017.378-.143.74-.419.983-.235.21-.529.32-.83.32z"/>
        <path
            d="m161.668 254.958c-.084 0-.168 0-.26-.026l-3.882-.806c-.612-.127-1.039-.69-.997-1.32l1.073-16.497c.042-.664.595-1.176 1.257-1.176h2.809c.696 0 1.258.563 1.258 1.26 0 .698-.562 1.261-1.258 1.261h-1.635l-.922 14.219 2.809.58c.679.143 1.115.807.981 1.488-.126.596-.646 1.008-1.233 1.008z"/>
        <path
            d="m149.377 253.344c-.067 0-.125 0-.192-.017l-3.782-.588c-.628-.101-1.09-.655-1.064-1.294l.62-15.665c.017-.344.168-.664.428-.899.26-.227.586-.336.939-.311l3.16.269c.654.059 1.149.605 1.149 1.26v15.985c0 .369-.159.714-.436.958-.226.193-.52.302-.822.302zm-2.481-2.924 1.224.193v-13.354l-.696-.059z"/>
        <path
            d="m155.783 238.249c-.059 0-.118 0-.176-.009l-6.397-.891c-.688-.092-1.166-.731-1.074-1.42.093-.689.73-1.16 1.417-1.076l6.397.891c.688.093 1.166.731 1.073 1.421-.083.63-.628 1.084-1.24 1.084z"/>
        <path
            d="m159.497 254.955c-.067 0-.135 0-.202-.017l-10.111-1.614c-.687-.109-1.157-.756-1.048-1.445s.755-1.16 1.442-1.051l10.111 1.614c.688.109 1.157.756 1.048 1.445-.1.622-.628 1.059-1.24 1.059z"/>
        <path
            d="m224.523 261.034c-.109 0-.218 0-.327-.017-1.107-.118-2.088-.84-2.691-1.975-.529-.992-.747-2.244-.612-3.513.142-1.269.62-2.437 1.349-3.294.839-.975 1.946-1.471 3.052-1.345 1.107.118 2.088.841 2.691 1.975.537.992.755 2.244.612 3.513-.142 1.269-.62 2.437-1.349 3.294-.755.883-1.727 1.362-2.725 1.362zm.436-7.648c-.361 0-.688.336-.813.488-.403.47-.679 1.168-.763 1.924-.084.757.033 1.505.327 2.042.1.185.369.622.746.664.369.034.738-.327.872-.487.402-.471.679-1.168.763-1.925.084-.756-.034-1.504-.327-2.042-.101-.185-.369-.622-.746-.664-.017 0-.042 0-.059 0z"/>
        <path
            d="m225.16 327.986c-.109 0-.226 0-.344-.017-2.163-.236-3.613-2.647-3.303-5.488.31-2.84 2.264-4.874 4.41-4.647 2.163.235 3.613 2.647 3.303 5.487-.293 2.69-2.045 4.665-4.066 4.665zm.428-7.648c-.621 0-1.426 1.017-1.577 2.412-.159 1.437.453 2.639 1.082 2.706.645.076 1.475-.975 1.635-2.412.159-1.445-.453-2.639-1.082-2.706-.017 0-.042 0-.058 0z"/>
        <path
            d="m213.599 388.929c-.067 0-.143 0-.218-.008-1.275-.143-2.138-1.454-1.971-2.983.068-.648.319-1.253.705-1.706.494-.58 1.165-.866 1.853-.79.536.058 1.031.336 1.391.781.461.572.671 1.37.579 2.202-.067.647-.319 1.252-.704 1.706-.445.513-1.032.798-1.644.798z"/>
        <path
            d="m242.733 379.494c-.067 0-.143 0-.218-.008-1.274-.143-2.138-1.454-1.97-2.984.067-.647.318-1.252.704-1.706.495-.58 1.165-.874 1.853-.79 1.274.143 2.138 1.454 1.97 2.984-.067.647-.319 1.252-.704 1.706-.445.512-1.031.798-1.643.798z"/>
        <path
            d="m281.282 265.126c-.109 0-.218 0-.335-.017-1.107-.117-2.088-.84-2.691-1.975-.537-1-.755-2.243-.612-3.512.31-2.841 2.255-4.875 4.41-4.648 2.163.236 3.613 2.648 3.303 5.488-.134 1.269-.62 2.437-1.35 3.294-.754.883-1.735 1.362-2.725 1.362zm.436-7.647c-.62 0-1.425 1.017-1.576 2.412-.084.756.034 1.504.327 2.05.101.185.369.622.746.664.378.05.738-.328.872-.487.403-.471.679-1.169.763-1.925.159-1.445-.453-2.639-1.081-2.706-.017 0-.042 0-.059 0z"/>
        <path
            d="m188.245 172.046c-.109 0-.218 0-.327-.017-1.106-.118-2.087-.841-2.691-1.975-.528-.992-.746-2.244-.612-3.513.143-1.269.62-2.437 1.35-3.294.838-.975 1.937-1.471 3.052-1.345 1.106.118 2.087.841 2.691 1.975.536 1 .754 2.244.612 3.513-.143 1.269-.621 2.437-1.35 3.294-.754.883-1.727 1.362-2.725 1.362zm.436-7.648c-.36 0-.687.336-.813.488-.402.47-.679 1.168-.763 1.924s.034 1.504.327 2.051c.101.184.369.621.746.663.378.051.738-.327.872-.487.403-.471.679-1.168.763-1.924.084-.757-.033-1.505-.327-2.051-.1-.185-.369-.622-.746-.664-.017 0-.042 0-.059 0z"/>
        <path
            d="m130.907 102.839c-.109 0-.226 0-.343-.017-2.164-.236-3.614-2.647-3.304-5.488.143-1.269.621-2.4371 1.35-3.2943.838-.9748 1.945-1.4707 3.052-1.3446 2.163.2353 3.613 2.6472 3.303 5.4877-.293 2.6892-2.046 4.6642-4.066 4.6642zm.428-7.648c-.361 0-.688.3362-.813.4875-.403.4706-.679 1.1681-.763 1.9244-.16 1.4371.452 2.6391 1.081 2.7061.621.076 1.476-.9749 1.635-2.4119.159-1.4371-.453-2.6388-1.081-2.7061-.017 0-.042 0-.059 0z"/>
        <path
            d="m59.6603 27.85c-.109 0-.218 0-.327-.0168-2.1631-.2353-3.6135-2.6472-3.3033-5.4877s2.2637-4.8827 4.41-4.6474c2.1631.2353 3.6135 2.6472 3.3033 5.4878-.1426 1.2689-.6204 2.4371-1.3498 3.2943-.7546.8824-1.7271 1.3614-2.7248 1.3614zm.4359-7.6475c-.6204 0-1.4252 1.0168-1.5761 2.4119-.1593 1.437.4527 2.6388 1.0815 2.706.3773.042.7378-.3277.8719-.4874.4025-.4706.6791-1.1681.763-1.9245.1593-1.4454-.4528-2.6388-1.0816-2.706-.0167 0-.0419 0-.0587 0z"/>
        <path
            d="m261.521 266.622h-9.792c-.344 0-.671-.143-.914-.386-.235-.252-.361-.589-.344-.933l.772-15.883c.033-.656.553-1.177 1.207-1.202l9.583-.37c.343-.008.687.118.939.37.243.244.385.588.369.933l-.562 16.253c-.025.68-.579 1.218-1.258 1.218zm-8.476-2.521h7.261l.469-13.681-7.084.277z"/>
        <path
            d="m308.404 275.225c-.075 0-.15 0-.226-.017l-46.883-8.614c-.679-.126-1.132-.781-1.015-1.47.118-.69.772-1.143 1.468-1.017l45.474 8.353.663-12.143-46.07-9.993c-.679-.143-1.107-.815-.964-1.496.142-.68.804-1.117 1.492-.966l47.118 10.219c.604.135 1.023.681.989 1.303l-.805 14.648c-.016.361-.193.697-.478.924-.226.176-.494.269-.779.269z"/>
        <path
            d="m305.588 276.754c-.076 0-.151 0-.235-.025l-53.859-10.135c-.679-.126-1.132-.79-1.006-1.471.126-.68.788-1.134 1.467-1.008l53.423 10.059 2.414-1.319c.613-.328 1.375-.109 1.702.504.336.614.101 1.378-.503 1.706l-2.808 1.53c-.185.1-.394.151-.604.151z"/>
        <path
            d="m174.965 325.975s-.05 0-.075 0l-8.191-.479c-.671-.042-1.199-.605-1.182-1.277l.159-9.009c.008-.656.52-1.193 1.174-1.235l8.023-.538c.344-.025.688.101.939.336.252.235.402.571.402.924v10.035c0 .344-.142.68-.394.916-.234.218-.545.344-.863.344zm-6.908-2.933 5.651.337v-7.345l-5.534.369-.117 6.648z"/>
        <path
            d="m365.902 339.549s-.059 0-.092 0l-42.541-3.025c-.696-.05-1.215-.656-1.165-1.345.05-.697.679-1.218 1.341-1.168l42.541 3.026c.696.05 1.215.655 1.165 1.344-.05.664-.595 1.168-1.249 1.168z"/>
        <path
            d="m314.969 335.927s-.059 0-.092 0l-140.004-9.95c-.662-.051-1.165-.597-1.165-1.261v-10.034c0-.353.142-.689.402-.925.26-.235.595-.361.947-.336l139.946 10.749c.696.05 1.207.664 1.157 1.353-.051.697-.671 1.227-1.35 1.159l-138.596-10.647v7.496l138.839 9.866c.696.051 1.216.656 1.165 1.345-.05.664-.595 1.168-1.249 1.168z"/>
        <path
            d="m365.583 330.59s-.067 0-.1 0l-42.021-3.227c-.696-.051-1.207-.664-1.157-1.353.05-.698.671-1.202 1.35-1.16l42.02 3.227c.696.051 1.208.664 1.157 1.353-.05.664-.603 1.168-1.249 1.168z"/>
        <path
            d="m67.9606 50.3566h-.0251c-5.2065-.1176-10.3207-3.4455-13.6743-8.908-2.6577-4.3196-3.5129-8.9249-2.1798-11.7234.3018-.6303 1.048-.8908 1.6768-.5967.6288.3025.897 1.0505.5952 1.6808-.939 1.9833-.1006 5.8154 2.0541 9.3114 2.9092 4.7314 7.2438 7.6139 11.5867 7.7148.6958.0168 1.2408.5967 1.2324 1.2858-.0168.6891-.5785 1.2353-1.2576 1.2353z"/>
        <path
            d="m53.473 254.655c-.763 0-1.5007-.303-2.0876-.866-1.4504-1.403-2.6158-4.916.067-13.698v-207.5921c0-.6976.5618-1.2606 1.2576-1.2606.6959 0 1.2576.563 1.2576 1.2606v207.4911c.7043 1.488 3.4375 7.572 2.9596 11.286-.1928 1.488-1.1486 2.749-2.4481 3.202-.3354.118-.6708.177-1.0061.177zm-.5031-10.53c-1.3749 6.126-.0251 7.673.151 7.849.1676.16.3186.202.5198.134.3186-.117.7042-.521.7881-1.142.2179-1.732-.5953-4.522-1.4589-6.833z"/>
        <path
            d="m54.3952 281.119c-.3941 0-.7881-.159-1.0983-.479-2.1212-2.168-3.8231-26.934-2.1463-31.178.4778-1.21 1.2743-1.42 1.7103-1.437 1.2324-.05 1.9535 1.151 2.4733 2.21 1.5007 3.042 1.6432 13.169 1.66 16.203.0419 13.135-1.2995 14.093-1.7439 14.412-.2599.185-.5533.278-.8468.278zm-1.2241-29.539c-.6456 4.244.1174 16.421 1.0564 23.077.4862-6.908.3353-19.682-1.0564-23.077z"/>
        <path
            d="m346.686 329.407c-.696 0-1.258-.563-1.258-1.261v-10.731c0-.664.512-1.21 1.174-1.261l7.068-.479c.343-.025.687.101.947.336.252.236.402.572.402.925v8.042c0 .698-.561 1.261-1.257 1.261s-1.258-.563-1.258-1.261v-6.698l-4.552.311v9.547c0 .697-.562 1.261-1.258 1.261z"/>
        <path
            d="m346.686 343.373c-.696 0-1.258-.563-1.258-1.26v-4.95c0-.698.562-1.261 1.258-1.261s1.257.563 1.257 1.261v4.95c0 .697-.561 1.26-1.257 1.26z"/>
        <path
            d="m354.969 341.532c-.696 0-1.258-.563-1.258-1.261v-2.37c0-.697.562-1.26 1.258-1.26s1.258.563 1.258 1.26v2.37c0 .698-.562 1.261-1.258 1.261z"/>
        <path
            d="m346.686 423.654c-.696 0-1.258-.563-1.258-1.261v-65.668c0-.697.562-1.26 1.258-1.26s1.257.563 1.257 1.26v65.668c0 .698-.561 1.261-1.257 1.261z"/>
        <path
            d="m354.969 439.049h-8.283c-.696 0-1.258-.563-1.258-1.26v-6.118c0-.698.562-1.261 1.258-1.261s1.257.563 1.257 1.261v4.857h5.769v-1.05c0-.698.561-1.261 1.257-1.261s1.258.563 1.258 1.261v2.311c0 .697-.562 1.26-1.258 1.26z"/>
        <path
            d="m354.969 427.571c-.696 0-1.258-.564-1.258-1.261v-63.264c0-.698.562-1.261 1.258-1.261s1.258.563 1.258 1.261v63.264c0 .697-.562 1.261-1.258 1.261z"/>
        <path
            d="m53.8503 314.161c-2.0876 0-4.0075-1.16-5.4831-3.328-1.8864-2.773-2.4901-6.446-1.6517-10.068.8552-3.706 3.1692-6.874 6.3467-8.681 2.3978-1.37 3.8399-4.278 3.8482-7.782.0168-3.059-1.0396-5.328-2.0456-5.908-.6959-.403-1.8697.252-2.6158 1.479-1.1235 1.849-1.2241 4.79 2.2133 6.992.5869.378.7546 1.16.3773 1.74-.3773.588-1.157.756-1.7355.378-4.6195-2.975-4.7956-7.488-3.0014-10.429 1.5007-2.463 4.0913-3.471 6.0197-2.345 1.987 1.16 3.3116 4.412 3.2949 8.101-.0168 4.421-1.9367 8.144-5.1226 9.967-2.6075 1.488-4.4352 3.992-5.1394 7.059-.6707 2.9-.1929 5.917 1.2743 8.085.7546 1.118 2.0206 2.403 3.7644 2.21 1.7774-.202 3.5213-1.857 4.4436-4.21 1.5594-3.984-1.9954-7.622-2.029-7.664-.4862-.496-.4862-1.286 0-1.782.4947-.496 1.2828-.496 1.7774 0 .1929.193 4.7621 4.832 2.5991 10.37-1.2576 3.219-3.8147 5.496-6.506 5.799-.2096.025-.4276.034-.6372.034z"/>
        <path
            d="m53.9677 329.783c-5.8688 0-10.6476-4.79-10.6476-10.673 0-5.882 4.7788-10.672 10.6476-10.672s10.6477 4.79 10.6477 10.672c0 5.883-4.7789 10.673-10.6477 10.673zm0-18.824c-4.4854 0-8.1324 3.655-8.1324 8.151s3.647 8.152 8.1324 8.152 8.1325-3.656 8.1325-8.152-3.6471-8.151-8.1325-8.151z"/>
        <path
            d="m30.5094 346.676c-2.9679 0-5.3741-2.42-5.3741-5.387 0-2.966 2.4145-5.387 5.3741-5.387 2.9595 0 5.3741 2.421 5.3741 5.387 0 2.967-2.4146 5.387-5.3741 5.387zm0-8.252c-1.5762 0-2.859 1.285-2.859 2.865s1.2828 2.866 2.859 2.866 2.8589-1.286 2.8589-2.866-1.2827-2.865-2.8589-2.865z"/>
        <path
            d="m32.2028 342.182c-.327 0-.612-.076-.8803-.227-.4108-.227-1.0731-.824-.8635-2.236.6036-4.202 15.1582-16.522 17.7656-16.774.7294-.067 1.3498.311 1.5762.967.2264.655.503 1.47-4.519 7.168-2.8589 3.236-6.1203 6.505-8.5265 8.513-2.1211 1.782-3.5129 2.589-4.5525 2.589zm12.6347-14.371c-4.016 3.143-9.7757 8.58-11.4358 11.244 2.7164-1.823 8.1828-7.378 11.4358-11.244z"/>
        <path
            d="m52.5675 377.173c-.3353 0-.6539-.135-.8887-.37l-6.9838-7.001c-.4947-.495-.4947-1.294 0-1.781l6.9838-7.001c.4947-.496 1.2911-.496 1.7774 0l6.9839 7.001c.2347.235.3689.554.3689.891 0 .336-.1342.655-.3689.89l-6.9839 7.001c-.2347.235-.5533.37-.8887.37zm-5.2064-8.261 5.2064 5.218 5.2065-5.218-5.2065-5.219z"/>
        <path
            d="m79.74 415.512c-.3185 0-.6455-.126-.8887-.37-.4946-.495-.4946-1.294 0-1.781 2.138-2.143 2.3476-5.555.4863-7.95l-24.7411-31.758c-.4276-.547-.327-1.337.218-1.774.5449-.428 1.333-.327 1.769.219l24.7411 31.758c2.641 3.387 2.3475 8.236-.6875 11.278-.2431.244-.5701.37-.8887.37z"/>
        <path
            d="m303.617 347.281c-.461 0-.914-.261-1.132-.706-.301-.622-.05-1.378.579-1.689 3.806-1.866 7.428-3.101 11.754-4.009.671-.151 1.35.294 1.493.975.142.681-.294 1.353-.973 1.496-4.116.866-7.554 2.042-11.167 3.807-.176.084-.369.126-.554.126z"/>
        <path
            d="m286.43 359.889c-.31 0-.62-.118-.863-.345-.503-.479-.529-1.277-.051-1.782 2.675-2.832 5.131-4.983 8.493-7.445.562-.412 1.35-.286 1.761.277s.285 1.353-.277 1.765c-3.228 2.353-5.592 4.42-8.149 7.135-.243.26-.578.395-.914.395z"/>
        <path
            d="m263.861 410.622c-.051 0-.101 0-.143 0-.687-.084-1.182-.706-1.107-1.395 1.275-11.001 3.698-20.119 7.638-28.707.294-.631 1.04-.908 1.669-.622.628.294.905 1.042.62 1.672-3.823 8.337-6.179 17.211-7.42 27.943-.075.639-.62 1.118-1.249 1.118z"/>
        <path
            d="m287.637 486.609c-.318 0-.637-.117-.88-.361-7.713-7.614-14.06-17.564-18.344-28.775-.251-.647.075-1.378.721-1.63s1.375.076 1.627.723c4.158 10.883 10.303 20.522 17.757 27.884.494.487.503 1.285.017 1.781-.244.252-.571.378-.898.378z"/>
        <path
            d="m325.038 502.939c-1.148 0-2.305-.042-3.437-.117-.696-.051-1.216-.648-1.166-1.345.051-.698.663-1.227 1.342-1.168 1.073.075 2.171.109 3.27.109 33.418 0 60.607-35.456 60.607-79.038 0-43.583-27.189-79.039-60.607-79.039-.461 0-.914 0-1.375.017-.671.034-1.275-.529-1.291-1.218-.017-.689.528-1.278 1.215-1.294.487-.017.964-.026 1.451-.026 34.802 0 63.123 36.591 63.123 81.56s-28.313 81.559-63.123 81.559z"/>
        <path
            d="m303.776 357.625c-.427 0-.838-.218-1.081-.605-.361-.596-.168-1.37.428-1.731 3.781-2.286 7.771-3.983 11.846-5.025.671-.177 1.358.235 1.534.907s-.234 1.362-.905 1.538c-3.84.983-7.596 2.58-11.168 4.74-.201.126-.427.185-.645.185z"/>
        <path
            d="m286.43 374.629c-.243 0-.486-.067-.704-.219-.579-.386-.73-1.176-.336-1.748 2.65-3.933 5.618-7.479 8.837-10.53.503-.479 1.3-.462 1.778.051.477.504.461 1.302-.051 1.781-3.085 2.933-5.936 6.337-8.476 10.11-.243.361-.637.555-1.04.555z"/>
        <path
            d="m325.038 493.77c-3.378 0-6.766-.429-10.06-1.269-.671-.177-1.082-.858-.906-1.53.168-.672.855-1.084 1.526-.907 3.094.79 6.263 1.193 9.432 1.193 17.69 0 33.88-12.278 43.303-32.851.294-.63 1.031-.907 1.669-.622.628.294.905 1.042.62 1.673-9.843 21.488-26.887 34.321-45.592 34.321z"/>
        <path
            d="m372.542 452.466c-.134 0-.268-.026-.403-.068-.653-.227-1.006-.941-.788-1.596.755-2.219 1.434-4.522 2.013-6.833.167-.672.846-1.084 1.525-.916.671.168 1.082.857.914 1.53-.595 2.378-1.291 4.748-2.071 7.034-.176.521-.67.857-1.19.857z"/>
        <path
            d="m376.063 438.438c-.067 0-.142 0-.209-.017-.688-.118-1.149-.765-1.032-1.454.847-5.084 1.283-10.337 1.283-15.598 0-28.842-12.458-54.305-31.742-64.877-.612-.337-.829-1.101-.503-1.715.327-.613 1.099-.832 1.711-.504 20.071 11.001 33.049 37.338 33.049 67.088 0 5.404-.444 10.79-1.316 16.009-.1.614-.637 1.051-1.241 1.051z"/>
        <path
            d="m337.606 353.476c-.126 0-.26-.017-.386-.059-2.288-.739-4.644-1.26-7.009-1.554-.687-.085-1.182-.715-1.09-1.404.084-.689.721-1.185 1.401-1.092 2.515.311 5.022.865 7.461 1.655.663.21 1.023.925.814 1.588-.177.538-.663.874-1.199.874z"/>
        <path
            d="m356.864 502.939c-5.534 0-11.025-.924-16.324-2.748-.654-.227-1.006-.941-.779-1.605.226-.655.947-1.008 1.601-.782 5.03 1.732 10.245 2.614 15.502 2.614 33.418 0 60.608-35.456 60.608-79.038 0-43.583-27.19-79.039-60.608-79.039-5.257 0-10.472.883-15.502 2.614-.654.227-1.375-.126-1.601-.781-.227-.656.125-1.379.779-1.606 5.291-1.823 10.782-2.748 16.324-2.748 34.802 0 63.123 36.591 63.123 81.56s-28.313 81.559-63.123 81.559z"/>
        <path
            d="m304.154 380.735c-.185 0-.369-.042-.545-.126-.629-.303-.889-1.051-.595-1.681 3.051-6.387 6.791-12.219 11.1-17.312.444-.529 1.241-.596 1.769-.143.528.454.595 1.244.143 1.774-4.176 4.933-7.789 10.572-10.749 16.765-.218.454-.662.715-1.131.715z"/>
        <path
            d="m307.834 471.609c-.427 0-.846-.218-1.081-.613-1.828-3.085-3.496-6.354-4.964-9.732-.276-.639.017-1.378.654-1.656.638-.277 1.375.017 1.652.656 1.425 3.277 3.043 6.454 4.821 9.446.352.596.159 1.37-.436 1.731-.201.118-.419.176-.646.176z"/>
        <path
            d="m327.964 493.659c-.243 0-.494-.067-.712-.218-5.316-3.648-10.195-8.261-14.513-13.716-.428-.546-.344-1.336.201-1.773.545-.428 1.333-.344 1.769.202 4.159 5.252 8.862 9.698 13.968 13.202.57.395.721 1.177.327 1.748-.243.353-.637.547-1.04.547z"/>
        <path
            d="m356.654 497.625c-.109 0-.209 0-.318 0-2.658-.017-5.333-.269-7.948-.757-.679-.126-1.132-.781-1.006-1.47.125-.681.779-1.135 1.467-1.009 2.473.454 4.997.698 7.512.715h.293c14.764 0 28.699-7.522 39.279-21.203 10.723-13.875 16.709-32.397 16.844-52.146.134-19.758-5.601-38.356-16.14-52.373-10.463-13.917-24.414-21.64-39.287-21.741-2.834-.017-5.676.244-8.468.782-.687.134-1.341-.32-1.475-1.001-.134-.68.318-1.344.997-1.479 2.952-.571 5.97-.857 8.963-.823 15.67.109 30.333 8.185 41.274 22.741 10.866 14.454 16.777 33.598 16.642 53.91-.134 20.304-6.304 39.372-17.371 53.676-11.067 14.312-25.714 22.178-41.266 22.178z"/>
        <path
            d="m328.853 357.375c-.386 0-.763-.177-1.014-.513-.411-.563-.294-1.344.26-1.765 2.28-1.689 4.661-3.193 7.084-4.47.612-.328 1.375-.084 1.694.529.318.614.083 1.378-.529 1.698-2.305 1.218-4.586 2.647-6.757 4.26-.226.168-.486.244-.746.244z"/>
        <path
            d="m303.651 395.384c-.118 0-.243-.017-.361-.051-.662-.201-1.039-.907-.838-1.571 2.683-8.933 6.59-17.043 11.612-24.119.402-.572 1.19-.698 1.752-.294.562.403.696 1.193.293 1.756-4.862 6.849-8.652 14.715-11.251 23.38-.168.546-.662.899-1.207.899z"/>
        <path
            d="m309.427 464.943c-.452 0-.897-.252-1.123-.689-1.819-3.555-3.412-7.354-4.754-11.304-.226-.663.134-1.378.788-1.596.663-.219 1.375.134 1.593.79 1.291 3.832 2.842 7.521 4.603 10.958.319.622.075 1.379-.545 1.698-.184.092-.377.143-.57.143z"/>
        <path
            d="m335.518 492.339c-.193 0-.394-.042-.578-.142-8.032-4.202-15.024-10.379-20.784-18.354-.411-.563-.285-1.353.277-1.757.561-.412 1.349-.286 1.752.278 5.533 7.664 12.232 13.58 19.912 17.597.62.32.855 1.084.536 1.698-.226.428-.662.68-1.115.68z"/>
        <path
            d="m372.433 350.838h-19.661c-.695 0-1.257-.563-1.257-1.261s.562-1.261 1.257-1.261h19.661c.696 0 1.258.563 1.258 1.261s-.562 1.261-1.258 1.261z"/>
        <path
            d="m380.884 354.677h-22.88c-.696 0-1.257-.563-1.257-1.26 0-.698.561-1.261 1.257-1.261h22.88c.696 0 1.258.563 1.258 1.261 0 .697-.562 1.26-1.258 1.26z"/>
        <path
            d="m393.141 364.845h-25.151c-.696 0-1.258-.563-1.258-1.26 0-.698.562-1.261 1.258-1.261h25.151c.696 0 1.258.563 1.258 1.261 0 .697-.562 1.26-1.258 1.26z"/>
        <path
            d="m397.795 370.283h-25.848c-.696 0-1.258-.563-1.258-1.261 0-.697.562-1.26 1.258-1.26h25.848c.695 0 1.257.563 1.257 1.26 0 .698-.562 1.261-1.257 1.261z"/>
        <path
            d="m406.573 386.181h-26.402c-.695 0-1.257-.563-1.257-1.26 0-.698.562-1.261 1.257-1.261h26.402c.695 0 1.257.563 1.257 1.261 0 .697-.562 1.26-1.257 1.26z"/>
        <path
            d="m409.733 393.072h-27.164c-.696 0-1.257-.563-1.257-1.261 0-.697.561-1.26 1.257-1.26h27.164c.696 0 1.258.563 1.258 1.26 0 .698-.562 1.261-1.258 1.261z"/>
        <path
            d="m413.154 412.455h-26.753c-.696 0-1.258-.563-1.258-1.261 0-.697.562-1.26 1.258-1.26h26.753c.696 0 1.258.563 1.258 1.26 0 .698-.562 1.261-1.258 1.261z"/>
        <path
            d="m413.581 420.119h-26.686c-.696 0-1.257-.563-1.257-1.261 0-.697.561-1.26 1.257-1.26h26.686c.696 0 1.258.563 1.258 1.26 0 .698-.562 1.261-1.258 1.261z"/>
        <path
            d="m410.161 448.009h-25.848c-.696 0-1.258-.563-1.258-1.26 0-.698.562-1.261 1.258-1.261h25.848c.696 0 1.257.563 1.257 1.261 0 .697-.561 1.26-1.257 1.26z"/>
        <path
            d="m412.341 440.556h-26.695c-.696 0-1.258-.563-1.258-1.26 0-.698.562-1.261 1.258-1.261h26.695c.695 0 1.257.563 1.257 1.261 0 .697-.562 1.26-1.257 1.26z"/>
        <path
            d="m402.9 466.037h-25.805c-.696 0-1.258-.563-1.258-1.261 0-.697.562-1.26 1.258-1.26h25.805c.696 0 1.258.563 1.258 1.26 0 .698-.562 1.261-1.258 1.261z"/>
        <path
            d="m399.589 472.256h-25.555c-.696 0-1.257-.564-1.257-1.261 0-.698.561-1.261 1.257-1.261h25.555c.695 0 1.257.563 1.257 1.261 0 .697-.562 1.261-1.257 1.261z"/>
        <path
            d="m387.147 486.365h-23.333c-.696 0-1.257-.563-1.257-1.261 0-.697.561-1.26 1.257-1.26h23.333c.696 0 1.257.563 1.257 1.26 0 .698-.561 1.261-1.257 1.261z"/>
        <path
            d="m378.553 490.599h-19.819c-.696 0-1.258-.563-1.258-1.26 0-.698.562-1.261 1.258-1.261h19.819c.696 0 1.258.563 1.258 1.261 0 .697-.562 1.26-1.258 1.26z"/>
        <path
            d="m323.948 492.584h-8.442c-.696 0-1.258-.563-1.258-1.261 0-.697.562-1.261 1.258-1.261h8.442c.696 0 1.258.564 1.258 1.261 0 .698-.562 1.261-1.258 1.261z"/>
        <path
            d="m319.723 487.92h-7.579c-.696 0-1.258-.563-1.258-1.261s.562-1.261 1.258-1.261h7.579c.696 0 1.258.563 1.258 1.261s-.562 1.261-1.258 1.261z"/>
        <path
            d="m307.248 471.607h-5.416c-.696 0-1.258-.563-1.258-1.26 0-.698.562-1.261 1.258-1.261h5.416c.695 0 1.257.563 1.257 1.261 0 .697-.562 1.26-1.257 1.26z"/>
        <path
            d="m295.996 457.236h-2.817c-.696 0-1.257-.563-1.257-1.261 0-.697.561-1.26 1.257-1.26h2.817c.696 0 1.258.563 1.258 1.26 0 .698-.562 1.261-1.258 1.261z"/>
        <path
            d="m297.405 450.529h-8.753c-.696 0-1.258-.563-1.258-1.261 0-.697.562-1.26 1.258-1.26h8.753c.696 0 1.257.563 1.257 1.26 0 .698-.561 1.261-1.257 1.261z"/>
        <path
            d="m294.998 435.873h-5.944c-.696 0-1.257-.563-1.257-1.261 0-.697.561-1.26 1.257-1.26h5.944c.696 0 1.258.563 1.258 1.26 0 .698-.562 1.261-1.258 1.261z"/>
        <path
            d="m294.998 410.623h-5.944c-.696 0-1.257-.563-1.257-1.261 0-.697.561-1.26 1.257-1.26h5.944c.696 0 1.258.563 1.258 1.26 0 .698-.562 1.261-1.258 1.261z"/>
        <path
            d="m294.998 384.838h-8.669c-.695 0-1.257-.563-1.257-1.261s.562-1.261 1.257-1.261h8.669c.696 0 1.258.563 1.258 1.261s-.562 1.261-1.258 1.261z"/>
        <path
            d="m294.831 379.209h-8.51c-.696 0-1.258-.563-1.258-1.261 0-.697.562-1.26 1.258-1.26h8.51c.696 0 1.257.563 1.257 1.26 0 .698-.561 1.261-1.257 1.261z"/>
        <path
            d="m315.279 363.095h-11.637c-.696 0-1.257-.563-1.257-1.26 0-.698.561-1.261 1.257-1.261h11.637c.696 0 1.258.563 1.258 1.261 0 .697-.562 1.26-1.258 1.26z"/>
        <path
            d="m315.279 357.986h-11.637c-.696 0-1.257-.563-1.257-1.261 0-.697.561-1.26 1.257-1.26h11.637c.696 0 1.258.563 1.258 1.26 0 .698-.562 1.261-1.258 1.261z"/>
        <path
            d="m49.4655 366.282c-.3773 0-.7461-.168-.9893-.488l-16.1475-20.723c-.4276-.547-.327-1.337.218-1.774.5449-.428 1.333-.327 1.769.219l16.1475 20.724c.4276.546.327 1.336-.218 1.773-.2263.176-.503.269-.7713.269z"/>
        <path
            d="m74.6258 346.676c-2.9679 0-5.3741-2.42-5.3741-5.387 0-2.966 2.4146-5.387 5.3741-5.387 2.9596 0 5.3742 2.421 5.3742 5.387 0 2.967-2.4146 5.387-5.3742 5.387zm0-8.252c-1.5761 0-2.8589 1.285-2.8589 2.865s1.2828 2.866 2.8589 2.866c1.5762 0 2.859-1.286 2.859-2.866s-1.2828-2.865-2.859-2.865z"/>
        <path
            d="m72.9406 342.179c-1.0396 0-2.4313-.806-4.5525-2.588-2.3978-2.008-5.6675-5.278-8.5265-8.513-5.0303-5.698-4.7453-6.513-4.5189-7.169.2264-.655.8384-1.042 1.5762-.966 2.6074.244 17.1536 12.572 17.7656 16.774.2012 1.412-.4527 2.009-.8635 2.236-.2683.151-.5618.226-.8804.226zm-12.6262-14.37c3.2446 3.866 8.7193 9.421 11.4357 11.244-1.66-2.664-7.4198-8.101-11.4357-11.244z"/>
        <path
            d="m25.3951 415.512c-.3186 0-.6456-.126-.8887-.37-3.035-3.042-3.3284-7.891-.6875-11.278l24.7411-31.758c.4276-.547 1.2157-.647 1.7691-.219.5449.429.6455 1.219.2179 1.773l-24.7411 31.759c-1.8612 2.386-1.6516 5.807.4863 7.95.4947.495.4947 1.294 0 1.781-.2431.244-.5701.37-.8887.37z"/>
        <path
            d="m55.9127 365.979c-.2683 0-.5449-.084-.7713-.269-.545-.429-.6456-1.219-.218-1.773l15.9044-20.413c.4276-.547 1.2157-.647 1.769-.219.545.429.6456 1.219.218 1.773l-15.9044 20.413c-.2515.32-.6204.488-.9893.488z"/>
        <path
            d="m78.9016 431.966h-47.6042c-.6959 0-1.2576-.563-1.2576-1.26v-23.977c0-.697.5617-1.26 1.2576-1.26h47.6042c.6959 0 1.2576.563 1.2576 1.26v23.977c0 .697-.5617 1.26-1.2576 1.26zm-46.3466-2.521h45.089v-21.455h-45.089z"/>
        <path
            d="m31.2973 431.966h-5.3825c-.6958 0-1.2576-.563-1.2576-1.26v-23.977c0-.697.5618-1.26 1.2576-1.26h5.3825c.6959 0 1.2576.563 1.2576 1.26v23.977c0 .697-.5617 1.26-1.2576 1.26zm-4.1249-2.521h2.8673v-21.455h-2.8673z"/>
        <path
            d="m140.7 67.9024c-.185 0-.377-.042-.554-.1261l-56.1303-27.6991c-.6204-.3109-.8803-1.0589-.5701-1.6892s1.0648-.8824 1.6852-.5714l56.1312 27.6991c.62.3109.88 1.0589.57 1.6892-.218.4454-.663.7059-1.132.7059z"/>
        <path
            d="m201.802 132.041c-.343 0-.687-.143-.93-.411l-48.803-54.0205c-.47-.5126-.428-1.311.092-1.7816.52-.4622 1.308-.4286 1.777.0925l48.803 54.0196c.47.513.428 1.311-.092 1.782-.243.218-.545.328-.847.328z"/>
        <path
            d="m300.297 257.21c-.377 0-.746-.168-.998-.488l-88.3-114.418c-.427-.555-.327-1.345.227-1.765.553-.429 1.341-.328 1.76.227l88.3 114.418c.428.555.327 1.345-.226 1.765-.226.177-.503.261-.771.261z"/>
        <path
            d="m304.707 282.553c-.696 0-1.257-.563-1.257-1.261v-5.227c0-.697.561-1.26 1.257-1.26s1.258.563 1.258 1.26v5.227c0 .698-.562 1.261-1.258 1.261z"/>
        <path
            d="m375.216 344.693c-.695 0-1.257-.563-1.257-1.261v-25.825h-6.8v24.111c0 .697-.561 1.26-1.257 1.26s-1.258-.563-1.258-1.26v-25.371c0-.698.562-1.261 1.258-1.261h9.314c.696 0 1.258.563 1.258 1.261v27.085c0 .698-.562 1.261-1.258 1.261z"/>
        <path
            d="m218.31 317.606c-.696 0-1.257-.563-1.257-1.261v-53.717c0-.698.561-1.261 1.257-1.261s1.258.563 1.258 1.261v53.717c0 .698-.562 1.261-1.258 1.261z"/>
        <path
            d="m218.31 247.913c-.696 0-1.257-.563-1.257-1.26v-37.565h-5.006v36.044c0 .697-.561 1.26-1.257 1.26s-1.258-.563-1.258-1.26v-37.305c0-.698.562-1.261 1.258-1.261h7.52c.696 0 1.258.563 1.258 1.261v38.826c0 .697-.562 1.26-1.258 1.26z"/>
        <path
            d="m210.79 317.607c-.696 0-1.258-.563-1.258-1.26v-54.903c0-.697.562-1.26 1.258-1.26s1.257.563 1.257 1.26v54.903c0 .697-.561 1.26-1.257 1.26z"/>
        <path
            d="m230.4 318.684c-.696 0-1.258-.563-1.258-1.261v-52.885c0-.698.562-1.261 1.258-1.261s1.258.563 1.258 1.261v52.885c0 .698-.562 1.261-1.258 1.261z"/>
        <path
            d="m230.4 250.098c-.696 0-1.258-.563-1.258-1.261v-29.346c0-.697.562-1.261 1.258-1.261s1.258.564 1.258 1.261v29.346c0 .698-.562 1.261-1.258 1.261z"/>
        <path
            d="m205.407 349.893h-8.191c-.402 0-.78-.194-1.014-.521-.235-.328-.302-.748-.185-1.126l6.666-20.766c.209-.664.922-1.034 1.584-.816.662.211 1.023.925.813 1.589l-6.137 19.119h5.567c6.548-18.825 6.816-19.094 7.068-19.346.495-.496 1.291-.496 1.777 0 .42.42.478 1.067.176 1.555-.519 1.117-4.519 12.479-6.942 19.463-.176.504-.653.849-1.19.849z"/>
        <path
            d="m249.558 351.986s-.042 0-.059 0l-44.15-2.093c-.696-.034-1.233-.622-1.199-1.319.033-.698.578-1.219 1.316-1.202l42.264 2-6.825-18.816c-.234-.656.101-1.378.755-1.614.654-.235 1.375.101 1.61.757l7.461 20.597c.143.395.076.841-.167 1.177-.235.319-.612.513-1.015.513z"/>
        <path
            d="m207.898 358.753h-14.371c-.695 0-1.257-.563-1.257-1.26v-8.85c0-.697.562-1.26 1.257-1.26h3.052c.696 0 1.258.563 1.258 1.26 0 .698-.562 1.261-1.258 1.261h-1.794v6.328h11.855v-7.446c0-.697.562-1.26 1.258-1.26.695 0 1.257.563 1.257 1.26v8.707c0 .697-.562 1.26-1.257 1.26z"/>
        <path
            d="m252.768 360.112s-.025 0-.042 0l-44.871-1.37c-.695-.017-1.24-.605-1.215-1.294.017-.698.612-1.269 1.291-1.219l43.58 1.328v-5.563h-1.954c-.696 0-1.257-.563-1.257-1.261 0-.697.561-1.26 1.257-1.26h3.211c.696 0 1.258.563 1.258 1.26v8.127c0 .344-.134.664-.386.907-.234.227-.545.353-.872.353z"/>
        <path
            d="m286.329 324.497c-.695 0-1.257-.563-1.257-1.261v-44.565c0-.698.562-1.261 1.257-1.261.696 0 1.258.563 1.258 1.261v44.565c0 .698-.562 1.261-1.258 1.261z"/>
        <path
            d="m286.33 407.023h-14.932c-.696 0-1.258-.563-1.258-1.26v-74.198c0-.697.562-1.26 1.258-1.26s1.257.563 1.257 1.26v72.937h12.417v-71.878c0-.697.562-1.26 1.258-1.26.695 0 1.257.563 1.257 1.26v73.139c0 .697-.562 1.26-1.257 1.26z"/>
        <path
            d="m271.389 323.547c-.696 0-1.257-.563-1.257-1.261v-49.768c0-.697.561-1.26 1.257-1.26s1.258.563 1.258 1.26v49.768c0 .698-.562 1.261-1.258 1.261z"/>
        <path
            d="m350.785 329.139c-.695 0-1.257-.563-1.257-1.261v-2.891c0-.697.562-1.26 1.257-1.26h15.117c.696 0 1.257.563 1.257 1.26 0 .698-.561 1.261-1.257 1.261h-13.859v1.63c0 .698-.562 1.261-1.258 1.261z"/>
        <path
            d="m303.584 325.826c-.696 0-1.258-.563-1.258-1.261l-.017-10.395h-6.053v9.731c0 .698-.562 1.261-1.257 1.261-.696 0-1.258-.563-1.258-1.261v-10.992c0-.698.562-1.261 1.258-1.261h8.56c.695 0 1.257.563 1.257 1.261l.017 11.648c0 .697-.562 1.26-1.258 1.26z"/>
        <path
            d="m303.735 414.177c-.696 0-1.258-.563-1.258-1.261l-.134-78.819c0-.698.561-1.261 1.257-1.261s1.258.563 1.258 1.261l.134 78.819c0 .698-.553 1.278-1.257 1.261z"/>
        <path
            d="m303.777 439.052h-8.778c-.696 0-1.258-.563-1.258-1.26v-5.278c0-.697.562-1.26 1.258-1.26.695 0 1.257.563 1.257 1.26v4.017h6.255v-4.067c-.009-.698.553-1.261 1.249-1.261s1.257.563 1.257 1.261v5.328c.009.336-.117.655-.36.891-.243.235-.553.369-.889.369z"/>
        <path
            d="m294.999 414.393c-.696 0-1.258-.563-1.258-1.26v-79.619c0-.697.562-1.26 1.258-1.26.695 0 1.257.563 1.257 1.26v79.619c0 .697-.562 1.26-1.257 1.26z"/>
        <path
            d="m323.948 439.051h-8.778c-.695 0-1.257-.563-1.257-1.261v-124.881c0-.698.562-1.261 1.257-1.261h8.56c.696 0 1.258.563 1.258 1.261l.21 124.881c0 .337-.134.656-.369.891s-.554.37-.889.37zm-7.52-2.521h6.254l-.209-122.36h-6.053v122.36z"/>
        <path
            d="m289.054 437.497h-8.099c-.695 0-1.257-.563-1.257-1.261 0-.697.562-1.26 1.257-1.26h6.842v-27.943h-17.925v9.916c0 .698-.562 1.261-1.258 1.261s-1.257-.563-1.257-1.261v-11.177c0-.697.561-1.26 1.257-1.26h20.44c.696 0 1.258.563 1.258 1.26v30.464c0 .698-.562 1.261-1.258 1.261z"/>
        <path
            d="m313.779 516.131s-.076 0-.109 0l-7.697-.639c-.394-.033-.754-.252-.964-.596l-52.827-85.753c-.084-.143-.143-.303-.177-.463l-2.724-17.286c-.093-.597.243-1.169.805-1.379.561-.21 1.19.009 1.509.521l62.888 103.074h12.92l-81.317-130.025c-.368-.588-.192-1.37.394-1.739.587-.37 1.367-.194 1.736.395l82.523 131.957c.244.387.26.882.034 1.277-.218.404-.646.648-1.098.648h-15.896zm-6.967-3.11 4.602.387-58.654-96.148 1.694 10.765z"/>
        <path
            d="m315.17 433.175h-26.116c-.696 0-1.257-.563-1.257-1.261v-18.505c0-.698.561-1.261 1.257-1.261h26.116c.696 0 1.258.563 1.258 1.261v18.505c0 .698-.562 1.261-1.258 1.261zm-24.858-2.521h23.601v-15.984h-23.601z"/>
        <path
            d="m267.222 526.113h-7.864c-.629 0-1.165-.47-1.249-1.092l-20.549-153.522c-.05-.361.059-.723.302-1s.587-.429.947-.429h6.162c.629 0 1.157.463 1.241 1.076l22.26 153.522c.05.361-.059.731-.294 1.008-.243.278-.587.437-.947.437zm-6.765-2.521h5.315l-21.891-151.001h-3.63l20.214 151.001z"/>
        <path
            d="m235.757 526.113h-8.266c-.629 0-1.166-.47-1.249-1.101l-18.546-143.706c-.042-.336.05-.68.26-.941.21-.269.52-.437.855-.471l7.705-.798c.671-.067 1.283.412 1.375 1.084l19.107 144.505c.05.361-.059.722-.302 1-.234.277-.587.428-.947.428zm-7.16-2.521h5.727l-18.755-141.865-5.207.537z"/>
        <path
            d="m248.467 388.948c-.687 0-1.249-.555-1.257-1.244l-.352-28.825c0-.698.545-1.269 1.241-1.277h.016c.688 0 1.249.554 1.258 1.243l.352 28.826c0 .697-.545 1.269-1.241 1.277z"/>
        <path
            d="m250.044 516.937h-43.991c-.696 0-1.258-.563-1.258-1.252l-.645-158.186c0-.697.562-1.26 1.249-1.269.696 0 1.258.564 1.258 1.253l.637 156.933h41.467l-.805-65.138c0-.698.545-1.269 1.241-1.277h.017c.687 0 1.249.554 1.257 1.243l.814 66.408c0 .336-.126.664-.361.899-.235.244-.562.378-.897.378z"/>
        <path
            d="m199.153 384.838c-.696 0-1.258-.563-1.258-1.261v-26.094c0-.697.562-1.26 1.258-1.26s1.257.563 1.257 1.26v26.094c0 .698-.561 1.261-1.257 1.261z"/>
        <path
            d="m141.513 516.939h-17.019c-.445 0-.864-.236-1.09-.631-.227-.386-.227-.865 0-1.26l80.913-142.74c.344-.605 1.107-.815 1.711-.47.603.344.813 1.109.469 1.714l-79.849 140.857h14.11l63.71-116.494c.336-.614 1.099-.832 1.711-.496s.83 1.101.494 1.714l-64.062 117.15c-.218.403-.645.656-1.106.656z"/>
        <path
            d="m242.817 528.686h-20.474c-.26 0-.52-.084-.738-.236l-14.303-10.311v9.286c0 .697-.562 1.261-1.258 1.261h-92.953c-.696 0-1.257-.564-1.257-1.261v-11.749c0-.697.561-1.26 1.257-1.26h88.158l-2.725-1.538c-.394-.227-.637-.639-.637-1.101v-100.544c0-.697.562-1.26 1.257-1.26.696 0 1.258.563 1.258 1.26v99.804l6.255 3.53s.041.025.067.042c0 0 .05.034.067.05l15.954 11.505h16.29l-4.049-3.042c-.553-.42-.671-1.21-.252-1.765.42-.554 1.208-.663 1.761-.252l7.068 5.312c.436.327.612.89.436 1.403s-.654.866-1.191.866zm-128.46-2.522h90.438v-9.227h-90.438z"/>
        <path
            d="m242.817 540.434h-20.474c-.26 0-.52-.084-.738-.236l-16.298-11.748c-.562-.403-.696-1.193-.285-1.757.402-.563 1.19-.689 1.752-.285l15.963 11.513h18.805v-10.488c0-.697.562-1.261 1.258-1.261s1.257.564 1.257 1.261v11.749c0 .697-.561 1.26-1.257 1.26z"/>
        <path
            d="m222.351 540.434c-.696 0-1.257-.563-1.257-1.261v-11.748c0-.698.561-1.261 1.257-1.261s1.258.563 1.258 1.261v11.748c0 .698-.562 1.261-1.258 1.261z"/>
        <path
            d="m277.493 527.721h-20.709c-.226 0-.452-.059-.645-.176l-17.984-10.783c-.595-.353-.788-1.134-.436-1.731s1.132-.79 1.727-.437l17.682 10.606h16.366l-7.898-5.53c-.57-.395-.704-1.185-.31-1.756.394-.572 1.182-.706 1.752-.311l11.176 7.824c.453.319.645.882.478 1.412-.168.529-.654.882-1.199.882z"/>
        <path
            d="m277.493 538.503h-20.717c-.243 0-.47-.076-.662-.194l-13.146-8.034c-.596-.361-.78-1.134-.42-1.731.361-.597 1.132-.782 1.727-.42l11.252 6.874v-8.538c0-.698.561-1.261 1.257-1.261h20.709c.696 0 1.257.563 1.257 1.261v10.782c0 .697-.561 1.261-1.257 1.261zm-19.451-2.522h18.193v-8.261h-18.193z"/>
        <path
            d="m183.735 513.074c-.696 0-1.258-.563-1.258-1.261v-8.53c0-.445.235-.857.621-1.084.385-.227.855-.235 1.249-.017l15.41 8.496c.612.337.83 1.101.494 1.715-.335.613-1.098.832-1.71.496l-13.549-7.463v6.395c0 .698-.561 1.261-1.257 1.261z"/>
        <path
            d="m191.448 504.551h-7.705c-.696 0-1.257-.563-1.257-1.261s.561-1.261 1.257-1.261h6.565l7.596-76.105c.067-.689.679-1.21 1.375-1.126.687.067 1.199.689 1.123 1.378l-7.705 77.248c-.067.648-.603 1.135-1.249 1.135z"/>
        <path
            d="m198.029 504.552h-6.581c-.696 0-1.258-.563-1.258-1.26 0-.698.562-1.261 1.258-1.261h6.581c.696 0 1.258.563 1.258 1.261 0 .697-.562 1.26-1.258 1.26z"/>
        <path
            d="m336.415 526.913h-58.922c-.696 0-1.258-.563-1.258-1.261s.562-1.261 1.258-1.261h57.665v-5.983h-69.051c-.695 0-1.257-.563-1.257-1.261 0-.697.562-1.26 1.257-1.26h70.308c.696 0 1.258.563 1.258 1.26v8.505c0 .698-.562 1.261-1.258 1.261z"/>
        <path
            d="m304.54 514.174h-39.053c-.696 0-1.258-.564-1.258-1.261 0-.698.562-1.261 1.258-1.261h39.053c.696 0 1.257.563 1.257 1.261 0 .697-.561 1.261-1.257 1.261z"/>
        <path
            d="m257.799 514.174h-7.755c-.696 0-1.258-.564-1.258-1.261 0-.698.562-1.261 1.258-1.261h7.755c.696 0 1.258.563 1.258 1.261 0 .697-.562 1.261-1.258 1.261z"/>
        <path
            d="m190.316 516.938c-.696 0-1.257-.563-1.257-1.261v-2.605h-46.037c-.696 0-1.257-.563-1.257-1.261 0-.697.561-1.26 1.257-1.26h47.294c.696 0 1.258.563 1.258 1.26v3.866c0 .698-.562 1.261-1.258 1.261z"/>
        <path
            d="m113.1 516.129c-.696 0-1.258-.563-1.258-1.26v-3.538c0-.698.562-1.261 1.258-1.261h11.402c.696 0 1.258.563 1.258 1.261 0 .697-.562 1.26-1.258 1.26h-10.145v2.278c0 .697-.561 1.26-1.257 1.26z"/>
        <path
            d="m311.607 486.928c-.1 0-.201-.008-.31-.042-.671-.168-1.081-.857-.914-1.53l34.492-137.243-4.989-1.261-14.68 58.424c-.168.672-.847 1.093-1.526.916-.671-.168-1.081-.857-.914-1.529l14.991-59.643c.084-.327.285-.605.57-.773s.629-.227.956-.143l7.428 1.874c.671.169 1.081.858.914 1.53l-34.802 138.462c-.143.571-.654.95-1.216.95z"/>
        <path
            d="m305.914 478.144c-.1 0-.201-.008-.31-.042-.671-.168-1.081-.857-.914-1.529l9.734-38.717c.168-.672.855-1.084 1.526-.916s1.082.857.914 1.529l-9.734 38.717c-.142.571-.654.95-1.216.95z"/>
        <path
            d="m306.828 414.135c-.1 0-.201-.009-.31-.042-.67-.168-1.081-.857-.914-1.53l8.929-35.531c.168-.673.855-1.084 1.526-.916s1.082.857.914 1.529l-8.929 35.532c-.142.571-.654.949-1.216.949z"/>
        <path
            d="m295.091 460.835c-.101 0-.202-.008-.311-.042-.67-.168-1.081-.857-.913-1.529l5.474-21.783c.168-.672.855-1.084 1.526-.916s1.082.857.914 1.529l-5.475 21.783c-.142.572-.654.95-1.215.95z"/>
        <path
            d="m300.725 469.835c-.101 0-.201-.008-.31-.042-.671-.168-1.082-.857-.914-1.529l9.214-36.658c.168-.672.855-1.084 1.526-.916.67.168 1.081.857.914 1.529l-9.214 36.658c-.143.572-.654.95-1.216.95z"/>
        <path
            d="m324.091 376.863c-.101 0-.201-.009-.31-.043-.671-.168-1.082-.857-.914-1.529l8.158-32.447-4.989-1.261-.872 3.471c-.167.672-.855 1.092-1.526.916-.67-.168-1.081-.857-.914-1.53l1.183-4.689c.083-.328.285-.605.57-.773s.629-.219.956-.143l7.428 1.874c.67.168 1.081.857.914 1.53l-8.46 33.665c-.142.572-.654.95-1.216.95z"/>
        <path
            d="m308.589 405.604c-.185 0-.369-.042-.545-.126l-4.854-2.345c-.629-.302-.889-1.05-.587-1.68.302-.631 1.048-.891 1.676-.589l4.855 2.345c.629.302.889 1.05.587 1.681-.218.453-.663.714-1.132.714z"/>
        <path
            d="m295.082 399.092c-.184 0-.369-.042-.545-.126l-8.652-4.176c-.629-.303-.889-1.051-.587-1.681.302-.631 1.048-.891 1.677-.589l8.652 4.177c.629.303.889 1.051.587 1.681-.218.454-.662.714-1.132.714z"/>
        <path
            d="m271.389 396.182c-.184 0-.369-.042-.545-.126l-2.75-1.327c-.301-.143-.528-.404-.645-.723-.109-.32-.092-.664.05-.967l2.75-5.731c.302-.63 1.048-.891 1.677-.588.629.302.889 1.059.587 1.68l-2.205 4.597 1.618.782c.629.302.889 1.05.587 1.681-.218.454-.663.714-1.132.714z"/>
        <path
            d="m295.082 407.604c-.184 0-.369-.042-.545-.126l-9.021-4.345c-.629-.302-.888-1.05-.587-1.68.302-.631 1.048-.891 1.677-.589l9.021 4.345c.629.303.889 1.051.587 1.681-.218.454-.662.714-1.132.714z"/>
        <path
            d="m307.021 413.359c-.184 0-.369-.042-.545-.126l-3.404-1.639c-.628-.302-.888-1.059-.586-1.681.301-.63 1.048-.89 1.676-.588l3.404 1.639c.629.302.889 1.059.587 1.681-.218.453-.662.714-1.132.714z"/>
        <path
            d="m380.012 448.555c-.184 0-.369-.042-.545-.126l-52.048-25.094c-.628-.302-.888-1.05-.587-1.681.302-.63 1.048-.89 1.677-.588l50.916 24.548 2.23-4.648-52.525-25.329c-.629-.302-.889-1.05-.587-1.681.302-.63 1.048-.89 1.677-.588l53.657 25.876c.302.142.528.403.646.722.109.32.092.664-.051.967l-3.32 6.916c-.218.454-.662.715-1.132.715z"/>
        <path
            d="m267.91 410.874c-.185 0-.369-.042-.545-.126l-4.905-2.37c-.302-.142-.528-.403-.645-.722-.109-.32-.092-.664.05-.967l3.32-6.916c.302-.63 1.048-.891 1.677-.588l5.064 2.445c.629.303.889 1.051.587 1.681s-1.048.891-1.677.588l-3.932-1.899-2.23 4.647 3.772 1.824c.629.302.889 1.05.587 1.681-.218.453-.662.714-1.131.714z"/>
        <path
            d="m375.2 462.608c-.185 0-.369-.042-.545-.126l-51.26-24.715c-.629-.303-.889-1.051-.587-1.681s1.048-.891 1.677-.588l50.119 24.169 2.231-4.647-51.226-24.699c-.629-.303-.889-1.051-.587-1.681.301-.63 1.048-.891 1.676-.588l52.367 25.245c.302.143.528.403.645.723.109.319.093.664-.05.966l-3.32 6.916c-.218.454-.662.715-1.132.715z"/>
        <path
            d="m372.542 436.388c-.696 0-1.258-.563-1.258-1.261v-43.734c0-.697.562-1.26 1.258-1.26s1.258.563 1.258 1.26v43.734c0 .698-.562 1.261-1.258 1.261z"/>
        <path
            d="m365.952 433.178c-.696 0-1.257-.563-1.257-1.26v-54.583c0-.698.561-1.261 1.257-1.261s1.258.563 1.258 1.261v54.583c0 .697-.562 1.26-1.258 1.26z"/>
    </g>
</svg>
