<svg viewBox="0 0 677.07 533.16" xmlns="http://www.w3.org/2000/svg">

    <style>
        :root { fill:#222 }
        .accent { fill: #f9322c; }

        @media (prefers-color-scheme: dark) {
        :root {  fill: #f9322c; }
        .accent { fill:#dee2e6; }
        }
    </style>

    <g class="accent">
        <path d="m452.37 331.87-.07 60.62 6.92 3.26-1.22-59.52z"/>
        <path d="m468.84 350.67-.38 48.47 5.91 2.99-.39-42.06z"/>
        <path d="m451.07 398.44.12 5.47 7.42.21.38-2.84z"/>
        <path
            d="m477.81 293.83h-12.36l1.42 10.5h-8.87l-.48-10.5-9.5 1.07 2.45 7.76-38.49-38.05 2.89-18.99-27.28-7.05-73.53-79.14 18.69-31.51-8.28-5.78-3.03 5.08-4.94-1.31-14.16 23.69-42.11-44.36 20.29-32.43-11.41-6.33-7.15 8.49-4 6.91-3.34 3.44-57.69-62.24-9.25 8.54-2.56 5.55-8.35 11.82 39.47 38.38 17.61 31.84-14.91 27.92 5.91 5.85 6.79-.96 2.69-5.18 4.02.29 6.83-9.33 17.59 30.43 8.17 27.72-8.17 19.7 5.94 4.66 6.91-4.99 3.23 9.27-9.02.71 1.09 13.74 11.93 2.28 16.79 54.01-8.92.96-.38 8.73 34.2 1.73-7.34 20.72-.71 2.41 4.26 4.97 1.34 21.78-65.04 113.05-17.65 1.58.58 13.91 87.73-1.1 14.72 8.78 18.01 1.22-.62-7.79 13.14 8.72 18.42-.43-.36-12.52 53.67 1.15-1.06-9.64-10.84-2.88-44.08-68.16 11.51 1.39 1.94-7.7 21.27.93 1.11 5.68 4.68-1.3-.47-90.86 40.96 2.92.55 3.85 9.44 2.11-1.91-25.71zm-160.58 127.27-5.18 43.53-5.32 1.65v3.81h-36.12l46.62-87.01zm-40.68-279.85 18.71 18.32-10.29 14.1zm17.77 84.55-4.33-17.95s19.9-31.01 20.33-31.15l15.97 22.55.71 31.34-32.69-4.79zm25.06 70.47-15.09-54 22.71 5.01 2.68 51.03zm29.93-78.48 15.06 20.3-15.06-1.25zm0 31.56 31.66 5.56 1.15 46.56-32.81-2.33zm14.45 75.67-5.22-14.37 1.47-3.42 22.53 1.68 1.46 40.92.49 25.06-4.18.85.92 8.65-5.05-7.81-12.83-19.56 1.02-23.79 2.64.08 1.15-7.37zm6.42 146.05h-5.18l-.43-40.41 5.61 35.21zm44.69 0-34.54 1.75-10.15-72.82 44.69 71.06zm-13.97-89.22-1.36-6.59h-2.45l1.08-64.61h5.76l1.65 71.19h-4.68zm11.62.42.54-70.58 9.2-.04.68 69.76-10.42.85zm2.12-78.24-1.08-12-9.71-1.37v12.37h-5.18l.7-30.41 22.61 22.27 1.73 9.13h-9.07z"/>
    </g>
    <path
        d="m251.18 101.36c-.4 0-.79-.16-1.08-.45l-66.77-68.64c-.55-.57-.57-1.47-.04-2.05l8.2-9.07c.28-.31.68-.49 1.1-.49h.01c.41 0 .81.17 1.09.47l64.61 68.64c.48.51.54 1.28.16 1.86l-6.04 9.07c-.25.38-.66.62-1.11.66-.05 0-.09 0-.14 0zm-64.71-70.17 64.49 66.3 4.35-6.53-62.68-66.58-6.17 6.82z"/>
    <path
        d="m249.17 103.23c-.39 0-.78-.15-1.07-.45l-65.9-67.2c-.4-.41-.53-1-.35-1.54l1.15-3.31c.27-.78 1.12-1.2 1.91-.92.78.27 1.2 1.13.92 1.91l-.85 2.43 64.23 65.49.95-.88c.61-.56 1.56-.53 2.12.08s.53 1.56-.08 2.12l-2.01 1.87c-.29.27-.65.4-1.02.4z"/>
    <path
        d="m239.09 146.11c-.34 0-.68-.12-.95-.34l-9.5-7.77c-.57-.47-.72-1.29-.34-1.93l40.58-68.06c.22-.37.58-.62 1-.7s.85.02 1.19.28l9.5 7.19c.61.46.77 1.3.39 1.96l-40.58 68.64c-.22.38-.6.64-1.03.71-.09.02-.17.02-.26.02zm-7.55-9.61 7.14 5.84 39.01-65.98-7.1-5.37-39.06 65.51z"/>
    <path
        d="m246.92 109.29c-.52 0-1.02-.27-1.3-.75l-11.86-20.45c-.42-.72-.17-1.63.54-2.05.72-.41 1.63-.17 2.05.54l11.86 20.45c.42.72.17 1.63-.54 2.05-.24.14-.5.2-.75.2z"/>
    <path
        d="m272.56 168.39c-.53 0-1.04-.28-1.31-.77l-22.65-40.56c-.4-.72-.15-1.64.58-2.04.72-.4 1.64-.15 2.04.58l16.85 30.17-4.15-15.67-11.39-19.64c-.42-.72-.17-1.63.55-2.05.71-.41 1.63-.17 2.05.55l11.49 19.81c.07.12.12.24.15.37l7.25 27.38c.19.73-.19 1.49-.89 1.77-.18.07-.37.11-.56.11z"/>
    <path
        d="m243.11 115.68c-.53 0-1.04-.28-1.31-.77l-24.15-43.24c-.4-.72-.15-1.64.58-2.04.72-.4 1.64-.15 2.04.58l24.15 43.24c.4.72.15 1.64-.58 2.04-.23.13-.48.19-.73.19z"/>
    <path
        d="m238.37 123.64c-.52 0-1.03-.28-1.31-.76l-41.42-73.65c-.41-.72-.15-1.64.57-2.04.72-.41 1.64-.15 2.04.57l41.42 73.65c.41.72.15 1.64-.57 2.04-.23.13-.49.19-.73.19z"/>
    <path
        d="m263.67 168.63c-.54 0-1.04-.29-1.31-.76l-18.47-32.84c-.41-.72-.15-1.64.57-2.04.72-.41 1.64-.15 2.04.57l18.03 32.06 7.98-.21s.03 0 .04 0c.81 0 1.48.65 1.5 1.46.02.83-.63 1.52-1.46 1.54l-8.89.24s-.03 0-.04 0z"/>
    <path
        d="m258.8 89.36c-.55 0-1.09-.31-1.35-.84-2.84-5.8-1.08-11.13 1.52-14.19 2.62-3.08 6.37-4.45 9.55-3.49.79.24 1.24 1.08 1 1.87s-1.08 1.24-1.87 1c-2-.61-4.57.42-6.39 2.56-2.57 3.02-2.98 7.1-1.11 10.92.36.74.06 1.64-.69 2.01-.21.1-.44.15-.66.15z"/>
    <path
        d="m270.41 93.16h-.01c-.83 0-1.5-.68-1.5-1.5 0-.83.67-1.5 1.5-1.5.75 0 2.15-.78 3.29-2.22.71-.9 2.27-3.33 1.5-6.49-.2-.8.29-1.62 1.1-1.81.81-.2 1.62.29 1.81 1.1.77 3.13.02 6.43-2.05 9.06-1.63 2.08-3.8 3.37-5.65 3.37z"/>
    <path
        d="m236.65 147.17c-.35 0-.69-.12-.97-.35l-7.05-5.95c-.34-.29-.53-.7-.53-1.15v-2.88c0-.83.67-1.5 1.5-1.5s1.5.67 1.5 1.5v2.18l5.81 4.9 1.59-.69c.76-.33 1.64.02 1.97.78s-.02 1.64-.78 1.97l-2.45 1.05c-.19.08-.39.12-.59.12z"/>
    <path
        d="m264.78 73.54c-.27 0-.55-.07-.79-.23-.7-.44-.92-1.37-.48-2.07l1.23-1.96c.22-.35.58-.6.99-.68s.83.02 1.17.27l2.36 1.74c.67.49.81 1.43.32 2.1s-1.43.81-2.1.32l-1.06-.78-.37.59c-.28.46-.77.7-1.27.7z"/>
    <path
        d="m254.63 89.75c-.27 0-.55-.07-.79-.23-.7-.44-.92-1.36-.48-2.07l2.77-4.43c.44-.7 1.37-.92 2.07-.48s.92 1.36.48 2.07l-2.77 4.43c-.28.45-.77.7-1.27.7z"/>
    <path
        d="m229.6 151.1c-.35 0-.69-.12-.96-.35l-8.78-7.29c-.58-.48-.71-1.31-.31-1.95l15.05-24.06c.44-.7 1.36-.92 2.07-.48.7.44.92 1.36.48 2.07l-14.36 22.95 6.6 5.48 3.08-3.81c.52-.64 1.46-.75 2.11-.22.64.52.74 1.47.22 2.11l-4.04 4.99c-.25.31-.62.51-1.02.55-.05 0-.1 0-.15 0z"/>
    <path
        d="m226.19 151.58c-.37 0-.73-.14-1.01-.39l-6.04-5.47c-.43-.39-.59-.98-.43-1.53l.67-2.3c.23-.8 1.07-1.25 1.86-1.02s1.25 1.06 1.02 1.86l-.41 1.4 4.83 4.37 2.71-.38c.82-.11 1.58.46 1.69 1.28s-.46 1.58-1.28 1.69l-3.41.48c-.07 0-.14.01-.21.01z"/>
    <path
        d="m307.71 153.98c-.4 0-.8-.16-1.09-.47l-44.92-47.95c-.57-.6-.54-1.55.07-2.12.6-.57 1.55-.54 2.12.07l44.92 47.95c.57.6.54 1.55-.07 2.12-.29.27-.66.41-1.03.41z"/>
    <path
        d="m387.59 239.24c-.4 0-.8-.16-1.09-.47l-71.2-75.99c-.57-.6-.54-1.55.07-2.12.6-.57 1.55-.54 2.12.07l71.2 75.99c.57.6.54 1.55-.07 2.12-.29.27-.66.41-1.03.41z"/>
    <path
        d="m451.19 307.13s-.08 0-.11 0l-13.44-1.03c-.37-.03-.72-.19-.97-.46l-6.94-7.33c-.57-.6-.54-1.55.06-2.12s1.55-.54 2.12.06l6.54 6.91 9.02.69-41.24-44.02c-.57-.6-.54-1.55.07-2.12.6-.57 1.55-.54 2.12.07l43.88 46.83c.42.45.53 1.12.26 1.67-.25.52-.78.85-1.35.85z"/>
    <path
        d="m425.86 293.54c-.4 0-.79-.16-1.09-.47l-34-35.91c-.57-.6-.54-1.55.06-2.12s1.55-.54 2.12.06l34 35.91c.57.6.54 1.55-.06 2.12-.29.28-.66.41-1.03.41z"/>
    <path
        d="m372.22 236.89c-.4 0-.79-.16-1.09-.47l-61.31-64.75c-.57-.6-.54-1.55.06-2.12s1.55-.54 2.12.06l61.31 64.75c.57.6.54 1.55-.06 2.12-.29.28-.66.41-1.03.41z"/>
    <path
        d="m302.36 163.11c-.4 0-.79-.16-1.09-.47l-45.13-47.67c-.57-.6-.54-1.55.06-2.12s1.55-.54 2.12.06l45.13 47.67c.57.6.54 1.55-.06 2.12-.29.28-.66.41-1.03.41z"/>
    <path
        d="m287.82 226.08c-.66 0-1.27-.44-1.45-1.12l-2.85-10.76c-.21-.8.27-1.62 1.07-1.83.81-.21 1.62.27 1.83 1.07l2.85 10.76c.21.8-.27 1.62-1.07 1.83-.13.03-.26.05-.38.05z"/>
    <path
        d="m280.37 197.93c-.66 0-1.27-.44-1.45-1.12l-21.32-80.55c-.18-.66.12-1.36.72-1.69s1.35-.22 1.82.28l11.26 11.9c.17.18.29.4.36.63l16.27 58.84c.22.8-.25 1.62-1.05 1.84-.79.22-1.62-.25-1.84-1.05l-16.17-58.48-6.96-7.35 19.81 74.86c.21.8-.27 1.62-1.07 1.83-.13.03-.26.05-.38.05z"/>
    <path
        d="m297.42 227.3c-.66 0-1.26-.44-1.44-1.1l-6.19-22.39c-.22-.8.25-1.62 1.05-1.84s1.62.25 1.84 1.05l6.19 22.39c.22.8-.25 1.62-1.05 1.84-.13.04-.27.05-.4.05z"/>
    <path
        d="m316.52 296.4c-.05 0-.1 0-.15 0l-10.37-1.07c-.62-.06-1.14-.51-1.3-1.11l-14.08-53.19c-.21-.8.27-1.62 1.07-1.83.81-.21 1.62.27 1.83 1.07l13.81 52.19 7.15.74-14-50.64c-.22-.8.25-1.62 1.05-1.84.79-.22 1.62.25 1.84 1.05l14.58 52.76c.13.48.02.99-.3 1.37-.29.34-.71.53-1.15.53z"/>
    <path
        d="m213.11 78.72c-.38 0-.76-.15-1.06-.44l-34.01-33.77c-.29-.29-.45-.68-.44-1.09s.18-.79.48-1.07l6.74-6.3c.6-.57 1.55-.53 2.12.07.57.61.53 1.55-.07 2.12l-5.6 5.24 32.91 32.67c.59.58.59 1.53 0 2.12-.29.3-.68.44-1.06.44z"/>
    <path
        d="m218.25 87.87c-.38 0-.75-.14-1.05-.42l-40.46-39.32c-.42-.41-.56-1.03-.37-1.58l1.29-3.6c.28-.78 1.14-1.18 1.92-.9s1.18 1.14.9 1.92l-.97 2.69 39.76 38.64c.59.58.61 1.53.03 2.12-.29.3-.68.45-1.08.45z"/>
    <path
        d="m282.41 218.92c-.37 0-.74-.14-1.02-.4l-9.85-9.07c-.53-.49-.64-1.29-.25-1.91l53.02-83.75c.23-.36.6-.61 1.03-.68.42-.07.86.05 1.19.32l8.63 7.05c.58.47.72 1.3.33 1.94l-51.8 85.76c-.23.39-.63.65-1.07.71-.07 0-.14.01-.21.01zm-7.91-10.82 7.58 6.97 50.18-83.08-6.31-5.16-51.44 81.26z"/>
    <path
        d="m282.41 218.92h-3.31c-.36 0-.71-.13-.98-.36l-6.19-5.32c-.29-.25-.48-.61-.51-1l-.35-3.74c-.08-.82.53-1.56 1.35-1.63.8-.09 1.56.53 1.63 1.35l.3 3.14 5.31 4.57h2.75c.83 0 1.5.67 1.5 1.5s-.67 1.5-1.5 1.5z"/>
    <path
        d="m273.39 218.92c-.3 0-.61-.09-.88-.28l-9.31-6.71c-.65-.47-.82-1.37-.38-2.04l8.17-12.43c.46-.69 1.39-.88 2.08-.43.69.46.88 1.39.43 2.08l-7.38 11.23 6.96 5.02 1.37-1.8c.5-.66 1.44-.79 2.1-.29s.79 1.44.29 2.1l-2.26 2.97c-.29.39-.74.59-1.2.59z"/>
    <path
        d="m284.61 180.98c-.28 0-.57-.08-.82-.25-.69-.46-.88-1.39-.43-2.08l10.76-16.36c.46-.69 1.39-.88 2.08-.43.69.46.88 1.39.43 2.08l-10.76 16.36c-.29.44-.77.68-1.25.68z"/>
    <path
        d="m304.69 150.43c-.28 0-.57-.08-.82-.25-.69-.46-.88-1.39-.43-2.08l6.99-10.63c.46-.69 1.39-.88 2.08-.43.69.46.88 1.39.43 2.08l-6.99 10.63c-.29.44-.77.68-1.25.68z"/>
    <path
        d="m323.09 130.03c-.33 0-.66-.11-.94-.33l-1.99-1.59-.77 1.17c-.46.69-1.39.88-2.08.43-.69-.46-.88-1.39-.43-2.08l1.67-2.54c.23-.35.6-.59 1.02-.66s.84.05 1.17.31l3.28 2.62c.65.52.75 1.46.23 2.11-.3.37-.73.56-1.17.56z"/>
    <path
        d="m270.58 220.16c-.32 0-.63-.1-.9-.3l-6.49-4.83c-.38-.28-.6-.73-.6-1.2v-3.12c0-.83.67-1.5 1.5-1.5s1.5.67 1.5 1.5v2.36l5.19 3.86 2.01-.88c.76-.34 1.64.01 1.98.77.33.76-.01 1.64-.77 1.98l-2.81 1.24c-.19.08-.4.13-.6.13z"/>
    <path
        d="m306.15 295.33s-.08 0-.13 0l-6.28-.53c-.62-.05-1.14-.48-1.32-1.08l-15.49-54.01c-.23-.8.23-1.63 1.03-1.86s1.63.23 1.86 1.03l15.21 53.01 5.25.44c.83.07 1.44.79 1.37 1.62-.07.78-.72 1.37-1.49 1.37z"/>
    <path
        d="m282.22 233.31c-.65 0-1.25-.43-1.44-1.09l-5.67-19.78c-.23-.8.23-1.63 1.03-1.86s1.63.23 1.86 1.03l5.67 19.78c.23.8-.23 1.63-1.03 1.86-.14.04-.28.06-.42.06z"/>
    <path
        d="m274.58 206.66c-.65 0-1.25-.43-1.44-1.09l-10.91-38.03c-.23-.8.23-1.63 1.03-1.86s1.63.23 1.86 1.03l10.91 38.03c.23.8-.23 1.63-1.03 1.86-.14.04-.28.06-.42.06z"/>
    <path
        d="m298.87 168.3c-.4 0-.79-.16-1.09-.47l-25.05-26.38c-.57-.6-.55-1.55.05-2.12s1.55-.55 2.12.05l25.05 26.38c.57.6.55 1.55-.05 2.12-.29.28-.66.41-1.03.41z"/>
    <path
        d="m329.69 200.75c-.4 0-.79-.16-1.09-.47l-22.06-23.23c-.57-.6-.55-1.55.05-2.12s1.55-.55 2.12.05l22.06 23.23c.57.6.55 1.55-.05 2.12-.29.28-.66.41-1.03.41z"/>
    <path
        d="m366.58 239.6c-.4 0-.79-.16-1.09-.47l-19.28-20.3c-.57-.6-.55-1.55.05-2.12s1.55-.55 2.12.05l19.28 20.3c.57.6.55 1.55-.05 2.12-.29.28-.66.41-1.03.41z"/>
    <path
        d="m384.01 257.95c-.4 0-.79-.16-1.09-.47l-1.46-1.54c-.57-.6-.55-1.55.06-2.12.6-.57 1.55-.55 2.12.06l1.46 1.54c.57.6.55 1.55-.06 2.12-.29.28-.66.41-1.03.41z"/>
    <path
        d="m422.94 298.95c-.4 0-.79-.16-1.09-.47l-25.67-27.03c-.57-.6-.55-1.55.05-2.12s1.55-.55 2.12.05l25.67 27.03c.57.6.55 1.55-.05 2.12-.29.28-.66.41-1.03.41z"/>
    <path
        d="m313.97 144.45c-.52 0-1.02-.27-1.3-.75-.31-.53-2.96-5.25-2.03-9.08.36-1.47 1.52-5.01 4.6-6.28 2.11-.87 4.53-.47 7.21 1.17.71.43.93 1.36.49 2.06-.43.71-1.36.93-2.06.49-1.82-1.12-3.33-1.44-4.5-.96-1.86.77-2.64 3.42-2.83 4.22-.55 2.26 1.05 5.72 1.71 6.87.41.72.17 1.63-.55 2.05-.24.14-.5.2-.75.2z"/>
    <path
        d="m324.48 149.27c-.63 0-1.22-.4-1.42-1.03-.26-.79.17-1.63.96-1.89 1.21-.4 4.49-4.27 3.97-6.45-.19-.81.31-1.61 1.11-1.81.81-.19 1.61.31 1.81 1.11.93 3.92-3.48 9.17-5.95 9.99-.16.05-.31.08-.47.08z"/>
    <path
        d="m409.25 260.29c-.08 0-.16 0-.23-.02l-123.89-19.5c-.73-.11-1.27-.74-1.27-1.48v-15.47c0-.44.2-.87.54-1.15s.79-.4 1.23-.33l81.1 14.65c.82.15 1.36.93 1.21 1.74-.15.82-.93 1.35-1.74 1.21l-79.33-14.33v12.39l121.29 19.09c.26-.27.62-.44 1.03-.46.83-.05 1.52.62 1.55 1.45l.02.65c.02.45-.17.88-.5 1.17-.28.25-.63.38-.99.38z"/>
    <path
        d="m285.36 240.79c-.1 0-.2 0-.31-.03l-3.48-.72c-.73-.15-1.24-.82-1.19-1.57l.96-14.75c.05-.79.71-1.4 1.5-1.4h2.52c.83 0 1.5.67 1.5 1.5s-.67 1.5-1.5 1.5h-1.11l-.78 12.04 2.2.46c.81.17 1.33.96 1.17 1.77-.15.71-.77 1.2-1.47 1.2z"/>
    <path
        d="m274.35 239.36c-.08 0-.15 0-.23-.02l-3.39-.53c-.75-.12-1.3-.78-1.27-1.54l.56-14c.02-.41.2-.79.51-1.07.31-.27.71-.41 1.12-.37l2.83.24c.78.07 1.37.71 1.37 1.49v14.29c0 .44-.19.85-.52 1.14-.27.23-.62.36-.98.36zm-1.84-3.3.34.05v-8.48z"/>
    <path
        d="m280.09 225.86c-.07 0-.14 0-.21-.01l-5.74-.79c-.82-.11-1.39-.87-1.28-1.69s.88-1.39 1.69-1.28l5.74.79c.82.11 1.39.87 1.28 1.69-.1.75-.75 1.29-1.48 1.29z"/>
    <path
        d="m283.42 240.79c-.08 0-.16 0-.24-.02l-9.07-1.44c-.82-.13-1.38-.9-1.25-1.72s.89-1.38 1.72-1.25l9.07 1.44c.82.13 1.38.9 1.25 1.72-.12.74-.75 1.26-1.48 1.26z"/>
    <path
        d="m341.7 246.23c-.11 0-.22 0-.34-.02-2.15-.23-3.59-2.57-3.29-5.32.13-1.21.59-2.33 1.3-3.15.83-.97 1.95-1.46 3.06-1.33 2.15.23 3.59 2.57 3.29 5.32-.13 1.21-.59 2.33-1.3 3.15-.75.87-1.72 1.35-2.72 1.35zm.39-6.84c-.09 0-.26.09-.45.31-.31.36-.53.92-.59 1.52-.13 1.19.38 1.98.64 2.01.09 0 .27-.08.46-.3.31-.36.53-.92.59-1.52.13-1.19-.38-1.98-.64-2.01 0 0 0 0-.01 0z"/>
    <path
        d="m342.26 306.1c-.11 0-.22 0-.34-.02-2.15-.23-3.59-2.57-3.29-5.32.13-1.21.59-2.33 1.3-3.15.83-.97 1.95-1.46 3.06-1.33 2.15.23 3.59 2.57 3.29 5.32-.13 1.21-.59 2.33-1.3 3.15-.75.87-1.72 1.35-2.72 1.35zm.39-6.84c-.09 0-.26.09-.45.31-.31.36-.53.92-.59 1.52-.13 1.19.38 1.98.64 2.01.1.02.27-.08.46-.3.31-.36.53-.92.59-1.52.13-1.19-.38-1.98-.64-2.01 0 0 0 0-.01 0z"/>
    <path
        d="m331.91 360.59c-.08 0-.16 0-.24-.01-.74-.08-1.38-.53-1.76-1.24-.29-.53-.41-1.19-.33-1.84.09-.84.48-1.59 1.07-2.06.48-.38 1.07-.56 1.64-.5.74.08 1.38.53 1.76 1.24.29.53.41 1.19.33 1.84-.16 1.49-1.23 2.57-2.47 2.57zm-.42-2.89c.09.09.25.19.47.22s.4-.04.51-.11c-.09-.09-.25-.19-.47-.22s-.4.04-.51.11z"/>
    <path
        d="m358.02 352.15c-.08 0-.15 0-.23-.01-.74-.08-1.38-.53-1.76-1.24-.29-.53-.4-1.19-.33-1.84.17-1.58 1.37-2.7 2.71-2.56.74.08 1.38.53 1.76 1.24.29.53.4 1.19.33 1.84-.09.84-.48 1.59-1.07 2.06-.42.33-.91.51-1.41.51zm-.42-2.89c.09.09.25.19.47.21.23.03.4-.04.51-.11-.09-.09-.25-.19-.47-.22-.23-.03-.4.04-.51.11z"/>
    <path
        d="m392.57 249.89c-.11 0-.22 0-.34-.02-2.15-.23-3.59-2.57-3.29-5.32s2.23-4.72 4.36-4.48c1.12.12 2.1.84 2.7 1.96.51.96.72 2.15.59 3.36-.13 1.21-.59 2.33-1.3 3.15-.75.87-1.72 1.35-2.72 1.35zm.39-6.84c-.27 0-.91.66-1.04 1.83-.13 1.19.38 1.98.64 2.01.1 0 .27-.08.46-.3.31-.36.53-.92.59-1.52.07-.6-.03-1.19-.25-1.61-.14-.26-.3-.39-.38-.4 0 0-.01 0-.02 0z"/>
    <path
        d="m309.18 166.66c-.11 0-.22 0-.34-.02-2.15-.23-3.59-2.57-3.29-5.32.13-1.21.59-2.33 1.3-3.15.83-.97 1.95-1.46 3.06-1.33 2.15.23 3.59 2.57 3.29 5.32-.13 1.21-.59 2.33-1.3 3.15-.75.87-1.72 1.35-2.72 1.35zm.39-6.84c-.09 0-.26.09-.45.3-.31.36-.53.92-.59 1.52-.13 1.19.38 1.98.64 2.01.09.03.27-.08.46-.3.31-.36.53-.92.59-1.52.13-1.19-.38-1.98-.64-2.01 0 0 0 0-.01 0z"/>
    <path
        d="m257.78 104.78c-.11 0-.22 0-.34-.02-2.15-.23-3.59-2.57-3.29-5.32.13-1.21.59-2.33 1.3-3.15.83-.97 1.95-1.46 3.06-1.33 2.15.23 3.59 2.57 3.29 5.32-.13 1.21-.59 2.33-1.3 3.15-.75.87-1.72 1.35-2.72 1.35zm.39-6.84c-.09 0-.27.09-.45.3-.31.36-.53.92-.59 1.52-.13 1.19.38 1.98.64 2.01.1.01.27-.08.46-.3.31-.36.53-.92.59-1.52.13-1.19-.38-1.98-.64-2.01 0 0 0 0-.01 0z"/>
    <path
        d="m193.94 37.73c-.11 0-.22 0-.34-.02-2.15-.23-3.59-2.57-3.29-5.32.13-1.21.59-2.33 1.3-3.15.83-.97 1.95-1.46 3.06-1.33 2.15.23 3.59 2.57 3.29 5.32-.13 1.21-.59 2.33-1.3 3.15-.75.87-1.72 1.35-2.72 1.35zm.39-6.84c-.09 0-.26.09-.45.31-.31.36-.53.92-.59 1.52-.13 1.19.38 1.98.64 2.01.08 0 .27-.08.46-.3.31-.36.53-.92.59-1.52.13-1.19-.38-1.98-.64-2.01 0 0 0 0-.01 0z"/>
    <path
        d="m374.86 251.23h-8.78c-.41 0-.8-.17-1.09-.47-.28-.3-.43-.7-.41-1.11l.69-14.2c.04-.78.66-1.4 1.44-1.43l8.59-.33c.39-.03.82.14 1.12.44.29.29.46.7.44 1.11l-.5 14.53c-.03.81-.69 1.45-1.5 1.45zm-7.2-3h5.75l.4-11.47-5.61.22-.55 11.25z"/>
    <path
        d="m416.87 258.93c-.09 0-.18 0-.27-.02l-42.02-7.7c-.81-.15-1.35-.93-1.21-1.75.15-.82.93-1.36 1.75-1.21l40.34 7.39.56-10.12-40.98-8.87c-.81-.17-1.32-.97-1.15-1.78s.97-1.32 1.78-1.15l42.23 9.14c.72.16 1.22.81 1.18 1.55l-.72 13.09c-.02.43-.23.83-.57 1.1-.27.21-.59.32-.93.32z"/>
    <path
        d="m414.36 260.29c-.09 0-.18 0-.28-.03l-48.28-9.07c-.81-.15-1.35-.94-1.2-1.75s.94-1.35 1.75-1.2l47.75 8.97 2.05-1.11c.73-.39 1.64-.13 2.03.6.4.73.12 1.64-.6 2.03l-2.52 1.37c-.22.12-.47.18-.72.18z"/>
    <path
        d="m297.28 304.3s-.06 0-.09 0l-7.34-.43c-.8-.05-1.43-.72-1.41-1.52l.14-8.06c.01-.78.62-1.42 1.4-1.47l7.19-.48c.42-.02.82.12 1.12.4s.48.68.48 1.1v8.97c0 .41-.17.81-.47 1.09-.28.26-.65.41-1.03.41zm-5.81-3.34 4.31.25v-5.77l-4.22.28z"/>
    <path
        d="m468.41 316.44s-.07 0-.11 0l-38.13-2.7c-.83-.06-1.45-.78-1.39-1.6.06-.83.81-1.44 1.6-1.39l38.13 2.7c.83.06 1.45.78 1.39 1.6-.06.79-.71 1.39-1.49 1.39z"/>
    <path
        d="m422.76 313.2s-.07 0-.11 0l-125.48-8.9c-.79-.06-1.39-.71-1.39-1.5v-8.97c0-.42.17-.82.48-1.1s.71-.44 1.13-.4l125.43 9.61c.83.06 1.44.79 1.38 1.61-.06.83-.78 1.45-1.61 1.38l-123.82-9.49v5.95l124.09 8.8c.83.06 1.45.78 1.39 1.6-.06.79-.71 1.39-1.49 1.39z"/>
    <path
        d="m468.13 308.42s-.08 0-.12 0l-37.66-2.89c-.83-.06-1.44-.79-1.38-1.61.06-.83.79-1.44 1.61-1.38l37.66 2.89c.83.06 1.44.79 1.38 1.61-.06.79-.72 1.39-1.49 1.39z"/>
    <path
        d="m201.37 57.85h-.03c-4.79-.11-9.49-3.15-12.57-8.14-2.45-3.97-3.22-8.22-1.98-10.84.36-.75 1.25-1.06 2-.71.75.36 1.07 1.25.71 2-.67 1.41-.26 4.6 1.82 7.97 2.54 4.12 6.31 6.63 10.08 6.72.83.02 1.48.71 1.47 1.53-.02.82-.69 1.47-1.5 1.47z"/>
    <path
        d="m188.38 240.53c-.78 0-1.53-.3-2.13-.88-1.38-1.32-2.49-4.58-.05-12.57v-185.57c0-.83.67-1.5 1.5-1.5s1.5.67 1.5 1.5v185.45c.69 1.47 3.08 6.86 2.65 10.22-.19 1.47-1.15 2.71-2.44 3.17-.34.12-.69.18-1.03.18zm-.34-8.39c-.69 3.96.09 5.29.35 5.39.08 0 .42-.23.48-.73.15-1.18-.27-2.97-.83-4.66z"/>
    <path
        d="m189.21 264.19c-.45 0-.9-.18-1.25-.54-2.02-2.06-3.6-24.26-2.01-28.28.51-1.28 1.38-1.5 1.86-1.52 1.5-.06 2.23 1.51 2.56 2.18 1.64 3.31 2.51 25.92-.2 27.84-.3.21-.64.32-.97.32zm-.9-24.35c-.11 3.4.15 8.62.55 13.12.07-4.6-.08-9.9-.55-13.12z"/>
    <path
        d="m451.19 307.37c-.83 0-1.5-.67-1.5-1.5v-9.59c0-.79.61-1.44 1.4-1.5l6.33-.43c.41-.04.82.12 1.13.4.3.28.48.68.48 1.1v7.2c0 .83-.67 1.5-1.5 1.5s-1.5-.67-1.5-1.5v-5.59l-3.33.23v8.19c0 .83-.67 1.5-1.5 1.5z"/>
    <path
        d="m451.19 319.85c-.83 0-1.5-.67-1.5-1.5v-4.43c0-.83.67-1.5 1.5-1.5s1.5.67 1.5 1.5v4.43c0 .83-.67 1.5-1.5 1.5z"/>
    <path
        d="m458.61 318.21c-.83 0-1.5-.67-1.5-1.5v-2.12c0-.83.67-1.5 1.5-1.5s1.5.67 1.5 1.5v2.12c0 .83-.67 1.5-1.5 1.5z"/>
    <path
        d="m451.19 391.64c-.83 0-1.5-.67-1.5-1.5v-58.71c0-.83.67-1.5 1.5-1.5s1.5.67 1.5 1.5v58.71c0 .83-.67 1.5-1.5 1.5z"/>
    <path
        d="m458.61 405.41h-7.42c-.83 0-1.5-.67-1.5-1.5v-5.47c0-.83.67-1.5 1.5-1.5s1.5.67 1.5 1.5v3.97h4.42v-.56c0-.83.67-1.5 1.5-1.5s1.5.67 1.5 1.5v2.06c0 .83-.67 1.5-1.5 1.5z"/>
    <path
        d="m458.61 395.14c-.83 0-1.5-.67-1.5-1.5v-56.57c0-.83.67-1.5 1.5-1.5s1.5.67 1.5 1.5v56.57c0 .83-.67 1.5-1.5 1.5z"/>
    <path
        d="m188.75 293.74c-1.37 0-3.45-.52-5.24-3.14-1.75-2.57-2.31-5.96-1.53-9.3.79-3.42 2.93-6.34 5.87-8.01 2.03-1.16 3.25-3.64 3.26-6.64.01-2.47-.84-4.5-1.64-4.96-.43-.25-1.29.3-1.84 1.19-.96 1.58-.98 3.92 1.87 5.75.7.45.9 1.38.45 2.07-.45.7-1.38.9-2.07.45-4.35-2.79-4.5-7.06-2.81-9.83 1.45-2.38 3.99-3.33 5.9-2.22 1.92 1.12 3.15 4.09 3.14 7.57-.02 4.09-1.8 7.54-4.78 9.23-2.24 1.28-3.82 3.44-4.43 6.08-.58 2.49-.17 5.08 1.09 6.93.62.91 1.68 1.97 3.02 1.81 1.44-.16 2.92-1.58 3.68-3.53 1.32-3.36-1.7-6.42-1.73-6.45-.59-.58-.59-1.53 0-2.12s1.53-.59 2.12 0c.18.18 4.44 4.5 2.41 9.67-1.2 3.05-3.55 5.13-6.14 5.42-.18.02-.38.03-.6.03z"/>
    <path
        d="m188.83 307.7c-5.47 0-9.92-4.45-9.92-9.92s4.45-9.92 9.92-9.92 9.92 4.45 9.92 9.92-4.45 9.92-9.92 9.92zm0-16.83c-3.81 0-6.92 3.1-6.92 6.92s3.1 6.92 6.92 6.92 6.92-3.1 6.92-6.92-3.1-6.92-6.92-6.92z"/>
    <path
        d="m167.81 322.81c-2.86 0-5.19-2.33-5.19-5.19s2.33-5.19 5.19-5.19 5.19 2.33 5.19 5.19-2.33 5.19-5.19 5.19zm0-7.38c-1.21 0-2.19.98-2.19 2.19s.98 2.19 2.19 2.19 2.19-.98 2.19-2.19-.98-2.19-2.19-2.19z"/>
    <path
        d="m169.33 318.8c-.35 0-.67-.09-.98-.26-.45-.25-1.18-.9-.96-2.38.57-3.9 13.65-15.07 16.26-15.31.81-.08 1.54.37 1.8 1.11.99 2.88-11.68 14.33-11.81 14.43-1.98 1.66-3.28 2.4-4.31 2.4zm1.02-2.12h.01zm5.56-6.51c-.86.8-1.68 1.61-2.42 2.37.78-.73 1.6-1.54 2.42-2.37z"/>
    <path
        d="m187.58 350.08c-.4 0-.78-.16-1.06-.44l-6.26-6.26c-.28-.28-.44-.66-.44-1.06s.16-.78.44-1.06l6.26-6.26c.59-.59 1.54-.59 2.12 0l6.26 6.26c.59.59.59 1.54 0 2.12l-6.26 6.26c-.28.28-.66.44-1.06.44zm-4.14-7.76 4.14 4.14 4.14-4.14-4.14-4.14z"/>
    <path
        d="m211.93 384.36c-.38 0-.77-.15-1.06-.44-.59-.59-.59-1.54 0-2.12 1.78-1.78 1.96-4.62.4-6.61l-22.17-28.39c-.51-.65-.39-1.59.26-2.11.65-.51 1.59-.39 2.11.26l22.17 28.39c2.48 3.18 2.2 7.73-.65 10.58-.29.29-.68.44-1.06.44z"/>
    <path
        d="m412.59 323.35c-.55 0-1.09-.31-1.35-.84-.36-.74-.06-1.64.69-2.01 3.44-1.68 6.71-2.8 10.62-3.62.8-.17 1.61.35 1.78 1.16s-.35 1.61-1.16 1.78c-3.66.77-6.72 1.81-9.92 3.38-.21.1-.44.15-.66.15z"/>
    <path
        d="m397.18 334.62c-.37 0-.74-.14-1.03-.41-.6-.57-.63-1.52-.06-2.12 2.41-2.55 4.63-4.49 7.67-6.7.67-.49 1.61-.34 2.09.33.49.67.34 1.61-.33 2.09-2.88 2.1-4.98 3.93-7.25 6.34-.29.31-.69.47-1.09.47z"/>
    <path
        d="m376.96 379.99c-.06 0-.12 0-.17 0-.82-.1-1.41-.84-1.32-1.66 1.14-9.88 3.33-18.07 6.87-25.78.35-.75 1.24-1.08 1.99-.74.75.35 1.08 1.24.74 1.99-3.41 7.42-5.51 15.32-6.62 24.87-.09.76-.74 1.33-1.49 1.33z"/>
    <path
        d="m398.27 447.94c-.38 0-.76-.14-1.05-.43-6.95-6.84-12.67-15.79-16.53-25.86-.3-.77.09-1.64.86-1.94.78-.3 1.64.09 1.94.86 3.71 9.68 9.19 18.26 15.83 24.8.59.58.6 1.53.02 2.12-.29.3-.68.45-1.07.45z"/>
    <path
        d="m431.78 462.53c-1.03 0-2.07-.04-3.11-.11-.83-.06-1.45-.77-1.39-1.6s.78-1.45 1.6-1.39c.97.07 1.94.1 2.9.1 29.75 0 53.95-31.54 53.95-70.3s-24.2-70.3-53.95-70.3c-.41 0-.82 0-1.22.02-.81.04-1.52-.63-1.54-1.46s.63-1.52 1.46-1.54c.43-.01.87-.02 1.31-.02 31.4 0 56.95 32.88 56.95 73.3s-25.55 73.3-56.95 73.3z"/>
    <path
        d="m412.73 332.6c-.51 0-1-.26-1.29-.72-.43-.71-.2-1.63.51-2.06 3.42-2.07 7.03-3.59 10.72-4.54.81-.21 1.62.28 1.83 1.08s-.28 1.62-1.08 1.83c-3.41.87-6.74 2.28-9.91 4.2-.24.15-.51.22-.77.22z"/>
    <path
        d="m397.18 347.81c-.29 0-.58-.08-.84-.26-.69-.46-.87-1.4-.4-2.08 2.39-3.54 5.07-6.73 7.97-9.48.6-.57 1.55-.54 2.12.06s.54 1.55-.06 2.12c-2.74 2.6-5.28 5.62-7.55 8.98-.29.43-.76.66-1.24.66z"/>
    <path
        d="m431.78 454.33c-3.06 0-6.13-.39-9.11-1.15-.8-.21-1.29-1.02-1.08-1.83.2-.8 1.02-1.29 1.83-1.08 2.74.7 5.55 1.05 8.36 1.05 15.71 0 30.09-10.9 38.47-29.16.35-.75 1.23-1.08 1.99-.74.75.35 1.08 1.24.74 1.99-8.88 19.35-24.28 30.91-41.2 30.91z"/>
    <path
        d="m474.37 417.4c-.16 0-.32-.03-.48-.08-.78-.27-1.2-1.12-.94-1.9.68-1.98 1.28-4.03 1.79-6.08.2-.8 1.01-1.29 1.82-1.09.8.2 1.29 1.02 1.09 1.82-.53 2.13-1.16 4.26-1.86 6.32-.21.62-.8 1.02-1.42 1.02z"/>
    <path
        d="m477.52 404.86c-.08 0-.17 0-.25-.02-.82-.14-1.37-.91-1.23-1.73.76-4.53 1.14-9.2 1.14-13.88 0-25.66-11.09-48.3-28.25-57.68-.73-.4-.99-1.31-.6-2.04s1.31-.99 2.04-.6c18.11 9.9 29.81 33.58 29.81 60.31 0 4.85-.4 9.69-1.18 14.38-.12.73-.76 1.25-1.48 1.25z"/>
    <path
        d="m443.05 328.89c-.15 0-.31-.02-.46-.07-2.03-.65-4.12-1.11-6.21-1.37-.82-.1-1.41-.85-1.3-1.67.1-.82.85-1.41 1.67-1.3 2.28.28 4.55.78 6.76 1.49.79.25 1.22 1.1.97 1.89-.21.64-.79 1.04-1.43 1.04z"/>
    <path
        d="m460.31 462.53c-5 0-9.96-.83-14.75-2.48-.78-.27-1.2-1.12-.93-1.91s1.12-1.2 1.91-.93c4.47 1.54 9.11 2.32 13.77 2.32 29.75 0 53.95-31.54 53.95-70.3s-24.2-70.3-53.95-70.3c-4.67 0-9.3.78-13.77 2.32-.78.26-1.64-.15-1.91-.93s.15-1.64.93-1.91c4.79-1.65 9.75-2.48 14.75-2.48 31.4 0 56.95 32.88 56.95 73.3s-25.55 73.3-56.95 73.3z"/>
    <path
        d="m413.07 353.27c-.22 0-.44-.05-.65-.15-.75-.36-1.06-1.25-.71-2 2.75-5.74 6.11-10.97 10-15.56.54-.63 1.48-.71 2.11-.17s.71 1.48.17 2.11c-3.72 4.39-6.95 9.41-9.58 14.91-.26.54-.79.85-1.35.85z"/>
    <path
        d="m416.37 434.52c-.51 0-1.01-.26-1.29-.73-1.64-2.76-3.15-5.7-4.47-8.74-.33-.76.02-1.64.78-1.97s1.64.02 1.97.78c1.27 2.92 2.72 5.75 4.3 8.41.42.71.19 1.63-.52 2.06-.24.14-.5.21-.77.21z"/>
    <path
        d="m434.41 454.23c-.29 0-.59-.08-.85-.26-4.79-3.29-9.2-7.44-13.09-12.34-.51-.65-.41-1.59.24-2.11.65-.51 1.59-.41 2.11.24 3.71 4.67 7.89 8.62 12.43 11.73.68.47.86 1.4.39 2.08-.29.42-.76.65-1.24.65z"/>
    <path
        d="m460.12 457.79c-.09 0-.18 0-.28 0-2.41-.02-4.83-.25-7.19-.68-.82-.15-1.35-.93-1.2-1.75s.93-1.35 1.75-1.2c2.19.4 4.43.62 6.67.63h.26c27.31 0 49.69-29.18 49.93-65.22.25-36.15-21.87-65.71-49.3-65.89-2.52-.01-5.04.22-7.52.69-.81.15-1.6-.37-1.76-1.19-.16-.81.38-1.6 1.19-1.76 2.66-.51 5.37-.79 8.1-.75 29.08.2 52.54 31.11 52.28 68.91-.26 37.68-23.98 68.2-52.93 68.2z"/>
    <path
        d="m435.21 332.38c-.46 0-.91-.21-1.21-.61-.49-.67-.35-1.6.31-2.1 2.05-1.52 4.2-2.88 6.4-4.03.73-.39 1.64-.1 2.02.63s.1 1.64-.63 2.02c-2.06 1.08-4.08 2.35-6.01 3.78-.27.2-.58.29-.89.29z"/>
    <path
        d="m412.61 366.37c-.14 0-.29-.02-.43-.06-.79-.24-1.24-1.08-1-1.87 2.42-8.02 5.93-15.32 10.46-21.67.48-.67 1.42-.83 2.09-.35s.83 1.42.35 2.09c-4.33 6.09-7.71 13.09-10.03 20.8-.2.65-.79 1.07-1.44 1.07z"/>
    <path
        d="m417.8 428.56c-.54 0-1.07-.3-1.34-.82-1.64-3.19-3.08-6.61-4.28-10.16-.27-.79.16-1.64.94-1.9.79-.27 1.64.16 1.9.94 1.15 3.41 2.53 6.68 4.11 9.75.38.74.09 1.64-.65 2.02-.22.11-.45.17-.68.17z"/>
    <path
        d="m441.18 453.05c-.23 0-.47-.05-.69-.17-7.25-3.78-13.56-9.34-18.76-16.53-.49-.67-.34-1.61.33-2.09.67-.49 1.61-.34 2.09.33 4.92 6.8 10.89 12.06 17.72 15.62.74.38 1.02 1.29.64 2.02-.27.51-.79.81-1.33.81z"/>
    <path
        d="m474.26 326.53h-17.62c-.83 0-1.5-.67-1.5-1.5s.67-1.5 1.5-1.5h17.62c.83 0 1.5.67 1.5 1.5s-.67 1.5-1.5 1.5z"/>
    <path
        d="m481.84 329.96h-20.51c-.83 0-1.5-.67-1.5-1.5s.67-1.5 1.5-1.5h20.51c.83 0 1.5.67 1.5 1.5s-.67 1.5-1.5 1.5z"/>
    <path
        d="m492.83 339.06h-22.55c-.83 0-1.5-.67-1.5-1.5s.67-1.5 1.5-1.5h22.55c.83 0 1.5.67 1.5 1.5s-.67 1.5-1.5 1.5z"/>
    <path d="m497 343.92h-23.17c-.83 0-1.5-.67-1.5-1.5s.67-1.5 1.5-1.5h23.17c.83 0 1.5.67 1.5 1.5s-.67 1.5-1.5 1.5z"/>
    <path
        d="m504.86 358.13h-23.67c-.83 0-1.5-.67-1.5-1.5s.67-1.5 1.5-1.5h23.67c.83 0 1.5.67 1.5 1.5s-.67 1.5-1.5 1.5z"/>
    <path d="m507.69 364.3h-24.34c-.83 0-1.5-.67-1.5-1.5s.67-1.5 1.5-1.5h24.34c.83 0 1.5.67 1.5 1.5s-.67 1.5-1.5 1.5z"/>
    <path
        d="m510.76 381.63h-23.98c-.83 0-1.5-.67-1.5-1.5s.67-1.5 1.5-1.5h23.98c.83 0 1.5.67 1.5 1.5s-.67 1.5-1.5 1.5z"/>
    <path
        d="m511.15 388.48h-23.92c-.83 0-1.5-.67-1.5-1.5s.67-1.5 1.5-1.5h23.92c.83 0 1.5.67 1.5 1.5s-.67 1.5-1.5 1.5z"/>
    <path
        d="m508.08 413.42h-23.17c-.83 0-1.5-.67-1.5-1.5s.67-1.5 1.5-1.5h23.17c.83 0 1.5.67 1.5 1.5s-.67 1.5-1.5 1.5z"/>
    <path
        d="m510.04 406.75h-23.92c-.83 0-1.5-.67-1.5-1.5s.67-1.5 1.5-1.5h23.92c.83 0 1.5.67 1.5 1.5s-.67 1.5-1.5 1.5z"/>
    <path
        d="m501.57 429.54h-23.13c-.83 0-1.5-.67-1.5-1.5s.67-1.5 1.5-1.5h23.13c.83 0 1.5.67 1.5 1.5s-.67 1.5-1.5 1.5z"/>
    <path d="m498.61 435.1h-22.9c-.83 0-1.5-.67-1.5-1.5s.67-1.5 1.5-1.5h22.9c.83 0 1.5.67 1.5 1.5s-.67 1.5-1.5 1.5z"/>
    <path
        d="m487.45 447.71h-20.91c-.83 0-1.5-.67-1.5-1.5s.67-1.5 1.5-1.5h20.91c.83 0 1.5.67 1.5 1.5s-.67 1.5-1.5 1.5z"/>
    <path d="m479.75 451.5h-17.76c-.83 0-1.5-.67-1.5-1.5s.67-1.5 1.5-1.5h17.76c.83 0 1.5.67 1.5 1.5s-.67 1.5-1.5 1.5z"/>
    <path d="m430.81 453.28h-7.57c-.83 0-1.5-.67-1.5-1.5s.67-1.5 1.5-1.5h7.57c.83 0 1.5.67 1.5 1.5s-.67 1.5-1.5 1.5z"/>
    <path d="m427.02 449.1h-6.79c-.83 0-1.5-.67-1.5-1.5s.67-1.5 1.5-1.5h6.79c.83 0 1.5.67 1.5 1.5s-.67 1.5-1.5 1.5z"/>
    <path d="m415.84 434.52h-4.86c-.83 0-1.5-.67-1.5-1.5s.67-1.5 1.5-1.5h4.86c.83 0 1.5.67 1.5 1.5s-.67 1.5-1.5 1.5z"/>
    <path d="m405.75 421.67h-2.52c-.83 0-1.5-.67-1.5-1.5s.67-1.5 1.5-1.5h2.52c.83 0 1.5.67 1.5 1.5s-.67 1.5-1.5 1.5z"/>
    <path d="m407.02 415.67h-7.85c-.83 0-1.5-.67-1.5-1.5s.67-1.5 1.5-1.5h7.85c.83 0 1.5.67 1.5 1.5s-.67 1.5-1.5 1.5z"/>
    <path d="m404.86 402.57h-5.33c-.83 0-1.5-.67-1.5-1.5s.67-1.5 1.5-1.5h5.33c.83 0 1.5.67 1.5 1.5s-.67 1.5-1.5 1.5z"/>
    <path d="m404.86 379.99h-5.33c-.83 0-1.5-.67-1.5-1.5s.67-1.5 1.5-1.5h5.33c.83 0 1.5.67 1.5 1.5s-.67 1.5-1.5 1.5z"/>
    <path d="m404.86 356.94h-7.77c-.83 0-1.5-.67-1.5-1.5s.67-1.5 1.5-1.5h7.77c.83 0 1.5.67 1.5 1.5s-.67 1.5-1.5 1.5z"/>
    <path d="m404.72 351.9h-7.63c-.83 0-1.5-.67-1.5-1.5s.67-1.5 1.5-1.5h7.63c.83 0 1.5.67 1.5 1.5s-.67 1.5-1.5 1.5z"/>
    <path
        d="m423.04 337.49h-10.43c-.83 0-1.5-.67-1.5-1.5s.67-1.5 1.5-1.5h10.43c.83 0 1.5.67 1.5 1.5s-.67 1.5-1.5 1.5z"/>
    <path
        d="m423.04 332.93h-10.43c-.83 0-1.5-.67-1.5-1.5s.67-1.5 1.5-1.5h10.43c.83 0 1.5.67 1.5 1.5s-.67 1.5-1.5 1.5z"/>
    <path
        d="m184.8 340.35c-.45 0-.89-.2-1.18-.58l-14.47-18.53c-.51-.65-.39-1.59.26-2.11.65-.51 1.59-.39 2.11.26l14.47 18.53c.51.65.39 1.59-.26 2.11-.27.21-.6.32-.92.32z"/>
    <path
        d="m207.35 322.81c-2.86 0-5.19-2.33-5.19-5.19s2.33-5.19 5.19-5.19 5.19 2.33 5.19 5.19-2.33 5.19-5.19 5.19zm0-7.38c-1.21 0-2.19.98-2.19 2.19s.98 2.19 2.19 2.19 2.19-.98 2.19-2.19-.98-2.19-2.19-2.19z"/>
    <path
        d="m205.82 318.8c-1.03 0-2.33-.75-4.31-2.41-.13-.11-12.8-11.55-11.8-14.43.26-.74.99-1.2 1.8-1.11 2.6.25 15.69 11.41 16.26 15.31.21 1.48-.51 2.13-.96 2.38-.31.17-.63.26-.98.26zm-6.58-8.64c.82.84 1.65 1.65 2.43 2.38-.74-.77-1.57-1.58-2.43-2.38z"/>
    <path
        d="m163.22 384.36c-.38 0-.77-.15-1.06-.44-2.85-2.85-3.13-7.4-.65-10.58l22.17-28.39c.51-.65 1.45-.77 2.11-.26.65.51.77 1.45.26 2.11l-22.17 28.39c-1.55 1.99-1.38 4.83.4 6.61.59.59.59 1.54 0 2.12-.29.29-.68.44-1.06.44z"/>
    <path
        d="m190.57 340.07c-.32 0-.65-.1-.92-.32-.65-.51-.77-1.45-.26-2.11l14.26-18.26c.51-.65 1.45-.77 2.11-.26.65.51.77 1.45.26 2.11l-14.26 18.26c-.3.38-.74.58-1.18.58z"/>
    <path
        d="m211.18 399.08h-42.66c-.83 0-1.5-.67-1.5-1.5v-21.44c0-.83.67-1.5 1.5-1.5h42.66c.83 0 1.5.67 1.5 1.5v21.44c0 .83-.67 1.5-1.5 1.5zm-41.16-3h39.66v-18.44h-39.66z"/>
    <path
        d="m168.51 399.08h-4.82c-.83 0-1.5-.67-1.5-1.5v-21.44c0-.83.67-1.5 1.5-1.5h4.82c.83 0 1.5.67 1.5 1.5v21.44c0 .83-.67 1.5-1.5 1.5zm-3.32-3h1.82v-18.44h-1.82z"/>
    <path
        d="m266.57 73.54c-.22 0-.45-.05-.66-.15l-50.31-24.76c-.74-.37-1.05-1.26-.68-2.01s1.27-1.05 2.01-.68l50.31 24.76c.74.37 1.05 1.26.68 2.01-.26.53-.79.84-1.35.84z"/>
    <path
        d="m321.33 130.89c-.41 0-.82-.17-1.11-.49l-43.74-48.3c-.56-.61-.51-1.56.11-2.12.61-.55 1.56-.51 2.12.11l43.74 48.3c.56.61.51 1.56-.11 2.12-.29.26-.65.39-1.01.39z"/>
    <path
        d="m409.61 242.81c-.45 0-.89-.2-1.19-.58l-79.14-102.31c-.51-.66-.39-1.6.27-2.1.66-.51 1.6-.39 2.1.27l79.14 102.31c.51.66.39 1.6-.27 2.1-.27.21-.6.31-.92.31z"/>
    <path
        d="m413.57 265.47c-.83 0-1.5-.67-1.5-1.5v-4.68c0-.83.67-1.5 1.5-1.5s1.5.67 1.5 1.5v4.68c0 .83-.67 1.5-1.5 1.5z"/>
    <path
        d="m476.76 321.04c-.83 0-1.5-.67-1.5-1.5v-22.72h-5.35v21.19c0 .83-.67 1.5-1.5 1.5s-1.5-.67-1.5-1.5v-22.69c0-.83.67-1.5 1.5-1.5h8.35c.83 0 1.5.67 1.5 1.5v24.22c0 .83-.67 1.5-1.5 1.5z"/>
    <path
        d="m336.13 296.82c-.83 0-1.5-.67-1.5-1.5v-48.03c0-.83.67-1.5 1.5-1.5s1.5.67 1.5 1.5v48.03c0 .83-.67 1.5-1.5 1.5z"/>
    <path
        d="m336.13 234.5c-.83 0-1.5-.67-1.5-1.5v-33.22h-3.74v31.85c0 .83-.67 1.5-1.5 1.5s-1.5-.67-1.5-1.5v-33.35c0-.83.67-1.5 1.5-1.5h6.74c.83 0 1.5.67 1.5 1.5v34.72c0 .83-.67 1.5-1.5 1.5z"/>
    <path
        d="m329.39 296.82c-.83 0-1.5-.67-1.5-1.5v-49.09c0-.83.67-1.5 1.5-1.5s1.5.67 1.5 1.5v49.09c0 .83-.67 1.5-1.5 1.5z"/>
    <path
        d="m346.96 297.78c-.83 0-1.5-.67-1.5-1.5v-47.29c0-.83.67-1.5 1.5-1.5s1.5.67 1.5 1.5v47.29c0 .83-.67 1.5-1.5 1.5z"/>
    <path
        d="m346.96 236.46c-.83 0-1.5-.67-1.5-1.5v-26.24c0-.83.67-1.5 1.5-1.5s1.5.67 1.5 1.5v26.24c0 .83-.67 1.5-1.5 1.5z"/>
    <path
        d="m324.57 325.69h-7.34c-.48 0-.93-.23-1.21-.62s-.36-.89-.22-1.34l5.97-18.57c.25-.79 1.1-1.23 1.89-.97.79.25 1.22 1.1.97 1.89l-5.34 16.61h4.21c5.81-16.67 6.03-16.89 6.34-17.19.59-.59 1.54-.58 2.12 0 .5.5.57 1.25.23 1.83-.5 1.11-4.05 11.17-6.2 17.35-.21.6-.78 1.01-1.42 1.01z"/>
    <path
        d="m364.14 327.56s-.05 0-.07 0l-39.57-1.87c-.83-.04-1.47-.74-1.43-1.57s.7-1.47 1.57-1.43l37.32 1.76-5.92-16.3c-.28-.78.12-1.64.9-1.92s1.64.12 1.92.9l6.69 18.42c.17.47.09 1-.2 1.4-.28.38-.73.61-1.21.61z"/>
    <path
        d="m326.8 333.61h-12.88c-.83 0-1.5-.67-1.5-1.5v-7.91c0-.83.67-1.5 1.5-1.5h2.73c.83 0 1.5.67 1.5 1.5s-.67 1.5-1.5 1.5h-1.23v4.91h9.88v-6.28c0-.83.67-1.5 1.5-1.5s1.5.67 1.5 1.5v7.78c0 .83-.67 1.5-1.5 1.5z"/>
    <path
        d="m367.02 334.83s-.03 0-.05 0l-40.22-1.22c-.83-.02-1.48-.72-1.45-1.54.02-.83.73-1.48 1.54-1.45l38.67 1.18v-4.22h-1.38c-.83 0-1.5-.67-1.5-1.5s.67-1.5 1.5-1.5h2.88c.83 0 1.5.67 1.5 1.5v7.27c0 .41-.16.79-.46 1.08-.28.27-.65.42-1.04.42z"/>
    <path
        d="m397.09 302.98c-.83 0-1.5-.67-1.5-1.5v-39.85c0-.83.67-1.5 1.5-1.5s1.5.67 1.5 1.5v39.85c0 .83-.67 1.5-1.5 1.5z"/>
    <path
        d="m397.09 376.77h-13.39c-.83 0-1.5-.67-1.5-1.5v-66.35c0-.83.67-1.5 1.5-1.5s1.5.67 1.5 1.5v64.85h10.39v-63.9c0-.83.67-1.5 1.5-1.5s1.5.67 1.5 1.5v65.4c0 .83-.67 1.5-1.5 1.5z"/>
    <path
        d="m383.7 302.13c-.83 0-1.5-.67-1.5-1.5v-44.5c0-.83.67-1.5 1.5-1.5s1.5.67 1.5 1.5v44.5c0 .83-.67 1.5-1.5 1.5z"/>
    <path
        d="m454.86 307.13c-.83 0-1.5-.67-1.5-1.5v-2.59c0-.83.67-1.5 1.5-1.5h13.55c.83 0 1.5.67 1.5 1.5s-.67 1.5-1.5 1.5h-12.05v1.09c0 .83-.67 1.5-1.5 1.5z"/>
    <path
        d="m412.55 304.17c-.83 0-1.5-.67-1.5-1.5v-8.92h-4.69v8.33c0 .83-.67 1.5-1.5 1.5s-1.5-.67-1.5-1.5v-9.83c0-.83.67-1.5 1.5-1.5h7.67c.83 0 1.5.67 1.5 1.5l.02 10.42c0 .83-.67 1.5-1.5 1.5z"/>
    <path
        d="m412.69 383.17c-.83 0-1.5-.67-1.5-1.5l-.12-70.48c0-.83.67-1.5 1.5-1.5.83 0 1.5.67 1.5 1.5l.12 70.48c0 .83-.67 1.5-1.5 1.5z"/>
    <path
        d="m412.73 405.41h-7.87c-.83 0-1.5-.67-1.5-1.5v-4.72c0-.83.67-1.5 1.5-1.5s1.5.67 1.5 1.5v3.22h4.86v-3.26c0-.83.66-1.5 1.49-1.5.83 0 1.5.67 1.5 1.5v4.77c0 .4-.15.78-.43 1.06s-.66.44-1.06.44z"/>
    <path
        d="m404.86 383.36c-.83 0-1.5-.67-1.5-1.5v-71.2c0-.83.67-1.5 1.5-1.5s1.5.67 1.5 1.5v71.2c0 .83-.67 1.5-1.5 1.5z"/>
    <path
        d="m430.81 405.41h-7.87c-.83 0-1.5-.67-1.5-1.5v-111.66c0-.83.67-1.5 1.5-1.5h7.67c.83 0 1.5.67 1.5 1.5l.19 111.66c0 .4-.16.78-.44 1.06s-.66.44-1.06.44zm-6.37-3h4.86l-.19-108.66h-4.68v108.66z"/>
    <path
        d="m399.53 404.02h-7.26c-.83 0-1.5-.67-1.5-1.5s.67-1.5 1.5-1.5h5.76v-24.24h-15.32v8.49c0 .83-.67 1.5-1.5 1.5s-1.5-.67-1.5-1.5v-9.99c0-.83.67-1.5 1.5-1.5h18.32c.83 0 1.5.67 1.5 1.5v27.24c0 .83-.67 1.5-1.5 1.5z"/>
    <path
        d="m421.7 474.33s-.07 0-.11 0c0 0-.01 0-.02 0l-6.9-.57c-.47-.04-.9-.3-1.15-.71l-47.34-76.67c-.1-.17-.17-.36-.21-.55l-2.44-15.46c-.11-.71.29-1.39.96-1.64s1.42.01 1.8.62l56.26 91.99h10.69l-72.52-115.7c-.44-.7-.23-1.63.47-2.07s1.63-.23 2.07.47l73.96 117.99c.29.46.31 1.05.04 1.52-.26.48-.77.77-1.31.77h-14.24zm-6.03-3.51 3.21.27-51.21-83.74 1.22 7.7 46.79 75.77z"/>
    <path
        d="m422.94 400.16h-23.41c-.83 0-1.5-.67-1.5-1.5v-16.55c0-.83.67-1.5 1.5-1.5h23.41c.83 0 1.5.67 1.5 1.5v16.55c0 .83-.67 1.5-1.5 1.5zm-21.91-3h20.41v-13.55h-20.41z"/>
    <path
        d="m379.97 483.25h-7.05c-.75 0-1.39-.56-1.49-1.3l-18.42-137.27c-.06-.43.07-.86.36-1.19s.7-.51 1.13-.51h5.52c.75 0 1.38.55 1.48 1.28l19.95 137.27c.06.43-.07.87-.35 1.2-.29.33-.7.52-1.13.52zm-5.74-3h4l-19.51-134.27h-2.51z"/>
    <path
        d="m351.76 483.25h-7.41c-.75 0-1.39-.56-1.49-1.31l-16.62-128.5c-.05-.4.06-.81.31-1.12.25-.32.62-.52 1.02-.56l6.91-.71c.79-.07 1.53.49 1.64 1.29l17.12 129.21c.06.43-.07.86-.36 1.19-.28.33-.7.51-1.13.51zm-6.09-3h4.38l-16.71-126.07-3.93.4 16.25 125.66z"/>
    <path
        d="m363.16 360.61c-.82 0-1.49-.66-1.5-1.48l-.32-25.78c0-.83.65-1.51 1.48-1.52.86-.02 1.51.65 1.52 1.48l.32 25.78c0 .83-.65 1.51-1.48 1.52z"/>
    <path
        d="m364.57 475.05h-39.43c-.83 0-1.5-.67-1.5-1.49l-.58-141.45c0-.83.67-1.5 1.49-1.51.83 0 1.5.67 1.5 1.49l.57 139.95h36.41l-.71-57.86c0-.83.65-1.51 1.48-1.52h.02c.82 0 1.49.66 1.5 1.48l.73 59.38c0 .4-.15.79-.43 1.07-.28.29-.67.45-1.07.45z"/>
    <path
        d="m318.95 356.94c-.83 0-1.5-.67-1.5-1.5v-23.33c0-.83.67-1.5 1.5-1.5s1.5.67 1.5 1.5v23.33c0 .83-.67 1.5-1.5 1.5z"/>
    <path
        d="m267.3 475.05h-15.25c-.53 0-1.03-.28-1.3-.75-.27-.46-.27-1.03 0-1.5l72.52-127.63c.41-.72 1.32-.97 2.04-.56s.97 1.32.56 2.04l-71.25 125.39h11.79l56.99-103.97c.4-.73 1.31-.99 2.04-.59s.99 1.31.59 2.04l-57.42 104.75c-.26.48-.77.78-1.32.78z"/>
    <path
        d="m358.09 485.56h-18.35c-.31 0-.62-.1-.88-.28l-12.23-8.79v7.58c0 .83-.67 1.5-1.5 1.5h-83.31c-.83 0-1.5-.67-1.5-1.5v-10.5c0-.83.67-1.5 1.5-1.5h77.59l-1.2-.68c-.47-.27-.76-.76-.76-1.31v-89.9c0-.83.67-1.5 1.5-1.5s1.5.67 1.5 1.5v89.02l5.42 3.05s.04.02.06.04c.03.02.06.04.1.06l14.2 10.21h13.36l-2.73-2.05c-.66-.5-.8-1.44-.3-2.1s1.44-.8 2.1-.3l6.33 4.75c.52.39.73 1.06.52 1.67-.2.61-.78 1.03-1.42 1.03zm-114.77-3h80.31v-7.5h-80.31z"/>
    <path
        d="m358.09 496.06h-18.35c-.31 0-.62-.1-.88-.28l-14.61-10.5c-.67-.48-.83-1.42-.34-2.09.48-.67 1.42-.82 2.09-.34l14.21 10.22h16.36v-9c0-.83.67-1.5 1.5-1.5s1.5.67 1.5 1.5v10.5c0 .83-.67 1.5-1.5 1.5z"/>
    <path
        d="m339.75 496.06c-.83 0-1.5-.67-1.5-1.5v-10.5c0-.83.67-1.5 1.5-1.5s1.5.67 1.5 1.5v10.5c0 .83-.67 1.5-1.5 1.5z"/>
    <path
        d="m389.17 484.69h-18.56c-.27 0-.54-.07-.77-.21l-16.12-9.64c-.71-.42-.94-1.35-.52-2.06.43-.71 1.35-.94 2.06-.52l15.76 9.43h13.38l-6.11-4.27c-.68-.47-.84-1.41-.37-2.09s1.41-.84 2.09-.37l10.02 7c.54.38.77 1.05.57 1.68s-.78 1.05-1.43 1.05z"/>
    <path
        d="m389.17 494.33h-18.57c-.29 0-.56-.09-.79-.23l-11.78-7.18c-.71-.43-.93-1.35-.5-2.06s1.35-.93 2.06-.5l9.52 5.8v-6.97c0-.83.67-1.5 1.5-1.5h18.56c.83 0 1.5.67 1.5 1.5v9.64c0 .83-.67 1.5-1.5 1.5zm-17.06-3h15.56v-6.64h-15.56z"/>
    <path
        d="m305.14 471.6c-.83 0-1.5-.67-1.5-1.5v-7.63c0-.53.28-1.02.74-1.29s1.02-.28 1.49-.02l13.81 7.59c.73.4.99 1.31.59 2.04s-1.31.99-2.04.59l-11.59-6.37v5.09c0 .83-.67 1.5-1.5 1.5z"/>
    <path
        d="m312.05 463.97h-6.91c-.83 0-1.5-.67-1.5-1.5s.67-1.5 1.5-1.5h5.55l6.77-67.72c.08-.82.81-1.44 1.64-1.34.82.08 1.43.82 1.34 1.64l-6.91 69.07c-.08.77-.72 1.35-1.49 1.35z"/>
    <path d="m317.95 463.97h-5.9c-.83 0-1.5-.67-1.5-1.5s.67-1.5 1.5-1.5h5.9c.83 0 1.5.67 1.5 1.5s-.67 1.5-1.5 1.5z"/>
    <path
        d="m441.98 483.97h-52.81c-.83 0-1.5-.67-1.5-1.5s.67-1.5 1.5-1.5h51.31v-4.61h-61.52c-.83 0-1.5-.67-1.5-1.5s.67-1.5 1.5-1.5h63.02c.83 0 1.5.67 1.5 1.5v7.61c0 .83-.67 1.5-1.5 1.5z"/>
    <path d="m413.41 472.58h-35c-.83 0-1.5-.67-1.5-1.5s.67-1.5 1.5-1.5h35c.83 0 1.5.67 1.5 1.5s-.67 1.5-1.5 1.5z"/>
    <path d="m371.52 472.58h-6.95c-.83 0-1.5-.67-1.5-1.5s.67-1.5 1.5-1.5h6.95c.83 0 1.5.67 1.5 1.5s-.67 1.5-1.5 1.5z"/>
    <path
        d="m311.04 475.05c-.83 0-1.5-.67-1.5-1.5v-1.95h-40.89c-.83 0-1.5-.67-1.5-1.5s.67-1.5 1.5-1.5h42.39c.83 0 1.5.67 1.5 1.5v3.45c0 .83-.67 1.5-1.5 1.5z"/>
    <path
        d="m241.83 474.33c-.83 0-1.5-.67-1.5-1.5v-3.17c0-.83.67-1.5 1.5-1.5h10.22c.83 0 1.5.67 1.5 1.5s-.67 1.5-1.5 1.5h-8.72v1.67c0 .83-.67 1.5-1.5 1.5z"/>
    <path
        d="m419.75 448.22c-.12 0-.24-.01-.37-.05-.8-.2-1.29-1.02-1.09-1.82l30.82-122.35-3.75-.94-13.07 51.88c-.2.8-1.01 1.29-1.82 1.09-.8-.2-1.29-1.02-1.09-1.82l13.44-53.33c.1-.39.34-.72.68-.92s.75-.27 1.14-.17l6.66 1.68c.8.2 1.29 1.02 1.09 1.82l-31.19 123.81c-.17.68-.78 1.13-1.45 1.13z"/>
    <path
        d="m414.65 440.36c-.12 0-.24-.01-.37-.05-.8-.2-1.29-1.02-1.09-1.82l8.72-34.62c.2-.8 1.02-1.29 1.82-1.09s1.29 1.02 1.09 1.82l-8.72 34.62c-.17.68-.78 1.13-1.45 1.13z"/>
    <path
        d="m415.46 383.13c-.12 0-.24-.01-.37-.05-.8-.2-1.29-1.02-1.09-1.82l8-31.77c.2-.8 1.02-1.29 1.82-1.09s1.29 1.02 1.09 1.82l-8 31.77c-.17.68-.78 1.13-1.45 1.13z"/>
    <path
        d="m404.94 424.88c-.12 0-.24-.01-.37-.05-.8-.2-1.29-1.02-1.09-1.82l4.91-19.47c.2-.8 1.02-1.29 1.82-1.09s1.29 1.02 1.09 1.82l-4.91 19.47c-.17.68-.78 1.13-1.45 1.13z"/>
    <path
        d="m409.99 432.94c-.12 0-.24-.01-.37-.05-.8-.2-1.29-1.02-1.09-1.82l8.26-32.78c.2-.8 1.01-1.29 1.82-1.09.8.2 1.29 1.02 1.09 1.82l-8.26 32.78c-.17.68-.78 1.13-1.45 1.13z"/>
    <path
        d="m430.94 349.8c-.12 0-.24-.01-.37-.05-.8-.2-1.29-1.02-1.09-1.82l7.22-28.65-3.75-.94-.69 2.74c-.2.8-1.01 1.29-1.82 1.09-.8-.2-1.29-1.02-1.09-1.82l1.06-4.2c.2-.8 1.02-1.29 1.82-1.09l6.66 1.68c.8.2 1.29 1.02 1.09 1.82l-7.58 30.11c-.17.68-.78 1.13-1.45 1.13z"/>
    <path
        d="m417.04 375.5c-.22 0-.44-.05-.65-.15l-4.35-2.09c-.75-.36-1.06-1.25-.7-2s1.25-1.06 2-.7l4.35 2.09c.75.36 1.06 1.25.7 2-.26.54-.79.85-1.35.85z"/>
    <path
        d="m404.94 369.68c-.22 0-.44-.05-.65-.15l-7.76-3.73c-.75-.36-1.06-1.25-.7-2s1.25-1.06 2-.7l7.76 3.73c.75.36 1.06 1.25.7 2-.26.54-.79.85-1.35.85z"/>
    <path
        d="m383.7 367.08c-.22 0-.44-.05-.65-.15l-2.46-1.18c-.36-.17-.63-.48-.77-.86-.13-.38-.11-.79.06-1.15l2.46-5.12c.36-.75 1.25-1.06 2-.7s1.06 1.26.7 2l-1.81 3.77 1.11.54c.75.36 1.06 1.25.7 2-.26.54-.79.85-1.35.85z"/>
    <path
        d="m404.94 377.29c-.22 0-.44-.05-.65-.15l-8.08-3.89c-.75-.36-1.06-1.25-.7-2s1.25-1.06 2-.7l8.08 3.89c.75.36 1.06 1.25.7 2-.26.54-.79.85-1.35.85z"/>
    <path
        d="m415.64 382.44c-.22 0-.44-.05-.65-.15l-3.05-1.47c-.75-.36-1.06-1.25-.7-2s1.25-1.06 2-.7l3.05 1.47c.75.36 1.06 1.25.7 2-.26.54-.79.85-1.35.85z"/>
    <path
        d="m481.06 413.91c-.22 0-.44-.05-.65-.15l-46.65-22.44c-.75-.36-1.06-1.25-.7-2s1.25-1.06 2-.7l45.3 21.79 1.67-3.48-46.74-22.48c-.75-.36-1.06-1.25-.7-2s1.25-1.06 2-.7l48.09 23.13c.36.17.63.48.77.86.13.38.11.79-.06 1.15l-2.98 6.19c-.26.54-.79.85-1.35.85z"/>
    <path
        d="m380.58 380.21c-.22 0-.44-.05-.65-.15l-4.4-2.12c-.36-.17-.63-.48-.77-.86-.13-.38-.11-.79.06-1.15l2.98-6.19c.36-.75 1.25-1.06 2-.7l4.54 2.18c.75.36 1.06 1.25.7 2s-1.25 1.06-2 .7l-3.19-1.53-1.67 3.48 3.05 1.47c.75.36 1.06 1.25.7 2-.26.54-.79.85-1.35.85z"/>
    <path
        d="m476.75 426.47c-.22 0-.44-.05-.65-.15l-45.94-22.1c-.75-.36-1.06-1.25-.7-2s1.25-1.06 2-.7l44.59 21.45 1.67-3.48-45.58-21.92c-.75-.36-1.06-1.25-.7-2s1.25-1.06 2-.7l46.93 22.58c.36.17.63.48.77.86.13.38.11.79-.06 1.15l-2.98 6.19c-.26.54-.79.85-1.35.85z"/>
    <path
        d="m474.37 403.03c-.83 0-1.5-.67-1.5-1.5v-39.1c0-.83.67-1.5 1.5-1.5s1.5.67 1.5 1.5v39.1c0 .83-.67 1.5-1.5 1.5z"/>
    <path
        d="m468.46 400.16c-.83 0-1.5-.67-1.5-1.5v-48.8c0-.83.67-1.5 1.5-1.5s1.5.67 1.5 1.5v48.8c0 .83-.67 1.5-1.5 1.5z"/>
</svg>
