<svg width="447" height="569" viewBox="0 0 447 569" fill="none" xmlns="http://www.w3.org/2000/svg">
<path d="M348.01 357.223L347.918 425.025L355.648 428.672L354.29 362.105L348.01 357.223Z" fill="#FF3939"/>
<path d="M366.38 378.25L365.952 432.463L372.542 435.808L372.106 388.763L366.38 378.25Z" fill="#FF3939"/>
<path d="M346.56 431.672L346.686 437.79L354.969 438.034L355.388 434.849L346.56 431.672Z" fill="#FF3939"/>
<path d="M376.39 314.683H362.598L364.183 326.431H354.282L353.745 314.683L343.148 315.885L345.881 324.566L302.93 282.017L306.149 260.772L275.715 252.889L193.678 164.38L214.537 129.134L205.307 122.663L201.928 128.344L196.42 126.873L180.624 153.371L133.641 103.754L156.277 67.4833L143.542 60.3989L135.56 69.8952L131.1 77.6184L127.369 81.4589L63.0223 11.875L52.7016 21.4218L49.8427 27.6238L40.5281 40.8431L84.5691 83.7616L104.213 119.377L87.5789 150.597L94.1771 157.144L101.748 156.068L104.741 150.278L109.226 150.597L116.847 140.16L136.474 174.195L145.588 205.197L136.474 227.232L143.106 232.443L150.819 226.862L154.424 237.233L144.364 238.023L145.588 253.385L158.893 255.931L177.623 316.33L167.671 317.406L167.243 327.171L205.399 329.104L197.208 352.273L196.411 354.971L201.165 360.534L202.666 384.889L130.102 511.325L110.409 513.098L111.054 528.653L208.929 527.418L225.353 537.234L245.449 538.604L244.753 529.897L259.417 539.654L279.966 539.175L279.564 525.174L339.45 526.46L338.277 515.678L326.178 512.459L276.998 436.236L289.842 437.791L292.014 429.185L315.74 430.227L316.973 436.581L322.196 435.127L321.668 333.516L367.361 336.777L367.973 341.079L378.511 343.441L376.382 314.691L376.39 314.683ZM197.225 457.019L191.448 505.702L185.504 507.551V511.812H145.21L197.225 414.504V457.019ZM151.842 144.042L172.718 164.531L161.241 180.305L151.842 144.042ZM171.67 238.594L166.833 218.517C166.833 218.517 189.033 183.843 189.52 183.683L207.336 208.903L208.132 243.956L171.662 238.603L171.67 238.594ZM199.631 317.406L182.796 257.016L208.141 262.621L211.125 319.691L199.639 317.414L199.631 317.406ZM233.024 229.644L249.826 252.351L233.024 250.948V229.644ZM233.024 264.94L268.346 271.151L269.629 323.229L233.024 320.624V264.94ZM249.147 349.567L243.32 333.499L244.963 329.675L270.106 331.558L271.733 377.325L272.278 405.352L267.616 406.302L268.639 415.974L262.997 407.234L248.685 385.359L249.826 358.753L252.768 358.845L254.051 350.601L249.138 349.567H249.147ZM256.306 512.905H250.53L250.052 467.717L256.315 507.089V512.905H256.306ZM306.166 512.905L267.633 514.863L256.315 433.429L306.174 512.905H306.166ZM290.58 413.126L289.054 405.755H286.321L287.528 333.499H293.95L295.795 413.117H290.572L290.58 413.126ZM303.55 413.588L304.154 334.659L314.416 334.617L315.17 412.638L303.55 413.588ZM305.914 326.087L304.707 312.666L293.867 311.128V324.969H288.09L288.87 290.967L314.097 315.876L316.026 326.095H305.914V326.087Z" fill="#FF3939"/>
<path d="M123.538 99.0141C123.202 99.0141 122.876 98.8796 122.632 98.6359L48.1408 21.8751C47.6796 21.3961 47.6629 20.6397 48.1072 20.1523L57.2625 10.0173C57.4973 9.75674 57.8326 9.60547 58.1848 9.60547C58.5704 9.60547 58.8723 9.74833 59.1154 10.0004L131.201 86.7613C131.603 87.1899 131.654 87.837 131.335 88.3244L124.594 98.4595C124.385 98.7788 124.041 98.9805 123.664 99.0141C123.622 99.0141 123.588 99.0141 123.546 99.0141H123.538ZM50.7649 20.9591L123.353 95.7534L128.677 87.7445L58.2099 12.7149L50.7649 20.9591Z" fill="black"/>
<path d="M121.283 101.106C120.956 101.106 120.629 100.98 120.386 100.728L46.858 25.5803C46.5227 25.2357 46.4137 24.7399 46.5646 24.2861L47.8474 20.5884C48.0737 19.9329 48.7864 19.5799 49.4487 19.8153C50.1026 20.0422 50.4548 20.7649 50.22 21.4204L49.1888 24.3869L121.316 98.1056L122.666 96.845C123.177 96.3744 123.974 96.3996 124.443 96.9122C124.913 97.4249 124.888 98.2232 124.376 98.6939L122.129 100.786C121.886 101.013 121.584 101.123 121.274 101.123L121.283 101.106Z" fill="black"/>
<path d="M110.048 149.069C109.763 149.069 109.478 148.968 109.252 148.783L98.6542 140.093C98.1763 139.698 98.0506 139.009 98.3692 138.471L143.643 62.3492C143.827 62.0382 144.129 61.8281 144.481 61.7609C144.833 61.6936 145.194 61.7777 145.479 61.9962L156.076 70.0471C156.588 70.4337 156.722 71.1396 156.395 71.6942L111.121 148.455C110.937 148.774 110.618 148.993 110.258 149.052C110.182 149.069 110.115 149.069 110.04 149.069H110.048ZM101.086 138.833L109.713 145.909L153.67 71.3833L145.085 64.8703L101.086 138.841V138.833Z" fill="black"/>
<path d="M118.776 107.888C118.34 107.888 117.921 107.661 117.686 107.258L104.456 84.3909C104.104 83.7858 104.313 83.0211 104.909 82.6681C105.512 82.3235 106.275 82.5252 106.627 83.1219L119.857 105.989C120.209 106.594 120 107.359 119.404 107.712C119.203 107.829 118.985 107.88 118.776 107.88V107.888Z" fill="black"/>
<path d="M147.382 173.977C146.938 173.977 146.51 173.742 146.284 173.33L121.006 127.966C120.671 127.361 120.88 126.588 121.492 126.252C122.096 125.915 122.867 126.126 123.202 126.739L143.609 163.363L138.126 142.58L125.391 120.571C125.039 119.965 125.248 119.201 125.843 118.848C126.447 118.503 127.21 118.705 127.562 119.302L140.381 141.463C140.44 141.563 140.482 141.664 140.507 141.773L148.589 172.389C148.748 173.002 148.43 173.641 147.843 173.876C147.692 173.935 147.533 173.969 147.373 173.969L147.382 173.977Z" fill="black"/>
<path d="M114.533 115.022C114.089 115.022 113.662 114.787 113.435 114.375L86.489 66.0107C86.1537 65.4056 86.3633 64.6325 86.9753 64.2963C87.579 63.9601 88.3503 64.1702 88.6856 64.7837L115.632 113.148C115.967 113.753 115.757 114.526 115.145 114.862C114.953 114.972 114.743 115.022 114.533 115.022Z" fill="black"/>
<path d="M109.235 123.93C108.799 123.93 108.371 123.694 108.136 123.291L61.924 40.9249C61.5802 40.3198 61.7982 39.5466 62.4018 39.2105C63.0055 38.8659 63.7768 39.0844 64.1122 39.6895L110.325 122.056C110.668 122.661 110.45 123.434 109.847 123.77C109.654 123.879 109.436 123.93 109.235 123.93Z" fill="black"/>
<path d="M137.464 174.246C137.011 174.246 136.592 174.002 136.365 173.607L115.757 136.874C115.414 136.269 115.632 135.496 116.235 135.16C116.839 134.815 117.61 135.034 117.946 135.639L138.185 171.708L147.34 171.464C147.34 171.464 147.365 171.464 147.373 171.464C148.053 171.464 148.614 172.011 148.631 172.691C148.648 173.389 148.103 173.969 147.407 173.986L137.489 174.254C137.489 174.254 137.464 174.254 137.455 174.254L137.464 174.246Z" fill="black"/>
<path d="M132.039 85.5916C131.578 85.5916 131.125 85.3311 130.907 84.8857C127.83 78.5744 129.734 72.7841 132.551 69.473C135.368 66.1535 139.384 64.6744 142.771 65.6997C143.433 65.9013 143.81 66.6073 143.609 67.2712C143.408 67.9351 142.704 68.3133 142.041 68.1116C139.61 67.372 136.642 68.5486 134.471 71.1033C131.494 74.6077 131.008 79.3391 133.171 83.7764C133.473 84.3982 133.221 85.1546 132.593 85.4655C132.417 85.5496 132.224 85.5916 132.039 85.5916Z" fill="black"/>
<path d="M144.984 89.837H144.976C144.28 89.837 143.718 89.2655 143.718 88.5764C143.718 87.8789 144.28 87.3159 144.976 87.3159C145.931 87.3159 147.608 86.4082 148.975 84.6686C150.719 82.4416 151.356 79.6683 150.719 77.0547C150.551 76.3824 150.962 75.6933 151.641 75.5336C152.312 75.3656 152.999 75.7774 153.158 76.4581C153.98 79.828 153.175 83.3912 150.945 86.2318C149.226 88.4252 146.879 89.837 144.967 89.837H144.984Z" fill="black"/>
<path d="M107.315 150.243C107.021 150.243 106.736 150.142 106.502 149.949L98.6375 143.293C98.3524 143.05 98.1931 142.705 98.1931 142.327V139.108C98.1931 138.411 98.7548 137.848 99.4507 137.848C100.147 137.848 100.708 138.411 100.708 139.108V141.739L107.533 147.512L109.545 146.638C110.182 146.361 110.92 146.655 111.197 147.294C111.473 147.932 111.18 148.672 110.543 148.949L107.81 150.126C107.65 150.193 107.483 150.227 107.315 150.227V150.243Z" fill="black"/>
<path d="M138.704 67.8962C138.478 67.8962 138.243 67.8374 138.042 67.7029C137.455 67.3332 137.271 66.56 137.64 65.9633L139.006 63.7699C139.191 63.4758 139.493 63.2657 139.836 63.1985C140.18 63.1312 140.532 63.2153 140.817 63.4254L143.45 65.3751C144.012 65.7869 144.129 66.5768 143.718 67.1399C143.307 67.7029 142.519 67.8206 141.957 67.4088L140.415 66.2659L139.769 67.308C139.534 67.6861 139.124 67.8962 138.704 67.8962Z" fill="black"/>
<path d="M127.386 86.0284C127.16 86.0284 126.925 85.9696 126.724 85.8351C126.137 85.4654 125.952 84.6922 126.321 84.0955L129.415 79.1373C129.784 78.549 130.555 78.3641 131.15 78.7339C131.737 79.1036 131.922 79.8768 131.553 80.4735L128.459 85.4318C128.224 85.8099 127.814 86.02 127.394 86.02L127.386 86.0284Z" fill="black"/>
<path d="M99.4507 154.639C99.1573 154.639 98.8723 154.538 98.6459 154.345L88.8534 146.193C88.3671 145.79 88.2581 145.092 88.5935 144.554L105.387 117.645C105.755 117.057 106.527 116.872 107.122 117.242C107.709 117.611 107.893 118.385 107.525 118.981L91.3183 144.958L99.2831 151.588L102.989 147C103.425 146.462 104.213 146.378 104.758 146.815C105.294 147.252 105.378 148.05 104.942 148.588L100.44 154.168C100.23 154.429 99.9202 154.597 99.5849 154.63C99.543 154.63 99.501 154.63 99.4591 154.63L99.4507 154.639Z" fill="black"/>
<path d="M95.6528 155.176C95.3426 155.176 95.0408 155.058 94.806 154.848L88.0653 148.73C87.7048 148.402 87.5706 147.906 87.7048 147.444L88.451 144.873C88.6438 144.2 89.348 143.822 90.0104 144.015C90.6727 144.209 91.0584 144.915 90.8655 145.578L90.3374 147.394L96.0636 152.587L99.2831 152.133C99.9705 152.041 100.608 152.52 100.7 153.209C100.792 153.898 100.314 154.537 99.6268 154.629L95.8289 155.167C95.7702 155.167 95.7115 155.176 95.6528 155.176Z" fill="black"/>
<path d="M186.602 157.86C186.267 157.86 185.931 157.725 185.688 157.465L135.569 103.84C135.091 103.335 135.116 102.537 135.628 102.058C136.131 101.579 136.927 101.604 137.405 102.117L187.524 155.742C188.002 156.246 187.977 157.044 187.466 157.523C187.223 157.75 186.912 157.868 186.602 157.868V157.86Z" fill="black"/>
<path d="M275.724 253.207C275.389 253.207 275.053 253.073 274.81 252.812L195.372 167.824C194.894 167.32 194.919 166.521 195.431 166.042C195.934 165.563 196.73 165.589 197.208 166.101L276.646 251.089C277.124 251.594 277.099 252.392 276.587 252.871C276.344 253.098 276.034 253.216 275.724 253.216V253.207Z" fill="black"/>
<path d="M346.694 329.139C346.694 329.139 346.627 329.139 346.594 329.139L331.595 327.987C331.284 327.962 330.991 327.828 330.781 327.601L323.035 319.399C322.557 318.894 322.582 318.096 323.085 317.617C323.588 317.138 324.384 317.163 324.862 317.667L332.274 325.517L343.559 326.382L296.818 276.371C296.34 275.867 296.365 275.068 296.877 274.589C297.38 274.11 298.176 274.135 298.654 274.648L347.608 327.029C347.96 327.407 348.052 327.971 347.826 328.433C347.616 328.87 347.172 329.147 346.694 329.147V329.139Z" fill="black"/>
<path d="M318.423 313.944C318.088 313.944 317.761 313.809 317.509 313.549L279.572 273.395C279.094 272.891 279.119 272.093 279.622 271.614C280.125 271.135 280.922 271.16 281.4 271.664L319.337 311.818C319.815 312.322 319.79 313.12 319.287 313.599C319.044 313.835 318.734 313.944 318.423 313.944Z" fill="black"/>
<path d="M258.578 250.585C258.243 250.585 257.916 250.45 257.665 250.19L189.26 177.782C188.782 177.278 188.807 176.479 189.31 176C189.813 175.521 190.61 175.547 191.087 176.051L259.492 248.458C259.97 248.963 259.945 249.761 259.442 250.24C259.199 250.475 258.889 250.585 258.578 250.585Z" fill="black"/>
<path d="M180.633 168.076C180.297 168.076 179.97 167.942 179.719 167.681L129.365 114.376C128.887 113.871 128.912 113.073 129.415 112.594C129.918 112.115 130.715 112.14 131.192 112.644L181.547 165.95C182.024 166.454 181.999 167.253 181.496 167.732C181.253 167.967 180.943 168.076 180.633 168.076Z" fill="black"/>
<path d="M164.418 238.501C163.865 238.501 163.353 238.131 163.203 237.56L160.025 225.517C159.849 224.845 160.251 224.155 160.922 223.979C161.601 223.802 162.28 224.206 162.456 224.878L165.634 236.921C165.81 237.593 165.408 238.282 164.737 238.459C164.628 238.484 164.519 238.501 164.418 238.501Z" fill="black"/>
<path d="M156.101 207.011C155.548 207.011 155.036 206.641 154.885 206.07L131.1 115.989C130.949 115.434 131.201 114.846 131.704 114.568C132.207 114.291 132.836 114.384 133.23 114.804L145.797 128.107C145.94 128.258 146.04 128.443 146.099 128.637L164.25 194.439C164.435 195.111 164.041 195.8 163.37 195.985C162.699 196.17 162.012 195.775 161.827 195.103L143.76 129.603L134.797 120.115L157.317 205.423C157.493 206.095 157.09 206.784 156.42 206.96C156.311 206.986 156.202 207.002 156.101 207.002V207.011Z" fill="black"/>
<path d="M175.116 239.864C174.563 239.864 174.06 239.494 173.909 238.939L167 213.904C166.816 213.232 167.21 212.543 167.881 212.358C168.552 212.173 169.239 212.568 169.423 213.24L176.332 238.276C176.516 238.948 176.122 239.637 175.452 239.822C175.343 239.855 175.225 239.864 175.116 239.864Z" fill="black"/>
<path d="M196.428 317.146C196.386 317.146 196.344 317.146 196.302 317.146L184.732 315.944C184.213 315.893 183.777 315.515 183.642 315.011L167.939 255.529C167.763 254.856 168.166 254.167 168.836 253.991C169.507 253.814 170.195 254.218 170.371 254.89L185.847 313.532L194.718 314.456L178.939 257.235C178.755 256.562 179.149 255.873 179.819 255.688C180.482 255.503 181.178 255.898 181.362 256.571L197.635 315.574C197.744 315.978 197.652 316.406 197.384 316.725C197.141 317.011 196.789 317.171 196.42 317.171L196.428 317.146Z" fill="black"/>
<path d="M81.0562 73.6939C80.7376 73.6939 80.419 73.5762 80.1675 73.3241L42.2133 35.5656C41.9701 35.3219 41.836 34.9941 41.8444 34.6495C41.8527 34.305 41.9953 33.9856 42.2468 33.7503L49.7672 26.6995C50.2703 26.2205 51.0667 26.2541 51.5446 26.7583C52.0225 27.2626 51.989 28.0609 51.4859 28.5399L44.9213 34.6916L81.9449 71.5341C82.4396 72.0215 82.4396 72.8199 81.9449 73.3157C81.7018 73.5678 81.3748 73.6855 81.0562 73.6855V73.6939Z" fill="black"/>
<path d="M86.791 83.9285C86.4724 83.9285 86.1622 83.8108 85.9107 83.5755L40.7714 39.6065C40.4193 39.262 40.3019 38.7409 40.4612 38.2787L41.9032 34.2533C42.138 33.5978 42.859 33.2616 43.5129 33.4969C44.1669 33.7322 44.5023 34.4549 44.2675 35.1104L43.0937 38.3711L87.6546 81.7771C88.1492 82.2645 88.166 83.0629 87.6797 83.5587C87.4366 83.8108 87.1096 83.9369 86.7743 83.9369L86.791 83.9285Z" fill="black"/>
<path d="M158.373 230.493C158.063 230.493 157.753 230.376 157.518 230.157L146.527 220.022C146.082 219.61 145.99 218.938 146.317 218.417L205.474 124.756C205.667 124.453 205.977 124.243 206.338 124.184C206.69 124.126 207.059 124.226 207.336 124.453L216.969 132.336C217.455 132.731 217.572 133.429 217.245 133.967L159.446 229.88C159.254 230.208 158.918 230.426 158.549 230.476C158.491 230.476 158.432 230.485 158.373 230.485V230.493ZM149.008 218.879L158.097 227.258L214.529 133.605L206.841 127.311L149.008 218.879Z" fill="black"/>
<path d="M158.373 230.491H154.684C154.383 230.491 154.089 230.382 153.863 230.189L146.963 224.239C146.72 224.028 146.56 223.726 146.535 223.398L146.141 219.213C146.074 218.516 146.586 217.902 147.273 217.843C147.96 217.768 148.581 218.289 148.64 218.978L148.983 222.659L155.146 227.978H158.373C159.069 227.978 159.631 228.541 159.631 229.239C159.631 229.936 159.069 230.499 158.373 230.499V230.491Z" fill="black"/>
<path d="M148.313 230.491C148.061 230.491 147.801 230.416 147.575 230.256L137.195 222.743C136.651 222.348 136.508 221.592 136.877 221.029L145.99 207.129C146.376 206.549 147.156 206.389 147.734 206.767C148.313 207.154 148.472 207.935 148.095 208.515L139.644 221.407L148.053 227.491L149.83 225.147C150.249 224.592 151.037 224.483 151.591 224.903C152.144 225.323 152.253 226.113 151.834 226.668L149.319 229.987C149.076 230.315 148.698 230.483 148.321 230.483L148.313 230.491Z" fill="black"/>
<path d="M160.83 188.054C160.595 188.054 160.352 187.987 160.142 187.844C159.564 187.458 159.404 186.676 159.782 186.096L171.779 167.793C172.165 167.213 172.945 167.053 173.523 167.431C174.102 167.818 174.261 168.6 173.884 169.179L161.886 187.483C161.643 187.853 161.241 188.054 160.838 188.054H160.83Z" fill="black"/>
<path d="M183.232 153.892C182.997 153.892 182.754 153.825 182.544 153.682C181.966 153.295 181.807 152.514 182.184 151.934L189.981 140.051C190.367 139.471 191.146 139.311 191.725 139.689C192.303 140.076 192.463 140.857 192.085 141.437L184.288 153.32C184.045 153.69 183.643 153.892 183.24 153.892H183.232Z" fill="black"/>
<path d="M203.764 131.076C203.488 131.076 203.211 130.983 202.976 130.798L200.402 128.731L199.296 130.42C198.918 131 198.13 131.16 197.552 130.781C196.973 130.395 196.814 129.613 197.191 129.033L199.061 126.184C199.254 125.89 199.564 125.689 199.916 125.63C200.268 125.571 200.62 125.672 200.897 125.89L204.552 128.823C205.097 129.26 205.181 130.05 204.745 130.596C204.494 130.907 204.133 131.067 203.764 131.067V131.076Z" fill="black"/>
<path d="M145.169 231.869C144.9 231.869 144.64 231.785 144.414 231.617L137.17 226.214C136.852 225.978 136.667 225.6 136.667 225.205V221.718C136.667 221.02 137.229 220.457 137.925 220.457C138.621 220.457 139.182 221.02 139.182 221.718V224.575L145.328 229.163L147.801 228.079C148.438 227.802 149.176 228.088 149.461 228.726C149.738 229.365 149.453 230.105 148.816 230.39L145.68 231.777C145.521 231.844 145.345 231.886 145.177 231.886L145.169 231.869Z" fill="black"/>
<path d="M184.867 315.945C184.867 315.945 184.8 315.945 184.758 315.945L177.749 315.357C177.229 315.315 176.793 314.953 176.642 314.449L159.354 254.05C159.162 253.378 159.547 252.681 160.218 252.487C160.889 252.294 161.584 252.681 161.777 253.353L178.822 312.919L184.967 313.44C185.663 313.499 186.175 314.104 186.116 314.802C186.057 315.457 185.512 315.953 184.867 315.953V315.945Z" fill="black"/>
<path d="M158.164 246.578C157.619 246.578 157.116 246.216 156.956 245.662L150.627 223.543C150.434 222.87 150.819 222.173 151.49 221.979C152.161 221.786 152.857 222.173 153.05 222.845L159.379 244.964C159.572 245.636 159.187 246.334 158.516 246.527C158.399 246.561 158.281 246.578 158.164 246.578Z" fill="black"/>
<path d="M149.637 216.776C149.092 216.776 148.589 216.414 148.43 215.86L136.256 173.328C136.064 172.655 136.449 171.958 137.12 171.765C137.791 171.571 138.487 171.958 138.679 172.63L150.853 215.162C151.046 215.834 150.66 216.532 149.989 216.725C149.872 216.759 149.755 216.776 149.637 216.776Z" fill="black"/>
<path d="M176.734 173.874C176.399 173.874 176.072 173.74 175.82 173.479L147.868 143.973C147.39 143.469 147.407 142.671 147.91 142.192C148.413 141.713 149.21 141.73 149.688 142.234L177.64 171.74C178.118 172.244 178.101 173.042 177.598 173.521C177.355 173.757 177.044 173.866 176.734 173.866V173.874Z" fill="black"/>
<path d="M211.125 210.165C210.79 210.165 210.463 210.031 210.211 209.77L185.596 183.794C185.118 183.289 185.135 182.491 185.638 182.012C186.141 181.533 186.937 181.55 187.415 182.054L212.031 208.03C212.509 208.535 212.492 209.333 211.989 209.812C211.746 210.047 211.435 210.157 211.125 210.157V210.165Z" fill="black"/>
<path d="M252.291 253.619C251.955 253.619 251.628 253.484 251.377 253.224L229.864 230.516C229.386 230.012 229.402 229.214 229.905 228.735C230.409 228.256 231.205 228.273 231.683 228.777L253.196 251.484C253.674 251.988 253.657 252.787 253.154 253.266C252.911 253.501 252.601 253.61 252.291 253.61V253.619Z" fill="black"/>
<path d="M271.733 274.142C271.398 274.142 271.071 274.007 270.819 273.747L269.193 272.024C268.715 271.52 268.732 270.722 269.235 270.243C269.738 269.764 270.534 269.78 271.012 270.285L272.638 272.007C273.116 272.512 273.1 273.31 272.597 273.789C272.353 274.024 272.043 274.134 271.733 274.134V274.142Z" fill="black"/>
<path d="M315.17 319.995C314.835 319.995 314.508 319.861 314.257 319.601L285.625 289.372C285.147 288.868 285.164 288.069 285.667 287.59C286.17 287.111 286.967 287.128 287.445 287.632L316.076 317.861C316.554 318.365 316.537 319.164 316.034 319.643C315.791 319.878 315.481 319.987 315.17 319.987V319.995Z" fill="black"/>
<path d="M193.586 147.203C193.15 147.203 192.731 146.977 192.496 146.573C192.362 146.346 189.26 140.926 190.274 136.724C190.66 135.144 191.901 131.329 195.162 129.984C197.384 129.068 199.966 129.497 202.833 131.261C203.429 131.623 203.613 132.404 203.244 132.993C202.884 133.589 202.104 133.774 201.517 133.404C199.371 132.085 197.56 131.715 196.126 132.303C193.871 133.236 192.949 136.371 192.722 137.312C192.077 139.976 193.913 143.985 194.676 145.304C195.028 145.909 194.818 146.674 194.223 147.027C194.022 147.145 193.804 147.195 193.594 147.195L193.586 147.203Z" fill="black"/>
<path d="M205.315 152.59C204.787 152.59 204.292 152.254 204.125 151.725C203.907 151.061 204.267 150.346 204.921 150.128C206.397 149.64 210.262 145.094 209.633 142.43C209.474 141.749 209.893 141.077 210.564 140.909C211.234 140.749 211.913 141.169 212.081 141.842C213.054 145.943 208.292 151.666 205.718 152.523C205.583 152.565 205.449 152.59 205.324 152.59H205.315Z" fill="black"/>
<path d="M299.895 276.757C299.828 276.757 299.761 276.757 299.702 276.74L161.475 254.932C160.863 254.839 160.411 254.31 160.411 253.688V236.393C160.411 236.023 160.578 235.662 160.863 235.427C161.148 235.191 161.526 235.09 161.895 235.149L252.383 251.537C253.07 251.663 253.523 252.318 253.397 252.999C253.272 253.688 252.618 254.134 251.939 254.016L162.934 237.897V252.612L298.847 274.051C299.065 273.731 299.425 273.521 299.836 273.504C300.515 273.471 301.111 274.025 301.136 274.723L301.161 275.454C301.178 275.832 301.018 276.194 300.742 276.437C300.507 276.647 300.213 276.757 299.912 276.757H299.895Z" fill="black"/>
<path d="M161.668 254.958C161.584 254.958 161.5 254.958 161.408 254.932L157.526 254.126C156.914 253.999 156.487 253.436 156.529 252.806L157.602 236.309C157.644 235.645 158.197 235.133 158.859 235.133H161.668C162.364 235.133 162.926 235.696 162.926 236.393C162.926 237.091 162.364 237.654 161.668 237.654H160.033L159.111 251.873L161.92 252.453C162.599 252.596 163.035 253.26 162.901 253.941C162.775 254.537 162.255 254.949 161.668 254.949V254.958Z" fill="black"/>
<path d="M149.377 253.344C149.31 253.344 149.252 253.344 149.185 253.327L145.403 252.739C144.775 252.638 144.313 252.084 144.339 251.445L144.959 235.78C144.976 235.436 145.127 235.116 145.387 234.881C145.647 234.654 145.973 234.545 146.326 234.57L149.486 234.839C150.14 234.898 150.635 235.444 150.635 236.099V252.084C150.635 252.453 150.476 252.798 150.199 253.042C149.973 253.235 149.679 253.344 149.377 253.344ZM146.896 250.42L148.12 250.613V237.259L147.424 237.2L146.896 250.42Z" fill="black"/>
<path d="M155.783 238.249C155.724 238.249 155.665 238.249 155.607 238.24L149.21 237.349C148.522 237.257 148.044 236.618 148.136 235.929C148.229 235.24 148.866 234.769 149.553 234.853L155.95 235.744C156.638 235.837 157.116 236.475 157.023 237.165C156.94 237.795 156.395 238.249 155.783 238.249Z" fill="black"/>
<path d="M159.497 254.955C159.43 254.955 159.362 254.955 159.295 254.938L149.184 253.324C148.497 253.215 148.027 252.568 148.136 251.879C148.245 251.19 148.891 250.719 149.578 250.828L159.689 252.442C160.377 252.551 160.846 253.198 160.737 253.887C160.637 254.509 160.109 254.946 159.497 254.946V254.955Z" fill="black"/>
<path d="M224.523 261.034C224.414 261.034 224.305 261.034 224.196 261.017C223.089 260.899 222.108 260.177 221.505 259.042C220.976 258.05 220.758 256.798 220.893 255.529C221.035 254.26 221.513 253.092 222.242 252.235C223.081 251.26 224.188 250.764 225.294 250.89C226.401 251.008 227.382 251.731 227.985 252.865C228.522 253.857 228.74 255.109 228.597 256.378C228.455 257.647 227.977 258.815 227.248 259.672C226.493 260.555 225.521 261.034 224.523 261.034ZM224.959 253.386C224.598 253.386 224.271 253.722 224.146 253.874C223.743 254.344 223.467 255.042 223.383 255.798C223.299 256.555 223.416 257.303 223.71 257.84C223.81 258.025 224.079 258.462 224.456 258.504C224.825 258.538 225.194 258.177 225.328 258.017C225.73 257.546 226.007 256.849 226.091 256.092C226.175 255.336 226.057 254.588 225.764 254.05C225.663 253.865 225.395 253.428 225.018 253.386C225.001 253.386 224.976 253.386 224.959 253.386Z" fill="black"/>
<path d="M225.16 327.986C225.051 327.986 224.934 327.986 224.816 327.969C222.653 327.733 221.203 325.322 221.513 322.481C221.823 319.641 223.777 317.607 225.923 317.834C228.086 318.069 229.536 320.481 229.226 323.321C228.933 326.011 227.181 327.986 225.16 327.986ZM225.588 320.338C224.967 320.338 224.162 321.355 224.011 322.75C223.852 324.187 224.464 325.389 225.093 325.456C225.738 325.532 226.568 324.481 226.728 323.044C226.887 321.599 226.275 320.405 225.646 320.338C225.629 320.338 225.604 320.338 225.588 320.338Z" fill="black"/>
<path d="M213.599 388.929C213.532 388.929 213.456 388.929 213.381 388.921C212.106 388.778 211.243 387.467 211.41 385.938C211.478 385.29 211.729 384.685 212.115 384.232C212.609 383.652 213.28 383.366 213.968 383.442C214.504 383.5 214.999 383.778 215.359 384.223C215.82 384.795 216.03 385.593 215.938 386.425C215.871 387.072 215.619 387.677 215.234 388.131C214.789 388.644 214.202 388.929 213.59 388.929H213.599Z" fill="black"/>
<path d="M242.733 379.494C242.666 379.494 242.59 379.494 242.515 379.486C241.241 379.343 240.377 378.032 240.545 376.502C240.612 375.855 240.863 375.25 241.249 374.796C241.744 374.216 242.414 373.922 243.102 374.006C244.376 374.149 245.24 375.46 245.072 376.99C245.005 377.637 244.753 378.242 244.368 378.696C243.923 379.208 243.337 379.494 242.725 379.494H242.733Z" fill="black"/>
<path d="M281.282 265.126C281.173 265.126 281.064 265.126 280.947 265.109C279.84 264.992 278.859 264.269 278.256 263.134C277.719 262.134 277.501 260.891 277.644 259.622C277.954 256.781 279.899 254.747 282.054 254.974C284.217 255.21 285.667 257.622 285.357 260.462C285.223 261.731 284.737 262.899 284.007 263.756C283.253 264.639 282.272 265.118 281.282 265.118V265.126ZM281.718 257.479C281.098 257.479 280.293 258.496 280.142 259.891C280.058 260.647 280.176 261.395 280.469 261.941C280.57 262.126 280.838 262.563 281.215 262.605C281.593 262.655 281.953 262.277 282.087 262.118C282.49 261.647 282.766 260.949 282.85 260.193C283.009 258.748 282.397 257.554 281.769 257.487C281.752 257.487 281.727 257.487 281.71 257.487L281.718 257.479Z" fill="black"/>
<path d="M188.245 172.046C188.136 172.046 188.027 172.046 187.918 172.029C186.812 171.911 185.831 171.188 185.227 170.054C184.699 169.062 184.481 167.81 184.615 166.541C184.758 165.272 185.235 164.104 185.965 163.247C186.803 162.272 187.902 161.776 189.017 161.902C190.123 162.02 191.104 162.743 191.708 163.877C192.244 164.877 192.462 166.121 192.32 167.39C192.177 168.659 191.699 169.827 190.97 170.684C190.216 171.567 189.243 172.046 188.245 172.046ZM188.681 164.398C188.321 164.398 187.994 164.734 187.868 164.886C187.466 165.356 187.189 166.054 187.105 166.81C187.021 167.566 187.139 168.314 187.432 168.861C187.533 169.045 187.801 169.482 188.178 169.524C188.556 169.575 188.916 169.197 189.05 169.037C189.453 168.566 189.729 167.869 189.813 167.113C189.897 166.356 189.78 165.608 189.486 165.062C189.386 164.877 189.117 164.44 188.74 164.398C188.723 164.398 188.698 164.398 188.681 164.398Z" fill="black"/>
<path d="M130.907 102.839C130.798 102.839 130.681 102.839 130.564 102.822C128.4 102.586 126.95 100.175 127.26 97.334C127.403 96.065 127.881 94.8969 128.61 94.0397C129.448 93.0649 130.555 92.569 131.662 92.6951C133.825 92.9304 135.275 95.3423 134.965 98.1828C134.672 100.872 132.919 102.847 130.899 102.847L130.907 102.839ZM131.335 95.191C130.974 95.191 130.647 95.5272 130.522 95.6785C130.119 96.1491 129.843 96.8466 129.759 97.6029C129.599 99.04 130.211 100.242 130.84 100.309C131.461 100.385 132.316 99.3341 132.475 97.8971C132.634 96.46 132.022 95.2583 131.394 95.191C131.377 95.191 131.352 95.191 131.335 95.191Z" fill="black"/>
<path d="M59.6603 27.85C59.5513 27.85 59.4423 27.85 59.3333 27.8332C57.1702 27.5979 55.7198 25.186 56.03 22.3455C56.3402 19.505 58.2937 17.4628 60.44 17.6981C62.6031 17.9334 64.0535 20.3453 63.7433 23.1859C63.6007 24.4548 63.1229 25.623 62.3935 26.4802C61.6389 27.3626 60.6664 27.8416 59.6687 27.8416L59.6603 27.85ZM60.0962 20.2025C59.4758 20.2025 58.671 21.2193 58.5201 22.6144C58.3608 24.0514 58.9728 25.2532 59.6016 25.3204C59.9789 25.3624 60.3394 24.9927 60.4735 24.833C60.876 24.3624 61.1526 23.6649 61.2365 22.9085C61.3958 21.4631 60.7837 20.2697 60.1549 20.2025C60.1382 20.2025 60.113 20.2025 60.0962 20.2025Z" fill="black"/>
<path d="M261.521 266.622H251.729C251.385 266.622 251.058 266.479 250.815 266.236C250.58 265.984 250.454 265.647 250.471 265.303L251.243 249.42C251.276 248.764 251.796 248.243 252.45 248.218L262.033 247.848C262.376 247.84 262.72 247.966 262.972 248.218C263.215 248.462 263.357 248.806 263.341 249.151L262.779 265.404C262.754 266.084 262.2 266.622 261.521 266.622ZM253.045 264.101H260.306L260.775 250.42L253.691 250.697L253.045 264.101Z" fill="black"/>
<path d="M308.404 275.225C308.329 275.225 308.254 275.225 308.178 275.208L261.295 266.594C260.616 266.468 260.163 265.813 260.28 265.124C260.398 264.434 261.052 263.981 261.748 264.107L307.222 272.46L307.885 260.317L261.815 250.324C261.136 250.181 260.708 249.509 260.851 248.828C260.993 248.148 261.655 247.711 262.343 247.862L309.461 258.081C310.065 258.216 310.484 258.762 310.45 259.384L309.645 274.032C309.629 274.393 309.452 274.729 309.167 274.956C308.941 275.132 308.673 275.225 308.388 275.225H308.404Z" fill="black"/>
<path d="M305.588 276.754C305.512 276.754 305.437 276.754 305.353 276.729L251.494 266.594C250.815 266.468 250.362 265.804 250.488 265.123C250.614 264.443 251.276 263.989 251.955 264.115L305.378 274.174L307.792 272.855C308.405 272.527 309.167 272.746 309.494 273.359C309.83 273.973 309.595 274.737 308.991 275.065L306.183 276.595C305.998 276.695 305.789 276.746 305.579 276.746L305.588 276.754Z" fill="black"/>
<path d="M174.965 325.975C174.965 325.975 174.915 325.975 174.89 325.975L166.699 325.496C166.028 325.454 165.5 324.891 165.517 324.219L165.676 315.21C165.684 314.554 166.196 314.017 166.85 313.975L174.873 313.437C175.217 313.412 175.561 313.538 175.812 313.773C176.064 314.008 176.214 314.344 176.214 314.697V324.732C176.214 325.076 176.072 325.412 175.82 325.648C175.586 325.866 175.275 325.992 174.957 325.992L174.965 325.975ZM168.057 323.042L173.708 323.379V316.034L168.174 316.403L168.057 323.051V323.042Z" fill="black"/>
<path d="M365.902 339.549C365.902 339.549 365.843 339.549 365.81 339.549L323.269 336.524C322.573 336.474 322.054 335.868 322.104 335.179C322.154 334.482 322.783 333.961 323.445 334.011L365.986 337.037C366.682 337.087 367.201 337.692 367.151 338.381C367.101 339.045 366.556 339.549 365.902 339.549Z" fill="black"/>
<path d="M314.969 335.927C314.969 335.927 314.91 335.927 314.877 335.927L174.873 325.977C174.211 325.926 173.708 325.38 173.708 324.716V314.682C173.708 314.329 173.85 313.993 174.11 313.757C174.37 313.522 174.705 313.396 175.057 313.421L315.003 324.17C315.699 324.22 316.21 324.834 316.16 325.523C316.109 326.22 315.489 326.75 314.81 326.682L176.214 316.035V323.531L315.053 333.397C315.749 333.448 316.269 334.053 316.218 334.742C316.168 335.406 315.623 335.91 314.969 335.91V335.927Z" fill="black"/>
<path d="M365.583 330.59C365.583 330.59 365.516 330.59 365.483 330.59L323.462 327.363C322.766 327.312 322.255 326.699 322.305 326.01C322.355 325.312 322.976 324.808 323.655 324.85L365.675 328.077C366.371 328.128 366.883 328.741 366.832 329.43C366.782 330.094 366.229 330.598 365.583 330.598V330.59Z" fill="black"/>
<path d="M67.9606 50.3566H67.9355C62.729 50.239 57.6148 46.9111 54.2612 41.4486C51.6035 37.129 50.7483 32.5237 52.0814 29.7252C52.3832 29.0949 53.1294 28.8344 53.7582 29.1285C54.387 29.431 54.6552 30.179 54.3534 30.8093C53.4144 32.7926 54.2528 36.6247 56.4075 40.1207C59.3167 44.8521 63.6513 47.7346 67.9942 47.8355C68.69 47.8523 69.235 48.4322 69.2266 49.1213C69.2098 49.8104 68.6481 50.3566 67.969 50.3566H67.9606Z" fill="black"/>
<path d="M53.473 254.655C52.71 254.655 51.9723 254.352 51.3854 253.789C49.935 252.386 48.7696 248.873 51.4524 240.091V32.4989C51.4524 31.8013 52.0142 31.2383 52.71 31.2383C53.4059 31.2383 53.9676 31.8013 53.9676 32.4989V239.99C54.6719 241.478 57.4051 247.562 56.9272 251.276C56.7344 252.764 55.7786 254.025 54.4791 254.478C54.1437 254.596 53.8083 254.655 53.473 254.655ZM52.9699 244.125C51.595 250.251 52.9448 251.798 53.1209 251.974C53.2885 252.134 53.4395 252.176 53.6407 252.108C53.9593 251.991 54.3449 251.587 54.4288 250.966C54.6467 249.234 53.8335 246.444 52.9699 244.133V244.125Z" fill="black"/>
<path d="M54.3952 281.119C54.0011 281.119 53.6071 280.96 53.2969 280.64C51.1757 278.472 49.4738 253.706 51.1506 249.462C51.6284 248.252 52.4249 248.042 52.8609 248.025C54.0933 247.975 54.8144 249.176 55.3342 250.235C56.8349 253.277 56.9774 263.404 56.9942 266.438C57.0361 279.573 55.6947 280.531 55.2503 280.85C54.9904 281.035 54.697 281.128 54.4035 281.128L54.3952 281.119ZM53.1711 251.58C52.5255 255.824 53.2885 268.001 54.2275 274.657C54.7137 267.749 54.5628 254.975 53.1711 251.58Z" fill="black"/>
<path d="M346.686 329.407C345.99 329.407 345.428 328.844 345.428 328.146V317.415C345.428 316.751 345.94 316.205 346.602 316.154L353.67 315.675C354.013 315.65 354.357 315.776 354.617 316.011C354.869 316.247 355.019 316.583 355.019 316.936V324.978C355.019 325.676 354.458 326.239 353.762 326.239C353.066 326.239 352.504 325.676 352.504 324.978V318.28L347.952 318.591V328.138C347.952 328.835 347.39 329.399 346.694 329.399L346.686 329.407Z" fill="black"/>
<path d="M346.686 343.373C345.99 343.373 345.428 342.81 345.428 342.113V337.163C345.428 336.465 345.99 335.902 346.686 335.902C347.382 335.902 347.943 336.465 347.943 337.163V342.113C347.943 342.81 347.382 343.373 346.686 343.373Z" fill="black"/>
<path d="M354.969 341.532C354.273 341.532 353.711 340.969 353.711 340.271V337.901C353.711 337.204 354.273 336.641 354.969 336.641C355.665 336.641 356.227 337.204 356.227 337.901V340.271C356.227 340.969 355.665 341.532 354.969 341.532Z" fill="black"/>
<path d="M346.686 423.654C345.99 423.654 345.428 423.091 345.428 422.393V356.725C345.428 356.028 345.99 355.465 346.686 355.465C347.382 355.465 347.943 356.028 347.943 356.725V422.393C347.943 423.091 347.382 423.654 346.686 423.654Z" fill="black"/>
<path d="M354.969 439.049H346.686C345.99 439.049 345.428 438.486 345.428 437.789V431.671C345.428 430.973 345.99 430.41 346.686 430.41C347.382 430.41 347.943 430.973 347.943 431.671V436.528H353.712V435.478C353.712 434.78 354.273 434.217 354.969 434.217C355.665 434.217 356.227 434.78 356.227 435.478V437.789C356.227 438.486 355.665 439.049 354.969 439.049Z" fill="black"/>
<path d="M354.969 427.571C354.273 427.571 353.711 427.007 353.711 426.31V363.046C353.711 362.348 354.273 361.785 354.969 361.785C355.665 361.785 356.227 362.348 356.227 363.046V426.31C356.227 427.007 355.665 427.571 354.969 427.571Z" fill="black"/>
<path d="M53.8503 314.161C51.7627 314.161 49.8428 313.001 48.3672 310.833C46.4808 308.06 45.8771 304.387 46.7155 300.765C47.5707 297.059 49.8847 293.891 53.0622 292.084C55.46 290.714 56.9021 287.806 56.9104 284.302C56.9272 281.243 55.8708 278.974 54.8648 278.394C54.1689 277.991 52.9951 278.646 52.249 279.873C51.1255 281.722 51.0249 284.663 54.4623 286.865C55.0492 287.243 55.2169 288.025 54.8396 288.605C54.4623 289.193 53.6826 289.361 53.1041 288.983C48.4846 286.008 48.3085 281.495 50.1027 278.554C51.6034 276.091 54.194 275.083 56.1224 276.209C58.1094 277.369 59.434 280.621 59.4173 284.31C59.4005 288.731 57.4806 292.454 54.2947 294.277C51.6872 295.765 49.8595 298.269 49.1553 301.336C48.4846 304.236 48.9624 307.253 50.4296 309.421C51.1842 310.539 52.4502 311.824 54.194 311.631C55.9714 311.429 57.7153 309.774 58.6376 307.421C60.197 303.437 56.6422 299.799 56.6086 299.757C56.1224 299.261 56.1224 298.471 56.6086 297.975C57.1033 297.479 57.8914 297.479 58.386 297.975C58.5789 298.168 63.1481 302.807 60.9851 308.345C59.7275 311.564 57.1704 313.841 54.4791 314.144C54.2695 314.169 54.0515 314.178 53.8419 314.178L53.8503 314.161Z" fill="black"/>
<path d="M53.9677 329.783C48.0989 329.783 43.3201 324.993 43.3201 319.11C43.3201 313.228 48.0989 308.438 53.9677 308.438C59.8365 308.438 64.6154 313.228 64.6154 319.11C64.6154 324.993 59.8365 329.783 53.9677 329.783ZM53.9677 310.959C49.4823 310.959 45.8353 314.614 45.8353 319.11C45.8353 323.606 49.4823 327.262 53.9677 327.262C58.4531 327.262 62.1002 323.606 62.1002 319.11C62.1002 314.614 58.4531 310.959 53.9677 310.959Z" fill="black"/>
<path d="M30.5094 346.676C27.5415 346.676 25.1353 344.256 25.1353 341.289C25.1353 338.323 27.5498 335.902 30.5094 335.902C33.4689 335.902 35.8835 338.323 35.8835 341.289C35.8835 344.256 33.4689 346.676 30.5094 346.676ZM30.5094 338.424C28.9332 338.424 27.6504 339.709 27.6504 341.289C27.6504 342.869 28.9332 344.155 30.5094 344.155C32.0856 344.155 33.3683 342.869 33.3683 341.289C33.3683 339.709 32.0856 338.424 30.5094 338.424Z" fill="black"/>
<path d="M32.2028 342.182C31.8758 342.182 31.5908 342.106 31.3225 341.955C30.9117 341.728 30.2494 341.131 30.459 339.719C31.0626 335.517 45.6172 323.197 48.2246 322.945C48.954 322.878 49.5744 323.256 49.8008 323.912C50.0272 324.567 50.3038 325.382 45.2818 331.08C42.4229 334.316 39.1615 337.585 36.7553 339.593C34.6342 341.375 33.2424 342.182 32.2028 342.182ZM44.8375 327.811C40.8215 330.954 35.0618 336.391 33.4017 339.055C36.1181 337.232 41.5845 331.677 44.8375 327.811Z" fill="black"/>
<path d="M52.5675 377.173C52.2322 377.173 51.9136 377.038 51.6788 376.803L44.695 369.802C44.2003 369.307 44.2003 368.508 44.695 368.021L51.6788 361.02C52.1735 360.524 52.9699 360.524 53.4562 361.02L60.4401 368.021C60.6748 368.256 60.809 368.575 60.809 368.912C60.809 369.248 60.6748 369.567 60.4401 369.802L53.4562 376.803C53.2215 377.038 52.9029 377.173 52.5675 377.173ZM47.3611 368.912L52.5675 374.13L57.774 368.912L52.5675 363.693L47.3611 368.912Z" fill="black"/>
<path d="M79.74 415.512C79.4215 415.512 79.0945 415.386 78.8513 415.142C78.3567 414.647 78.3567 413.848 78.8513 413.361C80.9893 411.218 81.1989 407.806 79.3376 405.411L54.5965 373.653C54.1689 373.106 54.2695 372.316 54.8145 371.879C55.3594 371.451 56.1475 371.552 56.5835 372.098L81.3246 403.856C83.9656 407.243 83.6721 412.092 80.6371 415.134C80.394 415.378 80.067 415.504 79.7484 415.504L79.74 415.512Z" fill="black"/>
<path d="M303.617 347.281C303.156 347.281 302.703 347.02 302.485 346.575C302.184 345.953 302.435 345.197 303.064 344.886C306.87 343.02 310.492 341.785 314.818 340.877C315.489 340.726 316.168 341.171 316.311 341.852C316.453 342.533 316.017 343.205 315.338 343.348C311.222 344.214 307.784 345.39 304.171 347.155C303.995 347.239 303.802 347.281 303.617 347.281Z" fill="black"/>
<path d="M286.43 359.889C286.12 359.889 285.81 359.771 285.567 359.544C285.064 359.065 285.038 358.267 285.516 357.762C288.191 354.93 290.647 352.779 294.009 350.317C294.571 349.905 295.359 350.031 295.77 350.594C296.181 351.157 296.055 351.947 295.493 352.359C292.265 354.712 289.901 356.779 287.344 359.494C287.101 359.754 286.766 359.889 286.43 359.889Z" fill="black"/>
<path d="M263.861 410.622C263.81 410.622 263.76 410.622 263.718 410.622C263.031 410.538 262.536 409.916 262.611 409.227C263.886 398.226 266.309 389.108 270.249 380.52C270.543 379.889 271.289 379.612 271.918 379.898C272.546 380.192 272.823 380.94 272.538 381.57C268.715 389.907 266.359 398.781 265.118 409.513C265.043 410.152 264.498 410.631 263.869 410.631L263.861 410.622Z" fill="black"/>
<path d="M287.637 486.609C287.319 486.609 287 486.492 286.757 486.248C279.044 478.634 272.697 468.684 268.413 457.473C268.162 456.826 268.488 456.095 269.134 455.843C269.78 455.591 270.509 455.919 270.761 456.566C274.919 467.449 281.064 477.088 288.518 484.45C289.012 484.937 289.021 485.735 288.535 486.231C288.291 486.483 287.964 486.609 287.637 486.609Z" fill="black"/>
<path d="M325.038 502.939C323.89 502.939 322.733 502.897 321.601 502.822C320.905 502.771 320.385 502.174 320.435 501.477C320.486 500.779 321.098 500.25 321.777 500.309C322.85 500.384 323.948 500.418 325.047 500.418C358.465 500.418 385.654 464.962 385.654 421.38C385.654 377.797 358.465 342.341 325.047 342.341C324.586 342.341 324.133 342.341 323.672 342.358C323.001 342.392 322.397 341.829 322.381 341.14C322.364 340.451 322.909 339.862 323.596 339.846C324.083 339.829 324.56 339.82 325.047 339.82C359.849 339.82 388.17 376.411 388.17 421.38C388.17 466.349 359.857 502.939 325.047 502.939H325.038Z" fill="black"/>
<path d="M303.776 357.625C303.349 357.625 302.938 357.407 302.695 357.02C302.334 356.424 302.527 355.65 303.123 355.289C306.904 353.003 310.894 351.306 314.969 350.264C315.64 350.087 316.327 350.499 316.503 351.171C316.679 351.843 316.269 352.533 315.598 352.709C311.758 353.692 308.002 355.289 304.43 357.449C304.229 357.575 304.003 357.634 303.785 357.634L303.776 357.625Z" fill="black"/>
<path d="M286.43 374.629C286.187 374.629 285.944 374.562 285.726 374.41C285.147 374.024 284.996 373.234 285.39 372.662C288.04 368.729 291.008 365.183 294.227 362.132C294.73 361.653 295.527 361.67 296.005 362.183C296.482 362.687 296.466 363.485 295.954 363.964C292.869 366.897 290.018 370.301 287.478 374.074C287.235 374.435 286.841 374.629 286.438 374.629H286.43Z" fill="black"/>
<path d="M325.038 493.77C321.66 493.77 318.272 493.341 314.978 492.501C314.307 492.324 313.896 491.643 314.072 490.971C314.24 490.299 314.927 489.887 315.598 490.064C318.692 490.854 321.861 491.257 325.03 491.257C342.72 491.257 358.91 478.979 368.333 458.406C368.627 457.776 369.364 457.499 370.002 457.784C370.63 458.078 370.907 458.826 370.622 459.457C360.779 480.945 343.735 493.778 325.03 493.778L325.038 493.77Z" fill="black"/>
<path d="M372.542 452.466C372.408 452.466 372.274 452.44 372.139 452.398C371.486 452.171 371.133 451.457 371.351 450.802C372.106 448.583 372.785 446.28 373.364 443.969C373.531 443.297 374.21 442.885 374.889 443.053C375.56 443.221 375.971 443.91 375.803 444.583C375.208 446.961 374.512 449.331 373.732 451.617C373.556 452.138 373.062 452.474 372.542 452.474V452.466Z" fill="black"/>
<path d="M376.063 438.438C375.996 438.438 375.921 438.438 375.854 438.421C375.166 438.303 374.705 437.656 374.822 436.967C375.669 431.883 376.105 426.63 376.105 421.369C376.105 392.527 363.647 367.064 344.363 356.492C343.751 356.155 343.534 355.391 343.86 354.777C344.187 354.164 344.959 353.945 345.571 354.273C365.642 365.274 378.62 391.611 378.62 421.361C378.62 426.765 378.176 432.151 377.304 437.37C377.204 437.984 376.667 438.421 376.063 438.421V438.438Z" fill="black"/>
<path d="M337.606 353.476C337.48 353.476 337.346 353.459 337.22 353.417C334.932 352.678 332.576 352.157 330.211 351.863C329.524 351.778 329.029 351.148 329.121 350.459C329.205 349.77 329.842 349.274 330.522 349.367C333.037 349.678 335.544 350.232 337.983 351.022C338.646 351.232 339.006 351.947 338.797 352.61C338.62 353.148 338.134 353.484 337.598 353.484L337.606 353.476Z" fill="black"/>
<path d="M356.864 502.939C351.33 502.939 345.839 502.015 340.54 500.191C339.886 499.964 339.534 499.25 339.761 498.586C339.987 497.931 340.708 497.578 341.362 497.804C346.392 499.536 351.607 500.418 356.864 500.418C390.282 500.418 417.472 464.962 417.472 421.38C417.472 377.797 390.282 342.341 356.864 342.341C351.607 342.341 346.392 343.224 341.362 344.955C340.708 345.182 339.987 344.829 339.761 344.174C339.534 343.518 339.886 342.795 340.54 342.568C345.831 340.745 351.322 339.82 356.864 339.82C391.666 339.82 419.987 376.411 419.987 421.38C419.987 466.349 391.674 502.939 356.864 502.939Z" fill="black"/>
<path d="M304.154 380.735C303.969 380.735 303.785 380.693 303.609 380.609C302.98 380.306 302.72 379.558 303.014 378.928C306.065 372.541 309.805 366.709 314.114 361.616C314.558 361.087 315.355 361.02 315.883 361.473C316.411 361.927 316.478 362.717 316.026 363.247C311.85 368.18 308.237 373.819 305.277 380.012C305.059 380.466 304.615 380.727 304.146 380.727L304.154 380.735Z" fill="black"/>
<path d="M307.834 471.609C307.407 471.609 306.988 471.391 306.753 470.996C304.925 467.911 303.257 464.642 301.789 461.264C301.513 460.625 301.806 459.886 302.443 459.608C303.081 459.331 303.818 459.625 304.095 460.264C305.52 463.541 307.138 466.718 308.916 469.71C309.268 470.306 309.075 471.08 308.48 471.441C308.279 471.559 308.061 471.617 307.834 471.617V471.609Z" fill="black"/>
<path d="M327.964 493.659C327.721 493.659 327.47 493.592 327.252 493.441C321.936 489.793 317.057 485.18 312.739 479.725C312.311 479.179 312.395 478.389 312.94 477.952C313.485 477.524 314.273 477.608 314.709 478.154C318.868 483.406 323.571 487.852 328.677 491.356C329.247 491.751 329.398 492.533 329.004 493.104C328.761 493.457 328.367 493.651 327.964 493.651V493.659Z" fill="black"/>
<path d="M356.654 497.625C356.545 497.625 356.445 497.625 356.336 497.625C353.678 497.608 351.003 497.356 348.388 496.868C347.709 496.742 347.256 496.087 347.382 495.398C347.507 494.717 348.161 494.263 348.849 494.389C351.322 494.843 353.846 495.087 356.361 495.104C356.461 495.104 356.562 495.104 356.654 495.104C371.418 495.104 385.353 487.582 395.933 473.901C406.656 460.026 412.642 441.504 412.777 421.755C412.911 401.997 407.176 383.399 396.637 369.382C386.174 355.465 372.223 347.742 357.35 347.641C354.516 347.624 351.674 347.885 348.882 348.423C348.195 348.557 347.541 348.103 347.407 347.422C347.273 346.742 347.725 346.078 348.404 345.943C351.356 345.372 354.374 345.086 357.367 345.12C373.037 345.229 387.7 353.305 398.641 367.861C409.507 382.315 415.418 401.459 415.283 421.771C415.149 442.075 408.979 461.143 397.912 475.447C386.845 489.759 372.198 497.625 356.646 497.625H356.654Z" fill="black"/>
<path d="M328.853 357.375C328.467 357.375 328.09 357.198 327.839 356.862C327.428 356.299 327.545 355.518 328.099 355.097C330.379 353.408 332.76 351.904 335.183 350.627C335.795 350.299 336.558 350.543 336.877 351.156C337.195 351.77 336.96 352.534 336.348 352.854C334.043 354.072 331.762 355.501 329.591 357.114C329.365 357.282 329.105 357.358 328.845 357.358L328.853 357.375Z" fill="black"/>
<path d="M303.651 395.384C303.533 395.384 303.408 395.367 303.29 395.333C302.628 395.132 302.251 394.426 302.452 393.762C305.135 384.829 309.042 376.719 314.064 369.643C314.466 369.071 315.254 368.945 315.816 369.349C316.378 369.752 316.512 370.542 316.109 371.105C311.247 377.954 307.457 385.82 304.858 394.485C304.69 395.031 304.196 395.384 303.651 395.384Z" fill="black"/>
<path d="M309.427 464.943C308.975 464.943 308.53 464.691 308.304 464.254C306.485 460.699 304.892 456.9 303.55 452.95C303.324 452.287 303.684 451.572 304.338 451.354C305.001 451.135 305.713 451.488 305.931 452.144C307.222 455.976 308.773 459.665 310.534 463.102C310.853 463.724 310.609 464.481 309.989 464.8C309.805 464.892 309.612 464.943 309.419 464.943H309.427Z" fill="black"/>
<path d="M335.518 492.339C335.325 492.339 335.124 492.297 334.94 492.197C326.908 487.995 319.916 481.818 314.156 473.843C313.745 473.28 313.871 472.49 314.433 472.086C314.994 471.674 315.782 471.8 316.185 472.364C321.718 480.028 328.417 485.944 336.097 489.961C336.717 490.281 336.952 491.045 336.633 491.659C336.407 492.087 335.971 492.339 335.518 492.339Z" fill="black"/>
<path d="M372.433 350.838H352.772C352.077 350.838 351.515 350.275 351.515 349.577C351.515 348.879 352.077 348.316 352.772 348.316H372.433C373.129 348.316 373.691 348.879 373.691 349.577C373.691 350.275 373.129 350.838 372.433 350.838Z" fill="black"/>
<path d="M380.884 354.677H358.004C357.308 354.677 356.747 354.114 356.747 353.417C356.747 352.719 357.308 352.156 358.004 352.156H380.884C381.58 352.156 382.142 352.719 382.142 353.417C382.142 354.114 381.58 354.677 380.884 354.677Z" fill="black"/>
<path d="M393.141 364.845H367.99C367.294 364.845 366.732 364.282 366.732 363.585C366.732 362.887 367.294 362.324 367.99 362.324H393.141C393.837 362.324 394.399 362.887 394.399 363.585C394.399 364.282 393.837 364.845 393.141 364.845Z" fill="black"/>
<path d="M397.795 370.283H371.947C371.251 370.283 370.689 369.72 370.689 369.022C370.689 368.325 371.251 367.762 371.947 367.762H397.795C398.49 367.762 399.052 368.325 399.052 369.022C399.052 369.72 398.49 370.283 397.795 370.283Z" fill="black"/>
<path d="M406.573 386.181H380.171C379.476 386.181 378.914 385.618 378.914 384.921C378.914 384.223 379.476 383.66 380.171 383.66H406.573C407.268 383.66 407.83 384.223 407.83 384.921C407.83 385.618 407.268 386.181 406.573 386.181Z" fill="black"/>
<path d="M409.733 393.072H382.569C381.873 393.072 381.312 392.509 381.312 391.811C381.312 391.114 381.873 390.551 382.569 390.551H409.733C410.429 390.551 410.991 391.114 410.991 391.811C410.991 392.509 410.429 393.072 409.733 393.072Z" fill="black"/>
<path d="M413.154 412.455H386.401C385.705 412.455 385.143 411.892 385.143 411.194C385.143 410.497 385.705 409.934 386.401 409.934H413.154C413.85 409.934 414.412 410.497 414.412 411.194C414.412 411.892 413.85 412.455 413.154 412.455Z" fill="black"/>
<path d="M413.581 420.119H386.895C386.199 420.119 385.638 419.556 385.638 418.858C385.638 418.161 386.199 417.598 386.895 417.598H413.581C414.277 417.598 414.839 418.161 414.839 418.858C414.839 419.556 414.277 420.119 413.581 420.119Z" fill="black"/>
<path d="M410.161 448.009H384.313C383.617 448.009 383.055 447.446 383.055 446.749C383.055 446.051 383.617 445.488 384.313 445.488H410.161C410.857 445.488 411.418 446.051 411.418 446.749C411.418 447.446 410.857 448.009 410.161 448.009Z" fill="black"/>
<path d="M412.341 440.556H385.646C384.95 440.556 384.388 439.993 384.388 439.296C384.388 438.598 384.95 438.035 385.646 438.035H412.341C413.036 438.035 413.598 438.598 413.598 439.296C413.598 439.993 413.036 440.556 412.341 440.556Z" fill="black"/>
<path d="M402.9 466.037H377.095C376.399 466.037 375.837 465.474 375.837 464.776C375.837 464.079 376.399 463.516 377.095 463.516H402.9C403.596 463.516 404.158 464.079 404.158 464.776C404.158 465.474 403.596 466.037 402.9 466.037Z" fill="black"/>
<path d="M399.589 472.256H374.034C373.338 472.256 372.777 471.692 372.777 470.995C372.777 470.297 373.338 469.734 374.034 469.734H399.589C400.284 469.734 400.846 470.297 400.846 470.995C400.846 471.692 400.284 472.256 399.589 472.256Z" fill="black"/>
<path d="M387.147 486.365H363.814C363.118 486.365 362.557 485.802 362.557 485.104C362.557 484.407 363.118 483.844 363.814 483.844H387.147C387.843 483.844 388.404 484.407 388.404 485.104C388.404 485.802 387.843 486.365 387.147 486.365Z" fill="black"/>
<path d="M378.553 490.599H358.734C358.038 490.599 357.476 490.036 357.476 489.339C357.476 488.641 358.038 488.078 358.734 488.078H378.553C379.249 488.078 379.811 488.641 379.811 489.339C379.811 490.036 379.249 490.599 378.553 490.599Z" fill="black"/>
<path d="M323.948 492.584H315.506C314.81 492.584 314.248 492.021 314.248 491.323C314.248 490.626 314.81 490.062 315.506 490.062H323.948C324.644 490.062 325.206 490.626 325.206 491.323C325.206 492.021 324.644 492.584 323.948 492.584Z" fill="black"/>
<path d="M319.723 487.92H312.144C311.448 487.92 310.886 487.357 310.886 486.659C310.886 485.961 311.448 485.398 312.144 485.398H319.723C320.419 485.398 320.981 485.961 320.981 486.659C320.981 487.357 320.419 487.92 319.723 487.92Z" fill="black"/>
<path d="M307.248 471.607H301.832C301.136 471.607 300.574 471.044 300.574 470.347C300.574 469.649 301.136 469.086 301.832 469.086H307.248C307.943 469.086 308.505 469.649 308.505 470.347C308.505 471.044 307.943 471.607 307.248 471.607Z" fill="black"/>
<path d="M295.996 457.236H293.179C292.483 457.236 291.922 456.673 291.922 455.975C291.922 455.278 292.483 454.715 293.179 454.715H295.996C296.692 454.715 297.254 455.278 297.254 455.975C297.254 456.673 296.692 457.236 295.996 457.236Z" fill="black"/>
<path d="M297.405 450.529H288.652C287.956 450.529 287.394 449.966 287.394 449.268C287.394 448.571 287.956 448.008 288.652 448.008H297.405C298.101 448.008 298.662 448.571 298.662 449.268C298.662 449.966 298.101 450.529 297.405 450.529Z" fill="black"/>
<path d="M294.998 435.873H289.054C288.358 435.873 287.797 435.31 287.797 434.612C287.797 433.915 288.358 433.352 289.054 433.352H294.998C295.694 433.352 296.256 433.915 296.256 434.612C296.256 435.31 295.694 435.873 294.998 435.873Z" fill="black"/>
<path d="M294.998 410.623H289.054C288.358 410.623 287.797 410.06 287.797 409.362C287.797 408.665 288.358 408.102 289.054 408.102H294.998C295.694 408.102 296.256 408.665 296.256 409.362C296.256 410.06 295.694 410.623 294.998 410.623Z" fill="black"/>
<path d="M294.998 384.838H286.329C285.634 384.838 285.072 384.275 285.072 383.577C285.072 382.879 285.634 382.316 286.329 382.316H294.998C295.694 382.316 296.256 382.879 296.256 383.577C296.256 384.275 295.694 384.838 294.998 384.838Z" fill="black"/>
<path d="M294.831 379.209H286.321C285.625 379.209 285.063 378.646 285.063 377.948C285.063 377.251 285.625 376.688 286.321 376.688H294.831C295.527 376.688 296.088 377.251 296.088 377.948C296.088 378.646 295.527 379.209 294.831 379.209Z" fill="black"/>
<path d="M315.279 363.095H303.642C302.946 363.095 302.385 362.532 302.385 361.835C302.385 361.137 302.946 360.574 303.642 360.574H315.279C315.975 360.574 316.537 361.137 316.537 361.835C316.537 362.532 315.975 363.095 315.279 363.095Z" fill="black"/>
<path d="M315.279 357.986H303.642C302.946 357.986 302.385 357.423 302.385 356.725C302.385 356.028 302.946 355.465 303.642 355.465H315.279C315.975 355.465 316.537 356.028 316.537 356.725C316.537 357.423 315.975 357.986 315.279 357.986Z" fill="black"/>
<path d="M49.4655 366.282C49.0882 366.282 48.7194 366.114 48.4762 365.794L32.3287 345.071C31.9011 344.524 32.0017 343.734 32.5467 343.297C33.0916 342.869 33.8797 342.97 34.3157 343.516L50.4632 364.24C50.8908 364.786 50.7902 365.576 50.2452 366.013C50.0189 366.189 49.7422 366.282 49.4739 366.282H49.4655Z" fill="black"/>
<path d="M74.6258 346.676C71.6579 346.676 69.2517 344.256 69.2517 341.289C69.2517 338.323 71.6663 335.902 74.6258 335.902C77.5854 335.902 80 338.323 80 341.289C80 344.256 77.5854 346.676 74.6258 346.676ZM74.6258 338.424C73.0497 338.424 71.7669 339.709 71.7669 341.289C71.7669 342.869 73.0497 344.155 74.6258 344.155C76.202 344.155 77.4848 342.869 77.4848 341.289C77.4848 339.709 76.202 338.424 74.6258 338.424Z" fill="black"/>
<path d="M72.9406 342.179C71.901 342.179 70.5093 341.373 68.3881 339.591C65.9903 337.583 62.7206 334.313 59.8616 331.078C54.8313 325.38 55.1163 324.565 55.3427 323.909C55.5691 323.254 56.1811 322.867 56.9189 322.943C59.5263 323.187 74.0725 335.515 74.6845 339.717C74.8857 341.129 74.2318 341.726 73.821 341.953C73.5527 342.104 73.2592 342.179 72.9406 342.179ZM60.3144 327.809C63.559 331.675 69.0337 337.23 71.7501 339.053C70.0901 336.389 64.3303 330.952 60.3144 327.809Z" fill="black"/>
<path d="M25.3951 415.512C25.0765 415.512 24.7495 415.386 24.5064 415.142C21.4714 412.1 21.178 407.251 23.8189 403.864L48.56 372.106C48.9876 371.559 49.7757 371.459 50.3291 371.887C50.874 372.316 50.9746 373.106 50.547 373.66L25.8059 405.419C23.9447 407.805 24.1543 411.226 26.2922 413.369C26.7869 413.864 26.7869 414.663 26.2922 415.15C26.0491 415.394 25.7221 415.52 25.4035 415.52L25.3951 415.512Z" fill="black"/>
<path d="M55.9127 365.979C55.6444 365.979 55.3678 365.895 55.1414 365.71C54.5964 365.281 54.4958 364.491 54.9234 363.937L70.8278 343.524C71.2554 342.977 72.0435 342.877 72.5968 343.305C73.1418 343.734 73.2424 344.524 72.8148 345.078L56.9104 365.491C56.6589 365.811 56.29 365.979 55.9211 365.979H55.9127Z" fill="black"/>
<path d="M78.9016 431.966H31.2974C30.6015 431.966 30.0398 431.403 30.0398 430.706V406.729C30.0398 406.032 30.6015 405.469 31.2974 405.469H78.9016C79.5975 405.469 80.1592 406.032 80.1592 406.729V430.706C80.1592 431.403 79.5975 431.966 78.9016 431.966ZM32.555 429.445H77.644V407.99H32.555V429.445Z" fill="black"/>
<path d="M31.2973 431.966H25.9148C25.219 431.966 24.6572 431.403 24.6572 430.706V406.729C24.6572 406.032 25.219 405.469 25.9148 405.469H31.2973C31.9932 405.469 32.5549 406.032 32.5549 406.729V430.706C32.5549 431.403 31.9932 431.966 31.2973 431.966ZM27.1724 429.445H30.0397V407.99H27.1724V429.445Z" fill="black"/>
<path d="M140.7 67.9024C140.515 67.9024 140.323 67.8604 140.146 67.7763L84.0157 40.0772C83.3953 39.7663 83.1354 39.0183 83.4456 38.388C83.7558 37.7577 84.5104 37.5056 85.1308 37.8166L141.262 65.5157C141.882 65.8266 142.142 66.5746 141.832 67.2049C141.614 67.6503 141.169 67.9108 140.7 67.9108V67.9024Z" fill="black"/>
<path d="M201.802 132.041C201.459 132.041 201.115 131.898 200.872 131.63L152.069 77.6095C151.599 77.0969 151.641 76.2985 152.161 75.8279C152.681 75.3657 153.469 75.3993 153.938 75.9204L202.741 129.94C203.211 130.453 203.169 131.251 202.649 131.722C202.406 131.94 202.104 132.05 201.802 132.05V132.041Z" fill="black"/>
<path d="M300.297 257.21C299.92 257.21 299.551 257.042 299.299 256.722L210.999 142.304C210.572 141.749 210.672 140.959 211.226 140.539C211.779 140.11 212.567 140.211 212.986 140.766L301.286 255.184C301.714 255.739 301.613 256.529 301.06 256.949C300.834 257.126 300.557 257.21 300.289 257.21H300.297Z" fill="black"/>
<path d="M304.707 282.553C304.011 282.553 303.45 281.99 303.45 281.292V276.065C303.45 275.368 304.011 274.805 304.707 274.805C305.403 274.805 305.965 275.368 305.965 276.065V281.292C305.965 281.99 305.403 282.553 304.707 282.553Z" fill="black"/>
<path d="M375.216 344.693C374.521 344.693 373.959 344.13 373.959 343.432V317.607H367.159V341.718C367.159 342.415 366.598 342.978 365.902 342.978C365.206 342.978 364.644 342.415 364.644 341.718V316.347C364.644 315.649 365.206 315.086 365.902 315.086H375.216C375.912 315.086 376.474 315.649 376.474 316.347V343.432C376.474 344.13 375.912 344.693 375.216 344.693Z" fill="black"/>
<path d="M218.31 317.606C217.614 317.606 217.053 317.043 217.053 316.345V262.628C217.053 261.93 217.614 261.367 218.31 261.367C219.006 261.367 219.568 261.93 219.568 262.628V316.345C219.568 317.043 219.006 317.606 218.31 317.606Z" fill="black"/>
<path d="M218.31 247.913C217.614 247.913 217.053 247.35 217.053 246.653V209.088H212.047V245.132C212.047 245.829 211.486 246.392 210.79 246.392C210.094 246.392 209.532 245.829 209.532 245.132V207.827C209.532 207.129 210.094 206.566 210.79 206.566H218.31C219.006 206.566 219.568 207.129 219.568 207.827V246.653C219.568 247.35 219.006 247.913 218.31 247.913Z" fill="black"/>
<path d="M210.79 317.607C210.094 317.607 209.532 317.044 209.532 316.347V261.444C209.532 260.747 210.094 260.184 210.79 260.184C211.486 260.184 212.047 260.747 212.047 261.444V316.347C212.047 317.044 211.486 317.607 210.79 317.607Z" fill="black"/>
<path d="M230.4 318.684C229.704 318.684 229.142 318.121 229.142 317.423V264.538C229.142 263.84 229.704 263.277 230.4 263.277C231.096 263.277 231.658 263.84 231.658 264.538V317.423C231.658 318.121 231.096 318.684 230.4 318.684Z" fill="black"/>
<path d="M230.4 250.098C229.704 250.098 229.142 249.535 229.142 248.837V219.491C229.142 218.794 229.704 218.23 230.4 218.23C231.096 218.23 231.658 218.794 231.658 219.491V248.837C231.658 249.535 231.096 250.098 230.4 250.098Z" fill="black"/>
<path d="M205.407 349.893H197.216C196.814 349.893 196.436 349.699 196.202 349.372C195.967 349.044 195.9 348.624 196.017 348.246L202.683 327.48C202.892 326.816 203.605 326.446 204.267 326.664C204.929 326.875 205.29 327.589 205.08 328.253L198.943 347.372H204.51C211.058 328.547 211.326 328.278 211.578 328.026C212.073 327.53 212.869 327.53 213.355 328.026C213.775 328.446 213.833 329.093 213.531 329.581C213.012 330.698 209.012 342.06 206.589 349.044C206.413 349.548 205.936 349.893 205.399 349.893H205.407Z" fill="black"/>
<path d="M249.558 351.986C249.558 351.986 249.516 351.986 249.499 351.986L205.349 349.893C204.653 349.859 204.116 349.271 204.15 348.574C204.183 347.876 204.728 347.355 205.466 347.372L247.73 349.372L240.905 330.556C240.671 329.9 241.006 329.178 241.66 328.942C242.314 328.707 243.035 329.043 243.27 329.699L250.731 350.296C250.874 350.691 250.807 351.137 250.564 351.473C250.329 351.792 249.952 351.986 249.549 351.986H249.558Z" fill="black"/>
<path d="M207.898 358.753H193.527C192.832 358.753 192.27 358.19 192.27 357.493V348.643C192.27 347.946 192.832 347.383 193.527 347.383H196.579C197.275 347.383 197.837 347.946 197.837 348.643C197.837 349.341 197.275 349.904 196.579 349.904H194.785V356.232H206.64V348.786C206.64 348.089 207.202 347.526 207.898 347.526C208.593 347.526 209.155 348.089 209.155 348.786V357.493C209.155 358.19 208.593 358.753 207.898 358.753Z" fill="black"/>
<path d="M252.768 360.112C252.768 360.112 252.743 360.112 252.726 360.112L207.855 358.742C207.16 358.725 206.615 358.137 206.64 357.448C206.657 356.75 207.252 356.179 207.931 356.229L251.511 357.557V351.994H249.557C248.861 351.994 248.3 351.431 248.3 350.733C248.3 350.036 248.861 349.473 249.557 349.473H252.768C253.464 349.473 254.026 350.036 254.026 350.733V358.86C254.026 359.204 253.892 359.524 253.64 359.767C253.406 359.994 253.095 360.12 252.768 360.12V360.112Z" fill="black"/>
<path d="M286.329 324.497C285.634 324.497 285.072 323.934 285.072 323.236V278.671C285.072 277.973 285.634 277.41 286.329 277.41C287.025 277.41 287.587 277.973 287.587 278.671V323.236C287.587 323.934 287.025 324.497 286.329 324.497Z" fill="black"/>
<path d="M286.33 407.023H271.398C270.702 407.023 270.14 406.46 270.14 405.763V331.565C270.14 330.868 270.702 330.305 271.398 330.305C272.094 330.305 272.655 330.868 272.655 331.565V404.502H285.072V332.624C285.072 331.927 285.634 331.364 286.33 331.364C287.025 331.364 287.587 331.927 287.587 332.624V405.763C287.587 406.46 287.025 407.023 286.33 407.023Z" fill="black"/>
<path d="M271.389 323.547C270.693 323.547 270.132 322.984 270.132 322.286V272.518C270.132 271.821 270.693 271.258 271.389 271.258C272.085 271.258 272.647 271.821 272.647 272.518V322.286C272.647 322.984 272.085 323.547 271.389 323.547Z" fill="black"/>
<path d="M350.785 329.139C350.09 329.139 349.528 328.576 349.528 327.878V324.987C349.528 324.29 350.09 323.727 350.785 323.727H365.902C366.598 323.727 367.159 324.29 367.159 324.987C367.159 325.685 366.598 326.248 365.902 326.248H352.043V327.878C352.043 328.576 351.481 329.139 350.785 329.139Z" fill="black"/>
<path d="M303.584 325.826C302.888 325.826 302.326 325.263 302.326 324.565L302.309 314.17H296.256V323.901C296.256 324.599 295.694 325.162 294.999 325.162C294.303 325.162 293.741 324.599 293.741 323.901V312.909C293.741 312.211 294.303 311.648 294.999 311.648H303.559C304.254 311.648 304.816 312.211 304.816 312.909L304.833 324.557C304.833 325.254 304.271 325.817 303.575 325.817L303.584 325.826Z" fill="black"/>
<path d="M303.735 414.177C303.039 414.177 302.477 413.614 302.477 412.916L302.343 334.097C302.343 333.399 302.904 332.836 303.6 332.836C304.296 332.836 304.858 333.399 304.858 334.097L304.992 412.916C304.992 413.614 304.439 414.194 303.735 414.177Z" fill="black"/>
<path d="M303.777 439.052H294.999C294.303 439.052 293.741 438.489 293.741 437.792V432.514C293.741 431.817 294.303 431.254 294.999 431.254C295.694 431.254 296.256 431.817 296.256 432.514V436.531H302.511V432.464C302.502 431.766 303.064 431.203 303.76 431.203C304.456 431.203 305.017 431.766 305.017 432.464V437.792C305.026 438.128 304.9 438.447 304.657 438.683C304.414 438.918 304.104 439.052 303.768 439.052H303.777Z" fill="black"/>
<path d="M294.999 414.393C294.303 414.393 293.741 413.83 293.741 413.133V333.514C293.741 332.817 294.303 332.254 294.999 332.254C295.694 332.254 296.256 332.817 296.256 333.514V413.133C296.256 413.83 295.694 414.393 294.999 414.393Z" fill="black"/>
<path d="M323.948 439.051H315.17C314.475 439.051 313.913 438.488 313.913 437.79V312.909C313.913 312.211 314.475 311.648 315.17 311.648H323.73C324.426 311.648 324.988 312.211 324.988 312.909L325.198 437.79C325.198 438.127 325.064 438.446 324.829 438.681C324.594 438.916 324.275 439.051 323.94 439.051H323.948ZM316.428 436.53H322.682L322.473 314.17H316.42V436.53H316.428Z" fill="black"/>
<path d="M289.054 437.497H280.955C280.26 437.497 279.698 436.934 279.698 436.236C279.698 435.539 280.26 434.976 280.955 434.976H287.797V407.033H269.872V416.949C269.872 417.647 269.31 418.21 268.614 418.21C267.918 418.21 267.357 417.647 267.357 416.949V405.772C267.357 405.075 267.918 404.512 268.614 404.512H289.054C289.75 404.512 290.312 405.075 290.312 405.772V436.236C290.312 436.934 289.75 437.497 289.054 437.497Z" fill="black"/>
<path d="M313.779 516.131C313.779 516.131 313.703 516.131 313.67 516.131L305.973 515.492C305.579 515.459 305.219 515.24 305.009 514.896L252.182 429.143C252.098 429 252.039 428.84 252.005 428.68L249.281 411.394C249.188 410.797 249.524 410.225 250.086 410.015C250.647 409.805 251.276 410.024 251.595 410.536L314.483 513.61H327.403L246.086 383.585C245.718 382.997 245.894 382.215 246.48 381.846C247.067 381.476 247.847 381.652 248.216 382.241L330.739 514.198C330.983 514.585 330.999 515.08 330.773 515.475C330.555 515.879 330.127 516.123 329.675 516.123H313.779V516.131ZM306.812 513.021L311.414 513.408L252.76 417.26L254.454 428.025L306.812 513.021Z" fill="black"/>
<path d="M315.17 433.175H289.054C288.358 433.175 287.797 432.612 287.797 431.914V413.409C287.797 412.711 288.358 412.148 289.054 412.148H315.17C315.866 412.148 316.428 412.711 316.428 413.409V431.914C316.428 432.612 315.866 433.175 315.17 433.175ZM290.312 430.654H313.913V414.67H290.312V430.654Z" fill="black"/>
<path d="M267.222 526.113H259.358C258.729 526.113 258.193 525.643 258.109 525.021L237.56 371.499C237.51 371.138 237.619 370.776 237.862 370.499C238.105 370.222 238.449 370.07 238.809 370.07H244.971C245.6 370.07 246.128 370.533 246.212 371.146L268.472 524.668C268.522 525.029 268.413 525.399 268.178 525.676C267.935 525.954 267.591 526.113 267.231 526.113H267.222ZM260.457 523.592H265.772L243.881 372.591H240.251L260.465 523.592H260.457Z" fill="black"/>
<path d="M235.757 526.113H227.491C226.862 526.113 226.325 525.643 226.242 525.012L207.696 381.306C207.654 380.97 207.746 380.626 207.956 380.365C208.166 380.096 208.476 379.928 208.811 379.894L216.516 379.096C217.187 379.029 217.799 379.508 217.891 380.18L236.998 524.685C237.048 525.046 236.939 525.407 236.696 525.685C236.462 525.962 236.109 526.113 235.749 526.113H235.757ZM228.597 523.592H234.324L215.569 381.727L210.362 382.264L228.597 523.592Z" fill="black"/>
<path d="M248.467 388.948C247.78 388.948 247.218 388.393 247.21 387.704L246.858 358.879C246.858 358.181 247.403 357.61 248.099 357.602H248.115C248.803 357.602 249.364 358.156 249.373 358.845L249.725 387.671C249.725 388.368 249.18 388.94 248.484 388.948H248.467Z" fill="black"/>
<path d="M250.044 516.937H206.053C205.357 516.937 204.795 516.374 204.795 515.685L204.15 357.499C204.15 356.802 204.712 356.239 205.399 356.23C206.095 356.23 206.657 356.794 206.657 357.483L207.294 514.416H248.761L247.956 449.278C247.956 448.58 248.501 448.009 249.197 448.001H249.214C249.901 448.001 250.463 448.555 250.471 449.244L251.285 515.652C251.285 515.988 251.159 516.316 250.924 516.551C250.689 516.795 250.362 516.929 250.027 516.929L250.044 516.937Z" fill="black"/>
<path d="M199.153 384.838C198.457 384.838 197.895 384.275 197.895 383.577V357.483C197.895 356.786 198.457 356.223 199.153 356.223C199.849 356.223 200.41 356.786 200.41 357.483V383.577C200.41 384.275 199.849 384.838 199.153 384.838Z" fill="black"/>
<path d="M141.513 516.939H124.494C124.049 516.939 123.63 516.703 123.404 516.308C123.177 515.922 123.177 515.443 123.404 515.048L204.317 372.308C204.661 371.703 205.424 371.493 206.028 371.838C206.631 372.182 206.841 372.947 206.497 373.552L126.648 514.409H140.758L204.468 397.915C204.804 397.301 205.567 397.083 206.179 397.419C206.791 397.755 207.009 398.52 206.673 399.133L142.611 516.283C142.393 516.686 141.966 516.939 141.505 516.939H141.513Z" fill="black"/>
<path d="M242.817 528.686H222.343C222.083 528.686 221.823 528.602 221.605 528.45L207.302 518.139V527.425C207.302 528.122 206.74 528.686 206.044 528.686H113.091C112.395 528.686 111.834 528.122 111.834 527.425V515.676C111.834 514.979 112.395 514.416 113.091 514.416H201.249L198.524 512.878C198.13 512.651 197.887 512.239 197.887 511.777V411.233C197.887 410.536 198.449 409.973 199.144 409.973C199.84 409.973 200.402 410.536 200.402 411.233V511.037L206.657 514.567C206.657 514.567 206.698 514.592 206.724 514.609C206.724 514.609 206.774 514.643 206.791 514.659L222.745 526.164H239.035L234.986 523.122C234.433 522.702 234.315 521.912 234.734 521.357C235.154 520.803 235.942 520.694 236.495 521.105L243.563 526.417C243.999 526.744 244.175 527.307 243.999 527.82C243.823 528.333 243.345 528.686 242.808 528.686H242.817ZM114.357 526.164H204.795V516.937H114.357V526.164Z" fill="black"/>
<path d="M242.817 540.434H222.343C222.083 540.434 221.823 540.35 221.605 540.198L205.307 528.45C204.745 528.047 204.611 527.257 205.022 526.693C205.424 526.13 206.212 526.004 206.774 526.408L222.737 537.921H241.542V527.433C241.542 526.736 242.104 526.172 242.8 526.172C243.496 526.172 244.057 526.736 244.057 527.433V539.182C244.057 539.879 243.496 540.442 242.8 540.442L242.817 540.434Z" fill="black"/>
<path d="M222.351 540.434C221.655 540.434 221.094 539.871 221.094 539.173V527.425C221.094 526.727 221.655 526.164 222.351 526.164C223.047 526.164 223.609 526.727 223.609 527.425V539.173C223.609 539.871 223.047 540.434 222.351 540.434Z" fill="black"/>
<path d="M277.493 527.721H256.784C256.558 527.721 256.332 527.662 256.139 527.545L238.155 516.762C237.56 516.409 237.367 515.628 237.719 515.031C238.071 514.434 238.851 514.241 239.446 514.594L257.128 525.2H273.494L265.596 519.67C265.026 519.275 264.892 518.485 265.286 517.914C265.68 517.342 266.468 517.208 267.038 517.603L278.214 525.427C278.667 525.746 278.859 526.309 278.692 526.839C278.524 527.368 278.038 527.721 277.493 527.721Z" fill="black"/>
<path d="M277.493 538.503H256.776C256.533 538.503 256.306 538.427 256.114 538.309L242.968 530.275C242.372 529.914 242.188 529.141 242.548 528.544C242.909 527.947 243.68 527.762 244.275 528.124L255.527 534.998V526.46C255.527 525.762 256.088 525.199 256.784 525.199H277.493C278.189 525.199 278.75 525.762 278.75 526.46V537.242C278.75 537.939 278.189 538.503 277.493 538.503ZM258.042 535.981H276.235V527.72H258.042V535.981Z" fill="black"/>
<path d="M183.735 513.074C183.039 513.074 182.477 512.511 182.477 511.813V503.283C182.477 502.838 182.712 502.426 183.098 502.199C183.483 501.972 183.953 501.964 184.347 502.182L199.757 510.678C200.369 511.015 200.587 511.779 200.251 512.393C199.916 513.006 199.153 513.225 198.541 512.889L184.992 505.426V511.821C184.992 512.519 184.431 513.082 183.735 513.082V513.074Z" fill="black"/>
<path d="M191.448 504.551H183.743C183.047 504.551 182.486 503.988 182.486 503.29C182.486 502.592 183.047 502.029 183.743 502.029H190.308L197.904 425.924C197.971 425.235 198.583 424.714 199.279 424.798C199.966 424.865 200.478 425.487 200.402 426.176L192.697 503.424C192.63 504.072 192.094 504.559 191.448 504.559V504.551Z" fill="black"/>
<path d="M198.029 504.552H191.448C190.752 504.552 190.19 503.989 190.19 503.292C190.19 502.594 190.752 502.031 191.448 502.031H198.029C198.725 502.031 199.287 502.594 199.287 503.292C199.287 503.989 198.725 504.552 198.029 504.552Z" fill="black"/>
<path d="M336.415 526.913H277.493C276.797 526.913 276.235 526.35 276.235 525.652C276.235 524.954 276.797 524.391 277.493 524.391H335.158V518.408H266.107C265.412 518.408 264.85 517.845 264.85 517.147C264.85 516.45 265.412 515.887 266.107 515.887H336.415C337.111 515.887 337.673 516.45 337.673 517.147V525.652C337.673 526.35 337.111 526.913 336.415 526.913Z" fill="black"/>
<path d="M304.54 514.174H265.487C264.791 514.174 264.229 513.61 264.229 512.913C264.229 512.215 264.791 511.652 265.487 511.652H304.54C305.236 511.652 305.797 512.215 305.797 512.913C305.797 513.61 305.236 514.174 304.54 514.174Z" fill="black"/>
<path d="M257.799 514.174H250.044C249.348 514.174 248.786 513.61 248.786 512.913C248.786 512.215 249.348 511.652 250.044 511.652H257.799C258.495 511.652 259.057 512.215 259.057 512.913C259.057 513.61 258.495 514.174 257.799 514.174Z" fill="black"/>
<path d="M190.316 516.938C189.62 516.938 189.059 516.375 189.059 515.677V513.072H143.022C142.326 513.072 141.765 512.509 141.765 511.811C141.765 511.114 142.326 510.551 143.022 510.551H190.316C191.012 510.551 191.574 511.114 191.574 511.811V515.677C191.574 516.375 191.012 516.938 190.316 516.938Z" fill="black"/>
<path d="M113.1 516.129C112.404 516.129 111.842 515.566 111.842 514.869V511.331C111.842 510.633 112.404 510.07 113.1 510.07H124.502C125.198 510.07 125.76 510.633 125.76 511.331C125.76 512.028 125.198 512.591 124.502 512.591H114.357V514.869C114.357 515.566 113.796 516.129 113.1 516.129Z" fill="black"/>
<path d="M311.607 486.928C311.507 486.928 311.406 486.92 311.297 486.886C310.626 486.718 310.216 486.029 310.383 485.356L344.875 348.113L339.886 346.852L325.206 405.276C325.038 405.948 324.359 406.369 323.68 406.192C323.009 406.024 322.599 405.335 322.766 404.663L337.757 345.02C337.841 344.693 338.042 344.415 338.327 344.247C338.612 344.079 338.956 344.02 339.283 344.104L346.711 345.978C347.382 346.147 347.792 346.836 347.625 347.508L312.823 485.97C312.68 486.541 312.169 486.92 311.607 486.92V486.928Z" fill="black"/>
<path d="M305.914 478.144C305.814 478.144 305.713 478.136 305.604 478.102C304.933 477.934 304.523 477.245 304.69 476.573L314.424 437.856C314.592 437.184 315.279 436.772 315.95 436.94C316.621 437.108 317.032 437.797 316.864 438.469L307.13 477.186C306.988 477.757 306.476 478.136 305.914 478.136V478.144Z" fill="black"/>
<path d="M306.828 414.135C306.728 414.135 306.627 414.126 306.518 414.093C305.848 413.925 305.437 413.236 305.604 412.563L314.533 377.032C314.701 376.359 315.388 375.948 316.059 376.116C316.73 376.284 317.141 376.973 316.973 377.645L308.044 413.177C307.902 413.748 307.39 414.126 306.828 414.126V414.135Z" fill="black"/>
<path d="M295.091 460.835C294.99 460.835 294.889 460.827 294.78 460.793C294.11 460.625 293.699 459.936 293.867 459.264L299.341 437.481C299.509 436.809 300.196 436.397 300.867 436.565C301.538 436.733 301.949 437.422 301.781 438.094L296.306 459.877C296.164 460.449 295.652 460.827 295.091 460.827V460.835Z" fill="black"/>
<path d="M300.725 469.835C300.624 469.835 300.524 469.827 300.415 469.793C299.744 469.625 299.333 468.936 299.501 468.264L308.715 431.606C308.883 430.934 309.57 430.522 310.241 430.69C310.911 430.858 311.322 431.547 311.155 432.219L301.941 468.877C301.798 469.449 301.287 469.827 300.725 469.827V469.835Z" fill="black"/>
<path d="M324.091 376.863C323.99 376.863 323.89 376.854 323.781 376.82C323.11 376.652 322.699 375.963 322.867 375.291L331.025 342.844L326.036 341.583L325.164 345.054C324.997 345.726 324.309 346.146 323.638 345.97C322.968 345.802 322.557 345.113 322.724 344.44L323.907 339.751C323.99 339.423 324.192 339.146 324.477 338.978C324.762 338.81 325.106 338.759 325.433 338.835L332.861 340.709C333.531 340.877 333.942 341.566 333.775 342.239L325.315 375.904C325.173 376.476 324.661 376.854 324.099 376.854L324.091 376.863Z" fill="black"/>
<path d="M308.589 405.604C308.404 405.604 308.22 405.562 308.044 405.478L303.19 403.133C302.561 402.831 302.301 402.083 302.603 401.453C302.905 400.822 303.651 400.562 304.279 400.864L309.134 403.209C309.763 403.511 310.023 404.259 309.721 404.89C309.503 405.343 309.058 405.604 308.589 405.604Z" fill="black"/>
<path d="M295.082 399.092C294.898 399.092 294.713 399.05 294.537 398.966L285.885 394.79C285.256 394.487 284.996 393.739 285.298 393.109C285.6 392.478 286.346 392.218 286.975 392.52L295.627 396.697C296.256 397 296.516 397.748 296.214 398.378C295.996 398.832 295.552 399.092 295.082 399.092Z" fill="black"/>
<path d="M271.389 396.182C271.205 396.182 271.02 396.14 270.844 396.056L268.094 394.729C267.793 394.586 267.566 394.325 267.449 394.006C267.34 393.686 267.357 393.342 267.499 393.039L270.249 387.308C270.551 386.678 271.297 386.417 271.926 386.72C272.555 387.022 272.815 387.779 272.513 388.4L270.308 392.997L271.926 393.779C272.555 394.081 272.815 394.829 272.513 395.46C272.295 395.914 271.85 396.174 271.381 396.174L271.389 396.182Z" fill="black"/>
<path d="M295.082 407.604C294.898 407.604 294.713 407.562 294.537 407.478L285.516 403.133C284.887 402.831 284.628 402.083 284.929 401.453C285.231 400.822 285.977 400.562 286.606 400.864L295.627 405.209C296.256 405.512 296.516 406.26 296.214 406.89C295.996 407.344 295.552 407.604 295.082 407.604Z" fill="black"/>
<path d="M307.021 413.359C306.837 413.359 306.652 413.317 306.476 413.233L303.072 411.594C302.444 411.292 302.184 410.535 302.486 409.913C302.787 409.283 303.534 409.023 304.162 409.325L307.566 410.964C308.195 411.266 308.455 412.023 308.153 412.645C307.935 413.098 307.491 413.359 307.021 413.359Z" fill="black"/>
<path d="M380.012 448.555C379.828 448.555 379.643 448.513 379.467 448.429L327.419 423.335C326.791 423.033 326.531 422.285 326.832 421.654C327.134 421.024 327.88 420.764 328.509 421.066L379.425 445.614L381.655 440.966L329.13 415.637C328.501 415.335 328.241 414.587 328.543 413.956C328.845 413.326 329.591 413.066 330.22 413.368L383.877 439.244C384.179 439.386 384.405 439.647 384.523 439.966C384.632 440.286 384.615 440.63 384.472 440.933L381.152 447.849C380.934 448.303 380.49 448.564 380.02 448.564L380.012 448.555Z" fill="black"/>
<path d="M267.91 410.874C267.725 410.874 267.541 410.832 267.365 410.748L262.46 408.378C262.158 408.236 261.932 407.975 261.815 407.656C261.706 407.336 261.723 406.992 261.865 406.689L265.185 399.773C265.487 399.143 266.233 398.882 266.862 399.185L271.926 401.63C272.555 401.933 272.815 402.681 272.513 403.311C272.211 403.941 271.465 404.202 270.836 403.899L266.904 402L264.674 406.647L268.446 408.471C269.075 408.773 269.335 409.521 269.033 410.152C268.815 410.605 268.371 410.866 267.902 410.866L267.91 410.874Z" fill="black"/>
<path d="M375.2 462.608C375.015 462.608 374.831 462.566 374.655 462.482L323.395 437.767C322.766 437.464 322.506 436.716 322.808 436.086C323.11 435.456 323.856 435.195 324.485 435.498L374.604 459.667L376.835 455.02L325.609 430.321C324.98 430.018 324.72 429.27 325.022 428.64C325.323 428.01 326.07 427.749 326.698 428.052L379.065 453.297C379.367 453.44 379.593 453.7 379.71 454.02C379.819 454.339 379.803 454.684 379.66 454.986L376.34 461.902C376.122 462.356 375.678 462.617 375.208 462.617L375.2 462.608Z" fill="black"/>
<path d="M372.542 436.388C371.846 436.388 371.284 435.825 371.284 435.127V391.393C371.284 390.696 371.846 390.133 372.542 390.133C373.238 390.133 373.8 390.696 373.8 391.393V435.127C373.8 435.825 373.238 436.388 372.542 436.388Z" fill="black"/>
<path d="M365.952 433.178C365.256 433.178 364.695 432.615 364.695 431.918V377.335C364.695 376.637 365.256 376.074 365.952 376.074C366.648 376.074 367.21 376.637 367.21 377.335V431.918C367.21 432.615 366.648 433.178 365.952 433.178Z" fill="black"/>
</svg>
