<svg width="447" height="568" viewBox="0 0 447 568" fill="none" xmlns="http://www.w3.org/2000/svg">
<path d="M168.593 87.1463L111.633 161.524L116.671 175.232L123.379 178.394L155.33 177.748C155.33 177.748 152.924 184.015 157.342 186.263C161.76 188.512 166.975 188.612 166.975 188.612C166.975 188.612 178.998 189.158 184.347 204.258C189.696 219.358 188.254 232.638 188.254 232.638L179.786 234.056L183.24 238.964L187.617 245.079L186.77 381.964C186.77 381.964 178.252 384.019 176.675 389.967C175.099 395.915 176.675 397.836 176.675 397.836C176.675 397.836 159.522 399.304 159.203 410.453C158.885 421.602 168.35 424.891 168.35 424.891L138.646 485.737L138.486 507.532C138.486 507.532 128.375 519.285 125.961 519.688C123.546 520.09 123.228 536.223 123.228 536.223C123.228 536.223 132.861 546.273 133.179 545.627C133.498 544.981 159.027 533.261 159.027 533.261L162.154 521.508L196.596 508.362L225.688 532.615L227.105 543.655L237.778 552.262L256.91 539.327L255.518 529.713C255.518 529.713 249.029 523.765 248.744 516.215C247.654 515.736 240.872 508.346 240.872 508.346V486.819L248.744 483.556L251.922 484.722L266.116 478.346L264.833 468.976C264.833 468.976 258.889 468.816 258.252 465.763L250.06 459.924L249.725 441.501L223.517 406.25C223.517 406.25 234.709 397.584 233.871 392.073C233.033 386.561 228.497 382.123 221.697 381.93L214.898 381.737L216.466 246.38L222.41 245.054C222.41 245.054 224.02 242.495 227.407 241.438V232.21L217.941 224.635C217.941 224.635 217.296 204.719 223.718 199.09C230.14 193.461 234.315 191.699 234.315 191.699L235.741 186.079L240.318 177.715L239.228 171.884L238.809 168.73L290.48 115.132L290.287 110.451L292.106 107.851L289.641 105.3L283.89 104.679L281.123 105.963L283.093 108.53L282.934 110.938L283.739 111.944L282.372 112.028L279.446 108.933L278.49 105.174L273.821 104.109L270.693 106.038L262.963 101.76L255.56 101.055L252.55 97.8843L168.61 87.1211L168.593 87.1463Z" fill="#FF3939"/>
<path d="M283.949 18.4492C277.744 27.3081 270.4 31.9305 272.555 39.1535C275.313 48.3815 282.917 48.0963 287.193 44.1031C291.469 40.1098 290.899 24.0531 283.94 18.4492H283.949Z" fill="#FF3939"/>
<path d="M227.03 140.309C227.03 140.309 227.005 140.309 226.996 140.309C226.3 140.293 225.755 139.714 225.772 139.018L226.51 112.139C226.527 111.459 227.088 110.914 227.767 110.914C227.776 110.914 227.793 110.914 227.801 110.914C228.497 110.931 229.042 111.51 229.025 112.206L228.287 139.085C228.271 139.764 227.709 140.309 227.03 140.309Z" fill="black"/>
<path d="M214.638 230.532H211.821C211.125 230.532 210.563 229.97 210.563 229.274C210.563 228.577 211.125 228.015 211.821 228.015H213.464C213.758 224.366 214.848 212.898 217.547 202.957C220.423 192.353 229.427 189.551 232.32 188.914L233.318 184.409C233.435 183.889 233.863 183.503 234.382 183.436C234.516 183.41 238.08 182.815 239.061 177.513C239.505 175.147 238.985 173.201 237.61 172.052C235.69 170.441 232.203 170.416 228.052 171.985C227.566 172.169 227.03 172.035 226.677 171.657C226.325 171.28 226.25 170.726 226.476 170.256C229.989 163 236.629 162.757 240.763 163.897L241.618 149.208H232.571C231.876 149.208 231.314 148.646 231.314 147.95C231.314 147.253 231.876 146.691 232.571 146.691H242.951C243.295 146.691 243.63 146.834 243.865 147.086C244.099 147.337 244.225 147.673 244.208 148.025L243.177 165.709C243.152 166.121 242.934 166.498 242.582 166.708C242.23 166.926 241.794 166.951 241.417 166.783C241.115 166.649 234.827 164.015 230.559 168.62C234.156 167.891 237.166 168.386 239.228 170.114C241.333 171.875 242.154 174.661 241.534 177.966C240.519 183.427 237.216 185.164 235.598 185.701L234.584 190.264C234.466 190.784 234.03 191.179 233.502 191.246C233.074 191.296 222.938 192.655 219.962 203.611C216.784 215.306 215.879 229.206 215.871 229.349C215.829 230.012 215.275 230.532 214.613 230.532H214.638Z" fill="black"/>
<path d="M211.829 232.89H202.238C201.903 232.89 201.576 232.756 201.341 232.512C201.106 232.269 200.972 231.95 200.981 231.606L202.456 141.977C202.456 141.701 202.557 141.424 202.733 141.206L226.786 111.374C227.055 111.038 227.474 110.871 227.902 110.913L235.866 111.802C236.52 111.877 237.007 112.439 236.981 113.102L235.95 139.536C235.933 139.872 235.791 140.191 235.539 140.417C235.288 140.644 234.961 140.769 234.625 140.744L229.821 140.467C227.902 140.493 227.13 142.816 226.837 144.335C233.049 144.788 235.959 148.303 235.959 155.291C235.959 162.279 230.886 165.24 228.874 166.281V170.794C228.874 171.28 228.597 171.725 228.153 171.926C228.103 171.952 222.309 174.963 217.581 187.908C212.701 201.263 213.079 231.304 213.079 231.606C213.079 231.942 212.953 232.269 212.718 232.504C212.483 232.739 212.156 232.882 211.821 232.882L211.829 232.89ZM205.005 230.373H210.563C210.538 224.375 210.714 199.392 215.225 187.052C219.425 175.551 224.506 171.314 226.367 170.081V165.475C226.367 164.955 226.686 164.494 227.164 164.309C227.415 164.208 233.452 161.7 233.452 155.291C233.452 148.244 230.241 146.801 225.411 146.801C225.068 146.801 224.732 146.658 224.498 146.407C224.263 146.155 224.137 145.82 224.154 145.476C224.238 143.907 224.707 141.734 225.839 140.123C224.858 140.039 223.165 140.081 221.488 141.08C219.828 142.07 218.52 143.764 217.589 146.138C219.97 145.283 222.318 145.45 224.196 146.684C226.996 148.529 228.128 152.229 227.231 156.583C225.915 162.942 222.662 165.182 220.985 165.928V170.5C220.985 171.096 220.574 171.608 219.987 171.733C219.71 171.801 213.037 173.462 209.49 185.19C206.162 196.196 205.189 224.056 205.005 230.373ZM204.963 142.456L203.94 204.577C204.636 196.842 205.642 189.225 207.084 184.46C210.304 173.797 216.13 170.509 218.47 169.594V165.039C218.47 164.435 218.897 163.915 219.492 163.806C219.635 163.772 223.357 162.875 224.766 156.071C225.445 152.816 224.69 150.023 222.812 148.789C221.094 147.657 218.637 147.992 216.239 149.679C215.812 149.981 215.242 149.981 214.814 149.695C214.378 149.402 214.177 148.873 214.294 148.37C215.359 143.781 217.363 140.593 220.247 138.899C223.374 137.053 226.485 137.632 227.222 137.808L229.922 137.967C229.922 137.967 229.939 137.967 229.947 137.967L233.502 138.169L234.441 114.193L228.321 113.513L204.971 142.464L204.963 142.456Z" fill="black"/>
<path d="M197.962 233.484C197.962 233.484 197.887 233.484 197.845 233.484L194.743 233.191C194.097 233.132 193.603 232.587 193.603 231.941V145.265C193.603 144.929 193.737 144.61 193.972 144.376L197.661 140.684C197.921 140.424 198.289 140.282 198.658 140.324L203.823 140.768C204.519 140.827 205.03 141.439 204.971 142.127C204.913 142.824 204.292 143.335 203.613 143.277L199.036 142.882L196.126 145.793V230.808L197.937 230.985L202.071 230.414C202.758 230.322 203.395 230.8 203.487 231.488C203.58 232.176 203.102 232.813 202.414 232.906L198.139 233.493C198.08 233.493 198.021 233.501 197.962 233.501V233.484Z" fill="black"/>
<path d="M191.616 233.484C191.305 233.484 191.004 233.367 190.769 233.157C190.509 232.922 190.358 232.578 190.358 232.226C190.358 232.058 190.291 215.322 185.277 202.562C180.566 190.582 170.421 192.193 169.993 192.269C169.599 192.336 169.189 192.21 168.903 191.933C168.618 191.656 168.476 191.254 168.535 190.851L169.113 186.791C165.533 185.666 160.285 182.437 160.402 176.237C160.478 172.202 162.096 169.064 164.955 167.403C167.487 165.927 170.698 165.801 174.227 166.984C172.249 163.872 170.027 162.06 167.587 161.598C163.596 160.835 160.201 163.997 160.167 164.031C159.798 164.375 159.262 164.476 158.801 164.274C158.34 164.073 158.038 163.62 158.038 163.117V142.89C158.038 142.538 158.18 142.211 158.432 141.968C158.683 141.733 159.027 141.607 159.371 141.632L194.936 143.998C195.632 144.048 196.151 144.644 196.109 145.34C196.068 146.036 195.456 146.54 194.768 146.515L160.545 144.241V160.659C162.289 159.627 164.963 158.553 168.015 159.123C172.039 159.878 175.468 163.226 178.21 169.09C178.444 169.585 178.327 170.163 177.933 170.541C177.539 170.91 176.944 170.985 176.466 170.725C172.4 168.502 168.753 168.1 166.204 169.585C164.133 170.784 162.959 173.167 162.901 176.287C162.775 182.856 170.681 184.618 170.756 184.635C171.402 184.769 171.829 185.39 171.737 186.044L171.217 189.676C171.268 189.676 171.318 189.676 171.368 189.676C175.057 189.676 183.391 190.943 187.6 201.648C192.001 212.839 192.714 226.504 192.831 230.858L194.726 230.682C195.397 230.624 196.026 231.127 196.093 231.823C196.151 232.519 195.648 233.123 194.952 233.191L191.708 233.484C191.708 233.484 191.632 233.484 191.591 233.484H191.616Z" fill="black"/>
<path d="M191.616 233.486C191.482 233.486 191.347 233.469 191.222 233.419L185.906 231.649C185.386 231.473 185.034 230.978 185.043 230.424C185.051 230.063 185.638 193.889 164.762 191.541C164.125 191.473 163.647 190.928 163.647 190.291V186.784C162.247 186.474 159.891 185.677 158.164 183.663C156.554 181.784 155.866 179.309 156.118 176.306C156.78 168.504 164.016 166.415 167.747 166.398C168.442 166.398 169.004 166.96 169.004 167.648C169.004 168.345 168.442 168.907 167.755 168.915C167.411 168.915 159.254 169.075 158.625 176.516C158.432 178.806 158.91 180.651 160.058 182.002C161.911 184.192 164.963 184.452 164.988 184.452C165.642 184.502 166.154 185.047 166.154 185.71V189.192C186.493 192.572 187.549 223.595 187.558 229.543L192.001 231.028C192.664 231.246 193.016 231.959 192.798 232.622C192.622 233.15 192.135 233.486 191.607 233.486H191.616Z" fill="black"/>
<path d="M117.979 175.154C117.736 175.154 117.485 175.079 117.267 174.928C116.697 174.533 116.554 173.753 116.948 173.174L167.562 99.7867C167.83 99.4008 168.283 99.1995 168.744 99.2498L291.662 114.015C291.93 114.048 292.19 114.157 292.4 114.367L292.425 114.392C292.626 114.602 292.743 114.862 292.768 115.13C292.768 115.197 292.768 115.273 292.768 115.34C292.752 115.625 292.634 115.911 292.416 116.137L237.946 171.086C237.459 171.581 236.663 171.581 236.168 171.086C235.925 170.842 235.799 170.515 235.799 170.196C235.799 169.878 235.917 169.55 236.168 169.307L288.828 116.187L169.214 101.817L119.027 174.575C118.784 174.928 118.39 175.121 117.988 175.121L117.979 175.154Z" fill="black"/>
<path d="M157.334 176.482C157.334 176.482 157.309 176.482 157.292 176.482L117.937 175.156C117.87 175.156 117.795 175.148 117.728 175.131L112.706 174.099C112.203 173.999 111.809 173.596 111.725 173.093L110.4 165.71C110.342 165.392 110.409 165.064 110.593 164.788L162.096 87.415C162.364 87.0123 162.834 86.8026 163.312 86.8613L254.982 99.3275C255.669 99.4198 256.156 100.057 256.055 100.745C255.963 101.433 255.326 101.92 254.638 101.819L163.748 89.4535L112.957 165.752L114.047 171.801L118.13 172.64L157.376 173.965C158.072 173.99 158.617 174.569 158.591 175.266C158.566 175.945 158.013 176.482 157.334 176.482Z" fill="black"/>
<path d="M112.957 174.125C112.714 174.125 112.463 174.049 112.245 173.907C111.675 173.513 111.532 172.732 111.926 172.154L165.642 94.0428C165.911 93.6569 166.38 93.4471 166.841 93.5059L279.371 108.153C280.058 108.245 280.545 108.875 280.452 109.563C280.36 110.25 279.731 110.737 279.044 110.645L167.277 96.0981L113.997 173.58C113.754 173.932 113.36 174.125 112.957 174.125Z" fill="black"/>
<path d="M168.593 101.767C168.065 101.767 167.579 101.432 167.403 100.903L165.5 95.1901L162.725 88.697C162.448 88.0594 162.75 87.3212 163.387 87.0443C164.024 86.7675 164.762 87.0695 165.039 87.7071L167.839 94.2505C167.839 94.2505 167.864 94.3177 167.872 94.3512L169.792 100.106C170.01 100.769 169.658 101.482 168.996 101.7C168.862 101.742 168.728 101.767 168.602 101.767H168.593Z" fill="black"/>
<path d="M115.28 161.254C114.743 161.254 114.24 160.901 114.081 160.364L111.758 152.713C111.641 152.328 111.717 151.916 111.951 151.598C112.186 151.279 112.563 151.086 112.966 151.086H120.386C121.081 151.086 121.643 151.648 121.643 152.344C121.643 153.041 121.081 153.603 120.386 153.603H114.659L116.495 159.634C116.697 160.297 116.319 161.002 115.657 161.203C115.531 161.237 115.414 161.254 115.288 161.254H115.28Z" fill="black"/>
<path d="M195.598 237.244C195.523 237.244 195.456 237.244 195.38 237.227L175.971 233.83C175.477 233.746 175.083 233.368 174.965 232.882C174.848 232.395 175.032 231.883 175.435 231.581L178.906 228.997C179.115 228.846 179.359 228.754 179.618 228.746L186.267 228.528C186.267 228.528 186.292 228.528 186.309 228.528C186.988 228.528 187.541 229.065 187.566 229.744C187.592 230.44 187.047 231.019 186.351 231.044L180.096 231.254L179.283 231.858L195.665 234.727L222.276 233.209L221.211 232.269L213.892 230.499C213.213 230.331 212.802 229.652 212.961 228.981C213.121 228.31 213.8 227.89 214.479 228.049L222.108 229.895C222.31 229.945 222.494 230.038 222.645 230.172L226.233 233.343C226.619 233.679 226.753 234.215 226.585 234.702C226.418 235.18 225.982 235.516 225.47 235.549L195.665 237.244C195.665 237.244 195.615 237.244 195.598 237.244Z" fill="black"/>
<path d="M195.598 236.732C195.439 236.732 195.271 236.699 195.12 236.632C194.475 236.363 194.173 235.625 194.441 234.987L195.623 232.143C195.892 231.506 196.629 231.196 197.267 231.464C197.912 231.732 198.214 232.471 197.946 233.108L196.763 235.952C196.562 236.439 196.093 236.724 195.598 236.724V236.732Z" fill="black"/>
<path d="M195.598 242.712C195.514 242.712 195.43 242.712 195.347 242.686L175.938 238.777C175.351 238.66 174.932 238.139 174.932 237.544V232.594C174.932 231.898 175.493 231.336 176.189 231.336C176.885 231.336 177.447 231.898 177.447 232.594V236.512L195.682 240.186L224.146 238.316V234.289C224.146 233.593 224.707 233.031 225.403 233.031C226.099 233.031 226.661 233.593 226.661 234.289V239.499C226.661 240.161 226.149 240.715 225.487 240.757L195.682 242.712C195.682 242.712 195.632 242.712 195.598 242.712Z" fill="black"/>
<path d="M197.812 247.654C197.711 247.654 197.619 247.646 197.527 247.621L181.882 243.929C181.48 243.837 181.153 243.552 181.002 243.166C180.96 243.065 179.82 240.431 175.703 238.695C175.066 238.426 174.764 237.688 175.032 237.05C175.301 236.413 176.038 236.111 176.676 236.379C180.591 238.032 182.368 240.473 183.022 241.614L197.904 245.129L218.277 243.493C219.233 242.143 221.949 238.703 225.227 238.25C225.915 238.149 226.552 238.636 226.644 239.324C226.736 240.012 226.258 240.649 225.571 240.742C223.215 241.069 220.784 244.19 220.046 245.364C219.836 245.7 219.476 245.918 219.082 245.951L197.904 247.646C197.904 247.646 197.837 247.646 197.803 247.646L197.812 247.654Z" fill="black"/>
<path d="M234.659 521.03C234.382 521.03 234.106 520.938 233.879 520.762L215.577 506.291C215.259 506.039 215.083 505.645 215.099 505.242C215.116 504.864 216.734 467.382 199.622 449.975C199.388 449.74 199.262 449.421 199.262 449.094V385.404C199.262 384.934 199.522 384.506 199.933 384.288C200.343 384.07 200.838 384.095 201.224 384.355L204.125 386.327C204.351 386.486 204.527 386.713 204.611 386.973L207.411 395.487C207.453 395.613 207.478 395.748 207.478 395.882V404.833C208.61 404.464 210.111 404.246 211.712 404.749C214.269 405.554 216.265 407.929 217.64 411.804C219.996 418.465 219.786 424.019 217.078 426.678C215.988 427.752 214.571 428.247 212.995 428.138C218.528 446.451 235.648 491.979 235.833 492.457C235.883 492.6 235.917 492.751 235.917 492.902V519.78C235.917 520.267 235.64 520.703 235.204 520.913C235.028 520.997 234.844 521.039 234.659 521.039V521.03ZM217.64 504.713L233.402 517.18V493.128C232.06 489.546 214.605 443.02 209.985 426.796C209.851 426.334 209.985 425.848 210.346 425.52C210.698 425.202 211.201 425.101 211.645 425.269C213.221 425.864 214.462 425.73 215.334 424.874C216.801 423.44 217.665 419.371 215.284 412.643C214.194 409.564 212.752 407.719 210.991 407.157C208.929 406.494 206.975 407.828 206.958 407.845C206.573 408.113 206.07 408.147 205.659 407.929C205.24 407.71 204.98 407.283 204.98 406.813V396.092L202.372 388.172L201.786 387.778V448.582C218.243 465.813 217.824 499.437 217.648 504.713H217.64Z" fill="black"/>
<path d="M216.005 427.215C215.468 427.215 214.974 426.871 214.806 426.335C214.596 425.672 214.965 424.967 215.628 424.757L223.416 422.299C223.97 420.353 225.479 413.944 223.265 408.516C220.834 402.56 214.462 403.441 214.194 403.474C213.825 403.533 213.465 403.424 213.188 403.181C212.911 402.937 212.752 402.593 212.752 402.224V394.129L210.455 386.126L208.51 384.599L200.847 386.604C200.176 386.78 199.488 386.377 199.312 385.706C199.136 385.035 199.539 384.347 200.209 384.171L208.476 382.007C208.853 381.906 209.264 381.99 209.574 382.233L212.333 384.397C212.542 384.565 212.693 384.783 212.76 385.043L215.217 393.609C215.25 393.718 215.267 393.835 215.267 393.953V400.874H215.326C218.554 400.874 223.425 402.233 225.596 407.56C228.598 414.9 225.747 423.348 225.621 423.709C225.487 424.086 225.194 424.38 224.808 424.497L216.391 427.157C216.265 427.199 216.139 427.215 216.013 427.215H216.005Z" fill="black"/>
<path d="M234.659 521.029C234.206 521.029 233.77 520.786 233.544 520.367C233.217 519.754 233.452 518.991 234.064 518.664L240.972 514.981V490.745L218.227 425.293C218 424.639 218.344 423.917 218.998 423.691C219.652 423.464 220.373 423.808 220.599 424.463L243.412 490.116C243.454 490.25 243.479 490.392 243.479 490.527V515.727C243.479 516.189 243.219 516.617 242.817 516.835L235.238 520.87C235.053 520.971 234.844 521.021 234.651 521.021L234.659 521.029Z" fill="black"/>
<path d="M234.659 494.151C234.122 494.151 233.628 493.807 233.46 493.27C233.25 492.608 233.619 491.903 234.29 491.693L241.869 489.328C242.532 489.118 243.236 489.495 243.445 490.158C243.655 490.821 243.286 491.525 242.615 491.735L235.036 494.101C234.911 494.143 234.785 494.16 234.659 494.16V494.151Z" fill="black"/>
<path d="M203.42 388.626C202.85 388.626 202.339 388.24 202.196 387.661C202.029 386.981 202.448 386.302 203.119 386.142L211.234 384.171C211.913 384.012 212.593 384.423 212.752 385.094C212.919 385.773 212.5 386.453 211.83 386.612L203.714 388.584C203.613 388.609 203.513 388.617 203.42 388.617V388.626Z" fill="black"/>
<path d="M206.221 397.141C205.659 397.141 205.139 396.755 204.997 396.185C204.829 395.513 205.24 394.826 205.919 394.658L213.691 392.737C214.362 392.569 215.049 392.98 215.217 393.66C215.384 394.331 214.974 395.019 214.295 395.186L206.523 397.107C206.422 397.133 206.321 397.141 206.221 397.141Z" fill="black"/>
<path d="M206.221 406.737C205.726 406.737 205.265 406.444 205.064 405.965C204.795 405.328 205.097 404.59 205.743 404.321L213.515 401.074C214.152 400.806 214.89 401.108 215.158 401.754C215.426 402.392 215.124 403.13 214.479 403.398L206.707 406.645C206.548 406.712 206.388 406.746 206.221 406.746V406.737Z" fill="black"/>
<path d="M224.037 408.455C223.592 408.455 223.165 408.22 222.938 407.8C222.603 407.196 222.821 406.425 223.433 406.089C224.657 405.409 228.086 403.195 229.235 401.123C230.316 399.168 231.523 395.267 230.434 392.566C229.88 391.19 228.79 390.267 227.105 389.739C221.362 387.952 217.681 397.918 217.64 398.019C217.43 398.598 216.835 398.941 216.239 398.832C215.636 398.732 215.2 398.203 215.2 397.591V386.299L212.659 382.977C212.24 382.423 212.341 381.635 212.894 381.215C213.448 380.796 214.236 380.897 214.655 381.45L217.455 385.116C217.623 385.334 217.715 385.603 217.715 385.88V392.381C219.803 389.219 223.215 385.896 227.851 387.339C230.266 388.086 231.917 389.529 232.764 391.626C234.29 395.418 232.563 400.292 231.431 402.339C229.704 405.477 224.85 408.178 224.649 408.295C224.456 408.404 224.246 408.455 224.045 408.455H224.037Z" fill="black"/>
<path d="M235.749 473.144C235.288 473.144 234.835 472.884 234.617 472.439C234.307 471.818 234.567 471.063 235.196 470.753L247.428 464.755L246.598 444.814L224.682 416.887C224.255 416.341 224.347 415.553 224.892 415.116C225.437 414.689 226.225 414.781 226.661 415.326L248.828 443.572C248.987 443.782 249.088 444.034 249.096 444.294L249.985 465.459C250.002 465.954 249.734 466.424 249.281 466.642L236.311 473.001C236.135 473.085 235.942 473.127 235.757 473.127L235.749 473.144Z" fill="black"/>
<path d="M145.521 512.758C145.278 512.758 145.043 512.691 144.833 512.557C144.473 512.322 144.263 511.928 144.263 511.5V486.198C144.263 485.997 144.313 485.796 144.406 485.619L175.695 425.101C170.824 425.31 168.476 422.928 167.462 421.367C165.03 417.601 165.802 411.754 169.432 406.485C171.318 403.742 173.699 402.123 176.491 401.687C179.568 401.2 182.461 402.274 184.305 403.23V394.917C184.305 394.724 184.347 394.539 184.431 394.371L188.069 386.813C188.195 386.544 188.422 386.326 188.69 386.209L193.117 384.237C193.511 384.061 193.963 384.103 194.324 384.338C194.684 384.573 194.894 384.976 194.886 385.403L193.905 447.818C193.905 448.263 193.662 448.666 193.276 448.892C193.217 448.926 187.08 452.659 178.269 466.778C169.44 480.93 170.379 500.795 170.388 500.988C170.413 501.508 170.119 501.995 169.641 502.205L146.032 512.641C145.873 512.716 145.697 512.75 145.521 512.75V512.758ZM146.778 486.509V509.57L167.847 500.258C167.747 496.139 167.847 478.724 176.131 465.452C183.819 453.12 189.562 448.431 191.398 447.122L192.337 387.341L190.132 388.323L186.82 395.202V405.47C186.82 405.948 186.552 406.385 186.116 406.603C185.688 406.812 185.177 406.762 184.791 406.468C184.758 406.443 180.876 403.532 176.86 404.161C174.781 404.497 172.97 405.755 171.494 407.903C168.493 412.265 167.713 417.123 169.566 419.992C170.991 422.198 173.867 423.028 177.657 422.341C178.134 422.248 178.604 422.441 178.889 422.827C179.174 423.213 179.216 423.725 178.998 424.153L146.77 486.492L146.778 486.509Z" fill="black"/>
<path d="M180.314 404.213C179.644 404.213 179.09 403.685 179.057 403.005L178.604 392.141C178.596 391.923 178.646 391.705 178.738 391.512L182.972 383.24C183.106 382.98 183.332 382.771 183.601 382.653L188.028 380.782C188.413 380.615 188.866 380.665 189.218 380.9L194.332 384.348C194.911 384.734 195.062 385.514 194.676 386.093C194.29 386.672 193.511 386.823 192.932 386.437L188.38 383.375L185.001 384.801L181.128 392.368L181.572 402.896C181.597 403.592 181.06 404.18 180.365 404.205C180.348 404.205 180.331 404.205 180.314 404.205V404.213Z" fill="black"/>
<path d="M170.949 424.036C170.765 424.036 170.58 423.994 170.404 423.91C162.699 420.177 159.522 414.489 161.433 407.887C162.557 404.019 165.374 400.983 169.147 399.548C172.978 398.097 177.229 398.483 180.532 400.571C181.119 400.941 181.295 401.721 180.918 402.308C180.54 402.895 179.769 403.063 179.182 402.694C176.55 401.024 173.129 400.722 170.027 401.897C166.958 403.063 164.762 405.437 163.84 408.583C161.869 415.353 166.908 419.422 171.486 421.636C172.115 421.938 172.374 422.694 172.073 423.314C171.855 423.759 171.41 424.027 170.941 424.027L170.949 424.036Z" fill="black"/>
<path d="M145.521 512.758C145.211 512.758 144.9 512.641 144.657 512.414L139.442 507.49C139.191 507.255 139.048 506.919 139.048 506.575V482.264C139.048 482.062 139.099 481.861 139.191 481.685L169.885 422.718C170.203 422.097 170.966 421.862 171.578 422.181C172.19 422.5 172.433 423.263 172.115 423.876L141.564 482.566V506.03L146.384 510.577C146.887 511.055 146.913 511.852 146.435 512.355C146.191 512.615 145.856 512.75 145.521 512.75V512.758Z" fill="black"/>
<path d="M189.201 388.624C188.958 388.624 188.707 388.549 188.489 388.398L183.374 384.857C182.804 384.463 182.662 383.675 183.056 383.104C183.45 382.534 184.238 382.391 184.808 382.785L189.922 386.326C190.492 386.72 190.635 387.508 190.241 388.079C189.998 388.431 189.604 388.624 189.21 388.624H189.201Z" fill="black"/>
<path d="M185.563 396.181C185.378 396.181 185.185 396.139 185.001 396.047L179.291 393.22C178.671 392.91 178.411 392.155 178.721 391.534C179.031 390.913 179.786 390.653 180.406 390.963L186.116 393.79C186.736 394.101 186.996 394.856 186.686 395.477C186.468 395.921 186.024 396.173 185.563 396.173V396.181Z" fill="black"/>
<path d="M175.233 401.198C174.797 401.198 174.378 400.972 174.143 400.569C174.068 400.435 172.307 397.289 172.307 392.088C172.307 388.741 173.707 386.073 175.887 385.293C176.977 384.898 179.182 384.68 181.622 387.65C182.066 388.187 181.982 388.975 181.446 389.42C180.909 389.865 180.113 389.781 179.677 389.244C178.612 387.952 177.547 387.381 176.734 387.658C175.787 388.002 174.823 389.63 174.823 392.088C174.823 396.568 176.315 399.294 176.332 399.319C176.667 399.923 176.457 400.687 175.854 401.031C175.661 401.14 175.443 401.198 175.233 401.198Z" fill="black"/>
<path d="M176.122 387.591C175.569 387.591 175.066 387.222 174.906 386.668C174.722 385.997 175.116 385.309 175.787 385.125L182.377 383.304C183.047 383.128 183.735 383.514 183.919 384.185C184.104 384.856 183.71 385.544 183.039 385.729L176.449 387.549C176.34 387.583 176.223 387.591 176.114 387.591H176.122Z" fill="black"/>
<path d="M228.346 390.136C228.111 390.136 227.876 390.069 227.667 389.935C225.068 388.248 219.14 385.371 217.38 387.25C216.902 387.753 216.105 387.779 215.602 387.309C215.099 386.831 215.074 386.034 215.544 385.53C219.207 381.629 228.036 387.183 229.033 387.829C229.62 388.206 229.78 388.987 229.402 389.566C229.159 389.935 228.757 390.136 228.346 390.136Z" fill="black"/>
<path d="M183.307 463.807C183.039 463.807 182.762 463.723 182.528 463.539L180.557 461.987C180.012 461.559 179.92 460.762 180.348 460.216C180.775 459.671 181.563 459.571 182.117 460.007L184.087 461.559C184.632 461.987 184.724 462.783 184.297 463.329C184.045 463.648 183.676 463.807 183.307 463.807Z" fill="black"/>
<path d="M215.544 489.184C215.275 489.184 214.999 489.1 214.764 488.915L211.964 486.717C211.419 486.29 211.326 485.493 211.754 484.947C212.182 484.402 212.978 484.31 213.523 484.738L216.323 486.936C216.868 487.363 216.96 488.16 216.533 488.706C216.281 489.024 215.912 489.184 215.544 489.184Z" fill="black"/>
<path d="M234.659 527.65C234.374 527.65 234.089 527.55 233.854 527.365L172.559 476.544C172.022 476.099 171.947 475.311 172.391 474.774C172.836 474.237 173.624 474.162 174.16 474.606L234.818 524.899L250.429 516.988L241.45 509.924C240.905 509.496 240.813 508.699 241.24 508.154C241.668 507.609 242.456 507.517 243.009 507.944L253.54 516.233C253.875 516.501 254.06 516.921 254.018 517.349C253.976 517.776 253.716 518.154 253.33 518.347L235.229 527.525C235.053 527.617 234.852 527.659 234.659 527.659V527.65Z" fill="black"/>
<path d="M169.574 490.862C169.096 490.862 168.635 490.585 168.426 490.115C168.141 489.478 168.426 488.74 169.063 488.454L182.519 482.431C183.148 482.146 183.894 482.431 184.179 483.069C184.464 483.706 184.179 484.444 183.542 484.73L170.086 490.753C169.918 490.828 169.742 490.862 169.574 490.862Z" fill="black"/>
<path d="M237.132 476.66C236.654 476.66 236.193 476.383 235.984 475.922C235.699 475.285 235.984 474.546 236.613 474.261L254.32 466.291L248.082 462.047C247.512 461.652 247.361 460.872 247.746 460.302C248.141 459.723 248.92 459.58 249.49 459.966L257.589 465.478C257.967 465.738 258.176 466.174 258.134 466.627C258.092 467.08 257.816 467.474 257.396 467.667L237.644 476.56C237.476 476.635 237.3 476.669 237.132 476.669V476.66Z" fill="black"/>
<path d="M140.306 520.243C139.962 520.243 139.627 520.1 139.383 519.84L128.761 508.322C128.484 508.02 128.375 507.609 128.451 507.214C128.535 506.82 128.803 506.485 129.172 506.317L139.794 501.56C140.431 501.275 141.169 501.56 141.454 502.198C141.739 502.835 141.454 503.574 140.817 503.859L131.788 507.902L140.608 517.466L195.145 492.919C195.774 492.634 196.52 492.919 196.805 493.549C197.09 494.186 196.805 494.924 196.177 495.21L140.817 520.125C140.649 520.201 140.473 520.234 140.297 520.234L140.306 520.243Z" fill="black"/>
<path d="M213.624 392.442C212.928 392.442 212.366 391.872 212.375 391.175L212.911 245.063C212.911 244.366 213.456 243.804 214.177 243.813C214.873 243.813 215.435 244.383 215.426 245.079L214.89 391.192C214.89 391.888 214.328 392.442 213.632 392.442H213.624Z" fill="black"/>
<path d="M195.456 495.14C195.212 495.14 194.969 495.073 194.76 494.93C194.408 494.695 194.19 494.293 194.198 493.873L196.554 246.387C196.554 245.69 197.141 245.153 197.82 245.137C198.516 245.137 199.069 245.716 199.069 246.403L196.73 491.952L212.022 485.308L212.064 474.301C212.064 473.605 212.626 473.051 213.322 473.051C214.018 473.051 214.579 473.622 214.571 474.318L214.529 486.147C214.529 486.642 214.227 487.095 213.775 487.296L195.95 495.039C195.791 495.106 195.623 495.14 195.447 495.14H195.456Z" fill="black"/>
<path d="M184.33 385.772H184.313C183.617 385.764 183.064 385.194 183.072 384.497L184.917 243.636C184.925 242.948 185.487 242.395 186.174 242.395H186.191C186.887 242.403 187.44 242.973 187.432 243.67L185.588 384.531C185.579 385.219 185.017 385.772 184.33 385.772Z" fill="black"/>
<path d="M240.855 553.512C240.561 553.512 240.276 553.411 240.042 553.21L222.234 538.05C222.016 537.866 221.865 537.614 221.815 537.329L221.211 534.217L194.642 511.365C194.366 511.122 194.206 510.778 194.206 510.408V494.469L182.234 484.545C181.941 484.302 181.773 483.941 181.781 483.563L182.125 457.171C182.133 456.483 182.695 455.93 183.383 455.93H183.399C184.095 455.938 184.649 456.509 184.64 457.205L184.305 482.993L196.269 492.909C196.554 493.152 196.722 493.504 196.722 493.882V509.838L223.19 532.598C223.408 532.782 223.55 533.034 223.609 533.311L224.213 536.423L240.989 550.701L257.774 540.357L257.254 531.482C255.837 530.14 251.519 525.366 251.519 517.212C251.519 516.516 252.081 515.954 252.777 515.954C253.473 515.954 254.034 516.516 254.034 517.212C254.034 525.576 259.224 529.871 259.274 529.921C259.551 530.148 259.719 530.475 259.735 530.827L260.322 540.97C260.348 541.431 260.121 541.868 259.727 542.111L241.525 553.335C241.324 553.461 241.09 553.52 240.863 553.52L240.855 553.512Z" fill="black"/>
<path d="M240.855 553.513C240.184 553.513 239.631 552.985 239.597 552.313L239.136 541.777C237.426 540.636 233.401 536.827 233.401 526.391C233.401 525.695 233.963 525.133 234.659 525.133C235.355 525.133 235.917 525.695 235.917 526.391C235.917 537.515 240.813 539.856 240.863 539.881C241.299 540.074 241.601 540.51 241.618 540.98L242.112 552.204C242.146 552.901 241.601 553.488 240.913 553.513C240.897 553.513 240.88 553.513 240.855 553.513Z" fill="black"/>
<path d="M240.36 542.287C239.907 542.287 239.463 542.035 239.245 541.607C238.926 540.986 239.17 540.231 239.79 539.913L258.478 530.265C259.09 529.946 259.853 530.19 260.171 530.81C260.49 531.431 260.247 532.186 259.626 532.505L240.939 542.152C240.754 542.245 240.553 542.295 240.36 542.295V542.287Z" fill="black"/>
<path d="M241.601 489.972C241.165 489.972 240.746 489.746 240.511 489.343C240.167 488.739 240.377 487.967 240.972 487.623L244.259 485.736C244.728 485.467 245.315 485.526 245.717 485.887L247.201 487.204L260.943 480.216V472.548C258.973 472.489 256.851 471.239 255.669 466.843C255.493 466.172 255.887 465.484 256.558 465.3C257.229 465.124 257.916 465.518 258.101 466.189C259.274 470.577 261.11 470.115 261.89 469.922C262.267 469.83 262.661 469.914 262.972 470.149C263.274 470.384 263.458 470.753 263.458 471.139V480.979C263.458 481.449 263.19 481.885 262.77 482.103L247.579 489.829C247.118 490.064 246.564 489.997 246.17 489.645L244.72 488.353L242.213 489.788C242.012 489.897 241.802 489.955 241.584 489.955L241.601 489.972Z" fill="black"/>
<path d="M133.523 543.965C133.288 543.965 133.054 543.898 132.844 543.764C132.484 543.529 132.266 543.135 132.266 542.707V531.877C132.266 531.398 132.534 530.962 132.97 530.744C133.221 530.618 139.233 527.489 139.057 518.999C139.04 518.303 139.593 517.733 140.289 517.716C140.951 517.682 141.555 518.253 141.572 518.949C141.748 527.363 136.684 531.382 134.781 532.598V540.735L158.08 529.93L159.388 525.996C159.497 525.66 159.74 525.392 160.059 525.249L194.936 509.276C195.565 508.991 196.311 509.268 196.604 509.897C196.889 510.526 196.613 511.273 195.984 511.567L161.601 527.313L160.302 531.247C160.193 531.575 159.95 531.843 159.639 531.994L134.06 543.856C133.892 543.932 133.708 543.974 133.532 543.974L133.523 543.965Z" fill="black"/>
<path d="M133.523 533.135C133.196 533.135 132.869 533.01 132.626 532.758L120.821 520.652C120.536 520.359 120.411 519.948 120.486 519.545C120.562 519.142 120.83 518.798 121.199 518.631C121.492 518.496 128.434 515.191 128.434 507.473C128.434 506.777 128.996 506.215 129.692 506.215C130.388 506.215 130.949 506.777 130.949 507.473C130.949 514.495 126.263 518.455 123.764 520.065L134.429 531.005C134.915 531.5 134.907 532.297 134.403 532.783C134.16 533.026 133.842 533.144 133.523 533.144V533.135Z" fill="black"/>
<path d="M133.523 543.965C133.213 543.965 132.894 543.847 132.651 543.612L120.847 532.287C120.603 532.052 120.461 531.725 120.461 531.381V519.762C120.461 519.066 121.023 518.504 121.719 518.504C122.414 518.504 122.976 519.066 122.976 519.762V530.844L134.395 541.792C134.898 542.27 134.915 543.067 134.429 543.571C134.186 543.831 133.85 543.956 133.523 543.956V543.965Z" fill="black"/>
<path d="M293.104 122.389C292.408 122.389 292.047 121.919 291.964 121.793C291.787 121.525 291.704 121.256 291.167 119.226C290.865 118.069 290.304 115.938 290.069 115.426C289.473 114.663 288.811 112.691 288.853 111.265C288.878 110.342 289.163 109.621 289.708 109.134C290.689 108.253 290.84 107.935 290.848 107.834L290.354 106.693L282.934 105.686C282.976 105.77 283.051 105.888 283.169 106.013C283.487 106.366 283.789 106.676 284.057 106.953C285.055 107.985 285.843 108.799 285.944 110.015C286.019 110.946 285.801 113.169 284.619 114.075C284.074 114.495 283.395 114.596 282.741 114.361C281.618 113.95 280.075 113.387 279.287 111.97C279.161 111.735 279.01 111.525 278.859 111.307C278.356 110.586 277.736 109.68 277.736 108.362C277.736 107.75 277.82 107.314 277.878 106.987C277.923 106.735 277.923 106.559 277.878 106.458C277.736 106.181 276.956 105.443 276.143 104.797C275.64 105.024 274.659 105.451 273.183 106.089C272.89 106.215 272.638 106.324 272.42 106.425C270.71 107.18 270.283 107.247 268.765 106.357C268.379 106.131 267.935 105.988 267.466 105.837C266.485 105.527 265.269 105.133 264.389 103.975C263.953 103.404 262.804 102.935 261.312 102.733C260.968 102.7 258.755 102.775 256.902 102.859C256.701 102.859 256.516 102.834 256.348 102.759L253.825 101.668C253.448 101.5 253.171 101.165 253.087 100.754C253.003 100.342 253.129 99.9314 253.422 99.6294C253.548 99.5036 254.697 98.3626 256.818 97.5321C259.031 96.668 261.412 97.1882 262.259 97.507C262.586 97.5489 263.567 97.507 264.607 97.4314C264.498 95.1077 264.271 89.8058 264.154 84.4535C263.827 69.5545 264.632 68.7911 265.219 68.2374C266.099 67.3985 267.004 67.0546 267.784 66.9707C267.784 60.6873 267.952 48.9845 269.31 47.0969C270.568 45.3604 272.035 45.3688 273.435 45.4023C274.206 45.4107 275.078 45.4275 276.185 45.2094C278.708 44.7228 280.595 44.102 281.509 43.8084C281.802 43.7161 282.012 43.649 282.121 43.6238C283.185 43.3554 285.214 43.5483 286.43 45.159C286.942 45.847 287.243 46.5936 287.486 47.1892C287.595 47.4493 287.73 47.7932 287.83 47.961C289.105 48.414 291.301 50.5281 291.05 52.0129C290.991 52.5834 291.033 58.0447 291.05 60.9725C291.058 62.3818 291.066 63.5311 291.066 64.0177C291.066 65.4774 290.052 76.2993 289.691 80.2087C290.848 80.259 291.653 80.4603 292.089 80.8127C292.835 81.4083 292.861 82.3479 292.634 87.3562C292.559 89.034 292.475 90.9467 292.55 91.6094C292.743 93.2621 294.252 97.9264 294.797 98.7989C295.258 99.5371 296.591 102.306 296.516 103.673C296.642 104.042 297.304 105.217 298.713 107.054C300.633 109.545 300.507 111.458 300.071 112.632C299.794 113.371 299.107 114.168 298.319 115.082C297.715 115.787 296.449 117.246 296.457 117.767C297.086 119.629 295.367 121.508 294.001 122.171C293.649 122.339 293.355 122.406 293.095 122.406L293.104 122.389ZM292.031 113.832C292.425 114.268 292.701 115.116 293.607 118.58C293.657 118.773 293.707 118.975 293.758 119.176C293.976 118.916 294.118 118.647 294.068 118.496C293.506 116.81 294.99 115.09 296.424 113.429C296.918 112.851 297.606 112.062 297.723 111.735C298.109 110.703 297.396 109.453 296.726 108.581C293.925 104.94 293.934 103.983 294.009 103.497C293.967 102.985 293.263 101.081 292.668 100.133C291.871 98.866 290.287 93.8661 290.052 91.903C289.951 91.0306 290.027 89.2773 290.119 87.2387C290.186 85.8042 290.278 83.7656 290.228 82.7757C289.759 82.717 289.012 82.7002 288.358 82.7254C287.99 82.7422 287.646 82.5995 287.394 82.3311C287.143 82.071 287.017 81.7103 287.051 81.3412C287.47 76.9789 288.543 65.36 288.551 64.0009C288.551 63.5144 288.551 62.3818 288.534 60.9809C288.493 54.9743 288.493 52.6169 288.534 51.8284C288.308 51.3754 287.394 50.4693 287.009 50.3267C285.919 50.0583 285.508 49.0264 285.139 48.1204C284.929 47.6087 284.72 47.0801 284.401 46.6523C283.806 45.8553 282.724 46.0399 282.716 46.0483C282.641 46.0651 282.49 46.1154 282.28 46.1825C281.324 46.4929 279.337 47.1473 276.654 47.6674C275.288 47.9358 274.24 47.9191 273.385 47.9023C272.068 47.8855 271.808 47.9023 271.331 48.5566C270.618 49.8402 270.232 59.647 270.283 68.3717C270.283 68.8163 270.056 69.2273 269.671 69.4538C269.293 69.6887 268.815 69.6971 268.43 69.4874C268.363 69.4622 267.809 69.2693 267.038 69.9404C266.309 71.9286 266.518 85.9048 267.155 98.5053C267.189 99.1764 266.686 99.7552 266.015 99.8223C262.2 100.183 261.63 99.9566 261.379 99.8559C261.018 99.7133 259.241 99.2603 257.698 99.8559C257.396 99.9733 257.12 100.099 256.868 100.225L257.044 100.301C258.646 100.225 261.094 100.133 261.614 100.208C263.844 100.51 265.479 101.274 266.35 102.415C266.728 102.918 267.298 103.111 268.195 103.404C268.748 103.581 269.377 103.782 269.972 104.126C270.19 104.252 270.408 104.378 270.526 104.436C270.685 104.386 271.037 104.235 271.372 104.084C271.599 103.983 271.859 103.866 272.161 103.74C274.382 102.784 275.472 102.297 275.481 102.289C275.699 102.188 275.933 102.155 276.168 102.188L276.721 102.264C276.931 102.289 277.132 102.373 277.308 102.507C277.828 102.901 279.58 104.252 280.1 105.3C280.553 106.198 280.427 106.869 280.327 107.406C280.276 107.683 280.226 107.943 280.226 108.329C280.226 108.841 280.469 109.218 280.905 109.847C281.098 110.133 281.291 110.418 281.467 110.72C281.735 111.198 282.364 111.508 283.177 111.819C283.328 111.416 283.462 110.686 283.42 110.2C283.395 109.872 282.859 109.319 282.23 108.673C281.945 108.379 281.626 108.044 281.291 107.675C280.436 106.735 280.318 105.846 280.368 105.267C280.477 104.101 281.291 103.413 281.458 103.295C281.727 103.094 282.062 103.002 282.389 103.052L291.377 104.277C291.813 104.336 292.181 104.621 292.358 105.024L293.121 106.785C293.951 108.681 292.332 110.124 291.368 110.997C291.159 111.408 291.637 113.27 292.005 113.832H292.031ZM291.98 113.773C291.98 113.773 291.997 113.799 292.014 113.807C292.005 113.799 291.989 113.782 291.98 113.773ZM288.568 51.5935C288.568 51.5935 288.568 51.6103 288.568 51.6186C288.568 51.6103 288.568 51.6019 288.568 51.5935Z" fill="black"/>
<path d="M277.895 65.4116C277.434 65.4116 277.057 65.0341 277.057 64.5727V46.9053C277.057 46.4439 277.434 46.0664 277.895 46.0664C278.356 46.0664 278.734 46.4439 278.734 46.9053V64.5727C278.734 65.0341 278.356 65.4116 277.895 65.4116Z" fill="black"/>
<path d="M269.042 86.3727C268.581 86.3727 268.203 86.0036 268.203 85.5422C268.069 68.5962 268.187 68.2858 268.262 68.1012C268.43 67.6734 268.916 67.4553 269.343 67.6147C269.729 67.7657 269.947 68.1684 269.863 68.5626C269.779 69.4435 269.83 79.1497 269.88 85.5254C269.88 85.9868 269.511 86.3643 269.05 86.3727H269.042Z" fill="black"/>
<path d="M287.931 99.1678C287.235 99.1678 286.673 98.6057 286.673 97.9094V81.8443C286.673 81.148 287.235 80.5859 287.931 80.5859C288.627 80.5859 289.189 81.148 289.189 81.8443V97.9094C289.189 98.6057 288.627 99.1678 287.931 99.1678Z" fill="black"/>
<path d="M275.598 104.485C275.422 104.485 275.237 104.426 275.086 104.308C274.718 104.023 274.651 103.495 274.936 103.134C276.671 100.894 277.057 97.2867 277.065 97.2532C277.115 96.7918 277.509 96.4478 277.987 96.5065C278.448 96.5569 278.784 96.9679 278.734 97.4293C278.717 97.5971 278.281 101.557 276.26 104.166C276.093 104.376 275.849 104.493 275.598 104.493V104.485Z" fill="black"/>
<path d="M265.378 102.366C264.917 102.366 264.447 102.332 263.978 102.273C263.517 102.215 263.198 101.795 263.257 101.334C263.315 100.872 263.735 100.545 264.196 100.612C266.376 100.897 268.522 100.386 269.947 99.2448C270.786 98.5737 271.28 97.7348 271.356 96.8791C271.398 96.4177 271.808 96.0569 272.261 96.1157C272.722 96.1576 273.066 96.5603 273.024 97.0217C272.915 98.3388 272.194 99.5887 270.995 100.553C269.536 101.728 267.499 102.374 265.369 102.374L265.378 102.366Z" fill="black"/>
<path d="M292.106 107.096C291.788 107.096 291.486 106.912 291.343 106.61L289.18 101.878C288.987 101.459 289.18 100.956 289.591 100.763C290.019 100.57 290.513 100.763 290.706 101.174L292.869 105.905C293.062 106.325 292.869 106.828 292.458 107.021C292.341 107.071 292.224 107.096 292.106 107.096Z" fill="black"/>
<path d="M275.766 47.8099C275.556 47.8099 275.346 47.7595 275.154 47.6505C269.729 44.6136 268.807 38.7161 272.605 31.4596C273.485 29.7817 274.458 28.322 275.397 26.9127C277.233 24.1443 278.826 21.7618 279.22 18.5571C279.279 18.0873 279.589 17.6931 280.025 17.5337C280.469 17.3659 280.964 17.4666 281.307 17.7769C285.793 21.8289 288.518 28.4143 288.618 35.394C288.685 40.0751 287.47 44.06 285.382 46.0482C284.879 46.5264 284.083 46.5096 283.605 46.0062C283.127 45.5029 283.144 44.7059 283.647 44.2277C285.214 42.7345 286.153 39.3621 286.103 35.4276C286.028 30.0166 284.233 24.8993 281.207 21.2836C280.419 23.901 278.993 26.0486 277.493 28.2969C276.587 29.6559 275.657 31.0569 274.835 32.6172C272.622 36.837 271.096 42.4912 276.378 45.4442C276.981 45.7797 277.199 46.5515 276.864 47.1555C276.638 47.5666 276.21 47.8015 275.766 47.8015V47.8099Z" fill="black"/>
<path d="M279.581 44.5291C279.195 44.5291 278.767 44.4704 278.298 44.3278C277.241 44.009 276.546 43.4553 276.219 42.6751C275.539 41.0393 276.688 38.8917 278.013 36.4085C278.994 34.5713 280.109 32.4908 280.528 30.5026C280.603 30.1251 280.93 29.8482 281.316 29.8398C281.324 29.8398 281.341 29.8398 281.35 29.8398C281.718 29.8398 282.054 30.0831 282.154 30.4439C283.487 35.0411 284.208 41.2574 281.827 43.6231C281.366 44.0761 280.645 44.5375 279.589 44.5375L279.581 44.5291ZM281.224 33.7072C280.704 34.9236 280.075 36.0981 279.488 37.1887C278.457 39.1182 277.384 41.1232 277.761 42.0208C277.803 42.1299 277.946 42.4654 278.776 42.7087C279.857 43.0275 280.36 42.6919 280.637 42.4151C281.827 41.2322 282.02 37.7759 281.224 33.6988V33.7072Z" fill="black"/>
<path d="M160.696 126.448C160.536 126.448 160.377 126.406 160.235 126.305C159.849 126.045 159.74 125.525 160 125.139L172.525 106.263C172.785 105.877 173.305 105.768 173.691 106.028C174.077 106.289 174.186 106.809 173.926 107.195L161.4 126.07C161.241 126.313 160.972 126.448 160.704 126.448H160.696Z" fill="black"/>
<path d="M173.221 113.848C173.07 113.848 172.919 113.806 172.785 113.722C172.391 113.479 172.265 112.959 172.509 112.565L175.963 106.944C176.206 106.55 176.717 106.424 177.12 106.667C177.514 106.91 177.64 107.431 177.396 107.825L173.942 113.445C173.783 113.706 173.506 113.848 173.23 113.848H173.221Z" fill="black"/>
<path d="M179.166 111.028C179.006 111.028 178.847 110.986 178.713 110.894C178.327 110.642 178.218 110.122 178.47 109.736L179.677 107.89C179.928 107.505 180.448 107.396 180.834 107.647C181.22 107.899 181.329 108.419 181.077 108.805L179.87 110.65C179.71 110.894 179.442 111.028 179.166 111.028Z" fill="black"/>
<path d="M249.239 153.36C249.038 153.36 248.828 153.285 248.669 153.134C248.333 152.815 248.308 152.287 248.627 151.951C248.627 151.951 253.749 146.423 258.906 140.911C266.032 133.283 269.816 129.555 270.257 129.728C270.576 129.854 270.794 130.165 270.794 130.509C270.794 130.811 270.635 131.079 270.383 131.23C269.235 132.27 257.556 144.787 249.859 153.092C249.692 153.268 249.474 153.36 249.247 153.36H249.239Z" fill="black"/>
<path d="M261.119 117.943C261.119 117.943 261.069 117.943 261.043 117.943L252.458 117.138C251.997 117.096 251.662 116.685 251.704 116.223C251.746 115.762 252.156 115.426 252.618 115.468L261.203 116.274C261.664 116.316 261.999 116.727 261.957 117.188C261.915 117.624 261.555 117.952 261.119 117.952V117.943Z" fill="black"/>
<path d="M190.719 149.427C190.719 149.427 190.694 149.427 190.685 149.427L174.437 148.781C173.976 148.765 173.615 148.37 173.632 147.909C173.649 147.448 174.076 147.07 174.504 147.104L190.752 147.75C191.213 147.766 191.574 148.161 191.557 148.622C191.54 149.075 191.171 149.427 190.719 149.427Z" fill="black"/>
<path d="M153.552 168.914C153.376 168.914 153.192 168.872 153.024 168.797C152.597 168.595 152.312 168.167 152.295 167.698L151.649 148.31C151.633 147.925 151.8 147.555 152.094 147.304L158.474 141.926C159.002 141.473 159.799 141.549 160.243 142.077C160.687 142.606 160.62 143.403 160.092 143.847L154.173 148.831L154.709 165.122L158.499 162.127C159.044 161.699 159.832 161.792 160.268 162.337C160.696 162.882 160.603 163.671 160.058 164.107L154.315 168.646C154.089 168.822 153.812 168.914 153.536 168.914H153.552Z" fill="black"/>
<path d="M175.317 170.004C174.915 170.004 174.512 169.811 174.269 169.442C168.786 161.246 164.242 163.578 155.187 168.225L154.131 168.771C153.519 169.089 152.756 168.846 152.437 168.225C152.119 167.605 152.37 166.849 152.982 166.531L154.039 165.985C163.085 161.338 169.624 157.974 176.357 168.041C176.742 168.62 176.592 169.4 176.013 169.786C175.795 169.928 175.552 169.995 175.317 169.995V170.004Z" fill="black"/>
<path d="M190.719 152.479H185.739C185.277 152.479 184.9 152.101 184.9 151.64C184.9 151.178 185.277 150.801 185.739 150.801H190.719C191.18 150.801 191.557 151.178 191.557 151.64C191.557 152.101 191.18 152.479 190.719 152.479Z" fill="black"/>
<path d="M217.933 198.101C217.807 198.101 217.682 198.076 217.564 198.017C217.145 197.816 216.977 197.313 217.179 196.893C221.077 188.924 228.95 186.826 229.285 186.742C229.729 186.625 230.191 186.893 230.308 187.346C230.425 187.791 230.157 188.252 229.704 188.37C229.629 188.387 222.234 190.383 218.688 197.631C218.545 197.925 218.243 198.101 217.933 198.101Z" fill="black"/>
<path d="M166.556 177.698C166.103 177.698 165.734 177.345 165.718 176.892C165.718 176.834 165.676 175.433 166.581 174.015C167.394 172.74 169.147 171.188 172.869 171.07C172.878 171.07 172.886 171.07 172.894 171.07C173.347 171.07 173.716 171.431 173.733 171.884C173.749 172.345 173.389 172.731 172.919 172.748C167.47 172.933 167.378 176.448 167.386 176.842C167.386 177.303 167.034 177.689 166.573 177.698H166.548H166.556Z" fill="black"/>
<path d="M223.5 132.504C223.039 132.504 222.662 132.126 222.662 131.665V122.319C222.662 121.858 223.039 121.48 223.5 121.48C223.961 121.48 224.338 121.858 224.338 122.319V131.665C224.338 132.126 223.961 132.504 223.5 132.504Z" fill="black"/>
<path d="M220.264 129.991C219.803 129.991 219.425 129.613 219.425 129.152V126.417C219.425 125.956 219.803 125.578 220.264 125.578C220.725 125.578 221.102 125.956 221.102 126.417V129.152C221.102 129.613 220.725 129.991 220.264 129.991Z" fill="black"/>
<path d="M204.393 354.649C203.932 354.649 203.554 354.272 203.554 353.81V254.425C203.554 253.963 203.932 253.586 204.393 253.586C204.854 253.586 205.231 253.963 205.231 254.425V353.81C205.231 354.272 204.854 354.649 204.393 354.649Z" fill="black"/>
<path d="M210.111 373.28C209.65 373.28 209.272 372.903 209.272 372.441V320.823C209.272 320.362 209.65 319.984 210.111 319.984C210.572 319.984 210.949 320.362 210.949 320.823V372.441C210.949 372.903 210.572 373.28 210.111 373.28Z" fill="black"/>
<path d="M192.622 289.75C192.161 289.75 191.783 289.372 191.783 288.911V258.71C191.783 258.249 192.161 257.871 192.622 257.871C193.083 257.871 193.46 258.249 193.46 258.71V288.911C193.46 289.372 193.083 289.75 192.622 289.75Z" fill="black"/>
<path d="M189.201 297.888C188.74 297.888 188.363 297.511 188.363 297.049V286.773C188.363 286.311 188.74 285.934 189.201 285.934C189.662 285.934 190.04 286.311 190.04 286.773V297.049C190.04 297.511 189.662 297.888 189.201 297.888Z" fill="black"/>
<path d="M188.128 377.996C187.667 377.996 187.29 377.619 187.29 377.157V334.96C187.29 334.499 187.667 334.121 188.128 334.121C188.589 334.121 188.966 334.499 188.966 334.96V377.157C188.966 377.619 188.589 377.996 188.128 377.996Z" fill="black"/>
<path d="M190.694 337.509C190.233 337.509 189.855 337.131 189.855 336.67V327.249C189.855 326.788 190.233 326.41 190.694 326.41C191.155 326.41 191.532 326.788 191.532 327.249V336.67C191.532 337.131 191.155 337.509 190.694 337.509Z" fill="black"/>
<path d="M171.964 414.084C171.888 414.084 171.804 414.076 171.729 414.05C171.285 413.925 171.025 413.455 171.159 413.01C171.88 410.51 173.481 408.497 175.544 407.499C177.422 406.593 179.534 406.567 181.647 407.431C182.075 407.608 182.284 408.094 182.108 408.522C181.932 408.95 181.446 409.16 181.018 408.983C179.358 408.304 177.715 408.312 176.282 409.009C174.647 409.797 173.364 411.425 172.777 413.48C172.668 413.849 172.333 414.084 171.972 414.084H171.964Z" fill="black"/>
<path d="M162.674 498.262C162.238 498.262 161.869 497.918 161.836 497.474C161.081 485.62 167.629 458.473 178.948 450.99C179.333 450.738 179.853 450.839 180.113 451.224C180.365 451.61 180.264 452.131 179.878 452.391C169.029 459.563 162.775 485.855 163.513 497.364C163.546 497.826 163.194 498.229 162.733 498.254C162.716 498.254 162.699 498.254 162.683 498.254L162.674 498.262Z" fill="black"/>
<path d="M158.373 500.291C157.929 500.291 157.56 499.947 157.535 499.494C156.998 489.201 161.157 473.446 161.333 472.783C161.45 472.339 161.911 472.07 162.356 472.188C162.8 472.305 163.068 472.767 162.951 473.211C162.909 473.371 158.683 489.377 159.212 499.402C159.237 499.863 158.876 500.258 158.415 500.283C158.398 500.283 158.382 500.283 158.373 500.283V500.291Z" fill="black"/>
<path d="M220.021 499.761C220.021 499.761 219.962 499.761 219.937 499.761C219.476 499.711 219.14 499.3 219.191 498.839C219.207 498.662 220.918 481.448 215.191 468.546C215.007 468.126 215.191 467.623 215.619 467.438C216.047 467.245 216.541 467.438 216.726 467.866C222.636 481.18 220.934 498.293 220.859 499.015C220.817 499.443 220.448 499.77 220.029 499.77L220.021 499.761Z" fill="black"/>
<path d="M222.888 479.203C222.469 479.203 222.1 478.885 222.058 478.457C222.058 478.381 221.169 471.049 215.77 463.029C215.51 462.643 215.611 462.123 215.996 461.863C216.382 461.603 216.902 461.704 217.162 462.09C222.813 470.47 223.693 477.962 223.726 478.272C223.777 478.734 223.45 479.145 222.989 479.195C222.955 479.195 222.922 479.195 222.896 479.195L222.888 479.203Z" fill="black"/>
<path d="M230.819 512.716C230.635 512.716 230.45 512.658 230.291 512.532L225.915 509C225.554 508.706 225.495 508.178 225.789 507.817C226.082 507.456 226.602 507.398 226.971 507.691L231.347 511.223C231.708 511.517 231.767 512.045 231.473 512.406C231.305 512.616 231.062 512.716 230.819 512.716Z" fill="black"/>
<path d="M230.819 509.185C230.635 509.185 230.442 509.118 230.283 508.992L228.287 507.331C227.935 507.037 227.885 506.509 228.178 506.148C228.472 505.796 229 505.745 229.36 506.039L231.356 507.7C231.708 507.994 231.758 508.522 231.465 508.883C231.297 509.084 231.062 509.185 230.819 509.185Z" fill="black"/>
<path d="M172.66 516.087C172.324 516.087 172.006 515.886 171.88 515.559C171.712 515.131 171.922 514.645 172.349 514.468L192.018 506.734C192.446 506.566 192.932 506.776 193.108 507.203C193.276 507.631 193.066 508.118 192.639 508.294L172.97 516.029C172.869 516.071 172.769 516.087 172.66 516.087Z" fill="black"/>
<path d="M185.344 505.972C184.992 505.972 184.674 505.753 184.548 505.41C184.397 504.973 184.632 504.495 185.068 504.344L192.052 501.936C192.488 501.785 192.965 502.02 193.116 502.457C193.267 502.893 193.033 503.371 192.597 503.522L185.613 505.93C185.521 505.963 185.428 505.972 185.336 505.972H185.344Z" fill="black"/>
<path d="M229.821 527.398C229.637 527.398 229.453 527.339 229.302 527.213L199.027 502.893C198.667 502.6 198.608 502.079 198.901 501.71C199.195 501.341 199.723 501.291 200.083 501.585L230.358 525.904C230.719 526.198 230.777 526.718 230.484 527.087C230.316 527.297 230.073 527.398 229.83 527.398H229.821Z" fill="black"/>
<path d="M233.108 542.513C232.932 542.513 232.756 542.463 232.605 542.346L226.585 537.849C226.217 537.572 226.141 537.044 226.418 536.674C226.694 536.305 227.223 536.23 227.592 536.507L233.611 541.003C233.98 541.28 234.056 541.809 233.779 542.178C233.611 542.396 233.36 542.513 233.108 542.513Z" fill="black"/>
<path d="M245.223 546.456C244.762 546.456 244.385 546.079 244.385 545.617V541.683C244.385 541.221 244.762 540.844 245.223 540.844C245.684 540.844 246.061 541.221 246.061 541.683V545.617C246.061 546.079 245.684 546.456 245.223 546.456Z" fill="black"/>
<path d="M133.523 524.846C133.297 524.846 133.079 524.754 132.911 524.578L128.224 519.552C127.906 519.217 127.931 518.68 128.266 518.37C128.61 518.051 129.138 518.076 129.448 518.412L134.135 523.437C134.454 523.772 134.429 524.309 134.093 524.619C133.934 524.77 133.724 524.846 133.523 524.846Z" fill="black"/>
<path d="M133.163 519.471C132.945 519.471 132.727 519.387 132.559 519.219L130.228 516.811C129.91 516.476 129.918 515.947 130.245 515.628C130.581 515.31 131.109 515.318 131.427 515.645L133.758 518.053C134.077 518.389 134.068 518.917 133.741 519.236C133.582 519.395 133.364 519.471 133.154 519.471H133.163Z" fill="black"/>
<path d="M236.235 465.889C236.235 465.889 236.151 465.889 236.109 465.881C235.648 465.814 235.338 465.386 235.405 464.933C235.422 464.84 236.68 455.738 230.844 451.518C230.467 451.25 230.383 450.722 230.66 450.344C230.928 449.967 231.456 449.883 231.834 450.159C238.499 454.983 237.132 464.765 237.065 465.184C237.007 465.604 236.646 465.897 236.235 465.897V465.889Z" fill="black"/>
<path d="M240.251 464.444C239.799 464.444 239.421 464.084 239.413 463.631C239.337 460.627 237.694 456.919 237.677 456.886C237.493 456.466 237.677 455.963 238.097 455.778C238.516 455.594 239.01 455.778 239.203 456.198C239.279 456.357 240.997 460.241 241.081 463.589C241.09 464.05 240.729 464.436 240.268 464.453H240.243L240.251 464.444Z" fill="black"/>
<path d="M219.417 410.555C219.04 410.555 218.696 410.303 218.604 409.917C218.495 409.464 218.763 409.011 219.216 408.902L223.76 407.778C224.204 407.669 224.665 407.938 224.774 408.391C224.883 408.844 224.615 409.297 224.162 409.406L219.618 410.53C219.551 410.547 219.484 410.555 219.417 410.555Z" fill="black"/>
<path d="M228.933 397.861C228.48 397.861 228.103 397.501 228.094 397.039C228.086 396.695 227.893 393.667 224.347 393.289C223.886 393.239 223.55 392.828 223.601 392.366C223.651 391.905 224.045 391.561 224.523 391.62C228.598 392.056 229.738 395.336 229.763 397.006C229.771 397.467 229.402 397.853 228.941 397.861H228.925H228.933Z" fill="black"/>
<path d="M250.044 474.487C249.725 474.487 249.415 474.302 249.272 473.983C249.088 473.556 249.272 473.061 249.7 472.876L254.336 470.829C254.764 470.645 255.259 470.829 255.443 471.257C255.627 471.685 255.443 472.18 255.015 472.364L250.379 474.411C250.27 474.462 250.153 474.478 250.044 474.478V474.487Z" fill="black"/>
<path d="M201.316 486.557C200.855 486.557 200.478 486.18 200.478 485.718V462.237C200.478 461.776 200.855 461.398 201.316 461.398C201.777 461.398 202.154 461.776 202.154 462.237V485.718C202.154 486.18 201.777 486.557 201.316 486.557Z" fill="black"/>
<path d="M205.332 485.569C204.871 485.569 204.494 485.191 204.494 484.73V474.554C204.494 474.092 204.871 473.715 205.332 473.715C205.793 473.715 206.17 474.092 206.17 474.554V484.73C206.17 485.191 205.793 485.569 205.332 485.569Z" fill="black"/>
<path d="M187.432 468.237C186.971 468.237 186.594 467.859 186.594 467.398V454.21C186.594 453.749 186.971 453.371 187.432 453.371C187.893 453.371 188.271 453.749 188.271 454.21V467.398C188.271 467.859 187.893 468.237 187.432 468.237Z" fill="black"/>
<path d="M179.166 494.72C178.83 494.72 178.512 494.518 178.386 494.183C178.218 493.747 178.436 493.268 178.872 493.101L190.006 488.822C190.442 488.654 190.92 488.873 191.088 489.309C191.255 489.745 191.037 490.223 190.601 490.391L179.467 494.669C179.367 494.703 179.266 494.728 179.166 494.728V494.72Z" fill="black"/>
</svg>
