<svg fill="currentColor" height="568" viewBox="0 0 447 568" width="447" xmlns="http://www.w3.org/2000/svg">
    <style>
        :root { fill:#222 }
        .accent { fill: #f9322c; }

        @media (prefers-color-scheme: dark) {
        :root {  fill: #f9322c; }
        .accent { fill:#dee2e6; }
        }
    </style>

    <path
        d="m168.593 87.1463-56.96 74.3777 5.038 13.708 6.708 3.162 31.951-.646s-2.406 6.267 2.012 8.515c4.418 2.249 9.633 2.349 9.633 2.349s12.023.546 17.372 15.646 3.907 28.38 3.907 28.38l-8.468 1.418 3.454 4.908 4.377 6.115-.847 136.885s-8.518 2.055-10.095 8.003c-1.576 5.948 0 7.869 0 7.869s-17.153 1.468-17.472 12.617c-.318 11.149 9.147 14.438 9.147 14.438l-29.704 60.846-.16 21.795s-10.111 11.753-12.525 12.156c-2.415.402-2.733 16.535-2.733 16.535s9.633 10.05 9.951 9.404c.319-.646 25.848-12.366 25.848-12.366l3.127-11.753 34.442-13.146 29.092 24.253 1.417 11.04 10.673 8.607 19.132-12.935-1.392-9.614s-6.489-5.948-6.774-13.498c-1.09-.479-7.872-7.869-7.872-7.869v-21.527l7.872-3.263 3.178 1.166 14.194-6.376-1.283-9.37s-5.944-.16-6.581-3.213l-8.192-5.839-.335-18.423-26.208-35.251s11.192-8.666 10.354-14.177c-.838-5.512-5.374-9.95-12.174-10.143l-6.799-.193 1.568-135.357 5.944-1.326s1.61-2.559 4.997-3.616v-9.228l-9.466-7.575s-.645-19.916 5.777-25.545 10.597-7.391 10.597-7.391l1.426-5.62 4.577-8.364-1.09-5.831-.419-3.154 51.671-53.598-.193-4.681 1.819-2.6-2.465-2.551-5.751-.621-2.767 1.284 1.97 2.567-.159 2.408.805 1.006-1.367.084-2.926-3.095-.956-3.759-4.669-1.065-3.128 1.929-7.73-4.278-7.403-.705-3.01-3.1707-83.94-10.7632z"
        class="accent"/>
    <path
        d="m283.949 18.4492c-6.205 8.8589-13.549 13.4813-11.394 20.7043 2.758 9.228 10.362 8.9428 14.638 4.9496 4.276-3.9933 3.706-20.05-3.253-25.6539z"
        class="accent"/>
    <g>
        <path
            d="m227.03 140.309s-.025 0-.034 0c-.696-.016-1.241-.595-1.224-1.291l.738-26.879c.017-.68.578-1.225 1.257-1.225h.034c.696.017 1.241.596 1.224 1.292l-.738 26.879c-.016.679-.578 1.224-1.257 1.224z"/>
        <path
            d="m214.638 230.532h-2.817c-.696 0-1.258-.562-1.258-1.258 0-.697.562-1.259 1.258-1.259h1.643c.294-3.649 1.384-15.117 4.083-25.058 2.876-10.604 11.88-13.406 14.773-14.043l.998-4.505c.117-.52.545-.906 1.064-.973.134-.026 3.698-.621 4.679-5.923.444-2.366-.076-4.312-1.451-5.461-1.92-1.611-5.407-1.636-9.558-.067-.486.184-1.022.05-1.375-.328-.352-.377-.427-.931-.201-1.401 3.513-7.256 10.153-7.499 14.287-6.359l.855-14.689h-9.047c-.695 0-1.257-.562-1.257-1.258 0-.697.562-1.259 1.257-1.259h10.38c.344 0 .679.143.914.395.234.251.36.587.343.939l-1.031 17.684c-.025.412-.243.789-.595.999-.352.218-.788.243-1.165.075-.302-.134-6.59-2.768-10.858 1.837 3.597-.729 6.607-.234 8.669 1.494 2.105 1.761 2.926 4.547 2.306 7.852-1.015 5.461-4.318 7.198-5.936 7.735l-1.014 4.563c-.118.52-.554.915-1.082.982-.428.05-10.564 1.409-13.54 12.365-3.178 11.695-4.083 25.595-4.091 25.738-.042.663-.596 1.183-1.258 1.183z"/>
        <path
            d="m211.829 232.89h-9.591c-.335 0-.662-.134-.897-.378-.235-.243-.369-.562-.36-.906l1.475-89.629c0-.276.101-.553.277-.771l24.053-29.832c.269-.336.688-.503 1.116-.461l7.964.889c.654.075 1.141.637 1.115 1.3l-1.031 26.434c-.017.336-.159.655-.411.881-.251.227-.578.352-.914.327l-4.804-.277c-1.919.026-2.691 2.349-2.984 3.868 6.212.453 9.122 3.968 9.122 10.956s-5.073 9.949-7.085 10.99v4.513c0 .486-.277.931-.721 1.132-.05.026-5.844 3.037-10.572 15.982-4.88 13.355-4.502 43.396-4.502 43.698 0 .336-.126.663-.361.898s-.562.378-.897.378zm-6.824-2.517h5.558c-.025-5.998.151-30.981 4.662-43.321 4.2-11.501 9.281-15.738 11.142-16.971v-4.606c0-.52.319-.981.797-1.166.251-.101 6.288-2.609 6.288-9.018 0-7.047-3.211-8.49-8.041-8.49-.343 0-.679-.143-.913-.394-.235-.252-.361-.587-.344-.931.084-1.569.553-3.742 1.685-5.353-.981-.084-2.674-.042-4.351.957-1.66.99-2.968 2.684-3.899 5.058 2.381-.855 4.729-.688 6.607.546 2.8 1.845 3.932 5.545 3.035 9.899-1.316 6.359-4.569 8.599-6.246 9.345v4.572c0 .596-.411 1.108-.998 1.233-.277.068-6.95 1.729-10.497 13.457-3.328 11.006-4.301 38.866-4.485 45.183zm-.042-87.917-1.023 62.121c.696-7.735 1.702-15.352 3.144-20.117 3.22-10.663 9.046-13.951 11.386-14.866v-4.555c0-.604.427-1.124 1.022-1.233.143-.034 3.865-.931 5.274-7.735.679-3.255-.076-6.048-1.954-7.282-1.718-1.132-4.175-.797-6.573.89-.427.302-.997.302-1.425.016-.436-.293-.637-.822-.52-1.325 1.065-4.589 3.069-7.777 5.953-9.471 3.127-1.846 6.238-1.267 6.975-1.091l2.7.159h.025l3.555.202.939-23.976-6.12-.68-23.35 28.951z"/>
        <path
            d="m197.962 233.484s-.075 0-.117 0l-3.102-.293c-.646-.059-1.14-.604-1.14-1.25v-86.676c0-.336.134-.655.369-.889l3.689-3.692c.26-.26.628-.402.997-.36l5.165.444c.696.059 1.207.671 1.148 1.359-.058.697-.679 1.208-1.358 1.15l-4.577-.395-2.91 2.911v85.015l1.811.177 4.134-.571c.687-.092 1.324.386 1.416 1.074.093.688-.385 1.325-1.073 1.418l-4.275.587c-.059 0-.118.008-.177.008z"/>
        <path
            d="m191.616 233.484c-.311 0-.612-.117-.847-.327-.26-.235-.411-.579-.411-.931 0-.168-.067-16.904-5.081-29.664-4.711-11.98-14.856-10.369-15.284-10.293-.394.067-.804-.059-1.09-.336-.285-.277-.427-.679-.368-1.082l.578-4.06c-3.58-1.125-8.828-4.354-8.711-10.554.076-4.035 1.694-7.173 4.553-8.834 2.532-1.476 5.743-1.602 9.272-.419-1.978-3.112-4.2-4.924-6.64-5.386-3.991-.763-7.386 2.399-7.42 2.433-.369.344-.905.445-1.366.243-.461-.201-.763-.654-.763-1.157v-20.227c0-.352.142-.679.394-.922.251-.235.595-.361.939-.336l35.565 2.366c.696.05 1.215.646 1.173 1.342-.041.696-.653 1.2-1.341 1.175l-34.223-2.274v16.418c1.744-1.032 4.418-2.106 7.47-1.536 4.024.755 7.453 4.103 10.195 9.967.234.495.117 1.073-.277 1.451-.394.369-.989.444-1.467.184-4.066-2.223-7.713-2.625-10.262-1.14-2.071 1.199-3.245 3.582-3.303 6.702-.126 6.569 7.78 8.331 7.855 8.348.646.134 1.073.755.981 1.409l-.52 3.632h.151c3.689 0 12.023 1.267 16.232 11.972 4.401 11.191 5.114 24.856 5.231 29.21l1.895-.176c.671-.058 1.3.445 1.367 1.141.058.696-.445 1.3-1.141 1.368l-3.244.293s-.076 0-.117 0z"/>
        <path
            d="m191.616 233.486c-.134 0-.269-.017-.394-.067l-5.316-1.77c-.52-.176-.872-.671-.863-1.225.008-.361.595-36.535-20.281-38.883-.637-.068-1.115-.613-1.115-1.25v-3.507c-1.4-.31-3.756-1.107-5.483-3.121-1.61-1.879-2.298-4.354-2.046-7.357.662-7.802 7.898-9.891 11.629-9.908.695 0 1.257.562 1.257 1.25 0 .697-.562 1.259-1.249 1.267-.344 0-8.501.16-9.13 7.601-.193 2.29.285 4.135 1.433 5.486 1.853 2.19 4.905 2.45 4.93 2.45.654.05 1.166.595 1.166 1.258v3.482c20.339 3.38 21.395 34.403 21.404 40.351l4.443 1.485c.663.218 1.015.931.797 1.594-.176.528-.663.864-1.191.864z"/>
        <path
            d="m117.979 175.154c-.243 0-.494-.075-.712-.226-.57-.395-.713-1.175-.319-1.754l50.614-73.3873c.268-.3859.721-.5872 1.182-.5369l122.918 14.7652c.268.033.528.142.738.352l.025.025c.201.21.318.47.343.738v.21c-.016.285-.134.571-.352.797l-54.47 54.949c-.487.495-1.283.495-1.778 0-.243-.244-.369-.571-.369-.89 0-.318.118-.646.369-.889l52.66-53.12-119.614-14.37-50.187 72.758c-.243.353-.637.546-1.039.546z"/>
        <path
            d="m157.334 176.482s-.025 0-.042 0l-39.355-1.326c-.067 0-.142-.008-.209-.025l-5.022-1.032c-.503-.1-.897-.503-.981-1.006l-1.325-7.383c-.058-.318.009-.646.193-.922l51.503-77.373c.268-.4027.738-.6124 1.216-.5537l91.67 12.4662c.687.0923 1.174.7295 1.073 1.4175-.092.688-.729 1.175-1.417 1.074l-90.89-12.3655-50.791 76.2985 1.09 6.049 4.083.839 39.246 1.325c.696.025 1.241.604 1.215 1.301-.025.679-.578 1.216-1.257 1.216z"/>
        <path
            d="m112.957 174.125c-.243 0-.494-.076-.712-.218-.57-.394-.713-1.175-.319-1.753l53.716-78.1112c.269-.3859.738-.5957 1.199-.5369l112.53 14.6471c.687.092 1.174.722 1.081 1.41-.092.687-.721 1.174-1.408 1.082l-111.767-14.5469-53.28 77.4819c-.243.352-.637.545-1.04.545z"/>
        <path
            d="m168.593 101.767c-.528 0-1.014-.335-1.19-.864l-1.903-5.7129-2.775-6.4931c-.277-.6376.025-1.3758.662-1.6527.637-.2768 1.375.0252 1.652.6628l2.8 6.5434s.025.0672.033.1007l1.92 5.7548c.218.663-.134 1.376-.796 1.594-.134.042-.268.067-.394.067z"/>
        <path
            d="m115.28 161.254c-.537 0-1.04-.353-1.199-.89l-2.323-7.651c-.117-.385-.041-.797.193-1.115.235-.319.612-.512 1.015-.512h7.42c.695 0 1.257.562 1.257 1.258 0 .697-.562 1.259-1.257 1.259h-5.727l1.836 6.031c.202.663-.176 1.368-.838 1.569-.126.034-.243.051-.369.051z"/>
        <path
            d="m195.598 237.244c-.075 0-.142 0-.218-.017l-19.409-3.397c-.494-.084-.888-.462-1.006-.948-.117-.487.067-.999.47-1.301l3.471-2.584c.209-.151.453-.243.712-.251l6.649-.218h.042c.679 0 1.232.537 1.257 1.216.026.696-.519 1.275-1.215 1.3l-6.255.21-.813.604 16.382 2.869 26.611-1.518-1.065-.94-7.319-1.77c-.679-.168-1.09-.847-.931-1.518.16-.671.839-1.091 1.518-.932l7.629 1.846c.202.05.386.143.537.277l3.588 3.171c.386.336.52.872.352 1.359-.167.478-.603.814-1.115.847l-29.805 1.695s-.05 0-.067 0z"/>
        <path
            d="m195.598 236.732c-.159 0-.327-.033-.478-.1-.645-.269-.947-1.007-.679-1.645l1.182-2.844c.269-.637 1.006-.947 1.644-.679.645.268.947 1.007.679 1.644l-1.183 2.844c-.201.487-.67.772-1.165.772z"/>
        <path
            d="m195.598 242.712c-.084 0-.168 0-.251-.026l-19.409-3.909c-.587-.117-1.006-.638-1.006-1.233v-4.95c0-.696.561-1.258 1.257-1.258s1.258.562 1.258 1.258v3.918l18.235 3.674 28.464-1.87v-4.027c0-.696.561-1.258 1.257-1.258s1.258.562 1.258 1.258v5.21c0 .662-.512 1.216-1.174 1.258l-29.805 1.955s-.05 0-.084 0z"/>
        <path
            d="m197.812 247.654c-.101 0-.193-.008-.285-.033l-15.645-3.692c-.402-.092-.729-.377-.88-.763-.042-.101-1.182-2.735-5.299-4.471-.637-.269-.939-1.007-.671-1.645.269-.637 1.006-.939 1.644-.671 3.915 1.653 5.692 4.094 6.346 5.235l14.882 3.515 20.373-1.636c.956-1.35 3.672-4.79 6.95-5.243.688-.101 1.325.386 1.417 1.074s-.386 1.325-1.073 1.418c-2.356.327-4.787 3.448-5.525 4.622-.21.336-.57.554-.964.587l-21.178 1.695s-.067 0-.101 0z"/>
        <path
            d="m234.659 521.03c-.277 0-.553-.092-.78-.268l-18.302-14.471c-.318-.252-.494-.646-.478-1.049.017-.378 1.635-37.86-15.477-55.267-.234-.235-.36-.554-.36-.881v-63.69c0-.47.26-.898.671-1.116.41-.218.905-.193 1.291.067l2.901 1.972c.226.159.402.386.486.646l2.8 8.514c.042.126.067.261.067.395v8.951c1.132-.369 2.633-.587 4.234-.084 2.557.805 4.553 3.18 5.928 7.055 2.356 6.661 2.146 12.215-.562 14.874-1.09 1.074-2.507 1.569-4.083 1.46 5.533 18.313 22.653 63.841 22.838 64.319.05.143.084.294.084.445v26.878c0 .487-.277.923-.713 1.133-.176.084-.36.126-.545.126zm-17.019-16.317 15.762 12.467v-24.052c-1.342-3.582-18.797-50.108-23.417-66.332-.134-.462 0-.948.361-1.276.352-.318.855-.419 1.299-.251 1.576.595 2.817.461 3.689-.395 1.467-1.434 2.331-5.503-.05-12.231-1.09-3.079-2.532-4.924-4.293-5.486-2.062-.663-4.016.671-4.033.688-.385.268-.888.302-1.299.084-.419-.219-.679-.646-.679-1.116v-10.721l-2.608-7.92-.586-.394v60.804c16.457 17.231 16.038 50.855 15.862 56.131z"/>
        <path
            d="m216.005 427.215c-.537 0-1.031-.344-1.199-.88-.21-.663.159-1.368.822-1.578l7.788-2.458c.554-1.946 2.063-8.355-.151-13.783-2.431-5.956-8.803-5.075-9.071-5.042-.369.059-.729-.05-1.006-.293-.277-.244-.436-.588-.436-.957v-8.095l-2.297-8.003-1.945-1.527-7.663 2.005c-.671.176-1.359-.227-1.535-.898s.227-1.359.897-1.535l8.267-2.164c.377-.101.788-.017 1.098.226l2.759 2.164c.209.168.36.386.427.646l2.457 8.566c.033.109.05.226.05.344v6.921h.059c3.228 0 8.099 1.359 10.27 6.686 3.002 7.34.151 15.788.025 16.149-.134.377-.427.671-.813.788l-8.417 2.66c-.126.042-.252.058-.378.058z"/>
        <path
            d="m234.659 521.029c-.453 0-.889-.243-1.115-.662-.327-.613-.092-1.376.52-1.703l6.908-3.683v-24.236l-22.745-65.452c-.227-.654.117-1.376.771-1.602.654-.227 1.375.117 1.601.772l22.813 65.653c.042.134.067.276.067.411v25.2c0 .462-.26.89-.662 1.108l-7.579 4.035c-.185.101-.394.151-.587.151z"/>
        <path
            d="m234.659 494.151c-.537 0-1.031-.344-1.199-.881-.21-.662.159-1.367.83-1.577l7.579-2.365c.663-.21 1.367.167 1.576.83.21.663-.159 1.367-.83 1.577l-7.579 2.366c-.125.042-.251.059-.377.059z"/>
        <path
            d="m203.42 388.626c-.57 0-1.081-.386-1.224-.965-.167-.68.252-1.359.923-1.519l8.115-1.971c.679-.159 1.359.252 1.518.923.167.679-.252 1.359-.922 1.518l-8.116 1.972c-.101.025-.201.033-.294.033z"/>
        <path
            d="m206.221 397.141c-.562 0-1.082-.386-1.224-.956-.168-.672.243-1.359.922-1.527l7.772-1.921c.671-.168 1.358.243 1.526.923.167.671-.243 1.359-.922 1.526l-7.772 1.921c-.101.026-.202.034-.302.034z"/>
        <path
            d="m206.221 406.737c-.495 0-.956-.293-1.157-.772-.269-.637.033-1.375.679-1.644l7.772-3.247c.637-.268 1.375.034 1.643.68.268.638-.034 1.376-.679 1.644l-7.772 3.247c-.159.067-.319.101-.486.101z"/>
        <path
            d="m224.037 408.455c-.445 0-.872-.235-1.099-.655-.335-.604-.117-1.375.495-1.711 1.224-.68 4.653-2.894 5.802-4.966 1.081-1.955 2.288-5.856 1.199-8.557-.554-1.376-1.644-2.299-3.329-2.827-5.743-1.787-9.424 8.179-9.465 8.28-.21.579-.805.922-1.401.813-.603-.1-1.039-.629-1.039-1.241v-11.292l-2.541-3.322c-.419-.554-.318-1.342.235-1.762.554-.419 1.342-.318 1.761.235l2.8 3.666c.168.218.26.487.26.764v6.501c2.088-3.162 5.5-6.485 10.136-5.042 2.415.747 4.066 2.19 4.913 4.287 1.526 3.792-.201 8.666-1.333 10.713-1.727 3.138-6.581 5.839-6.782 5.956-.193.109-.403.16-.604.16z"/>
        <path
            d="m235.749 473.144c-.461 0-.914-.26-1.132-.705-.31-.621-.05-1.376.579-1.686l12.232-5.998-.83-19.941-21.916-27.927c-.427-.546-.335-1.334.21-1.771.545-.427 1.333-.335 1.769.21l22.167 28.246c.159.21.26.462.268.722l.889 21.165c.017.495-.251.965-.704 1.183l-12.97 6.359c-.176.084-.369.126-.554.126z"/>
        <path
            d="m145.521 512.758c-.243 0-.478-.067-.688-.201-.36-.235-.57-.629-.57-1.057v-25.302c0-.201.05-.402.143-.579l31.289-60.518c-4.871.209-7.219-2.173-8.233-3.734-2.432-3.766-1.66-9.613 1.97-14.882 1.886-2.743 4.267-4.362 7.059-4.798 3.077-.487 5.97.587 7.814 1.543v-8.313c0-.193.042-.378.126-.546l3.638-7.558c.126-.269.353-.487.621-.604l4.427-1.972c.394-.176.846-.134 1.207.101.36.235.57.638.562 1.065l-.981 62.415c0 .445-.243.848-.629 1.074-.059.034-6.196 3.767-15.007 17.886-8.829 14.152-7.89 34.017-7.881 34.21.025.52-.269 1.007-.747 1.217l-23.609 10.436c-.159.075-.335.109-.511.109zm1.257-26.249v23.061l21.069-9.312c-.1-4.119 0-21.534 8.284-34.806 7.688-12.332 13.431-17.021 15.267-18.33l.939-59.781-2.205.982-3.312 6.879v10.268c0 .478-.268.915-.704 1.133-.428.209-.939.159-1.325-.135-.033-.025-3.915-2.936-7.931-2.307-2.079.336-3.89 1.594-5.366 3.742-3.001 4.362-3.781 9.22-1.928 12.089 1.425 2.206 4.301 3.036 8.091 2.349.477-.093.947.1 1.232.486s.327.898.109 1.326l-32.228 62.339z"/>
        <path
            d="m180.314 404.213c-.67 0-1.224-.528-1.257-1.208l-.453-10.864c-.008-.218.042-.436.134-.629l4.234-8.272c.134-.26.36-.469.629-.587l4.427-1.871c.385-.167.838-.117 1.19.118l5.114 3.448c.579.386.73 1.166.344 1.745s-1.165.73-1.744.344l-4.552-3.062-3.379 1.426-3.873 7.567.444 10.528c.025.696-.512 1.284-1.207 1.309-.017 0-.034 0-.051 0z"/>
        <path
            d="m170.949 424.036c-.184 0-.369-.042-.545-.126-7.705-3.733-10.882-9.421-8.971-16.023 1.124-3.868 3.941-6.904 7.714-8.339 3.831-1.451 8.082-1.065 11.385 1.023.587.37.763 1.15.386 1.737-.378.587-1.149.755-1.736.386-2.632-1.67-6.053-1.972-9.155-.797-3.069 1.166-5.265 3.54-6.187 6.686-1.971 6.77 3.068 10.839 7.646 13.053.629.302.888 1.058.587 1.678-.218.445-.663.713-1.132.713z"/>
        <path
            d="m145.521 512.758c-.31 0-.621-.117-.864-.344l-5.215-4.924c-.251-.235-.394-.571-.394-.915v-24.311c0-.202.051-.403.143-.579l30.694-58.967c.318-.621 1.081-.856 1.693-.537s.855 1.082.537 1.695l-30.551 58.69v23.464l4.82 4.547c.503.478.529 1.275.051 1.778-.244.26-.579.395-.914.395z"/>
        <path
            d="m189.201 388.624c-.243 0-.494-.075-.712-.226l-5.115-3.541c-.57-.394-.712-1.182-.318-1.753.394-.57 1.182-.713 1.752-.319l5.114 3.541c.57.394.713 1.182.319 1.753-.243.352-.637.545-1.031.545z"/>
        <path
            d="m185.563 396.181c-.185 0-.378-.042-.562-.134l-5.71-2.827c-.62-.31-.88-1.065-.57-1.686s1.065-.881 1.685-.571l5.71 2.827c.62.311.88 1.066.57 1.687-.218.444-.662.696-1.123.696z"/>
        <path
            d="m175.233 401.198c-.436 0-.855-.226-1.09-.629-.075-.134-1.836-3.28-1.836-8.481 0-3.347 1.4-6.015 3.58-6.795 1.09-.395 3.295-.613 5.735 2.357.444.537.36 1.325-.176 1.77-.537.445-1.333.361-1.769-.176-1.065-1.292-2.13-1.863-2.943-1.586-.947.344-1.911 1.972-1.911 4.43 0 4.48 1.492 7.206 1.509 7.231.335.604.125 1.368-.478 1.712-.193.109-.411.167-.621.167z"/>
        <path
            d="m176.122 387.591c-.553 0-1.056-.369-1.216-.923-.184-.671.21-1.359.881-1.543l6.59-1.821c.67-.176 1.358.21 1.542.881.185.671-.209 1.359-.88 1.544l-6.59 1.82c-.109.034-.226.042-.335.042z"/>
        <path
            d="m228.346 390.136c-.235 0-.47-.067-.679-.201-2.599-1.687-8.527-4.564-10.287-2.685-.478.503-1.275.529-1.778.059-.503-.478-.528-1.275-.058-1.779 3.663-3.901 12.492 1.653 13.489 2.299.587.377.747 1.158.369 1.737-.243.369-.645.57-1.056.57z"/>
        <path
            d="m183.307 463.807c-.268 0-.545-.084-.779-.268l-1.971-1.552c-.545-.428-.637-1.225-.209-1.771.427-.545 1.215-.645 1.769-.209l1.97 1.552c.545.428.637 1.224.21 1.77-.252.319-.621.478-.99.478z"/>
        <path
            d="m215.544 489.184c-.269 0-.545-.084-.78-.269l-2.8-2.198c-.545-.427-.638-1.224-.21-1.77.428-.545 1.224-.637 1.769-.209l2.8 2.198c.545.427.637 1.224.21 1.77-.252.318-.621.478-.989.478z"/>
        <path
            d="m234.659 527.65c-.285 0-.57-.1-.805-.285l-61.295-50.821c-.537-.445-.612-1.233-.168-1.77.445-.537 1.233-.612 1.769-.168l60.658 50.293 15.611-7.911-8.979-7.064c-.545-.428-.637-1.225-.21-1.77.428-.545 1.216-.637 1.769-.21l10.531 8.289c.335.268.52.688.478 1.116-.042.427-.302.805-.688.998l-18.101 9.178c-.176.092-.377.134-.57.134z"/>
        <path
            d="m169.574 490.862c-.478 0-.939-.277-1.148-.747-.285-.637 0-1.375.637-1.661l13.456-6.023c.629-.285 1.375 0 1.66.638.285.637 0 1.375-.637 1.661l-13.456 6.023c-.168.075-.344.109-.512.109z"/>
        <path
            d="m237.132 476.66c-.478 0-.939-.277-1.148-.738-.285-.637 0-1.376.629-1.661l17.707-7.97-6.238-4.244c-.57-.395-.721-1.175-.336-1.745.395-.579 1.174-.722 1.744-.336l8.099 5.512c.378.26.587.696.545 1.149s-.318.847-.738 1.04l-19.752 8.893c-.168.075-.344.109-.512.109z"/>
        <path
            d="m140.306 520.243c-.344 0-.679-.143-.923-.403l-10.622-11.518c-.277-.302-.386-.713-.31-1.108.084-.394.352-.729.721-.897l10.622-4.757c.637-.285 1.375 0 1.66.638.285.637 0 1.376-.637 1.661l-9.029 4.043 8.82 9.564 54.537-24.547c.629-.285 1.375 0 1.66.63.285.637 0 1.375-.628 1.661l-55.36 24.915c-.168.076-.344.109-.52.109z"/>
        <path
            d="m213.624 392.442c-.696 0-1.258-.57-1.249-1.267l.536-146.112c0-.697.545-1.259 1.266-1.25.696 0 1.258.57 1.249 1.266l-.536 146.113c0 .696-.562 1.25-1.258 1.25z"/>
        <path
            d="m195.456 495.14c-.244 0-.487-.067-.696-.21-.352-.235-.57-.637-.562-1.057l2.356-247.486c0-.697.587-1.234 1.266-1.25.696 0 1.249.579 1.249 1.266l-2.339 245.549 15.292-6.644.042-11.007c0-.696.562-1.25 1.258-1.25s1.257.571 1.249 1.267l-.042 11.829c0 .495-.302.948-.754 1.149l-17.825 7.743c-.159.067-.327.101-.503.101z"/>
        <path
            d="m184.33 385.772h-.017c-.696-.008-1.249-.578-1.241-1.275l1.845-140.861c.008-.688.57-1.241 1.257-1.241h.017c.696.008 1.249.578 1.241 1.275l-1.844 140.861c-.009.688-.571 1.241-1.258 1.241z"/>
        <path
            d="m240.855 553.512c-.294 0-.579-.101-.813-.302l-17.808-15.16c-.218-.184-.369-.436-.419-.721l-.604-3.112-26.569-22.852c-.276-.243-.436-.587-.436-.957v-15.939l-11.972-9.924c-.293-.243-.461-.604-.453-.982l.344-26.392c.008-.688.57-1.241 1.258-1.241h.016c.696.008 1.25.579 1.241 1.275l-.335 25.788 11.964 9.916c.285.243.453.595.453.973v15.956l26.468 22.76c.218.184.36.436.419.713l.604 3.112 16.776 14.278 16.785-10.344-.52-8.875c-1.417-1.342-5.735-6.116-5.735-14.27 0-.696.562-1.258 1.258-1.258s1.257.562 1.257 1.258c0 8.364 5.19 12.659 5.24 12.709.277.227.445.554.461.906l.587 10.143c.026.461-.201.898-.595 1.141l-18.202 11.224c-.201.126-.435.185-.662.185z"/>
        <path
            d="m240.855 553.513c-.671 0-1.224-.528-1.258-1.2l-.461-10.536c-1.71-1.141-5.735-4.95-5.735-15.386 0-.696.562-1.258 1.258-1.258s1.258.562 1.258 1.258c0 11.124 4.896 13.465 4.946 13.49.436.193.738.629.755 1.099l.494 11.224c.034.697-.511 1.284-1.199 1.309-.016 0-.033 0-.058 0z"/>
        <path
            d="m240.36 542.287c-.453 0-.897-.252-1.115-.68-.319-.621-.075-1.376.545-1.694l18.688-9.648c.612-.319 1.375-.075 1.693.545.319.621.076 1.376-.545 1.695l-18.687 9.647c-.185.093-.386.143-.579.143z"/>
        <path
            d="m241.601 489.972c-.436 0-.855-.226-1.09-.629-.344-.604-.134-1.376.461-1.72l3.287-1.887c.469-.269 1.056-.21 1.458.151l1.484 1.317 13.742-6.988v-7.668c-1.97-.059-4.092-1.309-5.274-5.705-.176-.671.218-1.359.889-1.543.671-.176 1.358.218 1.543.889 1.173 4.388 3.009 3.926 3.789 3.733.377-.092.771-.008 1.082.227.302.235.486.604.486.99v9.84c0 .47-.268.906-.688 1.124l-15.191 7.726c-.461.235-1.015.168-1.409-.184l-1.45-1.292-2.507 1.435c-.201.109-.411.167-.629.167z"/>
        <path
            d="m133.523 543.965c-.235 0-.469-.067-.679-.201-.36-.235-.578-.629-.578-1.057v-10.83c0-.479.268-.915.704-1.133.251-.126 6.263-3.255 6.087-11.745-.017-.696.536-1.266 1.232-1.283.662-.034 1.266.537 1.283 1.233.176 8.414-4.888 12.433-6.791 13.649v8.137l23.299-10.805 1.308-3.934c.109-.336.352-.604.671-.747l34.877-15.973c.629-.285 1.375-.008 1.668.621.285.629.009 1.376-.62 1.67l-34.383 15.746-1.299 3.934c-.109.328-.352.596-.663.747l-25.579 11.862c-.168.076-.352.118-.528.118z"/>
        <path
            d="m133.523 533.135c-.327 0-.654-.125-.897-.377l-11.805-12.106c-.285-.293-.41-.704-.335-1.107.076-.403.344-.747.713-.914.293-.135 7.235-3.44 7.235-11.158 0-.696.562-1.258 1.258-1.258s1.257.562 1.257 1.258c0 7.022-4.686 10.982-7.185 12.592l10.665 10.94c.486.495.478 1.292-.026 1.778-.243.243-.561.361-.88.361z"/>
        <path
            d="m133.523 543.965c-.31 0-.629-.118-.872-.353l-11.804-11.325c-.244-.235-.386-.562-.386-.906v-11.619c0-.696.562-1.258 1.258-1.258.695 0 1.257.562 1.257 1.258v11.082l11.419 10.948c.503.478.52 1.275.034 1.779-.243.26-.579.385-.906.385z"/>
        <path
            d="m293.104 122.389c-.696 0-1.057-.47-1.14-.596-.177-.268-.26-.537-.797-2.567-.302-1.157-.863-3.288-1.098-3.8-.596-.763-1.258-2.735-1.216-4.161.025-.923.31-1.644.855-2.131.981-.881 1.132-1.199 1.14-1.3l-.494-1.141-7.42-1.007c.042.084.117.202.235.327.318.353.62.663.888.94.998 1.032 1.786 1.846 1.887 3.062.075.931-.143 3.154-1.325 4.06-.545.42-1.224.521-1.878.286-1.123-.411-2.666-.974-3.454-2.391-.126-.235-.277-.445-.428-.663-.503-.721-1.123-1.627-1.123-2.945 0-.612.084-1.048.142-1.375.045-.252.045-.428 0-.529-.142-.277-.922-1.015-1.735-1.661-.503.227-1.484.654-2.96 1.292-.293.126-.545.235-.763.336-1.71.755-2.137.822-3.655-.068-.386-.226-.83-.369-1.299-.52-.981-.31-2.197-.704-3.077-1.862-.436-.571-1.585-1.04-3.077-1.242-.344-.033-2.557.042-4.41.126-.201 0-.386-.025-.554-.1l-2.523-1.091c-.377-.168-.654-.503-.738-.914-.084-.412.042-.8226.335-1.1246.126-.1258 1.275-1.2668 3.396-2.0973 2.213-.8641 4.594-.3439 5.441-.0251.327.0419 1.308 0 2.348-.0756-.109-2.3237-.336-7.6256-.453-12.9779-.327-14.899.478-15.6624 1.065-16.2161.88-.8389 1.785-1.1828 2.565-1.2667 0-6.2834.168-17.9862 1.526-19.8738 1.258-1.7365 2.725-1.7281 4.125-1.6946.771.0084 1.643.0252 2.75-.1929 2.523-.4866 4.41-1.1074 5.324-1.401.293-.0923.503-.1594.612-.1846 1.064-.2684 3.093-.0755 4.309 1.5352.512.688.813 1.4346 1.056 2.0302.109.2601.244.604.344.7718 1.275.453 3.471 2.5671 3.22 4.0519-.059.5705-.017 6.0318 0 8.9596.008 1.4093.016 2.5586.016 3.0452 0 1.4597-1.014 12.2816-1.375 16.191 1.157.0503 1.962.2516 2.398.604.746.5956.772 1.5352.545 6.5435-.075 1.6778-.159 3.5905-.084 4.2532.193 1.6527 1.702 6.317 2.247 7.1895.461.7382 1.794 3.5071 1.719 4.8741.126.369.788 1.544 2.197 3.381 1.92 2.491 1.794 4.404 1.358 5.578-.277.739-.964 1.536-1.752 2.45-.604.705-1.87 2.164-1.862 2.685.629 1.862-1.09 3.741-2.456 4.404-.352.168-.646.235-.906.235zm-1.073-8.557c.394.436.67 1.284 1.576 4.748.05.193.1.395.151.596.218-.26.36-.529.31-.68-.562-1.686.922-3.406 2.356-5.067.494-.578 1.182-1.367 1.299-1.694.386-1.032-.327-2.282-.997-3.154-2.801-3.641-2.792-4.598-2.717-5.084-.042-.512-.746-2.416-1.341-3.364-.797-1.267-2.381-6.2669-2.616-8.23-.101-.8724-.025-2.6257.067-4.6643.067-1.4345.159-3.4731.109-4.463-.469-.0587-1.216-.0755-1.87-.0503-.368.0168-.712-.1259-.964-.3943-.251-.2601-.377-.6208-.343-.9899.419-4.3623 1.492-15.9812 1.5-17.3403 0-.4865 0-1.6191-.017-3.02-.041-6.0066-.041-8.364 0-9.1525-.226-.453-1.14-1.3591-1.525-1.5017-1.09-.2684-1.501-1.3003-1.87-2.2063-.21-.5117-.419-1.0403-.738-1.4681-.595-.797-1.677-.6124-1.685-.604-.075.0168-.226.0671-.436.1342-.956.3104-2.943.9648-5.626 1.4849-1.366.2684-2.414.2517-3.269.2349-1.317-.0168-1.577 0-2.054.6543-.713 1.2836-1.099 11.0904-1.048 19.8151 0 .4446-.227.8556-.612 1.0821-.378.2349-.856.2433-1.241.0336-.067-.0252-.621-.2181-1.392.453-.729 1.9882-.52 15.9644.117 28.5649.034.6711-.469 1.2499-1.14 1.317-3.815.3607-4.385.1343-4.636.0336-.361-.1426-2.138-.5956-3.681 0-.302.1174-.578.2431-.83.3691l.176.076c1.602-.076 4.05-.168 4.57-.093 2.23.302 3.865 1.066 4.736 2.207.378.503.948.696 1.845.989.553.177 1.182.378 1.777.722.218.126.436.252.554.31.159-.05.511-.201.846-.352.227-.101.487-.218.789-.344 2.221-.956 3.311-1.443 3.32-1.451.218-.101.452-.134.687-.101l.553.076c.21.025.411.109.587.243.52.394 2.272 1.745 2.792 2.793.453.898.327 1.569.227 2.106-.051.277-.101.537-.101.923 0 .512.243.889.679 1.518.193.286.386.571.562.873.268.478.897.788 1.71 1.099.151-.403.285-1.133.243-1.619-.025-.328-.561-.881-1.19-1.527-.285-.294-.604-.629-.939-.998-.855-.94-.973-1.829-.923-2.408.109-1.166.923-1.854 1.09-1.972.269-.201.604-.293.931-.243l8.988 1.225c.436.059.804.344.981.747l.763 1.761c.83 1.896-.789 3.339-1.753 4.212-.209.411.269 2.273.637 2.835zm-.051-.059s.017.026.034.034c-.009-.008-.025-.025-.034-.034zm-3.412-62.1795v.0251c0-.0083 0-.0167 0-.0251z"/>
        <path
            d="m277.895 65.4116c-.461 0-.838-.3775-.838-.8389v-17.6674c0-.4614.377-.8389.838-.8389s.839.3775.839.8389v17.6674c0 .4614-.378.8389-.839.8389z"/>
        <path
            d="m269.042 86.3727c-.461 0-.839-.3691-.839-.8305-.134-16.946-.016-17.2564.059-17.441.168-.4278.654-.6459 1.081-.4865.386.151.604.5537.52.9479-.084.8809-.033 10.5871.017 16.9628 0 .4614-.369.8389-.83.8473z"/>
        <path
            d="m287.931 99.1678c-.696 0-1.258-.5621-1.258-1.2584v-16.0651c0-.6963.562-1.2584 1.258-1.2584s1.258.5621 1.258 1.2584v16.0651c0 .6963-.562 1.2584-1.258 1.2584z"/>
        <path
            d="m275.598 104.485c-.176 0-.361-.059-.512-.177-.368-.285-.435-.813-.15-1.174 1.735-2.24 2.121-5.8473 2.129-5.8808.05-.4614.444-.8054.922-.7467.461.0504.797.4614.747.9228-.017.1678-.453 4.1277-2.474 6.7367-.167.21-.411.327-.662.327z"/>
        <path
            d="m265.378 102.366c-.461 0-.931-.034-1.4-.093-.461-.058-.78-.478-.721-.939.058-.462.478-.789.939-.722 2.18.285 4.326-.226 5.751-1.3672.839-.6711 1.333-1.51 1.409-2.3657.042-.4614.452-.8222.905-.7634.461.0419.805.4446.763.906-.109 1.3171-.83 2.567-2.029 3.5313-1.459 1.175-3.496 1.821-5.626 1.821z"/>
        <path
            d="m292.106 107.096c-.318 0-.62-.184-.763-.486l-2.163-4.732c-.193-.419 0-.922.411-1.115.428-.193.922 0 1.115.411l2.163 4.731c.193.42 0 .923-.411 1.116-.117.05-.234.075-.352.075z"/>
        <path
            d="m275.766 47.8099c-.21 0-.42-.0504-.612-.1594-5.425-3.0369-6.347-8.9344-2.549-16.1909.88-1.6779 1.853-3.1376 2.792-4.5469 1.836-2.7684 3.429-5.1509 3.823-8.3556.059-.4698.369-.864.805-1.0234.444-.1678.939-.0671 1.282.2432 4.486 4.052 7.211 10.6374 7.311 17.6171.067 4.6811-1.148 8.666-3.236 10.6542-.503.4782-1.299.4614-1.777-.042-.478-.5033-.461-1.3003.042-1.7785 1.567-1.4932 2.506-4.8656 2.456-8.8001-.075-5.411-1.87-10.5283-4.896-14.144-.788 2.6174-2.214 4.765-3.714 7.0133-.906 1.359-1.836 2.76-2.658 4.3203-2.213 4.2198-3.739 9.874 1.543 12.827.603.3355.821 1.1073.486 1.7113-.226.4111-.654.646-1.098.646z"/>
        <path
            d="m279.581 44.5291c-.386 0-.814-.0587-1.283-.2013-1.057-.3188-1.752-.8725-2.079-1.6527-.68-1.6358.469-3.7834 1.794-6.2666.981-1.8372 2.096-3.9177 2.515-5.9059.075-.3775.402-.6544.788-.6628h.034c.368 0 .704.2433.804.6041 1.333 4.5972 2.054 10.8135-.327 13.1792-.461.453-1.182.9144-2.238.9144zm1.643-10.8219c-.52 1.2164-1.149 2.3909-1.736 3.4815-1.031 1.9295-2.104 3.9345-1.727 4.8321.042.1091.185.4446 1.015.6879 1.081.3188 1.584-.0168 1.861-.2936 1.19-1.1829 1.383-4.6392.587-8.7163z"/>
        <path
            d="m160.696 126.448c-.16 0-.319-.042-.461-.143-.386-.26-.495-.78-.235-1.166l12.525-18.876c.26-.386.78-.495 1.166-.235.386.261.495.781.235 1.167l-12.526 18.875c-.159.243-.428.378-.696.378z"/>
        <path
            d="m173.221 113.848c-.151 0-.302-.042-.436-.126-.394-.243-.52-.763-.276-1.157l3.454-5.621c.243-.394.754-.52 1.157-.277.394.243.52.764.276 1.158l-3.454 5.62c-.159.261-.436.403-.712.403z"/>
        <path
            d="m179.166 111.028c-.16 0-.319-.042-.453-.134-.386-.252-.495-.772-.243-1.158l1.207-1.846c.251-.385.771-.494 1.157-.243.386.252.495.772.243 1.158l-1.207 1.845c-.16.244-.428.378-.704.378z"/>
        <path
            d="m249.239 153.36c-.201 0-.411-.075-.57-.226-.336-.319-.361-.847-.042-1.183 0 0 5.122-5.528 10.279-11.04 7.126-7.628 10.91-11.356 11.351-11.183.319.126.537.437.537.781 0 .302-.159.57-.411.721-1.148 1.04-12.827 13.557-20.524 21.862-.167.176-.385.268-.612.268z"/>
        <path
            d="m261.119 117.943s-.05 0-.076 0l-8.585-.805c-.461-.042-.796-.453-.754-.915.042-.461.452-.797.914-.755l8.585.806c.461.042.796.453.754.914-.042.436-.402.764-.838.764z"/>
        <path
            d="m190.719 149.427s-.025 0-.034 0l-16.248-.646c-.461-.016-.822-.411-.805-.872s.444-.839.872-.805l16.248.646c.461.016.822.411.805.872-.017.453-.386.805-.838.805z"/>
        <path
            d="m153.552 168.914c-.176 0-.36-.042-.528-.117-.427-.202-.712-.63-.729-1.099l-.646-19.388c-.016-.385.151-.755.445-1.006l6.38-5.378c.528-.453 1.325-.377 1.769.151.444.529.377 1.326-.151 1.77l-5.919 4.984.536 16.291 3.79-2.995c.545-.428 1.333-.335 1.769.21.428.545.335 1.334-.21 1.77l-5.743 4.539c-.226.176-.503.268-.779.268z"/>
        <path
            d="m175.317 170.004c-.402 0-.805-.193-1.048-.562-5.483-8.196-10.027-5.864-19.082-1.217l-1.056.546c-.612.318-1.375.075-1.694-.546-.318-.62-.067-1.376.545-1.694l1.057-.546c9.046-4.647 15.585-8.011 22.318 2.056.385.579.235 1.359-.344 1.745-.218.142-.461.209-.696.209z"/>
        <path
            d="m190.719 152.479h-4.98c-.462 0-.839-.378-.839-.839 0-.462.377-.839.839-.839h4.98c.461 0 .838.377.838.839 0 .461-.377.839-.838.839z"/>
        <path
            d="m217.933 198.101c-.126 0-.251-.025-.369-.084-.419-.201-.587-.704-.385-1.124 3.898-7.969 11.771-10.067 12.106-10.151.444-.117.906.151 1.023.604.117.445-.151.906-.604 1.024-.075.017-7.47 2.013-11.016 9.261-.143.294-.445.47-.755.47z"/>
        <path
            d="m166.556 177.698c-.453 0-.822-.353-.838-.806 0-.058-.042-1.459.863-2.877.813-1.275 2.566-2.827 6.288-2.945h.025c.453 0 .822.361.839.814.016.461-.344.847-.814.864-5.449.185-5.541 3.7-5.533 4.094 0 .461-.352.847-.813.856h-.025z"/>
        <path
            d="m223.5 132.504c-.461 0-.838-.378-.838-.839v-9.346c0-.461.377-.839.838-.839s.838.378.838.839v9.346c0 .461-.377.839-.838.839z"/>
        <path
            d="m220.264 129.991c-.461 0-.839-.378-.839-.839v-2.735c0-.461.378-.839.839-.839s.838.378.838.839v2.735c0 .461-.377.839-.838.839z"/>
        <path
            d="m204.393 354.649c-.461 0-.839-.377-.839-.839v-99.385c0-.462.378-.839.839-.839s.838.377.838.839v99.385c0 .462-.377.839-.838.839z"/>
        <path
            d="m210.111 373.28c-.461 0-.839-.377-.839-.839v-51.618c0-.461.378-.839.839-.839s.838.378.838.839v51.618c0 .462-.377.839-.838.839z"/>
        <path
            d="m192.622 289.75c-.461 0-.839-.378-.839-.839v-30.201c0-.461.378-.839.839-.839s.838.378.838.839v30.201c0 .461-.377.839-.838.839z"/>
        <path
            d="m189.201 297.888c-.461 0-.838-.377-.838-.839v-10.276c0-.462.377-.839.838-.839s.839.377.839.839v10.276c0 .462-.378.839-.839.839z"/>
        <path
            d="m188.128 377.996c-.461 0-.838-.377-.838-.839v-42.197c0-.461.377-.839.838-.839s.838.378.838.839v42.197c0 .462-.377.839-.838.839z"/>
        <path
            d="m190.694 337.509c-.461 0-.839-.378-.839-.839v-9.421c0-.461.378-.839.839-.839s.838.378.838.839v9.421c0 .461-.377.839-.838.839z"/>
        <path
            d="m171.964 414.084c-.076 0-.16-.008-.235-.034-.444-.125-.704-.595-.57-1.04.721-2.5 2.322-4.513 4.385-5.511 1.878-.906 3.99-.932 6.103-.068.428.177.637.663.461 1.091s-.662.638-1.09.461c-1.66-.679-3.303-.671-4.736.026-1.635.788-2.918 2.416-3.505 4.471-.109.369-.444.604-.805.604z"/>
        <path
            d="m162.674 498.262c-.436 0-.805-.344-.838-.788-.755-11.854 5.793-39.001 17.112-46.484.385-.252.905-.151 1.165.234.252.386.151.907-.235 1.167-10.849 7.172-17.103 33.464-16.365 44.973.033.462-.319.865-.78.89-.017 0-.034 0-.05 0z"/>
        <path
            d="m158.373 500.291c-.444 0-.813-.344-.838-.797-.537-10.293 3.622-26.048 3.798-26.711.117-.444.578-.713 1.023-.595.444.117.712.579.595 1.023-.042.16-4.268 16.166-3.739 26.191.025.461-.336.856-.797.881-.017 0-.033 0-.042 0z"/>
        <path
            d="m220.021 499.761s-.059 0-.084 0c-.461-.05-.797-.461-.746-.922.016-.177 1.727-17.391-4-30.293-.184-.42 0-.923.428-1.108.428-.193.922 0 1.107.428 5.91 13.314 4.208 30.427 4.133 31.149-.042.428-.411.755-.83.755z"/>
        <path
            d="m222.888 479.203c-.419 0-.788-.318-.83-.746 0-.076-.889-7.408-6.288-15.428-.26-.386-.159-.906.226-1.166.386-.26.906-.159 1.166.227 5.651 8.38 6.531 15.872 6.564 16.182.051.462-.276.873-.737.923-.034 0-.067 0-.093 0z"/>
        <path
            d="m230.819 512.716c-.184 0-.369-.058-.528-.184l-4.376-3.532c-.361-.294-.42-.822-.126-1.183.293-.361.813-.419 1.182-.126l4.376 3.532c.361.294.42.822.126 1.183-.168.21-.411.31-.654.31z"/>
        <path
            d="m230.819 509.185c-.184 0-.377-.067-.536-.193l-1.996-1.661c-.352-.294-.402-.822-.109-1.183.294-.352.822-.403 1.182-.109l1.996 1.661c.352.294.402.822.109 1.183-.168.201-.403.302-.646.302z"/>
        <path
            d="m172.66 516.087c-.336 0-.654-.201-.78-.528-.168-.428.042-.914.469-1.091l19.669-7.734c.428-.168.914.042 1.09.469.168.428-.042.915-.469 1.091l-19.669 7.735c-.101.042-.201.058-.31.058z"/>
        <path
            d="m185.344 505.972c-.352 0-.67-.219-.796-.562-.151-.437.084-.915.52-1.066l6.984-2.408c.436-.151.913.084 1.064.521.151.436-.083.914-.519 1.065l-6.984 2.408c-.092.033-.185.042-.277.042z"/>
        <path
            d="m229.821 527.398c-.184 0-.368-.059-.519-.185l-30.275-24.32c-.36-.293-.419-.814-.126-1.183.294-.369.822-.419 1.182-.125l30.275 24.319c.361.294.419.814.126 1.183-.168.21-.411.311-.654.311z"/>
        <path
            d="m233.108 542.513c-.176 0-.352-.05-.503-.167l-6.02-4.497c-.368-.277-.444-.805-.167-1.175.276-.369.805-.444 1.174-.167l6.019 4.496c.369.277.445.806.168 1.175-.168.218-.419.335-.671.335z"/>
        <path
            d="m245.223 546.456c-.461 0-.838-.377-.838-.839v-3.934c0-.462.377-.839.838-.839s.838.377.838.839v3.934c0 .462-.377.839-.838.839z"/>
        <path
            d="m133.523 524.846c-.226 0-.444-.092-.612-.268l-4.687-5.026c-.318-.335-.293-.872.042-1.182.344-.319.872-.294 1.182.042l4.687 5.025c.319.335.294.872-.042 1.182-.159.151-.369.227-.57.227z"/>
        <path
            d="m133.163 519.471c-.218 0-.436-.084-.604-.252l-2.331-2.408c-.318-.335-.31-.864.017-1.183.336-.318.864-.31 1.182.017l2.331 2.408c.319.336.31.864-.017 1.183-.159.159-.377.235-.587.235z"/>
        <path
            d="m236.235 465.889s-.084 0-.126-.008c-.461-.067-.771-.495-.704-.948.017-.093 1.275-9.195-4.561-13.415-.377-.268-.461-.796-.184-1.174.268-.377.796-.461 1.174-.185 6.665 4.824 5.298 14.606 5.231 15.025-.058.42-.419.713-.83.713z"/>
        <path
            d="m240.251 464.444c-.452 0-.83-.36-.838-.813-.076-3.004-1.719-6.712-1.736-6.745-.184-.42 0-.923.42-1.108.419-.184.913 0 1.106.42.076.159 1.794 4.043 1.878 7.391.009.461-.352.847-.813.864h-.025z"/>
        <path
            d="m219.417 410.555c-.377 0-.721-.252-.813-.638-.109-.453.159-.906.612-1.015l4.544-1.124c.444-.109.905.16 1.014.613s-.159.906-.612 1.015l-4.544 1.124c-.067.017-.134.025-.201.025z"/>
        <path
            d="m228.933 397.861c-.453 0-.83-.36-.839-.822-.008-.344-.201-3.372-3.747-3.75-.461-.05-.797-.461-.746-.923.05-.461.444-.805.922-.746 4.075.436 5.215 3.716 5.24 5.386.008.461-.361.847-.822.855h-.016z"/>
        <path
            d="m250.044 474.487c-.319 0-.629-.185-.772-.504-.184-.427 0-.922.428-1.107l4.636-2.047c.428-.184.923 0 1.107.428s0 .923-.428 1.107l-4.636 2.047c-.109.051-.226.067-.335.067z"/>
        <path
            d="m201.316 486.557c-.461 0-.838-.377-.838-.839v-23.481c0-.461.377-.839.838-.839s.838.378.838.839v23.481c0 .462-.377.839-.838.839z"/>
        <path
            d="m205.332 485.569c-.461 0-.838-.378-.838-.839v-10.176c0-.462.377-.839.838-.839s.838.377.838.839v10.176c0 .461-.377.839-.838.839z"/>
        <path
            d="m187.432 468.237c-.461 0-.838-.378-.838-.839v-13.188c0-.461.377-.839.838-.839s.839.378.839.839v13.188c0 .461-.378.839-.839.839z"/>
        <path
            d="m179.166 494.72c-.336 0-.654-.202-.78-.537-.168-.436.05-.915.486-1.082l11.134-4.279c.436-.168.914.051 1.082.487.167.436-.051.914-.487 1.082l-11.134 4.278c-.1.034-.201.059-.301.059z"/>
    </g>
</svg>
