<?xml version="1.0" encoding="UTF-8"?>
<svg id="Layer_1" data-name="Layer 1" xmlns="http://www.w3.org/2000/svg" viewBox="0 0 246.9 240.47">
  <defs>
    <style>
      .cls-1, .cls-2 {
        stroke-width: 0px;
      }

      .cls-2 {
        fill: #ff2d20;
      }
    </style>
  </defs>
  <path class="cls-2" d="m238.59,176.63s-10.98-39.51-9.96-66.57c1.02-27.06,1.53-72.45,1.53-72.45,0,0-36.26,6.87-68.17,3.66-31.92-3.21-63.06-3.66-63.06-3.66l-.51,12.19-5.87-12.19s-33.54,8.94-57.96,1.47c2.39,6.99,1.74,21.03-.18,36.04h39.13v37.15h-39.32v-35.71c-.93,7.03-2.13,14.23-3.42,20.98-2.63,13.79-.88,44.26,3.42,68.78v-25.96h89.87v40.26H37.21c1.93,7.71,4.15,14,6.57,17.77-18.89,2.55-26.47,9.43-26,12.25.47,2.82,32.89-1.78,36.98-2.04l6.89-12v11.23s18.13-5.87,33.96-3.06c15.83,2.81,39.32,3.57,39.32,3.57l1.53-19.71,5.11,19.46s8.43-1.79,22.72.77c14.3,2.55,51.83,9.96,62.3,5.87,10.47-4.09,18.89-12.51,19.15-20.68.26-8.17-7.15-17.43-7.15-17.43Zm-165.04-45.11h-39.32v-10.41h39.32v10.41Zm60-56.41h39.32v57.35h-39.32v-57.35Zm-9.45,56.41h-39.32v-10.41h39.32v10.41Zm0-19.26h-39.32v-37.15h39.32v37.15Zm9.45,68.36v-41.06h39.32v41.06h-39.32Zm68.11,16.36h-39.32v-8.7h39.32v8.7Z"/>
  <g>
    <path class="cls-1" d="m24.1,212.78c-4.31,0-8.01-.61-10-2.25-.27-.22-.5-.46-.71-.71-11.62-11.98-8.77-74.89-7.36-91.13.71-8.2-.53-20.48-1.84-33.49C2.06,64.06-.15,42.2,5.78,34.04c2.71-3.73,6.09-5.84,10.05-6.26,8.11-.87,15.65,5.75,15.96,6.03.26.23.43.54.48.88.16.97,3.68,24.22-6.73,59.43-10.17,34.42,13.64,101.34,13.88,102.01.16.46.1.96-.18,1.36s-.73.64-1.21.64c-5.9.07-21.46,1.72-22.6,8.38-.1.56-.02.98.25,1.35.04.04.07.08.1.12.07.08.15.16.25.24,4.71,3.9,26.74-.33,32.69-2.57l5.71-2.14,2.2-7.57c.19-.67.8-1.1,1.51-1.08.69.03,1.27.54,1.4,1.22l1.29,6.88c5.47-1.69,23.48-6.51,42.92-3.54,18.03,2.76,28.14,2.62,31.37,2.47l3.29-21.01c.12-.77.82-1.34,1.6-1.26.78.06,1.38.71,1.38,1.5v20.25c4.65-.48,17.96-1.53,29.5.47,2.98.51,6.6,1.28,10.43,2.1,14.1,2.99,33.4,7.09,45.05,3.82,13.09-3.67,14.34-10.32,15.25-15.17.09-.47.17-.92.26-1.34.69-3.28-4.81-7.38-6.79-8.56-.26-.16-.47-.39-.6-.67-.14-.31-14.03-31.31-16.17-55.59-1.05-11.9-.31-29.04.34-44.16.67-15.52,1.3-30.18-.25-34.3-3.28-8.75-2.79-17.88-2.77-18.26.03-.56.38-1.06.89-1.28.23-.1,1.05-.39,2.16.1,1.87.83,3.49,3.36,4.96,7.75,2.9,8.71,2.48,63.16,2.22,76.17-.55,27.62,8.98,49.68,14.67,62.86,2.65,6.14,4.41,10.2,4.41,12.82,0,.3-.09.57-.24.81.26.94.32,1.93.11,2.93-.09.41-.17.83-.25,1.28-1,5.31-2.5,13.32-17.39,17.5-12.36,3.47-32.08-.72-46.49-3.77-3.81-.81-7.4-1.57-10.32-2.08-13.51-2.34-30.14-.28-30.3-.26-.42.05-.86-.08-1.18-.36-.32-.28-.51-.69-.51-1.12v-2.66l-.49,3.16c-.11.67-.65,1.19-1.33,1.26-.42.04-10.61,1.05-33.27-2.42-22.07-3.37-42.92,3.87-43.12,3.94-.41.15-.87.11-1.25-.11-.38-.22-.64-.59-.73-1.02l-.44-2.37-.65,2.24c-.13.46-.47.82-.91.99l-6.42,2.41c-3.58,1.34-16.12,4.32-25.66,4.32ZM17.32,30.69c-.39,0-.79.02-1.18.06-3.07.33-5.74,2.03-7.93,5.04-5.25,7.24-3.01,29.48-1.03,49.11,1.33,13.15,2.58,25.57,1.85,34.05-2.06,23.82-2.59,69.41,4.14,84.93,3.48-6.98,17.25-8.39,22.76-8.68-3.97-11.54-22.83-69.51-13.25-101.94,9.34-31.6,7.17-53.87,6.71-57.57-1.47-1.18-6.64-5-12.06-5Zm219.73,149.67c.71.45,2.06,1.36,3.45,2.6-.72-1.86-1.67-4.05-2.71-6.46-5.79-13.41-15.48-35.84-14.92-64.11.35-17.37.51-67.46-2.06-75.16-.83-2.48-1.58-3.93-2.17-4.79.08,3.22.54,9,2.59,14.48,1.76,4.69,1.15,18.96.44,35.48-.64,15.03-1.38,32.06-.35,43.76,1.96,22.26,14.08,50.46,15.73,54.21Z"/>
    <path class="cls-1" d="m21.7,64.71c-.59,0-1.15-.35-1.39-.94-.31-.77.06-1.64.83-1.95l9.11-3.69c.77-.31,1.64.06,1.95.83s-.06,1.64-.83,1.95l-9.11,3.69c-.18.08-.38.11-.56.11Z"/>
    <path class="cls-1" d="m93.09,54.01c-.57,0-1.1-.33-1.35-.86l-4.06-8.57c-5.82.99-32.64,5-56.6-.21-.81-.18-1.32-.97-1.15-1.78.18-.81.98-1.32,1.78-1.15,26.31,5.72,56.25.05,56.55,0,.68-.13,1.35.21,1.64.83l2.28,4.82.48-4.35c.08-.7.63-1.25,1.33-1.33,1.38-.15,34.13-3.7,49.97.03,15.26,3.6,55.05.47,73.96-1.68.83-.1,1.57.5,1.66,1.32.09.82-.5,1.57-1.32,1.66-20.5,2.33-59.36,5.31-74.99,1.62-13.69-3.22-41.66-.7-47.77-.09l-.93,8.4c-.07.67-.58,1.2-1.24,1.31-.08.01-.17.02-.25.02Z"/>
  </g>
  <path class="cls-1" d="m205.65,194.49h-39.32c-.83,0-1.5-.67-1.5-1.5v-8.7c0-.83.67-1.5,1.5-1.5h39.32c.83,0,1.5.67,1.5,1.5v8.7c0,.83-.67,1.5-1.5,1.5Zm-37.82-3h36.32v-5.7h-36.32v5.7Z"/>
  <path class="cls-1" d="m77.55,109.77h-39.32c-.83,0-1.5-.67-1.5-1.5v-37.15c0-.83.67-1.5,1.5-1.5h39.32c.83,0,1.5.67,1.5,1.5v37.15c0,.83-.67,1.5-1.5,1.5Zm-37.82-3h36.32v-34.15h-36.32v34.15Z"/>
  <path class="cls-1" d="m128.1,109.77h-39.32c-.83,0-1.5-.67-1.5-1.5v-37.15c0-.83.67-1.5,1.5-1.5h39.32c.83,0,1.5.67,1.5,1.5v37.15c0,.83-.67,1.5-1.5,1.5Zm-37.82-3h36.32v-34.15h-36.32v34.15Z"/>
  <path class="cls-1" d="m176.86,178.13h-39.32c-.83,0-1.5-.67-1.5-1.5v-41.06c0-.83.67-1.5,1.5-1.5h39.32c.83,0,1.5.67,1.5,1.5v41.06c0,.83-.67,1.5-1.5,1.5Zm-37.82-3h36.32v-38.06h-36.32v38.06Z"/>
  <path class="cls-1" d="m176.86,129.97h-39.32c-.83,0-1.5-.67-1.5-1.5v-57.35c0-.83.67-1.5,1.5-1.5h39.32c.83,0,1.5.67,1.5,1.5v57.35c0,.83-.67,1.5-1.5,1.5Zm-37.82-3h36.32v-54.35h-36.32v54.35Z"/>
  <path class="cls-1" d="m77.55,129.02h-39.32c-.83,0-1.5-.67-1.5-1.5v-10.41c0-.83.67-1.5,1.5-1.5h39.32c.83,0,1.5.67,1.5,1.5v10.41c0,.83-.67,1.5-1.5,1.5Zm-37.82-3h36.32v-7.41h-36.32v7.41Z"/>
  <path class="cls-1" d="m128.1,178.13H38.23c-.83,0-1.5-.67-1.5-1.5v-40.26c0-.83.67-1.5,1.5-1.5h89.87c.83,0,1.5.67,1.5,1.5v40.26c0,.83-.67,1.5-1.5,1.5Zm-88.37-3h86.87v-37.26H39.73v37.26Z"/>
  <path class="cls-1" d="m128.1,129.02h-39.32c-.83,0-1.5-.67-1.5-1.5v-10.41c0-.83.67-1.5,1.5-1.5h39.32c.83,0,1.5.67,1.5,1.5v10.41c0,.83-.67,1.5-1.5,1.5Zm-37.82-3h36.32v-7.41h-36.32v7.41Z"/>
</svg>