<svg fill="none" height="40" viewBox="0 0 41 40" width="41" xmlns="http://www.w3.org/2000/svg" xmlns:xlink="http://www.w3.org/1999/xlink"><clipPath id="a"><path d="m.666504 0h40v40h-40z"/></clipPath><g clip-path="url(#a)" stroke="#ff2d20" stroke-linecap="round" stroke-linejoin="round" stroke-width="2"><path d="m4.28662 28.4805h6.64998"/><path d="m2.59644 24.8789h4.56"/><path d="m39.6664 17.4809c-.11.23-.42.87-.5 1.02-1.41 2.69-4.15 2.71-5.42 2.68-3.24 7.82-10.15 12.12-19.5 12.12-4.31997 0-7.61997-1.32-9.81997-3.93-2.27-2.69-3.13-6.61-2.61-9.63h25.80997c1.34.02 2.36-.36 2.87-.64-1.17-1.79-.87-4.51.22-6.16l.55-.83.83.55c1.45 1.12 2.24 2.36 2.44 3.78 1.51-.28 3.49-.08 4.34.5l.79.53zm-31.12997-2.18v3.53h-3.93v-3.53zm4.62997-.71h-3.92997v-3.57h3.92997zm0 4.24h-3.92997v-3.53h3.92997zm4.64-4.24h-3.92v-3.57h3.92zm0 4.24h-3.92v-3.53h3.92zm4.64-8.52h-3.93v-3.59996h3.93zm0 4.28h-3.93v-3.57h3.93zm-3.93 4.25v-3.53h3.93v3.53zm8.57 0h-3.92v-3.53h3.92z"/></g></svg>