<?xml version="1.0" encoding="UTF-8"?>
<svg id="Layer_1" data-name="Layer 1" xmlns="http://www.w3.org/2000/svg" viewBox="0 0 246.9 240.47">
  <defs>
    <style>
      .cls-1, .cls-2 {
        stroke-width: 0px;
      }

      .cls-2 {
        fill: #ee372c;
      }
    </style>
  </defs>
  <g>
    <path class="cls-2" d="m78.88,60.99L9.5,78.47s82.07,57.97,82.5,58.39c.42.42,66.63-24.6,66.63-24.6l-79.75-51.25Zm-28.13,33.97l-15.65-11.21,45.48-11.13,14.13,10.32-43.96,12.02Z"/>
    <path class="cls-2" d="m157.98,145.11l-67.97,25.97-2.14-1.73c-.86-4.32-.74-10.24,3.9-15.46l70.17-26.7-5.17-3.81-64.23,24.43-2.53-3.38-.33-.55c0-2.58.58-5.15,2.31-7.03L9.5,78.47c-4.23,6.77-1.48,16.29-1.48,16.29-8.68,12.34,1.48,24.33,1.48,24.33l80.52,56.41s-.67-1.18-1.32-3.1l1.32,3.1c3.95,0,75.16-25.64,75.16-25.64l-7.19-4.74Z"/>
  </g>
  <path class="cls-1" d="m91.81,133.05c-.41,0-.59-.14-.81-.36-2.18-1.63-54.68-38.73-82.37-58.29-.48-.34-.72-.92-.61-1.5s.54-1.04,1.11-1.18l69.38-17.47c.4-.1.83-.03,1.18.19l79.75,51.25c.48.31.74.86.68,1.42-.06.56-.43,1.05-.96,1.25-.17.06-16.74,6.33-33.16,12.46-9.64,3.6-17.35,6.46-22.9,8.48-7.86,2.87-10.27,3.75-11.28,3.75Zm.92-2.79c.19.14.29.22.31.24-.1-.1-.21-.18-.31-.24ZM13.03,73.83c47.99,33.9,74.6,52.73,79.28,56.11,4.89-1.52,38.79-14.2,63-23.33l-76.69-49.29L13.03,73.83Z"/>
  <path class="cls-1" d="m52.86,92.23c-.31,0-.62-.1-.87-.28l-15.65-11.21c-.48-.34-.71-.93-.6-1.5s.55-1.03,1.12-1.17l45.48-11.13c.43-.1.88-.01,1.24.25l14.13,10.32c.46.34.69.92.59,1.48-.1.57-.52,1.02-1.08,1.18l-43.96,12.02c-.13.04-.26.05-.4.05Zm-12.13-12.03l12.42,8.9,40.27-11.01-11.06-8.07-41.63,10.19Z"/>
  <path class="cls-1" d="m91.78,150.1c-.3,0-.6-.09-.86-.27L7.15,90.69c-.28-.2-.48-.48-.58-.81-.12-.42-2.88-10.25,1.65-17.5.44-.7,1.37-.92,2.07-.48.7.44.92,1.37.48,2.07-3.3,5.28-1.89,12.63-1.43,14.59l79.66,56.24c-1.02-4.18-1.68-10.38,1.9-14.25.56-.61,1.51-.65,2.12-.09.61.56.65,1.51.09,2.12-4.36,4.73.02,15.33.07,15.44.26.62.08,1.33-.44,1.75-.27.22-.61.33-.94.33Z"/>
  <path class="cls-1" d="m91.78,146.06c-.61,0-1.18-.38-1.41-.98-.29-.78.11-1.64.89-1.93l64.1-23.64-.71-11.53c-.05-.83.58-1.54,1.4-1.59.85-.05,1.54.58,1.59,1.4l.78,12.64c.04.66-.36,1.27-.98,1.5l-65.15,24.02c-.17.06-.35.09-.52.09Z"/>
  <path class="cls-1" d="m90.01,171.7c-.3,0-.6-.09-.86-.27L8.64,115.02c-.11-.07-.2-.16-.28-.26-.11-.13-10.8-13.02-1.56-26.16.48-.68,1.42-.84,2.09-.37.68.48.84,1.41.37,2.09-7.5,10.67.18,20.97,1.28,22.36l76.34,53.48c-1.29-4.72-1.91-12.15,3.79-18.56.16-.18.36-.32.59-.41l67.6-25.72-2.96-2.18c-.67-.49-.81-1.43-.32-2.1.49-.67,1.43-.81,2.1-.32l5.17,3.81c.44.33.67.87.6,1.41s-.44,1-.95,1.2l-69.82,26.56c-7.36,8.62-1.59,19.14-1.34,19.59.34.61.22,1.38-.3,1.85-.28.26-.65.39-1.01.39Z"/>
  <path class="cls-1" d="m90.01,171.7c-.83,0-1.5-.67-1.5-1.5s.66-1.49,1.49-1.5c3.16-.19,43.65-14.41,71.85-24.54l-4.69-3.09c-.69-.46-.88-1.39-.43-2.08.46-.69,1.39-.88,2.08-.43l7.19,4.74c.47.31.73.87.66,1.43-.07.56-.45,1.04-.98,1.23-11.93,4.3-71.66,25.73-75.67,25.73Z"/>
  <path class="cls-1" d="m88.1,169.2c-.6,0-1.16-.36-1.4-.95-.3-.77.08-1.64.85-1.95l67.91-26.75.38-15.93c.02-.82.69-1.46,1.5-1.46h.04c.83.02,1.48.71,1.46,1.54l-.4,16.92c-.01.6-.39,1.14-.95,1.36l-68.83,27.12c-.18.07-.37.1-.55.1Z"/>
  <path class="cls-1" d="m122.71,144.34c-.62,0-1.21-.39-1.42-1.01-.27-.78.15-1.64.93-1.91l21.58-7.4c.79-.27,1.64.15,1.91.93.27.78-.15,1.64-.93,1.91l-21.58,7.4c-.16.05-.33.08-.49.08Z"/>
  <path class="cls-1" d="m133.16,148.32c-.41,0-.8-.16-1.08-.46l-5.23-5.42c-.58-.6-.56-1.54.04-2.12.6-.58,1.55-.56,2.12.04l3.96,4.11.86-1.22c.28-.4.74-.64,1.23-.64h2.47l-2.38-3.55c-.46-.69-.28-1.62.41-2.08.69-.46,1.62-.28,2.08.41l3.95,5.88c.31.46.34,1.05.08,1.54-.26.49-.77.79-1.32.79h-4.51l-1.46,2.07c-.26.37-.67.6-1.11.63-.04,0-.08,0-.12,0Z"/>
  <g>
    <path class="cls-2" d="m174.95,150.57c-.95,4.03,2.42,10.18,2.42,10.18l7.33-2.15s-2.75-7.23-1.85-11.34l-7.9,3.3Z"/>
    <path class="cls-2" d="m177.82,164.42l8.64-1.63s6.23,12.54,3.04,18.77c-.55.15-9.12,2.34-9.12,2.34,0,0,1.99-10.99-2.56-19.49Z"/>
    <path class="cls-1" d="m139.34,204.27c-3.63,0-7.97-1.42-11.35-3.49-5.88-3.6-8.66-8.65-7.63-13.86,2.13-10.81,8.57-11.39,10.3-11.35,3.48-1.18,34.38-11.65,45.39-14.18.81-.19,1.61.32,1.8,1.13s-.32,1.61-1.13,1.8c-11.28,2.58-45.03,14.07-45.37,14.19-.23.08-.48.1-.72.06-.2-.02-5.44-.61-7.32,8.94-1.09,5.55,4.01,9.34,6.25,10.72,5.26,3.22,11.1,3.76,13.05,2.23,5.3-4.17,32.99-18.03,41.83-21.74,3.58-1.5,12.45-3.13,22.73-5.01,12.69-2.32,31.86-5.83,33.51-8.57,1.72-2.84,1.82-11.08-1.58-16.21-1.9-2.86-4.49-4.08-7.7-3.61-.83.12-1.58-.45-1.7-1.27-.12-.82.45-1.58,1.27-1.7,4.41-.64,8.08,1.06,10.63,4.92,3.88,5.86,4.08,15.41,1.65,19.42-2.19,3.62-14.89,6.18-35.54,9.96-9.68,1.77-18.83,3.45-22.11,4.82-8.5,3.57-36.1,17.37-41.14,21.33-1.29,1.02-3.1,1.46-5.12,1.46Z"/>
    <path class="cls-1" d="m140.98,204.15c-.44,0-.87-.19-1.16-.55-.52-.64-.43-1.59.21-2.11,3.46-2.82,3.2-7.02,2.37-10.04-1.7-6.18-7.19-12.2-11.75-12.88-.82-.12-1.38-.88-1.26-1.7.12-.82.88-1.39,1.7-1.26,5.79.86,12.16,7.61,14.21,15.05,1.51,5.48.31,10.16-3.37,13.16-.28.23-.61.34-.95.34Z"/>
    <path class="cls-1" d="m136.83,204.06c-.17,0-.33-.03-.5-.08-7.19-2.53-10.09-8.9-9.24-13.88.55-3.21,2.62-5.32,5.3-5.46l7.01-2.63c.77-.29,1.64.1,1.93.88.29.78-.1,1.64-.88,1.93l-7.24,2.72c-.17.06-.35.1-.53.1h0c-1.97,0-2.51,2.28-2.63,2.98-.52,3.03.99,8.33,7.28,10.54.78.27,1.19,1.13.92,1.91-.22.62-.8,1-1.42,1Z"/>
    <path class="cls-1" d="m192.34,179.6c-.14,0-.28-.02-.43-.06-.79-.23-1.25-1.07-1.01-1.86.15-.52,3.63-12.84-5.66-17.18-.75-.35-1.08-1.24-.73-1.99.35-.75,1.24-1.08,1.99-.73,9.31,4.34,8.83,15.47,7.27,20.74-.19.65-.79,1.08-1.44,1.08Z"/>
    <path class="cls-1" d="m182.37,182.77c-.11,0-.22-.01-.33-.04-.81-.18-1.32-.98-1.14-1.79.03-.11,2.37-11.16-4.04-17.41-.59-.58-.61-1.53-.03-2.12.58-.59,1.53-.61,2.12-.03,7.63,7.43,5,19.69,4.88,20.21-.16.7-.78,1.17-1.46,1.17Z"/>
    <path class="cls-1" d="m142.79,174.6c-.2,0-.41-.04-.6-.13-3.43-1.51-4.85-5.87-4.24-9.21.62-3.35,3-5.46,6.39-5.64,7.17-.37,28.61-6.62,38.38-11.74,2.87-1.5,5.08-2.95,7.41-4.48,5.38-3.53,12.04-7.9,30.57-15.44.43-.19.87-.37,1.32-.53.76-.28,1.62.1,1.92.87.29.76-.08,1.62-.84,1.93-.44.18-.87.35-1.29.52-5.91,2.64-7.2,6.99-7.38,9.7l4.13-.1c1.52-6.99,5.83-7.31,7.16-7.23,3.35.2,6.37,3.12,6.48,6.26.11,3.36-1.45,9.49-5.28,12.6-2.1,1.71-4.62,2.27-7.28,1.62-4.37-1.06-7.9-6.07-8.21-11.65-.16-2.76.46-5.32,1.76-7.56-11.79,5.21-16.83,8.52-21.39,11.51-2.4,1.57-4.67,3.06-7.67,4.63-10.25,5.37-32.02,11.68-39.62,12.08-2.51.13-3.34,1.8-3.59,3.18-.44,2.42.7,5.13,2.49,5.92.76.33,1.1,1.22.77,1.98-.25.56-.8.9-1.37.9Zm71.83-31.15c.72,3.56,3.04,6.6,5.71,7.25,1.77.43,3.29.09,4.68-1.04,2.87-2.34,4.27-7.41,4.17-10.17-.05-1.57-1.9-3.27-3.66-3.37-2.12-.17-3.66,2.04-4.25,5.93-.11.72-.72,1.26-1.45,1.27l-5.21.12Z"/>
    <path class="cls-1" d="m177.82,163.22c-.63,0-1.22-.4-1.43-1.04-.26-.79.17-1.63.96-1.89.24-.08,24.72-7.99,44.68-9.43.82-.07,1.54.56,1.6,1.39s-.56,1.54-1.39,1.6c-19.59,1.42-43.73,9.21-43.97,9.29-.15.05-.31.07-.46.07Z"/>
    <path class="cls-1" d="m183.71,161.45c-.28,0-.56-.08-.81-.24-.16-.1-3.85-2.53-4.26-6.29-.24-2.14.6-4.21,2.49-6.13.58-.59,1.53-.6,2.12-.02.59.58.6,1.53.02,2.12-1.22,1.25-1.78,2.49-1.65,3.69.25,2.34,2.89,4.1,2.92,4.12.69.45.89,1.38.44,2.07-.29.44-.77.68-1.26.68Z"/>
    <path class="cls-1" d="m174.95,164.29c-.43,0-.87-.19-1.16-.55-.17-.21-4.15-5.18-2.34-9.86.3-.77,1.17-1.16,1.94-.86.77.3,1.16,1.17.86,1.94-1.18,3.05,1.84,6.84,1.87,6.88.52.64.42,1.59-.22,2.11-.28.23-.61.34-.95.34Z"/>
    <path class="cls-1" d="m213.8,138.01c-.62,0-1.2-.38-1.41-1-.28-.78.13-1.64.91-1.92.25-.09,6.13-2.17,11.88-1.97.83.03,1.48.72,1.45,1.54s-.71,1.5-1.54,1.45c-5.19-.16-10.73,1.78-10.78,1.8-.17.06-.33.09-.5.09Z"/>
  </g>
</svg>