<?xml version="1.0" encoding="UTF-8"?>
<svg id="Layer_1" data-name="Layer 1" xmlns="http://www.w3.org/2000/svg" viewBox="0 0 246.9 240.47">
  <defs>
    <style>
      .cls-1, .cls-2 {
        stroke-width: 0px;
      }

      .cls-2 {
        fill: #ff2d20;
      }
    </style>
  </defs>
  <path class="cls-2" d="m235.26,110.95c-2.71-1.78-14.52,3.14-20.17-.9-5.65-4.04-8.51-15.88,2.22-9.48s13.58,10.59,16.85,8.73c3.26-1.85,7.34-22.22-.95-23.67-8.29-1.45-4.59,2.45-11.4,4.08-6.81,1.63-12.92-7.05-7.61-6.8,5.31.25,7.73,3.79,15.98-.16,8.25-3.94-.24-17.16-7.71-16.51l-7.47.65s1.12-73.32-69-63.02c-30.08,4.42-43.42,40.94-28.19,78.96-15.02,2.06-11.62,14.08-8.25,19.42s12.8-1.58,18.2-5.83c5.4-4.26,8.34,6.99,2.97,10.16-5.37,3.18-18.48-2.74-22.45-.89-3.97,1.85-6.32,10.49-.63,19.89,5.69,9.39,11.55,5.95,13.33.96s17.06-14.12,16.2-6.26c-.86,7.86-22.6,9.64-22.42,14.78.18,5.15,12.95,26.51,17.12,19.75,4.17-6.76,7.34-31.15,12.47-28.4,5.12,2.75,3.85,17.87-2.72,21.23-6.57,3.36-11.42,6.49-7.15,13.29,4.27,6.8,22.12,13.86,27.45,5.21,5.32-8.64-5.46-23.19-3.39-31.21,2.07-8.01,10.45-8.48,13.12-1.8s.59,25.08-5.18,30.97-.46,20.29,18.78,16.95,24.3-17.75,19.64-20.98c-4.66-3.23-16.72-11.66-18.97-22.93-2.25-11.28,4.44-18.94,8.86-8.52,4.42,10.42-2.24,19.6,5.61,25.56,7.85,5.96,19.26,1.94,24.66-3.55,4.78-4.86,5.58-12.6.2-15.28.85.08,1.8,0,2.89-.27,7.87-1.96,9.83-22.37,7.12-24.15Zm-15.99-39.88c2.45,0,4.44,1.99,4.44,4.44s-1.99,4.44-4.44,4.44-4.44-1.99-4.44-4.44,1.99-4.44,4.44-4.44Zm-103.35,26.96c-2.46,0-4.45-1.99-4.45-4.45s1.99-4.45,4.45-4.45,4.45,1.99,4.45,4.45-1.99,4.45-4.45,4.45Zm26.34-2.42l5.4-6.49,4.55,6.49h-9.94Zm15.13,0l2.64-5.71,5.18,5.08-7.83.63Zm15.43-1.02l2.37-7.87,7.18,6.07-9.56,1.8Zm14.93-3.11v-8.25l7.41,4.13-7.41,4.13Zm-17.42-3.87c-20.82,3.38-35.83-2.21-35.83-2.21l1.82,8.18c-6.58-1.82-26.99-31.66-14.9-60.8,9.69-23.35,36.01-27.72,53.74-21.58,17.72,6.14,27.52,22.37,31.9,37.61s3.24,32.64.42,31.35c-2.81-1.29-2.46-7.7-2.46-7.7,0,0-13.87,11.77-34.68,15.15Zm28.49-1.96l-.46-7.28,4.79,4.24-4.33,3.04Zm3.52,32.83c-.33-4.95,10.64-4.51,13.8,3.14,2.25,5.44,3.39,10.95,6.69,12.97-7.93-1.39-20.16-11.17-20.48-16.12Z"/>
  <path class="cls-2" d="m104.77,157.92c-4.09-8.24-.83-10.75.31-12.15,1.13-1.4,3.9,3.77,9.44,11.28.81-2.46-.38-6.35-.38-6.35,0,0,5.12-.66,1.96-7.78-3.16-7.12-17.8-7.07-20.48,1.63-2.68,8.7.77,17.42.77,17.42,0,0-3.22-2.19-8.8-8.92-14.07-35.44-34.86-11.18-49.23-15.37,2.31,1.61,4.66,3.28,7,4.96l-.74.13c-3.98,2.1-11.31-2.2-11.31-2.2,0,0,3.06,10.87,8.03,13.87-3.39-.16-6,.23-7.62,1.29-5.1,3.34-26.56,37.56-23.07,47.79,4.41-10.55,17.79-36.8,17.79-36.8l2.64-.12s-16.93,34.1-16.41,39.16c9.35-12.14,22.45-40.2,22.45-40.2l1.21.24s-17.08,34.83-16.83,41.64c5.18-10.74,21.32-40.02,21.32-40.02l1.88.34s-18.09,33.04-18.09,41.53c8.43-11.57,21.66-40.96,21.66-40.96l1.75,1.35s-17.44,33.87-17.05,43.56c7.12-9.57,21.55-43.27,21.55-43.27l2.2,1.41s-17.62,34.25-16.76,42.1c5.61-5.28,20.52-41.08,20.52-41.08l1.84.35s-16.8,36.22-15.81,44.36c3.91-1.89,20.68-42.6,20.68-42.6l1.99,1.03s-18.07,37.33-15.34,45.24c7.44-6.66,19.84-42.67,19.84-42.67l2.6,1.73s-14.9,36.83-14.44,43.6c5.04-7.85,18.63-41.06,18.63-41.06l2,.57s-14.69,36.04-14.08,42.63c4.93-6.47,18.91-40.33,18.91-40.33l2.55,1.87s-16.45,38.31-15.42,42.62c7.47-13.49,18.58-40.06,18.58-40.06l1.05,1.01-14.1,42.46s8.05-11.16,13.08-24.2c4.28-11.09,8.08-22.29,5.46-29.57h0s5.07.45,8.1-3.8,2.3-9.39-1.8-17.63Z"/>
  <path class="cls-1" d="m76.88,235.12c-.23,0-.46-.05-.68-.16-.66-.34-.97-1.11-.74-1.81l8.39-25.26c-3.55,7.9-7.75,16.86-11.18,23.04-.3.54-.9.84-1.51.76-.61-.08-1.11-.53-1.26-1.13-1.03-4.28,10.67-32.27,15.03-42.46l-.05-.03c-2.98,7.13-13.98,33.14-18.37,38.9-.38.49-1.01.71-1.61.53-.59-.17-1.02-.69-1.08-1.3-.28-3.06,2.3-11.48,5.34-20.12-3.45,7.78-7,15.36-9.12,18.67-.35.54-1.01.8-1.63.64-.63-.16-1.08-.71-1.12-1.35-.24-3.57,3.23-14.23,6.86-24.24-3.96,9.47-8.68,19.3-12.36,22.59-.37.34-.89.46-1.38.33-.49-.13-.88-.49-1.04-.96-.96-2.79.28-8.56,2.41-15.12-3.2,6.5-6.1,11.55-7.66,12.31-.44.21-.95.2-1.37-.03-.43-.23-.71-.66-.77-1.14-.34-2.78,1.13-8.31,3.3-14.59-2.84,5.55-5.52,10.16-7.33,11.87-.42.39-1.02.51-1.55.32-.53-.2-.91-.68-.97-1.25-.25-2.28.85-6.41,2.58-11.24-2.53,4.87-4.95,9.13-6.88,11.72-.38.51-1.04.73-1.65.54-.61-.19-1.03-.74-1.06-1.37-.14-3.49,1.84-9.79,4.5-16.58-2.81,5.2-5.67,10.05-8.15,13.45-.38.53-1.06.74-1.68.54-.62-.2-1.04-.78-1.04-1.43,0-2.85,1.86-8.18,4.39-14.11-2.7,5.1-5.14,9.81-6.65,12.92-.3.62-.98.96-1.66.82-.67-.14-1.17-.72-1.19-1.41-.08-2.29,1.52-7.24,3.78-12.98-2.68,4.61-5.42,8.92-7.91,12.16-.38.49-1.01.69-1.6.53-.59-.17-1.02-.68-1.08-1.29-.22-2.1,1.94-8.02,4.79-14.73-2.4,4.99-4.6,9.7-5.94,12.92-.24.58-.79.98-1.43.92-.62-.02-1.17-.42-1.37-1.01-2.22-6.51,4.32-20.13,8.41-27.68,5.51-10.15,12.35-19.95,15.25-21.85,5.21-3.41,18.55-1.26,39.64,6.39h0c11.92,4.33,18.97,7.11,25.05,14.06,6.5,7.42,1.99,21.14-3.19,34.56-5.04,13.07-12.93,24.08-13.26,24.54-.29.4-.75.62-1.22.62Zm13.05-46.47c.38,0,.76.15,1.04.42l1.05,1.01c.42.4.57,1.01.38,1.55l-10.11,30.44c2.13-3.83,4.41-8.39,6.26-13.19,4.85-12.56,9.13-25.34,3.73-31.5-5.62-6.4-12.03-8.93-23.82-13.21-27.42-9.95-34.99-8-36.98-6.7-1.35.89-3.91,4.08-6.85,8.44.21-.12.44-.19.68-.2l2.64-.12c.52-.02,1.04.23,1.33.68.29.44.32,1.01.09,1.49-4.28,8.62-10.17,21.15-13.56,29.61,8.14-13.26,16.79-31.73,16.9-31.95.29-.63.98-.97,1.66-.84l1.21.24c.46.09.84.39,1.05.81.21.42.21.91,0,1.32-3.32,6.78-7.42,15.58-10.73,23.36,6.02-11.26,12.45-22.94,12.55-23.12.31-.56.94-.86,1.58-.75l1.88.34c.47.09.88.39,1.09.83.21.44.19.94-.04,1.37-3.54,6.48-11.12,21.05-15.18,31.3,7.57-13.24,15.96-31.83,16.07-32.07.19-.42.56-.73,1-.84.45-.11.92-.01,1.28.27l1.75,1.35c.57.44.75,1.23.42,1.87-3.7,7.18-11.89,24.15-15.33,35.07,7.29-13.19,16.99-35.78,17.11-36.06.17-.41.52-.71.94-.84.42-.13.88-.07,1.25.17l2.2,1.41c.65.42.88,1.26.52,1.95-3.79,7.37-12.23,24.75-15.4,34.88,5.37-9.41,13.21-27.38,16.44-35.12.27-.66.97-1.03,1.67-.9l1.84.35c.45.09.84.38,1.05.79s.22.9.03,1.32c-3.76,8.1-12.27,27.63-14.92,38.05,4.05-7.39,11.02-22.89,17.04-37.49.16-.39.48-.69.87-.84.4-.14.83-.12,1.21.08l1.98,1.03c.72.38,1.01,1.25.66,1.98-5.88,12.15-14.21,31.85-15.36,40.65,7.13-10.44,16.98-38.9,17.09-39.22.15-.44.5-.78.94-.93.44-.15.92-.09,1.31.17l2.6,1.73c.59.39.83,1.15.56,1.81-3.77,9.32-8.66,22.22-11.65,31.6,5.79-12.44,12.96-29.96,13.06-30.2.29-.71,1.05-1.08,1.8-.88l2,.57c.41.12.75.4.94.79.19.38.2.83.04,1.22-4,9.83-9.28,23.71-12.07,32.96,5.94-12.01,14.02-31.54,14.12-31.8.18-.43.54-.75.98-.87.44-.12.92-.04,1.29.23l2.55,1.87c.56.41.77,1.16.49,1.8-3.91,9.11-7.82,18.76-10.72,26.51,5.71-12.21,11.04-24.94,11.12-25.12.19-.46.59-.79,1.08-.89.1-.02.2-.03.3-.03Zm-66.45-20.99c-5.5,8.46-11.87,20.28-14.03,28.54,4.82-10.32,11.96-24.46,14.03-28.54Z"/>
  <path class="cls-1" d="m39.29,156.9c-.17,0-.34-.03-.51-.09-6.11-2.21-9.59-14.02-9.97-15.36-.17-.59.04-1.22.53-1.59.48-.38,1.15-.42,1.68-.11,1.72,1,7.21,3.56,9.85,2.17.73-.38,1.64-.11,2.03.63.39.73.1,1.64-.63,2.03-2.83,1.49-6.69.48-9.45-.63,1.48,3.87,4.03,8.97,6.98,10.04.78.28,1.18,1.14.9,1.92-.22.61-.8.99-1.41.99Z"/>
  <path class="cls-1" d="m95.83,181.37c-.31,0-.5-.01-.54-.02-.83-.07-1.44-.8-1.37-1.62.07-.83.81-1.44,1.62-1.37.16.01,4.27.29,6.75-3.19,2.58-3.61,2.04-8.12-1.92-16.09-4.2-8.45-1.23-11.81.2-13.43.11-.12.21-.23.29-.33.43-.53,1.01-.81,1.68-.78,1.67.06,2.97,1.94,6.12,6.47.41.59.84,1.2,1.29,1.85-.11-.53-.22-.96-.3-1.22-.13-.42-.07-.88.17-1.25s.63-.62,1.07-.67c.02,0,.96-.16,1.41-.99.52-.95.29-2.62-.63-4.69-1.21-2.73-4.99-4.47-9.14-4.22-3.34.2-7.34,1.8-8.54,5.68-2.49,8.11.7,16.34.74,16.43.24.61.06,1.31-.46,1.72-.51.41-1.24.44-1.78.07-.14-.09-3.46-2.38-9.11-9.21-.1-.12-.18-.26-.24-.4-9.13-22.99-20.39-19.71-32.33-16.24-3.51,1.02-6.9,2.01-10.15,2.26,1.23.88,2.46,1.76,3.67,2.63,8.77,6.3,17.04,12.24,22.67,14.33,6.77,2.52,10.57.51,10.73.43.72-.4,1.63-.14,2.04.58.4.72.16,1.62-.55,2.03-.2.12-5.07,2.82-13.26-.22-6-2.23-14.43-8.29-23.37-14.71-2.68-1.93-5.46-3.92-8.14-5.78-.6-.42-.81-1.21-.5-1.88.32-.66,1.07-1,1.77-.79,4.11,1.2,9.04-.24,14.26-1.75,11.47-3.34,25.73-7.49,35.86,17.79,1.87,2.25,3.47,3.97,4.75,5.25-.65-3.5-.99-8.43.54-13.41,1.38-4.48,5.68-7.46,11.23-7.8,5.47-.32,10.32,2.08,12.06,6,1.36,3.07,1.53,5.56.49,7.41-.55.99-1.33,1.58-2.03,1.94.32,1.52.65,3.96.02,5.86-.18.53-.63.92-1.19,1.01-.56.09-1.11-.14-1.44-.59-1.57-2.13-2.89-4.03-4.06-5.71-1.36-1.96-2.77-3.98-3.58-4.85-1.14,1.33-2.66,3.62.44,9.88,4.48,9.01,4.96,14.56,1.67,19.17-2.91,4.08-7.37,4.45-8.91,4.45Z"/>
  <path class="cls-1" d="m73.16,155c-.16,0-.32-.02-.48-.08-.48-.16-11.77-3.98-19.05-10.96-.6-.57-.62-1.52-.05-2.12.57-.6,1.52-.62,2.12-.05,6.8,6.51,17.81,10.24,17.92,10.28.79.26,1.21,1.11.95,1.9-.21.63-.79,1.02-1.42,1.02Z"/>
  <path class="cls-1" d="m77.56,154.63c-.61,0-1.18-.37-1.4-.97-.02-.06-2.47-6.31-8.61-9.17-.75-.35-1.08-1.24-.73-1.99.35-.75,1.24-1.08,1.99-.73,7.26,3.38,10.03,10.53,10.14,10.83.29.78-.1,1.64-.87,1.93-.17.07-.35.1-.53.1Z"/>
  <path class="cls-1" d="m183.95,182.56c-10.52,0-14.54-5.89-15.62-7.94-1.38-2.64-1.69-5.54-.99-8.08-1.9,2.98-5.21,4.57-9.57,4.59h-.08c-7.36,0-17-4.71-20.27-9.92-1-1.6-1.59-3.08-1.78-4.49-.83.41-1.79.49-2.8.22-6.21-1.65-15.2-17.54-15.36-22.35-.03-.84.22-1.57.71-2.23-2.17-.41-4.87-2.03-7.6-6.53-3.37-5.57-4.45-11.58-2.96-16.48.82-2.68,2.32-4.65,4.24-5.55.4-.18.84-.31,1.33-.39-.25-.27-.48-.56-.68-.89-2.4-3.8-4.4-9.97-2.13-14.84,1.56-3.34,4.78-5.54,9.58-6.55-8.15-21.54-7.64-43.64,1.45-59.44,6.33-11.01,16.49-18.06,28.59-19.83,20.73-3.04,37.4.82,49.56,11.49,18.96,16.64,20.95,44.28,21.14,51.38l5.86-.51c5.52-.5,10.95,4.97,12.36,10.16,1.06,3.88-.21,7.19-3.4,8.95.64.05,1.35.15,2.17.29,2.15.38,4.9,1.94,5.82,7.26,1.02,5.88-.77,14.94-3.32,18.21.04.02.08.05.12.07,2.96,1.95,1.46,11.26,1.28,12.32-.65,3.8-2.76,12.69-8.52,14.44.5.68.89,1.46,1.17,2.32,1.3,4.04-.27,9.24-3.91,12.93-4.49,4.55-13.6,8.74-21.68,6.25.48.34.92.64,1.3.91,1.95,1.35,2.7,4,2.02,7.09-1.45,6.59-8.9,14.28-22.26,16.6-2.11.37-4.03.53-5.77.53Zm-14.22-56.07c3.28,0,6.14,2.1,7.54,5.59,2.75,6.86,1.03,25.92-5.5,32.58-2.05,2.09-2.36,5.54-.77,8.58,2.72,5.17,9.52,7.35,18.22,5.85,13.7-2.38,18.91-10.1,19.84-14.29.41-1.83.1-3.36-.8-3.98-4.7-3.26-17.2-11.92-19.58-23.87-1.44-7.24.49-13.86,4.4-15.06,1.3-.4,4.63-.65,7.31,5.66,2.06,4.86,1.87,9.41,1.7,13.42-.21,5.02-.36,8.65,3.44,11.53,7.22,5.48,17.81,1.54,22.69-3.41,2.83-2.87,4.14-6.94,3.19-9.9-.4-1.24-1.17-2.19-2.29-2.83-.99-.11-1.86-.41-2.63-.85-7.95-1.6-21-11.4-21.4-17.43-.15-2.27,1.33-4.05,3.86-4.64,4.36-1.01,10.55,1.6,12.82,7.11.57,1.38,1.07,2.76,1.54,4.08,1.47,4.06,2.55,6.81,4.31,8.04.83.17,1.6.41,2.3.74.62.02,1.31-.07,2.09-.26,2.11-.52,4.03-3.07,5.41-7.17,2.1-6.24,2.03-13.1,1.2-14.3-.73-.35-3.62.07-5.56.34-4.78.68-10.72,1.53-14.6-1.25-3.92-2.81-7.05-9.37-5-12.51,1.02-1.56,3.4-2.74,8.87.52,3.73,2.23,6.49,4.17,8.7,5.72,3.96,2.78,5.4,3.71,6.64,3,1.4-.89,4.12-10.04,2.85-16.41-.53-2.68-1.65-4.18-3.32-4.48-3.92-.69-4.4-.14-5.29.86-.9,1.01-2.13,2.4-5.51,3.21-4.18,1-8.21-1.25-10.18-3.77-1.26-1.61-1.62-3.23-.99-4.45.32-.62,1.14-1.64,3.28-1.53,1.82.08,3.29.51,4.71.92,2.88.83,5.38,1.54,10.55-.93,2.8-1.34,2.78-3.84,2.27-5.7-1.08-3.96-5.33-8.29-9.21-7.96l-7.47.65c-.42.03-.84-.11-1.15-.4-.31-.29-.48-.7-.48-1.12,0-.33.24-32.88-20.15-50.75-11.47-10.05-27.33-13.68-47.13-10.77h0c-11.33,1.66-20.47,8.01-26.42,18.36-8.88,15.43-9.1,37.32-.59,58.56.17.43.14.91-.1,1.31-.23.4-.64.67-1.09.73-4.76.65-7.84,2.39-9.13,5.16-1.88,4.03.34,9.42,1.95,11.97.43.68.98,1.06,1.74,1.19,3.99.68,11.72-5.4,14.26-7.4,2.2-1.73,4.01-1.32,4.89-.92,1.9.86,3.18,3.17,3.34,6.03.18,3.23-1.19,6.11-3.56,7.52-3.49,2.07-9.03.98-14.37-.07-3.24-.64-6.91-1.36-8.21-.75-1.12.52-2.08,1.87-2.64,3.7-1.22,4.02-.23,9.28,2.66,14.05,2.15,3.55,4.48,5.38,6.57,5.17,1.68-.17,3.27-1.72,4.07-3.94,1.58-4.44,11.63-11.28,16.34-10.21.75.17,3.16,1.01,2.77,4.61-.57,5.21-7.75,7.87-14.09,10.21-3.13,1.16-8.37,3.1-8.33,4.35.13,3.94,8.73,18.38,13.14,19.55.5.13.83.09,1.21-.54,1.49-2.41,2.95-7.62,4.36-12.65,2.63-9.39,4.44-15.18,7.38-16.43.89-.38,1.83-.33,2.72.14,2.55,1.37,3.99,4.88,3.94,9.63-.05,5.42-2.14,11.93-6.69,14.26-3.73,1.91-7.13,3.82-7.82,6.31-.37,1.34.04,2.92,1.25,4.85,2.48,3.95,10.75,8.51,17.72,8.51h.07c3.38-.01,5.78-1.12,7.11-3.29,2.67-4.33.61-10.75-1.38-16.96-1.64-5.12-3.19-9.96-2.19-13.83,1.14-4.42,4.18-7.31,7.93-7.55.17-.01.33-.02.5-.02Zm-.02,3c-.09,0-.19,0-.29,0-2.42.15-4.42,2.19-5.22,5.31-.78,3.03.64,7.47,2.14,12.17,1.78,5.56,3.77,11.75,2.23,16.87.31-.46.65-.89,1.04-1.29,5.09-5.19,7.43-22.93,4.86-29.36-.92-2.31-2.73-3.7-4.77-3.7Zm24.53-4.79c-.1,0-.2.01-.29.04-1.79.55-3.59,5.35-2.34,11.61,1.08,5.44,4.63,10.22,8.44,14.01-1.25-2.91-1.12-6.16-.97-9.53.16-3.88.33-7.88-1.46-12.12-1.06-2.5-2.35-4.01-3.37-4.01Zm-46.39,2.52c-1.79.18-4.39,9.47-5.79,14.46-.7,2.5-1.38,4.94-2.08,7.11,1.52-1.08,3.32-2.04,5.18-3,3.26-1.67,5.01-7.11,5.06-11.62.03-3.44-.89-6.17-2.36-6.96Zm63-11.01c-.45,0-.87.04-1.24.13-1.62.38-1.57,1.24-1.55,1.52.21,3.2,7.78,10,14.61,13.18-.84-1.66-1.53-3.54-2.2-5.41-.47-1.29-.95-2.63-1.5-3.96-1.56-3.79-5.39-5.47-8.12-5.47Zm-71.94,1.99c-3.31,0-11.2,5.22-12.31,8.34-.18.52-.4,1-.64,1.47.58-.22,1.18-.44,1.79-.67,5.25-1.94,11.78-4.36,12.15-7.73.13-1.22-.22-1.3-.46-1.36-.16-.04-.34-.05-.53-.05Zm77.66-18.5c-.37,0-.57.1-.63.19-.75,1.16.93,6.06,4.24,8.42,2.85,2.04,8,1.35,12.21.75-.94-.59-1.97-1.31-3.12-2.12-2.17-1.53-4.87-3.43-8.51-5.6-2.2-1.31-3.5-1.65-4.19-1.65Zm-95.01,4.59c.12.02.24.05.36.07,4.57.9,9.76,1.92,12.26.43,1.68-1,2.19-3.12,2.09-4.77-.1-1.85-.87-3.14-1.58-3.46-.47-.21-1.08-.03-1.8.54-3.49,2.76-7.6,5.74-11.34,7.19Zm96.37-20.37c.1.38.51,1.18,1.54,2.07.69.6,3.17,2.49,6.21,1.76,2.46-.59,3.22-1.45,3.96-2.28.01-.02.03-.03.04-.05-3.04.53-5.2-.1-7.32-.71-1.31-.38-2.55-.73-4.02-.8-.19,0-.32,0-.42.01ZM150.22,3.36h0,0Z"/>
  <path class="cls-1" d="m140.56,94.55c-.13,0-.27-.02-.4-.05-3.63-1-9.21-7.75-13.26-16.06-3.58-7.33-11-26.58-2.63-46.77,9.47-22.81,35.71-29.32,55.62-22.42,21.03,7.28,29.61,27.32,32.85,38.62,3.66,12.77,4.04,29.92.72,32.78-.68.59-1.57.72-2.37.35-2.21-1.01-2.99-3.81-3.24-6.09-4.86,3.51-16.82,11.03-33.04,13.66-16.2,2.63-28.85-.03-34.04-1.48l1.26,5.64c.12.51-.05,1.05-.43,1.41-.28.27-.65.41-1.03.41Zm23.61-84.82c-14.19,0-30.09,6.13-37.13,23.09-7.62,18.38-1.67,35.64,2.55,44.3,2.99,6.13,6.28,10.4,8.7,12.66l-1.02-4.58c-.12-.54.06-1.09.48-1.46.41-.36.99-.47,1.51-.28.15.05,14.92,5.4,35.07,2.14,20.17-3.27,33.82-14.7,33.95-14.81.46-.39,1.1-.46,1.64-.2.54.27.86.83.83,1.42-.1,1.9.22,4.63,1.06,5.78,1.28-3.25,1.65-16.54-1.96-29.1-3.08-10.74-11.2-29.77-30.95-36.61-4.29-1.49-9.39-2.36-14.73-2.36Z"/>
  <path class="cls-1" d="m120.16,99.01c-3.28,0-5.95-2.67-5.95-5.96s2.67-5.95,5.95-5.95,5.96,2.67,5.96,5.95-2.67,5.96-5.96,5.96Zm0-8.91c-1.63,0-2.95,1.33-2.95,2.95s1.33,2.96,2.95,2.96,2.96-1.33,2.96-2.96-1.33-2.95-2.96-2.95Z"/>
  <path class="cls-1" d="m223.51,80.93c-3.28,0-5.94-2.67-5.94-5.94s2.67-5.94,5.94-5.94,5.94,2.67,5.94,5.94-2.67,5.94-5.94,5.94Zm0-8.89c-1.62,0-2.94,1.32-2.94,2.94s1.32,2.94,2.94,2.94,2.94-1.32,2.94-2.94-1.32-2.94-2.94-2.94Z"/>
  <path class="cls-1" d="m156.44,96.59h-9.94c-.58,0-1.11-.34-1.36-.86-.25-.53-.17-1.15.21-1.6l5.39-6.49c.3-.36.75-.57,1.21-.54.47.02.9.25,1.17.64l4.55,6.49c.32.46.36,1.06.1,1.55-.26.5-.77.81-1.33.81Zm-6.75-3h3.86l-1.77-2.52-2.09,2.52Z"/>
  <path class="cls-1" d="m161.62,96.59c-.49,0-.95-.24-1.23-.64-.3-.44-.35-1-.13-1.49l2.64-5.71c.21-.44.61-.76,1.09-.85.48-.09.97.06,1.32.4l5.18,5.08c.42.41.56,1.03.36,1.58-.2.55-.7.94-1.29.98l-7.83.63s-.08,0-.12,0Zm3.11-4.65l-.67,1.45,1.99-.16-1.32-1.29Z"/>
  <path class="cls-1" d="m177.05,95.57c-.42,0-.83-.18-1.12-.5-.35-.39-.47-.93-.32-1.44l2.37-7.87c.15-.48.53-.86,1.01-1.01.48-.14,1.01-.04,1.39.29l7.18,6.07c.44.37.63.97.48,1.53-.15.56-.6.99-1.17,1.09l-9.56,1.8c-.09.02-.19.03-.28.03Zm3.15-6.75l-1,3.32,4.03-.76-3.03-2.56Z"/>
  <path class="cls-1" d="m191.98,92.46c-.26,0-.53-.07-.76-.21-.46-.27-.74-.76-.74-1.29v-8.25c0-.53.28-1.02.74-1.29.46-.27,1.02-.28,1.49-.02l7.41,4.13c.47.26.77.77.77,1.31s-.29,1.05-.77,1.31l-7.41,4.12c-.23.13-.48.19-.73.19Zm1.5-7.2v3.15l2.82-1.57-2.82-1.57Z"/>
  <path class="cls-1" d="m203.06,86.63c-.22,0-.44-.05-.65-.15-.49-.24-.81-.72-.85-1.26l-.46-7.28c-.04-.61.29-1.18.84-1.44.54-.27,1.2-.18,1.65.22l4.79,4.24c.34.3.53.75.5,1.21-.03.46-.26.88-.64,1.14l-4.33,3.04c-.26.18-.56.27-.86.27Zm1.27-5.25l.06.99.59-.41-.65-.57Z"/>
</svg>