<svg fill="none" height="501" viewBox="0 0 636 501" width="636" xmlns="http://www.w3.org/2000/svg"
     xmlns:xlink="http://www.w3.org/1999/xlink">

    <style>
        :root { fill:#222 }
        .accent { fill: #f9322c; }

        @media (prefers-color-scheme: dark) {
        :root {  fill: #f9322c; }
        .accent { fill:#dee2e6; }
        }
    </style>

    <mask id="a" height="501" maskUnits="userSpaceOnUse" width="636" x="0" y="0">
        <path d="m636 0h-636v501h636z" fill="#fff"/>
    </mask>
    <g mask="url(#a)">
        <path d="m271.263 403.52-1.418 26.151 22.281 15.815 2.724-28.106z" class="accent"/>
        <path d="m136.486 115.215 53.336 67.563 227.077-62.921-58.24-66.689z" class="accent"/>
        <path
            d="m62.579 180.457v24.939l88.843 142.662 154.634-48.017s5.655 16.848 26.809 12.065 21.145-25.803 21.145-25.803l135.481-36.46 3.926-23.483-340.614 95.951-90.2334-141.835z"
            class="accent"/>
        <path
            d="m66.0545 261.139 86.2695 140.266 346.053-92.897v26.001l-10.07.658-7.608-4.877-8.811 3.091-5.918-1.118-8.576 1.447-3.467.395-4.358-4.661-231.341 60.506-17.538 26.245-49.127 12.611-16.091-24.648.291-23.05-48.8363-80.465-7.9563 3.937-19.1437-28.726z"
            class="accent"/>
        <g>
            <path
                d="m188.084 180.129c-.441 0-.873-.207-1.136-.583l-50.142-69.301c-.273-.386-.348-.874-.179-1.316.16-.442.536-.771.987-.883l217.1-53.0641c.498-.1222 1.015.0376 1.362.4041l56.812 60.6c.338.357.46.874.328 1.344-.131.479-.507.845-.977.977l-223.77 61.765c-.122.038-.253.047-.375.047zm-47.775-69.837 48.339 66.811 220.576-60.882-54.651-58.2979z"/>
            <path
                d="m152.324 325.478c-.489 0-.949-.254-1.212-.686l-86.2693-143.612c-.3663-.61-.2254-1.39.3288-1.832l71.8875-56.973c.611-.489 1.494-.385 1.982.226.479.61.385 1.494-.225 1.982l-70.911 56.212 85.076 141.629 338.652-93.47-80.859-97.032c-.498-.601-.413-1.484.179-1.982.601-.498 1.484-.414 1.982.178l82.267 98.714c.31.366.404.864.263 1.324-.141.461-.507.809-.967.94l-341.789 94.335c-.122.037-.254.047-.376.047z"/>
            <path
                d="m188.084 194.186c-.441 0-.873-.207-1.136-.583l-50.142-69.301c-.179-.245-.273-.527-.273-.827v-14.067c0-.78.63-1.41 1.409-1.41.78 0 1.409.63 1.409 1.41v13.606l47.324 65.402v-9.707c0-.78.63-1.41 1.409-1.41.78 0 1.409.63 1.409 1.41v14.067c0 .611-.394 1.156-.977 1.344-.14.047-.291.066-.432.066z"/>
            <path
                d="m152.324 325.478c-.123 0-.245-.019-.376-.047-.752-.207-1.193-.978-.986-1.729l35.76-131.283c.132-.479.508-.855.987-.987l222.736-61.474v-12.986c0-.78.63-1.41 1.409-1.41.78 0 1.409.63 1.409 1.41v14.067c0 .63-.422 1.193-1.033 1.363l-222.99 61.549-35.554 130.512c-.169.629-.742 1.043-1.362 1.043z"/>
            <path
                d="m152.324 346.49c-.479 0-.949-.254-1.203-.676l-81.0555-133.896-5.2603-9.932c-.1033-.207-.1597-.432-.1597-.658v-20.879c0-.78.6294-1.41 1.409-1.41.7797 0 1.409.63 1.409 1.41v20.522l5.0537 9.547 78.3978 129.507v-15.974c0-.78.629-1.41 1.409-1.41.779 0 1.409.63 1.409 1.41v21.02c0 .63-.423 1.184-1.034 1.353-.122.038-.253.057-.375.057z"/>
            <path
                d="m152.324 346.488c-.62 0-1.184-.413-1.362-1.033-.207-.752.234-1.523.986-1.739l340.755-94.052v-19.95c0-.78.63-1.409 1.409-1.409.78 0 1.409.629 1.409 1.409v21.021c0 .629-.422 1.193-1.033 1.362l-341.789 94.335c-.122.038-.253.047-.375.047z"/>
            <path
                d="m152.324 399.337c-.479 0-.94-.244-1.203-.676l-86.2688-141.497c-.1315-.226-.2067-.48-.2067-.733v-55.094c0-.78.6294-1.409 1.409-1.409.7797 0 1.409.629 1.409 1.409v54.699l83.4515 136.874v-50.076c0-.78.629-1.409 1.409-1.409.779 0 1.409.629 1.409 1.409v55.094c0 .629-.423 1.184-1.024 1.353-.122.038-.254.056-.385.056z"/>
            <path
                d="m152.324 399.337c-.62 0-1.193-.413-1.362-1.043-.207-.752.244-1.522.995-1.729l340.746-91.807v-54.013c0-.779.63-1.409 1.409-1.409.78 0 1.409.63 1.409 1.409v55.094c0 .639-.432 1.193-1.042 1.362l-341.789 92.089c-.122.038-.244.047-.366.047z"/>
            <path
                d="m152.324 426.306c-.479 0-.94-.244-1.203-.676l-17.5-28.698c-.084-.132-.141-.282-.178-.442l-4.161-19.413-42.8062-70.129-3.964 3.12c-.3194.254-.7233.348-1.1178.282-.3945-.075-.7421-.31-.9488-.658l-15.5836-25.559c-.1315-.226-.2067-.479-.2067-.733v-26.969c0-.78.6294-1.41 1.409-1.41.7797 0 1.409.63 1.409 1.41v26.574l14.5504 23.868 3.9641-3.12c.3193-.253.7232-.347 1.1178-.282.3945.076.742.31.9487.658l43.7541 71.688c.085.132.141.282.179.442l4.161 19.414 14.767 24.215v-21.951c0-.779.629-1.409 1.409-1.409.779 0 1.409.63 1.409 1.409v26.969c0 .63-.423 1.184-1.024 1.353-.122.038-.254.057-.385.057z"/>
            <path
                d="m152.324 426.304c-.62 0-1.193-.413-1.362-1.043-.207-.752.244-1.522.995-1.729l55.459-14.941 14.212-17.638c.188-.235.442-.394.733-.479l226.738-61.549c.442-.122.93-.019 1.287.291l6.294 5.366c.591.507.667 1.391.159 1.983-.507.592-1.39.667-1.982.159l-5.72-4.886-225.583 61.23-14.212 17.637c-.188.235-.442.395-.733.48l-55.9 15.063c-.122.037-.244.047-.367.047z"/>
            <path
                d="m487.8 335.918c-.62 0-1.193-.413-1.362-1.043-.207-.751.244-1.522.996-1.729l5.269-1.419v-25.888c0-.78.63-1.409 1.409-1.409.78 0 1.409.629 1.409 1.409v26.969c0 .639-.432 1.193-1.042 1.363l-6.313 1.7c-.122.038-.244.047-.366.047z"/>
            <path
                d="m334.34 349.947c-.78 0-1.409-.63-1.409-1.41v-34.223c0-.78.629-1.41 1.409-1.41.779 0 1.409.63 1.409 1.41v34.223c0 .78-.63 1.41-1.409 1.41z"/>
            <path
                d="m323.481 317.387c-4.64 0-8.454-1.118-11.403-3.345-5.834-4.417-5.937-11.493-5.937-11.793 0-.78.62-1.41 1.399-1.419.771 0 1.4.62 1.409 1.4 0 .084.132 6.033 4.847 9.584 4.321 3.252 11.104 3.637 20.149 1.138 21.267-5.873 18.609-22.534 18.487-23.239-.132-.761.375-1.494 1.136-1.635s1.494.367 1.635 1.137c.037.198 3.287 19.884-20.516 26.452-4.161 1.147-7.909 1.72-11.234 1.72z"/>
            <path d="m317.394 299.76s.066 11.201 15.434 6.953c13.16-3.636 11.234-14.32 11.234-14.32"/>
            <path
                d="m383.618 409.287s-.066 0-.094 0c-6.472-.442-11.545-5.864-11.545-12.347 0-4.699 2.612-8.937 6.829-11.06 1.747-.884 3.626-1.325 5.561-1.325 5.89 0 11 4.191 12.146 9.97.16.798.244 1.616.244 2.424 0 .639-.056 1.297-.178 2.02-.123.715-.761 1.213-1.485 1.175h-.14c-.17-.019-.348-.038-.517-.038-4.706 0-8.67 3.374-9.431 8.016-.113.686-.705 1.184-1.39 1.184zm.751-21.932c-1.493 0-2.94.348-4.293 1.024-3.25 1.645-5.279 4.915-5.279 8.542 0 4.604 3.307 8.513 7.722 9.387 1.427-5.149 6.002-8.814 11.413-9.03 0-.122 0-.235 0-.348 0-.62-.066-1.249-.188-1.879-.883-4.464-4.828-7.696-9.384-7.696z"/>
            <path
                d="m395.134 396.188c-.207 0-.423-.047-.62-.141-.395-.197-.676-.563-.761-.996-.883-4.463-4.828-7.696-9.384-7.696-1.493 0-2.94.348-4.293 1.025-.394.197-.854.197-1.249 0-.395-.198-.676-.555-.761-.987-.16-.799-.244-1.616-.244-2.424 0-6.832 5.561-12.395 12.39-12.395 3.09 0 6.059 1.156 8.351 3.261 2.564 2.349 4.029 5.676 4.029 9.134 0 .225-.018.451-.028.676v.141c-.291 4.351-2.893 8.279-6.791 10.243-.198.103-.414.15-.63.15zm-10.765-11.652c5.223 0 9.826 3.289 11.61 8.063 2.18-1.663 3.589-4.21 3.767-6.991v-.16c.019-.16.038-.32.038-.479 0-2.669-1.137-5.244-3.119-7.057-1.775-1.626-4.067-2.519-6.453-2.519-5.279 0-9.572 4.295-9.572 9.576v.141c1.202-.386 2.452-.583 3.729-.583z"/>
            <path
                d="m408.548 389.996c-3.091 0-6.059-1.156-8.351-3.261-.319-.291-.479-.705-.451-1.128v-.159c.019-.16.038-.32.038-.479 0-2.669-1.137-5.244-3.119-7.057-.319-.292-.479-.705-.451-1.128.357-5.488 4.359-10.13 9.732-11.295.873-.188 1.756-.282 2.621-.282 5.758 0 10.717 3.919 12.042 9.528.225.959.348 1.927.348 2.866 0 6.832-5.561 12.395-12.39 12.395zm-5.956-4.915c1.691 1.353 3.786 2.096 5.956 2.096 5.279 0 9.572-4.295 9.572-9.576 0-.714-.094-1.465-.273-2.208-1.024-4.332-4.856-7.358-9.299-7.358-.667 0-1.353.076-2.029.217-3.936.845-6.923 4.125-7.449 8.09 2.245 2.312 3.513 5.413 3.513 8.636v.113z"/>
            <path
                d="m419.219 376.473c-.639 0-1.221-.442-1.372-1.081-1.024-4.332-4.847-7.358-9.299-7.358-.667 0-1.353.075-2.029.216-.742.16-1.494-.31-1.663-1.052-.225-.968-.347-1.926-.347-2.866 0-6.832 5.561-12.394 12.39-12.394s12.39 5.562 12.39 12.394c0 5.798-4.105 10.891-9.77 12.112-.103.019-.197.029-.3.029zm-10.671-11.267c5.27 0 9.854 3.27 11.619 8.119 3.72-1.354 6.303-4.952 6.303-8.993 0-5.281-4.292-9.575-9.571-9.575-5.28 0-9.572 4.294-9.572 9.575 0 .31.018.62.047.93.394-.037.779-.056 1.174-.056z"/>
            <path
                d="m427.879 365.742c-.779 0-1.409-.63-1.409-1.41 0-5.281-4.292-9.575-9.571-9.575-.78 0-1.409-.63-1.409-1.409 0-6.832 5.56-12.395 12.389-12.395 1.935 0 3.805.442 5.561 1.325 4.218 2.124 6.829 6.362 6.829 11.07 0 .723-.065 1.456-.206 2.236-.31 1.701-.949 3.279-1.898 4.689-.084.132-.197.244-.319.338-.864.658-1.606 1.429-2.179 2.284-.085.131-.198.244-.32.338-2.17 1.644-4.753 2.509-7.458 2.509zm-9.478-13.71c5.637.686 10.117 5.168 10.803 10.806 1.531-.216 2.978-.798 4.264-1.719.686-.968 1.522-1.842 2.48-2.603.667-1.043 1.118-2.19 1.344-3.439.112-.611.159-1.175.159-1.729 0-3.637-2.019-6.907-5.279-8.552-1.352-.676-2.799-1.024-4.293-1.024-4.828 0-8.839 3.599-9.478 8.251z"/>
            <path
                d="m463.114 352.749s-.075 0-.113 0c-.441-.038-.836-.273-1.07-.639-1.644-2.566-4.443-4.201-7.478-4.379-.375-.019-.732-.197-.976-.479-.245-.282-.376-.658-.348-1.034v-.066c.019-.206.028-.413.028-.62 0-1.081-.188-2.161-.563-3.214-.066-.188-.094-.394-.076-.592.526-6.361 5.946-11.351 12.334-11.351 2.649 0 5.176.836 7.317 2.406.329.235.536.61.573 1.005.038.404-.103.799-.375 1.099-1.691 1.786-2.621 4.126-2.621 6.569 0 1.954.592 3.843 1.71 5.45.281.413.328.949.122 1.4-.216.451-.648.761-1.146.808-2.405.216-4.631 1.344-6.256 3.167-.273.301-.649.47-1.052.47zm-7.139-7.687c2.837.489 5.43 1.964 7.308 4.144 1.4-1.193 3.034-2.058 4.8-2.537-.761-1.626-1.155-3.402-1.155-5.225 0-2.602.808-5.102 2.311-7.197-1.353-.705-2.837-1.072-4.378-1.072-4.837 0-8.961 3.703-9.496 8.486.366 1.108.573 2.245.62 3.392z"/>
            <path
                d="m442.937 357.888s-.056 0-.085 0c-1.7-.103-3.315-.536-4.818-1.287-.555-.282-.865-.893-.752-1.513.113-.621.16-1.175.16-1.729 0-3.637-2.02-6.907-5.279-8.551-.554-.282-.864-.893-.752-1.513 1.071-5.892 6.191-10.158 12.174-10.158 5.214 0 9.901 3.307 11.657 8.231.489 1.363.733 2.763.733 4.163 0 .282-.019.555-.037.827-.057.761-.696 1.41-1.475 1.363l-.263-.019c-.104 0-.216-.019-.32-.019-4.997 0-9.177 3.9-9.534 8.889-.056.743-.667 1.307-1.409 1.307zm-2.724-3.411c.488.188.996.329 1.512.432 1.062-5.497 5.777-9.679 11.413-10.017-.056-.864-.244-1.729-.545-2.584-1.362-3.806-4.978-6.362-9.008-6.362-4.293 0-8.003 2.838-9.177 6.888 3.635 2.255 5.852 6.193 5.852 10.515 0 .367-.019.743-.056 1.118z"/>
            <path
                d="m502.05 351.149c-.573 0-1.08-.338-1.296-.865-1.494-3.589-4.96-5.901-8.84-5.901-.46 0-.967.047-1.531.132-.441.075-.901-.076-1.211-.395s-.47-.771-.395-1.212c.075-.508.113-.987.113-1.447 0-1.964-.601-3.862-1.729-5.479-.253-.357-.319-.817-.188-1.24.132-.423.461-.752.874-.902 1.325-.461 2.696-.695 4.067-.695 6.829 0 12.39 5.562 12.39 12.394 0 1.635-.319 3.242-.948 4.755-.216.526-.733.864-1.306.864zm-10.136-9.594c3.767 0 7.243 1.691 9.553 4.501.01-.179.019-.357.019-.536 0-5.281-4.293-9.575-9.572-9.575-.479 0-.967.037-1.446.113.808 1.672 1.23 3.505 1.23 5.384v.103h.207z"/>
            <path
                d="m480.323 353.789c-.46 0-.893-.225-1.156-.601-1.239-1.785-3.062-3.101-5.128-3.721-1.184-.357-2.424-.461-3.617-.357-.498.047-.995-.188-1.287-.602-1.446-2.086-2.207-4.529-2.207-7.057 0-3.176 1.202-6.192 3.391-8.504 2.367-2.509 5.561-3.881 8.989-3.881 4.03 0 7.825 1.983 10.145 5.291 1.466 2.095 2.245 4.548 2.245 7.094 0 .611-.047 1.222-.15 1.88-.094.601-.564 1.08-1.165 1.174-4.105.658-7.28 3.862-7.918 7.969-.094.601-.564 1.08-1.165 1.174l-.197.038c-.217.038-.433.075-.658.094-.047 0-.085 0-.132 0zm-9.018-7.545c1.193 0 2.386.178 3.542.517 2.029.601 3.87 1.729 5.335 3.241 1.324-3.974 4.584-7.019 8.689-8.062 0-.169.009-.329.009-.498 0-1.964-.601-3.862-1.728-5.478-1.794-2.566-4.725-4.088-7.834-4.088-2.649 0-5.12 1.062-6.942 3.007-1.691 1.785-2.621 4.125-2.621 6.568 0 1.701.442 3.336 1.297 4.802h.263z"/>
            <path
                d="m394.439 422.057c-6.829 0-12.39-5.563-12.39-12.395 0-.629.056-1.287.178-2.011.987-6.014 6.125-10.374 12.212-10.374.244 0 .479.019.714.029h.131c5.599.385 10.248 4.491 11.31 9.988.15.79.235 1.588.235 2.368 0 1.889-.432 3.721-1.268 5.441-2.104 4.285-6.36 6.954-11.122 6.954zm0-21.97c-4.706 0-8.67 3.373-9.431 8.015-.094.574-.141 1.081-.141 1.56 0 5.281 4.293 9.576 9.572 9.576 3.673 0 6.97-2.058 8.585-5.375.649-1.335.977-2.744.977-4.201 0-.601-.056-1.212-.178-1.832-.827-4.247-4.415-7.414-8.736-7.705h-.132c-.169-.019-.347-.038-.516-.038z"/>
            <path
                d="m415.067 424.775c-5.918 0-11.028-4.219-12.155-10.027-.057-.3-.019-.61.122-.892.648-1.335.977-2.744.977-4.201 0-.601-.057-1.212-.179-1.832-.056-.301-.019-.611.122-.893 2.105-4.285 6.36-6.953 11.122-6.953 1.616 0 3.203.31 4.706.93 4.669 1.917 7.684 6.418 7.684 11.464 0 1.316-.216 2.631-.639 3.909-1.681 5.074-6.406 8.485-11.751 8.485zm-9.3-10.13c1.034 4.257 4.875 7.311 9.3 7.311 4.124 0 7.778-2.631 9.074-6.559.329-.987.488-2.002.488-3.017 0-3.899-2.329-7.367-5.936-8.851-1.165-.48-2.386-.724-3.636-.724-3.522 0-6.697 1.898-8.388 4.98.094.63.15 1.259.15 1.88 0 1.729-.357 3.401-1.052 4.989z"/>
            <path
                d="m429.645 418.084c-1.615 0-3.203-.31-4.706-.93-.685-.282-1.033-1.043-.798-1.748.329-.987.488-2.002.488-3.016 0-3.9-2.329-7.367-5.936-8.852-.686-.282-1.034-1.043-.799-1.748.808-2.434 2.339-4.539 4.424-6.07 2.142-1.579 4.678-2.415 7.327-2.415 5.449 0 10.333 3.646 11.874 8.88.338 1.155.516 2.339.516 3.514 0 6.832-5.561 12.394-12.39 12.394zm-2.461-3.138c.799.216 1.625.319 2.461.319 5.279 0 9.572-4.294 9.572-9.575 0-.912-.131-1.823-.394-2.716-1.193-4.041-4.969-6.86-9.178-6.86-2.047 0-4.001.649-5.654 1.87-1.278.94-2.283 2.152-2.959 3.543 3.935 2.161 6.415 6.286 6.415 10.853 0 .855-.094 1.71-.272 2.556z"/>
            <path
                d="m440.175 403.98c-.15 0-.3-.028-.45-.075-.433-.151-.771-.498-.902-.94-1.193-4.041-4.969-6.86-9.178-6.86-2.047 0-4.001.649-5.654 1.87-.367.273-.855.348-1.287.198-.432-.151-.771-.498-.902-.94-.338-1.156-.517-2.33-.517-3.514 0-3.374 1.334-6.522 3.758-8.88 2.329-2.265 5.391-3.515 8.632-3.515 4.537 0 8.699 2.472 10.878 6.465.986 1.804 1.512 3.862 1.512 5.93 0 3.918-1.888 7.639-5.063 9.979-.244.179-.535.273-.836.273zm-10.52-10.684c4.725 0 9.027 2.744 11.093 6.888 1.607-1.748 2.508-4.022 2.508-6.456 0-1.597-.403-3.185-1.164-4.576-1.682-3.082-4.904-4.99-8.407-4.99-2.499 0-4.866.968-6.67 2.716-1.869 1.823-2.902 4.257-2.902 6.859 0 .282.009.574.037.856 1.7-.856 3.57-1.297 5.505-1.297z"/>
            <path
                d="m443.322 389.882c-.066 0-.141 0-.206-.018-.433-.066-.818-.329-1.024-.715-1.682-3.082-4.904-4.989-8.407-4.989-2.499 0-4.866.968-6.67 2.715-.319.31-.751.451-1.193.386-.432-.066-.817-.329-1.024-.715-.986-1.804-1.512-3.862-1.512-5.929 0-5.563 3.748-10.468 9.112-11.943 1.089-.301 2.188-.451 3.269-.451 6.096 0 11.234 4.369 12.211 10.393.113.714.178 1.371.178 2.001 0 3.373-1.333 6.521-3.757 8.88-.263.254-.62.395-.986.395zm-9.637-8.541c3.87 0 7.467 1.804 9.797 4.801 1.146-1.606 1.766-3.523 1.766-5.534 0-.48-.047-.987-.141-1.551-.761-4.651-4.725-8.025-9.431-8.025-.827 0-1.681.113-2.527.348-4.142 1.137-7.045 4.924-7.045 9.218 0 1.015.16 2.021.47 2.979 2.076-1.456 4.537-2.246 7.101-2.246z"/>
            <path
                d="m454.566 369.622c-.357 0-.704-.131-.967-.385-.282-.263-.442-.639-.442-1.024-.019-5.262-4.311-9.547-9.572-9.547-.15 0-.291.009-.432.018h-.169c-.404.038-.77-.103-1.052-.366s-.442-.639-.442-1.024c0-.301.019-.564.038-.827.46-6.54 5.89-11.596 12.352-11.596.169 0 .348.009.517.019h.16c3.992.244 7.618 2.368 9.75 5.685.338.536.291 1.231-.131 1.701-.479.535-.883 1.109-1.212 1.691-.799 1.429-1.221 3.035-1.221 4.67 0 1.833.526 3.609 1.521 5.159.339.536.292 1.231-.131 1.701-2.189 2.453-5.185 3.909-8.454 4.116-.028 0-.057 0-.085 0zm-10.154-13.738c5.899.395 10.69 4.943 11.45 10.731 1.654-.347 3.175-1.127 4.434-2.274-.911-1.757-1.4-3.711-1.4-5.694 0-2.114.545-4.201 1.579-6.042.253-.451.535-.884.845-1.306-1.681-2.096-4.189-3.402-6.895-3.562l-.244-.019c-.103 0-.216-.018-.319-.018-4.753 0-8.783 3.542-9.46 8.194z"/>
            <path
                d="m446.497 380.242c-.272 0-.535-.075-.761-.226-.338-.216-.563-.564-.629-.958-.761-4.652-4.725-8.025-9.431-8.025-.827 0-1.681.113-2.527.348-.385.103-.798.037-1.136-.179-.339-.216-.564-.564-.63-.958-.113-.724-.178-1.372-.178-2.002 0-2.481.732-4.877 2.113-6.925.761-1.119 1.71-2.115 2.818-2.96 1.935-1.466 4.246-2.321 6.679-2.472h.15c.207-.028.414-.037.63-.037 6.791 0 12.333 5.516 12.39 12.3v.085c0 5.563-3.748 10.477-9.121 11.943-.123.038-.245.047-.376.047zm-10.821-12.028c5.533 0 10.267 3.599 11.836 8.758 3.372-1.513 5.636-4.896 5.655-8.683 0-.028 0-.056 0-.085-.019-5.262-4.312-9.537-9.572-9.537-.151 0-.292.009-.432.018h-.17c-1.878.132-3.663.79-5.157 1.917-.864.658-1.606 1.429-2.179 2.284-1.061 1.579-1.625 3.43-1.625 5.347v.084c.554-.075 1.099-.113 1.644-.113z"/>
            <path
                d="m504.398 389.224c-6.829 0-12.39-5.563-12.39-12.394 0-.141 0-.282.019-.423v-.16c.141-2.894 1.287-5.648 3.241-7.781 2.348-2.565 5.673-4.04 9.13-4.04 6.829 0 12.39 5.563 12.39 12.394 0 .789-.075 1.607-.235 2.406-.047.225-.15.441-.291.62-1.005 1.212-1.691 2.678-2.001 4.229-.047.225-.15.441-.291.62-2.367 2.866-5.852 4.51-9.562 4.51zm0-21.97c-2.668 0-5.241 1.137-7.054 3.12-1.503 1.644-2.386 3.777-2.49 6.005v.216c-.018.075-.028.15-.028.225 0 5.281 4.293 9.576 9.572 9.576 2.762 0 5.354-1.175 7.177-3.233.404-1.748 1.174-3.392 2.273-4.802.085-.517.122-1.024.122-1.531 0-5.281-4.293-9.576-9.572-9.576z"/>
            <path
                d="m522.64 398.295s-.084 0-.131 0c-6.416-.583-11.254-5.883-11.254-12.338 0-.799.076-1.607.235-2.406.395-2.001 1.287-3.899 2.583-5.469 2.368-2.866 5.852-4.52 9.563-4.52 1.55 0 3.072.292 4.537.865.235.094.432.244.582.432.141.179.291.348.442.508.329.357.441.855.319 1.325-.235.855-.357 1.71-.357 2.537 0 3.712 2.179 7.113 5.561 8.682.639.301.958 1.025.752 1.692-.667 2.152-1.926 4.097-3.636 5.619-.291.254-.667.376-1.061.348-.291-.028-.583-.047-.874-.047-2.329 0-4.574.855-6.331 2.415-.263.225-.592.357-.93.357zm1.005-21.913c-2.865 0-5.561 1.268-7.392 3.486-1.005 1.212-1.691 2.678-2.001 4.228-.122.62-.188 1.241-.188 1.861 0 4.792 3.457 8.758 8.125 9.462 2.32-1.851 5.261-2.837 8.201-2.687.836-.836 1.512-1.804 1.982-2.866-3.701-2.218-6.031-6.258-6.031-10.628 0-.789.075-1.588.235-2.387-.958-.31-1.944-.469-2.95-.469z"/>
            <path
                d="m538.741 391.621c-1.795 0-3.542-.385-5.195-1.155-4.368-2.03-7.195-6.437-7.195-11.239 0-1.081.15-2.189.45-3.289.132-.498.526-.874 1.034-.996.498-.122 1.024.038 1.371.423.986 1.071 2.208 1.926 3.551 2.453 1.127.441 2.311.667 3.504.667 4.292 0 8.078-2.894 9.215-7.038.131-.499.526-.874 1.033-.997.498-.122 1.024.038 1.371.423 2.095 2.293 3.25 5.263 3.25 8.354 0 6.832-5.56 12.394-12.389 12.394zm-9.572-12.554v.16c0 3.712 2.179 7.113 5.56 8.683 1.278.592 2.631.892 4.012.892 5.279 0 9.571-4.294 9.571-9.575 0-1.579-.394-3.11-1.127-4.492-2.113 3.966-6.293 6.569-10.924 6.569-1.55 0-3.072-.292-4.537-.865-.902-.357-1.757-.817-2.555-1.372z"/>
            <path
                d="m524.707 373.316c-6.829 0-12.39-5.563-12.39-12.394 0-1.861.413-3.665 1.23-5.366.292-.601.959-.911 1.607-.751.789.197 1.568.291 2.31.291 3.701 0 7.008-2.086 8.614-5.432.291-.601.958-.911 1.607-.751 4.32 1.071 7.74 4.407 8.933 8.692.112.404.037.836-.198 1.174-.234.339-.62.564-1.033.602-4.969.441-8.708 4.538-8.708 9.528 0 .846.123 1.71.357 2.565.113.405.038.837-.197 1.175-.235.348-.62.564-1.033.601-.367.038-.733.057-1.109.057zm-9.027-15.542c-.357 1.015-.536 2.067-.536 3.148 0 5.037 3.899 9.171 8.84 9.547-.066-.517-.104-1.043-.104-1.56 0-5.845 3.974-10.75 9.488-12.047-1.062-2.255-2.969-4.031-5.327-4.905-2.536 4.154-7.345 6.578-12.371 5.817z"/>
            <path
                d="m536.261 381.315c-1.55 0-3.072-.292-4.537-.865-1.738-.686-3.335-1.785-4.603-3.176-.197-.216-.385-.432-.564-.658-1.033-1.297-1.775-2.772-2.226-4.369-.31-1.1-.46-2.218-.46-3.317 0-6.465 4.847-11.765 11.281-12.338.367-.029.733-.057 1.109-.057 6.829 0 12.39 5.563 12.39 12.395 0 1.09-.151 2.189-.451 3.288-1.475 5.366-6.378 9.106-11.939 9.106zm0-21.97c-.292 0-.583.019-.865.047-4.959.441-8.707 4.538-8.707 9.528 0 .846.122 1.71.357 2.565.347 1.241.92 2.378 1.719 3.374.141.178.291.338.441.507.977 1.072 2.208 1.927 3.551 2.453 1.127.442 2.311.667 3.504.667 4.292 0 8.078-2.894 9.215-7.038.234-.855.357-1.71.357-2.537 0-5.281-4.293-9.576-9.572-9.576z"/>
            <path
                d="m517.474 357.916c-.977 0-1.982-.122-2.987-.376-5.533-1.372-9.394-6.314-9.394-12.018 0-4.896 2.894-9.341 7.374-11.323 1.597-.705 3.279-1.062 5.016-1.062 5.646 0 10.568 3.815 11.977 9.284.272 1.043.404 2.086.404 3.101 0 1.86-.413 3.664-1.231 5.365-2.057 4.266-6.434 7.029-11.159 7.029zm0-21.97c-1.334 0-2.64.273-3.87.827-3.457 1.532-5.702 4.971-5.702 8.749 0 4.397 2.987 8.213 7.261 9.284.789.197 1.569.291 2.311.291 3.701 0 7.007-2.086 8.614-5.431.629-1.316.948-2.707.948-4.144 0-.78-.103-1.588-.319-2.396-1.09-4.22-4.894-7.17-9.253-7.17z"/>
            <path
                d="m528.088 344.187c-.206 0-.422-.047-.61-.141-.376-.178-.648-.516-.752-.92-1.089-4.22-4.894-7.17-9.252-7.17-1.334 0-2.64.272-3.87.827-.376.169-.808.159-1.184-.019-.376-.179-.648-.517-.751-.921-.273-1.043-.404-2.086-.404-3.101 0-4.398 2.367-8.495 6.181-10.712 1.888-1.1 4.039-1.682 6.209-1.682 5.175 0 9.853 3.279 11.629 8.156.507 1.381.761 2.81.761 4.238 0 4.896-2.894 9.34-7.374 11.323-.179.085-.376.122-.573.122zm-10.614-11.05c5.044 0 9.515 3.054 11.413 7.602 2.668-1.748 4.33-4.746 4.33-8.006 0-1.1-.197-2.199-.582-3.27-1.372-3.769-4.988-6.306-8.98-6.306-1.672 0-3.335.451-4.791 1.297-2.95 1.71-4.772 4.886-4.772 8.279 0 .282.01.573.038.864 1.089-.31 2.207-.46 3.353-.46z"/>
            <path
                d="m533.95 330.392c-.16 0-.32-.028-.479-.085-.395-.141-.705-.451-.846-.845-1.371-3.768-4.987-6.306-8.98-6.306-1.672 0-3.334.451-4.79 1.297-.357.207-.789.254-1.184.104-.394-.141-.704-.451-.845-.846-.508-1.381-.761-2.8-.761-4.238 0-3.552 1.54-6.944 4.227-9.303 2.264-1.992 5.166-3.082 8.163-3.082 3.86 0 7.439 1.767 9.806 4.839 1.691 2.19 2.584 4.802 2.584 7.555 0 4.398-2.368 8.495-6.181 10.713-.216.122-.461.188-.705.188zm-10.305-10.045c4.575 0 8.755 2.556 10.897 6.512 2.179-1.804 3.485-4.511 3.485-7.377 0-2.123-.686-4.144-1.992-5.835-1.831-2.378-4.593-3.74-7.571-3.74-2.311 0-4.556.846-6.303 2.387-2.076 1.823-3.269 4.444-3.269 7.188 0 .583.057 1.165.169 1.748 1.456-.583 3.025-.893 4.594-.893z"/>
            <path
                d="m537.144 314.201s-.094 0-.132 0c-.385-.037-.742-.235-.977-.545-1.832-2.377-4.593-3.74-7.571-3.74-2.311 0-4.556.846-6.303 2.387-.291.254-.676.385-1.061.348-.385-.038-.742-.235-.977-.545-1.691-2.19-2.583-4.802-2.583-7.555 0-3.458 1.474-6.794 4.039-9.143 2.292-2.096 5.26-3.252 8.341-3.252 3.739 0 7.242 1.663 9.61 4.576 1.794 2.199 2.78 4.981 2.78 7.819 0 3.552-1.541 6.944-4.227 9.302-.263.226-.592.348-.93.348zm-8.689-7.104c3.325 0 6.434 1.306 8.754 3.637 1.456-1.72 2.274-3.909 2.274-6.183s-.743-4.313-2.152-6.043c-1.831-2.245-4.537-3.533-7.42-3.533-2.386 0-4.669.893-6.444 2.509-1.992 1.814-3.128 4.389-3.128 7.057 0 1.654.413 3.242 1.221 4.661 2.038-1.372 4.434-2.114 6.895-2.114z"/>
            <path
                d="m538.421 299.025s-.066 0-.103 0c-.385-.028-.742-.216-.986-.516-1.832-2.246-4.537-3.534-7.421-3.534-2.386 0-4.669.893-6.444 2.509-.282.263-.658.404-1.052.367-.385-.028-.742-.216-.987-.517-1.794-2.199-2.78-4.98-2.78-7.818 0-2.462.723-4.849 2.095-6.888 2.311-3.449 6.152-5.497 10.295-5.497 2.339 0 4.622.667 6.613 1.926 3.616 2.293 5.777 6.202 5.777 10.468 0 3.458-1.475 6.794-4.039 9.143-.263.235-.601.367-.949.367zm-8.51-6.869c3.203 0 6.237 1.222 8.529 3.402 1.39-1.701 2.16-3.834 2.16-6.042 0-3.289-1.672-6.315-4.461-8.081-1.532-.978-3.297-1.485-5.101-1.485-3.194 0-6.172 1.588-7.956 4.247-1.062 1.579-1.616 3.421-1.616 5.328 0 1.72.47 3.421 1.343 4.896 2.076-1.466 4.547-2.255 7.102-2.255z"/>
            <path
                d="m521.898 284.817c-.263 0-.516-.075-.751-.216-3.617-2.293-5.777-6.202-5.777-10.468 0-2.02.498-4.022 1.446-5.798 2.161-4.069 6.35-6.587 10.944-6.587 2.207 0 4.386.601 6.303 1.738 3.757 2.228 6.087 6.306 6.087 10.656 0 2.462-.724 4.849-2.095 6.898-.432.629-1.278.817-1.926.404-1.531-.977-3.297-1.485-5.1-1.485-3.194 0-6.172 1.588-7.957 4.247-.272.404-.714.63-1.174.63zm5.862-20.259c-3.551 0-6.792 1.954-8.454 5.093-.742 1.39-1.118 2.903-1.118 4.482 0 2.857 1.258 5.516 3.428 7.33 2.339-2.735 5.759-4.332 9.413-4.332 1.85 0 3.672.413 5.335 1.212.639-1.306.977-2.735.977-4.21 0-3.411-1.757-6.484-4.706-8.232-1.484-.873-3.166-1.343-4.866-1.343z"/>
            <path
                d="m530.418 252.315c-.31 0-.611-.104-.874-.301-1.7-1.344-3.748-2.049-5.899-2.049s-4.199.705-5.899 2.049c-.507.404-1.23.404-1.738 0-3.015-2.368-4.743-5.92-4.743-9.745 0-6.831 5.561-12.394 12.39-12.394 2.536 0 4.978.771 7.063 2.218.339.235.555.601.592 1.005.038.404-.094.808-.366 1.109-1.644 1.776-2.555 4.088-2.555 6.493 0 3.129 1.54 6.061 4.114 7.856.338.235.554.601.592 1.005s-.094.808-.366 1.109c-.451.489-.94.93-1.447 1.334-.253.198-.564.301-.874.301zm-6.773-19.621c-5.279 0-9.572 4.294-9.572 9.575 0 2.603 1.043 5.046 2.884 6.841 1.992-1.287 4.284-1.964 6.679-1.964 1.465 0 2.884.254 4.227.743-1.475-2.077-2.301-4.577-2.301-7.179 0-2.603.779-5 2.216-7.067-1.287-.62-2.696-.949-4.142-.949z"/>
            <path
                d="m518.066 270.394c-.254 0-.498-.066-.714-.197-3.758-2.227-6.087-6.305-6.087-10.656 0-3.825 1.728-7.377 4.743-9.745 2.208-1.729 4.847-2.65 7.637-2.65s5.439.912 7.637 2.65c3.015 2.368 4.744 5.92 4.744 9.745 0 2.011-.498 4.022-1.447 5.798-.178.338-.488.592-.864.695s-.77.047-1.099-.141c-1.484-.874-3.166-1.344-4.866-1.344-3.551 0-6.791 1.955-8.454 5.093-.178.339-.488.592-.864.696-.122.037-.254.056-.385.056zm-.32-18.38c-2.329 1.832-3.673 4.576-3.673 7.527 0 2.95 1.315 5.638 3.57 7.442 2.301-3.27 6.059-5.253 10.117-5.253 1.681 0 3.353.348 4.903 1.015.366-1.024.554-2.105.554-3.214 0-2.95-1.334-5.694-3.673-7.526-1.7-1.344-3.748-2.049-5.899-2.049s-4.199.705-5.899 2.049z"/>
            <path
                d="m537.961 253.104c-2.536 0-4.979-.771-7.064-2.218-3.335-2.321-5.317-6.127-5.317-10.167 0-3.12 1.174-6.108 3.307-8.411 2.348-2.537 5.655-3.984 9.083-3.984 5.702 0 10.643 3.872 12.014 9.416.179.723-.234 1.466-.948 1.682-4.021 1.25-6.726 4.924-6.726 9.143 0 .742.094 1.522.291 2.302.179.724-.235 1.466-.949 1.682-1.183.367-2.423.555-3.682.555zm0-21.97c-2.687 0-5.176 1.09-7.017 3.082-1.644 1.776-2.555 4.088-2.555 6.493 0 3.129 1.54 6.061 4.114 7.856 2.067 1.438 4.641 2.001 7.083 1.579-.075-.536-.103-1.062-.103-1.588 0-4.981 2.912-9.378 7.383-11.342-1.419-3.637-4.913-6.08-8.905-6.08z"/>
            <path
                d="m550.811 260.903s-.094 0-.131 0c-5.214-.498-9.563-4.257-10.831-9.35-.244-1.006-.376-2.011-.376-2.979 0-5.459 3.504-10.214 8.708-11.84 1.184-.366 2.423-.554 3.682-.554 6.829 0 12.39 5.563 12.39 12.394 0 1.861-.413 3.665-1.23 5.366-.254.535-.818.845-1.4.789-.301-.028-.611-.047-.921-.047-3.701 0-7.007 2.086-8.613 5.431-.235.489-.733.799-1.268.799zm1.052-21.914c-.967 0-1.925.141-2.846.433-4.02 1.249-6.726 4.924-6.726 9.143 0 .742.094 1.522.291 2.302.902 3.636 3.833 6.39 7.449 7.094 2.208-3.739 6.294-6.107 10.662-6.107h.15c.395-1.062.592-2.162.592-3.289 0-5.281-4.293-9.576-9.572-9.576z"/>
            <path
                d="m568.508 273.362c-.056 0-.122 0-.178-.009-.432-.056-.827-.31-1.043-.695-1.71-2.979-4.884-4.83-8.304-4.83-2.573 0-4.997 1.015-6.81 2.847-.31.31-.751.47-1.183.404-.442-.056-.827-.31-1.043-.695-1.071-1.87-1.635-3.994-1.635-6.146 0-1.86.414-3.665 1.231-5.365 2.057-4.276 6.434-7.029 11.159-7.029.404 0 .799.019 1.184.056 6.387.611 11.197 5.911 11.197 12.329 0 3.279-1.268 6.371-3.579 8.701-.263.273-.629.423-1.005.423zm-9.525-8.353c3.758 0 7.299 1.729 9.629 4.613 1.07-1.578 1.653-3.439 1.653-5.374 0-4.962-3.72-9.059-8.652-9.529-.3-.028-.61-.047-.92-.047-3.701 0-7.008 2.086-8.614 5.432-.629 1.315-.949 2.706-.949 4.144 0 1.071.188 2.142.545 3.157 2.114-1.551 4.65-2.387 7.318-2.387z"/>
            <path
                d="m554.954 289.019c-.169 0-.348-.029-.517-.094-4.762-1.88-7.843-6.409-7.843-11.521 0-3.279 1.268-6.371 3.578-8.701 2.349-2.378 5.477-3.693 8.811-3.693 4.425 0 8.539 2.396 10.746 6.249 1.071 1.87 1.644 3.993 1.644 6.145 0 2.387-.685 4.708-1.991 6.719-.366.564-1.071.789-1.7.545-1.137-.451-2.311-.677-3.513-.677-3.251 0-6.256 1.635-8.032 4.389-.263.413-.714.639-1.183.639zm4.029-21.19c-2.573 0-4.997 1.015-6.81 2.847-1.785 1.804-2.761 4.191-2.761 6.728 0 3.59 1.963 6.794 5.072 8.448 2.339-2.951 5.88-4.67 9.685-4.67 1.146 0 2.282.159 3.381.479.658-1.316.996-2.772.996-4.247 0-1.654-.442-3.299-1.268-4.746-1.71-2.979-4.885-4.83-8.304-4.83z"/>
            <path
                d="m572.303 302.333c-.206 0-.423-.047-.62-.14-.46-.226-.873-.395-1.287-.527-.394-.122-.714-.423-.873-.798-1.494-3.571-4.96-5.883-8.83-5.883-2.292 0-4.509.827-6.247 2.331-.375.319-.883.422-1.343.272-.47-.15-.827-.526-.939-1.005-.254-1.015-.385-2.03-.385-3.017 0-2.387.685-4.708 1.991-6.718 2.301-3.552 6.19-5.676 10.398-5.676 1.55 0 3.082.291 4.547.874 4.762 1.879 7.843 6.408 7.843 11.52 0 3.064-1.136 6.014-3.203 8.298-.272.3-.657.46-1.042.46zm-.432-3.138h.028c1.193-1.635 1.851-3.599 1.851-5.638 0-3.947-2.377-7.442-6.059-8.899-1.137-.451-2.311-.676-3.513-.676-3.25 0-6.256 1.635-8.031 4.388-1.006 1.55-1.532 3.345-1.532 5.187v.197c1.851-1.052 3.946-1.607 6.097-1.607 4.8 0 9.111 2.744 11.168 7.039z"/>
            <path
                d="m557.34 316.409c-.141 0-.292-.018-.433-.065-5.147-1.654-8.604-6.39-8.604-11.793 0-3.599 1.569-7.02 4.302-9.378 2.255-1.946 5.12-3.017 8.088-3.017 5.007 0 9.497 2.988 11.432 7.621.216.507.112 1.09-.263 1.494-.376.404-.949.555-1.466.385-.948-.3-1.935-.46-2.93-.46-2.687 0-5.27 1.156-7.092 3.157-1.597 1.767-2.48 4.05-2.48 6.409 0 1.278.244 2.518.742 3.683.216.508.113 1.09-.263 1.495-.273.291-.648.46-1.033.46zm3.353-21.434c-2.292 0-4.509.827-6.247 2.331-2.113 1.823-3.325 4.463-3.325 7.245 0 3.185 1.559 6.079 4.058 7.827-.066-.526-.103-1.062-.103-1.607 0-3.063 1.136-6.014 3.212-8.306 2.48-2.735 6.059-4.229 9.741-4.079-1.784-2.133-4.452-3.42-7.336-3.42z"/>
            <path
                d="m572.576 321.897c-.141 0-.282-.019-.423-.066-.357-.112-.658-.357-.827-.695-1.371-2.622-3.926-4.492-6.838-4.999-.592-.103-1.127-.15-1.653-.15-1.203 0-2.386.225-3.513.676-.348.141-.649.273-.93.423-.329.179-.724.216-1.081.103-.357-.112-.657-.357-.826-.695-.16-.31-.32-.63-.451-.949-.63-1.513-.958-3.12-.958-4.774 0-3.063 1.136-6.014 3.212-8.306 2.349-2.603 5.693-4.088 9.178-4.088 1.286 0 2.564.197 3.785.592.536.169 1.09.395 1.663.677 4.274 2.104 6.932 6.361 6.932 11.116s-2.536 8.814-6.632 10.966c-.206.103-.432.16-.657.16zm-9.732-8.729c.686 0 1.381.065 2.132.197 3.269.573 6.2 2.471 8.069 5.187 2.49-1.785 3.992-4.661 3.992-7.781 0-3.674-2.057-6.963-5.363-8.588-.46-.226-.874-.395-1.287-.527-.949-.31-1.935-.46-2.931-.46-2.686 0-5.269 1.156-7.092 3.157-1.597 1.767-2.48 4.05-2.48 6.409 0 1.099.188 2.18.555 3.204 1.409-.535 2.893-.808 4.386-.808z"/>
            <path
                d="m555.498 335.119c-.347 0-.685-.131-.939-.366-2.602-2.349-4.095-5.704-4.095-9.19 0-4.614 2.536-8.814 6.631-10.966.367-.198.761-.376 1.203-.545 1.465-.583 2.996-.874 4.555-.874.686 0 1.381.066 2.133.197 3.766.658 7.073 3.073 8.848 6.474.93 1.786 1.409 3.712 1.409 5.723 0 2.763-.901 5.384-2.602 7.583-.244.31-.601.508-.986.545-.394.038-.78-.094-1.071-.357-1.766-1.597-4.039-2.471-6.397-2.471-2.968 0-5.73 1.353-7.561 3.721-.245.31-.602.507-.987.545-.037 0-.084 0-.122 0zm7.346-19.132c-1.202 0-2.386.226-3.513.677-.348.141-.648.272-.93.423-3.166 1.663-5.129 4.914-5.129 8.476 0 2.217.78 4.36 2.189 6.07 2.311-2.302 5.41-3.599 8.717-3.599 2.517 0 4.96.771 7.017 2.199.808-1.419 1.221-3.016 1.221-4.67 0-1.551-.366-3.035-1.09-4.417-1.371-2.621-3.926-4.491-6.838-4.999-.592-.103-1.127-.15-1.653-.15z"/>
            <path
                d="m560.186 352.063c-.169 0-.348-.028-.508-.094-4.79-1.87-7.89-6.399-7.89-11.539 0-2.763.902-5.385 2.602-7.584 2.367-3.054 5.937-4.811 9.788-4.811 3.062 0 6.002 1.137 8.285 3.204 2.602 2.35 4.095 5.704 4.095 9.191 0 1.973-.46 3.862-1.362 5.628-.328.649-1.089.931-1.766.667-1.127-.441-2.292-.657-3.466-.657-3.607 0-6.876 2.001-8.52 5.224-.244.489-.742.771-1.258.771zm3.982-21.209c-2.968 0-5.729 1.353-7.561 3.721-1.315 1.701-2.01 3.721-2.01 5.855 0 3.561 1.935 6.756 5.016 8.41 2.273-3.477 6.134-5.591 10.351-5.591 1.081 0 2.161.141 3.203.432.376-1.043.573-2.133.573-3.251 0-2.697-1.155-5.281-3.165-7.095-1.766-1.597-4.039-2.471-6.397-2.471z"/>
            <path
                d="m564.131 366.343c-.263 0-.517-.075-.752-.216-3.635-2.283-5.805-6.211-5.805-10.487 0-1.973.461-3.862 1.362-5.628 2.133-4.172 6.36-6.766 11.028-6.766 1.531 0 3.044.291 4.49.855 4.8 1.87 7.891 6.399 7.891 11.539 0 3.421-1.372 6.616-3.87 8.984-.47.441-1.175.507-1.719.169-1.531-.968-3.288-1.475-5.082-1.475-2.452 0-4.791.939-6.576 2.64-.272.254-.62.385-.967.385zm5.833-20.278c-3.607 0-6.876 2.002-8.52 5.225-.695 1.362-1.052 2.828-1.052 4.341 0 2.96 1.344 5.695 3.645 7.508 2.179-1.719 4.847-2.65 7.637-2.65 1.935 0 3.842.461 5.57 1.335 1.475-1.729 2.283-3.891 2.283-6.193 0-3.965-2.396-7.47-6.097-8.917-1.127-.442-2.292-.658-3.466-.658z"/>
            <path
                d="m576.211 384.292c-.197 0-.385-.038-.564-.122-.366-.16-.648-.47-.77-.855-1.287-3.947-4.941-6.597-9.093-6.597-1.362 0-2.696.291-3.954.865-.367.169-.78.169-1.146 0-.367-.16-.649-.47-.771-.855-.413-1.25-.62-2.547-.62-3.853 0-3.421 1.372-6.615 3.87-8.983 2.311-2.199 5.345-3.412 8.52-3.412 2.33 0 4.603.658 6.585 1.908 3.635 2.293 5.805 6.211 5.805 10.487 0 4.839-2.855 9.265-7.27 11.276-.188.085-.385.122-.583.122zm-10.427-10.383c4.8 0 9.093 2.743 11.141 6.981 2.668-1.757 4.321-4.754 4.321-7.996s-1.682-6.334-4.49-8.1c-1.531-.968-3.288-1.476-5.082-1.476-2.452 0-4.791.94-6.575 2.641-1.926 1.832-2.988 4.294-2.988 6.935 0 .516.038 1.033.122 1.541 1.146-.348 2.339-.526 3.551-.526z"/>
            <path
                d="m565.784 398.699c-.376 0-.742-.019-1.108-.056-.658-.057-1.184-.564-1.278-1.222-.582-4.398-4.208-7.875-8.623-8.269-.657-.057-1.183-.564-1.268-1.222-.075-.611-.113-1.127-.113-1.625 0-4.84 2.856-9.266 7.271-11.277 1.625-.742 3.344-1.118 5.119-1.118 5.364 0 10.098 3.43 11.77 8.532.413 1.26.62 2.556.62 3.853 0 6.832-5.561 12.395-12.39 12.395zm-9.572-12.188c4.782.902 8.661 4.624 9.769 9.369 5.186-.113 9.366-4.36 9.366-9.575 0-1.006-.16-2.002-.479-2.979-1.287-3.947-4.941-6.597-9.093-6.597-1.362 0-2.696.291-3.955.865-3.41 1.55-5.617 4.971-5.617 8.711v.206z"/>
            <path
                d="m553.93 411.074c-6.829 0-12.39-5.563-12.39-12.394 0-6.832 5.561-12.395 12.39-12.395.375 0 .742.019 1.108.057 5.721.507 10.408 5.008 11.16 10.712.075.611.112 1.128.112 1.626 0 6.831-5.561 12.394-12.39 12.394zm0-21.97c-5.279 0-9.572 4.295-9.572 9.576s4.293 9.575 9.572 9.575 9.572-4.294 9.572-9.575c0-.376-.029-.78-.094-1.26-.583-4.397-4.209-7.874-8.624-8.269-.281-.028-.563-.047-.854-.047z"/>
            <path
                d="m529.911 417.492c-6.829 0-12.39-5.563-12.39-12.394 0-3.534 1.522-6.917 4.189-9.275 2.273-2.011 5.185-3.12 8.201-3.12.385 0 .761.019 1.136.057 6.416.582 11.254 5.882 11.254 12.338 0 6.831-5.561 12.394-12.39 12.394zm0-21.97c-2.33 0-4.575.855-6.331 2.415-2.058 1.823-3.241 4.435-3.241 7.161 0 5.281 4.293 9.575 9.572 9.575s9.572-4.294 9.572-9.575c0-4.981-3.739-9.078-8.689-9.529-.292-.028-.583-.047-.874-.047z"/>
            <path
                d="m489.387 409.682c-5.899 0-10.999-4.191-12.145-9.97-.075-.376 0-.771.225-1.081.216-.31.564-.526.94-.583 4.696-.723 8.106-4.698 8.106-9.453 0-.62-.066-1.249-.188-1.87-.075-.376 0-.77.226-1.08.216-.31.563-.527.939-.583.686-.103 1.306-.16 1.888-.16 6.829 0 12.39 5.563 12.39 12.395 0 .141 0 .272-.019.404v.141c-.028.357-.178.705-.441.949-1.776 1.71-2.809 4.003-2.922 6.474-.018.357-.169.705-.432.949-2.32 2.237-5.373 3.468-8.576 3.468zm-9.017-9.19c1.334 3.758 4.931 6.371 9.017 6.371 2.302 0 4.5-.818 6.238-2.321.253-2.772 1.418-5.347 3.334-7.367-.065-5.225-4.33-9.454-9.572-9.454-.028 0-.056 0-.084 0 .019.292.028.583.028.874 0 5.62-3.682 10.403-8.961 11.906z"/>
            <path
                d="m507.949 418.084c-6.829 0-12.39-5.563-12.39-12.394 0-.141 0-.273.019-.404v-.141c.15-3.186 1.493-6.165 3.795-8.373 2.32-2.236 5.373-3.467 8.576-3.467 6.829 0 12.39 5.563 12.39 12.394 0 6.832-5.561 12.394-12.39 12.394zm0-21.97c-2.48 0-4.828.949-6.622 2.678-1.776 1.711-2.809 4.003-2.922 6.475v.207c-.019.075-.019.15-.019.225 0 5.281 4.293 9.575 9.572 9.575s9.572-4.294 9.572-9.575-4.293-9.575-9.572-9.575z"/>
            <path
                d="m495.343 365.789c-.535 0-1.052-.31-1.287-.827-1.55-3.411-4.969-5.619-8.708-5.619-.901 0-1.803.131-2.696.394-.422.123-.873.047-1.23-.216s-.564-.667-.573-1.108c-.038-1.495-.423-2.942-1.146-4.285-.122-.226-.179-.48-.169-.733.019-.451.066-.902.131-1.344.818-5.319 4.941-9.472 10.258-10.327.714-.113 1.362-.169 1.973-.169 5.025 0 9.515 2.997 11.441 7.639.629 1.513.948 3.111.948 4.755 0 5.366-3.419 10.092-8.51 11.765-.15.047-.291.075-.441.075zm-9.985-9.265c4.386 0 8.435 2.349 10.652 6.07 3.316-1.569 5.476-4.905 5.476-8.654 0-1.269-.244-2.5-.732-3.674-1.494-3.59-4.96-5.902-8.84-5.902-.46 0-.967.047-1.531.132-4.105.658-7.28 3.862-7.918 7.968-.038.226-.066.451-.076.677.555 1.118.94 2.293 1.137 3.505.611-.094 1.221-.141 1.832-.141z"/>
            <path
                d="m471.296 371.035c-4.227 0-8.125-2.133-10.417-5.703-1.287-2.002-1.964-4.314-1.964-6.682 0-2.114.545-4.2 1.578-6.042.432-.77.959-1.503 1.569-2.189 2.104-2.359 4.979-3.815 8.107-4.097 1.54-.141 3.146 0 4.678.46 2.677.799 5.034 2.509 6.641 4.811.281.404.507.818.723 1.213.939 1.738 1.437 3.608 1.475 5.553.019.639-.404 1.203-1.015 1.381-.112.047-.206.085-.291.113-3.682 1.212-6.247 4.501-6.528 8.382-.038.545-.386 1.015-.893 1.212-.808.31-1.568.743-2.273 1.269-.225.169-.498.263-.78.282h-.15c-.15.028-.3.037-.46.037zm0-21.969c-.301 0-.592.018-.883.047-2.405.216-4.631 1.343-6.256 3.166-.479.536-.883 1.109-1.212 1.692-.798 1.428-1.221 3.035-1.221 4.67 0 1.832.526 3.608 1.522 5.159 1.775 2.763 4.781 4.416 8.05 4.416h.028c.573-.404 1.174-.751 1.804-1.052.619-4.398 3.531-8.1 7.655-9.735-.15-1.147-.507-2.255-1.071-3.298-.197-.367-.366-.668-.554-.931-1.24-1.785-3.062-3.11-5.129-3.721-.892-.263-1.813-.404-2.733-.404z"/>
            <path
                d="m476.951 400.98c-6.829 0-12.39-5.563-12.39-12.394 0-2.641.836-5.178 2.404-7.32.31-.414.827-.639 1.334-.564.517.075.949.423 1.127.911 1.372 3.778 4.979 6.315 8.99 6.315 1.428 0 2.809-.32 4.124-.94.488-.235.93-.488 1.324-.761.864-.601 1.625-1.344 2.264-2.218.31-.422.817-.638 1.334-.563.516.075.949.423 1.127.911.235.639.395 1.222.517 1.804.159.808.235 1.617.235 2.415 0 6.155-4.415 11.295-10.493 12.235-.704.113-1.306.16-1.888.16zm-8.915-15.871c-.432 1.099-.657 2.274-.657 3.477 0 5.281 4.292 9.575 9.572 9.575.441 0 .901-.038 1.465-.122 4.697-.724 8.106-4.698 8.106-9.444 0-.272-.009-.554-.037-.827-.329.282-.667.545-1.015.79-.526.366-1.089.685-1.719.986-1.69.808-3.485 1.222-5.335 1.222-4.236 0-8.125-2.19-10.38-5.648z"/>
            <path
                d="m478.416 390.759c-5.185 0-9.863-3.28-11.638-8.166-.498-1.381-.752-2.8-.752-4.219 0-3.928 1.813-7.536 4.969-9.904.902-.677 1.888-1.231 2.94-1.635.451-.179.959-.104 1.344.178s.601.752.573 1.231c0 .122-.019.235-.038.357-.009.113-.028.216-.028.329v.226c.084 2.997 1.522 5.732 3.955 7.508 1.174.855 2.489 1.419 3.907 1.672.601.113 1.156.16 1.71.16 1.174 0 2.348-.225 3.485-.676.451-.179.958-.113 1.352.178.395.282.611.752.573 1.231-.159 2.34-.977 4.567-2.367 6.456-.817 1.118-1.803 2.086-2.93 2.866-.066.047-.123.084-.198.112-.498.235-.93.489-1.334.762-.065.047-.122.084-.197.112-1.691.808-3.485 1.222-5.335 1.222zm-5.345-20.316c-.131.085-.263.179-.385.273-2.442 1.832-3.842 4.623-3.842 7.649 0 1.099.197 2.189.583 3.26 1.371 3.778 4.978 6.315 8.989 6.315 1.39 0 2.743-.301 4.02-.902.47-.32.959-.602 1.513-.874.826-.592 1.559-1.316 2.179-2.152.648-.883 1.137-1.87 1.447-2.913-1.438.273-2.856.282-4.425 0-1.841-.329-3.541-1.062-5.072-2.171-2.818-2.048-4.603-5.102-5.016-8.494z"/>
            <path
                d="m485.358 381.312c-.714 0-1.437-.066-2.208-.207-1.841-.328-3.541-1.061-5.072-2.17-3.147-2.302-5.007-5.845-5.101-9.726 0-.131-.009-.207-.009-.291 0-.216.019-.432.047-.649 0-.075.019-.159.028-.234.357-5.028 3.682-9.294 8.454-10.863.15-.066.263-.113.376-.141 1.146-.338 2.32-.508 3.485-.508 4.837 0 9.262 2.857 11.272 7.274.742 1.625 1.118 3.354 1.118 5.121 0 .15 0 .301-.019.441v.141c-.028.329-.16.639-.376.874-1.503 1.645-2.386 3.778-2.489 6.005-.019.329-.141.639-.366.883-1.259 1.372-2.856 2.472-4.622 3.167-1.465.573-2.978.874-4.518.874zm0-21.97c-.902 0-1.804.132-2.696.395-.113.047-.197.085-.291.113-3.683 1.212-6.247 4.501-6.529 8.382 0 .113-.019.235-.037.348-.01.112-.028.216-.028.328v.226c.084 2.998 1.521 5.732 3.954 7.508 1.174.855 2.489 1.419 3.908 1.673.601.112 1.155.159 1.709.159 1.175 0 2.349-.225 3.485-.676 1.212-.479 2.33-1.203 3.241-2.105.226-2.518 1.221-4.905 2.846-6.841 0-1.344-.3-2.659-.864-3.909-1.55-3.411-4.969-5.619-8.708-5.619z"/>
            <path
                d="m483.141 389.676c-.488 0-.958-.254-1.221-.705-.367-.639-.188-1.447.413-1.87.526-.367 1.08-.686 1.719-.996.667-.32 1.456-.075 1.832.564.366.639.188 1.447-.413 1.87-.527.366-1.09.685-1.719.986-.198.094-.404.141-.611.141z"/>
            <path
                d="m439.959 276.107c-.413 0-.789-.273-.901-.686-.141-.498.15-1.015.657-1.156l43.182-12.019c.498-.141 1.014.151 1.155.658.141.498-.15 1.015-.657 1.156l-43.182 12.019c-.084.018-.169.037-.254.037z"/>
            <path
                d="m467.895 279.528c-.413 0-.789-.273-.901-.686-.141-.498.15-1.015.657-1.156l15.246-4.248c.498-.131 1.014.151 1.155.658.141.498-.15 1.015-.657 1.156l-15.246 4.247c-.084.019-.169.038-.254.038z"/>
            <path
                d="m455.75 294.947c-.414 0-.789-.272-.902-.686-.141-.498.15-1.015.658-1.155l27.391-7.621c.498-.141 1.014.15 1.155.657.141.499-.15 1.015-.657 1.156l-27.392 7.621c-.084.019-.169.038-.253.038z"/>
            <path
                d="m88.3732 258.489c-.3287 0-.6481-.17-.8172-.48l-14.1277-25.333c-.2536-.451-.0939-1.025.3664-1.278.4508-.254 1.0238-.094 1.2775.366l14.1277 25.334c.2536.451.0939 1.024-.3664 1.278-.1409.084-.3006.122-.4603.122z"/>
            <path
                d="m88.3733 269.465c-.3288 0-.6482-.17-.8173-.48l-9.6752-17.337c-.2536-.451-.0939-1.024.3664-1.278.4508-.253 1.0238-.094 1.2775.367l9.6752 17.337c.2536.451.0939 1.024-.3664 1.278-.1409.084-.3005.122-.4602.122z"/>
            <path
                d="m80.0695 265.64c-.3288 0-.6482-.17-.8173-.48l-5.8239-10.44c-.2536-.451-.0939-1.024.3664-1.277.4508-.254 1.0238-.094 1.2775.366l5.8239 10.44c.2536.451.0939 1.024-.3664 1.278-.1409.084-.3006.122-.4602.122z"/>
            <path
                d="m185.764 255.622c-.075 0-.16-.01-.235-.029-.507-.131-.808-.648-.676-1.146l14.062-53.928c.131-.508.648-.799 1.146-.677.507.132.808.649.676 1.147l-14.062 53.928c-.112.423-.488.705-.911.705z"/>
            <path
                d="m202.081 238.868c-.076 0-.16-.009-.235-.028-.508-.131-.808-.648-.677-1.146l1.701-6.54c.131-.508.648-.799 1.146-.677.507.132.807.648.676 1.146l-1.7 6.541c-.113.422-.489.704-.911.704z"/>
            <path
                d="m206.618 221.446c-.076 0-.16-.01-.235-.028-.508-.132-.808-.649-.677-1.147l5.993-22.975c.132-.507.649-.799 1.146-.676.508.131.808.648.677 1.146l-5.993 22.975c-.113.423-.489.705-.911.705z"/>
            <path
                d="m215.316 233.841c-.075 0-.16-.01-.235-.028-.507-.132-.808-.649-.676-1.147l6.547-25.108c.131-.508.648-.799 1.146-.677.507.132.808.649.676 1.147l-6.547 25.108c-.113.423-.488.705-.911.705z"/>
            <path
                d="m311.27 80.6354c-.423 0-.808-.2819-.912-.7142-.122-.5074.179-1.0148.686-1.137l36.954-9.2746c.498-.1222 1.014.1785 1.136.6859.123.5075-.178 1.0149-.685 1.1371l-36.954 9.2746c-.075.0188-.15.0282-.225.0282z"/>
            <path
                d="m339.487 82.0634c-.422 0-.807-.2819-.911-.7142-.122-.5074.179-1.0148.686-1.137l13.912-3.4956c.497-.1221 1.014.1786 1.136.686s-.178 1.0148-.686 1.137l-13.911 3.4956c-.075.0188-.15.0282-.226.0282z"/>
            <path
                d="m161.088 406.911c-.414 0-.789-.273-.902-.695-.132-.498.16-1.015.667-1.156l31.411-8.486c.498-.131 1.015.16 1.156.668.131.498-.16 1.015-.667 1.155l-31.412 8.486c-.084.019-.159.028-.244.028z"/>
            <path
                d="m161.088 414.984c-.414 0-.789-.273-.902-.695-.132-.498.16-1.015.667-1.156l15.706-4.238c.498-.132 1.014.16 1.155.667.132.498-.16 1.015-.667 1.156l-15.706 4.238c-.084.019-.159.028-.244.028z"/>
            <path
                d="m155.442 173.456c-.3 0-.601-.141-.779-.414l-20.544-30.445c-.291-.432-.178-1.015.254-1.306.432-.292 1.014-.179 1.305.253l20.544 30.446c.291.432.178 1.015-.254 1.306-.159.113-.347.16-.526.16z"/>
            <path
                d="m132.71 159.652c-.3 0-.601-.141-.779-.413l-6.491-9.623c-.291-.432-.179-1.015.253-1.306s1.015-.178 1.306.254l6.491 9.622c.291.432.178 1.015-.254 1.306-.159.113-.347.16-.526.16z"/>
            <path
                d="m414.391 379.294c-.517 0-.94-.423-.94-.94 0-4.332-2.968-5.873-5.514-5.873-.516 0-.939-.423-.939-.94s.423-.939.939-.939c3.682 0 7.393 2.396 7.393 7.752 0 .517-.423.94-.939.94z"/>
            <path
                d="m473.447 341.744s-.056 0-.085 0c-.516-.047-.901-.498-.854-1.015.187-2.105 1.305-3.844 3.231-5.037 2.32-1.428 5.57-1.832 7.74-.977.479.188.714.742.526 1.221-.188.48-.733.714-1.221.527-1.409-.564-4.067-.405-6.059.826-.977.602-2.179 1.72-2.348 3.599-.047.489-.451.856-.939.856z"/>
            <path
                d="m479.806 370.067c-.498 0-.911-.386-.939-.884-.094-1.71.676-3.523 2.076-4.867 1.569-1.513 3.701-2.208 5.993-1.992.517.047.892.507.845 1.024s-.498.883-1.024.846c-1.737-.169-3.334.357-4.508 1.475-.987.949-1.569 2.255-1.503 3.402.028.517-.367.958-.883.986-.019 0-.038 0-.057 0z"/>
            <path
                d="m530.55 368.131c-.066 0-.123 0-.188-.019-.508-.103-.836-.601-.733-1.109.47-2.283 2.207-4.059 4.64-4.736 2.79-.78 5.805.019 7.684 2.03.357.376.338.977-.047 1.325-.376.357-.967.338-1.324-.047-1.409-1.513-3.692-2.105-5.805-1.503-1.776.498-2.978 1.7-3.307 3.307-.094.442-.479.752-.92.752z"/>
            <path
                d="m535.274 305.5s-.028 0-.037 0c-.517-.019-.921-.46-.902-.977.038-.94-.413-2.349-1.484-3.374-.686-.648-1.879-1.381-3.739-1.231-.535.047-.977-.338-1.014-.855-.047-.517.338-.977.855-1.015 2.555-.216 4.236.827 5.204 1.748 1.343 1.278 2.132 3.12 2.066 4.811-.019.508-.432.902-.939.902z"/>
            <path
                d="m532.719 242.645c-.479 0-.892-.367-.939-.856-.197-2.283.479-4.36 1.926-5.854 1.437-1.484 3.485-2.246 5.767-2.123.517.028.921.469.893.986-.029.517-.479.902-.987.893-1.719-.094-3.269.46-4.321 1.55-1.052 1.1-1.559 2.65-1.399 4.389.047.517-.338.977-.855 1.015-.028 0-.056 0-.085 0z"/>
            <path
                d="m572.463 308.038c-.291 0-.582-.132-.761-.395-.639-.883-2.555-1.851-4.537-1.87-1.193-.028-2.752.31-3.917 1.879-.31.414-.892.508-1.315.198-.413-.31-.507-.902-.197-1.316 1.634-2.208 3.87-2.668 5.438-2.64 2.377.019 4.97 1.156 6.05 2.65.3.423.206 1.005-.216 1.315-.169.122-.357.179-.545.179z"/>
            <path
                d="m569.964 389.951c-.225 0-.441-.075-.62-.235-.385-.348-.422-.94-.075-1.325.93-1.043.827-3.364-.206-4.952-.63-.968-2.123-2.452-5.026-1.522-.498.16-1.024-.113-1.184-.602-.159-.498.113-1.024.602-1.184 2.94-.949 5.617-.103 7.176 2.274 1.531 2.35 1.55 5.526.047 7.227-.188.206-.441.319-.704.319z"/>
            <path
                d="m435.028 406.188c-.498 0-.911-.385-.939-.883-.066-1.072-1.165-2.782-2.706-3.599-.949-.508-2.451-.893-4.227.15-.451.263-1.024.113-1.287-.338s-.112-1.025.338-1.288c1.973-1.156 4.134-1.221 6.069-.188 1.991 1.072 3.588 3.28 3.691 5.15.028.517-.366.958-.883.996-.019 0-.037 0-.056 0z"/>
            <path
                d="m294.183 444.94c-.301 0-.592-.094-.836-.272l-25.221-18.596c-.357-.263-.573-.686-.573-1.137v-21.19c0-.188.037-.376.112-.555 8.68-20.315 31.543-17.027 38.354-15.532 13.742 3.016 27.513 12.657 25.306 26.686-2.076 13.175-7.994 25.992-36.917 30.587-.075.009-.15.019-.225.019zm-23.812-20.72 24.169 17.826c25.155-4.134 31.797-14.245 33.995-28.143 2.057-13.052-12.7-21.199-23.127-23.492-7.994-1.757-27.354-3.919-35.047 13.625v20.194z"/>
            <path
                d="m294.183 444.94s-.075 0-.113 0c-.779-.056-1.362-.733-1.296-1.513l1.681-22.12-26.235-16.369c-.658-.414-.865-1.278-.451-1.945.413-.658 1.277-.865 1.944-.451l26.969 16.82c.441.272.695.78.657 1.306l-1.738 22.975c-.056.743-.676 1.306-1.399 1.306z"/>
            <path
                d="m311.627 416.127c-5.881 0-11.949-.93-16.176-2.415-6.989-2.452-14.795-7.01-15.734-12.432-.282-1.597-.047-3.956 2.621-6.136.601-.488 1.493-.404 1.982.207.488.611.404 1.494-.207 1.983-1.315 1.071-1.841 2.199-1.625 3.467.592 3.374 6.303 7.593 13.893 10.261 8.341 2.932 25.043 3.505 29.89-1.315 1.324-1.316 1.606-2.894.883-4.971-.254-.733.131-1.541.873-1.795.733-.254 1.541.132 1.795.874 1.343 3.9-.104 6.446-1.56 7.893-3.128 3.12-9.75 4.389-16.626 4.389z"/>
            <path
                d="m325.886 413.244c-.545 0-1.062-.32-1.297-.846-.018-.037-2.113-4.604-9.308-9.04-6.04-3.73-16.411-5.046-23.606-3.007-2.264.639-5.223 1.917-6.444 4.342-.348.695-1.202.977-1.888.629-.695-.347-.977-1.193-.629-1.888 1.324-2.641 4.161-4.652 8.191-5.789 7.993-2.264 19.106-.836 25.85 3.327 8.013 4.942 10.324 10.101 10.418 10.317.31.715-.019 1.541-.733 1.852-.179.075-.376.112-.564.112z"/>
            <path
                d="m295.921 421.964c-.677 0-1.268-.488-1.39-1.174-.132-.771.385-1.494 1.155-1.626l5.608-.958c.761-.123 1.493.385 1.625 1.155.131.771-.385 1.495-1.155 1.626l-5.608.959c-.076.009-.16.018-.235.018z"/>
            <path
                d="m284.752 433.223c-.188 0-.376-.057-.535-.17l-12.343-8.654c-.254-.179-.404-.461-.404-.771v-9.904c0-.338.188-.658.479-.817.291-.16.667-.16.949.018l13.16 8.166c.3.188.469.526.441.874l-.817 10.384c-.028.338-.235.629-.535.78-.132.056-.263.094-.404.094zm-11.404-10.083 10.606 7.423.638-8.175-11.244-6.982v7.724z"/>
            <path
                d="m291.046 422.836h-5.477c-.516 0-.939-.422-.939-.939s.423-.94.939-.94h5.477c.516 0 .939.423.939.94s-.423.939-.939.939z"/>
            <path
                d="m290.012 436.312c-.159 0-.328-.038-.479-.131l-5.26-3.092c-.451-.263-.592-.836-.338-1.287.263-.442.836-.602 1.287-.339l5.26 3.092c.451.263.592.836.338 1.287-.178.301-.488.461-.808.461z"/>
            <path
                d="m272.4 414.672s-.094 0-.141-.01c-.517-.075-.864-.554-.789-1.071l.432-2.876c.075-.516.554-.855 1.071-.789.516.075.864.555.789 1.071l-.432 2.876c-.066.47-.47.799-.93.799z"/>
            <path
                d="m272.4 424.568c-.122 0-.245-.019-.357-.066-.113-.047-.216-.122-.301-.206-.094-.094-.16-.188-.207-.311-.046-.112-.075-.234-.075-.357 0-.056 0-.122.019-.178 0-.066.028-.122.056-.179.019-.056.057-.113.085-.159.038-.057.075-.104.122-.151.207-.216.545-.31.846-.254.056 0 .122.029.178.057.056.019.103.047.16.084.047.038.094.076.141.113.037.047.084.094.112.151.038.046.066.103.094.159.019.057.038.113.047.179.019.056.019.122.019.178 0 .123-.019.245-.066.357-.047.123-.122.217-.206.311-.085.084-.188.159-.301.206-.122.047-.235.066-.366.066z"/>
        </g>
    </g>
</svg>
