<svg width="636" height="501" viewBox="0 0 636 501" fill="none" xmlns="http://www.w3.org/2000/svg">
<mask id="mask0_544_61" style="mask-type:luminance" maskUnits="userSpaceOnUse" x="0" y="0" width="636" height="501">
<path d="M636 0H0V501H636V0Z" fill="white"/>
</mask>
<g mask="url(#mask0_544_61)">
<path d="M271.263 403.52L269.845 429.671L292.126 445.486L294.85 417.38L271.263 403.52Z" fill="#FF3939"/>
<path d="M136.486 115.215L189.822 182.778L416.899 119.857L358.659 53.168L136.486 115.215Z" fill="#FF3939"/>
<path d="M62.579 180.457V205.396L151.422 348.058L306.056 300.041C306.056 300.041 311.711 316.889 332.865 312.106C354.019 307.323 354.01 286.303 354.01 286.303L489.491 249.843L493.417 226.36L152.803 322.311L62.5696 180.476L62.579 180.457Z" fill="#FF3939"/>
<path d="M66.0545 261.139L152.324 401.405L498.377 308.508V334.509L488.307 335.167L480.699 330.29L471.888 333.381L465.97 332.263L457.394 333.71L453.927 334.105L449.569 329.444L218.228 389.95L200.69 416.195L151.563 428.806L135.472 404.158L135.763 381.108L86.9267 300.643L78.9704 304.58L59.8267 275.854L66.0545 261.139Z" fill="#FF3939"/>
<path d="M188.084 180.129C187.643 180.129 187.211 179.922 186.948 179.546L136.806 110.245C136.533 109.859 136.458 109.371 136.627 108.929C136.787 108.487 137.163 108.158 137.614 108.046L354.714 54.9819C355.212 54.8597 355.729 55.0195 356.076 55.386L412.888 115.986C413.226 116.343 413.348 116.86 413.216 117.33C413.085 117.809 412.709 118.175 412.239 118.307L188.469 180.072C188.347 180.11 188.216 180.119 188.094 180.119L188.084 180.129ZM140.309 110.292L188.648 177.103L409.224 116.221L354.573 57.9231L140.309 110.292Z" fill="black"/>
<path d="M152.324 325.478C151.835 325.478 151.375 325.224 151.112 324.792L64.8427 181.18C64.4764 180.57 64.6173 179.79 65.1715 179.348L137.059 122.375C137.67 121.886 138.553 121.99 139.041 122.601C139.52 123.211 139.426 124.095 138.816 124.583L67.905 180.795L152.981 322.424L491.633 228.954L410.774 131.922C410.276 131.321 410.361 130.438 410.953 129.94C411.554 129.442 412.437 129.526 412.935 130.118L495.202 228.832C495.512 229.198 495.606 229.696 495.465 230.156C495.324 230.617 494.958 230.965 494.498 231.096L152.709 325.431C152.587 325.468 152.455 325.478 152.333 325.478H152.324Z" fill="black"/>
<path d="M188.084 194.186C187.643 194.186 187.211 193.979 186.948 193.603L136.806 124.302C136.627 124.057 136.533 123.775 136.533 123.475V109.408C136.533 108.628 137.163 107.998 137.942 107.998C138.722 107.998 139.351 108.628 139.351 109.408V123.014L186.675 188.416V178.709C186.675 177.929 187.305 177.299 188.084 177.299C188.864 177.299 189.493 177.929 189.493 178.709V192.776C189.493 193.387 189.099 193.932 188.516 194.12C188.376 194.167 188.225 194.186 188.084 194.186Z" fill="black"/>
<path d="M152.324 325.478C152.201 325.478 152.079 325.459 151.948 325.431C151.196 325.224 150.755 324.453 150.962 323.702L186.722 192.419C186.854 191.94 187.23 191.564 187.709 191.432L410.445 129.958V116.972C410.445 116.192 411.075 115.562 411.854 115.562C412.634 115.562 413.263 116.192 413.263 116.972V131.039C413.263 131.669 412.841 132.232 412.23 132.402L189.24 193.951L153.686 324.463C153.517 325.092 152.944 325.506 152.324 325.506V325.478Z" fill="black"/>
<path d="M152.324 346.49C151.845 346.49 151.375 346.236 151.121 345.814L70.0655 211.918L64.8052 201.986C64.7019 201.779 64.6455 201.554 64.6455 201.328V180.449C64.6455 179.669 65.2749 179.039 66.0545 179.039C66.8342 179.039 67.4635 179.669 67.4635 180.449V200.971L72.5172 210.518L150.915 340.025V324.051C150.915 323.271 151.544 322.641 152.324 322.641C153.103 322.641 153.733 323.271 153.733 324.051V345.071C153.733 345.701 153.31 346.255 152.699 346.424C152.577 346.462 152.446 346.481 152.324 346.481V346.49Z" fill="black"/>
<path d="M152.324 346.488C151.704 346.488 151.14 346.075 150.962 345.455C150.755 344.703 151.196 343.932 151.948 343.716L492.703 249.664V229.714C492.703 228.934 493.333 228.305 494.112 228.305C494.892 228.305 495.521 228.934 495.521 229.714V250.735C495.521 251.364 495.099 251.928 494.488 252.097L152.699 346.432C152.577 346.47 152.446 346.479 152.324 346.479V346.488Z" fill="black"/>
<path d="M152.324 399.337C151.845 399.337 151.384 399.093 151.121 398.661L64.8522 257.164C64.7207 256.938 64.6455 256.684 64.6455 256.431V201.337C64.6455 200.557 65.2749 199.928 66.0545 199.928C66.8342 199.928 67.4635 200.557 67.4635 201.337V256.036L150.915 392.91V342.834C150.915 342.054 151.544 341.425 152.324 341.425C153.103 341.425 153.733 342.054 153.733 342.834V397.928C153.733 398.557 153.31 399.112 152.709 399.281C152.587 399.319 152.455 399.337 152.324 399.337Z" fill="black"/>
<path d="M152.324 399.337C151.704 399.337 151.131 398.924 150.962 398.294C150.755 397.542 151.206 396.772 151.957 396.565L492.703 304.758V250.745C492.703 249.966 493.333 249.336 494.112 249.336C494.892 249.336 495.521 249.966 495.521 250.745V305.839C495.521 306.478 495.089 307.032 494.479 307.201L152.69 399.29C152.568 399.328 152.446 399.337 152.324 399.337Z" fill="black"/>
<path d="M152.324 426.306C151.845 426.306 151.384 426.062 151.121 425.63L133.621 396.932C133.537 396.8 133.48 396.65 133.443 396.49L129.282 377.077L86.4758 306.948L82.5118 310.068C82.1924 310.322 81.7885 310.416 81.394 310.35C80.9995 310.275 80.6519 310.04 80.4452 309.692L64.8616 284.133C64.7301 283.907 64.6549 283.654 64.6549 283.4V256.431C64.6549 255.651 65.2843 255.021 66.0639 255.021C66.8436 255.021 67.4729 255.651 67.4729 256.431V283.005L82.0233 306.873L85.9874 303.753C86.3067 303.5 86.7106 303.406 87.1052 303.471C87.4997 303.547 87.8472 303.781 88.0539 304.129L131.808 375.817C131.893 375.949 131.949 376.099 131.987 376.259L136.148 395.673L150.915 419.888V397.937C150.915 397.158 151.544 396.528 152.324 396.528C153.103 396.528 153.733 397.158 153.733 397.937V424.906C153.733 425.536 153.31 426.09 152.709 426.259C152.587 426.297 152.455 426.316 152.324 426.316V426.306Z" fill="black"/>
<path d="M152.324 426.304C151.704 426.304 151.131 425.891 150.962 425.261C150.755 424.509 151.206 423.739 151.957 423.532L207.416 408.591L221.628 390.953C221.816 390.718 222.07 390.559 222.361 390.474L449.099 328.925C449.541 328.803 450.029 328.906 450.386 329.216L456.68 334.582C457.271 335.089 457.347 335.973 456.839 336.565C456.332 337.157 455.449 337.232 454.857 336.724L449.137 331.838L223.554 393.068L209.342 410.705C209.154 410.94 208.9 411.1 208.609 411.185L152.709 426.248C152.587 426.285 152.465 426.295 152.342 426.295L152.324 426.304Z" fill="black"/>
<path d="M487.8 335.918C487.18 335.918 486.607 335.505 486.438 334.875C486.231 334.124 486.682 333.353 487.434 333.146L492.703 331.727V305.839C492.703 305.059 493.333 304.43 494.112 304.43C494.892 304.43 495.521 305.059 495.521 305.839V332.808C495.521 333.447 495.089 334.001 494.479 334.171L488.166 335.871C488.044 335.909 487.922 335.918 487.8 335.918Z" fill="black"/>
<path d="M334.34 349.947C333.56 349.947 332.931 349.317 332.931 348.537V314.314C332.931 313.534 333.56 312.904 334.34 312.904C335.119 312.904 335.749 313.534 335.749 314.314V348.537C335.749 349.317 335.119 349.947 334.34 349.947Z" fill="black"/>
<path d="M323.481 317.387C318.841 317.387 315.027 316.269 312.078 314.042C306.244 309.625 306.141 302.549 306.141 302.249C306.141 301.469 306.761 300.839 307.54 300.83C308.311 300.83 308.94 301.45 308.949 302.23C308.949 302.314 309.081 308.263 313.796 311.814C318.117 315.066 324.9 315.451 333.945 312.952C355.212 307.079 352.554 290.418 352.432 289.713C352.3 288.952 352.807 288.219 353.568 288.078C354.329 287.937 355.062 288.445 355.203 289.215C355.24 289.413 358.49 309.099 334.687 315.667C330.526 316.814 326.778 317.387 323.453 317.387H323.481Z" fill="black"/>
<path d="M317.394 299.76C317.394 299.76 317.46 310.961 332.828 306.713C345.988 303.077 344.062 292.393 344.062 292.393" fill="black"/>
<path d="M383.618 409.287C383.618 409.287 383.552 409.287 383.524 409.287C377.052 408.845 371.979 403.423 371.979 396.94C371.979 392.241 374.591 388.003 378.808 385.88C380.555 384.996 382.434 384.555 384.369 384.555C390.259 384.555 395.369 388.746 396.515 394.525C396.675 395.323 396.759 396.141 396.759 396.949C396.759 397.588 396.703 398.246 396.581 398.969C396.458 399.684 395.82 400.182 395.096 400.144H394.956C394.786 400.125 394.608 400.106 394.439 400.106C389.733 400.106 385.769 403.48 385.008 408.122C384.895 408.808 384.303 409.306 383.618 409.306V409.287ZM384.369 387.355C382.876 387.355 381.429 387.703 380.076 388.379C376.826 390.024 374.797 393.294 374.797 396.921C374.797 401.525 378.104 405.434 382.519 406.308C383.946 401.159 388.521 397.494 393.932 397.278C393.932 397.156 393.932 397.043 393.932 396.93C393.932 396.31 393.866 395.681 393.744 395.051C392.861 390.587 388.916 387.355 384.36 387.355H384.369Z" fill="black"/>
<path d="M395.134 396.188C394.927 396.188 394.711 396.141 394.514 396.047C394.119 395.85 393.838 395.484 393.753 395.051C392.87 390.588 388.925 387.355 384.369 387.355C382.876 387.355 381.429 387.703 380.076 388.38C379.682 388.577 379.222 388.577 378.827 388.38C378.432 388.182 378.151 387.825 378.066 387.393C377.906 386.594 377.822 385.777 377.822 384.969C377.822 378.137 383.383 372.574 390.212 372.574C393.302 372.574 396.271 373.73 398.563 375.835C401.127 378.184 402.592 381.511 402.592 384.969C402.592 385.194 402.574 385.42 402.564 385.645V385.786C402.273 390.137 399.671 394.065 395.773 396.029C395.575 396.132 395.359 396.179 395.143 396.179L395.134 396.188ZM384.369 384.536C389.592 384.536 394.195 387.825 395.979 392.599C398.159 390.936 399.568 388.389 399.746 385.608V385.448C399.765 385.288 399.784 385.128 399.784 384.969C399.784 382.3 398.647 379.725 396.665 377.912C394.89 376.286 392.598 375.393 390.212 375.393C384.933 375.393 380.64 379.688 380.64 384.969C380.64 385.016 380.64 385.063 380.64 385.11C381.842 384.724 383.092 384.527 384.369 384.527V384.536Z" fill="black"/>
<path d="M408.548 389.996C405.457 389.996 402.489 388.84 400.197 386.735C399.878 386.444 399.718 386.03 399.746 385.607V385.448C399.765 385.288 399.784 385.128 399.784 384.969C399.784 382.3 398.647 379.725 396.665 377.912C396.346 377.62 396.186 377.207 396.214 376.784C396.571 371.296 400.573 366.654 405.946 365.489C406.819 365.301 407.702 365.207 408.567 365.207C414.325 365.207 419.284 369.126 420.609 374.735C420.834 375.694 420.957 376.662 420.957 377.601C420.957 384.433 415.396 389.996 408.567 389.996H408.548ZM402.592 385.081C404.283 386.434 406.378 387.177 408.548 387.177C413.827 387.177 418.12 382.882 418.12 377.601C418.12 376.887 418.026 376.136 417.847 375.393C416.823 371.061 412.991 368.035 408.548 368.035C407.881 368.035 407.195 368.111 406.519 368.252C402.583 369.097 399.596 372.377 399.07 376.342C401.315 378.654 402.583 381.755 402.583 384.978C402.583 385.016 402.583 385.053 402.583 385.091L402.592 385.081Z" fill="black"/>
<path d="M419.219 376.473C418.58 376.473 417.998 376.031 417.847 375.392C416.823 371.06 413 368.034 408.548 368.034C407.881 368.034 407.195 368.109 406.519 368.25C405.777 368.41 405.025 367.94 404.856 367.198C404.631 366.23 404.509 365.272 404.509 364.332C404.509 357.5 410.07 351.938 416.899 351.938C423.728 351.938 429.289 357.5 429.289 364.332C429.289 370.13 425.184 375.223 419.519 376.444C419.416 376.463 419.322 376.473 419.219 376.473ZM408.548 365.206C413.818 365.206 418.402 368.476 420.167 373.325C423.887 371.971 426.47 368.373 426.47 364.332C426.47 359.051 422.178 354.757 416.899 354.757C411.619 354.757 407.327 359.051 407.327 364.332C407.327 364.642 407.345 364.952 407.374 365.262C407.768 365.225 408.153 365.206 408.548 365.206Z" fill="black"/>
<path d="M427.879 365.742C427.1 365.742 426.47 365.112 426.47 364.332C426.47 359.051 422.178 354.757 416.899 354.757C416.119 354.757 415.49 354.127 415.49 353.348C415.49 346.516 421.05 340.953 427.879 340.953C429.814 340.953 431.684 341.395 433.44 342.278C437.658 344.402 440.269 348.64 440.269 353.348C440.269 354.071 440.204 354.804 440.063 355.584C439.753 357.285 439.114 358.863 438.165 360.273C438.081 360.405 437.968 360.517 437.846 360.611C436.982 361.269 436.24 362.04 435.667 362.895C435.582 363.026 435.469 363.139 435.347 363.233C433.177 364.877 430.594 365.742 427.889 365.742H427.879ZM418.401 352.032C424.038 352.718 428.518 357.2 429.204 362.838C430.735 362.622 432.182 362.04 433.468 361.119C434.154 360.151 434.99 359.277 435.948 358.516C436.615 357.473 437.066 356.326 437.292 355.077C437.404 354.466 437.451 353.902 437.451 353.348C437.451 349.711 435.432 346.441 432.172 344.796C430.82 344.12 429.373 343.772 427.879 343.772C423.051 343.772 419.04 347.371 418.401 352.023V352.032Z" fill="black"/>
<path d="M463.114 352.749C463.114 352.749 463.039 352.749 463.001 352.749C462.56 352.711 462.165 352.476 461.931 352.11C460.287 349.544 457.488 347.909 454.453 347.731C454.078 347.712 453.721 347.534 453.477 347.252C453.232 346.97 453.101 346.594 453.129 346.218V346.152C453.148 345.946 453.157 345.739 453.157 345.532C453.157 344.451 452.969 343.371 452.594 342.318C452.528 342.13 452.5 341.924 452.518 341.726C453.044 335.365 458.464 330.375 464.852 330.375C467.501 330.375 470.028 331.211 472.169 332.781C472.498 333.016 472.705 333.391 472.742 333.786C472.78 334.19 472.639 334.585 472.367 334.885C470.676 336.671 469.746 339.011 469.746 341.454C469.746 343.408 470.338 345.297 471.456 346.904C471.737 347.317 471.784 347.853 471.578 348.304C471.362 348.755 470.93 349.065 470.432 349.112C468.027 349.328 465.801 350.456 464.176 352.279C463.903 352.58 463.527 352.749 463.124 352.749H463.114ZM455.975 345.062C458.812 345.551 461.405 347.026 463.283 349.206C464.683 348.013 466.317 347.148 468.083 346.669C467.322 345.043 466.928 343.267 466.928 341.444C466.928 338.842 467.736 336.342 469.239 334.247C467.886 333.542 466.402 333.175 464.861 333.175C460.024 333.175 455.9 336.878 455.365 341.661C455.731 342.769 455.938 343.906 455.985 345.053L455.975 345.062Z" fill="black"/>
<path d="M442.937 357.888C442.937 357.888 442.881 357.888 442.852 357.888C441.152 357.785 439.537 357.352 438.034 356.601C437.479 356.319 437.169 355.708 437.282 355.088C437.395 354.467 437.442 353.913 437.442 353.359C437.442 349.722 435.422 346.452 432.163 344.808C431.609 344.526 431.299 343.915 431.411 343.295C432.482 337.403 437.602 333.137 443.585 333.137C448.799 333.137 453.486 336.444 455.242 341.368C455.731 342.731 455.975 344.131 455.975 345.531C455.975 345.813 455.956 346.086 455.938 346.358C455.881 347.119 455.242 347.768 454.463 347.721L454.2 347.702C454.096 347.702 453.984 347.683 453.88 347.683C448.883 347.683 444.703 351.583 444.346 356.572C444.29 357.315 443.679 357.879 442.937 357.879V357.888ZM440.213 354.477C440.701 354.665 441.209 354.806 441.725 354.909C442.787 349.412 447.502 345.23 453.138 344.892C453.082 344.028 452.894 343.163 452.593 342.308C451.231 338.502 447.615 335.946 443.585 335.946C439.292 335.946 435.582 338.784 434.408 342.834C438.043 345.089 440.26 349.027 440.26 353.349C440.26 353.716 440.241 354.092 440.204 354.467L440.213 354.477Z" fill="black"/>
<path d="M502.05 351.149C501.477 351.149 500.97 350.811 500.754 350.284C499.26 346.695 495.794 344.383 491.914 344.383C491.454 344.383 490.947 344.43 490.383 344.515C489.942 344.59 489.482 344.439 489.172 344.12C488.862 343.801 488.702 343.349 488.777 342.908C488.852 342.4 488.89 341.921 488.89 341.461C488.89 339.497 488.289 337.599 487.161 335.982C486.908 335.625 486.842 335.165 486.973 334.742C487.105 334.319 487.434 333.99 487.847 333.84C489.172 333.379 490.543 333.145 491.914 333.145C498.743 333.145 504.304 338.707 504.304 345.539C504.304 347.174 503.985 348.781 503.356 350.294C503.14 350.82 502.623 351.158 502.05 351.158V351.149ZM491.914 341.555C495.681 341.555 499.157 343.246 501.467 346.056C501.477 345.877 501.486 345.699 501.486 345.52C501.486 340.239 497.193 335.945 491.914 335.945C491.435 335.945 490.947 335.982 490.468 336.058C491.276 337.73 491.698 339.563 491.698 341.442C491.698 341.479 491.698 341.517 491.698 341.545C491.774 341.545 491.839 341.545 491.905 341.545L491.914 341.555Z" fill="black"/>
<path d="M480.323 353.789C479.863 353.789 479.43 353.564 479.167 353.188C477.928 351.403 476.105 350.087 474.039 349.467C472.855 349.11 471.615 349.006 470.422 349.11C469.924 349.157 469.427 348.922 469.135 348.508C467.689 346.422 466.928 343.979 466.928 341.451C466.928 338.275 468.13 335.259 470.319 332.947C472.686 330.438 475.88 329.066 479.308 329.066C483.338 329.066 487.133 331.049 489.453 334.357C490.919 336.452 491.698 338.905 491.698 341.451C491.698 342.062 491.651 342.673 491.548 343.331C491.454 343.932 490.984 344.411 490.383 344.505C486.278 345.163 483.103 348.367 482.465 352.474C482.371 353.075 481.901 353.554 481.3 353.648L481.103 353.686C480.886 353.724 480.67 353.761 480.445 353.78C480.398 353.78 480.36 353.78 480.313 353.78L480.323 353.789ZM471.305 346.244C472.498 346.244 473.691 346.422 474.847 346.761C476.876 347.362 478.717 348.49 480.182 350.002C481.506 346.028 484.766 342.983 488.871 341.94C488.871 341.771 488.88 341.611 488.88 341.442C488.88 339.478 488.279 337.58 487.152 335.964C485.358 333.398 482.427 331.876 479.318 331.876C476.669 331.876 474.198 332.938 472.376 334.883C470.685 336.668 469.755 339.008 469.755 341.451C469.755 343.152 470.197 344.787 471.052 346.253C471.136 346.253 471.23 346.253 471.315 346.253L471.305 346.244Z" fill="black"/>
<path d="M394.439 422.057C387.61 422.057 382.049 416.494 382.049 409.662C382.049 409.033 382.105 408.375 382.227 407.651C383.214 401.637 388.352 397.277 394.439 397.277C394.683 397.277 394.918 397.296 395.153 397.306H395.284C400.883 397.691 405.532 401.797 406.594 407.294C406.744 408.084 406.829 408.882 406.829 409.662C406.829 411.551 406.397 413.383 405.561 415.103C403.457 419.388 399.201 422.057 394.439 422.057ZM394.439 400.087C389.733 400.087 385.769 403.46 385.008 408.102C384.914 408.676 384.867 409.183 384.867 409.662C384.867 414.943 389.16 419.238 394.439 419.238C398.112 419.238 401.409 417.18 403.024 413.863C403.673 412.528 404.001 411.119 404.001 409.662C404.001 409.061 403.945 408.45 403.823 407.83C402.996 403.583 399.408 400.416 395.087 400.125H394.955C394.786 400.106 394.608 400.087 394.439 400.087Z" fill="black"/>
<path d="M415.067 424.775C409.149 424.775 404.039 420.556 402.912 414.748C402.855 414.448 402.893 414.138 403.034 413.856C403.682 412.521 404.011 411.112 404.011 409.655C404.011 409.054 403.954 408.443 403.832 407.823C403.776 407.522 403.813 407.212 403.954 406.93C406.059 402.645 410.314 399.977 415.076 399.977C416.692 399.977 418.279 400.287 419.782 400.907C424.451 402.824 427.466 407.325 427.466 412.371C427.466 413.687 427.25 415.002 426.827 416.28C425.146 421.354 420.421 424.765 415.076 424.765L415.067 424.775ZM405.767 414.645C406.801 418.902 410.642 421.956 415.067 421.956C419.191 421.956 422.845 419.325 424.141 415.397C424.47 414.41 424.629 413.395 424.629 412.38C424.629 408.481 422.3 405.013 418.693 403.529C417.528 403.049 416.307 402.805 415.057 402.805C411.535 402.805 408.36 404.703 406.669 407.785C406.763 408.415 406.819 409.044 406.819 409.665C406.819 411.394 406.462 413.066 405.767 414.654V414.645Z" fill="black"/>
<path d="M429.645 418.084C428.03 418.084 426.442 417.774 424.939 417.154C424.254 416.872 423.906 416.111 424.141 415.406C424.47 414.419 424.629 413.404 424.629 412.39C424.629 408.49 422.3 405.023 418.693 403.538C418.007 403.256 417.659 402.495 417.894 401.79C418.702 399.356 420.233 397.251 422.318 395.72C424.46 394.141 426.996 393.305 429.645 393.305C435.094 393.305 439.978 396.951 441.519 402.185C441.857 403.34 442.035 404.524 442.035 405.699C442.035 412.531 436.474 418.093 429.645 418.093V418.084ZM427.184 414.946C427.983 415.162 428.809 415.265 429.645 415.265C434.924 415.265 439.217 410.971 439.217 405.69C439.217 404.778 439.086 403.867 438.823 402.974C437.63 398.933 433.854 396.114 429.645 396.114C427.598 396.114 425.644 396.763 423.991 397.984C422.713 398.924 421.708 400.136 421.032 401.527C424.967 403.688 427.447 407.813 427.447 412.38C427.447 413.235 427.353 414.09 427.175 414.936L427.184 414.946Z" fill="black"/>
<path d="M440.175 403.98C440.025 403.98 439.875 403.952 439.725 403.905C439.292 403.754 438.954 403.407 438.823 402.965C437.63 398.924 433.854 396.105 429.645 396.105C427.598 396.105 425.644 396.754 423.991 397.975C423.624 398.248 423.136 398.323 422.704 398.173C422.272 398.022 421.933 397.675 421.802 397.233C421.464 396.077 421.285 394.903 421.285 393.719C421.285 390.345 422.619 387.197 425.043 384.839C427.372 382.574 430.434 381.324 433.675 381.324C438.212 381.324 442.374 383.796 444.553 387.789C445.539 389.593 446.065 391.651 446.065 393.719C446.065 397.637 444.177 401.358 441.002 403.698C440.758 403.877 440.467 403.971 440.166 403.971L440.175 403.98ZM429.655 393.296C434.38 393.296 438.682 396.04 440.748 400.184C442.355 398.436 443.256 396.162 443.256 393.728C443.256 392.131 442.853 390.543 442.092 389.152C440.41 386.07 437.188 384.162 433.685 384.162C431.186 384.162 428.819 385.13 427.015 386.878C425.146 388.701 424.113 391.135 424.113 393.737C424.113 394.019 424.122 394.311 424.15 394.593C425.85 393.737 427.72 393.296 429.655 393.296Z" fill="black"/>
<path d="M443.322 389.882C443.256 389.882 443.181 389.882 443.116 389.864C442.683 389.798 442.298 389.535 442.092 389.149C440.41 386.067 437.188 384.16 433.685 384.16C431.186 384.16 428.819 385.128 427.015 386.875C426.696 387.185 426.264 387.326 425.822 387.261C425.39 387.195 425.005 386.932 424.798 386.546C423.812 384.742 423.286 382.684 423.286 380.617C423.286 375.054 427.034 370.149 432.398 368.674C433.487 368.373 434.586 368.223 435.667 368.223C441.763 368.223 446.901 372.592 447.878 378.616C447.991 379.33 448.056 379.987 448.056 380.617C448.056 383.99 446.723 387.138 444.299 389.497C444.036 389.751 443.679 389.892 443.313 389.892L443.322 389.882ZM433.685 381.341C437.555 381.341 441.152 383.145 443.482 386.142C444.628 384.536 445.248 382.619 445.248 380.608C445.248 380.128 445.201 379.621 445.107 379.057C444.346 374.406 440.382 371.032 435.676 371.032C434.849 371.032 433.995 371.145 433.149 371.38C429.007 372.517 426.104 376.304 426.104 380.598C426.104 381.613 426.264 382.619 426.574 383.577C428.65 382.121 431.111 381.331 433.675 381.331L433.685 381.341Z" fill="black"/>
<path d="M454.566 369.622C454.209 369.622 453.862 369.491 453.599 369.237C453.317 368.974 453.157 368.598 453.157 368.213C453.138 362.951 448.846 358.666 443.585 358.666C443.435 358.666 443.294 358.675 443.153 358.684H442.984C442.58 358.722 442.214 358.581 441.932 358.318C441.65 358.055 441.49 357.679 441.49 357.294C441.49 356.993 441.509 356.73 441.528 356.467C441.988 349.927 447.418 344.871 453.88 344.871C454.049 344.871 454.228 344.88 454.397 344.89H454.557C458.549 345.134 462.175 347.258 464.307 350.575C464.645 351.111 464.598 351.806 464.176 352.276C463.697 352.811 463.293 353.385 462.964 353.967C462.165 355.396 461.743 357.002 461.743 358.637C461.743 360.47 462.269 362.246 463.264 363.796C463.603 364.332 463.556 365.027 463.133 365.497C460.944 367.95 457.948 369.406 454.679 369.613C454.651 369.613 454.622 369.613 454.594 369.613L454.566 369.622ZM444.412 355.884C450.311 356.279 455.102 360.827 455.862 366.615C457.516 366.268 459.037 365.488 460.296 364.341C459.385 362.584 458.896 360.63 458.896 358.647C458.896 356.533 459.441 354.446 460.475 352.605C460.728 352.154 461.01 351.721 461.32 351.299C459.639 349.203 457.131 347.897 454.425 347.737L454.181 347.718C454.078 347.718 453.965 347.7 453.862 347.7C449.109 347.7 445.079 351.242 444.402 355.894L444.412 355.884Z" fill="black"/>
<path d="M446.497 380.242C446.225 380.242 445.962 380.167 445.736 380.016C445.398 379.8 445.173 379.452 445.107 379.058C444.346 374.406 440.382 371.033 435.676 371.033C434.849 371.033 433.995 371.146 433.149 371.381C432.764 371.484 432.351 371.418 432.013 371.202C431.674 370.986 431.449 370.638 431.383 370.244C431.27 369.52 431.205 368.872 431.205 368.242C431.205 365.761 431.937 363.365 433.318 361.317C434.079 360.198 435.028 359.202 436.136 358.357C438.071 356.891 440.382 356.036 442.815 355.885H442.965C443.172 355.857 443.379 355.848 443.595 355.848C450.386 355.848 455.928 361.364 455.985 368.148C455.985 368.176 455.985 368.214 455.985 368.233C455.985 373.796 452.237 378.71 446.864 380.176C446.741 380.214 446.619 380.223 446.488 380.223L446.497 380.242ZM435.676 368.214C441.209 368.214 445.943 371.813 447.512 376.972C450.884 375.459 453.148 372.076 453.167 368.289C453.167 368.261 453.167 368.233 453.167 368.204C453.148 362.942 448.855 358.667 443.595 358.667C443.444 358.667 443.303 358.676 443.163 358.685H442.993C441.115 358.817 439.33 359.475 437.836 360.602C436.972 361.26 436.23 362.031 435.657 362.886C434.596 364.465 434.032 366.316 434.032 368.233V368.317C434.586 368.242 435.131 368.204 435.676 368.204V368.214Z" fill="black"/>
<path d="M504.398 389.224C497.569 389.224 492.008 383.661 492.008 376.83C492.008 376.689 492.008 376.548 492.027 376.407V376.247C492.168 373.353 493.314 370.599 495.268 368.466C497.616 365.901 500.941 364.426 504.398 364.426C511.227 364.426 516.788 369.989 516.788 376.82C516.788 377.609 516.713 378.427 516.553 379.226C516.506 379.451 516.403 379.667 516.262 379.846C515.257 381.058 514.571 382.524 514.261 384.075C514.214 384.3 514.111 384.516 513.97 384.695C511.603 387.561 508.118 389.205 504.408 389.205L504.398 389.224ZM504.398 367.254C501.73 367.254 499.157 368.391 497.344 370.374C495.841 372.018 494.958 374.151 494.854 376.379V376.595C494.836 376.67 494.826 376.745 494.826 376.82C494.826 382.101 499.119 386.396 504.398 386.396C507.16 386.396 509.752 385.221 511.575 383.163C511.979 381.415 512.749 379.771 513.848 378.361C513.933 377.844 513.97 377.337 513.97 376.83C513.97 371.549 509.677 367.254 504.398 367.254Z" fill="black"/>
<path d="M522.64 398.295C522.64 398.295 522.556 398.295 522.509 398.295C516.093 397.712 511.255 392.412 511.255 385.957C511.255 385.158 511.331 384.35 511.49 383.551C511.885 381.55 512.777 379.652 514.073 378.082C516.441 375.216 519.925 373.562 523.636 373.562C525.186 373.562 526.708 373.854 528.173 374.427C528.408 374.521 528.605 374.671 528.755 374.859C528.896 375.038 529.046 375.207 529.197 375.367C529.526 375.724 529.638 376.222 529.516 376.692C529.281 377.547 529.159 378.402 529.159 379.229C529.159 382.941 531.338 386.342 534.72 387.911C535.359 388.212 535.678 388.936 535.472 389.603C534.805 391.755 533.546 393.7 531.836 395.222C531.545 395.476 531.169 395.598 530.775 395.57C530.484 395.542 530.192 395.523 529.901 395.523C527.572 395.523 525.327 396.378 523.57 397.938C523.307 398.163 522.978 398.295 522.64 398.295ZM523.645 376.382C520.78 376.382 518.084 377.65 516.253 379.868C515.248 381.08 514.562 382.546 514.252 384.096C514.13 384.716 514.064 385.337 514.064 385.957C514.064 390.749 517.521 394.715 522.189 395.419C524.509 393.568 527.45 392.582 530.39 392.732C531.226 391.896 531.902 390.928 532.372 389.866C528.671 387.648 526.341 383.608 526.341 379.238C526.341 378.449 526.416 377.65 526.576 376.851C525.618 376.541 524.632 376.382 523.626 376.382H523.645Z" fill="black"/>
<path d="M538.741 391.621C536.946 391.621 535.199 391.236 533.546 390.466C529.178 388.436 526.351 384.029 526.351 379.227C526.351 378.146 526.501 377.038 526.801 375.938C526.933 375.44 527.327 375.064 527.835 374.942C528.333 374.82 528.859 374.98 529.206 375.365C530.192 376.436 531.414 377.291 532.757 377.818C533.884 378.259 535.068 378.485 536.261 378.485C540.553 378.485 544.339 375.591 545.476 371.447C545.607 370.948 546.002 370.573 546.509 370.45C547.007 370.328 547.533 370.488 547.88 370.873C549.975 373.166 551.13 376.136 551.13 379.227C551.13 386.059 545.57 391.621 538.741 391.621ZM529.169 379.067C529.169 379.124 529.169 379.18 529.169 379.227C529.169 382.939 531.348 386.34 534.729 387.91C536.007 388.502 537.36 388.802 538.741 388.802C544.02 388.802 548.312 384.508 548.312 379.227C548.312 377.648 547.918 376.117 547.185 374.735C545.072 378.701 540.892 381.304 536.261 381.304C534.711 381.304 533.189 381.012 531.724 380.439C530.822 380.082 529.967 379.622 529.169 379.067Z" fill="black"/>
<path d="M524.707 373.316C517.878 373.316 512.317 367.753 512.317 360.922C512.317 359.061 512.73 357.257 513.547 355.556C513.839 354.955 514.506 354.645 515.154 354.805C515.943 355.002 516.722 355.096 517.464 355.096C521.165 355.096 524.472 353.01 526.078 349.664C526.369 349.063 527.036 348.753 527.685 348.913C532.005 349.984 535.425 353.32 536.618 357.605C536.73 358.009 536.655 358.441 536.42 358.779C536.186 359.118 535.8 359.343 535.387 359.381C530.418 359.822 526.679 363.919 526.679 368.909C526.679 369.755 526.802 370.619 527.036 371.474C527.149 371.879 527.074 372.311 526.839 372.649C526.604 372.997 526.219 373.213 525.806 373.25C525.439 373.288 525.073 373.307 524.697 373.307L524.707 373.316ZM515.68 357.774C515.323 358.789 515.144 359.841 515.144 360.922C515.144 365.959 519.043 370.093 523.984 370.469C523.918 369.952 523.88 369.426 523.88 368.909C523.88 363.064 527.854 358.159 533.368 356.862C532.306 354.607 530.399 352.831 528.041 351.957C525.505 356.111 520.696 358.535 515.67 357.774H515.68Z" fill="black"/>
<path d="M536.261 381.315C534.711 381.315 533.189 381.023 531.724 380.45C529.986 379.764 528.389 378.665 527.121 377.274C526.924 377.058 526.736 376.842 526.557 376.616C525.524 375.319 524.782 373.844 524.331 372.247C524.021 371.147 523.871 370.029 523.871 368.93C523.871 362.465 528.718 357.165 535.152 356.592C535.519 356.563 535.885 356.535 536.261 356.535C543.09 356.535 548.651 362.098 548.651 368.93C548.651 370.02 548.5 371.119 548.2 372.218C546.725 377.584 541.822 381.324 536.261 381.324V381.315ZM536.261 359.345C535.969 359.345 535.678 359.364 535.396 359.392C530.437 359.833 526.689 363.93 526.689 368.92C526.689 369.766 526.811 370.63 527.046 371.485C527.393 372.726 527.966 373.863 528.765 374.859C528.906 375.037 529.056 375.197 529.206 375.366C530.183 376.438 531.414 377.293 532.757 377.819C533.884 378.261 535.068 378.486 536.261 378.486C540.553 378.486 544.339 375.592 545.476 371.448C545.71 370.593 545.833 369.738 545.833 368.911C545.833 363.63 541.54 359.335 536.261 359.335V359.345Z" fill="black"/>
<path d="M517.474 357.916C516.497 357.916 515.492 357.794 514.487 357.54C508.954 356.168 505.093 351.226 505.093 345.522C505.093 340.626 507.987 336.181 512.467 334.199C514.064 333.494 515.746 333.137 517.483 333.137C523.129 333.137 528.051 336.952 529.46 342.421C529.732 343.464 529.864 344.507 529.864 345.522C529.864 347.382 529.451 349.186 528.633 350.887C526.576 355.153 522.199 357.916 517.474 357.916ZM517.474 335.946C516.14 335.946 514.834 336.219 513.604 336.773C510.147 338.305 507.902 341.744 507.902 345.522C507.902 349.919 510.889 353.735 515.163 354.806C515.952 355.003 516.732 355.097 517.474 355.097C521.175 355.097 524.481 353.011 526.088 349.666C526.717 348.35 527.036 346.959 527.036 345.522C527.036 344.742 526.933 343.934 526.717 343.126C525.627 338.906 521.823 335.956 517.464 335.956L517.474 335.946Z" fill="black"/>
<path d="M528.088 344.187C527.882 344.187 527.666 344.14 527.478 344.046C527.102 343.868 526.83 343.53 526.726 343.126C525.637 338.906 521.832 335.956 517.474 335.956C516.14 335.956 514.834 336.228 513.604 336.783C513.228 336.952 512.796 336.942 512.42 336.764C512.044 336.585 511.772 336.247 511.669 335.843C511.396 334.8 511.265 333.757 511.265 332.742C511.265 328.344 513.632 324.247 517.446 322.03C519.334 320.93 521.485 320.348 523.655 320.348C528.83 320.348 533.508 323.627 535.284 328.504C535.791 329.885 536.045 331.314 536.045 332.742C536.045 337.638 533.151 342.082 528.671 344.065C528.492 344.15 528.295 344.187 528.098 344.187H528.088ZM517.474 333.137C522.518 333.137 526.989 336.191 528.887 340.739C531.555 338.991 533.217 335.993 533.217 332.733C533.217 331.633 533.02 330.534 532.635 329.463C531.263 325.694 527.647 323.157 523.655 323.157C521.983 323.157 520.32 323.608 518.864 324.454C515.914 326.164 514.092 329.34 514.092 332.733C514.092 333.015 514.102 333.306 514.13 333.597C515.219 333.287 516.337 333.137 517.483 333.137H517.474Z" fill="black"/>
<path d="M533.95 330.392C533.79 330.392 533.63 330.364 533.471 330.307C533.076 330.166 532.766 329.856 532.625 329.462C531.254 325.694 527.638 323.156 523.645 323.156C521.973 323.156 520.311 323.607 518.855 324.453C518.498 324.66 518.066 324.707 517.671 324.557C517.277 324.416 516.967 324.106 516.826 323.711C516.318 322.33 516.065 320.911 516.065 319.473C516.065 315.921 517.605 312.529 520.292 310.17C522.556 308.178 525.458 307.088 528.455 307.088C532.315 307.088 535.894 308.855 538.261 311.927C539.952 314.117 540.845 316.729 540.845 319.482C540.845 323.88 538.477 327.977 534.664 330.195C534.448 330.317 534.203 330.383 533.959 330.383L533.95 330.392ZM523.645 320.347C528.22 320.347 532.4 322.903 534.542 326.859C536.721 325.055 538.027 322.348 538.027 319.482C538.027 317.359 537.341 315.338 536.035 313.647C534.204 311.269 531.442 309.907 528.464 309.907C526.153 309.907 523.908 310.753 522.161 312.294C520.085 314.117 518.892 316.738 518.892 319.482C518.892 320.065 518.949 320.647 519.061 321.23C520.517 320.647 522.086 320.337 523.655 320.337L523.645 320.347Z" fill="black"/>
<path d="M537.144 314.201C537.144 314.201 537.05 314.201 537.012 314.201C536.627 314.164 536.27 313.966 536.035 313.656C534.203 311.279 531.442 309.916 528.464 309.916C526.153 309.916 523.908 310.762 522.161 312.303C521.87 312.557 521.485 312.688 521.1 312.651C520.715 312.613 520.358 312.416 520.123 312.106C518.432 309.916 517.54 307.304 517.54 304.551C517.54 301.093 519.014 297.757 521.579 295.408C523.871 293.312 526.839 292.156 529.92 292.156C533.659 292.156 537.162 293.819 539.53 296.732C541.324 298.931 542.31 301.713 542.31 304.551C542.31 308.103 540.769 311.495 538.083 313.853C537.82 314.079 537.491 314.201 537.153 314.201H537.144ZM528.455 307.097C531.78 307.097 534.889 308.403 537.209 310.734C538.665 309.014 539.483 306.825 539.483 304.551C539.483 302.277 538.74 300.238 537.331 298.508C535.5 296.263 532.794 294.975 529.911 294.975C527.525 294.975 525.242 295.868 523.467 297.484C521.475 299.298 520.339 301.873 520.339 304.541C520.339 306.195 520.752 307.783 521.56 309.202C523.598 307.83 525.994 307.088 528.455 307.088V307.097Z" fill="black"/>
<path d="M538.421 299.025C538.421 299.025 538.355 299.025 538.318 299.025C537.933 298.997 537.576 298.809 537.332 298.509C535.5 296.263 532.795 294.975 529.911 294.975C527.525 294.975 525.242 295.868 523.467 297.484C523.185 297.747 522.809 297.888 522.415 297.851C522.03 297.823 521.673 297.635 521.428 297.334C519.634 295.135 518.648 292.354 518.648 289.516C518.648 287.054 519.371 284.667 520.743 282.628C523.054 279.179 526.895 277.131 531.038 277.131C533.377 277.131 535.66 277.798 537.651 279.057C541.267 281.35 543.428 285.259 543.428 289.525C543.428 292.983 541.953 296.319 539.389 298.668C539.126 298.903 538.788 299.035 538.44 299.035L538.421 299.025ZM529.911 292.156C533.114 292.156 536.148 293.378 538.44 295.558C539.83 293.857 540.6 291.724 540.6 289.516C540.6 286.227 538.928 283.201 536.139 281.435C534.607 280.457 532.842 279.95 531.038 279.95C527.844 279.95 524.866 281.538 523.082 284.197C522.02 285.776 521.466 287.618 521.466 289.525C521.466 291.245 521.936 292.946 522.809 294.421C524.885 292.955 527.356 292.166 529.911 292.166V292.156Z" fill="black"/>
<path d="M521.898 284.817C521.635 284.817 521.382 284.742 521.147 284.601C517.53 282.308 515.37 278.399 515.37 274.133C515.37 272.113 515.868 270.111 516.816 268.335C518.977 264.266 523.166 261.748 527.76 261.748C529.967 261.748 532.146 262.349 534.063 263.486C537.82 265.714 540.15 269.792 540.15 274.142C540.15 276.604 539.426 278.991 538.055 281.04C537.623 281.669 536.777 281.857 536.129 281.444C534.598 280.467 532.832 279.959 531.029 279.959C527.835 279.959 524.857 281.547 523.072 284.206C522.8 284.61 522.358 284.836 521.898 284.836V284.817ZM527.76 264.558C524.209 264.558 520.968 266.512 519.306 269.651C518.564 271.041 518.188 272.554 518.188 274.133C518.188 276.99 519.446 279.649 521.616 281.463C523.955 278.728 527.375 277.131 531.029 277.131C532.879 277.131 534.701 277.544 536.364 278.343C537.003 277.037 537.341 275.608 537.341 274.133C537.341 270.722 535.584 267.649 532.635 265.901C531.151 265.028 529.469 264.558 527.769 264.558H527.76Z" fill="black"/>
<path d="M530.418 252.315C530.108 252.315 529.807 252.211 529.544 252.014C527.844 250.67 525.796 249.965 523.645 249.965C521.494 249.965 519.446 250.67 517.746 252.014C517.239 252.418 516.516 252.418 516.008 252.014C512.993 249.646 511.265 246.094 511.265 242.269C511.265 235.438 516.826 229.875 523.655 229.875C526.191 229.875 528.633 230.646 530.718 232.093C531.057 232.328 531.273 232.694 531.31 233.098C531.348 233.502 531.216 233.906 530.944 234.207C529.3 235.983 528.389 238.295 528.389 240.7C528.389 243.829 529.929 246.761 532.503 248.556C532.841 248.791 533.057 249.157 533.095 249.561C533.133 249.965 533.001 250.369 532.729 250.67C532.278 251.159 531.789 251.6 531.282 252.004C531.029 252.202 530.718 252.305 530.408 252.305L530.418 252.315ZM523.645 232.694C518.366 232.694 514.073 236.988 514.073 242.269C514.073 244.872 515.116 247.315 516.957 249.11C518.949 247.823 521.241 247.146 523.636 247.146C525.101 247.146 526.52 247.4 527.863 247.889C526.388 245.812 525.562 243.312 525.562 240.71C525.562 238.107 526.341 235.71 527.778 233.643C526.491 233.023 525.082 232.694 523.636 232.694H523.645Z" fill="black"/>
<path d="M518.066 270.394C517.812 270.394 517.568 270.328 517.352 270.197C513.594 267.97 511.265 263.892 511.265 259.541C511.265 255.716 512.993 252.164 516.008 249.796C518.216 248.067 520.855 247.146 523.645 247.146C526.435 247.146 529.084 248.058 531.282 249.796C534.297 252.164 536.026 255.716 536.026 259.541C536.026 261.552 535.528 263.563 534.579 265.339C534.401 265.677 534.091 265.931 533.715 266.034C533.339 266.137 532.945 266.081 532.616 265.893C531.132 265.019 529.45 264.549 527.75 264.549C524.199 264.549 520.959 266.504 519.296 269.642C519.118 269.981 518.808 270.234 518.432 270.338C518.31 270.375 518.178 270.394 518.047 270.394H518.066ZM517.746 252.014C515.417 253.846 514.073 256.59 514.073 259.541C514.073 262.491 515.388 265.179 517.643 266.983C519.944 263.713 523.702 261.73 527.76 261.73C529.441 261.73 531.113 262.078 532.663 262.745C533.029 261.721 533.217 260.64 533.217 259.531C533.217 256.581 531.883 253.837 529.544 252.005C527.844 250.661 525.796 249.956 523.645 249.956C521.494 249.956 519.446 250.661 517.746 252.005V252.014Z" fill="black"/>
<path d="M537.961 253.104C535.425 253.104 532.982 252.333 530.897 250.886C527.562 248.565 525.58 244.759 525.58 240.719C525.58 237.599 526.754 234.611 528.887 232.308C531.235 229.771 534.542 228.324 537.97 228.324C543.672 228.324 548.613 232.196 549.984 237.74C550.163 238.463 549.75 239.206 549.036 239.422C545.015 240.672 542.31 244.346 542.31 248.565C542.31 249.307 542.404 250.087 542.601 250.867C542.78 251.591 542.366 252.333 541.652 252.549C540.469 252.916 539.229 253.104 537.97 253.104H537.961ZM537.961 231.134C535.274 231.134 532.785 232.224 530.944 234.216C529.3 235.992 528.389 238.304 528.389 240.709C528.389 243.838 529.929 246.77 532.503 248.565C534.57 250.003 537.144 250.566 539.586 250.144C539.511 249.608 539.483 249.082 539.483 248.556C539.483 243.575 542.395 239.178 546.866 237.214C545.447 233.577 541.953 231.134 537.961 231.134Z" fill="black"/>
<path d="M550.811 260.903C550.811 260.903 550.717 260.903 550.68 260.903C545.466 260.405 541.117 256.646 539.849 251.553C539.605 250.547 539.473 249.542 539.473 248.574C539.473 243.115 542.977 238.36 548.181 236.734C549.365 236.368 550.604 236.18 551.863 236.18C558.692 236.18 564.253 241.743 564.253 248.574C564.253 250.435 563.84 252.239 563.023 253.94C562.769 254.475 562.205 254.785 561.623 254.729C561.322 254.701 561.012 254.682 560.702 254.682C557.001 254.682 553.695 256.768 552.089 260.113C551.854 260.602 551.356 260.912 550.821 260.912L550.811 260.903ZM551.863 238.989C550.896 238.989 549.938 239.13 549.017 239.422C544.997 240.671 542.291 244.346 542.291 248.565C542.291 249.307 542.385 250.087 542.582 250.867C543.484 254.503 546.415 257.257 550.031 257.961C552.239 254.222 556.325 251.854 560.693 251.854C560.74 251.854 560.787 251.854 560.843 251.854C561.238 250.792 561.435 249.692 561.435 248.565C561.435 243.284 557.142 238.989 551.863 238.989Z" fill="black"/>
<path d="M568.508 273.362C568.452 273.362 568.386 273.362 568.33 273.353C567.898 273.297 567.503 273.043 567.287 272.658C565.577 269.679 562.403 267.828 558.983 267.828C556.41 267.828 553.986 268.843 552.173 270.675C551.863 270.985 551.422 271.145 550.99 271.079C550.548 271.023 550.163 270.769 549.947 270.384C548.876 268.514 548.312 266.39 548.312 264.238C548.312 262.378 548.726 260.573 549.543 258.873C551.6 254.597 555.977 251.844 560.702 251.844C561.106 251.844 561.501 251.863 561.886 251.9C568.273 252.511 573.083 257.811 573.083 264.229C573.083 267.508 571.815 270.6 569.504 272.93C569.241 273.203 568.875 273.353 568.499 273.353L568.508 273.362ZM558.983 265.009C562.741 265.009 566.282 266.738 568.612 269.622C569.682 268.044 570.265 266.183 570.265 264.248C570.265 259.286 566.545 255.189 561.613 254.719C561.313 254.691 561.003 254.672 560.693 254.672C556.992 254.672 553.685 256.758 552.079 260.104C551.45 261.419 551.13 262.81 551.13 264.248C551.13 265.319 551.318 266.39 551.675 267.405C553.789 265.854 556.325 265.018 558.993 265.018L558.983 265.009Z" fill="black"/>
<path d="M554.954 289.019C554.785 289.019 554.606 288.99 554.437 288.925C549.675 287.045 546.594 282.516 546.594 277.404C546.594 274.125 547.862 271.033 550.172 268.703C552.521 266.325 555.649 265.01 558.983 265.01C563.408 265.01 567.522 267.406 569.729 271.259C570.8 273.129 571.373 275.252 571.373 277.404C571.373 279.791 570.688 282.112 569.382 284.123C569.016 284.687 568.311 284.912 567.682 284.668C566.545 284.217 565.371 283.991 564.169 283.991C560.918 283.991 557.913 285.626 556.137 288.38C555.874 288.793 555.423 289.019 554.954 289.019ZM558.983 267.829C556.41 267.829 553.986 268.844 552.173 270.676C550.388 272.48 549.412 274.867 549.412 277.404C549.412 280.994 551.375 284.198 554.484 285.852C556.823 282.901 560.364 281.182 564.169 281.182C565.315 281.182 566.451 281.341 567.55 281.661C568.208 280.345 568.546 278.889 568.546 277.414C568.546 275.76 568.104 274.115 567.278 272.668C565.568 269.689 562.393 267.838 558.974 267.838L558.983 267.829Z" fill="black"/>
<path d="M572.303 302.333C572.097 302.333 571.88 302.286 571.683 302.193C571.223 301.967 570.81 301.798 570.396 301.666C570.002 301.544 569.682 301.243 569.523 300.868C568.029 297.297 564.563 294.985 560.693 294.985C558.401 294.985 556.184 295.812 554.446 297.316C554.071 297.635 553.563 297.738 553.103 297.588C552.633 297.438 552.276 297.062 552.164 296.583C551.91 295.568 551.779 294.553 551.779 293.566C551.779 291.179 552.464 288.858 553.77 286.848C556.071 283.296 559.96 281.172 564.168 281.172C565.718 281.172 567.25 281.463 568.715 282.046C573.477 283.925 576.558 288.454 576.558 293.566C576.558 296.63 575.422 299.58 573.355 301.864C573.083 302.164 572.698 302.324 572.313 302.324L572.303 302.333ZM571.871 299.195C571.871 299.195 571.89 299.195 571.899 299.195C573.092 297.56 573.75 295.596 573.75 293.557C573.75 289.61 571.373 286.115 567.691 284.658C566.554 284.207 565.38 283.982 564.178 283.982C560.928 283.982 557.922 285.617 556.147 288.37C555.141 289.92 554.615 291.715 554.615 293.557C554.615 293.623 554.615 293.688 554.615 293.754C556.466 292.702 558.561 292.147 560.712 292.147C565.512 292.147 569.823 294.891 571.88 299.186L571.871 299.195Z" fill="black"/>
<path d="M557.34 316.409C557.199 316.409 557.048 316.391 556.907 316.344C551.76 314.69 548.303 309.954 548.303 304.551C548.303 300.952 549.872 297.531 552.605 295.173C554.86 293.227 557.725 292.156 560.693 292.156C565.7 292.156 570.19 295.144 572.125 299.777C572.341 300.284 572.237 300.867 571.862 301.271C571.486 301.675 570.913 301.826 570.396 301.656C569.448 301.356 568.461 301.196 567.466 301.196C564.779 301.196 562.196 302.352 560.374 304.353C558.777 306.12 557.894 308.403 557.894 310.762C557.894 312.04 558.138 313.28 558.636 314.445C558.852 314.953 558.749 315.535 558.373 315.94C558.1 316.231 557.725 316.4 557.34 316.4V316.409ZM560.693 294.975C558.401 294.975 556.184 295.802 554.446 297.306C552.333 299.129 551.121 301.769 551.121 304.551C551.121 307.736 552.68 310.63 555.179 312.378C555.113 311.852 555.076 311.316 555.076 310.771C555.076 307.708 556.212 304.757 558.288 302.465C560.768 299.73 564.347 298.236 568.029 298.386C566.245 296.253 563.577 294.966 560.693 294.966V294.975Z" fill="black"/>
<path d="M572.576 321.897C572.435 321.897 572.294 321.878 572.153 321.831C571.796 321.719 571.495 321.474 571.326 321.136C569.955 318.514 567.4 316.644 564.488 316.137C563.896 316.034 563.361 315.987 562.835 315.987C561.632 315.987 560.449 316.212 559.322 316.663C558.974 316.804 558.673 316.936 558.392 317.086C558.063 317.265 557.668 317.302 557.311 317.189C556.954 317.077 556.654 316.832 556.485 316.494C556.325 316.184 556.165 315.864 556.034 315.545C555.404 314.032 555.076 312.425 555.076 310.771C555.076 307.708 556.212 304.757 558.288 302.465C560.637 299.862 563.981 298.377 567.466 298.377C568.752 298.377 570.03 298.574 571.251 298.969C571.787 299.138 572.341 299.364 572.914 299.646C577.188 301.75 579.846 306.007 579.846 310.762C579.846 315.517 577.31 319.576 573.214 321.728C573.008 321.831 572.782 321.888 572.557 321.888L572.576 321.897ZM562.844 313.168C563.53 313.168 564.225 313.233 564.976 313.365C568.245 313.938 571.176 315.836 573.045 318.552C575.535 316.767 577.037 313.891 577.037 310.771C577.037 307.097 574.98 303.808 571.674 302.183C571.214 301.957 570.8 301.788 570.387 301.656C569.438 301.346 568.452 301.196 567.456 301.196C564.77 301.196 562.187 302.352 560.364 304.353C558.767 306.12 557.884 308.403 557.884 310.762C557.884 311.861 558.072 312.942 558.439 313.966C559.848 313.431 561.332 313.158 562.825 313.158L562.844 313.168Z" fill="black"/>
<path d="M555.498 335.119C555.151 335.119 554.813 334.988 554.559 334.753C551.957 332.404 550.464 329.049 550.464 325.563C550.464 320.949 553 316.749 557.095 314.597C557.462 314.399 557.856 314.221 558.298 314.052C559.763 313.469 561.294 313.178 562.853 313.178C563.539 313.178 564.234 313.244 564.986 313.375C568.752 314.033 572.059 316.448 573.834 319.849C574.764 321.635 575.243 323.561 575.243 325.572C575.243 328.335 574.342 330.956 572.641 333.155C572.397 333.465 572.04 333.663 571.655 333.7C571.261 333.738 570.875 333.606 570.584 333.343C568.818 331.746 566.545 330.872 564.187 330.872C561.219 330.872 558.457 332.225 556.626 334.593C556.381 334.903 556.024 335.1 555.639 335.138C555.602 335.138 555.555 335.138 555.517 335.138L555.498 335.119ZM562.844 315.987C561.642 315.987 560.458 316.213 559.331 316.664C558.983 316.805 558.683 316.936 558.401 317.087C555.235 318.75 553.272 322.001 553.272 325.563C553.272 327.78 554.052 329.923 555.461 331.633C557.772 329.331 560.871 328.034 564.178 328.034C566.695 328.034 569.138 328.805 571.195 330.233C572.003 328.814 572.416 327.217 572.416 325.563C572.416 324.012 572.05 322.528 571.326 321.146C569.955 318.525 567.4 316.655 564.488 316.147C563.896 316.044 563.361 315.997 562.835 315.997L562.844 315.987Z" fill="black"/>
<path d="M560.186 352.063C560.017 352.063 559.838 352.035 559.678 351.969C554.888 350.099 551.788 345.57 551.788 340.43C551.788 337.667 552.69 335.045 554.39 332.846C556.757 329.792 560.327 328.035 564.178 328.035C567.24 328.035 570.18 329.172 572.463 331.239C575.065 333.589 576.558 336.943 576.558 340.43C576.558 342.403 576.098 344.292 575.196 346.058C574.868 346.707 574.107 346.989 573.43 346.725C572.303 346.284 571.138 346.068 569.964 346.068C566.357 346.068 563.088 348.069 561.444 351.292C561.2 351.781 560.702 352.063 560.186 352.063ZM564.168 330.854C561.2 330.854 558.439 332.207 556.607 334.575C555.292 336.276 554.597 338.296 554.597 340.43C554.597 343.991 556.532 347.186 559.613 348.84C561.886 345.363 565.747 343.249 569.964 343.249C571.045 343.249 572.125 343.39 573.167 343.681C573.543 342.638 573.74 341.548 573.74 340.43C573.74 337.733 572.585 335.149 570.575 333.335C568.809 331.738 566.536 330.864 564.178 330.864L564.168 330.854Z" fill="black"/>
<path d="M564.131 366.343C563.868 366.343 563.614 366.268 563.379 366.127C559.744 363.844 557.574 359.916 557.574 355.64C557.574 353.667 558.035 351.778 558.936 350.012C561.069 345.84 565.296 343.246 569.964 343.246C571.495 343.246 573.008 343.537 574.454 344.101C579.254 345.971 582.345 350.5 582.345 355.64C582.345 359.061 580.973 362.256 578.475 364.624C578.005 365.065 577.3 365.131 576.756 364.793C575.225 363.825 573.468 363.318 571.674 363.318C569.222 363.318 566.883 364.257 565.098 365.958C564.826 366.212 564.478 366.343 564.131 366.343ZM569.964 346.065C566.357 346.065 563.088 348.067 561.444 351.29C560.749 352.652 560.392 354.118 560.392 355.631C560.392 358.591 561.736 361.326 564.037 363.139C566.216 361.42 568.884 360.489 571.674 360.489C573.609 360.489 575.516 360.95 577.244 361.824C578.719 360.095 579.527 357.933 579.527 355.631C579.527 351.666 577.131 348.161 573.43 346.714C572.303 346.272 571.138 346.056 569.964 346.056V346.065Z" fill="black"/>
<path d="M576.211 384.292C576.014 384.292 575.826 384.254 575.647 384.17C575.281 384.01 574.999 383.7 574.877 383.315C573.59 379.368 569.936 376.718 565.784 376.718C564.422 376.718 563.088 377.009 561.83 377.583C561.463 377.752 561.05 377.752 560.684 377.583C560.317 377.423 560.035 377.113 559.913 376.728C559.5 375.478 559.293 374.181 559.293 372.875C559.293 369.454 560.665 366.26 563.163 363.892C565.474 361.693 568.508 360.48 571.683 360.48C574.013 360.48 576.286 361.138 578.268 362.388C581.903 364.681 584.073 368.599 584.073 372.875C584.073 377.714 581.218 382.14 576.803 384.151C576.615 384.236 576.418 384.273 576.22 384.273L576.211 384.292ZM565.784 373.909C570.584 373.909 574.877 376.652 576.925 380.89C579.593 379.133 581.246 376.136 581.246 372.894C581.246 369.652 579.564 366.56 576.756 364.794C575.225 363.826 573.468 363.318 571.674 363.318C569.222 363.318 566.883 364.258 565.099 365.959C563.173 367.791 562.111 370.253 562.111 372.894C562.111 373.41 562.149 373.927 562.233 374.435C563.379 374.087 564.572 373.909 565.784 373.909Z" fill="black"/>
<path d="M565.784 398.699C565.408 398.699 565.042 398.68 564.676 398.643C564.018 398.586 563.492 398.079 563.398 397.421C562.816 393.023 559.19 389.546 554.775 389.152C554.118 389.095 553.592 388.588 553.507 387.93C553.432 387.319 553.394 386.803 553.394 386.305C553.394 381.465 556.25 377.039 560.665 375.028C562.29 374.286 564.009 373.91 565.784 373.91C571.148 373.91 575.882 377.34 577.554 382.442C577.967 383.702 578.174 384.998 578.174 386.295C578.174 393.127 572.613 398.69 565.784 398.69V398.699ZM556.212 386.511C560.994 387.413 564.873 391.135 565.981 395.88C571.167 395.767 575.347 391.52 575.347 386.305C575.347 385.299 575.187 384.303 574.868 383.326C573.581 379.379 569.927 376.729 565.775 376.729C564.413 376.729 563.079 377.02 561.82 377.594C558.41 379.144 556.203 382.565 556.203 386.305C556.203 386.37 556.203 386.436 556.203 386.511H556.212Z" fill="black"/>
<path d="M553.93 411.074C547.101 411.074 541.54 405.511 541.54 398.68C541.54 391.848 547.101 386.285 553.93 386.285C554.305 386.285 554.672 386.304 555.038 386.342C560.759 386.849 565.446 391.35 566.198 397.054C566.273 397.665 566.31 398.182 566.31 398.68C566.31 405.511 560.749 411.074 553.92 411.074H553.93ZM553.93 389.104C548.651 389.104 544.358 393.399 544.358 398.68C544.358 403.961 548.651 408.255 553.93 408.255C559.209 408.255 563.502 403.961 563.502 398.68C563.502 398.304 563.473 397.9 563.408 397.42C562.825 393.023 559.199 389.546 554.784 389.151C554.503 389.123 554.221 389.104 553.93 389.104Z" fill="black"/>
<path d="M529.911 417.492C523.082 417.492 517.521 411.929 517.521 405.098C517.521 401.564 519.043 398.181 521.71 395.823C523.983 393.812 526.895 392.703 529.911 392.703C530.296 392.703 530.672 392.722 531.047 392.76C537.463 393.342 542.301 398.642 542.301 405.098C542.301 411.929 536.74 417.492 529.911 417.492ZM529.911 395.522C527.581 395.522 525.336 396.377 523.58 397.937C521.522 399.76 520.339 402.372 520.339 405.098C520.339 410.379 524.632 414.673 529.911 414.673C535.19 414.673 539.483 410.379 539.483 405.098C539.483 400.117 535.744 396.02 530.794 395.569C530.502 395.541 530.211 395.522 529.92 395.522H529.911Z" fill="black"/>
<path d="M489.387 409.682C483.488 409.682 478.388 405.491 477.242 399.712C477.167 399.336 477.242 398.941 477.467 398.631C477.683 398.321 478.031 398.105 478.407 398.048C483.103 397.325 486.513 393.35 486.513 388.595C486.513 387.975 486.447 387.346 486.325 386.725C486.25 386.349 486.325 385.955 486.551 385.645C486.767 385.335 487.114 385.118 487.49 385.062C488.176 384.959 488.796 384.902 489.378 384.902C496.207 384.902 501.768 390.465 501.768 397.297C501.768 397.438 501.768 397.569 501.749 397.701V397.842C501.721 398.199 501.571 398.547 501.308 398.791C499.532 400.501 498.499 402.794 498.386 405.265C498.368 405.622 498.217 405.97 497.954 406.214C495.634 408.451 492.581 409.682 489.378 409.682H489.387ZM480.37 400.492C481.704 404.25 485.301 406.863 489.387 406.863C491.689 406.863 493.887 406.045 495.625 404.542C495.878 401.77 497.043 399.195 498.959 397.175C498.894 391.95 494.629 387.721 489.387 387.721C489.359 387.721 489.331 387.721 489.303 387.721C489.322 388.013 489.331 388.304 489.331 388.595C489.331 394.215 485.649 398.998 480.37 400.501V400.492Z" fill="black"/>
<path d="M507.949 418.084C501.12 418.084 495.559 412.521 495.559 405.69C495.559 405.549 495.559 405.417 495.578 405.286V405.145C495.728 401.959 497.071 398.98 499.373 396.772C501.693 394.536 504.746 393.305 507.949 393.305C514.778 393.305 520.339 398.868 520.339 405.699C520.339 412.531 514.778 418.093 507.949 418.093V418.084ZM507.949 396.114C505.469 396.114 503.121 397.063 501.327 398.792C499.551 400.503 498.518 402.795 498.405 405.267V405.474C498.386 405.549 498.386 405.624 498.386 405.699C498.386 410.98 502.679 415.274 507.958 415.274C513.237 415.274 517.53 410.98 517.53 405.699C517.53 400.418 513.237 396.124 507.958 396.124L507.949 396.114Z" fill="black"/>
<path d="M495.343 365.789C494.808 365.789 494.291 365.479 494.056 364.962C492.506 361.551 489.087 359.343 485.348 359.343C484.447 359.343 483.545 359.474 482.652 359.737C482.23 359.86 481.779 359.784 481.422 359.521C481.065 359.258 480.858 358.854 480.849 358.413C480.811 356.918 480.426 355.471 479.703 354.128C479.581 353.902 479.524 353.648 479.534 353.395C479.553 352.944 479.6 352.493 479.665 352.051C480.483 346.732 484.606 342.579 489.923 341.724C490.637 341.611 491.285 341.555 491.896 341.555C496.921 341.555 501.411 344.552 503.337 349.194C503.966 350.707 504.285 352.305 504.285 353.949C504.285 359.315 500.866 364.041 495.775 365.714C495.625 365.761 495.484 365.789 495.334 365.789H495.343ZM485.358 356.524C489.744 356.524 493.793 358.873 496.01 362.594C499.326 361.025 501.486 357.689 501.486 353.94C501.486 352.671 501.242 351.44 500.754 350.266C499.26 346.676 495.794 344.364 491.914 344.364C491.454 344.364 490.947 344.411 490.383 344.496C486.278 345.154 483.103 348.358 482.465 352.464C482.427 352.69 482.399 352.915 482.389 353.141C482.944 354.259 483.329 355.434 483.526 356.646C484.137 356.552 484.747 356.505 485.358 356.505V356.524Z" fill="black"/>
<path d="M471.296 371.035C467.069 371.035 463.171 368.902 460.879 365.332C459.592 363.33 458.915 361.018 458.915 358.65C458.915 356.536 459.46 354.45 460.493 352.608C460.925 351.838 461.452 351.105 462.062 350.419C464.166 348.06 467.041 346.604 470.169 346.322C471.709 346.181 473.315 346.322 474.847 346.782C477.524 347.581 479.881 349.291 481.488 351.593C481.769 351.997 481.995 352.411 482.211 352.806C483.15 354.544 483.648 356.414 483.686 358.359C483.705 358.998 483.282 359.562 482.671 359.74C482.559 359.787 482.465 359.825 482.38 359.853C478.698 361.065 476.133 364.354 475.852 368.235C475.814 368.78 475.466 369.25 474.959 369.447C474.151 369.757 473.391 370.19 472.686 370.716C472.461 370.885 472.188 370.979 471.906 370.998H471.756C471.606 371.026 471.456 371.035 471.296 371.035ZM471.296 349.066C470.995 349.066 470.704 349.084 470.413 349.113C468.008 349.329 465.782 350.456 464.157 352.279C463.678 352.815 463.274 353.388 462.945 353.971C462.147 355.399 461.724 357.006 461.724 358.641C461.724 360.473 462.25 362.249 463.246 363.8C465.021 366.563 468.027 368.216 471.296 368.216H471.324C471.897 367.812 472.498 367.465 473.128 367.164C473.747 362.766 476.659 359.064 480.783 357.429C480.633 356.282 480.276 355.174 479.712 354.131C479.515 353.764 479.346 353.463 479.158 353.2C477.918 351.415 476.096 350.09 474.029 349.479C473.137 349.216 472.216 349.075 471.296 349.075V349.066Z" fill="black"/>
<path d="M476.951 400.98C470.122 400.98 464.561 395.417 464.561 388.586C464.561 385.945 465.397 383.408 466.965 381.266C467.275 380.852 467.792 380.627 468.299 380.702C468.816 380.777 469.248 381.125 469.426 381.613C470.798 385.391 474.405 387.928 478.416 387.928C479.844 387.928 481.225 387.608 482.54 386.988C483.028 386.753 483.47 386.5 483.864 386.227C484.728 385.626 485.489 384.883 486.128 384.009C486.438 383.587 486.945 383.371 487.462 383.446C487.978 383.521 488.411 383.869 488.589 384.357C488.824 384.996 488.984 385.579 489.106 386.161C489.265 386.969 489.341 387.778 489.341 388.576C489.341 394.731 484.926 399.871 478.848 400.811C478.144 400.924 477.542 400.971 476.96 400.971L476.951 400.98ZM468.036 385.109C467.604 386.208 467.379 387.383 467.379 388.586C467.379 393.867 471.671 398.161 476.951 398.161C477.392 398.161 477.852 398.123 478.416 398.039C483.113 397.315 486.522 393.341 486.522 388.595C486.522 388.323 486.513 388.041 486.485 387.768C486.156 388.05 485.818 388.313 485.47 388.558C484.944 388.924 484.381 389.243 483.751 389.544C482.061 390.352 480.266 390.766 478.416 390.766C474.18 390.766 470.291 388.576 468.036 385.118V385.109Z" fill="black"/>
<path d="M478.416 390.759C473.231 390.759 468.553 387.479 466.778 382.593C466.28 381.212 466.026 379.793 466.026 378.374C466.026 374.446 467.839 370.838 470.995 368.47C471.897 367.793 472.883 367.239 473.935 366.835C474.386 366.656 474.894 366.731 475.279 367.013C475.664 367.295 475.88 367.765 475.852 368.244C475.852 368.366 475.833 368.479 475.814 368.601C475.805 368.714 475.786 368.817 475.786 368.93V369.156C475.87 372.153 477.308 374.888 479.741 376.664C480.915 377.519 482.23 378.083 483.648 378.336C484.249 378.449 484.804 378.496 485.358 378.496C486.532 378.496 487.706 378.271 488.843 377.82C489.294 377.641 489.801 377.707 490.195 377.998C490.59 378.28 490.806 378.75 490.768 379.229C490.609 381.569 489.791 383.796 488.401 385.685C487.584 386.803 486.598 387.771 485.471 388.551C485.405 388.598 485.348 388.635 485.273 388.663C484.775 388.898 484.343 389.152 483.939 389.425C483.874 389.472 483.817 389.509 483.742 389.537C482.051 390.345 480.257 390.759 478.407 390.759H478.416ZM473.071 370.443C472.94 370.528 472.808 370.622 472.686 370.716C470.244 372.548 468.844 375.339 468.844 378.365C468.844 379.464 469.041 380.554 469.427 381.625C470.798 385.403 474.405 387.94 478.416 387.94C479.806 387.94 481.159 387.639 482.436 387.038C482.906 386.718 483.395 386.436 483.949 386.164C484.775 385.572 485.508 384.848 486.128 384.012C486.776 383.129 487.265 382.142 487.575 381.099C486.137 381.372 484.719 381.381 483.15 381.099C481.309 380.77 479.609 380.037 478.078 378.928C475.26 376.88 473.475 373.826 473.062 370.434L473.071 370.443Z" fill="black"/>
<path d="M485.358 381.312C484.644 381.312 483.921 381.246 483.15 381.105C481.309 380.777 479.609 380.044 478.078 378.935C474.931 376.633 473.071 373.09 472.977 369.209C472.977 369.078 472.968 369.002 472.968 368.918C472.968 368.702 472.987 368.486 473.015 368.269C473.015 368.194 473.034 368.11 473.043 368.035C473.4 363.007 476.725 358.741 481.497 357.172C481.647 357.106 481.76 357.059 481.873 357.031C483.019 356.693 484.193 356.523 485.358 356.523C490.195 356.523 494.62 359.38 496.63 363.797C497.372 365.422 497.748 367.151 497.748 368.918C497.748 369.068 497.748 369.219 497.729 369.359V369.5C497.701 369.829 497.569 370.139 497.353 370.374C495.85 372.019 494.967 374.152 494.864 376.379C494.845 376.708 494.723 377.018 494.498 377.262C493.239 378.634 491.642 379.734 489.876 380.429C488.411 381.002 486.898 381.303 485.358 381.303V381.312ZM485.358 359.342C484.456 359.342 483.554 359.474 482.662 359.737C482.549 359.784 482.465 359.822 482.371 359.85C478.688 361.062 476.124 364.351 475.842 368.232C475.842 368.345 475.823 368.467 475.805 368.58C475.795 368.692 475.777 368.796 475.777 368.908V369.134C475.861 372.132 477.298 374.866 479.731 376.642C480.905 377.497 482.22 378.061 483.639 378.315C484.24 378.427 484.794 378.474 485.348 378.474C486.523 378.474 487.697 378.249 488.833 377.798C490.045 377.319 491.163 376.595 492.074 375.693C492.3 373.175 493.295 370.788 494.92 368.852C494.92 367.508 494.62 366.193 494.056 364.943C492.506 361.532 489.087 359.324 485.348 359.324L485.358 359.342Z" fill="black"/>
<path d="M483.141 389.676C482.653 389.676 482.183 389.422 481.92 388.971C481.553 388.332 481.732 387.524 482.333 387.101C482.859 386.734 483.413 386.415 484.052 386.105C484.719 385.785 485.508 386.03 485.884 386.669C486.25 387.308 486.072 388.116 485.471 388.539C484.944 388.905 484.381 389.224 483.752 389.525C483.554 389.619 483.348 389.666 483.141 389.666V389.676Z" fill="black"/>
<path d="M439.959 276.107C439.546 276.107 439.17 275.834 439.058 275.421C438.917 274.923 439.208 274.406 439.715 274.265L482.897 262.246C483.395 262.105 483.911 262.397 484.052 262.904C484.193 263.402 483.902 263.919 483.395 264.06L440.213 276.079C440.129 276.097 440.044 276.116 439.959 276.116V276.107Z" fill="black"/>
<path d="M467.895 279.528C467.482 279.528 467.106 279.255 466.994 278.842C466.853 278.344 467.144 277.827 467.651 277.686L482.897 273.438C483.395 273.307 483.911 273.589 484.052 274.096C484.193 274.594 483.902 275.111 483.395 275.252L468.149 279.499C468.065 279.518 467.98 279.537 467.895 279.537V279.528Z" fill="black"/>
<path d="M455.75 294.947C455.336 294.947 454.961 294.675 454.848 294.261C454.707 293.763 454.998 293.246 455.506 293.106L482.897 285.485C483.395 285.344 483.911 285.635 484.052 286.142C484.193 286.641 483.902 287.157 483.395 287.298L456.003 294.919C455.919 294.938 455.834 294.957 455.75 294.957V294.947Z" fill="black"/>
<path d="M88.3732 258.489C88.0445 258.489 87.7251 258.319 87.556 258.009L73.4283 232.676C73.1747 232.225 73.3344 231.651 73.7947 231.398C74.2455 231.144 74.8185 231.304 75.0722 231.764L89.1999 257.098C89.4535 257.549 89.2938 258.122 88.8335 258.376C88.6926 258.46 88.5329 258.498 88.3732 258.498V258.489Z" fill="black"/>
<path d="M88.3733 269.465C88.0445 269.465 87.7251 269.295 87.556 268.985L77.8808 251.648C77.6272 251.197 77.7869 250.624 78.2472 250.37C78.698 250.117 79.271 250.276 79.5247 250.737L89.1999 268.074C89.4535 268.525 89.2938 269.098 88.8335 269.352C88.6926 269.436 88.533 269.474 88.3733 269.474V269.465Z" fill="black"/>
<path d="M80.0695 265.64C79.7407 265.64 79.4213 265.47 79.2522 265.16L73.4283 254.72C73.1747 254.269 73.3344 253.696 73.7947 253.443C74.2455 253.189 74.8185 253.349 75.0722 253.809L80.8961 264.249C81.1497 264.7 80.99 265.273 80.5297 265.527C80.3888 265.611 80.2291 265.649 80.0695 265.649V265.64Z" fill="black"/>
<path d="M185.764 255.622C185.689 255.622 185.604 255.612 185.529 255.593C185.022 255.462 184.721 254.945 184.853 254.447L198.915 200.519C199.046 200.011 199.563 199.72 200.061 199.842C200.568 199.974 200.869 200.491 200.737 200.989L186.675 254.917C186.563 255.34 186.187 255.622 185.764 255.622Z" fill="black"/>
<path d="M202.081 238.868C202.005 238.868 201.921 238.859 201.846 238.84C201.338 238.709 201.038 238.192 201.169 237.694L202.87 231.154C203.001 230.646 203.518 230.355 204.016 230.477C204.523 230.609 204.823 231.125 204.692 231.623L202.992 238.164C202.879 238.586 202.503 238.868 202.081 238.868Z" fill="black"/>
<path d="M206.618 221.446C206.542 221.446 206.458 221.436 206.383 221.418C205.875 221.286 205.575 220.769 205.706 220.271L211.699 197.296C211.831 196.789 212.348 196.497 212.845 196.62C213.353 196.751 213.653 197.268 213.522 197.766L207.529 220.741C207.416 221.164 207.04 221.446 206.618 221.446Z" fill="black"/>
<path d="M215.316 233.841C215.241 233.841 215.156 233.831 215.081 233.813C214.574 233.681 214.273 233.164 214.405 232.666L220.952 207.558C221.083 207.05 221.6 206.759 222.098 206.881C222.605 207.013 222.906 207.53 222.774 208.028L216.227 233.136C216.114 233.559 215.739 233.841 215.316 233.841Z" fill="black"/>
<path d="M311.27 80.6354C310.847 80.6354 310.462 80.3535 310.358 79.9212C310.236 79.4138 310.537 78.9064 311.044 78.7842L347.998 69.5096C348.496 69.3874 349.012 69.6881 349.134 70.1955C349.257 70.703 348.956 71.2104 348.449 71.3326L311.495 80.6072C311.42 80.626 311.345 80.6354 311.27 80.6354Z" fill="black"/>
<path d="M339.487 82.0634C339.065 82.0634 338.68 81.7815 338.576 81.3492C338.454 80.8418 338.755 80.3344 339.262 80.2122L353.174 76.7166C353.671 76.5945 354.188 76.8952 354.31 77.4026C354.432 77.91 354.132 78.4174 353.624 78.5396L339.713 82.0352C339.638 82.054 339.563 82.0634 339.487 82.0634Z" fill="black"/>
<path d="M161.088 406.911C160.674 406.911 160.299 406.638 160.186 406.216C160.054 405.718 160.346 405.201 160.853 405.06L192.264 396.574C192.762 396.443 193.279 396.734 193.42 397.242C193.551 397.74 193.26 398.257 192.753 398.397L161.341 406.883C161.257 406.902 161.182 406.911 161.097 406.911H161.088Z" fill="black"/>
<path d="M161.088 414.984C160.674 414.984 160.299 414.711 160.186 414.289C160.054 413.791 160.346 413.274 160.853 413.133L176.559 408.895C177.057 408.763 177.573 409.055 177.714 409.562C177.846 410.06 177.554 410.577 177.047 410.718L161.341 414.956C161.257 414.975 161.182 414.984 161.097 414.984H161.088Z" fill="black"/>
<path d="M155.442 173.456C155.142 173.456 154.841 173.315 154.663 173.042L134.119 142.597C133.828 142.165 133.941 141.582 134.373 141.291C134.805 140.999 135.387 141.112 135.678 141.544L156.222 171.99C156.513 172.422 156.4 173.005 155.968 173.296C155.809 173.409 155.621 173.456 155.442 173.456Z" fill="black"/>
<path d="M132.71 159.652C132.41 159.652 132.109 159.511 131.931 159.239L125.44 149.616C125.149 149.184 125.261 148.601 125.693 148.31C126.125 148.019 126.708 148.132 126.999 148.564L133.49 158.186C133.781 158.618 133.668 159.201 133.236 159.492C133.077 159.605 132.889 159.652 132.71 159.652Z" fill="black"/>
<path d="M414.391 379.294C413.874 379.294 413.451 378.871 413.451 378.354C413.451 374.022 410.483 372.481 407.937 372.481C407.421 372.481 406.998 372.058 406.998 371.541C406.998 371.024 407.421 370.602 407.937 370.602C411.619 370.602 415.33 372.998 415.33 378.354C415.33 378.871 414.907 379.294 414.391 379.294Z" fill="black"/>
<path d="M473.447 341.744C473.447 341.744 473.391 341.744 473.362 341.744C472.846 341.697 472.461 341.246 472.508 340.729C472.695 338.624 473.813 336.885 475.739 335.692C478.059 334.264 481.309 333.86 483.479 334.715C483.958 334.903 484.193 335.457 484.005 335.936C483.817 336.416 483.272 336.65 482.784 336.463C481.375 335.899 478.717 336.058 476.725 337.289C475.748 337.891 474.546 339.009 474.377 340.888C474.33 341.377 473.926 341.744 473.438 341.744H473.447Z" fill="black"/>
<path d="M479.806 370.067C479.308 370.067 478.895 369.681 478.867 369.183C478.773 367.473 479.543 365.66 480.943 364.316C482.512 362.803 484.644 362.108 486.936 362.324C487.453 362.371 487.828 362.831 487.781 363.348C487.734 363.865 487.283 364.231 486.757 364.194C485.02 364.025 483.423 364.551 482.249 365.669C481.262 366.618 480.68 367.924 480.746 369.071C480.774 369.588 480.379 370.029 479.863 370.057C479.844 370.057 479.825 370.057 479.806 370.057V370.067Z" fill="black"/>
<path d="M530.55 368.131C530.484 368.131 530.427 368.131 530.362 368.112C529.854 368.009 529.526 367.511 529.629 367.003C530.099 364.72 531.836 362.944 534.269 362.267C537.059 361.487 540.074 362.286 541.953 364.297C542.31 364.673 542.291 365.274 541.906 365.622C541.53 365.979 540.939 365.96 540.582 365.575C539.173 364.062 536.89 363.47 534.777 364.072C533.001 364.57 531.799 365.772 531.47 367.379C531.376 367.821 530.991 368.131 530.55 368.131Z" fill="black"/>
<path d="M535.274 305.5C535.274 305.5 535.246 305.5 535.237 305.5C534.72 305.481 534.316 305.04 534.335 304.523C534.373 303.583 533.922 302.174 532.851 301.149C532.165 300.501 530.972 299.768 529.112 299.918C528.577 299.965 528.135 299.58 528.098 299.063C528.051 298.546 528.436 298.086 528.953 298.048C531.508 297.832 533.189 298.875 534.157 299.796C535.5 301.074 536.289 302.916 536.223 304.607C536.204 305.115 535.791 305.509 535.284 305.509L535.274 305.5Z" fill="black"/>
<path d="M532.719 242.645C532.24 242.645 531.827 242.278 531.78 241.789C531.583 239.506 532.259 237.429 533.706 235.935C535.143 234.451 537.191 233.689 539.473 233.812C539.99 233.84 540.394 234.281 540.366 234.798C540.337 235.315 539.887 235.7 539.379 235.691C537.66 235.597 536.11 236.151 535.058 237.241C534.006 238.341 533.499 239.891 533.659 241.63C533.706 242.147 533.321 242.607 532.804 242.645C532.776 242.645 532.748 242.645 532.719 242.645Z" fill="black"/>
<path d="M572.463 308.038C572.172 308.038 571.881 307.906 571.702 307.643C571.063 306.76 569.147 305.792 567.165 305.773C565.972 305.745 564.413 306.083 563.248 307.652C562.938 308.066 562.356 308.16 561.933 307.85C561.52 307.54 561.426 306.948 561.736 306.534C563.37 304.326 565.606 303.866 567.174 303.894C569.551 303.913 572.144 305.05 573.224 306.544C573.524 306.967 573.43 307.549 573.008 307.859C572.839 307.981 572.651 308.038 572.463 308.038Z" fill="black"/>
<path d="M569.964 389.951C569.739 389.951 569.523 389.876 569.344 389.716C568.959 389.368 568.922 388.776 569.269 388.391C570.199 387.348 570.096 385.027 569.063 383.439C568.433 382.471 566.94 380.987 564.037 381.917C563.539 382.077 563.013 381.804 562.853 381.315C562.694 380.817 562.966 380.291 563.455 380.131C566.395 379.182 569.072 380.028 570.631 382.405C572.162 384.755 572.181 387.931 570.678 389.632C570.49 389.838 570.237 389.951 569.974 389.951H569.964Z" fill="black"/>
<path d="M435.028 406.188C434.53 406.188 434.117 405.803 434.089 405.305C434.023 404.233 432.924 402.523 431.383 401.706C430.434 401.198 428.932 400.813 427.156 401.856C426.705 402.119 426.132 401.969 425.869 401.518C425.606 401.067 425.757 400.493 426.207 400.23C428.18 399.074 430.341 399.009 432.276 400.042C434.267 401.114 435.864 403.322 435.967 405.192C435.995 405.709 435.601 406.15 435.084 406.188C435.065 406.188 435.047 406.188 435.028 406.188Z" fill="black"/>
<path d="M294.183 444.94C293.882 444.94 293.591 444.846 293.347 444.668L268.126 426.072C267.769 425.809 267.553 425.386 267.553 424.935V403.745C267.553 403.557 267.59 403.369 267.665 403.19C276.345 382.875 299.208 386.163 306.019 387.658C319.761 390.674 333.532 400.315 331.325 414.344C329.249 427.519 323.331 440.336 294.408 444.931C294.333 444.94 294.258 444.95 294.183 444.95V444.94ZM270.371 424.22L294.54 442.046C319.695 437.912 326.337 427.801 328.535 413.903C330.592 400.851 315.835 392.704 305.408 390.411C297.414 388.654 278.054 386.492 270.361 404.036V424.23L270.371 424.22Z" fill="black"/>
<path d="M294.183 444.94C294.183 444.94 294.108 444.94 294.07 444.94C293.291 444.884 292.708 444.207 292.774 443.427L294.455 421.307L268.22 404.938C267.562 404.524 267.355 403.66 267.769 402.993C268.182 402.335 269.046 402.128 269.713 402.542L296.682 419.362C297.123 419.634 297.377 420.142 297.339 420.668L295.601 443.643C295.545 444.386 294.925 444.949 294.202 444.949L294.183 444.94Z" fill="black"/>
<path d="M311.627 416.127C305.746 416.127 299.678 415.197 295.451 413.712C288.462 411.26 280.656 406.702 279.717 401.28C279.435 399.683 279.67 397.324 282.338 395.144C282.939 394.656 283.831 394.74 284.32 395.351C284.808 395.962 284.724 396.845 284.113 397.334C282.798 398.405 282.272 399.533 282.488 400.801C283.08 404.175 288.791 408.394 296.381 411.062C304.722 413.994 321.424 414.567 326.271 409.747C327.595 408.431 327.877 406.853 327.154 404.776C326.9 404.043 327.285 403.235 328.027 402.981C328.76 402.727 329.568 403.113 329.822 403.855C331.165 407.755 329.718 410.301 328.262 411.748C325.134 414.868 318.512 416.137 311.636 416.137L311.627 416.127Z" fill="black"/>
<path d="M325.886 413.244C325.341 413.244 324.824 412.924 324.589 412.398C324.571 412.361 322.476 407.794 315.281 403.358C309.241 399.628 298.87 398.312 291.675 400.351C289.411 400.99 286.452 402.268 285.231 404.693C284.883 405.388 284.029 405.67 283.343 405.322C282.648 404.975 282.366 404.129 282.714 403.434C284.038 400.793 286.875 398.782 290.905 397.645C298.898 395.381 310.011 396.809 316.755 400.972C324.768 405.914 327.079 411.073 327.173 411.289C327.483 412.004 327.154 412.83 326.44 413.141C326.261 413.216 326.064 413.253 325.876 413.253L325.886 413.244Z" fill="black"/>
<path d="M295.921 421.964C295.244 421.964 294.653 421.476 294.531 420.79C294.399 420.019 294.916 419.296 295.686 419.164L301.294 418.206C302.055 418.083 302.787 418.591 302.919 419.361C303.05 420.132 302.534 420.856 301.764 420.987L296.156 421.946C296.08 421.955 295.996 421.964 295.921 421.964Z" fill="black"/>
<path d="M284.752 433.223C284.564 433.223 284.376 433.166 284.217 433.053L271.874 424.399C271.62 424.22 271.47 423.938 271.47 423.628V413.724C271.47 413.386 271.658 413.066 271.949 412.907C272.24 412.747 272.616 412.747 272.898 412.925L286.058 421.091C286.358 421.279 286.527 421.617 286.499 421.965L285.682 432.349C285.654 432.687 285.447 432.978 285.147 433.129C285.015 433.185 284.884 433.223 284.743 433.223H284.752ZM273.348 423.14L283.954 430.563L284.592 422.388L273.348 415.406V423.13V423.14Z" fill="black"/>
<path d="M291.046 422.836H285.569C285.053 422.836 284.63 422.414 284.63 421.897C284.63 421.38 285.053 420.957 285.569 420.957H291.046C291.562 420.957 291.985 421.38 291.985 421.897C291.985 422.414 291.562 422.836 291.046 422.836Z" fill="black"/>
<path d="M290.012 436.312C289.853 436.312 289.684 436.274 289.533 436.181L284.273 433.089C283.822 432.826 283.681 432.253 283.935 431.802C284.198 431.36 284.771 431.2 285.222 431.463L290.482 434.555C290.933 434.818 291.074 435.391 290.82 435.842C290.642 436.143 290.332 436.303 290.012 436.303V436.312Z" fill="black"/>
<path d="M272.4 414.672C272.4 414.672 272.306 414.672 272.259 414.662C271.742 414.587 271.395 414.108 271.47 413.591L271.902 410.715C271.977 410.199 272.456 409.86 272.973 409.926C273.489 410.001 273.837 410.481 273.762 410.997L273.33 413.873C273.264 414.343 272.86 414.672 272.4 414.672Z" fill="black"/>
<path d="M272.4 424.568C272.278 424.568 272.155 424.549 272.043 424.502C271.93 424.455 271.827 424.38 271.742 424.296C271.648 424.202 271.582 424.108 271.535 423.985C271.489 423.873 271.46 423.751 271.46 423.628C271.46 423.572 271.46 423.506 271.479 423.45C271.479 423.384 271.507 423.328 271.535 423.271C271.554 423.215 271.592 423.158 271.62 423.112C271.658 423.055 271.695 423.008 271.742 422.961C271.949 422.745 272.287 422.651 272.588 422.707C272.644 422.707 272.71 422.736 272.766 422.764C272.822 422.783 272.869 422.811 272.926 422.848C272.973 422.886 273.02 422.924 273.067 422.961C273.104 423.008 273.151 423.055 273.179 423.112C273.217 423.158 273.245 423.215 273.273 423.271C273.292 423.328 273.311 423.384 273.32 423.45C273.339 423.506 273.339 423.572 273.339 423.628C273.339 423.751 273.32 423.873 273.273 423.985C273.226 424.108 273.151 424.202 273.067 424.296C272.982 424.38 272.879 424.455 272.766 424.502C272.644 424.549 272.531 424.568 272.4 424.568Z" fill="black"/>
</g>
</svg>
