<?xml version="1.0" encoding="UTF-8"?>
<svg xmlns="http://www.w3.org/2000/svg" viewBox="0 0 677.07 533.16">

    <style>
        :root { fill:#222 }
        .accent { fill: #f9322c; }

        @media (prefers-color-scheme: dark) {
        :root {  fill: #f9322c; }
        .accent { fill:#dee2e6; }
        }
    </style>

    <path d="m637.71,85.81l-3.57-12.77-17.71-2.67-8.52-2.95-311.81,5.11-244.15-6.38v8.68l-4.02,6.64s-2.04,6.13-.89,6.38c1.15.26,2.28,4.85,2.28,4.85l-2.28,348.32-1.91,7.33,3.41,11.23,3.42,7.4,388.4-1.28,182.55,1.28,1.79-19.02-2.55-6.51,8.82-12.26v-193.02l-.91-135.96,7.66-14.43ZM71.54,445.88l-1.92-349.47,531.44-6.89.68,354.64-530.21,1.72Z" class="accent"/>
  <path d="m108.76,141.17c-2.88,9.49,3.12,57.24,3.12,57.24l8.3,10.98-8.3,13.53s-3.74,138.88-2.19,146.04c1.55,7.15,12.02,17.11,12.02,17.11h80.23l4.53-17.11-9.09-8.92v-81.71l-1.19-9.45s1.54-100.34,1.19-101.36,10.42-25.83-.75-30.13c-11.17-4.3-87.87,3.79-87.87,3.79Z" class="accent"/>
  <polygon points="248.66 138.15 248.66 153.71 256.13 163.81 248.66 168.79 248.66 198.28 257.14 204.41 250.58 207.47 251.73 244.62 347.86 243.48 347.86 222.41 342.2 216.47 350.73 209.96 345.37 139.3 248.66 138.15" class="accent"/>
  <polygon points="396.35 110.96 384.05 122.84 375.81 235.05 449.54 243.48 465.24 231.22 472.71 118.81 396.35 110.96" class="accent"/>
  <polygon points="499.52 170.9 510.05 223.94 518.28 228.15 514.83 240.98 519.81 258.79 593.4 243.48 585.21 213.6 575.92 202.11 586.15 182.01 581.2 154.62 499.52 170.9" class="accent"/>
  <polygon points="502 316.71 491.09 328.58 494.34 417.51 518.28 422.61 591.05 422.61 601.06 403.18 599.15 320.84 574.24 311.07 502 316.71" class="accent"/>
  <path d="m378.64,263.01c-6.85,3.06-6.85,13.98-6.85,13.98l6.85,5.74-5.63,97.66-1.21,9.19-3.7,26.33,93.2,4.55,7.78-59.41-9-10.34s22.31-65.49,17.47-77.17c-4.84-11.68-98.9-10.53-98.9-10.53Z" class="accent"/>
  <polygon points="249.05 300.15 240.26 402.41 234.88 404.9 234.88 414.47 331.42 418.88 335.16 363.54 331.42 309.15 249.05 300.15" class="accent"/>
  <path d="m628.48,96.57h-.01l-142.18-1.08-216.77-2.94-137.84,1.15-87.3,1.79c-.47.02-.93-.21-1.22-.58l-2.17-2.81c-.29-.38-.39-.87-.26-1.32l1.17-4.13-.78-.78c-.28-.28-.44-.66-.44-1.06v-6.51c0-.83.67-1.5,1.5-1.5h3.32l-3.13-6.24c-.23-.47-.21-1.03.07-1.47.28-.44.77-.7,1.3-.7l118.21,2.03,258.29-.57,199.24-.96c.19,0,.38.03.56.1l2.68,1.05c.41.16.72.49.87.9.14.41.1.86-.11,1.24l-1.06,1.85,11.19.31c.82.02,1.47.7,1.46,1.52l-.1,7.56c-.01.79-.63,1.43-1.41,1.48l-.26.02,1.74,1.31c.66.49.79,1.43.3,2.09l-5.65,7.66c-.28.38-.73.61-1.21.61Zm-358.96-7.02l216.8,2.94,141.41,1.08,4.31-5.85-1.66-1.25-8.28-.91c-.77-.09-1.35-.75-1.34-1.53.02-.78.63-1.41,1.41-1.46l9.81-.59.06-4.69-12.21-.34c-.53-.01-1.01-.31-1.27-.76-.26-.46-.26-1.02,0-1.48l1.44-2.52-.8-.31-198.96.96-258.32.57-115.77-1.99,3.1,6.2c.23.47.21,1.02-.06,1.46-.27.44-.76.71-1.28.71h-4.24v4.39l.96.97c.38.38.53.95.38,1.47l-1.2,4.25,1.25,1.61,86.56-1.77,137.89-1.15Z" />
  <path d="m46.07,441.83c-.82,0-1.49-.66-1.5-1.49l-.96-105.51,1.92-106.32-.96-134.55c0-.83.66-1.5,1.49-1.51h.01c.82,0,1.49.66,1.5,1.49l.96,134.59-1.92,106.31.96,105.47c0,.83-.66,1.51-1.49,1.51h-.01Z" />
  <path d="m628.52,463.91h-.02l-125.36-1.91-167.61,1.91H42.81c-.7,0-1.3-.48-1.46-1.16l-1.72-7.4c-.04-.16-.05-.33-.03-.5l.49-4.62-1.76-1.66c-.49-.47-.61-1.21-.29-1.8l3.45-6.38c.26-.48.76-.78,1.3-.79l101.49-1.4,219.35.89,140.91-1.66h126.41c.46,0,.89.21,1.18.57.28.36.39.83.28,1.28l-1.7,7.11,1.66,4.89c.12.37.1.77-.06,1.12l-2.29,4.87v5.15c0,.4-.16.79-.45,1.07-.28.28-.66.43-1.05.43Zm-584.51-3h291.5l167.63-1.91,123.88,1.89v-3.97c0-.22.05-.44.14-.64l2.18-4.62-1.6-4.72c-.09-.27-.1-.56-.04-.83l1.36-5.68h-124.49l-140.92,1.66-219.34-.89-100.58,1.39-2.48,4.59,1.46,1.38c.34.32.51.78.46,1.25l-.55,5.11,1.4,6Z" />
  <path d="m67.69,442.25c-.83,0-1.5-.67-1.5-1.5V93.95c0-.83.67-1.5,1.5-1.5s1.5.67,1.5,1.5v346.8c0,.83-.67,1.5-1.5,1.5Z" />
  <path d="m605.6,440.42h-.02c-.83,0-1.49-.69-1.48-1.52l1.73-164.04-3.46-179.95c-.02-.83.64-1.51,1.47-1.53,0,0,.02,0,.03,0,.81,0,1.48.65,1.5,1.47l3.46,180-1.73,164.09c0,.82-.68,1.48-1.5,1.48Z" />
  <path d="m625.71,440.42s-.06,0-.08,0c-.83-.05-1.46-.75-1.41-1.58l3.44-62.12-1.91-161.57-1.53-120.06c-.01-.83.65-1.51,1.48-1.52.8.01,1.51.65,1.52,1.48l1.53,120.06,1.91,161.62s0,.07,0,.1l-3.45,62.17c-.04.8-.71,1.42-1.5,1.42Z" />
  <path d="m113.7,384.7c-1.13,0-2.52-.44-4.02-1.9-5.82-5.69-3.77-34.55-3.51-37.83.05-.68.56-1.25,1.24-1.36l6.67-1.16-3.88-1.3c-.29-.1-.54-.28-.72-.52-.15-.2-3.77-5.09-2.27-13.31,1.41-7.71,1.86-38.23,1-48.89-.89-11.07.89-61.23.96-63.37.01-.38.17-.74.44-1.01l5.4-5.36-6.21-8.66c-.15-.21-.25-.46-.27-.72-.04-.34-3.53-34.55-5.29-45.62-1.24-7.81.74-11.75,2.62-13.68,1.67-1.71,3.93-2.52,6.21-2.22,1.46.19,2.69.94,3.56,2.17,1.44,2.02,1.65,4.85,1.53,7.07v.02c0,.07,0,.14-.01.21-.08,1.22-.25,2.23-.36,2.78-.67,3.33-2.89,3.45-3.56,3.4-2.41-.16-4.7-3.1-4.9-6.28-.03-.41.12-.82.4-1.12.28-.3.68-.47,1.09-.47h4.37c-.05-1.64-.4-3.02-1-3.86-.4-.55-.88-.85-1.52-.94-1.33-.18-2.66.31-3.66,1.34-1.98,2.03-2.62,5.98-1.81,11.11,1.67,10.5,4.88,41.51,5.27,45.39l6.72,9.38c.43.6.36,1.42-.16,1.94l-5.89,5.84c-.2,5.8-1.77,52.17-.95,62.42.89,11.07.44,41.61-1.04,49.67-1.06,5.76.79,9.47,1.48,10.6l9.02,3.03c.65.22,1.07.85,1.02,1.54-.05.68-.56,1.25-1.24,1.36l-11.36,1.97c-.83,11.93-.81,30.85,2.7,34.29,1.59,1.55,2.45.99,2.77.78,1.26-.81,2.27-3.19,2.54-5.78l-3.84-.09c-.45-.01-.88-.23-1.16-.59-.28-.36-.38-.83-.27-1.27.75-3.08,2.13-6.78,4.42-6.91,2-.09,2.88,2.26,3.17,3.04,1.8,4.9.2,11.88-3.23,14.11-.48.31-1.36.75-2.48.75Zm1.57-12.09l1.77.04c-.09-.61-.23-1.21-.44-1.77-.11-.29-.2-.51-.29-.68-.32.53-.7,1.42-1.04,2.42Zm-3.55-224.03c.29.68.71,1.23,1.1,1.56.36.29.59.33.64.33.05-.03.26-.3.4-1,.06-.3.11-.6.16-.89h-2.29Z" />
  <path d="m203.79,153.44h-15.96c-.66,0-1.24-.43-1.43-1.05l-.66-2.11-2.72,2.72c-.28.28-.66.44-1.06.44h-68.23c-.83,0-1.5-.67-1.5-1.5s.67-1.5,1.5-1.5h67.61l4.03-4.03c.37-.37.91-.52,1.42-.4.51.12.92.51,1.07,1.01l1.07,3.42h13.57c.23-2.13.27-6.54-3.13-7.97-3.24-1.37-18.71-1.06-31.14-.81-8.44.17-16.41.33-20.85.03-11.19-.75-35.28-.89-35.52-.89-.83,0-1.5-.68-1.49-1.51,0-.83.68-1.49,1.5-1.49h0c.24,0,24.43.14,35.71.9,4.31.29,12.21.13,20.59-.04,17.24-.35,28.8-.46,32.36,1.04,6.82,2.88,4.8,12.18,4.71,12.57-.16.68-.76,1.17-1.46,1.17Z" />
  <path d="m200.09,370.46c-.81,0-1.47-.64-1.5-1.45-.04-1.24-1.01-30.47,0-39.54.92-8.12-.06-45.14-.24-51.56l-7.3-3.19c-.59-.26-.95-.87-.89-1.51s.52-1.18,1.15-1.33l6.67-1.59c-1-5.92-4.26-26.06-3.2-31.33.87-4.35,1.67-39.94,2-59.13l-5.59-1.83c-.57-.19-.98-.7-1.03-1.31-.05-.6.27-1.18.81-1.45l6.91-3.57,1.34-18.95c.06-.83.78-1.46,1.6-1.39.83.06,1.45.78,1.39,1.6l-1.4,19.79c-.04.52-.34.99-.81,1.23l-4.48,2.31,3.23,1.06c.62.2,1.04.79,1.03,1.45-.04,2.24-.91,54.97-2.07,60.78-.9,4.49,2.19,24.35,3.45,31.62.14.78-.36,1.53-1.13,1.72l-3.68.88,4.07,1.78c.53.23.88.75.9,1.33.05,1.79,1.27,43.87.25,52.94-1,8.85,0,38.8,0,39.1.03.83-.62,1.52-1.45,1.55-.02,0-.03,0-.05,0Z" />
  <path d="m202.77,384.7h0l-88.71-.02c-.83,0-1.5-.67-1.5-1.5s.67-1.5,1.5-1.5h0l87.65.02c1.16-3.48,2.18-8.39,1.25-10.1-.15-.28-.31-.37-.51-.41-2.45-.54-11.06-1-38.18-.1-15.19.51-47.78-.63-48.1-.64-.83-.03-1.48-.72-1.45-1.55s.75-1.46,1.55-1.45c.33.01,32.8,1.14,47.9.64,22.02-.73,35.12-.68,38.93.17,1.08.24,1.94.9,2.49,1.9,2.04,3.74-.81,11.95-1.41,13.56-.22.59-.78.98-1.41.98Z" />
  <path d="m344.7,241.29h-97.47c-.81,0-1.47-.64-1.5-1.45l-1.15-34.66c-.02-.6.32-1.15.86-1.41l4.9-2.29-5.23-1.42c-.63-.17-1.08-.73-1.11-1.39l-1.34-33.7c-.02-.55.26-1.06.73-1.35l4.19-2.51-2.72-.47c-.69-.12-1.21-.7-1.24-1.4l-.96-18c-.02-.41.13-.81.41-1.11s.68-.47,1.09-.47h97.47c.81,0,1.47.64,1.5,1.44l3.06,78.7c.02.62-.33,1.18-.89,1.43l-1.67.74.31.04c.71.1,1.25.68,1.29,1.4l.96,16.28c.02.41-.12.82-.41,1.12-.28.3-.68.47-1.09.47Zm-96.02-3h94.43l-.79-13.46-4.33-.6c-.66-.09-1.19-.61-1.28-1.28-.09-.66.27-1.31.88-1.58l5.58-2.46-2.97-76.24h-94.44l.81,15.22,5.52.95c.62.11,1.11.59,1.22,1.2.12.62-.16,1.24-.7,1.56l-6.9,4.14,1.26,31.71,8.13,2.2c.61.16,1.05.69,1.1,1.32s-.29,1.22-.86,1.49l-7.72,3.6,1.07,32.22Z" />
  <path d="m459.54,244.98c-.06,0-.12,0-.18-.01l-80.9-9.96c-.8-.1-1.38-.82-1.31-1.62l5.27-59.62c.05-.62.48-1.14,1.08-1.31l3.09-.89-3.73-3.69c-.3-.3-.46-.71-.44-1.14,2.14-45.52,4.19-46.84,4.96-47.34,1.86-1.21,3.84-.52,5.25.82,3.75-2.75,2.53-5.88,2.37-6.25-.22-.49-.16-1.07.16-1.5.32-.43.84-.67,1.38-.61l81.19,9.57c.81.1,1.39.82,1.32,1.63l-10.82,115.47c-.04.44-.27.83-.63,1.08l-7.18,5.07c-.25.18-.56.27-.87.27Zm-79.28-12.77l78.89,9.71,6.14-4.34,10.62-113.32-77.63-9.15c.17,2.51-.84,5.88-5.21,8.4-.68.39-1.55.19-1.99-.46-.02-.03-1.03-1.45-1.88-1.21-1.23,3.12-2.84,24.8-3.77,44.39l5.08,5.02c.38.37.53.92.4,1.44-.13.52-.53.92-1.04,1.07l-4.56,1.31-5.05,57.15Z" />
  <path d="m388.18,122.17c-.41,0-.82-.17-1.12-.5-.55-.62-.5-1.57.12-2.12l8.17-7.31c.62-.55,1.57-.5,2.12.12.55.62.5,1.57-.12,2.12l-8.17,7.31c-.29.26-.64.38-1,.38Z" />
  <path d="m460.52,419.01s-.08,0-.11,0l-96.13-7.28c-.4-.03-.78-.22-1.04-.53-.26-.31-.38-.71-.34-1.11l2.68-27.06c.05-.55.4-1.02.91-1.24l2.44-1.02-3.18-5.95c-.13-.25-.19-.52-.17-.8l6-93.57c.05-.83.76-1.45,1.59-1.4.83.05,1.45.77,1.4,1.59l-5.97,93.15,3.76,7.03c.2.37.23.81.09,1.21-.14.4-.44.72-.83.88l-3.13,1.31-2.44,24.65,93.1,7.05,4.43-57.1-5.69-6.29c-.41-.45-.5-1.1-.24-1.65l6.3-13.24c6.11-29.73,10.6-62.16,7.55-65.07-.99-.94-1.86-1.08-2.93-.47-1.67.97-3.09,3.27-3.98,5.4h5.64c.46,0,.9.22,1.18.59.28.37.38.84.27,1.29-1.55,6.11-5.16,6.59-6.25,6.59h0c-2.19,0-4.17-1.54-4.7-3.66-.71-2.85,2.2-10.4,6.33-12.8,2.23-1.3,4.54-.98,6.5.89,5.65,5.39-3.71,53.43-6.71,68.03-.02.12-.06.23-.11.34l-5.95,12.5,5.45,6.02c.28.31.42.71.38,1.12l-4.6,59.23c-.06.79-.72,1.38-1.49,1.38Zm3.14-138.52c-.08.47-.09.84-.03,1.08.2.79.97,1.39,1.79,1.39h0c1.04,0,2-.89,2.7-2.46h-4.47Z" />
  <path d="m465.73,285.95s-.05,0-.08,0l-97.76-5.19c-.61-.03-1.13-.43-1.33-1-.1-.28-2.37-6.86.69-11.05,1.64-2.25,4.39-3.33,8.18-3.2,4.02.13,11.79.52,20.78.97,17.51.88,39.3,1.96,44.93,1.71,8.57-.38,28.2.5,29.03.53.83.04,1.47.74,1.43,1.57-.04.83-.72,1.47-1.57,1.43-.2,0-20.33-.91-28.76-.53-5.77.26-27.64-.84-45.21-1.72-8.98-.45-16.73-.84-20.73-.97-2.74-.09-4.63.57-5.65,1.97-1.48,2.02-1.05,5.42-.56,7.35l96.71,5.13c.83.04,1.46.75,1.42,1.58-.04.8-.7,1.42-1.5,1.42Z" />
  <path d="m500.09,327.6c-.13,0-.26-.02-.39-.05l-5.27-1.44c-.56-.15-.98-.62-1.08-1.19-.1-.57.14-1.15.62-1.49l9.38-6.51c.57-.39,1.33-.35,1.85.11.52.46.66,1.2.34,1.82l-4.12,7.95c-.26.51-.78.81-1.33.81Zm-1.77-3.54l.99.27.78-1.5-1.77,1.23Z" />
  <path d="m511.39,426.51c-.14,0-.28-.02-.41-.06l-16.56-4.69c-.67-.19-1.12-.82-1.09-1.52l.57-11.78c.02-.44.23-.85.58-1.12l2.35-1.81h-2.01c-.83,0-1.5-.67-1.5-1.5v-79.37c0-.83.67-1.5,1.5-1.5s1.5.67,1.5,1.5v77.87h4.92c.64,0,1.21.41,1.42,1.02.21.61,0,1.28-.5,1.67l-5.29,4.08-.48,9.89,15.19,4.3,74.5-2.37,10.93-11.55-1.78-83.89-24.81-9.94-66.11,3.91c-.82.04-1.54-.58-1.59-1.41s.58-1.54,1.41-1.59l66.45-3.93c.22-.01.44.02.65.1l26.04,10.44c.56.22.93.76.94,1.36l1.82,85.5c0,.39-.14.78-.41,1.06l-11.78,12.45c-.27.29-.65.46-1.04.47l-75.35,2.39s-.03,0-.05,0Z" />
  <path d="m593.06,334.97c-.35,0-.7-.12-.98-.36l-22.4-19.24c-.63-.54-.7-1.49-.16-2.12.54-.63,1.49-.7,2.12-.16l18.88,16.22c-.06-1.3.14-2.67.89-3.8.71-1.09,2.18-2.38,5.32-2.34.83.01,1.49.69,1.48,1.52-.01.83-.74,1.48-1.52,1.48-1.41-.02-2.33.31-2.77.98-.99,1.51.07,4.71.52,5.71.29.64.09,1.4-.47,1.82-.27.2-.58.3-.9.3Z" />
  <path d="m586.74,424.11c-.24,0-.48-.06-.71-.18-.73-.39-1-1.3-.61-2.03,2.98-5.53-.05-13.51-.08-13.59-.2-.51-.1-1.09.25-1.51.35-.42.91-.61,1.44-.5l11.78,2.39c.81.16,1.34.96,1.17,1.77s-.95,1.34-1.77,1.17l-9.31-1.89c.81,3.22,1.66,8.92-.85,13.58-.27.5-.79.79-1.32.79Z" />
  <path d="m511.39,426.51c-.13,0-.26-.02-.4-.05-.8-.22-1.27-1.04-1.05-1.84l1.7-6.23c-3.57,1.28-10,3.27-16.26,3.57-.83.04-1.53-.6-1.57-1.43-.04-.83.6-1.53,1.43-1.57,8.6-.41,17.95-4.38,18.04-4.42.53-.23,1.14-.13,1.58.25.43.38.61.97.46,1.53l-2.49,9.1c-.18.67-.79,1.1-1.45,1.1Z" />
  <path d="m317.82,419.02c-23.95,0-79.37-.49-84.26-4.93-6.39-5.8.13-15.35.42-15.75.29-.42.77-.66,1.29-.64l2.32.09,5.19-95.31c.05-.83.77-1.45,1.58-1.42l90.89,4.72c.81.04,1.44.72,1.42,1.53-.21,10.27-2.13,100.55-4.83,107.49-.9,2.31-2.6,3.82-4.67,4.14-.29.04-.58.06-.88.06-.02,0-.04,0-.06,0-1.9.01-4.8.02-8.41.02Zm-81.81-18.29c-1.17,1.98-4.11,7.82-.44,11.14,3.28,2.86,45.82,4.25,85.88,4.15-1.1-1.79-2.42-5.54-.38-11.96l-85.05-3.33Zm4.57-2.82l82.64,3.24c.49.02.93.27,1.2.68s.32.92.14,1.37c-2.93,7.46-.95,10.81-.27,11.66.68.85,1.56,1.26,2.43,1.13.98-.15,1.82-.97,2.33-2.26,1.87-4.82,3.76-64.88,4.59-105.01l-87.95-4.57-5.11,93.77Z" />
  <path d="m515.52,256.99c-.66,0-1.26-.44-1.44-1.1l-5.24-19.06c-.09-.32-.07-.66.06-.97l2.78-6.75-4.85-3.9c-.27-.22-.46-.53-.53-.87l-10.08-49.63c-.08-.4,0-.81.23-1.14s.58-.56.97-.64l80.53-14.8c.79-.14,1.55.36,1.73,1.14l8.89,38.45c.09.39.02.8-.19,1.14l-4.17,6.62,6.47,6.66c.22.23.37.52.41.84l3.82,27.46c.11.79-.42,1.53-1.21,1.68l-77.88,14.84c-.09.02-.19.03-.28.03Zm-3.66-20.46l4.74,17.23,75.12-14.32-3.56-25.56-6.95-7.16c-.48-.5-.56-1.26-.19-1.84l4.47-7.09-8.42-36.44-77.61,14.26,9.67,47.61,5.3,4.26c.52.42.7,1.13.45,1.74l-3.01,7.31Z" />
  <path d="m157.99,159.28c-3.56,0-6.45-2.89-6.45-6.45,0-.83.67-1.5,1.5-1.5s1.5.67,1.5,1.5c0,1.9,1.55,3.45,3.45,3.45s3.45-1.55,3.45-3.45c0-.83.67-1.5,1.5-1.5s1.5.67,1.5,1.5c0,3.56-2.89,6.45-6.45,6.45Z" />
  <path d="m259.62,157.22c-2.19,0-3.98-1.78-3.98-3.98s1.78-3.98,3.98-3.98,3.98,1.78,3.98,3.98-1.78,3.98-3.98,3.98Zm0-4.95c-.54,0-.98.44-.98.98s.44.98.98.98.98-.44.98-.98-.44-.98-.98-.98Z" />
  <path d="m331.52,155.21c-2.19,0-3.98-1.78-3.98-3.98s1.78-3.98,3.98-3.98,3.98,1.78,3.98,3.98-1.78,3.98-3.98,3.98Zm0-4.95c-.54,0-.98.44-.98.98s.44.98.98.98.98-.44.98-.98-.44-.98-.98-.98Z" />
  <path d="m398.83,128.01c-2.19,0-3.98-1.78-3.98-3.98s1.78-3.98,3.98-3.98,3.98,1.78,3.98,3.98-1.78,3.98-3.98,3.98Zm0-4.95c-.54,0-.98.44-.98.98s.44.98.98.98.98-.44.98-.98-.44-.98-.98-.98Z" />
  <path d="m468.53,133.57c-2.19,0-3.98-1.78-3.98-3.98s1.78-3.98,3.98-3.98,3.98,1.78,3.98,3.98-1.78,3.98-3.98,3.98Zm0-4.95c-.54,0-.98.44-.98.98s.44.98.98.98.98-.44.98-.98-.44-.98-.98-.98Z" />
  <path d="m537.56,179.14c-2.19,0-3.98-1.78-3.98-3.98s1.78-3.98,3.98-3.98,3.98,1.78,3.98,3.98-1.78,3.98-3.98,3.98Zm0-4.95c-.54,0-.98.44-.98.98s.44.98.98.98.98-.44.98-.98-.44-.98-.98-.98Z" />
  <path d="m506.68,332.55c-2.19,0-3.98-1.78-3.98-3.98s1.78-3.98,3.98-3.98,3.98,1.78,3.98,3.98-1.78,3.98-3.98,3.98Zm0-4.95c-.54,0-.98.44-.98.98s.44.98.98.98.98-.44.98-.98-.44-.98-.98-.98Z" />
  <path d="m583.67,337.45c-2.19,0-3.98-1.78-3.98-3.98s1.78-3.98,3.98-3.98,3.98,1.78,3.98,3.98-1.78,3.98-3.98,3.98Zm0-4.95c-.54,0-.98.44-.98.98s.44.98.98.98.98-.44.98-.98-.44-.98-.98-.98Z" />
  <path d="m418.61,288.42c-2.19,0-3.98-1.78-3.98-3.98s1.78-3.98,3.98-3.98,3.98,1.78,3.98,3.98-1.78,3.98-3.98,3.98Zm0-4.95c-.54,0-.98.44-.98.98s.44.98.98.98.98-.44.98-.98-.44-.98-.98-.98Z" />
  <path d="m286.36,318.21c-2.19,0-3.98-1.78-3.98-3.98s1.78-3.98,3.98-3.98,3.98,1.78,3.98,3.98-1.78,3.98-3.98,3.98Zm0-4.95c-.54,0-.98.44-.98.98s.44.98.98.98.98-.44.98-.98-.44-.98-.98-.98Z" />
  <path d="m82.77,87.7h-39.19c-.83,0-1.5-.67-1.5-1.5s.67-1.5,1.5-1.5h39.19c.83,0,1.5.67,1.5,1.5s-.67,1.5-1.5,1.5Z" />
  <path d="m55.96,79.78h-8.04c-.83,0-1.5-.67-1.5-1.5s.67-1.5,1.5-1.5h8.04c.83,0,1.5.67,1.5,1.5s-.67,1.5-1.5,1.5Z" />
  <path d="m569.92,78.25c-.82,0-1.49-.66-1.5-1.48-.01-.83.65-1.51,1.48-1.52l49.4-.77h.02c.82,0,1.49.66,1.5,1.48.01.83-.65,1.51-1.48,1.52l-49.4.77h-.02Z" />
  <path d="m533.79,85.4h-.01l-118.72-.89c-.83,0-1.5-.68-1.49-1.51,0-.82.68-1.49,1.5-1.49h.01l118.72.89c.83,0,1.5.68,1.49,1.51,0,.82-.68,1.49-1.5,1.49Z" />
  <path d="m240.3,80.55h-49.28c-.83,0-1.5-.67-1.5-1.5s.67-1.5,1.5-1.5h49.28c.83,0,1.5.67,1.5,1.5s-.67,1.5-1.5,1.5Z" />
  <path d="m165.75,82.97h-23.94c-.83,0-1.5-.67-1.5-1.5s.67-1.5,1.5-1.5h23.94c.83,0,1.5.67,1.5,1.5s-.67,1.5-1.5,1.5Z" />
  <path d="m582.62,88.72h-21.83c-.83,0-1.5-.67-1.5-1.5s.67-1.5,1.5-1.5h21.83c.83,0,1.5.67,1.5,1.5s-.67,1.5-1.5,1.5Z" />
  <path d="m59.92,200.89c-.83,0-1.5-.67-1.5-1.5v-92.3c0-.83.67-1.5,1.5-1.5s1.5.67,1.5,1.5v92.3c0,.83-.67,1.5-1.5,1.5Z" />
  <path d="m52.77,442.45c-.83,0-1.5-.67-1.5-1.5v-58.71c0-.83.67-1.5,1.5-1.5s1.5.67,1.5,1.5v58.71c0,.83-.67,1.5-1.5,1.5Z" />
  <path d="m59.92,442.25c-.83,0-1.5-.67-1.5-1.5v-10.25c0-.83.67-1.5,1.5-1.5s1.5.67,1.5,1.5v10.25c0,.83-.67,1.5-1.5,1.5Z" />
  <path d="m63.88,451.08h-21.26c-.83,0-1.5-.67-1.5-1.5s.67-1.5,1.5-1.5h21.26c.83,0,1.5.67,1.5,1.5s-.67,1.5-1.5,1.5Z" />
  <path d="m49.2,457.11h-7.97c-.83,0-1.5-.67-1.5-1.5s.67-1.5,1.5-1.5h7.97c.83,0,1.5.67,1.5,1.5s-.67,1.5-1.5,1.5Z" />
  <path d="m629.15,447.38h-17.62c-.83,0-1.5-.67-1.5-1.5s.67-1.5,1.5-1.5h17.62c.83,0,1.5.67,1.5,1.5s-.67,1.5-1.5,1.5Z" />
  <path d="m628.52,458.42h-22.92c-.83,0-1.5-.67-1.5-1.5s.67-1.5,1.5-1.5h22.92c.83,0,1.5.67,1.5,1.5s-.67,1.5-1.5,1.5Z" />
  <path d="m562.9,449.48h-68.07c-.83,0-1.5-.67-1.5-1.5s.67-1.5,1.5-1.5h68.07c.83,0,1.5.67,1.5,1.5s-.67,1.5-1.5,1.5Z" />
  <path d="m274.13,457.11h-144.38c-.83,0-1.5-.67-1.5-1.5s.67-1.5,1.5-1.5h144.38c.83,0,1.5.67,1.5,1.5s-.67,1.5-1.5,1.5Z" />
  <path d="m349.58,447.38h-85.79c-.83,0-1.5-.67-1.5-1.5s.67-1.5,1.5-1.5h85.79c.83,0,1.5.67,1.5,1.5s-.67,1.5-1.5,1.5Z" />
  <path d="m436.9,456h-40.55c-.83,0-1.5-.67-1.5-1.5s.67-1.5,1.5-1.5h40.55c.83,0,1.5.67,1.5,1.5s-.67,1.5-1.5,1.5Z" />
  <path d="m607.9,114.86c-.83,0-1.5-.67-1.5-1.5v-18.29c0-.83.67-1.5,1.5-1.5s1.5.67,1.5,1.5v18.29c0,.83-.67,1.5-1.5,1.5Z" />
  <path d="m616.42,122.04c-.83,0-1.5-.67-1.5-1.5v-25.56c0-.83.67-1.5,1.5-1.5s1.5.67,1.5,1.5v25.56c0,.83-.67,1.5-1.5,1.5Z" />
  <path d="m612.69,383.74c-.83,0-1.5-.67-1.5-1.5v-70.49c0-.83.67-1.5,1.5-1.5s1.5.67,1.5,1.5v70.49c0,.83-.67,1.5-1.5,1.5Z" />
  <path d="m620.35,440.42c-.83,0-1.5-.67-1.5-1.5v-76.72c0-.83.67-1.5,1.5-1.5s1.5.67,1.5,1.5v76.72c0,.83-.67,1.5-1.5,1.5Z" />
  <path d="m617.06,260.29c-.83,0-1.5-.67-1.5-1.5v-91.92c0-.83.67-1.5,1.5-1.5s1.5.67,1.5,1.5v91.92c0,.83-.67,1.5-1.5,1.5Z" />
  <g>
    <path d="m604.33,125.04h-126.79c-.55,0-1-.45-1-1s.45-1,1-1h126.79c.55,0,1,.45,1,1s-.45,1-1,1Z" />
    <path d="m387.2,125.04H67.69c-.55,0-1-.45-1-1s.45-1,1-1h319.51c.55,0,1,.45,1,1s-.45,1-1,1Z" />
    <path d="m604.33,156.54h-129.9c-.55,0-1-.45-1-1s.45-1,1-1h129.9c.55,0,1,.45,1,1s-.45,1-1,1Z" />
    <path d="m384.05,156.54h-41.85c-.55,0-1-.45-1-1s.45-1,1-1h41.85c.55,0,1,.45,1,1s-.45,1-1,1Z" />
    <path d="m244.94,156.54h-44.21c-.55,0-1-.45-1-1s.45-1,1-1h44.21c.55,0,1,.45,1,1s-.45,1-1,1Z" />
    <path d="m104.36,156.54h-36.67c-.55,0-1-.45-1-1s.45-1,1-1h36.67c.55,0,1,.45,1,1s-.45,1-1,1Z" />
    <path d="m604.33,188.03h-19.12c-.55,0-1-.45-1-1s.45-1,1-1h19.12c.55,0,1,.45,1,1s-.45,1-1,1Z" />
    <path d="m500.25,188.03h-28.71c-.55,0-1-.45-1-1s.45-1,1-1h28.71c.55,0,1,.45,1,1s-.45,1-1,1Z" />
    <path d="m382.74,188.03h-38.62c-.55,0-1-.45-1-1s.45-1,1-1h38.62c.55,0,1,.45,1,1s-.45,1-1,1Z" />
    <path d="m245.04,188.03h-47.32c-.55,0-1-.45-1-1s.45-1,1-1h47.32c.55,0,1,.45,1,1s-.45,1-1,1Z" />
    <path d="m108.76,188.03h-41.06c-.55,0-1-.45-1-1s.45-1,1-1h41.06c.55,0,1,.45,1,1s-.45,1-1,1Z" />
    <path d="m604.33,219.53h-14c-.55,0-1-.45-1-1s.45-1,1-1h14c.55,0,1,.45,1,1s-.45,1-1,1Z" />
    <path d="m506.65,219.53h-38.06c-.55,0-1-.45-1-1s.45-1,1-1h38.06c.55,0,1,.45,1,1s-.45,1-1,1Z" />
    <path d="m379.96,219.53h-35.27c-.55,0-1-.45-1-1s.45-1,1-1h35.27c.55,0,1,.45,1,1s-.45,1-1,1Z" />
    <path d="m246.52,219.53h-49.14c-.55,0-1-.45-1-1s.45-1,1-1h49.14c.55,0,1,.45,1,1s-.45,1-1,1Z" />
    <path d="m110.56,219.53h-42.86c-.55,0-1-.45-1-1s.45-1,1-1h42.86c.55,0,1,.45,1,1s-.45,1-1,1Z" />
    <path d="m604.33,251.03h-60.18c-.55,0-1-.45-1-1s.45-1,1-1h60.18c.55,0,1,.45,1,1s-.45,1-1,1Z" />
    <path d="m514.02,251.03H196.63c-.55,0-1-.45-1-1s.45-1,1-1h317.39c.55,0,1,.45,1,1s-.45,1-1,1Z" />
    <path d="m109.69,251.03h-41.99c-.55,0-1-.45-1-1s.45-1,1-1h41.99c.55,0,1,.45,1,1s-.45,1-1,1Z" />
    <path d="m604.33,282.53h-130.43c-.55,0-1-.45-1-1s.45-1,1-1h130.43c.55,0,1,.45,1,1s-.45,1-1,1Z" />
    <path d="m373,282.53h-173.05c-.55,0-1-.45-1-1s.45-1,1-1h173.05c.55,0,1,.45,1,1s-.45,1-1,1Z" />
    <path d="m109.9,282.53h-42.21c-.55,0-1-.45-1-1s.45-1,1-1h42.21c.55,0,1,.45,1,1s-.45,1-1,1Z" />
    <path d="m604.33,314.03h-134.24c-.55,0-1-.45-1-1s.45-1,1-1h134.24c.55,0,1,.45,1,1s-.45,1-1,1Z" />
    <path d="m370.99,314.03h-35.95c-.55,0-1-.45-1-1s.45-1,1-1h35.95c.55,0,1,.45,1,1s-.45,1-1,1Z" />
    <path d="m243.7,314.03h-43.21c-.55,0-1-.45-1-1s.45-1,1-1h43.21c.55,0,1,.45,1,1s-.45,1-1,1Z" />
    <path d="m109.81,314.03h-42.12c-.55,0-1-.45-1-1s.45-1,1-1h42.12c.55,0,1,.45,1,1s-.45,1-1,1Z" />
    <path d="m604.33,345.52h-6.71c-.55,0-1-.45-1-1s.45-1,1-1h6.71c.55,0,1,.45,1,1s-.45,1-1,1Z" />
    <path d="m494.82,345.52h-32.51c-.55,0-1-.45-1-1s.45-1,1-1h32.51c.55,0,1,.45,1,1s-.45,1-1,1Z" />
    <path d="m368.97,345.52h-34.74c-.55,0-1-.45-1-1s.45-1,1-1h34.74c.55,0,1,.45,1,1s-.45,1-1,1Z" />
    <path d="m241.98,345.52h-41.67c-.55,0-1-.45-1-1s.45-1,1-1h41.67c.55,0,1,.45,1,1s-.45,1-1,1Z" />
    <path d="m110.91,345.52h-43.22c-.55,0-1-.45-1-1s.45-1,1-1h43.22c.55,0,1,.45,1,1s-.45,1-1,1Z" />
    <path d="m604.33,377.02h-6.54c-.55,0-1-.45-1-1s.45-1,1-1h6.54c.55,0,1,.45,1,1s-.45,1-1,1Z" />
    <path d="m494.34,377.02h-30.61c-.55,0-1-.45-1-1s.45-1,1-1h30.61c.55,0,1,.45,1,1s-.45,1-1,1Z" />
    <path d="m368.09,377.02h-34.93c-.55,0-1-.45-1-1s.45-1,1-1h34.93c.55,0,1,.45,1,1s-.45,1-1,1Z" />
    <path d="m240.26,377.02h-36.12c-.55,0-1-.45-1-1s.45-1,1-1h36.12c.55,0,1,.45,1,1s-.45,1-1,1Z" />
    <path d="m108.35,377.02h-40.66c-.55,0-1-.45-1-1s.45-1,1-1h40.66c.55,0,1,.45,1,1s-.45,1-1,1Z" />
    <path d="m604.33,408.52h-5.18c-.55,0-1-.45-1-1s.45-1,1-1h5.18c.55,0,1,.45,1,1s-.45,1-1,1Z" />
    <path d="m496.72,408.52h-35.43c-.55,0-1-.45-1-1s.45-1,1-1h35.43c.55,0,1,.45,1,1s-.45,1-1,1Z" />
    <path d="m364.66,408.52h-33.23c-.55,0-1-.45-1-1s.45-1,1-1h33.23c.55,0,1,.45,1,1s-.45,1-1,1Z" />
    <path d="m232.28,408.52H67.69c-.55,0-1-.45-1-1s.45-1,1-1h164.59c.55,0,1,.45,1,1s-.45,1-1,1Z" />
  </g>
  <path d="m191.66,108.76h-92.17c-.55,0-1-.45-1-1s.45-1,1-1h92.17c.55,0,1,.45,1,1s-.45,1-1,1Z" />
  <path d="m315.11,114.36h-73.13c-.55,0-1-.45-1-1s.45-1,1-1h73.13c.55,0,1,.45,1,1s-.45,1-1,1Z" />
  <path d="m338.15,101.24h-27.64c-.55,0-1-.45-1-1s.45-1,1-1h27.64c.55,0,1,.45,1,1s-.45,1-1,1Z" />
  <path d="m506.68,142.17h-30.85c-.55,0-1-.45-1-1s.45-1,1-1h30.85c.55,0,1,.45,1,1s-.45,1-1,1Z" />
  <path d="m578.98,108.76h-22.21c-.55,0-1-.45-1-1s.45-1,1-1h22.21c.55,0,1,.45,1,1s-.45,1-1,1Z" />
  <path d="m491.26,173.69h-8.79c-.55,0-1-.45-1-1s.45-1,1-1h8.79c.55,0,1,.45,1,1s-.45,1-1,1Z" />
  <path d="m288.83,268.14h-53.96c-.55,0-1-.45-1-1s.45-1,1-1h53.96c.55,0,1,.45,1,1s-.45,1-1,1Z" />
  <path d="m370.99,293.11h-60.47c-.55,0-1-.45-1-1s.45-1,1-1h60.47c.55,0,1,.45,1,1s-.45,1-1,1Z" />
  <path d="m436.9,256.49h-33.32c-.55,0-1-.45-1-1s.45-1,1-1h33.32c.55,0,1,.45,1,1s-.45,1-1,1Z" />
  <path d="m533.79,296.56h-39.45c-.55,0-1-.45-1-1s.45-1,1-1h39.45c.55,0,1,.45,1,1s-.45,1-1,1Z" />
  <path d="m494.34,363.2h-16.8c-.55,0-1-.45-1-1s.45-1,1-1h16.8c.55,0,1,.45,1,1s-.45,1-1,1Z" />
  <path d="m79.2,296.56h-11.5c-.55,0-1-.45-1-1s.45-1,1-1h11.5c.55,0,1,.45,1,1s-.45,1-1,1Z" />
  <path d="m99.49,334.47h-31.8c-.55,0-1-.45-1-1s.45-1,1-1h31.8c.55,0,1,.45,1,1s-.45,1-1,1Z" />
  <path d="m96.81,200.39h-29.12c-.55,0-1-.45-1-1s.45-1,1-1h29.12c.55,0,1,.45,1,1s-.45,1-1,1Z" />
  <path d="m603.87,142.17h-35.99c-.55,0-1-.45-1-1s.45-1,1-1h35.99c.55,0,1,.45,1,1s-.45,1-1,1Z" />
  <path d="m222.83,146.62h-19.13c-.55,0-1-.45-1-1s.45-1,1-1h19.13c.55,0,1,.45,1,1s-.45,1-1,1Z" />
  <path d="m157.99,423.61h-88.37c-.55,0-1-.45-1-1s.45-1,1-1h88.37c.55,0,1,.45,1,1s-.45,1-1,1Z" />
  <path d="m240.26,431.5h-90.28c-.55,0-1-.45-1-1s.45-1,1-1h90.28c.55,0,1,.45,1,1s-.45,1-1,1Z" />
  <path d="m475.83,433.28h-33.57c-.55,0-1-.45-1-1s.45-1,1-1h33.57c.55,0,1,.45,1,1s-.45,1-1,1Z" />
  <path d="m353.01,358.6h-18.37c-.55,0-1-.45-1-1s.45-1,1-1h18.37c.55,0,1,.45,1,1s-.45,1-1,1Z" />
  <path d="m227.44,330.64h-27.35c-.55,0-1-.45-1-1s.45-1,1-1h27.35c.55,0,1,.45,1,1s-.45,1-1,1Z" />
  <path d="m246.52,228.77h-19.08c-.55,0-1-.45-1-1s.45-1,1-1h19.08c.55,0,1,.45,1,1s-.45,1-1,1Z" />
  <path d="m362.33,196.22h-18.5c-.55,0-1-.45-1-1s.45-1,1-1h18.5c.55,0,1,.45,1,1s-.45,1-1,1Z" />
  <path d="m607.18,268.14h-32.94c-.55,0-1-.45-1-1s.45-1,1-1h32.94c.55,0,1,.45,1,1s-.45,1-1,1Z" />
  <path d="m607.03,303.56h-24.41c-.55,0-1-.45-1-1s.45-1,1-1h24.41c.55,0,1,.45,1,1s-.45,1-1,1Z" />
  <path d="m151,163.47c-.27,0-.54-.11-.74-.33-.37-.41-.34-1.04.07-1.41l2.03-1.85c.41-.37,1.04-.34,1.41.07.37.41.34,1.04-.07,1.41l-2.03,1.85c-.19.17-.43.26-.67.26Z" />
  <path d="m164.67,162.96c-.32,0-.64-.16-.83-.45l-1.15-1.72c-.31-.46-.18-1.08.28-1.39.46-.31,1.08-.18,1.39.28l1.15,1.72c.31.46.18,1.08-.28,1.39-.17.11-.36.17-.55.17Z" />
  <path d="m261.56,174.39c-.49,0-.92-.36-.99-.87l-1.94-14.43c-.07-.55.31-1.05.86-1.12.55-.07,1.05.31,1.12.86l1.94,14.43c.07.55-.31,1.05-.86,1.12-.05,0-.09,0-.13,0Z" />
  <path d="m276.11,153.83s-.03,0-.05,0l-8.04-.38c-.55-.03-.98-.49-.95-1.05.03-.55.5-.97,1.05-.95l8.04.38c.55.03.98.49.95,1.05-.03.54-.47.95-1,.95Z" />
  <path d="m394.77,137.11c-.14,0-.29-.03-.42-.09-.5-.23-.72-.83-.48-1.33l2.68-5.74c.23-.5.83-.72,1.33-.48.5.23.72.83.48,1.33l-2.68,5.74c-.17.36-.53.58-.91.58Z" />
  <path d="m407.92,131.37c-.23,0-.47-.08-.66-.25l-3.7-3.25c-.41-.36-.46-1-.09-1.41.36-.41,1-.46,1.41-.09l3.7,3.25c.41.36.46,1,.09,1.41-.2.22-.47.34-.75.34Z" />
  <path d="m405.62,122.56c-.49,0-.92-.36-.99-.86-.08-.55.31-1.05.85-1.13l6.51-.89c.54-.08,1.05.31,1.13.85s-.31,1.05-.85,1.13l-6.51.89s-.09,0-.14,0Z" />
  <path d="m455.92,134.24c-.32,0-.63-.15-.83-.44-.31-.46-.19-1.08.26-1.39l5.36-3.65c.46-.31,1.08-.19,1.39.26.31.46.19,1.08-.26,1.39l-5.36,3.65c-.17.12-.37.17-.56.17Z" />
  <path d="m462.3,143.88c-.2,0-.4-.06-.57-.18-.45-.32-.56-.94-.25-1.39l4.72-6.77c.32-.45.94-.56,1.39-.25.45.32.56.94.25,1.39l-4.72,6.77c-.19.28-.5.43-.82.43Z" />
  <path d="m527.28,191.37c-.16,0-.32-.04-.47-.12-.49-.26-.67-.87-.41-1.35l3.7-6.89c.26-.49.87-.67,1.35-.41.49.26.67.87.41,1.35l-3.7,6.89c-.18.34-.53.53-.88.53Z" />
  <path d="m546.08,190.86c-.33,0-.65-.16-.84-.46l-5.39-8.3c-.3-.46-.17-1.08.29-1.38.46-.3,1.08-.17,1.38.29l5.39,8.3c.3.46.17,1.08-.29,1.38-.17.11-.36.16-.54.16Z" />
  <path d="m429.37,296.05c-.27,0-.53-.11-.73-.31l-7.66-8.12c-.38-.4-.36-1.03.04-1.41.4-.38,1.03-.36,1.41.04l7.66,8.12c.38.4.36,1.03-.04,1.41-.19.18-.44.27-.69.27Z" />
  <path d="m409.96,297.96c-.19,0-.37-.05-.54-.16-.46-.3-.6-.92-.3-1.38l4.21-6.51c.3-.46.92-.6,1.38-.3.46.3.6.92.3,1.38l-4.21,6.51c-.19.3-.51.46-.84.46Z" />
  <path d="m509.79,344.3c-.51,0-.95-.39-1-.91l-.63-7.35c-.05-.55.36-1.03.91-1.08.55-.06,1.03.36,1.08.91l.63,7.35c.05.55-.36,1.03-.91,1.08-.03,0-.06,0-.09,0Z" />
  <path d="m517.96,333.33c-.21,0-.42-.06-.6-.2l-4.08-3.06c-.44-.33-.53-.96-.2-1.4.33-.44.96-.53,1.4-.2l4.08,3.06c.44.33.53.96.2,1.4-.2.26-.5.4-.8.4Z" />
  <path d="m571.96,334.47c-.47,0-.89-.33-.98-.81-.11-.54.25-1.07.79-1.17l5.87-1.15c.54-.11,1.07.25,1.17.79.11.54-.25,1.07-.79,1.17l-5.87,1.15c-.06.01-.13.02-.19.02Z" />
  <path d="m580,347.37c-.08,0-.17-.01-.26-.03-.53-.14-.85-.69-.71-1.22l1.79-6.74c.14-.53.68-.85,1.22-.71.53.14.85.69.71,1.22l-1.79,6.74c-.12.45-.52.74-.97.74Z" />
  <path d="m277.45,326.94c-.16,0-.32-.04-.46-.11-.49-.26-.68-.86-.42-1.35l2.68-5.11c.26-.49.86-.68,1.35-.42.49.26.68.86.42,1.35l-2.68,5.11c-.18.34-.53.54-.89.54Z" />
  <path d="m292.01,326.94c-.33,0-.66-.17-.85-.47l-3.17-5.11c-.29-.47-.15-1.09.32-1.38.47-.29,1.08-.15,1.38.32l3.17,5.11c.29.47.15,1.09-.32,1.38-.16.1-.35.15-.53.15Z" />
  <path d="m153.04,178.22h-31.73c-.55,0-1-.45-1-1s.45-1,1-1h31.73c.55,0,1,.45,1,1s-.45,1-1,1Z" />
  <path d="m146.58,192.39h-20.68c-.55,0-1-.45-1-1s.45-1,1-1h20.68c.55,0,1,.45,1,1s-.45,1-1,1Z" />
  <path d="m132.98,203.77h-6.13c-.55,0-1-.45-1-1s.45-1,1-1h6.13c.55,0,1,.45,1,1s-.45,1-1,1Z" />
  <path d="m296,181.94h-31.73c-.55,0-1-.45-1-1s.45-1,1-1h31.73c.55,0,1,.45,1,1s-.45,1-1,1Z" />
  <path d="m289.54,196.11h-20.68c-.55,0-1-.45-1-1s.45-1,1-1h20.68c.55,0,1,.45,1,1s-.45,1-1,1Z" />
  <path d="m275.95,207.5h-6.13c-.55,0-1-.45-1-1s.45-1,1-1h6.13c.55,0,1,.45,1,1s-.45,1-1,1Z" />
  <path d="m519.07,212.05c-.46,0-.88-.32-.98-.8-.11-.54.23-1.07.77-1.18l31.07-6.48c.54-.11,1.07.23,1.18.77.11.54-.23,1.07-.77,1.18l-31.07,6.48c-.07.01-.14.02-.21.02Z" />
  <path d="m526.46,224.99c-.46,0-.88-.32-.98-.8-.11-.54.23-1.07.77-1.18l20.25-4.22c.54-.11,1.07.23,1.18.77.11.54-.23,1.07-.77,1.18l-20.25,4.22c-.07.01-.14.02-.21.02Z" />
  <path d="m529.72,235.93c-.46,0-.88-.32-.98-.8-.11-.54.23-1.07.77-1.18l6-1.25c.54-.11,1.07.23,1.18.77.11.54-.23,1.07-.77,1.18l-6,1.25c-.07.01-.14.02-.21.02Z" />
  <path d="m179.13,227.33h-56.11c-.55,0-1-.45-1-1s.45-1,1-1h56.11c.55,0,1,.45,1,1s-.45,1-1,1Z" />
  <path d="m165.73,239.58h-42.7c-.55,0-1-.45-1-1s.45-1,1-1h42.7c.55,0,1,.45,1,1s-.45,1-1,1Z" />
  <path d="m155.39,253.56h-32.36c-.55,0-1-.45-1-1s.45-1,1-1h32.36c.55,0,1,.45,1,1s-.45,1-1,1Z" />
  <path d="m181.62,266.77h-58.6c-.55,0-1-.45-1-1s.45-1,1-1h58.6c.55,0,1,.45,1,1s-.45,1-1,1Z" />
  <path d="m148.69,280.18h-25.66c-.55,0-1-.45-1-1s.45-1,1-1h25.66c.55,0,1,.45,1,1s-.45,1-1,1Z" />
  <path d="m442.13,326.3s-.05,0-.08,0l-55.93-4.46c-.55-.04-.96-.53-.92-1.08.04-.55.52-.95,1.08-.92l55.93,4.46c.55.04.96.53.92,1.08-.04.52-.48.92-1,.92Z" />
  <path d="m427.8,337.45s-.05,0-.08,0l-42.57-3.4c-.55-.04-.96-.53-.92-1.08.04-.55.52-.95,1.08-.92l42.57,3.4c.55.04.96.53.92,1.08-.04.52-.48.92-1,.92Z" />
  <path d="m416.38,350.56s-.05,0-.08,0l-32.26-2.57c-.55-.04-.96-.53-.92-1.08.04-.55.51-.95,1.08-.92l32.26,2.57c.55.04.96.53.92,1.08-.04.52-.48.92-1,.92Z" />
  <path d="m441.48,365.82s-.05,0-.08,0l-58.41-4.66c-.55-.04-.96-.53-.92-1.08.04-.55.51-.96,1.08-.92l58.41,4.66c.55.04.96.53.92,1.08-.04.52-.48.92-1,.92Z" />
  <path d="m407.58,376.56s-.05,0-.08,0l-25.58-2.04c-.55-.04-.96-.53-.92-1.08.04-.55.51-.96,1.08-.92l25.58,2.04c.55.04.96.53.92,1.08-.04.52-.48.92-1,.92Z" />
  <path d="m289.26,345.85s-.06,0-.09,0l-32.23-2.9c-.55-.05-.96-.54-.91-1.09.05-.55.53-.95,1.09-.91l32.23,2.9c.55.05.96.54.91,1.09-.05.52-.48.91-1,.91Z" />
  <path d="m314.21,361.36s-.06,0-.09,0l-58.36-5.25c-.55-.05-.96-.54-.91-1.09.05-.55.53-.95,1.09-.91l58.36,5.25c.55.05.96.54.91,1.09-.05.52-.48.91-1,.91Z" />
  <path d="m280.2,371.76s-.06,0-.09,0l-25.56-2.3c-.55-.05-.96-.54-.91-1.09.05-.55.53-.94,1.09-.91l25.56,2.3c.55.05.96.54.91,1.09-.05.52-.48.91-1,.91Z" />
  <path d="m549.73,365.25h-32.36c-.55,0-1-.45-1-1s.45-1,1-1h32.36c.55,0,1,.45,1,1s-.45,1-1,1Z" />
  <path d="m575.96,378.46h-58.6c-.55,0-1-.45-1-1s.45-1,1-1h58.6c.55,0,1,.45,1,1s-.45,1-1,1Z" />
  <path d="m543.03,391.87h-25.66c-.55,0-1-.45-1-1s.45-1,1-1h25.66c.55,0,1,.45,1,1s-.45,1-1,1Z" />
  <path d="m149.99,305.64h-26.96c-.55,0-1-.45-1-1s.45-1,1-1h26.96c.55,0,1,.45,1,1s-.45,1-1,1Z" />
  <path d="m186.98,305.64h-23.47c-.55,0-1-.45-1-1s.45-1,1-1h23.47c.55,0,1,.45,1,1s-.45,1-1,1Z" />
  <path d="m174.15,319.43h-51.13c-.55,0-1-.45-1-1s.45-1,1-1h51.13c.55,0,1,.45,1,1s-.45,1-1,1Z" />
  <path d="m153.04,334.47h-30.01c-.55,0-1-.45-1-1s.45-1,1-1h30.01c.55,0,1,.45,1,1s-.45,1-1,1Z" />
  <path d="m423.29,159.52s-.07,0-.11,0l-26.81-2.86c-.55-.06-.95-.55-.89-1.1.06-.55.54-.95,1.1-.89l26.81,2.86c.55.06.95.55.89,1.1-.05.51-.49.89-.99.89Z" />
  <path d="m460.08,163.44s-.07,0-.11,0l-23.34-2.49c-.55-.06-.95-.55-.89-1.1.06-.55.55-.95,1.1-.89l23.34,2.49c.55.06.95.55.89,1.1-.05.51-.49.89-.99.89Z" />
  <path d="m445.86,175.79s-.07,0-.11,0l-50.84-5.42c-.55-.06-.95-.55-.89-1.1.06-.55.55-.95,1.1-.89l50.84,5.42c.55.06.95.55.89,1.1-.05.51-.49.89-.99.89Z" />
  <path d="m423.27,188.51s-.07,0-.11,0l-29.84-3.18c-.55-.06-.95-.55-.89-1.1s.55-.95,1.1-.89l29.84,3.18c.55.06.95.55.89,1.1-.05.51-.49.89-.99.89Z" />
</svg>
