<svg color="currentColor" height="500" viewBox="0 0 636 500" width="636" xmlns="http://www.w3.org/2000/svg">


    <style>
        :root { fill:#222 }
        .accent { fill: #f9322c; }

        @media (prefers-color-scheme: dark) {
        :root {  fill: #f9322c; }
        .accent { fill:#dee2e6; }
        }
    </style>

    <path
        d="m599.028 80.4724-3.354-11.9758-16.636-2.5039-8.003-2.7665-292.896 4.7921-229.3401-5.9831v8.1401l-3.7762 6.227s-1.9162 5.7488-.836 5.9832c1.0803.2438 2.1417 4.5484 2.1417 4.5484l-2.1417 326.6561-1.7941 6.874 3.2031 10.532 3.2126 6.939 364.8397-1.2 171.477 1.2 1.682-17.837-2.396-6.105 8.285-11.497v-181.015l-.854-127.5042 7.195-13.5325zm-531.8274 337.6756-1.8035-327.7349 499.2039-6.4614.638 332.5833-498.0478 1.613z"
        class="accent"/>
    <path
        d="m102.163 132.39c-2.7056 8.9 2.93 53.68 2.93 53.68l7.797 10.297-7.797 12.689s-3.513 130.242-2.057 136.957c1.456 6.705 11.291 16.046 11.291 16.046h75.364l4.255-16.046-8.539-8.366v-76.628l-1.118-8.862s1.447-94.099 1.118-95.056c-.329-.956 9.788-24.223-.704-28.256-10.493-4.032-82.54 3.554-82.54 3.554z"
        class="accent"/>
    <path
        d="m233.577 129.559v14.592l7.017 9.472-7.017 4.67v27.656l7.965 5.749-6.162 2.869 1.08 34.84 90.299-1.069v-19.76l-5.316-5.571 8.012-6.105-5.035-66.265z"
        class="accent"/>
    <path d="m372.308 104.059-11.554 11.141-7.74 105.231 69.258 7.905 14.747-11.497 7.017-105.419z" class="accent"/>
    <path
        d="m469.22 160.271 9.891 49.742 7.731 3.948-3.241 12.032 4.678 16.702 69.126-14.358-7.693-28.021-8.726-10.776 9.609-18.85-4.65-25.686z"
        class="accent"/>
    <path d="m471.549 297.012-10.248 11.132 3.053 83.399 22.488 4.782h68.356l9.403-18.221-1.794-77.219-23.399-9.162z"
          class="accent"/>
    <path
        d="m355.672 246.65c-6.434 2.87-6.434 13.111-6.434 13.111l6.434 5.383-5.288 91.586-1.137 8.618-3.475 24.693 87.546 4.267 7.308-55.715-8.454-9.697s20.957-61.417 16.411-72.371c-4.547-10.953-92.901-9.875-92.901-9.875z"
        class="accent"/>
    <path d="m233.943 281.48-8.257 95.9-5.053 2.336v8.974l90.684 4.136 3.513-51.898-3.513-51.007z" class="accent"/>
    <g stroke="#000" stroke-linecap="round" stroke-linejoin="round">
        <path
            d="m41.0586 65.5234 3.9547 7.887h-5.4012v6.1051l1.3244 1.3223-1.3244 4.6703 2.0477 2.6258 82.0142-1.6693 129.516-1.0785 203.612 2.7478 133.555 1.0222 5.308-7.1836-2.987-2.2413-8.163-.9003 10.52-.6283.094-7.0898-12.859-.3658 2.151-3.77-2.518-.9847-187.154.9003-242.651.5346z"
            stroke-width="3"/>
        <path d="m43.2755 88.1055.9018 126.2195-1.8035 99.66.9017 98.957" stroke-width="3"/>
        <path
            d="m40.2133 413.656-3.2314 5.983 2.1511 2.035-.5354 5.036 1.6157 6.94h155.6587 119.277l157.481-1.791 117.765 1.791v-5.148l2.283-4.849-1.691-4.97 1.691-7.062h-118.724l-132.391 1.557-206.016-.835z"
            stroke-width="3"/>
        <path d="m63.584 413.336v-150.17-175.0605" stroke-width="3"/>
        <path d="m567.24 88.9805 3.241 168.8045-1.616 153.838" stroke-width="3"/>
        <path d="m587.755 89.1562 1.438 112.5928 1.794 151.568-3.232 58.303" stroke-width="3"/>
        <path
            d="m111.462 350.916-5.053-.112s2.282-9.341 4.433-3.47c2.151 5.87-1.681 15.68-6.838 10.653-5.1571-5.026-2.875-34.361-2.875-34.361l11.752-2.035-8.924-2.992s-3.184-4.192-1.869-11.375c1.315-7.184 1.794-35.796.958-46.215s.911-59.26.911-59.26l5.927-5.871-6.528-9.096s-3.307-32.327-4.9788-42.858c-1.672-10.532 3.1188-13.767 6.7158-13.289 3.598.478 4.077 5.627 3.241 9.819s-4.913 1.313-5.157-2.513h5.486"
            stroke-width="3"/>
        <path
            d="m106.831 142.491h64.092l4.198-4.192 1.315 4.192h14.992s1.795-7.906-3.597-10.185-38.617-.122-49.288-.835c-10.67-.712-33.459-.834-33.459-.834"
            stroke-width="3"/>
        <path
            d="m188.554 143.324-1.315 18.559-7.195 3.714 6.237 2.035s-.836 51.364-1.916 56.747c-1.081 5.383 3.24 30.169 3.24 30.169l-7.552 1.791 7.674 3.348s1.203 40.945.245 49.441c-.959 8.497 0 36.875 0 36.875"
            stroke-width="3"/>
        <path
            d="m109.17 346.012s30.698 1.078 45.089.6c14.39-.478 31.9-.835 36.211.122 4.321.956 0 12.641 0 12.641l-83.329-.018"
            stroke-width="3"/>
        <path
            d="m229.35 132.391.901 16.88 6.294 1.079-7.195 4.313 1.258 31.605 8.642 2.335-8.097 3.77 1.08 32.504h91.558l-.902-15.268-5.213-.712 6.115-2.692-2.884-73.814z"
            stroke-width="3"/>
        <path
            d="m368.532 114.6s-1.86-2.758-3.898-1.435c-2.039 1.322-4.021 43.279-4.021 43.279l5.214 5.149-5.214 1.5-4.95 55.912 75.993 9.341 6.744-4.755 10.164-108.288-76.265-8.975s2.245 4.82-3.777 8.29z"
            stroke-width="3"/>
        <path d="m372.308 106.309-7.674 6.855" stroke-width="3"/>
        <path
            d="m350.44 263.092-5.636 87.75 3.72 6.94-3.72 1.557-2.517 25.377 90.298 6.827 4.321-55.546-5.758-6.349 5.993-12.567s11.874-57.581 6.717-62.495c-5.157-4.905-10.436 6.94-9.713 9.819s5.758 4.314 7.552-2.757h-7.27"
            stroke-width="3"/>
        <path
            d="m437.479 266.759-91.83-4.867s-4.198-11.854 6.952-11.497c11.15.356 53.749 2.869 61.827 2.513s27.147.497 27.147.497"
            stroke-width="3"/>
        <path d="m464.805 304.478 4.95 1.341 3.87-7.456z" stroke-width="3"/>
        <path
            d="m464.805 304.478v74.434h6.03l-5.485 4.22-.545 11.038 15.565 4.408 70.779-2.251 11.066-11.667-1.71-80.182-24.47-9.79-62.41 3.676"
            stroke-width="3"/>
        <path d="m536.035 294.688 21.041 18.043s-3.776-8.347 3.42-8.262" stroke-width="3"/>
        <path d="m551.149 396.327c3.147-5.833 0-13.917 0-13.917l11.066 2.242" stroke-width="3"/>
        <path d="m465.275 394.301c8.444-.404 17.434-4.258 17.434-4.258l-2.339 8.534" stroke-width="3"/>
        <path
            d="m224.531 373.893 4.913-90.151 85.376 4.427s-1.916 93.865-4.433 100.326c-2.518 6.461-12.109 2.513-6.839-10.897l-82.624-3.236s-5.758 8.262-.601 12.933c5.157 4.67 86.1 4.238 86.1 4.238"
            stroke-width="3"/>
        <path
            d="m467.491 163.554 75.646-13.87 8.35 36.058-4.518 7.137 6.848 7.043 3.588 25.752-73.156 13.926-4.922-17.884 3.015-7.296-5.373-4.314z"
            stroke-width="3"/>
        <path d="m153.056 143.324c0 2.56-2.085 4.642-4.649 4.642-2.565 0-4.65-2.082-4.65-4.642" stroke-width="3"/>
        <path
            d="m243.872 146.034c1.286 0 2.329-1.041 2.329-2.325 0-1.285-1.043-2.326-2.329-2.326-1.287 0-2.33 1.041-2.33 2.326 0 1.284 1.043 2.325 2.33 2.325z"
            stroke-width="3"/>
        <path
            d="m311.41 144.152c1.287 0 2.33-1.042 2.33-2.326 0-1.285-1.043-2.326-2.33-2.326-1.286 0-2.329 1.041-2.329 2.326 0 1.284 1.043 2.326 2.329 2.326z"
            stroke-width="3"/>
        <path
            d="m374.638 118.652c1.286 0 2.329-1.042 2.329-2.326 0-1.285-1.043-2.326-2.329-2.326-1.287 0-2.33 1.041-2.33 2.326 0 1.284 1.043 2.326 2.33 2.326z"
            stroke-width="3"/>
        <path
            d="m440.11 123.855c1.286 0 2.329-1.042 2.329-2.326 0-1.285-1.043-2.326-2.329-2.326-1.287 0-2.33 1.041-2.33 2.326 0 1.284 1.043 2.326 2.33 2.326z"
            stroke-width="3"/>
        <path
            d="m504.952 166.601c1.287 0 2.33-1.042 2.33-2.326 0-1.285-1.043-2.326-2.33-2.326-1.286 0-2.329 1.041-2.329 2.326 0 1.284 1.043 2.326 2.329 2.326z"
            stroke-width="3"/>
        <path
            d="m475.946 310.468c1.286 0 2.329-1.041 2.329-2.326 0-1.284-1.043-2.326-2.329-2.326-1.287 0-2.33 1.042-2.33 2.326 0 1.285 1.043 2.326 2.33 2.326z"
            stroke-width="3"/>
        <path
            d="m548.266 315.054c1.286 0 2.329-1.041 2.329-2.326 0-1.284-1.043-2.326-2.329-2.326-1.287 0-2.33 1.042-2.33 2.326 0 1.285 1.043 2.326 2.33 2.326z"
            stroke-width="3"/>
        <path
            d="m393.218 269.085c1.286 0 2.329-1.041 2.329-2.326 0-1.284-1.043-2.325-2.329-2.325-1.287 0-2.33 1.041-2.33 2.325 0 1.285 1.043 2.326 2.33 2.326z"
            stroke-width="3"/>
        <path
            d="m268.99 297.011c1.286 0 2.329-1.041 2.329-2.326 0-1.284-1.043-2.326-2.329-2.326-1.287 0-2.33 1.042-2.33 2.326 0 1.285 1.043 2.326 2.33 2.326z"
            stroke-width="3"/>
        <path d="m40.9365 80.8398h36.8128" stroke-width="3"/>
        <path d="m45.0132 73.4102h7.5523" stroke-width="3"/>
        <path d="m581.753 71.2539-46.404.7221" stroke-width="3"/>
        <path d="m501.411 78.6823-111.519-.8346" stroke-width="3"/>
        <path d="m179.442 74.1328h46.282" stroke-width="3"/>
        <path d="m133.208 76.4023h22.488" stroke-width="3"/>
        <path d="m526.773 81.7969h20.506" stroke-width="3"/>
        <path d="m56.2854 100.43v86.559" stroke-width="3"/>
        <path d="m49.5691 413.523v-55.058" stroke-width="3"/>
        <path d="m56.2854 413.339v-9.612" stroke-width="3"/>
        <path d="m40.0347 421.617h19.9704" stroke-width="3"/>
        <path d="m38.729 427.273h7.4866" stroke-width="3"/>
        <path d="m590.987 418.148h-16.542" stroke-width="3"/>
        <path d="m590.395 428.5h-21.53" stroke-width="3"/>
        <path d="m464.805 420.117h63.95" stroke-width="3"/>
        <path d="m121.88 427.273h135.622" stroke-width="3"/>
        <path d="m247.789 418.148h80.586" stroke-width="3"/>
        <path d="m372.308 426.23h38.09" stroke-width="3"/>
        <path d="m571.026 89.1562v17.1528" stroke-width="3"/>
        <path d="m579.029 89.0742v23.9708" stroke-width="3"/>
        <path d="m575.525 292.359v66.106" stroke-width="3"/>
        <path d="m582.72 411.62v-71.948" stroke-width="3"/>
        <path d="m579.63 156.5v86.194" stroke-width="3"/>
        <path d="m448.573 116.324h119.099" stroke-width="2"/>
        <path d="m63.584 116.324h300.129" stroke-width="2"/>
        <path d="m445.652 145.863h122.02" stroke-width="2"/>
        <path d="m321.443 145.863h39.311" stroke-width="2"/>
        <path d="m188.554 145.863h41.528" stroke-width="2"/>
        <path d="m63.584 145.863h34.4456" stroke-width="2"/>
        <path d="m549.712 175.398h17.96" stroke-width="2"/>
        <path d="m442.937 175.398h26.969" stroke-width="2"/>
        <path d="m323.246 175.398h36.277" stroke-width="2"/>
        <path d="m185.736 175.398h44.44" stroke-width="2"/>
        <path d="m63.584 175.398h38.579" stroke-width="2"/>
        <path d="m554.521 204.938h13.151" stroke-width="2"/>
        <path d="m440.157 204.938h35.76" stroke-width="2"/>
        <path d="m323.791 204.938h33.121" stroke-width="2"/>
        <path d="m185.407 204.938h46.159" stroke-width="2"/>
        <path d="m63.584 204.938h40.27" stroke-width="2"/>
        <path d="m511.143 234.477h56.529" stroke-width="2"/>
        <path d="m184.703 234.477h298.137" stroke-width="2"/>
        <path d="m63.584 234.477h39.452" stroke-width="2"/>
        <path d="m445.154 264.02h122.518" stroke-width="2"/>
        <path d="m187.831 264.02h162.543" stroke-width="2"/>
        <path d="m63.584 264.02h39.65" stroke-width="2"/>
        <path d="m441.575 293.559h126.097" stroke-width="2"/>
        <path d="m314.708 293.559h33.778" stroke-width="2"/>
        <path d="m188.319 293.559h40.598" stroke-width="2"/>
        <path d="m63.584 293.559h39.565" stroke-width="2"/>
        <path d="m561.369 323.09h6.303" stroke-width="2"/>
        <path d="m434.267 323.09h30.538" stroke-width="2"/>
        <path d="m313.947 323.09h32.642" stroke-width="2"/>
        <path d="m188.159 323.09h39.143" stroke-width="2"/>
        <path d="m63.584 323.09h40.598" stroke-width="2"/>
        <path d="m561.529 352.633h6.143" stroke-width="2"/>
        <path d="m435.601 352.633h28.753" stroke-width="2"/>
        <path d="m312.951 352.633h32.811" stroke-width="2"/>
        <path d="m191.757 352.633h33.929" stroke-width="2"/>
        <path d="m63.584 352.633h38.194" stroke-width="2"/>
        <path d="m562.807 382.172h4.865" stroke-width="2"/>
        <path d="m433.309 382.172h33.281" stroke-width="2"/>
        <path d="m311.317 382.172h31.223" stroke-width="2"/>
        <path d="m63.584 382.172h154.606" stroke-width="2"/>
        <path d="m93.4551 101.059h86.5789" stroke-width="2"/>
        <path d="m227.302 106.309h68.694" stroke-width="2"/>
        <path d="m291.684 94.0039h25.954" stroke-width="2"/>
        <path d="m446.967 132.391h28.979" stroke-width="2"/>
        <path d="m522.997 101.059h20.863" stroke-width="2"/>
        <path d="m453.204 161.949h8.257" stroke-width="2"/>
        <path d="m220.633 250.523h50.677" stroke-width="2"/>
        <path d="m291.684 273.941h56.802" stroke-width="2"/>
        <path d="m379.099 239.602h31.299" stroke-width="2"/>
        <path d="m464.354 277.176h37.057" stroke-width="2"/>
        <path d="m464.354 339.672h-15.781" stroke-width="2"/>
        <path d="m63.584 277.176h10.8118" stroke-width="2"/>
        <path d="m63.584 312.73h29.871" stroke-width="2"/>
        <path d="m63.584 186.988h27.3536" stroke-width="2"/>
        <path d="m567.24 132.391h-33.807" stroke-width="2"/>
        <path d="m191.353 136.562h17.96" stroke-width="2"/>
        <path d="m65.397 396.324h83.01" stroke-width="2"/>
        <path d="m140.892 403.727h84.794" stroke-width="2"/>
        <path d="m415.433 405.395h31.534" stroke-width="2"/>
        <path d="m314.341 335.359h17.256" stroke-width="2"/>
        <path d="m187.953 309.137h25.691" stroke-width="2"/>
        <path d="m231.566 213.605h-17.922" stroke-width="2"/>
        <path d="m322.974 183.078h17.378" stroke-width="2"/>
        <path d="m570.349 250.523h-30.942" stroke-width="2"/>
        <path d="m570.209 283.742h-22.93" stroke-width="2"/>
        <path d="m141.841 152.364 1.916-1.735" stroke-width="2"/>
        <path d="m153.601 150.273 1.071 1.613" stroke-width="2"/>
        <path d="m243.872 149.074 1.822 13.533" stroke-width="2"/>
        <path d="m251.809 142.969 7.553.356" stroke-width="2"/>
        <path d="m373.341 122.262-2.517 5.383" stroke-width="2"/>
        <path d="m379.701 119.215 3.475 3.048" stroke-width="2"/>
        <path d="m381.016 113.999 6.115-.835" stroke-width="2"/>
        <path d="m433.3 121.531-5.035 3.423" stroke-width="2"/>
        <path d="m438.701 127.645-4.443 6.348" stroke-width="2"/>
        <path d="m498.772 172.059-3.476 6.47" stroke-width="2"/>
        <path d="m507.893 170.27 5.053 7.783" stroke-width="2"/>
        <path d="m396.13 269.074 7.195 7.625" stroke-width="2"/>
        <path d="m389.047 272.387-3.955 6.105" stroke-width="2"/>
        <path d="m478.275 315.055.592 6.893" stroke-width="2"/>
        <path d="m482.709 308.781 3.832 2.879" stroke-width="2"/>
        <path d="m542.78 311.66-5.514 1.069" stroke-width="2"/>
        <path d="m546.5 318.508-1.682 6.321" stroke-width="2"/>
        <path d="m263.138 300.887-2.518 4.783" stroke-width="2"/>
        <path d="m271.31 300.887 2.978 4.783" stroke-width="2"/>
        <path d="m113.942 166.199h29.815" stroke-width="2"/>
        <path d="m118.263 179.488h19.426" stroke-width="2"/>
        <path d="m119.165 190.16h5.749" stroke-width="2"/>
        <path d="m248.24 169.688h29.805" stroke-width="2"/>
        <path d="m252.551 182.977h19.426" stroke-width="2"/>
        <path d="m253.453 193.656h5.758" stroke-width="2"/>
        <path d="m487.584 197.923 29.185-6.068" stroke-width="2"/>
        <path d="m494.526 210.061 19.021-3.967" stroke-width="2"/>
        <path d="m497.588 220.317 5.636-1.172" stroke-width="2"/>
        <path d="m115.567 212.254h52.697" stroke-width="2"/>
        <path d="m115.567 223.742h40.11" stroke-width="2"/>
        <path d="m115.567 236.852h30.397" stroke-width="2"/>
        <path d="m115.567 249.242h55.036" stroke-width="2"/>
        <path d="m115.567 261.816h24.104" stroke-width="2"/>
        <path d="m362.774 300.887 52.537 4.182" stroke-width="2"/>
        <path d="m361.863 312.336 39.987 3.188" stroke-width="2"/>
        <path d="m360.82 325.41 30.303 2.41" stroke-width="2"/>
        <path d="m359.833 337.762 54.867 4.37" stroke-width="2"/>
        <path d="m358.828 350.289 24.029 1.913" stroke-width="2"/>
        <path d="m241.439 320.684 30.275 2.719" stroke-width="2"/>
        <path d="m240.331 333.023 54.82 4.924" stroke-width="2"/>
        <path d="m239.203 345.543 24.001 2.157" stroke-width="2"/>
        <path d="m485.987 341.594h30.397" stroke-width="2"/>
        <path d="m485.987 353.984h55.045" stroke-width="2"/>
        <path d="m485.987 366.559h24.104" stroke-width="2"/>
        <path d="m115.567 285.691h25.325" stroke-width="2"/>
        <path d="m153.601 285.691h22.037" stroke-width="2"/>
        <path d="m115.567 298.625h48.019" stroke-width="2"/>
        <path d="m115.567 312.73h28.19" stroke-width="2"/>
        <path d="m372.43 145.988 25.184 2.673" stroke-width="2"/>
        <path d="m410.248 150.012 21.924 2.325" stroke-width="2"/>
        <path d="m371.059 158.844 47.756 5.073" stroke-width="2"/>
        <path d="m369.556 172.867 28.03 2.982" stroke-width="2"/>
    </g>
</svg>
