<svg width="544" height="429" viewBox="0 0 544 429" fill="none" xmlns="http://www.w3.org/2000/svg">
<path d="M244.485 155.446L255.926 136.328L226.544 118.69L220.847 128.201L212.668 123.293L223.009 106.025C224.085 104.231 223.499 101.889 221.707 100.811L205.517 91.091C203.726 90.0127 201.387 90.6001 200.311 92.3945L125.259 217.757C124.183 219.551 124.769 221.893 126.561 222.971L122.737 220.67C120.632 219.406 117.876 220.098 116.614 222.206C115.353 224.315 116.044 227.075 118.149 228.338C116.044 227.075 113.288 227.767 112.026 229.875C110.765 231.983 111.456 234.743 113.561 236.006C113.561 236.006 103.253 249.339 90.9597 242.194C78.6667 235.057 59.4479 236.207 51.1722 250.023C42.9046 263.838 40.671 283.142 62.1395 296.032C44.5517 307.031 39.3774 329.658 64.6302 344.809C89.875 359.968 107.366 344.737 108.764 324.025C130.233 336.915 146.182 325.852 154.449 312.036C162.717 298.22 154.674 280.696 142.598 273.204C130.522 265.713 137.4 250.32 137.4 250.32C139.505 251.584 142.261 250.892 143.522 248.784C144.784 246.675 144.093 243.916 141.988 242.652C144.093 243.916 146.848 243.224 148.11 241.115C149.371 239.007 148.68 236.247 146.575 234.984L142.751 232.683C144.543 233.761 146.881 233.174 147.957 231.379L193.048 156.057L201.227 160.966L195.53 170.476L224.913 188.114L236.354 168.996L227.733 163.822L222.012 173.381L210.836 166.67L216.557 157.111L207.405 151.616L211.463 144.833L215.52 138.05L224.672 143.545L230.392 133.986L241.569 140.697L235.848 150.256L244.469 155.43L244.485 155.446ZM121.001 250.65L122.584 270.573L112.645 264.603L102.706 258.632L121.001 250.642V250.65ZM59.3916 258.576C65.7711 247.915 81.4145 241.856 93.6673 258.552C82.0332 265.399 75.6778 273.325 76.6581 284.574C61.3039 288.348 53.0122 269.237 59.3916 258.576ZM95.451 332.884C90.7829 340.681 82.3867 343.924 69.7161 336.312C57.0455 328.7 55.9448 319.761 60.6129 311.964C65.281 304.167 73.7334 297.247 87.9788 305.8C102.232 314.353 100.111 325.079 95.443 332.876L95.451 332.884ZM95.4751 293.296C85.8898 287.543 87.8021 280.35 89.875 276.882C91.9479 273.414 98.2631 268.859 106.973 274.089C115.682 279.32 114.646 287.036 112.573 290.504C110.5 293.972 105.068 299.049 95.4751 293.296ZM143.056 308.81C136.677 319.471 115.939 321.153 112.026 305.808C122.391 301.375 126.376 292.025 126.923 278.523C147.403 281.476 149.436 298.148 143.056 308.81Z" fill="#FF3939"/>
<path d="M444.676 28.1549C498.275 45.3983 521.431 103.549 507.105 148.223C491.02 149.253 475.336 138.004 475.336 138.004C485.644 105.867 469.985 70.688 434.681 59.3266C399.377 47.9731 366.186 67.4292 355.877 99.5664C355.877 99.5664 336.586 99.5664 324.108 89.3475C338.442 44.6741 391.085 10.9116 444.684 28.1469L444.676 28.1549Z" fill="#FF3939"/>
<path d="M375.78 227.11C380.191 228.526 384.915 226.096 386.337 221.679C387.751 217.261 385.325 212.53 380.914 211.106C376.503 209.682 371.778 212.12 370.356 216.537C368.934 220.955 371.369 225.686 375.78 227.11Z" fill="#FF3939"/>
<path d="M329.853 378.695C334.486 378.695 338.241 374.934 338.241 370.295C338.241 365.656 334.486 361.895 329.853 361.895C325.22 361.895 321.465 365.656 321.465 370.295C321.465 374.934 325.22 378.695 329.853 378.695Z" fill="#FF3939"/>
<path d="M372.46 289.733C375.305 280.874 370.211 271.363 361.132 268.909C352.96 266.696 344.243 271.314 341.455 279.321C339.567 284.736 340.692 290.433 343.897 294.649L332.03 331.638L340.925 334.503L349.819 337.367L361.686 300.378C366.619 298.857 370.765 295.035 372.46 289.741V289.733Z" fill="#FF3939"/>
<path d="M323.185 181.582C316.026 190.095 306.023 176.593 313.527 170.848C321.032 165.103 338.611 168.812 332.65 194.022C326.688 219.231 303.942 225.024 303.942 225.024C303.942 225.024 312.467 234.857 308.321 245.044C304.167 255.23 295.827 253.082 291.408 248.649C286.989 244.215 289.231 234.471 296.341 237.118C299.29 233.457 292.541 225.789 287.736 230.271C282.932 234.752 275.982 247.055 285.84 257.137C295.707 267.228 303.998 265.103 306.176 262.174C308.353 259.246 305.3 250.547 311.953 251.891C318.605 253.235 321.385 261.845 318.348 269.843C315.311 277.841 303.886 289.419 289.351 284.036C305.091 301.98 307.951 314.959 299.611 328.348C291.271 341.737 273.925 332.645 273.057 321.814C272.189 310.992 286.748 308.932 287.728 315.812C288.708 322.683 281.413 323.085 281.413 323.085C281.413 323.085 290.733 329.893 294.381 319.634C298.029 309.374 294.301 295.14 270.116 275.62C246.944 256.912 267.746 224.139 288.516 216.045C313.793 206.196 330.071 195.019 323.177 181.574L323.185 181.582Z" fill="#FF3939"/>
<path d="M303.026 174.156C309.518 182.629 305.299 193.564 305.299 193.564C305.299 193.564 307.091 203.831 297.883 203.469C288.676 203.107 285.406 209.971 285.406 209.971C285.406 209.971 282.055 199.084 289.431 191.528C296.807 183.973 300.503 187.175 303.026 174.156Z" fill="#FF3939"/>
<path d="M330.182 142.485C339.125 137.882 338.892 123.069 330.913 118.491C322.935 113.912 314.555 117.606 311.928 127.631C309.3 137.657 323.578 153.484 308.682 165.707C324.405 157.886 334.987 153.959 330.174 142.485H330.182Z" fill="#FF3939"/>
<path d="M261.197 274.133C266.589 286.854 283.429 289.26 278.327 298.256C280.055 305.015 274.76 313.238 269.288 312.369C271.546 293.154 254.979 288.262 261.197 274.133Z" fill="#FF3939"/>
<path d="M443.929 220.429C444.797 231.525 460.785 226.384 458.021 217.34C455.258 208.295 438.819 201.054 429 225.024C419.19 248.994 434.311 266.978 434.311 266.978C434.311 266.978 421.657 269.995 419.11 280.705C416.563 291.406 424.589 294.52 430.76 293.498C436.931 292.468 440.779 283.247 433.452 281.244C433.186 276.553 443.125 274.251 444.427 280.697C445.721 287.142 444.226 301.199 430.342 303.645C416.458 306.091 410.947 299.533 410.882 295.88C410.818 292.227 418.355 286.941 412.168 284.149C405.981 281.356 398.71 286.731 396.525 295.011C394.339 303.291 396.894 319.359 411.847 323.463C388.61 328.87 378.744 337.753 377.732 353.5C376.719 369.247 396.115 371.975 403.113 363.679C410.111 355.383 399.473 345.22 394.677 350.241C389.88 355.262 395.584 359.841 395.584 359.841C395.584 359.841 384.047 359.937 387.052 349.469C390.057 339.001 401.361 329.61 432.375 327.84C462.095 326.151 464.24 287.375 452.06 268.683C437.244 245.936 430.503 227.357 443.929 220.445V220.429Z" fill="#FF3939"/>
<path d="M464.634 226.145C454.438 229.242 451.506 240.596 451.506 240.596C451.506 240.596 444.074 247.894 451.779 252.971C459.476 258.048 458.142 265.54 458.142 265.54C458.142 265.54 467.197 258.644 465.591 248.2C463.984 237.755 459.123 238.198 464.642 226.145H464.634Z" fill="#FF3939"/>
<path d="M460.979 184.568C456.383 175.613 465.197 163.704 474.332 164.638C483.468 165.571 488.144 173.456 484.448 183.136C480.752 192.824 459.942 197.354 464.94 215.981C456.704 200.452 450.381 191.086 460.971 184.568H460.979Z" fill="#FF3939"/>
<path d="M440.507 331.816C428.728 339.018 413.639 331.149 412.546 341.44C407.211 345.93 406.729 355.706 411.686 358.184C421.023 341.247 437.333 346.936 440.499 331.824L440.507 331.816Z" fill="#FF3939"/>
<path d="M399.682 134.456C399.553 134.456 399.417 134.431 399.288 134.391C398.967 134.279 391.438 131.663 386.842 128.566C386.288 128.195 386.143 127.439 386.521 126.892C386.891 126.337 387.638 126.192 388.192 126.57C392.523 129.491 399.995 132.09 400.075 132.114C400.702 132.331 401.04 133.015 400.823 133.651C400.654 134.15 400.18 134.464 399.682 134.464V134.456Z" fill="black"/>
<path d="M298.511 118.226C298.39 118.226 298.262 118.209 298.141 118.169C297.506 117.968 297.161 117.284 297.362 116.648C301.99 102.221 309.406 87.5126 329.492 87.6494C330.159 87.6494 330.697 88.1965 330.689 88.8644C330.689 89.5242 330.143 90.0633 329.484 90.0633C329.388 90.0633 329.275 90.0633 329.171 90.0633C310.948 90.0633 304.215 103.187 299.66 117.389C299.499 117.904 299.025 118.226 298.511 118.226Z" fill="black"/>
<path d="M386.056 133.078C385.935 133.078 385.807 133.062 385.686 133.022L376.776 130.157C376.294 130.004 375.956 129.562 375.94 129.047C375.932 128.789 374.88 103.411 361.823 98.1727C361.205 97.9233 360.907 97.2232 361.156 96.6037C361.405 95.9841 362.104 95.6864 362.723 95.9358C375.94 101.238 378.013 123.39 378.302 128.113L386.425 130.728C387.06 130.929 387.406 131.613 387.205 132.249C387.044 132.764 386.57 133.086 386.056 133.086V133.078Z" fill="black"/>
<path d="M302.608 363.195C302.359 363.195 302.11 363.115 301.901 362.962C285.173 350.772 270.831 329.626 262.556 304.932C254.465 280.792 253.099 256.581 258.811 238.517C265.472 217.452 275.298 202.727 283.968 189.74C290.42 180.076 295.996 171.724 298.872 162.76L311.165 124.436C314.339 114.538 324.96 109.083 334.835 112.253C344.709 115.432 350.165 126.069 346.991 135.958L337.904 164.297L353.475 169.302C356.432 170.252 358.842 172.303 360.265 175.063C361.687 177.831 361.944 180.985 360.996 183.946L303.765 362.35C303.645 362.721 303.363 363.01 302.994 363.131C302.873 363.171 302.745 363.187 302.616 363.187L302.608 363.195ZM329.09 113.766C322.148 113.766 315.688 118.208 313.455 125.176L301.162 163.501C298.181 172.786 292.525 181.267 285.968 191.084C277.387 203.942 267.658 218.514 261.109 239.249C255.549 256.838 256.915 280.503 264.845 304.167C272.743 327.727 286.217 347.972 301.981 360.009L358.69 183.214C359.445 180.865 359.236 178.37 358.111 176.174C356.986 173.977 355.074 172.36 352.728 171.603L336.016 166.228C335.711 166.132 335.462 165.915 335.309 165.633C335.164 165.351 335.132 165.013 335.237 164.716L344.693 135.226C347.457 126.6 342.701 117.331 334.088 114.555C332.425 114.024 330.737 113.766 329.082 113.766H329.09Z" fill="black"/>
<path d="M292.878 338.904C291.681 338.904 290.452 338.751 289.198 338.446C282.329 336.772 276.769 330.802 276.271 324.558C275.74 317.919 280.497 313.888 285.47 313.333C289.616 312.874 292.854 314.91 293.336 318.281C293.666 320.599 293.208 322.538 291.97 324.043C291.159 325.032 290.122 325.684 289.142 326.119C290.484 326.633 292.147 326.988 293.69 326.513C295.417 325.974 296.759 324.413 297.659 321.87C301.941 309.809 293.907 295.454 273.772 279.2C265.456 272.481 261.905 263.445 263.512 253.058C265.745 238.614 278.472 223.029 292.493 217.565C312.949 209.591 324.318 201.971 327.234 194.271C328.231 191.632 328.223 189.017 327.202 186.313C325.266 187.946 323.04 188.526 320.799 187.954C317.657 187.158 314.965 184.124 314.242 180.592C313.591 177.398 314.668 174.461 317.199 172.53C321.498 169.247 327.998 169.053 332.658 172.087C336.362 174.493 342.01 180.922 338.226 196.942C333.132 218.49 315.849 226.311 310.337 228.291C312.603 231.485 317.312 239.612 313.833 248.149C311.543 253.766 308.152 255.528 305.718 256.019C301.483 256.872 297.378 254.578 294.959 252.148C292.067 249.244 291.464 244.166 293.609 240.819C295.056 238.566 297.458 237.673 300.174 238.325C300.567 237.029 299.74 235.283 298.494 234.132C297.072 232.805 294.879 232.024 292.967 233.803C290.621 235.999 286.603 241.414 286.459 247.819C286.362 251.947 287.929 255.689 291.111 258.947C297.522 265.505 302.68 266.189 305.195 266.028C307.525 265.867 309.004 264.934 309.614 264.105C310.169 263.357 310.281 261.756 310.386 260.203C310.554 257.805 310.723 255.335 312.467 253.999C313.479 253.227 314.877 253.001 316.596 253.355C319.465 253.935 321.883 255.777 323.41 258.545C325.611 262.536 325.788 267.911 323.884 272.924C320.678 281.373 310.305 291.374 297.225 288.904C310.908 305.584 313.214 318.515 305.043 331.638C302.094 336.37 297.787 338.904 292.878 338.904ZM286.587 315.69C286.306 315.69 286.017 315.707 285.735 315.739C282.032 316.149 278.239 319.03 278.673 324.372C279.083 329.538 283.96 334.688 289.769 336.104C295.088 337.408 299.917 335.307 303.002 330.359C311.101 317.348 308.16 304.932 292.854 287.48C292.493 287.061 292.452 286.458 292.766 285.999C293.079 285.541 293.658 285.364 294.18 285.549C308.015 290.674 318.886 279.297 321.634 272.063C323.265 267.766 323.137 263.035 321.305 259.712C320.108 257.547 318.324 256.163 316.122 255.721C315.102 255.52 314.363 255.584 313.929 255.922C313.053 256.59 312.917 258.593 312.796 260.372C312.668 262.271 312.531 264.234 311.551 265.545C310.346 267.171 308.023 268.249 305.356 268.434C302.431 268.635 296.47 267.879 289.383 260.637C285.727 256.904 283.928 252.575 284.04 247.771C284.185 241.463 287.792 235.323 291.312 232.04C294.228 229.313 297.836 230.246 300.117 232.37C302.367 234.462 303.677 238.035 301.668 240.521C301.347 240.924 300.792 241.077 300.31 240.899C298.245 240.135 296.622 240.553 295.618 242.123C294.276 244.223 294.365 248.157 296.646 250.442C298.631 252.43 301.917 254.321 305.227 253.653C307.935 253.106 310.08 250.949 311.591 247.24C315.415 237.85 307.501 228.556 307.421 228.468C307.148 228.154 307.059 227.72 307.18 227.317C307.308 226.915 307.63 226.609 308.032 226.505C308.248 226.448 330.151 220.55 335.872 196.387C339.318 181.815 334.514 176.175 331.34 174.115C326.993 171.29 321.674 172.151 318.653 174.453C316.235 176.303 316.331 178.79 316.596 180.117C317.135 182.74 319.143 185.05 321.385 185.621C323.249 186.096 325.065 185.339 326.656 183.448C326.913 183.143 327.315 182.982 327.716 183.03C328.118 183.078 328.472 183.32 328.656 183.682C330.633 187.528 330.906 191.382 329.484 195.14C326.31 203.516 314.491 211.595 293.36 219.826C280.071 225 268.003 239.765 265.89 253.436C264.87 260.05 265.665 269.569 275.282 277.333C296.301 294.303 304.593 309.567 299.925 322.691C298.752 325.99 296.888 328.058 294.389 328.83C289.962 330.198 285.31 326.859 285.117 326.714C284.707 326.416 284.53 325.885 284.675 325.394C284.82 324.904 285.253 324.558 285.768 324.533C285.792 324.533 288.636 324.34 290.122 322.514C290.91 321.548 291.191 320.245 290.958 318.635C290.661 316.559 288.676 315.69 286.603 315.69H286.587Z" fill="black"/>
<path d="M289.809 213.816C289.809 213.816 289.744 213.816 289.712 213.816C289.222 213.776 288.796 213.446 288.652 212.971C288.507 212.497 285.181 201.304 292.966 193.33C295.497 190.739 297.643 189.347 299.362 188.229C302.769 186.016 304.649 184.793 306.24 176.57C306.328 176.103 306.681 175.733 307.147 175.628C307.613 175.524 308.088 175.692 308.377 176.071C314.66 184.27 311.599 194.408 310.932 196.339C311.092 197.587 311.43 201.972 308.923 204.844C307.389 206.607 305.115 207.435 302.222 207.323C293.971 206.993 290.998 212.891 290.877 213.14C290.676 213.559 290.251 213.824 289.793 213.824L289.809 213.816ZM307.975 179.901C306.232 186.644 303.845 188.188 300.688 190.248C298.976 191.359 297.04 192.614 294.702 195.012C290.042 199.783 290.01 206.1 290.452 209.616C292.396 207.435 296.1 204.651 302.335 204.901C304.472 204.989 306.087 204.434 307.115 203.251C309.244 200.821 308.521 196.452 308.513 196.404C308.481 196.187 308.497 195.969 308.578 195.768C308.61 195.672 311.743 187.279 307.967 179.901H307.975Z" fill="black"/>
<path d="M313.085 169.561C312.684 169.561 312.298 169.36 312.073 169.006C311.744 168.491 311.848 167.807 312.322 167.421C321.369 159.994 318.983 151.32 316.669 142.936C315.375 138.245 314.162 133.819 315.166 129.973C316.572 124.59 319.626 120.672 323.763 118.942C327.54 117.357 331.854 117.767 335.912 120.092C340.098 122.498 342.621 127.567 342.492 133.321C342.372 138.663 339.993 143.193 336.081 145.664C339.977 156.51 330.464 161.177 317.448 167.55C316.211 168.153 314.933 168.781 313.624 169.433C313.455 169.521 313.27 169.561 313.085 169.561ZM328.496 120.406C327.178 120.406 325.893 120.656 324.687 121.162C321.265 122.603 318.71 125.95 317.488 130.585C316.645 133.803 317.786 137.923 318.983 142.292C320.839 149.035 323.072 157.13 318.276 164.452C331.517 157.902 337.101 154.281 333.461 145.599C333.22 145.02 333.461 144.344 334.024 144.054C337.704 142.163 339.961 138.124 340.074 133.264C340.186 128.469 338.073 124.124 334.707 122.184C332.65 121.002 330.529 120.406 328.488 120.406H328.496Z" fill="black"/>
<path d="M274.51 316.278C274.173 316.278 273.835 316.254 273.498 316.198C272.863 316.093 272.413 315.506 272.494 314.862C273.554 305.834 270.228 300.016 267.295 294.883C264.106 289.307 261.085 284.036 264.499 276.279C264.692 275.837 265.102 275.539 265.608 275.555C266.09 275.555 266.524 275.845 266.709 276.288C269.007 281.711 273.522 285.179 277.499 288.236C282.32 291.938 286.876 295.438 284.007 301.062C284.867 305.166 283.517 309.994 280.577 313.228C278.769 315.216 276.648 316.278 274.518 316.278H274.51ZM265.793 279.828C264.451 285.09 266.669 288.961 269.376 293.692C272.357 298.898 275.716 304.772 275.009 313.84C276.696 313.631 278.054 312.416 278.785 311.611C281.284 308.867 282.416 304.587 281.557 301.199C281.476 300.893 281.525 300.58 281.677 300.306C283.871 296.436 281.388 294.287 276.029 290.168C272.63 287.552 268.517 284.398 265.801 279.836L265.793 279.828Z" fill="black"/>
<path d="M508.487 154.788C492.988 154.788 478.775 144.722 478.148 144.272C477.722 143.966 477.545 143.419 477.706 142.92C488.368 109.68 471.222 76.5053 437.83 65.7634C421.399 60.477 404.414 61.8046 389.992 69.4889C376.004 76.9479 365.543 89.637 360.545 105.223C360.384 105.722 359.918 106.06 359.396 106.06C358.593 106.06 339.527 105.939 326.864 95.5672C326.478 95.2534 326.326 94.7384 326.478 94.2637C333.701 71.7338 350.518 51.8674 372.613 39.7576C396.267 26.7949 423.239 24.1396 448.572 32.2906C473.906 40.4415 494.289 58.3286 505.98 82.6688C516.891 105.4 519.012 131.357 511.781 153.887C511.628 154.362 511.202 154.692 510.712 154.724C509.973 154.772 509.234 154.796 508.503 154.796L508.487 154.788ZM480.269 142.799C483.419 144.875 496.411 152.849 509.724 152.35C516.465 130.585 514.312 105.625 503.794 83.7149C492.401 59.9861 472.524 42.5336 447.825 34.5918C394.114 17.3082 343.255 51.3685 329.025 94.2154C339.535 102.358 354.76 103.477 358.528 103.63C363.823 87.8346 374.566 74.9765 388.859 67.3647C403.86 59.3666 421.512 57.9826 438.569 63.4702C455.627 68.9578 469.165 80.3756 476.71 95.6235C483.893 110.147 485.146 126.868 480.269 142.791V142.799Z" fill="black"/>
<path d="M440.208 154.588C440.152 154.588 440.096 154.588 440.04 154.572C439.911 154.556 426.895 152.665 411.533 147.724C396.171 142.784 384.496 136.725 384.376 136.668C383.87 136.403 383.613 135.816 383.773 135.26C383.837 135.035 385.396 129.66 386.384 127.117C387.373 124.599 396.331 116.013 419.326 123.408C442.322 130.803 444.611 143.009 443.944 145.64C443.278 148.287 441.414 153.558 441.333 153.783C441.164 154.274 440.699 154.588 440.2 154.588H440.208ZM412.272 145.431C425.023 149.535 436.127 151.506 439.405 152.037C439.975 150.379 441.14 146.944 441.623 145.053C442.056 143.339 439.654 132.492 418.603 125.717C397.545 118.942 389.285 126.361 388.642 128.011C387.935 129.829 386.883 133.297 386.384 134.979C389.357 136.459 399.529 141.335 412.28 145.431H412.272Z" fill="black"/>
<path d="M442.788 146.548C442.788 146.548 442.764 146.548 442.756 146.548C437.22 146.395 429.579 144.126 429.249 144.03C428.615 143.837 428.245 143.169 428.438 142.525C428.631 141.889 429.298 141.527 429.94 141.712C430.013 141.737 437.605 143.99 442.82 144.134C443.487 144.15 444.009 144.706 443.993 145.374C443.977 146.025 443.439 146.548 442.788 146.548Z" fill="black"/>
<path d="M356.432 403.733C345.754 403.733 335.317 402.14 325.322 398.93C293.424 388.671 267.497 362.327 252.311 324.758C239.665 293.466 236.001 256.686 242.975 231.058C251.62 199.307 265.456 180.551 275.555 166.856C280.971 159.518 285.245 153.717 287.005 148.245L296.148 119.745C300.824 105.173 316.468 97.1186 331.018 101.802L345.778 106.549C359.943 111.111 367.938 126.077 364.033 140.32L444.226 166.116C446.637 159.574 451.329 154.256 457.556 151.053C464.144 147.666 471.648 147.046 478.703 149.315L493.462 154.063C508.013 158.746 516.056 174.412 511.38 188.984L502.236 217.484C500.485 222.956 500.589 230.165 500.718 239.29C500.967 256.308 501.304 279.626 489.871 310.484C480.639 335.388 456.27 363.148 427.795 381.212C404.318 396.097 379.805 403.733 356.416 403.733H356.432ZM326.061 396.628C357.268 406.67 392.941 400.467 426.526 379.176C454.591 361.377 478.574 334.092 487.637 309.647C498.918 279.216 498.58 256.163 498.331 239.33C498.195 229.988 498.09 222.602 499.962 216.752L509.106 188.252C513.372 174.943 506.037 160.637 492.747 156.364L477.988 151.617C471.552 149.549 464.69 150.112 458.681 153.202C452.663 156.3 448.219 161.554 446.147 167.999C446.05 168.305 445.833 168.554 445.552 168.707C445.271 168.86 444.933 168.876 444.636 168.779L362.193 142.259C361.887 142.162 361.638 141.945 361.486 141.663C361.341 141.382 361.309 141.044 361.413 140.746C365.68 127.437 358.344 113.131 345.055 108.858L330.295 104.111C317.006 99.8302 302.721 107.185 298.454 120.493L289.311 148.993C287.439 154.843 283.052 160.781 277.508 168.297C267.521 181.839 253.838 200.378 245.313 231.694C238.468 256.847 242.091 293.015 254.553 323.857C269.465 360.75 294.863 386.603 326.069 396.637L326.061 396.628Z" fill="black"/>
<path d="M450.38 153.774C450.26 153.774 450.131 153.758 450.011 153.718L441.092 150.853C440.458 150.652 440.112 149.968 440.313 149.333C440.514 148.697 441.197 148.351 441.831 148.552L449.955 151.167C452.935 147.498 467.502 130.697 481.338 134.101C481.98 134.262 482.382 134.913 482.222 135.557C482.061 136.201 481.41 136.603 480.767 136.442C467.108 133.095 451.497 153.106 451.336 153.307C451.103 153.613 450.75 153.774 450.38 153.774Z" fill="black"/>
<path d="M365.262 383.352C364.877 383.352 364.515 383.167 364.29 382.861C364.057 382.547 363.993 382.145 364.113 381.775L421.344 203.371C422.292 200.41 424.341 197.996 427.105 196.572C429.869 195.147 433.018 194.89 435.975 195.839L451.546 200.844L460.633 172.505C463.807 162.608 474.421 157.144 484.303 160.323C489.092 161.86 492.989 165.175 495.286 169.657C497.584 174.13 498.002 179.24 496.468 184.035L484.175 222.36C481.298 231.324 480.977 241.358 480.599 252.985C480.093 268.603 479.523 286.305 472.677 307.314C466.812 325.33 451.626 344.214 431.009 359.116C409.927 374.364 385.967 383.191 365.278 383.344H365.27L365.262 383.352ZM432.416 197.706C428.519 197.706 424.887 200.201 423.634 204.111L366.925 380.906C386.739 380.31 409.469 371.717 429.587 357.169C449.794 342.557 464.667 324.115 470.379 306.574C477.112 285.886 477.683 268.369 478.181 252.92C478.566 241.116 478.896 230.922 481.869 221.636L494.162 183.311C495.503 179.135 495.134 174.677 493.133 170.775C491.133 166.873 487.726 163.984 483.556 162.64C474.943 159.872 465.687 164.636 462.915 173.261L453.458 202.751C453.362 203.057 453.145 203.306 452.864 203.459C452.582 203.604 452.245 203.628 451.948 203.532L435.236 198.157C434.304 197.859 433.356 197.714 432.424 197.714L432.416 197.706Z" fill="black"/>
<path d="M381.877 232.251C380.889 232.251 379.901 232.098 378.929 231.784C373.891 230.167 371.111 224.743 372.726 219.698C373.513 217.252 375.201 215.265 377.474 214.09C379.756 212.915 382.351 212.706 384.794 213.487C387.236 214.275 389.221 215.965 390.394 218.242C391.567 220.527 391.776 223.126 390.997 225.572C390.209 228.018 388.522 230.006 386.248 231.181C384.874 231.889 383.38 232.251 381.877 232.251ZM379.668 229.491C381.492 230.078 383.444 229.917 385.147 229.04C386.851 228.163 388.12 226.675 388.707 224.84C389.293 223.013 389.133 221.058 388.257 219.352C387.381 217.647 385.887 216.375 384.063 215.788C382.239 215.2 380.286 215.361 378.583 216.238C376.88 217.115 375.61 218.604 375.024 220.439C373.811 224.212 375.892 228.276 379.668 229.491Z" fill="black"/>
<path d="M333.364 383.426C332.392 383.426 331.412 383.281 330.44 382.968C327.997 382.179 326.013 380.489 324.839 378.212C323.666 375.927 323.458 373.328 324.237 370.882C325.024 368.436 326.712 366.448 328.985 365.274C331.267 364.099 333.862 363.89 336.305 364.67C341.343 366.287 344.123 371.711 342.508 376.756C341.198 380.827 337.422 383.426 333.364 383.426ZM331.171 380.666C334.939 381.881 338.996 379.797 340.21 376.016C341.423 372.242 339.342 368.178 335.566 366.963C333.742 366.376 331.789 366.537 330.086 367.414C328.383 368.291 327.113 369.78 326.527 371.614C325.94 373.449 326.101 375.396 326.977 377.102C327.852 378.808 329.339 380.079 331.171 380.666Z" fill="black"/>
<path d="M343.938 402.928C343.818 402.928 343.689 402.912 343.569 402.872C342.934 402.671 342.588 401.987 342.789 401.351L365.68 329.98C365.76 329.722 365.929 329.505 366.154 329.352C366.266 329.28 377.418 321.531 382.681 305.132C387.984 288.597 385.726 273.671 385.702 273.526C385.67 273.341 385.686 273.148 385.742 272.971L404.117 215.681C404.937 213.13 404.712 210.419 403.491 208.037C402.27 205.655 400.197 203.893 397.65 203.08L380.407 197.536C375.161 195.847 369.512 198.751 367.825 204.014L349.45 261.304C349.394 261.481 349.289 261.65 349.161 261.779C349.056 261.883 338.539 272.698 333.228 289.233C327.949 305.68 332.537 318.433 332.577 318.554C332.674 318.803 332.674 319.085 332.593 319.342L309.703 390.714C309.502 391.349 308.827 391.695 308.184 391.494C307.549 391.293 307.204 390.609 307.405 389.973L330.175 318.988C329.387 316.59 325.868 304.263 330.93 288.493C336.072 272.472 345.666 261.94 347.232 260.29L365.527 203.265C367.624 196.74 374.63 193.135 381.138 195.235L398.381 200.779C401.538 201.793 404.109 203.982 405.628 206.935C407.147 209.888 407.42 213.259 406.407 216.421L388.121 273.446C388.434 275.699 390.113 289.86 384.971 305.881C379.909 321.652 369.882 329.618 367.849 331.106L345.079 402.091C344.918 402.606 344.444 402.928 343.93 402.928H343.938Z" fill="black"/>
<path d="M353.958 342.701C353.837 342.701 353.708 342.685 353.588 342.645L335.799 336.924C335.165 336.723 334.819 336.039 335.02 335.403L346.694 299.001C343.416 294.358 342.573 288.444 344.453 283.053C347.466 274.395 356.762 269.487 365.584 271.877C370.276 273.148 374.133 276.19 376.446 280.454C378.76 284.719 379.218 289.611 377.74 294.238C376.053 299.5 371.979 303.652 366.773 305.462L355.098 341.864C354.938 342.379 354.464 342.701 353.95 342.701H353.958ZM337.687 334.993L353.178 339.973L364.676 304.135C364.796 303.757 365.094 303.467 365.471 303.354C370.212 301.89 373.948 298.213 375.458 293.498C376.736 289.515 376.342 285.29 374.341 281.605C372.341 277.928 369.014 275.297 364.965 274.202C357.348 272.142 349.338 276.375 346.742 283.842C345.063 288.662 345.907 293.972 349 298.044C349.241 298.358 349.306 298.768 349.185 299.146L337.687 334.985V334.993Z" fill="black"/>
<path d="M396.501 372.104C394.259 372.104 391.977 371.694 389.856 370.833C383.742 368.371 380.488 362.98 380.938 356.052C381.926 340.619 391.318 331.454 412.144 325.878C400.068 320.254 397.457 306.076 399.763 297.338C401.129 292.156 404.399 287.883 408.504 285.928C411.357 284.568 414.394 284.48 417.061 285.687C418.668 286.411 419.673 287.4 420.042 288.623C420.685 290.724 419.383 292.832 418.122 294.875C417.31 296.203 416.467 297.571 416.483 298.496C416.499 299.526 417.166 301.152 418.966 302.64C420.91 304.241 425.514 306.688 434.529 305.102C439.004 304.314 442.459 302.182 444.781 298.778C448.388 293.483 448.276 286.741 447.641 283.586C447.127 281.028 444.877 280.392 442.957 280.633C441.278 280.851 439.59 281.776 439.157 283.063C441.744 284.117 443.174 286.242 443.045 288.913C442.844 292.888 439.398 296.662 435.356 297.338C431.974 297.901 427.305 297.378 424.357 294.208C422.661 292.381 420.926 288.977 422.332 283.079C424.469 274.108 433.018 270.246 436.722 268.974C433.396 264.154 423.899 247.716 432.287 227.23C438.522 211.998 446.846 210.067 451.265 210.276C456.817 210.533 461.991 214.476 463.574 219.65C464.506 222.7 463.67 225.717 461.284 227.93C458.64 230.384 454.695 231.269 451.674 230.094C449.513 229.249 448.043 227.479 447.424 225.025C445.022 226.626 443.495 228.75 442.772 231.478C440.667 239.444 445.472 252.27 457.467 270.68C465.687 283.297 466.964 303.389 460.384 316.432C455.652 325.814 447.513 331.092 436.843 331.696C411.019 333.168 396.139 340.152 392.612 352.455C391.865 355.046 392.05 357.098 393.142 358.546C394.114 359.834 395.681 360.518 397.071 360.88C396.517 359.954 396.059 358.82 395.978 357.541C395.85 355.593 396.605 353.751 398.22 352.061C400.574 349.591 404.391 349.824 407.492 352.624C411.212 355.98 412.739 362.03 408.448 367.116C405.724 370.35 401.193 372.129 396.509 372.129L396.501 372.104ZM413.124 287.247C411.951 287.247 410.738 287.537 409.541 288.108C406.118 289.742 403.266 293.516 402.093 297.957C400.116 305.44 402.342 321.034 416.571 324.937C417.101 325.081 417.471 325.572 417.455 326.128C417.447 326.683 417.061 327.157 416.523 327.278C393.938 332.532 384.32 340.917 383.34 356.221C382.97 362.038 385.67 366.552 390.756 368.604C396.308 370.841 403.266 369.497 406.6 365.539C410.055 361.443 408.649 356.897 405.877 354.402C404.118 352.817 401.603 351.989 399.956 353.719C398.831 354.901 398.3 356.124 398.381 357.372C398.533 359.697 400.727 361.524 400.743 361.54C401.145 361.861 401.297 362.393 401.129 362.875C400.96 363.358 400.51 363.68 400.004 363.688C399.747 363.688 394.034 363.688 391.23 360.003C389.647 357.919 389.334 355.151 390.298 351.779C394.139 338.382 409.758 330.819 436.714 329.282C449.047 328.582 455.226 321.308 458.239 315.337C464.466 302.994 463.244 283.948 455.451 271.992C443.061 252.978 438.152 239.516 440.442 230.851C441.47 226.964 443.937 223.995 447.778 222.016C448.139 221.831 448.565 221.839 448.919 222.032C449.272 222.225 449.497 222.587 449.529 222.989C449.722 225.459 450.767 227.133 452.55 227.833C454.704 228.678 457.684 227.97 459.645 226.151C460.633 225.234 462.16 223.263 461.268 220.35C460.159 216.721 456.327 212.915 451.16 212.674C447.384 212.505 440.193 214.275 434.521 228.139C425.112 251.119 439.486 268.685 439.639 268.854C439.904 269.175 439.992 269.61 439.856 270.004C439.727 270.398 439.398 270.704 438.996 270.801C438.875 270.833 427.024 273.794 424.686 283.635C423.754 287.537 424.244 290.538 426.124 292.558C428.422 295.028 432.199 295.415 434.962 294.956C438.152 294.425 440.514 291.279 440.643 288.792C440.739 286.934 439.663 285.638 437.542 285.059C437.043 284.922 436.682 284.48 436.658 283.965C436.481 280.77 439.614 278.63 442.66 278.244C445.745 277.841 449.224 279.201 450.011 283.112C450.959 287.835 450.325 294.932 446.773 300.138C444.066 304.105 440.089 306.575 434.946 307.484C424.975 309.238 419.689 306.374 417.431 304.507C415.366 302.801 414.113 300.572 414.072 298.545C414.04 296.903 415.077 295.229 416.073 293.612C417.005 292.099 418.058 290.386 417.736 289.34C417.576 288.808 417.013 288.326 416.065 287.899C415.125 287.473 414.129 287.264 413.116 287.264L413.124 287.247Z" fill="black"/>
<path d="M462.537 269.391C462.32 269.391 462.103 269.334 461.91 269.214C461.485 268.956 461.268 268.457 461.356 267.974C461.404 267.701 462.425 261.183 455.515 256.629C453.08 255.028 451.739 253.032 451.514 250.707C451.144 246.909 453.972 243.546 454.832 242.62C455.41 240.665 458.817 230.639 468.692 227.638C469.142 227.501 469.64 227.638 469.953 228C470.266 228.354 470.339 228.869 470.138 229.296C466.651 236.907 467.47 238.991 468.949 242.781C469.696 244.696 470.628 247.078 471.182 250.659C472.878 261.69 463.662 268.843 463.268 269.141C463.051 269.302 462.794 269.391 462.537 269.391ZM466.787 231.001C459.436 234.799 457.09 243.449 457.065 243.546C457.009 243.755 456.897 243.948 456.744 244.101C456.712 244.133 453.586 247.271 453.908 250.482C454.061 252.043 455.049 253.435 456.841 254.609C462.039 258.037 463.445 262.471 463.758 265.375C466.161 262.776 469.808 257.627 468.796 251.029C468.29 247.714 467.446 245.565 466.699 243.666C465.325 240.15 464.289 237.503 466.787 231.001Z" fill="black"/>
<path d="M469.351 219.825C468.917 219.825 468.499 219.592 468.282 219.182C467.591 217.886 466.924 216.631 466.273 215.416C459.404 202.638 454.382 193.304 463.855 186.755C462.111 182.466 462.81 177.397 465.823 172.979C469.061 168.224 474.067 165.569 478.864 166.068C483.516 166.542 487.268 168.723 489.413 172.215C491.767 176.037 491.968 181.002 489.984 186.2C488.569 189.909 485.002 192.798 481.226 195.855C474.469 201.327 467.479 206.983 470.516 218.296C470.676 218.892 470.363 219.511 469.793 219.737C469.648 219.793 469.495 219.817 469.351 219.817V219.825ZM477.755 168.425C474.139 168.425 470.315 170.67 467.816 174.347C465.076 178.37 464.57 182.965 466.458 186.65C466.747 187.213 466.555 187.897 466.016 188.227C458.006 193.16 460.44 199.363 467.398 212.407C467.76 203.66 474.276 198.382 479.707 193.98C483.226 191.132 486.545 188.444 487.734 185.339C489.445 180.865 489.309 176.648 487.364 173.486C485.621 170.654 482.519 168.868 478.623 168.473C478.333 168.441 478.052 168.433 477.763 168.433L477.755 168.425Z" fill="black"/>
<path d="M416.089 362.031C415.904 362.031 415.727 361.99 415.55 361.902C413.317 360.783 411.895 358.466 411.525 355.368C411.011 351.015 412.722 346.308 415.807 343.476C416.74 337.232 422.484 337.047 428.558 336.845C433.572 336.685 439.261 336.499 444.282 333.426C444.692 333.176 445.214 333.192 445.608 333.474C446.002 333.756 446.194 334.238 446.09 334.705C444.355 343.001 438.835 345.527 432.994 348.199C427.626 350.653 421.536 353.445 417.149 361.403C416.932 361.797 416.515 362.031 416.097 362.031H416.089ZM442.965 336.829C438.096 338.954 432.921 339.123 428.639 339.259C421.882 339.477 418.62 339.782 418.146 344.208C418.113 344.522 417.961 344.803 417.72 345.004C415.044 347.257 413.485 351.401 413.919 355.087C414.048 356.165 414.45 357.943 415.695 359.102C420.395 351.321 426.542 348.505 431.989 346.01C436.939 343.741 440.996 341.891 442.965 336.829Z" fill="black"/>
<path d="M361.108 404.296C348.775 404.296 336.923 402.502 325.33 398.929C324.695 398.736 324.333 398.06 324.534 397.425C324.727 396.789 325.41 396.435 326.037 396.628C358.762 406.702 393.712 402.357 436.039 382.965C479.032 363.26 499.223 326.641 503.441 301.271C506.004 285.87 506.253 270.019 506.47 256.034C506.679 242.757 506.856 231.291 508.824 222.376C509.603 218.844 510.849 214.587 512.287 209.663C518.345 188.935 526.645 160.548 511.331 149.532C510.793 149.146 510.664 148.39 511.058 147.851C511.443 147.311 512.199 147.183 512.737 147.577C529.433 159.59 520.86 188.927 514.601 210.347C513.171 215.231 511.942 219.447 511.178 222.899C509.258 231.581 509.081 242.934 508.88 256.074C508.655 270.139 508.406 286.087 505.819 301.665C501.497 327.622 480.896 365.062 437.043 385.154C409.074 397.972 384.239 404.296 361.116 404.296H361.108Z" fill="black"/>
<path d="M145.49 239.266C144.598 239.266 143.715 239.025 142.935 238.558L126.746 228.838C125.605 228.154 124.793 227.06 124.472 225.756C124.15 224.453 124.343 223.109 125.026 221.967L200.077 96.6042C200.76 95.4616 201.853 94.6489 203.155 94.3271C204.456 93.9972 205.798 94.1983 206.939 94.8823L223.129 104.602C225.491 106.026 226.262 109.108 224.848 111.474L149.797 236.844C149.114 237.987 148.021 238.8 146.72 239.121C146.31 239.226 145.9 239.274 145.49 239.274V239.266ZM204.384 96.5881C204.175 96.5881 203.958 96.6122 203.741 96.6685C203.066 96.8375 202.504 97.2559 202.15 97.8433L127.099 223.214C126.746 223.801 126.641 224.501 126.81 225.177C126.979 225.853 127.396 226.416 127.983 226.77L144.173 236.49C144.759 236.844 145.458 236.949 146.133 236.78C146.808 236.611 147.37 236.193 147.724 235.605L222.775 110.243C223.506 109.02 223.113 107.418 221.883 106.686L205.694 96.9663C205.292 96.7249 204.834 96.5961 204.376 96.5961L204.384 96.5881Z" fill="black"/>
<path d="M145.073 249.325C144.06 249.325 143.064 249.051 142.18 248.52L118.342 234.206C117.048 233.425 116.132 232.186 115.762 230.714C115.393 229.241 115.618 227.712 116.397 226.417C117.168 225.121 118.414 224.204 119.884 223.834C121.355 223.464 122.881 223.689 124.175 224.47L148.013 238.784C150.689 240.393 151.565 243.885 149.958 246.573C149.186 247.868 147.941 248.786 146.471 249.156C146.005 249.269 145.539 249.333 145.073 249.333V249.325ZM121.266 226.079C121.001 226.079 120.728 226.111 120.463 226.175C119.619 226.385 118.904 226.916 118.462 227.656C118.02 228.396 117.892 229.273 118.1 230.126C118.309 230.971 118.84 231.687 119.579 232.13L143.418 246.444C144.157 246.887 145.033 247.016 145.884 246.806C146.728 246.597 147.443 246.066 147.885 245.326C148.809 243.781 148.303 241.777 146.768 240.852L122.929 226.538C122.423 226.232 121.853 226.079 121.266 226.079Z" fill="black"/>
<path d="M140.485 256.986C139.473 256.986 138.477 256.712 137.593 256.181L113.754 241.866C111.079 240.257 110.203 236.765 111.81 234.078C113.417 231.398 116.904 230.521 119.587 232.13L143.426 246.445C146.102 248.054 146.977 251.546 145.37 254.234C144.599 255.529 143.354 256.446 141.883 256.817C141.417 256.929 140.951 256.994 140.493 256.994L140.485 256.986ZM116.671 233.74C115.562 233.74 114.485 234.303 113.875 235.325C112.951 236.87 113.457 238.873 114.991 239.798L138.83 254.113C139.569 254.556 140.445 254.684 141.297 254.475C142.14 254.266 142.856 253.735 143.297 252.995C144.221 251.45 143.715 249.446 142.181 248.521L118.342 234.206C117.82 233.892 117.241 233.74 116.671 233.74Z" fill="black"/>
<path d="M65.4336 350.843C65.2247 350.843 65.0077 350.787 64.8149 350.674C53.3576 343.795 46.9941 334.582 46.9058 324.733C46.8254 315.753 51.9515 306.958 60.7092 300.883C51.5658 294.937 46.3192 287.366 45.114 278.362C43.8124 268.634 47.5646 259.871 50.9391 254.231C59.5281 239.884 79.2933 238.379 92.3656 245.975C103.582 252.493 113.015 240.6 113.408 240.085C113.818 239.562 114.573 239.465 115.096 239.876C115.618 240.286 115.714 241.043 115.313 241.566C115.2 241.71 104.209 255.647 91.1524 248.059C79.0683 241.043 60.8619 242.346 53.004 255.47C49.0751 262.027 38.2284 284.614 63.5535 299.821C63.915 300.039 64.132 300.425 64.14 300.843C64.14 301.262 63.9311 301.656 63.5696 301.881C54.5547 307.514 49.2278 316.051 49.3001 324.709C49.3563 331.057 52.305 340.359 66.0362 348.598C66.6066 348.944 66.7914 349.685 66.4459 350.256C66.221 350.634 65.8193 350.843 65.4095 350.843H65.4336Z" fill="black"/>
<path d="M113.449 270.639C113.24 270.639 113.023 270.583 112.83 270.47L102.891 264.5C102.505 264.267 102.28 263.84 102.304 263.389C102.329 262.939 102.61 262.545 103.028 262.36L121.322 254.37C121.933 254.104 122.64 254.386 122.905 254.997C123.17 255.609 122.889 256.317 122.279 256.582L106.129 263.631L114.059 268.394C114.63 268.74 114.814 269.481 114.469 270.052C114.244 270.43 113.842 270.639 113.432 270.639H113.449Z" fill="black"/>
<path d="M96.2781 299.323C96.0692 299.323 95.8523 299.267 95.6594 299.154C86.5321 293.675 86.5642 286.224 89.6495 281.082C92.2126 276.81 99.3152 272.424 108.402 277.88C108.973 278.226 109.158 278.966 108.812 279.537C108.467 280.109 107.735 280.294 107.157 279.956C98.9938 275.055 93.4901 279.368 91.7144 282.329C90.1718 284.904 87.5927 291.502 96.8968 297.086C97.4672 297.432 97.652 298.173 97.3065 298.744C97.0816 299.122 96.6798 299.331 96.2701 299.331L96.2781 299.323Z" fill="black"/>
<path d="M73.6046 291.086C68.6151 291.086 64.1398 288.76 60.926 284.399C56.2257 278.019 55.4865 268.926 59.1664 262.779C63.023 256.334 69.6034 252.133 76.3283 251.82C81.2536 251.594 88.5651 253.284 95.4427 262.666C95.6436 262.94 95.7239 263.286 95.6516 263.624C95.5873 263.962 95.3784 264.251 95.0811 264.42C82.8524 271.622 77.7826 279.29 78.6584 289.292C78.7066 289.887 78.3209 290.426 77.7424 290.571C76.3364 290.917 74.9464 291.086 73.5966 291.086H73.6046ZM77.172 254.209C76.9309 254.209 76.6819 254.209 76.4408 254.225C70.5113 254.507 64.6781 258.257 61.2313 264.018C58.0255 269.369 58.7165 277.335 62.8623 282.967C64.8147 285.622 69.0892 289.734 76.1918 288.439C75.7016 278.365 80.9804 270.246 92.7029 263.036C88.1232 257.243 82.7882 254.209 77.18 254.209H77.172Z" fill="black"/>
<path d="M70.5196 342.349C70.3107 342.349 70.0938 342.293 69.9009 342.181C63.6661 338.439 59.7693 334.134 58.315 329.395C57.0214 325.17 57.7365 320.6 60.3799 316.175C63.3366 311.234 66.9362 307.967 71.0901 306.447C76.4813 304.475 82.6438 305.537 89.4009 309.593C89.9714 309.939 90.1562 310.679 89.8107 311.25C89.4652 311.822 88.726 312.007 88.1556 311.669C82.0493 308 76.5857 307.01 71.9096 308.716C68.294 310.035 65.1043 312.964 62.4368 317.414C60.1148 321.292 59.5041 325.082 60.6049 328.687C61.8743 332.839 65.4176 336.677 71.1222 340.105C71.6926 340.451 71.8774 341.191 71.532 341.762C71.307 342.14 70.9053 342.349 70.4955 342.349H70.5196Z" fill="black"/>
<path d="M84.8136 356.962C78.5787 356.962 71.7573 354.854 64.8154 350.677C64.2449 350.331 64.0601 349.591 64.4056 349.02C64.7511 348.449 65.4903 348.264 66.0608 348.602C79.7919 356.841 89.3692 355.071 94.9854 352.126C102.65 348.111 107.656 339.38 108.371 328.767C108.403 328.349 108.644 327.971 109.014 327.778C109.383 327.584 109.833 327.592 110.195 327.81C135.52 343.017 150.304 322.789 154.233 316.231C162.091 303.107 154.65 286.411 142.783 279.041C129.96 271.083 137.047 254.805 137.119 254.636C137.392 254.025 138.099 253.759 138.71 254.025C139.32 254.298 139.586 255.006 139.32 255.618C139.055 256.205 133.021 270.141 144.053 276.981C156.9 284.947 164.887 303.115 156.306 317.462C152.931 323.103 146.977 330.545 137.794 333.981C129.293 337.16 120.158 336.097 110.613 330.819C109.391 341.416 104.056 350.09 96.1102 354.25C92.6795 356.044 88.8791 356.938 84.8296 356.938L84.8136 356.962Z" fill="black"/>
<path d="M123.388 276.608C123.171 276.608 122.962 276.552 122.769 276.439L112.83 270.468C112.26 270.122 112.075 269.382 112.42 268.811C112.766 268.24 113.497 268.055 114.075 268.393L122.014 273.156L120.616 255.567C120.559 254.899 121.057 254.319 121.724 254.271C122.383 254.207 122.97 254.714 123.018 255.382L124.601 275.304C124.633 275.755 124.416 276.189 124.038 276.423C123.846 276.543 123.621 276.608 123.404 276.608H123.388Z" fill="black"/>
<path d="M104.377 301.914C101.822 301.914 98.9054 301.11 95.6513 299.154C95.0809 298.808 94.8961 298.068 95.2416 297.497C95.5871 296.926 96.3182 296.741 96.8967 297.079C106.209 302.671 110.797 297.28 112.339 294.705C114.115 291.744 115.312 284.84 107.157 279.948C106.586 279.602 106.402 278.862 106.747 278.29C107.093 277.719 107.832 277.534 108.402 277.872C117.489 283.327 116.975 291.671 114.412 295.944C112.428 299.259 109.005 301.906 104.385 301.906L104.377 301.914Z" fill="black"/>
<path d="M127.935 323.093C126.963 323.093 125.983 323.02 125.019 322.884C118.213 321.886 113.344 317.533 111.657 310.927C111.513 310.347 111.802 309.752 112.348 309.519C121.572 305.576 125.943 297.489 126.513 283.295C126.529 282.957 126.682 282.636 126.947 282.418C127.212 282.201 127.55 282.105 127.887 282.153C139.393 283.81 144.326 289.475 146.447 293.933C149.34 300.024 148.737 307.813 144.88 314.258C141.65 319.649 134.837 323.101 127.927 323.101L127.935 323.093ZM114.268 311.297C116.47 318.176 122.102 320.011 125.364 320.494C132.282 321.508 139.618 318.353 142.823 313.003C146.27 307.241 146.833 300.33 144.278 294.955C141.747 289.628 136.436 286.12 128.859 284.744C128.04 298.495 123.372 306.976 114.268 311.297Z" fill="black"/>
<path d="M83.5994 346.668C79.4776 346.668 74.8818 345.164 69.9004 342.171C69.3299 341.825 69.1451 341.084 69.4906 340.513C69.8361 339.942 70.5753 339.757 71.1457 340.095C76.8503 343.522 81.9041 344.834 86.1624 344.005C89.8584 343.281 92.9035 340.956 95.2255 337.077C97.893 332.628 98.9696 328.435 98.4233 324.613C97.7242 319.681 94.2774 315.32 88.1711 311.659C87.6006 311.313 87.4158 310.572 87.7613 310.001C88.1068 309.43 88.846 309.245 89.4164 309.583C96.1736 313.638 100.014 318.587 100.818 324.275C101.436 328.661 100.255 333.384 97.2984 338.324C94.655 342.75 90.9591 345.534 86.6284 346.379C85.6562 346.572 84.6439 346.668 83.6074 346.668H83.5994Z" fill="black"/>
<path d="M245.289 161.482C245.072 161.482 244.855 161.425 244.67 161.313L236.049 156.139C235.478 155.793 235.294 155.053 235.639 154.481L240.741 145.96L231.638 140.497L226.536 149.018C226.19 149.589 225.451 149.774 224.881 149.436L216.766 144.56L213.327 150.305C212.99 150.877 212.242 151.062 211.672 150.724C211.101 150.378 210.917 149.637 211.262 149.066L215.32 142.283C215.48 142.01 215.753 141.808 216.059 141.736C216.364 141.655 216.693 141.704 216.975 141.873L225.09 146.749L230.192 138.228C230.537 137.656 231.276 137.471 231.847 137.809L243.023 144.52C243.593 144.866 243.778 145.606 243.433 146.178L238.331 154.699L244.887 158.633L255.091 141.583L227.773 125.185L222.695 133.665C222.35 134.237 221.611 134.422 221.04 134.084L212.861 129.176C212.29 128.83 212.106 128.089 212.451 127.518C212.797 126.947 213.528 126.762 214.106 127.1L221.257 131.388L226.335 122.907C226.681 122.336 227.42 122.151 227.99 122.489L257.373 140.127C257.943 140.473 258.128 141.213 257.783 141.784L246.341 160.902C246.181 161.176 245.907 161.377 245.602 161.45C245.506 161.474 245.409 161.482 245.313 161.482H245.289Z" fill="black"/>
<path d="M225.724 194.168C225.507 194.168 225.29 194.112 225.106 193.999L195.723 176.362C195.45 176.201 195.249 175.927 195.177 175.621C195.104 175.316 195.144 174.986 195.313 174.704L200.391 166.223L193.24 161.934C192.67 161.588 192.485 160.848 192.83 160.277C193.176 159.706 193.915 159.521 194.486 159.858L202.665 164.767C202.938 164.928 203.139 165.201 203.211 165.507C203.283 165.813 203.243 166.143 203.075 166.424L197.997 174.905L225.314 191.304L235.518 174.253L228.962 170.319L223.86 178.84C223.699 179.113 223.426 179.315 223.121 179.387C222.808 179.467 222.486 179.419 222.205 179.25L211.029 172.54C210.458 172.194 210.274 171.453 210.619 170.882L215.721 162.361L207.606 157.485C207.036 157.139 206.851 156.399 207.196 155.827L211.254 149.044C211.599 148.473 212.338 148.288 212.909 148.626C213.479 148.972 213.664 149.712 213.319 150.283L209.88 156.028L217.995 160.904C218.268 161.065 218.469 161.339 218.541 161.645C218.614 161.951 218.573 162.28 218.405 162.562L213.303 171.083L222.406 176.547L227.508 168.026C227.853 167.454 228.584 167.269 229.163 167.607L237.784 172.781C238.057 172.942 238.258 173.215 238.33 173.521C238.411 173.835 238.363 174.157 238.194 174.438L226.753 193.557C226.592 193.83 226.319 194.031 226.013 194.104C225.917 194.128 225.821 194.136 225.724 194.136V194.168Z" fill="black"/>
</svg>
