<svg fill="none" height="429" viewBox="0 0 544 429" width="544" xmlns="http://www.w3.org/2000/svg">

    <style>
        :root { fill:#222 }
        .accent { fill: #f9322c; }

        @media (prefers-color-scheme: dark) {
        :root {  fill: #f9322c; }
        .accent { fill:#dee2e6; }
        }
    </style>

    <path
        d="m244.485 155.446 11.441-19.118-29.382-17.638-5.697 9.511-8.179-4.908 10.341-17.268c1.076-1.794.49-4.136-1.302-5.214l-16.19-9.72c-1.791-1.0783-4.13-.4909-5.206 1.3035l-75.052 125.3625c-1.076 1.794-.49 4.136 1.302 5.214l-3.824-2.301c-2.105-1.264-4.861-.572-6.123 1.536-1.261 2.109-.57 4.869 1.535 6.132-2.105-1.263-4.861-.571-6.123 1.537-1.261 2.108-.57 4.868 1.535 6.131 0 0-10.308 13.333-22.6013 6.188-12.293-7.137-31.5118-5.987-39.7875 7.829-8.2676 13.815-10.5012 33.119 10.9673 46.009-17.5878 10.999-22.7621 33.626 2.4907 48.777 25.2448 15.159 42.7358-.072 44.1338-20.784 21.469 12.89 37.418 1.827 45.685-11.989 8.268-13.816.225-31.34-11.851-38.832-12.076-7.491-5.198-22.884-5.198-22.884 2.105 1.264 4.861.572 6.122-1.536 1.262-2.109.571-4.868-1.534-6.132 2.105 1.264 4.86.572 6.122-1.537 1.261-2.108.57-4.868-1.535-6.131l-3.824-2.301c1.792 1.078 4.13.491 5.206-1.304l45.091-75.322 8.179 4.909-5.697 9.51 29.383 17.638 11.441-19.118-8.621-5.174-5.721 9.559-11.176-6.711 5.721-9.559-9.152-5.495 4.058-6.783 4.057-6.783 9.152 5.495 5.72-9.559 11.177 6.711-5.721 9.559 8.621 5.174zm-123.484 95.204 1.583 19.923-9.939-5.97-9.939-5.971 18.295-7.99zm-61.6094 7.926c6.3795-10.661 22.0229-16.72 34.2757-.024-11.6341 6.847-17.9895 14.773-17.0092 26.022-15.3542 3.774-23.6459-15.337-17.2665-25.998zm36.0594 74.308c-4.6681 7.797-13.0643 11.04-25.7349 3.428s-13.7713-16.551-9.1032-24.348 13.1205-14.717 27.3659-6.164c14.2532 8.553 12.1322 19.279 7.4642 27.076zm.0241-39.588c-9.5853-5.753-7.673-12.946-5.6001-16.414s8.3881-8.023 17.098-2.793c8.709 5.231 7.673 12.947 5.6 16.415s-7.505 8.545-17.0979 2.792zm47.5809 15.514c-6.379 10.661-27.117 12.343-31.03-3.002 10.365-4.433 14.35-13.783 14.897-27.285 20.48 2.953 22.513 19.625 16.133 30.287z"
        class="accent"/>
    <path
        d="m444.676 28.1549c53.599 17.2434 76.755 75.3941 62.429 120.0681-16.085 1.03-31.769-10.219-31.769-10.219 10.308-32.137-5.351-67.316-40.655-78.6774-35.304-11.3535-68.495 8.1026-78.804 40.2398 0 0-19.291 0-31.769-10.2189 14.334-44.6734 66.977-78.4359 120.576-61.2006z"
        class="accent"/>
    <path
        d="m375.78 227.11c4.411 1.416 9.135-1.014 10.557-5.431 1.414-4.418-1.012-9.149-5.423-10.573s-9.136 1.014-10.558 5.431c-1.422 4.418 1.013 9.149 5.424 10.573z"
        class="accent"/>
    <path
        d="m329.853 378.695c4.633 0 8.388-3.761 8.388-8.4s-3.755-8.4-8.388-8.4-8.388 3.761-8.388 8.4 3.755 8.4 8.388 8.4z"
        class="accent"/>
    <path
        d="m372.46 289.733c2.845-8.859-2.249-18.37-11.328-20.824-8.172-2.213-16.889 2.405-19.677 10.412-1.888 5.415-.763 11.112 2.442 15.328l-11.867 36.989 8.895 2.865 8.894 2.864 11.867-36.989c4.933-1.521 9.079-5.343 10.774-10.637z"
        class="accent"/>
    <path
        d="m323.185 181.582c-7.159 8.513-17.162-4.989-9.658-10.734 7.505-5.745 25.084-2.036 19.123 23.174-5.962 25.209-28.708 31.002-28.708 31.002s8.525 9.833 4.379 20.02c-4.154 10.186-12.494 8.038-16.913 3.605-4.419-4.434-2.177-14.178 4.933-11.531 2.949-3.661-3.8-11.329-8.605-6.847-4.804 4.481-11.754 16.784-1.896 26.866 9.867 10.091 18.158 7.966 20.336 5.037 2.177-2.928-.876-11.627 5.777-10.283 6.652 1.344 9.432 9.954 6.395 17.952s-14.462 19.576-28.997 14.193c15.74 17.944 18.6 30.923 10.26 44.312s-25.686 4.297-26.554-6.534c-.868-10.822 13.691-12.882 14.671-6.002.98 6.871-6.315 7.273-6.315 7.273s9.32 6.808 12.968-3.451c3.648-10.26-.08-24.494-24.265-44.014-23.172-18.708-2.37-51.481 18.4-59.575 25.277-9.849 41.555-21.026 34.661-34.471z"
        class="accent"/>
    <path
        d="m303.026 174.156c6.492 8.473 2.273 19.408 2.273 19.408s1.792 10.267-7.416 9.905c-9.207-.362-12.477 6.502-12.477 6.502s-3.351-10.887 4.025-18.443c7.376-7.555 11.072-4.353 13.595-17.372z"
        class="accent"/>
    <path
        d="m330.182 142.485c8.943-4.603 8.71-19.416.731-23.994-7.978-4.579-16.358-.885-18.985 9.14-2.628 10.026 11.65 25.853-3.246 38.076 15.723-7.821 26.305-11.748 21.492-23.222z"
        class="accent"/>
    <path
        d="m261.197 274.133c5.392 12.721 22.232 15.127 17.13 24.123 1.728 6.759-3.567 14.982-9.039 14.113 2.258-19.215-14.309-24.107-8.091-38.236z"
        class="accent"/>
    <path
        d="m443.929 220.429c.868 11.096 16.856 5.955 14.092-3.089-2.763-9.045-19.202-16.286-29.021 7.684-9.81 23.97 5.311 41.954 5.311 41.954s-12.654 3.017-15.201 13.727c-2.547 10.701 5.479 13.815 11.65 12.793 6.171-1.03 10.019-10.251 2.692-12.254-.266-4.691 9.673-6.993 10.975-.547 1.294 6.445-.201 20.502-14.085 22.948s-19.395-4.112-19.46-7.765c-.064-3.653 7.473-8.939 1.286-11.731-6.187-2.793-13.458 2.582-15.643 10.862-2.186 8.28.369 24.348 15.322 28.452-23.237 5.407-33.103 14.29-34.115 30.037-1.013 15.747 18.383 18.475 25.381 10.179s-3.64-18.459-8.436-13.438c-4.797 5.021.907 9.6.907 9.6s-11.537.096-8.532-10.372 14.309-19.859 45.323-21.629c29.72-1.689 31.865-40.465 19.685-59.157-14.816-22.747-21.557-41.326-8.131-48.238z"
        class="accent"/>
    <path
        d="m464.634 226.145c-10.196 3.097-13.128 14.451-13.128 14.451s-7.432 7.298.273 12.375c7.697 5.077 6.363 12.569 6.363 12.569s9.055-6.896 7.449-17.34c-1.607-10.445-6.468-10.002-.949-22.055z"
        class="accent"/>
    <path
        d="m460.979 184.568c-4.596-8.955 4.218-20.864 13.353-19.93 9.136.933 13.812 8.818 10.116 18.498-3.696 9.688-24.506 14.218-19.508 32.845-8.236-15.529-14.559-24.895-3.969-31.413z"
        class="accent"/>
    <path
        d="m440.507 331.816c-11.779 7.202-26.868-.667-27.961 9.624-5.335 4.49-5.817 14.266-.86 16.744 9.337-16.937 25.647-11.248 28.813-26.36z"
        class="accent"/>
    <g>
        <path
            d="m399.682 134.456c-.129 0-.265-.025-.394-.065-.321-.112-7.85-2.728-12.446-5.825-.554-.371-.699-1.127-.321-1.674.37-.555 1.117-.7 1.671-.322 4.331 2.921 11.803 5.52 11.883 5.544.627.217.965.901.748 1.537-.169.499-.643.813-1.141.813z"/>
        <path
            d="m298.511 118.226c-.121 0-.249-.017-.37-.057-.635-.201-.98-.885-.779-1.521 4.628-14.427 12.044-29.1354 32.13-28.9986.667 0 1.205.5471 1.197 1.215 0 .6598-.546 1.1989-1.205 1.1989-.096 0-.209 0-.313 0-18.223 0-24.956 13.1237-29.511 27.3257-.161.515-.635.837-1.149.837z"/>
        <path
            d="m386.056 133.078c-.121 0-.249-.016-.37-.056l-8.91-2.865c-.482-.153-.82-.595-.836-1.11-.008-.258-1.06-25.636-14.117-30.8743-.618-.2494-.916-.9495-.667-1.569.249-.6196.948-.9173 1.567-.6679 13.217 5.3022 15.29 27.4542 15.579 32.1772l8.123 2.615c.635.201.981.885.78 1.521-.161.515-.635.837-1.149.837z"/>
        <path
            d="m302.608 363.195c-.249 0-.498-.08-.707-.233-16.728-12.19-31.07-33.336-39.345-58.03-8.091-24.14-9.457-48.351-3.745-66.415 6.661-21.065 16.487-35.79 25.157-48.777 6.452-9.664 12.028-18.016 14.904-26.98l12.293-38.324c3.174-9.898 13.795-15.353 23.67-12.183 9.874 3.179 15.33 13.816 12.156 23.705l-9.087 28.339 15.571 5.005c2.957.95 5.367 3.001 6.79 5.761 1.422 2.768 1.679 5.922.731 8.883l-57.231 178.404c-.12.371-.402.66-.771.781-.121.04-.249.056-.378.056zm26.482-249.429c-6.942 0-13.402 4.442-15.635 11.41l-12.293 38.325c-2.981 9.285-8.637 17.766-15.194 27.583-8.581 12.858-18.31 27.43-24.859 48.165-5.56 17.589-4.194 41.254 3.736 64.918 7.898 23.56 21.372 43.805 37.136 55.842l56.709-176.795c.755-2.349.546-4.844-.579-7.04-1.125-2.197-3.037-3.814-5.383-4.571l-16.712-5.375c-.305-.096-.554-.313-.707-.595-.145-.282-.177-.62-.072-.917l9.456-29.49c2.764-8.626-1.992-17.895-10.605-20.671-1.663-.531-3.351-.789-5.006-.789z"/>
        <path
            d="m292.878 338.904c-1.197 0-2.426-.153-3.68-.458-6.869-1.674-12.429-7.644-12.927-13.888-.531-6.639 4.226-10.67 9.199-11.225 4.146-.459 7.384 1.577 7.866 4.948.33 2.318-.128 4.257-1.366 5.762-.811.989-1.848 1.641-2.828 2.076 1.342.514 3.005.869 4.548.394 1.727-.539 3.069-2.1 3.969-4.643 4.282-12.061-3.752-26.416-23.887-42.67-8.316-6.719-11.867-15.755-10.26-26.142 2.233-14.444 14.96-30.029 28.981-35.493 20.456-7.974 31.825-15.594 34.741-23.294.997-2.639.989-5.254-.032-7.958-1.936 1.633-4.162 2.213-6.403 1.641-3.142-.796-5.834-3.83-6.557-7.362-.651-3.194.426-6.131 2.957-8.062 4.299-3.283 10.799-3.477 15.459-.443 3.704 2.406 9.352 8.835 5.568 24.855-5.094 21.548-22.377 29.369-27.889 31.349 2.266 3.194 6.975 11.321 3.496 19.858-2.29 5.617-5.681 7.379-8.115 7.87-4.235.853-8.34-1.441-10.759-3.871-2.892-2.904-3.495-7.982-1.35-11.329 1.447-2.253 3.849-3.146 6.565-2.494.393-1.296-.434-3.042-1.68-4.193-1.422-1.327-3.615-2.108-5.527-.329-2.346 2.196-6.364 7.611-6.508 14.016-.097 4.128 1.47 7.87 4.652 11.128 6.411 6.558 11.569 7.242 14.084 7.081 2.33-.161 3.809-1.094 4.419-1.923.555-.748.667-2.349.772-3.902.168-2.398.337-4.868 2.081-6.204 1.012-.772 2.41-.998 4.129-.644 2.869.58 5.287 2.422 6.814 5.19 2.201 3.991 2.378 9.366.474 14.379-3.206 8.449-13.579 18.45-26.659 15.98 13.683 16.68 15.989 29.611 7.818 42.734-2.949 4.732-7.256 7.266-12.165 7.266zm-6.291-23.214c-.281 0-.57.017-.852.049-3.703.41-7.496 3.291-7.062 8.633.41 5.166 5.287 10.316 11.096 11.732 5.319 1.304 10.148-.797 13.233-5.745 8.099-13.011 5.158-25.427-10.148-42.879-.361-.419-.402-1.022-.088-1.481.313-.458.892-.635 1.414-.45 13.835 5.125 24.706-6.252 27.454-13.486 1.631-4.297 1.503-9.028-.329-12.351-1.197-2.165-2.981-3.549-5.183-3.991-1.02-.201-1.759-.137-2.193.201-.876.668-1.012 2.671-1.133 4.45-.128 1.899-.265 3.862-1.245 5.173-1.205 1.626-3.528 2.704-6.195 2.889-2.925.201-8.886-.555-15.973-7.797-3.656-3.733-5.455-8.062-5.343-12.866.145-6.308 3.752-12.448 7.272-15.731 2.916-2.727 6.524-1.794 8.805.33 2.25 2.092 3.56 5.665 1.551 8.151-.321.403-.876.556-1.358.378-2.065-.764-3.688-.346-4.692 1.224-1.342 2.1-1.253 6.034 1.028 8.319 1.985 1.988 5.271 3.879 8.581 3.211 2.708-.547 4.853-2.704 6.364-6.413 3.824-9.39-4.09-18.684-4.17-18.772-.273-.314-.362-.748-.241-1.151.128-.402.45-.708.852-.812.216-.057 22.119-5.955 27.84-30.118 3.446-14.572-1.358-20.212-4.532-22.272-4.347-2.825-9.666-1.964-12.687.338-2.418 1.85-2.322 4.337-2.057 5.664.539 2.623 2.547 4.933 4.789 5.504 1.864.475 3.68-.282 5.271-2.173.257-.305.659-.466 1.06-.418.402.048.756.29.94.652 1.977 3.846 2.25 7.7.828 11.458-3.174 8.376-14.993 16.455-36.124 24.686-13.289 5.174-25.357 19.939-27.47 33.61-1.02 6.614-.225 16.133 9.392 23.897 21.019 16.97 29.311 32.234 24.643 45.358-1.173 3.299-3.037 5.367-5.536 6.139-4.427 1.368-9.079-1.971-9.272-2.116-.41-.298-.587-.829-.442-1.32.145-.49.578-.836 1.093-.861.024 0 2.868-.193 4.354-2.019.788-.966 1.069-2.269.836-3.879-.297-2.076-2.282-2.945-4.355-2.945z"/>
        <path
            d="m289.809 213.816s-.065 0-.097 0c-.49-.04-.916-.37-1.06-.845-.145-.474-3.471-11.667 4.314-19.641 2.531-2.591 4.677-3.983 6.396-5.101 3.407-2.213 5.287-3.436 6.878-11.659.088-.467.441-.837.907-.942.466-.104.941.064 1.23.443 6.283 8.199 3.222 18.337 2.555 20.268.16 1.248.498 5.633-2.009 8.505-1.534 1.763-3.808 2.591-6.701 2.479-8.251-.33-11.224 5.568-11.345 5.817-.201.419-.626.684-1.084.684zm18.166-33.915c-1.743 6.743-4.13 8.287-7.287 10.347-1.712 1.111-3.648 2.366-5.986 4.764-4.66 4.771-4.692 11.088-4.25 14.604 1.944-2.181 5.648-4.965 11.883-4.715 2.137.088 3.752-.467 4.78-1.65 2.129-2.43 1.406-6.799 1.398-6.847-.032-.217-.016-.435.065-.636.032-.096 3.165-8.489-.611-15.867z"/>
        <path
            d="m313.085 169.561c-.401 0-.787-.201-1.012-.555-.329-.515-.225-1.199.249-1.585 9.047-7.427 6.661-16.101 4.347-24.485-1.294-4.691-2.507-9.117-1.503-12.963 1.406-5.383 4.46-9.301 8.597-11.031 3.777-1.585 8.091-1.175 12.149 1.15 4.186 2.406 6.709 7.475 6.58 13.229-.12 5.342-2.499 9.872-6.411 12.343 3.896 10.846-5.617 15.513-18.633 21.886-1.237.603-2.515 1.231-3.824 1.883-.169.088-.354.128-.539.128zm15.411-49.155c-1.318 0-2.603.25-3.809.756-3.422 1.441-5.977 4.788-7.199 9.423-.843 3.218.298 7.338 1.495 11.707 1.856 6.743 4.089 14.838-.707 22.16 13.241-6.55 18.825-10.171 15.185-18.853-.241-.579 0-1.255.563-1.545 3.68-1.891 5.937-5.93 6.05-10.79.112-4.795-2.001-9.14-5.367-11.08-2.057-1.182-4.178-1.778-6.219-1.778z"/>
        <path
            d="m274.51 316.278c-.337 0-.675-.024-1.012-.08-.635-.105-1.085-.692-1.004-1.336 1.06-9.028-2.266-14.846-5.199-19.979-3.189-5.576-6.21-10.847-2.796-18.604.193-.442.603-.74 1.109-.724.482 0 .916.29 1.101.733 2.298 5.423 6.813 8.891 10.79 11.948 4.821 3.702 9.377 7.202 6.508 12.826.86 4.104-.49 8.932-3.43 12.166-1.808 1.988-3.929 3.05-6.059 3.05zm-8.717-36.45c-1.342 5.262.876 9.133 3.583 13.864 2.981 5.206 6.34 11.08 5.633 20.148 1.687-.209 3.045-1.424 3.776-2.229 2.499-2.744 3.631-7.024 2.772-10.412-.081-.306-.032-.619.12-.893 2.194-3.87-.289-6.019-5.648-10.138-3.399-2.616-7.512-5.77-10.228-10.332z"/>
        <path
            d="m508.487 154.788c-15.499 0-29.712-10.066-30.339-10.516-.426-.306-.603-.853-.442-1.352 10.662-33.24-6.484-66.4147-39.876-77.1566-16.431-5.2864-33.416-3.9588-47.838 3.7255-13.988 7.459-24.449 20.1481-29.447 35.7341-.161.499-.627.837-1.149.837-.803 0-19.869-.121-32.532-10.4928-.386-.3138-.538-.8288-.386-1.3035 7.223-22.5299 24.04-42.3963 46.135-54.5061 23.654-12.9627 50.626-15.618 75.959-7.467 25.334 8.1509 45.717 26.038 57.408 50.3782 10.911 22.7312 13.032 48.6882 5.801 71.2182-.153.475-.579.805-1.069.837-.739.048-1.478.072-2.209.072zm-28.218-11.989c3.15 2.076 16.142 10.05 29.455 9.551 6.741-21.765 4.588-46.725-5.93-68.6351-11.393-23.7288-31.27-41.1813-55.969-49.1231-53.711-17.2836-104.57 16.7767-118.8 59.6236 10.51 8.1426 25.735 9.2616 29.503 9.4146 5.295-15.7954 16.038-28.6535 30.331-36.2653 15.001-7.9981 32.653-9.3821 49.71-3.8945 17.058 5.4876 30.596 16.9054 38.141 32.1533 7.183 14.5235 8.436 31.2445 3.559 47.1675z"/>
        <path
            d="m440.208 154.588c-.056 0-.112 0-.168-.016-.129-.016-13.145-1.907-28.507-6.848-15.362-4.94-27.037-10.999-27.157-11.056-.506-.265-.763-.852-.603-1.408.064-.225 1.623-5.6 2.611-8.143.989-2.518 9.947-11.104 32.942-3.709 22.996 7.395 25.285 19.601 24.618 22.232-.666 2.647-2.53 7.918-2.611 8.143-.169.491-.634.805-1.133.805zm-27.936-9.157c12.751 4.104 23.855 6.075 27.133 6.606.57-1.658 1.735-5.093 2.218-6.984.433-1.714-1.969-12.561-23.02-19.336-21.058-6.775-29.318.644-29.961 2.294-.707 1.818-1.759 5.286-2.258 6.968 2.973 1.48 13.145 6.356 25.896 10.452z"/>
        <path
            d="m442.788 146.548s-.024 0-.032 0c-5.536-.153-13.177-2.422-13.507-2.518-.634-.193-1.004-.861-.811-1.505.193-.636.86-.998 1.502-.813.073.025 7.665 2.278 12.88 2.422.667.016 1.189.572 1.173 1.24-.016.651-.554 1.174-1.205 1.174z"/>
        <path
            d="m356.432 403.733c-10.678 0-21.115-1.593-31.11-4.803-31.898-10.259-57.825-36.603-73.011-74.172-12.646-31.292-16.31-68.072-9.336-93.7 8.645-31.751 22.481-50.507 32.58-64.202 5.416-7.338 9.69-13.139 11.45-18.611l9.143-28.5c4.676-14.572 20.32-22.6264 34.87-17.943l14.76 4.747c14.165 4.562 22.16 19.528 18.255 33.771l80.193 25.796c2.411-6.542 7.103-11.86 13.33-15.063 6.588-3.387 14.092-4.007 21.147-1.738l14.759 4.748c14.551 4.683 22.594 20.349 17.918 34.921l-9.144 28.5c-1.751 5.472-1.647 12.681-1.518 21.806.249 17.018.586 40.336-10.847 71.194-9.232 24.904-33.601 52.664-62.076 70.728-23.477 14.885-47.99 22.521-71.379 22.521zm-30.371-7.105c31.207 10.042 66.88 3.839 100.465-17.452 28.065-17.799 52.048-45.084 61.111-69.529 11.281-30.431 10.943-53.484 10.694-70.317-.136-9.342-.241-16.728 1.631-22.578l9.144-28.5c4.266-13.309-3.069-27.615-16.359-31.888l-14.759-4.747c-6.436-2.068-13.298-1.505-19.307 1.585-6.018 3.098-10.462 8.352-12.534 14.797-.097.306-.314.555-.595.708s-.619.169-.916.072l-82.443-26.52c-.306-.097-.555-.314-.707-.596-.145-.281-.177-.619-.073-.917 4.267-13.309-3.069-27.615-16.358-31.888l-14.76-4.747c-13.289-4.2808-27.574 3.074-31.841 16.382l-9.143 28.5c-1.872 5.85-6.259 11.788-11.803 19.304-9.987 13.542-23.67 32.081-32.195 63.397-6.845 25.153-3.222 61.321 9.24 92.163 14.912 36.893 40.31 62.746 71.516 72.78z"/>
        <path
            d="m450.38 153.774c-.12 0-.249-.016-.369-.056l-8.919-2.865c-.634-.201-.98-.885-.779-1.52.201-.636.884-.982 1.518-.781l8.124 2.615c2.98-3.669 17.547-20.47 31.383-17.066.642.161 1.044.812.884 1.456-.161.644-.812 1.046-1.455.885-13.659-3.347-29.27 16.664-29.431 16.865-.233.306-.586.467-.956.467z"/>
        <path
            d="m365.262 383.352c-.385 0-.747-.185-.972-.491-.233-.314-.297-.716-.177-1.086l57.231-178.404c.948-2.961 2.997-5.375 5.761-6.799 2.764-1.425 5.913-1.682 8.87-.733l15.571 5.005 9.087-28.339c3.174-9.897 13.788-15.361 23.67-12.182 4.789 1.537 8.686 4.852 10.983 9.334 2.298 4.473 2.716 9.583 1.182 14.378l-12.293 38.325c-2.877 8.964-3.198 18.998-3.576 30.625-.506 15.618-1.076 33.32-7.922 54.329-5.865 18.016-21.051 36.9-41.668 51.802-21.082 15.248-45.042 24.075-65.731 24.228h-.008zm67.154-185.646c-3.897 0-7.529 2.495-8.782 6.405l-56.709 176.795c19.814-.596 42.544-9.189 62.662-23.737 20.207-14.612 35.08-33.054 40.792-50.595 6.733-20.688 7.304-38.205 7.802-53.654.385-11.804.715-21.998 3.688-31.284l12.293-38.325c1.341-4.176.972-8.634-1.029-12.536-2-3.902-5.407-6.791-9.577-8.135-8.613-2.768-17.869 1.996-20.641 10.621l-9.457 29.49c-.096.306-.313.555-.594.708-.282.145-.619.169-.916.073l-16.712-5.375c-.932-.298-1.88-.443-2.812-.443z"/>
        <path
            d="m381.877 232.251c-.988 0-1.976-.153-2.948-.467-5.038-1.617-7.818-7.041-6.203-12.086.787-2.446 2.475-4.433 4.748-5.608 2.282-1.175 4.877-1.384 7.32-.603 2.442.788 4.427 2.478 5.6 4.755 1.173 2.285 1.382 4.884.603 7.33-.788 2.446-2.475 4.434-4.749 5.609-1.374.708-2.868 1.07-4.371 1.07zm-2.209-2.76c1.824.587 3.776.426 5.479-.451 1.704-.877 2.973-2.365 3.56-4.2.586-1.827.426-3.782-.45-5.488-.876-1.705-2.37-2.977-4.194-3.564-1.824-.588-3.777-.427-5.48.45s-2.973 2.366-3.559 4.201c-1.213 3.773.868 7.837 4.644 9.052z"/>
        <path
            d="m333.364 383.426c-.972 0-1.952-.145-2.924-.458-2.443-.789-4.427-2.479-5.601-4.756-1.173-2.285-1.381-4.884-.602-7.33.787-2.446 2.475-4.434 4.748-5.608 2.282-1.175 4.877-1.384 7.32-.604 5.038 1.617 7.818 7.041 6.203 12.086-1.31 4.071-5.086 6.67-9.144 6.67zm-2.193-2.76c3.768 1.215 7.825-.869 9.039-4.65 1.213-3.774-.868-7.838-4.644-9.053-1.824-.587-3.777-.426-5.48.451s-2.973 2.366-3.559 4.2c-.587 1.835-.426 3.782.45 5.488.875 1.706 2.362 2.977 4.194 3.564z"/>
        <path
            d="m343.938 402.928c-.12 0-.249-.016-.369-.056-.635-.201-.981-.885-.78-1.521l22.891-71.371c.08-.258.249-.475.474-.628.112-.072 11.264-7.821 16.527-24.22 5.303-16.535 3.045-31.461 3.021-31.606-.032-.185-.016-.378.04-.555l18.375-57.29c.82-2.551.595-5.262-.626-7.644s-3.294-4.144-5.841-4.957l-17.243-5.544c-5.246-1.689-10.895 1.215-12.582 6.478l-18.375 57.29c-.056.177-.161.346-.289.475-.105.104-10.622 10.919-15.933 27.454-5.279 16.447-.691 29.2-.651 29.321.097.249.097.531.016.788l-22.89 71.372c-.201.635-.876.981-1.519.78-.635-.201-.98-.885-.779-1.521l22.77-70.985c-.788-2.398-4.307-14.725.755-30.495 5.142-16.021 14.736-26.553 16.302-28.203l18.295-57.025c2.097-6.525 9.103-10.13 15.611-8.03l17.243 5.544c3.157 1.014 5.728 3.203 7.247 6.156s1.792 6.324.779 9.486l-18.286 57.025c.313 2.253 1.992 16.414-3.15 32.435-5.062 15.771-15.089 23.737-17.122 25.225l-22.77 70.985c-.161.515-.635.837-1.149.837z"/>
        <path
            d="m353.958 342.701c-.121 0-.25-.016-.37-.056l-17.789-5.721c-.634-.201-.98-.885-.779-1.521l11.674-36.402c-3.278-4.643-4.121-10.557-2.241-15.948 3.013-8.658 12.309-13.566 21.131-11.176 4.692 1.271 8.549 4.313 10.862 8.577 2.314 4.265 2.772 9.157 1.294 13.784-1.687 5.262-5.761 9.414-10.967 11.224l-11.675 36.402c-.16.515-.634.837-1.148.837zm-16.271-7.708 15.491 4.98 11.498-35.838c.12-.378.418-.668.795-.781 4.741-1.464 8.477-5.141 9.987-9.856 1.278-3.983.884-8.208-1.117-11.893-2-3.677-5.327-6.308-9.376-7.403-7.617-2.06-15.627 2.173-18.223 9.64-1.679 4.82-.835 10.13 2.258 14.202.241.314.306.724.185 1.102l-11.498 35.839z"/>
        <path
            d="m396.501 372.104c-2.242 0-4.524-.41-6.645-1.271-6.114-2.462-9.368-7.853-8.918-14.781.988-15.433 10.38-24.598 31.206-30.174-12.076-5.624-14.687-19.802-12.381-28.54 1.366-5.182 4.636-9.455 8.741-11.41 2.853-1.36 5.89-1.448 8.557-.241 1.607.724 2.612 1.713 2.981 2.936.643 2.101-.659 4.209-1.92 6.252-.812 1.328-1.655 2.696-1.639 3.621.016 1.03.683 2.656 2.483 4.144 1.944 1.601 6.548 4.048 15.563 2.462 4.475-.788 7.93-2.92 10.252-6.324 3.607-5.295 3.495-12.037 2.86-15.192-.514-2.558-2.764-3.194-4.684-2.953-1.679.218-3.367 1.143-3.8 2.43 2.587 1.054 4.017 3.179 3.888 5.85-.201 3.975-3.647 7.749-7.689 8.425-3.382.563-8.051.04-10.999-3.13-1.696-1.827-3.431-5.231-2.025-11.129 2.137-8.971 10.686-12.833 14.39-14.105-3.326-4.82-12.823-21.258-4.435-41.744 6.235-15.232 14.559-17.163 18.978-16.954 5.552.257 10.726 4.2 12.309 9.374.932 3.05.096 6.067-2.29 8.28-2.644 2.454-6.589 3.339-9.61 2.164-2.161-.845-3.631-2.615-4.25-5.069-2.402 1.601-3.929 3.725-4.652 6.453-2.105 7.966 2.7 20.792 14.695 39.202 8.22 12.617 9.497 32.709 2.917 45.752-4.732 9.382-12.871 14.66-23.541 15.264-25.824 1.472-40.704 8.456-44.231 20.759-.747 2.591-.562 4.643.53 6.091.972 1.288 2.539 1.972 3.929 2.334-.554-.926-1.012-2.06-1.093-3.339-.128-1.948.627-3.79 2.242-5.48 2.354-2.47 6.171-2.237 9.272.563 3.72 3.356 5.247 9.406.956 14.492-2.724 3.234-7.255 5.013-11.939 5.013zm16.623-84.857c-1.173 0-2.386.29-3.583.861-3.423 1.634-6.275 5.408-7.448 9.849-1.977 7.483.249 23.077 14.478 26.98.53.144.9.635.884 1.191-.008.555-.394 1.029-.932 1.15-22.585 5.254-32.203 13.639-33.183 28.943-.37 5.817 2.33 10.331 7.416 12.383 5.552 2.237 12.51.893 15.844-3.065 3.455-4.096 2.049-8.642-.723-11.137-1.759-1.585-4.274-2.413-5.921-.683-1.125 1.182-1.656 2.405-1.575 3.653.152 2.325 2.346 4.152 2.362 4.168.402.321.554.853.386 1.335-.169.483-.619.805-1.125.813-.257 0-5.97 0-8.774-3.685-1.583-2.084-1.896-4.852-.932-8.224 3.841-13.397 19.46-20.96 46.416-22.497 12.333-.7 18.512-7.974 21.525-13.945 6.227-12.343 5.005-31.389-2.788-43.345-12.39-19.014-17.299-32.476-15.009-41.141 1.028-3.887 3.495-6.856 7.336-8.835.361-.185.787-.177 1.141.016.353.193.578.555.61.957.193 2.47 1.238 4.144 3.021 4.844 2.154.845 5.134.137 7.095-1.682.988-.917 2.515-2.888 1.623-5.801-1.109-3.629-4.941-7.435-10.108-7.676-3.776-.169-10.967 1.601-16.639 15.465-9.409 22.98 4.965 40.546 5.118 40.715.265.321.353.756.217 1.15-.129.394-.458.7-.86.797-.121.032-11.972 2.993-14.31 12.834-.932 3.902-.442 6.903 1.438 8.923 2.298 2.47 6.075 2.857 8.838 2.398 3.19-.531 5.552-3.677 5.681-6.164.096-1.858-.98-3.154-3.101-3.733-.499-.137-.86-.579-.884-1.094-.177-3.195 2.956-5.335 6.002-5.721 3.085-.403 6.564.957 7.351 4.868.948 4.723.314 11.82-3.238 17.026-2.707 3.967-6.684 6.437-11.827 7.346-9.971 1.754-15.257-1.11-17.515-2.977-2.065-1.706-3.318-3.935-3.359-5.962-.032-1.642 1.005-3.316 2.001-4.933.932-1.513 1.985-3.226 1.663-4.272-.16-.532-.723-1.014-1.671-1.441-.94-.426-1.936-.635-2.949-.635z"/>
        <path
            d="m462.537 269.391c-.217 0-.434-.057-.627-.177-.425-.258-.642-.757-.554-1.24.048-.273 1.069-6.791-5.841-11.345-2.435-1.601-3.776-3.597-4.001-5.922-.37-3.798 2.458-7.161 3.318-8.087.578-1.955 3.985-11.981 13.86-14.982.45-.137.948 0 1.261.362.313.354.386.869.185 1.296-3.487 7.611-2.668 9.695-1.189 13.485.747 1.915 1.679 4.297 2.233 7.878 1.696 11.031-7.52 18.184-7.914 18.482-.217.161-.474.25-.731.25zm4.25-38.39c-7.351 3.798-9.697 12.448-9.722 12.545-.056.209-.168.402-.321.555-.032.032-3.158 3.17-2.836 6.381.153 1.561 1.141 2.953 2.933 4.127 5.198 3.428 6.604 7.862 6.917 10.766 2.403-2.599 6.05-7.748 5.038-14.346-.506-3.315-1.35-5.464-2.097-7.363-1.374-3.516-2.41-6.163.088-12.665z"/>
        <path
            d="m469.351 219.825c-.434 0-.852-.233-1.069-.643-.691-1.296-1.358-2.551-2.009-3.766-6.869-12.778-11.891-22.112-2.418-28.661-1.744-4.289-1.045-9.358 1.968-13.776 3.238-4.755 8.244-7.41 13.041-6.911 4.652.474 8.404 2.655 10.549 6.147 2.354 3.822 2.555 8.787.571 13.985-1.415 3.709-4.982 6.598-8.758 9.655-6.757 5.472-13.747 11.128-10.71 22.441.16.596-.153 1.215-.723 1.441-.145.056-.298.08-.442.08zm8.404-51.4c-3.616 0-7.44 2.245-9.939 5.922-2.74 4.023-3.246 8.618-1.358 12.303.289.563.097 1.247-.442 1.577-8.01 4.933-5.576 11.136 1.382 24.18.362-8.747 6.878-14.025 12.309-18.427 3.519-2.848 6.838-5.536 8.027-8.641 1.711-4.474 1.575-8.691-.37-11.853-1.743-2.832-4.845-4.618-8.741-5.013-.29-.032-.571-.04-.86-.04z"/>
        <path
            d="m416.089 362.031c-.185 0-.362-.041-.539-.129-2.233-1.119-3.655-3.436-4.025-6.534-.514-4.353 1.197-9.06 4.282-11.892.933-6.244 6.677-6.429 12.751-6.631 5.014-.16 10.703-.346 15.724-3.419.41-.25.932-.234 1.326.048s.586.764.482 1.231c-1.735 8.296-7.255 10.822-13.096 13.494-5.368 2.454-11.458 5.246-15.845 13.204-.217.394-.634.628-1.052.628zm26.876-25.202c-4.869 2.125-10.044 2.294-14.326 2.43-6.757.218-10.019.523-10.493 4.949-.033.314-.185.595-.426.796-2.676 2.253-4.235 6.397-3.801 10.083.129 1.078.531 2.856 1.776 4.015 4.7-7.781 10.847-10.597 16.294-13.092 4.95-2.269 9.007-4.119 10.976-9.181z"/>
        <path
            d="m361.108 404.296c-12.333 0-24.185-1.794-35.778-5.367-.635-.193-.997-.869-.796-1.504.193-.636.876-.99 1.503-.797 32.725 10.074 67.675 5.729 110.002-13.663 42.993-19.705 63.184-56.324 67.402-81.694 2.563-15.401 2.812-31.252 3.029-45.237.209-13.277.386-24.743 2.354-33.658.779-3.532 2.025-7.789 3.463-12.713 6.058-20.728 14.358-49.115-.956-60.131-.538-.386-.667-1.142-.273-1.681.385-.54 1.141-.668 1.679-.274 16.696 12.013 8.123 41.35 1.864 62.77-1.43 4.884-2.659 9.1-3.423 12.552-1.92 8.682-2.097 20.035-2.298 33.175-.225 14.065-.474 30.013-3.061 45.591-4.322 25.957-24.923 63.397-68.776 83.489-27.969 12.818-52.804 19.142-75.927 19.142z"/>
        <path
            d="m145.49 239.266c-.892 0-1.775-.241-2.555-.708l-16.189-9.72c-1.141-.684-1.953-1.778-2.274-3.082-.322-1.303-.129-2.647.554-3.789l75.051-125.3628c.683-1.1426 1.776-1.9553 3.078-2.2771 1.301-.3299 2.643-.1288 3.784.5552l16.19 9.7197c2.362 1.424 3.133 4.506 1.719 6.872l-75.051 125.37c-.683 1.143-1.776 1.956-3.077 2.277-.41.105-.82.153-1.23.153zm58.894-142.6779c-.209 0-.426.0241-.643.0804-.675.169-1.237.5874-1.591 1.1748l-75.051 125.3707c-.353.587-.458 1.287-.289 1.963s.586 1.239 1.173 1.593l16.19 9.72c.586.354 1.285.459 1.96.29s1.237-.587 1.591-1.175l75.051-125.362c.731-1.223.338-2.825-.892-3.557l-16.189-9.7197c-.402-.2414-.86-.3702-1.318-.3702z"/>
        <path
            d="m145.073 249.325c-1.013 0-2.009-.274-2.893-.805l-23.838-14.314c-1.294-.781-2.21-2.02-2.58-3.492-.369-1.473-.144-3.002.635-4.297.771-1.296 2.017-2.213 3.487-2.583 1.471-.37 2.997-.145 4.291.636l23.838 14.314c2.676 1.609 3.552 5.101 1.945 7.789-.772 1.295-2.017 2.213-3.487 2.583-.466.113-.932.177-1.398.177zm-23.807-23.246c-.265 0-.538.032-.803.096-.844.21-1.559.741-2.001 1.481s-.57 1.617-.362 2.47c.209.845.74 1.561 1.479 2.004l23.839 14.314c.739.443 1.615.572 2.466.362.844-.209 1.559-.74 2.001-1.48.924-1.545.418-3.549-1.117-4.474l-23.839-14.314c-.506-.306-1.076-.459-1.663-.459z"/>
        <path
            d="m140.485 256.986c-1.012 0-2.008-.274-2.892-.805l-23.839-14.315c-2.675-1.609-3.551-5.101-1.944-7.788 1.607-2.68 5.094-3.557 7.777-1.948l23.839 14.315c2.676 1.609 3.551 5.101 1.944 7.789-.771 1.295-2.016 2.212-3.487 2.583-.466.112-.932.177-1.39.177zm-23.814-23.246c-1.109 0-2.186.563-2.796 1.585-.924 1.545-.418 3.548 1.116 4.473l23.839 14.315c.739.443 1.615.571 2.467.362.843-.209 1.559-.74 2-1.48.924-1.545.418-3.549-1.116-4.474l-23.839-14.315c-.522-.314-1.101-.466-1.671-.466z"/>
        <path
            d="m65.4336 350.843c-.2089 0-.4259-.056-.6187-.169-11.4573-6.879-17.8208-16.092-17.9091-25.941-.0804-8.98 5.0457-17.775 13.8034-23.85-9.1434-5.946-14.39-13.517-15.5952-22.521-1.3016-9.728 2.4506-18.491 5.8251-24.131 8.589-14.347 28.3542-15.852 41.4265-8.256 11.2164 6.518 20.6494-5.375 21.0424-5.89.41-.523 1.165-.62 1.688-.209.522.41.618 1.167.217 1.69-.113.144-11.104 14.081-24.1606 6.493-12.0841-7.016-30.2905-5.713-38.1484 7.411-3.9289 6.557-14.7756 29.144 10.5495 44.351.3615.218.5785.604.5865 1.022 0 .419-.2089.813-.5704 1.038-9.0149 5.633-14.3418 14.17-14.2695 22.828.0562 6.348 3.0049 15.65 16.7361 23.889.5704.346.7552 1.087.4097 1.658-.2249.378-.6266.587-1.0364.587z"/>
        <path
            d="m113.449 270.639c-.209 0-.426-.056-.619-.169l-9.939-5.97c-.386-.233-.611-.66-.587-1.111.025-.45.306-.844.724-1.029l18.294-7.99c.611-.266 1.318.016 1.583.627.265.612-.016 1.32-.626 1.585l-16.15 7.049 7.93 4.763c.571.346.755 1.087.41 1.658-.225.378-.627.587-1.037.587z"/>
        <path
            d="m96.2781 299.323c-.2089 0-.4258-.056-.6187-.169-9.1273-5.479-9.0952-12.93-6.0099-18.072 2.5631-4.272 9.6657-8.658 18.7525-3.202.571.346.756 1.086.41 1.657-.345.572-1.077.757-1.655.419-8.1632-4.901-13.6669-.588-15.4426 2.373-1.5426 2.575-4.1217 9.173 5.1824 14.757.5704.346.7552 1.087.4097 1.658-.2249.378-.6267.587-1.0364.587z"/>
        <path
            d="m73.6046 291.086c-4.9895 0-9.4648-2.326-12.6786-6.687-4.7003-6.38-5.4395-15.473-1.7596-21.62 3.8566-6.445 10.437-10.646 17.1619-10.959 4.9253-.226 12.2368 1.464 19.1144 10.846.2009.274.2812.62.2089.958-.0643.338-.2732.627-.5705.796-12.2287 7.202-17.2985 14.87-16.4227 24.872.0482.595-.3375 1.134-.916 1.279-1.406.346-2.796.515-4.1458.515zm3.5674-36.877c-.2411 0-.4901 0-.7312.016-5.9295.282-11.7627 4.032-15.2095 9.793-3.2058 5.351-2.5148 13.317 1.631 18.949 1.9524 2.655 6.2269 6.767 13.3295 5.472-.4902-10.074 4.7886-18.193 16.5111-25.403-4.5797-5.793-9.9147-8.827-15.5229-8.827z"/>
        <path
            d="m70.5196 342.349c-.2089 0-.4258-.056-.6187-.168-6.2348-3.742-10.1316-8.047-11.5859-12.786-1.2936-4.225-.5785-8.795 2.0649-13.22 2.9567-4.941 6.5563-8.208 10.7102-9.728 5.3912-1.972 11.5537-.91 18.3108 3.146.5705.346.7553 1.086.4098 1.657-.3455.572-1.0847.757-1.6551.419-6.1063-3.669-11.5699-4.659-16.246-2.953-3.6156 1.319-6.8053 4.248-9.4728 8.698-2.322 3.878-2.9327 7.668-1.8319 11.273 1.2694 4.152 4.8127 7.99 10.5173 11.418.5704.346.7552 1.086.4098 1.657-.225.378-.6267.587-1.0365.587z"/>
        <path
            d="m84.8136 356.962c-6.2349 0-13.0563-2.108-19.9982-6.285-.5705-.346-.7553-1.086-.4098-1.657s1.0847-.756 1.6552-.418c13.7311 8.239 23.3084 6.469 28.9246 3.524 7.6646-4.015 12.6706-12.746 13.3856-23.359.032-.418.273-.796.643-.989.369-.194.819-.186 1.181.032 25.325 15.207 40.109-5.021 44.038-11.579 7.858-13.124.417-29.82-11.45-37.19-12.823-7.958-5.736-24.236-5.664-24.405.273-.611.98-.877 1.591-.611.61.273.876.981.61 1.593-.265.587-6.299 14.523 4.733 21.363 12.847 7.966 20.834 26.134 12.253 40.481-3.375 5.641-9.329 13.083-18.512 16.519-8.501 3.179-17.636 2.116-27.181-3.162-1.222 10.597-6.557 19.271-14.5028 23.431-3.4307 1.794-7.2311 2.688-11.2806 2.688z"/>
        <path
            d="m123.388 276.608c-.217 0-.426-.056-.619-.169l-9.939-5.971c-.57-.346-.755-1.086-.41-1.657.346-.571 1.077-.756 1.655-.418l7.939 4.763-1.398-17.589c-.057-.668.441-1.248 1.108-1.296.659-.064 1.246.443 1.294 1.111l1.583 19.922c.032.451-.185.885-.563 1.119-.192.12-.417.185-.634.185z"/>
        <path
            d="m104.377 301.914c-2.555 0-5.4716-.804-8.7257-2.76-.5704-.346-.7552-1.086-.4097-1.657s1.0766-.756 1.6551-.418c9.3123 5.592 13.9003.201 15.4423-2.374 1.776-2.961 2.973-9.865-5.182-14.757-.571-.346-.755-1.086-.41-1.658.346-.571 1.085-.756 1.655-.418 9.087 5.455 8.573 13.799 6.01 18.072-1.984 3.315-5.407 5.962-10.027 5.962z"/>
        <path
            d="m127.935 323.093c-.972 0-1.952-.073-2.916-.209-6.806-.998-11.675-5.351-13.362-11.957-.144-.58.145-1.175.691-1.408 9.224-3.943 13.595-12.03 14.165-26.224.016-.338.169-.659.434-.877.265-.217.603-.313.94-.265 11.506 1.657 16.439 7.322 18.56 11.78 2.893 6.091 2.29 13.88-1.567 20.325-3.23 5.391-10.043 8.843-16.953 8.843zm-13.667-11.796c2.202 6.879 7.834 8.714 11.096 9.197 6.918 1.014 14.254-2.141 17.459-7.491 3.447-5.762 4.01-12.673 1.455-18.048-2.531-5.327-7.842-8.835-15.419-10.211-.819 13.751-5.487 22.232-14.591 26.553z"/>
        <path
            d="m83.5994 346.668c-4.1218 0-8.7176-1.504-13.699-4.497-.5705-.346-.7553-1.087-.4098-1.658s1.0847-.756 1.6551-.418c5.7046 3.427 10.7584 4.739 15.0167 3.91 3.696-.724 6.7411-3.049 9.0631-6.928 2.6675-4.449 3.7441-8.642 3.1978-12.464-.6991-4.932-4.1459-9.293-10.2522-12.954-.5705-.346-.7553-1.087-.4098-1.658s1.0847-.756 1.6551-.418c6.7572 4.055 10.5976 9.004 11.4016 14.692.618 4.386-.563 9.109-3.5196 14.049-2.6434 4.426-6.3393 7.21-10.67 8.055-.9722.193-1.9845.289-3.021.289z"/>
        <path
            d="m245.289 161.482c-.217 0-.434-.057-.619-.169l-8.621-5.174c-.571-.346-.755-1.086-.41-1.658l5.102-8.521-9.103-5.463-5.102 8.521c-.346.571-1.085.756-1.655.418l-8.115-4.876-3.439 5.745c-.337.572-1.085.757-1.655.419-.571-.346-.755-1.087-.41-1.658l4.058-6.783c.16-.273.433-.475.739-.547.305-.081.634-.032.916.137l8.115 4.876 5.102-8.521c.345-.572 1.084-.757 1.655-.419l11.176 6.711c.57.346.755 1.086.41 1.658l-5.102 8.521 6.556 3.934 10.204-17.05-27.318-16.398-5.078 8.48c-.345.572-1.084.757-1.655.419l-8.179-4.908c-.571-.346-.755-1.087-.41-1.658.346-.571 1.077-.756 1.655-.418l7.151 4.288 5.078-8.481c.346-.571 1.085-.756 1.655-.418l29.383 17.638c.57.346.755 1.086.41 1.657l-11.442 19.118c-.16.274-.434.475-.739.548-.096.024-.193.032-.289.032z"/>
        <path
            d="m225.724 194.168c-.217 0-.434-.056-.618-.169l-29.383-17.637c-.273-.161-.474-.435-.546-.741-.073-.305-.033-.635.136-.917l5.078-8.481-7.151-4.289c-.57-.346-.755-1.086-.41-1.657.346-.571 1.085-.756 1.656-.419l8.179 4.909c.273.161.474.434.546.74s.032.636-.136.917l-5.078 8.481 27.317 16.399 10.204-17.051-6.556-3.934-5.102 8.521c-.161.273-.434.475-.739.547-.313.08-.635.032-.916-.137l-11.176-6.71c-.571-.346-.755-1.087-.41-1.658l5.102-8.521-8.115-4.876c-.57-.346-.755-1.086-.41-1.658l4.058-6.783c.345-.571 1.084-.756 1.655-.418.57.346.755 1.086.41 1.657l-3.439 5.745 8.115 4.876c.273.161.474.435.546.741.073.306.032.635-.136.917l-5.102 8.521 9.103 5.464 5.102-8.521c.345-.572 1.076-.757 1.655-.419l8.621 5.174c.273.161.474.434.546.74.081.314.033.636-.136.917l-11.441 19.119c-.161.273-.434.474-.74.547-.096.024-.192.032-.289.032z"/>
    </g>
</svg>
