<svg fill="none" height="99" viewBox="0 0 149 99" width="149" xmlns="http://www.w3.org/2000/svg" xmlns:xlink="http://www.w3.org/1999/xlink"><clipPath id="a"><path d="m0 0h148.84v98.432h-148.84z"/></clipPath><g clip-path="url(#a)"><path d="m83.9681 2.2398c-11.744 3.176-18.808 14.84-18.952 17.808s-1.736 3.576-4.336 8.984-5.7839 7.032-3.7599 11.352 5.1839 6.12 4.4959 10.64 1.7201 9.488 3.1681 12.28 1.272 2.616 3.312 7.04 2.3519 7.016 5.2639 9.048 3.768 3.392 7.208 5.096 5.736 5.448 11.92 5.84 9.6879 1.352 14.4079 1.352 7.76.88 13.832-.72 9.104-1.736 11.128-5.496 2.168-5.384 5.208-7.896 9.248-18.064 10.12-21.2-.72-8.968-.72-11.76 2.168-8.144.72-12.192-6.216-6.552-6.792-8.912.144-2.12-4.624-7.52-4.52-7.04-8.672-8.288-17.776-5.688-19.512-5.008-14.9998-2.7119995-23.3999-.44z" fill="#f9322c"/><g fill="#f4f4f5"><path d="m96.8158 98.424c-1.472 0-7.648-.992-12.176-1.896-11.888-2.376-12.664-3.848-13.04-4.56-.928-1.752-4.656-4.728-7.128-6.704-.896-.72-1.672-1.336-2.248-1.84-2.4-2.08-6.2-7.256-7.064-9.328-.408-.992-.616-1.864-.808-2.712-.184-.8-.36-1.552-.704-2.304-.144-.312-.32-.64-.52-1.008-.88-1.624-2.208-4.088-2.344-8.176-.224-7.032-.704-13.472-1.064-14.456-.608-1.04-.28-3.48.976-7.256l.112-.328c1.48-4.344 1.728-5.952 1.672-6.536-.192-2.136 1.216-6.6 4.376-9.432 2.912-2.608 4.712-5.064 6.08-7.128.84-1.256 2.112-1.816 3.352-2.352 1.512-.656 3.072-1.336 4.272-3.40798 1.688-2.912 9.696-6.008 12.592-6.752 1.592-.408 2.28-.36 2.752-.128 1.6.304 12.24-1.256 15.7522-1.968 3.072-.624 16.328.584 24.664 7.936l.4.36c7.208 6.35998 7.312 6.47198 11.064 11.61598l.344.48c.648.888 1.24 1.688 1.792 2.432 3.048 4.112 4.72 6.376 4.872 8.928.144 2.448 1.816 8.224 3.304 12.544 1.728 5.016.016 10.416-.912 13.32-.208.64-.408 1.328-.632 2.056-.944 3.16-2.128 7.096-4.632 12.504-3.16 6.816-5.16 8.488-8.08 10.432-1.56 1.04-3.568 2.888-5.704 4.848-1.48 1.36-3.008 2.76-4.464 3.968-3.888 3.208-12.48 4.408-13.936 4.408-.92 0-6.408 1.144-9.352 1.768-1.9442.408-2.9762.624-3.3442.672-.056 0-.128.008-.216.008zm-45.008-54.16c.808 1.576 1.2 10.36 1.368 15.536.112 3.528 1.232 5.6 2.056 7.112.232.424.432.8.592 1.16.44.968.656 1.88.856 2.76.184.784.352 1.528.688 2.336.656 1.576 4.208 6.528 6.416 8.44.544.472 1.296 1.072 2.176 1.776 2.936 2.344 6.592 5.264 7.752 7.456 1.52 1.824 20.384 5.184 22.992 5.184h.056c.232-.032 1.632-.328 3.12-.64 4.7522-.992 8.7682-1.816 9.8482-1.816 1.528 0 9.24-1.24 12.408-3.864 1.408-1.168 2.912-2.544 4.368-3.88 2.2-2.024 4.28-3.936 5.992-5.072 2.56-1.704 4.28-3.08 7.24-9.448 2.44-5.256 3.592-9.096 4.512-12.184.224-.744.432-1.44.64-2.096 1.16-3.648 2.288-7.872.928-11.808-1.48-4.288-3.264-10.312-3.432-13.192-.112-1.84-1.632-3.904-4.408-7.64-.552-.744-1.152-1.552-1.8-2.44l-.344-.48c-2.422-3.3226-5.992-7.0666-10.712-11.232l-.4-.35998c-7.584-6.696-19.904-7.928-22.6-7.384-.144.032-14.4562 2.672-17.1202 1.832-1.696-.088-11.064 3.592-12.376 5.86398-1.592 2.752-3.696 3.664-5.384 4.4-1.04.456-1.864.808-2.312 1.488-1.456 2.184-3.368 4.8-6.48 7.584-2.592 2.312-3.712 6.064-3.584 7.424.112 1.24-.44 3.56-1.792 7.528l-.104.312c-.752 2.248-1.28 4.712-1.152 5.336zm-2.08 1.192s.016.032.024.04c-.008-.016-.016-.024-.024-.04zm35.032-41.21598c.072.04.136.072.184.088-.072-.024-.128-.056-.184-.088z"/><path d="m105.232 49.304c-.264 0-.528-.088-.752-.264-1.216-.968-29.8002-23.96-32.8242-40.54401-.12-.648.3119-1.28.9679-1.392.648-.12 1.28.312 1.392.968 2.864 15.71201 31.6643 38.86401 31.9603 39.10401.52.416.6 1.168.192 1.688-.24.296-.584.448-.936.448z"/><path d="m99.8241 55.5362c-.256 0-.512-.08-.736-.248-1.096-.848-26.912-20.96-34.464-40.896-.232-.616.08-1.312.696-1.544s1.312.08 1.544.696c7.32 19.304 33.4239 39.64 33.6879 39.848.528.408.624 1.16.216 1.68-.232.304-.592.464-.9519.464z"/><path d="m96.7601 56.8641c-.232 0-.464-.064-.672-.208-1.064-.728-26.216-17.976-35.544-37.552-.288-.6-.032-1.312.568-1.6s1.312-.032 1.6.568c9.048 19 34.464 36.424 34.72 36.6.544.376.688 1.12.32 1.664-.232.344-.608.528-.992.528z"/><path d="m93.8962 57.9839c-.2 0-.408-.048-.592-.16-1.112-.632-27.4-15.704-39.376-30.528-.416-.512-.336-1.272.176-1.688s1.272-.336 1.688.176c11.688 14.472 38.424 29.8 38.696 29.952.576.328.776 1.064.448 1.64-.224.392-.624.608-1.04.608z"/><path d="m89.7121 61.6638s-.072 0-.112 0c-.92-.088-22.8-2.224-39.336-15.016-.528-.408-.624-1.16-.216-1.68s1.16-.616 1.68-.216c15.968 12.352 37.872 14.504 38.088 14.52.656.064 1.144.648 1.088 1.304-.056.624-.576 1.088-1.192 1.088z"/><path d="m79.9598 64.9438c-2.84 0-13.728-.432-28.528-6.432-.616-.248-.912-.9519-.664-1.5599.248-.616.952-.9121 1.56-.6641 16.416 6.648 28.12 6.2481 28.24 6.2401.64-.032 1.224.4879 1.248 1.1519.032.664-.488 1.2241-1.144 1.2481-.064 0-.304.0079-.712.0079z"/><path d="m55.2962 69.12c-.664 0-1.2-.536-1.2-1.2s.536-1.2 1.2-1.2c40.736 0 55.8078-24.496 55.9598-24.744.336-.568 1.072-.76 1.64-.416.568.336.76 1.072.416 1.64-.152.256-15.8478 25.912-58.0158 25.912z"/><path d="m71.3281 89.744c-.472 0-.928-.28-1.112-.752-.248-.616.048-1.312.664-1.56.152-.064 15.32-6.288 26.632-18.592 14.8559-16.16 19.1359-37.84 13.0799-66.28001-.136-.648.272-1.288.92-1.424.648-.135999 1.288.272 1.424.92 6.224 29.25601 1.76 51.63201-13.6639 68.40001-11.696 12.712-26.856 18.936-27.496 19.192-.144.056-.296.088-.448.088z"/><path d="m75.8 94.2959c-.448 0-.872-.248-1.08-.68-.288-.6-.04-1.312.56-1.6.216-.104 21.928-10.688 30.632-22.168 13.728-18.104 18.256-39.64 13.44-64.02403-.128-.648.296-1.28.944-1.408s1.28.296 1.408.944c4.952 25.08803.28 47.27203-13.88 65.94403-9.056 11.936-30.592 22.44-31.504 22.88-.168.08-.344.12-.52.12z"/><path d="m120.248 46.632c-.304 0-.6-.112-.84-.336-.472-.464-.488-1.224-.024-1.696.064-.064 6.544-6.96 12.784-27.176.2-.632.864-.984 1.504-.792.632.2.992.864.792 1.504-6.448 20.872-13.08 27.856-13.36 28.136-.232.24-.544.36-.864.36z"/><path d="m114.464 59.6559c-.424 0-.832-.224-1.048-.616-.32-.576-.112-1.312.464-1.632.168-.096 17.088-9.736 26.304-32.128.248-.608.952-.904 1.568-.656s.904.952.656 1.568c-9.544 23.2-26.632 32.912-27.352 33.312-.184.104-.384.152-.584.152z"/><path d="m109.984 67.3839c-.504 0-.976-.32-1.144-.832-.208-.632.144-1.304.768-1.512.24-.08 23.784-7.832 36.024-22.192.432-.504 1.184-.56 1.696-.136.504.432.568 1.184.136 1.696-12.688 14.88-36.12 22.592-37.104 22.912-.12.04-.248.056-.368.056z"/><path d="m106.864 73.0161c-.56 0-1.056-.392-1.176-.952-.136-.648.28-1.28.928-1.416.288-.056 28.728-6.12 39.856-19.424.424-.512 1.184-.576 1.688-.152.512.424.576 1.184.152 1.688-11.664 13.952-40.008 19.984-41.208 20.24-.08.016-.168.024-.248.024z"/><path d="m98.8558 80.1278c-.456 0-.68-.032-.792-.072-.632-.2-.976-.88-.776-1.512.184-.584.776-.928 1.368-.808.36.024 5.3842.2 41.9362-7.104.648-.136 1.28.288 1.408.944s-.288 1.28-.944 1.408c-31.192 6.232-39.824 7.136-42.2002 7.136z"/><path d="m109.984 44.5041c-.384 0-.752-.184-.984-.52-.848-1.232-20.8241-30.216-19.5521-40.456.08-.656.672-1.128 1.336-1.04.656.08 1.128.68 1.04 1.336-.96 7.752 13.4961 30.632 19.1441 38.792.376.544.24 1.296-.304 1.672-.208.144-.448.216-.68.216z"/><path d="m112.696 38.784c-.504 0-.976-.32-1.144-.832-.072-.232-7.512-23.144-11.424-36.168-.1922-.63201.168-1.304005.8-1.496005s1.304.168 1.496.799995c3.904 13.00001 11.336 35.88801 11.408 36.11201.208.632-.144 1.304-.768 1.512-.12.04-.248.056-.368.056z"/><path d="m112.28 42.1519c-.392 0-.776-.192-1.008-.544-.112-.176-11.6002-18.056-17.0002-38.07997-.176-.64.208-1.296.848-1.472s1.296.208 1.472.848c5.2962 19.64797 16.5842 37.22397 16.6962 37.39997.36.56.2 1.296-.352 1.656-.2.128-.432.192-.648.192z"/><path d="m56.4162 76.5839c-.648 0-1.184-.52-1.2-1.176-.016-.664.512-1.208 1.176-1.224 25.464-.504 50.2558-17.592 50.5038-17.768.544-.376 1.288-.248 1.672.296.376.544.248 1.288-.296 1.672-.256.176-25.6238 17.68-51.8318 18.2z"/><path d="m63.4318 79.1279c-1.52 0-3.064-.048-4.624-.152-.664-.04-1.16-.616-1.12-1.272s.592-1.16 1.272-1.12c20.336 1.328 38.032-7.184 38.208-7.272.592-.288 1.312-.048 1.608.552.288.592.048 1.312-.552 1.608-.688.336-15.888 7.664-34.792 7.664z"/><path d="m72.784 83.9919c-2.52 0-5.472-.136-8.92-.48-.656-.064-1.144-.656-1.08-1.312.064-.664.664-1.136 1.312-1.08 15.536 1.536 20.392-1.224 20.44-1.248.56-.336 1.296-.16 1.64.4s.176 1.288-.376 1.64c-.168.104-3.424 2.08-13.016 2.08z"/><path d="m114.72 86.9201c-6.608 0-14.568-.6-22.1522-2.72-.64-.176-1.008-.84-.832-1.48s.84-1.016 1.48-.832c16.6802 4.664 35.9442 1.656 36.1362 1.624.656-.104 1.272.336 1.376.992s-.336 1.272-.992 1.376c-.448.072-6.64 1.04-15.008 1.04z"/><path d="m110.44 95.4641c-.056 0-.12 0-.176-.016-.432-.064-10.7439-1.632-23.1519-7.912-.592-.296-.832-1.024-.528-1.616s1.024-.824 1.616-.528c12.0399 6.088 22.3199 7.664 22.4239 7.68.656.096 1.112.704 1.008 1.36-.088.6-.6 1.024-1.184 1.024z"/><path d="m61.8962 93.4561c-2.744 0-6.1441-.336-10.2801-1.288l-2.088-.48c-12.048-2.776-14.216-3.28-26.5119-.152-5.048 1.28-9.624.672-13.61605-1.808-5.4-3.352-8.328-9.304-9.191998-13.384-1.544002-7.224 5.759998-15.744 15.312048-17.864 5.44-1.216 9.304.256 12.4 1.44 2.312.88 3.984 1.512 5.5919.872 1.16-.464 1.7761-1.12 1.848-1.96.1201-1.416-1.288-3.76-4.68-5.816-4.5679-2.76-10.7039-1.952-13.9519-1.224-2.104.464-4.248-.704-4.984-2.72l-.032-.096c-.408-1.128-.32-2.392.232-3.464.552-1.064 1.528-1.856 2.68-2.176 13.248-3.632 19.2719.472 26.9599 7.144 4.7521 4.128 4.104 10.368 1.4881 14.416-2.4481 3.792-7.256 6.536-12.48 4.12-6.024-2.784-12.384-3.472-16.6-1.808-2.168.856-3.664 2.28-4.45605 4.232-1.248 3.072-.744 6.44 1.31205 8.792 2.864 3.272 8.176 4.112 14.952 2.368 7.8319-2.024 16.1119-.352 23.4239 1.128 6.9681 1.408 12.9921 2.624 15.672-.176.456-.48 1.216-.496 1.696-.032.48.456.4961 1.216.032 1.696-3.6 3.752-10.216 2.408-17.88.864-7.0559-1.424-15.0479-3.04-22.3439-1.16-10.384 2.68-15.328-.792-17.35205-3.104-2.656-3.032-3.32-7.352-1.728-11.272 1.032-2.544 3.04005-4.472 5.80005-5.56 4.872-1.928 11.7919-1.232 18.4879 1.856 4.184 1.936 7.7121-.544 9.4561-3.248 2.072-3.208 2.632-8.112-1.048-11.304-7.312-6.352-12.624-9.968-24.752-6.64-.52.144-.936.488-1.184.968-.256.488-.288 1.04-.104 1.56l.032.088c.328.896 1.28 1.408 2.208 1.2 3.6-.808 10.432-1.68 15.712 1.512 3.816 2.304 6.048 5.4 5.832 8.064-.1441 1.768-1.3361 3.192-3.3521 3.992-2.4799.992-4.8399.088-7.3359-.856-2.944-1.12-6.28-2.392-11.024-1.336-8.97605 1.992-14.61605 9.712-13.48805 15.024.832 3.904 3.664 9.08 8.11205 11.848 3.416 2.12 7.376 2.632 11.76 1.52 12.864-3.264 15.696-2.608 27.64.144l2.0879.48c12.96 2.968 17.9121-.4 17.96-.432.5361-.384 1.288-.264 1.672.272s.2801 1.272-.2479 1.664c-.1601.12-2.9601 2.12-9.6321 2.12z"/><path d="m78.6478 11.9282c-.16 0-.312-.048-.456-.144-.36-.248-.456-.752-.2-1.112l1.968-2.84803c.248-.36.752-.456 1.112-.2.36.248.456.752.2 1.112l-1.968 2.84803c-.152.224-.408.344-.656.344z"/><path d="m81.9998 17.1362c-.064 0-.128 0-.192-.024-.432-.104-.688-.544-.584-.968l.784-3.144c.104-.432.536-.688.968-.584s.688.544.584.968l-.784 3.144c-.088.36-.416.608-.776.608z"/><path d="m118.176 82.648c-.312 0-.6-.176-.736-.48-.176-.408 0-.88.416-1.056l8.96-3.912c.408-.176.88.008 1.056.416s0 .88-.416 1.056l-8.96 3.912c-.104.048-.216.064-.32.064z"/><path d="m124.224 82.648c-.296 0-.584-.168-.72-.448-.192-.4-.024-.88.368-1.072l4.04-1.96c.4-.192.88-.024 1.072.368.192.4.024.88-.368 1.072l-4.04 1.96c-.112.056-.232.08-.352.08z"/><path d="m130.432 50.9201c-.152 0-.304-.04-.44-.136-.368-.248-.472-.744-.224-1.112l6.512-9.808c.248-.368.744-.472 1.112-.224s.472.744.224 1.112l-6.512 9.808c-.152.232-.408.36-.664.36z"/><path d="m136.56 47.4802c-.176 0-.352-.056-.504-.176-.344-.28-.4-.784-.12-1.128l1.992-2.464c.28-.344.784-.4 1.128-.12s.4.784.12 1.128l-1.992 2.464c-.16.192-.392.296-.624.296z"/></g></g></svg>