<svg width="149" height="99" viewBox="0 0 149 99" fill="none" xmlns="http://www.w3.org/2000/svg">
<g id="klubok" clip-path="url(#clip0_242_4757)">
<path id="Vector" d="M83.9681 2.2398C72.2241 5.4158 65.1601 17.0798 65.0161 20.0478C64.8721 23.0158 63.2801 23.6238 60.6801 29.0318C58.0801 34.4398 54.8962 36.0638 56.9202 40.3838C58.9442 44.7038 62.1041 46.5038 61.4161 51.0238C60.7281 55.5438 63.1362 60.5118 64.5842 63.3038C66.0322 66.0958 65.8562 65.9198 67.8962 70.3438C69.9362 74.7678 70.2481 77.3598 73.1601 79.3918C76.0721 81.4238 76.9281 82.7838 80.3681 84.4878C83.8081 86.1918 86.1041 89.9358 92.2881 90.3278C98.4721 90.7198 101.976 91.6798 106.696 91.6798C111.416 91.6798 114.456 92.5598 120.528 90.9598C126.6 89.3598 129.632 89.2238 131.656 85.4638C133.68 81.7038 133.824 80.0798 136.864 77.5678C139.904 75.0558 146.112 59.5038 146.984 56.3678C147.856 53.2318 146.264 47.3998 146.264 44.6078C146.264 41.8158 148.432 36.4638 146.984 32.4158C145.536 28.3678 140.768 25.8638 140.192 23.5038C139.616 21.1438 140.336 21.3838 135.568 15.9838C130.8 10.5838 131.048 8.9438 126.896 7.6958C122.744 6.4478 109.12 2.0078 107.384 2.6878C105.648 3.3678 92.3842 -0.0241995 83.9841 2.2478L83.9681 2.2398Z" fill="#F9322C"/>
<path id="Vector_2" d="M96.8158 98.424C95.3438 98.424 89.1678 97.432 84.6398 96.528C72.7518 94.152 71.9758 92.68 71.5998 91.968C70.6718 90.216 66.9438 87.24 64.4718 85.264C63.5758 84.544 62.7998 83.928 62.2238 83.424C59.8238 81.344 56.0238 76.168 55.1598 74.096C54.7518 73.104 54.5438 72.232 54.3518 71.384C54.1678 70.584 53.9918 69.832 53.6478 69.08C53.5038 68.768 53.3278 68.44 53.1278 68.072C52.2478 66.448 50.9198 63.984 50.7838 59.896C50.5598 52.864 50.0798 46.424 49.7198 45.44C49.1118 44.4 49.4398 41.96 50.6958 38.184L50.8078 37.856C52.2878 33.512 52.5358 31.904 52.4798 31.32C52.2878 29.184 53.6958 24.72 56.8558 21.888C59.7678 19.28 61.5678 16.824 62.9358 14.76C63.7758 13.504 65.0478 12.944 66.2878 12.408C67.7998 11.752 69.3598 11.072 70.5598 9.00002C72.2478 6.08802 80.2558 2.99202 83.1518 2.24802C84.7438 1.84002 85.4318 1.88802 85.9038 2.12002C87.5038 2.42402 98.1438 0.86402 101.656 0.15202C104.728 -0.47198 117.984 0.73602 126.32 8.08802L126.72 8.44802C133.928 14.808 134.032 14.92 137.784 20.064L138.128 20.544C138.776 21.432 139.368 22.232 139.92 22.976C142.968 27.088 144.64 29.352 144.792 31.904C144.936 34.352 146.608 40.128 148.096 44.448C149.824 49.464 148.112 54.864 147.184 57.768C146.976 58.408 146.776 59.096 146.552 59.824C145.608 62.984 144.424 66.92 141.92 72.328C138.76 79.144 136.76 80.816 133.84 82.76C132.28 83.8 130.272 85.648 128.136 87.608C126.656 88.968 125.128 90.368 123.672 91.576C119.784 94.784 111.192 95.984 109.736 95.984C108.816 95.984 103.328 97.128 100.384 97.752C98.4398 98.16 97.4078 98.376 97.0398 98.424C96.9838 98.424 96.9118 98.432 96.8238 98.432L96.8158 98.424ZM51.8078 44.264C52.6158 45.84 53.0078 54.624 53.1758 59.8C53.2878 63.328 54.4078 65.4 55.2318 66.912C55.4638 67.336 55.6638 67.712 55.8238 68.072C56.2638 69.04 56.4798 69.952 56.6798 70.832C56.8638 71.616 57.0318 72.36 57.3678 73.168C58.0238 74.744 61.5758 79.696 63.7838 81.608C64.3278 82.08 65.0798 82.68 65.9598 83.384C68.8958 85.728 72.5518 88.648 73.7118 90.84C75.2318 92.664 94.0958 96.024 96.7038 96.024C96.7198 96.024 96.7358 96.024 96.7598 96.024C96.9918 95.992 98.3918 95.696 99.8798 95.384C104.632 94.392 108.648 93.568 109.728 93.568C111.256 93.568 118.968 92.328 122.136 89.704C123.544 88.536 125.048 87.16 126.504 85.824C128.704 83.8 130.784 81.888 132.496 80.752C135.056 79.048 136.776 77.672 139.736 71.304C142.176 66.048 143.328 62.208 144.248 59.12C144.472 58.376 144.68 57.68 144.888 57.024C146.048 53.376 147.176 49.152 145.816 45.216C144.336 40.928 142.552 34.904 142.384 32.024C142.272 30.184 140.752 28.12 137.976 24.384C137.424 23.64 136.824 22.832 136.176 21.944L135.832 21.464C133.41 18.1414 129.84 14.3974 125.12 10.232L124.72 9.87202C117.136 3.17602 104.816 1.94402 102.12 2.48802C101.976 2.52002 87.6638 5.16002 84.9998 4.32002C83.3038 4.23202 73.9358 7.91202 72.6238 10.184C71.0318 12.936 68.9278 13.848 67.2398 14.584C66.1998 15.04 65.3758 15.392 64.9278 16.072C63.4718 18.256 61.5598 20.872 58.4478 23.656C55.8558 25.968 54.7358 29.72 54.8638 31.08C54.9758 32.32 54.4238 34.64 53.0718 38.608L52.9678 38.92C52.2158 41.168 51.6878 43.632 51.8158 44.256L51.8078 44.264ZM49.7278 45.456C49.7278 45.456 49.7438 45.488 49.7518 45.496C49.7438 45.48 49.7358 45.472 49.7278 45.456ZM84.7598 4.24002C84.8318 4.28002 84.8958 4.31202 84.9438 4.32802C84.8718 4.30402 84.8158 4.27202 84.7598 4.24002Z" fill="#F4F4F5"/>
<path id="Vector_3" d="M105.232 49.304C104.968 49.304 104.704 49.216 104.48 49.04C103.264 48.072 74.6798 25.08 71.6558 8.49599C71.5358 7.84799 71.9677 7.21599 72.6237 7.10399C73.2717 6.98399 73.9037 7.41599 74.0157 8.07199C76.8797 23.784 105.68 46.936 105.976 47.176C106.496 47.592 106.576 48.344 106.168 48.864C105.928 49.16 105.584 49.312 105.232 49.312V49.304Z" fill="#F4F4F5"/>
<path id="Vector_4" d="M99.8241 55.5362C99.5681 55.5362 99.3121 55.4562 99.0881 55.2882C97.9921 54.4402 72.1761 34.3282 64.6241 14.3922C64.3921 13.7762 64.7041 13.0802 65.3201 12.8482C65.9361 12.6162 66.6321 12.9282 66.8641 13.5442C74.1841 32.8482 100.288 53.1842 100.552 53.3922C101.08 53.8002 101.176 54.5522 100.768 55.0722C100.536 55.3762 100.176 55.5362 99.8161 55.5362H99.8241Z" fill="#F4F4F5"/>
<path id="Vector_5" d="M96.7601 56.8641C96.5281 56.8641 96.2961 56.8001 96.0881 56.6561C95.0241 55.9281 69.8721 38.6801 60.5441 19.1041C60.2561 18.5041 60.5121 17.7921 61.1121 17.5041C61.7121 17.2161 62.4241 17.4721 62.7121 18.0721C71.7601 37.0721 97.1761 54.4961 97.4321 54.6721C97.9761 55.0481 98.1201 55.7921 97.7521 56.3361C97.5201 56.6801 97.1441 56.8641 96.7601 56.8641Z" fill="#F4F4F5"/>
<path id="Vector_6" d="M93.8962 57.9839C93.6962 57.9839 93.4882 57.9359 93.3042 57.8239C92.1922 57.1919 65.9042 42.1199 53.9282 27.2959C53.5122 26.7839 53.5922 26.0239 54.1042 25.6079C54.6162 25.1919 55.3762 25.2719 55.7922 25.7839C67.4802 40.2559 94.2162 55.5839 94.4882 55.7359C95.0642 56.0639 95.2642 56.7999 94.9362 57.3759C94.7122 57.7679 94.3122 57.9839 93.8962 57.9839Z" fill="#F4F4F5"/>
<path id="Vector_7" d="M89.7121 61.6638C89.7121 61.6638 89.6401 61.6638 89.6001 61.6638C88.6801 61.5758 66.8001 59.4398 50.2641 46.6478C49.7361 46.2398 49.6401 45.4878 50.0481 44.9678C50.4561 44.4478 51.2081 44.3518 51.7281 44.7518C67.6961 57.1038 89.6001 59.2558 89.8161 59.2718C90.4721 59.3358 90.9601 59.9198 90.9041 60.5758C90.8481 61.1998 90.3281 61.6638 89.7121 61.6638Z" fill="#F4F4F5"/>
<path id="Vector_8" d="M79.9598 64.9438C77.1198 64.9438 66.2318 64.5118 51.4318 58.5118C50.8158 58.2638 50.5198 57.5599 50.7678 56.9519C51.0158 56.3359 51.7198 56.0398 52.3278 56.2878C68.7438 62.9358 80.4478 62.5359 80.5678 62.5279C81.2078 62.4959 81.7918 63.0158 81.8158 63.6798C81.8478 64.3438 81.3278 64.9039 80.6718 64.9279C80.6078 64.9279 80.3678 64.9358 79.9598 64.9358V64.9438Z" fill="#F4F4F5"/>
<path id="Vector_9" d="M55.2962 69.12C54.6322 69.12 54.0962 68.584 54.0962 67.92C54.0962 67.256 54.6322 66.72 55.2962 66.72C96.0322 66.72 111.104 42.224 111.256 41.976C111.592 41.408 112.328 41.216 112.896 41.56C113.464 41.896 113.656 42.632 113.312 43.2C113.16 43.456 97.4642 69.112 55.2962 69.112V69.12Z" fill="#F4F4F5"/>
<path id="Vector_10" d="M71.3281 89.744C70.8561 89.744 70.4001 89.464 70.2161 88.992C69.9681 88.376 70.2641 87.68 70.8801 87.432C71.0321 87.368 86.2001 81.144 97.5121 68.84C112.368 52.68 116.648 31 110.592 2.55999C110.456 1.91199 110.864 1.27199 111.512 1.13599C112.16 0.999991 112.8 1.40799 112.936 2.05599C119.16 31.312 114.696 53.688 99.2721 70.456C87.5761 83.168 72.4161 89.392 71.7761 89.648C71.6321 89.704 71.4801 89.736 71.3281 89.736V89.744Z" fill="#F4F4F5"/>
<path id="Vector_11" d="M75.8 94.2959C75.352 94.2959 74.928 94.0479 74.72 93.6159C74.432 93.0159 74.68 92.3039 75.28 92.0159C75.496 91.9119 97.208 81.3279 105.912 69.8479C119.64 51.7439 124.168 30.2079 119.352 5.82387C119.224 5.17587 119.648 4.54387 120.296 4.41587C120.944 4.28787 121.576 4.71187 121.704 5.35987C126.656 30.4479 121.984 52.6319 107.824 71.3039C98.768 83.2399 77.232 93.7439 76.32 94.1839C76.152 94.2639 75.976 94.3039 75.8 94.3039V94.2959Z" fill="#F4F4F5"/>
<path id="Vector_12" d="M120.248 46.632C119.944 46.632 119.648 46.52 119.408 46.296C118.936 45.832 118.92 45.072 119.384 44.6C119.448 44.536 125.928 37.64 132.168 17.424C132.368 16.792 133.032 16.44 133.672 16.632C134.304 16.832 134.664 17.496 134.464 18.136C128.016 39.008 121.384 45.992 121.104 46.272C120.872 46.512 120.56 46.632 120.24 46.632H120.248Z" fill="#F4F4F5"/>
<path id="Vector_13" d="M114.464 59.6559C114.04 59.6559 113.632 59.4319 113.416 59.0399C113.096 58.4639 113.304 57.7279 113.88 57.4079C114.048 57.3119 130.968 47.6719 140.184 25.2799C140.432 24.6719 141.136 24.3759 141.752 24.6239C142.368 24.8719 142.656 25.5759 142.408 26.1919C132.864 49.3919 115.776 59.1039 115.056 59.5039C114.872 59.6079 114.672 59.6559 114.472 59.6559H114.464Z" fill="#F4F4F5"/>
<path id="Vector_14" d="M109.984 67.3839C109.48 67.3839 109.008 67.0639 108.84 66.5519C108.632 65.9199 108.984 65.2479 109.608 65.0399C109.848 64.9599 133.392 57.2079 145.632 42.8479C146.064 42.3439 146.816 42.2879 147.328 42.7119C147.832 43.1439 147.896 43.8959 147.464 44.4079C134.776 59.2879 111.344 66.9999 110.36 67.3199C110.24 67.3599 110.112 67.3759 109.992 67.3759L109.984 67.3839Z" fill="#F4F4F5"/>
<path id="Vector_15" d="M106.864 73.0161C106.304 73.0161 105.808 72.6241 105.688 72.0641C105.552 71.4161 105.968 70.7841 106.616 70.6481C106.904 70.5921 135.344 64.5281 146.472 51.2241C146.896 50.7121 147.656 50.6481 148.16 51.0721C148.672 51.4961 148.736 52.2561 148.312 52.7601C136.648 66.7121 108.304 72.7441 107.104 73.0001C107.024 73.0161 106.936 73.0241 106.856 73.0241L106.864 73.0161Z" fill="#F4F4F5"/>
<path id="Vector_16" d="M98.8558 80.1278C98.3998 80.1278 98.1758 80.0958 98.0638 80.0558C97.4318 79.8558 97.0878 79.1758 97.2878 78.5438C97.4718 77.9598 98.0638 77.6158 98.6558 77.7358C99.0158 77.7598 104.04 77.9358 140.592 70.6318C141.24 70.4958 141.872 70.9198 142 71.5758C142.128 72.2318 141.712 72.8558 141.056 72.9838C109.864 79.2158 101.232 80.1198 98.8558 80.1198V80.1278Z" fill="#F4F4F5"/>
<path id="Vector_17" d="M109.984 44.5041C109.6 44.5041 109.232 44.3201 109 43.9841C108.152 42.7521 88.1759 13.7681 89.4479 3.5281C89.5279 2.8721 90.1199 2.4001 90.7839 2.4881C91.4399 2.5681 91.9119 3.1681 91.8239 3.8241C90.8639 11.5761 105.32 34.4561 110.968 42.6161C111.344 43.1601 111.208 43.9121 110.664 44.2881C110.456 44.4321 110.216 44.5041 109.984 44.5041Z" fill="#F4F4F5"/>
<path id="Vector_18" d="M112.696 38.784C112.192 38.784 111.72 38.464 111.552 37.952C111.48 37.72 104.04 14.808 100.128 1.784C99.9358 1.15199 100.296 0.479995 100.928 0.287995C101.56 0.095995 102.232 0.455995 102.424 1.08799C106.328 14.088 113.76 36.976 113.832 37.2C114.04 37.832 113.688 38.504 113.064 38.712C112.944 38.752 112.816 38.768 112.696 38.768V38.784Z" fill="#F4F4F5"/>
<path id="Vector_19" d="M112.28 42.1519C111.888 42.1519 111.504 41.9599 111.272 41.6079C111.16 41.4319 99.6718 23.5519 94.2718 3.52793C94.0958 2.88793 94.4798 2.23193 95.1198 2.05593C95.7598 1.87993 96.4158 2.26393 96.5918 2.90393C101.888 22.5519 113.176 40.1279 113.288 40.3039C113.648 40.8639 113.488 41.5999 112.936 41.9599C112.736 42.0879 112.504 42.1519 112.288 42.1519H112.28Z" fill="#F4F4F5"/>
<path id="Vector_20" d="M56.4162 76.5839C55.7682 76.5839 55.2322 76.0639 55.2162 75.4079C55.2002 74.7439 55.7282 74.1999 56.3922 74.1839C81.8562 73.6799 106.648 56.5919 106.896 56.4159C107.44 56.0399 108.184 56.1679 108.568 56.7119C108.944 57.2559 108.816 57.9999 108.272 58.3839C108.016 58.5599 82.6482 76.0639 56.4402 76.5839H56.4162Z" fill="#F4F4F5"/>
<path id="Vector_21" d="M63.4318 79.1279C61.9118 79.1279 60.3678 79.0799 58.8078 78.9759C58.1438 78.9359 57.6478 78.3599 57.6878 77.7039C57.7278 77.0479 58.2798 76.5439 58.9598 76.5839C79.2958 77.9119 96.9918 69.3999 97.1678 69.3119C97.7598 69.0239 98.4798 69.2639 98.7758 69.8639C99.0638 70.4559 98.8238 71.1759 98.2238 71.4719C97.5358 71.8079 82.3358 79.1359 63.4318 79.1359V79.1279Z" fill="#F4F4F5"/>
<path id="Vector_22" d="M72.784 83.9919C70.264 83.9919 67.312 83.8559 63.864 83.5119C63.208 83.4479 62.72 82.8559 62.784 82.1999C62.848 81.5359 63.448 81.0639 64.096 81.1199C79.632 82.6559 84.488 79.8959 84.536 79.8719C85.096 79.5359 85.832 79.7119 86.176 80.2719C86.52 80.8319 86.352 81.5599 85.8 81.9119C85.632 82.0159 82.376 83.9919 72.784 83.9919Z" fill="#F4F4F5"/>
<path id="Vector_23" d="M114.72 86.9201C108.112 86.9201 100.152 86.3201 92.5678 84.2001C91.9278 84.0241 91.5598 83.3601 91.7358 82.7201C91.9118 82.0801 92.5758 81.7041 93.2158 81.8881C109.896 86.5521 129.16 83.5441 129.352 83.5121C130.008 83.4081 130.624 83.8481 130.728 84.5041C130.832 85.1601 130.392 85.7761 129.736 85.8801C129.288 85.9521 123.096 86.9201 114.728 86.9201H114.72Z" fill="#F4F4F5"/>
<path id="Vector_24" d="M110.44 95.4641C110.384 95.4641 110.32 95.4641 110.264 95.4481C109.832 95.3841 99.5201 93.8161 87.1121 87.5361C86.5201 87.2401 86.2801 86.5121 86.5841 85.9201C86.8881 85.3281 87.6081 85.0961 88.2001 85.3921C100.24 91.4801 110.52 93.0561 110.624 93.0721C111.28 93.1681 111.736 93.7761 111.632 94.4321C111.544 95.0321 111.032 95.4561 110.448 95.4561L110.44 95.4641Z" fill="#F4F4F5"/>
<path id="Vector_25" d="M61.8962 93.4561C59.1522 93.4561 55.7521 93.1201 51.6161 92.1681L49.5281 91.6881C37.4801 88.9121 35.3121 88.4081 23.0162 91.5361C17.9682 92.8161 13.3922 92.2081 9.40015 89.7281C4.00015 86.3761 1.07215 80.4241 0.208152 76.3441C-1.33585 69.1201 5.96815 60.6001 15.5202 58.4801C20.9602 57.2641 24.8242 58.7361 27.9202 59.9201C30.2322 60.8001 31.9042 61.4321 33.5121 60.7921C34.6721 60.3281 35.2882 59.6721 35.3601 58.8321C35.4802 57.4161 34.0721 55.0721 30.6801 53.0161C26.1122 50.2561 19.9762 51.0641 16.7282 51.7921C14.6242 52.2561 12.4802 51.0881 11.7442 49.0721L11.7122 48.9761C11.3042 47.8481 11.3922 46.5841 11.9442 45.5121C12.4962 44.4481 13.4722 43.6561 14.6242 43.3361C27.8722 39.7041 33.8961 43.8081 41.5841 50.4801C46.3362 54.6081 45.6881 60.8481 43.0722 64.8961C40.6241 68.6881 35.8162 71.4321 30.5922 69.0161C24.5682 66.2321 18.2082 65.5441 13.9922 67.2081C11.8242 68.0641 10.3282 69.4881 9.53615 71.4401C8.28815 74.5121 8.79215 77.8801 10.8482 80.2321C13.7122 83.5041 19.0242 84.3441 25.8002 82.6001C33.6321 80.5761 41.9121 82.2481 49.2241 83.7281C56.1922 85.1361 62.2162 86.3521 64.8961 83.5521C65.3521 83.0721 66.1121 83.0561 66.5921 83.5201C67.0721 83.9761 67.0882 84.7361 66.6241 85.2161C63.0241 88.9681 56.4081 87.6241 48.7441 86.0801C41.6882 84.6561 33.6962 83.0401 26.4002 84.9201C16.0162 87.6001 11.0722 84.1281 9.04815 81.8161C6.39215 78.7841 5.72815 74.4641 7.32015 70.5441C8.35215 68.0001 10.3602 66.0721 13.1202 64.9841C17.9922 63.0561 24.9121 63.7521 31.6081 66.8401C35.7921 68.7761 39.3202 66.2961 41.0642 63.5921C43.1362 60.3841 43.6962 55.4801 40.0162 52.2881C32.7042 45.9361 27.3922 42.3201 15.2642 45.6481C14.7442 45.7921 14.3282 46.1361 14.0802 46.6161C13.8242 47.1041 13.7922 47.6561 13.9762 48.1761L14.0082 48.2641C14.3362 49.1601 15.2882 49.6721 16.2162 49.4641C19.8162 48.6561 26.6482 47.7841 31.9282 50.9761C35.7442 53.2801 37.9762 56.3761 37.7602 59.0401C37.6161 60.8081 36.4241 62.2321 34.4081 63.0321C31.9282 64.0241 29.5682 63.1201 27.0722 62.1761C24.1282 61.0561 20.7922 59.7841 16.0482 60.8401C7.07215 62.8321 1.43215 70.5521 2.56015 75.8641C3.39215 79.7681 6.22415 84.9441 10.6722 87.7121C14.0882 89.8321 18.0482 90.3441 22.4322 89.2321C35.2962 85.9681 38.1282 86.6241 50.0722 89.3761L52.1601 89.8561C65.1201 92.8241 70.0722 89.4561 70.1201 89.4241C70.6562 89.0401 71.4081 89.1601 71.7921 89.6961C72.1761 90.2321 72.0722 90.9681 71.5442 91.3601C71.3841 91.4801 68.5841 93.4801 61.9121 93.4801L61.8962 93.4561Z" fill="#F4F4F5"/>
<path id="Vector_26" d="M78.6478 11.9282C78.4878 11.9282 78.3358 11.8802 78.1918 11.7842C77.8318 11.5362 77.7358 11.0322 77.9918 10.6722L79.9598 7.82417C80.2078 7.46417 80.7118 7.36817 81.0718 7.62417C81.4318 7.87217 81.5278 8.37617 81.2718 8.73617L79.3038 11.5842C79.1518 11.8082 78.8958 11.9282 78.6478 11.9282Z" fill="#F4F4F5"/>
<path id="Vector_27" d="M81.9998 17.1362C81.9358 17.1362 81.8718 17.1362 81.8078 17.1122C81.3758 17.0082 81.1198 16.5682 81.2238 16.1442L82.0078 13.0002C82.1118 12.5682 82.5438 12.3122 82.9758 12.4162C83.4078 12.5202 83.6638 12.9602 83.5598 13.3842L82.7758 16.5282C82.6878 16.8882 82.3598 17.1362 81.9998 17.1362Z" fill="#F4F4F5"/>
<path id="Vector_28" d="M118.176 82.648C117.864 82.648 117.576 82.472 117.44 82.168C117.264 81.76 117.44 81.288 117.856 81.112L126.816 77.2C127.224 77.024 127.696 77.208 127.872 77.616C128.048 78.024 127.872 78.496 127.456 78.672L118.496 82.584C118.392 82.632 118.28 82.648 118.176 82.648Z" fill="#F4F4F5"/>
<path id="Vector_29" d="M124.224 82.648C123.928 82.648 123.64 82.48 123.504 82.2C123.312 81.8 123.48 81.32 123.872 81.128L127.912 79.168C128.312 78.976 128.792 79.144 128.984 79.536C129.176 79.936 129.008 80.416 128.616 80.608L124.576 82.568C124.464 82.624 124.344 82.648 124.224 82.648Z" fill="#F4F4F5"/>
<path id="Vector_30" d="M130.432 50.9201C130.28 50.9201 130.128 50.8801 129.992 50.7841C129.624 50.5361 129.52 50.0401 129.768 49.6721L136.28 39.8641C136.528 39.4961 137.024 39.3921 137.392 39.6401C137.76 39.8881 137.864 40.3841 137.616 40.7521L131.104 50.5601C130.952 50.7921 130.696 50.9201 130.44 50.9201H130.432Z" fill="#F4F4F5"/>
<path id="Vector_31" d="M136.56 47.4802C136.384 47.4802 136.208 47.4242 136.056 47.3042C135.712 47.0242 135.656 46.5202 135.936 46.1762L137.928 43.7122C138.208 43.3682 138.712 43.3122 139.056 43.5922C139.4 43.8722 139.456 44.3762 139.176 44.7202L137.184 47.1842C137.024 47.3762 136.792 47.4802 136.56 47.4802Z" fill="#F4F4F5"/>
</g>
<defs>
<clipPath id="clip0_242_4757">
<rect width="148.84" height="98.432" fill="white"/>
</clipPath>
</defs>
</svg>
