<?xml version="1.0" encoding="UTF-8"?>
<svg xmlns="http://www.w3.org/2000/svg" viewBox="0 0 152.58 323.54">

    <style>
        :root { fill:#222 }
        .accent { fill: #f9322c; }

        @media (prefers-color-scheme: dark) {
        :root {  fill: #f9322c; }
        .accent { fill:#dee2e6; }
        }
    </style>

  <path d="m73.4,116.24c-18.38,14.68-28.88,23.3-28.17,46.95s7.48,20.53,3.53,38.24c-3.96,17.71-15.32,50-13.85,61.49-6.57-25.91-3.89-32.8.7-44.17s2.55-42.26-.64-58.47c-3.19-16.21,25.79-51.32,32.55-56.17l5.87,12.13Z" class="accent"/>
  <path d="m98.11,82.18c13.49,17.67,16.17,32.61,10.65,48.42-5.52,15.81-40.12,48.79-39.9,76.22.23,27.43,2.7,37.63,2.7,37.63,0,0-22.33-29.72-3.94-66.58,18.39-36.85,31.61-47.68,29.83-60.51-1.78-12.83-11.69-32.31-11.69-32.31l11.09-3.15,1.25.27Z" class="accent"/>
  <path d="m23.56,30.08C3.86,49.25,3.42,72.2,11.01,85.13c7.59,12.93,28.69,5.88,28.69,5.88,0,0-7.79-1.85-9.97-10.99,8.15,4,19.61,7.75,29.07,6.66,9.45-1.09,21.49-2.08,27.91-6.53,6.42-4.45,17.99-7.13,30.6-3.06,12.6,4.07,26.26.36,25.89-9.4-.37-9.76-9.38-42.51-32.52-56.87C87.52-3.54,52.43,1.98,23.56,30.08Z" class="accent"/>
  <path d="m32.41,97.27c-3.1,0-6.49-.82-10.52-3.02-6.07-3.32-9.79-10.3-10.47-19.65-1.07-14.7,5.83-35.57,23.69-49.03C55.48,10.2,78.99,3.09,97.99,6.54c14.63,2.66,26.64,11.24,35.69,25.5,13.68,21.56,17.42,38.36,10.53,47.3-5.61,7.27-17.73,8.4-34.15,3.18h0c-7.11-2.26-12.1.08-18.41,3.04-6.64,3.12-14.16,6.65-25.85,5.26-9.9-1.17-16.25,1.32-21.86,3.52-3.88,1.53-7.46,2.93-11.54,2.93ZM88.13,8.68c-16.25,0-34.75,6.86-51.22,19.29-16.95,12.79-23.52,32.53-22.5,46.42.61,8.3,3.77,14.43,8.92,17.24,8.08,4.42,12.88,2.53,19.52-.07,5.93-2.33,12.66-4.97,23.31-3.71,10.83,1.28,17.94-2.05,24.22-5,6.36-2.98,12.36-5.8,20.59-3.18h0c15.12,4.81,26.08,4.05,30.86-2.15,5.98-7.75,2.08-23.74-10.69-43.86-8.58-13.53-19.92-21.65-33.69-24.15-3-.54-6.11-.81-9.32-.81Z" />
  <path d="m107.02,30.61c-.37,0-.75-.14-1.04-.42-7.38-7.09-19.82-12.93-29.68-9.01-.77.31-1.64-.07-1.95-.84-.31-.77.07-1.64.84-1.95,11.16-4.44,24.55,1.64,32.87,9.64.6.57.62,1.52.04,2.12-.29.31-.69.46-1.08.46Z" />
  <path d="m117.48,43.22c-.59,0-1.15-.35-1.39-.93-.01-.04-1.51-3.66-3.4-5.87-.54-.63-.46-1.58.17-2.12.63-.54,1.58-.46,2.11.17,2.2,2.58,3.83,6.51,3.9,6.68.31.77-.05,1.64-.82,1.96-.19.08-.38.11-.57.11Z" />
  <path d="m53.78,91.18s-.04,0-.06,0c-21.23-.8-25.53-11.1-25.71-11.54-.3-.77.07-1.64.84-1.95.77-.3,1.64.07,1.95.84.03.08,3.94,8.92,23.03,9.64.83.03,1.47.73,1.44,1.56-.03.81-.7,1.44-1.5,1.44Z" />
  <path d="m135.21,189.74c-.21,0-.42-.04-.62-.13-.45-.2-11.02-5.19-16.96-24.92-3.8-12.6,2.54-22.38,7.64-30.23,3.04-4.69,5.67-8.74,5.64-12.34-.04-4.5-2.78-10.06-5.69-15.95-3.66-7.41-7.44-15.07-6.64-22.14.09-.82.84-1.42,1.66-1.32.82.09,1.42.83,1.32,1.66-.7,6.2,2.89,13.46,6.35,20.48,3.06,6.21,5.96,12.07,6,17.25.04,4.51-2.82,8.91-6.12,14-5.01,7.72-10.68,16.47-7.29,27.74,1.55,5.15,3.44,9.22,5.35,12.41-3.02-7.3-4.56-16.96.65-27.15,10.29-20.14,14.55-28.48,9.77-39.51-5.08-11.73-5.3-25.02-5.31-25.58-.01-.83.65-1.51,1.48-1.52h.02c.82,0,1.49.66,1.5,1.48,0,.13.23,13.26,5.06,24.43,5.34,12.34.58,21.65-9.85,42.07-9.83,19.24,6.94,36.56,7.11,36.73.51.51.58,1.32.16,1.91-.29.41-.75.64-1.23.64Z" />
  <path d="m85.98,252.94c-.24,0-.48-.06-.71-.18-.3-.16-29.54-16.35-22.91-52.62,3.61-19.75,13.05-32.66,21.38-44.05,6.9-9.43,12.85-17.57,14.31-27.72,3.17-22.18-12.26-41.1-12.41-41.29-.53-.64-.44-1.58.2-2.11.64-.53,1.58-.44,2.11.2.67.81,16.44,20.11,13.08,43.63-1.56,10.9-8.02,19.72-14.85,29.07-8.14,11.13-17.37,23.74-20.85,42.81-3.23,17.67,2.33,30.14,8.59,38.14-2.51-4.78-4.92-11.02-6.59-19.01-4.19-20.08,16.62-45.43,31.82-63.95,3.75-4.57,7.3-8.89,9.88-12.44,12.32-16.94,5.3-44.14-8-62.26-.49-.67-.35-1.61.32-2.1.67-.49,1.61-.35,2.1.32,13.95,18.99,21.18,47.7,8.01,65.8-2.64,3.62-6.21,7.97-9.99,12.58-14.81,18.04-35.1,42.76-31.2,61.43,4.87,23.32,16.41,30.9,16.53,30.97.68.43.9,1.33.49,2.02-.28.48-.78.74-1.29.74Z" />
  <path d="m63.47,183.31c-.35,0-.71-.12-1-.38-.65-.57-15.79-14.31-14.53-34.85.21-3.42.49-6.79.77-10.04,1.36-16.18,2.53-30.16-4.82-45.15-.36-.74-.06-1.64.69-2.01.74-.37,1.64-.06,2.01.69,7.71,15.73,6.45,30.79,5.11,46.72-.27,3.24-.55,6.58-.76,9.97-1.17,19.05,13.38,32.29,13.53,32.42.62.55.67,1.5.12,2.12-.3.33-.71.5-1.12.5Z" />
  <path d="m21.43,195.86c-.56,0-1.1-.32-1.35-.85-.38-.79-9.09-19.58.55-45.49,2.59-6.96,5.28-13.04,7.65-18.41,6.45-14.57,10.71-24.19,6.44-35.23-.3-.77.09-1.64.86-1.94.77-.3,1.64.09,1.94.86,4.71,12.19.01,22.82-6.5,37.52-2.36,5.33-5.03,11.37-7.59,18.24-9.17,24.65-.74,42.97-.65,43.15.35.75.04,1.64-.71,2-.21.1-.43.15-.64.15Z" />
  <path d="m96.32,140.69c-.54,0-1.06-.29-1.33-.81-13.34-25.57-17.3-43.04-12.09-53.42.37-.74,1.27-1.04,2.01-.67.74.37,1.04,1.27.67,2.01-4.68,9.32-.62,26.38,12.06,50.69.38.73.1,1.64-.64,2.02-.22.12-.46.17-.69.17Z" />
  <path d="m71.41,321.87c-.36,0-.72-.13-1.01-.39-.72-.66-17.72-16.42-17.14-39.77.43-17.27,20.22-35.81,36.13-50.71,5.88-5.51,10.96-10.27,14.17-14.13,11.04-13.32,8.54-20.24-2.73-44.58-1.33-2.87-3.01-6.21-5.31-10.54-.39-.73-.11-1.64.62-2.03.73-.39,1.64-.11,2.03.62,2.32,4.38,4.03,7.77,5.38,10.69,10.62,22.94,15.02,32.44,2.32,47.76-3.33,4.01-8.47,8.83-14.43,14.41-15.5,14.52-34.79,32.58-35.18,48.59-.3,12.13,4.62,22.26,9.11,28.92-3.82-10.94-6.83-28.83,4.68-45.74,8.67-12.74,18.52-20.99,27.2-28.26,9.13-7.65,17.02-14.26,20.42-23.79,6.62-18.57-1.99-37.12-11.28-52.82l-.25-.43c-1.09-1.84-2.34-3.96-3.69-6.29-.42-.72-.17-1.63.54-2.05.72-.42,1.64-.17,2.05.54,1.35,2.32,2.6,4.43,3.68,6.27l.25.43c9.65,16.3,18.56,35.62,11.52,55.36-3.67,10.3-11.85,17.15-21.32,25.08-8.54,7.15-18.21,15.25-26.65,27.65-17.08,25.09-.02,52.65.15,52.92.4.63.27,1.47-.3,1.95-.28.23-.62.35-.96.35Z" />
  <path d="m90.47,150.75c-.53,0-1.05-.28-1.32-.78-14.23-26.15-25.53-48.79-19.71-61,.36-.75,1.25-1.06,2-.71.75.36,1.07,1.25.71,2-5.63,11.82,8.98,38.67,19.64,58.27.4.73.13,1.64-.6,2.03-.23.12-.47.18-.72.18Z" />
  <path d="m43.39,285.38c-.56,0-1.09-.32-1.35-.85-7.37-15.25-16.54-34.23-5.97-60.28,7.96-19.62,5.56-32.32,2.52-48.38-.78-4.12-1.58-8.38-2.29-13.07-3.51-23.37,15.07-41.48,30-56.03l1.73-1.69c.59-.58,1.54-.57,2.12.03.58.59.57,1.54-.02,2.12l-1.73,1.69c-15.19,14.81-32.41,31.59-29.13,53.44.7,4.64,1.5,8.87,2.27,12.96,3.13,16.55,5.6,29.62-2.69,50.07-7.83,19.31-4.43,34.22.98,47.18-3.19-18.89-3.71-33.15,7.31-58.89,8.28-19.33,5.08-33.68,2.5-45.21-1.42-6.35-2.65-11.84-1.73-16.95,2.56-14.3,26.25-31.11,27.26-31.82.68-.48,1.61-.31,2.09.36.48.68.31,1.61-.36,2.09-.24.17-23.69,16.81-26.03,29.9-.81,4.51.36,9.73,1.71,15.76,2.67,11.95,5.99,26.82-2.67,47.04-12.36,28.86-9.78,42.94-5.49,66.26l.46,2.49c.13.74-.3,1.46-1.01,1.7-.15.05-.31.07-.47.07Z" />
  <path d="m85.62,116.28c-.3,0-.61-.09-.87-.28-.67-.48-.83-1.42-.34-2.09,4.6-6.4,7.26-17.97,7.29-18.09.18-.81.99-1.31,1.8-1.13.81.18,1.31.99,1.13,1.8-.11.5-2.83,12.28-7.78,19.17-.29.41-.75.62-1.22.62Z" />
  <path d="m130.82,123.25c-.41,0-.82-.17-1.12-.5-8.94-10.05-16.14-27.84-19.59-40.02-.23-.8.24-1.63,1.03-1.85.8-.22,1.63.24,1.85,1.03,3.36,11.87,10.35,29.17,18.95,38.84.55.62.5,1.57-.12,2.12-.29.25-.64.38-1,.38Z" />
  <path d="m141.49,155.19c-.55,0-1.08-.3-1.34-.83-2.27-4.53-1.52-8.42-.86-11.85.75-3.92,1.41-7.3-1.63-11.82-.46-.69-.28-1.62.41-2.08.69-.46,1.62-.28,2.08.41,3.73,5.55,2.86,10.07,2.09,14.06-.63,3.25-1.22,6.32.6,9.94.37.74.07,1.64-.67,2.01-.22.11-.44.16-.67.16Z" />
  <path d="m62.92,113.69c-.56,0-1.1-.32-1.35-.85-.28-.58-6.73-14.32-3.31-24.28.27-.78,1.12-1.2,1.9-.93.78.27,1.2,1.12.93,1.9-3.01,8.8,3.12,21.89,3.18,22.02.36.75.04,1.64-.71,2-.21.1-.43.15-.64.15Z" />
  <path d="m72.36,176.7c-.4,0-.8-.16-1.09-.47-.26-.28-6.51-7.01-8.59-17.62-.97-4.95.79-8.67,2.48-12.26,2.14-4.53,4.35-9.21,1.94-17.35-.24-.79.22-1.63,1.01-1.87.8-.24,1.63.22,1.86,1.01,2.74,9.24.17,14.68-2.1,19.49-1.63,3.44-3.03,6.41-2.25,10.4,1.9,9.73,7.77,16.08,7.83,16.15.57.6.54,1.55-.07,2.12-.29.27-.66.41-1.03.41Z" />
  <path d="m85.41,202.92c-.23,0-.46-.05-.68-.17-.74-.38-1.03-1.28-.65-2.02.15-.3,3.64-7.61-3.79-16.84-.52-.64-.42-1.59.23-2.11.65-.52,1.59-.42,2.11.23,8.7,10.81,4.31,19.71,4.12,20.08-.27.52-.79.82-1.34.82Z" />
  <path d="m89.26,91.09c-2.71,8.3-6.25,13.78-6.25,13.78v-11.94l2.9-7.05,3.35,5.21Z" class="accent"/>
</svg>
