<svg viewBox="0 0 600 700" xmlns="http://www.w3.org/2000/svg">

    <style>
        :root { fill:#222 }
        .accent { fill: #f9322c; }

        @media (prefers-color-scheme: dark) {
        :root {  fill: #f9322c; }
        .accent { fill:#dee2e6; }
        }
    </style>

    <g class="accent">
        <path
            d="m197.37 90.08 5.03.53-2.52 3.49 6.39-2.97-3.87 7.95s10-7.76 12.11-7.66 2.01 1.44 2.01 1.44 12.06-7.32 14.84-9.17 7.56-1.46 7.56-1.46l-3.35-10.15s12.93-8.8 15.03-13.54 10.53-36.72 3.64-36.91-6.51 8.43-6.51 8.43-3.93 2.97-5.07 6.7-5.46 4.19-6.41 11.86c-4.12 4.51-5.07 8.72-5.07 8.72s-5.05 1.66-6.13 6.8c-3.93 3.34-3.93 5.07-3.93 5.07s-8.33-10.53-15.51-15.22-29.78-30.93-33.61-31.98.19 13.79 3.73 16.09 14.81 13.04 14.81 13.04-11.84-8.07-11.26-5.77 7.85 13.4 13.5 14.17c1.72.81 3.71 5.71 7.89 6.06 1.21 1.87 5.13 8.01 8.1 8.4s3.73 6.8 3.73 6.8l-22.12 6.03 6.99 3.26z"/>
        <path
            d="m355.46 98.02c15.31-14.25 42.53-7.02 42.53-7.02s7.44-11.69-7.87-19.56c14.88-2.13 21.48 11.69 21.48 11.69s25.73-8.93 37.21 11.48c-5.32-18.07-23.39-20.41-23.39-20.41s14.67-41.04 41.25-10.84c7.65-8.72 22.11 2.76 22.11 2.76s12.33-4.04 15.52 6.38c-4.04-20.23-20.2-22.33-20.2-22.33s26.58-8.29 39.55 16.59c12.12-17.91 31.04-24.88 41.04-15.31s7.44 19.14 7.44 19.14 15.95 4.04 12.76 18.92-19.99 25.09-39.76 26.79-36.57-4.04-36.57-4.04-26.58 20.2-53.37 17.01-38.49-14.88-38.49-14.88-23.81 11.91-38.91 2.55-12.76-15.52-12.76-15.52-8.93 5.1-9.57-3.4z"/>
        <path
            d="m337.3 205.88c-20.39-5.16-42.08 5.94-42.08 5.94s-4.39-8.26-21.17-9.29-18.07 15.49-18.07 15.49-16.26-7.23-25.04 0c13.68-10.84 18.33-7.77 18.33-7.77s-11.1-11.59-21.68-6.43c-5.42-13.68-18.72-20.14-33.76-10.58 11.3 6.2 10.26 14.97 10.26 14.97s-9.29-16.26-25.3-13.17c4.9-11.62-5.94-20.91-14.46-17.81s-8.78 10.33-8.78 10.33-13.94-4.65-19.62 4.9 0 18.84 0 18.84-17.81-29.69-43.37-6.2c-8.52-6.45-18.33 2.07-18.33 2.07s-18.32-18.84-29.29-4.39 9.67 41.3 36 36.14c13.42 10.07 19.88 6.2 19.88 6.2s13.42 22.46 33.56 9.04c18.84 7.74 27.88-1.19 27.88-1.19 19.1 14.36 37.17-4.23 37.17-4.23 13.42 12.39 33.56 7.23 41.56-3.1 8 5.94 16.26-6.97 16.26-6.97 13.17 4.9 30.38 5.16 39.5-12.91 6.97-2.07 11.36-8.23 11.36-8.23s31.75-.29 29.17-11.65z"/>
        <path
            d="m542.53 434.45c-4.85-2.42-5.52-17.29-5.52-17.29s2.2-13.8 6.42-13.8c-4.85-2.8-6.42-17.92-6.42-17.92h-44.52l-.84 5.42c-2.1 12-6.31 14.75-6.31 14.75s5.36 7.43 5.74 11.55l-.33 6.46c-2.1 10.39-6.31 12.77-6.31 12.77s5.36 6.43 5.74 10l-.33 6.46c-2.1 10.39-6.31 12.77-6.31 12.77s5.36 6.43 5.74 10c7.79-.22 45.93 0 45.93 0s2.2-11.95 6.41-11.95c-4.85-2.42-5.52-17.29-5.52-17.29s2.2-11.95 6.42-11.95z"/>
        <path
            d="m243.35 374.45c-4.85-2.42-5.52-17.29-5.52-17.29s2.2-13.8 6.42-13.8c-4.85-2.8-6.42-17.92-6.42-17.92h-44.52l-.84 5.42c-2.1 12-6.31 14.75-6.31 14.75s5.36 7.43 5.74 11.55l-.33 6.46c-2.1 10.39-6.31 12.77-6.31 12.77s5.36 6.43 5.74 10l-.33 6.46c-2.1 10.39-6.31 12.77-6.31 12.77s6.77 6.43 7.15 10l-.84 5.42c-2.1 12-6.31 14.75-6.31 14.75s5.36 7.43 5.74 11.55l-.33 6.46c-2.1 10.39-6.31 12.77-6.31 12.77s5.36 6.43 5.74 10l-.33 6.46c-2.1 10.39-6.31 5.77-6.31 5.77s5.36 6.43 5.74 10c9.33 6.37 45.93 0 45.93 0s2.2-11.95 6.41-11.95c-4.85-2.42-5.52-10.29-5.52-10.29s2.2-11.95 6.42-11.95c-4.85-2.42-5.52-17.29-5.52-17.29s2.2-13.8 6.42-13.8c-4.85-2.8-6.42-17.92-6.42-17.92s2.2-11.95 6.41-11.95c-4.85-2.42-5.52-17.29-5.52-17.29s2.2-11.95 6.42-11.95z"/>
        <path
            d="m429.86 568.18c-4.85-2.42-5.52-17.29-5.52-17.29s2.2-13.8 6.42-13.8c-4.85-2.8-6.42-17.92-6.42-17.92h-185.24l-.84 5.42c-2.1 12-6.31 14.75-6.31 14.75s5.36 7.43 5.74 11.55l-.33 6.46c-2.1 10.39-6.31 12.77-6.31 12.77s5.36 6.43 5.74 10l-.33 6.46c-2.1 10.39-6.31 12.77-6.31 12.77s5.36 6.43 5.74 10c7.79-.22 186.64 0 186.64 0s2.2-11.95 6.41-11.95c-4.85-2.42-5.52-17.29-5.52-17.29s2.2-11.95 6.42-11.95z"/>
        <path
            d="m374.73 338.83c5.03-14.27 17.52-15.43 23.67-9.48 13.6 13.17 2.17 27.26 7.15 35.26 2.9 4.66 9.54 5.88 9.54 5.88l13.5-.72s-8.99-4.11-11.38-19.77-2.98-28.38-16.29-30.67-19.5.29-23.59 7.66-2.6 11.84-2.6 11.84z"/>
        <path
            d="m437.12 321.59c-7.09 8.54 1.24 20.92 1.24 20.92s-7.47 8.55-5.74 15.79 6.41 12.24 6.41 12.24l8.19-.05s-7.82-10.03-3.6-18.45c2.1-4.19 7.49-4.21 13.89.67s18.08 2.68 22.01 2.2 9.67.11 9.19 6.13-7.57 15.28-7.57 15.28l6.1 13.6s25.85-11.87 18.89-31.62c3.94-7.41 3.94-17.65 3.94-17.65s-13.36-2.68-20.71 1.44c-5.92-7.95-24.68-10.34-34.36-8.23-2.23-9.67-17.9-12.26-17.9-12.26z"/>
    </g>
    <path
        d="m425.61 423.5c-.33 0-.67-.11-.95-.34-.64-.52-.74-1.47-.21-2.11 2.93-3.59 4.61-8.96 4.61-14.72 0-10.29-5.31-18.67-11.84-18.67s-11.84 8.38-11.84 18.67c0 5.76 1.68 11.13 4.61 14.72.52.64.43 1.59-.21 2.11s-1.59.43-2.11-.21c-3.36-4.12-5.29-10.17-5.29-16.62 0-11.95 6.66-21.67 14.84-21.67s14.84 9.72 14.84 21.67c0 6.44-1.93 12.5-5.29 16.62-.3.36-.73.55-1.16.55z"/>
    <path
        d="m425.61 454.84c-.33 0-.67-.11-.95-.34-.64-.52-.74-1.47-.21-2.11 2.93-3.59 4.61-8.96 4.61-14.72 0-5.05-1.29-9.79-3.58-13.31-2.42 2.36-5.3 3.64-8.26 3.64s-5.84-1.28-8.26-3.64c-2.29 3.51-3.58 8.26-3.58 13.31 0 5.76 1.68 11.13 4.61 14.72.52.64.43 1.59-.21 2.11s-1.59.43-2.11-.21c-3.36-4.12-5.29-10.17-5.29-16.62s1.93-12.5 5.29-16.62c.29-.35.71-.55 1.16-.55.45 0 .88.2 1.16.55 1.47 1.8 3.92 3.95 7.23 3.95s5.76-2.15 7.23-3.95c.29-.35.71-.55 1.16-.55.45 0 .88.2 1.16.55 3.36 4.12 5.29 10.17 5.29 16.62s-1.93 12.5-5.29 16.62c-.3.36-.73.55-1.16.55z"/>
    <path
        d="m417.22 490.68c-8.18 0-14.84-9.72-14.84-21.67 0-6.44 1.93-12.5 5.29-16.62.29-.35.71-.55 1.16-.55.45 0 .88.2 1.16.55 1.47 1.8 3.92 3.95 7.23 3.95s5.76-2.15 7.23-3.95c.29-.35.71-.55 1.16-.55.45 0 .88.2 1.16.55 3.36 4.12 5.29 10.18 5.29 16.62 0 11.95-6.66 21.67-14.84 21.67zm-8.26-34.98c-2.29 3.51-3.58 8.26-3.58 13.31 0 10.29 5.31 18.67 11.84 18.67s11.84-8.38 11.84-18.67c0-5.05-1.29-9.79-3.58-13.31-2.42 2.36-5.3 3.64-8.26 3.64s-5.84-1.28-8.26-3.64z"/>
    <path
        d="m441.48 423.5c-.33 0-.67-.11-.95-.34-.64-.52-.74-1.47-.21-2.11 2.93-3.59 4.61-8.96 4.61-14.72 0-10.29-5.31-18.67-11.84-18.67h-15.87c-.83 0-1.5-.67-1.5-1.5s.67-1.5 1.5-1.5h15.87c8.18 0 14.84 9.72 14.84 21.67 0 6.44-1.93 12.5-5.29 16.62-.3.36-.73.55-1.16.55z"/>
    <path
        d="m441.48 454.84c-.33 0-.67-.11-.95-.34-.64-.52-.74-1.47-.21-2.11 2.93-3.59 4.61-8.96 4.61-14.72s-1.52-10.59-4.18-14.17h-15.14c-.83 0-1.5-.67-1.5-1.5s.67-1.5 1.5-1.5h15.87c.45 0 .88.2 1.16.55 3.36 4.12 5.29 10.17 5.29 16.62s-1.93 12.5-5.29 16.62c-.3.36-.73.55-1.16.55z"/>
    <path
        d="m433.09 490.68h-15.87c-.83 0-1.5-.67-1.5-1.5s.67-1.5 1.5-1.5h15.87c6.53 0 11.84-8.38 11.84-18.67 0-5.48-1.52-10.59-4.18-14.17h-15.14c-.83 0-1.5-.67-1.5-1.5s.67-1.5 1.5-1.5h15.87c.45 0 .88.2 1.16.55 3.36 4.12 5.29 10.18 5.29 16.62 0 11.95-6.66 21.67-14.84 21.67z"/>
    <path
        d="m356.14 423.5c-.33 0-.67-.11-.95-.34-.64-.52-.74-1.47-.21-2.11 2.93-3.59 4.61-8.96 4.61-14.72 0-10.29-5.31-18.67-11.84-18.67s-11.84 8.38-11.84 18.67c0 5.76 1.68 11.13 4.61 14.72.52.64.43 1.59-.21 2.11s-1.59.43-2.11-.21c-3.36-4.12-5.29-10.17-5.29-16.62 0-11.95 6.66-21.67 14.84-21.67s14.84 9.72 14.84 21.67c0 6.44-1.93 12.5-5.29 16.62-.3.36-.73.55-1.16.55z"/>
    <path
        d="m356.14 454.84c-.33 0-.67-.11-.95-.34-.64-.52-.74-1.47-.21-2.11 2.93-3.59 4.61-8.96 4.61-14.72 0-5.05-1.29-9.79-3.58-13.31-2.42 2.36-5.3 3.64-8.26 3.64s-5.84-1.28-8.26-3.64c-2.29 3.51-3.58 8.26-3.58 13.31 0 5.76 1.68 11.13 4.61 14.72.52.64.43 1.59-.21 2.11s-1.59.43-2.11-.21c-3.36-4.12-5.29-10.17-5.29-16.62s1.93-12.5 5.29-16.62c.29-.35.71-.55 1.16-.55.45 0 .88.2 1.16.55 1.47 1.8 3.92 3.95 7.23 3.95s5.76-2.15 7.23-3.95c.29-.35.71-.55 1.16-.55.45 0 .88.2 1.16.55 3.36 4.12 5.29 10.17 5.29 16.62s-1.93 12.5-5.29 16.62c-.3.36-.73.55-1.16.55z"/>
    <path
        d="m347.75 490.68c-8.18 0-14.84-9.72-14.84-21.67 0-6.44 1.93-12.5 5.29-16.62.29-.35.71-.55 1.16-.55.45 0 .88.2 1.16.55 1.47 1.8 3.92 3.95 7.23 3.95s5.76-2.15 7.23-3.95c.29-.35.71-.55 1.16-.55.45 0 .88.2 1.16.55 3.36 4.12 5.29 10.18 5.29 16.62 0 11.95-6.66 21.67-14.84 21.67zm-8.26-34.98c-2.29 3.51-3.58 8.26-3.58 13.31 0 10.29 5.31 18.67 11.84 18.67s11.84-8.38 11.84-18.67c0-5.05-1.29-9.79-3.58-13.31-2.42 2.36-5.3 3.64-8.26 3.64s-5.84-1.28-8.26-3.64z"/>
    <path
        d="m372.01 423.5c-.33 0-.67-.11-.95-.34-.64-.52-.74-1.47-.21-2.11 2.93-3.59 4.61-8.96 4.61-14.72 0-10.29-5.31-18.67-11.84-18.67h-15.87c-.83 0-1.5-.67-1.5-1.5s.67-1.5 1.5-1.5h15.87c8.18 0 14.84 9.72 14.84 21.67 0 6.44-1.93 12.5-5.29 16.62-.3.36-.73.55-1.16.55z"/>
    <path
        d="m372.01 454.84c-.33 0-.67-.11-.95-.34-.64-.52-.74-1.47-.21-2.11 2.93-3.59 4.61-8.96 4.61-14.72s-1.52-10.59-4.18-14.17h-15.14c-.83 0-1.5-.67-1.5-1.5s.67-1.5 1.5-1.5h15.87c.45 0 .88.2 1.16.55 3.36 4.12 5.29 10.17 5.29 16.62s-1.93 12.5-5.29 16.62c-.3.36-.73.55-1.16.55z"/>
    <path
        d="m363.62 490.68h-15.87c-.83 0-1.5-.67-1.5-1.5s.67-1.5 1.5-1.5h15.87c6.53 0 11.84-8.38 11.84-18.67 0-5.48-1.52-10.59-4.18-14.17h-15.14c-.83 0-1.5-.67-1.5-1.5s.67-1.5 1.5-1.5h15.87c.45 0 .88.2 1.16.55 3.36 4.12 5.29 10.18 5.29 16.62 0 11.95-6.66 21.67-14.84 21.67z"/>
    <path
        d="m480.24 407.83c-.38 0-.75-.14-1.04-.42-.6-.58-.61-1.53-.04-2.12 3.46-3.58 5.44-8.91 5.44-14.63 0-10.29-6.41-18.67-14.29-18.67s-14.29 8.38-14.29 18.67c0 5.72 1.98 11.05 5.44 14.63.58.6.56 1.54-.04 2.12-.59.58-1.54.56-2.12-.04-3.99-4.13-6.28-10.22-6.28-16.71 0-11.95 7.76-21.67 17.29-21.67s17.29 9.72 17.29 21.67c0 6.49-2.29 12.58-6.28 16.71-.29.3-.69.46-1.08.46z"/>
    <path
        d="m480.24 439.17c-.38 0-.75-.14-1.04-.42-.6-.58-.61-1.53-.04-2.12 3.46-3.58 5.44-8.91 5.44-14.63 0-5.15-1.61-9.99-4.45-13.52-2.88 2.49-6.32 3.84-9.84 3.84s-6.96-1.35-9.84-3.84c-2.84 3.52-4.45 8.36-4.45 13.52 0 5.72 1.98 11.05 5.44 14.63.58.6.56 1.55-.04 2.12-.59.58-1.55.56-2.12-.04-3.99-4.13-6.28-10.22-6.28-16.71s2.29-12.58 6.28-16.71c.28-.29.67-.46 1.08-.46.41 0 .8.17 1.08.46 2.55 2.64 5.62 4.04 8.85 4.04s6.3-1.4 8.86-4.04c.56-.59 1.59-.59 2.16 0 3.99 4.13 6.28 10.22 6.28 16.71s-2.29 12.58-6.28 16.71c-.29.3-.69.46-1.08.46z"/>
    <path
        d="m450.18 407.83c-.39 0-.78-.15-1.08-.46-2.33-2.42-4.13-5.56-5.19-9.1-.24-.79.21-1.63 1.01-1.87.79-.24 1.63.21 1.87 1.01.92 3.08 2.47 5.81 4.47 7.88.58.6.56 1.54-.04 2.12-.29.28-.67.42-1.04.42z"/>
    <path
        d="m450.18 439.17c-.39 0-.79-.15-1.08-.46-3.99-4.13-6.28-10.22-6.28-16.71s2.29-12.58 6.28-16.71c.28-.29.67-.46 1.08-.46h10.19c.83 0 1.5.67 1.5 1.5s-.67 1.5-1.5 1.5h-9.54c-3.19 3.57-5.01 8.69-5.01 14.17s1.98 11.05 5.44 14.63c.58.6.56 1.55-.04 2.12-.29.28-.67.42-1.04.42z"/>
    <path
        d="m480.24 470.51c-.38 0-.75-.14-1.04-.42-.6-.58-.61-1.53-.04-2.12 3.46-3.58 5.44-8.91 5.44-14.63 0-5.15-1.61-9.99-4.45-13.51-2.88 2.49-6.32 3.84-9.84 3.84s-6.96-1.35-9.84-3.84c-2.84 3.52-4.45 8.36-4.45 13.51 0 5.72 1.98 11.05 5.44 14.63.58.6.56 1.54-.04 2.12-.59.58-1.54.56-2.12-.04-3.99-4.13-6.28-10.22-6.28-16.71s2.29-12.58 6.28-16.71c.28-.29.67-.46 1.08-.46.41 0 .8.17 1.08.46 2.55 2.64 5.62 4.04 8.85 4.04s6.3-1.4 8.86-4.04c.56-.59 1.59-.59 2.16 0 3.99 4.13 6.28 10.22 6.28 16.71s-2.29 12.58-6.28 16.71c-.29.3-.69.46-1.08.46z"/>
    <path
        d="m470.3 506.35c-9.53 0-17.29-9.72-17.29-21.67 0-6.49 2.29-12.58 6.28-16.71.28-.29.67-.46 1.08-.46.41 0 .8.17 1.08.46 2.55 2.64 5.62 4.04 8.85 4.04s6.3-1.4 8.86-4.04c.56-.59 1.59-.59 2.16 0 3.99 4.13 6.28 10.22 6.28 16.71 0 11.95-7.76 21.67-17.29 21.67zm-9.84-35.19c-2.84 3.52-4.45 8.36-4.45 13.52 0 10.29 6.41 18.67 14.29 18.67s14.29-8.38 14.29-18.67c0-5.15-1.61-9.99-4.45-13.52-2.88 2.49-6.32 3.84-9.84 3.84s-6.96-1.35-9.84-3.84z"/>
    <path
        d="m450.18 470.51c-.39 0-.78-.15-1.08-.46-3.99-4.13-6.28-10.22-6.28-16.71s2.29-12.58 6.28-16.71c.28-.29.67-.46 1.08-.46h10.19c.83 0 1.5.67 1.5 1.5s-.67 1.5-1.5 1.5h-9.54c-3.19 3.57-5.01 8.69-5.01 14.17s1.98 11.05 5.44 14.63c.58.6.56 1.54-.04 2.12-.29.28-.67.42-1.04.42z"/>
    <path d="m470.3 506.35h-10.19c-.83 0-1.5-.67-1.5-1.5s.67-1.5 1.5-1.5h10.19c.83 0 1.5.67 1.5 1.5s-.67 1.5-1.5 1.5z"/>
    <path
        d="m445.42 478.76c-.15 0-.3-.02-.44-.07-.79-.25-1.23-1.09-.99-1.88 1.07-3.43 2.83-6.49 5.11-8.85.28-.29.67-.46 1.08-.46h10.19c.83 0 1.5.67 1.5 1.5s-.67 1.5-1.5 1.5h-9.54c-1.75 1.96-3.11 4.43-3.97 7.2-.2.64-.79 1.06-1.43 1.06z"/>
    <path
        d="m348.15 387.66c-.09 0-.18 0-.27-.02-.82-.15-1.36-.92-1.21-1.74 1.78-9.95 8.72-16.91 16.87-16.91h106.76c.83 0 1.5.67 1.5 1.5s-.67 1.5-1.5 1.5h-106.76c-6.57 0-12.43 6.07-13.92 14.43-.13.73-.76 1.24-1.47 1.24z"/>
    <path
        d="m460.11 506.35h-96.57c-8.2 0-15.15-7-16.89-17.02-.14-.82.4-1.59 1.22-1.73.81-.14 1.59.4 1.73 1.22 1.47 8.42 7.33 14.53 13.94 14.53h96.57c.83 0 1.5.67 1.5 1.5s-.67 1.5-1.5 1.5z"/>
    <path
        d="m570 407.83c-.38 0-.75-.14-1.04-.42-.6-.58-.61-1.53-.04-2.12 3.46-3.58 5.44-8.91 5.44-14.63 0-10.29-6.41-18.67-14.29-18.67s-14.29 8.38-14.29 18.67c0 5.72 1.98 11.05 5.44 14.63.58.6.56 1.54-.04 2.12-.59.58-1.54.56-2.12-.04-3.99-4.13-6.28-10.22-6.28-16.71 0-11.95 7.76-21.67 17.29-21.67s17.29 9.72 17.29 21.67c0 6.49-2.29 12.58-6.28 16.71-.29.3-.69.46-1.08.46z"/>
    <path
        d="m570 439.17c-.38 0-.75-.14-1.04-.42-.6-.58-.61-1.53-.04-2.12 3.46-3.58 5.44-8.91 5.44-14.63 0-5.15-1.61-9.99-4.45-13.52-2.88 2.49-6.32 3.84-9.84 3.84s-6.96-1.35-9.84-3.84c-2.85 3.53-4.45 8.36-4.45 13.52 0 5.72 1.98 11.05 5.44 14.63.58.6.56 1.55-.04 2.12-.59.58-1.55.56-2.12-.04-3.99-4.13-6.28-10.22-6.28-16.71s2.29-12.58 6.28-16.71c.28-.29.67-.46 1.08-.46.41 0 .8.17 1.08.46 2.55 2.64 5.62 4.04 8.85 4.04s6.3-1.4 8.85-4.04c.56-.59 1.59-.59 2.16 0 3.99 4.13 6.28 10.22 6.28 16.71s-2.29 12.58-6.28 16.71c-.29.3-.69.46-1.08.46z"/>
    <path
        d="m560.07 371.99h-60.05c-.83 0-1.5-.67-1.5-1.5s.67-1.5 1.5-1.5h60.05c.83 0 1.5.67 1.5 1.5s-.67 1.5-1.5 1.5z"/>
    <path
        d="m539.94 407.83c-.39 0-.78-.15-1.08-.46-3.99-4.13-6.28-10.22-6.28-16.71 0-.83.67-1.5 1.5-1.5s1.5.67 1.5 1.5c0 5.72 1.98 11.05 5.44 14.63.58.6.56 1.54-.04 2.12-.29.28-.67.42-1.04.42z"/>
    <path
        d="m539.94 439.17c-.39 0-.79-.15-1.08-.46-3.99-4.13-6.28-10.22-6.28-16.71s2.29-12.58 6.28-16.71c.28-.29.67-.46 1.08-.46h10.19c.83 0 1.5.67 1.5 1.5s-.67 1.5-1.5 1.5h-9.54c-3.19 3.57-5.01 8.69-5.01 14.17s1.98 11.05 5.44 14.63c.58.6.56 1.55-.04 2.12-.29.28-.67.42-1.04.42z"/>
    <path
        d="m570 470.51c-.38 0-.75-.14-1.04-.42-.6-.58-.61-1.53-.04-2.12 3.46-3.58 5.44-8.91 5.44-14.63 0-5.15-1.61-9.99-4.45-13.51-2.88 2.49-6.32 3.84-9.84 3.84s-6.96-1.35-9.84-3.84c-2.85 3.53-4.45 8.36-4.45 13.51 0 5.72 1.98 11.05 5.44 14.63.58.6.56 1.54-.04 2.12-.59.58-1.54.56-2.12-.04-3.99-4.13-6.28-10.22-6.28-16.71s2.29-12.58 6.28-16.71c.28-.29.67-.46 1.08-.46.41 0 .8.17 1.08.46 2.55 2.64 5.62 4.04 8.85 4.04s6.3-1.4 8.85-4.04c.56-.59 1.59-.59 2.16 0 3.99 4.13 6.28 10.22 6.28 16.71s-2.29 12.58-6.28 16.71c-.29.3-.69.46-1.08.46z"/>
    <path
        d="m560.07 506.35c-9.54 0-17.29-9.72-17.29-21.67 0-6.49 2.29-12.58 6.28-16.71.28-.29.67-.46 1.08-.46.41 0 .8.17 1.08.46 2.55 2.64 5.62 4.04 8.85 4.04s6.3-1.4 8.85-4.04c.56-.59 1.59-.59 2.16 0 3.99 4.13 6.28 10.22 6.28 16.71 0 11.95-7.76 21.67-17.29 21.67zm-9.84-35.19c-2.85 3.53-4.45 8.36-4.45 13.52 0 10.29 6.41 18.67 14.29 18.67s14.29-8.38 14.29-18.67c0-5.15-1.61-9.99-4.45-13.52-2.88 2.49-6.32 3.84-9.84 3.84s-6.96-1.35-9.84-3.84z"/>
    <path
        d="m539.94 470.51c-.39 0-.78-.15-1.08-.46-3.99-4.13-6.28-10.22-6.28-16.71s2.29-12.58 6.28-16.71c.28-.29.67-.46 1.08-.46h10.19c.83 0 1.5.67 1.5 1.5s-.67 1.5-1.5 1.5h-9.54c-3.19 3.57-5.01 8.69-5.01 14.17s1.98 11.05 5.44 14.63c.58.6.56 1.54-.04 2.12-.29.28-.67.42-1.04.42z"/>
    <path
        d="m560.07 506.35h-89.76c-.83 0-1.5-.67-1.5-1.5s.67-1.5 1.5-1.5h89.76c.83 0 1.5.67 1.5 1.5s-.67 1.5-1.5 1.5z"/>
    <path
        d="m534.08 486.18c-.83 0-1.5-.67-1.5-1.5 0-6.49 2.29-12.58 6.28-16.71.28-.29.67-.46 1.08-.46h10.19c.83 0 1.5.67 1.5 1.5s-.67 1.5-1.5 1.5h-9.54c-3.19 3.57-5.01 8.69-5.01 14.17 0 .83-.67 1.5-1.5 1.5z"/>
    <path
        d="m403.87 407.83h-26.92c-.83 0-1.5-.67-1.5-1.5s.67-1.5 1.5-1.5h26.92c.83 0 1.5.67 1.5 1.5s-.67 1.5-1.5 1.5z"/>
    <path
        d="m403.87 439.17h-26.92c-.83 0-1.5-.67-1.5-1.5s.67-1.5 1.5-1.5h26.92c.83 0 1.5.67 1.5 1.5s-.67 1.5-1.5 1.5z"/>
    <path
        d="m403.87 470.51h-26.92c-.83 0-1.5-.67-1.5-1.5s.67-1.5 1.5-1.5h26.92c.83 0 1.5.67 1.5 1.5s-.67 1.5-1.5 1.5z"/>
    <path
        d="m534.08 486.18h-47.99c-.83 0-1.5-.67-1.5-1.5s.67-1.5 1.5-1.5h47.99c.83 0 1.5.67 1.5 1.5s-.67 1.5-1.5 1.5z"/>
    <path
        d="m547.8 505.85c-5.49 0-10.64-3.39-13.78-9.06-.27-.48-.09-1.09.39-1.36s1.09-.09 1.36.39c2.78 5.03 7.28 8.03 12.03 8.03.55 0 1 .45 1 1s-.45 1-1 1z"/>
    <path
        d="m532.63 505.85c-5.49 0-10.64-3.39-13.78-9.06-.27-.48-.09-1.09.39-1.36s1.09-.09 1.36.39c2.78 5.03 7.28 8.03 12.03 8.03.55 0 1 .45 1 1s-.45 1-1 1z"/>
    <path
        d="m517.45 505.85c-5.49 0-10.64-3.39-13.78-9.06-.27-.48-.09-1.09.39-1.36s1.09-.09 1.36.39c2.78 5.03 7.28 8.03 12.03 8.03.55 0 1 .45 1 1s-.45 1-1 1z"/>
    <path
        d="m502.28 505.85c-5.49 0-10.64-3.39-13.78-9.06-.27-.48-.09-1.09.39-1.36s1.09-.09 1.36.39c2.78 5.03 7.28 8.03 12.03 8.03.55 0 1 .45 1 1s-.45 1-1 1z"/>
    <path
        d="m534.89 380.03c-.16 0-.33-.04-.48-.12-.48-.27-.66-.88-.39-1.36 3.14-5.67 8.29-9.06 13.78-9.06.55 0 1 .45 1 1s-.45 1-1 1c-4.75 0-9.25 3-12.03 8.03-.18.33-.52.52-.88.52z"/>
    <path
        d="m519.72 380.03c-.16 0-.33-.04-.48-.12-.48-.27-.66-.88-.39-1.36 3.14-5.67 8.29-9.06 13.78-9.06.55 0 1 .45 1 1s-.45 1-1 1c-4.75 0-9.25 3-12.03 8.03-.18.33-.52.52-.88.52z"/>
    <path
        d="m504.55 380.03c-.16 0-.33-.04-.48-.12-.48-.27-.66-.88-.39-1.36 3.14-5.67 8.29-9.06 13.78-9.06.55 0 1 .45 1 1s-.45 1-1 1c-4.75 0-9.25 3-12.03 8.03-.18.33-.52.52-.88.52z"/>
    <path
        d="m457.52 505.85c-5.49 0-10.64-3.39-13.78-9.06-.27-.48-.09-1.09.39-1.36s1.09-.09 1.36.39c2.78 5.03 7.28 8.03 12.03 8.03.55 0 1 .45 1 1s-.45 1-1 1z"/>
    <path
        d="m442.35 505.85c-5.49 0-10.64-3.39-13.78-9.06-.27-.48-.09-1.09.39-1.36s1.09-.09 1.36.39c2.78 5.03 7.28 8.03 12.03 8.03.55 0 1 .45 1 1s-.45 1-1 1z"/>
    <path
        d="m427.18 505.85c-5.49 0-10.64-3.39-13.78-9.06-.27-.48-.09-1.09.39-1.36s1.09-.09 1.36.39c2.78 5.03 7.28 8.03 12.03 8.03.55 0 1 .45 1 1s-.45 1-1 1z"/>
    <path
        d="m412 505.85c-5.49 0-10.64-3.39-13.78-9.06-.27-.48-.09-1.09.39-1.36s1.09-.09 1.36.39c2.78 5.03 7.28 8.03 12.03 8.03.55 0 1 .45 1 1s-.45 1-1 1z"/>
    <path
        d="m444.62 380.03c-.16 0-.33-.04-.48-.12-.48-.27-.66-.88-.39-1.36 3.14-5.67 8.29-9.06 13.78-9.06.55 0 1 .45 1 1s-.45 1-1 1c-4.75 0-9.25 3-12.03 8.03-.18.33-.52.52-.88.52z"/>
    <path
        d="m429.44 380.03c-.16 0-.33-.04-.48-.12-.48-.27-.66-.88-.39-1.36 3.14-5.67 8.29-9.06 13.78-9.06.55 0 1 .45 1 1s-.45 1-1 1c-4.75 0-9.25 3-12.03 8.03-.18.33-.52.52-.88.52z"/>
    <path
        d="m385.5 415.87c-.16 0-.33-.04-.48-.12-.48-.27-.66-.88-.39-1.36 3.14-5.67 8.29-9.06 13.78-9.06.55 0 1 .45 1 1s-.45 1-1 1c-4.75 0-9.25 3-12.03 8.03-.18.33-.52.52-.88.52z"/>
    <path
        d="m385.5 447.21c-.16 0-.33-.04-.48-.12-.48-.27-.66-.88-.39-1.36 3.14-5.67 8.29-9.06 13.78-9.06.55 0 1 .45 1 1s-.45 1-1 1c-4.75 0-9.25 3-12.03 8.03-.18.33-.52.52-.88.52z"/>
    <path
        d="m385.5 478.55c-.16 0-.33-.04-.48-.12-.48-.27-.66-.88-.39-1.36 3.14-5.67 8.29-9.06 13.78-9.06.55 0 1 .45 1 1s-.45 1-1 1c-4.75 0-9.25 3-12.03 8.03-.18.33-.52.52-.88.52z"/>
    <path
        d="m523.64 400.2c-.35 0-.69-.19-.88-.52-2.78-5.03-7.28-8.03-12.03-8.03-.55 0-1-.45-1-1s.45-1 1-1c5.49 0 10.64 3.39 13.78 9.06.27.48.09 1.09-.39 1.36-.15.08-.32.12-.48.12z"/>
    <path
        d="m523.64 431.54c-.35 0-.69-.19-.88-.52-2.78-5.03-7.28-8.03-12.03-8.03-.55 0-1-.45-1-1s.45-1 1-1c5.49 0 10.64 3.39 13.78 9.06.27.48.09 1.09-.39 1.36-.15.08-.32.12-.48.12z"/>
    <path
        d="m523.64 462.88c-.35 0-.69-.19-.88-.52-2.78-5.03-7.28-8.03-12.03-8.03-.55 0-1-.45-1-1s.45-1 1-1c5.49 0 10.64 3.39 13.78 9.06.27.48.09 1.09-.39 1.36-.15.08-.32.12-.48.12z"/>
    <path
        d="m509.45 400.2c-.35 0-.69-.19-.88-.52-2.78-5.03-7.28-8.03-12.03-8.03-.55 0-1-.45-1-1s.45-1 1-1c5.49 0 10.64 3.39 13.78 9.06.27.48.09 1.09-.39 1.36-.15.08-.32.12-.48.12z"/>
    <path
        d="m509.45 431.54c-.35 0-.69-.19-.88-.52-2.78-5.03-7.28-8.03-12.03-8.03-.55 0-1-.45-1-1s.45-1 1-1c5.49 0 10.64 3.39 13.78 9.06.27.48.09 1.09-.39 1.36-.15.08-.32.12-.48.12z"/>
    <path
        d="m509.45 462.88c-.35 0-.69-.19-.88-.52-2.78-5.03-7.28-8.03-12.03-8.03-.55 0-1-.45-1-1s.45-1 1-1c5.49 0 10.64 3.39 13.78 9.06.27.48.09 1.09-.39 1.36-.15.08-.32.12-.48.12z"/>
    <path
        d="m414.27 380.03c-.16 0-.33-.04-.48-.12-.48-.27-.66-.88-.39-1.36 3.14-5.67 8.29-9.06 13.78-9.06.55 0 1 .45 1 1s-.45 1-1 1c-4.75 0-9.25 3-12.03 8.03-.18.33-.52.52-.88.52z"/>
    <path
        d="m399.1 380.03c-.16 0-.33-.04-.48-.12-.48-.27-.66-.88-.39-1.36 3.14-5.67 8.29-9.06 13.78-9.06.55 0 1 .45 1 1s-.45 1-1 1c-4.75 0-9.25 3-12.03 8.03-.18.33-.52.52-.88.52z"/>
    <path
        d="m396.36 505.85c-5.49 0-10.64-3.39-13.78-9.06-.27-.48-.09-1.09.39-1.36s1.09-.09 1.36.39c2.78 5.03 7.28 8.03 12.03 8.03.55 0 1 .45 1 1s-.45 1-1 1z"/>
    <path
        d="m381.18 505.85c-5.49 0-10.64-3.39-13.78-9.06-.27-.48-.09-1.09.39-1.36s1.09-.09 1.36.39c2.78 5.03 7.28 8.03 12.03 8.03.55 0 1 .45 1 1s-.45 1-1 1z"/>
    <path
        d="m383.45 380.03c-.16 0-.33-.04-.48-.12-.48-.27-.66-.88-.39-1.36 3.14-5.67 8.29-9.06 13.78-9.06.55 0 1 .45 1 1s-.45 1-1 1c-4.75 0-9.25 3-12.03 8.03-.18.33-.52.52-.88.52z"/>
    <path
        d="m368.28 380.03c-.16 0-.33-.04-.48-.12-.48-.27-.66-.88-.39-1.36 3.14-5.67 8.29-9.06 13.78-9.06.55 0 1 .45 1 1s-.45 1-1 1c-4.75 0-9.25 3-12.03 8.03-.18.33-.52.52-.88.52z"/>
    <path
        d="m534.08 454.84h-47.99c-.83 0-1.5-.67-1.5-1.5s.67-1.5 1.5-1.5h47.99c.83 0 1.5.67 1.5 1.5s-.67 1.5-1.5 1.5z"/>
    <path d="m534.08 423.5h-47.99c-.83 0-1.5-.67-1.5-1.5s.67-1.5 1.5-1.5h47.99c.83 0 1.5.67 1.5 1.5s-.67 1.5-1.5 1.5z"/>
    <path
        d="m534.08 392.16h-47.99c-.83 0-1.5-.67-1.5-1.5s.67-1.5 1.5-1.5h47.99c.83 0 1.5.67 1.5 1.5s-.67 1.5-1.5 1.5z"/>
    <path
        d="m126.15 365.09c-.33 0-.67-.11-.95-.34-.64-.52-.74-1.47-.21-2.11 2.93-3.59 4.61-8.96 4.61-14.72 0-10.29-5.31-18.67-11.84-18.67s-11.84 8.38-11.84 18.67c0 5.76 1.68 11.13 4.61 14.72.52.64.43 1.59-.21 2.11s-1.59.43-2.11-.21c-3.36-4.12-5.29-10.18-5.29-16.62 0-11.95 6.66-21.67 14.84-21.67s14.84 9.72 14.84 21.67c0 6.44-1.93 12.5-5.29 16.62-.3.36-.73.55-1.16.55z"/>
    <path
        d="m126.15 490.45c-.33 0-.67-.11-.95-.34-.64-.52-.74-1.47-.21-2.11 2.93-3.59 4.61-8.96 4.61-14.72 0-5.05-1.29-9.79-3.58-13.31-2.42 2.36-5.3 3.64-8.26 3.64s-5.84-1.28-8.26-3.64c-2.29 3.51-3.58 8.26-3.58 13.31 0 5.76 1.68 11.13 4.61 14.72.52.64.43 1.59-.21 2.11s-1.59.43-2.11-.21c-3.36-4.12-5.29-10.18-5.29-16.62s1.93-12.5 5.29-16.62c.57-.7 1.75-.7 2.32 0 1.47 1.8 3.92 3.95 7.23 3.95s5.76-2.15 7.23-3.95c.29-.35.71-.55 1.16-.55.45 0 .88.2 1.16.55 3.36 4.12 5.29 10.17 5.29 16.62s-1.93 12.5-5.29 16.62c-.3.36-.73.55-1.16.55z"/>
    <path
        d="m117.76 526.29c-8.18 0-14.84-9.72-14.84-21.67 0-6.44 1.93-12.5 5.29-16.62.57-.7 1.75-.7 2.32 0 1.47 1.8 3.92 3.95 7.23 3.95s5.76-2.15 7.23-3.95c.29-.35.71-.55 1.16-.55.45 0 .88.2 1.16.55 3.36 4.12 5.29 10.18 5.29 16.62 0 11.95-6.66 21.67-14.84 21.67zm-8.26-34.98c-2.29 3.51-3.58 8.26-3.58 13.31 0 10.29 5.31 18.67 11.84 18.67s11.84-8.38 11.84-18.67c0-5.05-1.29-9.79-3.58-13.31-2.42 2.36-5.3 3.64-8.26 3.64s-5.84-1.28-8.26-3.64z"/>
    <path
        d="m142.03 365.09c-.33 0-.67-.11-.95-.34-.64-.52-.74-1.47-.21-2.11 2.93-3.59 4.61-8.96 4.61-14.72 0-10.29-5.31-18.67-11.84-18.67h-15.87c-.83 0-1.5-.67-1.5-1.5s.67-1.5 1.5-1.5h15.87c8.18 0 14.84 9.72 14.84 21.67 0 6.44-1.93 12.5-5.29 16.62-.3.36-.73.55-1.16.55z"/>
    <path
        d="m142.03 490.45c-.33 0-.67-.11-.95-.34-.64-.52-.74-1.47-.21-2.11 2.93-3.59 4.61-8.96 4.61-14.72s-1.52-10.59-4.18-14.17h-15.14c-.83 0-1.5-.67-1.5-1.5s.67-1.5 1.5-1.5h15.87c.45 0 .88.2 1.16.55 3.36 4.12 5.29 10.17 5.29 16.62s-1.93 12.5-5.29 16.62c-.3.36-.73.55-1.16.55z"/>
    <path
        d="m133.63 526.29h-15.87c-.83 0-1.5-.67-1.5-1.5s.67-1.5 1.5-1.5h15.87c6.53 0 11.84-8.38 11.84-18.67 0-5.48-1.52-10.59-4.18-14.17h-15.14c-.83 0-1.5-.67-1.5-1.5s.67-1.5 1.5-1.5h15.87c.45 0 .88.2 1.16.55 3.36 4.12 5.29 10.18 5.29 16.62 0 11.95-6.66 21.67-14.84 21.67z"/>
    <path
        d="m56.69 365.09c-.33 0-.67-.11-.95-.34-.64-.52-.74-1.47-.21-2.11 2.93-3.59 4.61-8.96 4.61-14.72 0-10.29-5.31-18.67-11.84-18.67s-11.84 8.38-11.84 18.67c0 5.76 1.68 11.13 4.61 14.72.52.64.43 1.59-.21 2.11s-1.59.43-2.11-.21c-3.36-4.12-5.29-10.18-5.29-16.62 0-11.95 6.66-21.67 14.84-21.67s14.84 9.72 14.84 21.67c0 6.44-1.93 12.5-5.29 16.62-.3.36-.73.55-1.16.55z"/>
    <path
        d="m56.69 490.45c-.33 0-.67-.11-.95-.34-.64-.52-.74-1.47-.21-2.11 2.93-3.59 4.61-8.96 4.61-14.72 0-5.05-1.29-9.79-3.58-13.31-2.42 2.36-5.3 3.64-8.26 3.64s-5.84-1.28-8.26-3.64c-2.29 3.51-3.58 8.26-3.58 13.31 0 5.76 1.68 11.13 4.61 14.72.52.64.43 1.59-.21 2.11s-1.59.43-2.11-.21c-3.36-4.12-5.29-10.18-5.29-16.62s1.93-12.5 5.29-16.62c.57-.7 1.75-.7 2.32 0 1.47 1.8 3.92 3.95 7.23 3.95s5.76-2.15 7.23-3.95c.29-.35.71-.55 1.16-.55.45 0 .88.2 1.16.55 3.36 4.12 5.29 10.17 5.29 16.62s-1.93 12.5-5.29 16.62c-.3.36-.73.55-1.16.55z"/>
    <path
        d="m48.3 526.29c-8.18 0-14.84-9.72-14.84-21.67 0-6.44 1.93-12.5 5.29-16.62.57-.7 1.75-.7 2.32 0 1.47 1.8 3.92 3.95 7.23 3.95s5.76-2.15 7.23-3.95c.29-.35.71-.55 1.16-.55.45 0 .88.2 1.16.55 3.36 4.12 5.29 10.18 5.29 16.62 0 11.95-6.66 21.67-14.84 21.67zm-8.26-34.98c-2.29 3.51-3.58 8.26-3.58 13.31 0 10.29 5.31 18.67 11.84 18.67s11.84-8.38 11.84-18.67c0-5.05-1.29-9.79-3.58-13.31-2.42 2.36-5.3 3.64-8.26 3.64s-5.84-1.28-8.26-3.64z"/>
    <path
        d="m72.56 365.09c-.33 0-.67-.11-.95-.34-.64-.52-.74-1.47-.21-2.11 2.93-3.59 4.61-8.96 4.61-14.72 0-10.29-5.31-18.67-11.84-18.67h-15.87c-.83 0-1.5-.67-1.5-1.5s.67-1.5 1.5-1.5h15.87c8.18 0 14.84 9.72 14.84 21.67 0 6.44-1.93 12.5-5.29 16.62-.3.36-.73.55-1.16.55z"/>
    <path
        d="m72.56 490.45c-.33 0-.67-.11-.95-.34-.64-.52-.74-1.47-.21-2.11 2.93-3.59 4.61-8.96 4.61-14.72s-1.52-10.59-4.18-14.17h-15.14c-.83 0-1.5-.67-1.5-1.5s.67-1.5 1.5-1.5h15.87c.45 0 .88.2 1.16.55 3.36 4.12 5.29 10.17 5.29 16.62s-1.93 12.5-5.29 16.62c-.3.36-.73.55-1.16.55z"/>
    <path
        d="m64.17 526.29h-15.87c-.83 0-1.5-.67-1.5-1.5s.67-1.5 1.5-1.5h15.87c6.53 0 11.84-8.38 11.84-18.67 0-5.48-1.52-10.59-4.18-14.17h-15.14c-.83 0-1.5-.67-1.5-1.5s.67-1.5 1.5-1.5h15.87c.45 0 .88.2 1.16.55 3.36 4.12 5.29 10.18 5.29 16.62 0 11.95-6.66 21.67-14.84 21.67z"/>
    <path
        d="m180.79 349.42c-.38 0-.75-.14-1.04-.42-.6-.58-.61-1.53-.04-2.12 3.46-3.58 5.44-8.91 5.44-14.63 0-10.29-6.41-18.67-14.29-18.67s-14.29 8.38-14.29 18.67c0 5.72 1.98 11.05 5.44 14.63.58.6.56 1.55-.04 2.12-.59.58-1.55.56-2.12-.04-3.99-4.13-6.28-10.22-6.28-16.71 0-11.95 7.76-21.67 17.29-21.67s17.29 9.72 17.29 21.67c0 6.49-2.29 12.58-6.28 16.71-.29.3-.69.46-1.08.46z"/>
    <path
        d="m180.79 474.78c-.38 0-.75-.14-1.04-.42-.6-.58-.61-1.53-.04-2.12 3.46-3.58 5.44-8.91 5.44-14.63 0-5.15-1.61-9.99-4.45-13.52-2.88 2.49-6.32 3.84-9.84 3.84s-6.96-1.35-9.84-3.84c-2.85 3.53-4.45 8.36-4.45 13.52 0 5.72 1.98 11.05 5.44 14.63.58.6.56 1.55-.04 2.12-.59.58-1.55.56-2.12-.04-3.99-4.13-6.28-10.22-6.28-16.71s2.29-12.58 6.28-16.71c.28-.29.67-.46 1.08-.46.41 0 .8.17 1.08.46 2.55 2.64 5.62 4.04 8.85 4.04s6.3-1.4 8.85-4.04c.56-.59 1.59-.59 2.16 0 3.99 4.13 6.28 10.22 6.28 16.71s-2.29 12.58-6.28 16.71c-.29.3-.69.46-1.08.46z"/>
    <path
        d="m150.72 349.42c-.39 0-.78-.15-1.08-.46-2.33-2.42-4.13-5.57-5.19-9.1-.24-.79.21-1.63 1.01-1.87.79-.24 1.63.21 1.87 1.01.92 3.08 2.46 5.81 4.47 7.88.58.6.56 1.55-.04 2.12-.29.28-.67.42-1.04.42z"/>
    <path
        d="m150.72 474.78c-.39 0-.79-.15-1.08-.46-3.99-4.13-6.28-10.22-6.28-16.71s2.29-12.58 6.28-16.71c.28-.29.67-.46 1.08-.46h10.19c.83 0 1.5.67 1.5 1.5s-.67 1.5-1.5 1.5h-9.54c-3.19 3.57-5.01 8.69-5.01 14.17s1.98 11.05 5.44 14.63c.58.6.56 1.55-.04 2.12-.29.28-.67.42-1.04.42z"/>
    <path
        d="m180.79 506.12c-.38 0-.75-.14-1.04-.42-.6-.58-.61-1.53-.04-2.12 3.46-3.58 5.44-8.91 5.44-14.63 0-5.15-1.61-9.99-4.45-13.51-2.88 2.49-6.32 3.84-9.84 3.84s-6.96-1.35-9.84-3.84c-2.85 3.53-4.45 8.36-4.45 13.51 0 5.72 1.98 11.05 5.44 14.63.58.6.56 1.54-.04 2.12-.59.58-1.54.56-2.12-.04-3.99-4.13-6.28-10.22-6.28-16.71s2.29-12.58 6.28-16.71c.28-.29.67-.46 1.08-.46.41 0 .8.17 1.08.46 2.55 2.64 5.62 4.04 8.85 4.04s6.3-1.4 8.85-4.04c.56-.59 1.59-.59 2.16 0 3.99 4.13 6.28 10.22 6.28 16.71s-2.29 12.58-6.28 16.71c-.29.3-.69.46-1.08.46z"/>
    <path
        d="m150.72 506.12c-.39 0-.78-.15-1.08-.46-3.99-4.13-6.28-10.22-6.28-16.71s2.29-12.58 6.28-16.71c.28-.29.67-.46 1.08-.46h10.19c.83 0 1.5.67 1.5 1.5s-.67 1.5-1.5 1.5h-9.54c-3.19 3.57-5.01 8.69-5.01 14.17s1.98 11.05 5.44 14.63c.58.6.56 1.54-.04 2.12-.29.28-.67.42-1.04.42z"/>
    <path
        d="m145.97 514.37c-.15 0-.3-.02-.44-.07-.79-.25-1.23-1.09-.99-1.88 1.07-3.43 2.83-6.49 5.11-8.85.28-.29.67-.46 1.08-.46h10.19c.83 0 1.5.67 1.5 1.5s-.67 1.5-1.5 1.5h-9.54c-1.75 1.96-3.11 4.43-3.97 7.2-.2.64-.79 1.06-1.43 1.06z"/>
    <path
        d="m48.69 329.25c-.09 0-.18 0-.27-.02-.82-.15-1.36-.92-1.21-1.74 1.78-9.96 8.71-16.91 16.87-16.91h106.76c.83 0 1.5.67 1.5 1.5s-.67 1.5-1.5 1.5h-106.76c-6.57 0-12.43 6.07-13.92 14.43-.13.73-.76 1.24-1.47 1.24z"/>
    <path
        d="m270.55 349.42c-.38 0-.75-.14-1.04-.42-.6-.58-.61-1.53-.04-2.12 3.46-3.58 5.44-8.91 5.44-14.63 0-10.29-6.41-18.67-14.29-18.67s-14.29 8.38-14.29 18.67c0 5.72 1.98 11.05 5.44 14.63.58.6.56 1.55-.04 2.12-.59.58-1.55.56-2.12-.04-3.99-4.13-6.28-10.22-6.28-16.71 0-11.95 7.76-21.67 17.29-21.67s17.29 9.72 17.29 21.67c0 6.49-2.29 12.58-6.28 16.71-.29.3-.69.46-1.08.46z"/>
    <path
        d="m270.55 474.78c-.38 0-.75-.14-1.04-.42-.6-.58-.61-1.53-.04-2.12 3.46-3.58 5.44-8.91 5.44-14.63 0-5.15-1.61-9.99-4.45-13.52-2.88 2.49-6.32 3.84-9.84 3.84s-6.96-1.35-9.84-3.84c-2.84 3.52-4.45 8.36-4.45 13.52 0 5.72 1.98 11.05 5.44 14.63.58.6.56 1.55-.04 2.12-.59.58-1.55.56-2.12-.04-3.99-4.13-6.28-10.22-6.28-16.71s2.29-12.58 6.28-16.71c.28-.29.67-.46 1.08-.46.41 0 .8.17 1.08.46 2.55 2.64 5.62 4.04 8.85 4.04s6.3-1.4 8.86-4.04c.56-.59 1.59-.59 2.16 0 3.99 4.13 6.28 10.22 6.28 16.71s-2.29 12.58-6.28 16.71c-.29.3-.69.46-1.08.46z"/>
    <path
        d="m260.61 313.58h-89.76c-.83 0-1.5-.67-1.5-1.5s.67-1.5 1.5-1.5h89.76c.83 0 1.5.67 1.5 1.5s-.67 1.5-1.5 1.5z"/>
    <path
        d="m240.49 349.42c-.39 0-.79-.15-1.08-.46-3.99-4.13-6.28-10.22-6.28-16.71 0-.83.67-1.5 1.5-1.5s1.5.67 1.5 1.5c0 5.72 1.98 11.05 5.44 14.63.58.6.56 1.55-.04 2.12-.29.28-.67.42-1.04.42z"/>
    <path
        d="m240.49 474.78c-.39 0-.79-.15-1.08-.46-3.99-4.13-6.28-10.22-6.28-16.71s2.29-12.58 6.28-16.71c.28-.29.67-.46 1.08-.46h10.19c.83 0 1.5.67 1.5 1.5s-.67 1.5-1.5 1.5h-9.54c-3.19 3.57-5.01 8.69-5.01 14.17s1.98 11.05 5.44 14.63c.58.6.56 1.55-.04 2.12-.29.28-.67.42-1.04.42z"/>
    <path
        d="m270.55 506.12c-.38 0-.75-.14-1.04-.42-.6-.58-.61-1.53-.04-2.12 3.46-3.58 5.44-8.91 5.44-14.63 0-5.15-1.61-9.99-4.45-13.51-2.88 2.49-6.32 3.84-9.84 3.84s-6.96-1.35-9.84-3.84c-2.84 3.52-4.45 8.36-4.45 13.51 0 5.72 1.98 11.05 5.44 14.63.58.6.56 1.54-.04 2.12-.59.58-1.54.56-2.12-.04-3.99-4.13-6.28-10.22-6.28-16.71s2.29-12.58 6.28-16.71c.28-.29.67-.46 1.08-.46.41 0 .8.17 1.08.46 2.55 2.64 5.62 4.04 8.85 4.04s6.3-1.4 8.86-4.04c.56-.59 1.59-.59 2.16 0 3.99 4.13 6.28 10.22 6.28 16.71s-2.29 12.58-6.28 16.71c-.29.3-.69.46-1.08.46z"/>
    <path
        d="m240.49 506.12c-.39 0-.78-.15-1.08-.46-3.99-4.13-6.28-10.22-6.28-16.71s2.29-12.58 6.28-16.71c.28-.29.67-.46 1.08-.46h10.19c.83 0 1.5.67 1.5 1.5s-.67 1.5-1.5 1.5h-9.54c-3.19 3.57-5.01 8.69-5.01 14.17s1.98 11.05 5.44 14.63c.58.6.56 1.54-.04 2.12-.29.28-.67.42-1.04.42z"/>
    <path
        d="m104.42 349.42h-26.92c-.83 0-1.5-.67-1.5-1.5s.67-1.5 1.5-1.5h26.92c.83 0 1.5.67 1.5 1.5s-.67 1.5-1.5 1.5z"/>
    <path
        d="m104.42 474.78h-26.92c-.83 0-1.5-.67-1.5-1.5s.67-1.5 1.5-1.5h26.92c.83 0 1.5.67 1.5 1.5s-.67 1.5-1.5 1.5z"/>
    <path
        d="m104.42 506.12h-26.92c-.83 0-1.5-.67-1.5-1.5s.67-1.5 1.5-1.5h26.92c.83 0 1.5.67 1.5 1.5s-.67 1.5-1.5 1.5z"/>
    <path
        d="m235.44 321.62c-.16 0-.33-.04-.48-.12-.48-.27-.66-.88-.39-1.36 3.14-5.67 8.29-9.06 13.78-9.06.55 0 1 .45 1 1s-.45 1-1 1c-4.75 0-9.25 3-12.03 8.03-.18.33-.52.52-.88.52z"/>
    <path
        d="m220.27 321.62c-.16 0-.33-.04-.48-.12-.48-.27-.66-.88-.39-1.36 3.14-5.67 8.29-9.06 13.78-9.06.55 0 1 .45 1 1s-.45 1-1 1c-4.75 0-9.25 3-12.03 8.03-.18.33-.52.52-.88.52z"/>
    <path
        d="m205.1 321.62c-.16 0-.33-.04-.48-.12-.48-.27-.66-.88-.39-1.36 3.14-5.67 8.29-9.06 13.78-9.06.55 0 1 .45 1 1s-.45 1-1 1c-4.75 0-9.25 3-12.03 8.03-.18.33-.52.52-.88.52z"/>
    <path
        d="m189.92 321.62c-.16 0-.33-.04-.48-.12-.48-.27-.66-.88-.39-1.36 3.14-5.67 8.29-9.06 13.78-9.06.55 0 1 .45 1 1s-.45 1-1 1c-4.75 0-9.25 3-12.03 8.03-.18.33-.52.52-.88.52z"/>
    <path
        d="m145.16 321.62c-.16 0-.33-.04-.48-.12-.48-.27-.66-.88-.39-1.36 3.14-5.67 8.29-9.06 13.78-9.06.55 0 1 .45 1 1s-.45 1-1 1c-4.75 0-9.25 3-12.03 8.03-.18.33-.52.52-.88.52z"/>
    <path
        d="m129.99 321.62c-.16 0-.33-.04-.48-.12-.48-.27-.66-.88-.39-1.36 3.14-5.67 8.29-9.06 13.78-9.06.55 0 1 .45 1 1s-.45 1-1 1c-4.75 0-9.25 3-12.03 8.03-.18.33-.52.52-.88.52z"/>
    <path
        d="m86.04 357.46c-.16 0-.33-.04-.48-.12-.48-.27-.66-.88-.39-1.36 3.14-5.67 8.29-9.06 13.78-9.06.55 0 1 .45 1 1s-.45 1-1 1c-4.75 0-9.25 3-12.03 8.03-.18.33-.52.52-.88.52z"/>
    <path
        d="m86.04 482.82c-.16 0-.33-.04-.48-.12-.48-.27-.66-.88-.39-1.36 3.14-5.67 8.29-9.06 13.78-9.06.55 0 1 .45 1 1s-.45 1-1 1c-4.75 0-9.25 3-12.03 8.03-.18.33-.52.52-.88.52z"/>
    <path
        d="m86.04 514.16c-.16 0-.33-.04-.48-.12-.48-.27-.66-.88-.39-1.36 3.14-5.67 8.29-9.06 13.78-9.06.55 0 1 .45 1 1s-.45 1-1 1c-4.75 0-9.25 3-12.03 8.03-.18.33-.52.52-.88.52z"/>
    <path
        d="m224.19 341.79c-.35 0-.69-.19-.88-.52-2.78-5.03-7.28-8.03-12.03-8.03-.55 0-1-.45-1-1s.45-1 1-1c5.49 0 10.64 3.39 13.78 9.06.27.48.09 1.09-.39 1.36-.15.08-.32.12-.48.12z"/>
    <path
        d="m224.19 467.15c-.35 0-.69-.19-.88-.52-2.78-5.03-7.28-8.03-12.03-8.03-.55 0-1-.45-1-1s.45-1 1-1c5.49 0 10.64 3.39 13.78 9.06.27.48.09 1.09-.39 1.36-.15.08-.32.12-.48.12z"/>
    <path
        d="m224.19 498.49c-.35 0-.69-.19-.88-.52-2.78-5.03-7.28-8.03-12.03-8.03-.55 0-1-.45-1-1s.45-1 1-1c5.49 0 10.64 3.39 13.78 9.06.27.48.09 1.09-.39 1.36-.15.08-.32.12-.48.12z"/>
    <path
        d="m209.99 341.79c-.35 0-.69-.19-.88-.52-2.78-5.03-7.28-8.03-12.03-8.03-.55 0-1-.45-1-1s.45-1 1-1c5.49 0 10.64 3.39 13.78 9.06.27.48.09 1.09-.39 1.36-.15.08-.32.12-.48.12z"/>
    <path
        d="m209.99 467.15c-.35 0-.69-.19-.88-.52-2.78-5.03-7.28-8.03-12.03-8.03-.55 0-1-.45-1-1s.45-1 1-1c5.49 0 10.64 3.39 13.78 9.06.27.48.09 1.09-.39 1.36-.15.08-.32.12-.48.12z"/>
    <path
        d="m209.99 498.49c-.35 0-.69-.19-.88-.52-2.78-5.03-7.28-8.03-12.03-8.03-.55 0-1-.45-1-1s.45-1 1-1c5.49 0 10.64 3.39 13.78 9.06.27.48.09 1.09-.39 1.36-.15.08-.32.12-.48.12z"/>
    <path
        d="m114.82 321.62c-.16 0-.33-.04-.48-.12-.48-.27-.66-.88-.39-1.36 3.14-5.67 8.29-9.06 13.78-9.06.55 0 1 .45 1 1s-.45 1-1 1c-4.75 0-9.25 3-12.03 8.03-.18.33-.52.52-.88.52z"/>
    <path
        d="m99.65 321.62c-.16 0-.33-.04-.48-.12-.48-.27-.66-.88-.39-1.36 3.14-5.67 8.29-9.06 13.78-9.06.55 0 1 .45 1 1s-.45 1-1 1c-4.75 0-9.25 3-12.03 8.03-.18.33-.52.52-.88.52z"/>
    <path
        d="m84 321.62c-.16 0-.33-.04-.48-.12-.48-.27-.66-.88-.39-1.36 3.14-5.67 8.29-9.06 13.78-9.06.55 0 1 .45 1 1s-.45 1-1 1c-4.75 0-9.25 3-12.03 8.03-.18.33-.52.52-.88.52z"/>
    <path
        d="m68.83 321.62c-.16 0-.33-.04-.48-.12-.48-.27-.66-.88-.39-1.36 3.14-5.67 8.29-9.06 13.78-9.06.55 0 1 .45 1 1s-.45 1-1 1c-4.75 0-9.25 3-12.03 8.03-.18.33-.52.52-.88.52z"/>
    <path
        d="m234.63 490.45h-47.99c-.83 0-1.5-.67-1.5-1.5s.67-1.5 1.5-1.5h47.99c.83 0 1.5.67 1.5 1.5s-.67 1.5-1.5 1.5z"/>
    <path
        d="m234.63 459.11h-47.99c-.83 0-1.5-.67-1.5-1.5s.67-1.5 1.5-1.5h47.99c.83 0 1.5.67 1.5 1.5s-.67 1.5-1.5 1.5z"/>
    <path
        d="m126.15 459.11c-.33 0-.67-.11-.95-.34-.64-.52-.74-1.47-.21-2.11 2.93-3.59 4.61-8.96 4.61-14.72 0-5.05-1.29-9.79-3.58-13.31-2.42 2.36-5.3 3.64-8.26 3.64s-5.84-1.28-8.26-3.64c-2.29 3.51-3.58 8.26-3.58 13.31 0 5.76 1.68 11.13 4.61 14.72.52.64.43 1.59-.21 2.11s-1.59.43-2.11-.21c-3.36-4.12-5.29-10.18-5.29-16.62s1.93-12.5 5.29-16.62c.57-.7 1.75-.7 2.32 0 1.47 1.8 3.92 3.95 7.23 3.95s5.76-2.15 7.23-3.95c.29-.35.71-.55 1.16-.55.45 0 .88.2 1.16.55 3.36 4.12 5.29 10.18 5.29 16.62s-1.93 12.5-5.29 16.62c-.3.36-.73.55-1.16.55z"/>
    <path
        d="m142.03 459.11c-.33 0-.67-.11-.95-.34-.64-.52-.74-1.47-.21-2.11 2.93-3.59 4.61-8.96 4.61-14.72s-1.52-10.59-4.18-14.17h-15.14c-.83 0-1.5-.67-1.5-1.5s.67-1.5 1.5-1.5h15.87c.45 0 .88.2 1.16.55 3.36 4.12 5.29 10.18 5.29 16.62s-1.93 12.5-5.29 16.62c-.3.36-.73.55-1.16.55z"/>
    <path
        d="m56.69 459.11c-.33 0-.67-.11-.95-.34-.64-.52-.74-1.47-.21-2.11 2.93-3.59 4.61-8.96 4.61-14.72 0-5.05-1.29-9.79-3.58-13.31-2.42 2.36-5.3 3.64-8.26 3.64s-5.84-1.28-8.26-3.64c-2.29 3.51-3.58 8.26-3.58 13.31 0 5.76 1.68 11.13 4.61 14.72.52.64.43 1.59-.21 2.11s-1.59.43-2.11-.21c-3.36-4.12-5.29-10.18-5.29-16.62s1.93-12.5 5.29-16.62c.57-.7 1.75-.7 2.32 0 1.47 1.8 3.92 3.95 7.23 3.95s5.76-2.15 7.23-3.95c.29-.35.71-.55 1.16-.55.45 0 .88.2 1.16.55 3.36 4.12 5.29 10.18 5.29 16.62s-1.93 12.5-5.29 16.62c-.3.36-.73.55-1.16.55z"/>
    <path
        d="m72.56 459.11c-.33 0-.67-.11-.95-.34-.64-.52-.74-1.47-.21-2.11 2.93-3.59 4.61-8.96 4.61-14.72s-1.52-10.59-4.18-14.17h-15.14c-.83 0-1.5-.67-1.5-1.5s.67-1.5 1.5-1.5h15.87c.45 0 .88.2 1.16.55 3.36 4.12 5.29 10.18 5.29 16.62s-1.93 12.5-5.29 16.62c-.3.36-.73.55-1.16.55z"/>
    <path
        d="m180.79 443.44c-.38 0-.75-.14-1.04-.42-.6-.58-.61-1.53-.04-2.12 3.46-3.58 5.44-8.91 5.44-14.63 0-5.15-1.61-9.99-4.45-13.51-2.88 2.49-6.32 3.84-9.84 3.84s-6.96-1.35-9.84-3.84c-2.85 3.53-4.45 8.36-4.45 13.51 0 5.72 1.98 11.05 5.44 14.63.58.6.56 1.54-.04 2.12-.59.58-1.54.56-2.12-.04-3.99-4.13-6.28-10.22-6.28-16.71s2.29-12.58 6.28-16.71c.28-.29.67-.46 1.08-.46.41 0 .8.17 1.08.46 2.55 2.64 5.62 4.04 8.85 4.04s6.3-1.4 8.85-4.04c.56-.59 1.59-.59 2.16 0 3.99 4.13 6.28 10.22 6.28 16.71s-2.29 12.58-6.28 16.71c-.29.3-.69.46-1.08.46z"/>
    <path
        d="m150.72 443.44c-.39 0-.78-.15-1.08-.46-3.99-4.13-6.28-10.22-6.28-16.71s2.29-12.58 6.28-16.71c.28-.29.67-.46 1.08-.46h10.19c.83 0 1.5.67 1.5 1.5s-.67 1.5-1.5 1.5h-9.54c-3.19 3.57-5.01 8.69-5.01 14.17s1.98 11.05 5.44 14.63c.58.6.56 1.54-.04 2.12-.29.28-.67.42-1.04.42z"/>
    <path
        d="m270.55 443.44c-.38 0-.75-.14-1.04-.42-.6-.58-.61-1.53-.04-2.12 3.46-3.58 5.44-8.91 5.44-14.63 0-5.15-1.61-9.99-4.45-13.51-2.88 2.49-6.32 3.84-9.84 3.84s-6.96-1.35-9.84-3.84c-2.84 3.52-4.45 8.36-4.45 13.51 0 5.72 1.98 11.05 5.44 14.63.58.6.56 1.54-.04 2.12-.59.58-1.54.56-2.12-.04-3.99-4.13-6.28-10.22-6.28-16.71s2.29-12.58 6.28-16.71c.28-.29.67-.46 1.08-.46.41 0 .8.17 1.08.46 2.55 2.64 5.62 4.04 8.85 4.04s6.3-1.4 8.86-4.04c.56-.59 1.59-.59 2.16 0 3.99 4.13 6.28 10.22 6.28 16.71s-2.29 12.58-6.28 16.71c-.29.3-.69.46-1.08.46z"/>
    <path
        d="m240.49 443.44c-.39 0-.78-.15-1.08-.46-3.99-4.13-6.28-10.22-6.28-16.71s2.29-12.58 6.28-16.71c.28-.29.67-.46 1.08-.46h10.19c.83 0 1.5.67 1.5 1.5s-.67 1.5-1.5 1.5h-9.54c-3.19 3.57-5.01 8.69-5.01 14.17s1.98 11.05 5.44 14.63c.58.6.56 1.54-.04 2.12-.29.28-.67.42-1.04.42z"/>
    <path
        d="m104.42 443.44h-26.92c-.83 0-1.5-.67-1.5-1.5s.67-1.5 1.5-1.5h26.92c.83 0 1.5.67 1.5 1.5s-.67 1.5-1.5 1.5z"/>
    <path
        d="m86.04 451.48c-.16 0-.33-.04-.48-.12-.48-.27-.66-.88-.39-1.36 3.14-5.67 8.29-9.06 13.78-9.06.55 0 1 .45 1 1s-.45 1-1 1c-4.75 0-9.25 3-12.03 8.03-.18.33-.52.52-.88.52z"/>
    <path
        d="m224.19 435.81c-.35 0-.69-.19-.88-.52-2.78-5.03-7.28-8.03-12.03-8.03-.55 0-1-.45-1-1s.45-1 1-1c5.49 0 10.64 3.39 13.78 9.06.27.48.09 1.09-.39 1.36-.15.08-.32.12-.48.12z"/>
    <path
        d="m209.99 435.81c-.35 0-.69-.19-.88-.52-2.78-5.03-7.28-8.03-12.03-8.03-.55 0-1-.45-1-1s.45-1 1-1c5.49 0 10.64 3.39 13.78 9.06.27.48.09 1.09-.39 1.36-.15.08-.32.12-.48.12z"/>
    <path
        d="m234.63 427.77h-47.99c-.83 0-1.5-.67-1.5-1.5s.67-1.5 1.5-1.5h47.99c.83 0 1.5.67 1.5 1.5s-.67 1.5-1.5 1.5z"/>
    <path
        d="m126.15 427.77c-.33 0-.67-.11-.95-.34-.64-.52-.74-1.47-.21-2.11 2.93-3.59 4.61-8.96 4.61-14.72 0-5.05-1.29-9.79-3.58-13.31-2.42 2.36-5.3 3.64-8.26 3.64s-5.84-1.28-8.26-3.64c-2.29 3.51-3.58 8.26-3.58 13.31 0 5.76 1.68 11.13 4.61 14.72.52.64.43 1.59-.21 2.11s-1.59.43-2.11-.21c-3.36-4.12-5.29-10.18-5.29-16.62s1.93-12.5 5.29-16.62c.57-.7 1.75-.7 2.32 0 1.47 1.8 3.92 3.95 7.23 3.95s5.76-2.15 7.23-3.95c.29-.35.71-.55 1.16-.55.45 0 .88.2 1.16.55 3.36 4.12 5.29 10.17 5.29 16.62s-1.93 12.5-5.29 16.62c-.3.36-.73.55-1.16.55z"/>
    <path
        d="m142.03 427.77c-.33 0-.67-.11-.95-.34-.64-.52-.74-1.47-.21-2.11 2.93-3.59 4.61-8.96 4.61-14.72s-1.52-10.59-4.18-14.17h-15.14c-.83 0-1.5-.67-1.5-1.5s.67-1.5 1.5-1.5h15.87c.45 0 .88.2 1.16.55 3.36 4.12 5.29 10.17 5.29 16.62s-1.93 12.5-5.29 16.62c-.3.36-.73.55-1.16.55z"/>
    <path
        d="m56.69 427.77c-.33 0-.67-.11-.95-.34-.64-.52-.74-1.47-.21-2.11 2.93-3.59 4.61-8.96 4.61-14.72 0-5.05-1.29-9.79-3.58-13.31-2.42 2.36-5.3 3.64-8.26 3.64s-5.84-1.28-8.26-3.64c-2.29 3.51-3.58 8.26-3.58 13.31 0 5.76 1.68 11.13 4.61 14.72.52.64.43 1.59-.21 2.11s-1.59.43-2.11-.21c-3.36-4.12-5.29-10.18-5.29-16.62s1.93-12.5 5.29-16.62c.57-.7 1.75-.7 2.32 0 1.47 1.8 3.92 3.95 7.23 3.95s5.76-2.15 7.23-3.95c.29-.35.71-.55 1.16-.55.45 0 .88.2 1.16.55 3.36 4.12 5.29 10.17 5.29 16.62s-1.93 12.5-5.29 16.62c-.3.36-.73.55-1.16.55z"/>
    <path
        d="m72.56 427.77c-.33 0-.67-.11-.95-.34-.64-.52-.74-1.47-.21-2.11 2.93-3.59 4.61-8.96 4.61-14.72s-1.52-10.59-4.18-14.17h-15.14c-.83 0-1.5-.67-1.5-1.5s.67-1.5 1.5-1.5h15.87c.45 0 .88.2 1.16.55 3.36 4.12 5.29 10.17 5.29 16.62s-1.93 12.5-5.29 16.62c-.3.36-.73.55-1.16.55z"/>
    <path
        d="m180.79 412.1c-.38 0-.75-.14-1.04-.42-.6-.58-.61-1.53-.04-2.12 3.46-3.58 5.44-8.91 5.44-14.63 0-5.15-1.61-9.99-4.45-13.52-2.88 2.49-6.32 3.84-9.84 3.84s-6.96-1.35-9.84-3.84c-2.85 3.53-4.45 8.36-4.45 13.52 0 5.72 1.98 11.05 5.44 14.63.58.6.56 1.55-.04 2.12-.59.58-1.55.56-2.12-.04-3.99-4.13-6.28-10.22-6.28-16.71s2.29-12.58 6.28-16.71c.28-.29.67-.46 1.08-.46.41 0 .8.17 1.08.46 2.55 2.64 5.62 4.04 8.85 4.04s6.3-1.4 8.85-4.04c.56-.59 1.59-.59 2.16 0 3.99 4.13 6.28 10.22 6.28 16.71s-2.29 12.58-6.28 16.71c-.29.3-.69.46-1.08.46z"/>
    <path
        d="m150.72 412.1c-.39 0-.79-.15-1.08-.46-3.99-4.13-6.28-10.22-6.28-16.71s2.29-12.58 6.28-16.71c.28-.29.67-.46 1.08-.46h10.19c.83 0 1.5.67 1.5 1.5s-.67 1.5-1.5 1.5h-9.54c-3.19 3.57-5.01 8.69-5.01 14.17s1.98 11.05 5.44 14.63c.58.6.56 1.55-.04 2.12-.29.28-.67.42-1.04.42z"/>
    <path
        d="m270.55 412.1c-.38 0-.75-.14-1.04-.42-.6-.58-.61-1.53-.04-2.12 3.46-3.58 5.44-8.91 5.44-14.63 0-5.15-1.61-9.99-4.45-13.52-2.88 2.49-6.32 3.84-9.84 3.84s-6.96-1.35-9.84-3.84c-2.84 3.52-4.45 8.36-4.45 13.52 0 5.72 1.98 11.05 5.44 14.63.58.6.56 1.55-.04 2.12-.59.58-1.55.56-2.12-.04-3.99-4.13-6.28-10.22-6.28-16.71s2.29-12.58 6.28-16.71c.28-.29.67-.46 1.08-.46.41 0 .8.17 1.08.46 2.55 2.64 5.62 4.04 8.85 4.04s6.3-1.4 8.86-4.04c.56-.59 1.59-.59 2.16 0 3.99 4.13 6.28 10.22 6.28 16.71s-2.29 12.58-6.28 16.71c-.29.3-.69.46-1.08.46z"/>
    <path
        d="m240.49 412.1c-.39 0-.79-.15-1.08-.46-3.99-4.13-6.28-10.22-6.28-16.71s2.29-12.58 6.28-16.71c.28-.29.67-.46 1.08-.46h10.19c.83 0 1.5.67 1.5 1.5s-.67 1.5-1.5 1.5h-9.54c-3.19 3.57-5.01 8.69-5.01 14.17s1.98 11.05 5.44 14.63c.58.6.56 1.55-.04 2.12-.29.28-.67.42-1.04.42z"/>
    <path d="m104.42 412.1h-26.92c-.83 0-1.5-.67-1.5-1.5s.67-1.5 1.5-1.5h26.92c.83 0 1.5.67 1.5 1.5s-.67 1.5-1.5 1.5z"/>
    <path
        d="m86.04 420.14c-.16 0-.33-.04-.48-.12-.48-.27-.66-.88-.39-1.36 3.14-5.67 8.29-9.06 13.78-9.06.55 0 1 .45 1 1s-.45 1-1 1c-4.75 0-9.25 3-12.03 8.03-.18.33-.52.52-.88.52z"/>
    <path
        d="m224.19 404.47c-.35 0-.69-.19-.88-.52-2.78-5.03-7.28-8.03-12.03-8.03-.55 0-1-.45-1-1s.45-1 1-1c5.49 0 10.64 3.39 13.78 9.06.27.48.09 1.09-.39 1.36-.15.08-.32.12-.48.12z"/>
    <path
        d="m209.99 404.47c-.35 0-.69-.19-.88-.52-2.78-5.03-7.28-8.03-12.03-8.03-.55 0-1-.45-1-1s.45-1 1-1c5.49 0 10.64 3.39 13.78 9.06.27.48.09 1.09-.39 1.36-.15.08-.32.12-.48.12z"/>
    <path
        d="m234.63 396.43h-47.99c-.83 0-1.5-.67-1.5-1.5s.67-1.5 1.5-1.5h47.99c.83 0 1.5.67 1.5 1.5s-.67 1.5-1.5 1.5z"/>
    <path
        d="m126.15 396.43c-.33 0-.67-.11-.95-.34-.64-.52-.74-1.47-.21-2.11 2.93-3.59 4.61-8.96 4.61-14.72 0-5.05-1.29-9.79-3.58-13.31-2.42 2.36-5.3 3.64-8.26 3.64s-5.84-1.28-8.26-3.64c-2.29 3.51-3.58 8.26-3.58 13.31 0 5.76 1.68 11.13 4.61 14.72.52.64.43 1.59-.21 2.11s-1.59.43-2.11-.21c-3.36-4.12-5.29-10.18-5.29-16.62s1.93-12.5 5.29-16.62c.57-.7 1.75-.7 2.32 0 1.47 1.8 3.92 3.95 7.23 3.95s5.76-2.15 7.23-3.95c.29-.35.71-.55 1.16-.55.45 0 .88.2 1.16.55 3.36 4.12 5.29 10.18 5.29 16.62s-1.93 12.5-5.29 16.62c-.3.36-.73.55-1.16.55z"/>
    <path
        d="m142.03 396.43c-.33 0-.67-.11-.95-.34-.64-.52-.74-1.47-.21-2.11 2.93-3.59 4.61-8.96 4.61-14.72s-1.52-10.59-4.18-14.17h-15.14c-.83 0-1.5-.67-1.5-1.5s.67-1.5 1.5-1.5h15.87c.45 0 .88.2 1.16.55 3.36 4.12 5.29 10.18 5.29 16.62s-1.93 12.5-5.29 16.62c-.3.36-.73.55-1.16.55z"/>
    <path
        d="m56.69 396.43c-.33 0-.67-.11-.95-.34-.64-.52-.74-1.47-.21-2.11 2.93-3.59 4.61-8.96 4.61-14.72 0-5.05-1.29-9.79-3.58-13.31-2.42 2.36-5.3 3.64-8.26 3.64s-5.84-1.28-8.26-3.64c-2.29 3.51-3.58 8.26-3.58 13.31 0 5.76 1.68 11.13 4.61 14.72.52.64.43 1.59-.21 2.11s-1.59.43-2.11-.21c-3.36-4.12-5.29-10.18-5.29-16.62s1.93-12.5 5.29-16.62c.57-.7 1.75-.7 2.32 0 1.47 1.8 3.92 3.95 7.23 3.95s5.76-2.15 7.23-3.95c.29-.35.71-.55 1.16-.55.45 0 .88.2 1.16.55 3.36 4.12 5.29 10.18 5.29 16.62s-1.93 12.5-5.29 16.62c-.3.36-.73.55-1.16.55z"/>
    <path
        d="m72.56 396.43c-.33 0-.67-.11-.95-.34-.64-.52-.74-1.47-.21-2.11 2.93-3.59 4.61-8.96 4.61-14.72s-1.52-10.59-4.18-14.17h-15.14c-.83 0-1.5-.67-1.5-1.5s.67-1.5 1.5-1.5h15.87c.45 0 .88.2 1.16.55 3.36 4.12 5.29 10.18 5.29 16.62s-1.93 12.5-5.29 16.62c-.3.36-.73.55-1.16.55z"/>
    <path
        d="m180.79 380.76c-.38 0-.75-.14-1.04-.42-.6-.58-.61-1.53-.04-2.12 3.46-3.58 5.44-8.91 5.44-14.63 0-5.15-1.61-9.99-4.45-13.51-2.88 2.49-6.32 3.84-9.84 3.84s-6.96-1.35-9.84-3.84c-2.85 3.53-4.45 8.36-4.45 13.51 0 5.72 1.98 11.05 5.44 14.63.58.6.56 1.54-.04 2.12-.59.58-1.54.56-2.12-.04-3.99-4.13-6.28-10.22-6.28-16.71s2.29-12.58 6.28-16.71c.28-.29.67-.46 1.08-.46.41 0 .8.17 1.08.46 2.55 2.64 5.62 4.04 8.85 4.04s6.3-1.4 8.85-4.04c.56-.59 1.59-.59 2.16 0 3.99 4.13 6.28 10.22 6.28 16.71s-2.29 12.58-6.28 16.71c-.29.3-.69.46-1.08.46z"/>
    <path
        d="m150.72 380.76c-.39 0-.78-.15-1.08-.46-3.99-4.13-6.28-10.22-6.28-16.71s2.29-12.58 6.28-16.71c.28-.29.67-.46 1.08-.46h10.19c.83 0 1.5.67 1.5 1.5s-.67 1.5-1.5 1.5h-9.54c-3.19 3.57-5.01 8.69-5.01 14.17s1.98 11.05 5.44 14.63c.58.6.56 1.54-.04 2.12-.29.28-.67.42-1.04.42z"/>
    <path
        d="m270.55 380.76c-.38 0-.75-.14-1.04-.42-.6-.58-.61-1.53-.04-2.12 3.46-3.58 5.44-8.91 5.44-14.63 0-5.15-1.61-9.99-4.45-13.51-2.88 2.49-6.32 3.84-9.84 3.84s-6.96-1.35-9.84-3.84c-2.84 3.52-4.45 8.36-4.45 13.51 0 5.72 1.98 11.05 5.44 14.63.58.6.56 1.54-.04 2.12-.59.58-1.54.56-2.12-.04-3.99-4.13-6.28-10.22-6.28-16.71s2.29-12.58 6.28-16.71c.28-.29.67-.46 1.08-.46.41 0 .8.17 1.08.46 2.55 2.64 5.62 4.04 8.85 4.04s6.3-1.4 8.86-4.04c.56-.59 1.59-.59 2.16 0 3.99 4.13 6.28 10.22 6.28 16.71s-2.29 12.58-6.28 16.71c-.29.3-.69.46-1.08.46z"/>
    <path
        d="m240.49 380.76c-.39 0-.78-.15-1.08-.46-3.99-4.13-6.28-10.22-6.28-16.71s2.29-12.58 6.28-16.71c.28-.29.67-.46 1.08-.46h10.19c.83 0 1.5.67 1.5 1.5s-.67 1.5-1.5 1.5h-9.54c-3.19 3.57-5.01 8.69-5.01 14.17s1.98 11.05 5.44 14.63c.58.6.56 1.54-.04 2.12-.29.28-.67.42-1.04.42z"/>
    <path
        d="m104.42 380.76h-26.92c-.83 0-1.5-.67-1.5-1.5s.67-1.5 1.5-1.5h26.92c.83 0 1.5.67 1.5 1.5s-.67 1.5-1.5 1.5z"/>
    <path
        d="m86.04 388.8c-.16 0-.33-.04-.48-.12-.48-.27-.66-.88-.39-1.36 3.14-5.67 8.29-9.06 13.78-9.06.55 0 1 .45 1 1s-.45 1-1 1c-4.75 0-9.25 3-12.03 8.03-.18.33-.52.52-.88.52z"/>
    <path
        d="m224.19 373.13c-.35 0-.69-.19-.88-.52-2.78-5.03-7.28-8.03-12.03-8.03-.55 0-1-.45-1-1s.45-1 1-1c5.49 0 10.64 3.39 13.78 9.06.27.48.09 1.09-.39 1.36-.15.08-.32.12-.48.12z"/>
    <path
        d="m209.99 373.13c-.35 0-.69-.19-.88-.52-2.78-5.03-7.28-8.03-12.03-8.03-.55 0-1-.45-1-1s.45-1 1-1c5.49 0 10.64 3.39 13.78 9.06.27.48.09 1.09-.39 1.36-.15.08-.32.12-.48.12z"/>
    <path
        d="m234.63 365.09h-47.99c-.83 0-1.5-.67-1.5-1.5s.67-1.5 1.5-1.5h47.99c.83 0 1.5.67 1.5 1.5s-.67 1.5-1.5 1.5z"/>
    <path
        d="m234.63 333.75h-47.99c-.83 0-1.5-.67-1.5-1.5s.67-1.5 1.5-1.5h47.99c.83 0 1.5.67 1.5 1.5s-.67 1.5-1.5 1.5z"/>
    <path
        d="m172.71 557.86c-.33 0-.67-.11-.95-.34-.64-.52-.74-1.47-.21-2.11 2.93-3.59 4.61-8.96 4.61-14.72 0-10.29-5.31-18.67-11.84-18.67s-11.84 8.38-11.84 18.67c0 5.76 1.68 11.13 4.61 14.72.52.64.43 1.59-.21 2.11s-1.59.43-2.11-.21c-3.36-4.12-5.29-10.17-5.29-16.62 0-11.95 6.66-21.67 14.84-21.67s14.84 9.72 14.84 21.67c0 6.44-1.93 12.5-5.29 16.62-.3.36-.73.55-1.16.55z"/>
    <path
        d="m155.92 589.2c-.44 0-.87-.19-1.16-.55-3.36-4.12-5.29-10.17-5.29-16.62s1.93-12.5 5.29-16.62c.29-.35.71-.55 1.16-.55.45 0 .88.2 1.16.55 1.47 1.8 3.92 3.95 7.23 3.95s5.76-2.15 7.23-3.95c.29-.35.71-.55 1.16-.55.45 0 .88.2 1.16.55 3.36 4.12 5.29 10.18 5.29 16.62s-1.93 12.5-5.29 16.62c-.52.64-1.47.74-2.11.21-.64-.52-.74-1.47-.21-2.11 2.93-3.59 4.61-8.96 4.61-14.72 0-5.05-1.29-9.79-3.58-13.31-2.42 2.36-5.3 3.64-8.26 3.64s-5.84-1.28-8.26-3.64c-2.29 3.51-3.58 8.26-3.58 13.31 0 5.76 1.68 11.13 4.61 14.72.52.64.43 1.59-.21 2.11-.28.23-.61.34-.95.34z"/>
    <path
        d="m164.32 625.04c-8.18 0-14.84-9.72-14.84-21.67 0-6.44 1.93-12.5 5.29-16.62.29-.35.71-.55 1.16-.55.45 0 .88.2 1.16.55 1.47 1.8 3.92 3.95 7.23 3.95s5.76-2.15 7.23-3.95c.29-.35.71-.55 1.16-.55.45 0 .88.2 1.16.55 3.36 4.12 5.29 10.18 5.29 16.62 0 11.95-6.66 21.67-14.84 21.67zm-8.26-34.98c-2.29 3.51-3.58 8.26-3.58 13.31 0 10.29 5.31 18.67 11.84 18.67s11.84-8.38 11.84-18.67c0-5.05-1.29-9.79-3.58-13.31-2.42 2.36-5.3 3.64-8.26 3.64s-5.84-1.28-8.26-3.64z"/>
    <path
        d="m188.58 557.86c-.33 0-.67-.11-.95-.34-.64-.52-.74-1.47-.21-2.11 2.93-3.59 4.61-8.96 4.61-14.72 0-10.29-5.31-18.67-11.84-18.67h-15.87c-.83 0-1.5-.67-1.5-1.5s.67-1.5 1.5-1.5h15.87c8.18 0 14.84 9.72 14.84 21.67 0 6.44-1.93 12.5-5.29 16.62-.3.36-.73.55-1.16.55z"/>
    <path
        d="m188.58 589.2c-.33 0-.67-.11-.95-.34-.64-.52-.74-1.47-.21-2.11 2.93-3.59 4.61-8.96 4.61-14.72s-1.52-10.59-4.18-14.17h-15.14c-.83 0-1.5-.67-1.5-1.5s.67-1.5 1.5-1.5h15.87c.45 0 .88.2 1.16.55 3.36 4.12 5.29 10.18 5.29 16.62s-1.93 12.5-5.29 16.62c-.3.36-.73.55-1.16.55z"/>
    <path
        d="m180.19 625.04h-15.87c-.83 0-1.5-.67-1.5-1.5s.67-1.5 1.5-1.5h15.87c6.53 0 11.84-8.38 11.84-18.67 0-5.48-1.52-10.59-4.18-14.17h-15.14c-.83 0-1.5-.67-1.5-1.5s.67-1.5 1.5-1.5h15.87c.45 0 .88.2 1.16.55 3.36 4.12 5.29 10.18 5.29 16.62 0 11.95-6.66 21.67-14.84 21.67z"/>
    <path
        d="m39.91 557.86c-.44 0-.87-.19-1.16-.55-3.36-4.12-5.29-10.18-5.29-16.62 0-8.14 3.05-15.51 7.96-19.23.66-.5 1.6-.37 2.1.29s.37 1.6-.29 2.1c-4.11 3.12-6.77 9.73-6.77 16.84 0 5.76 1.68 11.13 4.61 14.72.52.64.43 1.59-.21 2.11-.28.23-.61.34-.95.34z"/>
    <path
        d="m56.69 557.86c-.33 0-.67-.11-.95-.34-.64-.52-.74-1.47-.21-2.11 2.93-3.59 4.61-8.96 4.61-14.72s-1.74-11.34-4.78-14.93c-.54-.63-.46-1.58.18-2.11s1.58-.45 2.11.18c3.49 4.12 5.48 10.27 5.48 16.87s-1.93 12.5-5.29 16.62c-.3.36-.73.55-1.16.55z"/>
    <path
        d="m56.69 589.2c-.33 0-.67-.11-.95-.34-.64-.52-.74-1.47-.21-2.11 2.93-3.59 4.61-8.96 4.61-14.72 0-5.05-1.29-9.79-3.58-13.31-2.42 2.36-5.3 3.64-8.26 3.64s-5.84-1.28-8.26-3.64c-2.29 3.51-3.58 8.26-3.58 13.31 0 5.76 1.68 11.13 4.61 14.72.52.64.43 1.59-.21 2.11s-1.59.43-2.11-.21c-3.36-4.12-5.29-10.17-5.29-16.62s1.93-12.5 5.29-16.62c.57-.7 1.75-.7 2.32 0 1.47 1.8 3.92 3.95 7.23 3.95s5.76-2.15 7.23-3.95c.29-.35.71-.55 1.16-.55.45 0 .88.2 1.16.55 3.36 4.12 5.29 10.18 5.29 16.62s-1.93 12.5-5.29 16.62c-.3.36-.73.55-1.16.55z"/>
    <path
        d="m48.3 625.04c-8.18 0-14.84-9.72-14.84-21.67 0-6.44 1.93-12.5 5.29-16.62.57-.7 1.75-.7 2.32 0 1.47 1.8 3.92 3.95 7.23 3.95s5.76-2.15 7.23-3.95c.29-.35.71-.55 1.16-.55.45 0 .88.2 1.16.55 3.36 4.12 5.29 10.18 5.29 16.62 0 11.95-6.66 21.67-14.84 21.67zm-8.26-34.98c-2.29 3.51-3.58 8.26-3.58 13.31 0 10.29 5.31 18.67 11.84 18.67s11.84-8.38 11.84-18.67c0-5.05-1.29-9.79-3.58-13.31-2.42 2.36-5.3 3.64-8.26 3.64s-5.84-1.28-8.26-3.64z"/>
    <path
        d="m72.56 557.86c-.33 0-.67-.11-.95-.34-.64-.52-.74-1.47-.21-2.11 2.93-3.59 4.61-8.96 4.61-14.72 0-7.11-2.66-13.72-6.77-16.84-.66-.5-.79-1.44-.29-2.1s1.44-.79 2.1-.29c4.91 3.72 7.96 11.09 7.96 19.23 0 6.44-1.93 12.5-5.29 16.62-.3.36-.73.55-1.16.55z"/>
    <path
        d="m72.56 589.2c-.33 0-.67-.11-.95-.34-.64-.52-.74-1.47-.21-2.11 2.93-3.59 4.61-8.96 4.61-14.72s-1.52-10.59-4.18-14.17h-15.14c-.83 0-1.5-.67-1.5-1.5s.67-1.5 1.5-1.5h15.87c.45 0 .88.2 1.16.55 3.36 4.12 5.29 10.18 5.29 16.62s-1.93 12.5-5.29 16.62c-.3.36-.73.55-1.16.55z"/>
    <path
        d="m64.17 625.04h-15.87c-.83 0-1.5-.67-1.5-1.5s.67-1.5 1.5-1.5h15.87c6.53 0 11.84-8.38 11.84-18.67 0-5.48-1.52-10.59-4.18-14.17h-15.14c-.83 0-1.5-.67-1.5-1.5s.67-1.5 1.5-1.5h15.87c.45 0 .88.2 1.16.55 3.36 4.12 5.29 10.18 5.29 16.62 0 11.95-6.66 21.67-14.84 21.67z"/>
    <path
        d="m227.34 542.19c-.38 0-.75-.14-1.04-.42-.6-.58-.61-1.53-.04-2.12 3.46-3.58 5.44-8.91 5.44-14.63 0-10.29-6.41-18.67-14.29-18.67s-14.29 8.38-14.29 18.67c0 5.72 1.98 11.05 5.44 14.63.58.6.56 1.55-.04 2.12-.59.58-1.54.56-2.12-.04-3.99-4.13-6.28-10.22-6.28-16.71 0-11.95 7.76-21.67 17.29-21.67s17.29 9.72 17.29 21.67c0 6.49-2.29 12.58-6.28 16.71-.29.3-.69.46-1.08.46z"/>
    <path
        d="m227.34 573.53c-.38 0-.75-.14-1.04-.42-.6-.58-.61-1.53-.04-2.12 3.46-3.58 5.44-8.91 5.44-14.63 0-5.15-1.61-9.99-4.45-13.51-2.88 2.49-6.32 3.84-9.84 3.84s-6.96-1.35-9.84-3.84c-2.85 3.52-4.45 8.36-4.45 13.51 0 5.72 1.98 11.05 5.44 14.63.58.6.56 1.55-.04 2.12-.59.58-1.54.56-2.12-.04-3.99-4.13-6.28-10.22-6.28-16.71s2.29-12.58 6.28-16.71c.57-.59 1.59-.59 2.16 0 2.55 2.64 5.62 4.04 8.85 4.04s6.3-1.4 8.85-4.04c.57-.59 1.59-.59 2.16 0 3.99 4.13 6.28 10.22 6.28 16.71s-2.29 12.58-6.28 16.71c-.29.3-.69.46-1.08.46z"/>
    <path
        d="m197.28 542.19c-.39 0-.78-.15-1.08-.46-2.33-2.42-4.13-5.57-5.19-9.1-.24-.79.21-1.63 1.01-1.87.79-.24 1.63.21 1.87 1.01.92 3.08 2.47 5.81 4.47 7.88.58.6.56 1.55-.04 2.12-.29.28-.67.42-1.04.42z"/>
    <path
        d="m197.28 573.53c-.39 0-.79-.15-1.08-.46-3.99-4.13-6.28-10.22-6.28-16.71s2.29-12.58 6.28-16.71c.28-.29.67-.46 1.08-.46h10.19c.83 0 1.5.67 1.5 1.5s-.67 1.5-1.5 1.5h-9.54c-3.19 3.57-5.01 8.69-5.01 14.17s1.98 11.05 5.44 14.63c.58.6.56 1.55-.04 2.12-.29.28-.67.42-1.04.42z"/>
    <path
        d="m227.34 604.87c-.38 0-.75-.14-1.04-.42-.6-.58-.61-1.53-.04-2.12 3.46-3.58 5.44-8.91 5.44-14.63 0-5.15-1.61-9.99-4.45-13.51-2.88 2.49-6.32 3.84-9.84 3.84s-6.96-1.35-9.84-3.84c-2.85 3.53-4.45 8.36-4.45 13.51 0 5.72 1.98 11.05 5.44 14.63.58.6.56 1.55-.04 2.12-.59.58-1.54.56-2.12-.04-3.99-4.13-6.28-10.22-6.28-16.71s2.29-12.58 6.28-16.71c.28-.29.67-.46 1.08-.46.41 0 .8.17 1.08.46 2.55 2.64 5.62 4.04 8.85 4.04s6.3-1.4 8.85-4.04c.56-.59 1.59-.59 2.16 0 3.99 4.13 6.28 10.22 6.28 16.71s-2.29 12.58-6.28 16.71c-.29.3-.69.46-1.08.46z"/>
    <path
        d="m217.4 640.71c-9.54 0-17.29-9.72-17.29-21.67 0-6.49 2.29-12.58 6.28-16.71.57-.59 1.59-.59 2.16 0 2.55 2.64 5.62 4.04 8.85 4.04s6.3-1.4 8.85-4.04c.57-.59 1.59-.59 2.16 0 3.99 4.13 6.28 10.22 6.28 16.71 0 11.95-7.76 21.67-17.29 21.67zm-9.84-35.18c-2.85 3.52-4.45 8.36-4.45 13.51 0 10.29 6.41 18.67 14.29 18.67s14.29-8.38 14.29-18.67c0-5.15-1.61-9.99-4.45-13.51-2.88 2.49-6.32 3.84-9.84 3.84s-6.96-1.35-9.84-3.84z"/>
    <path
        d="m197.28 604.87c-.39 0-.79-.15-1.08-.46-3.99-4.13-6.28-10.22-6.28-16.71s2.29-12.58 6.28-16.71c.28-.29.67-.46 1.08-.46h10.19c.83 0 1.5.67 1.5 1.5s-.67 1.5-1.5 1.5h-9.54c-3.19 3.57-5.01 8.69-5.01 14.17s1.98 11.05 5.44 14.63c.58.6.56 1.55-.04 2.12-.29.28-.67.42-1.04.42z"/>
    <path d="m217.4 640.71h-10.19c-.83 0-1.5-.67-1.5-1.5s.67-1.5 1.5-1.5h10.19c.83 0 1.5.67 1.5 1.5s-.67 1.5-1.5 1.5z"/>
    <path
        d="m192.52 613.12c-.15 0-.3-.02-.44-.07-.79-.25-1.23-1.09-.99-1.88 1.07-3.43 2.83-6.49 5.11-8.85.28-.29.67-.46 1.08-.46h10.19c.83 0 1.5.67 1.5 1.5s-.67 1.5-1.5 1.5h-9.54c-1.75 1.95-3.11 4.43-3.97 7.19-.2.64-.79 1.06-1.43 1.06z"/>
    <path d="m217.4 506.35h-58.3c-.83 0-1.5-.67-1.5-1.5s.67-1.5 1.5-1.5h58.3c.83 0 1.5.67 1.5 1.5s-.67 1.5-1.5 1.5z"/>
    <path
        d="m104.04 506.35h-26.04c-.83 0-1.5-.67-1.5-1.5s.67-1.5 1.5-1.5h26.04c.83 0 1.5.67 1.5 1.5s-.67 1.5-1.5 1.5z"/>
    <path
        d="m207.21 640.71h-143.12c-8.07 0-15.18-7.16-16.89-17.02-.14-.82.4-1.59 1.22-1.73s1.59.4 1.73 1.22c1.46 8.42 7.33 14.53 13.94 14.53h143.12c.83 0 1.5.67 1.5 1.5s-.67 1.5-1.5 1.5z"/>
    <path
        d="m458.94 542.19c-.38 0-.75-.14-1.04-.42-.6-.58-.61-1.53-.04-2.12 3.46-3.58 5.44-8.91 5.44-14.63 0-10.29-6.41-18.67-14.29-18.67s-14.29 8.38-14.29 18.67c0 5.72 1.98 11.05 5.44 14.63.58.6.56 1.55-.04 2.12-.59.58-1.54.56-2.12-.04-3.99-4.13-6.28-10.22-6.28-16.71 0-11.95 7.76-21.67 17.29-21.67s17.29 9.72 17.29 21.67c0 6.49-2.29 12.58-6.28 16.71-.29.3-.69.46-1.08.46z"/>
    <path
        d="m458.94 573.53c-.38 0-.75-.14-1.04-.42-.6-.58-.61-1.53-.04-2.12 3.46-3.58 5.44-8.91 5.44-14.63 0-5.15-1.61-9.99-4.45-13.51-2.88 2.49-6.32 3.84-9.84 3.84s-6.96-1.35-9.84-3.84c-2.84 3.52-4.45 8.36-4.45 13.51 0 5.72 1.98 11.05 5.44 14.63.58.6.56 1.55-.04 2.12-.59.58-1.54.56-2.12-.04-3.99-4.13-6.28-10.22-6.28-16.71s2.29-12.58 6.28-16.71c.57-.59 1.59-.59 2.16 0 2.55 2.64 5.62 4.04 8.85 4.04s6.3-1.4 8.86-4.04c.57-.59 1.59-.59 2.16 0 3.99 4.13 6.28 10.22 6.28 16.71s-2.29 12.58-6.28 16.71c-.29.3-.69.46-1.08.46z"/>
    <path
        d="m449.01 506.35h-231.6c-.83 0-1.5-.67-1.5-1.5s.67-1.5 1.5-1.5h231.6c.83 0 1.5.67 1.5 1.5s-.67 1.5-1.5 1.5z"/>
    <path
        d="m428.88 542.19c-.39 0-.79-.15-1.08-.46-3.99-4.13-6.28-10.22-6.28-16.71 0-.83.67-1.5 1.5-1.5s1.5.67 1.5 1.5c0 5.72 1.98 11.05 5.44 14.63.58.6.56 1.55-.04 2.12-.29.28-.67.42-1.04.42z"/>
    <path
        d="m428.88 573.53c-.39 0-.79-.15-1.08-.46-3.99-4.13-6.28-10.22-6.28-16.71s2.29-12.58 6.28-16.71c.28-.29.67-.46 1.08-.46h10.19c.83 0 1.5.67 1.5 1.5s-.67 1.5-1.5 1.5h-9.54c-3.19 3.57-5.01 8.69-5.01 14.17s1.98 11.05 5.44 14.63c.58.6.56 1.55-.04 2.12-.29.28-.67.42-1.04.42z"/>
    <path
        d="m458.94 604.87c-.38 0-.75-.14-1.04-.42-.6-.58-.61-1.53-.04-2.12 3.46-3.58 5.44-8.91 5.44-14.63 0-5.15-1.61-9.99-4.45-13.51-2.88 2.49-6.32 3.84-9.84 3.84s-6.96-1.35-9.84-3.84c-2.84 3.52-4.45 8.36-4.45 13.51 0 5.72 1.98 11.05 5.44 14.63.58.6.56 1.55-.04 2.12-.59.58-1.54.56-2.12-.04-3.99-4.13-6.28-10.22-6.28-16.71s2.29-12.58 6.28-16.71c.28-.29.67-.46 1.08-.46.41 0 .8.17 1.08.46 2.55 2.64 5.62 4.04 8.85 4.04s6.3-1.4 8.86-4.04c.56-.59 1.59-.59 2.16 0 3.99 4.13 6.28 10.22 6.28 16.71s-2.29 12.58-6.28 16.71c-.29.3-.69.46-1.08.46z"/>
    <path
        d="m449.01 640.71c-9.53 0-17.29-9.72-17.29-21.67 0-6.49 2.29-12.58 6.28-16.71.57-.59 1.59-.59 2.16 0 2.55 2.64 5.62 4.04 8.85 4.04s6.3-1.4 8.86-4.04c.57-.59 1.59-.59 2.16 0 3.99 4.13 6.28 10.22 6.28 16.71 0 11.95-7.76 21.67-17.29 21.67zm-9.84-35.18c-2.84 3.52-4.45 8.36-4.45 13.51 0 10.29 6.41 18.67 14.29 18.67s14.29-8.38 14.29-18.67c0-5.15-1.61-9.99-4.45-13.51-2.88 2.49-6.32 3.84-9.84 3.84s-6.96-1.35-9.84-3.84z"/>
    <path
        d="m428.88 604.87c-.39 0-.79-.15-1.08-.46-3.99-4.13-6.28-10.22-6.28-16.71s2.29-12.58 6.28-16.71c.28-.29.67-.46 1.08-.46h10.19c.83 0 1.5.67 1.5 1.5s-.67 1.5-1.5 1.5h-9.54c-3.19 3.57-5.01 8.69-5.01 14.17s1.98 11.05 5.44 14.63c.58.6.56 1.55-.04 2.12-.29.28-.67.42-1.04.42z"/>
    <path
        d="m449.01 640.71h-231.6c-.83 0-1.5-.67-1.5-1.5s.67-1.5 1.5-1.5h231.6c.83 0 1.5.67 1.5 1.5s-.67 1.5-1.5 1.5z"/>
    <path
        d="m423.02 620.54c-.83 0-1.5-.67-1.5-1.5 0-6.49 2.29-12.58 6.28-16.71.28-.29.67-.46 1.08-.46h10.19c.83 0 1.5.67 1.5 1.5s-.67 1.5-1.5 1.5h-9.54c-3.19 3.57-5.01 8.69-5.01 14.17 0 .83-.67 1.5-1.5 1.5z"/>
    <path
        d="m150.97 542.19h-73.47c-.83 0-1.5-.67-1.5-1.5s.67-1.5 1.5-1.5h73.47c.83 0 1.5.67 1.5 1.5s-.67 1.5-1.5 1.5z"/>
    <path
        d="m150.97 573.53h-73.47c-.83 0-1.5-.67-1.5-1.5s.67-1.5 1.5-1.5h73.47c.83 0 1.5.67 1.5 1.5s-.67 1.5-1.5 1.5z"/>
    <path
        d="m150.97 604.87h-73.47c-.83 0-1.5-.67-1.5-1.5s.67-1.5 1.5-1.5h73.47c.83 0 1.5.67 1.5 1.5s-.67 1.5-1.5 1.5z"/>
    <path
        d="m423.02 620.54h-189.83c-.83 0-1.5-.67-1.5-1.5s.67-1.5 1.5-1.5h189.83c.83 0 1.5.67 1.5 1.5s-.67 1.5-1.5 1.5z"/>
    <path
        d="m204.62 640.21c-5.49 0-10.64-3.39-13.78-9.06-.27-.48-.09-1.09.39-1.36s1.09-.09 1.36.39c2.78 5.03 7.28 8.03 12.03 8.03.55 0 1 .45 1 1s-.45 1-1 1z"/>
    <path
        d="m189.45 640.21c-5.49 0-10.64-3.39-13.78-9.06-.27-.48-.09-1.09.39-1.36s1.09-.09 1.36.39c2.78 5.03 7.28 8.03 12.03 8.03.55 0 1 .45 1 1s-.45 1-1 1z"/>
    <path
        d="m174.28 640.21c-5.49 0-10.64-3.39-13.78-9.06-.27-.48-.09-1.09.39-1.36s1.09-.09 1.36.39c2.78 5.03 7.28 8.03 12.03 8.03.55 0 1 .45 1 1s-.45 1-1 1z"/>
    <path
        d="m159.1 640.21c-5.49 0-10.64-3.39-13.78-9.06-.27-.48-.09-1.09.39-1.36s1.09-.09 1.36.39c2.78 5.03 7.28 8.03 12.03 8.03.55 0 1 .45 1 1s-.45 1-1 1z"/>
    <path
        d="m191.72 514.39c-.16 0-.33-.04-.48-.12-.48-.27-.66-.88-.39-1.36 3.14-5.67 8.29-9.06 13.78-9.06.55 0 1 .45 1 1s-.45 1-1 1c-4.75 0-9.25 3-12.03 8.03-.18.33-.52.52-.88.52z"/>
    <path
        d="m176.54 514.39c-.16 0-.33-.04-.48-.12-.48-.27-.66-.88-.39-1.36 3.14-5.67 8.29-9.06 13.78-9.06.55 0 1 .45 1 1s-.45 1-1 1c-4.75 0-9.25 3-12.03 8.03-.18.33-.52.52-.88.52z"/>
    <path
        d="m161.37 514.39c-.16 0-.33-.04-.48-.12-.48-.27-.66-.88-.39-1.36 3.14-5.67 8.29-9.06 13.78-9.06.55 0 1 .45 1 1s-.45 1-1 1c-4.75 0-9.25 3-12.03 8.03-.18.33-.52.52-.88.52z"/>
    <path
        d="m132.6 550.23c-.16 0-.33-.04-.48-.12-.48-.27-.66-.88-.39-1.36 3.14-5.67 8.29-9.06 13.78-9.06.55 0 1 .45 1 1s-.45 1-1 1c-4.75 0-9.25 3-12.03 8.03-.18.33-.52.52-.88.52z"/>
    <path
        d="m117.42 550.23c-.16 0-.33-.04-.48-.12-.48-.27-.66-.88-.39-1.36 3.14-5.67 8.29-9.06 13.78-9.06.55 0 1 .45 1 1s-.45 1-1 1c-4.75 0-9.25 3-12.03 8.03-.18.33-.52.52-.88.52z"/>
    <path
        d="m102.25 550.23c-.16 0-.33-.04-.48-.12-.48-.27-.66-.88-.39-1.36 3.14-5.67 8.29-9.06 13.78-9.06.55 0 1 .45 1 1s-.45 1-1 1c-4.75 0-9.25 3-12.03 8.03-.18.33-.52.52-.88.52z"/>
    <path
        d="m87.08 550.23c-.16 0-.33-.04-.48-.12-.48-.27-.66-.88-.39-1.36 3.14-5.67 8.29-9.06 13.78-9.06.55 0 1 .45 1 1s-.45 1-1 1c-4.75 0-9.25 3-12.03 8.03-.18.33-.52.52-.88.52z"/>
    <path
        d="m132.6 581.57c-.16 0-.33-.04-.48-.12-.48-.27-.66-.88-.39-1.36 3.14-5.67 8.29-9.06 13.78-9.06.55 0 1 .45 1 1s-.45 1-1 1c-4.75 0-9.25 3-12.03 8.03-.18.33-.52.52-.88.52z"/>
    <path
        d="m117.42 581.57c-.16 0-.33-.04-.48-.12-.48-.27-.66-.88-.39-1.36 3.14-5.67 8.29-9.06 13.78-9.06.55 0 1 .45 1 1s-.45 1-1 1c-4.75 0-9.25 3-12.03 8.03-.18.33-.52.52-.88.52z"/>
    <path
        d="m102.25 581.57c-.16 0-.33-.04-.48-.12-.48-.27-.66-.88-.39-1.36 3.14-5.67 8.29-9.06 13.78-9.06.55 0 1 .45 1 1s-.45 1-1 1c-4.75 0-9.25 3-12.03 8.03-.18.33-.52.52-.88.52z"/>
    <path
        d="m87.08 581.57c-.16 0-.33-.04-.48-.12-.48-.27-.66-.88-.39-1.36 3.14-5.67 8.29-9.06 13.78-9.06.55 0 1 .45 1 1s-.45 1-1 1c-4.75 0-9.25 3-12.03 8.03-.18.33-.52.52-.88.52z"/>
    <path
        d="m132.6 612.77c-.16 0-.33-.04-.48-.12-.48-.27-.66-.88-.39-1.36 3.14-5.67 8.29-9.06 13.78-9.06.55 0 1 .45 1 1s-.45 1-1 1c-4.75 0-9.25 3-12.03 8.03-.18.33-.52.52-.88.52z"/>
    <path
        d="m117.42 612.77c-.16 0-.33-.04-.48-.12-.48-.27-.66-.88-.39-1.36 3.14-5.67 8.29-9.06 13.78-9.06.55 0 1 .45 1 1s-.45 1-1 1c-4.75 0-9.25 3-12.03 8.03-.18.33-.52.52-.88.52z"/>
    <path
        d="m102.25 612.77c-.16 0-.33-.04-.48-.12-.48-.27-.66-.88-.39-1.36 3.14-5.67 8.29-9.06 13.78-9.06.55 0 1 .45 1 1s-.45 1-1 1c-4.75 0-9.25 3-12.03 8.03-.18.33-.52.52-.88.52z"/>
    <path
        d="m87.08 612.77c-.16 0-.33-.04-.48-.12-.48-.27-.66-.88-.39-1.36 3.14-5.67 8.29-9.06 13.78-9.06.55 0 1 .45 1 1s-.45 1-1 1c-4.75 0-9.25 3-12.03 8.03-.18.33-.52.52-.88.52z"/>
    <path
        d="m143.46 640.21c-5.49 0-10.64-3.39-13.78-9.06-.27-.48-.09-1.09.39-1.36s1.09-.09 1.36.39c2.78 5.03 7.28 8.03 12.03 8.03.55 0 1 .45 1 1s-.45 1-1 1z"/>
    <path
        d="m128.28 640.21c-5.49 0-10.64-3.39-13.78-9.06-.27-.48-.09-1.09.39-1.36s1.09-.09 1.36.39c2.78 5.03 7.28 8.03 12.03 8.03.55 0 1 .45 1 1s-.45 1-1 1z"/>
    <path
        d="m85.3 514.39c-.16 0-.33-.04-.48-.12-.48-.27-.66-.88-.39-1.36 3.14-5.67 8.29-9.06 13.78-9.06.55 0 1 .45 1 1s-.45 1-1 1c-4.75 0-9.25 3-12.03 8.03-.18.33-.52.52-.88.52z"/>
    <path
        d="m423.83 514.39c-.16 0-.33-.04-.48-.12-.48-.27-.66-.88-.39-1.36 3.14-5.67 8.29-9.06 13.78-9.06.55 0 1 .45 1 1s-.45 1-1 1c-4.75 0-9.25 3-12.03 8.03-.18.33-.52.52-.88.52z"/>
    <path
        d="m408.66 514.39c-.16 0-.33-.04-.48-.12-.48-.27-.66-.88-.39-1.36 3.14-5.67 8.29-9.06 13.78-9.06.55 0 1 .45 1 1s-.45 1-1 1c-4.75 0-9.25 3-12.03 8.03-.18.33-.52.52-.88.52z"/>
    <path
        d="m393.49 514.39c-.16 0-.33-.04-.48-.12-.48-.27-.66-.88-.39-1.36 3.14-5.67 8.29-9.06 13.78-9.06.55 0 1 .45 1 1s-.45 1-1 1c-4.75 0-9.25 3-12.03 8.03-.18.33-.52.52-.88.52z"/>
    <path
        d="m378.32 514.39c-.16 0-.33-.04-.48-.12-.48-.27-.66-.88-.39-1.36 3.14-5.67 8.29-9.06 13.78-9.06.55 0 1 .45 1 1s-.45 1-1 1c-4.75 0-9.25 3-12.03 8.03-.18.33-.52.52-.88.52z"/>
    <path
        d="m362.87 514.39c-.16 0-.33-.04-.48-.12-.48-.27-.66-.88-.39-1.36 3.14-5.67 8.29-9.06 13.78-9.06.55 0 1 .45 1 1s-.45 1-1 1c-4.75 0-9.25 3-12.03 8.03-.18.33-.52.52-.88.52z"/>
    <path
        d="m347.7 514.39c-.16 0-.33-.04-.48-.12-.48-.27-.66-.88-.39-1.36 3.14-5.67 8.29-9.06 13.78-9.06.55 0 1 .45 1 1s-.45 1-1 1c-4.75 0-9.25 3-12.03 8.03-.18.33-.52.52-.88.52z"/>
    <path
        d="m332.52 514.39c-.16 0-.33-.04-.48-.12-.48-.27-.66-.88-.39-1.36 3.14-5.67 8.29-9.06 13.78-9.06.55 0 1 .45 1 1s-.45 1-1 1c-4.75 0-9.25 3-12.03 8.03-.18.33-.52.52-.88.52z"/>
    <path
        d="m317.35 514.39c-.16 0-.33-.04-.48-.12-.48-.27-.66-.88-.39-1.36 3.14-5.67 8.29-9.06 13.78-9.06.55 0 1 .45 1 1s-.45 1-1 1c-4.75 0-9.25 3-12.03 8.03-.18.33-.52.52-.88.52z"/>
    <path
        d="m301.71 514.39c-.16 0-.33-.04-.48-.12-.48-.27-.66-.88-.39-1.36 3.14-5.67 8.29-9.06 13.78-9.06.55 0 1 .45 1 1s-.45 1-1 1c-4.75 0-9.25 3-12.03 8.03-.18.33-.52.52-.88.52z"/>
    <path
        d="m286.53 514.39c-.16 0-.33-.04-.48-.12-.48-.27-.66-.88-.39-1.36 3.14-5.67 8.29-9.06 13.78-9.06.55 0 1 .45 1 1s-.45 1-1 1c-4.75 0-9.25 3-12.03 8.03-.18.33-.52.52-.88.52z"/>
    <path
        d="m271.63 514.39c-.16 0-.33-.04-.48-.12-.48-.27-.66-.88-.39-1.36 3.14-5.67 8.29-9.06 13.78-9.06.55 0 1 .45 1 1s-.45 1-1 1c-4.75 0-9.25 3-12.03 8.03-.18.33-.52.52-.88.52z"/>
    <path
        d="m256.46 514.39c-.16 0-.33-.04-.48-.12-.48-.27-.66-.88-.39-1.36 3.14-5.67 8.29-9.06 13.78-9.06.55 0 1 .45 1 1s-.45 1-1 1c-4.75 0-9.25 3-12.03 8.03-.18.33-.52.52-.88.52z"/>
    <path
        d="m240.81 514.39c-.16 0-.33-.04-.48-.12-.48-.27-.66-.88-.39-1.36 3.14-5.67 8.29-9.06 13.78-9.06.55 0 1 .45 1 1s-.45 1-1 1c-4.75 0-9.25 3-12.03 8.03-.18.33-.52.52-.88.52z"/>
    <path
        d="m436.74 640.21c-5.49 0-10.64-3.39-13.78-9.06-.27-.48-.09-1.09.39-1.36s1.09-.09 1.36.39c2.78 5.03 7.28 8.03 12.03 8.03.55 0 1 .45 1 1s-.45 1-1 1z"/>
    <path
        d="m421.57 640.21c-5.49 0-10.64-3.39-13.78-9.06-.27-.48-.09-1.09.39-1.36s1.09-.09 1.36.39c2.78 5.03 7.28 8.03 12.03 8.03.55 0 1 .45 1 1s-.45 1-1 1z"/>
    <path
        d="m406.39 640.21c-5.49 0-10.64-3.39-13.78-9.06-.27-.48-.09-1.09.39-1.36s1.09-.09 1.36.39c2.78 5.03 7.28 8.03 12.03 8.03.55 0 1 .45 1 1s-.45 1-1 1z"/>
    <path
        d="m391.22 640.21c-5.49 0-10.64-3.39-13.78-9.06-.27-.48-.09-1.09.39-1.36s1.09-.09 1.36.39c2.78 5.03 7.28 8.03 12.03 8.03.55 0 1 .45 1 1s-.45 1-1 1z"/>
    <path
        d="m375.78 640.21c-5.49 0-10.64-3.39-13.78-9.06-.27-.48-.09-1.09.39-1.36s1.09-.09 1.36.39c2.78 5.03 7.28 8.03 12.03 8.03.55 0 1 .45 1 1s-.45 1-1 1z"/>
    <path
        d="m360.6 640.21c-5.49 0-10.64-3.39-13.78-9.06-.27-.48-.09-1.09.39-1.36s1.09-.09 1.36.39c2.78 5.03 7.28 8.03 12.03 8.03.55 0 1 .45 1 1s-.45 1-1 1z"/>
    <path
        d="m345.43 640.21c-5.49 0-10.64-3.39-13.78-9.06-.27-.48-.09-1.09.39-1.36s1.09-.09 1.36.39c2.78 5.03 7.28 8.03 12.03 8.03.55 0 1 .45 1 1s-.45 1-1 1z"/>
    <path
        d="m330.26 640.21c-5.49 0-10.64-3.39-13.78-9.06-.27-.48-.09-1.09.39-1.36s1.09-.09 1.36.39c2.78 5.03 7.28 8.03 12.03 8.03.55 0 1 .45 1 1s-.45 1-1 1z"/>
    <path
        d="m314.61 640.21c-5.49 0-10.64-3.39-13.78-9.06-.27-.48-.09-1.09.39-1.36s1.09-.09 1.36.39c2.78 5.03 7.28 8.03 12.03 8.03.55 0 1 .45 1 1s-.45 1-1 1z"/>
    <path
        d="m299.44 640.21c-5.49 0-10.64-3.39-13.78-9.06-.27-.48-.09-1.09.39-1.36s1.09-.09 1.36.39c2.78 5.03 7.28 8.03 12.03 8.03.55 0 1 .45 1 1s-.45 1-1 1z"/>
    <path
        d="m284.53 640.21c-5.49 0-10.64-3.39-13.78-9.06-.27-.48-.09-1.09.39-1.36s1.09-.09 1.36.39c2.78 5.03 7.28 8.03 12.03 8.03.55 0 1 .45 1 1s-.45 1-1 1z"/>
    <path
        d="m269.36 640.21c-5.49 0-10.64-3.39-13.78-9.06-.27-.48-.09-1.09.39-1.36s1.09-.09 1.36.39c2.78 5.03 7.28 8.03 12.03 8.03.55 0 1 .45 1 1s-.45 1-1 1z"/>
    <path
        d="m253.72 640.21c-5.49 0-10.64-3.39-13.78-9.06-.27-.48-.09-1.09.39-1.36s1.09-.09 1.36.39c2.78 5.03 7.28 8.03 12.03 8.03.55 0 1 .45 1 1s-.45 1-1 1z"/>
    <path
        d="m253.72 534.56c-.35 0-.69-.19-.88-.52-2.78-5.03-7.28-8.03-12.03-8.03-.55 0-1-.45-1-1s.45-1 1-1c5.49 0 10.64 3.39 13.78 9.06.27.48.09 1.09-.39 1.36-.15.08-.32.12-.48.12z"/>
    <path
        d="m268.89 534.56c-.35 0-.69-.19-.88-.52-2.78-5.03-7.28-8.03-12.03-8.03-.55 0-1-.45-1-1s.45-1 1-1c5.49 0 10.64 3.39 13.78 9.06.27.48.09 1.09-.39 1.36-.15.08-.32.12-.48.12z"/>
    <path
        d="m284.06 534.56c-.35 0-.69-.19-.88-.52-2.78-5.03-7.28-8.03-12.03-8.03-.55 0-1-.45-1-1s.45-1 1-1c5.49 0 10.64 3.39 13.78 9.06.27.48.09 1.09-.39 1.36-.15.08-.32.12-.48.12z"/>
    <path
        d="m299.24 534.56c-.35 0-.69-.19-.88-.52-2.78-5.03-7.28-8.03-12.03-8.03-.55 0-1-.45-1-1s.45-1 1-1c5.49 0 10.64 3.39 13.78 9.06.27.48.09 1.09-.39 1.36-.15.08-.32.12-.48.12z"/>
    <path
        d="m314.68 534.56c-.35 0-.69-.19-.88-.52-2.78-5.03-7.28-8.03-12.03-8.03-.55 0-1-.45-1-1s.45-1 1-1c5.49 0 10.64 3.39 13.78 9.06.27.48.09 1.09-.39 1.36-.15.08-.32.12-.48.12z"/>
    <path
        d="m329.85 534.56c-.35 0-.69-.19-.88-.52-2.78-5.03-7.28-8.03-12.03-8.03-.55 0-1-.45-1-1s.45-1 1-1c5.49 0 10.64 3.39 13.78 9.06.27.48.09 1.09-.39 1.36-.15.08-.32.12-.48.12z"/>
    <path
        d="m345.03 534.56c-.35 0-.69-.19-.88-.52-2.78-5.03-7.28-8.03-12.03-8.03-.55 0-1-.45-1-1s.45-1 1-1c5.49 0 10.64 3.39 13.78 9.06.27.48.09 1.09-.39 1.36-.15.08-.32.12-.48.12z"/>
    <path
        d="m360.2 534.56c-.35 0-.69-.19-.88-.52-2.78-5.03-7.28-8.03-12.03-8.03-.55 0-1-.45-1-1s.45-1 1-1c5.49 0 10.64 3.39 13.78 9.06.27.48.09 1.09-.39 1.36-.15.08-.32.12-.48.12z"/>
    <path
        d="m375.85 534.56c-.35 0-.69-.19-.88-.52-2.78-5.03-7.28-8.03-12.03-8.03-.55 0-1-.45-1-1s.45-1 1-1c5.49 0 10.64 3.39 13.78 9.06.27.48.09 1.09-.39 1.36-.15.08-.32.12-.48.12z"/>
    <path
        d="m391.02 534.56c-.35 0-.69-.19-.88-.52-2.78-5.03-7.28-8.03-12.03-8.03-.55 0-1-.45-1-1s.45-1 1-1c5.49 0 10.64 3.39 13.78 9.06.27.48.09 1.09-.39 1.36-.15.08-.32.12-.48.12z"/>
    <path
        d="m405.92 534.56c-.35 0-.69-.19-.88-.52-2.78-5.03-7.28-8.03-12.03-8.03-.55 0-1-.45-1-1s.45-1 1-1c5.49 0 10.64 3.39 13.78 9.06.27.48.09 1.09-.39 1.36-.15.08-.32.12-.48.12z"/>
    <path
        d="m253.72 565.9c-.35 0-.69-.19-.88-.52-2.78-5.03-7.28-8.03-12.03-8.03-.55 0-1-.45-1-1s.45-1 1-1c5.49 0 10.64 3.39 13.78 9.06.27.48.09 1.09-.39 1.36-.15.08-.32.12-.48.12z"/>
    <path
        d="m268.89 565.9c-.35 0-.69-.19-.88-.52-2.78-5.03-7.28-8.03-12.03-8.03-.55 0-1-.45-1-1s.45-1 1-1c5.49 0 10.64 3.39 13.78 9.06.27.48.09 1.09-.39 1.36-.15.08-.32.12-.48.12z"/>
    <path
        d="m284.06 565.9c-.35 0-.69-.19-.88-.52-2.78-5.03-7.28-8.03-12.03-8.03-.55 0-1-.45-1-1s.45-1 1-1c5.49 0 10.64 3.39 13.78 9.06.27.48.09 1.09-.39 1.36-.15.08-.32.12-.48.12z"/>
    <path
        d="m299.24 565.9c-.35 0-.69-.19-.88-.52-2.78-5.03-7.28-8.03-12.03-8.03-.55 0-1-.45-1-1s.45-1 1-1c5.49 0 10.64 3.39 13.78 9.06.27.48.09 1.09-.39 1.36-.15.08-.32.12-.48.12z"/>
    <path
        d="m314.68 565.9c-.35 0-.69-.19-.88-.52-2.78-5.03-7.28-8.03-12.03-8.03-.55 0-1-.45-1-1s.45-1 1-1c5.49 0 10.64 3.39 13.78 9.06.27.48.09 1.09-.39 1.36-.15.08-.32.12-.48.12z"/>
    <path
        d="m329.85 565.9c-.35 0-.69-.19-.88-.52-2.78-5.03-7.28-8.03-12.03-8.03-.55 0-1-.45-1-1s.45-1 1-1c5.49 0 10.64 3.39 13.78 9.06.27.48.09 1.09-.39 1.36-.15.08-.32.12-.48.12z"/>
    <path
        d="m345.03 565.9c-.35 0-.69-.19-.88-.52-2.78-5.03-7.28-8.03-12.03-8.03-.55 0-1-.45-1-1s.45-1 1-1c5.49 0 10.64 3.39 13.78 9.06.27.48.09 1.09-.39 1.36-.15.08-.32.12-.48.12z"/>
    <path
        d="m360.2 565.9c-.35 0-.69-.19-.88-.52-2.78-5.03-7.28-8.03-12.03-8.03-.55 0-1-.45-1-1s.45-1 1-1c5.49 0 10.64 3.39 13.78 9.06.27.48.09 1.09-.39 1.36-.15.08-.32.12-.48.12z"/>
    <path
        d="m375.85 565.9c-.35 0-.69-.19-.88-.52-2.78-5.03-7.28-8.03-12.03-8.03-.55 0-1-.45-1-1s.45-1 1-1c5.49 0 10.64 3.39 13.78 9.06.27.48.09 1.09-.39 1.36-.15.08-.32.12-.48.12z"/>
    <path
        d="m391.02 565.9c-.35 0-.69-.19-.88-.52-2.78-5.03-7.28-8.03-12.03-8.03-.55 0-1-.45-1-1s.45-1 1-1c5.49 0 10.64 3.39 13.78 9.06.27.48.09 1.09-.39 1.36-.15.08-.32.12-.48.12z"/>
    <path
        d="m405.92 565.9c-.35 0-.69-.19-.88-.52-2.78-5.03-7.28-8.03-12.03-8.03-.55 0-1-.45-1-1s.45-1 1-1c5.49 0 10.64 3.39 13.78 9.06.27.48.09 1.09-.39 1.36-.15.08-.32.12-.48.12z"/>
    <path
        d="m253.72 597.24c-.35 0-.69-.19-.88-.52-2.78-5.03-7.28-8.03-12.03-8.03-.55 0-1-.45-1-1s.45-1 1-1c5.49 0 10.64 3.39 13.78 9.06.27.48.09 1.09-.39 1.36-.15.08-.32.12-.48.12z"/>
    <path
        d="m268.89 597.24c-.35 0-.69-.19-.88-.52-2.78-5.03-7.28-8.03-12.03-8.03-.55 0-1-.45-1-1s.45-1 1-1c5.49 0 10.64 3.39 13.78 9.06.27.48.09 1.09-.39 1.36-.15.08-.32.12-.48.12z"/>
    <path
        d="m284.06 597.24c-.35 0-.69-.19-.88-.52-2.78-5.03-7.28-8.03-12.03-8.03-.55 0-1-.45-1-1s.45-1 1-1c5.49 0 10.64 3.39 13.78 9.06.27.48.09 1.09-.39 1.36-.15.08-.32.12-.48.12z"/>
    <path
        d="m299.24 597.24c-.35 0-.69-.19-.88-.52-2.78-5.03-7.28-8.03-12.03-8.03-.55 0-1-.45-1-1s.45-1 1-1c5.49 0 10.64 3.39 13.78 9.06.27.48.09 1.09-.39 1.36-.15.08-.32.12-.48.12z"/>
    <path
        d="m314.68 597.24c-.35 0-.69-.19-.88-.52-2.78-5.03-7.28-8.03-12.03-8.03-.55 0-1-.45-1-1s.45-1 1-1c5.49 0 10.64 3.39 13.78 9.06.27.48.09 1.09-.39 1.36-.15.08-.32.12-.48.12z"/>
    <path
        d="m329.85 597.24c-.35 0-.69-.19-.88-.52-2.78-5.03-7.28-8.03-12.03-8.03-.55 0-1-.45-1-1s.45-1 1-1c5.49 0 10.64 3.39 13.78 9.06.27.48.09 1.09-.39 1.36-.15.08-.32.12-.48.12z"/>
    <path
        d="m345.03 597.24c-.35 0-.69-.19-.88-.52-2.78-5.03-7.28-8.03-12.03-8.03-.55 0-1-.45-1-1s.45-1 1-1c5.49 0 10.64 3.39 13.78 9.06.27.48.09 1.09-.39 1.36-.15.08-.32.12-.48.12z"/>
    <path
        d="m360.2 597.24c-.35 0-.69-.19-.88-.52-2.78-5.03-7.28-8.03-12.03-8.03-.55 0-1-.45-1-1s.45-1 1-1c5.49 0 10.64 3.39 13.78 9.06.27.48.09 1.09-.39 1.36-.15.08-.32.12-.48.12z"/>
    <path
        d="m375.85 597.24c-.35 0-.69-.19-.88-.52-2.78-5.03-7.28-8.03-12.03-8.03-.55 0-1-.45-1-1s.45-1 1-1c5.49 0 10.64 3.39 13.78 9.06.27.48.09 1.09-.39 1.36-.15.08-.32.12-.48.12z"/>
    <path
        d="m391.02 597.24c-.35 0-.69-.19-.88-.52-2.78-5.03-7.28-8.03-12.03-8.03-.55 0-1-.45-1-1s.45-1 1-1c5.49 0 10.64 3.39 13.78 9.06.27.48.09 1.09-.39 1.36-.15.08-.32.12-.48.12z"/>
    <path
        d="m405.92 597.24c-.35 0-.69-.19-.88-.52-2.78-5.03-7.28-8.03-12.03-8.03-.55 0-1-.45-1-1s.45-1 1-1c5.49 0 10.64 3.39 13.78 9.06.27.48.09 1.09-.39 1.36-.15.08-.32.12-.48.12z"/>
    <path
        d="m113.38 640.21c-5.49 0-10.64-3.39-13.78-9.06-.27-.48-.09-1.09.39-1.36s1.09-.09 1.36.39c2.78 5.03 7.28 8.03 12.03 8.03.55 0 1 .45 1 1s-.45 1-1 1z"/>
    <path
        d="m98.21 640.21c-5.49 0-10.64-3.39-13.78-9.06-.27-.48-.09-1.09.39-1.36s1.09-.09 1.36.39c2.78 5.03 7.28 8.03 12.03 8.03.55 0 1 .45 1 1s-.45 1-1 1z"/>
    <path
        d="m82.56 640.21c-5.49 0-10.64-3.39-13.78-9.06-.27-.48-.09-1.09.39-1.36s1.09-.09 1.36.39c2.78 5.03 7.28 8.03 12.03 8.03.55 0 1 .45 1 1s-.45 1-1 1z"/>
    <path
        d="m423.02 589.2h-189.83c-.83 0-1.5-.67-1.5-1.5s.67-1.5 1.5-1.5h189.83c.83 0 1.5.67 1.5 1.5s-.67 1.5-1.5 1.5z"/>
    <path
        d="m423.02 557.86h-189.83c-.83 0-1.5-.67-1.5-1.5s.67-1.5 1.5-1.5h189.83c.83 0 1.5.67 1.5 1.5s-.67 1.5-1.5 1.5z"/>
    <path
        d="m423.02 526.52h-189.83c-.83 0-1.5-.67-1.5-1.5s.67-1.5 1.5-1.5h189.83c.83 0 1.5.67 1.5 1.5s-.67 1.5-1.5 1.5z"/>
    <path
        d="m470.3 533.61s-.04 0-.05 0c-.71-.03-1.31-.55-1.43-1.25l-.24-1.44-.36 1c-.21.6-.78.99-1.41.99h-.03c-.64-.01-1.21-.44-1.4-1.05l-2.01-6.4c-.25-.79.19-1.63.98-1.88s1.63.19 1.88.98l.68 2.15.79-2.2c.23-.64.86-1.04 1.55-.99.64.06 1.17.51 1.32 1.13l1.49-6.17c.17-.69.81-1.18 1.51-1.15.71.03 1.31.55 1.42 1.25l1.03 6.18.12-.31c.22-.56.75-.93 1.34-.95.65-.04 1.15.31 1.41.85l.91 1.89 1.81-13.08c.08-.58.5-1.07 1.06-1.23s1.17.01 1.56.46l11.3 13.04.6-1.13c.21-.4.59-.68 1.04-.77l3.25-.64-1.35-4.95c-.15-.55.03-1.14.46-1.52s1.04-.48 1.56-.26l5.5 2.27-7.88-11.32c-.47-.68-.31-1.61.38-2.09.68-.47 1.61-.31 2.09.38l10.79 15.51c.38.55.35 1.28-.06 1.8-.42.52-1.13.7-1.74.45l-7.4-3.05.97 3.56c.11.4.05.83-.17 1.18s-.58.6-.98.68l-4.13.82-1.29 2.44c-.23.44-.66.73-1.16.79-.49.06-.98-.13-1.3-.51l-10.57-12.2-2.04 14.75c-.09.66-.6 1.17-1.25 1.28-.66.1-1.3-.24-1.58-.83l-1.57-3.29-.85 2.16c-.25.63-.9 1-1.55.94-.67-.07-1.21-.58-1.32-1.25l-.71-4.28-1.48 6.11c-.16.67-.77 1.15-1.46 1.15z"/>
    <path
        d="m500.51 519.06c-.42 0-.83-.17-1.13-.51l-5.74-6.51c-.55-.62-.49-1.57.13-2.12s1.57-.49 2.12.13l5.74 6.51c.55.62.49 1.57-.13 2.12-.29.25-.64.38-.99.38z"/>
    <path
        d="m473.51 520.34c-.83 0-1.5-.67-1.5-1.5v-7.79c0-.83.67-1.5 1.5-1.5s1.5.67 1.5 1.5v7.79c0 .83-.67 1.5-1.5 1.5z"/>
    <path
        d="m500.27 618.1c-.6 0-1.17-.37-1.4-.96l-18.8-49.19c-.1-.27-.13-.57-.06-.86.28-1.26 6.88-30.97 11.79-42.65.32-.76 1.2-1.13 1.96-.8.76.32 1.12 1.2.8 1.96-4.48 10.67-10.68 37.9-11.53 41.69l18.64 48.77c.3.77-.09 1.64-.87 1.94-.18.07-.36.1-.54.1z"/>
    <path
        d="m488.83 648.79c-.27 0-.53-.07-.77-.21-.37-.22-8.96-5.45-10.1-13.92-.87-6.49 2.31-10.31 5.58-11.73 1.82-.79 3.65-.54 5.14.7 2.6 2.15 3.7 6.93 2.66 11.63-1.33 6.05-1.02 11.89-1.02 11.94.03.55-.25 1.08-.72 1.37-.24.14-.51.22-.78.22zm-4.1-23.1c-1.1.47-4.62 2.49-3.8 8.57.61 4.54 4.02 8.09 6.37 10.05.06-2.42.3-6 1.11-9.7.89-4.02-.18-7.47-1.64-8.67-.62-.51-1.26-.59-2.04-.25z"/>
    <path
        d="m536.9 645.63c-.3 0-.61-.09-.87-.28-.09-.07-9.48-6.65-15.41-5.86-.33.05-.66-.02-.94-.19-2.66-1.53-4.21-3.51-4.6-5.9-.63-3.88 2.14-7.33 2.62-7.91 1.07-1.52 2.7-2.37 4.69-2.46 3.13-.12 6.98 1.77 9.33 4.63 3.23 3.94 6.47 15.57 6.6 16.06.17.61-.06 1.26-.58 1.63-.26.18-.56.27-.86.27zm-15.31-9.2c4.35 0 9.42 2.42 12.72 4.3-1.28-3.93-3.2-9.11-4.88-11.16-1.76-2.15-4.68-3.65-6.88-3.54-1.08.05-1.87.45-2.4 1.23-.04.05-.07.1-.12.15s-2.42 2.79-1.97 5.52c.22 1.34 1.14 2.52 2.73 3.53.27-.02.54-.03.81-.03z"/>
    <path
        d="m527.29 627.39c-.73 0-1.37-.53-1.48-1.27 0-.04-.77-4.33-3.41-4.73-1.72-.26-4.47.09-7.13.43-2.98.38-5.56.71-7.25.31-.99-.23-2.14-.82-3.47-1.49-3.04-1.55-6.83-3.47-10.03-2.04-.76.33-1.64 0-1.98-.76s0-1.64.76-1.98c4.5-2.01 9.19.37 12.62 2.11 1.11.56 2.16 1.1 2.79 1.25 1.16.27 3.72-.05 6.19-.37 2.86-.36 5.82-.74 7.96-.42 4.87.73 5.88 6.97 5.93 7.23.13.82-.43 1.58-1.25 1.71-.08.01-.16.02-.23.02z"/>
    <path
        d="m481.04 640.71c-.15 0-.3-.02-.45-.07-6.26-1.94-8.44-6.05-9.17-9.16-1.26-5.33.93-10.84 3.74-13.53 2.46-2.36 5.5-3.41 8.77-3.02 4.85.58 9.14 4.14 11.24 7.42.45.7.24 1.62-.45 2.07-.7.45-1.63.25-2.07-.45-1.67-2.6-5.21-5.6-9.07-6.06-2.39-.28-4.52.46-6.34 2.21-2.17 2.08-3.84 6.64-2.89 10.67.79 3.36 3.26 5.77 7.15 6.98.79.25 1.23 1.09.99 1.88-.2.64-.79 1.05-1.43 1.05z"/>
    <path
        d="m473.59 634.69s-.08 0-.12 0c-.83-.06-1.45-.78-1.38-1.61.75-9.92 7.12-13.06 7.39-13.18.75-.35 1.64-.04 2 .71s.04 1.64-.71 2c-.2.1-5.07 2.6-5.68 10.7-.06.79-.72 1.39-1.49 1.39z"/>
    <path
        d="m490.24 640.27c-.71 0-1.33-.5-1.47-1.22-.16-.81.38-1.6 1.19-1.76 4.5-.87 6.12-6.94 6.14-7 .21-.8 1.02-1.29 1.83-1.08.8.21 1.28 1.03 1.08 1.83-.08.33-2.13 7.98-8.48 9.2-.1.02-.19.03-.29.03z"/>
    <path
        d="m514.58 641.47c-2.89 0-6.1-1.57-8.46-2.9l-.21-.12c-1.87-1.04-5.85-2.59-9.15-2.62-.83 0-1.49-.69-1.49-1.51 0-.83.7-1.54 1.51-1.49 4.16.04 8.74 1.98 10.58 3l.22.12c3.84 2.15 6.59 2.93 8.2 2.32.42-.16 1.01-.5 1.4-1.62.27-.78 1.12-1.2 1.91-.93.78.27 1.2 1.12.93 1.91-.58 1.68-1.67 2.88-3.17 3.44-.72.28-1.49.39-2.29.39z"/>
    <path
        d="m507.22 628.72c-.1 0-.19 0-.29-.03-.81-.16-1.34-.95-1.18-1.76.05-.26 1.34-6.38 9.39-8.11.81-.17 1.61.34 1.78 1.15s-.34 1.61-1.15 1.78c-6.14 1.31-7.07 5.7-7.08 5.75-.14.72-.77 1.21-1.47 1.21z"/>
    <path
        d="m498.7 625.25h-.04c-.83-.02-1.48-.71-1.46-1.54 0-.19.16-4.62 3.76-7.22.67-.48 1.61-.33 2.09.34s.33 1.61-.34 2.09c-2.38 1.72-2.52 4.84-2.52 4.87-.02.82-.69 1.46-1.5 1.46z"/>
    <path
        d="m520.43 621.32c-.08 0-.16 0-.24-.02-.82-.13-1.37-.9-1.24-1.72.01-.08.3-2.3-1.42-4.1-.33-.34-2.23.35-3.62.85-3.37 1.21-7.97 2.88-13.93 1.74-.81-.16-1.35-.94-1.19-1.75s.95-1.34 1.75-1.19c5.14.98 9.31-.52 12.35-1.62 2.75-.99 5.12-1.85 6.8-.1 2.78 2.9 2.24 6.5 2.22 6.65-.12.74-.76 1.26-1.48 1.26z"/>
    <path
        d="m472.56 630.6c-.55 0-1.08-.3-1.34-.83-.12-.23-2.85-5.79-.86-11.86.56-1.71 1.62-2.95 3.16-3.69 1.81-.87 3.95-.84 5.63-.59l-16.95-49.12c-.27-.78.15-1.64.93-1.91s1.64.15 1.91.93l17.84 51.71c.19.55.05 1.16-.37 1.56s-1.02.54-1.57.33c-1.04-.38-4.17-1.16-6.12-.21-.78.38-1.3 1.01-1.6 1.92-1.59 4.87.67 9.54.69 9.59.37.74.07 1.64-.67 2.01-.22.11-.44.16-.67.16z"/>
    <path
        d="m476.33 550.84c-1.46 0-3.07-.78-4.47-2.24-2.52-2.62-4.14-7.1-2.08-11.23.37-.74 1.27-1.04 2.01-.67s1.04 1.27.67 2.01c-1.4 2.8-.17 6.01 1.56 7.8 1.08 1.12 2.12 1.48 2.61 1.27.75-.35 1.64 0 1.99.74.34.75 0 1.64-.74 1.99-.48.22-1 .33-1.54.33z"/>
    <path
        d="m481.46 568.91h-.02c-6.58-.07-13.25-4.33-13.53-4.52-.7-.45-.89-1.38-.45-2.07.45-.7 1.38-.9 2.07-.45.06.04 6.23 3.98 11.94 4.04.83 0 1.49.69 1.48 1.52 0 .82-.68 1.48-1.5 1.48z"/>
    <path
        d="m483.2 584.74c-.85 0-7.77-.29-11.03-9.42-.28-.78.13-1.64.91-1.92s1.64.13 1.92.91c2.65 7.41 7.96 7.46 8.21 7.43.84.01 1.51.65 1.52 1.47.02.82-.63 1.51-1.45 1.53-.01 0-.04 0-.08 0z"/>
    <path
        d="m477.62 604.58c-.39 0-.78-.15-1.08-.46-.58-.59-.56-1.54.03-2.12.19-.18 4.61-4.63 1.26-9.13-.5-.67-.36-1.6.31-2.1s1.6-.36 2.1.31c3.95 5.3.7 10.87-1.57 13.08-.29.28-.67.42-1.04.42z"/>
    <path
        d="m496.08 609.76c-3.18 0-8.37-1.64-9.78-8.11-.18-.81.34-1.61 1.15-1.78.81-.18 1.61.34 1.78 1.15 1.36 6.27 7.15 5.75 7.39 5.72.82-.07 1.56.51 1.65 1.34s-.51 1.56-1.34 1.65c-.26.03-.55.04-.86.04z"/>
    <path
        d="m486.81 389.91c-.52 0-1.03-.27-1.31-.76-.41-.72-.15-1.64.57-2.04 6.96-3.92 10.51-12.18 12.22-16.15.35-.81.62-1.44.85-1.89.16-.28 3.24-5.82.01-11.73-.2-.37-.24-.8-.11-1.2s.43-.72.81-.89c7.75-3.43 6.04-13.19 5.45-15.74-1.61-.73-7.23-2.53-16.67 2.26-.57.29-1.26.18-1.72-.26-13.04-12.66-35.83-8.22-36.06-8.18-.6.12-1.22-.14-1.56-.65-.17-.25-4.24-6.25-13.94-5.96-4.73 6.98.26 15.1.48 15.45.37.59.29 1.37-.21 1.87-.44.45-10.81 11.12.57 24.78.53.64.44 1.58-.19 2.11s-1.58.44-2.11-.19c-11.21-13.45-3.72-24.79-1.15-27.95-1.47-2.83-4.93-11.13.63-18.44.26-.35.67-.56 1.1-.59 9.78-.59 15.02 4.43 16.71 6.46 4.56-.75 24.22-3.17 37.04 8.41 12.15-5.78 18.9-1.58 19.18-1.39.3.2.53.5.63.84 1.41 4.88 1.91 14.8-5.58 19.21 2.92 6.88-.53 12.96-.69 13.24-.15.28-.41.9-.72 1.62-1.84 4.27-5.66 13.16-13.5 17.58-.23.13-.48.19-.73.19z"/>
    <path
        d="m481.83 376.26c-.33 0-.66-.11-.93-.33-.65-.51-.76-1.46-.24-2.11.11-.14 2.81-3.52 5.75-5.33 2.65-1.64 4.04-4.37 3.79-7.5-.25-3.19-2.2-6.09-4.86-7.21-3.26-1.37-5.72-.87-9.12-.19-2.59.52-5.53 1.1-9.38.94-4.4-.19-7.53-2.33-10.28-4.22-3.39-2.32-5.46-3.57-8.51-2.39-3.38 1.31-5.92 4.14-6.8 7.57-.73 2.85-.63 7.39 3.95 12.78.54.63.46 1.58-.17 2.11-.63.54-1.58.46-2.11-.17-4.22-4.97-5.85-10.46-4.58-15.46 1.11-4.38 4.34-7.98 8.63-9.63 4.68-1.8 8.04.49 11.29 2.71 2.54 1.74 5.17 3.54 8.72 3.7 3.48.16 6.23-.4 8.66-.89 3.48-.7 6.77-1.36 10.88.36 3.72 1.56 6.35 5.39 6.69 9.74.33 4.22-1.62 8.06-5.21 10.28-2.49 1.54-4.95 4.62-4.98 4.65-.3.37-.73.57-1.18.57z"/>
    <path
        d="m449.8 365.14c-1.22 0-2.29-.53-2.97-1.5-1.78-2.55-1.23-5.78.23-7.66 1.28-1.65 3.23-2.24 5.08-1.55.08.03.16.07.24.11 3.23 1.91 3.38 4.31 3.19 5.57-.4 2.57-2.73 4.44-4.71 4.9-.36.08-.71.12-1.04.12zm.79-7.99c-.42 0-.81.23-1.16.68-.78 1-1.04 2.8-.13 4.1.06.08.22.32.87.17 1.01-.23 2.25-1.29 2.43-2.44.14-.88-.41-1.7-1.63-2.45-.13-.04-.25-.06-.38-.06z"/>
    <path
        d="m478.15 367.73c-2.74 0-5.15-2.29-5.41-5.16-.2-2.23 1.06-5.06 5.26-5.72 1.37-.21 2.66.34 3.53 1.51 1.29 1.76 1.5 4.78.47 6.87-.76 1.55-2.12 2.46-3.73 2.5-.04 0-.08 0-.12 0zm.31-7.92c-1.88.29-2.85 1.18-2.73 2.49.11 1.18 1.1 2.43 2.41 2.43h.05c.2 0 .71-.02 1.11-.82.54-1.1.45-2.9-.19-3.77-.26-.35-.46-.35-.65-.33z"/>
    <path
        d="m463.71 368.98c-.2 0-.39-.01-.59-.04-1.28-.19-2.39-1.13-2.83-2.38-.34-.99-.17-1.98.46-2.65.51-.54 1.49-1.09 3.28-.61 3.22.87 3.08 2.82 2.95 3.39-.28 1.34-1.69 2.29-3.27 2.29z"/>
    <path
        d="m390.81 371.27c-.53 0-1.05-.28-1.32-.79-7-12.93-2.46-21.05.54-26.42 1.09-1.96 2.04-3.65 1.88-4.71-.39-2.66-2.04-4.5-4.3-4.8-2.49-.31-6 1.26-8.35 6.71-.25.57-.79.95-1.43.9-.62-.02-1.16-.42-1.36-1-1.97-5.62.7-13.31 6.2-17.89 5.98-4.98 13.93-5.26 21.81-.76 9.18 5.24 9.59 14.1 9.98 22.68.42 9.13.82 17.76 10.78 23.27.72.4.99 1.31.59 2.04-.4.72-1.31.98-2.04.59-11.43-6.33-11.9-16.65-12.32-25.76-.39-8.47-.73-15.79-8.47-20.21-9.22-5.26-15.49-1.97-18.41.46-3.22 2.68-5.32 6.71-5.7 10.4 2.85-3.67 6.38-4.75 9.12-4.39 3.59.47 6.29 3.35 6.88 7.33.31 2.07-.87 4.18-2.23 6.61-2.84 5.09-6.73 12.05-.52 23.53.39.73.12 1.64-.61 2.03-.23.12-.47.18-.71.18z"/>
    <path
        d="m402.94 371.27c-.44 0-.88-.19-1.17-.57-.29-.36-7.01-8.98-2.57-17.22 3.53-6.56 2.64-16.89-4.96-22.12-.68-.47-.85-1.4-.38-2.09.47-.68 1.4-.85 2.09-.38 8.97 6.17 10.04 18.31 5.9 26.01-3.5 6.49 2.22 13.86 2.28 13.93.51.65.4 1.59-.25 2.11-.28.22-.6.32-.93.32z"/>
    <path
        d="m395.25 352.95c-.08 0-.15 0-.23 0-4.62-.2-5.84-3.66-5.84-5.46 0-.83.67-1.5 1.5-1.5s1.5.67 1.5 1.5c.01.53.27 2.35 2.97 2.46h.08c1.41 0 2.3-1.55 2.53-3.02.2-1.23-.04-2.69-1.05-2.97-.8-.23-1.26-1.06-1.03-1.85.23-.8 1.05-1.26 1.85-1.03 2.41.68 3.69 3.23 3.19 6.33-.44 2.7-2.33 5.55-5.48 5.55z"/>
    <path
        d="m397.96 372.03c-.46 0-.92-.21-1.21-.61-.49-.67-.35-1.61.32-2.1 0 0 1.48-1.15 1.37-2.36-.07-.77-.53-2.37-1.81-3.42-.96-.79-2.2-1.11-3.69-.96-.83.09-1.56-.52-1.64-1.34s.52-1.56 1.34-1.64c2.29-.23 4.33.34 5.9 1.64 1.91 1.57 2.74 3.85 2.89 5.46.26 2.87-2.29 4.83-2.58 5.05-.27.2-.58.29-.89.29z"/>
    <path
        d="m19.61 641.23c-.21 0-.42-.04-.62-.14-.75-.34-1.09-1.23-.74-1.99 4.75-10.41-4.51-31.5-4.61-31.72-.24-.54-.14-1.16.25-1.6s1-.62 1.56-.45c.79.24 7.59 2.73 13.54 19.72 7.92-7.27 15.87-4.44 16.23-4.31.58.21.96.76.98 1.37.01.62-.35 1.18-.92 1.42-.07.03-6.75 2.96-9.96 10.44l13.99-6.05c.66-.28 1.41-.07 1.82.51s.36 1.37-.13 1.89l-5.4 5.81 10.99-.78c.83-.05 1.54.56 1.6 1.39s-.56 1.54-1.39 1.6l-14.79 1.06c-.62.04-1.19-.29-1.46-.85s-.17-1.22.25-1.67l3.13-3.36-10.52 4.55c-.53.23-1.13.14-1.57-.23s-.62-.95-.48-1.51c1.68-6.72 5.75-10.9 8.85-13.21-2.84.16-6.84 1.34-10.75 5.73-.36.4-.9.58-1.43.47s-.95-.5-1.12-1.01c-2.92-9.1-6.08-14.15-8.48-16.92 2.61 7.34 6.32 20.68 2.55 28.95-.25.55-.8.88-1.37.88z"/>
    <path
        d="m560.42 635.72c-.38 0-.75-.14-1.03-.41l-4.31-4.06-3.13 3.22c-.43.44-1.09.58-1.66.34l-3.15-1.32c-2.76 1.6-3.06 1.6-3.44 1.6h-10.12c-.83 0-1.5-.67-1.5-1.5s.67-1.5 1.5-1.5h9.87c.49-.23 1.78-.95 2.82-1.57.41-.24.91-.27 1.34-.09l2.9 1.22 3.45-3.55c.57-.59 1.51-.61 2.1-.05l2.01 1.9c-.97-2.34-2.53-4.37-3.31-5.21-.44-.48-.53-1.19-.21-1.76s.96-.86 1.61-.73l1.73.36-.33-5.34c-.04-.59.27-1.14.79-1.42s1.15-.22 1.62.14c.13.1 2.49 1.94 4.71 4.41 1.29-7.05-.69-13.52-.71-13.6-.21-.68.08-1.41.7-1.76s1.4-.21 1.86.33c.26.3 5.88 6.93 9.07 22.62 3.77-5.69 10.06-8.21 10.39-8.33.61-.24 1.3-.05 1.71.45s.45 1.22.09 1.77c-.04.06-3.74 5.79-3.92 11.02-.03.83-.71 1.5-1.55 1.45-.83-.03-1.48-.72-1.45-1.55.09-2.81 1.01-5.66 1.98-7.93-2.46 1.77-5.3 4.54-6.48 8.41-.2.67-.84 1.12-1.54 1.06-.7-.05-1.27-.58-1.38-1.27-1.32-8.64-3.47-14.89-5.36-19.06.12 3.02-.13 6.59-1.28 10.17-.17.55-.64.95-1.21 1.03-.57.09-1.13-.17-1.46-.64-.97-1.43-2.25-2.8-3.38-3.89l.23 3.71c.03.47-.16.92-.52 1.23-.3.27-.7.39-1.1.36 1.34 2.19 2.7 5.22 2.51 8.33-.04.58-.4 1.09-.95 1.3-.18.07-.37.11-.55.11z"/>
    <path
        d="m151.79 254.46c-5.78 0-11.43-3.27-13.41-4.54-3.33 1.44-16.2 6.35-25.9 1.15-4.98-2.67-8.27-7.55-9.79-14.52-3.17 2.75-6.45 4-9.76 3.72-5-.42-8.5-4.24-9.82-5.93-4.51.6-23.75 2.42-33.76-8.58-6.2-6.82-7.52-17.11-3.92-30.6 3.67-13.75 10.6-23.27 20.59-28.29 14.75-7.42 31.46-2.74 36.32-1.09 1.51-3.16 5.97-10.62 14.54-10.96 6.56-6.16 14.62-8.86 22.19-7.41 7.45 1.42 13.71 6.56 17.79 14.53 8.54-6.46 15.95-3.56 18.65-2.08 3.01-2.65 13.4-10.85 25.76-10.44 7.54.26 14.39 3.67 20.39 10.15 8.92-1.76 16.71.07 21.47 5.06 4 4.2 5.46 10.07 4.21 16.71 2.69-.21 4.9.4 6.6 1.8 2 1.66 2.78 4.04 3.08 5.73 5.21-1.56 20.09-4.79 29.9 5.42 1.43-1.41 3.17-2.29 5.2-2.62 5.53-.9 11.51 2.69 13.27 3.85 5.38-.68 33.42-3.66 38.17 7.16 1.2 2.74.46 4.75-.38 5.96-5.16 7.45-30.48 6.79-36.49 6.52-1.16 2.08-4.52 6.78-11.2 7.16-1.02 6.28-5.06 11.68-11 14.63-8.06 4-18.23 2.99-28.08-2.74-2.03 2.75-4.47 4.34-7.29 4.73-3.52.49-6.74-1.07-8.71-2.34-1.14 4.35-4.43 13.42-12.65 16.62-7.67 2.99-17.44 0-29.04-8.86-1.92 3.62-5.08 6.35-9.25 7.96-7.73 2.99-18.36 2.03-28.01-2.47-1.86 2.36-4.24 3.82-7.1 4.37-.85.16-1.71.23-2.57.23zm-13.27-7.74c.31 0 .61.09.87.28.08.06 7.89 5.52 14.42 4.28 2.47-.47 4.41-1.83 5.91-4.14.42-.64 1.25-.86 1.93-.52 9.08 4.54 19.58 5.68 26.74 2.92 4.09-1.58 6.9-4.29 8.36-8.05.17-.45.55-.78 1.01-.91s.95-.02 1.33.28c11.37 9.06 20.65 12.29 27.58 9.6 9.13-3.55 11.29-16.53 11.31-16.66.09-.55.47-1 .99-1.18s1.1-.06 1.51.31c.04.03 4.06 3.64 8.27 3.07 2.28-.32 4.28-1.85 5.96-4.56.21-.34.55-.58.93-.67s.79-.02 1.13.19c9.33 5.82 18.95 7.03 26.4 3.34 5.42-2.69 8.98-7.76 9.52-13.56.07-.79.8-1.39 1.54-1.36 7.35.23 10.07-6.04 10.19-6.31.25-.58.8-.94 1.47-.92 8.37.46 30.96.42 34.85-5.18.38-.54.79-1.45.1-3.04-3.44-7.83-26.86-6.49-35.6-5.31-.38.05-.77-.05-1.08-.27-.06-.04-6.34-4.51-11.55-3.67-1.83.3-3.28 1.22-4.43 2.81-.27.38-.7.61-1.17.62-.46.03-.91-.19-1.21-.54-10.27-12.42-29.35-5.31-29.54-5.24-.47.18-.99.11-1.4-.18s-.65-.76-.63-1.26c0-.03.04-3.58-2.19-5.41-1.42-1.16-3.54-1.44-6.31-.83-.51.11-1.04-.05-1.41-.43s-.5-.92-.36-1.43c1.76-6.49.7-12.2-2.99-16.06-4.17-4.37-11.28-5.84-19.51-4.02-.53.12-1.08-.06-1.44-.47-5.57-6.25-11.9-9.55-18.82-9.79-13.17-.46-24.33 10.27-24.44 10.38-.53.52-1.37.57-1.96.12-.32-.24-7.98-5.81-17.46 2.52-.36.31-.84.44-1.31.34-.46-.1-.85-.42-1.05-.85-3.62-8.06-9.46-13.23-16.45-14.57-6.77-1.29-14.04 1.27-19.97 7.03-.28.27-.65.42-1.04.42-8.99 0-12.89 10.27-12.93 10.38-.14.38-.43.69-.8.85s-.79.17-1.17.03c-.19-.08-19.36-7.5-35.25.5-9.18 4.62-15.58 13.5-19.02 26.37-3.32 12.43-2.23 21.79 3.24 27.8 10.03 11.03 31.76 7.54 31.98 7.51.58-.1 1.18.16 1.51.67.03.05 3.31 4.98 8.15 5.38 3.06.25 6.21-1.37 9.36-4.8.39-.43 1-.59 1.55-.42s.96.65 1.04 1.22c1.05 7.5 3.99 12.59 8.74 15.13 9.66 5.18 23.83-1.5 23.98-1.56.21-.1.43-.15.65-.15z"/>
    <path
        d="m466.54 122.41c-14.64 0-31.13-4.27-44.57-16.29-8.57 8.18-21.46 11.8-33.27 9.27-9.09-1.95-15.99-7.33-19.1-14.83-11.4 1.07-16.1-4.03-17.9-7.25-2.83-5.07-2.21-11.84 1.52-16.48 2.94-3.66 7.17-5.16 11.74-4.21 6.86-14.57 15.79-23.42 26.56-26.29 12.1-3.23 22.82 2.05 26.8 4.42 2.89-7.06 15.41-32.59 46.5-36.23 31.84-3.72 47.08 17.48 50.29 22.65 2.63-.78 9.04-2.17 14.87.5 3.77 1.73 6.59 4.82 8.39 9.21 8.68-1.21 15.73.47 20.97 5 8.11 7.01 9.34 18.64 9.51 22.7 3.25.32 11.14 1.63 14.58 6.88 2.06 3.14 2.17 7.07.33 11.66-3.1 7.75-15.53 15.3-30.93 18.78-18.27 4.13-35.01 1.66-45.37-6.57-2.7 5.91-10.25 11.13-20.8 14.26-5.81 1.72-12.73 2.81-20.12 2.81zm-44.61-19.86c.37 0 .74.13 1.03.41 19.39 18.18 45.97 18.78 62.85 13.77 10.64-3.16 18.12-8.64 19.51-14.3.13-.52.52-.93 1.03-1.08s1.06-.03 1.45.33c9.43 8.72 26.02 11.45 44.37 7.3 14.25-3.22 26.1-10.2 28.81-16.96 1.45-3.63 1.43-6.62-.05-8.9-3.44-5.25-13.49-5.63-13.59-5.63-.82-.03-1.47-.71-1.45-1.53 0-.14.15-14.33-8.51-21.81-4.77-4.12-11.41-5.5-19.72-4.11-.72.12-1.42-.29-1.66-.98-1.49-4.21-3.93-7.12-7.26-8.64-6.27-2.88-13.68-.05-13.75-.03-.71.28-1.52-.03-1.88-.71-.56-1.07-14.02-26.15-47.93-22.17-33.99 3.98-44.57 35.65-44.68 35.97-.15.46-.5.81-.96.96-.45.15-.95.08-1.34-.2-.12-.09-12.31-8.65-25.92-4.99-10.13 2.71-18.57 11.38-25.1 25.76-.31.68-1.08 1.04-1.8.82-5.24-1.58-8.39 1.14-9.81 2.9-2.93 3.65-3.45 9.17-1.24 13.13 2.57 4.6 8.28 6.59 16.08 5.6.71-.09 1.37.32 1.6.99 2.52 7.08 8.84 12.19 17.34 14.02 11.31 2.42 23.68-1.28 31.52-9.45.29-.31.69-.46 1.08-.46z"/>
    <path
        d="m124.41 185.47c-.64 0-1.24-.42-1.43-1.06-.03-.09-3.35-10.06-20.26-15.3-.79-.25-1.23-1.08-.99-1.88.25-.79 1.08-1.23 1.88-.99 18.54 5.74 22.1 16.83 22.24 17.29.24.79-.21 1.63-1 1.87-.15.04-.29.06-.44.06z"/>
    <path
        d="m165.11 177.32c-.18 0-.37-.03-.55-.11-.77-.31-1.14-1.18-.84-1.95.12-.3 2.99-7.39 10.97-14.64.61-.55 1.56-.51 2.12.1s.51 1.56-.1 2.12c-7.44 6.76-10.17 13.46-10.2 13.53-.23.59-.8.94-1.39.94z"/>
    <path
        d="m237.68 193.32c-.14 0-.29-.02-.43-.06-.79-.24-1.24-1.07-1.01-1.86.08-.28 2.09-6.83 8.57-9.61.77-.32 1.64.03 1.97.79s-.03 1.64-.79 1.97c-5.16 2.21-6.86 7.66-6.87 7.71-.2.65-.79 1.07-1.44 1.07z"/>
    <path
        d="m198.15 243.52c-.34 0-.69-.12-.97-.36-7.86-6.66-8.94-15.94-8.98-16.33-.09-.82.51-1.56 1.33-1.65.83-.09 1.56.51 1.65 1.33 0 .08 1.02 8.5 7.94 14.36.63.54.71 1.48.17 2.11-.3.35-.72.53-1.15.53z"/>
    <path
        d="m138.52 249.72c-.65 0-1.26-.43-1.44-1.09-.23-.8.24-1.63 1.04-1.85 7.61-2.15 10.39-9.08 10.42-9.15.3-.77 1.17-1.15 1.94-.86.77.3 1.16 1.16.86 1.93-.13.34-3.31 8.39-12.41 10.96-.14.04-.27.06-.41.06z"/>
    <path
        d="m103.67 235c-.7 0-1.33-.5-1.47-1.21-1.6-8.24 3.28-13.65 3.49-13.88.56-.61 1.51-.64 2.12-.08s.65 1.51.08 2.12c-.16.18-4.05 4.56-2.75 11.27.16.81-.37 1.6-1.19 1.76-.1.02-.19.03-.29.03z"/>
    <path
        d="m370.58 100.45c-.57 0-1.12-.33-1.37-.88-3.62-7.98-2.26-13.73-2.2-13.97.2-.8 1.02-1.29 1.82-1.09s1.29 1.01 1.09 1.82c0 .04-1.14 5.04 2.02 12 .34.75 0 1.64-.75 1.99-.2.09-.41.13-.62.13z"/>
    <path
        d="m430.13 71.38c-.72 0-1.36-.52-1.48-1.25-.02-.1-1.76-9.82-10.45-15.88-.68-.47-.85-1.41-.37-2.09.47-.68 1.41-.85 2.09-.37 9.75 6.8 11.62 17.39 11.69 17.84.14.82-.42 1.59-1.23 1.73-.08.01-.17.02-.25.02z"/>
    <path
        d="m501.36 52.03c-.12 0-.23-.01-.35-.04-.8-.19-1.3-.98-1.11-1.79.07-.3 1.84-7.51 13.94-12.6.77-.32 1.64.04 1.96.8s-.04 1.64-.8 1.96c-10.55 4.44-12.17 10.46-12.19 10.52-.17.68-.79 1.14-1.46 1.14z"/>
    <path
        d="m545.79 84.59c-.47 0-.94-.22-1.23-.64-.48-.68-.31-1.61.36-2.09.43-.3 10.63-7.38 22.06-7.38h.41c.83.01 1.49.69 1.48 1.52-.01.82-.68 1.48-1.5 1.48h-.02c-.12 0-.24 0-.36 0-10.47 0-20.24 6.77-20.34 6.84-.26.18-.56.27-.86.27z"/>
    <path
        d="m224.08 78.94c-.59 0-1.15-.35-1.39-.93-3.22-7.89-12.1-14.06-20.69-20.04-4.97-3.46-9.67-6.73-13.16-10.24-4.75-4.79-8.98-9.91-12.38-14.03-2.26-2.74-4.43-5.37-5.79-6.67.06 2.97 1.9 10.29 5.97 12.92 6.28 4.05 11.68 8.96 11.9 9.17.61.56.65 1.51.1 2.12-.56.61-1.51.65-2.12.1-.05-.05-5.44-4.95-11.51-8.86-5.83-3.76-8.47-15.14-6.82-18.03.6-1.05 1.77-1.4 2.85-.87 1.56.78 3.72 3.35 7.74 8.21 3.36 4.07 7.54 9.13 12.19 13.82 3.29 3.32 7.88 6.51 12.74 9.89 8.94 6.22 18.19 12.65 21.75 21.36.31.77-.05 1.64-.82 1.96-.19.08-.38.11-.57.11z"/>
    <path
        d="m190.38 58.3c-.4 0-.81-.16-1.1-.48-2.58-2.79-7.07-6.85-9-7.12-3.25-.46-6.98-4.67-7.65-7.65-.37-1.65.12-3.06 1.33-3.86.69-.46 1.62-.27 2.08.43.46.69.27 1.62-.43 2.08-.16.1-.12.44-.06.7.46 2.04 3.4 5.09 5.15 5.34 3.67.52 9.62 6.81 10.78 8.06.56.61.52 1.56-.09 2.12-.29.27-.65.4-1.02.4z"/>
    <path
        d="m200.67 64.86c-.09 0-.18 0-.27-.02-.33-.06-8.23-1.51-14.47-4.99-4.48-2.5-6.98-5.34-7.02-7.97-.02-1.46.72-2.71 2.09-3.54.71-.42 1.63-.2 2.06.52.43.71.19 1.63-.52 2.06-.64.38-.64.76-.63.92.02 1.18 1.72 3.3 5.48 5.4 5.79 3.23 13.46 4.64 13.54 4.66.81.15 1.36.93 1.21 1.74-.13.72-.76 1.23-1.47 1.23z"/>
    <path
        d="m202.41 68.98s-.08 0-.12 0c-2.66-.21-5.79-1.05-8.82-2.34-2.25-.97-9.51-4.44-8.24-8.54.24-.79 1.08-1.23 1.88-.99.79.25 1.23 1.08.99 1.88-.16.52 1.55 2.75 6.55 4.89 2.69 1.15 5.56 1.92 7.88 2.11.83.07 1.44.79 1.38 1.62-.06.79-.72 1.38-1.49 1.38z"/>
    <path
        d="m209.24 73.16c-4.26 0-10.72-1-13.87-3.69-1.62-1.38-1.96-2.87-1.96-3.87 0-.83.67-1.5 1.5-1.5s1.5.67 1.5 1.5c0 .2 0 .81.91 1.59 2.94 2.51 10.91 3.34 14.1 2.84.83-.14 1.59.43 1.72 1.25s-.43 1.59-1.25 1.72c-.7.11-1.61.17-2.65.17z"/>
    <path
        d="m213.37 85.19c-.57 0-2.06-.21-4.01-2.08-1.54-1.47-1.86-3.41-2.03-4.47-3.3-1.09-8.16-3.44-8.16-7.85 0-.83.67-1.5 1.5-1.5s1.5.67 1.5 1.5c0 2.93 5.08 4.7 6.63 5.17l.17.05c1.03.34 1.19 1.34 1.32 2.13.14.85.33 2.01 1.14 2.79 1.22 1.17 1.97 1.25 1.98 1.25-.07 0-.11 0-.11 0l.2 2.99s-.08 0-.13 0z"/>
    <path
        d="m181.68 120.78c-.46 0-.9-.21-1.19-.59-.37-.49-.41-1.16-.09-1.69 3.75-6.19 8.98-13.56 11.49-17.1.68-.96 1.16-1.63 1.36-1.93.46-.69 1.39-.88 2.08-.42s.88 1.39.42 2.08c-.21.31-.71 1.01-1.41 2.01-1.88 2.65-5.3 7.47-8.45 12.3 8-5.35 20.26-17.55 25.16-22.73.32-.34.78-.51 1.24-.46s.88.3 1.12.7l1.06 1.69c2.33-1.01 6.19-2.86 7.5-4.22 1.32-1.36 3.08-1.93 4.63-2.43 1.38-.44 2.68-.86 3.49-1.74 1.76-1.89 4.2-3.98 7.46-3.38.83.15 1.63.65 2.35 1.29.05-.46.12-.89.2-1.28.22-1.22.4-2.18-.46-3.98-1.33-2.79-7.76-4.89-17.06-3.32-.82.13-1.59-.41-1.73-1.23s.41-1.59 1.23-1.73c9.9-1.67 18.05.33 20.27 4.99 1.28 2.68.96 4.42.7 5.81-.12.68-.23 1.27-.17 1.97.23 2.45.39 3.55.39 3.56.1.72-.32 1.41-1.02 1.64-.69.23-1.45-.07-1.79-.71-.97-1.8-2.62-3.91-3.46-4.06-1.07-.2-2.38-.04-4.72 2.47-1.35 1.45-3.16 2.03-4.77 2.55-1.34.43-2.6.84-3.4 1.66-2.29 2.38-8.94 5.11-9.69 5.41-.67.28-1.45.02-1.83-.59l-.72-1.14c-4.95 5.12-22.05 22.36-29.79 24.56-.14.04-.27.06-.41.06z"/>
    <path
        d="m167.28 99.94c-1.38 0-1.58-.34-1.87-.84-.34-.58-.27-1.3.18-1.83 1.4-1.66 22.58-8.36 27.67-9.06 6.07-.83 14.06-3.38 16.9-6.46.56-.61 1.51-.65 2.12-.09s.65 1.51.09 2.12c-4.03 4.38-13.99 6.76-18.7 7.4-2.86.39-8.87 2.14-14.4 3.94.8-.15 1.64-.3 2.51-.46.9-.17 1.58-.29 1.94-.35 1.77-.31 7.44-2.28 9.47-3.02.78-.28 1.64.12 1.92.9s-.12 1.64-.9 1.92c-.77.28-7.63 2.75-9.98 3.15-.35.06-1.02.18-1.9.35-9.21 1.7-13.2 2.33-15.05 2.33z"/>
    <path
        d="m191.06 98.54c-2.46 0-4.8-.56-6.79-1.67-.72-.4-.98-1.32-.58-2.04.41-.72 1.32-.98 2.04-.58 2.53 1.41 6 1.68 9.29.71.8-.23 1.63.22 1.86 1.02s-.22 1.63-1.02 1.86c-1.6.47-3.23.7-4.8.7z"/>
    <path
        d="m195.46 101.45c-2.95 0-4.91-1.96-6.27-3.33-.59-.59-.6-1.55-.01-2.13.58-.59 1.52-.6 2.11-.01l.03.03c1.7 1.7 2.97 2.78 5.01 2.35.81-.17 1.61.35 1.78 1.16s-.35 1.61-1.16 1.78c-.52.11-1.01.16-1.48.16z"/>
    <path
        d="m237.31 76.57c-.59 0-1.15-.35-1.39-.93-.31-.77.06-1.64.82-1.96 17.36-7.06 19.65-27.5 20.41-34.21.87-7.74.08-11.87-.96-13.16-.27-.34-.47-.36-.56-.37-.7-.08-2.57 3.1-3.53 6.79-.11.43-.41.78-.8.97-.12.06-3.34 1.74-4.57 7.05-.1.44-.39.8-.79 1s-.87.21-1.28.03c-.3-.13-.52-.13-.79.02-1.89 1.02-3.62 6.75-4.24 10.49-.11.67-.66 1.18-1.33 1.25-.31.03-.62-.04-.88-.19-.69.8-2.28 4.61-3.38 7.81-.23.66-.88 1.08-1.57 1-.48-.05-.89-.32-1.13-.71-.2.06-.54.2-1.02.5-1.79 1.09-2.43 4.44-2.53 5.64-.05.56-.4 1.05-.92 1.27-.07.03-2.22 1.02-3.96 4.67-.36.75-1.25 1.06-2 .71-.75-.36-1.06-1.25-.71-2 1.61-3.37 3.59-5 4.7-5.71.26-1.71 1.12-5.47 3.86-7.14 1.19-.73 2.21-1.05 3.08-.99 2.53-6.89 3.73-7.49 4.15-7.7.34-.17.66-.29.97-.36.65-3.12 2.32-9.46 5.5-11.18.56-.3 1.15-.46 1.74-.47 1.39-4.39 3.97-6.53 5.17-7.32.76-2.7 2.91-8.81 6.59-8.42 1 .11 1.89.62 2.58 1.48 2.41 3 2.2 10.01 1.6 15.37-.8 7.15-3.24 28.93-22.26 36.66-.19.08-.38.11-.56.11z"/>
</svg>
