<?xml version="1.0" encoding="UTF-8"?>
<svg id="Layer_1" data-name="Layer 1" xmlns="http://www.w3.org/2000/svg" viewBox="0 0 677.07 533.16">
  <defs>
    <style>
      .cls-1, .cls-2 {
        stroke-width: 0px;
      }

      .cls-2 {
        fill: #ff2d20;
      }
    </style>
  </defs>
  <circle class="cls-2" cx="64.48" cy="155.54" r="8.17"/>
  <circle class="cls-2" cx="143.76" cy="153.55" r="8.17"/>
  <path class="cls-2" d="m94.98,235.61c-8.07,0-14.62,6.54-14.62,14.62s6.54,14.62,14.62,14.62,14.62-6.54,14.62-14.62-6.54-14.62-14.62-14.62Zm1.83,26.13c-3.66,0-6.63-2.97-6.63-6.63s2.97-6.63,6.63-6.63,6.63,2.97,6.63,6.63-2.97,6.63-6.63,6.63Z"/>
  <path class="cls-2" d="m48.1,294.27c-7.77-2.18-15.84,2.34-18.03,10.11-2.18,7.77,2.34,15.84,10.11,18.03,7.77,2.18,15.84-2.34,18.03-10.11,2.18-7.77-2.34-15.84-10.11-18.03Zm-2.77,16.31c-.99,3.53-4.65,5.58-8.18,4.59-3.53-.99-5.58-4.65-4.59-8.18.99-3.53,4.65-5.58,8.18-4.59,3.53.99,5.58,4.65,4.59,8.18Z"/>
  <path class="cls-2" d="m112.73,367.24c-4.29-6.84-13.32-8.89-20.15-4.6-6.84,4.29-8.89,13.32-4.6,20.15s13.32,8.89,20.15,4.6c6.83-4.29,8.89-13.32,4.6-20.15Zm-5.69,9.24c-3.1,1.95-7.19,1.01-9.14-2.09s-1.01-7.19,2.09-9.14c3.1-1.95,7.19-1.01,9.14,2.09s1.01,7.19-2.09,9.14Z"/>
  <path class="cls-2" d="m44.74,214.46c3.48-10.02-8.06-15.75-19.09-15.18l-1.76,34.05c.99.63,1.87,1.78,2.47,3.59,5.11-3.7,11.87-1.4,8.17,7.22,3.96,2.12,4.72,10.65-5.49,6.95-.7,4.36-4.08,6.13-6.33,5.21l-1.03,19.91c1.78-.67,3.6-1.66,5.45-3.03,15.57,10.09,34.85,1.02,29.74-23.87,15.32-22.85,4.85-35.62-12.13-34.85Z"/>
  <path class="cls-2" d="m150.01,315.28c-27.51.18-32.18,16.02-22,29.63-18.79,5.06,2.77,43.81,21.13,29.94,6.36,9.35,16.08,9.55,23.44,5.53l4.75-71.96c-7.06-4.45-17.29-3.45-27.33,6.87Zm14.75,36.9c-3.02,6.68-13.33,2.42-7.83-4.71-5.93-2.14-7.84-9.03,1.38-10.82-.48-4.46,6.15-9.89,8.83.63,7.26-3.39,12.41,5.3,2.23,7.59,7.01,3.26,2.17,9.33-4.61,7.3Z"/>
  <path class="cls-2" d="m176.56,214.01c-.88.57-2.05,1.05-3.58,1.4,7.01,3.26,2.17,9.33-4.61,7.3-3.02,6.68-13.33,2.42-7.83-4.71-5.93-2.14-7.84-9.03,1.38-10.82-.48-4.46,6.15-9.89,8.83.63,2.72-1.27,4.11-1.47,5.54-.32v.03s-1.23-30.85-1.23-30.85c-6.32-1.09-13.93,1.41-21.44,9.13-27.51.18-32.18,16.02-22,29.63-18.79,5.06,2.77,43.81,21.13,29.94,6.89,10.13,17.73,9.52,25.23,4.44l-1.43-35.8Z"/>
  <path class="cls-1" d="m95.86,421.89c-32.6,0-60.1-7.37-66.85-13.23-1.21-1.05-1.83-2.14-1.83-3.23,0-5.97,6.67-14.2,8.89-16.78-8.15-16.26-9.53-43.93-11.99-93.41l-.34-6.91c-1.62-32.45-.03-50.5,1.66-69.61,1.11-12.52,2.25-25.46,2.55-43.22.42-24.41,6.19-45.35,16.68-60.55,12.23-17.72,30.05-26.91,52.96-27.33,28.23-.52,50.08,10.47,64.8,32.68,15.01,22.63,18.15,50.52,18.68,65.12,1.27,34.87,4.07,168.95-5.12,196.25.89,1.15,2.23,3.53,4.5,8.4.69,1.47,4.13,8.95,4.44,11.44,1.02,8.42-37.55,15.16-60.64,18.44-9.63,1.37-19.22,1.95-28.39,1.95Zm-65.68-16.46s.1.46,1.23,1.31c9.17,6.92,51.22,16.07,92.42,10.23,56.42-8,58.07-15.07,58.08-15.14-.33-2.71-6.88-16.66-8.4-18.43-.21-.11-.4-.27-.54-.48-.28-.41-.34-.93-.16-1.39,9.41-24.52,6.55-160.85,5.26-196.01-1.68-46.08-23.27-94.93-78.67-94.93-.58,0-1.16,0-1.76.02l-.03-1.5.03,1.5c-40.87.75-65.8,32.5-66.7,84.94-.3,17.87-1.45,30.87-2.56,43.44-1.68,19-3.26,36.95-1.65,69.19l.34,6.91c2.4,48.35,3.85,77.54,12.12,93.08.3.56.21,1.25-.22,1.72-2.45,2.68-8.8,10.69-8.8,15.54h0Zm144.03-21.86h0,0Z"/>
  <path class="cls-1" d="m102.45,187.62c-16.42,0-30.78-4.14-40.75-11.99-8.18-6.44-12.97-15.13-13.83-25.14-1.52-17.46,2.4-32.03,11.33-42.15,8.75-9.92,22.35-15.51,39.32-16.16h0c26.29-1.01,45.93,8.36,58.38,27.84,6.45,10.1,6.81,24.42.94,37.37-7.12,15.69-21.45,26.25-39.32,28.96-5.51.84-10.9,1.25-16.07,1.25Zm-3.82-92.43h0c-16.37.63-28.88,5.73-37.19,15.15-8.37,9.49-12.03,23.29-10.59,39.91.8,9.16,5.19,17.12,12.7,23.04,12.46,9.81,32.33,13.5,54.52,10.13,16.85-2.56,30.35-12.49,37.04-27.24,5.46-12.04,5.18-25.26-.74-34.52-11.83-18.52-30.6-27.42-55.74-26.46Z"/>
  <path class="cls-1" d="m74.92,137.6c-.28,0-.57-.08-.82-.25-.69-.45-.89-1.38-.43-2.08,3.42-5.22,8.9-8.58,14.31-8.76,3.35-.11,8.25.95,12.56,6.67.5.66.37,1.6-.29,2.1-.66.5-1.6.37-2.1-.29-2.8-3.71-6.27-5.6-10.07-5.48-4.38.15-9.05,3.05-11.9,7.41-.29.44-.77.68-1.26.68Z"/>
  <path class="cls-1" d="m87.71,138.56c-3.75,0-7.34-2.54-9.42-6.77-.37-.74-.06-1.64.68-2.01.74-.37,1.64-.06,2.01.68,1.73,3.52,4.71,5.48,7.58,5.02,2.51-.41,4.28-2.6,4.72-5.86.11-.82.87-1.39,1.69-1.28.82.11,1.4.87,1.29,1.69-.62,4.57-3.38,7.79-7.21,8.42-.44.07-.89.11-1.33.11Z"/>
  <path class="cls-1" d="m87.84,133.96c-2.05,0-4.34-1.2-5.37-4.71-.23-.79.22-1.63,1.02-1.86.79-.23,1.63.22,1.86,1.02.57,1.92,1.67,2.83,3.06,2.48.98-.25,1.75-1.08,1.61-1.75-.17-.81.35-1.61,1.16-1.77.81-.17,1.61.35,1.77,1.16.47,2.26-1.25,4.63-3.82,5.27-.41.1-.85.16-1.29.16Z"/>
  <path class="cls-1" d="m77.41,126.31c-.25,0-.5-.06-.73-.19-.72-.4-.98-1.32-.58-2.04,1.75-3.12,6.84-8.23,13.08-8.67,2.98-.21,7.36.65,11.35,5.91.5.66.37,1.6-.29,2.1-.66.5-1.6.37-2.1-.29-2.55-3.36-5.51-4.96-8.75-4.73-4.74.33-9.17,4.45-10.67,7.14-.27.49-.78.77-1.31.77Z"/>
  <path class="cls-1" d="m139.21,137.6c-.49,0-.97-.24-1.26-.68-2.85-4.35-7.52-7.26-11.9-7.41-3.8-.13-7.27,1.77-10.07,5.48-.5.66-1.44.79-2.1.29-.66-.5-.79-1.44-.29-2.1,4.31-5.71,9.22-6.78,12.56-6.67,5.41.18,10.89,3.54,14.31,8.76.45.69.26,1.62-.43,2.08-.25.17-.54.25-.82.25Z"/>
  <path class="cls-1" d="m126.41,138.56c-.44,0-.89-.04-1.33-.11-3.83-.62-6.59-3.85-7.21-8.42-.11-.82.46-1.58,1.29-1.69.82-.11,1.58.46,1.69,1.28.44,3.26,2.21,5.45,4.72,5.86,2.88.47,5.85-1.51,7.58-5.02.37-.74,1.27-1.05,2.01-.68.74.37,1.05,1.26.68,2.01-2.08,4.23-5.68,6.77-9.42,6.77Z"/>
  <path class="cls-1" d="m126.29,133.96c-.45,0-.88-.06-1.29-.16-2.58-.64-4.29-3.01-3.82-5.27.17-.81.97-1.33,1.77-1.16.81.17,1.33.96,1.16,1.77-.14.67.63,1.51,1.61,1.75,1.38.35,2.49-.56,3.06-2.48.23-.8,1.07-1.25,1.86-1.02.79.23,1.25,1.07,1.02,1.86-1.03,3.51-3.32,4.71-5.37,4.71Z"/>
  <path class="cls-1" d="m136.72,126.31c-.52,0-1.04-.28-1.31-.77-1.5-2.69-5.94-6.81-10.67-7.14-3.26-.22-6.2,1.37-8.75,4.73-.5.66-1.44.79-2.1.29-.66-.5-.79-1.44-.29-2.1,3.99-5.26,8.36-6.12,11.35-5.91,6.24.43,11.33,5.54,13.08,8.67.41.72.15,1.64-.58,2.04-.23.13-.48.19-.73.19Z"/>
  <path class="cls-1" d="m98.63,153.39c-3.71,0-5.93-2.26-6.03-2.37-.57-.6-.55-1.55.04-2.12.6-.57,1.54-.56,2.12.04.07.06,1.85,1.82,4.82,1.37,1.12-.17,2.1-.75,3.03-1.31,1.77-1.06,4.2-2.52,6.83.47.55.62.49,1.57-.13,2.12-.62.55-1.57.49-2.12-.13-.94-1.07-1.21-.97-3.04.12-1.08.65-2.42,1.45-4.13,1.71-.49.07-.96.11-1.4.11Z"/>
  <path class="cls-1" d="m108.34,159.15c-.06,0-.11,0-.17,0-.4-.05-9.85-1.18-9.85-7.33,0-.83.67-1.5,1.5-1.5s1.5.67,1.5,1.5c0,2.88,5.32,4.14,7.19,4.35.82.09,1.41.84,1.32,1.66-.09.77-.73,1.33-1.49,1.33Z"/>
  <path class="cls-1" d="m118.04,153.39c-.45,0-.92-.03-1.4-.11-1.71-.26-3.05-1.06-4.13-1.71-1.82-1.09-2.09-1.19-3.04-.12-.55.62-1.5.68-2.12.13-.62-.55-.68-1.5-.13-2.12,2.64-2.99,5.06-1.53,6.83-.47.94.56,1.91,1.15,3.04,1.31,2.97.44,4.76-1.31,4.83-1.38.58-.58,1.53-.59,2.12-.02.59.58.61,1.51.04,2.11-.1.11-2.32,2.37-6.03,2.37Z"/>
  <path class="cls-1" d="m108.33,159.15c-.75,0-1.4-.57-1.49-1.33-.09-.82.5-1.57,1.32-1.66,1.87-.21,7.19-1.47,7.19-4.35,0-.83.67-1.5,1.5-1.5s1.5.67,1.5,1.5c0,6.15-9.45,7.29-9.85,7.33-.06,0-.11,0-.17,0Z"/>
  <path class="cls-1" d="m87.2,106.39c-.79,0-1.45-.62-1.5-1.41-.05-.83.58-1.54,1.41-1.58.14,0,14.01-.91,14.75-9.45.07-.83.8-1.43,1.62-1.37.83.07,1.44.8,1.37,1.62-.96,11.12-16.89,12.15-17.56,12.19-.03,0-.06,0-.08,0Z"/>
  <path class="cls-1" d="m76.26,116.95c-.81,0-1.32-.02-1.42-.03-.83-.04-1.46-.75-1.42-1.58.04-.83.74-1.48,1.58-1.42.12,0,12.04.57,17.2-4.51,1.63-1.6,2.37-3.56,2.29-6-.03-.83.62-1.52,1.44-1.55.83-.03,1.52.62,1.55,1.44.12,3.28-.95,6.06-3.18,8.25-4.99,4.9-14.44,5.4-18.04,5.4Z"/>
  <path class="cls-1" d="m54.7,135.06c-1.02,0-2.07-.04-3.15-.12-.83-.06-1.45-.78-1.39-1.61.06-.83.8-1.43,1.61-1.39,16.68,1.24,24.57-7.87,26.4-16.8.17-.81.96-1.33,1.77-1.17.81.17,1.33.96,1.17,1.77-1.88,9.15-9.92,19.31-26.41,19.31Z"/>
  <path class="cls-1" d="m118.67,108c-6.01,0-14.71-2.18-17.41-10.74-.25-.79.19-1.63.98-1.88.79-.25,1.63.19,1.88.98,3.21,10.18,16.48,8.56,17.04,8.49.82-.11,1.57.47,1.68,1.29.11.82-.47,1.57-1.29,1.68-.85.11-1.83.18-2.89.18Z"/>
  <path class="cls-1" d="m131.82,115.38c-4.52,0-14.43-.87-19.36-8.07-.47-.68-.29-1.62.39-2.08.68-.47,1.62-.29,2.08.39,5.36,7.83,18.78,6.7,18.92,6.69.83-.07,1.55.53,1.63,1.36.08.82-.53,1.55-1.35,1.63-.14.01-1,.09-2.32.09Z"/>
  <path class="cls-1" d="m157.84,127.84s-.08,0-.13,0c-.78-.06-19.27-1.72-27.33-13.1-.48-.68-.32-1.61.36-2.09.67-.48,1.61-.32,2.09.36,7.25,10.23,24.96,11.83,25.13,11.84.83.07,1.44.79,1.37,1.62-.07.78-.72,1.38-1.49,1.38Z"/>
  <path class="cls-1" d="m67.49,162.21c-5.33,0-9.67-4.34-9.67-9.67s4.34-9.67,9.67-9.67,9.67,4.34,9.67,9.67-4.34,9.67-9.67,9.67Zm0-16.34c-3.68,0-6.67,2.99-6.67,6.67s2.99,6.67,6.67,6.67,6.67-2.99,6.67-6.67-2.99-6.67-6.67-6.67Z"/>
  <path class="cls-1" d="m146.76,160.22c-5.33,0-9.67-4.34-9.67-9.67s4.34-9.67,9.67-9.67,9.67,4.34,9.67,9.67-4.34,9.67-9.67,9.67Zm0-16.34c-3.68,0-6.67,2.99-6.67,6.67s2.99,6.67,6.67,6.67,6.67-2.99,6.67-6.67-2.99-6.67-6.67-6.67Z"/>
  <path class="cls-1" d="m97.98,263.34c-8.89,0-16.12-7.23-16.12-16.12s7.23-16.12,16.12-16.12,16.12,7.23,16.12,16.12-7.23,16.12-16.12,16.12Zm0-29.23c-7.23,0-13.12,5.88-13.12,13.12s5.88,13.12,13.12,13.12,13.12-5.88,13.12-13.12-5.88-13.12-13.12-13.12Z"/>
  <path class="cls-1" d="m99.82,260.24c-4.48,0-8.13-3.65-8.13-8.13s3.65-8.13,8.13-8.13,8.13,3.65,8.13,8.13-3.65,8.13-8.13,8.13Zm0-13.26c-2.83,0-5.13,2.3-5.13,5.13s2.3,5.13,5.13,5.13,5.13-2.3,5.13-5.13-2.3-5.13-5.13-5.13Z"/>
  <path class="cls-1" d="m111.14,223.93c-4.48,0-8.13-3.65-8.13-8.13s3.65-8.13,8.13-8.13,8.13,3.65,8.13,8.13-3.65,8.13-8.13,8.13Zm0-13.26c-2.83,0-5.13,2.3-5.13,5.13s2.3,5.13,5.13,5.13,5.13-2.3,5.13-5.13-2.3-5.13-5.13-5.13Z"/>
  <path class="cls-1" d="m163.47,277.11c-4.48,0-8.13-3.65-8.13-8.13s3.65-8.13,8.13-8.13,8.13,3.65,8.13,8.13-3.65,8.13-8.13,8.13Zm0-13.26c-2.83,0-5.13,2.3-5.13,5.13s2.3,5.13,5.13,5.13,5.13-2.3,5.13-5.13-2.3-5.13-5.13-5.13Z"/>
  <path class="cls-1" d="m49.04,188.63c-4.48,0-8.13-3.65-8.13-8.13s3.65-8.13,8.13-8.13,8.13,3.65,8.13,8.13-3.65,8.13-8.13,8.13Zm0-13.26c-2.83,0-5.13,2.3-5.13,5.13s2.3,5.13,5.13,5.13,5.13-2.3,5.13-5.13-2.3-5.13-5.13-5.13Z"/>
  <path class="cls-1" d="m47.14,321.46c-1.44,0-2.9-.19-4.36-.6h0c-4.14-1.17-7.59-3.87-9.69-7.63-2.11-3.75-2.62-8.1-1.46-12.25,1.17-4.14,3.87-7.59,7.63-9.69,3.75-2.11,8.11-2.62,12.25-1.46,8.55,2.41,13.56,11.32,11.15,19.88-2,7.1-8.48,11.76-15.52,11.76Zm-3.54-3.49c6.96,1.96,14.22-2.11,16.18-9.08,1.96-6.96-2.11-14.22-9.08-16.18-3.37-.95-6.91-.53-9.97,1.19-3.06,1.71-5.26,4.52-6.21,7.89-.95,3.37-.53,6.91,1.19,9.97,1.71,3.06,4.52,5.26,7.89,6.21h0Z"/>
  <path class="cls-1" d="m41.96,313.92c-.74,0-1.48-.1-2.21-.31h0c-2.09-.59-3.83-1.95-4.89-3.85-1.06-1.89-1.33-4.09-.74-6.18.59-2.09,1.96-3.83,3.85-4.89,1.89-1.06,4.09-1.32,6.18-.74,2.09.59,3.83,1.95,4.89,3.85,1.06,1.89,1.32,4.09.74,6.18-.59,2.09-1.96,3.83-3.85,4.89-1.23.69-2.59,1.04-3.97,1.04Zm-.02-13.27c-.87,0-1.72.22-2.5.66-1.19.67-2.06,1.77-2.43,3.09-.37,1.32-.21,2.7.46,3.9.67,1.2,1.77,2.06,3.09,2.43h0c1.32.37,2.7.21,3.9-.46s2.06-1.77,2.43-3.09c.37-1.32.21-2.7-.46-3.9-.67-1.2-1.77-2.06-3.09-2.43-.46-.13-.93-.19-1.4-.19Z"/>
  <path class="cls-1" d="m134.5,312.25c-.74,0-1.48-.1-2.21-.31-4.31-1.21-6.84-5.71-5.63-10.03.59-2.09,1.96-3.83,3.85-4.89,1.89-1.06,4.09-1.32,6.18-.74,4.31,1.21,6.84,5.71,5.63,10.03-.59,2.09-1.96,3.83-3.85,4.89-1.23.69-2.59,1.04-3.97,1.04Zm-.02-13.27c-.87,0-1.72.22-2.5.66-1.19.67-2.06,1.77-2.43,3.09-.77,2.72.83,5.56,3.55,6.33,1.32.37,2.7.21,3.9-.46,1.19-.67,2.06-1.77,2.43-3.09.77-2.72-.83-5.56-3.55-6.33-.46-.13-.93-.19-1.4-.19Z"/>
  <path class="cls-1" d="m44.51,367.74c-.74,0-1.48-.1-2.21-.31h0c-2.09-.59-3.83-1.95-4.89-3.85-1.06-1.89-1.33-4.09-.74-6.18.59-2.09,1.96-3.83,3.85-4.89,1.89-1.06,4.09-1.32,6.18-.74,2.09.59,3.83,1.95,4.89,3.85,1.06,1.89,1.32,4.09.74,6.18-.59,2.09-1.96,3.83-3.85,4.89-1.23.69-2.59,1.04-3.97,1.04Zm-.02-13.27c-.87,0-1.72.22-2.5.66-1.19.67-2.06,1.77-2.43,3.09-.37,1.32-.21,2.7.46,3.9.67,1.2,1.77,2.06,3.09,2.43h0c1.32.37,2.7.21,3.9-.46s2.06-1.77,2.43-3.09c.37-1.32.21-2.7-.46-3.9-.67-1.2-1.77-2.06-3.09-2.43-.46-.13-.93-.19-1.4-.19Z"/>
  <path class="cls-1" d="m103.38,388.13c-5.36,0-10.61-2.67-13.67-7.54-4.73-7.52-2.45-17.49,5.07-22.22,7.52-4.73,17.49-2.45,22.22,5.07,2.29,3.65,3.02,7.96,2.07,12.16s-3.49,7.77-7.14,10.06c-2.66,1.67-5.62,2.47-8.55,2.47Zm-.05-29.23c-2.44,0-4.84.69-6.95,2.02-6.12,3.85-7.98,11.96-4.13,18.08,1.86,2.97,4.77,5.03,8.19,5.81,3.41.78,6.93.18,9.9-1.68,2.97-1.86,5.03-4.77,5.81-8.19.78-3.42.18-6.93-1.68-9.9-1.86-2.97-4.77-5.03-8.19-5.81-.98-.22-1.96-.33-2.94-.33Z"/>
  <path class="cls-1" d="m106.53,375.99c-.61,0-1.22-.07-1.83-.21-2.12-.48-3.92-1.76-5.08-3.6-2.38-3.8-1.24-8.82,2.56-11.21h0c3.79-2.38,8.82-1.24,11.21,2.56,1.16,1.84,1.53,4.02,1.04,6.14s-1.76,3.92-3.6,5.07c-1.31.82-2.8,1.25-4.31,1.25Zm-2.75-12.48c-2.39,1.51-3.12,4.68-1.61,7.07,1.5,2.39,4.68,3.12,7.07,1.61,2.4-1.51,3.12-4.68,1.61-7.07-1.51-2.4-4.68-3.12-7.07-1.61h0Z"/>
  <path class="cls-1" d="m47.16,407.06c-.45,0-.9-.05-1.34-.15-1.56-.36-2.88-1.3-3.73-2.65-.85-1.35-1.12-2.96-.77-4.51s1.3-2.88,2.65-3.73c1.35-.85,2.96-1.12,4.51-.77,1.56.36,2.88,1.3,3.73,2.65.85,1.35,1.12,2.96.77,4.51s-1.3,2.88-2.65,3.73c-.96.61-2.06.92-3.17.92Zm-.02-8.96c-.55,0-1.1.16-1.58.46h0c-.67.42-1.14,1.08-1.32,1.86-.18.78-.04,1.57.38,2.25.42.67,1.08,1.14,1.86,1.32.78.18,1.58.04,2.25-.38.67-.42,1.14-1.08,1.32-1.86.18-.78.04-1.57-.38-2.25-.42-.67-1.08-1.14-1.86-1.32-.22-.05-.45-.08-.67-.08Zm-2.38-.81h0,0Z"/>
  <path class="cls-1" d="m96.18,415.2c-.45,0-.9-.05-1.34-.15-1.56-.36-2.88-1.3-3.73-2.65-.85-1.35-1.12-2.95-.77-4.51s1.3-2.88,2.65-3.73,2.95-1.12,4.51-.77c1.56.36,2.88,1.3,3.73,2.65.85,1.35,1.12,2.95.77,4.51s-1.3,2.88-2.65,3.73c-.96.61-2.06.92-3.17.92Zm-.02-8.96c-.55,0-1.1.16-1.58.46-.67.42-1.14,1.08-1.32,1.86s-.04,1.57.38,2.25c.42.67,1.08,1.14,1.86,1.32.78.18,1.57.04,2.25-.38.67-.42,1.14-1.08,1.32-1.86s.04-1.57-.38-2.25c-.42-.67-1.08-1.14-1.86-1.32-.22-.05-.45-.08-.67-.08Z"/>
  <path class="cls-1" d="m162.31,408.31c-.45,0-.9-.05-1.34-.15-1.56-.36-2.88-1.3-3.73-2.65-.85-1.35-1.12-2.95-.77-4.51s1.3-2.88,2.65-3.73c1.35-.85,2.96-1.12,4.51-.77,1.56.36,2.88,1.3,3.73,2.65.85,1.35,1.12,2.95.77,4.51s-1.3,2.88-2.65,3.73c-.96.61-2.06.92-3.17.92Zm-.02-8.96c-.55,0-1.1.16-1.58.46-.67.42-1.14,1.08-1.32,1.86s-.04,1.57.38,2.25c.42.67,1.08,1.14,1.86,1.32.78.18,1.58.04,2.25-.38.67-.42,1.14-1.08,1.32-1.86.18-.78.04-1.57-.38-2.25-.42-.67-1.08-1.14-1.86-1.32-.22-.05-.45-.08-.67-.08Z"/>
  <path class="cls-1" d="m99.91,397.07c-17.8,0-38.63-1.8-62.35-6.72-.81-.17-1.33-.96-1.16-1.77.17-.81.97-1.33,1.77-1.16,87.4,18.13,134.86-6.41,135.33-6.66.73-.39,1.64-.11,2.03.62.39.73.11,1.64-.62,2.03-.35.19-26.35,13.67-75.01,13.67Z"/>
  <path class="cls-1" d="m104.28,289.45c-48.02,0-79.46-9.55-79.91-9.69-.79-.25-1.23-1.09-.99-1.88.25-.79,1.08-1.23,1.88-.99.67.21,67.5,20.48,155.4,1.36.8-.18,1.61.34,1.78,1.15s-.34,1.61-1.15,1.78c-28.32,6.16-54.5,8.26-77.02,8.26Z"/>
  <path class="cls-1" d="m42.98,275.75c-4.21,0-8.63-1.26-12.81-3.77-1.63,1.12-3.3,2-4.98,2.63-.77.29-1.64-.1-1.93-.88-.29-.78.1-1.64.88-1.93,1.7-.64,3.41-1.59,5.08-2.83.5-.37,1.18-.4,1.71-.06,7.2,4.66,15.27,5.1,21.07,1.13,6.24-4.26,8.57-12.81,6.39-23.44-.08-.39,0-.8.22-1.14,6.99-10.42,8.96-19.49,5.57-25.52-2.7-4.79-8.65-7.34-16.38-6.99-.5.03-.97-.2-1.27-.6-.3-.4-.38-.92-.21-1.39.97-2.79.65-5.3-.96-7.43-2.87-3.81-9.56-6.12-16.64-5.75-.83.04-1.53-.59-1.58-1.42s.59-1.53,1.42-1.58c8.15-.43,15.7,2.3,19.19,6.95,1.81,2.41,2.46,5.21,1.93,8.2,7.92.12,14.09,3.18,17.11,8.55,3.92,6.97,2.02,16.94-5.34,28.14,2.22,11.59-.6,21.01-7.76,25.91-3.15,2.15-6.84,3.22-10.71,3.22Z"/>
  <path class="cls-1" d="m26.94,255.04c-1.17,0-2.28-.41-3.14-1.19-.61-.56-.65-1.51-.09-2.12.56-.61,1.51-.65,2.12-.09.47.43,1.17.52,1.92.26,1.1-.38,2.42-1.65,2.81-4.04.07-.44.33-.83.72-1.05.38-.23.85-.27,1.27-.12,3.17,1.15,5.49,1.1,6.04-.14.55-1.23-.36-3.33-1.77-4.08-.69-.37-.98-1.2-.67-1.91,1.26-2.95,1.26-5.22,0-6.23-1.32-1.05-3.8-.71-5.9.82-.39.28-.89.36-1.34.21-.46-.15-.81-.5-.96-.96-.55-1.67-1.42-2.77-2.46-3.08-.79-.24-1.24-1.08-1-1.87s1.08-1.24,1.87-1c1.14.35,2.61,1.21,3.72,3.3,2.85-1.42,5.94-1.37,7.95.23,1.06.85,3.2,3.33,1.34,8.62,2.06,1.79,3,4.89,1.98,7.17-.56,1.26-2.45,3.83-8.23,2.24-.79,2.3-2.34,4.01-4.37,4.72-.6.21-1.21.31-1.8.31Z"/>
  <path class="cls-1" d="m166.21,381.34c-5,0-10.23-2-14.42-7.44-5.07,3.21-10.81,3.22-16.32,0-8.2-4.78-14.18-15.83-13.08-24.13.54-4.05,2.74-7.06,6.26-8.64-4.35-6.62-5.29-13.44-2.55-18.96,3.56-7.16,12.88-11.2,26.28-11.41,9.51-9.53,20.23-12.02,28.76-6.65.7.44.91,1.37.47,2.07s-1.37.91-2.07.47c-7.38-4.65-16.89-2.16-25.45,6.64-.28.29-.66.45-1.07.45-12.55.08-21.15,3.54-24.24,9.75-2.45,4.93-1.2,11.3,3.43,17.48.3.4.38.92.22,1.39-.16.47-.55.83-1.03.96-3.53.95-5.56,3.25-6.04,6.84-.95,7.1,4.48,16.98,11.62,21.14,3.44,2.01,8.7,3.52,14.26-.68.33-.25.74-.35,1.15-.28.41.07.77.3,1,.64,6.14,9.02,15.12,8.53,21.49,5.06.72-.4,1.64-.13,2.03.6.4.73.13,1.64-.6,2.04-2.91,1.59-6.44,2.66-10.09,2.66Z"/>
  <path class="cls-1" d="m162.88,354.02c-2.36,0-4.5-1.23-5.47-3.17-.54-1.06-1.1-3.08.31-5.74-2.77-1.56-4.48-4.14-4.28-6.7.11-1.36.95-4.52,6.38-5.95.32-2.71,2.36-5.23,4.82-5.67,1.35-.25,4.54-.13,6.48,5.55,2.82-.78,5.17,0,6.56,1.11,1.53,1.24,2.19,3.04,1.77,4.81-.25,1.08-1.08,2.81-3.74,4.08,1.68,1.66,1.86,3.55,1.3,5.01-.95,2.49-4.29,4.36-8.5,3.57-1.26,1.92-3.24,3.06-5.48,3.11-.05,0-.1,0-.15,0Zm2.51-24.31c-.08,0-.15,0-.23.02-1.32.24-2.54,2.17-2.38,3.76.08.77-.44,1.48-1.21,1.63-3.15.61-5.03,1.89-5.15,3.51-.13,1.68,1.55,3.54,4,4.42.45.16.8.53.93.99.13.46.04.96-.25,1.34-1.21,1.57-1.57,3.03-1.03,4.11.47.94,1.67,1.55,2.88,1.52,1.48-.03,2.73-.93,3.42-2.46.31-.68,1.08-1.04,1.8-.82,3.2.95,5.55-.24,6.02-1.47.37-.98-.58-2.15-2.48-3.03-.58-.27-.93-.88-.86-1.52.07-.64.54-1.16,1.16-1.3,2.53-.57,4.21-1.63,4.49-2.85.15-.64-.12-1.29-.74-1.79-.93-.76-2.74-1.19-5.01-.12-.4.19-.87.19-1.28,0s-.7-.55-.81-.99c-.79-3.09-2.03-4.94-3.28-4.94Z"/>
  <path class="cls-1" d="m169.89,251.85c-5.15,0-10.39-2.13-14.48-7.42-5.07,3.21-10.81,3.22-16.32,0-8.2-4.78-14.19-15.83-13.08-24.13.54-4.05,2.74-7.06,6.26-8.64-4.35-6.62-5.29-13.44-2.55-18.96,3.56-7.16,12.88-11.2,26.28-11.41,7.13-7.14,15.05-10.37,22.33-9.12.82.14,1.36.92,1.22,1.73-.14.82-.93,1.36-1.73,1.22-6.43-1.11-13.58,1.98-20.11,8.7-.28.29-.66.45-1.07.45-12.55.08-21.16,3.54-24.24,9.75-2.45,4.93-1.2,11.3,3.43,17.48.3.4.38.92.22,1.39-.16.47-.55.83-1.03.96-3.53.95-5.56,3.25-6.04,6.84-.95,7.1,4.48,16.98,11.62,21.14,3.44,2.01,8.7,3.51,14.26-.68.33-.25.74-.35,1.15-.28.41.07.77.3,1,.64,6.34,9.32,16.2,8.75,23.16,4.04.68-.46,1.62-.28,2.08.4.46.69.28,1.62-.4,2.08-3.46,2.34-7.67,3.8-11.95,3.8Z"/>
  <path class="cls-1" d="m166.5,224.55c-2.36,0-4.49-1.23-5.47-3.17-.54-1.06-1.1-3.08.31-5.74-2.77-1.56-4.48-4.14-4.28-6.7.11-1.36.95-4.52,6.38-5.95.32-2.71,2.36-5.23,4.82-5.67,1.35-.24,4.51-.13,6.45,5.46,1.87-.7,3.71-.9,5.53.56.65.52.75,1.46.23,2.11-.52.65-1.46.75-2.11.23-.66-.53-1.2-.79-3.97.51-.4.19-.87.19-1.28,0-.4-.19-.7-.55-.81-.99-.83-3.27-2.18-5.16-3.51-4.92-1.32.24-2.55,2.17-2.38,3.76.08.77-.44,1.48-1.21,1.63-3.15.61-5.03,1.89-5.15,3.51-.13,1.68,1.55,3.54,4,4.42.45.16.8.53.93.99.13.46.04.96-.25,1.34-1.21,1.57-1.57,3.03-1.02,4.11.47.94,1.62,1.55,2.88,1.52,1.48-.03,2.73-.93,3.42-2.46.31-.68,1.08-1.04,1.8-.82,3.2.96,5.55-.24,6.02-1.47.38-.99-.57-2.15-2.48-3.04-.58-.27-.93-.88-.86-1.52.07-.64.54-1.16,1.16-1.3,1.59-.36,2.86-.91,3.65-1.6.62-.54,1.57-.48,2.12.15.54.63.48,1.57-.15,2.12-.55.48-1.2.89-1.94,1.25,1.68,1.66,1.86,3.55,1.3,5.01-.95,2.49-4.3,4.36-8.5,3.57-1.26,1.92-3.24,3.06-5.48,3.11-.05,0-.1,0-.15,0Z"/>
  <path class="cls-1" d="m82.8,385.1c-.22,0-.45-.05-.65-.15-10.44-5.06-15.81-13.93-15.52-25.66.52-21.42,20.64-47.88,43.93-57.77.71-.3,1.53-.02,1.9.66.37.67.17,1.52-.46,1.96-34.96,24.3-33.65,42.86-27.72,79.23.09.55-.13,1.11-.58,1.44-.26.2-.58.3-.9.3Zm8.58-67.21c-12.57,11.83-21.42,27.76-21.76,41.48-.23,9.43,3.63,16.79,11.21,21.45-4.28-26.85-5.47-44.81,10.55-62.93Z"/>
  <path class="cls-1" d="m121.36,361.1c-.26,0-6.41-.08-18.03-6.78-4.95-2.86-8.31-8.4-9.21-15.21-1.58-11.96,4.24-25.55,15.97-37.27.52-.52,1.34-.59,1.93-.16.6.43.8,1.22.48,1.88-16.36,33.42,8.72,54.01,9.8,54.87.5.4.69,1.07.48,1.67-.21.6-.78,1-1.42,1Zm-14.9-50.62c-7.17,9.34-10.55,19.32-9.37,28.24.78,5.88,3.59,10.62,7.73,13,5.14,2.96,9.11,4.55,11.88,5.4-6.28-6.97-17.62-23.55-10.24-46.64Z"/>
  <path class="cls-1" d="m50.36,331.45c-5.84,0-11.58-1.06-16.96-3.6-.6-.28-.94-.92-.85-1.57.09-.65.6-1.17,1.25-1.27,34.17-5.37,64.51-18.89,73.77-23.29-21.7-10.03-30.52-26.51-34.09-38.84-4.03-13.92-2.44-25.35-2.37-25.83.1-.68.65-1.21,1.33-1.28.67-.08,1.33.34,1.56.98.9,2.5,1.67,4.99,2.49,7.63,4.01,12.93,8.52,27.46,30.36,50.68-5.35-15.97-1.91-28.67,3.7-35.71,4.88-6.12,11.9-8.84,18.8-7.29.55.12.98.54,1.12,1.09.14.54-.03,1.12-.45,1.5-9.18,8.2-17.61,19.56-17.39,46.74.02.14.03.29,0,.43,0,.01,0,.03,0,.04,0,.33,0,.67.02,1.01,0,.45-.19.88-.53,1.17-1.57,1.33-32.81,27.4-61.75,27.4Zm-10.58-4.41c22.55,6.33,50.73-10.94,63.52-20.06-12.25,5.44-36.36,15.07-63.52,20.06Zm34.01-81.21c.16,4.39.79,10.14,2.59,16.33,4.44,15.21,13.81,26.8,27.89,34.55-21.69-23.23-26.63-38.46-30.48-50.88Zm51.65,8.8c-4.68,0-9.13,2.3-12.55,6.6-5.12,6.42-8.2,18.15-3.14,33.06.85-17.54,5.72-29.58,15.9-39.66-.07,0-.14,0-.21,0Z"/>
  <g>
    <path class="cls-2" d="m251.31,366.02c-8.07,0-14.62,6.54-14.62,14.62s6.54,14.62,14.62,14.62,14.62-6.54,14.62-14.62-6.54-14.62-14.62-14.62Zm1.83,26.13c-3.66,0-6.63-2.97-6.63-6.63s2.97-6.63,6.63-6.63,6.63,2.97,6.63,6.63-2.97,6.63-6.63,6.63Z"/>
    <path class="cls-2" d="m318.68,264.53c-3.86-7.09-12.73-9.72-19.82-5.86s-9.72,12.73-5.86,19.82c3.86,7.09,12.73,9.72,19.82,5.86,7.09-3.86,9.72-12.73,5.86-19.82Zm-13.62,9.39c-3.22,1.75-7.24.56-8.99-2.66-1.75-3.22-.56-7.24,2.66-8.99,3.22-1.75,7.24-.56,8.99,2.66s.56,7.24-2.66,8.99Z"/>
    <circle class="cls-2" cx="295.97" cy="229.79" r="6.26"/>
    <circle class="cls-2" cx="235.21" cy="228.27" r="6.26"/>
    <path class="cls-2" d="m254.16,265.15c6.38-18.38-37.79-22.34-36.64.64-1.14,0-2.22.08-3.24.23l-2.81,55.01c5.73,6.64,15.11,10.24,25.07,2.84,15.57,10.09,34.85,1.02,29.74-23.87,15.32-22.85,4.85-35.62-12.13-34.85Zm-15.7,36.64c-1.28,7.91-11.36,7.28-7.53-2.43-6.64,3.96-8.94-3.45-3.45-7.91-3.83-6.26,5.49-12.38,8.3-3.83,5.11-3.7,11.87-1.4,8.17,7.22,3.96,2.12,4.72,10.65-5.49,6.95Z"/>
    <path class="cls-2" d="m322.49,375.17c-6.64,3.96-8.94-3.45-3.45-7.91-3.83-6.26,5.49-12.38,8.3-3.83.78-.57,1.6-.99,2.41-1.27l1.59-36.24c-10.62-1.16-22.87,3.44-22.26,15.68-21.32,0-22.47,28.21-9.19,34.21-9.32,9.45,8.3,38.68,28.21,23.87l.84-19.14c-2.88,4.58-9.72,2.9-6.46-5.37Z"/>
    <path class="cls-1" d="m254.31,393.75c-8.89,0-16.12-7.23-16.12-16.12s7.23-16.12,16.12-16.12,16.12,7.23,16.12,16.12-7.23,16.12-16.12,16.12Zm0-29.23c-7.23,0-13.12,5.88-13.12,13.12s5.88,13.12,13.12,13.12,13.12-5.88,13.12-13.12-5.88-13.12-13.12-13.12Z"/>
    <path class="cls-1" d="m256.15,390.65c-4.48,0-8.13-3.65-8.13-8.13s3.65-8.13,8.13-8.13,8.13,3.65,8.13,8.13-3.65,8.13-8.13,8.13Zm0-13.26c-2.83,0-5.13,2.3-5.13,5.13s2.3,5.13,5.13,5.13,5.13-2.3,5.13-5.13-2.3-5.13-5.13-5.13Z"/>
    <path class="cls-1" d="m308.86,284.64c-1.54,0-3.08-.22-4.59-.67-4.13-1.22-7.53-3.98-9.59-7.76-2.06-3.78-2.52-8.14-1.3-12.27,1.22-4.13,3.98-7.53,7.76-9.59,3.78-2.06,8.14-2.52,12.27-1.3,4.13,1.22,7.53,3.98,9.59,7.76,4.25,7.81,1.35,17.61-6.46,21.86-2.4,1.3-5.02,1.96-7.68,1.96Zm-.04-29.25c-2.16,0-4.3.54-6.25,1.6-3.08,1.67-5.32,4.45-6.31,7.8-.99,3.36-.62,6.91,1.05,9.98,1.67,3.08,4.45,5.32,7.81,6.31,3.36.99,6.91.62,9.98-1.06,6.35-3.45,8.71-11.43,5.26-17.79-1.67-3.08-4.45-5.32-7.81-6.31-1.23-.36-2.49-.54-3.74-.54Z"/>
    <path class="cls-1" d="m304.91,273.23c-.77,0-1.55-.11-2.32-.34-2.08-.62-3.8-2.01-4.84-3.91-2.14-3.94-.68-8.88,3.26-11.03,3.94-2.14,8.89-.68,11.03,3.26,1.04,1.91,1.27,4.11.65,6.19-.62,2.08-2,3.8-3.91,4.84-1.21.66-2.53.99-3.87.99Zm-.02-13.26c-.83,0-1.67.2-2.44.62-1.2.65-2.08,1.74-2.47,3.05-.39,1.31-.24,2.7.41,3.9h0c.66,1.2,1.74,2.08,3.05,2.47,1.31.39,2.7.24,3.9-.41,1.2-.65,2.08-1.74,2.47-3.05.39-1.31.24-2.7-.41-3.9-.93-1.71-2.7-2.68-4.52-2.68Z"/>
    <path class="cls-1" d="m285.55,416.31c-27.06,0-56.2-4.38-61.86-9.16-.15-.12-.27-.27-.36-.44-6.61-12.43-7.67-33.76-9.6-72.47l-.26-5.28c-1.25-24.89-.02-38.74,1.27-53.4.85-9.59,1.72-19.5,1.95-33.1.71-41.79,20.79-67.1,53.72-67.71.47,0,.95-.01,1.42-.01,44.34,0,61.59,38.75,62.93,75.31.97,26.66,3.28,138.59-4.21,158.11-.11.3-.32.55-.59.73-8.38,5.38-25.91,7.43-44.41,7.43Zm-59.71-11.28c9.4,7.06,81.93,13.77,102.08,1.59,6.59-18.94,5.13-121.05,3.84-156.46-.62-17.09-6.8-72.42-59.86-72.42-.47,0-.94,0-1.42.01l-.03-1.5.03,1.5c-31.11.57-50.09,24.78-50.78,64.76-.23,13.71-1.11,23.68-1.97,33.32-1.29,14.55-2.5,28.3-1.27,52.99l.26,5.28c1.83,36.74,2.93,59.03,9.11,70.94Z"/>
    <path class="cls-1" d="m272.17,254.03c-3.99,0-8.12-.32-12.37-.96-13.82-2.1-24.9-10.26-30.4-22.4-4.55-10.03-4.27-21.14.74-28.98,9.61-15.05,24.77-22.29,45.06-21.5,13.11.5,23.62,4.83,30.39,12.5,6.91,7.83,9.94,19.09,8.77,32.57-.67,7.77-4.39,14.51-10.74,19.51-7.7,6.06-18.79,9.26-31.45,9.26Zm.13-70.9c-17.75,0-31.07,6.78-39.63,20.17-4.47,6.99-4.68,17-.54,26.12,5.08,11.2,15.33,18.73,28.12,20.67,16.9,2.57,32.04-.24,41.51-7.69,5.68-4.47,9-10.49,9.6-17.41,1.1-12.64-1.68-23.13-8.03-30.32-6.3-7.15-15.81-11.01-28.25-11.49h0c-.94-.04-1.87-.05-2.78-.05Z"/>
    <path class="cls-1" d="m293.27,215.7c-.49,0-.97-.24-1.26-.68-2.12-3.24-5.59-5.41-8.84-5.52-2.8-.11-5.32,1.27-7.42,4.06-.5.66-1.44.79-2.1.29-.66-.5-.79-1.44-.29-2.1,3.4-4.5,7.28-5.33,9.92-5.25,4.26.14,8.57,2.78,11.25,6.87.45.69.26,1.62-.43,2.08-.25.17-.54.24-.82.24Z"/>
    <path class="cls-1" d="m283.47,216.43c-.36,0-.72-.03-1.08-.09-3.09-.5-5.32-3.09-5.82-6.75-.11-.82.46-1.58,1.29-1.69.82-.11,1.58.46,1.69,1.28.32,2.34,1.56,3.91,3.33,4.19,2.04.33,4.18-1.1,5.44-3.66.37-.74,1.27-1.05,2.01-.68.74.37,1.05,1.26.68,2.01-1.66,3.36-4.53,5.38-7.54,5.38Z"/>
    <path class="cls-1" d="m283.35,212.9c-.36,0-.71-.04-1.06-.13-2.19-.55-3.59-2.5-3.19-4.45.17-.81.97-1.33,1.77-1.16.81.17,1.33.96,1.16,1.77-.06.29.38.78.98.93,1.17.29,1.7-.92,1.92-1.66.23-.8,1.07-1.25,1.86-1.02.79.23,1.25,1.07,1.02,1.86-.81,2.74-2.68,3.86-4.47,3.86Z"/>
    <path class="cls-1" d="m291.37,207.04c-.53,0-1.04-.28-1.31-.77-1.12-1.99-4.4-5.05-7.9-5.29-2.36-.16-4.52,1.01-6.4,3.49-.5.66-1.44.79-2.1.29-.66-.5-.79-1.44-.29-2.1,3.15-4.15,6.62-4.83,9-4.67,4.92.34,8.93,4.36,10.31,6.82.41.72.15,1.64-.58,2.04-.23.13-.48.19-.73.19Z"/>
    <path class="cls-1" d="m244,215.7c-.28,0-.57-.08-.82-.24-.69-.45-.89-1.38-.43-2.08,2.68-4.1,6.99-6.73,11.25-6.87,2.65-.09,6.52.75,9.92,5.25.5.66.37,1.6-.29,2.1-.66.5-1.6.37-2.1-.29-2.1-2.79-4.59-4.17-7.42-4.06-3.25.11-6.71,2.27-8.84,5.52-.29.44-.77.68-1.26.68Z"/>
    <path class="cls-1" d="m253.8,216.43c-3,0-5.88-2.02-7.54-5.38-.37-.74-.06-1.64.68-2.01.74-.37,1.64-.06,2.01.68,1.26,2.56,3.39,3.99,5.44,3.66,1.77-.29,3.01-1.85,3.33-4.19.11-.82.86-1.4,1.69-1.28.82.11,1.4.87,1.28,1.69-.5,3.66-2.73,6.25-5.82,6.75-.36.06-.72.09-1.08.09Z"/>
    <path class="cls-1" d="m253.92,212.9c-1.79,0-3.66-1.12-4.47-3.86-.23-.79.22-1.63,1.02-1.86.8-.23,1.63.22,1.86,1.02.22.75.77,1.95,1.92,1.66.6-.15,1.04-.64.98-.93-.17-.81.35-1.6,1.16-1.77.81-.17,1.61.35,1.77,1.16.4,1.95-1,3.91-3.19,4.45-.34.09-.7.13-1.06.13Z"/>
    <path class="cls-1" d="m245.91,207.04c-.25,0-.5-.06-.73-.19-.72-.4-.98-1.32-.58-2.04,1.38-2.46,5.39-6.48,10.31-6.82,2.36-.17,5.85.51,9,4.67.5.66.37,1.6-.29,2.1-.66.5-1.6.37-2.1-.29-1.88-2.48-4.03-3.65-6.4-3.49-3.5.24-6.78,3.3-7.9,5.29-.27.49-.79.77-1.31.77Z"/>
    <path class="cls-1" d="m275.09,227.8c-.36,0-.73-.03-1.12-.08-1.38-.21-2.44-.84-3.3-1.36-1.33-.79-1.34-.79-1.89-.16-.55.62-1.5.68-2.12.13-.62-.55-.68-1.5-.13-2.12,2.21-2.51,4.38-1.2,5.68-.43.72.43,1.41.84,2.2.96,2.09.31,3.35-.91,3.4-.96.58-.58,1.53-.58,2.11,0,.58.58.61,1.51.04,2.1-.08.09-1.88,1.92-4.88,1.92Z"/>
    <path class="cls-1" d="m267.66,232.21c-.75,0-1.4-.57-1.49-1.33-.09-.82.5-1.57,1.32-1.66,1.1-.13,5.2-1.01,5.2-2.99,0-.83.67-1.5,1.5-1.5s1.5.67,1.5,1.5c0,4.01-4.94,5.64-7.86,5.97-.06,0-.11,0-.17,0Z"/>
    <path class="cls-1" d="m260.23,227.8c-2.99,0-4.79-1.84-4.88-1.92-.57-.6-.55-1.55.04-2.12.6-.57,1.54-.56,2.12.04.04.04,1.3,1.26,3.39.95.79-.12,1.48-.53,2.2-.96,1.3-.78,3.47-2.08,5.68.43.55.62.49,1.57-.13,2.12-.62.55-1.57.49-2.12-.13-.55-.62-.56-.63-1.89.16-.85.51-1.91,1.15-3.3,1.36-.39.06-.77.08-1.12.08Z"/>
    <path class="cls-1" d="m267.66,232.21c-.06,0-.11,0-.17,0-2.92-.33-7.86-1.95-7.86-5.97,0-.83.67-1.5,1.5-1.5s1.5.67,1.5,1.5c0,1.98,4.1,2.86,5.2,2.99.82.09,1.41.84,1.32,1.66-.09.77-.74,1.33-1.49,1.33Z"/>
    <path class="cls-1" d="m283.86,191.77s-.06,0-.08,0c-.53-.03-13.03-.84-13.79-9.66-.07-.83.54-1.55,1.37-1.62.81-.07,1.55.54,1.62,1.37.54,6.24,10.87,6.92,10.97,6.92.83.05,1.46.76,1.41,1.58-.05.8-.71,1.41-1.5,1.41Z"/>
    <path class="cls-1" d="m292.26,199.87c-2.79,0-10.17-.38-14.08-4.23-1.78-1.75-2.64-3.97-2.54-6.59.03-.83.72-1.47,1.55-1.44.83.03,1.47.73,1.44,1.55-.06,1.76.47,3.18,1.65,4.34,3.84,3.78,12.83,3.36,12.92,3.36.8-.06,1.53.59,1.58,1.42.04.83-.59,1.53-1.42,1.58-.08,0-.47.02-1.09.02Z"/>
    <path class="cls-1" d="m308.77,213.74c-12.84,0-19.11-7.93-20.58-15.08-.17-.81.36-1.6,1.17-1.77.81-.17,1.6.35,1.77,1.17,1.38,6.7,7.31,13.53,19.86,12.6.83-.05,1.55.56,1.61,1.39s-.56,1.55-1.39,1.61c-.84.06-1.66.09-2.45.09Z"/>
    <path class="cls-1" d="m259.74,193c-.83,0-1.59-.05-2.25-.14-.82-.11-1.4-.86-1.29-1.69.11-.82.86-1.4,1.69-1.29.41.05,10.31,1.25,12.68-6.26.25-.79,1.09-1.23,1.88-.98.79.25,1.23,1.09.98,1.88-2.13,6.75-8.97,8.47-13.69,8.47Z"/>
    <path class="cls-1" d="m249.65,198.66c-1.02,0-1.69-.06-1.79-.07-.82-.08-1.43-.81-1.35-1.63.08-.82.81-1.44,1.63-1.36.1,0,10.19.85,14.18-4.97.47-.68,1.4-.86,2.09-.39.68.47.86,1.4.39,2.08-3.87,5.65-11.62,6.33-15.14,6.33Z"/>
    <path class="cls-1" d="m229.72,208.21c-.77,0-1.43-.59-1.49-1.38-.07-.83.54-1.55,1.37-1.62.13-.01,13.54-1.23,19.01-8.93.48-.68,1.42-.83,2.09-.36.68.48.83,1.42.36,2.09-6.28,8.85-20.6,10.13-21.21,10.18-.04,0-.08,0-.13,0Z"/>
    <path class="cls-1" d="m298.97,234.55c-4.28,0-7.76-3.48-7.76-7.76s3.48-7.76,7.76-7.76,7.76,3.48,7.76,7.76-3.48,7.76-7.76,7.76Zm0-12.52c-2.63,0-4.76,2.14-4.76,4.76s2.14,4.76,4.76,4.76,4.76-2.14,4.76-4.76-2.14-4.76-4.76-4.76Z"/>
    <path class="cls-1" d="m238.21,233.03c-4.28,0-7.76-3.48-7.76-7.76s3.48-7.76,7.76-7.76,7.76,3.48,7.76,7.76-3.48,7.76-7.76,7.76Zm0-12.52c-2.63,0-4.76,2.14-4.76,4.76s2.14,4.76,4.76,4.76,4.76-2.14,4.76-4.76-2.14-4.76-4.76-4.76Z"/>
    <path class="cls-1" d="m227.79,348.9c-.6,0-1.2-.08-1.79-.25-1.69-.48-3.1-1.58-3.96-3.12-.86-1.53-1.07-3.31-.6-5,.98-3.49,4.63-5.54,8.12-4.55,3.49.98,5.54,4.62,4.55,8.12-.48,1.69-1.58,3.1-3.12,3.96-1,.56-2.1.84-3.21.84Zm0-10.17c-1.56,0-3.01,1.03-3.45,2.61-.26.92-.14,1.89.32,2.72.47.83,1.23,1.44,2.15,1.7h0c.92.26,1.89.14,2.72-.32.83-.47,1.44-1.23,1.7-2.15.54-1.9-.58-3.88-2.48-4.42-.32-.09-.65-.13-.97-.13Z"/>
    <path class="cls-1" d="m275.57,330.15c-36.86,0-61.01-7.34-61.36-7.44-.79-.25-1.23-1.09-.99-1.88.25-.79,1.09-1.23,1.88-.99.51.16,51.66,15.67,118.93,1.04.81-.18,1.61.34,1.78,1.15s-.34,1.61-1.15,1.78c-21.73,4.73-41.82,6.34-59.1,6.34Z"/>
    <path class="cls-1" d="m228.31,326.5c-6.07,0-11.34-3.28-14.97-7.49-.54-.63-.47-1.57.16-2.12.63-.54,1.58-.47,2.12.16,2.44,2.82,11.3,11.35,23.04,2.62.5-.37,1.18-.4,1.71-.06,7.2,4.66,15.27,5.09,21.07,1.13,6.24-4.26,8.57-12.81,6.39-23.44-.08-.39,0-.8.22-1.14,6.99-10.42,8.96-19.49,5.57-25.52-2.7-4.79-8.66-7.34-16.38-6.99-.49.03-.97-.2-1.27-.6-.3-.4-.38-.92-.21-1.39,1.2-3.45.44-6.42-2.26-8.84-5.34-4.77-16.56-5.84-24.01-2.28-3.59,1.71-7.8,5.22-7.45,12.17.02.41-.13.81-.41,1.11-.28.3-.68.47-1.09.47-1.04,0-2.06.07-3.02.22-.82.12-1.58-.44-1.71-1.26-.12-.82.44-1.58,1.26-1.71.63-.09,1.29-.16,1.95-.2.2-5.99,3.41-10.75,9.17-13.5,8.56-4.09,21.07-2.83,27.3,2.75,3.05,2.73,4.3,6.23,3.62,10.04,7.92.12,14.09,3.18,17.11,8.55,3.92,6.97,2.02,16.94-5.34,28.14,2.22,11.59-.6,21.01-7.76,25.91-6.58,4.49-15.51,4.26-23.52-.55-3.93,2.71-7.75,3.83-11.3,3.83Z"/>
    <path class="cls-1" d="m236.35,305.73c-1.31,0-2.52-.51-3.41-1.47-.75-.81-1.72-2.48-1.28-5.39-2.32.45-3.98-.46-4.87-1.74-1.53-2.19-1.18-6,1.83-9.03-.88-2.12-.71-4.4.51-6.28,1.32-2.03,3.59-3.15,5.78-2.87,1.18.15,3.17.83,4.57,3.49,2.85-1.42,5.94-1.37,7.95.23,1.06.85,3.2,3.33,1.34,8.62,2.06,1.79,3,4.89,1.98,7.17-.56,1.26-2.46,3.83-8.23,2.24-.94,2.77-2.9,4.28-4.61,4.8-.53.16-1.06.24-1.57.24Zm-2.43-10.87c.35,0,.69.12.97.36.49.42.66,1.1.42,1.69-.95,2.41-1.01,4.4-.17,5.32.44.48,1.14.62,1.9.39,1.15-.35,2.52-1.6,2.92-4.08.07-.44.33-.83.72-1.05.38-.23.85-.27,1.27-.12,3.18,1.15,5.49,1.1,6.04-.14.55-1.23-.36-3.33-1.77-4.08-.69-.37-.98-1.2-.67-1.91,1.26-2.95,1.26-5.22,0-6.23-1.31-1.05-3.8-.71-5.9.82-.39.28-.89.36-1.34.21-.46-.15-.81-.5-.96-.96-.62-1.88-1.62-3-2.82-3.16-1.06-.14-2.2.48-2.88,1.52-.81,1.25-.77,2.78.11,4.21.39.64.25,1.47-.33,1.95-2.59,2.11-2.93,4.73-2.17,5.81.6.86,2.1.73,3.9-.34.24-.14.5-.21.77-.21Z"/>
    <path class="cls-1" d="m319.87,402.3c-6.04,0-11.29-3.25-14.91-7.41-5.36-6.17-8.22-15.72-4.36-21.62-6.08-3.86-9.21-12.56-7.36-21.13,1.5-6.95,6.83-14.35,17.33-14.99.14-4.12,1.71-7.7,4.59-10.41,4.35-4.1,11.76-6.14,19.35-5.31.82.09,1.42.83,1.33,1.65-.09.82-.84,1.41-1.65,1.33-6.74-.74-13.23.99-16.96,4.51-2.61,2.46-3.83,5.69-3.64,9.61.02.41-.13.81-.41,1.11-.28.3-.68.47-1.09.47-8.25,0-14.2,4.74-15.91,12.67-1.72,7.98,1.44,16.01,7.34,18.67.45.2.77.61.86,1.09s-.06.98-.41,1.33c-3.83,3.89-2.34,12.62,3.27,19.06,2.43,2.8,11.28,11.25,22.98,2.55.67-.49,1.6-.36,2.1.31.49.66.36,1.6-.31,2.1-4.22,3.14-8.33,4.42-12.13,4.42Z"/>
    <path class="cls-1" d="m327.91,381.54c-1.31,0-2.52-.51-3.41-1.47-.75-.81-1.72-2.48-1.28-5.39-2.32.46-3.98-.46-4.87-1.74-1.53-2.19-1.18-6,1.83-9.03-.88-2.12-.71-4.4.51-6.28,1.32-2.03,3.59-3.15,5.78-2.87,1.18.15,3.17.83,4.57,3.49.75-.38,1.54-.66,2.31-.83.82-.18,1.61.34,1.79,1.14.18.81-.33,1.61-1.14,1.79-.94.21-1.91.65-2.79,1.29-.39.28-.89.36-1.34.21-.46-.15-.81-.5-.96-.96-.62-1.88-1.62-3-2.82-3.16-1.06-.14-2.2.48-2.88,1.52-.81,1.25-.77,2.78.11,4.21.39.64.25,1.47-.33,1.95-2.59,2.11-2.93,4.73-2.17,5.81.6.86,2.1.73,3.9-.34.55-.33,1.25-.27,1.74.15.49.42.66,1.1.42,1.69-.95,2.41-1.01,4.4-.17,5.32.44.48,1.14.62,1.9.39,1.15-.35,2.52-1.6,2.92-4.08.13-.82.9-1.38,1.72-1.24.82.13,1.37.9,1.24,1.72-.62,3.85-3,5.87-5.02,6.47-.53.16-1.06.24-1.57.24Z"/>
    <path class="cls-1" d="m269.34,322.77c-.78,0-1.42-.59-1.49-1.36-.07-.77.46-1.47,1.22-1.61,7.35-1.36,12.63-4.82,15.69-10.3,7.78-13.94-.87-36.61-.95-36.83-.27-.71.02-1.5.69-1.86.67-.36,1.5-.17,1.93.45.73,1.02,17.77,25.24,10,40.3-3.84,7.44-12.95,11.21-27.08,11.21Zm20.42-39.92c1.64,8.26,2.43,19.48-2.38,28.1-1.82,3.26-4.3,5.9-7.42,7.9,6.91-1.37,11.53-4.27,13.8-8.66,4.07-7.89.05-19.25-4-27.34Z"/>
    <path class="cls-1" d="m289.66,319.62c-.34,0-.68-.11-.96-.35-.64-.53-.73-1.47-.2-2.11,9.33-11.24,30.35-19.81,38.85-22.94-4.71-1.19-14.42-.93-28.01,13.25-.57.6-1.52.62-2.12.04s-.62-1.52-.04-2.12c21.23-22.15,34.61-12.65,35.17-12.23.45.33.68.89.59,1.44s-.48,1.01-1.01,1.19c-.3.1-30.08,9.98-41.11,23.28-.3.36-.72.54-1.16.54Z"/>
    <path class="cls-1" d="m296.62,374.7c-6.85,0-21.09-1.03-29.4-8.96-4.68-4.47-6.7-9.25-6.02-14.2,1.47-10.72,15.18-18.15,15.76-18.46.64-.34,1.44-.17,1.89.4s.42,1.38-.06,1.93c-.18.21-4.5,5.22-3.02,12.57,1.69,8.36,10.42,16.58,25.27,23.76.61.29.95.96.82,1.63-.12.67-.68,1.16-1.35,1.22-.22.02-1.67.13-3.88.13Zm-23.16-35.72c-3.81,2.91-8.55,7.55-9.29,12.97-.54,3.95,1.19,7.86,5.12,11.62,6.67,6.37,18.09,7.82,25.04,8.07-12.64-7.02-19.87-14.79-21.52-23.14-.75-3.76-.22-7.01.65-9.52Z"/>
    <path class="cls-1" d="m263.78,403.69c-7.38,0-15.96-2.66-25.95-8.03-.68-.37-.97-1.19-.67-1.9.3-.71,1.09-1.08,1.83-.85,24.22,7.53,38.43-4.47,53.21-19.72.49-.51,1.27-.6,1.88-.23.6.38.85,1.12.61,1.79-5.48,14.94-12.54,23.87-21.59,27.31-2.87,1.09-5.97,1.64-9.31,1.64Zm-13.2-5.56c8.48,3,15.55,3.36,21.45,1.12,6.75-2.56,12.34-8.69,16.99-18.65-10.78,10.35-22.47,18.45-38.44,17.53Z"/>
    <path class="cls-1" d="m291.37,368.67c-.41,0-.82-.17-1.12-.5-7.12-7.91-10.14-15.38-8.96-22.19,1.48-8.56,9.04-12.73,9.36-12.91.59-.32,1.32-.21,1.79.27.47.48.56,1.22.22,1.8-.07.12-6.88,12.4.11,31.5.25.67-.02,1.43-.64,1.8-.24.14-.51.21-.77.21Zm-3.42-29.52c-1.6,1.78-3.17,4.24-3.7,7.37-.7,4.11.46,8.6,3.46,13.4-1.96-9.13-1-16.26.24-20.77Z"/>
  </g>
  <g>
    <circle class="cls-2" cx="383.09" cy="298.55" r="11.52"/>
    <circle class="cls-2" cx="379.98" cy="295.86" r="5.22"/>
    <circle class="cls-2" cx="443.45" cy="391.85" r="11.52"/>
    <circle class="cls-2" cx="440.34" cy="389.16" r="5.22"/>
    <path class="cls-2" d="m431.26,313.56c6.38-18.38-37.79-22.34-36.64.64-21.32,0-22.47,28.21-9.19,34.21-9.32,9.45,8.3,38.68,28.21,23.87,15.57,10.09,34.85,1.02,29.74-23.87,15.32-22.85,4.85-35.62-12.13-34.85Zm-15.7,36.64c-1.28,7.91-11.36,7.28-7.53-2.43-6.64,3.96-8.94-3.45-3.45-7.91-3.83-6.26,5.49-12.38,8.3-3.83,5.11-3.7,11.87-1.4,8.17,7.22,3.96,2.12,4.72,10.65-5.49,6.95Z"/>
    <ellipse class="cls-2" cx="395.52" cy="267.43" rx="4.18" ry="4.77"/>
    <ellipse class="cls-2" cx="436.05" cy="266.26" rx="4.18" ry="4.77"/>
    <path class="cls-1" d="m386.11,308.56c-4.62,0-9.1-2.46-11.46-6.8h0c-3.43-6.31-1.09-14.22,5.22-17.65,3.05-1.66,6.57-2.03,9.91-1.05,3.33.99,6.08,3.21,7.75,6.27,3.43,6.31,1.09,14.22-5.22,17.65-1.97,1.07-4.1,1.58-6.2,1.58Zm-8.82-8.23c2.64,4.85,8.73,6.65,13.58,4.02,4.85-2.64,6.65-8.73,4.02-13.58-2.64-4.85-8.73-6.65-13.58-4.02-4.85,2.64-6.65,8.73-4.02,13.58h0Z"/>
    <path class="cls-1" d="m382.99,299.59c-.64,0-1.28-.09-1.92-.28-1.72-.51-3.14-1.66-4-3.24-.86-1.58-1.05-3.39-.54-5.12.51-1.72,1.66-3.14,3.24-4,1.58-.86,3.4-1.05,5.12-.54,1.72.51,3.14,1.66,4,3.24.86,1.58,1.05,3.4.54,5.12-.51,1.72-1.66,3.14-3.24,4-1,.54-2.1.82-3.2.82Zm-.01-10.45c-.61,0-1.22.15-1.77.45-.87.48-1.51,1.26-1.79,2.22-.28.95-.18,1.96.3,2.83h0c.48.87,1.26,1.51,2.22,1.79.96.28,1.96.18,2.83-.3.87-.48,1.51-1.26,1.79-2.22s.18-1.96-.3-2.83c-.48-.87-1.26-1.51-2.22-1.79-.35-.1-.71-.15-1.06-.15Z"/>
    <path class="cls-1" d="m446.47,401.86c-4.62,0-9.1-2.46-11.46-6.8h0c-3.43-6.31-1.09-14.22,5.22-17.65,3.05-1.66,6.57-2.03,9.91-1.05,3.33.99,6.08,3.21,7.75,6.27,3.43,6.3,1.09,14.22-5.22,17.65-1.97,1.07-4.1,1.58-6.2,1.58Zm-8.82-8.23c2.64,4.85,8.73,6.65,13.58,4.02,4.85-2.64,6.65-8.73,4.02-13.58-1.28-2.35-3.39-4.06-5.96-4.82-2.57-.76-5.27-.47-7.62.81-4.85,2.64-6.65,8.73-4.02,13.58h0Z"/>
    <path class="cls-1" d="m443.35,392.89c-.64,0-1.28-.09-1.92-.28-1.72-.51-3.14-1.66-4-3.24-1.77-3.26-.56-7.35,2.69-9.12,3.26-1.77,7.35-.56,9.12,2.7.86,1.58,1.05,3.4.54,5.12-.51,1.72-1.66,3.14-3.24,4-1,.54-2.1.82-3.2.82Zm-.02-10.45c-.6,0-1.21.15-1.77.45-1.8.98-2.47,3.25-1.49,5.05.48.87,1.26,1.51,2.22,1.79.95.28,1.96.18,2.83-.3.87-.48,1.51-1.26,1.79-2.22s.18-1.96-.3-2.83c-.67-1.24-1.96-1.94-3.28-1.94Z"/>
    <path class="cls-1" d="m405.41,374.91c-6.04,0-11.29-3.25-14.91-7.41-5.36-6.17-8.22-15.72-4.36-21.62-6.08-3.86-9.21-12.56-7.36-21.13,1.5-6.95,6.83-14.35,17.33-14.99.2-5.99,3.41-10.75,9.17-13.5,8.56-4.09,21.07-2.83,27.3,2.75,3.05,2.73,4.3,6.23,3.62,10.04,7.92.12,14.09,3.18,17.11,8.55,3.92,6.97,2.02,16.94-5.34,28.14,2.22,11.59-.6,21.01-7.76,25.91-6.58,4.49-15.51,4.26-23.52-.55-3.93,2.7-7.75,3.82-11.29,3.82Zm11.32-78.07c-3.58,0-7.17.68-10.16,2.11-3.59,1.71-7.8,5.22-7.45,12.17.02.41-.13.81-.41,1.11-.28.3-.68.47-1.09.47-8.25,0-14.2,4.74-15.91,12.67-1.72,7.98,1.44,16.01,7.34,18.67.45.2.77.61.86,1.09s-.06.98-.41,1.33c-3.83,3.89-2.34,12.62,3.27,19.06,2.43,2.8,11.28,11.25,22.98,2.55.5-.37,1.18-.4,1.71-.06,7.2,4.66,15.27,5.09,21.07,1.13,6.24-4.26,8.57-12.81,6.39-23.44-.08-.39,0-.8.22-1.14,6.99-10.42,8.96-19.49,5.57-25.52-2.7-4.79-8.66-7.34-16.38-7-.48.03-.97-.2-1.27-.6s-.38-.92-.21-1.39c1.2-3.45.44-6.42-2.26-8.84-3.2-2.86-8.51-4.39-13.86-4.39Z"/>
    <path class="cls-1" d="m413.45,354.15c-1.31,0-2.52-.51-3.41-1.47-.75-.81-1.72-2.48-1.28-5.39-2.32.45-3.98-.46-4.87-1.74-1.53-2.19-1.18-6,1.83-9.03-.88-2.12-.71-4.4.51-6.28,1.31-2.03,3.58-3.15,5.78-2.87,1.18.15,3.17.83,4.57,3.49,2.85-1.42,5.94-1.37,7.95.23,1.06.85,3.2,3.33,1.34,8.62,2.06,1.79,3,4.89,1.98,7.17-.56,1.26-2.46,3.83-8.23,2.24-.94,2.77-2.9,4.28-4.61,4.79-.53.16-1.06.24-1.57.24Zm-2.43-10.87c.35,0,.69.12.97.36.49.42.66,1.1.42,1.69-.95,2.41-1.01,4.4-.17,5.32.44.48,1.14.62,1.9.39,1.15-.35,2.52-1.6,2.92-4.08.07-.44.33-.83.72-1.05.38-.23.85-.27,1.27-.12,3.18,1.15,5.49,1.1,6.04-.14.55-1.23-.36-3.32-1.77-4.08-.69-.37-.98-1.2-.67-1.91,1.26-2.95,1.26-5.22,0-6.23-1.31-1.05-3.8-.71-5.9.82-.39.28-.89.36-1.34.21-.46-.15-.81-.5-.96-.96-.62-1.88-1.62-3-2.82-3.16-1.05-.14-2.2.48-2.88,1.52-.81,1.25-.77,2.78.11,4.21.39.64.25,1.47-.33,1.95-2.59,2.11-2.93,4.73-2.17,5.81.6.86,2.1.73,3.9-.34.24-.14.5-.21.77-.21Z"/>
    <path class="cls-1" d="m425.52,408.99c-20.74,0-43.08-3.37-47.43-7.03-.15-.12-.27-.27-.36-.44-5.08-9.54-5.88-25.82-7.35-55.36l-.2-4.03c-.95-18.99-.02-29.55.97-40.73.64-7.3,1.31-14.84,1.49-25.2.55-32.06,15.98-51.47,41.28-51.94,34.8-.62,48.35,29.39,49.39,57.71.74,20.33,2.5,105.68-3.23,120.6-.11.3-.32.55-.59.73-6.41,4.11-19.81,5.68-33.96,5.68Zm-45.28-9.15c7.31,5.32,61.82,10.34,77.2,1.21,4.96-14.66,3.85-92.06,2.87-118.96-.47-12.94-5.14-54.83-45.26-54.83-.35,0-.72,0-1.08,0h0c-23.49.43-37.82,18.75-38.33,48.99-.18,10.46-.85,18.06-1.5,25.41-.98,11.08-1.9,21.54-.96,40.32l.2,4.03c1.38,27.87,2.23,44.8,6.86,53.82Z"/>
    <path class="cls-1" d="m416.47,285.53c-7.93,0-15.02-2.11-20.17-6.12-5.09-3.97-8.05-9.54-8.55-16.13-.84-11.09,1.56-20.16,6.94-26.23,4.66-5.26,11.28-8.11,19.65-8.48h0c13.74-.6,24.04,4.99,30.55,16.62,3.67,6.57,3.55,16.05-.31,24.17-3.96,8.32-11.19,13.95-19.84,15.44-2.83.49-5.6.73-8.28.73Zm-2-53.97c-7.54.33-13.44,2.84-17.54,7.47-4.83,5.45-6.97,13.75-6.19,24.02.43,5.72,3,10.56,7.4,13.99,6.22,4.85,15.74,6.6,26.09,4.8,10.5-1.82,15.56-9.41,17.64-13.78,3.46-7.26,3.62-15.67.4-21.41-5.91-10.56-15.27-15.64-27.8-15.09h0Zm-.07-1.5h0,0Z"/>
    <path class="cls-1" d="m402.32,256.33c-.25,0-.51-.06-.75-.2-.72-.41-.97-1.33-.56-2.05,1.88-3.28,4.94-5.38,7.99-5.48,1.92-.06,4.67.62,7.05,4.22.46.69.27,1.62-.42,2.08-.69.46-1.62.27-2.08-.42-1.29-1.96-2.81-2.93-4.45-2.88-1.98.06-4.14,1.62-5.48,3.97-.28.48-.78.75-1.3.75Z"/>
    <path class="cls-1" d="m408.87,256.88c-2.23,0-4.34-1.65-5.52-4.37-.33-.76.02-1.64.78-1.97.76-.33,1.64.02,1.97.78.73,1.7,1.91,2.69,2.98,2.54.97-.14,1.7-1.25,1.89-2.88.1-.82.83-1.41,1.67-1.31.82.1,1.41.84,1.31,1.67-.43,3.64-2.58,5.22-4.44,5.5-.22.03-.44.05-.65.05Z"/>
    <path class="cls-1" d="m408.94,254.2c-1.4,0-2.89-.95-3.48-3.24-.21-.8.28-1.62,1.08-1.83.79-.21,1.62.28,1.83,1.08.17.66.41,1.02.6.99.19-.04.36-.26.34-.35-.15-.81.39-1.6,1.21-1.74.82-.15,1.6.39,1.74,1.21.31,1.71-.88,3.42-2.65,3.81-.22.05-.44.07-.67.07Z"/>
    <path class="cls-1" d="m403.59,249.73c-.22,0-.45-.05-.66-.15-.74-.36-1.05-1.26-.69-2.01.97-1.99,3.84-5.22,7.39-5.46,1.71-.11,4.21.45,6.42,3.78.46.69.27,1.62-.42,2.08-.69.46-1.62.27-2.08-.42-1.14-1.71-2.39-2.53-3.73-2.44-2.04.13-4.15,2.28-4.89,3.78-.26.53-.79.84-1.35.84Z"/>
    <path class="cls-1" d="m435.19,256.33c-.52,0-1.03-.27-1.3-.75-1.34-2.35-3.5-3.91-5.48-3.97-1.66-.06-3.15.91-4.45,2.88-.46.69-1.39.88-2.08.42-.69-.46-.88-1.39-.42-2.08,2.38-3.6,5.13-4.27,7.05-4.22,3.05.1,6.11,2.19,7.99,5.48.41.72.16,1.64-.56,2.05-.24.13-.49.2-.75.2Z"/>
    <path class="cls-1" d="m428.64,256.88c-.22,0-.43-.02-.65-.05-1.86-.27-4.01-1.86-4.44-5.5-.1-.82.49-1.57,1.31-1.67.82-.1,1.57.49,1.67,1.31.19,1.64.92,2.74,1.89,2.88,1.08.15,2.25-.84,2.98-2.54.33-.76,1.21-1.11,1.97-.78.76.33,1.11,1.21.78,1.97-1.17,2.72-3.29,4.37-5.51,4.37Z"/>
    <path class="cls-1" d="m428.57,254.2c-.23,0-.45-.02-.67-.07-1.77-.39-2.96-2.1-2.65-3.81.15-.81.93-1.35,1.74-1.21.81.15,1.36.93,1.21,1.74-.01.08.15.3.34.35.19.04.45-.4.6-.99.21-.8,1.03-1.29,1.83-1.08.8.21,1.29,1.02,1.08,1.83-.59,2.3-2.08,3.24-3.48,3.24Z"/>
    <path class="cls-1" d="m433.92,249.73c-.55,0-1.09-.31-1.35-.84-.74-1.5-2.84-3.65-4.89-3.78-1.35-.09-2.59.74-3.73,2.44-.46.69-1.39.88-2.08.42-.69-.46-.88-1.39-.42-2.08,2.21-3.32,4.71-3.89,6.42-3.78,3.54.23,6.41,3.47,7.39,5.46.37.74.06,1.64-.69,2.01-.21.1-.44.15-.66.15Z"/>
    <path class="cls-1" d="m414.46,265.55c-1.79,0-3.13-.99-3.69-1.65-.53-.63-.45-1.58.18-2.11.63-.53,1.58-.45,2.11.18.05.06.7.73,1.73.55.4-.07.81-.35,1.24-.64.83-.57,2.77-1.9,4.56.42.51.66.38,1.6-.27,2.1-.66.51-1.6.39-2.1-.27-.02-.03-.04-.05-.05-.07-.13.08-.3.19-.44.29-.58.4-1.38.94-2.43,1.12-.29.05-.57.07-.85.07Zm3.57-1.62h0Z"/>
    <path class="cls-1" d="m419.41,268.91c-.06,0-.13,0-.19-.01-2.11-.27-5.67-1.61-5.67-4.9,0-.83.67-1.5,1.5-1.5s1.5.67,1.5,1.5c0,1.25,2.41,1.84,3.05,1.92.82.11,1.4.86,1.29,1.68-.1.75-.74,1.3-1.48,1.3Z"/>
    <path class="cls-1" d="m424.36,265.55c-.27,0-.55-.02-.85-.07-1.05-.18-1.85-.73-2.43-1.12-.13-.09-.3-.21-.43-.29-.02.02-.03.04-.05.07-.51.66-1.45.78-2.1.27-.66-.51-.78-1.45-.27-2.1,1.79-2.32,3.73-.99,4.56-.42.43.29.84.57,1.24.64,1.04.18,1.68-.49,1.75-.57.55-.61,1.49-.67,2.11-.13.62.54.7,1.46.17,2.08-.56.66-1.9,1.65-3.69,1.65Z"/>
    <path class="cls-1" d="m419.41,268.91c-.74,0-1.39-.55-1.49-1.31-.1-.82.48-1.57,1.3-1.68.64-.09,3.05-.67,3.05-1.92,0-.83.67-1.5,1.5-1.5s1.5.67,1.5,1.5c0,3.29-3.56,4.63-5.67,4.9-.07,0-.13.01-.19.01Z"/>
    <path class="cls-1" d="m408.6,238.1c-.79,0-1.44-.61-1.5-1.4-.05-.83.57-1.54,1.4-1.59.06,0,6.53-.5,6.86-4.93.06-.83.79-1.45,1.61-1.38.83.06,1.45.78,1.38,1.61-.43,5.63-6.51,7.5-9.66,7.7-.03,0-.07,0-.1,0Z"/>
    <path class="cls-1" d="m402.98,244.27c-.43,0-.7-.01-.75-.02-.83-.05-1.46-.76-1.41-1.59.05-.83.79-1.45,1.59-1.41,1.5.09,5.86-.13,7.95-2.16.87-.85,1.28-1.94,1.23-3.34-.03-.83.62-1.52,1.45-1.55.84-.04,1.52.62,1.55,1.45.07,2.26-.65,4.14-2.14,5.59-2.82,2.74-7.62,3.02-9.47,3.02Z"/>
    <path class="cls-1" d="m392.01,254.84c-.55,0-1.12-.02-1.71-.07-.83-.07-1.44-.8-1.37-1.62.07-.83.8-1.44,1.62-1.37,10.34.88,12.4-7.58,12.7-9.28.15-.81.93-1.36,1.74-1.21.82.15,1.36.93,1.21,1.74-1.01,5.6-5.33,11.81-14.2,11.81Z"/>
    <path class="cls-1" d="m424.69,239.04c-3.32,0-8.13-1.37-9.62-6.76-.22-.8.25-1.62,1.05-1.85.8-.22,1.62.25,1.84,1.05,1.48,5.34,7.62,4.51,7.88,4.48.82-.12,1.58.44,1.7,1.26s-.44,1.58-1.25,1.7c-.47.07-1.01.11-1.6.11Z"/>
    <path class="cls-1" d="m431.43,243.35c-2.46,0-7.87-.54-10.57-5.06-.43-.71-.19-1.63.52-2.06.71-.42,1.63-.2,2.06.52,2.5,4.17,8.87,3.57,8.94,3.56.83-.08,1.56.51,1.65,1.34s-.51,1.56-1.33,1.65c-.08,0-.54.05-1.25.05Z"/>
    <path class="cls-1" d="m444.72,250.63s-.1,0-.14,0c-.42-.04-10.24-1.04-14.55-7.98-.44-.7-.22-1.63.48-2.07.7-.44,1.63-.22,2.07.48,3.52,5.66,12.2,6.57,12.28,6.58.82.08,1.43.81,1.35,1.64-.07.78-.73,1.36-1.49,1.36Z"/>
    <path class="cls-1" d="m398.52,270.7c-3.13,0-5.68-2.81-5.68-6.27s2.55-6.27,5.68-6.27,5.68,2.81,5.68,6.27-2.55,6.27-5.68,6.27Zm0-9.54c-1.48,0-2.68,1.47-2.68,3.27s1.2,3.27,2.68,3.27,2.68-1.47,2.68-3.27-1.2-3.27-2.68-3.27Z"/>
    <path class="cls-1" d="m439.05,269.54c-3.13,0-5.68-2.81-5.68-6.27s2.55-6.27,5.68-6.27,5.68,2.81,5.68,6.27-2.55,6.27-5.68,6.27Zm0-9.54c-1.48,0-2.68,1.47-2.68,3.27s1.2,3.27,2.68,3.27,2.68-1.47,2.68-3.27-1.2-3.27-2.68-3.27Z"/>
    <path class="cls-1" d="m417.85,343.38c-28.15,0-46.59-5.6-46.86-5.69-.79-.25-1.23-1.09-.99-1.88.25-.79,1.09-1.23,1.88-.99.39.12,39.28,11.91,90.43.78.81-.18,1.61.34,1.78,1.15.18.81-.34,1.61-1.15,1.78-16.58,3.61-31.91,4.84-45.1,4.84Z"/>
    <path class="cls-1" d="m436.75,312.47s-.09,0-.14,0c-.83-.08-1.43-.81-1.35-1.63,1.63-17.55,23.56-34.97,24.49-35.71.65-.51,1.59-.4,2.11.25.51.65.4,1.59-.25,2.11-.22.17-21.85,17.36-23.36,33.62-.07.78-.73,1.36-1.49,1.36Z"/>
    <path class="cls-1" d="m440.45,313.1c-.23,0-.45-.05-.67-.16-.74-.37-1.04-1.27-.67-2.01,7.69-15.38,22.57-14.89,23.2-14.87.83.04,1.47.74,1.43,1.56-.04.83-.74,1.46-1.57,1.43-.54-.02-13.59-.37-20.38,13.21-.26.53-.79.83-1.34.83Z"/>
    <path class="cls-1" d="m383.22,404.25c-.74,0-1.38-.54-1.48-1.29-.12-.82.46-1.58,1.28-1.7,8.13-1.15,17.29-6.85,22.8-14.18,3.49-4.64,5.09-9.43,4.51-13.47-.12-.82.45-1.58,1.27-1.7.81-.12,1.58.45,1.7,1.27.69,4.84-1.12,10.41-5.09,15.7-6.05,8.05-15.78,14.08-24.78,15.35-.07,0-.14.01-.21.01Z"/>
    <path class="cls-1" d="m402.67,407.8c-.55,0-1.08-.3-1.34-.82-.38-.74-.08-1.64.66-2.02,16.33-8.26,15.99-21.89,13.19-35.38-.17-.81.35-1.6,1.16-1.77.81-.17,1.61.35,1.77,1.16,1.9,9.16,5.86,28.22-14.77,38.66-.22.11-.45.16-.68.16Z"/>
    <path class="cls-1" d="m384.44,369.68c-9.26,0-12.83-6.1-13.01-6.43-.41-.72-.15-1.64.57-2.04.72-.41,1.64-.15,2.04.57.18.31,4.64,7.69,17.53,3.71.79-.24,1.63.2,1.88.99.24.79-.2,1.63-.99,1.88-3.05.94-5.71,1.32-8.02,1.32Z"/>
  </g>
  <g>
    <path class="cls-2" d="m553.08,341.2c5.14-14.82-30.46-18.01-29.53.51-17.18,0-18.11,22.74-7.41,27.58-7.51,7.61,6.69,31.18,22.74,19.24,12.55,8.13,28.09.82,23.97-19.24,12.35-18.42,3.91-28.71-9.77-28.09Zm-12.66,29.53c-1.03,6.38-9.16,5.87-6.07-1.95-5.35,3.19-7.2-2.78-2.78-6.38-3.09-5.04,4.42-9.98,6.69-3.09,4.12-2.98,9.57-1.13,6.59,5.82,3.19,1.71,3.81,8.58-4.42,5.6Z"/>
    <circle class="cls-2" cx="551.82" cy="306.59" r="3.59"/>
    <circle class="cls-2" cx="517.73" cy="303.47" r="3.59"/>
    <path class="cls-1" d="m560.38,327.44c-.64,0-1.28-.09-1.92-.28-1.72-.51-3.14-1.66-4-3.24-1.77-3.26-.56-7.35,2.7-9.12,1.58-.86,3.4-1.05,5.12-.54,1.72.51,3.14,1.66,4,3.24,1.77,3.26.56,7.35-2.69,9.12-1,.54-2.1.82-3.2.82Zm-.01-10.45c-.61,0-1.22.15-1.77.45-1.8.98-2.47,3.25-1.49,5.05.48.87,1.26,1.51,2.22,1.79.95.28,1.96.18,2.83-.3,1.8-.98,2.47-3.25,1.49-5.05-.48-.87-1.26-1.51-2.22-1.79-.35-.1-.71-.15-1.06-.15Z"/>
    <path class="cls-1" d="m545.52,404.93c-.64,0-1.28-.09-1.92-.28-1.72-.51-3.14-1.66-4-3.24-1.77-3.26-.56-7.35,2.69-9.12,3.26-1.77,7.35-.56,9.12,2.7.86,1.58,1.05,3.4.54,5.12s-1.66,3.14-3.24,4c-1,.54-2.1.82-3.2.82Zm-.02-10.45c-.6,0-1.21.15-1.77.45-1.8.98-2.47,3.25-1.49,5.05.48.87,1.26,1.51,2.22,1.79.95.28,1.96.18,2.83-.3s1.51-1.26,1.79-2.22.18-1.96-.3-2.83c-.67-1.24-1.96-1.94-3.28-1.94Z"/>
    <path class="cls-1" d="m532.82,390.37c-4.96,0-9.26-2.66-12.23-6.08-4.32-4.97-6.64-12.64-3.69-17.53-4.84-3.25-7.31-10.27-5.82-17.18,1.22-5.65,5.52-11.66,13.97-12.3.25-4.82,2.88-8.65,7.55-10.87,7-3.34,17.22-2.3,22.33,2.26,2.45,2.19,3.5,4.99,3.07,8.02,6.33.18,11.26,2.69,13.71,7.03,3.2,5.69,1.69,13.81-4.25,22.89,1.77,9.41-.55,17.06-6.4,21.06-5.35,3.66-12.6,3.5-19.11-.34-3.17,2.14-6.25,3.03-9.11,3.03Zm9.14-62.94c-2.84,0-5.7.54-8.07,1.68-2.82,1.34-6.11,4.09-5.84,9.53.02.41-.13.81-.41,1.11-.28.3-.68.47-1.09.47-6.51,0-11.19,3.73-12.54,9.98-1.17,5.43.66,12.42,5.75,14.72.45.2.77.61.86,1.09s-.06.98-.41,1.33c-2.99,3.03-1.78,9.89,2.65,14.97,1.92,2.21,8.9,8.88,18.13,2.01.5-.37,1.18-.4,1.71-.06,5.7,3.69,12.08,4.04,16.66.92,4.93-3.37,6.76-10.15,5.03-18.6-.08-.39,0-.8.22-1.14,5.57-8.3,7.16-15.5,4.47-20.27-2.12-3.76-6.83-5.76-12.94-5.49-.48.03-.97-.2-1.27-.6-.3-.4-.38-.92-.21-1.39.92-2.66.34-4.95-1.74-6.81-2.53-2.26-6.73-3.47-10.96-3.47Z"/>
    <path class="cls-1" d="m539.33,373.62c-1.14,0-2.22-.45-2.98-1.28-.61-.66-1.38-1.96-1.15-4.19-1.8.22-3.1-.54-3.83-1.59-1.28-1.83-1.04-4.99,1.37-7.51-.67-1.75-.5-3.61.5-5.16,1.12-1.73,3.06-2.69,4.94-2.44.97.13,2.59.66,3.77,2.72,2.33-1.06,4.82-.98,6.46.34.89.71,2.68,2.77,1.23,7.09,1.64,1.54,2.37,4.1,1.53,5.99-.48,1.07-2.04,3.23-6.72,2.04-.72,1.88-2.09,3.28-3.81,3.79-.44.13-.89.2-1.32.2Zm-1.98-9.34c.35,0,.69.12.97.36.49.42.66,1.1.42,1.69-.85,2.16-.66,3.47-.19,3.98.39.43.99.31,1.24.24.84-.25,1.85-1.19,2.15-3.05.07-.44.33-.83.72-1.05.39-.23.85-.27,1.27-.12,2.69.98,4.2.73,4.51.05.35-.78-.22-2.33-1.3-2.91-.69-.37-.98-1.2-.67-1.91.95-2.21.98-3.96.08-4.68-.8-.64-2.62-.63-4.41.67-.39.28-.89.36-1.34.21-.46-.15-.81-.5-.96-.96-.46-1.4-1.18-2.24-2.04-2.35-.74-.09-1.55.35-2.04,1.1-.35.53-.79,1.64.09,3.09.39.64.25,1.47-.33,1.95-1.93,1.57-2.22,3.53-1.7,4.29.38.55,1.47.41,2.76-.36.24-.14.5-.21.77-.21Z"/>
    <path class="cls-1" d="m545.67,409.13c-15.68,0-32.49-2.65-35.87-5.5-.15-.12-.27-.27-.36-.44-3.86-7.26-4.47-19.54-5.58-41.84l-.15-3.05c-.72-14.33-.01-22.3.73-30.73.49-5.49.99-11.17,1.12-18.95.42-24.37,12.17-39.13,31.46-39.48.28,0,.56,0,.83,0,25.89,0,35.97,22.55,36.75,43.84.56,15.33,1.88,79.69-2.46,90.99-.11.3-.32.55-.59.73-5.03,3.23-15.19,4.46-25.87,4.46Zm-33.73-7.63c5.65,3.95,45.93,7.63,57.55.91,3.67-11.28,2.83-69.17,2.1-89.34-.35-9.75-3.93-41.48-34.52-40.94l-.03-1.5.03,1.5c-25.89.48-28.37,28.08-28.51,36.54-.13,7.89-.64,13.62-1.13,19.17-.74,8.33-1.43,16.2-.72,30.32l.15,3.05c1.04,20.86,1.67,33.56,5.09,40.3Z"/>
    <path class="cls-1" d="m540.21,317.62c-2.32,0-4.72-.18-7.19-.56-8.15-1.24-14.68-6.06-17.93-13.22-2.7-5.95-2.52-12.56.47-17.24,5.65-8.84,14.55-13.09,26.42-12.63h0c7.7.3,13.89,2.85,17.89,7.39,4.08,4.63,5.88,11.25,5.19,19.17-.4,4.64-2.62,8.66-6.4,11.64-4.53,3.57-11.04,5.45-18.45,5.45Zm.09-40.69c-9.96,0-17.42,3.79-22.21,11.28-2.45,3.83-2.55,9.35-.27,14.38,2.82,6.22,8.53,10.42,15.65,11.5,9.53,1.45,18.03-.11,23.33-4.28,3.16-2.49,4.94-5.7,5.27-9.55.61-7.08-.92-12.93-4.45-16.92-3.5-3.96-8.8-6.11-15.76-6.38h0c-.53-.02-1.05-.03-1.57-.03Z"/>
    <path class="cls-1" d="m552.32,295.62c-.49,0-.97-.24-1.26-.68-1.11-1.69-2.9-2.82-4.56-2.88-1.37-.05-2.65.65-3.73,2.08-.5.66-1.44.79-2.1.29-.66-.5-.79-1.44-.29-2.1,2.11-2.8,4.56-3.32,6.22-3.27,2.65.09,5.32,1.71,6.97,4.23.45.69.26,1.62-.43,2.08-.25.17-.54.24-.82.24Z"/>
    <path class="cls-1" d="m546.7,296.04c-.24,0-.48-.02-.73-.06-2.06-.34-3.55-2.03-3.87-4.42-.11-.82.46-1.58,1.29-1.69.82-.11,1.58.46,1.69,1.29.14,1.06.65,1.74,1.38,1.86.68.11,1.72-.28,2.45-1.75.37-.74,1.27-1.05,2.01-.68.74.37,1.05,1.26.68,2.01-1.06,2.16-2.93,3.45-4.89,3.45Z"/>
    <path class="cls-1" d="m546.62,294.01c-.26,0-.51-.03-.75-.09-1.59-.4-2.6-1.85-2.3-3.31.17-.81.97-1.33,1.77-1.16.73.15,1.23.81,1.19,1.54.04.02.09.03.11.03.02,0,.16-.12.28-.52.23-.79,1.07-1.25,1.86-1.02.79.23,1.25,1.07,1.01,1.86-.56,1.9-1.93,2.67-3.19,2.67Z"/>
    <path class="cls-1" d="m551.23,290.65c-.53,0-1.04-.28-1.31-.77-.49-.88-2.18-2.58-4.02-2.71-1.15-.08-2.17.49-3.12,1.75-.5.66-1.44.79-2.1.29-.66-.5-.79-1.44-.29-2.1,1.98-2.61,4.2-3.03,5.72-2.93,3.07.21,5.57,2.71,6.43,4.24.41.72.15,1.64-.58,2.04-.23.13-.48.19-.73.19Z"/>
    <path class="cls-1" d="m524.05,295.62c-.28,0-.57-.08-.82-.24-.69-.45-.89-1.38-.43-2.08,1.65-2.52,4.32-4.14,6.97-4.23,1.67-.05,4.11.47,6.22,3.27.5.66.37,1.6-.29,2.1-.66.5-1.6.37-2.1-.29-1.07-1.42-2.33-2.13-3.73-2.08-1.66.06-3.45,1.19-4.56,2.88-.29.44-.77.68-1.26.68Z"/>
    <path class="cls-1" d="m529.67,296.04c-1.97,0-3.83-1.29-4.89-3.45-.37-.74-.06-1.64.68-2.01.74-.36,1.64-.06,2.01.68.72,1.47,1.77,1.86,2.45,1.75.73-.12,1.24-.8,1.38-1.86.11-.82.86-1.4,1.69-1.28.82.11,1.4.87,1.28,1.69-.32,2.39-1.81,4.08-3.87,4.42-.24.04-.48.06-.73.06Z"/>
    <path class="cls-1" d="m529.76,294.01c-1.27,0-2.63-.77-3.19-2.67-.23-.79.22-1.63,1.01-1.86.79-.23,1.63.22,1.86,1.02.12.4.26.52.28.52.02,0,.07,0,.11-.03-.03-.72.46-1.38,1.19-1.54.8-.17,1.6.35,1.77,1.16.3,1.46-.71,2.91-2.3,3.31-.24.06-.49.09-.75.09Z"/>
    <path class="cls-1" d="m525.14,290.65c-.25,0-.5-.06-.73-.19-.72-.4-.98-1.32-.58-2.04.86-1.53,3.36-4.03,6.43-4.24,1.52-.1,3.74.32,5.72,2.93.5.66.37,1.6-.29,2.1-.66.5-1.6.37-2.1-.29-.95-1.26-1.96-1.82-3.12-1.75-1.84.13-3.53,1.83-4.02,2.71-.28.49-.79.77-1.31.77Z"/>
    <path class="cls-1" d="m541.9,302.56c-.24,0-.49-.02-.75-.06-.92-.14-1.62-.56-2.13-.86-.09-.06-.21-.13-.31-.18-.55.59-1.47.63-2.08.09-.62-.55-.68-1.5-.13-2.12,1.62-1.84,3.34-.81,4.07-.37.37.22.7.42,1.03.47.86.13,1.36-.33,1.42-.38.59-.56,1.54-.56,2.11.02.57.58.59,1.49.03,2.08-.14.15-1.31,1.3-3.25,1.3Z"/>
    <path class="cls-1" d="m537.62,305.09c-.75,0-1.4-.57-1.49-1.33-.09-.82.5-1.57,1.32-1.66,1.15-.14,2.42-.7,2.42-1.08,0-.83.67-1.5,1.5-1.5s1.5.67,1.5,1.5c0,2.75-3.19,3.85-5.08,4.06-.06,0-.11,0-.17,0Z"/>
    <path class="cls-1" d="m533.35,302.56c-1.94,0-3.11-1.15-3.25-1.3-.57-.6-.55-1.55.04-2.12.6-.57,1.54-.56,2.12.04.03.03.55.48,1.39.36.33-.05.65-.24,1.03-.47.73-.44,2.45-1.47,4.07.37.55.62.49,1.57-.13,2.12-.61.54-1.53.49-2.08-.09-.1.05-.21.12-.31.18-.51.31-1.21.72-2.13.86-.26.04-.51.06-.75.06Z"/>
    <path class="cls-1" d="m537.63,305.09c-.06,0-.11,0-.17,0-1.89-.21-5.08-1.31-5.08-4.06,0-.83.67-1.5,1.5-1.5s1.5.67,1.5,1.5c0,.38,1.27.94,2.42,1.08.82.1,1.41.84,1.32,1.66-.09.76-.74,1.33-1.49,1.33Z"/>
    <path class="cls-1" d="m546.92,281.89s-.06,0-.08,0c-2.98-.17-8.13-1.65-8.52-6.13-.07-.83.54-1.55,1.37-1.62.81-.07,1.55.54,1.62,1.37.26,2.98,5.64,3.39,5.7,3.39.83.05,1.46.76,1.41,1.58-.05.8-.71,1.41-1.5,1.41Z"/>
    <path class="cls-1" d="m551.67,286.53c-1.77,0-6.06-.26-8.46-2.62-1.14-1.12-1.71-2.59-1.65-4.26.03-.83.77-1.48,1.55-1.44.83.03,1.48.73,1.45,1.55-.03.84.21,1.47.76,2.01,1.67,1.64,5.66,1.81,6.93,1.74.85-.05,1.53.59,1.58,1.42.04.83-.59,1.53-1.42,1.58-.11,0-.37.02-.74.02Z"/>
    <path class="cls-1" d="m561.2,294.5c-7.75,0-11.53-4.82-12.42-9.16-.17-.81.36-1.6,1.17-1.77.8-.17,1.6.36,1.77,1.17.25,1.24,1.94,7.37,10.73,6.72.83-.04,1.55.56,1.61,1.39.06.83-.56,1.55-1.39,1.61-.5.04-.99.06-1.46.06Z"/>
    <path class="cls-1" d="m533.07,282.59c-.5,0-.96-.03-1.37-.09-.82-.11-1.4-.86-1.29-1.69.11-.82.86-1.4,1.69-1.29.21.03,5.39.64,6.58-3.15.25-.79,1.09-1.23,1.88-.98.79.25,1.23,1.09.98,1.88-1.34,4.23-5.57,5.31-8.48,5.31Z"/>
    <path class="cls-1" d="m527.26,285.84c-.61,0-1-.03-1.06-.04-.82-.08-1.43-.81-1.35-1.63.08-.82.81-1.43,1.63-1.35.05,0,5.48.45,7.55-2.58.47-.68,1.4-.86,2.08-.39.68.47.86,1.4.39,2.08-2.39,3.49-7.12,3.91-9.24,3.91Z"/>
    <path class="cls-1" d="m515.85,291.32c-.77,0-1.43-.59-1.49-1.37-.07-.82.54-1.55,1.37-1.62.08,0,7.48-.68,10.44-4.86.48-.68,1.42-.83,2.09-.36.68.48.83,1.42.36,2.09-3.77,5.32-12.28,6.08-12.64,6.11-.04,0-.08,0-.13,0Z"/>
    <path class="cls-1" d="m554.82,308.69c-2.81,0-5.09-2.29-5.09-5.09s2.29-5.09,5.09-5.09,5.09,2.29,5.09,5.09-2.29,5.09-5.09,5.09Zm0-7.19c-1.15,0-2.09.94-2.09,2.09s.94,2.09,2.09,2.09,2.09-.94,2.09-2.09-.94-2.09-2.09-2.09Z"/>
    <path class="cls-1" d="m520.73,305.56c-2.81,0-5.09-2.29-5.09-5.09s2.29-5.09,5.09-5.09,5.09,2.28,5.09,5.09-2.29,5.09-5.09,5.09Zm0-7.19c-1.15,0-2.09.94-2.09,2.09s.94,2.09,2.09,2.09,2.09-.94,2.09-2.09-.94-2.09-2.09-2.09Z"/>
    <path class="cls-1" d="m539.99,359.59c-21.27,0-35.21-4.24-35.42-4.3-.79-.25-1.23-1.09-.99-1.88.25-.79,1.09-1.23,1.88-.99.29.09,29.5,8.94,67.93.58.81-.18,1.61.34,1.78,1.15s-.34,1.61-1.15,1.78c-12.51,2.72-24.08,3.65-34.04,3.65Z"/>
    <path class="cls-1" d="m520.31,404.04c-2.71,0-5.75-.22-9.16-.7-.82-.11-1.39-.87-1.28-1.69.11-.82.87-1.39,1.69-1.28,22.95,3.2,26.93-5.82,28.86-14.54.18-.81.98-1.32,1.79-1.14.81.18,1.32.98,1.14,1.79-2.05,9.25-6.44,17.56-23.04,17.56Z"/>
    <path class="cls-1" d="m558.26,339.7c-.2,0-.4-.04-.6-.12-.76-.33-1.11-1.21-.78-1.97,5.38-12.42,16.1-12.67,16.56-12.67h.02c.82,0,1.49.66,1.5,1.48,0,.83-.66,1.51-1.48,1.52-.37,0-9.25.29-13.84,10.87-.25.57-.8.9-1.38.9Z"/>
  </g>
  <g>
    <path class="cls-2" d="m635.06,357.08c1.9-5.46-11.23-6.64-10.89.19-6.33,0-6.68,8.38-2.73,10.17-2.77,2.81,2.47,11.49,8.38,7.09,4.63,3,10.36.3,8.84-7.09,4.55-6.79,1.44-10.58-3.6-10.36Z"/>
    <path class="cls-2" d="m609.31,402.82c1.72,1.54,4.2,2.16,6.83.21,4.63,3,10.36.3,8.84-7.09,4.55-6.79,1.44-10.58-3.6-10.36,1.9-5.46-11.23-6.64-10.89.19-.86,0-1.61.15-2.25.42"/>
    <path class="cls-2" d="m651.95,385.25c-.89-.37-1.96-.53-3.13-.48,1.9-5.46-11.23-6.64-10.89.19-6.33,0-6.68,8.38-2.73,10.17-2.77,2.81,2.47,11.49,8.38,7.09,3.05,1.98,6.59,1.48,8.2-1.22"/>
    <circle class="cls-2" cx="639.07" cy="339.73" r="2.36"/>
    <circle class="cls-2" cx="616.18" cy="339.16" r="2.36"/>
    <path class="cls-1" d="m629.46,374.25c-1.89,0-3.72-.86-5.19-2.55-1.66-1.91-2.58-4.68-1.82-6.81-1.66-1.55-2.46-4.2-1.9-6.81.6-2.8,2.55-4.69,5.23-5.18.33-1.75,1.46-3.18,3.22-4.02,2.94-1.4,7.1-.96,9.27.98.87.78,1.36,1.74,1.46,2.79,2.23.28,3.97,1.33,4.92,3,.78,1.38,1.59,4.36-1.4,9.1.59,3.69-.42,6.7-2.82,8.34-2.14,1.46-4.96,1.52-7.55.19-1.11.64-2.28.96-3.42.96Zm3.36-23.19c-.87,0-1.76.16-2.52.52-1.15.55-1.68,1.4-1.62,2.61.02.41-.13.81-.41,1.11-.28.3-.68.47-1.09.47-2.67,0-3.46,1.84-3.7,2.93-.4,1.83.32,3.79,1.58,4.37.45.2.77.61.86,1.09s-.06.98-.41,1.33c-.66.66-.35,2.66,1.02,4.23.91,1.05,2.83,2.52,5.4.6.5-.37,1.18-.4,1.71-.06,1.77,1.15,3.72,1.28,5.09.35,1.49-1.02,2.02-3.16,1.46-5.88-.08-.39,0-.8.22-1.14,1.82-2.71,2.4-5.07,1.61-6.48-.6-1.06-2.01-1.63-3.9-1.54-.49.03-.97-.2-1.27-.6-.3-.4-.38-.92-.21-1.39.21-.62.1-1.06-.38-1.49-.7-.63-2.05-1.03-3.45-1.03Z"/>
    <path class="cls-1" d="m615.77,402.76c-1.57,0-3.11-.61-4.46-1.82-.62-.55-.67-1.5-.12-2.12.55-.62,1.5-.67,2.12-.12,1.05.94,2.76,1.73,4.93.12.5-.37,1.18-.4,1.71-.06,1.77,1.15,3.73,1.28,5.09.35,1.49-1.02,2.02-3.16,1.46-5.88-.08-.39,0-.8.22-1.14,1.82-2.71,2.4-5.07,1.61-6.48-.6-1.06-2.01-1.63-3.9-1.54-.49.03-.97-.2-1.27-.6-.3-.4-.38-.92-.21-1.39.21-.62.1-1.07-.38-1.49-1.13-1.01-3.99-1.46-5.98-.51-1.15.55-1.68,1.4-1.62,2.61.02.41-.13.81-.41,1.11-.28.3-.68.47-1.09.47-.62,0-1.18.1-1.67.31-.77.32-1.64-.04-1.96-.8-.32-.76.04-1.64.8-1.96.45-.19.93-.33,1.43-.42.33-1.75,1.46-3.17,3.22-4.02,2.94-1.4,7.1-.96,9.27.98.87.78,1.36,1.74,1.46,2.79,2.23.28,3.97,1.33,4.92,3,.78,1.38,1.59,4.36-1.4,9.1.59,3.69-.42,6.7-2.82,8.34-2.14,1.46-4.96,1.52-7.55.19-1.12.65-2.28.97-3.42.97Z"/>
    <path class="cls-1" d="m643.22,401.94c-1.89,0-3.72-.86-5.19-2.56-1.66-1.91-2.58-4.68-1.82-6.81-1.66-1.55-2.46-4.2-1.9-6.81.6-2.8,2.55-4.69,5.23-5.18.33-1.75,1.46-3.18,3.22-4.02,2.94-1.4,7.1-.96,9.27.98.87.78,1.36,1.74,1.46,2.79.72.09,1.4.27,2.03.52.77.32,1.13,1.19.82,1.96-.32.77-1.19,1.13-1.96.82-.68-.28-1.54-.41-2.49-.37-.5.03-.97-.2-1.27-.6-.3-.4-.38-.92-.21-1.39.21-.62.1-1.06-.38-1.49-1.13-1.01-3.99-1.46-5.98-.51-1.15.55-1.68,1.4-1.62,2.61.02.41-.13.81-.41,1.11-.28.3-.68.47-1.09.47-2.67,0-3.46,1.84-3.7,2.93-.39,1.83.32,3.79,1.58,4.37.45.2.77.61.86,1.09.09.48-.06.98-.41,1.33-.65.66-.35,2.66,1.02,4.23.91,1.05,2.83,2.52,5.4.6.5-.37,1.18-.4,1.71-.06,1.28.83,2.71,1.14,3.92.86.93-.22,1.68-.77,2.18-1.59.43-.71,1.35-.94,2.06-.52.71.43.94,1.35.52,2.06-.91,1.52-2.35,2.57-4.07,2.97-1.74.4-3.61.13-5.37-.76-1.11.64-2.28.96-3.42.96Z"/>
    <path class="cls-1" d="m637.08,409.06c-10.46,0-21.71-1.78-23.97-3.68-.15-.12-.27-.27-.36-.44-2.59-4.86-2.99-12.97-3.72-27.67l-.1-2.01c-.47-9.44,0-14.69.48-20.24.32-3.6.65-7.31.73-12.4.28-16.31,8.19-26.18,21.15-26.42l.03,1.5-.03-1.5c17.82-.31,24.66,14.9,25.19,29.26.37,10.08,1.23,52.43-1.65,59.92-.11.3-.32.55-.59.73-3.34,2.14-10.08,2.96-17.17,2.96Zm-21.83-5.83c3.48,2.09,29.15,4.88,36.95.61,2.12-7.17,1.9-41.71,1.29-58.27-.23-6.22-2.47-26.38-21.62-26.38-.17,0-.34,0-.51,0h0c-16.53.3-18.12,18.04-18.21,23.47-.09,5.2-.42,8.97-.74,12.62-.48,5.45-.94,10.59-.47,19.83l.1,2.01c.67,13.49,1.08,21.75,3.22,26.11Z"/>
    <path class="cls-1" d="m631.96,347.92c-1.55,0-3.15-.12-4.79-.37-5.52-.84-9.96-4.11-12.16-8.98-1.84-4.06-1.71-8.59.34-11.8,3.81-5.97,9.8-8.83,17.8-8.53,5.2.2,9.39,1.94,12.11,5.02,2.77,3.15,4,7.63,3.53,12.97-.28,3.19-1.8,5.96-4.4,8-3.07,2.41-7.45,3.69-12.43,3.69Zm.07-26.7c-6.35,0-11.11,2.41-14.15,7.17-1.51,2.37-1.57,5.8-.14,8.95,1.78,3.92,5.38,6.57,9.88,7.25,6.12.93,11.55-.06,14.92-2.71,1.96-1.54,3.06-3.53,3.26-5.91.39-4.5-.58-8.21-2.79-10.72-2.2-2.49-5.55-3.84-9.98-4.01-.34-.01-.67-.02-1-.02Z"/>
    <path class="cls-1" d="m640.27,331.91c-.49,0-.97-.24-1.26-.68-.63-.96-1.66-1.62-2.58-1.66-.76-.02-1.42.37-2.02,1.16-.5.66-1.44.79-2.1.29-.66-.5-.79-1.44-.29-2.1,1.19-1.57,2.77-2.39,4.51-2.35,1.9.06,3.81,1.22,4.99,3.01.45.69.26,1.62-.43,2.08-.25.17-.54.24-.82.24Z"/>
    <path class="cls-1" d="m636.53,330.85c-.21,0-.42-.03-.62-.08-1.31-.33-2.14-1.55-1.89-2.77.17-.81.97-1.33,1.77-1.16.31.06.58.22.79.44.38-.4.96-.58,1.52-.41.79.23,1.25,1.07,1.02,1.86-.44,1.51-1.55,2.12-2.58,2.12Z"/>
    <path class="cls-1" d="m621.71,331.91c-.28,0-.57-.08-.82-.24-.69-.45-.89-1.38-.43-2.08,1.17-1.79,3.08-2.95,4.99-3.01,1.76-.04,3.33.78,4.51,2.35.5.66.37,1.6-.29,2.1-.66.5-1.6.37-2.1-.29-.6-.79-1.24-1.18-2.02-1.16-.91.03-1.95.7-2.58,1.66-.29.44-.77.68-1.26.68Z"/>
    <path class="cls-1" d="m625.45,330.85c-1.03,0-2.14-.61-2.58-2.12-.23-.79.22-1.63,1.02-1.86.56-.16,1.14.01,1.52.41.2-.22.47-.38.79-.44.81-.17,1.61.35,1.77,1.16.25,1.23-.57,2.45-1.89,2.78-.2.05-.41.08-.63.08Z"/>
    <path class="cls-1" d="m633.08,338.04c-.18,0-.37-.01-.57-.04-.64-.1-1.14-.37-1.49-.58-.54.31-1.24.26-1.73-.18-.62-.55-.69-1.49-.14-2.11,1.35-1.53,2.83-.64,3.32-.34.18.11.37.22.49.24.26.04.46-.08.46-.08.57-.6,1.52-.62,2.12-.04.6.57.62,1.52.04,2.12-.11.11-1.02,1.01-2.51,1.01Z"/>
    <path class="cls-1" d="m630.27,339.7c-.75,0-1.4-.57-1.49-1.33-.09-.82.5-1.57,1.32-1.66.41-.05.93-.22,1.14-.36.08-.75.72-1.33,1.49-1.33.83,0,1.5.67,1.5,1.5,0,1.9-1.9,2.96-3.79,3.18-.06,0-.11,0-.17,0Z"/>
    <path class="cls-1" d="m627.47,338.04c-1.49,0-2.4-.9-2.51-1.01-.57-.6-.55-1.55.04-2.12.6-.57,1.55-.55,2.12.04h0s.18.12.46.08c.12-.02.3-.13.49-.24.49-.29,1.97-1.18,3.32.34.55.62.49,1.57-.13,2.12-.5.44-1.2.49-1.75.17-.35.21-.84.48-1.48.57-.2.03-.39.04-.57.04Z"/>
    <path class="cls-1" d="m630.28,339.7c-.06,0-.11,0-.17,0-1.89-.21-3.79-1.28-3.79-3.18,0-.83.67-1.5,1.5-1.5.77,0,1.41.58,1.49,1.33.21.14.73.31,1.14.36.82.1,1.41.84,1.31,1.66-.09.76-.73,1.33-1.48,1.33Zm-.96-3.19h0,0Z"/>
    <path class="cls-1" d="m642.07,340.59c-2.13,0-3.86-1.73-3.86-3.86s1.73-3.86,3.86-3.86,3.86,1.73,3.86,3.86-1.73,3.86-3.86,3.86Zm0-4.72c-.47,0-.86.39-.86.86s.38.86.86.86.86-.39.86-.86-.38-.86-.86-.86Z"/>
    <path class="cls-1" d="m619.18,340.01c-2.13,0-3.86-1.73-3.86-3.86s1.73-3.86,3.86-3.86,3.86,1.73,3.86,3.86-1.73,3.86-3.86,3.86Zm0-4.72c-.47,0-.86.39-.86.86s.38.86.86.86.86-.39.86-.86-.38-.86-.86-.86Z"/>
    <path class="cls-1" d="m615.08,332.89c-.61,0-1.18-.37-1.41-.98-.29-.78.11-1.64.88-1.93,8.81-3.27,12.83-10.68,12.87-10.75.39-.73,1.3-1.01,2.03-.62.73.39,1.01,1.3.62,2.03-.18.35-4.61,8.49-14.48,12.16-.17.06-.35.09-.52.09Z"/>
    <path class="cls-1" d="m646.64,332.76c-.23,0-.46-.05-.67-.16-1.25-.63-12.33-6.32-15.12-11.3-.41-.72-.15-1.64.58-2.04.72-.41,1.64-.15,2.04.57,1.99,3.54,10.68,8.48,13.86,10.09.74.37,1.04,1.27.66,2.01-.26.52-.79.83-1.34.83Z"/>
  </g>
</svg>