<?xml version="1.0" encoding="UTF-8"?>
<svg id="Layer_1" data-name="Layer 1" xmlns="http://www.w3.org/2000/svg" viewBox="0 0 533.16 677.07">
  <defs>
    <style>
        :root { fill:#222 }
        .accent { fill: #f9322c; }

        @media (prefers-color-scheme: dark) {
            :root {  fill: #f9322c; }
            .accent { fill:#dee2e6; }
        }
    </style>
  </defs>
  <g>
    <circle class="accent" cx="83.26" cy="88.72" r="8.74"/>
    <circle class="accent" cx="168.1" cy="86.6" r="8.74"/>
    <path class="accent" d="m115.9,174.41c-8.64,0-15.64,7-15.64,15.64s7,15.64,15.64,15.64,15.64-7,15.64-15.64-7-15.64-15.64-15.64Zm1.96,27.97c-3.92,0-7.1-3.18-7.1-7.1s3.18-7.1,7.1-7.1,7.1,3.18,7.1,7.1-3.18,7.1-7.1,7.1Z"/>
    <path class="accent" d="m65.73,237.19c-8.32-2.34-16.95,2.51-19.29,10.82-2.34,8.32,2.51,16.95,10.82,19.29,8.32,2.34,16.95-2.51,19.29-10.82,2.34-8.32-2.51-16.95-10.82-19.29Zm-2.97,17.45c-1.06,3.77-4.98,5.97-8.75,4.91-3.77-1.06-5.97-4.98-4.91-8.75,1.06-3.77,4.98-5.97,8.75-4.91,3.77,1.06,5.97,4.98,4.91,8.75Z"/>
    <path class="accent" d="m134.89,315.28c-4.6-7.31-14.25-9.52-21.57-4.92-7.31,4.6-9.52,14.25-4.92,21.57,4.6,7.31,14.25,9.52,21.57,4.92,7.31-4.6,9.52-14.25,4.92-21.57Zm-6.09,9.89c-3.32,2.08-7.7,1.09-9.78-2.23s-1.09-7.7,2.23-9.78c3.32-2.08,7.7-1.09,9.78,2.23s1.09,7.7-2.23,9.78Z"/>
    <path class="accent" d="m62.13,151.77c3.72-10.72-8.62-16.86-20.43-16.24l-1.88,36.44c1.06.68,2,1.91,2.64,3.84,5.46-3.96,12.71-1.5,8.74,7.73,4.24,2.26,5.06,11.4-5.87,7.44-.75,4.67-4.37,6.56-6.78,5.57l-1.1,21.3c1.91-.71,3.86-1.78,5.83-3.24,16.67,10.79,37.3,1.09,31.83-25.55,16.39-24.45,5.19-38.12-12.98-37.3Z"/>
    <path class="accent" d="m174.79,259.67c-29.44.19-34.44,17.14-23.54,31.7-20.11,5.41,2.97,46.88,22.61,32.04,6.8,10,17.21,10.22,25.09,5.92l5.09-77.01c-7.56-4.76-18.51-3.69-29.25,7.35Zm15.78,39.49c-3.23,7.15-14.26,2.59-8.38-5.04-6.35-2.29-8.39-9.66,1.48-11.58-.51-4.78,6.58-10.59,9.45.68,7.77-3.63,13.28,5.68,2.39,8.13,7.5,3.49,2.33,9.98-4.93,7.81Z"/>
    <path class="accent" d="m203.2,151.3c-.94.61-2.2,1.13-3.83,1.49,7.5,3.49,2.33,9.98-4.93,7.81-3.23,7.15-14.26,2.59-8.38-5.04-6.35-2.29-8.39-9.66,1.48-11.58-.51-4.78,6.58-10.59,9.45.68,2.91-1.36,4.4-1.57,5.93-.34v.03s-1.32-33.02-1.32-33.02c-6.76-1.17-14.91,1.51-22.94,9.77-29.44.19-34.44,17.14-23.54,31.7-20.11,5.41,2.97,46.88,22.61,32.04,7.37,10.84,18.97,10.18,27.01,4.75l-1.53-38.31Z"/>
    <path class="cls-1" d="m116.82,373.66c-34.85,0-64.25-7.87-71.46-14.13-1.28-1.11-1.92-2.24-1.92-3.37,0-6.4,7.21-15.26,9.53-17.94-8.74-17.37-10.22-46.99-12.85-100l-.37-7.38c-1.74-34.72-.03-54.03,1.78-74.48,1.18-13.4,2.41-27.25,2.73-46.27.45-26.1,6.61-48.49,17.84-64.75,13.07-18.93,32.11-28.76,56.59-29.21h0c30.22-.55,53.52,11.2,69.26,34.92,16.05,24.2,19.4,54.02,19.97,69.64,1.36,37.34,4.36,180.95-5.49,210.04.94,1.2,2.36,3.71,4.84,9.02,2.03,4.35,4.49,10.16,4.74,12.21,1.09,8.92-40.14,16.12-64.81,19.61-10.31,1.46-20.57,2.09-30.39,2.09Zm3.8-354.55c-.63,0-1.25,0-1.88.02-43.8.8-70.53,34.83-71.48,91-.33,19.12-1.55,33.03-2.74,46.48-1.8,20.34-3.49,39.55-1.77,74.07l.37,7.39c2.57,51.77,4.13,83.02,12.98,99.67.3.56.21,1.25-.22,1.72-2.63,2.87-9.44,11.48-9.44,16.71,0,0,.05.42,1.04,1.24,8.98,7.41,54.64,17.54,99.3,11.21,60.07-8.51,62.24-16.22,62.25-16.29-.36-2.98-7.41-17.97-9.02-19.82-.22-.11-.41-.28-.56-.49-.28-.41-.34-.93-.16-1.39,10.08-26.26,7.01-172.17,5.64-209.81-1.8-49.36-24.93-101.69-84.3-101.69Zm80.06,313.54h0,0ZM118.71,17.63h0,0Z"/>
    <path class="cls-1" d="m123.89,122.95c-17.55,0-32.9-4.43-43.54-12.8-8.73-6.87-13.84-16.15-14.77-26.83-1.62-18.65,2.56-34.22,12.09-45.03,9.34-10.59,23.87-16.56,42.01-17.26h0c28.08-1.08,49.09,8.93,62.39,29.75,6.89,10.78,7.27,26.07,1,39.9-7.6,16.76-22.91,28.04-42,30.94-5.9.9-11.65,1.34-17.19,1.34Zm-4.09-98.92h0c-17.55.67-30.96,6.14-39.88,16.24-8.98,10.17-12.9,24.97-11.36,42.79.85,9.83,5.57,18.38,13.63,24.73,13.36,10.51,34.65,14.47,58.42,10.86,18.07-2.74,32.54-13.39,39.72-29.21,5.86-12.91,5.55-27.11-.79-37.04-12.69-19.86-32.79-29.41-59.75-28.37Z"/>
    <path class="cls-1" d="m94.43,69.42c-.28,0-.57-.08-.82-.24-.69-.45-.89-1.38-.43-2.08,3.64-5.56,9.47-9.14,15.23-9.33,3.54-.12,8.77,1.02,13.35,7.1.5.66.37,1.6-.29,2.1-.66.5-1.6.37-2.1-.29-3.02-4-6.8-6.04-10.86-5.9-4.72.16-9.75,3.29-12.82,7.97-.29.44-.77.68-1.26.68Z"/>
    <path class="cls-1" d="m108.12,70.44c-3.97,0-7.78-2.69-9.99-7.18-.37-.74-.06-1.64.68-2.01.74-.37,1.64-.06,2.01.68,1.87,3.81,5.09,5.94,8.23,5.43,2.74-.45,4.66-2.82,5.14-6.36.11-.82.87-1.4,1.69-1.28.82.11,1.4.87,1.29,1.69-.66,4.84-3.58,8.26-7.63,8.92-.47.08-.94.11-1.41.11Z"/>
    <path class="cls-1" d="m108.26,65.52c-2.16,0-4.56-1.26-5.65-4.96-.23-.79.22-1.63,1.02-1.86.79-.23,1.63.22,1.86,1.02.62,2.12,1.86,3.11,3.4,2.73,1.12-.28,1.97-1.22,1.8-2-.17-.81.35-1.61,1.16-1.77.81-.17,1.61.35,1.77,1.16.49,2.37-1.31,4.84-4.01,5.52-.43.11-.89.17-1.35.17Z"/>
    <path class="cls-1" d="m97.09,57.33c-.25,0-.5-.06-.73-.19-.72-.4-.98-1.32-.58-2.04,1.86-3.32,7.28-8.76,13.91-9.22,3.16-.22,7.81.69,12.05,6.28.5.66.37,1.6-.29,2.1-.66.5-1.6.37-2.1-.29-2.75-3.63-5.93-5.35-9.46-5.1-5.11.35-9.88,4.8-11.5,7.69-.27.49-.78.77-1.31.77Z"/>
    <path class="cls-1" d="m163.22,69.42c-.49,0-.97-.24-1.26-.68-3.07-4.69-8.1-7.82-12.82-7.97-4.11-.14-7.84,1.9-10.86,5.9-.5.66-1.44.79-2.1.29-.66-.5-.79-1.44-.29-2.1,4.59-6.08,9.78-7.22,13.36-7.1,5.75.19,11.59,3.77,15.22,9.33.45.69.26,1.62-.43,2.08-.25.17-.54.24-.82.24Z"/>
    <path class="cls-1" d="m149.54,70.44c-.47,0-.94-.04-1.41-.11-4.05-.66-6.97-4.08-7.63-8.92-.11-.82.46-1.58,1.29-1.69.82-.11,1.58.46,1.69,1.28.48,3.54,2.4,5.92,5.14,6.36,3.13.51,6.35-1.62,8.23-5.43.37-.74,1.27-1.05,2.01-.68.74.37,1.05,1.26.68,2.01-2.21,4.49-6.02,7.18-9.99,7.18Z"/>
    <path class="cls-1" d="m149.4,65.52c-.47,0-.93-.06-1.35-.17-2.7-.68-4.5-3.15-4.01-5.52.17-.81.96-1.33,1.77-1.16.81.17,1.33.96,1.16,1.77-.16.79.68,1.72,1.8,2,1.54.38,2.77-.61,3.4-2.73.23-.79,1.07-1.25,1.86-1.02.79.23,1.25,1.07,1.02,1.86-1.09,3.7-3.49,4.96-5.65,4.96Z"/>
    <path class="cls-1" d="m160.56,57.33c-.53,0-1.04-.28-1.31-.77-1.62-2.89-6.4-7.34-11.5-7.69-3.54-.25-6.7,1.47-9.46,5.1-.5.66-1.44.79-2.1.29-.66-.5-.79-1.44-.29-2.1,4.24-5.59,8.89-6.5,12.05-6.28,6.63.46,12.05,5.9,13.91,9.22.41.72.15,1.64-.58,2.04-.23.13-.48.19-.73.19Z"/>
    <path class="cls-1" d="m119.81,86.32c-3.92,0-6.27-2.39-6.38-2.5-.57-.6-.55-1.55.04-2.12.6-.57,1.54-.56,2.12.04.07.07,2.02,1.98,5.25,1.5,1.22-.18,2.27-.81,3.29-1.42,1.87-1.12,4.42-2.65,7.18.48.55.62.49,1.57-.13,2.12-.62.55-1.57.49-2.12-.13-1.08-1.22-1.47-1.04-3.39.11-1.15.69-2.57,1.54-4.38,1.82-.52.08-1.01.11-1.49.11Z"/>
    <path class="cls-1" d="m130.19,92.48c-.06,0-.11,0-.17,0-.43-.05-10.45-1.25-10.45-7.74,0-.83.67-1.5,1.5-1.5s1.5.67,1.5,1.5c0,3.76,7.71,4.75,7.79,4.76.82.09,1.41.84,1.32,1.66-.09.77-.73,1.33-1.49,1.33Z"/>
    <path class="cls-1" d="m140.57,86.32c-.47,0-.97-.03-1.49-.11-1.81-.27-3.24-1.13-4.38-1.82-1.92-1.15-2.31-1.33-3.39-.11-.55.62-1.5.68-2.12.13-.62-.55-.68-1.5-.13-2.12,2.76-3.13,5.32-1.6,7.18-.48,1.01.61,2.06,1.24,3.29,1.42,3.23.48,5.18-1.43,5.26-1.51.58-.58,1.53-.6,2.12-.02.59.58.61,1.51.04,2.11-.11.11-2.45,2.5-6.38,2.5Z"/>
    <path class="cls-1" d="m130.19,92.48c-.75,0-1.4-.57-1.49-1.33-.09-.82.5-1.56,1.32-1.66.08,0,7.79-1,7.79-4.76,0-.83.67-1.5,1.5-1.5s1.5.67,1.5,1.5c0,6.49-10.03,7.69-10.45,7.74-.06,0-.11,0-.17,0Z"/>
    <path class="cls-1" d="m107.57,36.02c-.79,0-1.45-.62-1.5-1.41-.05-.83.58-1.54,1.41-1.58.15,0,15.08-.98,15.88-10.21.07-.83.81-1.43,1.62-1.37.83.07,1.44.8,1.37,1.62-1.02,11.82-17.98,12.91-18.7,12.95-.03,0-.06,0-.08,0Z"/>
    <path class="cls-1" d="m95.87,47.32c-.87,0-1.41-.03-1.52-.03-.83-.04-1.46-.75-1.42-1.58.04-.83.79-1.46,1.58-1.42.13,0,12.93.61,18.49-4.86,1.76-1.73,2.57-3.86,2.48-6.5-.03-.83.62-1.52,1.44-1.55.82-.03,1.52.62,1.55,1.44.13,3.48-1.01,6.43-3.38,8.75-5.31,5.22-15.39,5.74-19.23,5.74Z"/>
    <path class="cls-1" d="m72.78,66.7c-1.09,0-2.21-.04-3.36-.13-.83-.06-1.45-.78-1.39-1.61.06-.83.8-1.44,1.61-1.39,17.89,1.32,26.39-8.46,28.36-18.06.17-.81.97-1.33,1.77-1.17.81.17,1.33.96,1.17,1.77-2,9.75-10.58,20.58-28.16,20.58Z"/>
    <path class="cls-1" d="m141.56,37.68c-5.08,0-15.66-1.26-18.85-11.36-.25-.79.19-1.63.98-1.88.79-.25,1.63.19,1.88.98,3.46,10.98,17.75,9.23,18.35,9.15.82-.11,1.58.47,1.68,1.29.11.82-.47,1.57-1.29,1.68-.04,0-1.11.14-2.76.14Z"/>
    <path class="cls-1" d="m155.31,45.64c-4.82,0-15.38-.93-20.62-8.59-.47-.68-.29-1.62.39-2.08.68-.47,1.62-.29,2.08.39,5.77,8.43,20.2,7.21,20.35,7.2.82-.08,1.55.53,1.63,1.36.08.82-.53,1.55-1.35,1.63-.15.01-1.07.09-2.48.09Z"/>
    <path class="cls-1" d="m183.17,58.97s-.08,0-.13,0c-.84-.07-20.57-1.84-29.17-13.97-.48-.68-.32-1.61.36-2.09.67-.48,1.61-.32,2.09.36,7.8,11.01,26.78,12.7,26.98,12.72.83.07,1.44.79,1.37,1.62-.07.78-.72,1.38-1.49,1.38Z"/>
    <path class="cls-1" d="m86.47,95.76c-5.65,0-10.24-4.6-10.24-10.24s4.6-10.24,10.24-10.24,10.24,4.6,10.24,10.24-4.59,10.24-10.24,10.24Zm0-17.49c-3.99,0-7.24,3.25-7.24,7.24s3.25,7.24,7.24,7.24,7.24-3.25,7.24-7.24-3.25-7.24-7.24-7.24Z"/>
    <path class="cls-1" d="m171.31,93.63c-5.65,0-10.24-4.6-10.24-10.24s4.6-10.24,10.24-10.24,10.24,4.6,10.24,10.24-4.59,10.24-10.24,10.24Zm0-17.49c-3.99,0-7.24,3.25-7.24,7.24s3.25,7.24,7.24,7.24,7.24-3.25,7.24-7.24-3.25-7.24-7.24-7.24Z"/>
    <path class="cls-1" d="m119.11,203.99c-9.45,0-17.14-7.69-17.14-17.14s7.69-17.14,17.14-17.14,17.14,7.69,17.14,17.14-7.69,17.14-17.14,17.14Zm0-31.28c-7.8,0-14.14,6.34-14.14,14.14s6.34,14.14,14.14,14.14,14.14-6.34,14.14-14.14-6.34-14.14-14.14-14.14Z"/>
    <path class="cls-1" d="m121.07,200.67c-4.74,0-8.6-3.86-8.6-8.6s3.86-8.6,8.6-8.6,8.6,3.86,8.6,8.6-3.86,8.6-8.6,8.6Zm0-14.19c-3.09,0-5.6,2.51-5.6,5.6s2.51,5.6,5.6,5.6,5.6-2.51,5.6-5.6-2.51-5.6-5.6-5.6Z"/>
    <path class="cls-1" d="m133.19,161.81c-4.74,0-8.6-3.86-8.6-8.6s3.86-8.6,8.6-8.6,8.6,3.86,8.6,8.6-3.86,8.6-8.6,8.6Zm0-14.19c-3.09,0-5.6,2.51-5.6,5.6s2.51,5.6,5.6,5.6,5.6-2.51,5.6-5.6-2.51-5.6-5.6-5.6Z"/>
    <path class="cls-1" d="m189.2,218.72c-4.74,0-8.6-3.86-8.6-8.6s3.86-8.6,8.6-8.6,8.6,3.86,8.6,8.6-3.86,8.6-8.6,8.6Zm0-14.19c-3.09,0-5.6,2.51-5.6,5.6s2.51,5.6,5.6,5.6,5.6-2.51,5.6-5.6-2.51-5.6-5.6-5.6Z"/>
    <path class="cls-1" d="m66.73,124.03c-4.74,0-8.6-3.86-8.6-8.6s3.86-8.6,8.6-8.6,8.6,3.86,8.6,8.6-3.86,8.6-8.6,8.6Zm0-14.19c-3.09,0-5.6,2.51-5.6,5.6s2.51,5.6,5.6,5.6,5.6-2.51,5.6-5.6-2.51-5.6-5.6-5.6Z"/>
    <path class="cls-1" d="m64.73,266.19c-1.56,0-3.12-.21-4.67-.65h0c-9.1-2.56-14.42-12.04-11.86-21.14,2.56-9.1,12.04-14.42,21.14-11.86,4.41,1.24,8.07,4.12,10.31,8.11,2.24,3.99,2.79,8.62,1.55,13.03-1.24,4.41-4.12,8.07-8.11,10.31-2.6,1.46-5.46,2.2-8.36,2.2Zm-3.85-3.54c3.63,1.02,7.45.57,10.75-1.28,3.29-1.85,5.67-4.87,6.69-8.51,1.02-3.64.57-7.45-1.28-10.75s-4.87-5.67-8.51-6.69c-7.51-2.11-15.33,2.28-17.44,9.79-2.11,7.51,2.28,15.33,9.79,17.44h0Z"/>
    <path class="cls-1" d="m59.15,258.11c-.78,0-1.57-.11-2.34-.32-4.56-1.28-7.23-6.04-5.95-10.6.62-2.21,2.07-4.05,4.07-5.17,2-1.12,4.32-1.4,6.53-.78,2.21.62,4.05,2.07,5.17,4.07,1.12,2,1.4,4.32.78,6.53-.62,2.21-2.07,4.05-4.07,5.17-1.3.73-2.74,1.1-4.19,1.1Zm-.02-14.2c-.95,0-1.88.24-2.73.72-1.3.73-2.24,1.93-2.65,3.37-.83,2.97.9,6.07,3.87,6.9,1.44.4,2.95.22,4.25-.51,1.3-.73,2.24-1.93,2.65-3.37.41-1.44.23-2.95-.51-4.25-.73-1.3-1.93-2.24-3.37-2.65-.5-.14-1.01-.21-1.52-.21Z"/>
    <path class="cls-1" d="m158.18,256.32c-.77,0-1.55-.1-2.32-.32h0c-4.56-1.28-7.23-6.04-5.95-10.6.62-2.21,2.07-4.05,4.07-5.17,2-1.12,4.32-1.4,6.53-.78,2.21.62,4.05,2.07,5.17,4.07,1.12,2,1.4,4.32.78,6.53-1.07,3.79-4.52,6.27-8.28,6.27Zm-1.51-3.21c2.97.83,6.07-.9,6.9-3.87.41-1.44.22-2.95-.51-4.25-.73-1.3-1.93-2.24-3.37-2.65-1.44-.4-2.95-.22-4.25.51-1.3.73-2.24,1.93-2.65,3.37-.83,2.97.9,6.07,3.87,6.9h0Z"/>
    <path class="cls-1" d="m61.89,315.71c-.78,0-1.57-.11-2.34-.32h0c-2.21-.62-4.05-2.07-5.17-4.07-1.12-2-1.4-4.32-.78-6.53,1.28-4.56,6.04-7.23,10.6-5.95,4.56,1.28,7.23,6.04,5.95,10.6-.62,2.21-2.07,4.05-4.07,5.17-1.3.73-2.74,1.1-4.19,1.1Zm-.02-14.2c-.95,0-1.88.24-2.73.72-1.3.73-2.24,1.93-2.65,3.37-.41,1.44-.22,2.95.51,4.25.73,1.3,1.93,2.24,3.37,2.65h0c1.44.4,2.95.23,4.25-.51,1.3-.73,2.24-1.93,2.65-3.37.83-2.97-.9-6.07-3.87-6.9-.5-.14-1.01-.21-1.52-.21Z"/>
    <path class="cls-1" d="m124.89,337.54c-1.28,0-2.57-.14-3.85-.44-4.46-1.02-8.26-3.72-10.7-7.59-2.44-3.88-3.22-8.47-2.2-12.93,1.02-4.46,3.71-8.26,7.59-10.7,8-5.03,18.61-2.61,23.64,5.39,2.44,3.88,3.22,8.47,2.2,12.93s-3.72,8.26-7.59,10.7c-2.77,1.74-5.9,2.63-9.09,2.63Zm-.06-31.29c-2.57,0-5.17.7-7.5,2.16h0c-3.2,2.01-5.42,5.15-6.26,8.83-.84,3.68-.2,7.47,1.81,10.67,2.01,3.2,5.14,5.42,8.83,6.26,3.69.84,7.47.2,10.67-1.81,3.2-2.01,5.42-5.15,6.26-8.83.84-3.68.2-7.47-1.81-10.67-2.68-4.27-7.29-6.61-12-6.61Zm-8.3.89h0,0Z"/>
    <path class="cls-1" d="m128.26,324.54c-2.86,0-5.66-1.42-7.29-4.02-2.52-4.01-1.31-9.33,2.71-11.85,4.01-2.52,9.33-1.31,11.85,2.7,2.52,4.01,1.31,9.33-2.71,11.85-1.42.89-3,1.32-4.56,1.32Zm-.02-14.19c-1.02,0-2.05.28-2.97.86-1.27.8-2.15,2.04-2.48,3.49-.33,1.46-.08,2.96.72,4.22,1.64,2.61,5.1,3.4,7.71,1.76,1.27-.8,2.15-2.04,2.48-3.49.33-1.46.08-2.96-.72-4.22-1.06-1.69-2.88-2.62-4.75-2.62Z"/>
    <path class="cls-1" d="m64.72,357.8c-.47,0-.94-.05-1.41-.16-1.64-.37-3.03-1.36-3.93-2.79-1.85-2.94-.96-6.83,1.98-8.68h0c1.42-.89,3.11-1.18,4.75-.81,1.64.37,3.03,1.36,3.93,2.79.89,1.42,1.18,3.11.81,4.75s-1.36,3.03-2.79,3.93c-1.02.64-2.17.97-3.34.97Zm-1.77-9.09c-1.54.97-2,3-1.04,4.54.47.75,1.2,1.26,2.06,1.46.86.2,1.74.05,2.49-.42.75-.47,1.26-1.2,1.46-2.06.2-.86.05-1.74-.42-2.49-.47-.75-1.2-1.26-2.06-1.46-.86-.2-1.74-.05-2.49.42h0Z"/>
    <path class="cls-1" d="m117.18,366.51c-.47,0-.94-.05-1.41-.16-1.64-.37-3.03-1.36-3.93-2.79-1.85-2.94-.96-6.83,1.98-8.68h0c2.94-1.85,6.83-.96,8.68,1.98.9,1.42,1.18,3.11.81,4.75s-1.36,3.03-2.79,3.93c-1.02.64-2.17.97-3.34.97Zm-1.77-9.09c-1.54.97-2,3-1.04,4.54.47.75,1.2,1.26,2.06,1.46.85.19,1.74.05,2.49-.42.75-.47,1.26-1.2,1.46-2.06.2-.86.05-1.74-.42-2.49-.97-1.54-3-2-4.54-1.04h0Z"/>
    <path class="cls-1" d="m187.95,359.13c-.47,0-.94-.05-1.41-.16-1.64-.37-3.04-1.36-3.93-2.79-.89-1.42-1.18-3.11-.81-4.75s1.36-3.03,2.79-3.93c1.42-.89,3.11-1.18,4.75-.81,1.64.37,3.03,1.36,3.93,2.79.89,1.42,1.18,3.11.81,4.75-.37,1.64-1.36,3.03-2.79,3.93-1.02.64-2.17.97-3.34.97Zm-.02-9.59c-.61,0-1.21.17-1.75.51h0c-.75.47-1.26,1.2-1.46,2.06-.2.86-.05,1.74.42,2.49.47.75,1.2,1.26,2.06,1.46.86.2,1.74.05,2.49-.42.74-.47,1.26-1.2,1.46-2.06.2-.86.05-1.74-.42-2.49-.47-.75-1.2-1.26-2.06-1.46-.25-.06-.49-.08-.74-.08Zm-2.54-.76h0,0Z"/>
    <path class="cls-1" d="m121.62,347.13c-18.82,0-41.31-1.87-67.15-7.22-.81-.17-1.33-.96-1.16-1.77.17-.81.96-1.33,1.77-1.16,93.58,19.41,144.4-6.87,144.9-7.14.73-.39,1.64-.11,2.03.62.39.73.11,1.64-.62,2.03-.53.28-13.15,6.93-37.66,11.21-10.77,1.88-24.9,3.44-42.11,3.44Z"/>
    <path class="cls-1" d="m125.85,231.93c-51.37,0-85-10.22-85.49-10.37-.79-.25-1.23-1.09-.99-1.88.25-.79,1.08-1.23,1.88-.99.71.22,72.26,21.93,166.36,1.46.81-.18,1.61.34,1.78,1.15.18.81-.34,1.61-1.15,1.78-30.3,6.59-58.31,8.84-82.4,8.84Z"/>
    <path class="cls-1" d="m60.25,217.26c-4.51,0-9.24-1.36-13.71-4.05-1.76,1.21-3.55,2.17-5.36,2.84-.77.29-1.64-.1-1.93-.88-.29-.78.1-1.64.88-1.93,1.83-.68,3.66-1.71,5.46-3.04.5-.37,1.18-.4,1.71-.06,7.74,5.01,16.42,5.47,22.66,1.21,6.72-4.59,9.23-13.77,6.88-25.2-.08-.39,0-.8.22-1.14,7.5-11.19,9.62-20.93,5.96-27.42-2.91-5.17-9.33-7.91-17.63-7.54-.48.03-.97-.2-1.27-.6s-.38-.92-.21-1.39c1.05-3.03.7-5.73-1.04-8.05-3.09-4.11-10.27-6.6-17.9-6.2-.83.05-1.53-.59-1.58-1.42s.59-1.53,1.42-1.58c8.72-.46,16.73,2.45,20.45,7.39,1.94,2.58,2.62,5.6,2.02,8.81,8.5.1,15.12,3.36,18.35,9.1,4.18,7.43,2.14,18.08-5.74,30.05,2.38,12.38-.61,22.44-8.25,27.66-3.35,2.29-7.28,3.43-11.41,3.43Z"/>
    <path class="cls-1" d="m43.08,195.1c-1.23,0-2.39-.43-3.29-1.25-.61-.56-.65-1.51-.09-2.12.56-.61,1.51-.65,2.12-.09.53.49,1.32.59,2.16.3,1.21-.42,2.65-1.8,3.07-4.4.07-.44.33-.83.72-1.05s.85-.27,1.27-.12c3.46,1.25,5.99,1.18,6.6-.2.61-1.36-.39-3.67-1.94-4.5-.69-.37-.98-1.2-.67-1.91,1.37-3.2,1.36-5.68-.04-6.8-1.45-1.16-4.15-.79-6.44.87-.39.28-.89.36-1.34.21-.46-.15-.81-.5-.96-.96-.6-1.82-1.56-3.02-2.7-3.36-.79-.24-1.24-1.08-1-1.87.24-.79,1.08-1.24,1.87-1,1.22.37,2.79,1.3,3.96,3.58,3.04-1.55,6.35-1.52,8.49.19,1.12.9,3.39,3.53,1.38,9.18,2.21,1.87,3.23,5.18,2.15,7.6-.59,1.33-2.6,4.04-8.78,2.31-.82,2.48-2.48,4.33-4.64,5.08-.63.22-1.27.33-1.89.33Z"/>
    <path class="cls-1" d="m192.12,330.27c-5.35,0-10.94-2.15-15.42-7.99-5.41,3.46-11.54,3.49-17.44.06-8.74-5.1-15.12-16.87-13.95-25.71.58-4.34,2.95-7.55,6.75-9.21-4.69-7.08-5.72-14.39-2.79-20.29,3.79-7.63,13.75-11.94,28.07-12.15,10.15-10.19,21.58-12.85,30.68-7.13.7.44.91,1.37.47,2.07s-1.37.91-2.07.47c-7.94-5-18.17-2.34-27.37,7.13-.28.29-.66.45-1.07.45-13.47.09-22.71,3.81-26.03,10.49-2.64,5.31-1.3,12.17,3.68,18.82.3.4.38.92.22,1.39-.16.47-.55.83-1.03.96-3.82,1.03-6.02,3.52-6.54,7.41-1.02,7.63,4.82,18.25,12.48,22.73,3.71,2.16,9.38,3.79,15.37-.74.33-.25.74-.35,1.15-.28.41.07.77.3,1,.64,6.61,9.71,16.28,9.18,23.13,5.45.73-.4,1.64-.13,2.04.6.4.73.13,1.64-.6,2.04-3.1,1.69-6.86,2.83-10.75,2.83Z"/>
    <path class="cls-1" d="m188.57,301.03c-2.48,0-4.73-1.3-5.76-3.34-.57-1.13-1.17-3.29.38-6.14-2.99-1.65-4.83-4.4-4.61-7.12.11-1.44,1.01-4.79,6.81-6.3.31-2.88,2.47-5.58,5.08-6.05,1.43-.26,4.81-.12,6.85,5.96,3.02-.86,5.54-.05,7.02,1.14,1.6,1.3,2.3,3.18,1.86,5.04-.27,1.15-1.17,3.02-4.08,4.36,1.86,1.77,2.07,3.79,1.48,5.35-1,2.64-4.57,4.61-9.04,3.74-1.33,2.06-3.43,3.29-5.82,3.34-.05,0-.1,0-.16,0Zm2.69-26.01c-.09,0-.17,0-.26.02-1.46.26-2.81,2.39-2.63,4.14.08.77-.44,1.48-1.21,1.63-3.42.66-5.46,2.07-5.6,3.85-.14,1.84,1.68,3.88,4.34,4.84.45.16.8.53.93.99.13.46.04.96-.25,1.34-1.32,1.71-1.71,3.31-1.11,4.51.51,1.02,1.75,1.69,3.09,1.69.03,0,.06,0,.09,0,1.63-.04,3-1.02,3.76-2.69.31-.68,1.08-1.04,1.8-.82,3.48,1.04,6.06-.28,6.57-1.64.43-1.13-.58-2.39-2.71-3.38-.58-.27-.93-.88-.86-1.52.07-.64.54-1.16,1.16-1.3,2.75-.62,4.57-1.79,4.89-3.13.17-.72-.13-1.46-.83-2.03-1.02-.83-3-1.31-5.48-.15-.4.19-.87.19-1.28,0s-.7-.55-.81-.99c-.86-3.36-2.22-5.37-3.62-5.37Z"/>
    <path class="cls-1" d="m196.06,191.69c-5.51,0-11.11-2.28-15.48-7.97-5.41,3.46-11.55,3.5-17.44.06-8.74-5.1-15.12-16.87-13.95-25.71.58-4.34,2.95-7.55,6.75-9.21-4.69-7.08-5.72-14.39-2.79-20.29,3.79-7.63,13.75-11.94,28.07-12.15,7.61-7.64,16.06-11.1,23.83-9.76.82.14,1.36.92,1.22,1.73-.14.82-.93,1.37-1.73,1.22-6.93-1.19-14.6,2.12-21.61,9.34-.28.29-.66.45-1.07.45-13.47.09-22.71,3.81-26.03,10.49-2.64,5.31-1.3,12.17,3.68,18.82.3.4.38.92.22,1.39-.16.47-.55.83-1.03.96-3.82,1.03-6.02,3.52-6.54,7.41-1.02,7.63,4.82,18.25,12.48,22.73,3.71,2.16,9.38,3.79,15.37-.74.33-.25.74-.35,1.15-.28.41.07.77.3,1,.64,6.82,10.04,17.44,9.42,24.93,4.35.68-.46,1.62-.28,2.08.4.46.69.28,1.62-.4,2.08-3.68,2.49-8.17,4.05-12.72,4.05Z"/>
    <path class="cls-1" d="m192.44,162.47c-2.48,0-4.73-1.3-5.76-3.34-.57-1.13-1.17-3.29.38-6.14-2.99-1.65-4.83-4.4-4.61-7.12.11-1.44,1.01-4.79,6.81-6.3.31-2.88,2.47-5.58,5.08-6.05,1.43-.25,4.78-.12,6.82,5.88,2.01-.77,3.98-1.01,5.91.54.65.52.75,1.46.23,2.11-.52.65-1.46.75-2.11.23-.74-.59-1.4-.85-4.36.53-.4.19-.87.19-1.28,0-.4-.19-.7-.55-.81-.99-.91-3.56-2.4-5.61-3.88-5.35-1.46.26-2.81,2.39-2.63,4.14.08.77-.44,1.48-1.21,1.63-3.42.66-5.46,2.07-5.6,3.85-.14,1.84,1.68,3.88,4.34,4.84.45.16.8.53.93.99.13.46.04.96-.25,1.34-1.32,1.71-1.71,3.31-1.11,4.51.53,1.04,1.8,1.72,3.18,1.69,1.63-.04,3-1.02,3.76-2.69.31-.68,1.08-1.04,1.8-.82,3.48,1.04,6.06-.28,6.57-1.64.43-1.13-.58-2.39-2.71-3.38-.58-.27-.93-.88-.86-1.52.07-.64.54-1.16,1.16-1.3,1.72-.39,3.09-.99,3.95-1.74.62-.54,1.57-.48,2.12.15.54.63.48,1.57-.15,2.12-.61.53-1.34,1-2.2,1.39,1.86,1.77,2.07,3.8,1.48,5.35-1,2.64-4.58,4.6-9.04,3.74-1.33,2.06-3.43,3.29-5.82,3.34-.05,0-.1,0-.16,0Z"/>
    <path class="cls-1" d="m102.86,334.29c-.22,0-.45-.05-.65-.15-11.13-5.39-16.86-14.85-16.55-27.36.56-22.89,22.06-51.16,46.95-61.73.71-.3,1.53-.02,1.9.66s.17,1.52-.46,1.96c-37.46,26.04-36.07,45.92-29.71,84.89.09.55-.13,1.11-.58,1.44-.26.2-.58.3-.9.3Zm10.85-73.49c-14.38,12.82-24.68,30.72-25.06,46.06-.25,10.22,3.97,18.17,12.24,23.17-4.75-29.68-6.01-49.21,12.82-69.23Z"/>
    <path class="cls-1" d="m144.12,308.61c-.27,0-6.83-.08-19.24-7.24-5.27-3.04-8.85-8.95-9.8-16.2-1.68-12.77,4.53-27.28,17.06-39.8.52-.52,1.34-.59,1.93-.16.6.43.8,1.22.48,1.88-17.57,35.91,10.23,58.62,10.52,58.85.5.4.69,1.07.48,1.67s-.78,1.01-1.42,1.01Zm-15.65-54.61c-7.95,10.16-11.7,21.06-10.42,30.78.83,6.32,3.87,11.42,8.33,13.99,5.73,3.3,10.12,5.01,13.1,5.9-6.7-7.33-19.36-25.39-11.01-50.67Z"/>
    <path class="cls-1" d="m68.15,276.88c-6.23,0-12.36-1.13-18.11-3.84-.6-.28-.94-.92-.85-1.57.09-.65.6-1.17,1.25-1.27,36.83-5.79,69.51-20.42,79.18-25.03-23.33-10.71-32.81-28.39-36.63-41.59-4.31-14.87-2.61-27.09-2.54-27.6.1-.68.65-1.21,1.33-1.28.67-.07,1.33.34,1.56.98.96,2.67,1.79,5.34,2.66,8.16,4.32,13.91,9.17,29.55,32.84,54.63-5.93-17.26-2.25-31,3.79-38.57,5.19-6.51,12.67-9.41,20.01-7.76.55.12.98.54,1.12,1.09.14.54-.03,1.12-.45,1.5-9.84,8.79-18.89,20.97-18.65,50.11.03.15.03.3,0,.45,0,.01,0,.02,0,.03,0,.36.01.72.02,1.09,0,.45-.19.88-.53,1.17-1.68,1.42-35.08,29.3-66.01,29.3Zm-11.79-4.64c24.76,7.27,55.99-12.32,69.34-21.96-12.84,5.76-39.38,16.51-69.34,21.96Zm36.73-87.65c.12,4.79.76,11.26,2.8,18.27,4.82,16.52,15.05,29.05,30.47,37.35-23.92-25.48-29.05-42.01-33.23-55.48-.01-.05-.03-.1-.04-.14Zm55.4,10.08c-5.04,0-9.83,2.48-13.52,7.1-5.56,6.97-8.88,19.75-3.2,36,.84-19.14,6.09-32.19,17.19-43.1-.16,0-.32,0-.47,0Z"/>
  </g>
  <g>
    <path class="accent" d="m310.28,383.93c-8.64,0-15.64,7-15.64,15.64s7,15.64,15.64,15.64,15.64-7,15.64-15.64-7-15.64-15.64-15.64Zm1.96,27.97c-3.92,0-7.1-3.18-7.1-7.1s3.18-7.1,7.1-7.1,7.1,3.18,7.1,7.1-3.18,7.1-7.1,7.1Z"/>
    <path class="accent" d="m382.37,275.33c-4.13-7.59-13.62-10.4-21.21-6.27s-10.4,13.62-6.27,21.21c4.13,7.59,13.62,10.4,21.21,6.27,7.59-4.13,10.4-13.62,6.27-21.21Zm-14.58,10.05c-3.44,1.87-7.75.6-9.62-2.84-1.87-3.44-.6-7.75,2.84-9.62,3.44-1.87,7.75-.6,9.62,2.84s.6,7.75-2.84,9.62Z"/>
    <circle class="accent" cx="358.07" cy="238.15" r="6.7"/>
    <circle class="accent" cx="293.04" cy="236.52" r="6.7"/>
    <path class="accent" d="m313.32,275.99c6.83-19.67-40.44-23.91-39.21.68-1.22,0-2.37.09-3.47.25l-3,58.87c6.13,7.1,16.17,10.96,26.83,3.04,16.67,10.79,37.3,1.09,31.83-25.55,16.39-24.45,5.19-38.12-12.98-37.3Zm-16.8,39.21c-1.37,8.47-12.16,7.79-8.06-2.6-7.1,4.24-9.56-3.69-3.69-8.47-4.1-6.69,5.87-13.25,8.88-4.1,5.46-3.96,12.71-1.5,8.74,7.73,4.24,2.26,5.05,11.4-5.87,7.44Z"/>
    <path class="accent" d="m386.44,393.73c-7.1,4.24-9.56-3.69-3.69-8.47-4.1-6.69,5.87-13.25,8.88-4.1.84-.61,1.71-1.06,2.58-1.36l1.7-38.78c-11.36-1.24-24.48,3.68-23.82,16.78-22.82,0-24.05,30.19-9.84,36.61-9.97,10.11,8.88,41.4,30.19,25.55l.9-20.49c-3.09,4.9-10.4,3.1-6.91-5.75Z"/>
    <path class="cls-1" d="m313.49,413.51c-9.45,0-17.14-7.69-17.14-17.14s7.69-17.14,17.14-17.14,17.14,7.69,17.14,17.14-7.69,17.14-17.14,17.14Zm0-31.28c-7.8,0-14.14,6.34-14.14,14.14s6.34,14.14,14.14,14.14,14.14-6.34,14.14-14.14-6.34-14.14-14.14-14.14Z"/>
    <path class="cls-1" d="m315.45,410.19c-4.74,0-8.6-3.86-8.6-8.6s3.86-8.6,8.6-8.6,8.6,3.86,8.6,8.6-3.86,8.6-8.6,8.6Zm0-14.19c-3.09,0-5.6,2.51-5.6,5.6s2.51,5.6,5.6,5.6,5.6-2.51,5.6-5.6-2.51-5.6-5.6-5.6Z"/>
    <path class="cls-1" d="m371.86,296.74c-1.63,0-3.27-.24-4.88-.71-4.39-1.3-8.01-4.23-10.2-8.25-4.51-8.3-1.43-18.73,6.87-23.25,4.02-2.19,8.65-2.68,13.05-1.38,4.39,1.3,8.01,4.23,10.2,8.25,2.19,4.02,2.68,8.66,1.38,13.05s-4.23,8.01-8.25,10.2c-2.55,1.39-5.34,2.09-8.17,2.09Zm-.04-31.3c-2.33,0-4.63.58-6.74,1.72-6.85,3.72-9.39,12.33-5.67,19.18,1.8,3.32,4.79,5.74,8.42,6.81,3.62,1.07,7.45.67,10.76-1.14,3.32-1.8,5.74-4.79,6.81-8.42s.67-7.45-1.14-10.76c-1.8-3.32-4.79-5.74-8.42-6.81-1.33-.39-2.68-.59-4.03-.59Z"/>
    <path class="cls-1" d="m367.63,284.52c-3.05,0-6.01-1.62-7.57-4.49h0c-2.26-4.16-.72-9.39,3.45-11.66,2.02-1.1,4.34-1.34,6.54-.69,2.2.65,4.02,2.12,5.12,4.14s1.34,4.34.69,6.54c-.65,2.2-2.12,4.02-4.14,5.11-1.3.71-2.71,1.04-4.09,1.04Zm-4.93-5.92c1.47,2.71,4.88,3.72,7.59,2.24,1.31-.71,2.27-1.9,2.69-3.33.42-1.43.26-2.95-.45-4.26-.71-1.31-1.9-2.27-3.33-2.69-1.43-.42-2.94-.26-4.26.45-2.71,1.47-3.72,4.88-2.24,7.59h0Z"/>
    <path class="cls-1" d="m346.89,437.66c-28.92,0-60.06-4.68-66.11-9.79-.15-.12-.27-.27-.36-.44-7.07-13.28-8.2-36.09-10.26-77.5l-.28-5.66c-1.33-26.63-.02-41.45,1.36-57.13.91-10.26,1.84-20.87,2.09-35.43.76-44.66,22.22-71.71,57.39-72.35,23.28-.44,41.25,8.63,53.38,26.92,12.35,18.62,14.93,41.55,15.37,53.56,1.04,28.53,3.51,148.31-4.5,169.16-.11.3-.32.55-.59.73-8.96,5.75-27.71,7.94-47.49,7.94Zm-63.96-11.91c10.02,7.57,87.86,14.78,109.42,1.7,7.07-20.2,5.51-129.59,4.13-167.52-.67-18.31-7.29-77.61-64.17-77.61-.51,0-1.01,0-1.53.01l-.03-1.5.03,1.5c-33.36.61-53.71,26.56-54.44,69.41-.25,14.67-1.19,25.33-2.1,35.65-1.38,15.58-2.68,30.29-1.35,56.72l.28,5.66c1.96,39.35,3.14,63.21,9.77,75.97Z"/>
    <path class="cls-1" d="m332.6,263.98c-4.26,0-8.69-.34-13.22-1.03-14.75-2.24-26.58-10.95-32.45-23.91-4.86-10.71-4.55-22.55.79-30.91,10.27-16.07,26.47-23.79,48.13-22.96h0c14,.54,25.22,5.15,32.45,13.35,7.37,8.35,10.61,20.38,9.36,34.77-.72,8.28-4.68,15.48-11.45,20.81-8.22,6.47-20.06,9.89-33.59,9.89Zm.14-75.88c-19.03,0-33.32,7.27-42.5,21.64-4.8,7.52-5.02,18.27-.58,28.06,5.45,12.02,16.45,20.1,30.17,22.19,18.12,2.75,34.35-.26,44.51-8.25,6.1-4.8,9.67-11.27,10.32-18.71,1.18-13.56-1.8-24.81-8.62-32.53-6.77-7.67-16.96-11.82-30.31-12.33-1.01-.04-2-.06-2.98-.06Z"/>
    <path class="cls-1" d="m355.18,222.96c-.49,0-.97-.24-1.26-.68-2.29-3.5-6.03-5.83-9.54-5.95-3.02-.09-5.79,1.42-8.03,4.39-.5.66-1.44.79-2.1.29-.66-.5-.79-1.44-.29-2.1,3.61-4.78,7.72-5.68,10.53-5.58,4.52.15,9.1,2.95,11.95,7.31.45.69.26,1.62-.43,2.08-.25.17-.54.24-.82.24Z"/>
    <path class="cls-1" d="m344.69,223.74c-.38,0-.76-.03-1.14-.09-3.26-.53-5.62-3.26-6.14-7.13-.11-.82.46-1.58,1.29-1.69.82-.11,1.58.46,1.69,1.28.35,2.55,1.71,4.26,3.65,4.58,2.23.37,4.57-1.2,5.93-3.97.37-.74,1.27-1.05,2.01-.68.74.37,1.05,1.26.68,2.01-1.75,3.56-4.79,5.7-7.97,5.7Z"/>
    <path class="cls-1" d="m344.56,219.96c-.38,0-.75-.05-1.1-.14-2.25-.56-3.75-2.65-3.33-4.64.17-.81.97-1.33,1.77-1.16.81.17,1.33.96,1.16,1.77-.08.36.41.94,1.12,1.12,1.33.33,1.94-1.02,2.18-1.85.23-.8,1.07-1.25,1.86-1.02.79.23,1.25,1.07,1.02,1.86-.85,2.88-2.81,4.05-4.69,4.05Z"/>
    <path class="cls-1" d="m353.14,213.69c-.53,0-1.04-.28-1.31-.77-1.21-2.15-4.75-5.46-8.54-5.72-2.56-.18-4.91,1.09-6.94,3.77-.5.66-1.44.79-2.1.29-.66-.5-.79-1.44-.29-2.1,3.34-4.41,7.03-5.13,9.54-4.95,5.22.36,9.49,4.64,10.95,7.25.41.72.15,1.64-.58,2.04-.23.13-.48.19-.73.19Z"/>
    <path class="cls-1" d="m302.45,222.96c-.28,0-.57-.08-.82-.24-.69-.45-.89-1.38-.43-2.08,2.85-4.36,7.43-7.16,11.95-7.31,2.8-.1,6.92.8,10.53,5.58.5.66.37,1.6-.29,2.1-.66.5-1.6.37-2.1-.29-2.24-2.97-5.04-4.48-8.03-4.39-3.51.12-7.25,2.45-9.54,5.95-.29.44-.77.68-1.26.68Z"/>
    <path class="cls-1" d="m312.94,223.74c-3.17,0-6.22-2.14-7.97-5.7-.37-.74-.06-1.64.68-2.01.74-.37,1.64-.06,2.01.68,1.37,2.78,3.69,4.33,5.93,3.97,1.94-.32,3.3-2.03,3.65-4.58.11-.82.87-1.39,1.69-1.28.82.11,1.4.87,1.29,1.69-.52,3.87-2.88,6.6-6.14,7.13-.38.06-.76.09-1.14.09Z"/>
    <path class="cls-1" d="m313.07,219.96c-1.88,0-3.84-1.17-4.69-4.05-.23-.79.22-1.63,1.02-1.86.79-.23,1.63.22,1.86,1.02.24.83.86,2.18,2.18,1.85.71-.18,1.2-.76,1.12-1.12-.17-.81.35-1.6,1.16-1.77.81-.17,1.6.35,1.77,1.16.41,2-1.08,4.08-3.33,4.64-.36.09-.73.14-1.1.14Z"/>
    <path class="cls-1" d="m304.49,213.69c-.25,0-.5-.06-.73-.19-.72-.4-.98-1.32-.58-2.04,1.46-2.61,5.73-6.88,10.95-7.25,2.52-.17,6.2.54,9.54,4.95.5.66.37,1.6-.29,2.1-.66.5-1.6.37-2.1-.29-2.03-2.68-4.38-3.96-6.94-3.77-3.79.26-7.33,3.57-8.54,5.72-.27.49-.79.77-1.31.77Z"/>
    <path class="cls-1" d="m335.73,235.91c-.38,0-.77-.03-1.19-.09-1.46-.22-2.58-.89-3.49-1.44-1.49-.9-1.53-.85-2.15-.15-.55.62-1.5.68-2.12.13-.62-.55-.68-1.5-.13-2.12,2.31-2.62,4.5-1.3,5.95-.44.75.45,1.52.91,2.39,1.04,2.31.34,3.71-1.03,3.72-1.05.58-.6,1.52-.62,2.12-.04.6.57.62,1.52.04,2.12-.09.09-1.99,2.03-5.14,2.03Z"/>
    <path class="cls-1" d="m327.77,240.63c-.75,0-1.4-.57-1.49-1.33-.09-.82.5-1.57,1.32-1.66,1.47-.17,5.66-1.14,5.66-3.3,0-.83.67-1.5,1.5-1.5s1.5.67,1.5,1.5c0,4.22-5.23,5.93-8.32,6.28-.06,0-.11,0-.17,0Z"/>
    <path class="cls-1" d="m319.82,235.91c-3.16,0-5.05-1.93-5.14-2.03-.57-.6-.55-1.55.04-2.12.6-.57,1.55-.56,2.12.04.05.05,1.44,1.39,3.72,1.05.87-.13,1.64-.59,2.39-1.04,1.45-.87,3.64-2.18,5.95.43.55.62.49,1.57-.13,2.12-.62.55-1.57.49-2.12-.13-.62-.7-.66-.74-2.15.15-.91.54-2.03,1.22-3.49,1.44-.41.06-.81.09-1.19.09Z"/>
    <path class="cls-1" d="m327.77,240.63c-.06,0-.11,0-.17,0-3.09-.35-8.32-2.06-8.32-6.28,0-.83.67-1.5,1.5-1.5s1.5.67,1.5,1.5c0,2.16,4.19,3.13,5.66,3.3.82.09,1.41.84,1.32,1.66-.09.77-.74,1.33-1.49,1.33Z"/>
    <path class="cls-1" d="m345.11,197.36s-.06,0-.08,0c-.57-.03-13.85-.89-14.66-10.24-.07-.83.54-1.55,1.37-1.62.81-.06,1.55.54,1.62,1.37.59,6.79,11.73,7.5,11.84,7.51.83.05,1.46.75,1.41,1.58-.05.8-.71,1.42-1.5,1.42Z"/>
    <path class="cls-1" d="m354.09,206.02c-2.98,0-10.83-.41-15-4.5-1.89-1.85-2.79-4.2-2.69-6.97.03-.83.7-1.47,1.55-1.44.83.03,1.47.73,1.44,1.55-.07,1.92.52,3.46,1.79,4.72,4.15,4.08,13.81,3.63,13.91,3.62.82-.05,1.53.59,1.58,1.42.04.83-.59,1.53-1.42,1.58-.08,0-.5.02-1.17.02Z"/>
    <path class="cls-1" d="m371.76,220.87c-13.68,0-20.36-8.45-21.92-16.05-.17-.81.36-1.6,1.17-1.77.8-.17,1.6.35,1.77,1.17,1.48,7.21,7.86,14.57,21.37,13.57.83-.05,1.55.56,1.61,1.39s-.56,1.55-1.39,1.61c-.9.07-1.77.1-2.61.1Z"/>
    <path class="cls-1" d="m319.29,198.67c-.88,0-1.7-.06-2.4-.15-.82-.11-1.4-.86-1.29-1.69.11-.82.87-1.4,1.69-1.29.45.06,11.12,1.35,13.69-6.77.25-.79,1.09-1.23,1.88-.98.79.25,1.23,1.09.98,1.88-2.26,7.17-9.53,9-14.54,9Z"/>
    <path class="cls-1" d="m308.5,204.73c-1.09,0-1.8-.06-1.92-.07-.82-.08-1.43-.81-1.35-1.63.08-.82.81-1.44,1.63-1.36.11.01,10.97.92,15.27-5.37.47-.68,1.4-.86,2.08-.39.68.47.86,1.4.39,2.08-4.11,6.01-12.36,6.73-16.11,6.73Z"/>
    <path class="cls-1" d="m287.17,214.95c-.77,0-1.43-.59-1.49-1.38-.07-.83.54-1.55,1.37-1.62.14-.01,14.54-1.31,20.42-9.6.48-.68,1.42-.83,2.09-.36.67.48.83,1.42.36,2.09-6.69,9.43-21.97,10.8-22.62,10.85-.04,0-.08,0-.13,0Z"/>
    <path class="cls-1" d="m361.28,243.14c-4.52,0-8.2-3.68-8.2-8.2s3.68-8.2,8.2-8.2,8.2,3.68,8.2,8.2-3.68,8.2-8.2,8.2Zm0-13.4c-2.87,0-5.2,2.33-5.2,5.2s2.33,5.2,5.2,5.2,5.2-2.33,5.2-5.2-2.33-5.2-5.2-5.2Z"/>
    <path class="cls-1" d="m296.25,241.51c-4.52,0-8.2-3.68-8.2-8.2s3.68-8.2,8.2-8.2,8.2,3.68,8.2,8.2-3.68,8.2-8.2,8.2Zm0-13.4c-2.87,0-5.2,2.33-5.2,5.2s2.33,5.2,5.2,5.2,5.2-2.33,5.2-5.2-2.33-5.2-5.2-5.2Z"/>
    <path class="cls-1" d="m285.09,365.51c-.62,0-1.25-.08-1.88-.26h0c-1.78-.5-3.27-1.67-4.17-3.28-.91-1.62-1.13-3.49-.63-5.27.5-1.78,1.67-3.27,3.28-4.17,1.62-.91,3.49-1.13,5.27-.63,3.68,1.04,5.84,4.87,4.8,8.56-.86,3.06-3.65,5.06-6.68,5.06Zm-1.06-3.15c2.08.58,4.27-.63,4.86-2.73.59-2.09-.63-4.27-2.73-4.86-1.01-.28-2.08-.16-2.99.36-.92.51-1.58,1.36-1.86,2.37-.29,1.01-.16,2.08.36,2.99.51.92,1.36,1.58,2.37,1.86h0Z"/>
    <path class="cls-1" d="m336.23,345.44c-39.43,0-65.26-7.85-65.63-7.96-.79-.25-1.23-1.09-.99-1.88.25-.79,1.09-1.23,1.88-.99.54.17,55.31,16.78,127.33,1.11.8-.18,1.61.34,1.78,1.15.18.81-.34,1.61-1.15,1.78-23.25,5.06-44.74,6.78-63.23,6.78Z"/>
    <path class="cls-1" d="m285.66,341.54c-6.47,0-12.07-3.5-15.94-7.98-.54-.63-.47-1.57.16-2.12.63-.54,1.58-.47,2.12.16,2.62,3.04,12.16,12.22,24.8,2.82.5-.37,1.18-.4,1.71-.06,7.74,5.01,16.42,5.48,22.66,1.21,6.72-4.59,9.23-13.77,6.88-25.2-.08-.39,0-.8.22-1.14,7.5-11.19,9.62-20.93,5.96-27.42-2.91-5.17-9.34-7.91-17.63-7.54-.48.03-.97-.2-1.27-.6-.3-.4-.38-.92-.21-1.39,1.3-3.74.47-6.96-2.45-9.57-5.74-5.13-17.8-6.28-25.81-2.46-3.87,1.85-8.41,5.63-8.04,13.13.02.41-.13.81-.41,1.11-.28.3-.68.47-1.09.47-1.12,0-2.21.08-3.25.23-.82.12-1.58-.44-1.71-1.26-.12-.82.44-1.58,1.26-1.71.71-.11,1.43-.18,2.18-.22.18-6.42,3.6-11.51,9.76-14.45,9.13-4.36,22.46-3.02,29.11,2.93,3.27,2.92,4.59,6.69,3.82,10.77,8.5.1,15.12,3.36,18.35,9.1,4.18,7.43,2.14,18.08-5.74,30.05,2.38,12.39-.61,22.44-8.25,27.66-7.02,4.79-16.56,4.53-25.11-.62-4.2,2.91-8.29,4.11-12.08,4.11Z"/>
    <path class="cls-1" d="m294.27,319.31c-1.37,0-2.64-.53-3.57-1.54-.8-.87-1.84-2.66-1.31-5.83-2.51.54-4.3-.42-5.26-1.79-1.62-2.31-1.24-6.37,1.99-9.58-.96-2.26-.79-4.69.51-6.69,1.38-2.14,3.78-3.32,6.09-3.02,1.25.16,3.38.89,4.86,3.77,3.04-1.55,6.35-1.52,8.48.19,1.12.9,3.39,3.53,1.38,9.17,2.21,1.87,3.22,5.18,2.15,7.6-.59,1.33-2.6,4.04-8.78,2.31-.99,2.99-3.08,4.61-4.89,5.16-.55.17-1.11.25-1.65.25Zm-2.6-11.43c.35,0,.69.12.97.36.49.42.66,1.1.42,1.69-1.03,2.62-1.09,4.79-.16,5.8.5.54,1.28.71,2.14.45,1.26-.38,2.76-1.75,3.2-4.45.07-.44.33-.83.72-1.05.39-.23.85-.27,1.27-.12,3.46,1.25,5.99,1.18,6.6-.2.61-1.36-.39-3.67-1.94-4.5-.69-.37-.98-1.2-.67-1.91,1.37-3.2,1.36-5.68-.04-6.8-1.45-1.16-4.15-.79-6.44.87-.39.28-.89.36-1.34.21-.46-.15-.81-.5-.96-.96-.67-2.05-1.78-3.28-3.11-3.45-1.14-.15-2.44.52-3.18,1.68-.89,1.37-.84,3.05.12,4.62.39.64.25,1.47-.33,1.95-2.82,2.3-3.17,5.17-2.34,6.35.69.99,2.31.86,4.32-.34.24-.14.5-.21.77-.21Z"/>
    <path class="cls-1" d="m383.65,422.66c-6.44,0-12.02-3.46-15.88-7.89-5.74-6.6-8.79-16.84-4.6-23.1-6.53-4.08-9.9-13.39-7.92-22.56,1.6-7.42,7.3-15.32,18.55-15.97.13-4.42,1.8-8.26,4.88-11.17,4.63-4.37,12.53-6.53,20.62-5.65.82.09,1.42.83,1.33,1.65-.09.82-.83,1.42-1.65,1.33-7.24-.79-14.22,1.07-18.24,4.85-2.82,2.66-4.14,6.14-3.93,10.37.02.41-.13.81-.41,1.11-.28.3-.68.47-1.09.47-8.89,0-15.29,5.1-17.13,13.65-1.85,8.59,1.55,17.23,7.91,20.1.45.2.77.61.86,1.09s-.06.98-.41,1.33c-4.14,4.2-2.54,13.61,3.49,20.55,2.62,3.01,12.15,12.11,24.74,2.75.67-.49,1.6-.36,2.1.31.49.66.36,1.6-.31,2.1-4.5,3.34-8.87,4.71-12.92,4.71Z"/>
    <path class="cls-1" d="m392.25,400.44c-1.37,0-2.64-.53-3.57-1.54-.8-.87-1.84-2.66-1.31-5.83-2.51.54-4.3-.42-5.26-1.79-1.62-2.31-1.24-6.37,1.99-9.58-.96-2.26-.79-4.69.51-6.69,1.38-2.14,3.78-3.32,6.09-3.02,1.25.16,3.38.89,4.86,3.77.83-.42,1.69-.73,2.55-.92.8-.18,1.61.34,1.79,1.14.18.81-.33,1.61-1.14,1.79-1.02.22-2.07.71-3.02,1.4-.39.28-.89.36-1.34.21-.46-.15-.81-.5-.96-.96-.67-2.05-1.78-3.28-3.11-3.45-1.16-.16-2.44.52-3.18,1.68-.89,1.37-.85,3.05.11,4.62.39.64.25,1.47-.33,1.95-2.82,2.3-3.17,5.17-2.34,6.36.69.99,2.31.86,4.32-.34.55-.33,1.25-.27,1.74.15.49.42.66,1.1.42,1.69-1.03,2.62-1.09,4.79-.16,5.8.5.54,1.28.71,2.14.45,1.26-.38,2.76-1.75,3.2-4.45.13-.82.9-1.38,1.72-1.24.82.13,1.37.9,1.24,1.72-.66,4.07-3.17,6.2-5.3,6.84-.55.17-1.11.25-1.65.25Z"/>
    <path class="cls-1" d="m329.57,337.55c-.78,0-1.42-.59-1.49-1.36-.07-.77.46-1.47,1.22-1.61,7.9-1.46,13.57-5.18,16.86-11.07,8.35-14.96-.92-39.26-1.01-39.51-.27-.71.02-1.5.69-1.86.67-.36,1.5-.17,1.93.45.78,1.09,18.98,26.96,10.7,43.02-4.08,7.92-13.8,11.94-28.89,11.94Zm21.59-43.37c1.86,8.89,2.91,21.31-2.38,30.78-2.03,3.64-4.83,6.55-8.38,8.71,7.73-1.43,12.89-4.58,15.4-9.44,4.5-8.72-.18-21.35-4.63-30.05Z"/>
    <path class="cls-1" d="m351.31,334.18c-.34,0-.68-.11-.96-.35-.64-.53-.73-1.47-.2-2.11,10.08-12.15,32.97-21.38,41.85-24.63-4.94-1.38-15.51-1.42-30.41,14.12-.58.6-1.52.62-2.12.04-.6-.57-.62-1.52-.04-2.12,22.65-23.64,36.9-13.52,37.5-13.08.45.33.68.89.59,1.44s-.48,1.01-1.01,1.19c-.32.11-32.22,10.69-44.04,24.94-.3.36-.72.54-1.16.54Z"/>
    <path class="cls-1" d="m358.76,393.12c-7.32,0-22.52-1.1-31.38-9.56-4.98-4.76-7.14-9.84-6.42-15.11,1.57-11.42,16.19-19.34,16.81-19.68.64-.34,1.44-.17,1.89.4.45.57.42,1.38-.06,1.93-.2.22-4.85,5.62-3.25,13.54,1.81,8.98,11.18,17.8,27.1,25.5.61.29.95.96.82,1.63-.12.67-.68,1.16-1.35,1.22-.24.02-1.78.13-4.15.13Zm-24.56-38.42c-4.13,3.11-9.45,8.19-10.26,14.16-.58,4.26,1.27,8.48,5.52,12.53,7.3,6.97,19.89,8.45,27.3,8.68-13.73-7.55-21.58-15.91-23.36-24.9-.83-4.17-.19-7.75.8-10.46Z"/>
    <path class="cls-1" d="m323.62,424.14c-7.88,0-17.04-2.85-27.72-8.58-.68-.37-.97-1.19-.67-1.9.3-.71,1.09-1.08,1.83-.85,25.98,8.08,41.21-4.79,57.05-21.13.49-.51,1.27-.6,1.88-.23.6.38.85,1.12.61,1.79-5.85,15.96-13.39,25.49-23.04,29.16-3.06,1.16-6.36,1.75-9.92,1.75Zm-14.87-6c9.41,3.45,17.24,3.92,23.73,1.45,7.36-2.8,13.44-9.54,18.48-20.52-11.8,11.4-24.54,20.36-42.21,19.07Z"/>
    <path class="cls-1" d="m353.14,386.67c-.41,0-.82-.17-1.12-.5-7.6-8.44-10.82-16.4-9.56-23.66,1.58-9.11,9.62-13.55,9.96-13.74.59-.32,1.32-.21,1.79.27.47.48.56,1.22.22,1.8-.07.13-7.39,13.3.11,33.8.25.67-.02,1.43-.64,1.8-.24.14-.51.21-.77.21Zm-3.45-31.88c-1.82,1.94-3.67,4.7-4.28,8.27-.78,4.57.58,9.57,4.04,14.92-2.33-10.33-1.15-18.3.25-23.18Z"/>
  </g>
  <g>
    <circle class="accent" cx="141.63" cy="496.62" r="12.32"/>
    <circle class="accent" cx="138.3" cy="493.74" r="5.59"/>
    <circle class="accent" cx="206.22" cy="596.47" r="12.32"/>
    <circle class="accent" cx="202.89" cy="593.59" r="5.59"/>
    <path class="accent" d="m193.18,512.68c6.83-19.67-40.44-23.91-39.21.68-22.82,0-24.05,30.19-9.84,36.61-9.97,10.11,8.88,41.4,30.19,25.55,16.67,10.79,37.3,1.09,31.83-25.55,16.39-24.45,5.19-38.12-12.98-37.3Zm-16.8,39.21c-1.37,8.47-12.16,7.79-8.06-2.6-7.1,4.24-9.56-3.69-3.69-8.47-4.1-6.69,5.87-13.25,8.88-4.1,5.46-3.96,12.71-1.5,8.74,7.73,4.24,2.26,5.06,11.4-5.87,7.44Z"/>
    <ellipse class="accent" cx="154.93" cy="463.31" rx="4.47" ry="5.11"/>
    <ellipse class="accent" cx="198.31" cy="462.07" rx="4.47" ry="5.11"/>
    <path class="cls-1" d="m144.86,507.23c-4.91,0-9.67-2.61-12.17-7.22h0c-3.64-6.7-1.16-15.11,5.54-18.75,3.25-1.76,6.98-2.16,10.52-1.11,3.54,1.05,6.46,3.41,8.23,6.65,1.76,3.24,2.16,6.98,1.11,10.52-1.05,3.54-3.41,6.46-6.65,8.23-2.09,1.14-4.35,1.68-6.58,1.68Zm-9.53-8.65c2.85,5.24,9.44,7.19,14.68,4.34,5.24-2.85,7.19-9.44,4.34-14.68-1.38-2.54-3.67-4.39-6.44-5.21-2.77-.82-5.7-.51-8.24.87-5.24,2.85-7.19,9.44-4.34,14.68h0Z"/>
    <path class="cls-1" d="m141.52,497.62c-2.52,0-4.96-1.34-6.24-3.7-.91-1.66-1.11-3.58-.57-5.4.54-1.82,1.75-3.31,3.41-4.22,1.67-.9,3.58-1.11,5.4-.57,1.82.54,3.31,1.75,4.22,3.41,1.87,3.43.59,7.75-2.84,9.62-1.07.58-2.23.86-3.38.86Zm-.02-11.18c-.67,0-1.34.17-1.95.5-.96.52-1.66,1.39-1.97,2.43-.31,1.05-.19,2.15.33,3.11,1.08,1.98,3.57,2.72,5.55,1.64,1.98-1.08,2.72-3.57,1.64-5.55-.52-.96-1.39-1.66-2.43-1.97-.38-.11-.78-.17-1.17-.17Z"/>
    <path class="cls-1" d="m209.45,607.09c-1.32,0-2.64-.19-3.94-.57-3.54-1.05-6.46-3.41-8.23-6.65h0c-1.76-3.24-2.16-6.98-1.11-10.52s3.41-6.46,6.65-8.23c3.25-1.76,6.98-2.16,10.52-1.11,3.54,1.05,6.46,3.41,8.23,6.65,1.76,3.24,2.16,6.98,1.11,10.52-1.05,3.54-3.41,6.46-6.65,8.23-2.06,1.12-4.31,1.69-6.58,1.69Zm-9.53-8.66c1.38,2.54,3.67,4.39,6.44,5.21s5.7.51,8.24-.87c5.24-2.85,7.19-9.44,4.34-14.68-1.38-2.54-3.67-4.39-6.44-5.21-2.77-.82-5.7-.51-8.24.87-2.54,1.38-4.39,3.67-5.21,6.44s-.51,5.7.87,8.24h0Z"/>
    <path class="cls-1" d="m206.11,597.47c-.67,0-1.35-.1-2.02-.29-1.82-.54-3.31-1.75-4.22-3.41h0c-.91-1.66-1.11-3.58-.57-5.4.54-1.82,1.75-3.31,3.41-4.22,1.66-.9,3.58-1.11,5.4-.57,1.82.54,3.31,1.75,4.22,3.41.9,1.66,1.11,3.58.57,5.4-.54,1.82-1.75,3.31-3.41,4.22-1.05.57-2.21.86-3.38.86Zm-.02-11.19c-.67,0-1.34.17-1.95.5-.96.52-1.66,1.39-1.97,2.43-.31,1.05-.19,2.15.33,3.11h0c.52.96,1.39,1.66,2.43,1.97,1.05.31,2.15.19,3.11-.33.96-.52,1.66-1.39,1.97-2.43.31-1.05.19-2.15-.33-3.11-.52-.96-1.39-1.66-2.43-1.97-.38-.11-.78-.17-1.17-.17Z"/>
    <path class="cls-1" d="m165.52,578.23c-6.43,0-12.02-3.46-15.88-7.89-5.74-6.6-8.79-16.84-4.6-23.1-6.53-4.08-9.9-13.39-7.92-22.56,1.6-7.42,7.3-15.32,18.55-15.97.18-6.42,3.6-11.51,9.76-14.45,9.13-4.36,22.46-3.02,29.1,2.93,3.27,2.92,4.59,6.69,3.82,10.77,8.5.1,15.12,3.36,18.35,9.1,4.18,7.43,2.14,18.08-5.74,30.05,2.38,12.38-.61,22.44-8.25,27.66-7.02,4.79-16.56,4.53-25.11-.62-4.2,2.91-8.29,4.11-12.08,4.11Zm12.11-83.54c-3.84,0-7.7.73-10.91,2.27-3.87,1.85-8.41,5.63-8.04,13.13.02.41-.13.81-.41,1.11-.28.3-.68.47-1.09.47-8.89,0-15.29,5.1-17.13,13.65-1.85,8.59,1.55,17.23,7.91,20.1.45.2.77.61.86,1.09s-.06.98-.41,1.33c-4.14,4.2-2.54,13.61,3.49,20.54,2.62,3.01,12.14,12.11,24.74,2.75.5-.37,1.18-.4,1.71-.06,7.74,5.01,16.42,5.48,22.66,1.21,6.72-4.59,9.23-13.77,6.88-25.2-.08-.39,0-.8.22-1.14,7.5-11.19,9.62-20.93,5.96-27.42-2.91-5.17-9.33-7.91-17.63-7.54-.48.03-.97-.2-1.27-.6-.3-.4-.38-.92-.21-1.39,1.3-3.74.47-6.96-2.45-9.57-3.44-3.08-9.15-4.72-14.9-4.72Z"/>
    <path class="cls-1" d="m174.12,556.01c-1.37,0-2.64-.53-3.57-1.54-.8-.87-1.84-2.66-1.31-5.83-2.51.54-4.3-.42-5.26-1.79-1.62-2.31-1.24-6.37,1.99-9.58-.96-2.26-.79-4.69.51-6.69,1.38-2.14,3.77-3.32,6.09-3.02,1.25.16,3.38.89,4.86,3.77,3.04-1.54,6.35-1.52,8.49.19,1.12.9,3.39,3.53,1.38,9.17,2.21,1.87,3.22,5.18,2.15,7.6-.59,1.33-2.6,4.04-8.78,2.31-.99,2.99-3.08,4.61-4.89,5.16-.55.17-1.11.25-1.65.25Zm-2.6-11.43c.35,0,.69.12.97.36.49.42.66,1.1.42,1.69-1.03,2.62-1.09,4.79-.16,5.8.5.54,1.28.71,2.14.45,1.26-.38,2.76-1.75,3.2-4.45.07-.44.33-.83.72-1.05.39-.23.85-.27,1.27-.12,3.46,1.25,5.99,1.18,6.6-.2.61-1.36-.39-3.67-1.94-4.5-.69-.37-.98-1.2-.67-1.91,1.37-3.2,1.36-5.68-.04-6.8-1.44-1.16-4.15-.79-6.44.87-.39.28-.89.36-1.34.21-.46-.15-.81-.5-.96-.96-.67-2.05-1.78-3.28-3.11-3.45-1.16-.15-2.44.52-3.18,1.68-.89,1.37-.84,3.05.12,4.62.39.64.25,1.47-.33,1.95-2.82,2.3-3.17,5.17-2.34,6.35.69.99,2.3.86,4.32-.34.24-.14.5-.21.77-.21Z"/>
    <path class="cls-1" d="m187.01,614.72c-22.16,0-46.03-3.6-50.67-7.51-.15-.12-.27-.27-.36-.44-5.42-10.19-6.29-27.59-7.86-59.19l-.21-4.32c-1.02-20.32-.02-31.62,1.04-43.58.69-7.81,1.4-15.89,1.59-26.97.58-34.24,17.06-54.98,44.08-55.48h0c.39,0,.78-.01,1.16-.01,36.35,0,50.49,31.73,51.58,61.67.79,21.75,2.67,113.08-3.45,129.03-.11.3-.32.55-.59.73-6.85,4.4-21.18,6.07-36.31,6.07Zm-48.52-9.63c7.78,5.71,66.33,11.11,82.79,1.3,5.32-15.63,4.14-98.57,3.08-127.38-.51-13.87-5.51-58.78-48.54-58.78-.38,0-.77,0-1.15.01h0c-25.2.46-40.58,20.1-41.13,52.53-.19,11.19-.91,19.32-1.6,27.19-1.05,11.86-2.04,23.05-1.03,43.16l.21,4.32c1.48,29.86,2.39,47.99,7.37,57.66Z"/>
    <path class="cls-1" d="m177.35,482.57c-8.46,0-16.03-2.25-21.52-6.53-5.43-4.23-8.58-10.17-9.11-17.19-.9-11.84,1.66-21.52,7.4-28,4.97-5.6,12.02-8.64,20.96-9.04h0c14.68-.64,25.66,5.32,32.6,17.73,3.92,7,3.78,17.12-.34,25.77-4.22,8.87-11.93,14.87-21.15,16.47-3.02.52-5.98.78-8.84.78Zm-2.14-57.75c-8.09.36-14.43,3.06-18.85,8.03-5.19,5.85-7.49,14.77-6.65,25.78.47,6.15,3.22,11.36,7.96,15.05,6.68,5.2,16.89,7.08,28.01,5.16,11.29-1.96,16.72-10.12,18.95-14.8,3.72-7.8,3.88-16.83.43-23.01-6.35-11.34-16.37-16.8-29.85-16.2h0Zm-.07-1.5h0,0Z"/>
    <path class="cls-1" d="m162.21,451.33c-.25,0-.51-.06-.75-.2-.72-.41-.97-1.33-.56-2.05,1.99-3.48,5.24-5.7,8.46-5.81,2.03-.07,4.94.66,7.45,4.47.46.69.27,1.62-.42,2.08-.69.46-1.62.27-2.08-.42-1.41-2.13-3.04-3.19-4.85-3.12-2.16.07-4.5,1.76-5.95,4.3-.28.48-.78.75-1.3.75Z"/>
    <path class="cls-1" d="m169.21,451.92c-2.34,0-4.57-1.74-5.81-4.61-.33-.76.02-1.64.78-1.97.76-.33,1.64.02,1.97.78.8,1.86,2.1,2.95,3.3,2.78,1.09-.16,1.9-1.37,2.12-3.17.1-.82.86-1.4,1.67-1.31.82.1,1.41.84,1.31,1.67-.46,3.83-2.71,5.5-4.66,5.79-.23.03-.46.05-.68.05Z"/>
    <path class="cls-1" d="m169.28,449.05c-1.38,0-2.95-.86-3.6-3.39-.21-.8.28-1.62,1.08-1.83.8-.21,1.62.28,1.83,1.08.16.61.46,1.2.77,1.13.25-.06.48-.34.45-.49-.15-.81.39-1.6,1.21-1.74.82-.15,1.6.39,1.74,1.21.32,1.78-.92,3.55-2.76,3.96-.23.05-.47.08-.71.08Z"/>
    <path class="cls-1" d="m163.57,444.27c-.22,0-.45-.05-.66-.15-.74-.36-1.05-1.26-.69-2.01,1.03-2.1,4.07-5.54,7.82-5.78,1.8-.12,4.44.48,6.78,4,.46.69.27,1.62-.42,2.08-.69.46-1.62.27-2.08-.42-1.24-1.86-2.61-2.76-4.08-2.66-2.23.15-4.52,2.48-5.32,4.11-.26.53-.79.84-1.35.84Z"/>
    <path class="cls-1" d="m197.38,451.33c-.52,0-1.03-.27-1.3-.75-1.46-2.54-3.79-4.23-5.95-4.3-1.84-.06-3.45.99-4.85,3.12-.46.69-1.39.88-2.08.42-.69-.46-.88-1.39-.42-2.08,2.52-3.81,5.45-4.53,7.45-4.47,3.23.1,6.47,2.33,8.46,5.81.41.72.16,1.64-.56,2.05-.23.13-.49.2-.74.2Z"/>
    <path class="cls-1" d="m190.38,451.92c-.23,0-.46-.02-.68-.05-1.96-.28-4.21-1.95-4.66-5.79-.1-.82.49-1.57,1.31-1.67.81-.09,1.57.49,1.67,1.31.21,1.8,1.02,3.02,2.12,3.17,1.2.18,2.5-.92,3.3-2.78.33-.76,1.21-1.11,1.97-.78.76.33,1.11,1.21.78,1.97-1.24,2.87-3.46,4.61-5.81,4.61Z"/>
    <path class="cls-1" d="m190.31,449.05c-.25,0-.49-.03-.71-.08-1.84-.4-3.08-2.18-2.76-3.96.15-.81.92-1.36,1.74-1.21.81.15,1.36.93,1.21,1.74-.03.16.2.44.45.49.32.07.61-.52.77-1.13.21-.8,1.03-1.28,1.83-1.08.8.21,1.29,1.02,1.08,1.83-.65,2.53-2.22,3.39-3.6,3.39Z"/>
    <path class="cls-1" d="m196.02,444.27c-.55,0-1.09-.31-1.35-.84-.8-1.63-3.09-3.96-5.32-4.11-1.46-.1-2.84.8-4.08,2.66-.46.69-1.39.88-2.08.42-.69-.46-.88-1.39-.42-2.08,2.33-3.52,4.99-4.11,6.78-4,3.75.25,6.78,3.68,7.82,5.78.37.74.06,1.64-.69,2.01-.21.1-.44.15-.66.15Z"/>
    <path class="cls-1" d="m175.19,461.19c-1.88,0-3.28-1.03-3.87-1.73-.53-.63-.45-1.58.18-2.11.63-.53,1.58-.45,2.11.18.06.07.77.82,1.95.62.45-.08.9-.38,1.37-.7.86-.59,2.88-1.98,4.74.43.51.66.38,1.6-.27,2.1-.66.51-1.6.39-2.1-.27-.05-.06-.09-.11-.12-.14-.16.09-.38.24-.55.35-.61.42-1.46,1-2.56,1.19-.31.05-.6.08-.89.08Z"/>
    <path class="cls-1" d="m180.49,464.79c-.06,0-.13,0-.19-.01-2.22-.28-5.97-1.69-5.97-5.14,0-.83.67-1.5,1.5-1.5s1.5.67,1.5,1.5c0,1.64,3.32,2.16,3.36,2.16.82.11,1.4.86,1.29,1.68-.1.75-.74,1.3-1.48,1.3Z"/>
    <path class="cls-1" d="m185.79,461.19c-.29,0-.58-.02-.89-.08-1.1-.19-1.94-.77-2.56-1.19-.16-.11-.39-.27-.55-.36-.03.04-.07.08-.12.14-.51.66-1.45.78-2.1.27-.66-.51-.78-1.45-.27-2.1,1.85-2.4,3.87-1.02,4.74-.43.47.32.91.63,1.37.7,1.17.2,1.89-.56,1.97-.64.55-.61,1.49-.68,2.11-.14.62.54.7,1.46.17,2.09-.58.69-1.99,1.73-3.87,1.73Z"/>
    <path class="cls-1" d="m180.49,464.79c-.74,0-1.39-.55-1.49-1.31-.11-.82.47-1.57,1.3-1.68.03,0,3.35-.52,3.35-2.16,0-.83.67-1.5,1.5-1.5s1.5.67,1.5,1.5c0,3.45-3.75,4.85-5.97,5.14-.07,0-.13.01-.19.01Z"/>
    <path class="cls-1" d="m168.93,431.82c-.79,0-1.45-.61-1.5-1.4-.05-.83.57-1.54,1.4-1.59.07,0,7.08-.54,7.44-5.38.06-.83.8-1.45,1.61-1.38.83.06,1.45.78,1.38,1.61-.45,5.95-6.9,7.93-10.24,8.15-.03,0-.07,0-.1,0Z"/>
    <path class="cls-1" d="m162.91,438.42c-.46,0-.74-.02-.8-.02-.83-.05-1.46-.76-1.41-1.59.05-.83.78-1.45,1.59-1.41.06,0,5.86.31,8.59-2.34.96-.93,1.4-2.13,1.35-3.65-.03-.83.62-1.52,1.45-1.55.86-.04,1.52.62,1.55,1.45.08,2.39-.69,4.37-2.26,5.9-2.99,2.9-8.09,3.2-10.05,3.2Z"/>
    <path class="cls-1" d="m151.16,449.74c-.59,0-1.19-.03-1.81-.08-.83-.07-1.44-.8-1.37-1.62.07-.83.79-1.45,1.62-1.37,11.15.94,13.38-8.18,13.71-10.02.15-.81.93-1.36,1.74-1.21.82.15,1.36.93,1.21,1.74-1.07,5.95-5.66,12.55-15.1,12.55Z"/>
    <path class="cls-1" d="m186.14,432.82c-3.52,0-8.61-1.45-10.19-7.16-.22-.8.25-1.62,1.05-1.85.8-.22,1.62.25,1.84,1.05,1.61,5.81,8.27,4.91,8.55,4.87.81-.12,1.58.44,1.7,1.26.12.82-.44,1.58-1.25,1.7-.5.08-1.08.12-1.7.12Z"/>
    <path class="cls-1" d="m193.36,437.43c-2.61,0-8.36-.58-11.22-5.36-.43-.71-.19-1.63.52-2.06.71-.42,1.63-.2,2.06.52,2.71,4.52,9.6,3.87,9.66,3.86.82-.09,1.56.51,1.65,1.34.09.82-.51,1.56-1.33,1.65-.08,0-.57.06-1.33.06Z"/>
    <path class="cls-1" d="m207.58,445.22s-.1,0-.14,0c-.44-.04-10.9-1.11-15.49-8.49-.44-.7-.22-1.63.48-2.07.7-.44,1.63-.22,2.07.48,3.81,6.13,13.13,7.08,13.22,7.09.82.08,1.43.81,1.35,1.63-.07.78-.73,1.36-1.49,1.36Z"/>
    <path class="cls-1" d="m158.14,466.7c-3.29,0-5.97-2.96-5.97-6.61s2.68-6.61,5.97-6.61,5.97,2.96,5.97,6.61-2.68,6.61-5.97,6.61Zm0-10.21c-1.64,0-2.97,1.62-2.97,3.61s1.33,3.61,2.97,3.61,2.97-1.62,2.97-3.61-1.33-3.61-2.97-3.61Z"/>
    <path class="cls-1" d="m201.52,465.46c-3.29,0-5.97-2.96-5.97-6.61s2.68-6.61,5.97-6.61,5.97,2.96,5.97,6.61-2.68,6.61-5.97,6.61Zm0-10.21c-1.64,0-2.97,1.62-2.97,3.61s1.33,3.61,2.97,3.61,2.97-1.62,2.97-3.61-1.33-3.61-2.97-3.61Z"/>
    <path class="cls-1" d="m178.82,544.49c-30.11,0-49.83-5.99-50.12-6.08-.79-.25-1.23-1.09-.99-1.88.25-.79,1.08-1.23,1.88-.99.41.13,42.06,12.75,96.83.84.81-.18,1.61.34,1.78,1.15.18.81-.34,1.61-1.15,1.78-17.74,3.86-34.13,5.17-48.24,5.17Z"/>
    <path class="cls-1" d="m199.05,511.4s-.09,0-.14,0c-.83-.08-1.43-.81-1.35-1.63,1.74-18.73,25.18-37.35,26.17-38.14.65-.51,1.59-.4,2.11.25.51.65.4,1.59-.25,2.11-.23.18-23.42,18.61-25.04,36.06-.07.78-.73,1.36-1.49,1.36Z"/>
    <path class="cls-1" d="m203.01,512.09c-.23,0-.45-.05-.67-.16-.74-.37-1.04-1.27-.67-2.01,8.19-16.39,24.06-15.89,24.73-15.86.83.04,1.47.74,1.43,1.56-.04.83-.75,1.46-1.57,1.43-.58-.02-14.61-.41-21.91,14.2-.26.53-.79.83-1.34.83Z"/>
    <path class="cls-1" d="m141.77,609.63c-.74,0-1.38-.54-1.48-1.29-.12-.82.46-1.58,1.28-1.7,8.73-1.23,18.56-7.35,24.47-15.22,3.75-4.99,5.47-10.14,4.85-14.5-.12-.82.45-1.58,1.27-1.7.81-.12,1.58.45,1.7,1.27.74,5.15-1.19,11.09-5.42,16.72-6.36,8.47-16.99,15.05-26.45,16.39-.07,0-.14.01-.21.01Z"/>
    <path class="cls-1" d="m162.58,613.44c-.55,0-1.08-.3-1.34-.82-.38-.74-.08-1.64.66-2.02,17.54-8.88,17.17-23.5,14.17-37.97-.17-.81.35-1.6,1.16-1.77.81-.17,1.61.35,1.77,1.16,2.03,9.78,6.25,30.12-15.75,41.26-.22.11-.45.16-.68.16Z"/>
    <path class="cls-1" d="m143.07,572.64c-9.85,0-13.64-6.48-13.83-6.82-.41-.72-.15-1.64.57-2.04.72-.41,1.64-.15,2.04.57.19.33,5,8.3,18.88,4.02.79-.25,1.63.2,1.88.99.24.79-.2,1.63-.99,1.88-3.25,1-6.09,1.41-8.55,1.41Z"/>
  </g>
  <g>
    <path class="accent" d="m377.52,590.25c5.51-15.86-32.59-19.27-31.6.55-18.39,0-19.38,24.34-7.93,29.51-8.04,8.15,7.16,33.37,24.34,20.59,13.43,8.7,30.06.88,25.66-20.59,13.21-19.71,4.18-30.72-10.46-30.06Zm-13.54,31.6c-1.1,6.83-9.8,6.28-6.5-2.09-5.73,3.41-7.71-2.97-2.97-6.83-3.3-5.4,4.73-10.68,7.16-3.3,4.4-3.19,10.24-1.21,7.05,6.23,3.41,1.83,4.07,9.19-4.74,5.99Z"/>
    <circle class="accent" cx="376.18" cy="553.21" r="3.85"/>
    <circle class="accent" cx="339.68" cy="549.87" r="3.85"/>
    <path class="cls-1" d="m385.34,575.42c-.67,0-1.35-.1-2.02-.29-1.82-.54-3.31-1.75-4.22-3.41-1.87-3.43-.59-7.75,2.84-9.62,3.44-1.87,7.75-.59,9.62,2.84,1.87,3.44.59,7.75-2.84,9.62-1.05.57-2.21.86-3.38.86Zm-.02-11.18c-.66,0-1.33.16-1.95.5-1.98,1.08-2.72,3.57-1.64,5.55h0c1.08,1.98,3.56,2.72,5.55,1.64,1.98-1.08,2.72-3.57,1.64-5.55-.74-1.36-2.15-2.14-3.6-2.14Z"/>
    <path class="cls-1" d="m369.43,658.34c-2.52,0-4.96-1.34-6.24-3.7-1.87-3.43-.59-7.75,2.84-9.62,1.66-.9,3.58-1.11,5.4-.57,1.82.54,3.31,1.75,4.22,3.41.91,1.66,1.11,3.58.57,5.4-.54,1.82-1.75,3.31-3.41,4.22-1.07.58-2.23.86-3.38.86Zm-.02-11.18c-.67,0-1.34.17-1.95.5-1.98,1.08-2.72,3.57-1.64,5.55,1.08,1.98,3.57,2.72,5.55,1.64.96-.52,1.66-1.39,1.97-2.43.31-1.05.19-2.15-.33-3.11-.52-.96-1.39-1.66-2.43-1.97-.38-.11-.78-.17-1.17-.17Z"/>
    <path class="cls-1" d="m355.84,642.76c-5.27,0-9.85-2.83-13.01-6.47-4.63-5.32-7.1-13.54-3.89-18.73-5.2-3.43-7.86-10.94-6.27-18.34,1.3-6.03,5.9-12.44,14.95-13.08.23-5.16,3.04-9.26,8.02-11.64,7.45-3.56,18.34-2.46,23.78,2.4,2.62,2.35,3.74,5.35,3.23,8.61,6.79.17,12.09,2.83,14.7,7.48,3.41,6.06,1.79,14.72-4.57,24.42,1.9,10.05-.56,18.22-6.8,22.47-5.71,3.9-13.45,3.73-20.39-.4-3.39,2.31-6.69,3.26-9.75,3.26Zm9.77-67.35c-3.05,0-6.12.58-8.68,1.8-3.04,1.45-6.6,4.42-6.31,10.3.02.41-.13.81-.41,1.11-.28.3-.68.47-1.09.47-7.02,0-12.07,4.03-13.52,10.77-1.26,5.85.72,13.39,6.21,15.88.45.2.77.61.86,1.09s-.06.98-.41,1.33c-3.23,3.28-1.94,10.68,2.83,16.16,2.07,2.38,9.6,9.57,19.54,2.17.5-.37,1.18-.4,1.71-.06,6.14,3.97,13.01,4.35,17.94.98,5.31-3.63,7.29-10.92,5.43-20.01-.08-.39,0-.8.22-1.14,5.98-8.92,7.68-16.66,4.79-21.8-2.29-4.06-7.37-6.23-13.94-5.93-.48.02-.97-.2-1.27-.6s-.38-.92-.21-1.39c1-2.89.37-5.38-1.89-7.4-2.72-2.44-7.25-3.74-11.81-3.74Z"/>
    <path class="cls-1" d="m362.78,624.84c-1.19,0-2.28-.46-3.09-1.34-.65-.71-1.48-2.11-1.19-4.53-1.95.29-3.35-.52-4.13-1.63-1.35-1.93-1.08-5.28,1.5-7.96-.73-1.86-.56-3.84.51-5.49,1.18-1.81,3.21-2.82,5.19-2.57,1.03.13,2.76.71,4,2.94,2.48-1.17,5.14-1.09,6.9.31.94.75,2.83,2.94,1.26,7.53,1.76,1.61,2.55,4.33,1.66,6.33-.5,1.12-2.17,3.4-7.15,2.1-.86,2.35-2.56,3.64-4.04,4.08-.48.14-.95.21-1.41.21Zm-2.09-9.79c.35,0,.69.12.97.36.49.42.66,1.1.42,1.69-.93,2.36-.71,3.8-.18,4.37.46.5,1.15.37,1.43.28.93-.28,2.04-1.31,2.38-3.35.07-.44.33-.83.72-1.05s.85-.27,1.27-.12c2.59.94,4.54.94,4.96,0,.39-.88-.24-2.61-1.44-3.25-.69-.37-.98-1.2-.67-1.91,1.04-2.41,1.06-4.33.05-5.14-1.05-.84-3.13-.53-4.84.71-.39.28-.89.36-1.34.21-.46-.15-.81-.5-.96-.96-.51-1.54-1.31-2.46-2.27-2.58-.83-.11-1.74.39-2.28,1.22-.65,1-.62,2.25.1,3.41.39.64.25,1.47-.33,1.95-2.11,1.72-2.42,3.89-1.83,4.73.54.77,1.95.33,3.09-.35.24-.14.5-.21.77-.21Z"/>
    <path class="cls-1" d="m369.57,662.85c-16.75,0-34.69-2.83-38.3-5.87-.15-.12-.27-.27-.36-.44-4.12-7.75-4.77-20.88-5.96-44.73l-.16-3.27c-.77-15.33-.01-23.85.78-32.88.52-5.88,1.06-11.96,1.2-20.29.44-26.01,12.99-41.77,33.56-42.15h0c28.3-.54,39.27,23.84,40.11,46.8.6,16.4,2.01,85.27-2.62,97.33-.11.3-.32.55-.59.73-5.38,3.45-16.24,4.76-27.65,4.76Zm-36.16-8c6.01,4.24,49.34,8.21,61.76.97,3.94-12.01,3.05-74.07,2.26-95.68-.38-10.36-4.11-43.92-36.19-43.92-.29,0-.57,0-.86,0h0c-27.8.51-30.46,30.14-30.62,39.2-.14,8.44-.69,14.57-1.21,20.5-.79,8.92-1.53,17.34-.78,32.46l.16,3.27c1.11,22.35,1.79,35.96,5.47,43.19Zm26.94-140.12h0,0Z"/>
    <path class="cls-1" d="m363.75,564.9c-2.47,0-5.04-.2-7.67-.6-8.68-1.32-15.65-6.45-19.11-14.09-2.87-6.34-2.68-13.37.5-18.35,6.02-9.43,15.49-13.95,28.18-13.47h0c8.21.32,14.81,3.04,19.08,7.87,4.35,4.93,6.26,12,5.53,20.44-.43,4.93-2.78,9.22-6.81,12.39-4.83,3.8-11.77,5.81-19.68,5.81Zm.09-43.54c-10.69,0-18.71,4.07-23.86,12.12-2.64,4.13-2.75,10.07-.29,15.49,3.04,6.69,9.17,11.2,16.83,12.36,10.22,1.55,19.36-.13,25.05-4.61,3.41-2.68,5.32-6.14,5.68-10.29.66-7.6-1-13.89-4.79-18.19-3.76-4.27-9.46-6.57-16.94-6.86h0c-.57-.02-1.13-.03-1.68-.03Z"/>
    <path class="cls-1" d="m376.71,541.36c-.49,0-.97-.24-1.26-.68-1.2-1.84-3.15-3.07-4.96-3.13-1.54-.04-2.91.71-4.08,2.26-.5.66-1.44.79-2.1.29-.66-.5-.79-1.44-.29-2.1,2.24-2.96,4.81-3.52,6.57-3.45,2.8.09,5.62,1.81,7.37,4.48.45.69.26,1.62-.43,2.08-.25.17-.54.24-.82.24Z"/>
    <path class="cls-1" d="m370.7,541.81c-.25,0-.5-.02-.76-.06-2.16-.35-3.71-2.13-4.05-4.64-.11-.82.46-1.58,1.29-1.69.82-.11,1.58.46,1.69,1.28.16,1.17.74,1.95,1.56,2.08.76.12,1.93-.31,2.73-1.93.37-.74,1.27-1.05,2.01-.68.74.37,1.05,1.26.68,2.01-1.12,2.27-3.08,3.63-5.14,3.63Z"/>
    <path class="cls-1" d="m370.64,539.64c-.27,0-.54-.03-.81-.1-1.65-.41-2.7-1.91-2.38-3.41.17-.81.97-1.33,1.77-1.16.75.16,1.25.85,1.19,1.6.06.05.16.09.25.08.1-.02.27-.24.39-.63.23-.79,1.07-1.25,1.86-1.02.79.23,1.25,1.07,1.02,1.86-.58,1.98-1.96,2.79-3.28,2.79Z"/>
    <path class="cls-1" d="m375.54,536.04c-.53,0-1.04-.28-1.31-.77-.65-1.16-2.53-2.83-4.39-2.96-1.26-.08-2.39.54-3.43,1.91-.5.66-1.44.79-2.1.29-.66-.5-.79-1.44-.29-2.1,2.09-2.76,4.44-3.2,6.03-3.09,3.25.23,5.89,2.87,6.79,4.48.41.72.15,1.64-.58,2.04-.23.13-.48.19-.73.19Z"/>
    <path class="cls-1" d="m346.45,541.36c-.28,0-.57-.08-.82-.24-.69-.45-.89-1.38-.43-2.08,1.75-2.67,4.57-4.39,7.37-4.48,1.78-.07,4.34.49,6.57,3.45.5.66.37,1.6-.29,2.1-.66.5-1.6.37-2.1-.29-1.17-1.55-2.53-2.31-4.08-2.26-1.81.06-3.76,1.29-4.96,3.13-.29.44-.77.68-1.26.68Z"/>
    <path class="cls-1" d="m352.47,541.81c-2.07,0-4.03-1.36-5.14-3.63-.37-.74-.06-1.64.68-2.01s1.64-.06,2.01.68c.8,1.62,1.97,2.06,2.73,1.93.82-.13,1.4-.91,1.56-2.08.11-.82.87-1.39,1.69-1.28.82.11,1.4.87,1.29,1.69-.34,2.51-1.89,4.29-4.05,4.64-.25.04-.51.06-.76.06Z"/>
    <path class="cls-1" d="m352.53,539.64c-1.33,0-2.7-.81-3.28-2.79-.23-.79.22-1.63,1.02-1.86.79-.23,1.63.22,1.86,1.02.12.39.28.61.39.63.09.02.18-.03.25-.08-.07-.75.44-1.44,1.19-1.6.81-.17,1.61.35,1.77,1.16.31,1.5-.74,3-2.38,3.41-.26.07-.53.1-.81.1Z"/>
    <path class="cls-1" d="m347.62,536.04c-.25,0-.5-.06-.73-.19-.72-.4-.98-1.32-.58-2.04.9-1.61,3.55-4.26,6.79-4.48,1.61-.11,3.94.34,6.03,3.09.5.66.37,1.6-.29,2.1-.66.5-1.6.37-2.1-.29-1.04-1.37-2.16-2-3.43-1.91-1.85.13-3.74,1.8-4.39,2.96-.27.49-.78.77-1.31.77Z"/>
    <path class="cls-1" d="m365.56,548.79c-.25,0-.51-.02-.79-.06-.96-.14-1.7-.59-2.24-.91-.13-.08-.29-.17-.41-.24,0,0-.01.01-.02.02-.55.62-1.5.68-2.12.13-.62-.55-.68-1.5-.13-2.12,1.68-1.9,3.4-.87,4.22-.37.39.24.76.46,1.14.51.98.14,1.58-.41,1.6-.43.59-.56,1.54-.56,2.11.02.58.58.6,1.5.03,2.08-.15.15-1.37,1.36-3.4,1.36Z"/>
    <path class="cls-1" d="m360.98,551.5c-.75,0-1.4-.57-1.49-1.33-.09-.82.5-1.57,1.32-1.66,1.21-.14,2.68-.74,2.68-1.26,0-.83.67-1.5,1.5-1.5s1.5.67,1.5,1.5c0,2.87-3.36,4.02-5.34,4.24-.06,0-.11,0-.17,0Z"/>
    <path class="cls-1" d="m356.41,548.79c-2.03,0-3.25-1.21-3.4-1.36-.57-.6-.55-1.55.04-2.12.6-.57,1.54-.56,2.12.04,0,0,.6.56,1.58.41.37-.06.75-.28,1.14-.51.83-.5,2.54-1.53,4.22.37.55.62.49,1.57-.13,2.12-.62.55-1.57.49-2.12-.13,0,0-.01-.02-.02-.02-.12.06-.28.16-.41.24-.54.32-1.27.76-2.24.91-.27.04-.54.06-.79.06Z"/>
    <path class="cls-1" d="m360.98,551.5c-.06,0-.11,0-.17,0-1.98-.22-5.34-1.37-5.34-4.24,0-.83.67-1.5,1.5-1.5s1.5.67,1.5,1.5c0,.52,1.47,1.12,2.68,1.26.82.1,1.41.84,1.32,1.66-.09.76-.74,1.33-1.49,1.33Z"/>
    <path class="cls-1" d="m370.93,526.66s-.06,0-.08,0c-.35-.02-8.5-.55-9.01-6.46-.07-.83.54-1.55,1.37-1.62.81-.07,1.55.54,1.62,1.37.29,3.3,6.14,3.72,6.19,3.72.83.05,1.46.75,1.41,1.58-.05.8-.71,1.42-1.5,1.42Z"/>
    <path class="cls-1" d="m376.01,531.64c-1.88,0-6.43-.27-8.97-2.77-1.2-1.18-1.8-2.73-1.74-4.48.03-.83.71-1.48,1.55-1.44.83.03,1.47.73,1.44,1.55-.03.93.23,1.63.84,2.23,1.82,1.79,6.03,1.98,7.5,1.9.87-.04,1.53.59,1.58,1.42.04.83-.59,1.53-1.42,1.58-.12,0-.39.02-.79.02Z"/>
    <path class="cls-1" d="m386.22,540.16c-8.23,0-12.25-5.12-13.19-9.72-.17-.81.36-1.6,1.17-1.77.8-.17,1.6.35,1.77,1.17.27,1.34,2.11,7.98,11.59,7.28.83-.05,1.55.56,1.61,1.39s-.56,1.55-1.39,1.61c-.53.04-1.05.06-1.56.06Z"/>
    <path class="cls-1" d="m356.1,527.42c-.53,0-1.02-.03-1.45-.09-.82-.11-1.4-.86-1.29-1.69.11-.82.87-1.4,1.69-1.29.23.03,5.85.7,7.16-3.45.25-.79,1.1-1.23,1.88-.98.79.25,1.23,1.09.98,1.88-1.41,4.47-5.89,5.61-8.97,5.61Z"/>
    <path class="cls-1" d="m349.9,530.89c-.64,0-1.06-.04-1.13-.04-.82-.08-1.43-.81-1.35-1.63.08-.83.8-1.43,1.63-1.35.05,0,5.92.49,8.18-2.81.47-.68,1.4-.86,2.08-.39.68.47.86,1.4.39,2.08-2.53,3.7-7.55,4.14-9.8,4.14Z"/>
    <path class="cls-1" d="m337.68,536.76c-.77,0-1.43-.59-1.49-1.37-.07-.82.54-1.55,1.37-1.62.08,0,8.06-.73,11.25-5.24.48-.68,1.42-.83,2.09-.36.68.48.83,1.42.36,2.09-4.01,5.65-13.07,6.46-13.45,6.5-.04,0-.08,0-.13,0Z"/>
    <path class="cls-1" d="m379.39,555.34c-2.95,0-5.35-2.4-5.35-5.35s2.4-5.35,5.35-5.35,5.35,2.4,5.35,5.35-2.4,5.35-5.35,5.35Zm0-7.69c-1.29,0-2.35,1.05-2.35,2.35s1.05,2.35,2.35,2.35,2.35-1.05,2.35-2.35-1.05-2.35-2.35-2.35Z"/>
    <path class="cls-1" d="m342.89,552c-2.95,0-5.35-2.4-5.35-5.35s2.4-5.35,5.35-5.35,5.35,2.4,5.35,5.35-2.4,5.35-5.35,5.35Zm0-7.69c-1.29,0-2.35,1.05-2.35,2.35s1.05,2.35,2.35,2.35,2.35-1.05,2.35-2.35-1.05-2.35-2.35-2.35Z"/>
    <path class="cls-1" d="m363.51,609.82c-22.74,0-37.65-4.53-37.87-4.6-.79-.25-1.23-1.09-.99-1.88.25-.79,1.09-1.23,1.88-.99.31.1,31.6,9.57,72.75.62.8-.18,1.61.34,1.78,1.15.18.81-.34,1.61-1.15,1.78-13.38,2.91-25.76,3.91-36.41,3.91Z"/>
    <path class="cls-1" d="m342.44,657.39c-2.9,0-6.14-.24-9.78-.75-.82-.11-1.39-.87-1.28-1.69.11-.82.88-1.4,1.69-1.28,24.66,3.44,28.93-6.27,31-15.64.18-.81.98-1.32,1.79-1.14.81.18,1.32.98,1.14,1.79-2.18,9.85-6.86,18.71-24.56,18.71Z"/>
    <path class="cls-1" d="m383.06,588.54c-.2,0-.4-.04-.6-.12-.76-.33-1.11-1.21-.78-1.97,5.73-13.22,17.14-13.49,17.62-13.5.88,0,1.51.66,1.52,1.48,0,.83-.66,1.51-1.48,1.52-.4,0-9.97.31-14.9,11.69-.25.57-.8.9-1.38.9Z"/>
  </g>
  <g>
    <path class="accent" d="m477.93,470.41c2.03-5.85-12.02-7.1-11.65.2-6.78,0-7.14,8.97-2.92,10.88-2.96,3,2.64,12.3,8.97,7.59,4.95,3.21,11.08.32,9.46-7.59,4.87-7.27,1.54-11.33-3.86-11.08Z"/>
    <path class="accent" d="m450.37,519.36c1.84,1.65,4.5,2.31,7.3.22,4.95,3.21,11.08.32,9.46-7.59,4.87-7.27,1.54-11.33-3.86-11.08,2.03-5.85-12.02-7.1-11.65.2-.92,0-1.72.16-2.41.45"/>
    <path class="accent" d="m496.01,500.56c-.95-.39-2.09-.57-3.35-.51,2.03-5.85-12.02-7.1-11.65.2-6.78,0-7.14,8.97-2.92,10.88-2.96,3,2.64,12.3,8.97,7.59,3.27,2.12,7.05,1.58,8.78-1.3"/>
    <circle class="accent" cx="482.22" cy="451.84" r="2.52"/>
    <circle class="accent" cx="457.72" cy="451.23" r="2.52"/>
    <path class="cls-1" d="m471.93,488.67c-1.99,0-3.93-.91-5.48-2.7-1.77-2.04-2.74-5-1.91-7.25-1.79-1.62-2.65-4.45-2.05-7.23.64-2.98,2.73-4.98,5.58-5.47.33-1.87,1.52-3.4,3.4-4.3,3.11-1.49,7.51-1.02,9.8,1.04.93.83,1.45,1.87,1.54,3,2.39.28,4.26,1.39,5.27,3.17.82,1.46,1.68,4.62-1.51,9.67.64,3.92-.42,7.13-2.97,8.87-2.27,1.55-5.27,1.6-8.02.17-1.19.69-2.43,1.04-3.65,1.04Zm3.62-24.8c-.99,0-1.98.18-2.78.56-1.27.61-1.86,1.55-1.79,2.9.02.41-.13.81-.41,1.11-.28.3-.68.47-1.09.47-3.04,0-3.85,2.25-4.06,3.22-.44,2.04.33,4.15,1.75,4.79.45.2.77.61.86,1.09.09.48-.06.98-.41,1.33-.73.74-.42,2.94,1.08,4.67.81.93,3,2.84,5.92.66.5-.37,1.18-.4,1.71-.06,1.93,1.25,4.07,1.4,5.57.37,1.63-1.11,2.21-3.45,1.61-6.4-.08-.39,0-.8.22-1.14,1.97-2.93,2.6-5.5,1.73-7.04-.66-1.18-2.21-1.8-4.27-1.7-.5.03-.97-.2-1.27-.6-.3-.4-.38-.92-.21-1.39.25-.71.12-1.22-.43-1.71-.82-.73-2.27-1.13-3.73-1.13Z"/>
    <path class="cls-1" d="m457.28,519.19c-1.65,0-3.27-.64-4.7-1.92-.62-.55-.67-1.5-.12-2.12.55-.62,1.5-.67,2.12-.12,1.16,1.04,3.03,1.9,5.41.14.5-.37,1.18-.4,1.71-.06,1.94,1.25,4.07,1.4,5.57.37,1.63-1.11,2.21-3.45,1.61-6.4-.08-.39,0-.8.22-1.14,1.97-2.93,2.6-5.5,1.73-7.04-.66-1.18-2.21-1.8-4.27-1.7-.48.02-.97-.2-1.27-.6-.3-.4-.38-.92-.21-1.39.25-.71.12-1.22-.43-1.71-1.38-1.23-4.54-1.51-6.51-.56-1.27.61-1.86,1.55-1.79,2.9.02.41-.13.81-.41,1.11-.28.3-.68.47-1.09.47-.68,0-1.3.11-1.83.34-.76.32-1.64-.04-1.96-.8-.32-.76.04-1.64.8-1.96.5-.21,1.03-.36,1.58-.46.33-1.87,1.53-3.4,3.4-4.29,3.11-1.48,7.51-1.02,9.8,1.04.93.83,1.45,1.87,1.54,3,2.39.28,4.26,1.39,5.27,3.17.82,1.46,1.68,4.62-1.51,9.67.64,3.92-.42,7.13-2.97,8.87-2.27,1.55-5.27,1.6-8.02.17-1.19.7-2.43,1.05-3.66,1.05Z"/>
    <path class="cls-1" d="m486.67,518.31c-1.99,0-3.93-.91-5.48-2.7-1.77-2.04-2.74-5-1.9-7.25-1.79-1.62-2.65-4.45-2.05-7.23.64-2.98,2.73-4.98,5.58-5.47.33-1.87,1.53-3.4,3.4-4.3,3.11-1.48,7.51-1.02,9.81,1.04.93.83,1.45,1.87,1.54,3,.8.09,1.55.28,2.23.57.77.32,1.13,1.19.81,1.96s-1.19,1.13-1.96.81c-.75-.31-1.67-.44-2.71-.4-.48.02-.97-.2-1.27-.6-.3-.4-.38-.92-.21-1.39.25-.71.12-1.22-.43-1.71-1.38-1.23-4.54-1.51-6.51-.56-1.27.61-1.86,1.55-1.79,2.9.02.41-.13.81-.41,1.11-.28.3-.68.47-1.09.47-3.04,0-3.85,2.25-4.06,3.22-.44,2.04.33,4.15,1.75,4.79.45.2.77.61.86,1.09.09.48-.06.98-.41,1.33-.73.74-.42,2.94,1.08,4.67.8.93,2.99,2.84,5.93.66.5-.37,1.18-.4,1.71-.06,1.39.9,2.95,1.24,4.28.93,1.03-.24,1.85-.84,2.4-1.75.43-.71,1.35-.94,2.06-.52.71.43.94,1.35.52,2.06-.96,1.6-2.48,2.71-4.29,3.13-1.86.43-3.86.14-5.72-.83-1.19.69-2.43,1.04-3.66,1.04Z"/>
    <path class="cls-1" d="m480.07,525.94c-11.16,0-23.15-1.89-25.57-3.93-.15-.12-.27-.27-.36-.44-2.76-5.19-3.19-13.86-3.97-29.6l-.11-2.12c-.5-10.1,0-15.71.52-21.65.34-3.85.69-7.83.78-13.28.3-17.39,8.72-27.92,22.53-28.17h0c.2,0,.4,0,.6,0,18.5,0,25.7,16.06,26.25,31.22.39,10.78,1.32,56.08-1.75,64.09-.11.3-.32.55-.59.73-3.57,2.29-10.76,3.16-18.33,3.16Zm-23.43-6.08c3.68,2.25,31.37,5.27,39.71.65,2.29-7.61,2.05-44.68,1.4-62.44-.24-6.68-2.65-28.33-23.25-28.33-.18,0-.36,0-.55,0h0c-17.78.33-19.49,19.39-19.59,25.22-.09,5.56-.45,9.59-.8,13.5-.52,5.83-1,11.34-.51,21.23l.11,2.12c.72,14.49,1.16,23.36,3.47,28.04Zm17.29-91.61h0,0Z"/>
    <path class="cls-1" d="m474.61,460.5c-1.65,0-3.36-.13-5.11-.4-5.87-.89-10.59-4.37-12.94-9.54-1.96-4.32-1.82-9.12.36-12.53,4.06-6.35,10.45-9.4,18.95-9.08h0c5.54.21,9.99,2.06,12.89,5.34,2.95,3.34,4.25,8.11,3.75,13.8-.29,3.38-1.91,6.32-4.67,8.49-3.26,2.57-7.93,3.92-13.24,3.92Zm.07-28.58c-6.84,0-11.96,2.59-15.23,7.72-1.64,2.57-1.7,6.28-.16,9.68,1.92,4.23,5.8,7.08,10.65,7.82,6.57,1,12.42-.07,16.04-2.92,2.12-1.67,3.31-3.82,3.53-6.39.42-4.85-.62-8.84-3.02-11.55-2.37-2.69-5.99-4.15-10.75-4.33h0c-.36-.01-.72-.02-1.08-.02Z"/>
    <path class="cls-1" d="m483.5,443.37c-.49,0-.97-.24-1.26-.68-.69-1.05-1.83-1.79-2.84-1.82-.84-.02-1.59.4-2.25,1.28-.5.66-1.44.79-2.1.29-.66-.5-.79-1.44-.29-2.1,1.25-1.65,2.95-2.53,4.74-2.47,2,.07,4.01,1.28,5.25,3.18.45.69.26,1.62-.43,2.08-.25.17-.54.24-.82.24Z"/>
    <path class="cls-1" d="m479.5,442.24c-.22,0-.44-.03-.64-.08-1.35-.34-2.21-1.59-1.94-2.85.17-.81.97-1.33,1.77-1.16.36.07.65.27.87.53.37-.46,1-.68,1.59-.5.79.23,1.25,1.07,1.02,1.86-.46,1.56-1.6,2.2-2.66,2.2Z"/>
    <path class="cls-1" d="m463.64,443.37c-.28,0-.57-.08-.82-.24-.69-.45-.89-1.38-.43-2.08,1.24-1.89,3.25-3.11,5.25-3.18,1.82-.06,3.5.82,4.74,2.47.5.66.37,1.6-.29,2.1-.66.5-1.6.37-2.1-.29-.66-.88-1.41-1.3-2.25-1.28-1.01.03-2.15.77-2.84,1.82-.29.44-.77.68-1.26.68Z"/>
    <path class="cls-1" d="m467.64,442.24c-1.06,0-2.2-.63-2.66-2.2-.23-.79.22-1.63,1.02-1.86.6-.18,1.22.04,1.59.5.21-.26.51-.46.87-.53.81-.17,1.61.35,1.77,1.16.26,1.26-.59,2.51-1.94,2.85-.21.05-.42.08-.64.08Z"/>
    <path class="cls-1" d="m475.81,449.93c-.19,0-.39-.01-.59-.04-.7-.11-1.24-.42-1.61-.64-.55.34-1.28.3-1.78-.15-.62-.55-.69-1.48-.14-2.11,1.39-1.57,2.92-.65,3.42-.35.21.13.41.25.56.27.36.05.59-.12.59-.12.58-.6,1.52-.62,2.12-.04.6.57.62,1.52.04,2.12-.11.12-1.06,1.05-2.61,1.05Z"/>
    <path class="cls-1" d="m472.8,451.71c-.75,0-1.4-.57-1.49-1.33-.09-.82.5-1.57,1.32-1.66.49-.06,1.09-.26,1.3-.43.06-.77.71-1.38,1.5-1.38.83,0,1.5.67,1.5,1.5,0,1.97-1.99,3.07-3.97,3.29-.06,0-.11,0-.17,0Z"/>
    <path class="cls-1" d="m469.8,449.93c-1.55,0-2.49-.93-2.61-1.05-.57-.6-.55-1.55.04-2.12.6-.57,1.55-.56,2.12.04h0s.23.17.59.12c.14-.02.35-.14.56-.27.5-.3,2.03-1.22,3.42.35.55.62.49,1.57-.13,2.12-.51.45-1.25.49-1.8.14-.37.22-.91.53-1.6.63-.21.03-.4.04-.59.04Z"/>
    <path class="cls-1" d="m472.81,451.71c-.06,0-.11,0-.17,0-1.97-.22-3.97-1.33-3.97-3.29,0-.83.67-1.5,1.5-1.5s1.43.61,1.5,1.38c.21.17.82.38,1.31.44.82.1,1.41.84,1.31,1.66-.09.76-.73,1.33-1.48,1.33Zm-1.13-3.3h0,0Z"/>
    <path class="cls-1" d="m485.43,452.66c-2.22,0-4.02-1.81-4.02-4.02s1.81-4.02,4.02-4.02,4.02,1.81,4.02,4.02-1.81,4.02-4.02,4.02Zm0-5.05c-.56,0-1.02.46-1.02,1.02s.46,1.02,1.02,1.02,1.02-.46,1.02-1.02-.46-1.02-1.02-1.02Z"/>
    <path class="cls-1" d="m460.94,452.04c-2.22,0-4.02-1.81-4.02-4.02s1.81-4.02,4.02-4.02,4.02,1.81,4.02,4.02-1.8,4.02-4.02,4.02Zm0-5.05c-.56,0-1.02.46-1.02,1.02s.46,1.02,1.02,1.02,1.02-.46,1.02-1.02-.46-1.02-1.02-1.02Z"/>
    <path class="cls-1" d="m456.55,444.42c-.61,0-1.18-.37-1.41-.98-.29-.78.11-1.64.88-1.93,9.42-3.5,13.79-11.48,13.83-11.56.39-.73,1.3-1,2.03-.61.73.39,1.01,1.3.62,2.03-.2.37-4.92,9.05-15.44,12.96-.17.06-.35.09-.52.09Z"/>
    <path class="cls-1" d="m490.33,444.28c-.23,0-.46-.05-.67-.16-1.34-.67-13.17-6.75-16.14-12.05-.41-.72-.15-1.64.58-2.04.72-.4,1.64-.15,2.04.57,2.14,3.81,11.46,9.12,14.87,10.84.74.37,1.04,1.27.66,2.01-.26.52-.79.83-1.34.83Z"/>
  </g>
</svg>
