<?xml version="1.0" encoding="UTF-8"?>
<svg id="Layer_1" data-name="Layer 1" xmlns="http://www.w3.org/2000/svg" viewBox="0 0 677.07 533.16">
  <defs>
    <style>
      .cls-1, .cls-2 {
        stroke-width: 0px;
      }

        :root { fill:#222 }
        .accent { fill: #f9322c; }

        @media (prefers-color-scheme: dark) {
        :root {  fill: #f9322c; }
        .accent { fill:#dee2e6; }
        }
    </style>
  </defs>
  <g>
    <path class="accent" d="m84.63,17.57c-11.79,2.88-24.27,25.15-16.79,42.62s13.03,42.39,3.62,66.37c-9.41,23.98-7.13,59.74,3.67,83.48,10.81,23.74,21.65,97.21,4.28,112.96s-41.85,6.71-46.74-10.13c-4.89-16.84,15.14-91.1,7.66-110.43-7.48-19.34.48-45.27,7.96-61.87s21.4-48.75,15.92-68.15c-5.48-19.4-9.73-43.09,4.67-53.08,14.4-9.99,26.91-6.23,30.91.98-.44-.12-8.91-4.29-15.16-2.76Z"/>
    <path class="cls-1" d="m84.74,334.61c-20.7,0-43-8.58-48.94-19.52-9.25-17.02-2.67-70.17,3.44-93.89,2.7-10.46,1.42-20.18.07-30.47-1.9-14.45-3.86-29.39,4.58-48.25,14.61-32.68,20.39-50.51,16-69.8-2.77-12.15-7.37-41.92,9.65-55.94,7.84-6.46,17.52-8.41,24.66-4.98,4.92,2.37,7.69,6.93,7.6,12.52,0,.61-.38,1.15-.95,1.37-.56.22-1.21.09-1.63-.35-3.28-3.38-7.68-5.18-11.78-4.79-2.17.2-5.2,1.13-7.35,4.38-.46.69-1.39.88-2.08.42s-.88-1.39-.42-2.08c2.19-3.31,5.59-5.34,9.57-5.71,3.79-.36,7.76.78,11.16,3.11-.82-2.71-2.68-4.85-5.43-6.17-6.09-2.93-14.5-1.13-21.45,4.59-10.91,8.98-14.14,28.78-8.63,52.96,4.58,20.12-1.29,38.38-16.19,71.69-8.09,18.09-6.19,32.61-4.35,46.64,1.39,10.59,2.7,20.59-.14,31.61-7.02,27.25-11.96,76.52-3.71,91.71,7.75,14.26,47.29,24.07,68.54,13.43.74-.37,1.64-.07,2.01.67.37.74.07,1.64-.67,2.01-6.74,3.37-15.02,4.84-23.58,4.84Z"/>
    <path class="cls-1" d="m92.46,59.78c-.52,0-1.02-.27-1.3-.75-.91-1.57-1.81-3.12-2.7-4.65-5.13-8.81-9.56-16.41-11.42-22.05-.26-.79.17-1.63.96-1.89.79-.26,1.64.17,1.89.96,1.76,5.34,6.33,13.18,11.16,21.47.89,1.53,1.8,3.08,2.71,4.66.41.72.17,1.63-.55,2.05-.24.14-.49.2-.75.2Z"/>
    <path class="cls-1" d="m98.86,139.19c-.16,0-.31-.02-.47-.08-.79-.26-1.21-1.11-.96-1.89,1.68-5.11,3.43-9.31,4.97-13.02,4.18-10.05,6.94-16.69,4.37-30.32-1.06-5.6-3.64-12.39-7.89-20.77-.38-.74-.08-1.64.66-2.02.74-.37,1.64-.08,2.02.66,4.38,8.64,7.05,15.69,8.16,21.57,2.74,14.51-.32,21.86-4.55,32.03-1.52,3.66-3.25,7.81-4.9,12.81-.21.63-.79,1.03-1.42,1.03Z"/>
    <path class="cls-1" d="m93.56,180.75c-.68,0-1.29-.46-1.46-1.15-1.07-4.46-.2-13.03.43-19.29.08-.82.16-1.59.23-2.29.08-.83.81-1.44,1.64-1.35.83.08,1.43.81,1.35,1.64-.07.7-.15,1.48-.23,2.3-.58,5.7-1.45,14.32-.5,18.29.19.81-.3,1.62-1.11,1.81-.12.03-.24.04-.35.04Z"/>
    <path class="cls-1" d="m115.06,222.49c-.53,0-1.04-.28-1.31-.77-2.81-5.04-5.46-9.45-8.01-13.71-1.15-1.92-2.26-3.78-3.32-5.57-.42-.71-.18-1.63.53-2.05.72-.42,1.63-.18,2.05.53,1.05,1.79,2.16,3.63,3.31,5.55,2.45,4.08,5.22,8.71,8.06,13.79.4.72.14,1.64-.58,2.04-.23.13-.48.19-.73.19Z"/>
    <path class="cls-1" d="m133.93,275.17c-.78,0-1.43-.6-1.49-1.38-.58-7.46-2.29-15.29-5.1-23.26-.27-.78.14-1.64.92-1.91.78-.27,1.64.14,1.91.92,2.89,8.22,4.66,16.3,5.26,24.02.06.83-.55,1.55-1.38,1.61-.04,0-.08,0-.12,0Z"/>
    <path class="cls-1" d="m115.54,324.5c-.42,0-.84-.18-1.14-.52-.54-.63-.47-1.57.15-2.12,3.32-2.87,6.25-6.17,8.72-9.83.46-.69,1.4-.87,2.08-.4.69.46.87,1.4.4,2.08-2.62,3.88-5.73,7.38-9.24,10.42-.28.25-.63.37-.98.37Z"/>
    <path class="cls-1" d="m64.22,156.05c-.82,0-1.49-.66-1.5-1.48-.17-11.36,2.73-18,6.4-26.42,3.21-7.34,7.2-16.47,10.36-31.82,3.56-17.29-.87-24.16-5.57-31.43-4.15-6.42-8.43-13.06-7.98-26.56.03-.83.74-1.48,1.55-1.45.83.03,1.48.72,1.45,1.55-.42,12.55,3.6,18.79,7.5,24.83,4.81,7.46,9.79,15.17,5.98,33.66-3.22,15.66-7.28,24.95-10.55,32.42-3.67,8.4-6.32,14.46-6.15,25.17.01.83-.65,1.51-1.48,1.52h-.02Z"/>
    <path class="cls-1" d="m85.38,247.75c-.74,0-1.38-.55-1.48-1.3-1.17-8.63-4.43-15.84-8.2-24.19-4.65-10.29-9.92-21.95-12.95-39.71-.14-.82.41-1.59,1.23-1.73.81-.14,1.59.41,1.73,1.23,2.96,17.37,8.15,28.85,12.73,38.98,3.87,8.56,7.21,15.96,8.44,25.02.11.82-.46,1.58-1.28,1.69-.07,0-.14.01-.2.01Z"/>
    <path class="cls-1" d="m57.56,330c-.57,0-1.11-.32-1.37-.88-.34-.75-.01-1.64.74-1.99,17.65-8.08,31.55-43.95,29.61-60.2-.1-.82.49-1.57,1.31-1.67.83-.11,1.57.49,1.67,1.31,2.08,17.45-12.33,54.57-31.34,63.28-.2.09-.41.14-.62.14Z"/>
    <path class="cls-1" d="m78.62,276.47c-.06,0-.13,0-.2-.01-.82-.11-1.4-.86-1.29-1.68.03-.22,2.73-21.93-5.22-37.24-.38-.74-.1-1.64.64-2.02.73-.38,1.64-.1,2.02.64,8.39,16.16,5.65,38.09,5.53,39.01-.1.75-.74,1.31-1.49,1.31Z"/>
    <path class="cls-1" d="m57.55,193.7c-.76,0-1.41-.58-1.49-1.35-2.82-27.44,2.7-51.65,2.76-51.89.19-.81.99-1.31,1.8-1.12.81.19,1.31.99,1.12,1.8-.05.24-5.46,23.98-2.7,50.91.08.82-.51,1.56-1.34,1.65-.05,0-.1,0-.16,0Z"/>
    <path class="cls-1" d="m109.07,329.6c-.38,0-.76-.03-1.15-.09-4.58-.68-9.75-5.81-10.77-14.31-1.52-12.67,2.14-26.93,13.75-30.22h0c3.91-1.11,6.23.39,7.49,1.85,6.27,7.2.98,30.46-1.99,37.2-1.58,3.59-4.21,5.57-7.34,5.57Zm4.4-42c-.5,0-1.07.08-1.75.27h0c-9.85,2.79-12.91,15.94-11.59,26.97.83,6.93,4.86,11.2,8.23,11.7,2.22.33,4.1-.99,5.3-3.73,3.21-7.3,7.27-28.51,2.47-34.02-.48-.55-1.25-1.2-2.66-1.2Zm-2.16-1.17h0,0Z"/>
    <path class="cls-1" d="m109.77,315.93c-.69,0-2.01-.29-2.66-2.35-1.11-3.51-.03-13.08,3.73-15.05.77-.4,2.79-1.04,4.92,1.7.51.65.39,1.6-.26,2.1-.65.51-1.6.39-2.1-.26-.62-.79-1-.91-1.08-.91-.17.03-.81.5-1.47,2.27-1.33,3.55-1.35,8.18-.82,9.43,2.28-.67,3.07-4.8,3.08-4.85.14-.81.91-1.36,1.73-1.22.82.14,1.36.91,1.22,1.73-.05.28-1.21,6.77-5.99,7.39-.07,0-.17.02-.29.02Z"/>
    <path class="cls-1" d="m132.69,314.38c-.43,0-.82-.05-1.15-.12-4.53-.99-8.98-8.01-9.53-15.04-.78-9.96,8.32-23.6,15.3-25.68h0c2.21-.66,4.14-.15,5.41,1.43,5.1,6.35-1.65,30.04-4.88,35.84-1.62,2.91-3.65,3.57-5.16,3.57Zm6.45-38.13c-.27,0-.58.05-.97.16h0c-5.76,1.72-13.83,14.13-13.17,22.58.47,6.07,4.31,11.71,7.18,12.34.43.09,1.74.38,3.05-1.97,3.71-6.68,8.72-28.08,5.16-32.51-.25-.31-.59-.6-1.25-.6Zm-1.4-1.27h0,0Z"/>
    <path class="cls-1" d="m131.87,304.38c-.52,0-1.02-.27-1.3-.75-.13-.22-3.09-5.48-1.77-11.14.94-4,3.36-6.9,5.89-7.05.83-.04,2.86.17,3.98,3.26.28.78-.12,1.64-.9,1.92-.78.28-1.64-.12-1.92-.9-.29-.8-.68-1.3-.99-1.29-.74.04-2.42,1.67-3.14,4.74-1.05,4.49,1.43,8.92,1.45,8.97.41.72.16,1.63-.56,2.04-.23.13-.49.2-.74.2Z"/>
    <path class="cls-1" d="m91.49,309.77c-.69,0-1.32-.48-1.47-1.19-.12-.56-.17-2.74,1.95-10.75,2.38-9.01,10.01-13.66,10.33-13.85.27-.16.58-.23.89-.21l10.22.84c.83.07,1.44.79,1.37,1.62-.07.83-.81,1.42-1.62,1.37l-9.7-.8c-1.47,1.01-6.81,5.06-8.59,11.8-1.94,7.35-1.91,9.27-1.9,9.46.11.78-.4,1.51-1.18,1.68-.1.02-.21.03-.31.03Z"/>
    <path class="cls-1" d="m105.85,330.19c-3.99,0-10.27-.79-12.35-5.46-.34-.76,0-1.64.76-1.98.76-.34,1.64,0,1.98.76,1.8,4.03,9.75,3.9,12.66,3.51.82-.12,1.58.46,1.69,1.29s-.46,1.58-1.29,1.69c-.17.02-1.55.2-3.45.2Z"/>
    <path class="cls-1" d="m125.43,278.96c-.29,0-.58-.08-.83-.25-.69-.46-.88-1.39-.42-2.08.08-.11,1.87-2.77,4.38-3.98,2.45-1.18,9.01.18,10.96.63.81.18,1.31.99,1.13,1.8-.18.81-.98,1.32-1.8,1.13-3.52-.81-7.97-1.34-8.99-.85-1.75.84-3.17,2.92-3.18,2.94-.29.43-.76.67-1.25.67Z"/>
    <path class="cls-1" d="m118.6,291.57c-.16,0-.33-.03-.49-.08-.78-.27-1.2-1.12-.93-1.91.04-.12.99-2.87,2.04-5.38.32-.76,1.2-1.12,1.96-.8.76.32,1.12,1.2.8,1.96-1.01,2.42-1.97,5.17-1.98,5.2-.21.62-.8,1.01-1.42,1.01Z"/>
    <path class="cls-1" d="m130.86,315.11c-4.12,0-10.18-2.05-12.66-8.31-.31-.77.07-1.64.84-1.95.77-.31,1.64.07,1.95.84,2.28,5.75,8.66,6.92,11.4,6.25.81-.2,1.62.3,1.81,1.1s-.3,1.62-1.1,1.81c-.63.16-1.4.24-2.25.24Z"/>
    <path class="cls-1" d="m79.11,165.34c-.48,0-.96-.08-1.44-.24-3.05-1-5.1-4.88-4.89-9.24.35-7.14,3.77-14.68,10.62-15.42h0c1.98-.21,3.56.49,4.47,1.98,2.96,4.85-2.38,17.18-4.41,20.26-1.14,1.72-2.69,2.65-4.34,2.65Zm4.61-21.91c-5.06.55-7.66,6.91-7.94,12.58-.16,3.28,1.31,5.75,2.83,6.24.84.28,1.63-.13,2.35-1.22,2.52-3.83,6.13-14.13,4.35-17.04-.14-.22-.41-.69-1.58-.56h0Z"/>
    <path class="cls-1" d="m78.96,157.73c-.05,0-.1,0-.15,0-.84-.03-1.81-.6-2.01-2.1-.31-2.25,1.25-7.56,3.8-8.39.48-.16,2.12-.49,3.28,1.67.39.73.12,1.64-.61,2.03-.72.38-1.6.13-2.01-.57-.57.74-1.23,2.49-1.45,3.75.31-.39.57-.9.69-1.24.28-.78,1.14-1.19,1.92-.91.78.28,1.19,1.13.92,1.91-.14.4-1.43,3.84-4.37,3.84Z"/>
    <path class="cls-1" d="m92.81,159.39c-.56,0-1.02-.14-1.31-.25-2.88-1.16-4.46-5.86-4.13-9.53.52-5.77,6.85-12.34,11.02-12.85h0c1.5-.19,2.76.4,3.43,1.6,2.35,4.21-3.42,16.26-5.87,19.31-1.1,1.37-2.25,1.72-3.14,1.72Zm5.95-19.65c-2.64.32-7.99,5.66-8.4,10.14-.28,3.06,1.18,6.04,2.26,6.47.11.04.41.16.99-.56,2.61-3.26,6.83-13.75,5.59-15.97-.03-.05-.07-.13-.44-.08h0Z"/>
    <path class="cls-1" d="m92.82,152.63c-.61,0-1.18-.37-1.4-.98-.1-.28-.96-2.77.06-5.21.81-1.92,2.3-3.11,3.74-2.95.41.05,1.79.35,2.15,2.3.15.82-.39,1.6-1.21,1.74-.61.11-1.19-.16-1.51-.64-.14.18-.28.42-.41.71-.58,1.38-.02,3.01-.01,3.02.28.78-.13,1.64-.9,1.92-.17.06-.34.09-.51.09Z"/>
    <path class="cls-1" d="m71.1,153.22c-.8,0-1.47-.63-1.5-1.44-.03-.79.66-2.75,2.06-5.83,2.19-4.81,6.9-6.69,7.1-6.77.29-.11.61-.13.91-.05l5.33,1.36c.8.21,1.29,1.02,1.08,1.82-.21.8-1.02,1.29-1.82,1.08l-4.82-1.23c-1.02.51-3.71,2.07-5.05,5.02-1.54,3.39-1.77,4.46-1.79,4.62-.04.76-.66,1.38-1.44,1.41-.02,0-.04,0-.06,0Z"/>
    <path class="cls-1" d="m78.6,165.51s-.03,0-.05,0c-.76-.03-7.42-.38-8.54-4.73-.21-.8.28-1.62,1.08-1.83.8-.21,1.62.28,1.83,1.08.44,1.73,4.06,2.42,5.74,2.48.83.03,1.47.72,1.45,1.55-.03.81-.69,1.45-1.5,1.45Z"/>
    <path class="cls-1" d="m91.84,139.96c-.37,0-.74-.14-1.03-.41-.6-.57-.63-1.51-.06-2.11.14-.15,1.4-1.44,2.99-1.9,1.52-.44,4.54.66,6.21,1.34.76.32,1.13,1.2.81,1.96s-1.2,1.13-1.96.81c-1.75-.72-3.74-1.31-4.27-1.22-.64.19-1.37.84-1.6,1.07-.29.31-.69.46-1.09.46Z"/>
    <path class="cls-1" d="m87.09,146.02c-.24,0-.49-.06-.72-.18-.73-.4-.99-1.31-.6-2.04.03-.06.79-1.45,1.59-2.7.45-.7,1.37-.91,2.07-.46.7.44.91,1.37.46,2.07-.74,1.17-1.48,2.52-1.49,2.54-.27.5-.79.78-1.32.78Z"/>
    <path class="cls-1" d="m92.23,159.66c-2.72,0-6.65-2.04-7.53-6.17-.17-.81.35-1.61,1.16-1.78.81-.17,1.61.35,1.78,1.16.61,2.89,3.62,3.88,4.74,3.79.82-.06,1.54.56,1.6,1.39.06.83-.56,1.54-1.39,1.6-.12,0-.24.01-.36.01Z"/>
    <path class="cls-1" d="m111.82,264.5c-4.13,0-8.78-3.39-11.1-8.21-.36-.75-.04-1.64.7-2,.75-.36,1.64-.04,2,.7,1.92,3.99,5.82,6.83,8.88,6.49,2.36-.27,3.35-2.52,3.76-4.36,1.5-6.76-1.23-19.66-6.19-24.1-1.69-1.51-3.46-1.92-5.4-1.25-6.38,2.2-4.27,12.29-4.01,13.43.18.81-.32,1.61-1.13,1.8-.8.19-1.61-.32-1.8-1.13-1.45-6.37-.76-14.62,5.96-16.94,2.98-1.02,5.87-.38,8.37,1.85,6.35,5.67,8.66,20.06,7.12,26.99-1.18,5.32-4.48,6.48-6.34,6.69-.27.03-.55.05-.83.05Z"/>
    <path class="cls-1" d="m105.13,267.22c-2.54,0-5.04-.85-6.99-3.2-5.42-6.52-8.21-27.57-4.2-31.72,3.46-3.59,9.23-3.59,9.49-3.58.83,0,1.5.68,1.49,1.51,0,.82-.68,1.49-1.5,1.49h0c-.09,0-4.76.02-7.31,2.66-2.14,2.21-1.04,21.23,4.35,27.71,4.44,5.34,13.16-1,13.24-1.07.67-.49,1.61-.35,2.1.31.49.67.35,1.61-.31,2.1-2.32,1.72-6.39,3.78-10.34,3.78Z"/>
    <path class="cls-1" d="m128.6,250.77c-1.2,0-2.77-.47-4.51-2.14-4.32-4.15-8.86-11.94-7.45-20.26.14-.82.92-1.36,1.73-1.23.82.14,1.37.91,1.23,1.73-1.21,7.16,2.78,13.95,6.57,17.59.81.78,1.99,1.61,3,1.19,1.42-.58,3.16-3.66,3.36-10.42.23-7.68-5.79-14.27-8.38-16.74-.42-.4-.99-.58-1.57-.49-2.01.29-3.71.65-4.8,1.02-1.63.55-4.96,5.01-3.99,11.19.13.82-.43,1.59-1.25,1.71-.81.14-1.58-.43-1.71-1.25-1.15-7.35,2.72-13.39,6-14.5,1.61-.54,3.78-.92,5.32-1.14,1.5-.22,2.98.25,4.07,1.29,2.89,2.75,9.57,10.11,9.31,19-.21,7.17-2.06,11.83-5.22,13.11-.42.17-1,.33-1.71.33Z"/>
    <path class="cls-1" d="m109.94,257.25c-1.71,0-3.32-.86-4.79-2.54-2.62-3.01-3.22-8.91-1.32-12.89,1.19-2.48,3.27-3.85,5.6-3.76.83.03,1.47.73,1.44,1.55-.03.83-.71,1.5-1.55,1.44-1.18-.03-2.11.65-2.79,2.06-1.39,2.91-.98,7.5.88,9.63.87,1,1.71,1.5,2.51,1.51,0,0,.01,0,.02,0,1.04,0,1.83-.86,1.84-.87.55-.61,1.5-.67,2.11-.12.62.55.68,1.48.14,2.1-.17.19-1.7,1.89-4.09,1.89h0Z"/>
    <path class="cls-1" d="m128.25,242.45c-1.03,0-2.11-.41-3.23-1.21-3-2.16-3.92-7.06-3.8-10.59.06-1.86.43-4.27,1.84-5.15.7-.44,1.63-.22,2.07.48.42.67.24,1.55-.39,2.01-.34.49-.75,2.61-.39,5.34.34,2.58,1.25,4.62,2.43,5.48.42.3,1.21.79,1.75.6.54-.18.96-1.01,1.08-1.39.25-.79,1.08-1.23,1.87-.99.79.24,1.24,1.06,1,1.85-.08.27-.83,2.63-2.97,3.37-.4.14-.82.21-1.24.21Zm-3.61-14.41h0,0Z"/>
    <path class="cls-1" d="m123.79,252.07c-2.19,0-4.6-.62-6.61-2.64-.58-.59-.58-1.54,0-2.12.59-.58,1.54-.58,2.12,0,3.52,3.54,9.45.57,9.51.54.74-.38,1.64-.08,2.02.65.38.74.09,1.64-.64,2.02-.19.1-3.05,1.54-6.4,1.54Z"/>
    <path class="cls-1" d="m88.29,209.52c-1.18,0-2.33-.37-3.39-1.09-4.51-3.07-6.5-11.69-6.92-15.81-.42-4.12,1.09-8.02,3.77-9.69,1.83-1.14,3.99-1.1,5.93.12h0c5.6,3.48,7.97,12.39,7.03,18.99-.57,3.97-2.28,6.54-4.83,7.26-.54.15-1.08.23-1.61.23Zm-3.7-24.42c-.42,0-.84.12-1.24.38-1.44.9-2.71,3.53-2.38,6.84.45,4.38,2.49,11.5,5.62,13.64.82.56,1.61.7,2.5.45,1.29-.36,2.29-2.15,2.67-4.79.79-5.55-1.29-13.31-5.65-16.02h0c-.53-.33-1.04-.49-1.52-.49Z"/>
    <path class="cls-1" d="m100.73,203.94c-1.16,0-2.64-.39-4.26-1.77-4.56-3.89-7.57-13.15-7.45-15.1.01-.2.01-.45.01-.73.01-1.82.04-5.19,2.34-7.1,1.44-1.19,3.46-1.56,6-1.09h0c6.25,1.15,9.22,8.82,9.34,15.47.1,5.61-1.78,9.52-4.9,10.21-.32.07-.69.12-1.09.12Zm-5.37-22.99c-.89,0-1.58.2-2.07.6-1.23,1.01-1.24,3.39-1.25,4.81,0,.34,0,.64-.02.88,0,1.18,2.76,9.69,6.54,12.76.95.78,1.8,1.06,2.62.89,1.54-.34,2.61-3.38,2.54-7.22-.1-5.64-2.49-11.76-6.88-12.57h0c-.54-.1-1.03-.15-1.48-.15Z"/>
    <path class="cls-1" d="m100.36,195.29c-.11,0-.23-.01-.34-.04-2.76-.64-4.54-3.81-5.03-6.49-.43-2.37.1-4.25,1.46-5.15.69-.46,1.62-.27,2.08.42s.27,1.62-.42,2.08c-.13.08-.41.77-.17,2.12.36,1.99,1.6,3.83,2.75,4.1.81.19,1.31.99,1.12,1.8-.16.69-.78,1.16-1.46,1.16Z"/>
    <path class="cls-1" d="m87.32,201.81c-.16,0-.32-.02-.47-.08-2.16-.72-3.58-2.9-3.91-5.97-.23-2.24.12-5.99,2.05-7.12.71-.42,1.63-.18,2.05.54.41.7.19,1.59-.48,2.02-.42.46-1.02,2.91-.47,5.25.22.93.69,2.1,1.7,2.44.79.26,1.21,1.11.95,1.9-.21.63-.79,1.03-1.42,1.03Z"/>
    <path class="cls-1" d="m75.92,203.95c-.49,0-.97-.24-1.26-.68-2.68-4.1-1.83-13.92-1.31-15.76.81-2.88,6.58-6.21,10.71-5.38.81.16,1.34.96,1.17,1.77-.16.81-.96,1.33-1.77,1.17-3-.6-6.95,2.28-7.22,3.25-.49,1.74-.94,10.43.94,13.3.45.69.26,1.62-.43,2.08-.25.17-.54.24-.82.24Z"/>
    <path class="cls-1" d="m84.24,211.53c-1.23,0-2.46-.26-3.57-.97-.7-.45-.9-1.37-.46-2.07s1.37-.9,2.07-.46c2.2,1.4,6.12-.45,7.44-1.28.7-.44,1.63-.23,2.07.47.44.7.23,1.62-.47,2.07-.19.12-3.6,2.24-7.08,2.24Z"/>
    <path class="cls-1" d="m92.73,205.56c-.73,0-1.38-.54-1.48-1.29-.12-.82.45-1.58,1.27-1.7l7.62-1.1c.83-.12,1.58.45,1.7,1.27.12.82-.45,1.58-1.27,1.7l-7.62,1.1c-.07.01-.15.02-.22.02Z"/>
    <path class="cls-1" d="m86.42,184.97c-.52,0-1.03-.27-1.31-.76-.41-.72-.15-1.64.57-2.04l5.67-3.19c.72-.41,1.64-.15,2.04.57.41.72.15,1.64-.57,2.04l-5.67,3.19c-.23.13-.49.19-.74.19Z"/>
    <path class="cls-1" d="m89.29,120.18c-.96,0-1.9-.23-2.8-.68-2.42-1.22-4.11-3.95-4.32-6.95-.32-4.47,3.58-15.4,9.93-15.96h0c4.87-.43,6.56,2.39,7.14,4.11,1.95,5.76-2.63,16.05-6.2,18.31-1.21.77-2.49,1.16-3.74,1.16Zm3.76-20.63c-.22,0-.45.01-.69.03h0c-3.92.34-7.46,9.07-7.2,12.76.14,1.94,1.22,3.74,2.69,4.48,1.13.57,2.33.46,3.58-.33,2.38-1.51,6.48-10.34,4.97-14.82-.32-.93-1.01-2.12-3.34-2.12Zm-.83-1.46h0,0Z"/>
    <path class="cls-1" d="m102.22,122.95c-1.32,0-2.64-.7-3.67-1.98-1.78-2.19-3.02-6.48-1.16-11.96,2.25-6.64,3.74-11.02,11.79-8.68h0c1.26.37,3.32,1.75,2.9,6.86-.49,6.01-4.39,15.12-9.41,15.74-.15.02-.3.03-.45.03Zm3.09-20.32c-2.4,0-3.24,1.9-5.09,7.34-1.47,4.33-.57,7.61.65,9.11.47.58,1.01.93,1.43.87,2.71-.33,6.32-7.26,6.79-13,.2-2.52-.34-3.62-.75-3.74h0c-1.25-.36-2.22-.58-3.03-.58Z"/>
    <path class="cls-1" d="m89.03,113.16c-.5,0-.99-.25-1.27-.71-1.15-1.84-1.18-4.76-.07-7.09.84-1.76,2.17-2.84,3.75-3.03.82-.1,1.57.48,1.67,1.3s-.48,1.57-1.3,1.67c-.74.09-1.24.97-1.42,1.35-.65,1.37-.69,3.26-.09,4.21.44.7.23,1.63-.48,2.07-.25.16-.52.23-.79.23Z"/>
    <path class="cls-1" d="m103.44,114.37c-.65,0-1.25-.43-1.44-1.09-.68-2.39.39-5.95,2.84-7.13.74-.36,1.64-.05,2,.7s.05,1.64-.7,2c-1,.48-1.58,2.5-1.26,3.61.23.8-.23,1.63-1.03,1.85-.14.04-.28.06-.41.06Z"/>
    <path class="cls-1" d="m87.18,77.53c-.95,0-1.93-.21-2.89-.64-2.33-1.03-4-3.34-4.7-6.51-.84-3.8-.15-8.31,1.57-10.27h0c.89-1.02,2.11-1.52,3.43-1.41,2.37.19,4.83,2.27,7.3,6.19,2.31,3.67,2.31,7.77-.01,10.46-1.23,1.43-2.91,2.18-4.7,2.18Zm-3.77-15.44c-.86.98-1.61,4.36-.89,7.64.34,1.56,1.14,3.6,2.98,4.41,1.57.69,3.1.41,4.11-.76,1.09-1.27,1.68-3.83-.25-6.9-2.71-4.3-4.52-4.76-5-4.8-.24-.02-.59,0-.94.4h0Z"/>
    <path class="cls-1" d="m96.23,75.81c-3.81,0-5.71-2.39-5.8-2.5-.51-.65-.39-1.6.26-2.1.65-.51,1.6-.39,2.1.26.04.05,1.39,1.61,4.17,1.3.21-.02.85-.1,1.33-1.19.85-1.94.5-5.6-1.55-8.37-1.81-2.45-3.46-3.15-4.34-3.01-.87.14-1.37,1.15-1.63,1.97-.25.79-1.1,1.23-1.88.97-.79-.25-1.22-1.1-.97-1.88.99-3.09,2.93-3.84,4-4.02,2.35-.39,4.99,1.14,7.24,4.19,2.49,3.37,3.28,8.15,1.88,11.35-.75,1.73-2.08,2.79-3.74,2.97-.37.04-.73.06-1.08.06Z"/>
    <path class="cls-1" d="m87.16,71.77c-.34,0-.68-.12-.97-.35-.38-.32-3.64-3.2-2.61-6.51.25-.79,1.09-1.23,1.88-.99.79.25,1.23,1.09.99,1.88-.38,1.22,1.12,2.85,1.68,3.33.63.54.7,1.48.17,2.11-.3.35-.72.53-1.14.53Z"/>
    <path class="cls-1" d="m96.54,70.18c-.28,0-.57-.08-.82-.25-1.79-1.18-4.52-3.95-3.34-6.83.31-.77,1.19-1.13,1.96-.82.77.31,1.13,1.19.82,1.96-.39.95,1.25,2.55,2.22,3.19.69.46.88,1.39.42,2.08-.29.44-.77.67-1.25.67Z"/>
    <path class="cls-1" d="m76.75,49.88c-.1,0-.2,0-.3,0-2.01-.12-3.62-1.42-4.55-3.67-1.06-2.56-1.14-6.48.43-8.24.71-.79,1.69-1.09,2.69-.8,3.82,1.09,6.21,6.02,5.64,9.37-.36,2.09-1.84,3.36-3.9,3.36Zm-2.3-9.75c-.34.68-.59,2.79.14,4.74.33.88.95,1.94,2.03,2.01.7.04.96-.17,1.08-.86.32-1.9-1.23-5.1-3.25-5.89Z"/>
    <path class="cls-1" d="m81.53,48.67c-.81,0-1.61-.38-2.21-1.11-.53-.64-.44-1.58.2-2.11.6-.5,1.48-.45,2.02.1.32-.45.68-1.75-.06-3.48-1-2.31-2.2-3.23-2.57-3.18-.05.02-.27.24-.47.86-.26.79-1.11,1.21-1.89.96-.79-.26-1.21-1.11-.96-1.89.81-2.45,2.34-2.88,3.18-2.92,1.94-.1,4.08,1.82,5.46,4.98,1.41,3.26.46,6.31-1.27,7.38-.45.28-.94.41-1.43.41Z"/>
    <path class="cls-1" d="m74.15,33.67c-.54,0-1.11-.12-1.68-.36-1.78-.74-3.11-2.39-3.38-4.22-.23-1.54.25-3.21,1.3-4.57,1.12-1.46,2.77-2.41,4.53-2.61h0c1.58-.18,2.85.56,3.41,1.96,1.05,2.66-.78,8.05-2.34,9.22-.52.38-1.14.58-1.83.58Zm1.25-8.78s-.09,0-.16,0h0c-.95.11-1.85.64-2.48,1.46-.56.72-.81,1.56-.7,2.3.1.66.54,1.29,1.19,1.69.44.27.79.34.94.32.86-1.02,1.89-5.07,1.29-5.78,0,0-.03,0-.08,0Zm-.32-1.48h0,0Z"/>
    <path class="cls-1" d="m77.26,33.37c-.85,0-1.63-.27-2.17-.64-.69-.46-.88-1.39-.42-2.08.46-.69,1.39-.88,2.08-.42.77.46,1.29-.25,1.46-.48.8-1.08.53-3.01.14-3.57-.7-.05-1.29-.59-1.38-1.31-.1-.82.48-1.57,1.3-1.67,1.07-.14,2.05.42,2.69,1.52,1,1.71,1.16,4.79-.33,6.82-1.01,1.37-2.25,1.84-3.37,1.84Z"/>
    <path class="cls-1" d="m56.76,310.94c-.35,0-.7-.19-.88-.52-.27-.48-.09-1.09.4-1.36l14.71-8.08c.48-.26,1.09-.09,1.36.4.27.48.09,1.09-.4,1.36l-14.71,8.08c-.15.08-.32.12-.48.12Z"/>
    <path class="cls-1" d="m60.28,298.63c-.36,0-.71-.19-.88-.53-.26-.49-.07-1.09.42-1.35l10.82-5.73c.49-.26,1.09-.07,1.35.42.26.49.07,1.09-.42,1.35l-10.82,5.73c-.15.08-.31.12-.47.12Z"/>
    <path class="cls-1" d="m70.54,99.85c-.41,0-.8-.26-.94-.67l-2.06-5.84c-.18-.52.09-1.09.61-1.28.52-.18,1.09.09,1.28.61l2.06,5.84c.18.52-.09,1.09-.61,1.28-.11.04-.22.06-.33.06Z"/>
    <path class="cls-1" d="m71.93,94.97c-.43,0-.83-.28-.96-.72l-1.39-4.79c-.15-.53.15-1.08.68-1.24.53-.16,1.09.15,1.24.68l1.39,4.79c.15.53-.15,1.08-.68,1.24-.09.03-.19.04-.28.04Z"/>
  </g>
  <g>
    <path class="accent" d="m577.01,209.43c-9.13,3.21-32.45-5.65-36.46-17.95-4.01-12.3,5.66-36.14,21.46-41.84,15.8-5.69,57.15-12.69,83.81,27.57,26.67,40.26,1.71,96.86-20.24,118.27-21.95,21.41-31.78,86.56-28.8,93.8,2.99,7.24-35.46,9.17-53.96-6.27-18.5-15.44-3.3-62.26,15.27-81.62,18.57-19.36,52.99-27.93,64.71-65.42,11.72-37.48-.06-65.09-26.66-73.08-26.61-8-68.91,28.52-19.12,46.54Z"/>
    <path class="cls-1" d="m588.7,393.46c-12.55,0-27.72-2.95-39.3-10.35-11.77-7.52-17.83-18.51-17.51-31.77.77-32.12,36.8-64.57,63.11-88.26,7.36-6.63,13.72-12.36,18.39-17.23,11.63-12.15,11.21-29.34,9.92-38.5-2.23-15.88-10.33-31.19-19.25-36.39-8.22-4.8-18.56-5.78-28.36-2.71-8.86,2.78-15.87,8.54-19.23,15.8-2.33,5.03-2.58,9.4-.75,12.99,3.39,6.62,13.11,9.75,20.67,11.21.65.12,1.13.66,1.21,1.31.07.65-.29,1.28-.89,1.54-18.5,8.04-29.14,3.67-34.81-1.4-9.19-8.22-11.77-24.49-6.55-41.44,3.57-11.61,11.45-20.79,22.77-26.54,17.21-8.75,40.4-8.84,65.3-.25,41.29,14.23,42.52,58.59,43.33,87.94.05,1.76.1,3.47.15,5.13.85,25.81-25.44,59.33-38.07,75.44-2.03,2.59-3.64,4.64-4.68,6.08-7.18,9.96-11.63,25.13-6.29,32.25,3.95,5.26,5.34,15.84,3.25,24.59-1.34,5.61-4.68,13.15-12.96,17.23-4.23,2.08-11.28,3.33-19.44,3.33Zm-1.65-229.96c6.59,0,12.99,1.65,18.52,4.88,9.8,5.72,18.32,21.58,20.7,38.56,2.35,16.75-1.46,31.3-10.72,40.99-4.74,4.96-11.14,10.72-18.55,17.39-25.9,23.33-61.38,55.28-62.12,86.1-.3,12.33,5.13,22.14,16.12,29.17,17.6,11.25,45.55,11.9,55.79,6.85,7.23-3.56,10.17-10.25,11.36-15.24,2.09-8.76.26-18.11-2.73-22.09-6.24-8.32-1.72-24.74,6.26-35.8,1.08-1.5,2.7-3.56,4.75-6.18,12.42-15.83,38.25-48.77,37.44-73.49-.05-1.66-.1-3.38-.15-5.14-.84-30.23-1.98-71.63-41.31-85.19-24.12-8.31-46.49-8.28-62.97.09-10.58,5.38-17.93,13.94-21.26,24.75-4.87,15.83-2.64,30.87,5.68,38.32,6.39,5.71,15.71,6.6,27.15,2.64-7.16-1.94-14.78-5.42-17.99-11.69-2.28-4.45-2.04-9.71.7-15.62,3.72-8.02,11.39-14.36,21.06-17.4,4.05-1.27,8.18-1.9,12.25-1.9Z"/>
    <path class="cls-1" d="m564.28,211.72s-.07,0-.1,0c-8.68-.56-16.74-5.15-21.57-12.3-5.02-7.45-5.98-17.02-2.69-26.95,7.51-22.66,33.07-32.19,53.72-31.43.83.03,1.47.73,1.44,1.55s-.71,1.52-1.55,1.44c-19.51-.72-43.74,8.18-50.76,29.38-3.83,11.57-.85,19.62,2.33,24.33,4.24,6.29,11.62,10.5,19.27,10.99.83.05,1.45.77,1.4,1.59-.05.79-.71,1.4-1.5,1.4Z"/>
    <path class="cls-1" d="m627.62,295.94c-.35,0-.7-.12-.99-.37-.62-.55-.68-1.49-.14-2.12,14.18-16.16,28.57-52.13,27.38-79.91-1.18-27.41-13.19-48.55-34.73-61.15-.72-.42-.96-1.34-.54-2.05.42-.72,1.34-.95,2.05-.54,22.47,13.14,34.99,35.13,36.21,63.61,1.26,29.43-13.61,65.48-28.12,82.01-.3.34-.71.51-1.13.51Z"/>
    <path class="cls-1" d="m598.06,374.72c-.66,0-1.27-.44-1.45-1.11-4.65-17.41,3.26-52.05,18.78-66.17.61-.56,1.56-.51,2.12.1.56.61.51,1.56-.1,2.12-14.41,13.11-22.3,46.7-17.9,63.17.21.8-.26,1.62-1.06,1.84-.13.03-.26.05-.39.05Z"/>
    <path class="cls-1" d="m593.36,393.47c-.52,0-1.03-.27-1.3-.76-9.93-17.46-3.47-52.66-3.19-54.15.15-.81.94-1.35,1.75-1.2.81.15,1.35.94,1.2,1.75-.07.35-6.54,35.62,2.84,52.11.41.72.16,1.64-.56,2.05-.23.13-.49.2-.74.2Z"/>
    <path class="cls-1" d="m606.59,311.14c-.29,0-.58-.08-.83-.25-.69-.46-.87-1.39-.41-2.08,9.87-14.75,22.23-28.85,22.36-28.99.55-.62,1.49-.68,2.12-.14.62.55.68,1.5.14,2.12-.12.14-12.36,14.1-22.12,28.68-.29.43-.76.67-1.25.67Z"/>
    <path class="cls-1" d="m622.79,160.56c-.26,0-.53-.07-.77-.21-21.61-12.89-36.92-10.22-37.08-10.19-.81.15-1.6-.38-1.75-1.19-.15-.81.38-1.6,1.19-1.75.66-.13,16.5-2.97,39.18,10.56.71.42.94,1.35.52,2.06-.28.47-.78.73-1.29.73Z"/>
    <path class="cls-1" d="m620.21,335.65c-1.54,0-3.2-.06-4.96-.14-.83-.04-1.47-.74-1.43-1.57.04-.83.7-1.47,1.57-1.43,5.09.23,9.49.32,11.74-.95,2.21-1.25,6.93-7.63,7.21-12.06.22-3.64-3.19-10.66-4.52-13.05-.4-.72-.14-1.64.58-2.04s1.64-.14,2.04.58c.21.38,5.22,9.43,4.89,14.7-.33,5.36-5.59,12.71-8.72,14.48-2.05,1.16-4.91,1.48-8.39,1.48Z"/>
    <path class="cls-1" d="m646.09,285.42c-.8,0-1.46-.62-1.5-1.43-.04-.83.6-1.53,1.43-1.57,5.61-.27,12.29-3.4,14.58-9.79,3.14-8.77,3.79-13.39,3.45-14.24-.8-1.68-2.85-5.93-2.85-5.93l2.7-1.3s2.05,4.26,2.86,5.95c1.22,2.56-1.14,10.4-3.34,16.53-2.76,7.69-10.65,11.46-17.26,11.77-.02,0-.05,0-.07,0Z"/>
    <path class="cls-1" d="m665.41,226.98c-.38,0-.75-.14-1.04-.42-.6-.58-.61-1.52-.04-2.12,3.89-4.03,6.38-7.43,6.81-11.95.49-5.21-1.22-14.57-2.13-15.8-.61-.83-4.34-2.33-7.43-3.2-.8-.22-1.26-1.05-1.04-1.85.22-.8,1.05-1.26,1.85-1.04,1.74.49,7.53,2.25,9.04,4.32,1.63,2.22,3.19,12.57,2.7,17.86-.5,5.37-3.42,9.38-7.63,13.75-.29.3-.69.46-1.08.46Z"/>
    <path class="cls-1" d="m656.76,176.2c-.22,0-.44-.05-.65-.15-.75-.36-1.06-1.25-.7-2,1.43-2.99.13-8.82-3.48-15.61-1.11-2.09-6.28-5.32-7.67-5.82-.58.09-1.86.15-4.85-.02-.83-.05-1.46-.76-1.41-1.59.05-.83.74-1.46,1.59-1.41,1.66.1,3.74.15,4.2.06,2.07-.54,9.39,4.74,10.79,7.37,2.42,4.55,6.09,12.98,3.53,18.32-.26.54-.79.85-1.35.85Zm-12.97-26.54s-.07.02-.09.03c.03-.01.06-.02.09-.03Z"/>
    <path class="cls-1" d="m626.8,145.17c-.54,0-1.07-.3-1.34-.82-3.22-6.29-7.18-9.07-9.06-9.4-2.43-.43-6.26.72-7,1.31-.8.63-1.79,2.04-2.11,2.53-.45.7-1.38.89-2.07.45-.7-.45-.9-1.38-.45-2.07.14-.22,1.44-2.21,2.77-3.26,1.63-1.29,6.38-2.45,9.39-1.91,3.67.65,8.17,5.07,11.2,10.99.38.74.09,1.64-.65,2.02-.22.11-.45.17-.68.17Z"/>
    <path class="cls-1" d="m577.01,138.6c-.09,0-.18,0-.27-.02-.81-.15-1.35-.92-1.21-1.73.04-.2.92-4.95,5.03-6.56,3.96-1.55,11.13-.4,12.18,0,.35.13,1.43.54,4.66,5.56.45.7.25,1.62-.45,2.07-.7.45-1.62.25-2.07-.45-1.15-1.79-2.7-3.92-3.27-4.39-1.09-.3-7.09-1.1-9.94.02-2.54,1-3.17,4.27-3.18,4.3-.13.72-.76,1.23-1.47,1.23Zm14.53-5.59h0Z"/>
    <path class="cls-1" d="m553.71,146.24l-2.99-.18s.18-3.02.24-3.93c.16-2.35,5.92-4.97,5.98-4.99,1.98-.84,4.58-1.49,10.28,1.4.74.38,1.03,1.28.66,2.02s-1.28,1.03-2.02.66c-4.93-2.5-6.63-1.79-7.76-1.31-1.3.55-3.6,2.05-4.17,2.7-.07,1.12-.22,3.64-.22,3.64Zm.14-3.53h0Zm.1-.38h0s0,0,0,0Z"/>
    <path class="cls-1" d="m538.94,164.58c-.57,0-1.12-.33-1.37-.88l-1.81-4.02c-.16-.36-.17-.76-.04-1.13.18-.48,1.76-4.76,3.09-6.36,1.77-2.12,6.38-2.49,8.66-.7.65.51.76,1.46.25,2.11-.51.65-1.46.76-2.11.25-1.06-.84-3.82-.55-4.5.26-.67.81-1.72,3.23-2.37,4.9l1.56,3.46c.34.76,0,1.64-.75,1.98-.2.09-.41.13-.61.13Z"/>
    <path class="cls-1" d="m534.28,183.44c-.22,0-.45-.05-.67-.16-3.84-1.91-4.27-2.69-4.43-2.99-.47-.85-.33-2.18.69-6.76l.19-.84c.54-2.5,3.99-4.58,6.28-5.12.81-.19,1.61.31,1.8,1.12.19.81-.31,1.61-1.12,1.8-1.79.42-3.85,2-4.03,2.83l-.19.87c-.23,1.05-.82,3.66-.88,4.7.57.42,1.93,1.18,3.02,1.72.74.37,1.04,1.27.68,2.01-.26.53-.79.83-1.34.83Zm-2.35-4.28h0,0Z"/>
    <path class="cls-1" d="m536.68,201.34c-.09,0-.18,0-.28-.03-2.68-.5-4.38-1.08-5.04-1.74-1.11-1.11-2.12-4.23-2.41-5.49-.54-2.34,1.34-4.5,3.34-6.8l.12-.14c.54-.62,1.49-.69,2.12-.15s.69,1.49.15,2.12l-.12.14c-1.21,1.39-2.88,3.3-2.68,4.15.37,1.61,1.2,3.53,1.57,4,.44.25,2.03.68,3.5.95.81.15,1.35.93,1.2,1.75-.13.72-.76,1.23-1.47,1.23Zm-3.19-3.88h0,0Z"/>
    <path class="cls-1" d="m542.07,214.62c-.08,0-.17,0-.24-.01-1.16-.14-2.33-1.13-3.84-2.66l-.18-.18c-1.64-1.64.23-7.47.25-7.52.27-.78,1.12-1.2,1.91-.93.78.27,1.2,1.12.93,1.91-.54,1.57-.83,3.87-.75,4.65,1.18,1.2,1.74,1.6,2,1.73.46-.17,1.48-.84,2.29-1.5.64-.53,1.58-.44,2.11.2.53.64.44,1.58-.2,2.11-1.25,1.03-2.97,2.22-4.28,2.22Zm-1.9-4.61h0Zm-.24-.37h.01s0,0-.01,0Z"/>
    <path class="cls-1" d="m555.76,218.88c-.63,0-1.33-.05-2.1-.19-2.75-.49-3.32-2.81-3.65-4.21-.2-.8.3-1.62,1.1-1.81.8-.2,1.62.3,1.81,1.1.39,1.6.61,1.85,1.26,1.96,1.1.2,2,.16,2.64.07.22-.36.57-1.07.81-1.7.3-.77,1.17-1.15,1.94-.85.77.3,1.15,1.17.85,1.94-1.25,3.21-2.15,3.38-2.63,3.48-.51.1-1.21.19-2.04.19Zm.93-2.88h0Z"/>
    <path class="cls-1" d="m558.21,170.02c-.1,0-.2-.01-.3-.05-.53-.17-.82-.73-.65-1.25l2.11-6.65c.17-.53.73-.82,1.25-.65.53.17.82.73.65,1.25l-2.11,6.65c-.13.43-.53.7-.95.7Z"/>
    <path class="cls-1" d="m564.2,165.15c-.23,0-.45-.08-.64-.23-.42-.35-.48-.98-.13-1.41l3.4-4.07c.35-.42.99-.48,1.41-.13.42.35.48.98.13,1.41l-3.4,4.07c-.2.24-.48.36-.77.36Z"/>
    <path class="cls-1" d="m571.66,162.56c-.39,0-.76-.23-.92-.62-.21-.51.03-1.1.54-1.31l7.95-3.3c.51-.21,1.09.03,1.31.54.21.51-.03,1.1-.54,1.31l-7.95,3.3c-.12.05-.26.08-.38.08Z"/>
  </g>
  <path class="cls-1" d="m552.99,331.46c-.49,0-.92-.36-.99-.86l-1.66-11.74c-.08-.55.3-1.05.85-1.13.55-.08,1.05.3,1.13.85l1.66,11.74c.08.55-.3,1.05-.85,1.13-.05,0-.09,0-.14,0Z"/>
  <path class="cls-1" d="m558.87,319.71c-.48,0-.91-.35-.99-.84l-.77-4.85c-.09-.55.29-1.06.83-1.14.55-.09,1.06.29,1.14.83l.77,4.85c.09.55-.29,1.06-.83,1.14-.05,0-.11.01-.16.01Z"/>
  <path class="cls-1" d="m94.52,359.28c-3.4,0-7.44-.45-12.2-1.33-3.21-.59-6.51-1.52-9.69-2.41-7.27-2.04-14.15-3.96-19.85-2.23-6.66,2.03-17.08-2.51-25.46-6.15-3.53-1.53-6.58-2.86-8.68-3.41-.8-.21-1.28-1.03-1.07-1.83.21-.8,1.03-1.28,1.83-1.07,2.33.61,5.47,1.98,9.11,3.56,7.51,3.26,17.78,7.73,23.39,6.03,6.55-1.99,14.17.14,21.54,2.21,3.12.88,6.35,1.78,9.43,2.35,11.32,2.09,18.19,1.62,21.63-1.49.61-.56,1.56-.51,2.12.1.56.61.51,1.56-.1,2.12-2.62,2.38-6.47,3.55-11.98,3.55Z"/>
  <path class="cls-1" d="m137.26,329.6c-.61,0-1.19-.38-1.41-.99-.28-.78.12-1.64.9-1.92,8.96-3.25,10.65-5.6,12.79-8.57.25-.35.51-.71.78-1.07,1.19-1.59,2.15-5.21,3.16-9.03,1.04-3.93,2.22-8.38,3.98-11.92,2.79-5.6,2.93-13.22,2.92-15.26l-5.39-6.18c-.54-.62-.48-1.57.15-2.12.63-.55,1.57-.48,2.12.15l5.74,6.59c.22.26.35.58.37.93.02.41.36,10.04-3.22,17.23-1.63,3.27-2.76,7.56-3.76,11.35-1.14,4.29-2.12,8-3.65,10.06-.26.35-.51.69-.75,1.03-2.35,3.26-4.37,6.07-14.21,9.64-.17.06-.34.09-.51.09Z"/>
  <path class="cls-1" d="m189.82,367.94c-.58,0-1.12-.33-1.37-.89-.34-.76,0-1.64.76-1.98,6.39-2.84,23.66-24.24,24.01-29.74.19-3.07-.81-5.91-1.97-9.2-.97-2.76-2.08-5.89-2.62-9.65-.59-4.11.57-6.86,1.5-9.06,1.04-2.47,1.73-4.1.19-7.07-1.63-3.15-4-7.52-6.3-11.74-2.56-4.72-4.78-8.79-5.59-10.5-1.19-2.48-7.11-4.82-11.9-5.55-4.02-.62-10.28-7.88-16.45-15.63-.7-.88-1.42-1.79-1.6-1.96-1.3-.89-14.33-4.57-25.34-4.19-.82.04-1.52-.62-1.55-1.45s.62-1.52,1.45-1.55c11.3-.4,25.85,3.4,27.53,5.03.29.28.78.89,1.86,2.25,2.76,3.47,11.15,14.01,14.56,14.54,3.99.61,12.08,2.91,14.15,7.22.79,1.64,3.09,5.88,5.53,10.37,2.3,4.24,4.68,8.62,6.33,11.79,2.18,4.21,1.03,6.96-.09,9.61-.87,2.06-1.76,4.18-1.29,7.47.49,3.46,1.5,6.32,2.47,9.07,1.22,3.45,2.36,6.7,2.13,10.38-.41,6.61-18.24,28.95-25.78,32.3-.2.09-.41.13-.61.13Z"/>
  <path class="cls-1" d="m104.06,393.98c-.8,0-1.47-.64-1.5-1.45-.03-.83.62-1.52,1.45-1.55,9.75-.35,13.4-1.01,20.67-2.31l1.92-.34c7.95-1.42,18.11-8.48,19.07-9.53,1.14-1.75,7.46-5.78,9.39-6.16.81-.17,1.6.36,1.76,1.18.16.81-.36,1.6-1.18,1.76-1.45.29-6.7,3.86-7.42,4.77-1.33,2.15-12.95,9.48-21.1,10.94l-1.92.34c-7.17,1.29-11.12,2-21.09,2.36-.02,0-.04,0-.05,0Zm44.24-13.79s-.04.09-.07.14c.02-.02.04-.07.07-.14Zm-2.66-1.37s-.07.11-.1.19c.03-.06.06-.12.1-.19Z"/>
  <path class="cls-1" d="m68.48,405.47c-1.61,0-3.21-1.42-5.9-3.92-1.87-1.74-3.99-3.71-5.48-4.19-2.74-.88-13.72-1.97-30.14-3-7.94-.5-9.35-1.99-12.03-5.61-1.41-1.9-3.34-4.5-7.59-8-.64-.53-.73-1.47-.21-2.11.53-.64,1.47-.73,2.11-.21,4.54,3.73,6.6,6.5,8.1,8.53,2.2,2.97,2.94,3.97,9.81,4.4,11.95.75,27.01,1.9,30.86,3.13,2.14.68,4.41,2.8,6.61,4.86,1.28,1.2,3.22,3,3.89,3.12.83,0,1.48.67,1.48,1.5s-.69,1.5-1.52,1.5Z"/>
  <path class="cls-1" d="m512.29,366.9c-.61,0-1.19-.38-1.41-.99-.96-2.66-.54-5.5-.26-7.39.07-.5.14-.97.16-1.29-.22-.48-1.11-1.72-1.9-2.83-2.9-4.07-7.29-10.21-7.29-15.57,0-7.21,10.67-11.25,17.04-13.67.88-.33,1.65-.63,2.26-.88.76-.32,1.64.04,1.96.81.32.76-.04,1.64-.81,1.96-.63.26-1.44.57-2.35.92-4.9,1.86-15.11,5.72-15.11,10.86,0,4.4,4.21,10.3,6.73,13.83,1.83,2.56,2.46,3.49,2.46,4.41,0,.53-.09,1.16-.2,1.89-.25,1.68-.59,3.98.11,5.92.28.78-.12,1.64-.9,1.92-.17.06-.34.09-.51.09Z"/>
  <path class="cls-1" d="m564.69,416.75c-2.42,0-4.87-.09-6.79-.36-3.65-.51-5.64-2.19-7.57-3.83-1.26-1.07-2.45-2.08-4.15-2.79-4.51-1.88-15.18-4.52-18.35-4.87-4.96-.55-13.38-11.88-16.76-16.72-.48-.68-.31-1.61.37-2.09.68-.48,1.62-.31,2.09.37,6.89,9.84,12.58,15.23,14.64,15.46,3.49.39,14.29,3.05,19.18,5.08,2.13.89,3.62,2.15,4.93,3.27,1.74,1.48,3.25,2.76,6.04,3.14,5.29.73,15.43,0,15.53-.01.83-.07,1.55.56,1.61,1.39.06.83-.56,1.54-1.39,1.61-.28.02-4.75.35-9.37.35Z"/>
  <path class="cls-1" d="m619.9,411.43c-.41,0-.82-.17-1.12-.5-.55-.62-.5-1.57.12-2.12,5.62-5.01,13.23-13.44,12.56-16.52-.15-.68-.27-1.19-.38-1.57-.09-.02-.18-.05-.26-.08-.63-.26-1.01-.92-.91-1.6.14-.94.57-1.47,1.06-1.73,3.85-5.31,9.12-13.82,8.89-17.09-.26-3.69-1.48-5.49-4.13-9.43-.85-1.26-1.81-2.68-2.91-4.43-.44-.7-.23-1.63.47-2.07.7-.44,1.63-.23,2.07.47,1.08,1.71,2.03,3.11,2.86,4.36,2.69,3.99,4.32,6.4,4.64,10.89.35,4.88-6.49,14.95-9.24,18.77.3.75.54,1.74.78,2.89,1.27,5.88-11.02,17.19-13.5,19.4-.29.25-.64.38-1,.38Z"/>
  <path class="cls-1" d="m503.1,422.54c-.32,0-.63-.1-.9-.3-1.62-1.22-15.83-11.98-17.39-13.54-1.44-1.44-1.21-3.75-.86-7.25.2-1.94.42-4.15.42-6.7,0-2.99-.57-3.13-2.95-3.68-1.56-.37-3.71-.87-6-2.5-5.58-3.98-8.59-14.19-11.69-26.12-2.1-8.09,3.72-10.76,7.57-12.53,1.59-.73,3.24-1.49,3.65-2.3.37-.74,1.27-1.04,2.01-.67.74.37,1.04,1.27.67,2.01-.88,1.76-2.92,2.69-5.08,3.69-4.59,2.11-7.29,3.78-5.92,9.05,2.27,8.76,5.38,20.76,10.53,24.43,1.8,1.29,3.47,1.68,4.94,2.02,2.59.61,5.27,1.23,5.27,6.6,0,2.7-.24,5.08-.43,7-.2,1.96-.44,4.4,0,4.83,1.07,1.07,10.8,8.52,17.08,13.27.66.5.79,1.44.29,2.1-.29.39-.74.6-1.2.6Z"/>
  <path class="cls-1" d="m622.66,441.95c-2.06,0-3.29-1.1-4.49-2.43-.7-.77-1.25-1.39-2.17-1.64-3.49-.96-15.67-1.58-21.83,1-6.78,2.84-12.76,2.02-26.82-.29-3.9-.64-5.84-.92-6.87-1.07-1.22-.18-1.38-.2-1.91-.44-.36-.17-1.33-.61-6.01-1.98-.79-.23-1.25-1.07-1.02-1.86s1.07-1.25,1.86-1.02c4.88,1.43,5.91,1.9,6.4,2.12l.11.05c.08.02.46.08.98.15,1.04.15,2.99.44,6.92,1.08,14.06,2.31,19.22,2.98,25.18.48,6.86-2.87,19.88-2.2,23.78-1.13,1.77.48,2.79,1.62,3.61,2.52,1.28,1.42,1.99,2.21,5.73.35,1.88-.93,3.99-1.81,6.02-2.66,5.71-2.38,11.61-4.83,12.47-8.39.32-1.32.59-2.45.84-3.53.84-3.57,1.56-6.65,3.64-13.77,1.65-5.65,2.68-9.73,3.59-13.33.57-2.24,1.1-4.35,1.71-6.56.22-.8,1.05-1.27,1.84-1.05.8.22,1.27,1.05,1.05,1.84-.6,2.18-1.13,4.28-1.69,6.5-.92,3.62-1.95,7.73-3.62,13.43-2.05,7.04-2.73,9.94-3.6,13.62-.25,1.08-.52,2.23-.84,3.55-1.22,5.04-7.84,7.79-14.23,10.45-1.99.83-4.05,1.69-5.84,2.58-2.02,1-3.56,1.41-4.81,1.41Z"/>
  <path class="cls-1" d="m659.15,363.17c-.64,0-1.23-.41-1.43-1.04-.02-.05-1.67-5.21-3.53-8.06-1.53-2.35-.48-4.69.73-7.41.92-2.06,2.07-4.63,2.57-8.03,1-6.86-2.66-10.47-9.76-14.72-.71-.43-.94-1.35-.51-2.06s1.35-.94,2.06-.51c6.41,3.84,12.54,8.37,11.18,17.73-.55,3.82-1.8,6.6-2.79,8.83-1.16,2.59-1.54,3.66-.96,4.55,2.08,3.2,3.8,8.56,3.88,8.79.25.79-.18,1.63-.97,1.88-.15.05-.3.07-.46.07Z"/>
  <path class="cls-1" d="m449.87,411.43c-.57,0-1.12-.33-1.37-.89-4.19-9.4-12.46-24.87-16.78-26.39-6.02-2.12-3.5-13.3-1.83-20.7.41-1.83.93-4.11.88-4.64-.31-2.16.96-5.31,2.08-8.1.44-1.09.9-2.23,1-2.74.37-1.85,2.23-3.45,5.59-6.34,1.29-1.11,2.76-2.37,4.44-3.9,5.51-5.01,14.18-19.63,14.27-19.78.04-.06.08-.12.13-.18l9.58-11.8c.25-.31.61-.5,1-.55.58-.06,14.36-1.55,17.92-1.19,1.97.19,5.38,1.72,8.99,3.34,2.66,1.19,6.31,2.82,7.33,2.82.91-.1,3.35-3.33,4.81-5.26,1.69-2.24,3.45-4.55,5.28-6.22,5-4.55,10.34-7.58,29.26-1.86.79.24,1.24,1.08,1,1.87-.24.79-1.08,1.24-1.87,1-18.8-5.68-22.82-2.02-26.37,1.21-1.63,1.48-3.3,3.68-4.91,5.81-2.73,3.6-4.88,6.45-7.21,6.45-1.58,0-4.28-1.17-8.55-3.09-3.08-1.38-6.58-2.95-8.06-3.09-2.57-.26-12.39.67-16.69,1.12l-9.12,11.24c-.84,1.41-9.11,15.23-14.78,20.38-1.71,1.56-3.2,2.83-4.51,3.96-2.38,2.05-4.44,3.82-4.61,4.66-.16.79-.6,1.88-1.16,3.27-.83,2.07-2.09,5.19-1.89,6.56.14.96-.2,2.53-.92,5.72-1.17,5.19-3.6,15.97-.1,17.21,6.95,2.44,17.36,25.39,18.52,28,.34.76,0,1.64-.76,1.98-.2.09-.41.13-.61.13Z"/>
  <path class="cls-1" d="m169.91,417.34c-.61,0-1.19-.38-1.41-.98-.29-.78.12-1.64.89-1.92,7.09-2.59,11.74-2.77,16.24-2.93,5.52-.21,10.73-.4,20.34-5.41,12.33-6.44,16.5-11.19,19.53-14.67,1.23-1.41,2.3-2.63,3.64-3.6,4.73-3.44,27.4-3.84,32.17-3,2.1.37,7.32,3.08,15.66,7.48,8.15,4.29,19.31,10.17,21.99,10.17.83,0,1.5.67,1.5,1.5s-.67,1.5-1.5,1.5c-3.19,0-11.33-4.16-23.39-10.51-6.41-3.38-13.04-6.87-14.79-7.18-5.09-.9-26.4-.06-29.88,2.47-1.07.78-1.98,1.82-3.14,3.15-3.01,3.45-7.57,8.65-20.41,15.35-10.21,5.33-16.01,5.54-21.62,5.75-4.27.16-8.68.32-15.32,2.75-.17.06-.34.09-.52.09Z"/>
  <path class="cls-1" d="m371.92,343.27c-.99,0-1.98-.02-3-.04-.99-.02-2.02-.04-3.1-.04-3.6,0-6.13-.79-9.06-1.7-3.02-.93-6.44-1.99-12.16-2.61-.82-.09-1.42-.83-1.33-1.65s.83-1.42,1.65-1.33c6.01.66,9.73,1.81,12.72,2.73,2.81.87,5.04,1.55,8.19,1.56,1.1,0,2.14.02,3.15.04,5.27.1,9.44.17,16.29-2.11,2.65-.88,5.75-2.71,9.04-4.63,7.11-4.17,14.45-8.49,19.84-4.89.69.46.88,1.39.42,2.08s-1.39.88-2.08.42c-3.82-2.55-10.35,1.28-16.66,4.99-3.43,2.01-6.66,3.91-9.61,4.89-5.94,1.98-10.09,2.3-14.29,2.3Z"/>
  <path class="cls-1" d="m168.38,463.3s-.1,0-.15,0c-10.16-.99-12.24-2.28-14.26-4.12-.69-.63-1.29-1.18-2.92-1.74-3.12-1.06-12.52-3.03-32.5,1.62-12.33,2.87-16.62-.73-21.16-4.54-1.83-1.53-3.71-3.11-6.27-4.39-8.58-4.29-30.15-7.25-41.73-8.85l-1.46-.2c-.82-.11-1.39-.87-1.28-1.69.11-.82.87-1.39,1.69-1.28l1.46.2c11.76,1.62,33.64,4.62,42.67,9.13,2.88,1.44,4.99,3.21,6.86,4.78,4.29,3.6,7.69,6.44,18.56,3.91,14.6-3.39,27.04-3.95,34.14-1.53,2.23.76,3.16,1.61,3.98,2.36,1.28,1.17,2.61,2.38,12.53,3.35.82.08,1.43.81,1.35,1.64-.08.78-.73,1.35-1.49,1.35Z"/>
  <path class="cls-1" d="m274.84,269.89c-.16,0-.32-.02-.47-.08-2.08-.69-4.24-1.39-6.48-2.11-2.7-.87-5.52-1.77-8.46-2.76-3-1.01-7.96-1.11-15.47-1.26-5.13-.1-11.52-.23-19.37-.69-16.48-.97-22.96-10.75-27.69-17.9-1.12-1.69-2.18-3.29-3.25-4.6-5.46-6.67-18.85-11.49-28.11-10.11-.83.13-1.58-.44-1.71-1.26-.12-.82.44-1.58,1.26-1.71,10.32-1.54,24.74,3.69,30.87,11.18,1.17,1.42,2.27,3.09,3.43,4.84,4.63,6.99,10.38,15.68,25.37,16.56,7.79.46,14.15.59,19.26.69,7.79.16,12.93.26,16.37,1.41,2.92.98,5.73,1.88,8.42,2.75,2.25.72,4.42,1.42,6.51,2.12.79.26,1.21,1.11.95,1.9-.21.63-.79,1.03-1.42,1.03Z"/>
  <path class="cls-1" d="m215.67,196.72c-.18,0-.37-.03-.54-.1-2.35-.53-28-1.18-34.62-.88-7.07.33-9.43.44-30.97-3.41-11.38-2.03-12.19-2.6-13.53-3.55-.84-.59-2.1-1.48-12.22-3.9-.81-.19-1.3-1-1.11-1.81.19-.8.99-1.31,1.81-1.11,10.67,2.56,12.04,3.52,13.25,4.37.86.61,1.6,1.13,12.33,3.04,21.21,3.79,23.48,3.68,30.24,3.37,4.61-.21,34.19.13,36.08,1.15.73.39,1,1.3.61,2.03-.27.5-.79.79-1.32.79Zm-.71-.18s0,0,0,0c0,0,0,0,0,0Z"/>
  <path class="cls-1" d="m301.68,302.07c-12.09,0-26.22-2.15-32.32-6.14-4.54-2.97-7.68-4.52-11.65-6.48-2.62-1.3-5.59-2.76-9.51-4.91-.73-.4-.99-1.31-.59-2.04.4-.73,1.31-.99,2.04-.59,3.86,2.12,6.8,3.57,9.39,4.85,4.06,2.01,7.27,3.59,11.96,6.66,7.04,4.61,29.12,7.12,42.19,4.8,5.36-.95,8.73-2.85,11.44-4.38,3.78-2.13,6.76-3.81,11.36-.37.66.5.8,1.44.3,2.1-.5.66-1.44.8-2.1.3-3.03-2.27-4.51-1.44-8.09.58-2.75,1.55-6.53,3.68-12.39,4.72-3.4.6-7.58.9-12.04.9Z"/>
  <path class="cls-1" d="m423.94,436.59c-5.55,0-9.75-1.53-11.85-6.97-5.12-13.22-9.95-18.47-16.53-18.19-1.33.06-2.52.12-3.62.18-5.82.29-9.02.45-14.62-.2-1.95-.23-5.11-.2-8.45-.17-10.1.08-17.46-.08-20.07-2.98-.55-.62-.5-1.56.11-2.12.61-.55,1.56-.5,2.12.11,1.91,2.12,11.49,2.04,17.82,1.99,3.58-.03,6.68-.06,8.81.19,5.36.62,8.29.47,14.13.18,1.1-.05,2.3-.11,3.63-.17,10.09-.46,15.32,9.39,19.47,20.11,2.37,6.12,8.38,5.57,19.67,3.98,6.34-.9,13.52-1.91,21.52-1.49,13.44.72,15.94.54,19.11.3,1.9-.14,4.04-.3,8.76-.3.83,0,1.5.67,1.5,1.5s-.67,1.5-1.5,1.5c-4.61,0-6.7.16-8.54.29-3.28.24-5.87.43-19.49-.29-7.71-.41-14.74.58-20.94,1.46-4.04.57-7.77,1.1-11.04,1.1Z"/>
  <path class="cls-1" d="m304.09,362.78c-14.46,0-29.95-7.99-40.6-13.48-3.92-2.02-7.01-3.62-8.85-4.17-2.98-.89-4.95-2.22-6.86-3.51-3.19-2.16-6.49-4.38-15.39-4.85-.83-.04-1.46-.75-1.42-1.58s.72-1.44,1.58-1.42c9.73.51,13.54,3.09,16.91,5.36,1.8,1.21,3.5,2.36,6.04,3.12,2.11.63,5.31,2.28,9.37,4.38,11.59,5.98,29.11,15.01,43.98,12.81,18.35-2.72,21.06-1.92,26.46-.32.75.22,1.56.46,2.49.71.8.21,1.28,1.04,1.06,1.84-.21.8-1.04,1.27-1.84,1.06-.95-.25-1.78-.5-2.56-.73-4.98-1.47-7.48-2.21-25.17.41-1.71.25-3.45.37-5.2.37Z"/>
  <path class="cls-1" d="m502.58,284.81c-.12,0-.24-.01-.37-.04-2.07-.52-4-1.03-5.89-1.54-6.6-1.76-12.3-3.29-21.09-4.17-7.98-.8-10.43-.67-13.27-.51-1.21.07-2.46.13-4.2.13-2.46,0-6.33-.95-11.23-2.16-7.17-1.77-16.09-3.96-24.01-3.96-7.17,0-7.24.14-7.92,1.45-.7,1.35-1.88,3.62-6.08,7-.65.52-1.59.42-2.11-.23s-.42-1.59.23-2.11c3.71-2.98,4.66-4.82,5.29-6.04,1.5-2.9,2.61-3.07,10.58-3.07s17.4,2.25,24.73,4.05c4.52,1.11,8.42,2.07,10.51,2.07,1.66,0,2.87-.07,4.03-.13,2.84-.16,5.53-.3,13.73.52,9.03.9,15.12,2.53,21.57,4.25,1.87.5,3.79,1.01,5.84,1.53.8.2,1.29,1.02,1.09,1.82-.17.68-.78,1.14-1.45,1.14Z"/>
  <path class="cls-1" d="m577.01,250.81c-.13,0-.26-.02-.39-.05-5.13-1.37-22.01-5.94-23.8-7.13-1.53-.88-14.62-2.5-20.38.12-4.83,2.2-7.58,2.19-13.53,2.17-2.3,0-5.16-.02-8.87.09-7.7.23-12.13.06-17.27-.14-3.69-.14-7.88-.31-13.98-.34-3.84-.02-7.1-.19-9.98-.33-8.3-.42-14.31-.73-26.81,2.43-.8.21-1.62-.28-1.82-1.09s.28-1.62,1.09-1.82c12.94-3.27,19.46-2.94,27.7-2.52,2.99.15,6.08.31,9.85.33,6.15.03,10.36.2,14.07.34,5.08.2,9.47.37,17.06.14,3.76-.11,6.65-.1,8.97-.1,5.85.02,8.05.03,12.28-1.9,6.6-3,20.89-1.47,23.28.12,1.23.72,12.72,4.01,22.91,6.73.8.21,1.28,1.04,1.06,1.84-.18.67-.79,1.11-1.45,1.11Z"/>
  <path class="cls-1" d="m559.37,275.17c-.25,0-.5-.06-.73-.19l-7.78-4.34c-1.55-.18-9.04-1.05-19.01-2.06-.82-.08-1.42-.82-1.34-1.64.08-.82.83-1.41,1.64-1.34,11.19,1.14,19.28,2.09,19.36,2.1.19.02.38.08.55.18l8.04,4.49c.72.4.98,1.32.58,2.04-.27.49-.79.77-1.31.77Z"/>
  <path class="cls-1" d="m463.38,217.95c-2.73,0-23.58-6.25-33.56-10.95-9.75-4.58-26.96.18-34.01,3.74-8.43,4.27-32.61,4.64-51.4,4.21-.83-.02-1.48-.71-1.46-1.54.02-.83.7-1.48,1.54-1.46,26.08.61,43.83-.77,49.97-3.88,6.74-3.41,25.33-9.1,36.64-3.78,10.28,4.83,30.18,10.6,32.22,10.66,1.24-.09,12.63-2.03,18.1-2.95,1.57-.27,2.83-.48,3.53-.6,3.29-.55,10.04-2.76,10.11-2.78.23-.08.47-.09.7-.06.14.02,14.09,2.24,17.48,2.24.83,0,1.5.67,1.5,1.5s-.67,1.5-1.5,1.5c-3.34,0-15.32-1.86-17.6-2.22-1.47.47-7.1,2.26-10.21,2.78-.7.12-1.96.33-3.53.6-8.6,1.46-17.11,2.89-18.44,2.99-.03,0-.06,0-.1,0Z"/>
  <path class="cls-1" d="m334.34,250.14c-.21,0-.41,0-.61-.02-.74-.05-1.98-.11-3.6-.19-12.08-.62-44.16-2.25-52.83-6.06-9.15-4.03-15.14-6.38-31.71-7.92-.83-.08-1.43-.81-1.35-1.63.08-.83.82-1.45,1.63-1.35,17.03,1.58,23.2,4.01,32.64,8.16,8.16,3.59,40.98,5.26,51.77,5.81,1.64.08,2.89.15,3.64.19,4.67.27,14.86-4.21,18.38-5.97.25-.12.52-.17.79-.15.66.05,16.25,1.32,22.4,2.59,4.45.92,11.11-3.45,13.31-5.21.64-.52,1.59-.42,2.11.23.52.65.42,1.59-.23,2.11-.37.29-9.06,7.21-15.8,5.81-5.43-1.12-19.07-2.29-21.62-2.5-2.19,1.07-12.87,6.11-18.92,6.11Z"/>
  <path class="cls-1" d="m298.97,205.01c-.1,0-.21,0-.31-.03-.4-.08-9.74-2.04-14.25-3.73-3.02-1.13-5.98-.88-11.36-.41-1.88.16-4.02.35-6.54.51-.81.05-1.54-.58-1.59-1.4-.05-.83.58-1.54,1.4-1.59,2.49-.16,4.61-.34,6.47-.5,5.62-.49,9.01-.78,12.67.59,4.3,1.61,13.72,3.59,13.81,3.61.81.17,1.33.96,1.16,1.78-.15.71-.77,1.19-1.47,1.19Z"/>
  <path class="cls-1" d="m277.01,328.5c-.13,0-.27-.02-.4-.05l-2.16-.6c-.29-.08-.56-.25-.75-.49l-8.42-10.11c-.37-.45-.45-1.07-.21-1.6.25-.53.78-.86,1.36-.86h9.56c.83,0,1.5.67,1.5,1.5s-.67,1.5-1.5,1.5h-6.36l6.08,7.29,1.71.48c.8.22,1.27,1.05,1.04,1.85-.18.66-.79,1.1-1.44,1.1Z"/>
  <path class="cls-1" d="m302.8,335.66c-.13,0-.27-.02-.4-.05l-20.55-5.7c-.8-.22-1.27-1.05-1.04-1.85s1.04-1.27,1.85-1.04l19.5,5.41,4.18-6.35-15.88-4.92c-.79-.25-1.23-1.08-.99-1.88.25-.79,1.08-1.24,1.88-.99l17.79,5.51c.45.14.81.48.97.93.16.44.1.94-.16,1.33l-5.87,8.93c-.28.43-.76.68-1.25.68Z"/>
  <path class="cls-1" d="m278.8,332.67c-.09,0-.19,0-.28-.03-.49-.09-.9-.42-1.1-.88l-5.36-12.46c-.25-.58-.11-1.25.34-1.68l16.6-15.83c.38-.37.93-.5,1.44-.36.51.14.91.54,1.04,1.05l3.63,13.41c.14.52,0,1.07-.39,1.45l-14.86,14.88c-.28.29-.67.44-1.06.44Zm-3.57-13.59l4.08,9.46,12.69-12.7-2.74-10.14-14.02,13.37Z"/>
  <path class="cls-1" d="m372.17,448.23c-.09,0-.19,0-.28-.03-.49-.09-.9-.42-1.1-.88l-5.36-12.46c-.25-.58-.11-1.25.34-1.68l16.6-15.83c.38-.37.93-.5,1.44-.36.51.14.91.54,1.04,1.05l3.63,13.41c.14.52,0,1.07-.39,1.45l-14.86,14.88c-.28.29-.67.44-1.06.44Zm-3.57-13.59l4.07,9.46,12.69-12.7-2.74-10.14-14.02,13.37Z"/>
  <path class="cls-1" d="m313.53,339.48c-.14,0-.29-.02-.43-.06-.28-.08-.65-.21-1.06-.36-1.36-.48-3.4-1.19-4.93-1.11-.87.04-1.54-.59-1.58-1.42-.05-.83.59-1.53,1.42-1.58,2.1-.11,4.51.72,6.09,1.28.37.13.68.24.93.32.79.24,1.24,1.07,1.01,1.87-.19.65-.79,1.07-1.44,1.07Z"/>
  <path class="cls-1" d="m323.1,335.66c-.11,0-.21-.01-.32-.04-.43-.09-4.25-.94-5.6-1.48-.06-.02-6.05-2.77-6.05-4.71,0-.83.67-1.5,1.5-1.5.54,0,1.02.29,1.28.72.65.58,3.4,2.31,4.38,2.71.95.38,4.02,1.09,5.13,1.33.81.18,1.32.98,1.14,1.79-.15.7-.77,1.18-1.46,1.18Zm-8.97-6.23h0,0Z"/>
  <path class="cls-1" d="m302.16,339.48c-.14,0-.28-.02-.42-.06l-26.68-7.79c-.34-.1-.64-.32-.84-.62l-9.06-13.91c-.45-.69-.26-1.62.44-2.08.69-.45,1.62-.26,2.08.44l8.76,13.44,24.53,7.16.36-2.16c.14-.82.9-1.37,1.73-1.23.82.14,1.37.91,1.23,1.73l-.64,3.83c-.07.42-.32.79-.68,1.02-.24.15-.52.23-.8.23Z"/>
  <path class="cls-1" d="m302.16,339.48c-.32,0-.64-.1-.91-.31-.66-.5-.78-1.45-.28-2.1l5.62-7.34.59-4.7c.1-.82.85-1.4,1.67-1.3.82.1,1.4.85,1.3,1.67l-.64,5.1c-.03.26-.14.51-.3.73l-5.87,7.66c-.29.38-.74.59-1.19.59Z"/>
  <path class="cls-1" d="m369.32,442.05c-.18,0-.37-.03-.55-.1l-11.09-4.33c-.45-.17-.78-.55-.9-1.01-.12-.46-.02-.95.28-1.33l8.14-10.13c.42-.52,1.13-.7,1.75-.45l6.3,2.62c.76.32,1.13,1.2.81,1.96-.32.76-1.19,1.13-1.96.81l-5.26-2.19-6.15,7.66,9.19,3.59c.77.3,1.15,1.17.85,1.94-.23.59-.8.95-1.4.95Z"/>
  <path class="cls-1" d="m387.15,449.02c-.19,0-.37-.04-.55-.1l-11.34-4.43c-.77-.3-1.15-1.17-.85-1.94.3-.77,1.17-1.15,1.94-.85l11.03,4.31,10.95-.71-6.6-7.02-6.92-2.88c-.76-.32-1.13-1.2-.81-1.96.32-.76,1.2-1.13,1.96-.81l7.22,3c.2.08.37.2.52.36l9,9.57c.4.42.52,1.04.3,1.58s-.72.91-1.3.95l-14.46.94s-.06,0-.1,0Z"/>
  <path class="cls-1" d="m386.67,453.25c-.19,0-.38-.04-.56-.11l-27-10.92c-.42-.17-.74-.52-.87-.94l-1.44-4.62c-.25-.79.2-1.63.99-1.88.79-.24,1.63.2,1.88.99l1.23,3.94,25.88,10.46,15.28-4.1c.33-.09.68-.06,1,.08l5.23,2.32c.76.33,1.1,1.22.76,1.98-.33.76-1.22,1.1-1.98.76l-4.75-2.1-15.25,4.09c-.13.04-.26.05-.39.05Z"/>
  <path class="cls-1" d="m267.03,318.52c-.27,0-.54-.07-.78-.22l-8.66-5.27c-.71-.43-.93-1.35-.5-2.06.43-.71,1.35-.93,2.06-.5l8.66,5.27c.71.43.93,1.35.5,2.06-.28.46-.78.72-1.28.72Z"/>
  <path class="cls-1" d="m288.06,328.63c-.64,0-1.24-.42-1.43-1.06l-7.08-23.23c-.24-.79.21-1.63,1-1.87.79-.24,1.63.2,1.87,1l7.08,23.23c.24.79-.21,1.63-1,1.87-.15.04-.29.07-.44.07Z"/>
  <path class="cls-1" d="m374.74,428.2c-.67,0-1.29-.46-1.46-1.14l-2.05-8.27c-.2-.8.29-1.62,1.09-1.82.81-.2,1.62.29,1.82,1.09l2.05,8.27c.2.8-.29,1.62-1.09,1.82-.12.03-.24.04-.36.04Z"/>
  <path class="cls-1" d="m381.11,444.89c-.71,0-1.34-.5-1.47-1.23l-.64-3.45c-.15-.81.39-1.6,1.2-1.75.81-.16,1.6.39,1.75,1.2l.64,3.45c.15.81-.39,1.6-1.2,1.75-.09.02-.18.03-.28.03Z"/>
</svg>
