<?xml version="1.0" encoding="UTF-8"?>
<svg id="Layer_1" data-name="Layer 1" xmlns="http://www.w3.org/2000/svg" viewBox="0 0 210.74 216.68">
    <style>
        :root { fill:#222 }
        .accent { fill: #f9322c; }

        @media (prefers-color-scheme: dark) {
        :root {  fill: #f9322c; }
        .accent { fill:#dee2e6; }
        }
    </style>

    <path d="m179.04,179.14c-2.3.07-9.19,2.21-9.19,2.21l-4.92-14.2-5.13-7.28,5.13-5.36s-12.51-50.17-5.13-72.57,14.27-57.64-1.24-63.77c-15.51-6.13-24.47.66-49.4,0-24.93-.66-77.94-7.71-84.06-4.62-6.13,3.09-13.79,6.15-12.64,16.11,1.45,12.57,17.87,14.94,25.69,13.02,7.82-1.91,8.2.54,8.2.54l-10.72,58.05,4.02,4.54-3.45,7.52s-4.98,85.13,11.49,92.16c16.47,7.03,50.15-1.97,67.97-2.35s63.39,1.91,67.6-.57c4.21-2.49-1.91-23.5-4.21-23.43Zm-102.88-48.43h-11.47l17.83-24.9-17.83-24.9h11.47l17.83,24.9-17.83,24.9Zm58.34,0h-37.68v-10.05h37.68v10.05Z" class="accent"/>
  <g>
    <path d="m58.87,207c-.7,0-1.41-.08-2.13-.26-6.27-1.57-10.74-9.8-13.65-25.18-4.26-22.47-3.73-71.46-3.73-71.95s.25-.95.66-1.22l4.35-2.95-5.3-2.3c-.56-.24-.91-.79-.9-1.4,0-.6.28-14.76,5.4-27.15,3.99-9.66,5.54-36.35.9-49.91h-10.5c2.65,2.35,3.99,5.28,3.69,8.36-.37,3.81-3.25,6.97-7.16,7.88-4.45,1.03-9.21-.13-12.44-3.03-2.99-2.69-4.34-6.6-3.8-11.01.67-5.49,5.25-10.87,11.38-13.39,5.88-2.41,11.92-1.69,16.54,1.98,1.89,1.5,3.4,3.94,4.59,7.02.05.09.08.19.11.29,5.41,14.41,3.88,42.21-.55,52.95-4.14,10.03-4.97,21.64-5.13,25.06l6.87,2.98c.5.22.85.69.9,1.24.05.55-.2,1.08-.65,1.38l-5.97,4.04c-.05,6.38-.23,49.94,3.68,70.57,3.29,17.33,8.03,21.98,11.43,22.83,4.7,1.17,9.56-4.12,11.43-6.45,1.69-2.1,2.39-4.42,2.02-6.72-.12.03-.24.05-.36.05l-15.83.44c-.43.04-.86-.17-1.15-.49-.29-.33-.43-.76-.38-1.2.11-.87,1.21-8.55,5.69-10.74,1.34-.66,3.56-1.07,6.5.68,4.81,2.86,7.73,6.51,8.46,10.55.58,3.23-.32,6.45-2.61,9.3-2.45,3.05-7.08,7.74-12.37,7.74Zm2.5-25.84c-.42,0-.8.09-1.17.26-1.99.97-3.16,4.32-3.71,6.68l13.38-.38c-1.18-2.11-3.24-4.08-6.03-5.74-.93-.55-1.75-.83-2.48-.83ZM32.47,15.12c-1.86,0-3.78.39-5.69,1.17-5.08,2.08-9.01,6.6-9.54,10.97-.54,4.37,1.24,6.99,2.82,8.41,2.47,2.22,6.3,3.14,9.76,2.33,2.66-.62,4.61-2.73,4.86-5.25.31-3.19-2.12-6.25-6.49-8.21-.65-.29-1-.99-.86-1.68s.76-1.19,1.47-1.19h14.44c-.83-1.64-1.79-2.96-2.91-3.84-2.28-1.81-4.99-2.73-7.85-2.73Z"/>
    <path d="m48.51,41.28h-20.74c-.83,0-1.5-.67-1.5-1.5s.67-1.5,1.5-1.5h20.74c.83,0,1.5.67,1.5,1.5s-.67,1.5-1.5,1.5Z"/>
    <path d="m175.87,182.84c-.61,0-1.19-.38-1.41-.99l-5.81-15.97-7.7-1.23c-.6-.1-1.08-.54-1.22-1.13s.09-1.21.58-1.56l7.08-5.13c-.66-5.86-4.37-39.81-4.19-62.98.15-19.97,4.07-35.36,6.66-45.54.73-2.86,1.36-5.34,1.74-7.31,1.11-5.69-.65-13.1-4.19-17.64-2.2-2.81-4.84-4.32-7.85-4.48-4.06-.21-11.45.81-19.28,1.89-11.87,1.63-25.32,3.48-32.74,1.93-12.75-2.67-54.47-8.32-75.38-7.6-.84.03-1.52-.62-1.55-1.45-.03-.83.62-1.52,1.45-1.55,21.16-.73,63.24,4.96,76.1,7.66,6.92,1.45,20.09-.36,31.72-1.96,8.32-1.15,15.51-2.13,19.84-1.91,3.86.2,7.34,2.15,10.06,5.63,4.09,5.24,6.05,13.49,4.77,20.06-.4,2.05-1.04,4.56-1.78,7.47-2.55,10.04-6.42,25.22-6.56,44.82-.19,25.12,4.23,63.1,4.27,63.48.06.54-.17,1.07-.61,1.39l-4.86,3.52,4.99.8c.54.09.99.46,1.17.97l6.12,16.8c.28.78-.12,1.64-.9,1.92-.17.06-.34.09-.51.09Z"/>
    <path d="m97.36,209.81c-18.37,0-37.44-2.01-40.98-3.1-.79-.24-1.24-1.08-1-1.87.24-.79,1.08-1.24,1.87-1,4.86,1.49,42.74,4.9,62.78,1.46,9.23-1.58,22.55-1.12,35.42-.68,14.79.51,30.09,1.04,33.76-2.1,4.22-3.61,2.02-13.39-1.35-18.54-1.31-2-3.2-3.89-4.61-3.22-6.49,3.15-49.1,9.25-63.32,7.64-4.3-.48-9.08-1.5-14.6-2.67-12.08-2.56-27.11-5.74-44.35-4.57-.8.07-1.54-.57-1.6-1.39s.57-1.54,1.39-1.6c17.67-1.21,32.92,2.03,45.17,4.62,5.45,1.15,10.16,2.15,14.32,2.62,13.46,1.52,55.55-4.39,61.68-7.36,2.72-1.32,5.79.24,8.43,4.27,3.97,6.06,6.53,17.55.79,22.46-4.56,3.9-19.04,3.4-35.81,2.82-12.72-.44-25.88-.89-34.81.64-6.55,1.12-14.8,1.54-23.19,1.54Z"/>
    <path d="m79.9,188.67h-7.93c-.83,0-1.5-.67-1.5-1.5s.67-1.5,1.5-1.5h7.93c.83,0,1.5.67,1.5,1.5s-.67,1.5-1.5,1.5Z"/>
    <path d="m78.44,196.92h-6.64c-.83,0-1.5-.67-1.5-1.5s.67-1.5,1.5-1.5h6.64c.83,0,1.5.67,1.5,1.5s-.67,1.5-1.5,1.5Z"/>
    <path d="m192.53,200.09h-24.31c-.83,0-1.5-.67-1.5-1.5s.67-1.5,1.5-1.5h24.31c.83,0,1.5.67,1.5,1.5s-.67,1.5-1.5,1.5Z"/>
    <path d="m191.51,192.49h-7.01c-.83,0-1.5-.67-1.5-1.5s.67-1.5,1.5-1.5h7.01c.83,0,1.5.67,1.5,1.5s-.67,1.5-1.5,1.5Z"/>
  </g>
  <path d="m70.16,50.58h-20.93c-.83,0-1.5-.67-1.5-1.5s.67-1.5,1.5-1.5h20.93c.83,0,1.5.67,1.5,1.5s-.67,1.5-1.5,1.5Z"/>
  <path d="m172.48,32.06h-16.55c-.83,0-1.5-.67-1.5-1.5s.67-1.5,1.5-1.5h16.55c.83,0,1.5.67,1.5,1.5s-.67,1.5-1.5,1.5Z"/>
  <path d="m164.21,98.94h-20.35c-.83,0-1.5-.67-1.5-1.5s.67-1.5,1.5-1.5h20.35c.83,0,1.5.67,1.5,1.5s-.67,1.5-1.5,1.5Z"/>
  <path d="m164.93,108.6h-10.26c-.83,0-1.5-.67-1.5-1.5s.67-1.5,1.5-1.5h10.26c.83,0,1.5.67,1.5,1.5s-.67,1.5-1.5,1.5Z"/>
  <path d="m115.65,199.65c-.82,0-1.49-.66-1.5-1.49,0-.83.66-1.51,1.49-1.51,4.21-.04,11.33-.77,17.61-1.42,5.18-.53,9.28-.94,10.98-.92.83.02,1.49.7,1.47,1.53-.02.83-.71,1.5-1.53,1.47-1.54-.04-5.94.42-10.61.9-6.35.65-13.54,1.39-17.89,1.43h-.01Z"/>
  <path d="m78.45,129.92h-11.47c-.56,0-1.08-.31-1.33-.81s-.21-1.1.11-1.56l17.2-24.02-17.2-24.02c-.33-.46-.37-1.06-.11-1.56s.77-.81,1.33-.81h11.47c.48,0,.94.23,1.22.63l17.83,24.9c.37.52.37,1.22,0,1.75l-17.83,24.9c-.28.39-.74.63-1.22.63Zm-8.56-3h7.79l16.75-23.4-16.75-23.4h-7.79l16.13,22.52c.37.52.37,1.22,0,1.75l-16.13,22.52Z"/>
  <path d="m136.84,129.92h-37.67c-.83,0-1.5-.67-1.5-1.5v-10.05c0-.83.67-1.5,1.5-1.5h37.67c.83,0,1.5.67,1.5,1.5v10.05c0,.83-.67,1.5-1.5,1.5Zm-36.17-3h34.67v-7.05h-34.67v7.05Z"/>
</svg>
