<svg fill="none" height="160" viewBox="0 0 115 160" width="115" xmlns="http://www.w3.org/2000/svg" xmlns:xlink="http://www.w3.org/1999/xlink"><clipPath id="a"><path d="m0 0h115v160h-115z"/></clipPath><g clip-path="url(#a)" fill="#ff3939" opacity=".4"><path d="m55.7097 159.449c-26.02 0-52.35003-12.26-52.35003-35.7 0-8.38 1.8-14.33 3.38-19.58 2.75-9.1 4.92003-16.2801-3.22-32.1801-.24-.46-.22-1.02.06-1.47.27-.45.76-.7199 1.28-.7199 5.33003 0 10.85003 3.75 14.51003 6.86-.47-1.97-.85-4.1901-.85-6.2101 0-1.13.14-2.51.3-4.1.55-5.4399 1.31-12.8899-2.84-17.3799-.38-.42-.5-1.01-.3-1.54s.67-.9001 1.23-.97c9.5-1.12 14.8 6.89 16.27 11.28.46 1.39 1.09 2.62 1.7 3.64.55-6.06 2.43-17.48 8.88-26.07 8.82-11.76 24.08-23.74 24.73-24.24.47-.37 1.12-.42 1.64-.14.52.29.83.86.78 1.45-.01.15-1.35 15.18-.49 24.17.9 9.46 3.25 16.2999 5.53 22.93 1.22 3.56 2.42 7.03 3.3 10.71.02-2.4.06-4.6801.42-6.85 1.05-6.27 6.54-11.8301 6.78-12.0601.57-.5699 1.48-.59 2.07-.0499.66.5999 16.1203 14.81 17.1203 33.3.57 10.63-1.63 17.84-3.68 22.13 2.86-1.82 6.21-4.64 7.62-8.39.22-.5801.76-.96 1.38-.97.66 0 1.18.36 1.41.93 4.08 9.83 1.6 23.83-6.3 35.66-10.8503 16.24-29.1903 25.55-50.3403 25.55zm-48.27003-86.3c7.20003 15.28 4.86003 23.01 2.18 31.89-1.6 5.3-3.26 10.77-3.26 18.71 0 21.47 24.83003 32.7 49.35003 32.7 20.13 0 37.57-8.83 47.8403-24.22 6.51-9.74 9.11-20.94 7.07-29.58-4.18 6.13-11.9503 9.15-12.3303 9.29-.65.25-1.39.01-1.78-.57s-.33-1.35.15-1.86c.06-.07 6.8803-7.68 5.9503-24.81-.79-14.55-11.5803-26.65-15.0603-30.1901-1.52 1.7901-4.3 5.5-4.94 9.3301-.36 2.14-.37 4.5399-.38 7.0799-.02 4.11-.05 8.7701-1.64 13.2201-.25.7-.97 1.11-1.69.97s-1.24-.7801-1.22-1.52c.25-9.07-1.99-15.59-4.58-23.14-2.22-6.47-4.75-13.81-5.68-23.62-.63-6.64-.14-16.14.22-21.22-4.83 4.02-15.07 12.94-21.48 21.49-8.39 11.19-8.5 28.27-8.5 28.44 0 .61-.37 1.1499-.93 1.3799s-1.2.1-1.63-.33c-.13-.13-3.2-3.24-4.76-7.92-1.04-3.13-4.43-8.5299-10.33-9.25 3 5.35 2.29 12.34 1.8 17.21-.15 1.51-.29 2.8201-.29 3.8001 0 4.56 2.32 10.65 2.35 10.71.26.67 0 1.44-.62 1.82s-1.42.26-1.9-.28c-.08-.09-7.07-7.8101-13.91003-9.54z"/><path d="m30.7802 47.0119c-.34 0-.68-.12-.95-.34-2.43-1.99-3.84-4.69-4.05-7.8-.29-4.22 1.66-8.94 5.37-12.96.47-.51 1.23-.63 1.83-.29.61.34.9 1.04.72 1.71-1.11 4-.82 6.48-.53 8.88.32 2.69.65 5.47-.98 9.82-.17.45-.55.8-1.01.92-.13.04-.26.05-.39.05zm-.88-13.95c-.86 1.91-1.25 3.83-1.13 5.6.1 1.47.55 2.79 1.33 3.93.52-2.34.32-4.08.08-6.02-.13-1.08-.27-2.22-.29-3.51z"/><path d="m88.0006 105.688c-.34 0-.68-.12-.95-.34-1.47-1.2-2.31-2.82-2.44-4.7-.17-2.4596.95-5.1996 3.08-7.5096.47-.51 1.23-.63 1.83-.29s.9 1.04.71 1.71c-.56 2.03-.42 3.24-.27 4.53.18 1.5296.37 3.1196-.57 5.6196-.17.45-.55.8-1.01.92-.13.04-.26.05-.39.05z"/><path d="m3.40981 97.8603c-.34 0-.68-.12-.95-.34-1.459997-1.2-2.309997-2.82-2.439997-4.7-.17-2.46.95-5.2 3.079997-7.51.47-.51 1.23-.63 1.83-.29.61.34.9 1.04.72 1.71-.56 2.03-.42 3.24-.27 4.53.18 1.53.37 3.12-.57 5.62-.17.45-.55.8-1.01.92-.13.04-.26.05-.39.05z"/><path d="m79.67 24.9987c-.05 0-.11 0-.16 0-.51-.05-.96-.36-1.18-.82-1.62-3.25-1.39-6.68-1.15-10.31.25-3.67.51-7.46001-.9-11.92001-.21-.67.07-1.399998.69-1.749998.61-.35 1.39-.2300001 1.86.3 4.33 4.819998 8.71 15.570008 2.01 23.950008-.29.36-.72.56-1.17.56zm.71-15.89001c.02 1.75001-.09 3.40001-.2 4.96001-.14 2.13-.28 4.07-.03 5.85 1.65-3.58 1.36-7.45.23-10.80001z"/><path d="m52.3996 76.5887c-.05 0-.11 0-.16 0-.51-.05-.96-.36-1.18-.82-1.35-2.71-1.16-5.52-.96-8.51.2-2.95.41-6-.72-9.56-.21-.67.07-1.4.69-1.75.61-.35 1.39-.23 1.86.3 4.48 4.98 6.58 13.61 1.64 19.79-.29.36-.72.56-1.17.56zm.82-11.16c-.03.69-.08 1.37-.12 2.02-.09 1.27-.16 2.42-.13 3.48.58-1.83.59-3.72.25-5.5z"/><path d="m109.011 81.7296c-.32 0-.63-.1-.9-.3-1.03-.78-2.52-3.02-1.52-6.5.88-3.09.45-7.21.44-7.25-.07-.62.26-1.22.82-1.51.56-.28 1.24-.18 1.7.24 2.62 2.45 3.92 5.1 3.87 7.87-.09 4.17-3.29 6.96-3.42 7.08-.28.24-.63.36-.98.36zm1.06-9.51c-.09 1.16-.27 2.39-.59 3.54-.22.76-.25 1.37-.19 1.84.56-.86 1.11-2.04 1.13-3.39.01-.66-.1-1.33-.34-1.99z"/><path d="m93.0594 45.0505c-.37 0-.74-.14-1.02-.4-2.62-2.45-3.92-5.1-3.87-7.87.09-4.17 3.29-6.96 3.42-7.08.54-.46 1.32-.48 1.88-.06 1.03.78 2.52 3.02 1.52 6.5-.88 3.09-.44 7.21-.44 7.25.07.62-.26 1.22-.82 1.51-.21.11-.44.16-.67.16zm-.76-11.58c-.56.86-1.11 2.04-1.13 3.39-.01.66.1 1.33.34 1.99.09-1.16.27-2.39.59-3.54.22-.76.25-1.36.19-1.84z"/><path d="m61.4901 114.489c-.37 0-.74-.14-1.02-.4-2.14-2-3.2001-4.16-3.1501-6.45.07-3.43 2.7001-5.72 2.8101-5.81.54-.46 1.3199-.48 1.8799-.06.88.66 2.15 2.55 1.31 5.47-.68 2.37-.34 5.56-.34 5.59.07.62-.26 1.22-.82 1.5-.21.11-.4399.16-.6699.16z"/><path d="m52.5997 156.129c-23.37 0-29.2-15.24-30.43-19.92-1.4-5.33-.05-9.37 1.27-13.27.93-2.76 1.81-5.37 1.81-8.51 0-7.48-2.89-12.57-2.92-12.62-.27-.46-.27-1.04 0-1.5.27-.4596.76-.7496 1.3-.7496 3.02 0 9.17 1.6296 10.81 7.7996.43 1.6.9 2.86 1.37 3.84.12-4.57 1.01-11.5296 4.85-16.8196 5.47-7.53 5.99-13.44 5.99-13.5.06-.8.75-1.42 1.55-1.38.8.03 1.44.69 1.44 1.5 0 .53.14 5.19 3.85 5.19.72 0 1.65-.1 2.03-.57.29-.36.54-1.24.07-3.42-1.55-7.21 2.37-11.46 6.94-12.48.63-.14 1.27.14 1.61.68s.28 1.25-.13 1.74c-3.04 3.65-2.46 8.02 1.83 13.75 6.18 8.26 5.37 17.3896 4.52 27.0696-.07.82-.15 1.65-.21 2.49-.42 5.05-.33 8.35-.14 10.38 2.89-3.67 7.86-11.57 6.96-21.51-.05-.6.26-1.18.79-1.46.54-.28 1.19-.22 1.65.16 10.27 8.4 12.08 26.3 9.41 35.47-2.35 8.05-10.54 17.65-36.22 17.65zm-26.46-53.18c.95 2.45 2.1 6.46 2.1 11.48 0 3.63-1 6.6-1.96 9.47-1.23 3.65-2.38 7.09-1.21 11.55 1.09 4.15 6.3 17.68 27.53 17.68 13.15 0 29.6-2.69 33.34-15.49 2.24-7.68.86-21.69-5.88-29.77-.49 13.16-9.5 21.95-9.92 22.35-.36.34-.86.49-1.34.39s-.88-.43-1.08-.88c-.15-.35-1.46-3.78-.56-14.54.07-.84.14-1.68.22-2.5.84-9.48 1.56-17.6696-3.94-25.0096-1.45-1.94-5.18-6.92-4.21-12.35-.91 1.45-1.29 3.49-.71 6.23.37 1.73.7 4.23-.67 5.93-.91 1.13-2.34 1.68-4.36 1.68-2.5 0-4.15-1.14-5.2-2.64-.94 2.59-2.53 5.92-5.21 9.61-5.43 7.4696-4.16 19.3396-4.15 19.4596.06.55-.18 1.08-.63 1.4s-1.04.36-1.53.11c-.34-.17-3.33-1.85-5.24-8.98-.87-3.26-3.42-4.61-5.4-5.17z"/><path d="m32.9797 100.058c-.25 0-.5-.0597-.73-.1897-.61-.34-.91-1.07-.71-1.74.69-2.3.39-4.14.07-6.07-.3-1.81-.61-3.68-.09-5.87.12-.52.51-.93 1.02-1.09.51-.15 1.06-.03 1.45.33 2.81 2.58 4.79 8.86.11 14.13-.29.33-.7.4997-1.12.4997z"/><path d="m53.62 152.138c-10.76 0-15.68-5.64-16.62-10.47-.75-3.83-.12-6.02.44-7.96.52-1.81.96-3.37.4-6.36-.09-.51.08-1.03.46-1.38s.91-.48 1.41-.35c4.11 1.09 6 3.39 6.88 5.24.57-1.14.91-3.17-.13-6.7-1.27-4.33-1-8.04.82-11.01 2.73-4.48 7.95-5.52 8.17-5.56.59-.11 1.2.14 1.54.65.33.51.33 1.17-.02 1.67-1.34 1.95-4.26 7.67-1.75 10.73.63.77 1.2 1.15 1.73 1.07 1.17-.13 2.49-2.04 2.92-2.89.27-.55.82-.87 1.46-.82.61.05 1.13.46 1.31 1.05.14.45 3.05 9.89 1.04 16.45 1.92-.44 2.91-1.18 2.92-1.19.44-.34 1.04-.41 1.54-.18s.85.72.88 1.27c.02.31.36 7.57-4.27 12.47-2.68 2.83-6.42 4.26-11.11 4.26zm-12.53-22.77c.08 2.21-.36 3.76-.76 5.17-.53 1.85-.98 3.44-.38 6.56.72 3.71 4.74 8.04 13.67 8.04 3.84 0 6.84-1.12 8.93-3.33 2.29-2.42 3.07-5.66 3.33-7.84-1.16.42-2.71.78-4.64.85-.56.04-1.09-.28-1.36-.76-.28-.49-.25-1.09.06-1.56 2.14-3.25 1.46-9.42.59-13.54-.86.85-1.96 1.61-3.26 1.75-1.09.12-2.75-.15-4.39-2.15-2.6-3.18-1.7-7.42-.45-10.46-.95.63-1.91 1.49-2.62 2.65-1.34 2.22-1.51 5.1-.48 8.58 2.82 9.58-2.77 11.63-3.01 11.71-.45.15-.94.09-1.33-.18s-.63-.7-.65-1.18c0-.12-.21-2.68-3.24-4.31z"/><path d="m18.3096 140.649c-.47 0-.93-.22-1.22-.63-2.65-3.71-3.19-9.3-3.21-9.54-.07-.82.53-1.55 1.36-1.63.81-.07 1.55.53 1.63 1.36 0 .05.49 5.03 2.66 8.07.48.67.33 1.61-.35 2.09-.26.19-.57.28-.87.28z"/><path d="m17.5702 116.44c-.18 0-.35-.03-.53-.1-.78-.29-1.17-1.16-.88-1.93 1.27-3.39.69-6.06.68-6.09-.19-.81.3-1.62 1.11-1.81s1.62.3 1.81 1.11c.04.14.82 3.55-.79 7.85-.23.6-.8.97-1.4.97z"/><path d="m16.8403 91.5913c-.77 0-1.43-.59-1.49-1.38 0-.03-.25-2.79-1.56-5.41-.37-.74-.07-1.64.67-2.01s1.64-.07 2.01.67c1.58 3.16 1.85 6.37 1.86 6.51.07.83-.55 1.55-1.37 1.62-.04 0-.08 0-.12 0z"/><path d="m25.4004 69.4987c-.83 0-1.5-.67-1.5-1.5 0-1.17.27-2.38.54-3.55.34-1.51.7-3.08.46-4.52-.14-.82.42-1.59 1.23-1.73.82-.13 1.59.42 1.73 1.23.34 2.02-.1 3.97-.49 5.68-.24 1.05-.46 2.05-.46 2.88s-.67 1.5-1.5 1.5z"/><path d="m40.0696 81.2389c-.63 0-1.21-.4-1.42-1.03-1.04-3.13-1.05-6.68-1.05-6.83 0-.83.67-1.5 1.5-1.5s1.5.67 1.5 1.5c0 .03.01 3.23.9 5.88.26.79-.16 1.63-.95 1.9-.16.05-.32.08-.47.08z"/><path d="m55.2207 46.519c-.83 0-1.5-.67-1.5-1.5 0-3.02 1.29-10.66 5.11-13.71.65-.52 1.59-.41 2.11.24s.41 1.59-.24 2.11c-2.65 2.12-3.99 8.43-3.99 11.37 0 .83-.67 1.5-1.5 1.5z"/><path d="m65.49 64.1196c-.1 0-.2 0-.3-.03-.81-.16-1.34-.95-1.18-1.76 0-.04.82-4.5-1.83-9.79-.37-.74-.07-1.64.67-2.01s1.64-.07 2.01.67c3.13 6.26 2.13 11.5 2.08 11.72-.14.71-.77 1.21-1.47 1.21z"/><path d="m72.3392 87.1016c-.42 0-.84-.18-1.14-.52-.14-.16-3.34-3.97-2.8-9.44.08-.82.81-1.45 1.64-1.34.82.08 1.43.82 1.34 1.64-.42 4.15 2.07 7.16 2.1 7.19.53.63.45 1.58-.17 2.11-.28.24-.63.36-.97.36z"/><path d="m92.3903 71.4617c-.08 0-.17.0001-.25-.0199-.82-.14-1.37-.9101-1.23-1.7301 0-.01.36-2.56-1.33-5.93-.37-.74-.07-1.6399.67-2.0099s1.64-.0701 2.01.6699c2.15 4.3 1.63 7.62 1.61 7.76-.12.73-.76 1.25-1.48 1.25z"/><path d="m86.0909 84.6609c-.33 0-.67-.11-.94-.33-.64-.52-.74-1.47-.22-2.11.07-.09 1.87-2.41 1.07-5.25-.22-.8.24-1.63 1.04-1.85.8-.23 1.63.24 1.85 1.04 1.23 4.37-1.51 7.81-1.63 7.96-.3.37-.73.56-1.17.56z"/><path d="m80.1396 102.741c-.37 0-.75-.14-1.03-.43-.3-.3-1.85-2.08-2.86-7.6397-.15-.82.39-1.6 1.21-1.74.81-.15 1.6.39 1.74 1.21.85 4.66 2.05 6.0797 2.06 6.0897.53.61.5 1.55-.09 2.1-.29.27-.67.41-1.04.41z"/><path d="m96.7896 127.201c-.33 0-.66-.11-.94-.33-.65-.52-.75-1.46-.23-2.11 1.43-1.79 2.75-6.2 3.14-7.74.2-.8 1.02-1.29 1.8204-1.09.8.2 1.29 1.02 1.09 1.82-.16.63-1.61 6.26-3.7104 8.89-.3.37-.73.56-1.17.56z"/><path d="m106.321 116.44c-.23 0-.45-.05-.67-.16-.74-.37-1.04-1.27-.67-2.01.01-.03 1.49-3.06 1.04-6.08-.12-.82.44-1.58 1.26-1.7.81-.14 1.58.44 1.7 1.26.59 3.97-1.25 7.7-1.33 7.86-.26.53-.79.83-1.34.83z"/><path d="m75.2708 139.908c-.44 0-.88-.19-1.17-.56-.52-.65-.41-1.59.23-2.11 2.03-1.62 2.91-4.59 2.92-4.62.23-.79 1.06-1.25 1.86-1.02.79.23 1.25 1.06 1.03 1.85-.05.16-1.14 3.91-3.93 6.14-.28.22-.61.33-.94.33z"/><path d="m82.6093 123.779c-.08 0-.17 0-.25-.02-.82-.14-1.37-.91-1.23-1.73 0-.02.38-2.52-.84-4.95-.37-.74-.07-1.64.67-2.01s1.64-.07 2.01.67c1.67 3.33 1.14 6.65 1.12 6.79-.12.73-.76 1.25-1.48 1.25z"/><path d="m30.2905 124.759c-.23 0-.45-.05-.67-.16-.74-.37-1.04-1.27-.67-2.01.01-.03 1.64-3.4.43-6.63-.29-.78.1-1.64.88-1.93.77-.29 1.64.1 1.93.88 1.68 4.47-.46 8.84-.55 9.02-.26.53-.79.83-1.34.83z"/><path d="m32.24 144.8c-.61 0-1.18-.37-1.4-.97-.06-.17-1.56-4.22-1.53-8.68 0-.83.68-1.49 1.5-1.49.83 0 1.5.68 1.49 1.51-.03 3.89 1.33 7.57 1.34 7.61.29.78-.1 1.64-.88 1.93-.17.06-.35.1-.53.1z"/><path d="m48.3803 100.801c-.23 0-.45-.05-.67-.16-.74-.37-1.04-1.27-.67-2.01.46-.93 1.52-3.76.88-5.58-.28-.78.13-1.64.91-1.92.79-.27 1.64.13 1.92.91 1.18 3.34-.79 7.46-1.02 7.92-.26.53-.79.83-1.34.83z"/><path d="m56.6907 101.281c-.06 0-.12 0-.19-.01-.82-.1-1.4-.85-1.3-1.6697.02-.17.53-4.15 2.22-8.38.31-.77 1.18-1.14 1.95-.84.77.31 1.14 1.18.84 1.95-1.54 3.87-2.02 7.6-2.03 7.64-.09.7597-.74 1.3097-1.49 1.3097z"/></g></svg>