<svg width="115" height="160" viewBox="0 0 115 160" fill="none" xmlns="http://www.w3.org/2000/svg">
<g opacity="0.4" clip-path="url(#clip0_1147_458)">
<path d="M55.7097 159.449C29.6897 159.449 3.35967 147.189 3.35967 123.749C3.35967 115.369 5.15967 109.419 6.73967 104.169C9.48967 95.069 11.6597 87.8889 3.51967 71.9889C3.27967 71.5289 3.29967 70.9689 3.57967 70.5189C3.84967 70.0689 4.33967 69.799 4.85967 69.799C10.1897 69.799 15.7097 73.549 19.3697 76.659C18.8997 74.689 18.5197 72.4689 18.5197 70.4489C18.5197 69.3189 18.6597 67.9389 18.8197 66.3489C19.3697 60.909 20.1297 53.459 15.9797 48.969C15.5997 48.549 15.4797 47.959 15.6797 47.429C15.8797 46.899 16.3497 46.5289 16.9097 46.459C26.4097 45.339 31.7097 53.349 33.1797 57.739C33.6397 59.129 34.2697 60.359 34.8797 61.379C35.4297 55.319 37.3097 43.899 43.7597 35.309C52.5797 23.549 67.8397 11.569 68.4897 11.069C68.9597 10.699 69.6097 10.649 70.1297 10.929C70.6497 11.219 70.9597 11.789 70.9097 12.379C70.8997 12.529 69.5597 27.559 70.4197 36.549C71.3197 46.009 73.6697 52.8489 75.9497 59.479C77.1697 63.039 78.3697 66.509 79.2497 70.189C79.2697 67.789 79.3097 65.5089 79.6697 63.339C80.7197 57.069 86.2097 51.5089 86.4497 51.2789C87.0197 50.709 87.9297 50.6889 88.5197 51.229C89.1797 51.8289 104.64 66.039 105.64 84.529C106.21 95.159 104.01 102.369 101.96 106.659C104.82 104.839 108.17 102.019 109.58 98.269C109.8 97.6889 110.34 97.309 110.96 97.299C111.62 97.299 112.14 97.659 112.37 98.229C116.45 108.059 113.97 122.059 106.07 133.889C95.2197 150.129 76.8797 159.439 55.7297 159.439L55.7097 159.449ZM7.43967 73.149C14.6397 88.429 12.2997 96.159 9.61967 105.039C8.01967 110.339 6.35967 115.809 6.35967 123.749C6.35967 145.219 31.1897 156.449 55.7097 156.449C75.8397 156.449 93.2797 147.619 103.55 132.229C110.06 122.489 112.66 111.289 110.62 102.649C106.44 108.779 98.6697 111.799 98.2897 111.939C97.6397 112.189 96.8997 111.949 96.5097 111.369C96.1197 110.789 96.1797 110.019 96.6597 109.509C96.7197 109.439 103.54 101.829 102.61 84.699C101.82 70.149 91.0297 58.049 87.5497 54.5089C86.0297 56.299 83.2497 60.0089 82.6097 63.839C82.2497 65.979 82.2397 68.3789 82.2297 70.9189C82.2097 75.0289 82.1797 79.689 80.5897 84.139C80.3397 84.839 79.6197 85.249 78.8997 85.109C78.1797 84.969 77.6597 84.3289 77.6797 83.589C77.9297 74.519 75.6897 67.999 73.0997 60.449C70.8797 53.979 68.3497 46.639 67.4197 36.829C66.7897 30.189 67.2797 20.689 67.6397 15.609C62.8097 19.629 52.5697 28.549 46.1597 37.099C37.7697 48.289 37.6597 65.369 37.6597 65.539C37.6597 66.149 37.2897 66.6889 36.7297 66.9189C36.1697 67.1489 35.5297 67.0189 35.0997 66.5889C34.9697 66.4589 31.8997 63.3489 30.3397 58.6689C29.2997 55.5389 25.9097 50.139 20.0097 49.4189C23.0097 54.7689 22.2997 61.7589 21.8097 66.6289C21.6597 68.1389 21.5197 69.449 21.5197 70.429C21.5197 74.989 23.8397 81.079 23.8697 81.139C24.1297 81.809 23.8697 82.579 23.2497 82.959C22.6297 83.339 21.8297 83.219 21.3497 82.679C21.2697 82.589 14.2797 74.8689 7.43967 73.139V73.149Z" fill="#FF3939"/>
<path d="M30.7802 47.0119C30.4402 47.0119 30.1002 46.8919 29.8302 46.6719C27.4002 44.6819 25.9902 41.9819 25.7802 38.8719C25.4902 34.6519 27.4402 29.9319 31.1502 25.9119C31.6202 25.4019 32.3802 25.2819 32.9802 25.6219C33.5902 25.9619 33.8802 26.6619 33.7002 27.3319C32.5902 31.3319 32.8802 33.8119 33.1702 36.2119C33.4902 38.9019 33.8202 41.6819 32.1902 46.0319C32.0202 46.4819 31.6402 46.8319 31.1802 46.9519C31.0502 46.9919 30.9202 47.0019 30.7902 47.0019L30.7802 47.0119ZM29.9002 33.0619C29.0402 34.9719 28.6502 36.8919 28.7702 38.6619C28.8702 40.1319 29.3202 41.4519 30.1002 42.5919C30.6202 40.2519 30.4202 38.5119 30.1802 36.5719C30.0502 35.4919 29.9102 34.3519 29.8902 33.0619H29.9002Z" fill="#FF3939"/>
<path d="M88.0006 105.688C87.6606 105.688 87.3206 105.568 87.0506 105.348C85.5806 104.148 84.7406 102.528 84.6106 100.648C84.4406 98.1884 85.5606 95.4484 87.6906 93.1384C88.1606 92.6284 88.9206 92.5084 89.5206 92.8484C90.1206 93.1884 90.4206 93.8884 90.2306 94.5584C89.6706 96.5884 89.8106 97.7984 89.9606 99.0884C90.1406 100.618 90.3306 102.208 89.3906 104.708C89.2206 105.158 88.8406 105.508 88.3806 105.628C88.2506 105.668 88.1206 105.678 87.9906 105.678L88.0006 105.688Z" fill="#FF3939"/>
<path d="M3.40981 97.8603C3.06981 97.8603 2.72981 97.7403 2.45981 97.5203C0.999813 96.3203 0.149813 94.7003 0.019813 92.8203C-0.150187 90.3603 0.969813 87.6203 3.09981 85.3103C3.56981 84.8003 4.32981 84.6803 4.92981 85.0203C5.53981 85.3603 5.82981 86.0603 5.64981 86.7303C5.08981 88.7603 5.22981 89.9703 5.37981 91.2603C5.55981 92.7903 5.74981 94.3803 4.80981 96.8803C4.63981 97.3303 4.25981 97.6803 3.79981 97.8003C3.66981 97.8403 3.53981 97.8503 3.40981 97.8503V97.8603Z" fill="#FF3939"/>
<path d="M79.67 24.9987C79.62 24.9987 79.56 24.9987 79.51 24.9987C79 24.9487 78.55 24.6387 78.33 24.1787C76.71 20.9287 76.94 17.4987 77.18 13.8687C77.43 10.1987 77.69 6.40869 76.28 1.94869C76.07 1.27869 76.35 0.548692 76.97 0.198692C77.58 -0.151308 78.36 -0.0313081 78.83 0.498692C83.16 5.31869 87.54 16.0687 80.84 24.4487C80.55 24.8087 80.12 25.0087 79.67 25.0087V24.9987ZM80.38 9.10869C80.4 10.8587 80.29 12.5087 80.18 14.0687C80.04 16.1987 79.9 18.1387 80.15 19.9187C81.8 16.3387 81.51 12.4687 80.38 9.11869V9.10869Z" fill="#FF3939"/>
<path d="M52.3996 76.5887C52.3496 76.5887 52.2896 76.5887 52.2396 76.5887C51.7296 76.5387 51.2796 76.2287 51.0596 75.7687C49.7096 73.0587 49.8996 70.2487 50.0996 67.2587C50.2996 64.3087 50.5096 61.2587 49.3796 57.6987C49.1696 57.0287 49.4496 56.2987 50.0696 55.9487C50.6796 55.5987 51.4596 55.7187 51.9296 56.2487C56.4096 61.2287 58.5096 69.8587 53.5696 76.0387C53.2796 76.3987 52.8496 76.5987 52.3996 76.5987V76.5887ZM53.2196 65.4287C53.1896 66.1187 53.1396 66.7987 53.0996 67.4487C53.0096 68.7187 52.9396 69.8687 52.9696 70.9287C53.5496 69.0987 53.5596 67.2087 53.2196 65.4287Z" fill="#FF3939"/>
<path d="M109.011 81.7296C108.691 81.7296 108.381 81.6296 108.111 81.4296C107.081 80.6496 105.591 78.4096 106.591 74.9296C107.471 71.8396 107.041 67.7196 107.031 67.6796C106.961 67.0596 107.291 66.4596 107.851 66.1696C108.411 65.8896 109.091 65.9896 109.551 66.4096C112.171 68.8596 113.471 71.5096 113.421 74.2796C113.331 78.4496 110.131 81.2396 110.001 81.3596C109.721 81.5996 109.371 81.7196 109.021 81.7196L109.011 81.7296ZM110.071 72.2196C109.981 73.3796 109.801 74.6096 109.481 75.7596C109.261 76.5196 109.231 77.1296 109.291 77.5996C109.851 76.7396 110.401 75.5596 110.421 74.2096C110.431 73.5496 110.321 72.8796 110.081 72.2196H110.071Z" fill="#FF3939"/>
<path d="M93.0594 45.0505C92.6894 45.0505 92.3194 44.9105 92.0394 44.6505C89.4194 42.2005 88.1194 39.5505 88.1694 36.7805C88.2594 32.6105 91.4594 29.8205 91.5894 29.7005C92.1294 29.2405 92.9094 29.2205 93.4694 29.6405C94.4994 30.4205 95.9894 32.6605 94.9894 36.1405C94.1094 39.2305 94.5494 43.3505 94.5494 43.3905C94.6194 44.0105 94.2894 44.6105 93.7294 44.9005C93.5194 45.0105 93.2894 45.0605 93.0594 45.0605V45.0505ZM92.2994 33.4705C91.7394 34.3305 91.1894 35.5105 91.1694 36.8605C91.1594 37.5205 91.2694 38.1905 91.5094 38.8505C91.5994 37.6905 91.7794 36.4605 92.0994 35.3105C92.3194 34.5505 92.3494 33.9505 92.2894 33.4705H92.2994Z" fill="#FF3939"/>
<path d="M61.4901 114.489C61.1201 114.489 60.7501 114.349 60.4701 114.089C58.3301 112.089 57.27 109.929 57.32 107.639C57.39 104.209 60.0201 101.919 60.1301 101.829C60.6701 101.369 61.45 101.349 62.01 101.769C62.89 102.429 64.16 104.319 63.32 107.239C62.64 109.609 62.98 112.799 62.98 112.829C63.05 113.449 62.72 114.049 62.16 114.329C61.95 114.439 61.7201 114.489 61.4901 114.489Z" fill="#FF3939"/>
<path d="M52.5997 156.129C29.2297 156.129 23.3997 140.889 22.1697 136.209C20.7697 130.879 22.1197 126.839 23.4397 122.939C24.3697 120.179 25.2497 117.569 25.2497 114.429C25.2497 106.949 22.3597 101.859 22.3297 101.809C22.0597 101.349 22.0597 100.769 22.3297 100.309C22.5997 99.8494 23.0897 99.5594 23.6297 99.5594C26.6497 99.5594 32.7997 101.189 34.4397 107.359C34.8697 108.959 35.3397 110.219 35.8097 111.199C35.9297 106.629 36.8197 99.6694 40.6597 94.3794C46.1297 86.8494 46.6497 80.9394 46.6497 80.8794C46.7097 80.0794 47.3997 79.4594 48.1997 79.4994C48.9997 79.5294 49.6397 80.1894 49.6397 80.9994C49.6397 81.5294 49.7797 86.1894 53.4897 86.1894C54.2097 86.1894 55.1397 86.0894 55.5197 85.6194C55.8097 85.2594 56.0597 84.3794 55.5897 82.1994C54.0397 74.9894 57.9597 70.7394 62.5297 69.7194C63.1597 69.5794 63.7997 69.8594 64.1397 70.3994C64.4797 70.9394 64.4197 71.6494 64.0097 72.1394C60.9697 75.7894 61.5497 80.1594 65.8397 85.8894C72.0197 94.1494 71.2097 103.279 70.3597 112.959C70.2897 113.779 70.2097 114.609 70.1497 115.449C69.7297 120.499 69.8197 123.799 70.0097 125.829C72.8997 122.159 77.8697 114.259 76.9697 104.319C76.9197 103.719 77.2297 103.139 77.7597 102.859C78.2997 102.579 78.9497 102.639 79.4097 103.019C89.6797 111.419 91.4897 129.319 88.8197 138.489C86.4697 146.539 78.2797 156.139 52.5997 156.139V156.129ZM26.1397 102.949C27.0897 105.399 28.2397 109.409 28.2397 114.429C28.2397 118.059 27.2397 121.029 26.2797 123.899C25.0497 127.549 23.8997 130.989 25.0697 135.449C26.1597 139.599 31.3697 153.129 52.5997 153.129C65.7497 153.129 82.1997 150.439 85.9397 137.639C88.1797 129.959 86.7997 115.949 80.0597 107.869C79.5697 121.029 70.5597 129.819 70.1397 130.219C69.7797 130.559 69.2797 130.709 68.7997 130.609C68.3197 130.509 67.9197 130.179 67.7197 129.729C67.5697 129.379 66.2597 125.949 67.1597 115.189C67.2297 114.349 67.2997 113.509 67.3797 112.689C68.2197 103.209 68.9397 95.0194 63.4397 87.6794C61.9897 85.7394 58.2597 80.7594 59.2297 75.3294C58.3197 76.7794 57.9397 78.8194 58.5197 81.5594C58.8897 83.2894 59.2197 85.7894 57.8497 87.4894C56.9397 88.6194 55.5097 89.1694 53.4897 89.1694C50.9897 89.1694 49.3397 88.0294 48.2897 86.5294C47.3497 89.1194 45.7597 92.4494 43.0797 96.1394C37.6497 103.609 38.9197 115.479 38.9297 115.599C38.9897 116.149 38.7497 116.679 38.2997 116.999C37.8497 117.319 37.2597 117.359 36.7697 117.109C36.4297 116.939 33.4397 115.259 31.5297 108.129C30.6597 104.869 28.1097 103.519 26.1297 102.959L26.1397 102.949Z" fill="#FF3939"/>
<path d="M32.9797 100.058C32.7297 100.058 32.4797 99.9983 32.2497 99.8683C31.6397 99.5283 31.3397 98.7983 31.5397 98.1283C32.2297 95.8283 31.9297 93.9883 31.6097 92.0583C31.3097 90.2483 30.9997 88.3783 31.5197 86.1883C31.6397 85.6683 32.0297 85.2583 32.5397 85.0983C33.0497 84.9483 33.5997 85.0683 33.9897 85.4283C36.7997 88.0083 38.7797 94.2883 34.0997 99.5583C33.8097 99.8883 33.3997 100.058 32.9797 100.058Z" fill="#FF3939"/>
<path d="M53.62 152.138C42.86 152.138 37.94 146.498 37 141.668C36.25 137.838 36.88 135.648 37.44 133.708C37.96 131.898 38.4 130.338 37.84 127.348C37.75 126.838 37.92 126.318 38.3 125.968C38.68 125.618 39.21 125.488 39.71 125.618C43.82 126.708 45.71 129.008 46.59 130.858C47.16 129.718 47.5 127.688 46.46 124.158C45.19 119.828 45.46 116.118 47.28 113.148C50.01 108.668 55.23 107.628 55.45 107.588C56.04 107.478 56.65 107.728 56.99 108.238C57.32 108.748 57.32 109.408 56.97 109.908C55.63 111.858 52.71 117.578 55.22 120.638C55.85 121.408 56.42 121.788 56.95 121.708C58.12 121.578 59.44 119.668 59.87 118.818C60.14 118.268 60.69 117.948 61.33 117.998C61.94 118.048 62.46 118.458 62.64 119.048C62.78 119.498 65.69 128.938 63.68 135.498C65.6 135.058 66.59 134.318 66.6 134.308C67.04 133.968 67.64 133.898 68.14 134.128C68.64 134.358 68.99 134.848 69.02 135.398C69.04 135.708 69.38 142.968 64.75 147.868C62.07 150.698 58.33 152.128 53.64 152.128L53.62 152.138ZM41.09 129.368C41.17 131.578 40.73 133.128 40.33 134.538C39.8 136.388 39.35 137.978 39.95 141.098C40.67 144.808 44.69 149.138 53.62 149.138C57.46 149.138 60.46 148.018 62.55 145.808C64.84 143.388 65.62 140.148 65.88 137.968C64.72 138.388 63.17 138.748 61.24 138.818C60.68 138.858 60.15 138.538 59.88 138.058C59.6 137.568 59.63 136.968 59.94 136.498C62.08 133.248 61.4 127.078 60.53 122.958C59.67 123.808 58.57 124.568 57.27 124.708C56.18 124.828 54.52 124.558 52.88 122.558C50.28 119.378 51.18 115.138 52.43 112.098C51.48 112.728 50.52 113.588 49.81 114.748C48.47 116.968 48.3 119.848 49.33 123.328C52.15 132.908 46.56 134.958 46.32 135.038C45.87 135.188 45.38 135.128 44.99 134.858C44.6 134.588 44.36 134.158 44.34 133.678C44.34 133.558 44.13 130.998 41.1 129.368H41.09Z" fill="#FF3939"/>
<path d="M18.3096 140.649C17.8396 140.649 17.3796 140.429 17.0896 140.019C14.4396 136.309 13.8996 130.719 13.8796 130.479C13.8096 129.659 14.4096 128.929 15.2396 128.849C16.0496 128.779 16.7896 129.379 16.8696 130.209C16.8696 130.259 17.3596 135.239 19.5296 138.279C20.0096 138.949 19.8596 139.889 19.1796 140.369C18.9196 140.559 18.6096 140.649 18.3096 140.649Z" fill="#FF3939"/>
<path d="M17.5702 116.44C17.3902 116.44 17.2202 116.41 17.0402 116.34C16.2602 116.05 15.8702 115.18 16.1602 114.41C17.4302 111.02 16.8502 108.35 16.8402 108.32C16.6502 107.51 17.1402 106.7 17.9502 106.51C18.7602 106.32 19.5702 106.81 19.7602 107.62C19.8002 107.76 20.5802 111.17 18.9702 115.47C18.7402 116.07 18.1702 116.44 17.5702 116.44Z" fill="#FF3939"/>
<path d="M16.8403 91.5913C16.0703 91.5913 15.4103 91.0013 15.3503 90.2113C15.3503 90.1813 15.1003 87.4213 13.7903 84.8013C13.4203 84.0613 13.7203 83.1613 14.4603 82.7913C15.2003 82.4213 16.1003 82.7213 16.4703 83.4613C18.0503 86.6213 18.3203 89.8313 18.3303 89.9713C18.4003 90.8013 17.7803 91.5213 16.9603 91.5913C16.9203 91.5913 16.8803 91.5913 16.8403 91.5913Z" fill="#FF3939"/>
<path d="M25.4004 69.4987C24.5704 69.4987 23.9004 68.8287 23.9004 67.9987C23.9004 66.8287 24.1704 65.6187 24.4404 64.4487C24.7804 62.9387 25.1404 61.3687 24.9004 59.9287C24.7604 59.1087 25.3204 58.3387 26.1304 58.1987C26.9504 58.0687 27.7204 58.6187 27.8604 59.4287C28.2004 61.4487 27.7604 63.3987 27.3704 65.1087C27.1304 66.1587 26.9104 67.1587 26.9104 67.9887C26.9104 68.8187 26.2404 69.4887 25.4104 69.4887L25.4004 69.4987Z" fill="#FF3939"/>
<path d="M40.0696 81.2389C39.4396 81.2389 38.8596 80.8389 38.6496 80.2089C37.6096 77.0789 37.5996 73.5289 37.5996 73.3789C37.5996 72.5489 38.2696 71.8789 39.0996 71.8789C39.9296 71.8789 40.5996 72.5489 40.5996 73.3789C40.5996 73.4089 40.6096 76.6089 41.4996 79.2589C41.7596 80.0489 41.3396 80.8889 40.5496 81.1589C40.3896 81.2089 40.2296 81.2389 40.0796 81.2389H40.0696Z" fill="#FF3939"/>
<path d="M55.2207 46.519C54.3907 46.519 53.7207 45.849 53.7207 45.019C53.7207 41.999 55.0107 34.359 58.8307 31.309C59.4807 30.789 60.4207 30.899 60.9407 31.549C61.4607 32.199 61.3507 33.139 60.7007 33.659C58.0507 35.779 56.7107 42.089 56.7107 45.029C56.7107 45.859 56.0407 46.529 55.2107 46.529L55.2207 46.519Z" fill="#FF3939"/>
<path d="M65.49 64.1196C65.39 64.1196 65.29 64.1196 65.19 64.0896C64.38 63.9296 63.85 63.1396 64.01 62.3296C64.01 62.2896 64.83 57.8296 62.18 52.5396C61.81 51.7996 62.11 50.8996 62.85 50.5296C63.59 50.1596 64.49 50.4596 64.86 51.1996C67.99 57.4596 66.99 62.6996 66.94 62.9196C66.8 63.6296 66.17 64.1296 65.47 64.1296L65.49 64.1196Z" fill="#FF3939"/>
<path d="M72.3392 87.1016C71.9192 87.1016 71.4992 86.9216 71.1992 86.5816C71.0592 86.4216 67.8592 82.6116 68.3992 77.1416C68.4792 76.3216 69.2092 75.6916 70.0392 75.8016C70.8592 75.8816 71.4692 76.6216 71.3792 77.4416C70.9592 81.5916 73.4492 84.6016 73.4792 84.6316C74.0092 85.2616 73.9292 86.2116 73.3092 86.7416C73.0292 86.9816 72.6792 87.1016 72.3392 87.1016Z" fill="#FF3939"/>
<path d="M92.3903 71.4617C92.3103 71.4617 92.2203 71.4618 92.1403 71.4418C91.3203 71.3018 90.7703 70.5317 90.9103 69.7117C90.9103 69.7017 91.2703 67.1517 89.5803 63.7817C89.2103 63.0417 89.5103 62.1418 90.2503 61.7718C90.9903 61.4018 91.8903 61.7017 92.2603 62.4417C94.4103 66.7417 93.8903 70.0617 93.8703 70.2017C93.7503 70.9317 93.1103 71.4517 92.3903 71.4517V71.4617Z" fill="#FF3939"/>
<path d="M86.0909 84.6609C85.7609 84.6609 85.4209 84.5509 85.1509 84.3309C84.5109 83.8109 84.4109 82.8609 84.9309 82.2209C85.0009 82.1309 86.8009 79.8109 86.0009 76.9709C85.7809 76.1709 86.2409 75.3409 87.0409 75.1209C87.8409 74.8909 88.6709 75.3609 88.8909 76.1609C90.1209 80.5309 87.3809 83.9709 87.2609 84.1209C86.9609 84.4909 86.5309 84.6809 86.0909 84.6809V84.6609Z" fill="#FF3939"/>
<path d="M80.1396 102.741C79.7696 102.741 79.3896 102.601 79.1096 102.311C78.8096 102.011 77.2596 100.231 76.2496 94.6713C76.0996 93.8513 76.6396 93.0713 77.4596 92.9313C78.2696 92.7813 79.0596 93.3213 79.1996 94.1413C80.0496 98.8013 81.2496 100.221 81.2596 100.231C81.7896 100.841 81.7596 101.781 81.1696 102.331C80.8796 102.601 80.4996 102.741 80.1296 102.741H80.1396Z" fill="#FF3939"/>
<path d="M96.7896 127.201C96.4596 127.201 96.1296 127.091 95.8496 126.871C95.1996 126.351 95.0996 125.411 95.6196 124.761C97.0496 122.971 98.3696 118.561 98.7596 117.021C98.9596 116.221 99.7796 115.731 100.58 115.931C101.38 116.131 101.87 116.951 101.67 117.751C101.51 118.381 100.06 124.011 97.9596 126.641C97.6596 127.011 97.2296 127.201 96.7896 127.201Z" fill="#FF3939"/>
<path d="M106.321 116.44C106.091 116.44 105.871 116.39 105.651 116.28C104.911 115.91 104.611 115.01 104.981 114.27C104.991 114.24 106.471 111.21 106.021 108.19C105.901 107.37 106.461 106.61 107.281 106.49C108.091 106.35 108.861 106.93 108.981 107.75C109.571 111.72 107.731 115.45 107.651 115.61C107.391 116.14 106.861 116.44 106.311 116.44H106.321Z" fill="#FF3939"/>
<path d="M75.2708 139.908C74.8308 139.908 74.3908 139.718 74.1008 139.348C73.5808 138.698 73.6908 137.758 74.3308 137.238C76.3608 135.618 77.2408 132.648 77.2508 132.618C77.4808 131.828 78.3108 131.368 79.1108 131.598C79.9008 131.828 80.3608 132.658 80.1408 133.448C80.0908 133.608 79.0008 137.358 76.2108 139.588C75.9308 139.808 75.6008 139.918 75.2708 139.918V139.908Z" fill="#FF3939"/>
<path d="M82.6093 123.779C82.5293 123.779 82.4393 123.779 82.3593 123.759C81.5393 123.619 80.9893 122.849 81.1293 122.029C81.1293 122.009 81.5093 119.509 80.2893 117.079C79.9193 116.339 80.2193 115.439 80.9593 115.069C81.6993 114.699 82.5993 114.999 82.9693 115.739C84.6393 119.069 84.1093 122.389 84.0893 122.529C83.9693 123.259 83.3293 123.779 82.6093 123.779Z" fill="#FF3939"/>
<path d="M30.2905 124.759C30.0605 124.759 29.8405 124.709 29.6205 124.599C28.8805 124.229 28.5805 123.329 28.9505 122.589C28.9605 122.559 30.5905 119.189 29.3805 115.959C29.0905 115.179 29.4805 114.319 30.2605 114.029C31.0305 113.739 31.9005 114.129 32.1905 114.909C33.8705 119.379 31.7305 123.749 31.6405 123.929C31.3805 124.459 30.8505 124.759 30.3005 124.759H30.2905Z" fill="#FF3939"/>
<path d="M32.24 144.8C31.63 144.8 31.06 144.43 30.84 143.83C30.78 143.66 29.28 139.61 29.31 135.15C29.31 134.32 29.99 133.66 30.81 133.66C31.64 133.66 32.31 134.34 32.3 135.17C32.27 139.06 33.63 142.74 33.64 142.78C33.93 143.56 33.54 144.42 32.76 144.71C32.59 144.77 32.41 144.81 32.23 144.81L32.24 144.8Z" fill="#FF3939"/>
<path d="M48.3803 100.801C48.1503 100.801 47.9303 100.751 47.7103 100.641C46.9703 100.271 46.6703 99.371 47.0403 98.631C47.5003 97.701 48.5603 94.871 47.9203 93.051C47.6403 92.271 48.0503 91.411 48.8303 91.131C49.6203 90.861 50.4703 91.261 50.7503 92.041C51.9303 95.381 49.9603 99.501 49.7303 99.961C49.4703 100.491 48.9403 100.791 48.3903 100.791L48.3803 100.801Z" fill="#FF3939"/>
<path d="M56.6907 101.281C56.6307 101.281 56.5707 101.281 56.5007 101.271C55.6807 101.171 55.1007 100.421 55.2007 99.6013C55.2207 99.4313 55.7307 95.4513 57.4207 91.2213C57.7307 90.4513 58.6007 90.0813 59.3707 90.3813C60.1407 90.6913 60.5107 91.5613 60.2107 92.3313C58.6707 96.2013 58.1907 99.9313 58.1807 99.9713C58.0907 100.731 57.4407 101.281 56.6907 101.281Z" fill="#FF3939"/>
</g>
<defs>
<clipPath id="clip0_1147_458">
<rect width="115" height="160" fill="white"/>
</clipPath>
</defs>
</svg>
