<svg fill="currentColor" height="353" viewBox="0 0 448 353" width="448" xmlns="http://www.w3.org/2000/svg">

    <style>
        :root { fill:#222 }
        .accent { fill: #f9322c; }

        @media (prefers-color-scheme: dark) {
        :root {  fill: #f9322c; }
        .accent { fill:#dee2e6; }
        }
    </style>

    <path d="m5.75 133.953 6.7226 16.943 152.2444-34.052 3.778-16.439-92.3627-56.8738z" class="accent"/>
    <path d="m79.4604 184.828-36.6369 64.653 21.5375 12.222 73.936-54.212-18.428-13.546z" class="accent"/>
    <path d="m187.141 97.2148-1.349 92.2822 55.322-37.547 1.535-8.594 12.658-10.064z" class="accent"/>
    <path d="m253.534 95.7466-1.112 20.4384h27.863l24.978-17.1081h5.155l-6.266-27.9402z" class="accent"/>
    <path d="m320.363 267.258 4.883-22.888 62.171-14.44 48.355 44.168-5.286 21.597z" class="accent"/>
    <path d="m138.297 279.7 4.016 29.767 82.795-4.886 61.503-67.46-3.103-19.406-66.168 1.331z" class="accent"/>
    <g>
        <path
            d="m7.96668 152.944c-.0794 0-.1588-.007-.2382-.027-.38377-.092-.67491-.403-.74108-.794l-2.22322-12.884c-.04632-.272.01985-.543.18527-.762l69.49565-92.8711c.1919-.2516.4897-.4171.8073-.3973.3176 0 .6153.1589.794.4172l6.4381 9.1103c.2514.3575.2448.8276-.0199 1.1785l-73.71053 96.6384c-.19188.252-.48302.391-.78739.391zm-1.17116-13.626 1.76005 10.223 71.89093-94.2553-5.2272-7.3956z"/>
        <path
            d="m168.495 105.18c-.178 0-.357-.046-.522-.152l-93.2568-57.9861c-.4632-.2914-.6087-.9005-.3176-1.3706.2911-.4634.8999-.6091 1.3697-.3178l93.2497 57.9855c.463.292.609.901.318 1.371-.186.304-.51.47-.847.47z"/>
        <path
            d="m168.495 110.066c-.178 0-.357-.046-.522-.146l-86.812-53.7681c-.4698-.2913-.6087-.9004-.3242-1.3639.2911-.4701.8999-.6091 1.363-.3244l86.8122 53.7614c.469.292.608.901.324 1.364-.186.305-.51.47-.847.47z"/>
        <path
            d="m104.326 177.608c-.218 0-.43-.073-.609-.206l-39.9648-30.879c-.2779-.212-.4168-.557-.3771-.901s.258-.642.5756-.788l51.5113-23.55c.338-.153.741-.106 1.032.125.291.232.43.616.351.98l-11.546 54.431c-.073.331-.311.609-.629.728-.112.04-.225.06-.344.06zm-38.0594-31.655 37.4114 28.914 10.805-50.955-48.223 22.048z"/>
        <path
            d="m101.66 194.044c-.225 0-.45-.073-.636-.232l-35.7432-29.767c-.2051-.173-.3308-.411-.3507-.676l-1.5549-17.552c-.0463-.549.3573-1.026.8999-1.079.5492-.046 1.0256.358 1.0785.9l1.5152 17.142 35.4262 29.509c.423.351.476.98.126 1.397-.199.239-.477.358-.761.358z"/>
        <path
            d="m136.08 207.153c-.066 0-.126 0-.192-.02l-40.4084-7.998c-.1323-.026-.2514-.079-.3573-.152l-16.211-10.885c-.397-.265-.5492-.781-.3573-1.218.1919-.444.6683-.675 1.1381-.569l42.4069 9.997c.106.027.205.066.298.126l14.212 8.885c.404.252.576.762.397 1.205-.152.384-.522.629-.919.629zm-40.0247-9.925 34.9167 6.913-9.489-5.933-36.9342-8.706 11.5131 7.733z"/>
        <path
            d="m61.7012 262.696c-.2183 0-.4301-.072-.6021-.205l-14.8744-11.328c-.3838-.291-.5029-.821-.2779-1.245l32.6404-63.097c.2514-.49.8535-.675 1.3365-.424.4897.252.675.854.4235 1.338l-32.2566 62.355 13.2864 10.117 33.4212-62.515c.258-.483.8602-.668 1.3432-.403.483.258.6683.86.4036 1.344l-33.9704 63.54c-.1389.259-.3771.437-.6616.504-.0728.013-.139.019-.2118.019z"/>
        <path
            d="m61.7011 262.683c-.2581 0-.5161-.1-.708-.298-.3772-.391-.3772-1 0-1.384 1.4358-1.437 67.0139-50.094 74.4909-55.635.444-.325 1.059-.232 1.39.205.324.443.231 1.066-.205 1.39-25.051 18.579-72.8109 54.08-74.2798 55.457-.1919.179-.4433.271-.6881.271z"/>
        <path
            d="m107.767 194.939c-.06 0-.112 0-.172-.014-.543-.092-.9-.609-.801-1.152l9.853-55.628-1.76-15.857c-.06-.543.331-1.04.88-1.1.542-.052 1.039.332 1.098.881l1.773 15.996c.014.093.007.192-.006.285l-9.879 55.774c-.086.484-.503.821-.973.821z"/>
        <path
            d="m106.1 194.044c-.503 0-.933-.378-.986-.888l-1.774-16.439c-.059-.543.338-1.033.88-1.093.543-.066 1.033.338 1.092.881l1.773 16.44c.06.542-.337 1.032-.88 1.092-.033 0-.072 0-.105 0z"/>
        <path
            d="m426.271 218.707h-.027l-273.986-6.886c-.285-.007-.556-.139-.741-.358-.185-.218-.258-.509-.212-.794l23.754-143.7398c.08-.4767.496-.8276.979-.8276h.014l202.935 2.2246c.43 0 .808.2847.933.6886l47.29 148.4072c.099.305.04.643-.152.901-.185.251-.483.397-.794.397zm-272.815-8.846 271.452 6.826-46.649-146.3944-201.367-2.2048-23.43 141.7732z"/>
        <path
            d="m185.798 98.6966c-.04 0-.079 0-.119-.0067-.543-.0662-.933-.5561-.867-1.1057l2.68-22.511c.06-.5098.496-.8674 1.006-.874l107.959 2.2909c.549.0132.985.4634.972 1.0129-.013.543-.456.9733-.992.9733h-.02l-107.059-2.2776-2.574 21.6173c-.06.5032-.49.8739-.986.8739z"/>
        <path
            d="m404.065 204.266h-.02l-230.243-5.111c-.278 0-.542-.133-.728-.344-.185-.212-.271-.49-.238-.768l8.681-72.844c.066-.543.563-.94 1.105-.867.543.066.933.556.867 1.106l-8.549 71.757 227.835 5.058-32.303-122.9166c-.139-.5297.178-1.0726.708-1.2117.536-.1456 1.072.1788 1.21.7085l32.641 124.1948c.079.305.013.622-.179.867-.192.239-.476.378-.781.378z"/>
        <path
            d="m188.478 76.1872c-.185 0-.377-.0529-.543-.1589l-12.433-8.1106c-.456-.2979-.588-.9137-.291-1.3771.298-.4569.913-.5893 1.377-.2914l12.432 8.1106c.457.298.589.9137.292 1.3772-.192.2913-.51.4502-.834.4502z"/>
        <path
            d="m371.424 80.0724c-.211 0-.423-.0662-.608-.2052-.437-.3377-.516-.9601-.179-1.3904l7.55-9.7725c.331-.437.959-.5164 1.389-.1787.437.3376.516.96.179 1.3903l-7.55 9.7725c-.192.2516-.489.384-.787.384z"/>
        <path
            d="m202.982 234.207h-.026l-50.698-1.278c-.536-.013-.966-.456-.966-.993v-21.107c0-.351.185-.675.49-.854l21.537-12.666c.47-.278 1.079-.119 1.357.351.277.47.119 1.079-.351 1.357l-21.048 12.375v19.571l49.731 1.258c.55.013.98.47.967 1.02-.014.542-.457.966-.993.966z"/>
        <path
            d="m357.662 238.113h-.027l-68.384-1.728c-.549-.013-.979-.47-.966-1.02.013-.549.476-.98 1.019-.966l68.384 1.728c.549.013.979.47.966 1.019-.013.543-.457.967-.992.967z"/>
        <path
            d="m424.987 239.817h-.027l-23.82-.602c-.549-.013-.979-.47-.966-1.02.013-.549.47-1 1.019-.966l22.861.576 1.191-19.572-21.716-14.122c-.457-.298-.589-.914-.291-1.377.297-.464.913-.59 1.376-.292l22.206 14.441c.298.192.47.536.45.893l-1.284 21.108c-.033.523-.47.933-.992.933z"/>
        <path
            d="m138.297 286.693c-.411 0-.781-.259-.927-.643-.152-.397-.026-.854.305-1.119l77.488-62.872c.172-.139.384-.218.602-.218l73.162-1.775c.403 0 .787.239.946.616.152.384.06.821-.245 1.106l-66.273 61.541c-.172.159-.404.258-.635.265l-84.37 3.112s-.027 0-.04 0zm77.852-62.879-74.915 60.786 81.029-2.986 64.083-59.502-70.197 1.708z"/>
        <path
            d="m139.408 306.686c-.523 0-.959-.41-.992-.94l-1.112-19.995c-.033-.549.39-1.019.94-1.046.562-.026 1.012.391 1.045.94l1.059 19.022 82.352-2.84 65.578-62.753-.324-18.002c-.006-.55.424-1 .973-1.013.569 0 .999.423 1.012.973l.331 18.439c0 .278-.106.543-.304.735l-66.168 63.316c-.178.165-.41.265-.655.278l-83.702 2.886s-.026 0-.033 0z"/>
        <path
            d="m223.11 303.792c-.536 0-.979-.43-.993-.973l-.443-20.22c-.013-.55.424-1 .973-1.013h.02c.536 0 .979.43.992.973l.443 20.22c.014.55-.423 1-.972 1.013z"/>
        <path
            d="m442.257 276.694c-.08 0-.159-.006-.239-.026l-114.125-28.218c-.43-.106-.735-.484-.755-.921-.019-.443.258-.841.675-.98l59.505-20.22c.337-.112.708-.04.979.199l54.621 48.432c.344.304.43.801.219 1.205-.172.331-.516.529-.88.529zm-110.593-29.357 106.92 26.438-51.174-45.373-55.746 18.942z"/>
        <path
            d="m435.819 295.575c-.086 0-.172-.013-.265-.033l-110.572-30.218c-.49-.132-.801-.622-.715-1.125l2.885-16.884c.092-.542.602-.9 1.145-.814.542.093.906.609.813 1.145l-2.732 15.997 108.799 29.734 6.14-18.002c.179-.517.741-.795 1.257-.623.516.179.794.742.622 1.258l-6.438 18.883c-.139.411-.523.676-.939.676z"/>
        <path
            d="m182.258 181.163c-.159 0-.317-.04-.463-.113-.324-.172-.529-.51-.529-.881v-84.4227c0-.3509.185-.6753.489-.8541.305-.1787.675-.1854.986-.0132l67.716 37.547c.298.166.496.477.509.821.02.344-.145.669-.423.867l-67.716 46.876c-.172.12-.364.179-.562.179zm.993-83.735v80.841l64.844-44.889z"/>
        <path
            d="m310.59 192.713s-.026 0-.04 0l-71.712-2.886c-.529-.02-.953-.457-.953-.994v-47.855c0-.55.444-.994.993-.994h66.167c.51 0 .933.384.986.888l5.552 50.742c.033.285-.067.576-.258.788-.186.199-.45.318-.728.318zm-70.72-4.833 69.608 2.801-5.326-48.71h-64.282z"/>
        <path
            d="m305.039 141.964h-66.168c-.443 0-.833-.298-.953-.722-.119-.43.06-.88.437-1.119l63.719-39.235c.159-.099.338-.146.523-.146h59.279c.437 0 .821.285.947.695.125.418-.027.868-.384 1.113l-56.838 39.235c-.165.113-.364.179-.562.179zm-62.661-1.986h62.35l53.959-37.25h-55.812z"/>
        <path
            d="m310.59 102.738h-60.616c-.456 0-.853-.311-.966-.755-.106-.443.099-.907.503-1.119l58.618-30.6015c.297-.1522.655-.1456.946.0133.291.1655.483.4634.503.8011l1.998 30.6021c.02.271-.079.543-.265.741-.185.199-.45.311-.721.311zm-56.566-1.986h55.507l-1.826-28.0265-53.675 28.0265z"/>
        <path
            d="m377.399 102.735h-66.809c-.523 0-.959-.404-.993-.927l-1.998-30.6021c-.02-.278.08-.5495.278-.7547.192-.1987.443-.3245.741-.3046l60.835 1.7214c.436.0133.813.3046.926.7283l7.973 28.8807c.079.298.02.622-.165.867-.186.245-.477.391-.788.391zm-65.876-1.987h64.573l-7.431-26.9136-59.015-1.6684 1.866 28.589z"/>
        <path
            d="m182.258 197.712c-.159 0-.317-.04-.463-.113-.324-.172-.529-.509-.529-.88v-16.552c0-.55.443-.993.992-.993s.993.443.993.993v14.672l55.064-37.594c.457-.304 1.072-.192 1.376.258.311.451.192 1.073-.258 1.377l-56.619 38.653c-.165.113-.364.172-.562.172z"/>
        <path
            d="m237.098 200.56s-.053 0-.08 0c-.516-.04-.913-.47-.913-.993v-40.289s0-.066 0-.099l1.78-18.307c.053-.543.536-.953 1.085-.894.543.053.946.537.894 1.086l-1.774 18.254v28.894c.219-.278.576-.431.946-.371.543.086.907.602.814 1.139l-1.78 10.732c-.079.484-.496.828-.979.828z"/>
        <path
            d="m310.59 202.19c-.549 0-.993-.444-.993-.993v-9.481c0-.55.444-.993.993-.993s.992.443.992.993v9.481c0 .549-.443.993-.992.993z"/>
        <path
            d="m308.592 159.06c-.298 0-.596-.139-.794-.39-.331-.437-.245-1.06.192-1.391l51.729-39.215c.172-.133.384-.199.602-.199h12.949l3.157-16.301c.105-.536.622-.894 1.164-.788.536.106.887.623.788 1.166l-3.309 17.108c-.092.47-.496.801-.972.801h-13.432l-51.466 39.017c-.178.139-.39.199-.602.199z"/>
        <path
            d="m396.952 204.108c-.437 0-.841-.291-.96-.735l-22.86-84.264c-.146-.53.165-1.072.694-1.218.53-.146 1.072.172 1.218.695l22.861 84.264c.145.53-.166 1.073-.695 1.219-.086.026-.172.033-.258.033z"/>
        <path
            d="m281.324 86.3709h-.013l-92.846-.9667c-.549 0-.986-.4568-.98-1.0063 0-.5429.45-.9799.993-.9799h.013l92.846.9666c.55 0 .986.4569.98 1.0064 0 .5429-.45.9799-.993.9799z"/>
        <path
            d="m360.328 119.839s-.059 0-.092 0c-.55-.053-.947-.53-.9-1.079l1.555-17.109c.053-.549.536-.953 1.078-.9.549.053.946.529.9 1.079l-1.555 17.108c-.046.517-.483.901-.986.901z"/>
        <path
            d="m274.218 119.837h-24.237c-.55 0-.993-.444-.993-.993v-17.109c0-.549.443-.993.993-.993.549 0 .992.444.992.993v16.116h23.245c.549 0 .992.443.992.993 0 .549-.443.993-.992.993z"/>
        <path
            d="m7.96658 152.944c-.44994 0-.86017-.312-.96604-.768-.12572-.537.20512-1.066.74107-1.192l87.69839-20.532c.5359-.125 1.0653.206 1.191.742s-.2051 1.066-.7411 1.192l-87.69835 20.531c-.0794.02-.15218.027-.22497.027z"/>
        <path
            d="m116.296 127.002c-.45 0-.86-.312-.966-.768-.126-.537.205-1.066.741-1.192l52.027-12.222c.536-.126 1.066.205 1.191.741.126.536-.205 1.066-.741 1.192l-52.027 12.222c-.08.02-.152.027-.225.027z"/>
        <path
            d="m31.0589 136.614c-.1389 0-.2779-.039-.397-.132-.2911-.219-.3507-.636-.1323-.927l33.3021-44.6581c.2183-.2913.6352-.3509.9263-.1324s.3507.6356.1323.927l-33.302 44.6575c-.1324.173-.3309.265-.5294.265z"/>
        <path
            d="m46.82 126.672c-.1323 0-.2712-.04-.3837-.126-.2978-.212-.3639-.629-.1456-.927l13.9878-19.38c.2117-.298.6286-.364.9264-.145.2977.212.3639.629.1455.927l-13.9878 19.379c-.1323.179-.3308.272-.5359.272z"/>
        <path
            d="m149.843 112.176c-.126 0-.252-.033-.357-.105l-7.53-4.887c-.305-.198-.397-.609-.192-.913.198-.305.609-.398.913-.192l7.53 4.886c.304.198.397.609.192.914-.126.198-.338.304-.556.304z"/>
        <path
            d="m71.2425 163.94c-.3639 0-.6617-.298-.6617-.662v-6.885c0-.365.2978-.663.6617-.663s.6617.298.6617.663v6.885c0 .364-.2978.662-.6617.662z"/>
        <path
            d="m74.0216 146.395c-.2514 0-.4896-.139-.6021-.384-.1522-.331-.0066-.729.3242-.881l18.871-8.773c.3374-.152.7278-.006.88.325s.0066.728-.3242.88l-18.871 8.773c-.0926.04-.1852.06-.2779.06z"/>
        <path
            d="m78.0181 150.056c-.2646 0-.5161-.159-.6153-.417-.1324-.338.0331-.722.3705-.861l3.6657-1.443c.3374-.133.7212.033.8602.37.1389.338-.0331.722-.3706.861l-3.6656 1.444c-.0795.033-.1588.046-.2449.046z"/>
        <path
            d="m54.4822 249.587c-.1058 0-.2051-.027-.3043-.073-.3243-.166-.45-.57-.2846-.894l26.3082-50.762c.1654-.325.5691-.451.8933-.285.3242.165.4499.569.2845.894l-26.3082 50.762c-.1191.225-.3507.358-.5889.358z"/>
        <path
            d="m79.4606 213.928c-.0993 0-.1985-.02-.2912-.066-.3308-.159-.4631-.556-.3043-.887l4.8831-9.998c.1588-.331.5558-.463.8867-.305.3308.159.4631.557.3043.888l-4.8831 9.997c-.1125.232-.3507.371-.5955.371z"/>
        <path
            d="m78.574 242.921c-.2051 0-.4036-.092-.536-.271-.2183-.298-.1522-.709.1456-.927l17.0977-12.441c.2977-.212.7079-.152.9263.146s.1522.708-.1456.927l-17.0976 12.441c-.1191.086-.2515.125-.3904.125z"/>
        <path
            d="m191.588 227.708s-.027 0-.033 0l-31.416-1.669c-.364-.019-.642-.331-.629-.695.02-.364.337-.642.695-.629l31.416 1.669c.364.02.642.331.629.695-.02.351-.311.629-.662.629z"/>
        <path
            d="m174.709 220.375h-13.988c-.364 0-.662-.298-.662-.662s.298-.662.662-.662h13.988c.363 0 .661.298.661.662s-.298.662-.661.662z"/>
        <path
            d="m166.941 275.252c-.186 0-.371-.079-.503-.232-.239-.278-.212-.695.066-.933l33.97-29.437c.278-.238.695-.211.933.067s.212.695-.066.933l-33.97 29.437c-.126.106-.278.159-.43.159z"/>
        <path
            d="m182.258 271.584c-.165 0-.331-.059-.456-.185-.265-.252-.272-.675-.02-.934l3.533-3.668c.252-.264.675-.271.933-.019.265.251.271.675.02.933l-3.533 3.668c-.133.133-.305.205-.477.205z"/>
        <path
            d="m302.934 178.055h-29.861c-.364 0-.662-.298-.662-.662 0-.365.298-.663.662-.663h29.861c.364 0 .662.298.662.663 0 .364-.298.662-.662.662z"/>
        <path
            d="m300.38 171.496h-8.548c-.364 0-.662-.298-.662-.662s.298-.662.662-.662h8.548c.364 0 .662.298.662.662s-.298.662-.662.662z"/>
        <path
            d="m205.02 152.056c-.212 0-.417-.1-.549-.292-.205-.304-.126-.715.172-.92l27.863-18.995c.304-.206.714-.126.92.172.205.304.125.715-.172.92l-27.864 18.995c-.112.08-.244.113-.37.113z"/>
        <path
            d="m219.563 135.503c-.192 0-.377-.079-.509-.238-.238-.278-.199-.695.079-.934l5.883-4.939c.284-.232.701-.199.933.08.238.278.198.695-.08.933l-5.882 4.939c-.126.106-.278.153-.424.153z"/>
        <path
            d="m198.026 109.736c-.119 0-.245-.033-.351-.099l-8.992-5.667c-.311-.192-.404-.603-.205-.914.192-.311.602-.404.913-.205l8.992 5.667c.311.192.404.603.205.914-.125.199-.344.311-.562.311z"/>
        <path
            d="m190.251 186.271c-.364 0-.661-.298-.661-.662v-4.443c0-.364.297-.662.661-.662s.662.298.662.662v4.443c0 .364-.298.662-.662.662z"/>
        <path
            d="m273.073 128.616c-.212 0-.417-.099-.549-.291-.205-.305-.132-.715.172-.92l29.861-20.439c.305-.205.715-.126.92.172.205.305.132.715-.172.92l-29.861 20.439c-.113.079-.245.113-.371.113z"/>
        <path
            d="m300.38 116.063c-.192 0-.383-.079-.509-.238-.232-.285-.192-.702.092-.934l9.562-7.885c.278-.232.701-.192.933.093.231.284.192.701-.093.933l-9.561 7.886c-.126.099-.271.152-.417.152z"/>
        <path
            d="m269.182 107.621h-12.432c-.364 0-.662-.298-.662-.662s.298-.662.662-.662h12.432c.364 0 .662.298.662.662s-.298.662-.662.662z"/>
        <path
            d="m263.968 116.066h-13.544c-.364 0-.662-.298-.662-.662s.298-.662.662-.662h13.544c.364 0 .662.298.662.662s-.298.662-.662.662z"/>
        <path
            d="m288.947 88.8516c-.232 0-.45-.1192-.576-.3311-.179-.3178-.073-.7217.245-.907l12.988-7.4419c.318-.1854.722-.0729.907.2449.179.3178.073.7217-.245.9071l-12.989 7.4419c-.105.0596-.218.0861-.33.0861z"/>
        <path
            d="m346.559 77.0742h-33.084c-.364 0-.662-.298-.662-.6621 0-.3642.298-.6621.662-.6621h33.084c.364 0 .661.2979.661.6621 0 .3641-.297.6621-.661.6621z"/>
        <path
            d="m327.913 80.6289h-13.876c-.364 0-.661-.298-.661-.6621 0-.3642.297-.6621.661-.6621h13.876c.364 0 .661.2979.661.6621 0 .3641-.297.6621-.661.6621z"/>
        <path
            d="m375.203 108.953h-6.326c-.364 0-.662-.298-.662-.662s.298-.662.662-.662h6.326c.364 0 .661.298.661.662s-.297.662-.661.662z"/>
        <path
            d="m315.586 144.501c-.212 0-.417-.099-.543-.285-.212-.298-.132-.715.166-.92l23.979-16.665c.297-.212.714-.132.919.166.212.298.133.715-.165.92l-23.979 16.665c-.113.079-.245.119-.377.119z"/>
        <path
            d="m350.006 116.065c-.205 0-.41-.093-.536-.278-.212-.298-.145-.708.152-.927l7.107-5.111c.297-.212.708-.146.926.152.212.298.146.708-.152.927l-7.107 5.111c-.119.086-.251.126-.383.126z"/>
        <path
            d="m215.117 203.937h-.013l-48.183-1.066c-.364-.007-.656-.311-.649-.675.007-.358.304-.649.662-.649h.013l48.183 1.066c.364.006.655.311.649.675-.007.358-.305.649-.662.649z"/>
        <path
            d="m412.203 209.227h-17.905c-.364 0-.661-.298-.661-.663 0-.364.297-.662.661-.662h17.905c.364 0 .662.298.662.662 0 .365-.298.663-.662.663z"/>
        <path
            d="m417.278 214.039h-8.826c-.364 0-.662-.298-.662-.662s.298-.662.662-.662h8.826c.364 0 .662.298.662.662s-.298.662-.662.662z"/>
        <path
            d="m390.964 131.728c-.285 0-.55-.185-.636-.47l-13.564-44.6245c-.106-.351.093-.7217.443-.8277.351-.1059.722.0927.828.4436l13.564 44.6246c.106.351-.093.722-.444.828-.066.02-.132.026-.191.026z"/>
        <path
            d="m398.46 141.635c-.284 0-.549-.186-.635-.47l-3.328-11.071c-.106-.351.093-.721.443-.827.351-.106.722.092.827.443l3.329 11.071c.105.35-.093.721-.444.827-.066.02-.125.027-.192.027z"/>
        <path
            d="m166.941 156.558c-.033 0-.067 0-.106-.006-.364-.06-.609-.398-.549-.755l6.047-38.157c.06-.364.397-.609.755-.549.363.06.608.397.549.755l-6.048 38.156c-.053.324-.331.556-.655.556z"/>
        <path
            d="m171.162 172.217s-.053 0-.079 0c-.364-.04-.622-.371-.583-.735l1.833-15.665c.04-.364.371-.622.735-.582.364.039.622.37.582.734l-1.833 15.665c-.04.338-.324.583-.655.583z"/>
        <path
            d="m215.117 71.7968h-24.866c-.364 0-.661-.2979-.661-.6621 0-.3641.297-.662.661-.662h24.866c.364 0 .662.2979.662.662 0 .3642-.298.6621-.662.6621z"/>
        <path
            d="m205.02 79.0742h-16.542c-.364 0-.662-.298-.662-.6621 0-.3642.298-.6621.662-.6621h16.542c.364 0 .662.2979.662.6621 0 .3641-.298.6621-.662.6621z"/>
        <path
            d="m198.026 82.0742h-9.548c-.364 0-.662-.298-.662-.6621 0-.3642.298-.6621.662-.6621h9.548c.364 0 .662.2979.662.6621 0 .3641-.298.6621-.662.6621z"/>
        <path
            d="m242.596 94.3203h-47.792c-.364 0-.662-.298-.662-.6621 0-.3642.298-.6621.662-.6621h47.792c.364 0 .662.2979.662.6621 0 .3641-.298.6621-.662.6621z"/>
        <path
            d="m372.979 170.934h-41.963c-.364 0-.662-.298-.662-.663 0-.364.298-.662.662-.662h41.963c.364 0 .662.298.662.662 0 .365-.298.663-.662.663z"/>
        <path
            d="m372.979 176.555h-11.877c-.364 0-.661-.298-.661-.662 0-.365.297-.663.661-.663h11.877c.364 0 .662.298.662.663 0 .364-.298.662-.662.662z"/>
    </g>
</svg>
