<svg width="448" height="353" viewBox="0 0 448 353" fill="none" xmlns="http://www.w3.org/2000/svg">
<path d="M5.75 133.953L12.4726 150.896L164.717 116.844L168.495 100.405L76.1323 43.5312L5.75 133.953Z" fill="#FF3939"/>
<path d="M79.4604 184.828L42.8235 249.481L64.361 261.703L138.297 207.491L119.869 193.945L79.4604 184.828Z" fill="#FF3939"/>
<path d="M187.141 97.2148L185.792 189.497L241.114 151.95L242.649 143.356L255.307 133.292L187.141 97.2148Z" fill="#FF3939"/>
<path d="M253.534 95.7466L252.422 116.185H280.285L305.263 99.0769H310.418L304.152 71.1367L253.534 95.7466Z" fill="#FF3939"/>
<path d="M320.363 267.258L325.246 244.37L387.417 229.93L435.772 274.098L430.486 295.695L320.363 267.258Z" fill="#FF3939"/>
<path d="M138.297 279.7L142.313 309.467L225.108 304.581L286.611 237.121L283.508 217.715L217.34 219.046L138.297 279.7Z" fill="#FF3939"/>
<path d="M7.96668 152.944C7.88728 152.944 7.80788 152.937 7.72848 152.917C7.34471 152.825 7.05357 152.514 6.9874 152.123L4.76418 139.239C4.71786 138.967 4.78403 138.696 4.94945 138.477L74.4451 45.6059C74.637 45.3543 74.9348 45.1888 75.2524 45.2086C75.57 45.2086 75.8677 45.3675 76.0464 45.6258L82.4845 54.7361C82.7359 55.0936 82.7293 55.5637 82.4646 55.9146L8.75407 152.553C8.56219 152.805 8.27105 152.944 7.96668 152.944ZM6.79552 139.318L8.55557 149.541L80.4465 55.2857L75.2193 47.8901L6.79552 139.318Z" fill="black"/>
<path d="M168.495 105.18C168.317 105.18 168.138 105.134 167.973 105.028L74.7162 47.0419C74.253 46.7505 74.1075 46.1414 74.3986 45.6713C74.6897 45.2079 75.2985 45.0622 75.7683 45.3535L169.018 103.339C169.481 103.631 169.627 104.24 169.336 104.71C169.15 105.014 168.826 105.18 168.489 105.18H168.495Z" fill="black"/>
<path d="M168.495 110.066C168.317 110.066 168.138 110.02 167.973 109.92L81.161 56.1519C80.6912 55.8606 80.5523 55.2515 80.8368 54.788C81.1279 54.3179 81.7367 54.1789 82.1998 54.4636L169.012 108.225C169.481 108.517 169.62 109.126 169.336 109.589C169.15 109.894 168.826 110.059 168.489 110.059L168.495 110.066Z" fill="black"/>
<path d="M104.326 177.608C104.108 177.608 103.896 177.535 103.717 177.402L63.7522 146.523C63.4743 146.311 63.3354 145.966 63.3751 145.622C63.4148 145.278 63.6331 144.98 63.9507 144.834L115.462 121.284C115.8 121.131 116.203 121.178 116.494 121.409C116.785 121.641 116.924 122.025 116.845 122.389L105.299 176.82C105.226 177.151 104.988 177.429 104.67 177.548C104.558 177.588 104.445 177.608 104.326 177.608ZM66.2666 145.953L103.678 174.867L114.483 123.912L66.26 145.96L66.2666 145.953Z" fill="black"/>
<path d="M101.66 194.044C101.435 194.044 101.21 193.971 101.024 193.812L65.2808 164.045C65.0757 163.872 64.95 163.634 64.9301 163.369L63.3752 145.817C63.3289 145.268 63.7325 144.791 64.2751 144.738C64.8243 144.692 65.3007 145.096 65.3536 145.638L66.8688 162.78L102.295 192.289C102.718 192.64 102.771 193.269 102.421 193.686C102.222 193.925 101.944 194.044 101.66 194.044Z" fill="black"/>
<path d="M136.08 207.153C136.014 207.153 135.954 207.153 135.888 207.133L95.4796 199.135C95.3473 199.109 95.2282 199.056 95.1223 198.983L78.9113 188.098C78.5143 187.833 78.3621 187.317 78.554 186.88C78.7459 186.436 79.2223 186.205 79.6921 186.311L122.099 196.308C122.205 196.335 122.304 196.374 122.397 196.434L136.609 205.319C137.013 205.571 137.185 206.081 137.006 206.524C136.854 206.908 136.484 207.153 136.087 207.153H136.08ZM96.0553 197.228L130.972 204.141L121.483 198.208L84.5488 189.502L96.0619 197.235L96.0553 197.228Z" fill="black"/>
<path d="M61.7012 262.696C61.4829 262.696 61.2711 262.624 61.0991 262.491L46.2247 251.163C45.8409 250.872 45.7218 250.342 45.9468 249.918L78.5872 186.821C78.8386 186.331 79.4407 186.146 79.9237 186.397C80.4134 186.649 80.5987 187.251 80.3472 187.735L48.0906 250.09L61.377 260.207L94.7982 197.692C95.0562 197.209 95.6584 197.024 96.1414 197.289C96.6244 197.547 96.8097 198.149 96.545 198.633L62.5746 262.173C62.4357 262.432 62.1975 262.61 61.913 262.677C61.8402 262.69 61.774 262.696 61.7012 262.696Z" fill="black"/>
<path d="M61.7011 262.683C61.443 262.683 61.185 262.583 60.9931 262.385C60.6159 261.994 60.6159 261.385 60.9931 261.001C62.4289 259.564 128.007 210.907 135.484 205.366C135.928 205.041 136.543 205.134 136.874 205.571C137.198 206.014 137.105 206.637 136.669 206.961C111.618 225.54 63.8581 261.041 62.3892 262.418C62.1973 262.597 61.9459 262.689 61.7011 262.689V262.683Z" fill="black"/>
<path d="M107.767 194.939C107.707 194.939 107.655 194.939 107.595 194.925C107.052 194.833 106.695 194.316 106.794 193.773L116.647 138.145L114.887 122.288C114.827 121.745 115.218 121.248 115.767 121.188C116.309 121.136 116.806 121.52 116.865 122.069L118.638 138.065C118.652 138.158 118.645 138.257 118.632 138.35L108.753 194.124C108.667 194.608 108.25 194.945 107.78 194.945L107.767 194.939Z" fill="black"/>
<path d="M106.1 194.044C105.597 194.044 105.167 193.666 105.114 193.156L103.34 176.717C103.281 176.174 103.678 175.684 104.22 175.624C104.763 175.558 105.253 175.962 105.312 176.505L107.085 192.945C107.145 193.487 106.748 193.977 106.205 194.037C106.172 194.037 106.133 194.037 106.1 194.037V194.044Z" fill="black"/>
<path d="M426.271 218.707H426.244L152.258 211.821C151.973 211.814 151.702 211.682 151.517 211.463C151.332 211.245 151.259 210.954 151.305 210.669L175.059 66.9292C175.139 66.4525 175.555 66.1016 176.038 66.1016H176.052L378.987 68.3262C379.417 68.3262 379.795 68.6109 379.92 69.0148L427.21 217.422C427.309 217.727 427.25 218.065 427.058 218.323C426.873 218.574 426.575 218.72 426.264 218.72L426.271 218.707ZM153.456 209.861L424.908 216.687L378.259 70.2926L176.892 68.0878L153.462 209.861H153.456Z" fill="black"/>
<path d="M185.798 98.6966C185.758 98.6966 185.719 98.6966 185.679 98.6899C185.136 98.6237 184.746 98.1338 184.812 97.5842L187.492 75.0732C187.552 74.5634 187.988 74.2058 188.498 74.1992L296.457 76.4901C297.006 76.5033 297.442 76.9535 297.429 77.503C297.416 78.046 296.973 78.4763 296.437 78.4763H296.417L189.358 76.1987L186.784 97.816C186.724 98.3192 186.294 98.6899 185.798 98.6899V98.6966Z" fill="black"/>
<path d="M404.065 204.266H404.045L173.802 199.155C173.524 199.155 173.26 199.022 173.074 198.811C172.889 198.599 172.803 198.321 172.836 198.043L181.517 125.199C181.583 124.656 182.08 124.259 182.622 124.332C183.165 124.398 183.555 124.888 183.489 125.438L174.94 197.195L402.775 202.253L370.472 79.3364C370.333 78.8067 370.65 78.2638 371.18 78.1247C371.716 77.9791 372.252 78.3035 372.39 78.8332L405.031 203.028C405.11 203.333 405.044 203.65 404.852 203.895C404.66 204.134 404.376 204.273 404.071 204.273L404.065 204.266Z" fill="black"/>
<path d="M188.478 76.1872C188.293 76.1872 188.101 76.1343 187.935 76.0283L175.502 67.9177C175.046 67.6198 174.914 67.004 175.211 66.5406C175.509 66.0837 176.124 65.9513 176.588 66.2492L189.02 74.3598C189.477 74.6578 189.609 75.2735 189.312 75.737C189.12 76.0283 188.802 76.1872 188.478 76.1872Z" fill="black"/>
<path d="M371.424 80.0724C371.213 80.0724 371.001 80.0062 370.816 79.8672C370.379 79.5295 370.3 78.9071 370.637 78.4768L378.187 68.7043C378.518 68.2673 379.146 68.1879 379.576 68.5256C380.013 68.8632 380.092 69.4856 379.755 69.9159L372.205 79.6884C372.013 79.94 371.716 80.0724 371.418 80.0724H371.424Z" fill="black"/>
<path d="M202.982 234.207H202.956L152.258 232.929C151.722 232.916 151.292 232.473 151.292 231.936V210.829C151.292 210.478 151.477 210.154 151.782 209.975L173.319 197.309C173.789 197.031 174.398 197.19 174.676 197.66C174.953 198.13 174.795 198.739 174.325 199.017L153.277 211.392V230.963L203.008 232.221C203.558 232.234 203.988 232.691 203.975 233.241C203.961 233.783 203.518 234.207 202.982 234.207Z" fill="black"/>
<path d="M357.662 238.113H357.635L289.251 236.385C288.702 236.372 288.272 235.915 288.285 235.365C288.298 234.816 288.761 234.385 289.304 234.399L357.688 236.127C358.237 236.14 358.667 236.597 358.654 237.146C358.641 237.689 358.197 238.113 357.662 238.113Z" fill="black"/>
<path d="M424.987 239.817H424.96L401.14 239.215C400.591 239.202 400.161 238.745 400.174 238.195C400.187 237.646 400.644 237.195 401.193 237.229L424.054 237.805L425.245 218.233L403.529 204.111C403.072 203.813 402.94 203.197 403.238 202.734C403.535 202.27 404.151 202.144 404.614 202.442L426.82 216.883C427.118 217.075 427.29 217.419 427.27 217.776L425.986 238.884C425.953 239.407 425.516 239.817 424.994 239.817H424.987Z" fill="black"/>
<path d="M138.297 286.693C137.886 286.693 137.516 286.434 137.37 286.05C137.218 285.653 137.344 285.196 137.675 284.931L215.163 222.059C215.335 221.92 215.547 221.841 215.765 221.841L288.927 220.066C289.33 220.066 289.714 220.305 289.873 220.682C290.025 221.066 289.933 221.503 289.628 221.788L223.355 283.329C223.183 283.488 222.951 283.587 222.72 283.594L138.35 286.706C138.35 286.706 138.323 286.706 138.31 286.706L138.297 286.693ZM216.149 223.814L141.234 284.6L222.263 281.614L286.346 222.112L216.149 223.82V223.814Z" fill="black"/>
<path d="M139.408 306.686C138.885 306.686 138.449 306.276 138.416 305.746L137.304 285.751C137.271 285.202 137.694 284.732 138.244 284.705C138.806 284.679 139.256 285.096 139.289 285.645L140.348 304.667L222.7 301.827L288.278 239.074L287.954 221.072C287.948 220.522 288.378 220.072 288.927 220.059C289.496 220.059 289.926 220.482 289.939 221.032L290.27 239.471C290.27 239.749 290.164 240.014 289.966 240.206L223.798 303.522C223.62 303.687 223.388 303.787 223.143 303.8L139.441 306.686C139.441 306.686 139.415 306.686 139.408 306.686Z" fill="black"/>
<path d="M223.11 303.792C222.574 303.792 222.131 303.362 222.117 302.819L221.674 282.599C221.661 282.049 222.098 281.599 222.647 281.586H222.667C223.203 281.586 223.646 282.016 223.659 282.559L224.102 302.779C224.116 303.329 223.679 303.779 223.13 303.792H223.11Z" fill="black"/>
<path d="M442.257 276.694C442.177 276.694 442.098 276.688 442.018 276.668L327.893 248.45C327.463 248.344 327.158 247.966 327.138 247.529C327.119 247.086 327.396 246.688 327.813 246.549L387.318 226.329C387.655 226.217 388.026 226.289 388.297 226.528L442.918 274.96C443.262 275.264 443.348 275.761 443.137 276.165C442.965 276.496 442.621 276.694 442.257 276.694ZM331.664 247.337L438.584 273.775L387.41 228.402L331.664 247.344V247.337Z" fill="black"/>
<path d="M435.819 295.575C435.733 295.575 435.647 295.562 435.554 295.542L324.982 265.324C324.492 265.192 324.181 264.702 324.267 264.199L327.152 247.315C327.244 246.773 327.754 246.415 328.297 246.501C328.839 246.594 329.203 247.11 329.11 247.646L326.378 263.643L435.177 293.377L441.317 275.375C441.496 274.858 442.058 274.58 442.574 274.752C443.09 274.931 443.368 275.494 443.196 276.01L436.758 294.893C436.619 295.304 436.235 295.569 435.819 295.569V295.575Z" fill="black"/>
<path d="M182.258 181.163C182.099 181.163 181.941 181.123 181.795 181.05C181.471 180.878 181.266 180.54 181.266 180.169V95.7463C181.266 95.3954 181.451 95.071 181.755 94.8922C182.06 94.7135 182.43 94.7068 182.741 94.879L250.457 132.426C250.755 132.592 250.953 132.903 250.966 133.247C250.986 133.591 250.821 133.916 250.543 134.114L182.827 180.99C182.655 181.11 182.463 181.169 182.265 181.169L182.258 181.163ZM183.251 97.428V178.269L248.095 133.38L183.251 97.428Z" fill="black"/>
<path d="M310.59 192.713C310.59 192.713 310.564 192.713 310.55 192.713L238.838 189.827C238.309 189.807 237.885 189.37 237.885 188.833V140.978C237.885 140.428 238.329 139.984 238.878 139.984H305.045C305.555 139.984 305.978 140.368 306.031 140.872L311.583 191.614C311.616 191.899 311.516 192.19 311.325 192.402C311.139 192.601 310.875 192.72 310.597 192.72L310.59 192.713ZM239.87 187.88L309.478 190.681L304.152 141.971H239.87V187.88Z" fill="black"/>
<path d="M305.039 141.964H238.871C238.428 141.964 238.038 141.666 237.918 141.242C237.799 140.812 237.978 140.362 238.355 140.123L302.074 100.888C302.233 100.789 302.412 100.742 302.597 100.742H361.876C362.313 100.742 362.697 101.027 362.823 101.437C362.948 101.855 362.796 102.305 362.439 102.55L305.601 141.785C305.436 141.898 305.237 141.964 305.039 141.964ZM242.378 139.978H304.728L358.687 102.728H302.875L242.378 139.978Z" fill="black"/>
<path d="M310.59 102.738H249.974C249.518 102.738 249.121 102.427 249.008 101.983C248.902 101.54 249.107 101.076 249.511 100.864L308.129 70.2625C308.426 70.1103 308.784 70.1169 309.075 70.2758C309.366 70.4413 309.558 70.7392 309.578 71.0769L311.576 101.679C311.596 101.95 311.497 102.222 311.311 102.42C311.126 102.619 310.861 102.731 310.59 102.731V102.738ZM254.024 100.752H309.531L307.705 72.7255L254.03 100.752H254.024Z" fill="black"/>
<path d="M377.399 102.735H310.59C310.067 102.735 309.631 102.331 309.597 101.808L307.599 71.2059C307.579 70.9279 307.679 70.6564 307.877 70.4512C308.069 70.2525 308.32 70.1267 308.618 70.1466L369.453 71.868C369.889 71.8813 370.266 72.1726 370.379 72.5963L378.352 101.477C378.431 101.775 378.372 102.099 378.187 102.344C378.001 102.589 377.71 102.735 377.399 102.735ZM311.523 100.748H376.096L368.665 73.8344L309.65 72.166L311.516 100.755L311.523 100.748Z" fill="black"/>
<path d="M182.258 197.712C182.099 197.712 181.941 197.672 181.795 197.599C181.471 197.427 181.266 197.09 181.266 196.719V180.167C181.266 179.617 181.709 179.174 182.258 179.174C182.807 179.174 183.251 179.617 183.251 180.167V194.839L238.315 157.245C238.772 156.941 239.387 157.053 239.691 157.503C240.002 157.954 239.883 158.576 239.433 158.88L182.814 197.533C182.649 197.646 182.45 197.705 182.252 197.705L182.258 197.712Z" fill="black"/>
<path d="M237.098 200.56C237.098 200.56 237.045 200.56 237.018 200.56C236.502 200.52 236.105 200.09 236.105 199.567V159.278C236.105 159.278 236.105 159.212 236.105 159.179L237.885 140.872C237.938 140.329 238.421 139.919 238.97 139.978C239.513 140.031 239.916 140.515 239.864 141.064L238.09 159.318V188.212C238.309 187.934 238.666 187.781 239.036 187.841C239.579 187.927 239.943 188.443 239.85 188.98L238.07 199.712C237.991 200.196 237.574 200.54 237.091 200.54L237.098 200.56Z" fill="black"/>
<path d="M310.59 202.19C310.041 202.19 309.597 201.746 309.597 201.197V191.716C309.597 191.166 310.041 190.723 310.59 190.723C311.139 190.723 311.582 191.166 311.582 191.716V201.197C311.582 201.746 311.139 202.19 310.59 202.19Z" fill="black"/>
<path d="M308.592 159.06C308.294 159.06 307.996 158.921 307.798 158.67C307.467 158.233 307.553 157.61 307.99 157.279L359.719 118.064C359.891 117.931 360.103 117.865 360.321 117.865H373.27L376.427 101.564C376.532 101.028 377.049 100.67 377.591 100.776C378.127 100.882 378.478 101.399 378.379 101.942L375.07 119.05C374.978 119.52 374.574 119.851 374.098 119.851H360.666L309.2 158.868C309.022 159.007 308.81 159.067 308.598 159.067L308.592 159.06Z" fill="black"/>
<path d="M396.952 204.108C396.515 204.108 396.111 203.817 395.992 203.373L373.132 119.109C372.986 118.579 373.297 118.037 373.826 117.891C374.356 117.745 374.898 118.063 375.044 118.586L397.905 202.85C398.05 203.38 397.739 203.923 397.21 204.069C397.124 204.095 397.038 204.102 396.952 204.102V204.108Z" fill="black"/>
<path d="M281.324 86.3709H281.311L188.465 85.4042C187.916 85.4042 187.479 84.9474 187.485 84.3979C187.485 83.855 187.935 83.418 188.478 83.418H188.491L281.337 84.3846C281.887 84.3846 282.323 84.8415 282.317 85.391C282.317 85.9339 281.867 86.3709 281.324 86.3709Z" fill="black"/>
<path d="M360.328 119.839C360.328 119.839 360.269 119.839 360.236 119.839C359.686 119.786 359.289 119.309 359.336 118.76L360.891 101.651C360.944 101.102 361.427 100.698 361.969 100.751C362.518 100.804 362.915 101.28 362.869 101.83L361.314 118.938C361.268 119.455 360.831 119.839 360.328 119.839Z" fill="black"/>
<path d="M274.218 119.837H249.981C249.431 119.837 248.988 119.393 248.988 118.844V101.735C248.988 101.186 249.431 100.742 249.981 100.742C250.53 100.742 250.973 101.186 250.973 101.735V117.851H274.218C274.767 117.851 275.21 118.294 275.21 118.844C275.21 119.393 274.767 119.837 274.218 119.837Z" fill="black"/>
<path d="M7.96658 152.944C7.51664 152.944 7.10641 152.632 7.00054 152.176C6.87482 151.639 7.20566 151.11 7.74161 150.984L95.44 130.452C95.9759 130.327 96.5053 130.658 96.631 131.194C96.7567 131.73 96.4259 132.26 95.8899 132.386L8.19155 152.917C8.11215 152.937 8.03937 152.944 7.96658 152.944Z" fill="black"/>
<path d="M116.296 127.002C115.846 127.002 115.436 126.69 115.33 126.234C115.204 125.697 115.535 125.168 116.071 125.042L168.098 112.82C168.634 112.694 169.164 113.025 169.289 113.561C169.415 114.097 169.084 114.627 168.548 114.753L116.521 126.975C116.441 126.995 116.369 127.002 116.296 127.002Z" fill="black"/>
<path d="M31.0589 136.614C30.92 136.614 30.781 136.575 30.6619 136.482C30.3708 136.263 30.3112 135.846 30.5296 135.555L63.8317 90.8969C64.05 90.6056 64.4669 90.546 64.758 90.7645C65.0491 90.983 65.1087 91.4001 64.8903 91.6915L31.5883 136.349C31.4559 136.522 31.2574 136.614 31.0589 136.614Z" fill="black"/>
<path d="M46.82 126.672C46.6877 126.672 46.5488 126.632 46.4363 126.546C46.1385 126.334 46.0724 125.917 46.2907 125.619L60.2785 106.239C60.4902 105.941 60.9071 105.875 61.2049 106.094C61.5026 106.306 61.5688 106.723 61.3504 107.021L47.3626 126.4C47.2303 126.579 47.0318 126.672 46.8267 126.672H46.82Z" fill="black"/>
<path d="M149.843 112.176C149.717 112.176 149.591 112.143 149.486 112.071L141.956 107.184C141.651 106.986 141.559 106.575 141.764 106.271C141.962 105.966 142.373 105.873 142.677 106.079L150.207 110.965C150.511 111.163 150.604 111.574 150.399 111.879C150.273 112.077 150.061 112.183 149.843 112.183V112.176Z" fill="black"/>
<path d="M71.2425 163.94C70.8786 163.94 70.5808 163.642 70.5808 163.278V156.393C70.5808 156.028 70.8786 155.73 71.2425 155.73C71.6064 155.73 71.9042 156.028 71.9042 156.393V163.278C71.9042 163.642 71.6064 163.94 71.2425 163.94Z" fill="black"/>
<path d="M74.0216 146.395C73.7702 146.395 73.532 146.256 73.4195 146.011C73.2673 145.68 73.4129 145.282 73.7437 145.13L92.6147 136.357C92.9521 136.205 93.3425 136.351 93.4947 136.682C93.6469 137.013 93.5013 137.41 93.1705 137.562L74.2995 146.335C74.2069 146.375 74.1143 146.395 74.0216 146.395Z" fill="black"/>
<path d="M78.0181 150.056C77.7535 150.056 77.502 149.897 77.4028 149.639C77.2704 149.301 77.4359 148.917 77.7733 148.778L81.439 147.335C81.7764 147.202 82.1602 147.368 82.2992 147.705C82.4381 148.043 82.2661 148.427 81.9286 148.566L78.263 150.01C78.1835 150.043 78.1042 150.056 78.0181 150.056Z" fill="black"/>
<path d="M54.4822 249.587C54.3764 249.587 54.2771 249.56 54.1779 249.514C53.8536 249.348 53.7279 248.944 53.8933 248.62L80.2015 197.858C80.3669 197.533 80.7706 197.407 81.0948 197.573C81.419 197.738 81.5447 198.142 81.3793 198.467L55.0711 249.229C54.952 249.454 54.7204 249.587 54.4822 249.587Z" fill="black"/>
<path d="M79.4606 213.928C79.3613 213.928 79.2621 213.908 79.1694 213.862C78.8386 213.703 78.7063 213.306 78.8651 212.975L83.7482 202.977C83.907 202.646 84.304 202.514 84.6349 202.672C84.9657 202.831 85.098 203.229 84.9392 203.56L80.0561 213.557C79.9436 213.789 79.7054 213.928 79.4606 213.928Z" fill="black"/>
<path d="M78.574 242.921C78.3689 242.921 78.1704 242.829 78.038 242.65C77.8197 242.352 77.8858 241.941 78.1836 241.723L95.2813 229.282C95.579 229.07 95.9892 229.13 96.2076 229.428C96.426 229.726 96.3598 230.136 96.062 230.355L78.9644 242.796C78.8453 242.882 78.7129 242.921 78.574 242.921Z" fill="black"/>
<path d="M191.588 227.708C191.588 227.708 191.561 227.708 191.555 227.708L160.139 226.039C159.775 226.02 159.497 225.708 159.51 225.344C159.53 224.98 159.847 224.702 160.205 224.715L191.621 226.384C191.985 226.404 192.263 226.715 192.25 227.079C192.23 227.43 191.939 227.708 191.588 227.708Z" fill="black"/>
<path d="M174.709 220.375H160.721C160.357 220.375 160.059 220.077 160.059 219.713C160.059 219.349 160.357 219.051 160.721 219.051H174.709C175.072 219.051 175.37 219.349 175.37 219.713C175.37 220.077 175.072 220.375 174.709 220.375Z" fill="black"/>
<path d="M166.941 275.252C166.755 275.252 166.57 275.173 166.438 275.02C166.199 274.742 166.226 274.325 166.504 274.087L200.474 244.65C200.752 244.412 201.169 244.439 201.407 244.717C201.645 244.995 201.619 245.412 201.341 245.65L167.371 275.087C167.245 275.193 167.093 275.246 166.941 275.246V275.252Z" fill="black"/>
<path d="M182.258 271.584C182.093 271.584 181.927 271.525 181.802 271.399C181.537 271.147 181.53 270.724 181.782 270.465L185.315 266.797C185.567 266.533 185.99 266.526 186.248 266.778C186.513 267.029 186.519 267.453 186.268 267.711L182.735 271.379C182.602 271.512 182.43 271.584 182.258 271.584Z" fill="black"/>
<path d="M302.934 178.055H273.073C272.709 178.055 272.411 177.757 272.411 177.393C272.411 177.028 272.709 176.73 273.073 176.73H302.934C303.298 176.73 303.596 177.028 303.596 177.393C303.596 177.757 303.298 178.055 302.934 178.055Z" fill="black"/>
<path d="M300.38 171.496H291.832C291.468 171.496 291.17 171.198 291.17 170.834C291.17 170.47 291.468 170.172 291.832 170.172H300.38C300.744 170.172 301.042 170.47 301.042 170.834C301.042 171.198 300.744 171.496 300.38 171.496Z" fill="black"/>
<path d="M205.02 152.056C204.808 152.056 204.603 151.956 204.471 151.764C204.266 151.46 204.345 151.049 204.643 150.844L232.506 131.849C232.81 131.643 233.22 131.723 233.426 132.021C233.631 132.325 233.551 132.736 233.254 132.941L205.39 151.936C205.278 152.016 205.146 152.049 205.02 152.049V152.056Z" fill="black"/>
<path d="M219.563 135.503C219.371 135.503 219.186 135.424 219.054 135.265C218.816 134.987 218.855 134.57 219.133 134.331L225.016 129.392C225.3 129.16 225.717 129.193 225.949 129.472C226.187 129.75 226.147 130.167 225.869 130.405L219.987 135.344C219.861 135.45 219.709 135.497 219.563 135.497V135.503Z" fill="black"/>
<path d="M198.026 109.736C197.907 109.736 197.781 109.703 197.675 109.637L188.683 103.97C188.372 103.778 188.279 103.367 188.478 103.056C188.67 102.745 189.08 102.652 189.391 102.851L198.383 108.518C198.694 108.71 198.787 109.121 198.588 109.432C198.463 109.631 198.244 109.743 198.026 109.743V109.736Z" fill="black"/>
<path d="M190.251 186.271C189.887 186.271 189.59 185.973 189.59 185.609V181.166C189.59 180.802 189.887 180.504 190.251 180.504C190.615 180.504 190.913 180.802 190.913 181.166V185.609C190.913 185.973 190.615 186.271 190.251 186.271Z" fill="black"/>
<path d="M273.073 128.616C272.861 128.616 272.656 128.517 272.524 128.325C272.319 128.02 272.392 127.61 272.696 127.405L302.557 106.966C302.862 106.761 303.272 106.84 303.477 107.138C303.682 107.443 303.609 107.853 303.305 108.058L273.444 128.497C273.331 128.576 273.199 128.61 273.073 128.61V128.616Z" fill="black"/>
<path d="M300.38 116.063C300.188 116.063 299.997 115.984 299.871 115.825C299.639 115.54 299.679 115.123 299.963 114.891L309.525 107.006C309.803 106.774 310.226 106.814 310.458 107.099C310.689 107.383 310.65 107.8 310.365 108.032L300.804 115.918C300.678 116.017 300.533 116.07 300.387 116.07L300.38 116.063Z" fill="black"/>
<path d="M269.182 107.621H256.75C256.386 107.621 256.088 107.323 256.088 106.959C256.088 106.595 256.386 106.297 256.75 106.297H269.182C269.546 106.297 269.844 106.595 269.844 106.959C269.844 107.323 269.546 107.621 269.182 107.621Z" fill="black"/>
<path d="M263.968 116.066H250.424C250.06 116.066 249.762 115.768 249.762 115.404C249.762 115.04 250.06 114.742 250.424 114.742H263.968C264.332 114.742 264.63 115.04 264.63 115.404C264.63 115.768 264.332 116.066 263.968 116.066Z" fill="black"/>
<path d="M288.947 88.8516C288.715 88.8516 288.497 88.7324 288.371 88.5205C288.192 88.2027 288.298 87.7988 288.616 87.6135L301.604 80.1716C301.922 79.9862 302.326 80.0987 302.511 80.4165C302.69 80.7343 302.584 81.1382 302.266 81.3236L289.277 88.7655C289.172 88.8251 289.059 88.8516 288.947 88.8516Z" fill="black"/>
<path d="M346.559 77.0742H313.475C313.111 77.0742 312.813 76.7762 312.813 76.4121C312.813 76.0479 313.111 75.75 313.475 75.75H346.559C346.923 75.75 347.22 76.0479 347.22 76.4121C347.22 76.7762 346.923 77.0742 346.559 77.0742Z" fill="black"/>
<path d="M327.913 80.6289H314.037C313.673 80.6289 313.376 80.3309 313.376 79.9668C313.376 79.6026 313.673 79.3047 314.037 79.3047H327.913C328.277 79.3047 328.574 79.6026 328.574 79.9668C328.574 80.3309 328.277 80.6289 327.913 80.6289Z" fill="black"/>
<path d="M375.203 108.953H368.877C368.513 108.953 368.215 108.655 368.215 108.291C368.215 107.927 368.513 107.629 368.877 107.629H375.203C375.567 107.629 375.864 107.927 375.864 108.291C375.864 108.655 375.567 108.953 375.203 108.953Z" fill="black"/>
<path d="M315.586 144.501C315.374 144.501 315.169 144.402 315.043 144.216C314.831 143.918 314.911 143.501 315.209 143.296L339.188 126.631C339.485 126.419 339.902 126.499 340.107 126.797C340.319 127.095 340.24 127.512 339.942 127.717L315.963 144.382C315.85 144.461 315.718 144.501 315.586 144.501Z" fill="black"/>
<path d="M350.006 116.065C349.801 116.065 349.596 115.972 349.47 115.787C349.258 115.489 349.325 115.079 349.622 114.86L356.729 109.749C357.026 109.537 357.437 109.603 357.655 109.901C357.867 110.199 357.801 110.609 357.503 110.828L350.396 115.939C350.277 116.025 350.145 116.065 350.013 116.065H350.006Z" fill="black"/>
<path d="M215.117 203.937H215.104L166.921 202.871C166.557 202.864 166.265 202.56 166.272 202.196C166.279 201.838 166.576 201.547 166.934 201.547H166.947L215.13 202.613C215.494 202.619 215.785 202.924 215.779 203.288C215.772 203.646 215.474 203.937 215.117 203.937Z" fill="black"/>
<path d="M412.203 209.227H394.298C393.934 209.227 393.637 208.929 393.637 208.564C393.637 208.2 393.934 207.902 394.298 207.902H412.203C412.567 207.902 412.865 208.2 412.865 208.564C412.865 208.929 412.567 209.227 412.203 209.227Z" fill="black"/>
<path d="M417.278 214.039H408.452C408.088 214.039 407.79 213.741 407.79 213.377C407.79 213.013 408.088 212.715 408.452 212.715H417.278C417.642 212.715 417.94 213.013 417.94 213.377C417.94 213.741 417.642 214.039 417.278 214.039Z" fill="black"/>
<path d="M390.964 131.728C390.679 131.728 390.414 131.543 390.328 131.258L376.764 86.6335C376.658 86.2825 376.857 85.9118 377.207 85.8058C377.558 85.6999 377.929 85.8985 378.035 86.2494L391.599 130.874C391.705 131.225 391.506 131.596 391.155 131.702C391.089 131.722 391.023 131.728 390.964 131.728Z" fill="black"/>
<path d="M398.46 141.635C398.176 141.635 397.911 141.449 397.825 141.165L394.497 130.094C394.391 129.743 394.59 129.373 394.94 129.267C395.291 129.161 395.662 129.359 395.767 129.71L399.096 140.781C399.201 141.131 399.003 141.502 398.652 141.608C398.586 141.628 398.527 141.635 398.46 141.635Z" fill="black"/>
<path d="M166.941 156.558C166.908 156.558 166.874 156.558 166.835 156.552C166.471 156.492 166.226 156.154 166.286 155.797L172.333 117.64C172.393 117.276 172.73 117.031 173.088 117.091C173.451 117.151 173.696 117.488 173.637 117.846L167.589 156.002C167.536 156.326 167.258 156.558 166.934 156.558H166.941Z" fill="black"/>
<path d="M171.162 172.217C171.162 172.217 171.109 172.217 171.083 172.217C170.719 172.177 170.461 171.846 170.5 171.482L172.333 155.817C172.373 155.453 172.704 155.195 173.068 155.235C173.432 155.274 173.69 155.605 173.65 155.969L171.817 171.634C171.777 171.972 171.493 172.217 171.162 172.217Z" fill="black"/>
<path d="M215.117 71.7968H190.251C189.887 71.7968 189.59 71.4989 189.59 71.1347C189.59 70.7706 189.887 70.4727 190.251 70.4727H215.117C215.481 70.4727 215.779 70.7706 215.779 71.1347C215.779 71.4989 215.481 71.7968 215.117 71.7968Z" fill="black"/>
<path d="M205.02 79.0742H188.478C188.114 79.0742 187.816 78.7762 187.816 78.4121C187.816 78.0479 188.114 77.75 188.478 77.75H205.02C205.384 77.75 205.682 78.0479 205.682 78.4121C205.682 78.7762 205.384 79.0742 205.02 79.0742Z" fill="black"/>
<path d="M198.026 82.0742H188.478C188.114 82.0742 187.816 81.7762 187.816 81.4121C187.816 81.0479 188.114 80.75 188.478 80.75H198.026C198.39 80.75 198.688 81.0479 198.688 81.4121C198.688 81.7762 198.39 82.0742 198.026 82.0742Z" fill="black"/>
<path d="M242.596 94.3203H194.804C194.44 94.3203 194.142 94.0223 194.142 93.6582C194.142 93.294 194.44 92.9961 194.804 92.9961H242.596C242.96 92.9961 243.258 93.294 243.258 93.6582C243.258 94.0223 242.96 94.3203 242.596 94.3203Z" fill="black"/>
<path d="M372.979 170.934H331.016C330.652 170.934 330.354 170.636 330.354 170.271C330.354 169.907 330.652 169.609 331.016 169.609H372.979C373.343 169.609 373.641 169.907 373.641 170.271C373.641 170.636 373.343 170.934 372.979 170.934Z" fill="black"/>
<path d="M372.979 176.555H361.102C360.738 176.555 360.441 176.257 360.441 175.893C360.441 175.528 360.738 175.23 361.102 175.23H372.979C373.343 175.23 373.641 175.528 373.641 175.893C373.641 176.257 373.343 176.555 372.979 176.555Z" fill="black"/>
</svg>
