<svg fill="none" height="40" viewBox="0 0 40 40" width="40" xmlns="http://www.w3.org/2000/svg" xmlns:xlink="http://www.w3.org/1999/xlink"><clipPath id="a"><path d="m0 0h40v40h-40z"/></clipPath><g clip-path="url(#a)" stroke="#ff2d20" stroke-linecap="round" stroke-linejoin="round" stroke-width="2"><path d="m7.89 1c3.8 0 6.89 3.08 6.89 6.89 0 6.75-6.89 11.25-6.89 11.25s-6.89-4.5-6.89-11.25c0-3.81 3.08-6.89 6.89-6.89z"/><path d="m7.89004 10.9891c1.71208 0 3.09996-1.38795 3.09996-3.10004 0-1.71208-1.38788-3.1-3.09996-3.1s-3.1 1.38792-3.1 3.1c0 1.71209 1.38792 3.10004 3.1 3.10004z"/><path d="m32.11 20.8711c3.8 0 6.89 3.08 6.89 6.89 0 6.75-6.89 11.25-6.89 11.25s-6.89-4.5-6.89-11.25c0-3.8 3.08-6.89 6.89-6.89z"/><path d="m32.11 30.8484c1.7121 0 3.1-1.3879 3.1-3.1 0-1.712-1.3879-3.1-3.1-3.1s-3.1 1.388-3.1 3.1c0 1.7121 1.3879 3.1 3.1 3.1z"/><path d="m21.1099 29.9308h-4.26c-2.74 0-4.97-2.22-4.97-4.97 0-2.74 2.22-4.97 4.97-4.97h6.29c2.74 0 4.97-2.22 4.97-4.97 0-2.74-2.22-4.97-4.97-4.97h-4.26"/></g></svg>