<?xml version="1.0" encoding="UTF-8"?>
<svg id="Layer_1" data-name="Layer 1" xmlns="http://www.w3.org/2000/svg" viewBox="0 0 246.9 240.47">
  <defs>
    <style>
      .cls-1, .cls-2 {
        stroke-width: 0px;
      }

      .cls-2 {
        fill: #ff2d20;
      }
    </style>
  </defs>
  <path class="cls-2" d="m135.79,79.38c-2.32-11.57-15.2-20.43-28.87-20.22-13.7.21-23.83,9.47-22.54,21.1,1.34,12.12,14.46,22.1,29.22,21.82,14.73-.27,24.61-10.64,22.19-22.7Zm-24.32,15.48c-9.8.18-18.5-6.44-19.39-14.48-.85-7.72,5.86-13.86,14.96-14,9.08-.14,17.62,5.75,19.16,13.42,1.6,8-4.95,14.88-14.73,15.06Z"/>
  <path class="cls-2" d="m182.99,70.43C169.34,33.51,128.61,4.09,86.13,5.62,34.91,7.48,2.76,51.94,24.16,103.22c47.37,113.49,153.11,136.46,153.11,136.46,0,0,36.31-86.45,5.71-169.25Zm-8.73,152.05s-91.75-22.8-135.31-124.13C19.26,52.58,45.93,14.09,90.06,13.67c36.61-.34,72.44,26.61,85.09,59.53,28.37,73.83-.89,149.28-.89,149.28Z"/>
  <g>
    <path class="cls-1" d="m181.26,239.19c-.11,0-.21-.01-.32-.03-.27-.06-27.06-6.03-59.26-25.86-29.71-18.3-70.29-52.5-94.92-111.49C11.69,65.69,22.36,29.65,53.32,12.11c.71-.41,1.62-.16,2.03.54.42.7.19,1.61-.5,2.04-27.57,16.98-36.43,49.4-22.58,82.59,23.71,56.8,62.77,89.74,91.36,107.37,27.17,16.76,50.3,23.25,55.79,24.63,4.08-10.5,32.49-88.73,5.08-162.91-.15-.41-.31-.81-.47-1.21l-.24-.59c-.3-.76.06-1.62.82-1.94.76-.31,1.62.04,1.95.79.75,1.72,1.33,3.14,1.82,4.49h0c15.92,43.08,13.51,87.1,8.69,116.44-5.22,31.77-14.34,53.69-14.43,53.91-.24.57-.79.92-1.38.92ZM23.11,73.34c.46,8.87,2.56,18.09,6.41,27.31,24.32,58.26,64.39,92.02,93.72,110.09,27.88,17.17,51.54,23.79,57.09,25.19.7-1.79,2.12-5.56,3.86-10.95-1.48,4.24-2.47,6.6-2.5,6.67-.28.67-.99,1.04-1.7.88-.26-.06-26.42-5.88-57.85-25.25-29-17.86-68.62-51.25-92.66-108.83-3.52-8.42-5.65-16.86-6.38-25.1Z"/>
    <path class="cls-1" d="m180.33,232.56c-.11,0-.21-.01-.32-.03-.26-.06-26.42-5.88-57.85-25.25-29-17.86-68.62-51.25-92.66-108.83h0c-7.27-17.42-8.63-34.92-3.93-50.6,4.48-14.96,14.06-27.3,27.7-35.7,10.87-6.16,23.23-9.51,36.79-10,39.87-1.44,80.42,24.34,96.5,61.3l.25.62c.17.43.35.86.51,1.29,15.54,42.05,13.19,85.02,8.48,113.66-5.1,31.01-14,52.41-14.08,52.63-.24.57-.79.92-1.38.92ZM32.27,97.29c23.71,56.8,62.77,89.74,91.36,107.37,27.17,16.76,50.3,23.25,55.79,24.63,4.08-10.5,32.49-88.73,5.08-162.91-.15-.41-.31-.81-.47-1.21l-.24-.59C168.2,28.76,128.84,3.74,90.16,5.13c-13.07.47-24.97,3.7-35.37,9.59-27.52,16.95-36.38,49.38-22.53,82.57h0Z"/>
  </g>
  <path class="cls-1" d="m178.24,221.99c-.12,0-.24-.01-.36-.04-.23-.06-23.51-5.97-51.77-24.26-26.07-16.87-61.9-48.04-84.56-100.73-9.56-22.24-8.78-44.62,2.15-61.38,10.39-15.93,28.73-25.19,50.34-25.39v1.5s0-1.5,0-1.5c35.91-.33,73.12,25.67,86.5,60.49,28.25,73.52-.6,149.6-.89,150.36-.23.59-.79.96-1.4.96ZM94.06,13.18c-20.58.19-38.02,8.95-47.85,24.03-10.37,15.91-11.06,37.25-1.9,58.56,22.33,51.94,57.64,82.69,83.33,99.33,24.08,15.6,44.45,22.08,49.67,23.58,3.6-10.19,26.26-79.69.43-146.93-12.87-33.5-48.47-58.57-83.01-58.57-.22,0-.44,0-.67,0h0Z"/>
  <path class="cls-1" d="m114.99,101.59c-15.24,0-28.68-10.28-30.11-23.16-.59-5.33,1.06-10.52,4.66-14.59,4.47-5.07,11.52-8.05,19.35-8.17.17,0,.34,0,.51,0,14.37,0,27.43,9.34,29.85,21.43h0c1.13,5.65-.22,11.22-3.8,15.68-4.38,5.45-11.61,8.66-19.83,8.81-.21,0-.42,0-.63,0Zm-5.61-42.93c-.15,0-.29,0-.44,0-6.99.11-13.24,2.71-17.15,7.15-3.07,3.48-4.43,7.73-3.92,12.28,1.24,11.21,13.61,20.49,27.15,20.49.18,0,.37,0,.55,0,7.33-.14,13.73-2.94,17.55-7.69,3.02-3.75,4.15-8.44,3.2-13.21h0c-2.12-10.56-14.14-19.02-26.93-19.02Z"/>
  <path class="cls-1" d="m114.05,94.37c-10.37,0-19.51-7.02-20.48-15.82-.41-3.68.73-7.26,3.21-10.08,3.06-3.47,7.88-5.51,13.21-5.59,9.92-.15,18.98,6.27,20.65,14.63h0c.78,3.9-.15,7.74-2.62,10.82-3,3.73-7.94,5.93-13.55,6.04-.14,0-.29,0-.43,0Zm-3.72-28.49c-.1,0-.19,0-.29,0-4.49.07-8.51,1.74-11.01,4.58-1.94,2.2-2.8,4.89-2.48,7.76.8,7.19,8.77,13.15,17.52,13.15.12,0,.24,0,.36,0,4.72-.09,8.82-1.88,11.26-4.92,1.91-2.37,2.62-5.34,2.02-8.35-1.36-6.79-9.12-12.22-17.38-12.22Z"/>
  <path class="cls-1" d="m178.24,221.99c-.57,0-1.12-.33-1.37-.89l-54.42-121.74c-.34-.76,0-1.64.76-1.98.76-.34,1.64,0,1.98.76l54.42,121.74c.34.76,0,1.64-.76,1.98-.2.09-.41.13-.61.13Z"/>
  <path class="cls-1" d="m105.23,58.66c-.57,0-1.12-.33-1.37-.89l-19.64-43.94c-.34-.76,0-1.64.76-1.98.76-.34,1.64,0,1.98.76l19.64,43.94c.34.76,0,1.64-.76,1.98-.2.09-.41.13-.61.13Z"/>
  <path class="cls-1" d="m187.6,186.04c-.61,0-1.18-.37-1.41-.98l-11.18-30.21-25.36-58.14-12.88-27.93-9.76-20.59-18.4-34.29c-.39-.73-.12-1.64.61-2.03.73-.39,1.64-.12,2.03.61l18.43,34.35,9.8,20.67,12.89,27.97,25.4,58.25,11.21,30.28c.29.78-.11,1.64-.89,1.93-.17.06-.35.09-.52.09Z"/>
  <path class="cls-1" d="m191.1,129.36c-.58,0-1.13-.33-1.37-.9l-14.42-32.79-13.68-32.15-25.53-39.02c-.45-.69-.26-1.62.43-2.08.69-.45,1.62-.26,2.08.43l25.6,39.13c.05.07.09.15.12.23l13.73,32.26,14.42,32.77c.33.76-.01,1.64-.77,1.98-.2.09-.4.13-.6.13Z"/>
  <path class="cls-1" d="m126.59,196.76c-.66,0-1.26-.44-1.45-1.1l-8.87-32.47-19.03-44.36s-.03-.07-.04-.1l-14.75-42.46-5.08-16.85-15.48-37.72c-.31-.77.05-1.64.82-1.96.77-.31,1.64.05,1.96.82l15.51,37.78s.03.09.05.14l5.08,16.86,14.71,42.35,19.05,44.4c.03.06.05.13.07.2l8.9,32.58c.22.8-.25,1.62-1.05,1.84-.13.04-.27.05-.4.05Z"/>
  <path class="cls-1" d="m73.33,149.18c-.65,0-1.25-.43-1.44-1.09l-4.19-14.73-11.69-37.85s-.02-.08-.03-.12l-5.32-24.05-9.39-29.49c-.25-.79.19-1.63.97-1.88.79-.25,1.63.19,1.88.97l9.41,29.56s.03.09.04.13l5.33,24.05,11.68,37.82,4.2,14.77c.23.8-.24,1.63-1.03,1.85-.14.04-.28.06-.41.06Z"/>
  <path class="cls-1" d="m85.7,202.87c-2.65,0-5.71-.19-9.25-.65-21.64-2.8-23.79-10.89-24.75-23.87-.5-6.66-6.9-11.96-13.1-17.08-5.06-4.19-9.85-8.14-11.95-12.99-4.58-10.54-2.01-26.7,5.19-32.63.64-.53,1.58-.43,2.11.21s.43,1.58-.21,2.11c-5.63,4.64-8.75,18.99-4.34,29.12,1.82,4.19,6.33,7.92,11.11,11.87,6.68,5.52,13.58,11.23,14.18,19.17.9,12.11,2.3,18.55,22.15,21.12,18.71,2.43,22.45-3.04,22.48-3.09.38-.74,1.29-1.02,2.02-.64.74.38,1.02,1.29.64,2.02-.33.64-3.22,5.34-16.27,5.34Z"/>
  <path class="cls-1" d="m82.65,196.76c-15.6,0-25.12-7.82-26.13-21.46-.51-6.93-7.82-13.9-14.26-20.05-4.08-3.89-7.93-7.57-9.83-10.99-5.37-9.67.01-17.27,6.26-20.83.72-.41,1.64-.16,2.05.56s.16,1.64-.56,2.05c-5.3,3.03-9.43,9.02-5.12,16.77,1.68,3.02,5.37,6.54,9.28,10.27,6.84,6.52,14.58,13.92,15.18,22,.89,12.05,9.11,18.68,23.14,18.68h.09c7.25-.01,9.87-.66,10.78-1.03-.16-.47-.08-1.01.26-1.42.52-.64,1.47-.74,2.11-.21.66.54,1.16,1.55.79,2.59-.56,1.58-2.64,3.05-13.93,3.07h-.09Zm11.33-3.35s0,0,0,0c0,0,0,0,0,0Z"/>
  <path class="cls-1" d="m74.4,119.58h-9.85c-.83,0-1.5-.67-1.5-1.5s.67-1.5,1.5-1.5h1.73l-3.59-1.37c-.77-.3-1.16-1.16-.87-1.94.3-.77,1.17-1.16,1.94-.87l11.17,4.27c.68.26,1.07.96.94,1.67-.13.71-.75,1.23-1.47,1.23Z"/>
  <path class="cls-1" d="m162.1,119.58c-.76,0-1.41-.58-1.49-1.35-.08-.82.52-1.56,1.34-1.64l7.66-.76c.82-.09,1.56.52,1.64,1.34.08.82-.52,1.56-1.34,1.64l-7.66.76c-.05,0-.1,0-.15,0Z"/>
  <path class="cls-1" d="m156.74,77.27c-.54,0-1.07-.29-1.33-.81l-23.55-45.44c-.38-.74-.09-1.64.64-2.02.73-.38,1.64-.09,2.02.64l23.55,45.44c.38.74.09,1.64-.64,2.02-.22.11-.46.17-.69.17Z"/>
  <path class="cls-1" d="m139.19,205.32c-.7,0-1.32-.49-1.47-1.2l-12.6-60.89c-.17-.81.35-1.6,1.17-1.77.8-.17,1.6.35,1.77,1.17l12.6,60.89c.17.81-.35,1.6-1.17,1.77-.1.02-.2.03-.31.03Z"/>
  <path class="cls-1" d="m60.42,51.07c-.57,0-1.12-.33-1.37-.88l-9.4-20.78c-.34-.75,0-1.64.75-1.99.75-.34,1.64,0,1.98.75l9.4,20.78c.34.75,0,1.64-.75,1.99-.2.09-.41.13-.62.13Z"/>
  <path class="cls-1" d="m87.8,54.55c-.4,0-.8-.16-1.1-.48l-7.14-7.64-9.65-5.98c-.7-.44-.92-1.36-.49-2.07.44-.71,1.36-.92,2.07-.49l9.82,6.08c.11.07.21.15.31.25l7.28,7.78c.57.61.53,1.55-.07,2.12-.29.27-.66.4-1.02.4Z"/>
  <path class="cls-1" d="m139.19,106.89c-.54,0-1.06-.29-1.33-.8l-6.46-12.16c-.39-.73-.11-1.64.62-2.03.73-.39,1.64-.11,2.03.62l6.46,12.16c.39.73.11,1.64-.62,2.03-.22.12-.46.17-.7.17Z"/>
  <path class="cls-1" d="m170.91,169.89c-.59,0-1.14-.34-1.38-.92l-14.17-33.7c-.32-.76.04-1.64.8-1.96.76-.32,1.64.04,1.96.8l14.17,33.7c.32.76-.04,1.64-.8,1.96-.19.08-.39.12-.58.12Z"/>
  <path class="cls-1" d="m184.69,158.02c-.59,0-1.16-.35-1.39-.94l-5.17-12.83c-.31-.77.06-1.64.83-1.95.77-.3,1.64.06,1.95.83l5.17,12.83c.31.77-.06,1.64-.83,1.95-.18.07-.37.11-.56.11Z"/>
  <path class="cls-1" d="m104.01,180.93c-.66,0-1.26-.44-1.44-1.1l-9.89-35.74c-.22-.8.25-1.62,1.04-1.85.8-.22,1.62.25,1.85,1.04l9.89,35.74c.22.8-.25,1.62-1.04,1.85-.13.04-.27.05-.4.05Z"/>
  <path class="cls-1" d="m109.21,31.06c-.57,0-1.1-.32-1.35-.86-.31-.66-.11-1.45.49-1.87l5.97-4.21c.68-.48,1.61-.32,2.09.36.32.45.35,1.01.14,1.48.72-.08,1.41.37,1.61,1.09.22.8-.24,1.62-1.04,1.85l-7.5,2.11c-.13.04-.27.06-.41.06Z"/>
</svg>