<?xml version="1.0" encoding="UTF-8"?>
<svg id="Layer_1" data-name="Layer 1" xmlns="http://www.w3.org/2000/svg" viewBox="0 0 246.9 240.47">
  <defs>
    <style>
      .cls-1, .cls-2 {
        stroke-width: 0px;
      }

      .cls-2 {
        fill: #ff2d20;
      }
    </style>
  </defs>
  <path class="cls-1" d="m58.57,200.6c-.6,0-1.17-.36-1.4-.95-.3-.77.08-1.64.85-1.94l6.41-2.51.36-9.9c.03-.83.7-1.51,1.55-1.45.83.03,1.48.72,1.45,1.55l-.39,10.88c-.02.6-.4,1.12-.95,1.34l-7.32,2.87c-.18.07-.37.1-.55.1Z"/>
  <polygon class="cls-2" points="36.06 191.2 33.06 207.59 47.75 205.17 49.91 195.37 54.37 194.79 59.62 200.33 64.86 196.64 66.28 181.35 36.06 191.2"/>
  <g>
    <polygon class="cls-2" points="242.77 133.02 218.71 140.63 91.16 30.47 114.28 26.67 242.77 133.02"/>
    <path class="cls-1" d="m219.84,138.76c-.36,0-.7-.13-.98-.37L91.3,28.23c-.44-.38-.62-.98-.46-1.54.16-.56.63-.98,1.2-1.07l23.12-3.8c.43-.07.87.05,1.2.33l128.49,106.35c.42.35.62.9.52,1.44-.11.54-.5.98-1.02,1.14l-24.06,7.61c-.15.05-.3.07-.45.07ZM95.69,28.06l124.49,107.52,20.64-6.53L114.97,24.89l-19.28,3.17Z"/>
    <path class="cls-1" d="m220.07,148.7s-.07,0-.07,0h0s0,0,0,0h0c-.07,0-.15-.01-.22-.03h0s0,0,0,0c0,0,0,0,0,0h0s0,0,0,0h0c-.24-.05-.46-.16-.65-.32,0,0,0,0,0,0,0,0,0,0,0,0,0,0,0,0,0,0h0s0,0,0,0L90.69,35.89c-.36-.31-.54-.78-.51-1.25l.61-7.66c.07-.83.78-1.43,1.61-1.38.83.07,1.44.79,1.38,1.61l-.55,6.91,125.26,109.7-.15-6.53v-.03c0-.81.65-1.48,1.46-1.5h.04c.81,0,1.48.65,1.5,1.46l.18,7.89,21.33-7.33-.45-8.06c-.05-.83.59-1.54,1.41-1.58.82-.02,1.54.59,1.58,1.41l.52,9.19c.04.67-.38,1.28-1.01,1.5l-24.34,8.36c-.16.06-.33.08-.49.08Z"/>
  </g>
  <g>
    <path class="cls-1" d="m32.25,141.22c-.14,0-.28-.02-.42-.06l-29.28-8.56c-.57-.17-.99-.65-1.07-1.24-.08-.59.19-1.17.7-1.48L118.65,58.05c.7-.43,1.63-.22,2.06.49.44.71.22,1.63-.49,2.06L6.63,130.66l25.38,7.43,102.96-65.96c.7-.45,1.62-.24,2.07.45.45.7.24,1.63-.45,2.07l-103.53,66.33c-.24.16-.53.24-.81.24Z"/>
    <path class="cls-1" d="m158.99,60.02c-.49,0-.98-.24-1.26-.69-.45-.7-.24-1.63.45-2.07l21.86-14-22.68-5.56-14.51,8.95c-.7.43-1.63.22-2.06-.49-.44-.71-.22-1.63.49-2.06l15.04-9.28c.34-.21.76-.28,1.14-.18l26.69,6.54c.58.14,1.02.62,1.12,1.21s-.17,1.19-.67,1.51l-24.81,15.89c-.25.16-.53.24-.81.24Z"/>
    <path class="cls-1" d="m163.94,64.97c-.49,0-.97-.24-1.26-.68-.45-.7-.25-1.62.44-2.08l19.17-12.43v-7.16c0-.83.67-1.5,1.5-1.5s1.5.67,1.5,1.5v7.97c0,.51-.26.98-.68,1.26l-19.86,12.88c-.25.16-.54.24-.82.24Z"/>
    <path class="cls-1" d="m32.4,150.26s-.07,0-.1,0h0s0,0,0,0h0c-.12,0-.23-.03-.34-.07l-29.41-9.04c-.63-.19-1.06-.77-1.06-1.43v-8.56c0-.83.67-1.5,1.5-1.5s1.5.67,1.5,1.5v7.46l26.39,8.11-.11-6.98v-.02c0-.82.66-1.49,1.48-1.5h.02c.82,0,1.49.66,1.5,1.48l.1,6.33,106.58-69.1c.7-.45,1.62-.25,2.08.44.45.7.25,1.62-.44,2.08l-108.86,70.58c-.22.14-.48.22-.73.24h-.02s-.04,0-.07,0Z"/>
    <path class="cls-1" d="m170.63,69.34c-.49,0-.97-.24-1.26-.68-.45-.7-.25-1.62.44-2.08l12.49-8.1v-6.03c0-.83.67-1.5,1.5-1.5s1.5.67,1.5,1.5v6.85c0,.51-.26.98-.68,1.26l-13.17,8.54c-.25.16-.54.24-.82.24Z"/>
    <path class="cls-1" d="m32.4,158.96h-.03s0,0,0,0h-.02s0,0,0,0h0c-.13,0-.25-.03-.38-.07l-29.41-9.04c-.63-.19-1.06-.77-1.06-1.43v-7.44c0-.83.67-1.5,1.5-1.5s1.5.67,1.5,1.5v6.33l26.38,8.11-.11-5.85v-.03c0-.82.65-1.48,1.47-1.5h.03c.82,0,1.48.65,1.5,1.47l.09,5.22,112.3-72.81c.7-.45,1.62-.25,2.08.44.45.7.25,1.62-.44,2.08l-114.57,74.28s-.08.05-.12.07h0s0,0,0,0c0,0,0,0,0,0-.2.1-.42.16-.64.17h0s0,0,0,0h-.04Z"/>
    <path class="cls-1" d="m175.67,74.25c-.49,0-.97-.24-1.26-.68-.45-.7-.25-1.62.44-2.08l7.45-4.83v-7.16c0-.83.67-1.5,1.5-1.5s1.5.67,1.5,1.5v7.97c0,.51-.26.98-.68,1.26l-8.13,5.27c-.25.16-.54.24-.82.24Z"/>
    <path class="cls-1" d="m32.4,167.13c-.06,0-.12,0-.17,0,0,0,0,0,0,0h0c-.09-.01-.18-.03-.27-.06l-29.41-9.04c-.63-.19-1.06-.77-1.06-1.43v-8.56c0-.83.67-1.5,1.5-1.5s1.5.67,1.5,1.5v7.46l26.39,8.11-.11-6.98v-.02c0-.82.66-1.49,1.48-1.5h.02c.82,0,1.49.66,1.5,1.48l.1,6.33,117.67-76.29c.7-.45,1.62-.25,2.08.44.45.7.25,1.62-.44,2.08l-119.94,77.76s-.09.06-.14.08h0s0,0,0,0h0s0,0,0,0h0c-.16.08-.33.13-.5.15h0s0,0,0,0h0c-.05,0-.11,0-.16,0Z"/>
  </g>
  <path class="cls-1" d="m127.68,130.85c-2.55,0-4.62-2.41-4.62-5.38s2.07-5.37,4.62-5.37,4.62,2.41,4.62,5.37-2.07,5.38-4.62,5.38Zm0-7.75c-.88,0-1.62,1.09-1.62,2.37s.74,2.38,1.62,2.38,1.62-1.09,1.62-2.38-.74-2.37-1.62-2.37Z"/>
  <path class="cls-1" d="m131.16,126.98c-.72,0-1.36-.52-1.48-1.26-.13-.82.42-1.59,1.24-1.72l4.81-.79c.08-.01.16-.02.24-.02h6.89c.83,0,1.5.67,1.5,1.5s-.67,1.5-1.5,1.5h-6.77l-4.69.77c-.08.01-.16.02-.25.02Z"/>
  <path class="cls-1" d="m141.73,134.66c-.3,0-.59-.02-.88-.07-1.36-.23-2.5-1-3.13-2.11-1.25-2.22-.17-5.21,2.42-6.66h0c1.2-.68,2.56-.93,3.82-.72,1.36.23,2.5,1,3.13,2.11.63,1.11.69,2.49.18,3.77-.47,1.19-1.4,2.22-2.6,2.89-.92.52-1.94.79-2.94.79Zm-.12-6.23c-1.12.63-1.71,1.81-1.27,2.58.25.44.74.58,1.01.62.58.1,1.26-.04,1.85-.37.6-.34,1.06-.84,1.28-1.39.1-.26.24-.75,0-1.19-.25-.44-.74-.58-1.01-.62-.58-.1-1.26.04-1.85.37h0Z"/>
  <path class="cls-1" d="m140.69,128.31c-.31,0-.62-.09-.88-.29l-2.36-1.73c-.35-.26-.58-.66-.61-1.1l-.29-3.77c-.06-.83.56-1.55,1.38-1.61.81-.07,1.55.56,1.61,1.38l.23,3.08,1.8,1.32c.67.49.81,1.43.32,2.1-.29.4-.75.61-1.21.61Z"/>
  <path class="cls-1" d="m134.97,145.48c-1.96,0-3.92-1.39-4.79-3.58h0c-.5-1.28-.57-2.66-.19-3.88.41-1.32,1.33-2.35,2.52-2.82,2.37-.93,5.18.55,6.27,3.3s.05,5.76-2.32,6.7c-.48.19-.98.28-1.48.28Zm-.96-7.56c-.14,0-.28.02-.41.08-.47.18-.67.65-.75.92-.18.56-.13,1.25.12,1.89h0c.47,1.2,1.57,1.94,2.38,1.61.82-.32,1.11-1.61.63-2.8-.4-1.01-1.23-1.69-1.97-1.69Z"/>
  <path class="cls-1" d="m125.85,140.88c-.75,0-1.39-.56-1.49-1.32-.1-.82.49-1.57,1.31-1.67l2.47-.3s.07,0,.1,0l2.92-.15c.86-.02,1.53.59,1.58,1.42.04.83-.59,1.53-1.42,1.58l-2.87.15-2.42.29c-.06,0-.12.01-.18.01Z"/>
  <path class="cls-1" d="m36.6,197.73c-.44,0-.87-.19-1.16-.55l-5.51-6.72c-.31-.38-.42-.88-.29-1.35.13-.47.48-.85.94-1.01l28.61-10.21c.52-.19,1.11-.07,1.52.31l6.58,6.04c.39.35.56.88.46,1.4-.1.51-.46.94-.96,1.12l-29.68,10.88c-.17.06-.34.09-.52.09Zm-3-7.52l3.48,4.24,26.37-9.67-4.1-3.77-25.75,9.19Z"/>
  <path class="cls-1" d="m36.06,208.48c-.34,0-.67-.11-.94-.33l-4.97-4.03c-.35-.29-.56-.71-.56-1.17v-12.76c0-.83.67-1.5,1.5-1.5s1.5.67,1.5,1.5v12.04l2.12,1.72.39-7.79c.04-.83.77-1.45,1.57-1.42.83.04,1.46.75,1.42,1.57l-.54,10.75c-.03.56-.37,1.06-.89,1.29-.2.09-.4.13-.61.13Z"/>
  <path class="cls-1" d="m76.36,235.14c-.43,0-.88-.03-1.36-.08-.28-.03-.54-.14-.76-.31-4.3-3.4-25.68-31.84-26.59-33.05-.12-.17-.21-.35-.26-.55-.63-2.66.29-5.03,2.47-6.34,2.26-1.35,5.37-1.22,7.1.3,2.31,2.04,24.75,29.43,27.3,32.54.29.35.4.82.31,1.26-.48,2.26-2.79,6.23-8.2,6.23Zm-.58-3.02c3.76.25,5.17-2.04,5.64-3.19-9.96-12.17-24.87-30.18-26.45-31.57-.68-.6-2.35-.71-3.57.02-.99.59-1.37,1.53-1.15,2.79,6.09,8.1,21.63,28.4,25.53,31.96Z"/>
  <path class="cls-1" d="m75.17,235.07c-.54,0-1.07-.3-1.33-.81-1.45-2.82-.89-5.89,1.41-7.82,2.2-1.85,5.22-2,7.34-.39.66.5.79,1.44.29,2.1-.5.66-1.44.79-2.1.29-1.17-.89-2.69-.47-3.6.3-.46.39-1.87,1.83-.67,4.15.38.74.09,1.64-.65,2.02-.22.11-.45.17-.68.17Z"/>
  <path class="cls-1" d="m36.06,208.48c-.62,0-1.2-.39-1.42-1.01-.27-.78.15-1.64.93-1.91l13.84-4.78c.78-.27,1.64.15,1.91.93.27.78-.15,1.64-.93,1.91l-13.84,4.78c-.16.06-.33.08-.49.08Z"/>
  <g>
    <polygon class="cls-2" points="156.16 201.12 125.85 210.52 134.69 219.15 174.98 206.34 169.9 202.42 160.25 205.93 156.16 201.12"/>
    <polygon class="cls-2" points="201.15 185.69 209.59 183.07 221.65 190.39 181.36 203.2 178.17 200.09 204.97 190.49 201.15 185.69"/>
    <polygon class="cls-2" points="151.74 185.11 160.58 193.74 200.87 180.93 188.81 173.61 151.74 185.11"/>
    <path class="cls-1" d="m138.79,223.38c-.39,0-.76-.15-1.05-.43l-8.84-8.63c-.38-.37-.53-.91-.41-1.42.12-.51.51-.93,1.01-1.08l30.31-9.4c.79-.25,1.63.2,1.88.99.25.79-.2,1.63-.99,1.88l-27.9,8.66,6.39,6.24,36.7-11.67-2.81-2.17c-.66-.51-.78-1.45-.27-2.1.51-.66,1.45-.78,2.1-.27l5.08,3.92c.44.34.66.9.56,1.45-.1.55-.49,1-1.02,1.17l-40.29,12.81c-.15.05-.3.07-.45.07Z"/>
    <path class="cls-1" d="m138.79,235.14c-.36,0-.72-.13-1-.38l-8.84-7.84c-.32-.28-.5-.69-.5-1.12v-12.55c0-.83.67-1.5,1.5-1.5s1.5.67,1.5,1.5v11.88l5.84,5.18v-8.43c0-.83.67-1.5,1.5-1.5s1.5.67,1.5,1.5v11.76c0,.59-.35,1.13-.88,1.37-.2.09-.41.13-.62.13Z"/>
    <path class="cls-1" d="m138.79,235.14c-.63,0-1.22-.4-1.42-1.03-.26-.79.17-1.64.95-1.9l39.26-12.99v-10.16c0-.83.67-1.5,1.5-1.5s1.5.67,1.5,1.5v11.24c0,.65-.42,1.22-1.03,1.42l-40.29,13.33c-.16.05-.32.08-.47.08Z"/>
    <path class="cls-1" d="m185.46,207.43c-.39,0-.76-.15-1.05-.43l-3.19-3.11c-.59-.58-.6-1.53-.03-2.12.58-.59,1.53-.6,2.12-.03l2.54,2.48,36.29-11.54-8.66-5.26-7.8,2.42c-.79.25-1.63-.2-1.88-.99-.25-.79.2-1.63.99-1.88l8.45-2.62c.41-.13.85-.07,1.22.15l12.06,7.32c.5.3.78.88.71,1.46-.07.58-.47,1.07-1.04,1.25l-40.29,12.81c-.15.05-.3.07-.45.07Z"/>
    <path class="cls-1" d="m185.46,219.19c-.34,0-.68-.12-.95-.34l-6.38-5.23c-.64-.53-.73-1.47-.21-2.11.53-.64,1.47-.73,2.11-.21l3.92,3.22v-8.59c0-.83.67-1.5,1.5-1.5s1.5.67,1.5,1.5v11.76c0,.58-.33,1.11-.86,1.36-.2.1-.42.14-.64.14Z"/>
    <path class="cls-1" d="m185.46,219.19c-.63,0-1.22-.4-1.42-1.03-.26-.79.17-1.64.95-1.9l39.26-12.99v-10.16c0-.83.67-1.5,1.5-1.5s1.5.67,1.5,1.5v11.24c0,.65-.42,1.22-1.03,1.42l-40.29,13.33c-.16.05-.32.08-.47.08Z"/>
    <path class="cls-1" d="m164.68,197.97c-.39,0-.76-.15-1.05-.43l-8.84-8.63c-.38-.37-.53-.91-.41-1.42.12-.51.51-.93,1.01-1.08l37.08-11.5c.41-.13.85-.07,1.22.15l12.06,7.32c.5.31.78.88.71,1.46-.07.58-.47,1.07-1.04,1.25l-40.29,12.81c-.15.05-.3.07-.45.07Zm-5.99-9.44l6.4,6.24,36.29-11.54-8.66-5.26-34.02,10.56Z"/>
    <path class="cls-1" d="m164.68,209.73c-.36,0-.72-.13-1-.38l-8.84-7.84c-.32-.28-.5-.69-.5-1.12v-12.55c0-.83.67-1.5,1.5-1.5s1.5.67,1.5,1.5v11.87l5.84,5.18v-8.43c0-.83.67-1.5,1.5-1.5s1.5.67,1.5,1.5v11.76c0,.59-.35,1.13-.88,1.37-.2.09-.41.13-.62.13Z"/>
    <path class="cls-1" d="m164.68,209.73c-.63,0-1.22-.4-1.42-1.03-.26-.79.17-1.64.95-1.9l39.26-12.99v-10.16c0-.83.67-1.5,1.5-1.5s1.5.67,1.5,1.5v11.24c0,.65-.42,1.22-1.03,1.42l-40.29,13.33c-.16.05-.32.08-.47.08Z"/>
  </g>
</svg>