<svg width="90" height="222" viewBox="0 0 90 222" fill="none" xmlns="http://www.w3.org/2000/svg">
<g clip-path="url(#clip0_242_4628)">
<path d="M47.5598 216.256C56.9918 213.952 66.9758 196.136 60.9918 182.16C55.0078 168.184 50.5678 148.248 58.0958 129.064C65.6238 109.88 63.7998 81.2722 55.1598 62.2802C46.5118 43.2882 37.8398 -15.4878 51.7358 -28.0878C65.6318 -40.6878 85.2158 -33.4558 89.1278 -19.9838C93.0398 -6.51181 77.0158 52.8962 82.9998 68.3602C88.9838 83.8242 82.6158 104.576 76.6318 117.856C70.6478 131.128 59.5118 156.856 63.8958 172.376C68.2798 187.896 71.6798 206.848 60.1598 214.84C48.6398 222.832 38.6318 219.824 35.4318 214.056C35.7838 214.152 42.5598 217.488 47.5598 216.264L47.5598 216.256Z" fill="white"/>
<path d="M47.4719 -37.3761C64.0319 -37.3761 81.8719 -30.5121 86.6319 -21.7601C94.0319 -8.14412 88.7679 34.3759 83.8799 53.3519C81.7199 61.7199 82.7439 69.4959 83.8239 77.7279C85.3439 89.2879 86.9119 101.24 80.1599 116.328C68.4719 142.472 63.8479 156.736 67.3599 172.16C69.5759 181.88 73.2559 205.696 59.6399 216.912C53.3599 222.088 45.6079 223.656 39.9039 220.904C35.9679 219.008 33.7519 215.36 33.8239 210.888C33.8239 210.4 34.1279 209.968 34.5839 209.792C35.0319 209.616 35.5519 209.72 35.8879 210.072C38.5199 212.776 42.0399 214.208 45.3119 213.904C47.0399 213.744 49.4719 213 51.1919 210.4C51.5599 209.848 52.3039 209.696 52.8559 210.064C53.4079 210.432 53.5599 211.176 53.1919 211.728C51.4399 214.376 48.7199 216 45.5359 216.296C42.5039 216.576 39.3279 215.672 36.6079 213.808C37.2639 215.976 38.7439 217.688 40.9519 218.744C45.8239 221.088 52.5599 219.648 58.1119 215.072C66.8399 207.888 69.4239 192.048 65.0159 172.704C61.3519 156.608 66.0479 142.008 77.9679 115.352C84.4399 100.88 82.9199 89.2639 81.4479 78.0399C80.3359 69.5679 79.2879 61.5679 81.5599 52.7519C87.0479 31.4719 91.0319 -8.64812 84.5279 -20.6161C78.3279 -32.0241 46.6959 -39.8721 29.6959 -31.3601C29.1039 -31.0641 28.3839 -31.3041 28.0879 -31.8961C27.7919 -32.4881 28.0319 -33.2081 28.6239 -33.5041C34.0159 -36.2001 40.6399 -37.3761 47.4879 -37.3761L47.4719 -37.3761Z" fill="#F9322C"/>
<path d="M41.3035 182.488C41.7195 182.488 42.1195 182.704 42.3435 183.088C43.0715 184.344 43.7915 185.592 44.5035 186.808C48.6075 193.848 52.1515 199.936 53.6395 204.44C53.8475 205.072 53.5035 205.744 52.8715 205.952C52.2395 206.16 51.5675 205.816 51.3595 205.184C49.9515 200.912 46.2955 194.648 42.4315 188.008C41.7195 186.784 40.9915 185.536 40.2635 184.28C39.9355 183.704 40.1275 182.976 40.7035 182.64C40.8955 182.528 41.0955 182.48 41.3035 182.48L41.3035 182.488Z" fill="#F9322C"/>
<path d="M36.1753 118.96C36.3033 118.96 36.4233 118.976 36.5513 119.024C37.1833 119.232 37.5193 119.912 37.3193 120.536C35.9753 124.624 34.5753 127.984 33.3353 130.952C29.9913 138.992 27.7833 144.304 29.8393 155.208C30.6873 159.688 32.7513 165.12 36.1513 171.824C36.4553 172.416 36.2153 173.136 35.6233 173.44C35.0313 173.744 34.3113 173.504 34.0073 172.912C30.5033 166 28.3673 160.36 27.4793 155.656C25.2873 144.048 27.7353 138.168 31.1193 130.032C32.3353 127.104 33.7193 123.784 35.0393 119.784C35.2073 119.28 35.6713 118.96 36.1753 118.96Z" fill="#F9322C"/>
<path d="M40.4237 85.72C40.9677 85.72 41.4557 86.088 41.5917 86.64C42.4477 90.208 41.7517 97.064 41.2477 102.072C41.1837 102.728 41.1197 103.344 41.0637 103.904C40.9997 104.568 40.4237 105.048 39.7517 104.984C39.0877 104.92 38.6077 104.336 38.6717 103.672C38.7277 103.112 38.7917 102.488 38.8557 101.832C39.3197 97.272 40.0157 90.376 39.2557 87.2C39.1037 86.552 39.4957 85.904 40.1437 85.752C40.2397 85.728 40.3357 85.72 40.4237 85.72Z" fill="#F9322C"/>
<path d="M23.2155 52.3202C23.6395 52.3202 24.0475 52.5442 24.2635 52.9362C26.5195 56.9762 28.6315 60.5042 30.6795 63.9202C31.5995 65.4562 32.4875 66.9282 33.3275 68.3682C33.6635 68.9362 33.4715 69.6722 32.9035 70.0082C32.3355 70.3442 31.5995 70.1522 31.2635 69.5842C30.4235 68.1602 29.5435 66.6882 28.6235 65.1602C26.6635 61.8882 24.4395 58.1842 22.1675 54.1122C21.8475 53.5362 22.0555 52.8002 22.6315 52.4802C22.8155 52.3762 23.0155 52.3282 23.2155 52.3282L23.2155 52.3202Z" fill="#F9322C"/>
<path d="M8.12741 10.176C8.75141 10.176 9.27141 10.656 9.31941 11.28C9.78341 17.248 11.1514 23.512 13.3994 29.888C13.6154 30.512 13.2874 31.2 12.6634 31.416C12.0394 31.632 11.3514 31.304 11.1354 30.68C8.82342 24.104 7.40741 17.64 6.92741 11.464C6.87941 10.8 7.36741 10.224 8.03141 10.176C8.06341 10.176 8.09541 10.176 8.12741 10.176Z" fill="#F9322C"/>
<path d="M63.8881 105.472C64.5441 105.472 65.0801 106 65.0881 106.656C65.2241 115.744 62.9041 121.064 59.9681 127.792C57.4001 133.664 54.2081 140.968 51.6801 153.248C48.8321 167.08 52.3761 172.576 56.1361 178.392C59.4561 183.528 62.8801 188.84 62.5201 199.64C62.4961 200.304 61.9121 200.816 61.2801 200.8C60.6161 200.776 60.0961 200.224 60.1201 199.56C60.4561 189.512 57.2401 184.528 54.1201 179.696C50.2721 173.728 46.2881 167.56 49.3361 152.768C51.9121 140.24 55.1601 132.808 57.7761 126.832C60.7121 120.112 62.8321 115.264 62.6961 106.696C62.6881 106.032 63.2161 105.488 63.8801 105.48L63.8961 105.48L63.8881 105.472Z" fill="#F9322C"/>
<path d="M46.9675 32.1119C47.5595 32.1119 48.0715 32.5519 48.1515 33.1519C49.0875 40.0559 51.6955 45.8239 54.7115 52.5039C58.4315 60.7359 62.6475 70.0719 65.0715 84.2719C65.1835 84.9279 64.7435 85.5439 64.0875 85.6559C63.4395 85.7679 62.8155 85.3279 62.7035 84.6719C60.3355 70.7759 56.1835 61.5919 52.5195 53.4879C49.4235 46.6399 46.7515 40.7199 45.7675 33.4719C45.6795 32.8159 46.1355 32.2079 46.7915 32.1199C46.8475 32.1199 46.9035 32.1119 46.9515 32.1119L46.9675 32.1119Z" fill="#F9322C"/>
<path d="M69.2237 -33.6881C69.6797 -33.6881 70.1117 -33.4321 70.3197 -32.9841C70.5917 -32.3841 70.3277 -31.6721 69.7277 -31.3922C55.6077 -24.9281 44.4877 3.76786 46.0397 16.7679C46.1197 17.4239 45.6477 18.0238 44.9917 18.1038C44.3357 18.1918 43.7357 17.7118 43.6557 17.0558C41.9917 3.09585 53.5117 -26.6001 68.7277 -33.5681C68.8877 -33.6401 69.0557 -33.6802 69.2237 -33.6802L69.2237 -33.6881Z" fill="#F9322C"/>
<path d="M52.3679 9.14425C52.4159 9.14425 52.4719 9.14423 52.5279 9.15223C53.1839 9.24023 53.6479 9.84023 53.5599 10.4962C53.5359 10.6722 51.3759 28.0402 57.7279 40.2882C58.0319 40.8802 57.8079 41.6002 57.2159 41.9042C56.6319 42.2082 55.9039 41.9762 55.5999 41.3922C48.8879 28.4642 51.0799 10.9202 51.1759 10.1842C51.2559 9.58424 51.7679 9.13624 52.3679 9.13624L52.3679 9.14425Z" fill="#F9322C"/>
<path d="M69.2242 75.3518C69.8322 75.3518 70.3522 75.8158 70.4162 76.4318C72.6722 98.3838 68.2562 117.752 68.2082 117.944C68.0562 118.592 67.4162 118.992 66.7682 118.84C66.1202 118.688 65.7202 118.048 65.8722 117.4C65.9122 117.208 70.2402 98.2158 68.0322 76.6718C67.9682 76.0158 68.4402 75.4238 69.1042 75.3518C69.1442 75.3518 69.1842 75.3518 69.2322 75.3518L69.2242 75.3518Z" fill="#F9322C"/>
<path d="M28.0077 -33.3681C28.3117 -33.3681 28.6157 -33.3441 28.9277 -33.2961C32.5917 -32.7521 36.7277 -28.6481 37.5437 -21.8481C38.7597 -11.7121 35.8317 -0.304147 26.5437 2.32785C23.4237 3.21585 21.5597 2.01585 20.5517 0.84785C15.5357 -4.91215 19.7677 -23.5201 22.1437 -28.9121C23.4077 -31.7841 25.5117 -33.3681 28.0157 -33.3681L28.0077 -33.3681ZM24.4877 0.231858C24.8877 0.231858 25.3437 0.167867 25.8877 0.0158668C33.7677 -2.21613 36.2157 -12.7361 35.1597 -21.5601C34.4957 -27.1041 31.2717 -30.5201 28.5757 -30.9201C26.8077 -31.1841 25.2957 -30.1281 24.3357 -27.9441C21.7677 -22.1041 18.5197 -5.13615 22.3597 -0.728151C22.7437 -0.288151 23.3597 0.231858 24.4877 0.231858Z" fill="#F9322C"/>
<path d="M9.11961 -21.1838C9.46361 -21.1838 9.77561 -21.1438 10.0396 -21.0878C13.6636 -20.2958 17.2236 -14.6798 17.6636 -9.05583C18.2876 -1.08783 11.0076 9.82417 5.42362 11.4882C3.65562 12.0162 2.11961 11.6082 1.09561 10.3442C-2.98439 5.26417 2.41561 -13.6878 4.99961 -18.3278C6.29561 -20.6558 7.91961 -21.1838 9.12761 -21.1838L9.11961 -21.1838ZM4.72761 9.19217C9.33561 7.81617 15.7916 -2.11184 15.2636 -8.87184C14.8876 -13.7278 11.8156 -18.2398 9.51961 -18.7438C9.17561 -18.8158 8.12761 -19.0478 7.07961 -17.1678C4.11161 -11.8238 0.103614 5.29617 2.95161 8.84017C3.23161 9.19217 3.66361 9.50417 4.71961 9.19217L4.72761 9.19217Z" fill="#F9322C"/>
<path d="M9.76752 -13.1918C10.1835 -13.1918 10.5835 -12.9758 10.8075 -12.5918C10.9115 -12.4158 13.2795 -8.20778 12.2235 -3.67978C11.4715 -0.479782 9.53552 1.84823 7.51152 1.96023C6.85552 1.99223 5.22352 1.82423 4.32752 -0.647774C4.10352 -1.27177 4.42352 -1.95976 5.04752 -2.18376C5.67152 -2.40776 6.35952 -2.08777 6.58352 -1.46377C6.81552 -0.823765 7.10352 -0.383759 7.37552 -0.431758C7.96752 -0.463759 9.31152 -1.76778 9.88752 -4.22378C10.7355 -7.83977 8.75152 -11.3598 8.72752 -11.3998C8.39952 -11.9758 8.59952 -12.7038 9.16752 -13.0398C9.35952 -13.1518 9.55952 -13.1998 9.76752 -13.1998L9.76752 -13.1918Z" fill="#F9322C"/>
<path d="M42.0716 -17.5038C42.6236 -17.5038 43.1276 -17.1198 43.2476 -16.5518C43.3436 -16.1038 43.3836 -14.3598 41.6876 -7.95184C39.7836 -0.743837 33.6796 2.97617 33.4236 3.12817C33.2076 3.25617 32.9596 3.31216 32.7116 3.29616L24.5356 2.62417C23.8716 2.56817 23.3836 1.99217 23.4396 1.32817C23.4956 0.66417 24.0796 0.184174 24.7356 0.232174L32.4956 0.872163C33.6716 0.0641631 37.9436 -3.17583 39.3676 -8.56783C40.9196 -14.4478 40.8876 -15.9838 40.8796 -16.1358C40.7916 -16.7518 41.1996 -17.3438 41.8236 -17.4798C41.9036 -17.4958 41.9916 -17.5038 42.0716 -17.5038Z" fill="#F9322C"/>
<path d="M14.9201 7.14395C15.1521 7.14395 15.3841 7.20795 15.5841 7.34395C16.1361 7.71195 16.2881 8.45594 15.9201 9.00794C15.8561 9.09594 14.4241 11.2239 12.4161 12.1919C10.4561 13.1359 5.2081 12.0479 3.6481 11.6879C3.0001 11.5439 2.6001 10.8959 2.7441 10.2479C2.8881 9.59993 3.5281 9.19195 4.1841 9.34395C7.0001 9.98395 10.5601 10.4159 11.3761 10.0239C12.7761 9.35193 13.9121 7.68793 13.9201 7.67193C14.1521 7.32793 14.5281 7.13594 14.9201 7.13594L14.9201 7.14395Z" fill="#F9322C"/>
<path d="M20.3913 -2.94397C20.5193 -2.94397 20.6553 -2.91998 20.7833 -2.87998C21.4073 -2.66398 21.7433 -1.98398 21.5273 -1.35198C21.4953 -1.25598 20.7353 0.944028 19.8953 2.95203C19.6393 3.56003 18.9353 3.84804 18.3273 3.59204C17.7193 3.33604 17.4312 2.63203 17.6872 2.02403C18.4952 0.0880256 19.2633 -2.11196 19.2713 -2.13596C19.4393 -2.63196 19.9112 -2.94397 20.4072 -2.94397L20.3913 -2.94397Z" fill="#F9322C"/>
<path d="M51.9759 98.0403C52.3519 98.0403 52.7439 98.1043 53.1279 98.2323C55.5679 99.0323 57.2079 102.136 57.0399 105.624C56.7599 111.336 54.0239 117.368 48.5439 117.96C46.9679 118.136 45.6959 117.568 44.9679 116.376C42.5999 112.496 46.8719 102.632 48.4959 100.168C49.4079 98.7923 50.6479 98.0483 51.9679 98.0483L51.9759 98.0403ZM47.9919 115.584C48.0799 115.584 48.1839 115.584 48.2879 115.568C52.3359 115.128 54.4159 110.048 54.6399 105.504C54.7679 102.88 53.5919 100.904 52.3759 100.512C51.7039 100.288 51.0719 100.616 50.5039 101.488C48.4879 104.552 45.5999 112.792 47.0239 115.128C47.1199 115.288 47.3119 115.592 47.9919 115.592L47.9919 115.584Z" fill="#F9322C"/>
<path d="M52.0952 104.128C52.1352 104.128 52.1752 104.128 52.2152 104.128C52.8872 104.152 53.6632 104.608 53.8232 105.808C54.0712 107.608 52.8232 111.856 50.7832 112.52C50.3992 112.64 49.0872 112.912 48.1592 111.184C47.8472 110.6 48.0632 109.872 48.6472 109.56C49.2152 109.256 49.9272 109.456 50.2552 110.016C50.7112 109.424 51.2392 108.024 51.4152 107.016C51.1672 107.336 50.9592 107.736 50.8632 108.008C50.6392 108.632 49.9592 108.952 49.3272 108.736C48.7032 108.512 48.3752 107.832 48.5912 107.208C48.7032 106.888 49.7352 104.136 52.0872 104.136L52.0952 104.128Z" fill="#F9322C"/>
<path d="M41.0158 102.808C41.4638 102.808 41.8318 102.92 42.0638 103.008C44.3678 103.936 45.6318 107.696 45.3678 110.632C44.9518 115.248 39.8878 120.504 36.5518 120.912C35.3438 121.056 34.3438 120.592 33.8078 119.632C31.9278 116.264 36.5438 106.624 38.5038 104.184C39.3838 103.088 40.3038 102.808 41.0158 102.808ZM36.2558 118.528C38.3678 118.272 42.6478 114 42.9758 110.416C43.1998 107.968 42.0318 105.584 41.1678 105.24C41.0798 105.208 40.8398 105.112 40.3758 105.688C38.2878 108.296 34.9118 116.688 35.9038 118.464C35.9278 118.504 35.9598 118.568 36.2558 118.528Z" fill="#F9322C"/>
<path d="M41.0073 108.208C41.4953 108.208 41.9513 108.512 42.1353 108.992C42.2153 109.216 42.9033 111.208 42.0873 113.16C41.4393 114.696 40.2473 115.656 39.0953 115.52C38.7593 115.48 37.6633 115.24 37.3753 113.68C37.2553 113.024 37.6873 112.4 38.3433 112.288C38.8313 112.2 39.2953 112.416 39.5513 112.8C39.6633 112.656 39.7753 112.464 39.8793 112.232C40.3353 111.144 39.8953 109.832 39.8873 109.824C39.6553 109.2 39.9753 108.512 40.5993 108.28C40.7353 108.232 40.8793 108.208 41.0153 108.208L41.0073 108.208Z" fill="#F9322C"/>
<path d="M58.392 107.736C59.032 107.736 59.568 108.24 59.592 108.888C59.616 109.52 59.064 111.088 57.944 113.552C56.192 117.4 52.424 118.904 52.264 118.968C52.032 119.056 51.776 119.072 51.536 119.008L47.272 117.92C46.632 117.752 46.24 117.104 46.408 116.464C46.576 115.824 47.224 115.432 47.864 115.6L51.72 116.584C52.536 116.176 54.688 114.928 55.76 112.56C56.992 109.848 57.176 108.992 57.192 108.864C57.224 108.256 57.72 107.76 58.344 107.736C58.36 107.736 58.376 107.736 58.392 107.736Z" fill="#F9322C"/>
<path d="M52.384 97.904C52.384 97.904 52.408 97.904 52.424 97.904C53.032 97.928 58.36 98.208 59.256 101.688C59.424 102.328 59.032 102.984 58.392 103.152C57.752 103.32 57.096 102.928 56.928 102.288C56.576 100.904 53.68 100.36 52.336 100.304C51.672 100.28 51.16 99.728 51.176 99.064C51.2 98.416 51.728 97.904 52.376 97.904L52.384 97.904Z" fill="#F9322C"/>
<path d="M41.7995 118.344C42.0955 118.344 42.3915 118.456 42.6235 118.672C43.1035 119.128 43.1275 119.888 42.6715 120.368C42.5595 120.488 41.5515 121.528 40.2795 121.888C39.0635 122.24 36.6475 121.36 35.3195 120.816C34.7115 120.56 34.4155 119.856 34.6715 119.248C34.9275 118.64 35.6315 118.344 36.2395 118.6C37.6395 119.176 39.2235 119.648 39.6555 119.576C40.1835 119.424 40.7995 118.864 40.9275 118.72C41.1595 118.472 41.4795 118.344 41.7995 118.344Z" fill="#F9322C"/>
<path d="M45.5993 113.496C45.7913 113.496 45.9913 113.544 46.1753 113.64C46.7593 113.96 46.9673 114.688 46.6553 115.272C46.6313 115.32 46.0233 116.432 45.3833 117.432C45.0233 117.992 44.2873 118.16 43.7273 117.8C43.1673 117.448 42.9993 116.704 43.3593 116.144C43.9513 115.208 44.5433 114.128 44.5513 114.112C44.7673 113.712 45.1833 113.488 45.6073 113.488L45.5993 113.496Z" fill="#F9322C"/>
<path d="M41.4873 102.584C43.6633 102.584 46.8073 104.216 47.5113 107.52C47.6473 108.168 47.2313 108.808 46.5833 108.944C45.9353 109.08 45.2953 108.664 45.1593 108.016C44.6713 105.696 42.2793 104.928 41.3593 104.984C40.7033 105.032 40.1273 104.536 40.0793 103.872C40.0313 103.208 40.5273 102.64 41.1913 102.592C41.2873 102.592 41.3833 102.584 41.4793 102.584L41.4873 102.584Z" fill="#F9322C"/>
<path d="M25.8082 18.7202C29.1202 18.7202 32.8322 21.4322 34.6882 25.2882C34.9762 25.8882 34.7202 26.6002 34.1282 26.8882C33.5282 27.1762 32.8162 26.9202 32.5282 26.3282C31.0002 23.1362 27.8882 20.8562 25.4242 21.1362C23.5362 21.3522 22.7442 23.1522 22.4162 24.6242C21.2162 30.0322 23.4002 40.3522 27.3682 43.8962C28.7202 45.1042 30.1282 45.4322 31.6882 44.8962C36.7922 43.1362 35.1042 35.0642 34.8962 34.1522C34.7522 33.5042 35.1522 32.8642 35.8002 32.7122C36.4402 32.5682 37.0882 32.9682 37.2402 33.6162C38.4002 38.7122 37.8482 45.3122 32.4722 47.1682C30.0882 47.9842 27.7762 47.4722 25.7762 45.6882C20.6962 41.1522 18.8482 29.6402 20.0802 24.1042C21.0242 19.8482 23.6642 18.9202 25.1522 18.7522C25.3682 18.7282 25.5922 18.7122 25.8162 18.7122L25.8082 18.7202Z" fill="#F9322C"/>
<path d="M31.168 16.5362C33.2 16.5362 35.2 17.2162 36.76 19.0962C41.096 24.3122 43.3281 41.1522 40.1201 44.4722C37.3521 47.3362 32.736 47.3442 32.5281 47.3362C31.864 47.3362 31.3281 46.7922 31.3361 46.1282C31.3361 45.4722 31.8801 44.9362 32.5361 44.9362C32.6081 44.9362 36.344 44.9122 38.384 42.8082C40.096 41.0402 39.216 25.8242 34.904 20.6402C31.352 16.3682 24.3761 21.4402 24.3121 21.4962C23.7761 21.8882 23.024 21.7762 22.632 21.2482C22.24 20.7122 22.3521 19.9602 22.8801 19.5682C24.7361 18.1922 27.992 16.5442 31.152 16.5442L31.168 16.5362Z" fill="#F9322C"/>
<path d="M12.3841 29.6958C13.3441 29.6958 14.6001 30.0718 15.9921 31.4078C19.4481 34.7278 23.0801 40.9678 21.9521 47.6158C21.8401 48.2718 21.2161 48.7038 20.5681 48.5998C19.9121 48.4878 19.4721 47.8718 19.5841 47.2158C20.5601 41.4878 17.3601 36.0558 14.3281 33.1438C13.6801 32.5278 12.7441 31.8558 11.9281 32.1918C10.7921 32.6558 9.40007 35.1198 9.24007 40.5358C9.05607 46.6798 13.8721 51.9518 15.9441 53.9278C16.2801 54.2478 16.7361 54.3838 17.2001 54.3198C18.3361 54.1518 19.9281 53.8798 21.0401 53.5038C22.3441 53.0638 25.0081 49.4958 24.2321 44.5518C24.1281 43.8958 24.5761 43.2798 25.2321 43.1838C25.8881 43.0718 26.5041 43.5278 26.6001 44.1838C27.5201 50.0638 24.4241 54.8958 21.8001 55.7838C20.5281 56.2158 18.7841 56.5198 17.5441 56.6958C16.3441 56.8718 15.1521 56.4958 14.2801 55.6638C11.9681 53.4638 6.62407 47.5758 6.83207 40.4638C7.00006 34.7278 8.48007 30.9998 11.0081 29.9678C11.3441 29.8318 11.8081 29.7038 12.3761 29.7038L12.3841 29.6958Z" fill="#F9322C"/>
<path d="M27.3122 24.5202C28.6802 24.5202 29.9682 25.2082 31.1442 26.5522C33.2402 28.9602 33.7202 33.6802 32.2002 36.8642C31.2482 38.8482 29.6162 39.9442 27.7202 39.8802C27.0562 39.8562 26.5442 39.2962 26.5682 38.6402C26.5922 37.9762 27.1362 37.4482 27.8082 37.4882C28.7602 37.5122 29.4962 36.9682 30.0402 35.8402C31.1522 33.5122 30.8162 29.8402 29.3362 28.1362C28.6402 27.3362 27.9682 26.9362 27.3282 26.9282C27.3282 26.9282 27.3202 26.9282 27.3122 26.9282C26.4802 26.9282 25.8482 27.6162 25.8402 27.6242C25.4002 28.1122 24.6402 28.1602 24.1522 27.7202C23.6562 27.2802 23.6082 26.5362 24.0402 26.0402C24.1762 25.8882 25.4002 24.5282 27.3122 24.5282L27.3122 24.5202Z" fill="#F9322C"/>
<path d="M12.6637 36.352C13.4877 36.352 14.3517 36.68 15.2477 37.32C17.6477 39.048 18.3837 42.968 18.2877 45.792C18.2397 47.28 17.9437 49.208 16.8157 49.912C16.2557 50.264 15.5117 50.088 15.1597 49.528C14.8237 48.992 14.9677 48.288 15.4717 47.92C15.7437 47.528 16.0717 45.832 15.7837 43.648C15.5117 41.584 14.7837 39.952 13.8397 39.264C13.5037 39.024 12.8717 38.632 12.4397 38.784C12.0077 38.928 11.6717 39.592 11.5757 39.896C11.3757 40.528 10.7117 40.88 10.0797 40.688C9.44775 40.496 9.08775 39.84 9.27975 39.208C9.34375 38.992 9.94375 37.104 11.6557 36.512C11.9757 36.4 12.3117 36.344 12.6477 36.344L12.6637 36.352Z" fill="#F9322C"/>
<path d="M16.24 28.656C17.992 28.656 19.92 29.152 21.528 30.768C21.992 31.24 21.992 32 21.528 32.464C21.064 32.928 20.296 32.928 19.832 32.464C17.016 29.632 12.272 32.008 12.232 32.032C11.64 32.336 10.92 32.104 10.616 31.512C10.312 30.92 10.544 30.2 11.128 29.896C11.28 29.816 13.568 28.664 16.248 28.664L16.24 28.656Z" fill="#F9322C"/>
<path d="M44.6319 62.6959C45.5759 62.6959 46.4959 62.9919 47.3439 63.5679C50.9519 66.0239 52.5439 72.9199 52.8799 76.2159C53.2159 79.5119 52.0079 82.6239 49.8639 83.9599C48.4079 84.8719 46.6719 84.8399 45.1199 83.8719C40.6399 81.0879 38.7439 73.9599 39.4959 68.6799C39.9519 65.5039 41.3199 63.4479 43.3599 62.8719C43.7919 62.7519 44.2239 62.6879 44.6479 62.6879L44.6319 62.6959ZM47.5919 82.2319C47.9359 82.2319 48.2639 82.1279 48.5839 81.9279C49.7359 81.2079 50.7519 79.1039 50.4879 76.4559C50.1279 72.9519 48.4959 67.2559 45.9919 65.5439C45.3359 65.0959 44.7039 64.9839 43.9919 65.1839C42.9599 65.4719 42.1599 66.9039 41.8559 69.0159C41.2239 73.4559 42.8879 79.6639 46.3759 81.8319C46.7999 82.0959 47.2079 82.2239 47.5919 82.2239L47.5919 82.2319Z" fill="#F9322C"/>
<path d="M34.68 67.1601C35.608 67.1601 36.792 67.4721 38.088 68.5761C41.736 71.6881 44.144 79.0961 44.048 80.6561C44.04 80.8161 44.04 81.0161 44.04 81.2401C44.032 82.6961 44.008 85.3921 42.168 86.9201C41.016 87.8721 39.4 88.1681 37.368 87.7921C32.368 86.8721 29.992 80.7361 29.896 75.4161C29.816 70.9281 31.32 67.8001 33.816 67.2481C34.072 67.1921 34.368 67.1521 34.688 67.1521L34.68 67.1601ZM38.976 85.5521C39.688 85.5521 40.248 85.3921 40.632 85.0721C41.616 84.2641 41.624 82.3601 41.632 81.2241C41.632 80.9521 41.632 80.7121 41.648 80.5121C41.648 79.5681 39.44 72.7601 36.416 70.3041C35.656 69.6881 34.976 69.4561 34.32 69.5921C33.088 69.8641 32.232 72.2961 32.288 75.3681C32.368 79.8801 34.28 84.7761 37.792 85.4241C38.224 85.5041 38.616 85.5441 38.976 85.5441L38.976 85.5521Z" fill="#F9322C"/>
<path d="M34.9837 74.08C35.0717 74.08 35.1677 74.088 35.2557 74.112C37.4637 74.624 38.8877 77.16 39.2797 79.304C39.6237 81.2 39.1997 82.704 38.1117 83.424C37.5597 83.792 36.8157 83.64 36.4477 83.088C36.0797 82.536 36.2317 81.792 36.7837 81.424C36.8877 81.36 37.1117 80.808 36.9197 79.728C36.6317 78.136 35.6397 76.664 34.7197 76.448C34.0717 76.296 33.6717 75.656 33.8237 75.008C33.9517 74.456 34.4477 74.08 34.9917 74.08L34.9837 74.08Z" fill="#F9322C"/>
<path d="M45.4072 68.8641C45.5352 68.8641 45.6632 68.8801 45.7832 68.9281C47.5112 69.5041 48.6472 71.2481 48.9112 73.7041C49.0952 75.4961 48.8152 78.4961 47.2712 79.4001C46.7032 79.7361 45.9672 79.5441 45.6312 78.9681C45.3032 78.4081 45.4792 77.6961 46.0152 77.3521C46.3512 76.9841 46.8312 75.0161 46.3912 73.1521C46.2152 72.4161 45.8392 71.4721 45.0312 71.2001C44.3992 70.9921 44.0632 70.3121 44.2712 69.6801C44.4392 69.1761 44.9032 68.8561 45.4072 68.8561L45.4072 68.8641Z" fill="#F9322C"/>
<path d="M54.5273 67.16C54.9193 67.16 55.3033 67.3519 55.5353 67.7039C57.6793 70.9839 56.9993 78.84 56.5833 80.312C55.9353 82.616 51.3113 85.2719 48.0153 84.6159C47.3673 84.4879 46.9433 83.848 47.0793 83.2C47.2073 82.552 47.8473 82.1359 48.4953 82.2639C50.9033 82.7439 54.0553 80.4399 54.2713 79.6639C54.6633 78.2719 55.0233 71.32 53.5273 69.024C53.1673 68.472 53.3193 67.728 53.8713 67.36C54.0713 67.224 54.3033 67.16 54.5273 67.16Z" fill="#F9322C"/>
<path d="M47.8797 61.0882C48.8637 61.0882 49.8477 61.2962 50.7357 61.8642C51.2957 62.2242 51.4557 62.9602 51.1037 63.5202C50.7437 64.0802 50.0077 64.2402 49.4477 63.8882C47.6877 62.7682 44.4797 64.2882 43.4957 64.9122C42.9357 65.2642 42.1917 65.0962 41.8397 64.5362C41.4877 63.9762 41.6557 63.2322 42.2157 62.8802C42.3677 62.7842 45.0957 61.0882 47.8797 61.0882Z" fill="#F9322C"/>
<path d="M41.0796 65.8642C41.6636 65.8642 42.1836 66.2962 42.2636 66.8962C42.3596 67.5522 41.9036 68.1602 41.2476 68.2562L35.1516 69.1362C34.4876 69.2322 33.8876 68.7762 33.7916 68.1202C33.6956 67.4642 34.1516 66.8562 34.8076 66.7602L40.9036 65.8802C40.9596 65.8722 41.0236 65.8642 41.0796 65.8642Z" fill="#F9322C"/>
<path d="M46.1273 82.336C46.5433 82.336 46.9513 82.552 47.1753 82.944C47.5033 83.52 47.2953 84.256 46.7193 84.576L42.1833 87.128C41.6073 87.456 40.8713 87.248 40.5513 86.672C40.2233 86.096 40.4313 85.36 41.0073 85.04L45.5433 82.488C45.7273 82.384 45.9353 82.336 46.1353 82.336L46.1273 82.336Z" fill="#F9322C"/>
<path d="M43.8401 134.168C44.6081 134.168 45.3601 134.352 46.0801 134.712C48.0161 135.688 49.3681 137.872 49.5361 140.272C49.7921 143.848 46.6721 152.592 41.5921 153.04C37.7121 153.384 36.3521 151.128 35.8801 149.752C34.3201 145.144 37.9841 136.912 40.8401 135.096C41.8081 134.48 42.8321 134.168 43.8321 134.168L43.8401 134.168ZM41.3841 150.648C44.5281 150.368 47.3521 143.392 47.1441 140.44C47.0321 138.888 46.1681 137.448 44.9921 136.856C44.0881 136.4 43.1281 136.488 42.1281 137.12C40.2241 138.328 36.9441 145.392 38.1521 148.976C38.4241 149.792 39.0641 150.848 41.3761 150.64L41.3841 150.648Z" fill="#F9322C"/>
<path d="M33.4956 131.952C34.5516 131.952 35.5996 132.512 36.4316 133.536C37.8556 135.288 38.8476 138.72 37.3676 143.112C35.5676 148.424 34.3756 151.936 27.9356 150.056C26.9276 149.76 25.2796 148.656 25.6156 144.568C26.0076 139.76 29.1276 132.472 33.1436 131.976C33.2636 131.96 33.3836 131.952 33.5036 131.952L33.4956 131.952ZM31.0236 148.208C32.9436 148.208 33.6156 146.688 35.0956 142.336C36.2716 138.872 35.5516 136.248 34.5756 135.048C34.1916 134.584 33.7436 134.312 33.4316 134.36C31.2636 134.624 28.3676 140.168 27.9996 144.76C27.8396 146.776 28.2716 147.648 28.5996 147.744C29.5996 148.032 30.3756 148.208 31.0236 148.208Z" fill="#F9322C"/>
<path d="M44.0482 139.784C44.4482 139.784 44.8402 139.984 45.0642 140.352C45.9842 141.824 46.0082 144.16 45.1202 146.024C44.4482 147.432 43.3842 148.296 42.1202 148.448C41.4642 148.528 40.8642 148.064 40.7842 147.408C40.7042 146.752 41.1682 146.152 41.8242 146.072C42.4162 146 42.8162 145.296 42.9602 144.992C43.4802 143.896 43.5122 142.384 43.0322 141.624C42.6802 141.064 42.8482 140.32 43.4162 139.968C43.6162 139.84 43.8322 139.784 44.0482 139.784Z" fill="#F9322C"/>
<path d="M32.5114 138.816C33.0314 138.816 33.5114 139.16 33.6634 139.688C34.2074 141.6 33.3514 144.448 31.3914 145.392C30.7914 145.68 30.0794 145.432 29.7914 144.832C29.5034 144.232 29.7514 143.52 30.3514 143.232C31.1514 142.848 31.6154 141.232 31.3594 140.344C31.1754 139.704 31.5434 139.04 32.1834 138.864C32.2954 138.832 32.4074 138.816 32.5114 138.816Z" fill="#F9322C"/>
<path d="M45.5194 168.288C46.2794 168.288 47.0634 168.456 47.8314 168.8C49.6954 169.624 51.0314 171.472 51.5914 174.008C52.2634 177.048 51.7114 180.656 50.3354 182.224C49.6234 183.04 48.6474 183.44 47.5914 183.352C45.6954 183.2 43.7274 181.536 41.7514 178.4C39.9034 175.464 39.9034 172.184 41.7594 170.032C42.7514 168.888 44.0874 168.288 45.5194 168.288ZM48.5354 180.64C49.2234 179.856 49.8314 177.152 49.2474 174.528C48.9754 173.28 48.3354 171.648 46.8634 171C45.6074 170.448 44.3834 170.672 43.5754 171.608C42.7034 172.624 42.2314 174.672 43.7754 177.128C45.9434 180.568 47.3914 180.936 47.7754 180.968C47.9594 180.984 48.2474 180.968 48.5274 180.648L48.5354 180.64Z" fill="#F9322C"/>
<path d="M38.2797 169.664C41.3277 169.664 42.8477 171.576 42.9197 171.664C43.3277 172.184 43.2317 172.944 42.7117 173.352C42.1837 173.76 41.4317 173.664 41.0237 173.144C40.9917 173.104 39.9277 171.856 37.6877 172.104C37.5197 172.12 37.0077 172.184 36.6237 173.056C35.9437 174.608 36.2237 177.536 37.8637 179.752C39.3117 181.712 40.6477 182.272 41.3357 182.16C42.0317 182.048 42.4317 181.24 42.6397 180.584C42.8397 179.952 43.5117 179.6 44.1437 179.808C44.7757 180.008 45.1197 180.688 44.9197 181.32C44.1277 183.792 42.5757 184.392 41.7197 184.536C39.8397 184.848 37.7277 183.624 35.9277 181.184C33.9357 178.488 33.3037 174.664 34.4237 172.104C35.0237 170.72 36.0877 169.872 37.4157 169.728C37.7117 169.696 37.9997 169.68 38.2717 169.68L38.2797 169.664Z" fill="#F9322C"/>
<path d="M45.5437 172.896C45.8157 172.896 46.0877 172.992 46.3197 173.176C46.6237 173.432 49.2237 175.736 48.4077 178.384C48.2077 179.016 47.5437 179.368 46.9037 179.176C46.2717 178.976 45.9197 178.304 46.1117 177.672C46.4157 176.696 45.2157 175.392 44.7677 175.008C44.2637 174.576 44.2077 173.824 44.6317 173.32C44.8717 173.04 45.2077 172.896 45.5437 172.896Z" fill="#F9322C"/>
<path d="M38.0394 174.168C38.2634 174.168 38.4954 174.232 38.6954 174.368C40.1274 175.312 42.3114 177.528 41.3674 179.832C41.1194 180.448 40.4154 180.736 39.7994 180.488C39.1834 180.24 38.8954 179.536 39.1434 178.92C39.4554 178.16 38.1434 176.88 37.3674 176.368C36.8154 176 36.6634 175.256 37.0314 174.704C37.2634 174.352 37.6474 174.168 38.0314 174.168L38.0394 174.168Z" fill="#F9322C"/>
<path d="M53.8714 190.408C53.9514 190.408 54.0314 190.408 54.1194 190.408C55.7274 190.504 57.0154 191.544 57.7594 193.344C58.6074 195.392 58.6714 198.528 57.4154 199.936C56.8474 200.576 56.0554 200.808 55.2554 200.584C52.1994 199.712 50.2874 195.768 50.7434 193.096C51.0314 191.424 52.2154 190.408 53.8634 190.408L53.8714 190.408ZM55.7114 198.208C55.9834 197.664 56.1834 195.976 55.5994 194.416C55.3354 193.712 54.8394 192.864 53.9754 192.808C53.4234 192.768 53.2074 192.944 53.1114 193.496C52.8554 195.016 54.0954 197.576 55.7114 198.208Z" fill="#F9322C"/>
<path d="M50.0478 191.376C50.6958 191.376 51.3358 191.68 51.8158 192.264C52.2398 192.776 52.1678 193.528 51.6558 193.952C51.1758 194.352 50.4718 194.312 50.0398 193.872C49.7838 194.232 49.4878 195.272 50.0878 196.656C50.8878 198.504 51.9038 199.224 52.1438 199.2C52.1838 199.184 52.3598 199.008 52.5198 198.512C52.7278 197.88 53.4078 197.544 54.0318 197.744C54.6638 197.952 54.9998 198.632 54.7998 199.256C54.1518 201.216 52.9278 201.56 52.2558 201.592C50.6558 201.672 48.9838 200.136 47.8878 197.608C46.7598 195 47.5198 192.56 48.9038 191.704C49.2638 191.48 49.6558 191.376 50.0478 191.376Z" fill="#F9322C"/>
<path d="M55.9439 203.376C56.3759 203.376 56.8319 203.472 57.2879 203.664C58.7119 204.256 59.7759 205.576 59.9919 207.04C60.1759 208.272 59.7919 209.608 58.9519 210.696C58.0559 211.864 56.7359 212.624 55.3279 212.776C54.0639 212.92 53.0479 212.328 52.5999 211.208C51.7599 209.08 53.2239 204.768 54.4719 203.832C54.8879 203.528 55.3839 203.368 55.9359 203.368L55.9439 203.376ZM54.9439 210.4C54.9439 210.4 55.0159 210.4 55.0719 210.4C55.8319 210.312 56.5519 209.888 57.0559 209.24C57.5039 208.664 57.7039 207.992 57.6239 207.392C57.5439 206.864 57.1919 206.36 56.6719 206.04C56.3199 205.824 56.0399 205.776 55.9199 205.784C55.2319 206.6 54.4079 209.84 54.8879 210.408C54.8879 210.408 54.9119 210.408 54.9519 210.408L54.9439 210.4Z" fill="#F9322C"/>
<path d="M53.4555 203.616C54.1355 203.616 54.7595 203.832 55.1915 204.128C55.7435 204.496 55.8955 205.24 55.5275 205.792C55.1595 206.344 54.4155 206.496 53.8635 206.128C53.2475 205.76 52.8315 206.328 52.6955 206.512C52.0555 207.376 52.2715 208.92 52.5835 209.368C53.1435 209.408 53.6155 209.84 53.6875 210.416C53.7675 211.072 53.3035 211.672 52.6475 211.752C51.7915 211.856 51.0075 211.416 50.4955 210.544C49.6955 209.184 49.5675 206.712 50.7595 205.088C51.5675 203.992 52.5595 203.616 53.4555 203.616Z" fill="#F9322C"/>
<path d="M58.8396 150.432C59.1676 150.432 59.4796 150.64 59.5916 150.968L61.2396 155.64C61.3836 156.056 61.1676 156.512 60.7516 156.664C60.3356 156.808 59.8796 156.592 59.7276 156.176L58.0796 151.504C57.9356 151.088 58.1516 150.632 58.5676 150.48C58.6556 150.448 58.7436 150.432 58.8316 150.432L58.8396 150.432Z" fill="#F9322C"/>
<path d="M57.7278 154.336C58.0718 154.336 58.3918 154.56 58.4958 154.912L59.6078 158.744C59.7278 159.168 59.4878 159.616 59.0638 159.736C58.6398 159.864 58.1998 159.616 58.0718 159.192L56.9598 155.36C56.8398 154.936 57.0798 154.488 57.5038 154.368C57.5758 154.344 57.6558 154.336 57.7278 154.336Z" fill="#F9322C"/>
</g>
<defs>
<clipPath id="clip0_242_4628">
<rect width="89.928" height="258.832" fill="white" transform="translate(89.9277 221.832) rotate(180)"/>
</clipPath>
</defs>
</svg>
