<svg fill="none" height="183" viewBox="0 0 116 183" width="116" xmlns="http://www.w3.org/2000/svg" xmlns:xlink="http://www.w3.org/1999/xlink"><clipPath id="a"><path d="m0 0h115.48v211.8h-115.48z"/></clipPath><g clip-path="url(#a)"><path d="m38.1116 63.5522c-7.304 2.5679-25.96-4.52-29.16802-14.36-3.208-9.8401 4.52802-28.9121 17.16802-33.4721s45.72-10.15195 67.048 22.056c21.3284 32.208 1.368 77.4879-16.192 94.6159s-25.424 69.248-23.04 75.04-28.368 7.336-43.168-5.016c-14.80002-12.352-2.64002-49.808 12.216-65.296 14.856-15.488 42.392-22.344 51.768-52.3359 9.376-29.9839-.048-52.072-21.328-58.464s-55.13602 22.8161-15.304 37.2321z" fill="#f4f4f5"/><g fill="#f9322c"><path d="m47.464 210.776c-10.04 0-22.176-2.36-31.44-8.272-9.41601-6.016-14.26401-14.808-14.00801-25.416.616-25.696 29.44001-51.656 50.48801-70.608 5.888-5.304 10.976-9.8876 14.712-13.7836 9.304-9.72 8.968-23.472 7.936-30.8-1.784-12.704-8.264-24.952-15.4-29.112-6.576-3.84-14.848-4.624-22.688-2.168-7.088 2.224-12.696 6.832-15.384 12.64-1.864 4.024-2.072 7.52-.6 10.392 2.712 5.296 10.488 7.8 16.536 8.968.52.096.904.528.968 1.048.056.52-.232 1.024-.712 1.232-14.792 6.424-23.312 2.936-27.848-1.12-7.36001-6.584-9.424014-19.592-5.24801-33.152 2.856-9.288 9.16001-16.632 18.21601-21.232 13.768-7 32.32-7.072 52.24-.208 33.032 11.384 34.016 46.872 34.664 70.352.04 1.408.08 2.776.12 4.104.68 20.6476-20.352 47.4636-30.456 60.3516-1.624 2.072-2.912 3.712-3.744 4.864-5.744 7.968-9.304 20.104-5.032 25.8 3.16 4.208 4.272 12.664 2.6 19.672-1.072 4.488-3.744 10.52-10.368 13.784-3.384 1.664-9.024 2.664-15.552 2.664zm-1.32-183.9676c5.272 0 10.392 1.32 14.816 3.904 7.84 4.576 14.656 17.256 16.56 30.848 1.88 13.4-1.16 25.04-8.576 32.792-3.792 3.968-8.912 8.5756-14.84 13.9116-20.72 18.664-49.10401 44.224-49.69601 68.88-.24 9.864 4.104 17.712 12.89601 23.336 14.08 9 36.432 9.52 44.632 5.48 5.784-2.848 8.136-8.2 9.088-12.184 1.672-7.008.208-14.488-2.184-17.672-4.992-6.656-1.376-19.792 5.008-28.64.864-1.2 2.16-2.848 3.8-4.944 9.936-12.664 30.6-39.016 29.952-58.7916-.04-1.328-.08-2.704-.12-4.112-.672-24.184-1.584-57.304-33.048-68.152-19.304-6.648-37.192-6.624-50.376.072-8.464 4.304-14.34401 11.152-17.00801 19.8-3.896 12.664-2.112 24.696 4.54401 30.656 5.112 4.568 12.568 5.28 21.72 2.112-5.728-1.552-11.824-4.336-14.392-9.352-1.824-3.56-1.632-7.768.56-12.496 2.976-6.416 9.112-11.488 16.848-13.92 3.24-1.016 6.544-1.52 9.8-1.52z"/><path d="m27.9279 65.3844s-.048 0-.08 0c-6.944-.448-13.4-4.128-17.256-9.84-4.01603-5.96-4.78403-13.616-2.15203-21.56 6.00803-18.136 26.48003-25.744 42.97603-25.144.664.024 1.176.584 1.152 1.24-.024.664-.568 1.176-1.24 1.152-15.6-.56-34.992 6.544-40.608 23.504-3.06403 9.256-.68 15.688 1.864 19.464 3.392 5.032 9.296 8.4 15.416 8.792.664.04 1.16.616 1.12 1.272-.04.632-.568 1.12-1.2 1.12z"/><path d="m78.6079 132.752c-.28 0-.56-.096-.792-.296-.496-.44-.544-1.192-.112-1.696 11.344-12.928 22.8561-41.704 21.904-63.928-.944-21.928-10.552-38.84-27.784-48.92-.576-.336-.768-1.072-.432-1.64.336-.576 1.072-.76 1.64-.432 17.976 10.512 27.9921 28.104 28.9681 50.888 1.008 23.544-10.8881 52.384-22.4961 65.608-.24.272-.568.408-.904.408z"/><path d="m54.952 195.784c-.528 0-1.0161-.352-1.1601-.888-3.72-13.92 2.608-41.64 15.024-52.936.488-.448 1.248-.408 1.696.08s.408 1.248-.08 1.696c-11.528 10.488-17.84 37.36-14.32 50.536.168.64-.208 1.296-.848 1.472-.104.024-.2079.04-.3119.04z"/><path d="m51.1918 210.784c-.416 0-.824-.216-1.04-.608-7.944-13.968-2.776-42.128-2.552-43.32.12-.648.752-1.08 1.4-.96s1.08.752.96 1.4c-.056.28-5.232 28.496 2.28 41.688.328.576.128 1.312-.448 1.64-.184.104-.392.16-.592.16z"/><path d="m61.7756 144.912c-.232 0-.464-.064-.664-.2-.552-.368-.696-1.112-.328-1.664 7.896-11.8 17.784-23.08 17.888-23.192.44-.496 1.192-.544 1.696-.112.496.44.544 1.2.112 1.696-.096.112-9.888 11.28-17.696 22.944-.232.344-.608.536-1 .536z"/><path d="m74.7438 24.4562c-.208 0-.424-.056-.616-.168-17.288-10.312-29.544-8.176-29.664-8.152-.656.12-1.28-.304-1.4-.952s.304-1.28.952-1.4c.528-.104 13.208-2.376 31.344 8.448.568.336.752 1.08.416 1.648-.224.376-.624.584-1.032.584z"/><path d="m72.6715 164.528c-1.232 0-2.56-.048-3.968-.112-.664-.032-1.176-.592-1.144-1.256s.584-1.16 1.256-1.144c4.072.184 7.592.256 9.392-.76 1.768-1 5.544-6.104 5.768-9.648.176-2.912-2.552-8.528-3.616-10.44-.32-.576-.112-1.312.464-1.632s1.312-.112 1.632.464c.168.304 4.176 7.544 3.912 11.76-.264 4.288-4.472 10.168-6.976 11.584-1.64.928-3.928 1.192-6.712 1.192z"/><path d="m93.3757 124.344c-.64 0-1.168-.496-1.2-1.144-.032-.664.48-1.224 1.144-1.256 4.488-.216 9.8323-2.72 11.6643-7.832 2.512-7.016 3.032-10.712 2.76-11.392-.64-1.344-2.28-4.744-2.28-4.744l2.16-1.04s1.64 3.408 2.288 4.76c.976 2.048-.912 8.32-2.672 13.224-2.208 6.152-8.5203 9.168-13.8083 9.416-.016 0-.04 0-.056 0z"/><path d="m108.832 77.5923c-.304 0-.6-.112-.832-.336-.48-.464-.488-1.216-.032-1.696 3.112-3.224 5.104-5.944 5.448-9.56.392-4.168-.976-11.656-1.704-12.64-.488-.664-3.472-1.864-5.944-2.56-.64-.176-1.008-.84-.832-1.48s.84-1.008 1.48-.832c1.392.392 6.024 1.8 7.232 3.456 1.304 1.776 2.552 10.056 2.16 14.288-.4 4.296-2.736 7.504-6.104 11-.232.24-.552.368-.864.368z"/><path d="m101.92 36.968c-.176 0-.352-.04-.52-.12-.6-.288-.848-1-.56-1.6 1.144-2.392.104-7.056-2.7841-12.488-.888-1.672-5.024-4.256-6.136-4.656-.464.072-1.488.12-3.88-.016-.664-.04-1.168-.608-1.128-1.272s.6-1.16 1.272-1.128c1.328.08 2.992.12 3.36.048 1.664-.416 7.512 3.792 8.6321 5.896 1.936 3.64 4.88 10.384 2.824 14.656-.208.432-.632.68-1.08.68zm-10.3761-21.232s-.056.016-.072.024c.024-.008.048-.016.072-.024z"/><path d="m77.9517 12.1441c-.432 0-.856-.24-1.072-.656-2.576-5.03199-5.744-7.25599-7.248-7.51999-1.944-.344-5.008.576-5.608 1.048-.632.504-1.432 1.632-1.688 2.024-.36.56-1.104.72-1.656.36-.56-.36-.72-1.104-.36-1.656.112-.176 1.152-1.76 2.216-2.608 1.304-1.032 5.112-1.96 7.52-1.528 2.936.528 6.536 4.056 8.96 8.79199.304.592.072 1.312-.52 1.616-.176.088-.36.136-.544.136z"/><path d="m38.1118 6.88818c-.072 0-.144 0-.216-.016-.648-.12-1.08-.736-.968-1.384.032-.16.736-3.96 4.024-5.247999 3.168-1.24 8.904-.3200002 9.736 0 .28.104 1.144.432 3.728 4.447999.36.56.2 1.296-.36 1.656s-1.296.2-1.656-.36c-.92-1.432-2.16-3.136-2.616-3.52-.872-.24-5.672-.88-7.952.016-2.032.8-2.536 3.416-2.544 3.44-.104.576-.608.984-1.176.984z"/><path d="m19.4716 13.0001-2.392-.144s.144-2.416.192-3.14401c.128-1.88 4.736-3.976 4.784-3.992 1.592-.672 3.664-1.192 8.224 1.12.592.304.824 1.024.528 1.616s-1.024.824-1.616.528c-3.944-2-5.304-1.424-6.208-1.048-1.04.44-2.88 1.64-3.336 2.16001-.056.896-.176 2.912-.176 2.912z"/><path d="m7.66376 27.6722c-.456 0-.896-.264-1.096-.712l-1.448-3.216c-.128-.288-.136-.608-.032-.904.144-.384 1.408-3.808 2.472-5.088 1.416-1.696 5.10404-1.992 6.92804-.56.52.408.608 1.16.2 1.688s-1.168.608-1.688.2c-.848-.672-3.05604-.44-3.60004.208s-1.376 2.584-1.896 3.92l1.248 2.768c.272.608 0 1.312-.6 1.584-.16.072-.328.104-.488.104z"/><path d="m3.92788 42.752c-.176 0-.36-.04-.536-.128-3.071996-1.52-3.4159956-2.152-3.543996-2.384-.376-.688-.264-1.744.552-5.408l.152-.672c.432-2 3.191996-3.664 5.023996-4.096.648-.152 1.288.248 1.44.896s-.248 1.288-.896 1.44c-1.432.336-3.08 1.6-3.224 2.264l-.152.696c-.184.84-.656 2.928-.704 3.752.432.312 1.448.896 2.416 1.376.592.296.832 1.016.544 1.608-.208.424-.632.664-1.072.664z"/><path d="m5.84776 57.08c-.072 0-.144 0-.216-.024-2.144-.4-3.504-.864-4.032-1.392-.888-.88-1.6959995-3.384-1.928-4.392-.431999-1.872 1.072-3.608 2.672-5.44l.096-.104c.432-.496 1.192-.552 1.696-.12.496.432.552 1.192.12 1.696l-.096.112c-.968 1.112-2.304 2.64-2.144 3.32.296 1.288.968 2.832 1.256 3.2.352.2 1.624.544 2.8.76.648.12 1.08.744.96 1.4-.104.576-.608.984-1.176.984z"/><path d="m10.168 67.6961c-.064 0-.136-.0001-.19201-.0081-.928-.12-1.864-.904-3.072-2.128l-.136-.144c-1.312-1.312.184-5.976.2-6.016.216-.624.896-.968 1.528-.744.624.216.96.8961.744 1.5281-.432 1.256-.664 3.0959-.6 3.7199.944.96 1.39201 1.28 1.60001 1.384.368-.136 1.184-.672 1.832-1.2.512-.424 1.264-.352 1.688.16s.352 1.264-.16 1.688c-1 .824-2.376 1.776-3.424 1.776zm-1.70401-3.9841h.008s0 0-.008 0z"/><path d="m21.1115 71.1044c-.496 0-1.064-.04-1.68-.152-2.2-.392-2.656-2.248-2.928-3.368-.16-.64.24-1.296.88-1.448.64-.16 1.296.24 1.448.88.312 1.28.488 1.48 1.016 1.568.896.16 1.64.12 2.112.056.176-.288.448-.856.648-1.36.24-.616.936-.92 1.552-.68s.92.936.68 1.552c-1 2.568-1.72 2.704-2.104 2.784-.408.08-.968.152-1.632.152z"/><path d="m23.0796 32.0241c-.08 0-.16-.016-.24-.04-.424-.136-.656-.584-.52-1.008l1.688-5.32c.136-.424.584-.656 1-.52.424.136.656.584.52 1.008l-1.688 5.32c-.104.344-.424.56-.76.56z"/><path d="m27.8639 28.1201c-.184 0-.36-.064-.512-.184-.336-.28-.384-.784-.104-1.128l2.72-3.256c.28-.336.792-.384 1.128-.104s.384.784.104 1.128l-2.72 3.256c-.16.192-.384.288-.616.288z"/><path d="m33.8397 26.0563c-.312 0-.608-.184-.736-.496-.168-.408.024-.88.432-1.048l6.36-2.64c.408-.168.88.024 1.048.432s-.024.88-.432 1.048l-6.36 2.64c-.096.04-.208.064-.304.064z"/><path d="m18.9039 161.168c-.392 0-.736-.288-.792-.688l-1.328-9.4c-.064-.44.24-.84.68-.904.432-.064.84.24.904.68l1.328 9.4c.064.44-.24.84-.68.904-.04 0-.072 0-.112 0z"/><path d="m23.6002 151.776c-.384 0-.728-.28-.792-.672l-.616-3.88c-.072-.44.232-.848.664-.912.44-.072.848.232.912.664l.616 3.88c.072.44-.232.848-.664.912-.04 0-.088.008-.128.008z"/></g></g></svg>
