<?xml version="1.0" encoding="UTF-8"?>
<svg id="Layer_1" data-name="Layer 1" xmlns="http://www.w3.org/2000/svg" viewBox="0 0 144.35 264.75">
    <style>
        :root { fill:#222 }
        .accent { fill: #f9322c; }

        @media (prefers-color-scheme: dark) {
        :root {  fill: #f9322c; }
        .accent { fill:#dee2e6; }
        }
    </style>
    <g>
        <path d="m47.64,79.44c-9.13,3.21-32.45-5.65-36.46-17.95-4.01-12.3,5.66-36.14,21.46-41.84s57.15-12.69,83.81,27.57c26.67,40.26,1.71,96.86-20.24,118.27-21.95,21.41-31.78,86.56-28.8,93.8,2.99,7.24-35.46,9.17-53.96-6.27-18.5-15.44-3.3-62.26,15.27-81.62,18.57-19.36,52.99-27.93,64.71-65.42,11.72-37.48-.06-65.09-26.66-73.08-26.61-8-68.91,28.52-19.12,46.54Z" class="accent"/>
        <path d="m59.33,263.47c-12.55,0-27.73-2.95-39.3-10.35-11.77-7.52-17.83-18.51-17.51-31.77.77-32.12,36.8-64.57,63.11-88.26,7.36-6.63,13.72-12.35,18.38-17.23,11.63-12.15,11.21-29.34,9.92-38.5-2.23-15.88-10.33-31.19-19.24-36.39-8.22-4.8-18.56-5.78-28.36-2.71-8.86,2.78-15.87,8.54-19.23,15.8-2.33,5.03-2.59,9.4-.75,12.99,3.39,6.62,13.11,9.75,20.67,11.21.65.12,1.13.66,1.21,1.31.07.65-.29,1.28-.89,1.54-18.49,8.04-29.14,3.67-34.81-1.4C3.33,71.49.75,55.23,5.97,38.28c3.57-11.61,11.44-20.79,22.77-26.54,17.21-8.75,40.4-8.84,65.3-.26,41.29,14.23,42.52,58.59,43.33,87.94.05,1.76.1,3.47.15,5.12.85,25.81-25.44,59.33-38.08,75.44-2.03,2.59-3.63,4.63-4.68,6.08-7.18,9.96-11.63,25.13-6.29,32.25,3.95,5.26,5.34,15.84,3.25,24.59-1.34,5.61-4.68,13.15-12.96,17.23-4.23,2.08-11.28,3.33-19.44,3.33Zm-1.65-229.96c6.59,0,12.99,1.65,18.52,4.88,9.8,5.72,18.32,21.58,20.7,38.56,2.35,16.75-1.45,31.3-10.72,40.99-4.74,4.96-11.14,10.71-18.54,17.38-25.9,23.33-61.38,55.28-62.12,86.1-.3,12.33,5.13,22.14,16.12,29.17,17.6,11.25,45.54,11.9,55.79,6.85,7.23-3.56,10.17-10.25,11.36-15.23,2.1-8.76.26-18.11-2.73-22.09-6.24-8.32-1.72-24.74,6.26-35.8,1.08-1.5,2.7-3.56,4.75-6.18,12.42-15.83,38.25-48.77,37.44-73.49-.05-1.66-.1-3.37-.15-5.14-.84-30.23-1.98-71.64-41.31-85.19-24.13-8.31-46.49-8.28-62.97.09-10.58,5.38-17.93,13.94-21.26,24.75-4.87,15.83-2.64,30.87,5.68,38.32,6.39,5.71,15.71,6.6,27.15,2.64-7.16-1.94-14.78-5.42-17.99-11.69-2.28-4.45-2.04-9.71.7-15.62,3.72-8.02,11.4-14.36,21.06-17.4,4.05-1.27,8.18-1.9,12.25-1.9Z"/>
        <path d="m34.91,81.72s-.06,0-.1,0c-8.68-.56-16.74-5.15-21.56-12.3-5.02-7.45-5.98-17.02-2.69-26.95,7.51-22.67,33.12-32.19,53.72-31.43.83.03,1.47.73,1.44,1.55-.03.83-.72,1.5-1.55,1.44-19.52-.73-43.74,8.18-50.76,29.38-3.84,11.57-.85,19.62,2.33,24.33,4.3,6.38,11.51,10.49,19.27,10.99.83.05,1.45.77,1.4,1.59-.05.79-.71,1.4-1.5,1.4Z" />
        <path d="m98.26,165.94c-.35,0-.7-.12-.99-.37-.62-.55-.68-1.49-.14-2.12,14.19-16.16,28.57-52.13,27.38-79.91-1.18-27.41-13.19-48.55-34.73-61.15-.71-.42-.96-1.34-.54-2.05.42-.72,1.34-.95,2.05-.54,22.47,13.14,34.99,35.13,36.21,63.61,1.26,29.43-13.61,65.48-28.12,82.01-.3.34-.71.51-1.13.51Z" />
        <path d="m68.69,244.73c-.66,0-1.27-.44-1.45-1.11-4.65-17.41,3.26-52.05,18.78-66.17.61-.56,1.56-.51,2.12.1.56.61.51,1.56-.1,2.12-14.41,13.11-22.3,46.7-17.9,63.17.21.8-.26,1.62-1.06,1.84-.13.03-.26.05-.39.05Z" />
        <path d="m63.99,263.48c-.52,0-1.03-.27-1.31-.76-9.93-17.46-3.47-52.66-3.19-54.15.15-.81.94-1.35,1.75-1.2.81.15,1.35.94,1.2,1.75-.07.35-6.54,35.62,2.85,52.11.41.72.16,1.64-.56,2.05-.23.13-.49.2-.74.2Z" />
        <path d="m77.22,181.14c-.29,0-.58-.08-.83-.25-.69-.46-.87-1.39-.41-2.08,9.87-14.75,22.23-28.85,22.36-28.99.55-.62,1.5-.68,2.12-.14.62.55.68,1.5.14,2.12-.12.14-12.36,14.1-22.12,28.68-.29.43-.76.67-1.25.67Z" />
        <path d="m93.43,30.57c-.26,0-.53-.07-.77-.21-21.61-12.89-36.93-10.22-37.08-10.19-.81.15-1.6-.38-1.75-1.19-.15-.81.38-1.6,1.19-1.75.66-.13,16.51-2.97,39.18,10.56.71.42.94,1.35.52,2.06-.28.47-.78.73-1.29.73Z" />
        <path d="m90.85,205.66c-1.54,0-3.2-.06-4.97-.14-.83-.04-1.47-.74-1.43-1.57.04-.83.73-1.48,1.57-1.43,5.09.23,9.49.32,11.74-.95,2.21-1.25,6.93-7.63,7.21-12.06.22-3.64-3.19-10.66-4.52-13.05-.4-.72-.14-1.64.58-2.04.72-.4,1.64-.14,2.04.58.21.38,5.22,9.43,4.89,14.7-.33,5.36-5.59,12.71-8.72,14.48-2.04,1.16-4.91,1.48-8.39,1.48Z" />
        <path d="m116.72,155.43c-.8,0-1.46-.62-1.5-1.43-.04-.83.6-1.53,1.43-1.57,5.61-.27,12.29-3.4,14.58-9.79,3.14-8.77,3.78-13.39,3.45-14.24-.8-1.68-2.85-5.93-2.85-5.93l2.7-1.3s2.05,4.26,2.86,5.95c1.22,2.56-1.14,10.41-3.34,16.53-2.76,7.69-10.65,11.46-17.26,11.77-.02,0-.05,0-.07,0Z" />
        <path d="m136.04,96.99c-.38,0-.75-.14-1.04-.42-.6-.58-.61-1.52-.04-2.12,3.89-4.03,6.38-7.43,6.81-11.95.49-5.21-1.22-14.57-2.13-15.8-.61-.83-4.34-2.33-7.43-3.2-.8-.22-1.26-1.05-1.04-1.85s1.05-1.26,1.85-1.04c1.74.49,7.52,2.25,9.04,4.31,1.63,2.22,3.19,12.57,2.7,17.86-.5,5.37-3.42,9.38-7.63,13.75-.29.31-.69.46-1.08.46Z" />
        <path d="m127.4,46.21c-.22,0-.44-.05-.65-.15-.75-.36-1.06-1.25-.7-2,1.43-2.99.13-8.82-3.48-15.61-1.11-2.09-6.28-5.32-7.67-5.82-.58.09-1.86.15-4.85-.02-.83-.05-1.46-.76-1.41-1.59.05-.83.76-1.46,1.59-1.41,1.66.1,3.74.15,4.2.06,2.09-.51,9.39,4.74,10.79,7.37,2.42,4.55,6.1,12.98,3.53,18.32-.26.54-.79.85-1.35.85Zm-12.97-26.54s-.07.02-.09.03c.03-.01.06-.02.09-.03Z" />
        <path d="m97.44,15.18c-.54,0-1.07-.3-1.34-.82-3.22-6.29-7.18-9.07-9.06-9.4-2.43-.44-6.26.72-7,1.31-.8.63-1.79,2.04-2.11,2.53-.45.7-1.38.9-2.07.45-.7-.45-.9-1.38-.45-2.07.14-.22,1.44-2.2,2.77-3.26,1.63-1.29,6.38-2.45,9.39-1.91,3.67.66,8.17,5.07,11.2,10.99.38.74.09,1.64-.65,2.02-.22.11-.45.17-.68.17Z" />
        <path d="m47.64,8.61c-.09,0-.18,0-.27-.02-.81-.15-1.35-.92-1.21-1.73.04-.2.92-4.95,5.03-6.57,3.96-1.55,11.13-.4,12.18,0,.35.13,1.43.54,4.66,5.56.45.7.25,1.62-.45,2.07-.7.45-1.63.25-2.07-.45-1.15-1.79-2.7-3.92-3.27-4.4-1.09-.3-7.09-1.1-9.94.02-2.53,1-3.17,4.27-3.17,4.3-.13.72-.77,1.23-1.48,1.23Z" />
        <path d="m24.34,16.25l-2.99-.18s.18-3.02.24-3.93c.16-2.35,5.92-4.97,5.98-4.99,1.99-.84,4.59-1.49,10.28,1.4.74.38,1.03,1.28.66,2.02-.38.74-1.28,1.03-2.02.66-4.93-2.5-6.63-1.78-7.76-1.31-1.3.55-3.6,2.05-4.17,2.7-.07,1.12-.22,3.64-.22,3.64Z" />
        <path d="m9.58,34.59c-.57,0-1.12-.33-1.37-.88l-1.81-4.02c-.16-.36-.18-.76-.04-1.13.18-.48,1.76-4.75,3.09-6.36,1.77-2.12,6.38-2.49,8.65-.7.65.51.76,1.46.25,2.11-.51.65-1.46.76-2.11.25-1.06-.84-3.82-.55-4.5.26-.67.81-1.72,3.23-2.37,4.9l1.56,3.46c.34.75,0,1.64-.75,1.98-.2.09-.41.13-.61.13Z" />
        <path d="m4.91,53.44c-.22,0-.45-.05-.67-.16C.4,51.37-.03,50.59-.19,50.3c-.47-.85-.33-2.18.69-6.75l.19-.86c.54-2.5,3.99-4.58,6.28-5.12.81-.19,1.61.31,1.8,1.12s-.31,1.61-1.12,1.8c-1.79.42-3.85,2-4.03,2.83l-.19.88c-.23,1.05-.81,3.65-.87,4.68.58.42,1.94,1.18,3.02,1.72.74.37,1.04,1.27.68,2.01-.26.53-.79.83-1.34.83Zm-2.35-4.28h0,0Z" />
        <path d="m7.31,71.35c-.09,0-.18,0-.27-.03-2.68-.5-4.38-1.08-5.04-1.74-1.1-1.1-2.12-4.23-2.41-5.49-.54-2.34,1.35-4.51,3.34-6.8l.11-.13c.54-.62,1.49-.69,2.12-.15.62.54.69,1.49.15,2.12l-.11.13c-1.22,1.4-2.88,3.31-2.68,4.16.37,1.61,1.2,3.54,1.57,4,.44.25,2.03.68,3.5.95.81.15,1.35.93,1.2,1.75-.13.72-.76,1.23-1.47,1.23Zm-3.19-3.88h.01-.01Z" />
        <path d="m12.71,84.62c-.08,0-.16,0-.24-.01-1.16-.15-2.33-1.13-3.84-2.66l-.17-.18c-1.64-1.64.23-7.47.25-7.52.27-.78,1.12-1.21,1.91-.93.78.27,1.2,1.12.93,1.91-.54,1.57-.83,3.87-.75,4.65,1.18,1.2,1.74,1.6,2,1.73.46-.17,1.48-.84,2.29-1.5.64-.53,1.58-.44,2.11.2.53.64.44,1.58-.2,2.11-1.25,1.03-2.97,2.22-4.28,2.22Zm-.04-2.99h0Zm-1.85-1.62h.01-.01Zm-.24-.37h.01s0,0-.01,0Z" />
        <path d="m26.39,88.88c-.63,0-1.33-.05-2.1-.19-2.75-.49-3.31-2.82-3.65-4.21-.2-.8.3-1.62,1.1-1.81.8-.2,1.62.3,1.81,1.1.39,1.6.61,1.85,1.27,1.96,1.12.2,2.04.15,2.64.07.22-.36.56-1.07.81-1.7.3-.77,1.17-1.15,1.94-.85.77.3,1.15,1.17.85,1.94-1.25,3.21-2.15,3.38-2.63,3.48-.51.1-1.2.19-2.04.19Zm.93-2.88h0Z" />
        <path d="m28.85,40.03c-.1,0-.2-.01-.3-.05-.53-.17-.82-.73-.65-1.25l2.11-6.65c.17-.53.73-.82,1.26-.65.53.17.82.73.65,1.25l-2.11,6.65c-.13.43-.53.7-.95.7Z" />
        <path d="m34.83,35.15c-.23,0-.45-.08-.64-.23-.42-.35-.48-.98-.13-1.41l3.4-4.07c.35-.42.99-.48,1.41-.13.42.35.48.98.13,1.41l-3.4,4.07c-.2.24-.48.36-.77.36Z" />
        <path d="m42.3,32.57c-.39,0-.76-.23-.92-.62-.21-.51.03-1.09.54-1.31l7.95-3.3c.51-.21,1.1.03,1.31.54.21.51-.03,1.09-.54,1.31l-7.95,3.3c-.13.05-.26.08-.38.08Z" />
    </g>
    <path d="m23.63,201.46c-.49,0-.92-.36-.99-.86l-1.66-11.75c-.08-.55.3-1.05.85-1.13.55-.09,1.05.3,1.13.85l1.66,11.75c.08.55-.3,1.05-.85,1.13-.05,0-.09,0-.14,0Z" />
    <path d="m29.5,189.72c-.48,0-.91-.35-.99-.84l-.77-4.85c-.09-.55.29-1.06.83-1.14.55-.09,1.06.29,1.14.83l.77,4.85c.09.55-.29,1.06-.83,1.14-.05,0-.11.01-.16.01Z" />
</svg>
