<svg fill="none" height="222" viewBox="0 0 90 222" width="90" xmlns="http://www.w3.org/2000/svg" xmlns:xlink="http://www.w3.org/1999/xlink"><clipPath id="a"><path d="m0 0h89.928v258.832h-89.928z" transform="matrix(-1 0 0 -1 89.9277 221.832)"/></clipPath><g clip-path="url(#a)"><path d="m47.5598 216.256c9.432-2.304 19.416-20.12 13.432-34.096s-10.424-33.912-2.896-53.096 5.704-47.7918-2.936-66.7838c-8.648-18.992-17.32-77.768-3.424-90.368s33.48-5.368 37.392 8.104c3.912 13.47199-12.112 72.88-6.128 88.344s-.384 36.2158-6.368 49.4958c-5.984 13.272-17.12 39-12.736 54.52s7.784 34.472-3.736 42.464-21.528 4.984-24.728-.784c.352.096 7.128 3.432 12.128 2.208z" fill="#fff"/><g fill="#f9322c"><path d="m47.4719-37.3761c16.56 0 34.4 6.864 39.16 15.616 7.4 13.61598 2.136 56.136-2.752 75.112-2.16 8.368-1.136 16.144-.056 24.376 1.52 11.56 3.088 23.5121-3.664 38.6001-11.688 26.144-16.312 40.408-12.8 55.832 2.216 9.72 5.896 33.536-7.72 44.752-6.28 5.176-14.032 6.744-19.736 3.992-3.936-1.896-6.152-5.544-6.08-10.016 0-.488.304-.92.76-1.096.448-.176.968-.072 1.304.28 2.632 2.704 6.152 4.136 9.424 3.832 1.728-.16 4.16-.904 5.88-3.504.368-.552 1.112-.704 1.664-.336s.704 1.112.336 1.664c-1.752 2.648-4.472 4.272-7.656 4.568-3.032.28-6.208-.624-8.928-2.488.656 2.168 2.136 3.88 4.344 4.936 4.872 2.344 11.608.904 17.16-3.672 8.728-7.184 11.312-23.024 6.904-42.368-3.664-16.096 1.032-30.696 12.952-57.352 6.472-14.472 4.952-26.0881 3.48-37.3121-1.112-8.472-2.16-16.472.112-25.288 5.488-21.28 9.472-61.40002 2.968-73.368-6.2-11.408-37.832-19.256-54.832-10.744-.592.296-1.312.056-1.608-.536s-.056-1.312.536-1.608c5.392-2.696 12.016-3.872 18.864-3.872z"/><path d="m41.3035 182.488c.416 0 .816.216 1.04.6.728 1.256 1.448 2.504 2.16 3.72 4.104 7.04 7.648 13.128 9.136 17.632.208.632-.136 1.304-.768 1.512s-1.304-.136-1.512-.768c-1.408-4.272-5.064-10.536-8.928-17.176-.712-1.224-1.44-2.472-2.168-3.728-.328-.576-.136-1.304.44-1.64.192-.112.392-.16.6-.16z"/><path d="m36.1753 118.96c.128 0 .248.016.376.064.632.208.968.888.768 1.512-1.344 4.088-2.744 7.448-3.984 10.416-3.344 8.04-5.552 13.352-3.496 24.256.848 4.48 2.912 9.912 6.312 16.616.304.592.064 1.312-.528 1.616s-1.312.064-1.616-.528c-3.504-6.912-5.64-12.552-6.528-17.256-2.192-11.608.256-17.488 3.64-25.624 1.216-2.928 2.6-6.248 3.92-10.248.168-.504.632-.824 1.136-.824z"/><path d="m40.4237 85.72c.544 0 1.032.368 1.168.92.856 3.568.16 10.424-.344 15.432-.064.656-.128 1.272-.184 1.832-.064.664-.64 1.144-1.312 1.08-.664-.064-1.144-.648-1.08-1.312.056-.56.12-1.184.184-1.84.464-4.56 1.16-11.456.4-14.632-.152-.648.24-1.296.888-1.448.096-.024.192-.032.28-.032z"/><path d="m23.2155 52.3202c.424 0 .832.224 1.048.616 2.256 4.04 4.368 7.568 6.416 10.984.92 1.536 1.808 3.008 2.648 4.448.336.568.144 1.304-.424 1.64s-1.304.144-1.64-.424c-.84-1.424-1.72-2.896-2.64-4.424-1.96-3.272-4.184-6.976-6.456-11.048-.32-.576-.112-1.312.464-1.632.184-.104.384-.152.584-.152z"/><path d="m8.12741 10.176c.624 0 1.144.48 1.192 1.104.464 5.968 1.83199 12.232 4.07999 18.608.216.624-.112 1.312-.736 1.528s-1.312-.112-1.528-.736c-2.31198-6.576-3.72799-13.04-4.20799-19.216-.048-.664.44-1.24 1.104-1.288z"/><path d="m63.8881 105.472c.656 0 1.192.528 1.2 1.184.136 9.088-2.184 14.408-5.12 21.136-2.568 5.872-5.76 13.176-8.288 25.456-2.848 13.832.696 19.328 4.456 25.144 3.32 5.136 6.744 10.448 6.384 21.248-.024.664-.608 1.176-1.24 1.16-.664-.024-1.184-.576-1.16-1.24.336-10.048-2.88-15.032-6-19.864-3.848-5.968-7.832-12.136-4.784-26.928 2.576-12.528 5.824-19.96 8.44-25.936 2.936-6.72 5.056-11.568 4.92-20.136-.008-.664.52-1.208 1.184-1.216h.016z"/><path d="m46.9675 32.1119c.592 0 1.104.44 1.184 1.04.936 6.904 3.544 12.672 6.56 19.352 3.72 8.232 7.936 17.568 10.36 31.768.112.656-.328 1.272-.984 1.384-.648.112-1.272-.328-1.384-.984-2.368-13.896-6.52-23.08-10.184-31.184-3.096-6.848-5.768-12.768-6.752-20.016-.088-.656.368-1.264 1.024-1.352.056 0 .112-.008.16-.008z"/><path d="m69.2237-33.6881c.456 0 .888.256 1.096.704.272.6.008 1.312-.592 1.5919-14.12 6.4641-25.24 35.16006-23.688 48.1601.08.656-.392 1.2559-1.048 1.3359-.656.088-1.256-.392-1.336-1.048-1.664-13.95995 9.856-43.6559 25.072-50.6239.16-.072.328-.1121.496-.1121z"/><path d="m52.3679 9.14425c.048 0 .104-.00002.16.00798.656.088 1.12.688 1.032 1.34397-.024.176-2.184 17.544 4.168 29.792.304.592.08 1.312-.512 1.616-.584.304-1.312.072-1.616-.512-6.712-12.928-4.52-30.472-4.424-31.208.08-.59996.592-1.04796 1.192-1.04796z"/><path d="m69.2242 75.3518c.608 0 1.128.464 1.192 1.08 2.256 21.952-2.16 41.3202-2.208 41.5122-.152.648-.792 1.048-1.44.896s-1.048-.792-.896-1.44c.04-.192 4.368-19.1842 2.16-40.7282-.064-.656.408-1.248 1.072-1.32h.128z"/><path d="m28.0077-33.3681c.304 0 .608.024.92.072 3.664.544 7.8 4.648 8.616 11.448 1.216 10.136-1.712 21.543953-11 24.17595-3.12.888-4.984-.312-5.992-1.48-5.016-5.76-.784-24.36795 1.592-29.75995 1.264-2.872 3.368-4.456 5.872-4.456zm-3.52 33.599958c.4 0 .856-.063991 1.4-.2159912 7.88-2.2319968 10.328-12.7519668 9.272-21.5759668-.664-5.544-3.888-8.96-6.584-9.36-1.768-.264-3.28.792-4.24 2.976-2.568 5.84-5.816 22.80795-1.976 27.215949.384.44 1 .960009 2.128.960009z"/><path d="m9.11961-21.1838c.344 0 .656.04.91999.096 3.624.792 7.184 6.408 7.624 12.03197.624 7.968-6.656 18.88-12.23998 20.54403-1.768.528-3.30401.12-4.32801-1.144-4.08-5.08003 1.32-24.032 3.904-28.672 1.296-2.328 2.92-2.856 4.128-2.856zm-4.392 30.37597c4.608-1.376 11.06399-11.30401 10.53599-18.06401-.376-4.85596-3.448-9.36796-5.74399-9.87196-.344-.072-1.392-.304-2.44 1.576-2.968 5.344-6.975996 22.46397-4.128 26.00797.28.352.712.664 1.768.352z"/><path d="m9.76752-13.1918c.41598 0 .81598.216 1.03998.6.104.176 2.472 4.38402 1.416 8.91202-.752 3.199998-2.68798 5.52801-4.71198 5.64001-.656.032-2.288-.136-3.184-2.608004-.224-.623996.096-1.311986.72-1.535986s1.312.09599 1.536.71999c.232.640005.52 1.080011.792 1.032012.592-.032001 1.936-1.336022 2.512-3.792022.84798-3.61599-1.136-7.13602-1.16-7.17602-.328-.576-.128-1.304.44-1.64.192-.112.392-.16.6-.16z"/><path d="m42.0716-17.5038c.552 0 1.056.384 1.176.952.096.448.136 2.192-1.56 8.59996-1.904 7.208003-8.008 10.92801-8.264 11.08001-.216.128-.464.18399-.712.16799l-8.176-.67199c-.664-.056-1.152-.632-1.096-1.296s.64-1.143996 1.296-1.095996l7.76.639989c1.176-.8079999 5.448-4.047993 6.872-9.439993 1.552-5.87997 1.52-7.41597 1.512-7.56797-.088-.616.32-1.208.944-1.344.08-.016.168-.024.248-.024z"/><path d="m14.9201 7.14395c.232 0 .464.064.664.2.552.368.704 1.11199.336 1.66399-.064.088-1.496 2.21596-3.504 3.18396-1.96.944-7.208-.144-8.768-.504-.648-.144-1.048-.792-.904-1.44.144-.64797.784-1.05595 1.44-.90395 2.816.64 6.376 1.07195 7.192.67995 1.4-.67197 2.536-2.33597 2.544-2.35197.232-.344.608-.53599 1-.53599z"/><path d="m20.3913-2.94397c.128 0 .264.02399.392.06399.624.216.96.896.744 1.528-.032.096-.792 2.296008-1.632 4.30401-.256.608-.96.89601-1.568.64001s-.8961-.96001-.6401-1.56801c.808-1.9360044 1.5761-4.13599 1.5841-4.15999.168-.496.6399-.80801 1.1359-.80801z"/><path d="m51.9759 98.0403c.376 0 .768.064 1.152.192 2.44.8 4.08 3.9037 3.912 7.3917-.28 5.712-3.016 11.744-8.496 12.336-1.576.176-2.848-.392-3.576-1.584-2.368-3.88 1.904-13.744 3.528-16.208.912-1.3757 2.152-2.1197 3.472-2.1197zm-3.984 17.5437c.088 0 .192 0 .296-.016 4.048-.44 6.128-5.52 6.352-10.064.128-2.624-1.048-4.6-2.264-4.992-.672-.224-1.304.104-1.872.976-2.016 3.064-4.904 11.304-3.48 13.64.096.16.288.464.968.464z"/><path d="m52.0952 104.128h.12c.672.024 1.448.48 1.608 1.68.248 1.8-1 6.048-3.04 6.712-.384.12-1.696.392-2.624-1.336-.312-.584-.096-1.312.488-1.624.568-.304 1.28-.104 1.608.456.456-.592.984-1.992 1.16-3-.248.32-.456.72-.552.992-.224.624-.904.944-1.536.728-.624-.224-.952-.904-.736-1.528.112-.32 1.144-3.072 3.496-3.072z"/><path d="m41.0158 102.808c.448 0 .816.112 1.048.2 2.304.928 3.568 4.688 3.304 7.624-.416 4.616-5.48 9.872-8.816 10.28-1.208.144-2.208-.32-2.744-1.28-1.88-3.368 2.736-13.008 4.696-15.448.88-1.096 1.8-1.376 2.512-1.376zm-4.76 15.72c2.112-.256 6.392-4.528 6.72-8.112.224-2.448-.944-4.832-1.808-5.176-.088-.032-.328-.128-.792.448-2.088 2.608-5.464 11-4.472 12.776.024.04.056.104.352.064z"/><path d="m41.0073 108.208c.488 0 .944.304 1.128.784.08.224.768 2.216-.048 4.168-.648 1.536-1.84 2.496-2.992 2.36-.336-.04-1.432-.28-1.72-1.84-.12-.656.312-1.28.968-1.392.488-.088.952.128 1.208.512.112-.144.224-.336.328-.568.456-1.088.016-2.4.008-2.408-.232-.624.088-1.312.712-1.544.136-.048.28-.072.416-.072z"/><path d="m58.392 107.736c.64 0 1.176.504 1.2 1.152.024.632-.528 2.2-1.648 4.664-1.752 3.848-5.52 5.352-5.68 5.416-.232.088-.488.104-.728.04l-4.264-1.088c-.64-.168-1.032-.816-.864-1.456s.816-1.032 1.456-.864l3.856.984c.816-.408 2.968-1.656 4.04-4.024 1.232-2.712 1.416-3.568 1.432-3.696.032-.608.528-1.104 1.152-1.128z"/><path d="m52.384 97.904h.04c.608.024 5.936.304 6.832 3.784.168.64-.224 1.296-.864 1.464s-1.296-.224-1.464-.864c-.352-1.384-3.248-1.928-4.592-1.984-.664-.024-1.176-.576-1.16-1.24.024-.648.552-1.16 1.2-1.16z"/><path d="m41.7995 118.344c.296 0 .592.112.824.328.48.456.504 1.216.048 1.696-.112.12-1.12 1.16-2.392 1.52-1.216.352-3.632-.528-4.96-1.072-.608-.256-.904-.96-.648-1.568s.96-.904 1.568-.648c1.4.576 2.984 1.048 3.416.976.528-.152 1.144-.712 1.272-.856.232-.248.552-.376.872-.376z"/><path d="m45.5993 113.496c.192 0 .392.048.576.144.584.32.792 1.048.48 1.632-.024.048-.632 1.16-1.272 2.16-.36.56-1.096.728-1.656.368-.56-.352-.728-1.096-.368-1.656.592-.936 1.184-2.016 1.192-2.032.216-.4.632-.624 1.056-.624z"/><path d="m41.4873 102.584c2.176 0 5.32 1.632 6.024 4.936.136.648-.28 1.288-.928 1.424s-1.288-.28-1.424-.928c-.488-2.32-2.88-3.088-3.8-3.032-.656.048-1.232-.448-1.28-1.112s.448-1.232 1.112-1.28c.096 0 .192-.008.288-.008z"/><path d="m25.8082 18.7202c3.312 0 7.024 2.712 8.88 6.568.288.6.032 1.312-.56 1.6-.6.288-1.312.032-1.6-.56-1.528-3.192-4.64-5.472-7.104-5.192-1.888.216-2.68 2.016-3.008 3.488-1.2 5.408.984 15.728 4.952 19.272 1.352 1.208 2.76 1.536 4.32 1 5.104-1.76 3.416-9.832 3.208-10.744-.144-.648.256-1.288.904-1.44.64-.144 1.288.256 1.44.904 1.16 5.096.608 11.696-4.768 13.552-2.384.816-4.696.304-6.696-1.48-5.08-4.536-6.928-16.048-5.696-21.584.944-4.256 3.584-5.184 5.072-5.352.216-.024.44-.04.664-.04z"/><path d="m31.168 16.5362c2.032 0 4.032.68 5.592 2.56 4.336 5.216 6.5681 22.056 3.3601 25.376-2.768 2.864-7.3841 2.872-7.592 2.864-.6641 0-1.2-.544-1.192-1.208 0-.656.544-1.192 1.2-1.192.072 0 3.8079-.024 5.8479-2.128 1.712-1.768.832-16.984-3.48-22.168-3.552-4.272-10.5279.8-10.5919.856-.536.392-1.2881.28-1.6801-.248-.392-.536-.2799-1.288.2481-1.68 1.856-1.376 5.1119-3.024 8.2719-3.024z"/><path d="m12.3841 29.6958c.96 0 2.216.376 3.608 1.712 3.456 3.32 7.088 9.56 5.96 16.208-.112.656-.736 1.088-1.384.984-.656-.112-1.096-.728-.984-1.384.976-5.728-2.224-11.16-5.256-14.072-.648-.616-1.584-1.288-2.4-.952-1.136.464-2.52803 2.928-2.68803 8.344-.184 6.144 4.63203 11.416 6.70403 13.392.336.32.792.456 1.256.392 1.136-.168 2.728-.44 3.84-.816 1.304-.44 3.968-4.008 3.192-8.952-.104-.656.344-1.272 1-1.368.656-.112 1.272.344 1.368 1 .92 5.88-2.176 10.712-4.8 11.6-1.272.432-3.016.736-4.256.912-1.2.176-2.392-.2-3.264-1.032-2.312-2.2-7.65603-8.088-7.44803-15.2.16799-5.736 1.648-9.464 4.17603-10.496.336-.136.8-.264 1.368-.264z"/><path d="m27.3122 24.5202c1.368 0 2.656.688 3.832 2.032 2.096 2.408 2.576 7.128 1.056 10.312-.952 1.984-2.584 3.08-4.48 3.016-.664-.024-1.176-.584-1.152-1.24.024-.664.568-1.192 1.24-1.152.952.024 1.688-.52 2.232-1.648 1.112-2.328.776-6-.704-7.704-.696-.8-1.368-1.2-2.008-1.208 0 0-.008 0-.016 0-.832 0-1.464.688-1.472.696-.44.488-1.2.536-1.688.096-.496-.44-.544-1.184-.112-1.68.136-.152 1.36-1.512 3.272-1.512z"/><path d="m12.6637 36.352c.824 0 1.688.328 2.584.968 2.4 1.728 3.136 5.648 3.04 8.472-.048 1.488-.344 3.416-1.472 4.12-.56.352-1.304.176-1.656-.384-.336-.536-.192-1.24.312-1.608.272-.392.6-2.088.312-4.272-.272-2.064-1-3.696-1.944-4.384-.336-.24-.968-.632-1.4-.48-.432.144-.768.808-.864 1.112-.2.632-.864.984-1.496.792-.63195-.192-.99195-.848-.79995-1.48.064-.216.664-2.104 2.37595-2.696.32-.112.656-.168.992-.168z"/><path d="m16.24 28.656c1.752 0 3.68.496 5.288 2.112.464.472.464 1.232 0 1.696s-1.232.464-1.696 0c-2.816-2.832-7.56-.456-7.6-.432-.592.304-1.312.072-1.616-.52s-.072-1.312.512-1.616c.152-.08 2.44-1.232 5.12-1.232z"/><path d="m44.6319 62.6959c.944 0 1.864.296 2.712.872 3.608 2.456 5.2 9.352 5.536 12.648s-.872 6.408-3.016 7.744c-1.456.912-3.192.88-4.744-.088-4.48-2.784-6.376-9.912-5.624-15.192.456-3.176 1.824-5.232 3.864-5.808.432-.12.864-.184 1.288-.184zm2.96 19.536c.344 0 .672-.104.992-.304 1.152-.72 2.168-2.824 1.904-5.472-.36-3.504-1.992-9.2-4.496-10.912-.656-.448-1.288-.56-2-.36-1.032.288-1.832 1.72-2.136 3.832-.632 4.44 1.032 10.648 4.52 12.816.424.264.832.392 1.216.392z"/><path d="m34.68 67.1601c.928 0 2.112.312 3.408 1.416 3.648 3.112 6.056 10.52 5.96 12.08-.008.16-.008.36-.008.584-.008 1.456-.032 4.152-1.872 5.68-1.152.952-2.768 1.248-4.8.872-5-.92-7.376-7.056-7.472-12.376-.08-4.488 1.424-7.616 3.92-8.168.256-.056.552-.096.872-.096zm4.296 18.392c.712 0 1.272-.16 1.656-.48.984-.808.992-2.712 1-3.848 0-.272 0-.512.016-.712 0-.944-2.208-7.752-5.232-10.208-.76-.616-1.44-.848-2.096-.712-1.232.272-2.088 2.704-2.032 5.776.08 4.512 1.992 9.408 5.504 10.056.432.08.824.12 1.184.12z"/><path d="m34.9837 74.08c.088 0 .184.008.272.032 2.208.512 3.632 3.048 4.024 5.192.344 1.896-.08 3.4-1.168 4.12-.552.368-1.296.216-1.664-.336s-.216-1.296.336-1.664c.104-.064.328-.616.136-1.696-.288-1.592-1.28-3.064-2.2-3.28-.648-.152-1.048-.792-.896-1.44.128-.552.624-.928 1.168-.928z"/><path d="m45.4072 68.8641c.128 0 .256.016.376.064 1.728.576 2.864 2.32 3.128 4.776.184 1.792-.096 4.792-1.64 5.696-.568.336-1.304.144-1.64-.432-.328-.56-.152-1.272.384-1.616.336-.368.816-2.336.376-4.2-.176-.736-.552-1.68-1.36-1.952-.632-.208-.968-.888-.76-1.52.168-.504.632-.824 1.136-.824z"/><path d="m54.5273 67.16c.392 0 .776.1919 1.008.5439 2.144 3.28 1.464 11.1361 1.048 12.6081-.648 2.304-5.272 4.9599-8.568 4.3039-.648-.128-1.072-.7679-.936-1.4159.128-.648.768-1.0641 1.416-.9361 2.408.48 5.56-1.824 5.776-2.6.392-1.392.752-8.3439-.744-10.6399-.36-.552-.208-1.296.344-1.664.2-.136.432-.2.656-.2z"/><path d="m47.8797 61.0882c.984 0 1.968.208 2.856.776.56.36.72 1.096.368 1.656-.36.56-1.096.72-1.656.368-1.76-1.12-4.968.4-5.952 1.024-.56.352-1.304.184-1.656-.376s-.184-1.304.376-1.656c.152-.096 2.88-1.792 5.664-1.792z"/><path d="m41.0796 65.8642c.584 0 1.104.432 1.184 1.032.096.656-.36 1.264-1.016 1.36l-6.096.88c-.664.096-1.264-.36-1.36-1.016s.36-1.264 1.016-1.36l6.096-.88c.056-.008.12-.016.176-.016z"/><path d="m46.1273 82.336c.416 0 .824.216 1.048.608.328.576.12 1.312-.456 1.632l-4.536 2.552c-.576.328-1.312.12-1.632-.456-.328-.576-.12-1.312.456-1.632l4.536-2.552c.184-.104.392-.152.592-.152z"/><path d="m43.8401 134.168c.768 0 1.52.184 2.24.544 1.936.976 3.288 3.16 3.456 5.56.256 3.576-2.864 12.32-7.944 12.768-3.88.344-5.24-1.912-5.712-3.288-1.56-4.608 2.104-12.84 4.96-14.656.968-.616 1.992-.928 2.992-.928zm-2.456 16.48c3.144-.28 5.968-7.256 5.76-10.208-.112-1.552-.976-2.992-2.152-3.584-.904-.456-1.864-.368-2.864.264-1.904 1.208-5.184 8.272-3.976 11.856.272.816.912 1.872 3.224 1.664z"/><path d="m33.4956 131.952c1.056 0 2.104.56 2.936 1.584 1.424 1.752 2.416 5.184.936 9.576-1.8 5.312-2.992 8.824-9.432 6.944-1.008-.296-2.656-1.4-2.32-5.488.392-4.808 3.512-12.096 7.528-12.592.12-.016.24-.024.36-.024zm-2.472 16.256c1.92 0 2.592-1.52 4.072-5.872 1.176-3.464.456-6.088-.52-7.288-.384-.464-.832-.736-1.144-.688-2.168.264-5.064 5.808-5.432 10.4-.16 2.016.272 2.888.6 2.984 1 .288 1.776.464 2.424.464z"/><path d="m44.0482 139.784c.4 0 .792.2 1.016.568.92 1.472.944 3.808.056 5.672-.672 1.408-1.736 2.272-3 2.424-.656.08-1.256-.384-1.336-1.04s.384-1.256 1.04-1.336c.592-.072.992-.776 1.136-1.08.52-1.096.552-2.608.072-3.368-.352-.56-.184-1.304.384-1.656.2-.128.416-.184.632-.184z"/><path d="m32.5114 138.816c.52 0 1 .344 1.152.872.544 1.912-.312 4.76-2.272 5.704-.6.288-1.312.04-1.6-.56s-.04-1.312.56-1.6c.8-.384 1.264-2 1.008-2.888-.184-.64.184-1.304.824-1.48.112-.032.224-.048.328-.048z"/><path d="m45.5194 168.288c.76 0 1.544.168 2.312.512 1.864.824 3.2 2.672 3.76 5.208.672 3.04.12 6.648-1.256 8.216-.712.816-1.688 1.216-2.744 1.128-1.896-.152-3.864-1.816-5.84-4.952-1.848-2.936-1.848-6.216.008-8.368.992-1.144 2.328-1.744 3.76-1.744zm3.016 12.352c.688-.784 1.296-3.488.712-6.112-.272-1.248-.912-2.88-2.384-3.528-1.256-.552-2.48-.328-3.288.608-.872 1.016-1.344 3.064.2 5.52 2.168 3.44 3.616 3.808 4 3.84.184.016.472 0 .752-.32z"/><path d="m38.2797 169.664c3.048 0 4.568 1.912 4.64 2 .408.52.312 1.28-.208 1.688-.528.408-1.28.312-1.688-.208-.032-.04-1.096-1.288-3.336-1.04-.168.016-.68.08-1.064.952-.68 1.552-.4 4.48 1.24 6.696 1.448 1.96 2.784 2.52 3.472 2.408.696-.112 1.096-.92 1.304-1.576.2-.632.872-.984 1.504-.776.632.2.976.88.776 1.512-.792 2.472-2.344 3.072-3.2 3.216-1.88.312-3.992-.912-5.792-3.352-1.992-2.696-2.624-6.52-1.504-9.08.6-1.384 1.664-2.232 2.992-2.376.296-.032.584-.048.856-.048z"/><path d="m45.5437 172.896c.272 0 .544.096.776.28.304.256 2.904 2.56 2.088 5.208-.2.632-.864.984-1.504.792-.632-.2-.984-.872-.792-1.504.304-.976-.896-2.28-1.344-2.664-.504-.432-.56-1.184-.136-1.688.24-.28.576-.424.912-.424z"/><path d="m38.0394 174.168c.224 0 .456.064.656.2 1.432.944 3.616 3.16 2.672 5.464-.248.616-.952.904-1.568.656s-.904-.952-.656-1.568c.312-.76-1-2.04-1.776-2.552-.552-.368-.704-1.112-.336-1.664.232-.352.616-.536 1-.536z"/><path d="m53.8714 190.408h.248c1.608.096 2.896 1.136 3.64 2.936.848 2.048.912 5.184-.344 6.592-.568.64-1.36.872-2.16.648-3.056-.872-4.968-4.816-4.512-7.488.288-1.672 1.472-2.688 3.12-2.688zm1.84 7.8c.272-.544.472-2.232-.112-3.792-.264-.704-.76-1.552-1.624-1.608-.552-.04-.768.136-.864.688-.256 1.52.984 4.08 2.6 4.712z"/><path d="m50.0478 191.376c.648 0 1.288.304 1.768.888.424.512.352 1.264-.16 1.688-.48.4-1.184.36-1.616-.08-.256.36-.552 1.4.048 2.784.8 1.848 1.816 2.568 2.056 2.544.04-.016.216-.192.376-.688.208-.632.888-.968 1.512-.768.632.208.968.888.768 1.512-.648 1.96-1.872 2.304-2.544 2.336-1.6.08-3.272-1.456-4.368-3.984-1.128-2.608-.368-5.048 1.016-5.904.36-.224.752-.328 1.144-.328z"/><path d="m55.9439 203.376c.432 0 .888.096 1.344.288 1.424.592 2.488 1.912 2.704 3.376.184 1.232-.2 2.568-1.04 3.656-.896 1.168-2.216 1.928-3.624 2.08-1.264.144-2.28-.448-2.728-1.568-.84-2.128.624-6.44 1.872-7.376.416-.304.912-.464 1.464-.464zm-1 7.024h.128c.76-.088 1.48-.512 1.984-1.16.448-.576.648-1.248.568-1.848-.08-.528-.432-1.032-.952-1.352-.352-.216-.632-.264-.752-.256-.688.816-1.512 4.056-1.032 4.624h.064z"/><path d="m53.4555 203.616c.68 0 1.304.216 1.736.512.552.368.704 1.112.336 1.664s-1.112.704-1.664.336c-.616-.368-1.032.2-1.168.384-.64.864-.424 2.408-.112 2.856.56.04 1.032.472 1.104 1.048.08.656-.384 1.256-1.04 1.336-.856.104-1.64-.336-2.152-1.208-.8-1.36-.928-3.832.264-5.456.808-1.096 1.8-1.472 2.696-1.472z"/><path d="m58.8396 150.432c.328 0 .64.208.752.536l1.648 4.672c.144.416-.072.872-.488 1.024-.416.144-.872-.072-1.024-.488l-1.648-4.672c-.144-.416.072-.872.488-1.024.088-.032.176-.048.264-.048z"/><path d="m57.7278 154.336c.344 0 .664.224.768.576l1.112 3.832c.12.424-.12.872-.544.992-.424.128-.864-.12-.992-.544l-1.112-3.832c-.12-.424.12-.872.544-.992.072-.024.152-.032.224-.032z"/></g></g></svg>