<svg fill="none" height="40" viewBox="0 0 40 40" width="40" xmlns="http://www.w3.org/2000/svg" xmlns:xlink="http://www.w3.org/1999/xlink"><clipPath id="a"><path d="m0 0h40v40h-40z"/></clipPath><g clip-path="url(#a)" stroke="#ff2d20" stroke-linecap="round" stroke-linejoin="round" stroke-width="2"><path d="m1 10.4609h38"/><path d="m30 34.8894h5.65c1.84 0 3.35-1.51 3.35-3.35v-23.08003c0-1.84-1.51-3.34999-3.35-3.34999h-31.3c-1.84 0-3.35 1.50999-3.35 3.34999v23.07003c0 1.84 1.51 3.35 3.35 3.35h5.65"/><path d="m10.1699 16.3906h19.66"/><path d="m10.1699 20h6.21"/><path d="m20.3499 20h9.48"/><path d="m10.1699 23.6094h9.91"/><path d="m25.6199 30.9117c.07.2.01.43-.15.58l-1.01.92c.03.2.04.39.04.6s-.01.4-.04.6l1.01.92c.16.15.22.37.15.58-.1.28-.23.55-.37.8l-.11.19c-.16.26-.33.5-.52.73-.14.17-.37.22-.57.16l-1.31-.42c-.31.24-.66.44-1.03.6l-.29 1.34c-.05.21-.21.38-.43.42-.32.05-.66.08-1 .08s-.67-.03-1-.08c-.22-.04-.38-.2-.43-.42l-.29-1.34c-.37-.15-.72-.35-1.03-.6l-1.3.42c-.21.07-.44 0-.57-.16-.19-.23-.36-.47-.52-.73l-.11-.19c-.14-.26-.27-.52-.37-.8-.08-.2-.01-.43.15-.58l1.01-.92c-.03-.2-.04-.4-.04-.6s.01-.4.04-.6l-1.01-.92c-.16-.15-.23-.37-.15-.58.1-.28.23-.55.37-.8l.11-.19c.15-.26.33-.5.52-.73.14-.17.37-.22.57-.16l1.31.42c.31-.24.66-.44 1.03-.6l.29-1.34c.05-.21.21-.38.43-.42.32-.06.66-.08 1-.08s.67.03 1 .08c.22.04.38.2.43.42l.29 1.34c.37.15.72.35 1.03.59l1.31-.42c.21-.07.44 0 .57.16.19.23.36.47.52.73l.11.19c.14.26.27.52.37.8zm-5.62 3.97c.67 0 1.29-.36 1.62-.94s.33-1.29 0-1.88-.95-.94-1.62-.94-1.29.36-1.62.94-.33 1.29 0 1.88.95.94 1.62.94z"/><path d="m8.25989 29.5884h-.31c-1.34 0-2.42-1.08-2.42-2.42v-3.45c0-.86-.31-1.7-.89-2.35.57-.65.89-1.48.89-2.35v-3.45c0-1.34 1.08-2.42 2.42-2.42h.31"/><path d="m31.74 29.5884h.31c1.34 0 2.42-1.08 2.42-2.42v-3.45c0-.86.31-1.7.89-2.35-.57-.65-.89-1.48-.89-2.35v-3.45c0-1.34-1.08-2.42-2.42-2.42h-.31"/></g></svg>