<svg viewBox="0 0 677.07 533.16" xmlns="http://www.w3.org/2000/svg">

    <style>
        :root { fill:#222 }
        .accent { fill: #f9322c; }

        @media (prefers-color-scheme: dark) {
        :root {  fill: #f9322c; }
        .accent { fill:#dee2e6; }
        }
    </style>

    <g class="accent">
        <path
            d="m574.69 186.43c-12.26-3.45-13.66 16.85-22.56 22.53s-14.84 15.64-17 28.15-15.59 25.4-22.86 31.92c-7.28 6.51-10.76 40.73-10.76 40.73l1.38 3.22 45.23-77.69 13.56-21.01-1.32 16.94-55.69 85.57 1.47 3.05s15.19 3.96 20.5-1.91 9.75-14.81 23.92-20.65 10.47-18.67 16.34-26.97 26.55-30.26 27.7-46.92-7.66-33.5-19.92-36.95z"/>
        <path
            d="m104.11 286.74c-5.33 6.93-4.46 41.23 0 48.72h14.42s-10.24-24.97 0-49.39c-14.42 1.34-14.42.67-14.42.67z"/>
        <path d="m133.27 286.07s-7.53 11.3-5.34 26.52 5.82 22.86 5.82 22.86h59.65l4.93-47.53-6.25-1.18z"/>
        <path d="m87.98 246.72h30.54s-8.79-25.34-3-39.43h-30.89s-9.38 25.07 3.35 39.43z"/>
        <path d="m149.64 208.33s-4.6 19.95 2.49 37.5h48.55l2.1-13.64 2.01-23.86z"/>
        <path
            d="m283.75 187.74-.34-.56-4.18-7-23.45 7.56s-10.4-.07-15.67-9.42-10.72-22.18-1.24-33.19 43.49-18.1 43.49-18.1 46.03 3.45 66.62 4.4 28.32-5.85 37.98-3.35c20.1 5.2 24.34 64.21 24.34 64.21h-35.32l-29.97 17.44-14.27-12.14-11.87-7.56-12.66-2.86-23.47.56z"/>
        <path
            d="m479 330.16-6.9 4.17.36 5.24 4.06 2.51-1.18 10.48-14.92 19.98-2.42 25.04 30.83 6.4 22.37-9.31v-23.49l-13.11-16.49-.62-15.45 3.08-8.35-16.63-2.13z"/>
    </g>
    <path
        d="m347.08 368.65c-.65 0-1.23-.42-1.43-1.06-1.43-4.59-6.28-9.27-13.33-12.84-11.52-5.83-31.26-9.49-52.14-2.27-32.28 11.16-69.64-1.35-71.21-1.89-.64-.22-1.06-.85-1.01-1.53.02-.33 2.41-33.06 5.92-67.68 3.5-34.53 3.54-97.36 3.54-97.99 0-.45.21-.88.56-1.17s.82-.4 1.26-.3c.34.07 34.25 7.23 70.46 3.05 37.34-4.3 58.4 23.73 58.61 24.01.19.26.29.57.29.89v157.26c0 .74-.54 1.37-1.28 1.48-.08.01-.15.02-.23.02zm-42.86-23.22c10.53 0 20.73 2.23 29.45 6.65 5.13 2.6 9.24 5.81 11.91 9.23v-150.91c-2.59-3.24-22.33-26.27-55.56-22.44-31.91 3.68-62.05-1.32-69.62-2.74-.04 10.63-.37 65.12-3.55 96.47-3.13 30.88-5.36 60.25-5.82 66.41 6.44 1.98 39.88 11.32 68.16 1.54 8.17-2.82 16.7-4.22 25.03-4.22z"/>
    <path
        d="m347.07 368.64c-.27 0-.55-.07-.79-.23-.7-.44-.91-1.36-.48-2.06.38-.62 9.74-15.11 39.26-16.79 20.93-1.18 60.95 5.8 82.93 10.07.81.16 1.34.95 1.19 1.76-.16.81-.95 1.35-1.76 1.19-21.85-4.25-61.58-11.2-82.19-10.02-27.84 1.58-36.8 15.24-36.89 15.38-.29.45-.77.7-1.27.7z"/>
    <path
        d="m479.65 331.04c-.8 0-1.46-.63-1.5-1.43l-6.19-140.23c-6.46 2.5-27.38 9.54-50.15 5.91-26.63-4.24-56.19-5.71-73.57 15.55-.52.64-1.47.74-2.11.21-.64-.52-.74-1.47-.21-2.11 18.34-22.44 48.89-20.99 76.36-16.61 25.95 4.13 50.23-6.41 50.47-6.51.45-.2.98-.16 1.4.1s.69.71.71 1.21l6.29 142.36c.04.83-.61 1.53-1.43 1.57-.02 0-.04 0-.07 0z"/>
    <path
        d="m347.08 382.44c-10.12 0-15.41-4.57-16.99-6.23h-131.76c-.42 0-.82-.17-1.1-.48s-.43-.72-.39-1.14l14.43-181.39c.04-.45.27-.86.64-1.11l6.13-4.25c.68-.47 1.62-.3 2.09.38s.3 1.62-.38 2.09l-5.54 3.85-14.24 179.06h130.81c.46 0 .9.22 1.19.58.18.22 4.58 5.64 15.13 5.64s14.95-5.42 15.13-5.65c.29-.36.72-.58 1.18-.58h97.28c.83 0 1.5.67 1.5 1.5s-.67 1.5-1.5 1.5h-96.61c-1.58 1.66-6.87 6.23-16.99 6.23z"/>
    <path
        d="m491.85 330.26c-.77 0-1.42-.59-1.49-1.37l-10.66-123.36-7.36-11.74c-.44-.7-.23-1.63.47-2.07s1.63-.23 2.07.47l7.55 12.05c.13.2.2.43.22.67l10.69 123.72c.07.83-.54 1.55-1.37 1.62-.04 0-.09 0-.13 0z"/>
    <path
        d="m347.08 390.17c-13.51 0-20.68-4.39-22.49-5.68h-135.01c-.42 0-.82-.18-1.11-.49s-.42-.73-.39-1.15l17.74-195.81c.07-.77.72-1.36 1.49-1.36h11.58c.83 0 1.5.67 1.5 1.5s-.67 1.5-1.5 1.5h-10.21l-17.46 192.81h133.87c.35 0 .69.12.96.34.06.05 6.72 5.33 21.04 5.33s20.98-5.28 21.04-5.33c.27-.22.61-.34.95-.34h91.35c.83 0 1.5.67 1.5 1.5s-.67 1.5-1.5 1.5h-90.85c-1.82 1.29-8.99 5.68-22.49 5.68z"/>
    <path
        d="m499.64 331.66c-.77 0-1.42-.58-1.49-1.36l-12.68-135.81h-12.11c-.83 0-1.5-.67-1.5-1.5s.67-1.5 1.5-1.5h13.48c.77 0 1.42.59 1.49 1.36l12.8 137.17c.08.83-.53 1.56-1.35 1.63-.05 0-.09 0-.14 0z"/>
    <path
        d="m346.49 376.19c-.33 0-.66-.17-.85-.47-11.81-18.84-34.14-18.61-40.7-18.1-.56.05-1.03-.37-1.08-.92-.04-.55.37-1.03.92-1.08 6.85-.54 30.14-.76 42.55 19.03.29.47.15 1.08-.32 1.38-.17.1-.35.15-.53.15z"/>
    <path
        d="m244.95 369.39c-15.58 0-32.88-3.37-39.29-9.69-.39-.39-.4-1.02 0-1.42.39-.39 1.02-.4 1.42 0 9.22 9.1 42.36 11.7 57.87 6.6.52-.17 1.09.11 1.26.64s-.11 1.09-.64 1.26c-5.35 1.76-12.76 2.62-20.61 2.62z"/>
    <path
        d="m227.89 373.94s-.08 0-.12 0c-.8-.1-19.67-2.43-25.35-5.94-.47-.29-.62-.91-.33-1.38s.9-.62 1.38-.33c5.31 3.27 24.35 5.63 24.54 5.65.55.07.94.57.87 1.11-.06.51-.49.88-.99.88z"/>
    <path
        d="m415.78 369.43c-.11 0-.22-.02-.33-.06-.23-.08-22.95-7.97-45.79-2.58-.55.12-1.08-.21-1.2-.74-.13-.54.21-1.08.74-1.2 23.43-5.54 46.68 2.55 46.92 2.64.52.18.79.76.61 1.28-.15.41-.53.67-.94.67z"/>
    <path
        d="m463.31 366.82s-.07 0-.1 0c-.1-.01-10.26-1.08-21.55-4.02-.53-.14-.85-.69-.72-1.22.14-.54.69-.85 1.22-.72 11.14 2.9 21.15 3.96 21.25 3.97.55.06.95.55.89 1.1-.05.51-.49.9-.99.9z"/>
    <path
        d="m347.08 251.11c-.37 0-.74-.13-1.02-.4-.61-.57-.64-1.52-.07-2.12 14.05-15.02 31.46-13.77 32.2-13.71.83.07 1.44.79 1.37 1.62s-.82 1.43-1.62 1.37c-.16-.02-16.74-1.15-29.76 12.77-.3.32-.7.48-1.1.48z"/>
    <path
        d="m347.08 326.55c-.42 0-.83-.17-1.13-.51-11.3-12.88-24.54-15.33-24.67-15.36-.82-.14-1.36-.92-1.22-1.73.14-.82.92-1.36 1.73-1.22.58.1 14.38 2.61 26.41 16.33.55.62.48 1.57-.14 2.12-.29.25-.64.37-.99.37z"/>
    <path
        d="m347.08 239.05c-.46 0-.91-.21-1.21-.6-6.45-8.68-17.06-11.72-17.17-11.75-.8-.22-1.26-1.05-1.04-1.85s1.06-1.27 1.84-1.04c.47.13 11.69 3.32 18.78 12.85.49.67.36 1.6-.31 2.1-.27.2-.58.3-.89.3z"/>
    <path
        d="m325.67 210.88c-.14 0-.29-.03-.43-.1-11.7-5.56-26.58-5.66-44.81-5.22h-.02c-.54 0-.99-.43-1-.98s.42-1.01.98-1.02c18.5-.45 33.62-.34 45.72 5.41.5.24.71.83.47 1.33-.17.36-.53.57-.9.57z"/>
    <path
        d="m258.25 205.97c-3.5 0-7.11-.05-10.77-.17-.55-.02-.98-.48-.96-1.03s.49-1 1.03-.96c9.16.31 18.02.14 25.61-.05.56 0 1.01.42 1.03.97.01.55-.42 1.01-.97 1.03-4.59.11-9.64.22-14.95.22z"/>
    <path
        d="m242.21 205.56s-.04 0-.06 0c-2.77-.15-5.53-.35-8.21-.6-.55-.05-.96-.54-.91-1.09s.53-.95 1.09-.91c2.66.24 5.39.44 8.14.59.55.03.97.5.94 1.05-.03.53-.47.95-1 .95z"/>
    <path
        d="m307.22 224.01s-.06 0-.09 0c-4.09-.36-8.68-.49-14.43-.4h-.02c-.54 0-.99-.44-1-.98 0-.55.43-1.01.98-1.02 5.82-.09 10.47.04 14.64.41.55.05.96.53.91 1.08-.05.52-.48.91-1 .91z"/>
    <path
        d="m254.94 224.75c-7.06 0-14.39-.26-21.88-1.01-.55-.05-.95-.54-.9-1.09s.55-.94 1.09-.9c15.82 1.58 30.97.94 44.33.37 3-.13 5.93-.25 8.79-.35.57-.03 1.02.41 1.03.96.02.55-.41 1.01-.96 1.03-2.85.1-5.78.22-8.77.35-7.13.3-14.76.63-22.73.63z"/>
    <path
        d="m324.49 245.75c-.14 0-.28-.03-.42-.09-11.25-5.17-27.07-4.23-45.39-3.13-14.11.84-30.1 1.8-46.51 0-.55-.06-.95-.55-.89-1.1s.54-.95 1.1-.89c16.24 1.77 32.14.82 46.17-.02 18.59-1.11 34.64-2.07 46.35 3.31.5.23.72.82.49 1.33-.17.37-.53.58-.91.58z"/>
    <path
        d="m323.9 263.18c-.14 0-.28-.03-.41-.09-10.61-4.79-26.08-3.6-43.99-2.22-14.75 1.14-31.47 2.43-48.22.44-.55-.07-.94-.56-.88-1.11.07-.55.56-.94 1.11-.88 16.56 1.96 33.17.68 47.83-.45 18.18-1.4 33.88-2.61 44.96 2.39.5.23.73.82.5 1.32-.17.37-.53.59-.91.59z"/>
    <path
        d="m265.25 280.47c-.52 0-.96-.4-1-.93-.04-.55.37-1.03.92-1.07 5.06-.37 10.02-.84 14.82-1.29 2.84-.27 5.61-.53 8.32-.76.56-.06 1.03.36 1.08.91s-.36 1.04-.91 1.08c-2.7.23-5.48.5-8.31.76-4.81.46-9.78.92-14.87 1.29-.02 0-.05 0-.07 0z"/>
    <path
        d="m248.18 281.16c-6.44 0-12.25-.35-17.79-1.06-.55-.07-.94-.57-.87-1.12s.58-.92 1.12-.87c8.4 1.08 17.43 1.32 28.41.75.53-.04 1.02.39 1.05.95.03.55-.4 1.02-.95 1.05-3.88.2-7.53.3-10.98.3z"/>
    <path
        d="m322.72 298.04c-.13 0-.27-.03-.4-.08-9.47-4.11-25.11-2.36-40.23-.67-.55.07-1.04-.33-1.11-.88-.06-.55.33-1.04.88-1.11 16.09-1.8 31.29-3.5 41.25.82.51.22.74.81.52 1.32-.16.38-.53.6-.92.6z"/>
    <path
        d="m250.09 299.92c-.54 0-.99-.43-1-.98s.43-1.01.98-1.02c7.97-.17 15.8-.9 21.73-1.52.55-.05 1.04.34 1.1.89s-.34 1.04-.89 1.1c-5.97.62-13.85 1.35-21.89 1.53h-.02z"/>
    <path
        d="m241.61 299.88s-.02 0-.04 0c-4.22-.14-8.28-.48-12.06-1-.55-.08-.93-.58-.85-1.13s.57-.93 1.13-.85c3.72.51 7.71.85 11.86.99.55.02.98.48.96 1.03-.02.54-.46.97-1 .97z"/>
    <path
        d="m278.61 316c-.5 0-.93-.37-.99-.87-.07-.55.32-1.05.86-1.12l2.45-.32c17.23-2.23 32.1-4.15 41.59-.14.51.22.75.8.53 1.31s-.8.74-1.31.53c-8.98-3.81-23.61-1.91-40.55.28l-2.45.32s-.09 0-.13 0z"/>
    <path
        d="m244.9 318.77c-5.47 0-10.96-.31-16.29-1.11-.55-.08-.92-.59-.84-1.14s.59-.91 1.14-.84c14.07 2.09 29.32.78 42.39-.78.55-.07 1.05.33 1.11.88.07.55-.33 1.05-.88 1.11-8.28.99-17.43 1.88-26.64 1.88z"/>
    <path
        d="m255.98 337.04c-.52 0-.95-.4-1-.92-.04-.55.37-1.03.92-1.08 6.77-.55 13.53-1.45 18.67-2.18.54-.08 1.05.3 1.13.85s-.3 1.05-.85 1.13c-5.16.73-11.97 1.64-18.79 2.19-.03 0-.05 0-.08 0z"/>
    <path
        d="m243.37 337.59c-5.68 0-10.84-.38-15.64-1.15-.55-.09-.92-.6-.83-1.14s.6-.92 1.14-.83c6.2.99 13.03 1.32 20.86 1.01.54-.05 1.02.41 1.04.96s-.41 1.02-.96 1.04c-1.93.08-3.8.12-5.61.12z"/>
    <path
        d="m364.34 215.87c-.37 0-.73-.21-.9-.57-.24-.5-.02-1.09.47-1.33 12.1-5.75 27.21-5.86 45.72-5.41.55.01.99.47.98 1.02-.01.54-.46.98-1 .98h-.02c-18.24-.45-33.11-.34-44.81 5.22-.14.07-.28.1-.43.1z"/>
    <path
        d="m431.76 210.96c-5.31 0-10.36-.11-14.95-.22-.55-.01-.99-.47-.97-1.03.01-.55.45-.97 1.03-.97 7.58.19 16.44.37 25.61.05.57-.06 1.01.41 1.03.96s-.41 1.01-.96 1.03c-3.66.13-7.27.17-10.77.17z"/>
    <path
        d="m447.8 210.56c-.53 0-.97-.41-1-.95-.03-.55.39-1.02.94-1.05 2.74-.15 5.48-.35 8.14-.59.57-.05 1.04.36 1.09.91s-.36 1.04-.91 1.09c-2.68.24-5.44.45-8.21.6-.02 0-.04 0-.06 0z"/>
    <path
        d="m382.79 229.01c-.51 0-.95-.39-1-.91-.05-.55.36-1.04.91-1.08 4.16-.37 8.81-.5 14.64-.41.55 0 .99.46.98 1.02 0 .55-.46.98-1 .98h-.02c-5.75-.09-10.34.04-14.43.4-.03 0-.06 0-.09 0z"/>
    <path
        d="m435.07 229.74c-7.98 0-15.61-.33-22.73-.63-2.99-.13-5.92-.25-8.77-.35-.55-.02-.98-.48-.96-1.03s.5-1 1.03-.96c2.86.1 5.79.22 8.79.35 13.36.57 28.51 1.22 44.33-.37.56-.04 1.04.35 1.09.9s-.35 1.04-.9 1.09c-7.49.75-14.83 1.01-21.88 1.01z"/>
    <path
        d="m365.52 250.74c-.38 0-.74-.22-.91-.58-.23-.5-.01-1.1.49-1.33 9.34-4.29 21.49-4.46 33.22-4.01.55.02.98.49.96 1.04s-.47 1-1.04.96c-11.49-.44-23.35-.29-32.31 3.83-.14.06-.28.09-.42.09z"/>
    <path
        d="m437.67 248.54c-9.23 0-18.11-.53-26.35-1.02l-4.23-.25c-.55-.03-.97-.5-.94-1.06.03-.55.51-.96 1.06-.94l4.24.25c14.03.84 29.94 1.79 46.18.02.54-.06 1.04.34 1.1.89s-.34 1.04-.89 1.1c-6.83.75-13.59 1.02-20.17 1.02z"/>
    <path
        d="m366.11 268.17c-.38 0-.75-.22-.91-.59-.23-.5 0-1.1.5-1.32 4.38-1.98 9.82-3.12 16.63-3.48.59 0 1.02.4 1.05.95s-.39 1.02-.95 1.05c-6.56.35-11.76 1.43-15.91 3.3-.13.06-.27.09-.41.09z"/>
    <path
        d="m419.57 266.53s-.05 0-.07 0c-3.05-.21-6.05-.44-9-.67-6.99-.54-13.59-1.05-19.7-1.18-.55-.01-.99-.47-.98-1.02.01-.54.46-.98 1-.98h.02c6.16.14 12.79.65 19.81 1.19 2.93.23 5.93.46 8.98.67.55.04.97.52.93 1.07-.04.53-.48.93-1 .93z"/>
    <path
        d="m437.41 267.33h-.01c-2.97-.03-6.04-.13-9.37-.29-.55-.03-.98-.5-.95-1.05s.51-.98 1.05-.95c3.31.16 6.35.25 9.3.29.55 0 .99.46.99 1.01s-.45.99-1 .99z"/>
    <path
        d="m367.29 283.09c-.39 0-.75-.22-.92-.6-.22-.51.01-1.1.52-1.32 9.96-4.32 25.16-2.62 41.25-.82.55.06.94.56.88 1.11s-.55.95-1.11.88c-15.12-1.69-30.76-3.44-40.23.67-.13.06-.26.08-.4.08z"/>
    <path
        d="m439.92 284.97h-.02c-8.06-.17-15.93-.91-21.89-1.53-.55-.06-.95-.55-.89-1.1s.55-.93 1.1-.89c5.92.62 13.74 1.34 21.73 1.52.55.01.99.47.98 1.02-.01.54-.46.98-1 .98z"/>
    <path
        d="m448.4 284.93c-.54 0-.98-.43-1-.97-.02-.55.41-1.01.96-1.03 4.16-.14 8.15-.47 11.86-.99.56-.09 1.05.31 1.13.85.08.55-.31 1.05-.85 1.13-3.78.52-7.84.86-12.07 1-.01 0-.02 0-.04 0z"/>
    <path
        d="m411.4 301.05s-.08 0-.13 0l-2.46-.32c-16.93-2.19-31.56-4.08-40.54-.28-.5.21-1.09-.02-1.31-.53-.21-.51.02-1.09.53-1.31 9.48-4.02 24.35-2.09 41.58.14l2.45.32c.55.07.93.57.86 1.12-.07.5-.5.87-.99.87z"/>
    <path
        d="m487.94 344.37c-9.48 0-16.26-3.49-16.54-3.64-.49-.26-.8-.77-.8-1.33v-6.38c0-.34.12-.67.33-.93.39-.49 4.21-4.82 17.02-4.82.83 0 1.5.67 1.5 1.5s-.67 1.5-1.5 1.5c-9.37 0-13.25 2.5-14.34 3.4v4.79c1.98.86 7.42 2.92 14.34 2.92.83 0 1.5.67 1.5 1.5s-.67 1.5-1.5 1.5z"/>
    <path
        d="m487.94 344.37c-.83 0-1.5-.67-1.5-1.5s.67-1.5 1.5-1.5c6.92 0 12.36-2.06 14.34-2.92v-4.79c-1.07-.88-4.95-3.39-14.34-3.39-.83 0-1.5-.67-1.5-1.5s.67-1.5 1.5-1.5c12.81 0 16.62 4.33 17.02 4.82.21.27.33.59.33.93v6.38c0 .56-.31 1.07-.8 1.33-.28.15-7.06 3.64-16.54 3.64z"/>
    <path
        d="m487.94 405.85c-.19 0-.39-.04-.58-.12l-27.83-11.59c-.58-.24-.94-.81-.92-1.43l.71-22.94c0-.32.12-.63.32-.88l14.19-17.96v-10.21c0-.83.67-1.5 1.5-1.5s1.5.67 1.5 1.5v10.73c0 .34-.11.67-.32.93l-14.2 17.98-.66 21.41 26.87 11.19c.77.32 1.13 1.2.81 1.96-.24.58-.8.92-1.39.92z"/>
    <path
        d="m487.94 381.94c-.13 0-.26-.02-.38-.08l-6.44-2.68c-.51-.21-.75-.8-.54-1.31s.8-.75 1.31-.54l6.44 2.68c.51.21.75.8.54 1.31-.16.38-.53.62-.92.62z"/>
    <path
        d="m487.94 390.22c-.55 0-1-.45-1-1v-8.28c0-.4.24-.77.62-.92l6.44-2.68c.51-.21 1.1.03 1.31.54s-.03 1.1-.54 1.31l-5.83 2.43v7.61c0 .55-.45 1-1 1z"/>
    <path
        d="m487.94 405.85c-.29 0-.58-.08-.83-.25-.42-.28-.67-.75-.67-1.25v-6.31c0-.83.67-1.5 1.5-1.5s1.5.67 1.5 1.5v4.06l24.79-10.33-.66-21.41-14.2-17.98c-.21-.26-.32-.59-.32-.93v-10.73c0-.83.67-1.5 1.5-1.5s1.5.67 1.5 1.5v10.21l14.19 17.96c.2.25.31.56.32.88l.71 22.94c.02.62-.35 1.19-.92 1.43l-27.83 11.59c-.18.08-.38.12-.58.12z"/>
    <path
        d="m487.94 337.58c-5.06 0-8.46-1.07-8.6-1.11-.53-.17-.82-.73-.65-1.25.17-.53.73-.81 1.26-.65.03.01 3.26 1.02 7.99 1.02s7.96-1.01 7.99-1.02c.53-.16 1.09.12 1.26.65s-.12 1.09-.65 1.25c-.14.05-3.54 1.11-8.6 1.11z"/>
    <path
        d="m494.39 354.67c-.41 0-.79-.25-.94-.66-.19-.52.08-1.09.6-1.28l6.16-2.21c.51-.19 1.09.08 1.28.6s-.08 1.09-.6 1.28l-6.16 2.21c-.11.04-.22.06-.34.06z"/>
    <path
        d="m467.71 373.54c-.12 0-.25-.02-.37-.07l-6.89-2.72c-.51-.2-.77-.78-.56-1.3.2-.51.78-.76 1.3-.56l6.89 2.72c.51.2.77.78.56 1.3-.16.39-.53.63-.93.63z"/>
    <path
        d="m481.5 354.67c-.11 0-.23-.02-.34-.06l-6.16-2.21c-.52-.19-.79-.76-.6-1.28s.76-.79 1.28-.6l6.16 2.21c.52.19.79.76.6 1.28-.15.41-.53.66-.94.66z"/>
    <path
        d="m491.16 336.78c-.25 0-.51-.06-.74-.2-.72-.41-.97-1.33-.56-2.05l70.94-124.59c.35-.62 1.09-.91 1.78-.68.68.22 1.1.9 1.02 1.61l-2.52 20.65c-.03.22-.11.44-.23.63l-66.76 103.81c-.43.67-1.31.88-2 .5-.26.21-.59.32-.92.32zm68.54-118.85-51.9 91.15 50.32-78.26 1.57-12.89z"/>
    <path
        d="m505.47 323.81c-1.74 0-2.74-.18-2.83-.2-.81-.15-1.35-.94-1.2-1.75s.94-1.35 1.75-1.2c.09.02 4.8.81 12.12-1.54 6.08-1.95 8.06-4.84 10.36-8.2.48-.71.97-1.42 1.51-2.14.48-.65.94-1.34 1.42-2.07 2.53-3.84 5.68-8.61 16.47-12.48 8.33-2.99 9.39-8.32 10.51-13.97.39-1.97.79-4 1.54-5.83 2.82-6.96 11.64-12.93 22.03-19.47 7.15-4.5 10.12-25.9 10.49-42.86.14-6.31-15.93-30.68-19.65-31.78-2.9.66-9.13 8.78-11.83 15.46-1.84 4.54-6.28 7.7-10.57 10.75-2.45 1.74-4.77 3.39-6.44 5.18-2.59 2.77-4.1 9.07-5.57 15.16-1 4.16-2.03 8.46-3.45 11.81-.71 1.69-1.24 3.19-1.75 4.65-1.94 5.53-3.47 9.9-12.89 17.39-10.78 8.56-16.01 35.68-14.14 55.64.08.82-.53 1.56-1.35 1.63-.82.08-1.56-.53-1.63-1.35-1.94-20.65 3.35-48.8 15.26-58.27 8.74-6.94 10.07-10.75 11.92-16.03.52-1.5 1.07-3.05 1.82-4.82 1.32-3.12 2.33-7.3 3.3-11.34 1.62-6.77 3.16-13.16 6.29-16.51 1.88-2.01 4.43-3.82 6.89-5.58 3.94-2.8 8.02-5.7 9.53-9.43 2.64-6.53 9.5-16.53 14.23-17.31 1-.17 2.1.31 3.54 1.55 6.23 5.39 19.64 26.36 19.49 33.27-.2 9-1.63 38.88-11.89 45.34-9.57 6.02-18.37 11.94-20.85 18.05-.64 1.57-.99 3.38-1.37 5.29-1.12 5.63-2.5 12.64-12.44 16.21-9.85 3.53-12.57 7.67-14.98 11.31-.48.73-.98 1.48-1.51 2.2-.51.69-.98 1.38-1.44 2.05-2.39 3.49-4.85 7.1-11.92 9.36-4.68 1.5-8.4 1.83-10.75 1.83z"/>
    <path
        d="m524.99 287.77c-.4 0-.78-.25-.93-.64-.2-.52.06-1.09.58-1.29 11.61-4.43 20.53-1.9 20.9-1.79.53.16.83.71.68 1.24s-.71.83-1.24.68c-.09-.03-8.68-2.44-19.62 1.74-.12.04-.24.07-.36.07z"/>
    <path
        d="m540.72 262.57c-.41 0-.79-.25-.94-.65-.19-.52.07-1.09.59-1.28 9.82-3.64 16.19-3.29 16.46-3.28.55.03.97.51.94 1.06s-.49.97-1.06.94c-.06 0-6.25-.32-15.64 3.15-.11.04-.23.06-.35.06z"/>
    <path
        d="m537.05 268.44c-.46 0-.87-.31-.97-.77-.12-.54.21-1.08.75-1.2 10.37-2.4 18.28-.35 18.62-.26.53.14.85.69.71 1.22s-.69.86-1.22.71c-.08-.02-7.79-2.01-17.65.28-.08.02-.15.03-.23.03z"/>
    <path
        d="m559.06 233.18c-.3 0-.59-.13-.79-.39-.34-.44-.26-1.06.18-1.4 14.3-11.11 26.09-8.88 26.58-8.78.54.11.89.64.78 1.18s-.64.89-1.18.78c-.11-.02-11.43-2.11-24.96 8.4-.18.14-.4.21-.61.21z"/>
    <path
        d="m551.78 244.84c-.34 0-.68-.18-.86-.49-.28-.48-.12-1.09.36-1.37 14.78-8.68 27.59-5.51 28.13-5.37.53.14.85.68.72 1.22-.14.54-.68.85-1.22.72-.12-.03-12.57-3.09-26.61 5.16-.16.09-.33.14-.51.14z"/>
    <path
        d="m562.1 211.69c-.09 0-.18-.01-.26-.04-.53-.15-.85-.7-.7-1.23 4.27-15.6 8.18-21.65 8.35-21.9.3-.46.92-.59 1.38-.29s.59.92.29 1.38c-.04.06-3.92 6.1-8.09 21.33-.12.44-.52.74-.96.74z"/>
    <path
        d="m549.06 234.59h-.02c-.55-.01-.99-.47-.98-1.02.29-15.23 5.97-27.83 6.21-28.36.23-.5.82-.72 1.32-.49s.72.82.5 1.32c-.06.13-5.75 12.77-6.03 27.57-.01.55-.46.98-1 .98z"/>
    <path
        d="m542.19 246.65c-.49 0-.91-.36-.99-.85-2.45-16.33-1.52-24.36-1.48-24.69.07-.55.56-.94 1.11-.87s.94.56.87 1.11c0 .08-.93 8.14 1.47 24.15.08.55-.29 1.06-.84 1.14-.05 0-.1.01-.15.01z"/>
    <path
        d="m531.4 265.61h-.03c-.55-.01-.99-.47-.97-1.03.29-11.01 2.03-20.11 2.04-20.2.1-.54.62-.9 1.17-.79.54.1.9.63.79 1.17-.02.09-1.72 9.04-2.01 19.88-.01.54-.46.97-1 .97z"/>
    <path
        d="m517.16 290.62c-.45 0-.86-.31-.97-.76-2.38-9.74 1.46-22.19 1.62-22.72s.73-.82 1.25-.66c.53.16.82.73.66 1.25-.04.12-3.83 12.46-1.59 21.65.13.54-.2 1.08-.73 1.21-.08.02-.16.03-.24.03z"/>
    <path
        d="m512.81 298.27c-.35 0-.68-.18-.87-.5-3.76-6.53-3.33-16.61-3.31-17.04.03-.55.5-.97 1.04-.95.55.03.98.49.95 1.04 0 .1-.41 9.92 3.05 15.95.28.48.11 1.09-.37 1.37-.16.09-.33.13-.5.13z"/>
    <path
        d="m451.89 393.48h-61.05c-.83 0-1.5-.67-1.5-1.5s.67-1.5 1.5-1.5h61.05c.83 0 1.5.67 1.5 1.5s-.67 1.5-1.5 1.5z"/>
    <path
        d="m317.28 393.48h-206.22c-.83 0-1.5-.67-1.5-1.5s.67-1.5 1.5-1.5h206.22c.83 0 1.5.67 1.5 1.5s-.67 1.5-1.5 1.5z"/>
    <path
        d="m362.57 402.94h-87.86c-.83 0-1.5-.67-1.5-1.5s.67-1.5 1.5-1.5h87.86c.83 0 1.5.67 1.5 1.5s-.67 1.5-1.5 1.5z"/>
    <path d="m409.6 402.94h-19.96c-.83 0-1.5-.67-1.5-1.5s.67-1.5 1.5-1.5h19.96c.83 0 1.5.67 1.5 1.5s-.67 1.5-1.5 1.5z"/>
    <path d="m400.76 411.45h-48.8c-.83 0-1.5-.67-1.5-1.5s.67-1.5 1.5-1.5h48.8c.83 0 1.5.67 1.5 1.5s-.67 1.5-1.5 1.5z"/>
    <path
        d="m566.21 393.48h-25.69c-.83 0-1.5-.67-1.5-1.5s.67-1.5 1.5-1.5h25.69c.83 0 1.5.67 1.5 1.5s-.67 1.5-1.5 1.5z"/>
    <path
        d="m163.09 382.44h-26.25c-.83 0-1.5-.67-1.5-1.5s.67-1.5 1.5-1.5h26.25c.83 0 1.5.67 1.5 1.5s-.67 1.5-1.5 1.5z"/>
    <path
        d="m194.23 333.1h-93.57c-.48 0-.94-.23-1.22-.62-.14-.2-14.11-20.19 1.59-46.5.27-.45.76-.73 1.29-.73h96.01c.83 0 1.5.67 1.5 1.5s-.67 1.5-1.5 1.5h-95.16c-12.69 21.96-3.84 38.45-1.71 41.86h92.77c.83 0 1.5.67 1.5 1.5s-.67 1.5-1.5 1.5z"/>
    <path
        d="m201.99 247.19h-110.41c-.48 0-.94-.23-1.22-.62-.14-.2-14.11-20.19 1.58-46.5.27-.45.76-.73 1.29-.73h112.87c.83 0 1.5.67 1.5 1.5s-.67 1.5-1.5 1.5h-112.01c-12.69 21.96-3.84 38.45-1.71 41.86h109.61c.83 0 1.5.67 1.5 1.5s-.67 1.5-1.5 1.5z"/>
    <path
        d="m117.92 333.1c-.64 0-1.24-.42-1.43-1.06-.36-1.17-8.67-28.93.1-45.98.38-.74 1.29-1.03 2.02-.65.74.38 1.03 1.28.65 2.02-8.21 15.97.02 43.46.1 43.74.24.79-.21 1.63-1 1.87-.15.04-.29.07-.44.07z"/>
    <path
        d="m131.75 333.1c-.64 0-1.24-.42-1.43-1.06-.36-1.17-8.67-28.93.1-45.98.38-.74 1.29-1.03 2.02-.65.74.38 1.03 1.28.65 2.02-8.21 15.97.02 43.46.1 43.74.24.79-.21 1.63-1 1.87-.15.04-.29.07-.44.07z"/>
    <path
        d="m117.92 247.19c-.64 0-1.24-.42-1.43-1.06-.36-1.17-8.67-28.93.1-45.98.38-.74 1.29-1.03 2.02-.65.74.38 1.03 1.28.65 2.02-8.21 15.97.02 43.46.1 43.74.24.79-.21 1.63-1 1.87-.15.04-.29.07-.44.07z"/>
    <path
        d="m148.58 247.19c-.64 0-1.24-.42-1.43-1.06-.36-1.17-8.67-28.93.1-45.98.38-.74 1.29-1.03 2.02-.65.74.38 1.03 1.28.65 2.02-8.21 15.97.02 43.46.1 43.74.24.79-.21 1.63-1 1.87-.15.04-.29.07-.44.07z"/>
    <path
        d="m108.46 332.6c-.39 0-.77-.23-.92-.62-4.92-11.99-4.43-20.89-4.41-21.26.03-.55.52-.95 1.06-.94.55.03.97.51.94 1.06 0 .09-.47 8.85 4.26 20.38.21.51-.03 1.1-.54 1.3-.12.05-.25.08-.38.08z"/>
    <path
        d="m144.8 332.6c-.38 0-.74-.21-.91-.58-4.75-10.15-5.73-21.62-5.77-22.11-.04-.55.37-1.03.92-1.08.55-.03 1.03.37 1.08.92 0 .12.99 11.61 5.58 21.42.23.5.02 1.09-.48 1.33-.14.06-.28.09-.42.09z"/>
    <path
        d="m155.21 332.6c-.28 0-.56-.12-.76-.35-3.9-4.58-3.87-12.17-3.87-12.49 0-.55.45-.99 1-.99.55 0 1 .46.99 1.01 0 .07-.03 7.17 3.39 11.17.36.42.31 1.05-.11 1.41-.19.16-.42.24-.65.24z"/>
    <path
        d="m110.9 288.24c-.31 0-.63-.1-.9-.3-.66-.5-.8-1.44-.3-2.1.05-.06 4.66-6.29 3.97-11.43-.37-2.73-1.84-5.45-3.13-7.85-1.45-2.68-2.59-4.8-2.01-6.6.67-2.07 2.07-6.57 2.48-7.89l-1.26-5.92c-.09-.44.02-.9.3-1.26.29-.35.71-.56 1.17-.56h90.69c.83 0 1.5.67 1.5 1.5s-.67 1.5-1.5 1.5h-88.84l.96 4.49c.05.25.04.51-.03.76 0 0-1.82 5.84-2.61 8.3-.18.58 1.01 2.79 1.79 4.25 1.35 2.5 3.03 5.61 3.47 8.88.86 6.37-4.32 13.34-4.54 13.64-.29.39-.74.6-1.2.6z"/>
    <path d="m143.7 253.13h-31.14c-.55 0-1-.45-1-1s.45-1 1-1h31.14c.55 0 1 .45 1 1s-.45 1-1 1z"/>
    <path d="m201.34 253.13h-41.72c-.55 0-1-.45-1-1s.45-1 1-1h41.72c.55 0 1 .45 1 1s-.45 1-1 1z"/>
    <path d="m117.92 261.42h-7.96c-.55 0-1-.45-1-1s.45-1 1-1h7.96c.55 0 1 .45 1 1s-.45 1-1 1z"/>
    <path d="m157.1 261.42h-33.11c-.55 0-1-.45-1-1s.45-1 1-1h33.11c.55 0 1 .45 1 1s-.45 1-1 1z"/>
    <path d="m200.68 261.42h-31.12c-.55 0-1-.45-1-1s.45-1 1-1h31.12c.55 0 1 .45 1 1s-.45 1-1 1z"/>
    <path d="m199.91 269.92h-86.46c-.55 0-1-.45-1-1s.45-1 1-1h86.46c.55 0 1 .45 1 1s-.45 1-1 1z"/>
    <path d="m176.96 278.42h-61.89c-.55 0-1-.45-1-1s.45-1 1-1h61.89c.55 0 1 .45 1 1s-.45 1-1 1z"/>
    <path d="m199.05 278.42h-13.93c-.55 0-1-.45-1-1s.45-1 1-1h13.93c.55 0 1 .45 1 1s-.45 1-1 1z"/>
    <path
        d="m99.55 246.69c-.39 0-.75-.22-.92-.6-5.22-11.96-5.51-19.92-5.52-20.25-.02-.55.42-1.01.97-1.03h.03c.54 0 .98.43 1 .97 0 .08.3 7.94 5.35 19.51.22.51 0 1.1-.52 1.32-.13.06-.27.08-.4.08z"/>
    <path
        d="m104.52 231.14c-.47 0-.89-.33-.98-.81-.07-.37-1.75-9.18-.4-17.61.09-.55.6-.92 1.15-.83s.92.6.83 1.15c-1.29 8.08.37 16.83.39 16.92.11.54-.25 1.07-.79 1.17-.06.01-.13.02-.19.02z"/>
    <path
        d="m142.67 246.69c-.37 0-.73-.21-.9-.57-3.87-8.08-5.68-16.91-5.75-17.28-.11-.54.24-1.07.78-1.18.55-.1 1.07.24 1.18.78.02.09 1.83 8.96 5.6 16.81.24.5.03 1.1-.47 1.33-.14.07-.29.1-.43.1z"/>
    <path
        d="m161.59 246.69c-.39 0-.77-.23-.92-.62-3.35-8.16-2.78-32.19-2.76-33.21.01-.55.48-1 1.03-.97.55.01.99.47.97 1.03 0 .25-.59 24.63 2.61 32.4.21.51-.03 1.09-.54 1.3-.12.05-.25.08-.38.08z"/>
    <path
        d="m170.81 246.2c-.45 0-.86-.31-.97-.77-.8-3.36-1.27-12.79-1.29-13.19-.03-.55.4-1.02.95-1.05.54-.05 1.02.4 1.05.95 0 .1.48 9.64 1.23 12.82.13.54-.2 1.08-.74 1.2-.08.02-.16.03-.23.03z"/>
    <path
        d="m282.42 188.68c-.73 0-1.36-.53-1.48-1.27-.76-4.82-.18-8.77.44-12.96.59-4.02 1.2-8.18.67-13.54-.95-9.59-8.09-21.12-25.08-22.05-13.99-.75-17.88 15.57-18.63 19.61l5.58 4.18c.45.34.67.9.58 1.45s-.49 1.01-1.02 1.18l-3.74 1.2c.79 5.54 4.31 11.09 9.04 14.09 2.45 1.55 6.25 3.06 10.46 1.43 5.06-1.96 8.75-5.4 10.11-9.42 1.12-3.3.67-6.91-1.3-10.48l-13.78 5.21c-.38.14-.81.13-1.18-.05s-.65-.5-.78-.89c-1.82-5.55 1.17-9.84 4.71-11.48 3.93-1.82 9.52-1.02 13.12 4.87 2.82 4.6 3.52 9.37 2.03 13.78-1.64 4.87-5.97 8.97-11.87 11.26-4.19 1.63-8.86 1.03-13.15-1.69-5.83-3.69-10.07-10.75-10.55-17.57-.05-.69.38-1.32 1.04-1.53l2.14-.69-3.99-2.99c-.44-.33-.66-.87-.58-1.41.03-.24 3.56-24.04 21.91-23.05 18.88 1.04 26.83 13.98 27.9 24.75.57 5.72-.1 10.26-.69 14.27-.58 3.96-1.13 7.7-.45 12.06.13.82-.43 1.59-1.25 1.71-.08.01-.16.02-.24.02zm-21.44-31.66c-.98 0-1.9.22-2.68.58-2.12.98-3.83 3.23-3.47 6.28l11.46-4.33c-1.69-1.84-3.59-2.53-5.31-2.53z"/>
    <path
        d="m418.11 194.7c-.25 0-.49-.06-.72-.19-3.61-1.99-5.21-10.72-7.73-25.98-2.1-12.71-4.48-27.12-8.73-32.45-8.49-10.65-22.64-14.42-32.91-8.77-11.57 6.38-45.21 4.19-63.29 3.02-19.38-1.26-43.41 5.91-52.84 9.06-.78.26-1.64-.16-1.9-.95s.16-1.64.95-1.9c9.6-3.2 34.08-10.49 53.98-9.2 16.5 1.07 50.84 3.3 61.65-2.65 11.53-6.36 27.31-2.26 36.71 9.52 4.74 5.94 7.08 20.12 9.34 33.83 1.65 10 3.71 22.46 6.22 23.84.73.4.99 1.31.59 2.04-.27.5-.79.78-1.32.78z"/>
    <path
        d="m288.41 141.98c-.5 0-.94-.38-.99-.89-.06-.55.33-1.04.88-1.11 13.94-1.56 24.45-1.74 24.55-1.74h.01c.55 0 .99.44 1 .98 0 .55-.43 1.01-.98 1.02-.1 0-10.52.17-24.36 1.73-.04 0-.08 0-.11 0z"/>
    <path
        d="m304.83 148.61s-.04 0-.06 0c-.06 0-5.72-.31-13.3 0-.57.02-1.02-.41-1.04-.96s.41-1.02.96-1.04c7.68-.31 13.44 0 13.5 0 .55.03.97.5.94 1.05-.03.53-.47.94-1 .94z"/>
    <path
        d="m293.95 155.7c-.42 0-.81-.26-.95-.68-.17-.52.11-1.09.63-1.26 3.52-1.17 9.35-.08 9.6-.03.54.1.9.63.79 1.17-.1.54-.63.89-1.17.79-.06-.01-5.57-1.04-8.59-.03-.11.04-.21.05-.32.05z"/>
    <path
        d="m256.79 158.22c-.42 0-.84-.18-1.13-.52-.54-.63-.47-1.57.15-2.12 3.61-3.12 21.55-7.12 23.58-7.56.82-.18 1.61.33 1.79 1.14s-.33 1.61-1.14 1.79c-7.4 1.62-19.98 4.93-22.26 6.9-.28.25-.63.37-.98.37z"/>
    <path
        d="m259.78 186c-.77 0-1.42-.58-1.49-1.36-.08-.83.53-1.56 1.35-1.63 9.84-.91 22.01-6.01 22.14-6.06.76-.32 1.64.04 1.96.8s-.04 1.64-.8 1.96c-.51.22-12.72 5.33-23.03 6.29-.05 0-.09 0-.14 0z"/>
    <path
        d="m276.83 157.72c-.39 0-.76-.23-.92-.61-.21-.51.03-1.1.54-1.31l4.82-2.02c.51-.21 1.09.03 1.31.54.21.51-.03 1.1-.54 1.31l-4.82 2.02c-.13.05-.26.08-.39.08z"/>
    <path
        d="m276.83 173.52c-.45 0-.86-.3-.97-.76-.13-.54.19-1.08.73-1.21l6.92-1.73c.54-.13 1.08.19 1.21.73s-.19 1.08-.73 1.21l-6.92 1.73c-.08.02-.16.03-.24.03z"/>
    <path d="m266.51 144.98h-15.1c-.55 0-1-.45-1-1s.45-1 1-1h15.1c.55 0 1 .45 1 1s-.45 1-1 1z"/>
    <path
        d="m255.79 149.39s-.08 0-.12 0l-6.46-.79c-.55-.07-.94-.57-.87-1.11.07-.55.56-.95 1.11-.87l6.46.79c.55.07.94.57.87 1.11-.06.51-.49.88-.99.88z"/>
    <path d="m397.32 144.98h-7.27c-.55 0-1-.45-1-1s.45-1 1-1h7.27c.55 0 1 .45 1 1s-.45 1-1 1z"/>
    <path d="m408.03 184.39h-12.56c-.55 0-1-.45-1-1s.45-1 1-1h12.56c.55 0 1 .45 1 1s-.45 1-1 1z"/>
</svg>
