<svg fill="none" height="40" viewBox="0 0 40 40" width="40" xmlns="http://www.w3.org/2000/svg" xmlns:xlink="http://www.w3.org/1999/xlink"><clipPath id="a"><path d="m0 0h40v40h-40z"/></clipPath><mask id="b" height="40" maskUnits="userSpaceOnUse" width="40" x="0" y="0"><path d="m40 0h-40v40h40z" fill="#fff"/></mask><g clip-path="url(#a)"><g mask="url(#b)" stroke="#53360b" stroke-linecap="round" stroke-linejoin="round" stroke-width="2"><path d="m38.3601 29.7309-14.27-24.71996c-1.82-3.15-6.36-3.15-8.18 0l-14.27003 24.71996c-1.820002 3.15.45 7.08 4.09 7.08h28.54003c3.63 0 5.91-3.93 4.09-7.08z"/><path d="m20 32c1.6569 0 3-1.3431 3-3s-1.3431-3-3-3-3 1.3431-3 3 1.3431 3 3 3z"/><path d="m21.21 22.16.35-1.38c.3-1.18.44-2.4.44-3.61v-7.26c0-1.05-.85-1.91-1.91-1.91h-.18c-1.05 0-1.91.85-1.91 1.91v7.26c0 1.22.15 2.43.44 3.61l.35 1.38c.31 1.26 2.1 1.26 2.42 0z"/></g></g></svg>