<svg fill="none" height="212" viewBox="0 0 302 212" width="302" xmlns="http://www.w3.org/2000/svg">

    <style>
        :root { fill:#222 }
        .accent { fill: #f9322c; }

        @media (prefers-color-scheme: dark) {
        :root {  fill: #f9322c; }
        .accent { fill:#dee2e6; }
        }
    </style>


    <path
        d="m274.963 48.2238c6.951 0 12.586-5.6397 12.586-12.5967 0-6.9571-5.635-12.5968-12.586-12.5968s-12.586 5.6397-12.586 12.5968c0 6.957 5.635 12.5967 12.586 12.5967z"
        class="accent"/>
    <path
        d="m129.576 101.5h-61.1821c-3.7881 0-6.859 3.073-6.859 6.865v63.756c0 3.791 3.0709 6.865 6.859 6.865h61.1821c3.788 0 6.859-3.074 6.859-6.865v-63.756c0-3.792-3.071-6.865-6.859-6.865z"
        class="accent"/>
    <path
        d="m235.41 101.5h-80.57c-3.788 0-6.859 3.073-6.859 6.865v21.012c0 3.791 3.071 6.864 6.859 6.864h80.57c3.788 0 6.859-3.073 6.859-6.864v-21.012c0-3.792-3.071-6.865-6.859-6.865z"
        class="accent"/>
    <path
        d="m2.00491 7.19012-.25149 197.02388 2.26346 6.052h10.75142s-5.20138-1.642-6.50458-4.925c-1.3032-3.284 0-192.1843 0-192.1843h288.61428s1.932-12.911402-7.528-12.911402h-279.7888s-7.55629-.966779-7.55629 6.944822z"
        class="accent"/>
    <g>
        <path
            d="m293.877 211.124h-280.0633c-4.25251 0-7.71629-3.467-7.71629-7.723v-193.68257c0-4.25614 3.46378-7.72282 7.71629-7.72282h280.0633c4.252 0 7.716 3.46668 7.716 7.72282v193.68257c0 4.256-3.464 7.723-7.716 7.723zm-280.0633-207.41221c-3.3094 0-6.00155 2.69441-6.00155 6.00664v193.68257c0 3.312 2.69215 6.007 6.00155 6.007h280.0633c3.309 0 6.001-2.695 6.001-6.007v-193.68257c0-3.31223-2.692-6.00664-6.001-6.00664z"/>
        <path
            d="m95.9213 211.124h-88.12061c-3.80673 0-6.904694-3.1-6.904694-6.91v-195.31327c0-3.80992 3.097964-6.9105 6.904694-6.9105h88.12061c.4744 0 .8573.38329.8573.8581s-.3829.85809-.8573.85809h-88.12061c-2.85791 0-5.18995 2.32829-5.18995 5.19431v195.30727c0 2.866 2.32633 5.194 5.18995 5.194h88.12061c.4744 0 .8573.384.8573.858 0 .475-.3829.859-.8573.859z"/>
        <path
            d="m6.95478 17.3268c-.47441 0-.85737-.3832-.85737-.858 0-.4749.38296-.8581.85737-.8581l293.78122-.7723c.474 0 .857.3833.857.8581s-.383.8581-.857.8581z"/>
        <path
            d="m19.3524 14.0147c-2.3893 0-4.3326-1.945-4.3326-4.33619 0-2.39122 1.9433-4.33622 4.3326-4.33622 2.3892 0 4.3325 1.945 4.3325 4.33622 0 2.39119-1.9433 4.33619-4.3325 4.33619zm0-6.95051c-1.4404 0-2.6179 1.17272-2.6179 2.62004 0 1.44727 1.1718 2.62007 2.6179 2.62007s2.6178-1.1728 2.6178-2.62007c0-1.44732-1.1717-2.62004-2.6178-2.62004z"/>
        <path
            d="m30.9669 14.0147c-2.3892 0-4.3326-1.945-4.3326-4.33619 0-2.39122 1.9434-4.33622 4.3326-4.33622s4.3325 1.945 4.3325 4.33622c0 2.39119-1.9433 4.33619-4.3325 4.33619zm0-6.95051c-1.4404 0-2.6179 1.17272-2.6179 2.62004 0 1.44727 1.1718 2.62007 2.6179 2.62007s2.6178-1.1728 2.6178-2.62007c0-1.44732-1.1717-2.62004-2.6178-2.62004z"/>
        <path
            d="m42.5814 14.0147c-2.3892 0-4.3326-1.945-4.3326-4.33619 0-2.39122 1.9434-4.33622 4.3326-4.33622s4.3325 1.945 4.3325 4.33622c0 2.39119-1.9433 4.33619-4.3325 4.33619zm0-6.95051c-1.4404 0-2.6179 1.17272-2.6179 2.62004 0 1.44727 1.1718 2.62007 2.6179 2.62007s2.6178-1.1728 2.6178-2.62007c0-1.44732-1.1717-2.62004-2.6178-2.62004z"/>
        <path
            d="m133.84 176.108h-61.182c-4.2526 0-7.7163-3.467-7.7163-7.723v-63.756c0-4.256 3.4637-7.7228 7.7163-7.7228h61.182c4.253 0 7.716 3.4668 7.716 7.7228v63.756c0 4.256-3.463 7.723-7.716 7.723zm-61.182-77.4856c-3.3095 0-6.0016 2.6946-6.0016 6.0066v63.756c0 3.313 2.6921 6.007 6.0016 6.007h61.182c3.309 0 6.002-2.694 6.002-6.007v-63.756c0-3.312-2.693-6.0066-6.002-6.0066z"/>
        <path
            d="m131.891 176.108h-65.8177c-2.9779 0-5.4014-2.425-5.4014-5.406v-68.39c0-2.9802 2.4235-5.4058 5.4014-5.4058h65.8177c.474 0 .857.3833.857.8581 0 .4749-.383.8581-.857.8581h-65.8177c-2.0291 0-3.6867 1.6536-3.6867 3.6896v68.39c0 2.031 1.6519 3.69 3.6867 3.69h65.8177c.474 0 .857.383.857.858s-.383.858-.857.858z"/>
        <path
            d="m239.297 132.323h-79.507c-4.253 0-7.717-3.467-7.717-7.723v-19.971c0-4.256 3.464-7.7228 7.717-7.7228h79.507c4.252 0 7.716 3.4668 7.716 7.7228v19.971c0 4.256-3.464 7.723-7.716 7.723zm-79.507-33.7006c-3.31 0-6.002 2.6946-6.002 6.0066v19.971c0 3.312 2.692 6.006 6.002 6.006h79.507c3.309 0 6.001-2.694 6.001-6.006v-19.971c0-3.312-2.692-6.0066-6.001-6.0066z"/>
        <path
            d="m237.348 132.323h-84.143c-2.978 0-5.401-2.426-5.401-5.406v-24.605c0-2.9802 2.423-5.4058 5.401-5.4058h84.143c.474 0 .857.3833.857.8581 0 .4749-.383.8581-.857.8581h-84.143c-2.029 0-3.687 1.6536-3.687 3.6896v24.605c0 2.03 1.652 3.689 3.687 3.689h84.143c.474 0 .857.384.857.858 0 .475-.383.859-.857.859z"/>
        <path
            d="m239.297 176.108h-79.507c-4.253 0-7.717-3.466-7.717-7.723v-19.97c0-4.256 3.464-7.723 7.717-7.723h79.507c4.252 0 7.716 3.467 7.716 7.723v19.97c0 4.257-3.464 7.723-7.716 7.723zm-79.507-33.7c-3.31 0-6.002 2.694-6.002 6.007v19.97c0 3.313 2.692 6.007 6.002 6.007h79.507c3.309 0 6.001-2.694 6.001-6.007v-19.97c0-3.313-2.692-6.007-6.001-6.007z"/>
        <path
            d="m237.348 176.108h-84.143c-2.978 0-5.401-2.425-5.401-5.406v-24.604c0-2.981 2.423-5.406 5.401-5.406h84.143c.474 0 .857.383.857.858s-.383.858-.857.858h-84.143c-2.029 0-3.687 1.653-3.687 3.69v24.604c0 2.031 1.652 3.69 3.687 3.69h84.143c.474 0 .857.383.857.858s-.383.858-.857.858z"/>
        <path
            d="m239.296 78.3432h-166.6383c-4.2525 0-7.7163-3.4667-7.7163-7.7228v-8.2892c0-4.2561 3.4638-7.7228 7.7163-7.7228h166.6333c4.252 0 7.716 3.4667 7.716 7.7228v8.2892c0 4.2561-3.464 7.7228-7.716 7.7228zm-166.6325-22.0186c-3.3095 0-6.0016 2.6944-6.0016 6.0066v8.2892c0 3.3122 2.6921 6.0066 6.0016 6.0066h166.6325c3.31 0 6.002-2.6944 6.002-6.0066v-8.2892c0-3.3122-2.692-6.0066-6.002-6.0066h-166.6383z"/>
        <path
            d="m237.347 78.3432h-171.2681c-2.9779 0-5.4014-2.4255-5.4014-5.406v-12.9228c0-2.9805 2.4235-5.406 5.4014-5.406h171.2681c.475 0 .858.3833.858.8581s-.383.8581-.858.8581h-171.2681c-2.0291 0-3.6867 1.6532-3.6867 3.6898v12.9228c0 2.0309 1.6519 3.6898 3.6867 3.6898h171.2681c.475 0 .858.3833.858.8581s-.383.8581-.858.8581z"/>
        <path
            d="m277.489 47.2344c-7.413 0-13.443-6.0352-13.443-13.4548s6.03-13.4549 13.443-13.4549c7.414 0 13.444 6.0353 13.444 13.4549s-6.03 13.4548-13.444 13.4548zm0-25.1935c-6.47 0-11.728 5.2687-11.728 11.7387s5.264 11.7387 11.728 11.7387c6.465 0 11.729-5.2687 11.729-11.7387s-5.264-11.7387-11.729-11.7387z"/>
        <path
            d="m277.49 47.2344h-4.407c-7.414 0-13.444-6.0352-13.444-13.4548s6.03-13.4549 13.444-13.4549h4.407c.474 0 .857.3833.857.8581s-.383.8581-.857.8581h-4.407c-6.471 0-11.729 5.2687-11.729 11.7387s5.264 11.7387 11.729 11.7387h4.407c.474 0 .857.3832.857.8581 0 .4748-.383.858-.857.858z"/>
    </g>
</svg>
