<?xml version="1.0" encoding="UTF-8"?>
<svg id="Layer_1" data-name="Layer 1" xmlns="http://www.w3.org/2000/svg" viewBox="0 0 677.07 533.16">
  <defs>
    <style>
    :root { fill:#222 }
    .accent { fill: #f9322c; }

    @media (prefers-color-scheme: dark) {
        :root {  fill: #f9322c; }
        .accent { fill:#dee2e6; }
    }
    </style>
  </defs>
  <path class="accent" d="m515.76,177.81c2.99,2.8,11.21.98,15.21-2.57s10.23-3.55,12.39-6.42,6.58-15.56,5.04-19.44-7.3-10.05-9.2-9.85-2.94,2.59-2.73,6.3c.21,3.72-2.56,13.84-3.75,15.33s-2.21,6.72-6.32,6.96c-4.11.24-12.95-3.98-13.77-3.36s-2.39,5.24-1.68,5.91,3.17,5.6,4.82,7.14Z"/>
  <path class="accent" d="m615.11,246.71c2.47-2.58,13.22-4.2,16.5-1.85,3.28,2.35,5.28,8.94,6.13,11.37s.39,6.28-.96,8.36c-1.35,2.08-1.26,4.36-1.26,4.36,0,0,5.85.96,7.7-.93s4.2-7.17,4.47-7.94,1.43-5.32-.12-9.29c-1.54-3.97-3.93-7.9-5.9-10.98s-11.41-5.43-15.07-5.43-6.78,1-6.98,2.27-4.51,10.06-4.51,10.06Z"/>
  <path class="accent" d="m596.03,136.74c3.78,5.7,8.02,8.02,8.71,11.72s-.69,5.7,1.08,7.94,8.17,7.32,9.87,4.24c5.16,1.46,8.25-4.01,8.25-4.01,3.62-1,4.86-8.86,4.86-8.86,4.09-1.85,1.62-11.72-3.62-11.95,2.85-5.4-9.48-24.05-18.5-22.66-7.09-6.63-23.77-.08-24.22.85-4.92-2.47-10.32,5.47-9.01,8.17-5.86,1.54-6.09,9.84-6.09,9.84-2.85,3.73-1.23,10.59,2.54,11.51s3.62-.62,5.47-5.55c1.85-4.93,7.08-5.94,12.41-5.16,3.31-4.09,4.32,8.63,7.01,12.8,1.23-4.55,1.23-6.86,1.23-6.86"/>
  <path class="accent" d="m93.02,295.48c8.11.09,44.24-13.2,55.21-15s16.54,4.86,21.94,11.15-3.06,13.31-3.06,13.31c0,0-3.06-2.34-14.57-1.98-11.51.36-23.38,11.87-32.91,16.72-9.53,4.86-28.36,3.78-28.36,3.78,0,0-.6,2.33.48,5.23s17.26,9.92,17.26,9.92c0,0-14.75,7.15-21.4,6.93s-28.95-28.37-28.95-29.97,3.96-5.91,5.75-9.73c-3.6,2.38,12.23-10.53,28.59-10.35Z"/>
  <path class="accent" d="m393.16,348.72c-8.09-8.26-18.7-15.36-28.23-14.1-9.53,1.26-18.43,8.58-18.43,8.58l-10.97,1.33s-5.13-5.14-22.57-6.67c-.45,3.06-1.89,2.79-1.08,6.38.81,3.6-9.53,19.69-11.33,22.12-1.8,2.43,0,15.29,0,15.29,0,0-.9,7.37-4.95,8.63-4.05,1.26-18.25,3.95-18.25,3.95,0,0,11.62,12.94,14.89,12.18,3.27-.76,12.35-6.91,12.35-6.91l8.36-6.08,3.78-3.6,9.98-2.33,2.88-2.25s4.41-1.44,10.43,4.41c6.02,5.84,8.65,13.25,8.65,13.25,0,0,10.87,6.71,16.71,5.19s26.62-8.09,28.5-16.72c1.89-8.63,7.37-34.38-.72-42.63Zm-16.81,33.51c-7.28,3.55-31.11-7.42-31.11-7.42,4.5-10.7,14.93-18.97,22.93-15.38s15.47,19.25,8.18,22.8Z"/>
  <path class="cls-1" d="m313.07,102.8c-.51,0-1.01-.26-1.29-.73-3.79-6.37-12.23-9.71-18.91-10.19-5.18-.38-9.45.87-11.45,3.33-.52.64-1.47.74-2.11.22-.64-.52-.74-1.47-.22-2.11,2.66-3.27,7.75-4.88,14-4.43,7.46.54,16.93,4.35,21.27,11.65.42.71.19,1.63-.52,2.06-.24.14-.5.21-.77.21Z"/>
  <path class="cls-1" d="m319.49,112.7c-.54,0-1.06-.29-1.33-.81-.02-.03-1.88-3.54-4.44-5-.72-.41-.97-1.33-.56-2.05.41-.72,1.33-.97,2.05-.56,3.34,1.91,5.53,6.04,5.62,6.22.38.73.1,1.64-.64,2.02-.22.12-.46.17-.69.17Z"/>
  <path class="cls-1" d="m222.56,145.78c-.28,0-.56-.08-.8-.23-3.01-1.9-3.98-6.53-4.91-11.01-.49-2.35-.95-4.57-1.65-6.13-2.11-4.71-3.46-9.07-3.51-9.25-.24-.79.2-1.63.99-1.87.79-.24,1.63.2,1.87.99.01.04,1.35,4.37,3.38,8.9.83,1.86,1.33,4.23,1.85,6.75.45,2.14.93,4.45,1.63,6.25-.06-2.68-.47-6.13-.86-9.51-.73-6.25-1.49-12.72-.6-16.9.17-.81.97-1.33,1.78-1.16.81.17,1.33.97,1.16,1.78-.78,3.7-.02,10.2.65,15.94.72,6.14,1.34,11.45.46,14.39-.13.45-.47.81-.91.98-.17.06-.35.1-.53.1Z"/>
  <path class="cls-1" d="m587.87,205.25s-.07,0-.1,0c-.83-.06-1.45-.77-1.4-1.6l.84-12.58c-3.02-1.27-12.01-5.21-17.48-9.36-.66-.5-.79-1.44-.29-2.1s1.44-.79,2.1-.29c6.18,4.7,17.67,9.34,17.79,9.38.6.24.98.84.94,1.49l-.91,13.66c-.05.79-.71,1.4-1.5,1.4Z"/>
  <path class="cls-1" d="m595.42,192.59c-.82,0-1.49-.66-1.5-1.48-.01-.83.65-1.51,1.48-1.52,4.95-.07,11.71-2.86,15.66-8.95.45-.7,1.38-.89,2.08-.44.69.45.89,1.38.44,2.07-4.55,7.02-12.38,10.24-18.13,10.32h-.02Z"/>
  <path class="cls-1" d="m642.95,249.15c-.19,0-.38-.04-.57-.11-.77-.31-1.14-1.19-.82-1.95.01-.03,1.08-2.67,1.52-5.14.15-.81.94-1.36,1.74-1.21.82.15,1.36.93,1.21,1.74-.5,2.79-1.65,5.62-1.69,5.74-.24.58-.8.93-1.39.93Z"/>
  <path class="accent" d="m241.15,53.25l-6.83,5.05s10.53,16.55,24.02,29.27c13.49,12.71,18.37,13.12,18.37,13.12,0,0-3.63-10.44-3.63-12.35s-12.14-11.56-12.5-12.08.84.98-.36-.52-19.06-22.48-19.06-22.48Z"/>
  <path class="accent" d="m285.08,100.76c.78,3.84-2.65,7.25-2.65,7.25,0,0,24.47,23.08,27.47,24.82s6.77-5.75,6.77-5.75l-31.59-26.32Z"/>
  <path class="accent" d="m316.67,127.08l-30.75-29.42c.78,3.84-3.49,10.35-3.49,10.35"/>
  <path class="accent" d="m182.31,118l-10.77,6.92s1.87,14.3,6.36,21.58c4.5,7.28,15.92,23.18,16.72,25.57.8,2.39,3.72,15.94,1.14,21.62-2.58,5.68-7.88,14.37-7.88,14.37l4.89,6.06s16.51-15.83,15.08-26.35c-1.44-10.52-14.48-33.21-18.61-43.49-4.14-10.28-6.92-26.29-6.92-26.29Z"/>
  <path class="accent" d="m233.92,192.72l13.49-3.7,8.9,17.9-9.98,7.19s-10.7-11.42-12.41-21.4Z"/>
  <path class="accent" d="m251.09,255.93c-4.7-4.44-10.34,7.1-9.17,9.35s26.65,42.38,28.34,46.28,6.13,5.97,7.33,4.62,4.26-5.51,3.36-8.11-28.23-50.61-29.85-52.14Z"/>
  <path class="accent" d="m229.75,231.49c-.07.07-.14.14-.22.22-3.1,3.23-9.18,11.8-8.66,15.31s3.06,30.98,3.06,30.98c0,0,5.51-1.66,5.81-2.02s-.07-44.42-.07-44.42"/>
  <polygon class="accent" points="466.3 284.29 466.6 288.8 527.58 288.8 527.58 282.98 466.3 284.29"/>
  <path class="accent" d="m452.37,362.54s-14.08,1.64-20.35,5.14-2.67,72.87-2.67,72.87c0,0,11.31,7.19,58.28,8.53,46.97,1.34,86.16.62,88.05-3.08,1.89-3.7,3.12-70.92.96-77.5s-30.42-5.45-30.42-5.45l-4.73,2.98-89.11-3.49Z"/>
  <path class="accent" d="m568.54,63.1l-.64,7.76,9,2.6,1.48-8.63.46-24.85-6.71-1.82-4.24,8.29-.5,6.75c3.85-.77,5.72,2.08,5.72,2.08l-1.48,5.2-3.1,2.63Z"/>
  <path class="accent" d="m571.42,178.34c6.96,6.92,17.37,10.33,17.37,10.33l-.91,15.82,6.52.46,2.42-15.16s7.61.72,11.1-3.91,4.83-7.91,4.83-7.91l-.93-2.72s-2.67,6.58-8.37,9.69-12.18,1.73-15.93.62-11.87-4.86-13.82-7.21-2.26,0-2.26,0Z"/>
  <path class="cls-1" d="m272.63,170.54c-.77,0-1.47-.11-2.08-.29-1.69-.5-2.88-1.63-3.2-3.01-.41-1.77-4.82-7.1-6.29-8.08-1.11-.74-1.49-2.28-1.15-4.58.25-1.64,1.39-6.04,3.71-6.73.79-.24,1.63.21,1.87,1.01.23.77-.18,1.57-.92,1.84-.95.71-2.13,4.95-1.71,6.07,2,1.44,6.79,7.07,7.42,9.81.06.24.44.6,1.14.81,1.46.43,4.05.1,6.52-2.27,2.65-2.54,2.66-7,2.67-10.58,0-1.81,0-3.37.34-4.56.97-3.5,7.75-9.47,9.1-10.63.18-.15.39-.26.61-.32,2.7-.68,4.51-.71,5.83-.73,1.55-.02,2.19-.03,3.32-.92.47-.37,1.04-.74,1.71-1.17,3.49-2.27,9.32-6.07,13.27-17.61,3.59-10.5,3.27-13.32,3.15-13.81-.36-.45-.44-1.09-.16-1.64.38-.73,1.29-1.02,2.03-.63,1.33.7,2.54,3.22-2.18,17.05-4.28,12.52-10.91,16.84-14.47,19.16-.6.39-1.12.73-1.49,1.02-1.93,1.51-3.41,1.53-5.13,1.56-1.18.02-2.63.04-4.8.55-2.88,2.51-7.35,6.95-7.9,8.92-.22.8-.23,2.24-.23,3.77,0,3.93-.02,9.31-3.59,12.74-2.52,2.42-5.2,3.27-7.38,3.27Zm-8.15-19.82h0,0Zm53.93-45.55h0s0,0,0,0Zm0,0h0Z"/>
  <path class="cls-1" d="m252.83,181.03c-.26,0-.52-.02-.75-.06-2.34-.43-3.68-2.64-5.53-5.7-.31-.51-.64-1.06-1-1.64-.44-.7-.22-1.63.49-2.06.7-.44,1.63-.22,2.06.49.36.59.7,1.14,1.01,1.67,1.44,2.39,2.49,4.12,3.49,4.3.48.08,1.54-.16,2.27-.96.8-.88.98-2.2.52-3.81-.15-.53,0-1.09.39-1.48.39-.39.96-.53,1.48-.37.63.19,2.94.32,4.45-.97,1.26-1.08,1.73-2.97,1.37-5.62-.11-.82.46-1.58,1.29-1.69.82-.11,1.58.47,1.69,1.29.62,4.64-.96,7.07-2.39,8.3-1.51,1.29-3.43,1.76-5.03,1.81.11,2.31-.85,3.79-1.54,4.55-1.26,1.39-2.93,1.96-4.28,1.96Z"/>
  <path class="cls-1" d="m237.27,190.52c-4.15,0-17.79-19.77-23.5-35.89-5.38-15.19-3.87-30.41-1.25-33.64.52-.64,1.47-.74,2.11-.22.64.52.74,1.47.22,2.11-1.59,1.95-3.49,15.96,1.75,30.74,5.77,16.28,17.99,32.51,20.72,33.87,4.98-.54,9.42-4.27,9.58-8.06.03-.83.74-1.45,1.56-1.44.83.03,1.47.73,1.44,1.56-.21,5.33-5.94,10.35-12.51,10.94-.04,0-.07,0-.11,0Zm.16-2.96h0Z"/>
  <path class="cls-1" d="m256.85,174.34c-.54,0-1.07-.3-1.33-.81-.03-.05-2.95-5.5-10.37-8.47-.77-.31-1.14-1.18-.84-1.95s1.18-1.14,1.95-.84c8.52,3.41,11.79,9.61,11.93,9.88.38.74.09,1.64-.65,2.02-.22.11-.45.17-.69.17Z"/>
  <path class="cls-1" d="m263.7,171.92c-.62,0-1.21-.39-1.42-1.02-.59-1.74-5.19-6.26-8.27-8.92-.63-.54-.7-1.49-.15-2.12.54-.63,1.49-.7,2.12-.15,1.34,1.16,8.08,7.09,9.15,10.22.27.78-.15,1.64-.93,1.9-.16.05-.32.08-.49.08Z"/>
  <path class="cls-1" d="m244.74,156.11c-.5,0-.99-.25-1.27-.71-.44-.7-.22-1.63.48-2.07.4-.25,9.88-6.15,15.93-7.5.81-.18,1.61.33,1.79,1.13.18.81-.33,1.61-1.14,1.79-5.55,1.25-14.91,7.06-15,7.12-.25.15-.52.23-.79.23Z"/>
  <path class="cls-1" d="m239.31,164.83c-.64,0-1.24-.42-1.45-1.05-.44-1.32.13-4.5,2.74-5.63.76-.33,1.64.02,1.97.78.33.76-.02,1.64-.78,1.97-.9.39-1.13,1.65-1.08,1.98.26.79-.17,1.61-.96,1.87-.15.05-.31.07-.46.07Z"/>
  <path class="cls-1" d="m278.97,140.71c-.19,0-.38-.04-.56-.11-.31-.12-7.59-3.13-10.16-10.57-.27-.78.14-1.64.93-1.91.78-.27,1.64.14,1.91.93,2.12,6.12,8.39,8.74,8.45,8.77.77.31,1.14,1.19.83,1.95-.24.58-.8.94-1.39.94Z"/>
  <path class="cls-1" d="m277.88,140.18c-.57,0-1.11-.33-1.36-.88-.35-.75-.01-1.64.74-1.99,1.59-.73,3.13-4.43,3.72-6.83.2-.8,1.01-1.3,1.81-1.1.8.2,1.3,1.01,1.1,1.81-.18.74-1.85,7.23-5.38,8.85-.2.09-.42.14-.62.14Z"/>
  <path class="cls-1" d="m291.92,130.65c-5.3,0-9.64-6.81-9.84-7.13-.44-.7-.23-1.63.47-2.07.7-.44,1.63-.23,2.07.47,1.19,1.88,4.98,6.55,8.19,5.6.8-.24,1.63.22,1.87,1.01.24.79-.22,1.63-1.01,1.87-.59.18-1.17.26-1.75.26Z"/>
  <path class="cls-1" d="m285.57,124.22c-5.42,0-8.95-7.34-9.34-8.19-.35-.75-.02-1.64.74-1.99.75-.35,1.64-.02,1.99.73.83,1.8,3.63,6.44,6.62,6.44.04,0,.07,0,.11,0,.81,0,1.48.65,1.5,1.46.02.83-.63,1.52-1.46,1.54-.05,0-.1,0-.15,0Z"/>
  <path class="cls-1" d="m281.43,116.91c-.05,0-.11,0-.16,0-6.69-.72-10.19-5.31-10.33-5.51-.5-.66-.36-1.6.3-2.1.67-.49,1.6-.36,2.1.3.02.03,2.91,3.75,8.25,4.32.82.09,1.42.83,1.33,1.65-.08.77-.73,1.34-1.49,1.34Z"/>
  <path class="cls-1" d="m292.37,149.38c-.36,0-.71-.13-.99-.37-.06-.06-1.57-1.38-3.44-3.81-.5-.66-.38-1.6.28-2.1.66-.5,1.6-.38,2.1.27.84,1.09,1.59,1.93,2.14,2.51.66-.84,1-2.07,1.08-2.55.13-.81.91-1.37,1.72-1.24.82.13,1.37.9,1.24,1.71-.06.41-.71,4.04-3.46,5.42-.21.11-.45.16-.67.16Z"/>
  <path class="cls-1" d="m296.23,147.18c-.53,0-1.05-.29-1.32-.79-.39-.73-.12-1.64.61-2.03.03-.02,3.35-1.87,3.81-4.97.12-.82.88-1.38,1.71-1.26.82.12,1.38.89,1.26,1.71-.69,4.6-5.17,7.07-5.36,7.17-.23.12-.47.18-.71.18Z"/>
  <path class="cls-1" d="m284,150.73c-.76,0-1.42-.58-1.49-1.36-.08-.82.53-1.56,1.35-1.63,1.89-.18,5.39-.8,6.73-1.69.69-.46,1.62-.27,2.08.42.46.69.27,1.62-.42,2.08-2.4,1.6-7.53,2.12-8.11,2.18-.05,0-.1,0-.14,0Z"/>
  <path class="cls-1" d="m275.01,111.99c-.26,0-.52-.07-.75-.2-.5-.29-.79-.85-.74-1.43,0-.04.34-4.13-.24-9.17-.11-.97-1.16-3.18-2.26-5.52-3.12-6.59-7.39-15.62-4.3-22.25,1.46-3.14,4.4-5.31,8.75-6.46.8-.21,1.62.27,1.83,1.07.21.8-.27,1.62-1.07,1.83-3.49.92-5.72,2.5-6.8,4.82-2.49,5.36,1.59,13.99,4.29,19.7,1.37,2.9,2.36,4.99,2.53,6.46.28,2.49.36,4.74.36,6.45,2.18-1.94,4.32-4.44,4.31-6.28,0-.98-.62-2.52-1.27-4.16-1.74-4.35-4.36-10.91,1.84-15.84,5.07-4.03,17.9-1.48,25.89,5.15,6.6,5.48,8.3,12.54,4.68,19.39-.39.73-1.3,1.01-2.03.62-.73-.39-1.01-1.29-.62-2.03,3.77-7.12-.07-12.45-3.95-15.68-7.19-5.97-18.55-7.94-22.1-5.11-4.13,3.29-2.99,7.21-.92,12.38.8,1.99,1.48,3.71,1.49,5.26.02,4.96-7.24,10.13-8.06,10.71-.26.18-.55.27-.85.27Z"/>
  <path class="cls-1" d="m252.47,139.45c-.37,0-.74-.14-1.02-.4-.24-.22-5.81-5.56-4.54-16.5.65-5.6,2.8-9.52,4.52-12.67,1.48-2.7,2.55-4.65,2.1-6.51-1.14-4.74-3.55-9.13-3.57-9.18-.4-.73-.14-1.64.59-2.04.72-.4,1.64-.14,2.04.59.11.19,2.63,4.79,3.86,9.93.72,2.98-.72,5.61-2.39,8.65-1.68,3.07-3.59,6.55-4.17,11.57-.39,3.37-.06,6.1.54,8.22-.02-.56-.04-1.15-.05-1.77-.07-3.31,2.5-5.58,4.98-7.77,2.39-2.11,4.87-4.3,5.35-7.47.29-1.96.22-4.69.15-7.57-.09-3.31-.18-7.07.26-10.5.1-.82.84-1.4,1.68-1.3.82.11,1.4.86,1.3,1.68-.41,3.2-.32,6.67-.23,10.04.08,3.02.15,5.87-.18,8.09-.64,4.25-3.66,6.92-6.33,9.27-2.15,1.9-4.01,3.54-3.97,5.46.12,5.22.58,8.41.58,8.45.09.63-.22,1.25-.79,1.55-.22.12-.46.17-.7.17Z"/>
  <path class="cls-1" d="m223.09,115.11c-.08,0-.17,0-.25,0-1.52-.02-3.66-.72-5.23-3.86-3.24-6.49-2.29-20.77,1.76-26.33,3.15-4.34,7.99-10.09,13.64-10.09.03,0,.06,0,.09,0,3.38.04,6.52,2.11,9.34,6.16,5.26,7.62.31,17.15.09,17.55-.39.73-1.3,1.01-2.03.62-.73-.39-1.01-1.3-.62-2.03.04-.08,4.3-8.33.09-14.43-2.22-3.2-4.55-4.84-6.9-4.86-.02,0-.04,0-.06,0-4.28,0-8.45,5.05-11.21,8.85-3.41,4.69-4.25,17.72-1.5,23.23.72,1.45,1.59,2.19,2.59,2.2,5.95.12,6.5-3.92,6.52-4.09.11-.82.85-1.41,1.68-1.29.82.11,1.4.86,1.29,1.68-.3,2.34-2.64,6.7-9.29,6.7Z"/>
  <path class="cls-1" d="m225.74,99.16c-.12,0-.24-.01-.37-.05-.8-.2-1.29-1.02-1.09-1.82.75-3.01,2.28-5.11,4.55-6.24,2.61-1.3,5.54-.94,7.36-.49.12-1.75-.26-4.64-3.51-6.46-.72-.4-.98-1.32-.58-2.04.41-.72,1.32-.98,2.04-.58,5.59,3.13,5.49,8.88,4.65,11.48-.13.4-.42.73-.8.91-.38.18-.82.18-1.21.02-.03-.01-3.8-1.56-6.62-.14-1.44.72-2.44,2.16-2.97,4.28-.17.68-.78,1.14-1.45,1.14Z"/>
  <path class="cls-1" d="m240.21,124.22c-.26,0-.52-.07-.76-.21-.68-.4-.93-1.26-.58-1.97.11-.22.22-.43.33-.65.42-1.25.19-3.6-.05-6.07-.52-5.35-1.22-12.69,2.9-19.63.42-.71,1.34-.95,2.06-.52s.95,1.34.52,2.06c-3.62,6.1-2.99,12.6-2.49,17.82,0,.09.02.19.03.28.47-.99.92-1.94,1.36-2.85,4.06-8.56,5.91-12.47,8.92-12.53l2.88-.06s.02,0,.03,0c.81,0,1.48.65,1.5,1.47.02.83-.64,1.51-1.47,1.53l-2.88.06c-1.16.02-3.88,5.76-6.28,10.82-1.24,2.61-2.63,5.54-4.27,8.83-.13.35-.3.67-.5.97-.29.43-.76.66-1.24.66Z"/>
  <path class="cls-1" d="m209.43,125.66c-.28,0-.55-.08-.8-.23-.58-.36-.83-1.07-.63-1.72,1.39-4.45,1.13-9.58.84-15.51-.33-6.53-.7-13.93.79-23.01,2.95-17.95,16.17-26.67,16.73-27.03.06-.04,8.02-5.39,10.46-7.15.25-.2.76-1.21,1.17-2.02,2.28-4.52,7.01-13.94,25.43-16.48,14.57-2.01,23.76,8.94,24.14,9.4.53.64.43,1.58-.21,2.11-.64.53-1.59.43-2.11-.21-.08-.1-8.54-10.12-21.42-8.34-16.85,2.32-20.95,10.48-23.16,14.85-.73,1.45-1.26,2.5-2.09,3.1-2.48,1.79-10.24,7-10.57,7.22-.15.1-12.69,8.42-15.42,25.01-1.44,8.76-1.08,15.99-.76,22.37.17,3.39.33,6.53.18,9.49,2.91-6.72,3.63-15.56,3.63-15.68.06-.83.8-1.44,1.61-1.38.83.06,1.44.78,1.38,1.61-.05.68-1.37,16.84-8.19,23.17-.29.26-.65.4-1.02.4Z"/>
  <path class="cls-1" d="m195.04,144.14c-.41,0-.82-.17-1.11-.5-.49-.54-.52-1.36-.07-1.93.05-.06,4.91-6.46,4.24-16.38-.7-10.35,3.25-24.02,10.06-34.83.44-.7,1.37-.91,2.07-.47.7.44.91,1.37.47,2.07-6.39,10.15-10.25,23.42-9.6,33.03.29,4.27-.33,7.94-1.22,10.85,3.7-4.51,8.05-12.03,9.17-23.19.08-.82.81-1.43,1.64-1.34.82.08,1.43.82,1.34,1.64-2.18,21.76-15.62,30.46-16.19,30.82-.25.16-.52.23-.8.23Z"/>
  <path class="cls-1" d="m269.14,89.14c-.34,0-.69-.12-.97-.35-.86-.72-21.07-17.93-31.77-36.4-.42-.72-.17-1.63.55-2.05.71-.41,1.63-.17,2.05.55,10.44,18.02,30.91,35.44,31.11,35.62.63.54.71,1.48.18,2.11-.3.35-.72.53-1.15.53Z"/>
  <path class="cls-1" d="m274.31,107.8c-.32,0-.64-.1-.91-.31-14.64-11.16-35.19-31.4-45.73-49.47-.42-.72-.18-1.63.54-2.05.71-.42,1.63-.18,2.05.54,10.33,17.72,30.55,37.61,44.95,48.6.66.5.79,1.44.28,2.1-.29.39-.74.59-1.19.59Z"/>
  <path class="cls-1" d="m313.07,127.43c-.37,0-.74-.14-1.03-.41-.25-.23-24.94-23.54-31.42-29.45-.61-.56-.65-1.51-.1-2.12.56-.61,1.51-.65,2.12-.1,6.5,5.93,31.2,29.25,31.45,29.49.6.57.63,1.52.06,2.12-.29.31-.69.47-1.09.47Z"/>
  <path class="cls-1" d="m305.46,134.89c-.17,0-.35-.03-.52-.09-.27-.1-6.71-2.54-12.44-9.05-4.23-4.8-10.42-11.51-15.88-16.18-.63-.54-.7-1.48-.17-2.11.54-.63,1.48-.71,2.12-.17,5.59,4.78,11.89,11.6,16.19,16.47,5.23,5.94,11.18,8.2,11.24,8.22.78.29,1.17,1.15.88,1.93-.22.6-.8.98-1.41.98Z"/>
  <path class="cls-1" d="m243.33,60.32c-.14,0-.29-.02-.43-.06-.79-.24-1.24-1.07-1-1.87,2.54-8.45,9.97-9.97,10.29-10.03.81-.16,1.6.37,1.76,1.19.16.81-.38,1.6-1.19,1.76-.24.05-5.98,1.29-7.99,7.95-.2.65-.79,1.07-1.44,1.07Z"/>
  <path class="cls-1" d="m225.74,80.58c-.06,0-.12,0-.18-.01-.82-.1-1.41-.84-1.31-1.66.06-.54,1.66-13.34,9.79-14.91.82-.16,1.6.37,1.76,1.19.16.81-.37,1.6-1.19,1.76-4.96.96-7.01,9.22-7.38,12.32-.09.76-.74,1.32-1.49,1.32Z"/>
  <path class="cls-1" d="m253.42,71.13c-.18,0-.36-.03-.53-.1-.77-.3-1.16-1.16-.87-1.94,5.08-13.34,21.48-14.83,22.17-14.89.82-.06,1.55.55,1.62,1.37s-.54,1.55-1.37,1.62c-.15.01-15.21,1.41-19.62,12.97-.23.6-.8.97-1.4.97Z"/>
  <path class="cls-1" d="m284.48,49.43c-.33,0-.66-.11-.93-.33-.05-.04-5.26-4.08-12.74-3.56-.82.06-1.54-.57-1.6-1.39-.06-.83.57-1.54,1.39-1.6,8.67-.61,14.57,4.01,14.82,4.21.65.52.75,1.46.24,2.11-.3.37-.73.56-1.17.56Z"/>
  <path class="cls-1" d="m323.57,160.43c-.22,0-.44-.05-.64-.15-.67-.32-1.01-1.09-.79-1.8.07-.25,1.79-6.23-3.49-11.77-6.25-6.57-3.69-12.71-1.42-18.12l.48-1.17c1.98-4.83-1.72-10.67-1.76-10.73-.45-.7-.25-1.62.45-2.07.7-.45,1.62-.25,2.07.44.19.29,4.6,7.21,2.02,13.5l-.49,1.19c-2.19,5.23-4.08,9.75.82,14.89,2.1,2.21,3.29,4.48,3.94,6.57.16-1.45.07-2.99-.45-4.5-2.23-6.44-.76-18.64,1.38-23.19.56-1.19,1.59-3.12,2.78-5.35,2.58-4.83,6.89-12.92,7.04-15.09.16-2.26-2.68-7.08-5.57-10.85-1.25-1.64-1.81-4.88-2.42-8.96-.17-1.15-.33-2.23-.49-2.95-.49-2.21-5.04-8.08-7.04-9.44-2.29-1.55-10.66-8.87-13.35-14.52-1.46-3.06-7.11-12.88-18.66-10.92-.82.14-1.59-.41-1.73-1.23-.14-.82.41-1.59,1.23-1.73,13.63-2.32,20.19,9.04,21.87,12.58,2.3,4.82,10.06,11.8,12.33,13.33,2.38,1.61,7.56,8.03,8.28,11.27.18.82.34,1.9.53,3.16.38,2.56.96,6.43,1.83,7.58,1.95,2.55,6.45,8.91,6.18,12.88-.18,2.6-3.31,8.66-7.38,16.3-1.17,2.2-2.18,4.1-2.71,5.22-1.85,3.92-3.2,15.33-1.26,20.93,2.38,6.86-2.13,13.74-2.33,14.03-.29.43-.76.67-1.25.67Z"/>
  <path class="cls-1" d="m308.74,174.33c-.34,0-.68-.11-.96-.34-.29-.24-7.09-5.96-6.7-13.23.14-2.65.79-5.7,1.48-8.94,1.04-4.9,2.21-10.45,1.65-15.17-.1-.82.49-1.57,1.31-1.67.82-.1,1.57.49,1.67,1.31.62,5.21-.61,11.02-1.69,16.14-.66,3.12-1.28,6.06-1.41,8.48-.11,1.93.49,3.77,1.32,5.37-.22-2.49.09-5.18,1.74-7.33,3.28-4.26,4.71-20.65,4.37-23.48-.31-2.62-1.85-5.14-1.86-5.16-.43-.71-.21-1.63.49-2.06.71-.43,1.63-.22,2.06.49.08.12,1.89,3.09,2.29,6.38.33,2.76-.89,20.36-4.98,25.67-2.48,3.22-.43,9.31.56,11.38.3.64.13,1.4-.43,1.83-.27.21-.6.32-.92.32Z"/>
  <path class="cls-1" d="m329.8,109.71c-.09,0-.19,0-.28-.03-.81-.15-1.35-.94-1.2-1.75.32-1.71-.2-2.2-.37-2.36-2.31-2.17-12.87.55-16.85,1.57-.64.17-1.31-.11-1.65-.67s-.28-1.28.16-1.78c11.23-12.71-2.32-27.61-8.11-33.97-.79-.86-1.41-1.55-1.85-2.09-1.85-2.28-3.35-5.11-4.94-8.11-1.65-3.11-3.35-6.33-5.49-8.91-.53-.64-.44-1.58.2-2.11.64-.53,1.58-.44,2.11.2,2.33,2.81,4.11,6.17,5.83,9.42,1.52,2.86,2.95,5.57,4.62,7.62.39.48,1.02,1.17,1.74,1.96,5.34,5.87,18.85,20.72,10.65,34.55,9.01-2.06,13.39-1.98,15.64.12,1.25,1.18,1.68,2.89,1.26,5.1-.14.72-.76,1.22-1.47,1.22Z"/>
  <path class="cls-1" d="m297.35,63.77c-.34,0-.68-.12-.96-.35-4.96-4.17-14.16-.95-14.25-.91-.78.28-1.64-.13-1.92-.91s.13-1.64.91-1.92c.44-.16,10.92-3.83,17.19,1.44.63.53.72,1.48.18,2.11-.3.35-.72.53-1.15.53Z"/>
  <path class="cls-1" d="m307.82,77.82c-.31,0-.63-.1-.9-.3-6.67-5-14.46-6.4-14.54-6.42-.82-.14-1.36-.92-1.22-1.73.14-.82.92-1.36,1.73-1.22.35.06,8.59,1.54,15.83,6.97.66.5.8,1.44.3,2.1-.29.39-.75.6-1.2.6Z"/>
  <path class="cls-1" d="m300.23,68.43c-.53,0-1.05-.29-1.32-.79-.39-.73-.12-1.64.61-2.03,6.22-3.34,9.93-1.68,10.33-1.48.74.37,1.04,1.27.67,2.01-.37.74-1.27,1.04-2.01.67-.08-.04-2.73-1.16-7.57,1.44-.23.12-.47.18-.71.18Z"/>
  <path class="cls-1" d="m303.66,56.36c-.25,0-.49-.06-.72-.19-.05-.03-5.25-2.81-9.61-.52-.73.38-1.64.1-2.02-.63-.38-.73-.1-1.64.63-2.02,5.8-3.03,12.18.41,12.45.55.73.4.99,1.31.59,2.04-.27.5-.79.78-1.31.78Z"/>
  <path class="cls-1" d="m326.33,90.95c-.48,0-.96-.23-1.25-.67-.1-.14-2.74-3.73-10.48-3-.83.08-1.56-.53-1.63-1.35-.08-.82.53-1.56,1.35-1.63,9.65-.91,13.12,4.1,13.26,4.32.46.69.27,1.62-.42,2.08-.26.17-.54.25-.83.25Z"/>
  <path class="cls-1" d="m184.13,132.34c-.39,0-.79-.15-1.08-.46-.57-.6-.56-1.55.04-2.12l16.06-15.44c.6-.57,1.55-.56,2.12.04.57.6.56,1.55-.04,2.12l-16.06,15.44c-.29.28-.67.42-1.04.42Z"/>
  <path class="cls-1" d="m227.29,275.64h-6.83c-.75,0-1.39-.56-1.49-1.3-.05-.36-4.83-36.53-8.15-64.04-2.76-22.91-20.15-55.17-27.58-68.94-1.58-2.93-2.72-5.05-3.34-6.34-1.78-3.73-1.6-7.94.49-11.54,2.69-4.62,7.99-7.53,14.54-8,.82-.07,1.54.56,1.6,1.39.06.83-.56,1.54-1.39,1.6-5.54.39-9.98,2.77-12.16,6.51-1.59,2.73-1.73,5.92-.38,8.74.58,1.22,1.77,3.42,3.27,6.21,7.51,13.93,25.08,46.54,27.92,70.01,2.96,24.53,7.09,55.97,7.98,62.7h3.92c-.44-7.55-1.86-38.63,4-46.4.5-.66,1.44-.79,2.1-.29.66.5.79,1.44.3,2.1-4.87,6.46-4.03,35.39-3.3,45.99.03.42-.12.82-.4,1.13-.28.3-.68.48-1.1.48Z"/>
  <path class="cls-1" d="m218.3,251.31c-.12,0-.24-.01-.36-.04-.81-.2-1.3-1.01-1.1-1.81,4.61-18.88,28.31-41.68,33.61-46.59-1.34-1.87-4.17-6.1-7.83-13.15-.38-.74-.09-1.64.64-2.02.73-.38,1.64-.09,2.02.64,4.89,9.42,8.31,13.73,8.35,13.78.5.62.43,1.52-.17,2.06-.29.26-28.85,26.07-33.71,46-.17.69-.78,1.14-1.46,1.14Z"/>
  <path class="cls-1" d="m227.3,232.99c-.05,0-.1,0-.16,0-.82-.08-1.42-.82-1.34-1.65.04-.34,3.5-33.87,4.92-45.38.1-.82.85-1.41,1.67-1.3.82.1,1.41.85,1.3,1.67-1.42,11.48-4.88,44.98-4.91,45.32-.08.77-.73,1.35-1.49,1.35Z"/>
  <path class="cls-1" d="m242.19,214.75c-.34,0-.68-.12-.96-.35-.32-.27-8-6.85-11.79-21.77-.2-.8.28-1.62,1.08-1.82.81-.21,1.62.28,1.82,1.08,3.54,13.92,10.74,20.16,10.81,20.22.63.54.71,1.48.18,2.11-.3.35-.72.53-1.15.53Z"/>
  <path class="cls-1" d="m279.33,296.98c-.25,0-.5-.06-.73-.19-.72-.4-.99-1.31-.59-2.04,4.54-8.19,5.5-45.78,4.85-53.7-.57-6.93-12.08-44.16-30.3-59.89-.63-.54-.7-1.49-.16-2.12.54-.63,1.49-.7,2.12-.15,18.83,16.27,30.74,54.75,31.33,61.92.63,7.75-.11,46.18-5.22,55.4-.27.49-.79.77-1.31.77Z"/>
  <path class="cls-1" d="m269.98,291.83s-.06,0-.09,0c-.83-.05-1.46-.76-1.4-1.59.02-.28,1.72-28.47-3.54-45.87-.24-.79.21-1.63,1-1.87.79-.24,1.63.21,1.87,1,5.41,17.92,3.73,45.75,3.66,46.93-.05.79-.71,1.41-1.5,1.41Z"/>
  <path class="cls-1" d="m308.34,342.9c-.2,0-.4-.04-.59-.12-.76-.32-1.12-1.21-.79-1.97.8-1.87,2.39-7.28.23-9.83-2.48-2.94-15.76-5.57-24.54-7.31-1.44-.29-2.83-.56-4.1-.82-6.61-1.35-15.21,1.56-22.13,3.91-3.03,1.03-5.65,1.92-7.74,2.33-4.96.98-10.44-.58-16.23-2.22-2.61-.74-5.3-1.51-8.1-2.1-5.46-1.15-26.17-6.26-63.15-23.73-.75-.35-1.07-1.25-.72-2,.35-.75,1.25-1.07,2-.72,36.69,17.33,57.11,22.37,62.49,23.51,2.9.61,5.65,1.39,8.3,2.15,5.68,1.61,10.58,3,14.84,2.17,1.89-.37,4.42-1.23,7.35-2.22,7.26-2.46,16.29-5.52,23.69-4.01,1.27.26,2.65.53,4.08.82,13.08,2.59,23.33,4.85,26.25,8.32,3.79,4.49.38,12.6.23,12.95-.24.57-.8.91-1.38.91Z"/>
  <path class="cls-1" d="m297.79,363.88c-.41,0-.82-.17-1.12-.5-.55-.62-.5-1.56.11-2.12,3.92-3.52,10.28-10.25,10.66-13.34.06-.47.13-.92.2-1.34.51-3.05.77-4.59-14.46-10.13-.78-.28-1.18-1.14-.9-1.92.28-.78,1.14-1.18,1.92-.9,16.13,5.88,17.27,8.23,16.39,13.45-.06.38-.13.79-.19,1.21-.65,5.2-10.51,14.19-11.64,15.2-.29.26-.64.38-1,.38Z"/>
  <path class="cls-1" d="m288.31,389.04c-.28,0-.51-.03-.66-.09-.63-.25-1.29-.52-3.37-9.16-.77-3.18-2.03-8.97-1.88-11.97.04-.83.76-1.47,1.57-1.42.83.04,1.46.75,1.42,1.57-.2,3.96,2.67,14.98,3.73,18.02,1.76-.33,5.59-1.46,6.79-2.28.58-1.43-.15-8.09-.54-11.7-.22-2.06-.44-4-.51-5.35-.15-2.83-.81-4.21-2.57-7.91-.92-1.92-2.06-4.31-3.54-7.76-.27-.63-.08-1.37.47-1.79.55-.42,1.31-.4,1.85.03.01,0,2.41,1.83,8.55,2.93.82.15,1.36.92,1.21,1.74-.15.82-.93,1.36-1.74,1.21-2.49-.44-4.44-1-5.92-1.54.7,1.52,1.3,2.78,1.82,3.88,1.84,3.86,2.69,5.63,2.86,9.05.06,1.26.27,3.16.49,5.18,1.05,9.63,1.13,13.05-.46,14.3-1.5,1.18-7.3,3.06-9.57,3.06Zm7.56-5.25h0Z"/>
  <path class="cls-1" d="m276.45,375.87c-.41,0-.82-.17-1.12-.5-.55-.62-.5-1.57.12-2.12,2.45-2.19,9.17-8.53,10.83-11.59.39-.73,1.31-1,2.04-.6.73.4,1,1.31.6,2.04-2.26,4.14-11.09,12.05-11.47,12.39-.29.26-.64.38-1,.38Z"/>
  <path class="cls-1" d="m279.14,388.61c-.56,0-1.16-.06-1.77-.17-3.8-.72-9.93-11.98-11.72-15.41-.38-.73-.1-1.64.64-2.02.73-.38,1.64-.1,2.02.64,4.11,7.88,8.29,13.52,9.62,13.85,1.28.24,2.43.11,2.93-.34.1-.09.39-.35.32-1.19-.25-3.18,1.16-9.64,1.22-9.91.18-.81.97-1.32,1.79-1.14.81.18,1.32.98,1.14,1.79-.38,1.74-1.34,6.76-1.16,9.03.15,1.92-.63,3.05-1.31,3.66-.89.8-2.21,1.22-3.73,1.22Z"/>
  <path class="cls-1" d="m197.44,348.66c-.08,0-.17,0-.25-.02-.41-.07-41.19-7.09-64.09-16.39-.77-.31-1.14-1.19-.83-1.95.31-.77,1.19-1.14,1.95-.83,22.61,9.18,63.06,16.15,63.47,16.22.82.14,1.37.91,1.23,1.73-.12.73-.76,1.25-1.48,1.25Z"/>
  <path class="cls-1" d="m89.37,345.02c-1.53,0-2.87-.11-3.91-.37-5.59-1.4-23.6-13.51-29.04-38.18-.06-.26-.04-.53.04-.79,1.96-6.02,15.04-12.29,25.65-15.83,5.98-1.99,13.21-3.21,20.2-4.39,6.91-1.17,13.44-2.27,17.59-3.96,2.09-.85,4.26-1.98,6.55-3.16,6.83-3.54,14.56-7.55,22.41-5.03,10.14,3.25,21.27,20.58,21.16,24.97-.02.83-.7,1.49-1.54,1.46-.83-.02-1.48-.71-1.46-1.54.07-2.6-9.83-19.06-19.07-22.03-6.66-2.14-13.5,1.41-20.11,4.83-2.35,1.22-4.58,2.37-6.79,3.28-4.46,1.82-11.15,2.95-18.23,4.15-6.88,1.16-13.99,2.36-19.75,4.28-11.92,3.97-21.89,9.72-23.61,13.56,4.97,21.75,20.88,34.02,26.74,35.48,4.44,1.11,17.37-1.28,21.97-2.29.81-.18,1.61.33,1.79,1.14.18.81-.33,1.61-1.14,1.79-.58.13-12.08,2.63-19.44,2.63Z"/>
  <path class="cls-1" d="m222.98,363.88s-.03,0-.04,0c-8.56-.24-58.57-5.33-75.01-8.05-17.29-2.86-39.7-12.04-63.1-25.84-.71-.42-.95-1.34-.53-2.05.42-.71,1.34-.95,2.05-.53,23.08,13.62,45.13,22.67,62.07,25.47,16.37,2.71,66.11,7.77,74.61,8.01.83.02,1.48.71,1.46,1.54-.02.81-.69,1.46-1.5,1.46Z"/>
  <path class="cls-1" d="m271.54,373.83c-.05,0-.11,0-.16,0-1-.11-24.51-2.67-34.06-4.58-5.28-1.06-7.06-2.21-10.95-4.73-3.46-2.24-8.7-5.63-19.99-11.22-.74-.37-1.05-1.27-.68-2.01.37-.74,1.27-1.05,2.01-.68,11.44,5.66,16.77,9.11,20.29,11.39,3.78,2.45,5.19,3.36,9.91,4.31,9.42,1.88,33.55,4.51,33.8,4.54.82.09,1.42.83,1.33,1.65-.08.77-.73,1.34-1.49,1.34Z"/>
  <path class="cls-1" d="m259.54,339.78c-.73,0-1.38-.54-1.48-1.29-.12-.82.45-1.58,1.27-1.7,12.02-1.73,18.64-5.09,18.71-5.12.74-.38,1.64-.09,2.02.65.38.74.09,1.64-.64,2.02-.28.15-7.08,3.61-19.66,5.43-.07.01-.14.02-.22.02Z"/>
  <path class="cls-1" d="m82.59,335.11c-.1,0-.19,0-.29-.03-.81-.16-1.34-.95-1.18-1.76,1.78-9.06,20.28-19.29,33.56-18.59,6.86.38,16.72-5.35,25.41-10.4,7.67-4.45,14.31-8.31,18.94-8.31.07,0,.14,0,.21,0,5.96.15,8.67.46,9.97,1.96,1.01,1.16.84,2.68.71,3.9-.09.82-.84,1.41-1.66,1.33-.82-.09-1.42-.83-1.33-1.66.04-.39.16-1.43.01-1.6-.65-.75-5.84-.88-7.79-.93-3.83-.08-10.48,3.79-17.56,7.9-9.05,5.26-19.32,11.2-27.08,10.8-12.75-.7-29.06,9.05-30.46,16.18-.14.71-.77,1.21-1.47,1.21Z"/>
  <path class="cls-1" d="m64.84,299.02c-.69,0-1.31-.48-1.46-1.17-2.78-12.52-6.65-63.05.39-75.97,4.51-8.28,9.14-23.55,12.52-34.7,1.49-4.9,2.77-9.13,3.7-11.62,2.94-7.88,16.3-29.87,26.37-35.1,6.82-3.54,30.86-5.88,46.77-7.43,5.95-.58,11.57-1.13,12.41-1.41,2.05-.74,11.01-6.92,16.53-10.89.67-.48,1.61-.33,2.09.34.48.67.33,1.61-.34,2.09-1.44,1.04-14.17,10.17-17.27,11.28-1.05.38-4.79.75-13.13,1.57-14.73,1.43-39.37,3.83-45.67,7.1-8.76,4.55-21.77,24.99-24.94,33.48-.9,2.4-2.17,6.59-3.64,11.44-3.42,11.27-8.1,26.71-12.76,35.27-6.32,11.6-2.86,61.44-.09,73.89.18.81-.33,1.61-1.14,1.79-.11.02-.22.04-.33.04Z"/>
  <path class="cls-1" d="m214.83,236.44c-.43,0-.86-.19-1.16-.55l-27.46-33.45c-.44-.53-.45-1.3-.04-1.85.12-.17,12.3-16.9,5.87-40.67-.22-.8.26-1.62,1.06-1.84.79-.22,1.62.26,1.84,1.06,6,22.17-3.04,38.22-5.69,42.27l26.74,32.58c.53.64.43,1.59-.21,2.11-.28.23-.62.34-.95.34Z"/>
  <path class="cls-1" d="m195.76,182.73c-.5,0-.99-.25-1.28-.71-.06-.09-5.67-9.16-10.97-16.52-2.51-3.48-14.93-21.62-13.34-36.5.09-.82.81-1.42,1.65-1.33.82.09,1.42.83,1.33,1.65-1.47,13.8,10.4,31.11,12.79,34.43,5.36,7.46,11.03,16.61,11.09,16.7.44.7.22,1.63-.49,2.06-.25.15-.52.22-.79.22Z"/>
  <path class="cls-1" d="m192.77,209.56c-.52,0-1.02-.27-1.3-.74-.42-.72-.18-1.63.54-2.05,9.62-5.62,11-24.49,11.01-24.68.06-.83.77-1.46,1.6-1.4.83.06,1.45.77,1.4,1.6-.06.84-1.5,20.65-12.49,27.07-.24.14-.5.2-.76.2Z"/>
  <path class="cls-1" d="m222.38,201.55c-.74,0-1.39-.55-1.49-1.31-.08-.65-1.94-15.95,4.56-21.82.61-.55,1.56-.51,2.12.11.56.61.51,1.56-.11,2.12-4.43,4-4.1,15.23-3.59,19.22.1.82-.48,1.57-1.3,1.68-.06,0-.13.01-.19.01Z"/>
  <path class="cls-1" d="m139.41,171.92c-.7,0-1.33-.5-1.47-1.21-.12-.6-3.19-14.91-22.12-20.02-.8-.22-1.27-1.04-1.06-1.84.22-.8,1.04-1.27,1.84-1.06,20.8,5.62,24.15,21.67,24.28,22.35.16.81-.37,1.6-1.19,1.76-.1.02-.19.03-.29.03Z"/>
  <path class="cls-1" d="m150.57,275.64c-.41,0-.83-.17-1.12-.5-.55-.62-.49-1.57.12-2.12l.14-.12c-.83-1.34-2.28-3.62-3.22-4.87-1.33-1.78-.66-3.57.06-5.47.47-1.24,1-2.65,1.27-4.52.51-3.48-1.09-8.9-2.64-14.15-.45-1.52-.89-3.02-1.28-4.48-.72-2.66-.41-5.4.03-9.19.72-6.33,1.81-15.9-1.49-32.69-.16-.81.37-1.6,1.18-1.76.82-.16,1.6.37,1.76,1.18,3.39,17.24,2.27,27.09,1.53,33.61-.39,3.46-.68,5.96-.11,8.07.39,1.43.83,2.92,1.27,4.41,1.64,5.56,3.34,11.31,2.73,15.44-.32,2.19-.94,3.82-1.43,5.14-.64,1.7-.77,2.21-.47,2.62,1.46,1.95,3.93,6,4.04,6.17.38.62.26,1.42-.29,1.9l-1.08.96c-.29.25-.64.38-1,.38Z"/>
  <path class="cls-1" d="m147.24,267.48c-.39,0-.77-.15-1.07-.45-.36-.37-36.49-37.43-45.64-89.62-.14-.82.4-1.59,1.22-1.74.81-.14,1.59.4,1.74,1.22,8.98,51.24,44.46,87.67,44.82,88.03.58.59.58,1.54-.01,2.12-.29.29-.67.43-1.05.43Z"/>
  <path class="cls-1" d="m134.56,234.94c-.5,0-1-.25-1.28-.72-1.95-3.19-5.4-12.2-9.4-22.64-4.36-11.37-9.29-24.26-13.32-32.32-.37-.74-.07-1.64.67-2.01.74-.37,1.64-.07,2.01.67,4.1,8.19,9.06,21.15,13.44,32.59,3.78,9.87,7.35,19.19,9.16,22.15.43.71.21,1.63-.5,2.06-.24.15-.51.22-.78.22Z"/>
  <path class="cls-1" d="m129.34,270.37c-.35,0-.71-.12-.99-.37-.34-.3-33.7-29.94-48.05-64.57-.32-.77.05-1.64.81-1.96.76-.32,1.64.05,1.96.81,14.09,33.99,46.93,63.18,47.26,63.47.62.55.68,1.5.13,2.12-.3.34-.71.51-1.13.51Z"/>
  <path class="cls-1" d="m130.41,279.51s-.03,0-.04,0c-.23,0-5.75-.18-10.48-2.45-3-1.44-3.62-3.6-4.11-5.33-.39-1.36-.7-2.43-2.03-3.36-1.12-.78-4.77-1.78-9.01-2.93-8.39-2.28-21.07-5.73-31.04-12.02-.7-.44-.91-1.37-.47-2.07.44-.7,1.37-.91,2.07-.47,9.59,6.05,22,9.43,30.22,11.66,5.05,1.38,8.39,2.28,9.94,3.36,2.21,1.54,2.75,3.45,3.2,4.99.45,1.57.75,2.6,2.53,3.46,4.14,1.99,9.22,2.16,9.27,2.16.83.02,1.48.71,1.46,1.54-.02.81-.69,1.46-1.5,1.46Z"/>
  <path class="cls-1" d="m147.24,225.05c-.18,0-.36-.03-.53-.1-.78-.29-1.17-1.16-.87-1.93.05-.14,5.29-14.09,8.11-29.59.15-.81.93-1.36,1.74-1.21.81.15,1.36.93,1.21,1.74-2.87,15.78-8.2,29.97-8.25,30.11-.23.6-.8.97-1.4.97Z"/>
  <path class="cls-1" d="m269.66,279.51c-.19,0-.37-.03-.55-.11-.77-.31-1.15-1.18-.84-1.95.08-.19,7.76-19.6,7.82-29.27,0-.83.68-1.49,1.5-1.49h0c.83,0,1.5.68,1.49,1.51-.06,10.24-7.71,29.55-8.03,30.37-.23.59-.8.95-1.39.95Z"/>
  <path class="cls-1" d="m64.42,373.83c-.34,0-.68-.12-.96-.35-.41-.34-10.01-8.47-14.77-18.17-5.17-10.55,6.09-53.43,11.18-71.38.23-.8,1.06-1.26,1.85-1.03.8.23,1.26,1.06,1.03,1.85-8.02,28.32-15.23,61.39-11.37,69.24,4.48,9.13,13.91,17.12,14,17.2.63.53.72,1.48.18,2.11-.3.35-.72.54-1.15.54Z"/>
  <path class="cls-1" d="m97.69,413.34c-.18,0-.37-.03-.54-.1-11-4.28-26.34-37.44-34.19-73.92-.17-.81.34-1.61,1.15-1.78.81-.17,1.61.34,1.78,1.15,8.19,38.06,23.62,68.36,32.35,71.75.77.3,1.15,1.17.85,1.94-.23.59-.8.96-1.4.96Z"/>
  <path class="cls-1" d="m150.05,455.62c-19.2,0-30.97-9.53-41.4-17.97-3.51-2.84-6.83-5.53-10.34-7.84-6.61-4.35-15.7-7.6-24.49-10.74-10.7-3.82-20.81-7.43-26.11-12.84-9.91-10.1-5.47-25.21,2.59-49.02.27-.78,1.11-1.2,1.9-.94.78.27,1.21,1.12.94,1.9-7.7,22.73-11.97,37.11-3.29,45.95,4.82,4.91,14.61,8.41,24.98,12.11,8.96,3.2,18.22,6.51,25.13,11.06,3.64,2.4,7.01,5.12,10.58,8.01,10.82,8.75,21.99,17.81,41.06,17.28,12.56-.35,20.93-2.41,27.65-4.07,6.96-1.72,11.98-2.96,17.19-.85,8.59,3.47,22.97-1.47,25.18-6.09,2.45-5.14,5.48-24.39,5.51-24.58.13-.82.9-1.38,1.71-1.25.82.13,1.38.89,1.25,1.71-.13.81-3.12,19.88-5.76,25.41-3.05,6.39-19.14,11.56-29.01,7.58-4.31-1.74-8.7-.66-15.35.98-6.5,1.6-15.41,3.8-28.29,4.16-.55.02-1.1.02-1.64.02Z"/>
  <path class="cls-1" d="m208.47,431.5c-.44,0-.87-.19-1.17-.56-.52-.64-.42-1.59.22-2.11,6.29-5.1,23.18-19.31,25.73-23.68.19-.32.39-.67.61-1.03,3.38-5.7,9.67-16.3,3.99-34.7-.24-.79.2-1.63.99-1.88.79-.24,1.63.2,1.88.99,6.07,19.67-.66,31.02-4.28,37.12-.21.35-.41.69-.59,1-3.34,5.74-25.49,23.74-26.43,24.5-.28.23-.61.33-.94.33Z"/>
  <path class="cls-1" d="m153.87,405.98c-4.4,0-13.92-8.61-20.68-17.49-.5-.66-.38-1.6.28-2.1.66-.5,1.6-.37,2.1.28,7.25,9.52,14.61,15.01,17.36,16.13-.01-.03-.02-.06-.04-.08-.83-1.95-4.54-6.17-9.25-11.52-9.84-11.19-24.72-28.1-33.65-47.03-.35-.75-.03-1.64.72-2,.75-.35,1.64-.03,2,.72,8.75,18.54,23.46,35.26,33.19,46.33,5.26,5.98,8.73,9.93,9.75,12.32,1.13,2.65.12,3.74-.59,4.15-.34.2-.74.29-1.2.29Z"/>
  <path class="cls-1" d="m180.96,417.29c-.42,0-.83-.17-1.13-.51-.54-.62-.48-1.57.14-2.12.15-.13,15.33-13.79,20.91-45.93.14-.82.91-1.37,1.73-1.22.82.14,1.36.92,1.22,1.73-5.78,33.28-21.24,47.11-21.89,47.68-.29.25-.64.37-.99.37Z"/>
  <path class="cls-1" d="m163.51,441.39c-.28,0-.57-.08-.82-.25-1.71-1.12-3.93-3.15-6.74-5.71-7.34-6.7-18.44-16.84-35.74-25.68-.74-.38-1.03-1.28-.65-2.02.38-.74,1.28-1.03,2.02-.65,17.66,9.02,29.39,19.73,36.4,26.13,2.71,2.47,4.85,4.43,6.36,5.42.69.45.89,1.38.43,2.08-.29.44-.77.68-1.25.68Z"/>
  <path class="cls-1" d="m220.9,486.24c-.72,0-1.35-.51-1.48-1.24-.63-3.59-.97-6.82-1.07-9.87-.48-15.95.23-27.83.24-27.95.05-.83.74-1.45,1.59-1.41.83.05,1.46.76,1.41,1.59,0,.12-.71,11.87-.24,27.68.09,2.91.42,6,1.02,9.44.14.82-.4,1.59-1.22,1.73-.09.02-.17.02-.26.02Z"/>
  <path class="cls-1" d="m37.21,486.24c-.08,0-.15,0-.23-.02-.82-.13-1.38-.89-1.25-1.71,1.22-7.97,1.44-15.03.66-20.98-2.83-21.38,8.79-45.17,16.78-55.15.52-.65,1.46-.75,2.11-.23s.75,1.46.23,2.11c-7.68,9.59-18.86,32.42-16.14,52.88.83,6.23.6,13.58-.67,21.83-.11.74-.75,1.27-1.48,1.27Z"/>
  <path class="cls-1" d="m166.02,487.1c-.75,0-1.4-.56-1.49-1.33-1.35-11.49-1.32-26.9,6.47-35.08.57-.6,1.52-.62,2.12-.05.6.57.62,1.52.05,2.12-6.99,7.34-6.94,21.81-5.66,32.67.1.82-.49,1.57-1.32,1.66-.06,0-.12.01-.18.01Z"/>
  <path class="cls-1" d="m184.13,486.17c-.73,0-1.37-.53-1.48-1.28-.42-2.79.24-5.84,1-9.37,1.49-6.9,3.35-15.49-3.15-25.23-.46-.69-.27-1.62.42-2.08.69-.46,1.62-.27,2.08.42,7.2,10.8,5.11,20.47,3.58,27.53-.7,3.24-1.31,6.04-.97,8.29.12.82-.44,1.58-1.26,1.71-.08.01-.15.02-.23.02Z"/>
  <path class="cls-1" d="m272.35,322.64c-.5,0-.98-.25-1.27-.7-8.03-12.7-34.25-54.49-34.5-58.76-.11-1.89,1.05-3.65,3.26-4.95,3.13-1.84,8.47-2.74,10.91-1.18,1.56.99,6,8.55,17.36,28.31,7.24,12.58,15.44,26.84,20.74,34.96.45.69.26,1.62-.44,2.08-.69.45-1.62.26-2.08-.44-5.35-8.19-13.57-22.49-20.83-35.1-7.03-12.22-14.99-26.06-16.43-27.32-.98-.62-4.97-.32-7.72,1.29-.69.4-1.84,1.23-1.79,2.19.52,3.34,21.15,36.94,34.04,57.32.44.7.23,1.63-.47,2.07-.25.16-.53.23-.8.23Z"/>
  <path class="cls-1" d="m245.4,267.49c-.67,0-1.28-.45-1.45-1.12-.21-.8.27-1.62,1.08-1.83.75-.2,2.88-1.06,3.64-2.59.43-.86.4-1.87-.09-3.07-.31-.77.05-1.64.82-1.96.77-.31,1.64.06,1.96.82.83,2.03.83,3.9,0,5.56-1.54,3.06-5.4,4.09-5.56,4.14-.13.03-.25.05-.38.05Z"/>
  <path class="cls-1" d="m270.55,316.55c-.83,0-1.71-.12-2.64-.38-.8-.23-1.26-1.06-1.03-1.85.23-.8,1.06-1.26,1.85-1.03,5.97,1.69,8.48-5.39,8.58-5.69.27-.78,1.12-1.2,1.91-.93.78.27,1.2,1.12.93,1.9-1.04,3.02-4.25,7.99-9.6,7.99Z"/>
  <path class="cls-1" d="m287,302.14c-.4,0-.8-.16-1.1-.48-.46-.49-.52-1.21-.2-1.77.11-.46.63-3.95-3.28-19.38-.2-.8.28-1.62,1.08-1.82.81-.2,1.62.28,1.82,1.08,3.33,13.14,4.24,20.53,2.69,21.97-.29.27-.66.4-1.02.4Zm-1.03-2.59h0Zm0,0s0,0,0,0c0,0,0,0,0,0Zm0,0s0,0,0,0c0,0,0,0,0,0Zm0,0s0,0,0,0c0,0,0,0,0,0Z"/>
  <path class="cls-1" d="m298.62,327.18s-.08,0-.12,0c-.83-.06-1.44-.79-1.38-1.61.53-6.82-8.37-16.37-8.46-16.46-.31-.33-.46-.79-.39-1.24,0,0,.23-1.96-1.03-3.35-1.01-1.13-2.75-1.69-5.2-1.65-.78.01-1.51-.65-1.52-1.48-.01-.83.65-1.51,1.48-1.52,3.36-.03,5.9.86,7.51,2.69,1.55,1.75,1.77,3.87,1.77,4.98,1.93,2.16,9.38,11.02,8.82,18.27-.06.79-.72,1.38-1.49,1.38Z"/>
  <path class="cls-1" d="m339.35,346.02c-5.53,0-6.47-3.21-6.62-4.6-.41-3.92,3.48-9.09,7.45-9.88,5.84-1.17,8.28.88,9.29,2.81.91,1.74,1.06,4.8-.42,7.28-1.17,1.96-3.77,4.32-9.53,4.39-.06,0-.12,0-.18,0Zm3.97-11.82c-.86,0-1.75.12-2.56.28h0c-2.42.48-5.3,4.26-5.05,6.63.14,1.3,1.41,1.94,3.78,1.91,3.46-.04,5.87-1.05,6.99-2.92.95-1.6.76-3.54.34-4.35-.62-1.18-2-1.55-3.5-1.55Zm-2.85-1.19h0,0Z"/>
  <path class="cls-1" d="m335.11,344.69c-.18,0-.36-.03-.54-.1-.14-.05-14.23-5.39-24.71-4.81-.82.05-1.54-.59-1.58-1.42-.04-.83.59-1.53,1.42-1.58,11.11-.61,25.34,4.77,25.94,5,.77.3,1.16,1.16.87,1.94-.23.6-.8.97-1.4.97Z"/>
  <path class="cls-1" d="m365.23,406.06c-4.52,0-9.75-1.54-16.27-5.26-.72-.41-.97-1.33-.56-2.05.41-.72,1.33-.97,2.05-.56,17.02,9.71,23.67,3.5,34.67-6.78l1.57-1.47c11.32-10.53,6.98-31.45-.98-41.23-9.32-11.45-22.92-14.35-36.38-7.75-.74.36-1.64.06-2.01-.69-.37-.74-.06-1.64.69-2.01,14.8-7.25,29.76-4.06,40.03,8.55,8.89,10.93,13.46,33.46.7,45.33l-1.57,1.46c-7.33,6.85-13.33,12.46-21.93,12.46Z"/>
  <path class="cls-1" d="m361.29,386.34c-6.56,0-14.73-2.44-23.57-7.17-.65-.35-.95-1.11-.71-1.8.12-.37,3.2-9.13,14.6-15.46,5.32-2.95,11.61-2.52,16.82,1.16,4.97,3.51,7.77,9.11,6.96,13.94-.55,3.32-2.64,6.03-5.88,7.62-2.31,1.14-5.09,1.7-8.23,1.7Zm-20.92-9.17c11.54,5.92,21.88,7.71,27.83,4.78,2.38-1.17,3.85-3.05,4.25-5.43.61-3.66-1.75-8.19-5.73-11-2.04-1.44-7.45-4.42-13.64-.99-7.98,4.42-11.5,10.2-12.7,12.63Z"/>
  <path class="cls-1" d="m363.56,378.36c-3.34,0-7.1-.9-10.14-2.58-3.7-2.05-5.92-5.06-6.25-8.46-.08-.82.52-1.56,1.35-1.64.83-.08,1.56.52,1.64,1.35.29,3.06,2.73,5.02,4.72,6.13,4.45,2.47,10.24,2.73,12.86,1.43,3.37-1.68,3.94-2.82,4.03-3.05-.07-.7.36-1.37,1.06-1.58.79-.24,1.63.21,1.87,1,.28.92.28,3.37-5.62,6.31-1.48.74-3.41,1.09-5.51,1.09Zm8.26-6.53h0,0Zm0,0h0Z"/>
  <path class="cls-1" d="m386.96,393.23c-.26,0-.53-.07-.78-.22-.71-.43-.94-1.35-.51-2.06,3.77-6.24,3.83-19.21-3.36-31.91-6.69-11.83-24.65-14.69-33.02-10.77-1.13.53-2.54,1.22-4.16,2.01-11.16,5.47-31.92,15.64-47.58,15.75h0c-.82,0-1.49-.67-1.5-1.49,0-.83.66-1.5,1.49-1.51,14.98-.1,35.34-10.08,46.28-15.44,1.64-.81,3.06-1.5,4.21-2.04,9.58-4.49,29.3-1.42,36.91,12.01,6.96,12.29,8.32,26.66,3.31,34.94-.28.47-.78.72-1.28.72Z"/>
  <path class="cls-1" d="m293,402.37c-.19,0-.38-.03-.56-.11-.57-.23-13.92-5.67-16.52-14.24-.24-.79.21-1.63,1-1.87.8-.24,1.63.21,1.87,1,2.19,7.21,14.64,12.28,14.77,12.33.77.31,1.14,1.18.83,1.95-.23.59-.8.94-1.39.94Z"/>
  <path class="cls-1" d="m332.08,407.58c-1.82,0-4.08-.35-6.14-.67-1.18-.18-2.29-.36-3.02-.41-3.22-.23-12.04-6.93-13.64-11.81-.8-2.45-.2-4.93,1.6-6.62,2.76-2.59,7.65-2.76,13.42-.46.77.31,1.15,1.18.84,1.95-.31.77-1.18,1.14-1.95.84-4.57-1.82-8.4-1.87-10.25-.14-.95.89-1.24,2.17-.8,3.5,1.3,3.97,9.2,9.62,11,9.75.85.06,1.97.23,3.27.44,2.38.37,5.64.87,6.93.52,1.77-.48,4.15-2.68,4.51-3.42.19-.76.94-1.25,1.72-1.11.81.15,1.36.93,1.21,1.74-.32,1.79-4.06,4.98-6.66,5.68-.57.16-1.27.22-2.04.22Zm5.75-6.44h0s0,0,0,0Zm.03-.12h0Z"/>
  <path class="cls-1" d="m343.93,403.13c-2.11,0-4.41-.49-6.35-1.84-.91-.63-2.13-1.37-3.43-2.16-4.83-2.92-10.3-6.23-10.76-10.04-.33-2.73.44-4.97,2.17-6.31,2.55-1.96,6.88-1.74,12.87.66h0c5.52,2.21,9.97,9.44,11.61,13.76.83,2.18.69,2.98.42,3.53-.55,1.1-2.09,1.7-3.28,2-.95.24-2.06.4-3.24.4Zm-13.84-18.68c-1.44,0-2.26.37-2.71.71-1.16.89-1.14,2.62-1.03,3.57.29,2.37,5.74,5.66,9.34,7.84,1.34.81,2.6,1.57,3.59,2.26,2.92,2.03,7.1,1.23,8.31.58-.52-2.27-4.9-11.03-10.3-13.19h0c-3.36-1.34-5.65-1.77-7.21-1.77Zm17.56,15.31h0Z"/>
  <path class="cls-1" d="m319.68,411.54s-.09,0-.13,0c-1.77-.08-16.47-3.53-18.93-7.55-1.05-1.73-1.19-3.77-.37-5.61,1.25-2.8,4.39-4.8,8.84-5.63.81-.15,1.6.39,1.75,1.2s-.39,1.6-1.2,1.75c-3.4.63-5.83,2.05-6.65,3.9-.42.95-.36,1.93.19,2.82,1.48,2.42,14.23,6.02,16.5,6.12h0c.38,0,1.48-1.4,2.12-3.14.28-.78,1.15-1.18,1.92-.9.78.28,1.18,1.14.9,1.92-.31.86-2,5.12-4.94,5.12Z"/>
  <path class="cls-1" d="m299.71,411.64c-2.17,0-4.34-1.1-5.89-2.11-1.88-1.23-4.66-3.63-4.96-5.13-.09-.45-.06-1.13.59-1.86,1.59-1.77,6.99-3.57,11.32-3.16.83.08,1.43.81,1.35,1.63s-.8,1.44-1.63,1.35c-3.35-.32-7.02,1.01-8.36,1.83,1.35,1.61,5.55,4.96,8.18,4.38,3.38-.74,4.58-2.5,4.63-2.58.45-.68,1.38-.89,2.06-.45.69.44.91,1.34.48,2.04-.18.29-1.91,2.91-6.53,3.92-.41.09-.83.13-1.25.13Z"/>
  <path class="cls-1" d="m303.05,359.51c-.3,0-.59,0-.86-.02-.83-.04-1.47-.74-1.43-1.56.04-.83.74-1.47,1.56-1.43,8.23.36,21.96-4.17,22.18-6.65.04-.52-.21-1.1-.75-1.71-2.14-2.42-8.01-4.47-13.37-4.67-.83-.03-1.47-.73-1.44-1.55.03-.83.73-1.48,1.55-1.44,6.28.23,12.8,2.61,15.51,5.68,1.09,1.23,1.6,2.6,1.49,3.96-.5,5.7-16.89,9.41-24.44,9.41Z"/>
  <path class="cls-1" d="m332.2,383.72c-.79,0-1.46-.62-1.5-1.42-.04-.84-1.01-20.6.45-27.14.18-.81.98-1.31,1.79-1.14.81.18,1.32.98,1.14,1.79-1.38,6.14-.4,26.13-.39,26.33.04.83-.6,1.53-1.42,1.57-.03,0-.05,0-.08,0Z"/>
  <path class="cls-1" d="m523.52,171.67c-1.09,0-2.18-.1-3.22-.3-.2-.04-.38-.11-.55-.23-.33-.22-8.01-5.41-8.53-11.92-.46-5.77-2.47-14.14-3.89-17.48-1.16-2.73-.32-4.75,1.36-8.79,1.12-2.69,2.65-6.37,4.45-12.07,3.04-9.65,8.53-16.13,13.37-21.85,2.43-2.87,4.72-5.58,6.44-8.39,3.8-6.21,3.41-11.92,3.2-14.99-.08-1.11-.13-1.85,0-2.45.58-2.54,3.58-4.71,4.49-5.31.34-.23,1.3-1.46,2.08-2.45,1.84-2.34,4.13-5.26,6.52-6.75,1.83-1.14,4.01-1.33,6.49-.56,4.71,1.45,9.23,6.06,9.96,7.7.96,2.15.2,8.92-.65,10.01-.44.56-1.17.8-2.27,1.15-.47.15-1.31.42-1.62.6l-.04.07c-2.18,3.65-2.93,4.58-3.49,4.97-.56.39-6.26,1.8-7.36.7-.18-.18-.27-.33-.53-.8-.38-.66-1.53-2.67-2.29-3.2-.79-.55-2.9-1.16-4.05-1.41-.81-.18-1.32-.98-1.14-1.79.18-.81.98-1.32,1.79-1.14.36.08,3.57.81,5.1,1.88,1.09.76,2.1,2.29,3.02,3.89,1.12-.1,3.16-.41,3.78-.63.16-.19.8-1.01,2.59-4.01l.13-.22c.56-.93,1.84-1.33,3.2-1.77.23-.07.53-.17.76-.25.35-1.48.8-5.75.32-6.83-.39-.86-4.22-4.88-8.12-6.06-1.6-.49-2.95-.4-4,.25-1.94,1.21-4.14,4.01-5.74,6.05-1.35,1.72-2.08,2.63-2.77,3.1-1.69,1.12-3.01,2.56-3.22,3.48-.04.21.02.97.06,1.58.23,3.4.67,9.73-3.63,16.76-1.84,3.01-4.21,5.8-6.71,8.76-4.66,5.5-9.93,11.74-12.79,20.82-1.84,5.83-3.4,9.58-4.54,12.32-1.62,3.88-2.01,4.96-1.37,6.46,1.55,3.62,3.64,12.27,4.12,18.42.36,4.5,5.74,8.62,6.96,9.49,4.32.73,8.48-.54,9.38-2.89.38-.99.73-2.21,1.08-3.39.92-3.15,1.71-5.87,3.38-6.91,1.18-.73,2.73-3.71,2.8-6.02.07-2.36-.71-5.32-.72-5.35-.21-.8.26-1.62,1.06-1.84.8-.21,1.62.26,1.84,1.06.04.14.9,3.41.82,6.21-.08,2.82-1.83,6.99-4.21,8.48-.7.44-1.57,3.42-2.08,5.2-.36,1.24-.73,2.52-1.15,3.62-1.33,3.47-5.59,5.02-9.83,5.02Zm39-97.42h0Z"/>
  <path class="cls-1" d="m555.88,82.64c-.53,0-1.05-.28-1.32-.78-.03-.06-3.25-5.92-7.73-9.16-.67-.49-.82-1.42-.34-2.09.49-.67,1.42-.82,2.09-.34,5.05,3.65,8.47,9.9,8.61,10.16.39.73.12,1.64-.6,2.03-.23.12-.47.18-.71.18Z"/>
  <path class="cls-1" d="m558.5,78.58c-.71,0-1.35-.51-1.48-1.24-.18-1-.75-3.85-1.31-5-.42-.87-3.63-2.95-7.5-4.1-.79-.23-1.25-1.07-1.01-1.86.24-.79,1.07-1.25,1.86-1.01,2.98.88,8.16,3.2,9.35,5.67.84,1.73,1.49,5.38,1.57,5.79.14.82-.4,1.59-1.22,1.74-.09.02-.18.02-.26.02Z"/>
  <path class="cls-1" d="m561.12,76.94c-.78,0-1.44-.61-1.5-1.4-.16-2.5-.43-5.52-.6-6.25-.22-.24-1.06-.73-1.94-1.25-1.24-.73-2.93-1.74-5.29-3.33-.69-.46-.87-1.4-.4-2.08.46-.69,1.4-.87,2.08-.4,2.28,1.54,3.93,2.52,5.14,3.24,1.95,1.16,2.93,1.74,3.27,2.94.33,1.14.64,5.6.72,6.94.05.83-.57,1.54-1.4,1.59-.03,0-.07,0-.1,0Zm-2.06-7.61h0,0Z"/>
  <path class="cls-1" d="m551.13,88.04c-1.17,0-1.97-.06-2-.06-.83-.07-1.44-.8-1.37-1.62.07-.83.8-1.43,1.62-1.37,3.55.3,7.81-.36,8.61-1.09.55-3.2,5.16-6.44,5.36-6.58,1.55-1.08,3.32-3.86,3.02-5.23-.32-1.43-1.46-2.73-1.47-2.75-.55-.62-.49-1.57.12-2.12.62-.55,1.56-.5,2.11.12.17.19,1.68,1.92,2.16,4.09.72,3.26-2.45,7.1-4.23,8.34-1.83,1.27-3.97,3.5-4.12,4.67-.42,3.17-6.56,3.59-9.82,3.59Z"/>
  <path class="cls-1" d="m534.81,99.14s-.07,0-.1,0c-.43-.03-.83-.24-1.1-.59l-3.85-5.09c-.44-.58-.4-1.38.09-1.92.47-.51,11.53-12.61,14.06-14.99.6-.57,1.55-.54,2.12.07.57.6.54,1.55-.07,2.12-2.05,1.93-10.36,10.97-13.05,13.9l2.05,2.71,14.41-14.55c.58-.59,1.53-.59,2.12-.01.59.58.59,1.53,0,2.12l-15.62,15.78c-.28.29-.67.44-1.07.44Z"/>
  <path class="cls-1" d="m564.62,69.58c-.33,0-.65-.1-.93-.32-.65-.51-.76-1.46-.25-2.11l7.34-9.32c.04-.65-.02-1.55-.32-1.95-.28-.38-1.01-.68-1.63-.86l-8.11,7.06c-.63.54-1.57.48-2.12-.15-.54-.62-.48-1.57.15-2.12l8.69-7.55c.33-.29.78-.42,1.21-.35.49.08,2.98.54,4.21,2.18,1.27,1.69.89,4.29.85,4.58-.04.25-.14.49-.3.69l-7.61,9.66c-.3.38-.74.57-1.18.57Z"/>
  <path class="cls-1" d="m573.77,72.36c-.12,0-.24-.01-.36-.04l-7.75-1.9c-.67-.16-1.14-.77-1.14-1.46v-2.42c0-.83.67-1.5,1.5-1.5s1.5.67,1.5,1.5v1.24l4.9,1.2,1.95-23.53-6.98-1.12-.91,11.94c-.06.83-.8,1.45-1.61,1.38-.83-.06-1.44-.78-1.38-1.61l1.04-13.57c.03-.42.24-.8.57-1.06.33-.26.75-.37,1.17-.3l9.96,1.59c.77.12,1.32.82,1.26,1.6l-2.21,26.67c-.04.44-.26.84-.62,1.09-.26.19-.56.28-.88.28Z"/>
  <path class="cls-1" d="m575.98,45.69c-.14,0-.28-.02-.43-.06-.79-.23-1.25-1.07-1.01-1.86l.44-1.5-4.54-.72-3.62,2.31c-.7.44-1.63.24-2.07-.46-.45-.7-.24-1.63.46-2.07l4.1-2.62c.31-.2.68-.27,1.04-.22l6.78,1.08c.43.07.8.32,1.03.68s.29.81.17,1.23l-.92,3.13c-.19.65-.79,1.08-1.44,1.08Z"/>
  <path class="cls-1" d="m573.77,72.36c-.2,0-.4-.04-.6-.12-.76-.33-1.11-1.21-.78-1.97l2.3-5.28.71-23.97c.02-.83.71-1.48,1.54-1.46.83.02,1.48.72,1.45,1.54l-.72,24.26c0,.19-.05.38-.12.55l-2.42,5.55c-.25.56-.8.9-1.38.9Z"/>
  <path class="cls-1" d="m531.83,138.63c-.35,0-.7-.12-.99-.37-.62-.54-.69-1.49-.14-2.12,4.04-4.63,7-13.44,8.96-19.27.76-2.25,1.41-4.2,1.98-5.48.68-1.55,1.56-4.17,2.58-7.2,1.92-5.7,4.31-12.8,7.1-18.03.39-.73,1.3-1.01,2.03-.62.73.39,1.01,1.3.62,2.03-2.68,5.01-5.02,11.98-6.91,17.58-1.04,3.1-1.94,5.77-2.68,7.45-.51,1.16-1.14,3.04-1.88,5.23-2.16,6.42-5.11,15.21-9.54,20.28-.3.34-.71.51-1.13.51Z"/>
  <path class="cls-1" d="m529.67,131c-.34,0-.68-.11-.96-.35-.64-.53-.72-1.48-.19-2.11,2.56-3.07,4.97-10.56,7.3-17.81,1.37-4.25,2.78-8.64,4.25-12.25.31-.77,1.18-1.14,1.96-.82.77.31,1.13,1.19.82,1.96-1.43,3.5-2.83,7.83-4.17,12.03-2.53,7.87-4.92,15.3-7.86,18.81-.3.35-.72.54-1.15.54Z"/>
  <path class="cls-1" d="m520.29,144.19c-1.6,0-7.72-.21-10.47-3.28-.55-.62-.5-1.57.12-2.12.62-.55,1.56-.5,2.12.12,1.76,1.97,6.71,2.31,8.49,2.28.01,0,.02,0,.03,0,.81,0,1.48.65,1.5,1.47.02.83-.64,1.51-1.47,1.53-.07,0-.17,0-.32,0Z"/>
  <path class="cls-1" d="m538.54,144.57c-.57,0-1.11-.32-1.36-.87,0-.02-1.34-2.78-5.07-5.87-.64-.53-.73-1.48-.2-2.11.53-.64,1.48-.73,2.11-.2,4.3,3.57,5.82,6.79,5.88,6.92.35.75.02,1.64-.73,1.99-.2.09-.42.14-.63.14Z"/>
  <path class="cls-1" d="m522.71,182.96s-.06,0-.08,0c-4.46-.09-10.02-7.9-10.02-10.21,0-1.43.63-6.81.7-7.42.1-.82.83-1.41,1.67-1.31.82.1,1.41.84,1.31,1.67-.19,1.57-.66,5.81-.68,7,.34,1.35,4.59,7.23,7.09,7.28.01,0,.03,0,.04,0,3,0,14.85-6.12,19.45-9.16,3.43-2.27,6.73-12.9,6.07-14.76-1.19-1.92-3.9-7.88-4.18-9.66-.08-.52-.63-1.84-1.8-2.59-1.03-.66-2.36-.78-3.95-.34-.8.22-1.62-.25-1.85-1.05-.22-.8.25-1.62,1.05-1.84,3.05-.84,5.15-.08,6.37.71,2.11,1.36,2.96,3.56,3.13,4.64.17,1.1,2.52,6.53,3.8,8.62,1.8,2.92-2.47,15.77-7,18.77-3.43,2.27-16.65,9.65-21.13,9.65Zm-7.12-10.32h0Z"/>
  <path class="cls-1" d="m537.15,165.54c-.73,0-1.38-.54-1.48-1.29-.32-2.25,1.11-5.26,3.94-8.26,2.22-2.35,4.03-9.15,2.77-12.38-.3-.77.08-1.64.85-1.94.78-.3,1.64.08,1.94.85,1.74,4.47-.44,12.41-3.38,15.53-2.37,2.51-3.3,4.75-3.15,5.77.12.82-.45,1.58-1.27,1.7-.07.01-.14.02-.21.02Z"/>
  <path class="cls-1" d="m521.83,174.95c-2.45,0-5.37-.26-8.18-1.17-.79-.25-1.22-1.1-.96-1.89.25-.79,1.11-1.22,1.89-.96,5.77,1.87,12.43.6,12.5.59.82-.16,1.6.37,1.76,1.18.16.81-.37,1.6-1.18,1.76-.17.03-2.58.5-5.82.5Z"/>
  <path class="cls-1" d="m555.96,172.16c-.73,0-1.37-.54-1.48-1.28,0-.06-.83-5.57-3.21-9.27-.6-.93-1.24-1.65-1.91-2.16-.66-.5-.79-1.44-.29-2.1.5-.66,1.44-.79,2.1-.29.95.72,1.84,1.71,2.62,2.93,2.74,4.25,3.62,10.21,3.66,10.46.12.82-.45,1.58-1.27,1.7-.07.01-.15.02-.22.02Z"/>
  <path class="cls-1" d="m567.21,170.08c-.61,0-1.19-.38-1.41-.99-.45-1.25-2.05-4.79-3.99-6.14-2.75-1.91-4.68-2.83-8.11.6-.59.59-1.54.59-2.12,0s-.59-1.54,0-2.12c5.03-5.03,8.8-3.12,11.94-.94,3.13,2.18,5.03,7.37,5.1,7.59.28.78-.12,1.64-.9,1.92-.17.06-.34.09-.51.09Z"/>
  <path class="cls-1" d="m573.38,164.38c-.37,0-.75-.14-1.04-.42-.05-.04-4.72-4.39-6.92-2.18-.59.58-1.54.59-2.12,0s-.59-1.54,0-2.12c3.44-3.44,8.61-.27,11.12,2.14.6.57.62,1.52.04,2.12-.29.31-.69.46-1.08.46Z"/>
  <path class="cls-1" d="m585.35,163.62c-.32,0-.57-.01-.69-.03-1.33-.19-2.36-1.29-2.99-2.19-.88-1.26-1.79-3.35-1.43-5.08.42-2.03,2.84-3.32,4.2-3.89.28-1.21.64-2.69.9-3.6-.67-.67-2.59-1.99-4.64-1.33-.79.25-1.63-.18-1.88-.97-.25-.79.18-1.63.97-1.89,3.55-1.13,6.7.99,7.86,2.27.76.84.99,1.64.68,2.37-.13.35-.7,2.67-1.15,4.6-.12.5-.49.91-.98,1.08-1.42.49-2.92,1.46-3.02,1.97-.24,1.15,1.23,3.51,1.92,3.68,1.28.19,5.1-.43,6.04-1.05.15-.7.03-2-.11-2.73-.16-.81.37-1.6,1.19-1.76.81-.16,1.6.37,1.76,1.19.09.47.51,2.87-.06,4.48-.84,2.38-6.46,2.87-8.57,2.87Zm.22-15.52s-.01.03-.02.05c0-.02.01-.03.02-.05Z"/>
  <path class="cls-1" d="m599.98,151.89c-1.2,0-2.54-.62-3.85-1.23-.64-.3-1.58-.73-2-.8-.65.26-1.42.03-1.81-.58-.45-.7-.25-1.62.45-2.07,1.27-.81,2.82-.09,4.62.74.82.38,2.05.95,2.58.95.03,0,.06,0,.09,0,.8,0,1.46.63,1.5,1.44.03.83-.61,1.53-1.44,1.56-.05,0-.09,0-.14,0Z"/>
  <path class="cls-1" d="m618,161.49c-3.38,0-7.94-4.02-9.33-5.77-1.41-1.77-1.32-3.49-1.24-5.15.05-1.04.11-2.12-.14-3.44-.32-1.68-1.67-3.13-3.53-5.13-.76-.81-1.58-1.68-2.41-2.67-.17,1.2-.49,2.89-1.08,5.06-.15.57-.63,1-1.22,1.09-.58.09-1.17-.17-1.49-.67-1.12-1.72-1.91-4.51-2.67-7.22-.49-1.73-1.27-4.49-1.9-5.47,0,0-.01.01-.02.02-.33.41-.85.62-1.38.54-3.98-.58-9.1-.31-10.79,4.21-.26.7-.49,1.34-.69,1.9-1.2,3.43-2,5.69-6.55,4.58-2.01-.49-3.66-2.19-4.53-4.66-1.07-3.04-.73-6.45.87-8.83.14-1.81.98-8.09,5.86-10.3,0-2.19,1.48-4.82,3.27-6.58,2.25-2.23,4.91-3.05,7.27-2.29,2.22-1.3,6.85-2.55,9.37-3.02,4.78-.88,11.26-1.17,15.52,2.3,5.45-.33,11.21,4.94,14.92,10.15,2.75,3.86,5.4,9.2,4.96,12.95,2.77,1.06,4.55,4.15,5.1,7.01.59,3.07-.19,5.72-1.99,7.01-.41,2.08-1.81,7.65-5.21,9.15-1.38,2.11-4.53,5.08-8.69,4.44-.53.46-1.19.73-1.94.79-.11,0-.22.01-.34.01Zm-17.95-27.86c.49,0,.96.24,1.25.67,1.55,2.34,3.19,4.1,4.64,5.65,2.05,2.19,3.82,4.08,4.29,6.62.31,1.68.25,3.05.19,4.15-.08,1.56-.08,2.29.59,3.14,1.46,1.85,5.35,4.74,7.07,4.63.2-.02.24-.06.31-.19.34-.61,1.05-.91,1.72-.72,3.99,1.13,6.51-3.26,6.53-3.3.2-.35.52-.6.91-.71,1.85-.51,3.32-4.78,3.78-7.65.08-.5.4-.92.86-1.13,1.16-.52,1.35-2.45,1.02-4.13-.46-2.39-2.01-4.86-4.09-4.95-.51-.02-.98-.31-1.24-.75s-.26-.99-.02-1.45c.85-1.61-.49-6.41-4.21-11.63-4.21-5.92-9.22-9.39-12.74-8.85-.45.07-.92-.07-1.25-.39-5.79-5.41-20.1-.61-22.07.75-.17.19-.39.34-.64.42-.38.13-.8.1-1.15-.08-1.87-.94-3.72.47-4.66,1.4-1.92,1.89-2.6,4.2-2.32,4.77.2.4.2.87.01,1.28s-.55.71-.98.82c-4.69,1.23-4.97,8.36-4.97,8.43,0,.31-.12.62-.31.87-1.21,1.58-1.49,4.16-.7,6.41.52,1.47,1.42,2.5,2.41,2.74q1.91.47,3-2.66c.21-.58.43-1.24.71-1.96,1.8-4.81,6.5-7,13.27-6.22.87-.74,1.68-.78,2.25-.67,2.17.45,3.05,3.54,4.26,7.83.2.69.4,1.4.61,2.1.17-1.15.17-1.74.17-1.75,0-.38.14-.72.38-.98-.04-.06-.08-.13-.13-.19-.46-.69-.27-1.62.42-2.08.25-.17.54-.25.83-.25Zm-12.52-20.2s0,0,0,0h0Zm.29-.38h0Zm0,0s0,0,0,0c0,0,0,0,0,0Z"/>
  <path class="cls-1" d="m591.7,180.08c-4.25,0-9.42-1.56-10.95-2.52-2.44-1.54-7.01-9.35-7.06-11.49-.02-.81.2-2.21.57-4.44.35-2.13.78-4.78.71-5.82-.09-1.21.04-3.79.19-6.77.13-2.59.27-5.53.27-7.68,0-.83.67-1.5,1.5-1.5s1.5.67,1.5,1.5c0,2.22-.15,5.2-.28,7.82-.14,2.77-.26,5.38-.19,6.41.1,1.39-.33,4-.74,6.52-.25,1.55-.54,3.32-.53,3.88.15,1.33,4.02,7.99,5.66,9.02,1.84,1.16,9.91,3.02,12.28,1.54,6.26-3.91,11.56-7.89,12.07-9.04.36-1.91,1.05-5.64,1.05-5.64l2.95.55s-.7,3.74-1.08,5.75c-.37,1.93-4.88,5.61-13.4,10.93-1.13.7-2.75.98-4.52.98Z"/>
  <path class="cls-1" d="m609.84,164.92c-.82,0-1.48-.66-1.48-1.48s.66-1.5,1.48-1.52c.46,0,1.76-1.38,2.61-2.97.39-.73,1.3-1.01,2.03-.62s1.01,1.3.62,2.03c-.57,1.07-2.63,4.56-5.26,4.56Z"/>
  <path class="cls-1" d="m600.05,167.08c-.61,0-1.18-.37-1.4-.97-.63-1.68,2.48-7.94,5.05-10.15.63-.54,1.58-.47,2.12.16.54.63.47,1.58-.16,2.12-2.17,1.86-3.94,6.22-4.11,7.18.07.66-.31,1.32-.96,1.56-.17.07-.35.1-.53.1Zm1.4-2.03s0,0,0,0c0,0,0,0,0,0Z"/>
  <path class="cls-1" d="m591.49,170.09c-.56,0-1.35-.22-3.18-.74-1.83-.52-4.34-1.24-5.88-1.36-.83-.06-1.44-.79-1.38-1.61.06-.83.79-1.45,1.61-1.38,1.84.14,4.4.88,6.47,1.46.88.25,1.97.56,2.34.62.7-.04,1.38.42,1.55,1.13.2.8-.29,1.62-1.09,1.82-.14.04-.28.05-.45.05Zm-.28-2.97s0,0,0,0t0,0Z"/>
  <path class="cls-1" d="m587.87,172.17c-.09,0-.18,0-.28-.03-.09-.02-2.15-.4-3.96-.87-.8-.21-1.28-1.03-1.07-1.83.21-.8,1.03-1.28,1.83-1.07,1.7.44,3.73.82,3.75.82.81.15,1.35.93,1.2,1.75-.13.72-.76,1.23-1.47,1.23Z"/>
  <path class="cls-1" d="m612.69,173.85c-.81,0-1.47-.64-1.5-1.46-.03-.84-.2-8.34,1.19-11.7.32-.76,1.2-1.13,1.96-.81.77.32,1.13,1.2.81,1.96-.97,2.34-1.03,8.34-.96,10.46.02.83-.63,1.52-1.46,1.54-.02,0-.03,0-.04,0Z"/>
  <path class="cls-1" d="m644.53,243.93c-.07,0-.13,0-.2-.01-.82-.11-1.4-.86-1.29-1.68.48-3.64,1.6-13.83.94-17.17-.68-3.46,1.16-8.44,2.37-11.74.38-1.02.81-2.19.85-2.54.12-.95-.46-1.64-1.9-2.93-1.26-1.13-1.39-3.96-1.4-10.62,0-2.49,0-5.07-.22-6.17-.48-2.45-1.13-3.23-4.99-7.53l-.98-1.09c-4.92-5.49-13.2-8.68-13.28-8.71-.27-.1-1.08-.2-1.79-.29-2.84-.35-7.6-.93-10.96-4.29-.59-.59-.59-1.54,0-2.12.59-.59,1.54-.59,2.12,0,2.63,2.63,6.58,3.11,9.2,3.43,1.09.13,1.88.23,2.48.45.09.03,8.98,3.39,14.47,9.52l.97,1.08c3.88,4.32,5.05,5.62,5.7,8.96.27,1.38.27,3.87.28,6.74,0,2.8.01,7.44.49,8.47,1.35,1.21,3.13,2.86,2.79,5.47-.08.66-.41,1.55-1.01,3.19-1.03,2.8-2.76,7.49-2.24,10.13.88,4.51-.84,17.58-.91,18.14-.1.75-.75,1.3-1.49,1.3Z"/>
  <path class="cls-1" d="m623.56,210.32c-.63,0-1.21-.39-1.42-1.02-.15-.44-3.64-10.92-2.46-21.08.1-.82.84-1.41,1.66-1.32.82.1,1.41.84,1.32,1.66-1.1,9.48,2.29,19.67,2.32,19.77.26.78-.16,1.64-.94,1.9-.16.05-.32.08-.48.08Z"/>
  <path class="cls-1" d="m593.58,204.85s-.07,0-.11,0c-.83-.06-1.45-.78-1.39-1.61l1.21-16.48c-3.55-.74-13.12-3.1-17.11-7.63-5.05-5.73-2.94-12.78-2.85-13.07.25-.79,1.08-1.23,1.88-.99.79.25,1.23,1.08.99,1.88-.07.23-1.68,5.76,2.24,10.21,4.14,4.7,16.58,6.89,16.7,6.91.76.13,1.3.82,1.24,1.59l-1.31,17.81c-.06.79-.72,1.39-1.49,1.39Z"/>
  <path class="cls-1" d="m595.02,187.04c-.06,0-.12,0-.18,0-.83-.02-1.48-.72-1.45-1.54.02-.83.74-1.49,1.54-1.46,4.15.1,13.85-7.21,16.35-13.47.31-.77,1.18-1.14,1.95-.84.77.31,1.14,1.18.84,1.95-2.8,6.99-13.22,15.36-19.05,15.36Z"/>
  <path class="cls-1" d="m582.42,258.07c-4.06,0-6.1-.63-6.93-1.98-.62-.95-5.96-1.29-10.79-.68-2.51.31-8.31-2.9-10.03-3.89-.58-.34-1.38-.89-1.54-1.85-.17-.97.41-1.66.72-2.03.04-.04.08-.1.12-.14-.21-.38-.85-1.19-1.34-1.8-1.06-1.33-2.38-2.98-3-4.67-.72-1.93-.66-3.21-.61-4.24.03-.57.04-1.01-.06-1.52-.12-.54-.95-2.26-1.62-3.65-1.93-4.01-2.82-6.04-2.64-7.36.19-1.36,1.39-2.35,3.21-3.86,1.81-1.5,4.29-3.56,6.9-6.82,4.54-5.66,8.8-23.39,9.32-27.98.41-3.6,2.69-15.49,7.65-22.73.47-.68,1.4-.86,2.09-.39.68.47.86,1.4.39,2.09-4.28,6.23-6.66,17.09-7.15,21.37-.46,4.09-4.64,22.9-9.96,29.52-2.8,3.49-5.42,5.66-7.33,7.25-.9.75-1.92,1.6-2.14,1.98.09.91,1.56,3.97,2.37,5.63,1.03,2.13,1.66,3.47,1.85,4.31.19.89.16,1.63.13,2.29-.04.91-.08,1.7.43,3.06.46,1.24,1.56,2.62,2.54,3.85,1.06,1.34,1.83,2.3,2.01,3.28.15.86-.16,1.54-.48,2,3.4,1.93,6.92,3.43,7.83,3.32,1.93-.24,11.66-1.27,13.72,2.09.45.4,2.71,1.01,12.31.04.72-.07,1.26-.13,1.52-.14l.94-.05c2.26-.13,3.82-.19,4.73.14.65.19,3.94.32,4.71.22.65-.22,1.4.03,1.77.65.43.71.2,1.63-.51,2.06-1.07.64-6.23.17-6.99-.11-.49-.14-2.54-.02-3.53.04-.34.02-.67.04-.97.05-.24.01-.72.06-1.37.13-3.39.34-6.1.52-8.25.52Zm19.56-3.2s0,0,0,0c0,0,0,0,0,0Z"/>
  <path class="cls-1" d="m592.83,205.71c-13.5,0-24.82-9.9-25.31-10.33-.35-.31-.54-.78-.5-1.25.05-.64,1.38-15.7,5.91-26.59.32-.76,1.2-1.13,1.96-.81.76.32,1.13,1.2.81,1.96-3.79,9.1-5.29,21.7-5.62,24.92,2.45,1.98,12.42,9.4,23.44,9.09,10.56-.3,14.88-3.71,15.93-4.73l2.26-28.73c.06-.83.8-1.44,1.61-1.38.83.07,1.44.79,1.38,1.61l-2.3,29.25c-.02.29-.13.56-.3.79-.18.24-4.53,5.78-18.5,6.18-.26,0-.53.01-.79.01Z"/>
  <path class="cls-1" d="m622.25,222.89c-.16,0-.32-.03-.47-.08l-6.48-2.16c-.61-.2-1.03-.78-1.03-1.43,0-1.55.09-38.11,1.01-48.69.07-.83.8-1.44,1.62-1.36.83.07,1.44.8,1.36,1.62-.82,9.45-.97,41.08-.99,47.35l3.71,1.24c.55-3.97,2.16-13.7,5.87-23.43.29-.77,1.16-1.16,1.94-.87.77.29,1.16,1.16.87,1.94-4.58,12.01-5.91,24.4-5.92,24.52-.05.45-.3.86-.68,1.1-.25.16-.53.24-.81.24Z"/>
  <path class="cls-1" d="m630.73,227.51c-.28,0-.57-.08-.82-.25-.69-.45-.89-1.38-.43-2.08.09-.14,9.17-14.08,9.31-22.25.01-.82.68-1.47,1.5-1.47h.03c.83.02,1.49.7,1.47,1.53-.16,9.04-9.41,23.25-9.81,23.85-.29.44-.77.68-1.25.68Z"/>
  <path class="cls-1" d="m631.2,234.6c-.32,0-.64-.1-.92-.31-.66-.51-.78-1.45-.27-2.1,2.91-3.78,10.77-14.5,12.09-18.66.25-.79,1.09-1.23,1.88-.97.79.25,1.22,1.1.97,1.88-1.76,5.51-12.13,19.01-12.58,19.58-.29.38-.74.58-1.19.58Z"/>
  <path class="cls-1" d="m622.94,229.82c-.64,0-1.23-.41-1.43-1.05-.03-.1-.76-2.51-.76-7.38,0-.83.67-1.5,1.5-1.5s1.5.67,1.5,1.5c0,4.35.62,6.48.63,6.5.24.79-.21,1.63-1,1.87-.15.04-.29.07-.44.07Z"/>
  <path class="cls-1" d="m618,240.3c-.55,0-1.07-.3-1.33-.82-.06-.12-.59-1.22-.84-3.41-.23-1.97,1.54-3.61,3.99-5.87,1.31-1.21,2.79-2.57,4.14-4.16.54-.63,1.48-.7,2.12-.17.63.54.7,1.48.17,2.11-1.47,1.72-3.02,3.15-4.39,4.41-1.26,1.16-2.99,2.76-3.05,3.35.19,1.61.55,2.4.55,2.41.35.74.04,1.64-.7,1.99-.21.1-.44.15-.66.15Z"/>
  <path class="cls-1" d="m636.71,268.81c-1.99,0-3.42-.14-3.51-.14-.82-.08-1.43-.81-1.35-1.64.08-.82.81-1.42,1.64-1.35.03,0,3.07.29,6.35,0,1.92-.17,2.92-1.9,3.71-3.5.13-.27.25-.49.34-.65.41-1.27.51-7.25,0-8.28-.42-.76-1.09-2.25-1.8-3.82-.76-1.69-1.62-3.6-2.12-4.49-.94-1.66-4.45-7.07-10.29-7.18-8.97.71-12.31,2.54-12.45,3.26-.33,1.66-1.58,3.16-2.68,4.48-.46.55-1.12,1.34-1.32,1.76.79,1.36,2.18,3.29,2.2,3.31.49.67.34,1.61-.33,2.09-.67.49-1.61.34-2.09-.33-.07-.09-1.68-2.33-2.53-3.85-.92-1.66.45-3.3,1.77-4.89.87-1.04,1.86-2.23,2.04-3.14.61-3.02,5.73-4.93,15.23-5.67.04,0,.09,0,.13,0,7.48.09,11.79,6.68,12.93,8.7.57,1.01,1.42,2.9,2.25,4.73.65,1.45,1.33,2.95,1.69,3.61,1.07,1.95.86,9.82-.05,11.24-.07.1-.14.27-.24.46-.71,1.44-2.38,4.82-6.14,5.16-1.21.11-2.38.14-3.4.14Zm7.25-7.38s0,0,0,0c0,0,0,0,0,0Z"/>
  <path class="cls-1" d="m595.79,279.88c-2.6,0-7.98-.79-9.14-.97-.82-.12-1.38-.89-1.26-1.71.12-.82.89-1.38,1.71-1.26,2.87.43,7.89,1.07,9.16.92,2.18-.26,15.71-2.33,17.83-3.15l.18-.07c12.41-4.8,15.1-6.3,15.67-6.69.19-.4.52-.96,1.06-1.87.87-1.48,3.17-5.4,3.09-6.46-.46-1.35-1.67-4.16-4.38-6.79-1.8-1.75-6.24-2.69-8.37-2.99-2.22,1.49-10.34,6.86-13.13,7.67-.54.16-1.94,1.15-3.28,2.11-4.63,3.3-12.37,8.84-21.3,8.12-.06,0-.12-.01-.19-.03-11.33-2.36-18.37.05-18.82,1.95-.49,2.11-1.95,4.37-3.12,5.93.68-.04,1.46-.25,2.2-.83,2.7-2.1,6.12-5.21,6.15-5.24.61-.56,1.56-.51,2.12.1.56.61.51,1.56-.1,2.12-.14.13-3.54,3.23-6.33,5.39-3.48,2.71-7.29.85-7.45.77-.42-.21-.72-.61-.8-1.07-.09-.46.05-.94.37-1.29.93-1.02,3.48-4.18,4.04-6.57,1.1-4.73,10.87-6.58,22.25-4.23,7.79.58,14.95-4.52,19.23-7.57,1.9-1.36,3.16-2.25,4.19-2.55,1.98-.57,8.71-4.85,12.76-7.59.29-.2.65-.29,1-.25.77.08,7.61.91,10.67,3.88,3.17,3.08,4.59,6.38,5.16,8.08.56,1.69-.64,4.2-3.37,8.84-.39.66-.88,1.49-.96,1.71-.3.83-.6,1.69-17.26,8.14l-.18.07c-2.69,1.04-17.01,3.14-18.56,3.33-.22.03-.5.04-.82.04Zm34.25-13.02h0Z"/>
  <path class="cls-1" d="m568.39,290.3c-1.5,0-3.64-.47-5.91-2.74-.59-.59-.59-1.54,0-2.12s1.54-.59,2.12,0c2.24,2.24,3.97,1.92,4.9,1.74l.25-.04c.57-.13,3.9-1.54,6.65-2.78.76-.34,1.64,0,1.98.75.34.76,0,1.64-.75,1.98-2.34,1.05-6.41,2.84-7.38,3l-.19.03c-.37.07-.94.18-1.66.18Z"/>
  <path class="cls-1" d="m578.61,289.69c-.49,0-1.03-.1-1.63-.22-.97-.19-2.3-.44-4.14-.44-.83,0-1.5-.67-1.5-1.5s.67-1.5,1.5-1.5c2.12,0,3.68.3,4.71.5.33.06.72.14.93.16.28-.15.63-.28,1.1-.46,1.38-.52,3.95-1.5,5.03-3.14,1.86-2.84,5.14-5.71,5.27-5.83.62-.54,1.57-.48,2.12.14.54.62.48,1.57-.14,2.12-.03.03-3.1,2.72-4.74,5.21-1.62,2.46-4.78,3.66-6.47,4.3-.3.11-.67.25-.77.31-.39.26-.81.35-1.27.35Z"/>
  <path class="cls-1" d="m557.72,289.02c-1.75,0-3.3-.36-4.37-1.29-.35-.31-.54-.76-.51-1.22s.27-.89.66-1.15c.19-.13,4.59-3.11,6.22-4.12,1.23-.76,2.66-2.81,2.09-4.27-.3-.77.08-1.64.86-1.94.77-.3,1.64.08,1.94.86,1.25,3.22-1.23,6.62-3.31,7.91-.75.46-2.16,1.4-3.44,2.25,3.52-.09,9.16-2.1,10.96-3.37.68-.48,1.61-.31,2.09.36.48.68.31,1.61-.36,2.09-1.57,1.1-7.96,3.89-12.83,3.89Z"/>
  <path class="cls-1" d="m521.73,286.79c-.34,0-.67-.11-.93-.33-3.83-3.04-7.75-4.56-10.74-4.14-1.78.25-3.21,1.15-4.37,2.76-.49.67-1.42.82-2.09.34-.67-.48-.82-1.42-.34-2.09,1.65-2.28,3.8-3.62,6.4-3.98,4.97-.69,10.02,2.49,12.44,4.31l36.31-8.32c.81-.19,1.61.32,1.8,1.13.19.81-.32,1.61-1.13,1.8l-37,8.48c-.11.03-.22.04-.33.04Z"/>
  <path class="cls-1" d="m524.89,290.72c-.75,0-1.39-.55-1.49-1.31-.1-.82.48-1.57,1.3-1.67l31.39-3.93c.83-.1,1.57.48,1.67,1.3.1.82-.48,1.57-1.3,1.67l-31.39,3.93c-.06,0-.13.01-.19.01Z"/>
  <path class="cls-1" d="m524.51,292.73h-60.98c-.83,0-1.5-.67-1.5-1.5v-5.15c0-.82.66-1.49,1.48-1.5l60.98-.78c.38,0,.79.15,1.07.43.29.28.45.67.45,1.07v5.94c0,.83-.67,1.5-1.5,1.5Zm-59.48-3h57.98v-2.92l-57.98.74v2.17Z"/>
  <path class="cls-1" d="m552.75,365.75h-92.92c-.83,0-1.5-.67-1.5-1.5v-10.89c0-.83.67-1.5,1.5-1.5h17.82c-1-6.6-5.88-31.27-24.2-41.4-21.73-12.01-37.35-17.77-37.51-17.82-.68-.25-1.09-.95-.96-1.67.13-.72.75-1.24,1.48-1.24h158c.83,0,1.5.67,1.5,1.5v14.03c0,.77-.58,1.42-1.35,1.49-.34.03-34.06,3.59-36.82,20.34-2.26,13.69-2.49,22.05-2.48,25.19h17.44c.83,0,1.5.67,1.5,1.5v10.48c0,.83-.67,1.5-1.5,1.5Zm-91.42-3h89.92v-7.48h-17.41c-.79,0-1.45-.62-1.5-1.41-.02-.37-.49-9.21,2.48-27.26,2.82-17.13,31.43-21.81,38.13-22.68v-11.2h-148.8c6.71,2.86,17.64,7.86,30.75,15.11,22.53,12.46,25.82,44.04,25.95,45.38.04.42-.1.84-.38,1.15s-.69.49-1.11.49h-18.03v7.89Z"/>
  <path class="cls-1" d="m533.83,354.86h-54.47c-.83,0-1.5-.67-1.5-1.5s.67-1.5,1.5-1.5h54.47c.83,0,1.5.67,1.5,1.5s-.67,1.5-1.5,1.5Z"/>
  <path class="cls-1" d="m550.59,442.1s-.02,0-.03,0c-.81-.01-1.46-.67-1.47-1.48-.3-20.69-1.2-60.23-2.51-69.16-13.36.34-105.9-.36-112.59-3.08-2.71-1.1-2.84-2.65-2.68-3.48.85-4.33,15.33-6.67,28.53-6.67.83,0,1.5.67,1.5,1.5s-.67,1.5-1.5,1.5c-14.23,0-23.55,2.5-25.36,4.06.14.09.35.19.64.31,5.99,2.43,106.61,3.29,112.58,2.81.71-.06,1.4.42,1.57,1.13.8,3.21,1.43,16.26,1.88,30.33l1.54-30.25c.04-.77.66-1.39,1.44-1.42,9.96-.39,21.01-1.53,25.2-2.9-4.33-1.18-16.22-2.38-26.66-2.94-.83-.04-1.46-.75-1.42-1.58s.74-1.46,1.58-1.42c29.36,1.58,30.34,4.32,30.66,5.23.28.77.04,1.59-.62,2.2-3.29,3-21.11,4.07-27.26,4.35l-3.53,69.53c-.04.8-.7,1.42-1.5,1.42Z"/>
  <path class="cls-1" d="m547.2,371.44c-.28,0-.56-.08-.82-.24l-4.63-3.01c-.61-.4-.85-1.18-.56-1.85.29-.67,1.02-1.04,1.73-.87l11.61,2.78c.81.19,1.3,1,1.11,1.81-.19.81-1,1.3-1.81,1.11l-5.14-1.23c0,.28-.08.57-.24.82-.29.44-.77.68-1.26.68Z"/>
  <path class="cls-1" d="m587.59,442.72s-.03,0-.05,0c-.83-.02-1.48-.72-1.45-1.54.01-.38,1.11-38.09-.71-54.45-1.75-15.77-4.7-20.12-4.73-20.16-.47-.67-.32-1.6.34-2.09.66-.48,1.59-.35,2.08.31.35.47,3.46,5.03,5.3,21.61,1.84,16.56.77,53.31.73,54.87-.02.81-.69,1.46-1.5,1.46Z"/>
  <path class="cls-1" d="m430.64,438.4c-.79,0-1.45-.62-1.5-1.42-.13-2.33-3.04-57.15,1.59-71.75.25-.79,1.09-1.22,1.88-.98.79.25,1.23,1.09.98,1.88-4.47,14.08-1.49,70.12-1.46,70.68.04.83-.59,1.53-1.42,1.58-.03,0-.05,0-.08,0Z"/>
  <path class="cls-1" d="m447.48,421.62c-.78,0-1.44-.61-1.5-1.4-.02-.28-1.84-28.02-2.6-39-.06-.83.57-1.54,1.39-1.6.8-.06,1.54.57,1.6,1.39.76,10.99,2.58,38.73,2.6,39.01.05.83-.57,1.54-1.4,1.59-.03,0-.07,0-.1,0Z"/>
  <path class="cls-1" d="m466.15,438.4c-.77,0-1.43-.59-1.49-1.38l-1.54-19.09c-.07-.83.55-1.55,1.37-1.62.82-.07,1.55.55,1.62,1.37l1.54,19.09c.07.83-.55,1.55-1.37,1.62-.04,0-.08,0-.12,0Z"/>
  <path class="cls-1" d="m475.25,391.25s-.09,0-.13,0c-.83-.07-1.44-.8-1.37-1.62.01-.13,1.1-12.65,2.48-20.52.14-.82.92-1.36,1.74-1.22.82.14,1.36.92,1.22,1.74-1.36,7.75-2.44,20.14-2.45,20.27-.07.78-.72,1.37-1.49,1.37Z"/>
  <path class="cls-1" d="m464.46,404.35c-.74,0-1.38-.54-1.48-1.29-.04-.32-1.09-7.94-.94-17.81.01-.82.68-1.48,1.5-1.48h.02c.83.01,1.49.7,1.48,1.52-.15,9.62.9,17.27.91,17.34.12.82-.46,1.58-1.28,1.69-.07,0-.14.01-.21.01Z"/>
  <path class="cls-1" d="m482.8,434.41c-.73,0-1.36-.53-1.48-1.27-1.7-10.82-.09-46.43-.02-47.94.04-.83.76-1.47,1.57-1.43.83.04,1.47.74,1.43,1.57-.02.37-1.67,36.82-.02,47.34.13.82-.43,1.59-1.25,1.71-.08.01-.16.02-.23.02Z"/>
  <path class="cls-1" d="m488.09,427.42s-.62-13.41-.93-20.81c-.03-.83.61-1.53,1.44-1.56.85-.05,1.53.61,1.56,1.44.31,7.4.92,20.79.92,20.8l-3,.14Z"/>
  <path class="cls-1" d="m516.72,402.79s-.06,0-.1,0c-.83-.05-1.45-.77-1.4-1.59.01-.19,1.18-19.11-1.94-29.52-.24-.79.21-1.63,1.01-1.87.79-.24,1.63.21,1.87,1.01,3.28,10.92,2.12,29.78,2.07,30.57-.05.79-.71,1.4-1.5,1.4Z"/>
  <path class="cls-1" d="m521.19,428.09c-.12,0-.24-.01-.36-.04-.8-.2-1.3-1.01-1.1-1.81,1.47-6.01.74-14.23.73-14.31-.08-.82.53-1.55,1.36-1.63.81-.08,1.55.53,1.63,1.36.03.36.78,8.8-.81,15.29-.17.69-.78,1.15-1.46,1.15Z"/>
  <path class="cls-1" d="m538.92,412.21s-.07,0-.1,0c-.83-.06-1.45-.77-1.39-1.6.02-.29,1.97-29.36.03-39.07-.16-.81.36-1.6,1.18-1.77.81-.17,1.6.36,1.76,1.18,2.02,10.1.11,38.65.03,39.86-.05.79-.71,1.4-1.49,1.4Z"/>
  <path class="cls-1" d="m533.84,403.42c-.06,0-.13,0-.19-.01-.82-.1-1.4-.85-1.3-1.68.01-.09,1.17-9.5-.58-16.08-.21-.8.26-1.62,1.06-1.84.8-.21,1.62.26,1.83,1.06,1.9,7.15.71,16.82.66,17.23-.1.76-.74,1.31-1.49,1.31Z"/>
  <path class="cls-1" d="m571.46,390.01s-.03,0-.05,0c-.83-.03-1.48-.72-1.45-1.55,0-.09.26-9.28-2.71-18.66-.25-.79.19-1.63.98-1.88.79-.25,1.63.19,1.88.98,3.12,9.89,2.86,19.27,2.84,19.66-.03.81-.69,1.45-1.5,1.45Z"/>
  <path class="cls-1" d="m563.54,437.04c-.12,0-.24-.01-.36-.04-.8-.2-1.3-1.01-1.1-1.81,2.13-8.74,1.11-18.81,1.1-18.92-.09-.82.51-1.56,1.34-1.65.84-.09,1.56.51,1.65,1.34.04.43,1.08,10.69-1.17,19.94-.17.69-.78,1.15-1.46,1.15Z"/>
  <path class="cls-1" d="m570.27,428.09s-.09,0-.14,0c-.83-.08-1.43-.81-1.35-1.63.72-7.68-1.56-22.89-3.22-33.99-.53-3.56-1-6.63-1.29-9-.1-.82.48-1.57,1.3-1.67.83-.1,1.57.48,1.67,1.3.29,2.33.75,5.39,1.28,8.93,1.69,11.26,4,26.67,3.24,34.72-.07.78-.73,1.36-1.49,1.36Z"/>
  <path class="cls-1" d="m580.4,421.62s-.03,0-.04,0c-.83-.02-1.48-.72-1.46-1.54,0-.31.88-31.49-2.55-42.52-.25-.79.2-1.63.99-1.88s1.63.2,1.88.99c3.58,11.52,2.73,42.2,2.69,43.5-.02.81-.69,1.46-1.5,1.46Z"/>
  <path class="cls-1" d="m592.38,405.91c-.11,0-.21,0-.32-.01-2.93-.22-5.28-3.37-5.54-3.73-.48-.67-.33-1.61.34-2.09.67-.48,1.61-.33,2.09.34.67.92,2.16,2.4,3.33,2.49.28.02.64-.02,1.12-.5,2.66-2.73,9.53-2.83,12.88-2.71-.62-6.57-2.73-29.48-2.82-37.06-.11-9.03,6.75-30.46,8.55-34.63,1.66-3.84,3.58-9.75,3.68-21.41.05-5.87,1.49-11.77,2.88-17.47,1.52-6.22,2.96-12.1,2.2-16.78-.13-.82.42-1.59,1.24-1.72.83-.13,1.59.42,1.72,1.24.86,5.28-.65,11.45-2.25,17.97-1.35,5.53-2.75,11.26-2.8,16.78-.1,12.2-2.15,18.48-3.93,22.58-1.64,3.79-8.4,25.1-8.3,33.41.1,8.57,2.95,38.25,2.97,38.55.04.44-.11.88-.43,1.2-.31.32-.76.47-1.19.44-3.78-.32-10.46-.14-12.27,1.71-.9.93-1.99,1.41-3.16,1.41Z"/>
  <path class="cls-1" d="m542.57,291.96s-.1,0-.14,0c-.83-.08-1.43-.81-1.35-1.64.02-.17,1.59-16.66,1.74-21.49.16-5.13,4.9-13.83,12.29-18.92.68-.47,1.62-.3,2.09.38.47.68.3,1.62-.38,2.09-6.4,4.42-10.85,12.12-10.99,16.54-.15,4.93-1.69,21-1.75,21.68-.07.78-.73,1.36-1.49,1.36Z"/>
  <path class="cls-1" d="m589.34,314.58c-.48,0-.94-.23-1.23-.65-.47-.68-.3-1.61.38-2.09.19-.13,18.96-13.3,24.89-29.08.29-.78,1.16-1.17,1.93-.88.78.29,1.17,1.16.88,1.93-6.26,16.67-25.19,29.94-25.99,30.49-.26.18-.56.27-.85.27Z"/>
  <path class="cls-1" d="m574.33,354.86s-.08,0-.11,0c-.83-.06-1.44-.78-1.38-1.6.03-.38.78-9.56,8.22-24.61.37-.74,1.27-1.05,2.01-.68.74.37,1.05,1.27.68,2.01-7.15,14.46-7.91,23.41-7.92,23.5-.06.79-.72,1.39-1.49,1.39Z"/>
  <path class="cls-1" d="m555.96,337.78c-.8,0-1.46-.63-1.5-1.44-.02-.57-.45-14,9.03-25.27.53-.63,1.48-.72,2.11-.18.63.53.71,1.48.18,2.11-8.71,10.36-8.34,23.1-8.33,23.22.03.83-.61,1.52-1.44,1.56-.02,0-.04,0-.06,0Z"/>
  <path class="cls-1" d="m558.74,266.67c-.11,0-.22-.01-.33-.04-.81-.18-1.32-.98-1.14-1.79.07-.29,1.66-7.25,7.62-11.39.68-.47,1.61-.31,2.09.38.47.68.3,1.61-.38,2.09-4.98,3.46-6.39,9.52-6.41,9.58-.16.7-.78,1.17-1.46,1.17Z"/>
  <path class="cls-1" d="m551.1,236.15c-.12,0-.23-.01-.35-.04-.8-.19-1.3-1-1.11-1.81,1.87-7.77,4.46-13.32,4.57-13.55.35-.75,1.25-1.07,2-.72.75.35,1.07,1.25.72,2-.03.05-2.58,5.52-4.37,12.97-.17.69-.78,1.15-1.46,1.15Z"/>
  <path class="cls-1" d="m566.52,248.48c-.69,0-1.31-.48-1.46-1.18-.32-1.45-4.23-11.09-6.23-15.76-1.4-3.27.36-9.28,3.36-18.81.71-2.27,1.45-4.62,2.13-6.94.23-.8,1.07-1.25,1.86-1.02.8.23,1.25,1.06,1.02,1.86-.68,2.35-1.43,4.72-2.15,7.01-2.21,7.04-4.5,14.32-3.46,16.73,1.23,2.87,5.96,14.24,6.41,16.31.18.81-.34,1.61-1.15,1.78-.11.02-.21.03-.32.03Z"/>
  <path class="cls-1" d="m585.94,249.48c-.72,0-1.36-.53-1.48-1.26-.68-4.28,1.83-9.66,4.75-15.9,1.1-2.36,2.24-4.8,3.29-7.34.31-.77,1.19-1.13,1.96-.82.77.32,1.13,1.19.82,1.96-1.07,2.61-2.23,5.08-3.34,7.47-2.7,5.79-5.04,10.78-4.5,14.16.13.82-.43,1.59-1.25,1.72-.08.01-.16.02-.24.02Z"/>
  <path class="cls-1" d="m603.21,248.79c-.52,0-1.02-.27-1.3-.74-.42-.72-.18-1.63.54-2.05.03-.02,4.3-2.73,8.46-13.06.31-.77,1.19-1.14,1.95-.83.77.31,1.14,1.18.83,1.95-4.61,11.45-9.52,14.41-9.73,14.53-.24.14-.5.2-.75.2Z"/>
  <path class="cls-1" d="m547.17,222.89c-.38,0-.76-.14-1.05-.43-1.57-1.54-4.72-17.02-4.22-22.48.19-2.07-2.77-4.17-6.21-6.6-3.88-2.75-8.71-6.17-11.15-11.27-.36-.75-.04-1.64.7-2,.75-.36,1.64-.04,2,.7,2.11,4.39,6.4,7.43,10.18,10.12,4.19,2.97,7.81,5.54,7.46,9.32-.5,5.45,2.61,18.6,3.46,20.21.46.59.43,1.44-.11,1.99-.29.3-.68.45-1.07.45Zm1.05-2.57s0,0,0,0c0,0,0,0,0,0Z"/>
  <path class="cls-1" d="m543.94,201.53c-.06,0-.11,0-.17,0-.82-.09-1.42-.84-1.32-1.66.02-.16,1.82-16.3.93-22.36-.12-.82.45-1.58,1.27-1.7.83-.12,1.58.45,1.7,1.27.94,6.44-.84,22.45-.92,23.13-.09.77-.74,1.33-1.49,1.33Z"/>
  <path class="cls-1" d="m546.01,219.55s-.05,0-.07,0c-.83-.04-1.47-.74-1.43-1.57.19-3.89.66-9.25,1.86-12.66,3.92-11.17,4.26-17.71,3.86-21.22-.09-.82.5-1.57,1.32-1.66.82-.1,1.57.5,1.66,1.32.44,3.83.11,10.86-4.01,22.56-.85,2.43-1.44,6.52-1.69,11.81-.04.8-.7,1.43-1.5,1.43Z"/>
  <path class="cls-1" d="m617.01,319.55c-.75,0-1.39-.56-1.49-1.31-.1-.82.48-1.57,1.3-1.67,8.28-1.03,20.44-8.78,23.31-10.67.08-2.48.05-6.18-.35-7.53-.28-.92-1.76-4.83-3.48-9.35-2.5-6.58-5.6-14.76-7.22-19.58-.26-.79.16-1.64.94-1.9.79-.26,1.64.16,1.9.94,1.6,4.77,4.7,12.92,7.18,19.48,1.88,4.96,3.24,8.54,3.54,9.56.75,2.49.48,8.6.45,9.29-.02.47-.26.9-.65,1.17-.61.42-15.14,10.32-25.25,11.58-.06,0-.13.01-.19.01Zm24.59-12.83h0,0Z"/>
  <path class="cls-1" d="m640.06,442.1c-.75,0-1.39-.56-1.49-1.32-.43-3.46-1.25-9.13-1.77-10.6-.44-1.23-.64-5.19-.96-13.31-.18-4.49-.38-9.58-.63-10.57-.7-2.81-1.43-16.22-1.14-21.11.29-4.99-.81-16.8-2.72-25.12-1.28-5.58-.67-11.51.44-22.27.7-6.75,1.57-15.15,2.28-26.47.05-.83.75-1.46,1.59-1.4.83.05,1.46.76,1.4,1.59-.71,11.37-1.58,19.81-2.29,26.59-1.08,10.44-1.67,16.2-.5,21.29,2.02,8.82,3.09,20.76,2.79,25.96-.28,4.82.48,17.9,1.06,20.21.31,1.24.47,5.06.71,11.19.19,4.81.45,11.4.79,12.42.8,2.25,1.81,10.33,1.92,11.24.1.82-.48,1.57-1.3,1.67-.06,0-.12.01-.19.01Z"/>
  <path class="cls-1" d="m605.11,442.1c-.72,0-1.36-.53-1.48-1.26-.44-2.76-1.14-6.09-1.52-6.89-.68-.65-.89-1.94-2-13.29-.55-5.63-1.18-12.01-1.93-17.6-.11-.82.46-1.58,1.28-1.69.81-.11,1.58.46,1.69,1.28.77,5.64,1.39,12.05,1.95,17.71.51,5.17,1.03,10.5,1.36,11.7.46.6,1.17,2.3,2.13,8.31.13.82-.43,1.59-1.25,1.72-.08.01-.16.02-.24.02Zm-2.83-8.02h0,0Z"/>
  <path class="cls-1" d="m622.49,372.74c-.11,0-.21-.01-.32-.04-.81-.18-1.32-.98-1.14-1.79.03-.13,2.77-12.77,4.29-31.1.07-.83.79-1.45,1.62-1.37.83.07,1.44.79,1.37,1.62-1.53,18.54-4.32,31.37-4.35,31.5-.15.7-.77,1.18-1.46,1.18Z"/>
  <path class="cls-1" d="m625.72,434.41s-.08,0-.12,0c-.83-.06-1.44-.79-1.38-1.61.01-.18,1.44-18.2,5.26-39.01.15-.81.92-1.36,1.75-1.2.81.15,1.35.93,1.2,1.75-3.79,20.64-5.21,38.52-5.22,38.7-.06.79-.72,1.38-1.49,1.38Z"/>
  <path class="cls-1" d="m610.61,438.4c-.67,0-1.27-.45-1.45-1.12-.03-.12-3.11-11.82-5.4-21.28-.19-.81.3-1.62,1.11-1.81.81-.2,1.62.3,1.81,1.11,2.28,9.44,5.36,21.11,5.39,21.22.21.8-.27,1.62-1.07,1.83-.13.03-.26.05-.38.05Z"/>
  <path class="cls-1" d="m598.9,393.71c-.07,0-.14,0-.21-.01-.82-.11-1.39-.87-1.28-1.69.14-1,3.44-24.59,6.66-35.6.23-.79,1.06-1.25,1.86-1.02.79.23,1.25,1.07,1.02,1.86-3.16,10.79-6.54,34.92-6.57,35.17-.1.75-.75,1.29-1.48,1.29Z"/>
  <path class="cls-1" d="m484.87,335.13c-.79,0-1.46-.62-1.5-1.42-.54-10.6-8.81-20.82-14.23-25.11-.65-.51-.76-1.46-.25-2.11s1.46-.76,2.11-.25c5.85,4.63,14.78,15.72,15.37,27.31.04.83-.59,1.53-1.42,1.57-.03,0-.05,0-.08,0Z"/>
  <path class="cls-1" d="m527.58,354.86c-.81,0-1.47-.64-1.5-1.45,0-.12-.38-12.03,0-21.31.03-.83.72-1.47,1.56-1.44.83.03,1.47.73,1.44,1.56-.38,9.16,0,20.97,0,21.09.03.83-.62,1.52-1.45,1.55-.02,0-.03,0-.05,0Z"/>
  <path class="cls-1" d="m486.57,354.86c-.83,0-1.5-.67-1.5-1.5v-10.6c0-.83.67-1.5,1.5-1.5s1.5.67,1.5,1.5v10.6c0,.83-.67,1.5-1.5,1.5Z"/>
  <path class="cls-1" d="m510.01,331.35s-.05,0-.07,0c-.83-.04-1.47-.74-1.43-1.57.09-1.97.99-19.36,5.16-23.44.59-.58,1.54-.57,2.12.02.58.59.57,1.54-.02,2.12-2.51,2.45-3.95,14.44-4.26,21.43-.04.8-.7,1.43-1.5,1.43Z"/>
  <path class="cls-1" d="m503.05,339.75s-.04,0-.06,0c-.83-.03-1.47-.73-1.44-1.56,0-.08.33-7.88.33-12.19,0-.83.67-1.5,1.5-1.5s1.5.67,1.5,1.5c0,4.37-.33,12.24-.33,12.32-.03.81-.7,1.44-1.5,1.44Z"/>
</svg>
