<svg height="50" viewBox="0 0 41 50" width="41" xmlns="http://www.w3.org/2000/svg"><path d="m22.7 49.3.2-16.4c.4-.3.8-.5 1.2-.8.6-.5 1.2-1.2 1.8-1.9.7.4 1.3.9 1.9 1.5 0 .1.1.2.2.3l-.1 16.2c-1.7.5-3.5.9-5.2 1.1zm-10.7-1.2v-16.3l.3-.3c.6-.6 1.2-1.1 1.9-1.5.5.7 1.1 1.4 1.8 1.9.4.3.8.6 1.2.8l-.1 16.5c-1.7-.2-3.4-.5-5.1-1.1zm8.1-48.1c4.2 0 7.6 7 7.8 15.4 0 .8 0 1.6-.1 2.4 3.3 2.3 5.4 6.2 5.4 10.6 0 1.8-.4 3.6-1.1 5.2-1.3-3-3.8-5.5-6.8-6.8-1.4 2.5-3.2 4-5.2 4s-3.8-1.5-5.1-4c-3.1 1.3-5.6 3.8-6.9 6.8-.7-1.6-1.1-3.3-1.1-5.2 0-4.4 2.2-8.2 5.5-10.6-.1-.8-.1-1.6-.1-2.4 0-8.5 3.5-15.4 7.7-15.4zm-.1 10c-1.8 0-3.3 1.5-3.4 3.4 0 1.9 1.5 3.4 3.4 3.4s3.4-1.5 3.4-3.4-1.5-3.4-3.4-3.4zm-9.8 30.5v6.1c-5.6-3.3-9.5-9-10.2-15.7 1.5.2 3.2.4 5.1.6.7 3.6 2.5 6.7 5.1 9zm-5-15.4c-1.9.2-3.6.4-5.1.6.9-6.8 5.2-12.6 11.1-15.7-.1 1.2-.2 2.4-.2 3.7v1.5c-1.6 1.3-2.9 2.9-3.8 4.7-.2.3-.3.7-.5 1.1-.6 1.3-1.2 2.7-1.5 4.1zm24.9 21.4v-6.1c2.6-2.3 4.4-5.4 5.1-9 1.9-.1 3.6-.4 5.1-.6-.8 6.7-4.7 12.5-10.2 15.7zm10.1-20.8c-1.5-.2-3.2-.4-5.1-.6-.3-1.4-.8-2.8-1.5-4-.1-.4-.3-.7-.5-1.1-.9-1.8-2.2-3.4-3.7-4.7v-.2-1.3c0-1.3-.1-2.5-.2-3.7 5.9 3.1 10.1 8.8 11 15.6z" fill="#fff" fill-rule="evenodd"/></svg>