<svg height="42" viewBox="0 0 41 42" width="41" xmlns="http://www.w3.org/2000/svg"><path d="m32.919 21.568-3.405-3.406v6.811l3.405 3.405v2.27l-3.405-3.405v6.811l3.405 3.405v4.541h2.27v-27.243l-1.703-1.703-3.972-3.973v6.81l3.405 3.406v2.27zm-29.514 0-3.405-3.406v6.811l3.405 3.405v2.27l-3.405-3.404v6.811l3.405 3.405v4.54h2.27v-27.243l-1.702-1.703-3.973-3.973v6.81l3.405 3.406v2.27zm14.757 0-3.405-3.406v6.811l3.405 3.405v2.27l-3.405-3.405v6.811l3.405 3.405v4.541h2.27v-36.324l-1.702-1.703-3.973-3.973v6.81l3.405 3.406v2.27l-3.405-3.405v6.81l3.405 3.406v2.27zm3.406 1.135 4.54-4.54v6.81l-4.54 4.54zm0 9.08 4.54-4.54v6.811l-4.54 4.54v-6.81zm0-18.161 4.54-4.54v6.81l-4.54 4.54zm0-9.081 4.54-4.541v6.81l-4.54 4.541zm-14.758 18.162 4.54-4.54v6.81l-4.54 4.54zm0 9.08 4.54-4.54v6.811l-4.54 4.54v-6.81zm0-18.161 4.54-4.54v6.81l-4.54 4.54zm29.513 9.08 4.54-4.54v6.811l-4.54 4.54v-6.81zm0 9.082 4.54-4.54v6.81l-4.54 4.54zm0-18.162 4.54-4.54v6.81l-4.54 4.54z" fill="#fff" fill-rule="evenodd"/></svg>