<svg clip-rule="evenodd" fill-rule="evenodd" stroke-linejoin="round" stroke-miterlimit="2" viewBox="0 0 37 30" xmlns="http://www.w3.org/2000/svg"><path d="m34.8 27.706c-.68 1.028-1.195 2.294-2.577 2.294-2.326 0-2.452-3.587-4.78-3.587-2.327 0-2.201 3.587-4.527 3.587s-2.452-3.587-4.78-3.587c-2.327 0-2.201 3.587-4.528 3.587-2.326 0-2.452-3.587-4.78-3.587s-2.2 3.587-4.528 3.587c-.731 0-1.245-.354-1.678-.84-1.727-3.02-2.632-6.441-2.622-9.92 0-10.627 8.208-19.24 18.333-19.24 10.127 0 18.334 8.614 18.334 19.24 0 3.037-.671 5.91-1.866 8.466z" fill="#fff"/></svg>