<svg height="40" viewBox="0 0 39 40" width="39" xmlns="http://www.w3.org/2000/svg"><path d="m33.533 34.1a20.3 20.3 0 0 1 -14.366 5.9c-6.25 0-11.833-2.8-15.55-7.2 8.071 6.61 19.825 6.078 27.266-1.233a12.617 12.617 0 0 0 0-18c-5.056-4.966-13.16-4.966-18.216 0a5.4 5.4 0 0 0 0 7.716 5.567 5.567 0 0 0 7.8 0 1.85 1.85 0 0 1 2.6 0 1.8 1.8 0 0 1 0 2.567 9.283 9.283 0 0 1 -13 0 9 9 0 0 1 0-12.85c6.498-6.39 16.918-6.39 23.416 0a16.217 16.217 0 0 1 .05 23.1zm1.184-26.9c-8.071-6.61-19.825-6.078-27.267 1.233a12.617 12.617 0 0 0 0 18c5.057 4.966 13.16 4.966 18.217 0a5.4 5.4 0 0 0 0-7.716 5.567 5.567 0 0 0 -7.8 0c-.717.7-1.883.7-2.6 0a1.8 1.8 0 0 1 0-2.567 9.283 9.283 0 0 1 13 0 9 9 0 0 1 0 12.85c-6.498 6.389-16.919 6.389-23.417 0a16.217 16.217 0 0 1 -.016-23.117 20.3 20.3 0 0 1 14.333-5.883c6.25 0 11.833 2.8 15.55 7.2z" fill="#fff" fill-rule="evenodd"/></svg>