<svg height="43" viewBox="0 0 42 43" width="42" xmlns="http://www.w3.org/2000/svg"><path d="m14.4 32.2a3.6 3.6 0 0 1 -3.6-3.6v-1.8a1.8 1.8 0 0 0 -3.6 0v1.8a3.6 3.6 0 0 1 -3.6 3.6h-1.8a1.8 1.8 0 0 0 0 3.6h1.8a3.6 3.6 0 0 1 3.6 3.6v1.8a1.8 1.8 0 0 0 3.6 0v-1.8a3.6 3.6 0 0 1 3.6-3.6h1.8a1.8 1.8 0 0 0 0-3.6zm22.2-21.4a5.4 5.4 0 0 1 -5.4-5.4v-2.7a2.7 2.7 0 0 0 -5.4 0v2.7a5.4 5.4 0 0 1 -5.4 5.4h-2.7a2.7 2.7 0 0 0 0 5.4h2.7a5.4 5.4 0 0 1 5.4 5.4v2.7a2.7 2.7 0 0 0 5.4 0v-2.7a5.4 5.4 0 0 1 5.4-5.4h2.7a2.7 2.7 0 0 0 0-5.4zm-4.1 32.2a3.5 3.5 0 1 0 0-7 3.5 3.5 0 0 0 0 7zm-30-31a2.5 2.5 0 1 0 0-5 2.5 2.5 0 0 0 0 5z" fill="#fff"/></svg>