<svg height="44" viewBox="0 0 44 44" width="44" xmlns="http://www.w3.org/2000/svg"><path d="m5.197 22c0 .685.042 1.365.125 2.038l-5.322 4.38 5.29 9.163 6.456-2.419a16.483 16.483 0 0 0 3.529 2.04l1.133 6.798h10.58l1.132-6.797a16.483 16.483 0 0 0 3.529-2.04l6.456 2.418 5.29-9.162-5.322-4.381a16.65 16.65 0 0 0 0-4.076l5.322-4.38-5.29-9.163-6.456 2.419a16.483 16.483 0 0 0 -3.529-2.04l-1.133-6.798h-10.58l-1.132 6.797a16.483 16.483 0 0 0 -3.529 2.04l-6.456-2.417-5.29 9.16 5.322 4.381a16.65 16.65 0 0 0 -.125 2.039zm-1.65-7.061 2.96-5.128 5.754 2.156.615-.514a13.733 13.733 0 0 1 4.1-2.371l.752-.275 1.01-6.057h5.92l1.01 6.057.752.275c1.494.546 2.88 1.35 4.1 2.37l.614.515 5.754-2.156 2.96 5.128-4.74 3.903.136.788a13.846 13.846 0 0 1 0 4.74l-.137.788 4.742 3.903-2.96 5.128-5.755-2.156-.615.514a13.733 13.733 0 0 1 -4.1 2.371l-.752.275-1.01 6.057h-5.92l-1.01-6.057-.752-.275a13.733 13.733 0 0 1 -4.1-2.37l-.614-.515-5.754 2.156-2.96-5.128 4.74-3.903-.136-.788a13.846 13.846 0 0 1 0-4.74l.137-.788-4.742-3.903zm18.15 13.936a6.875 6.875 0 1 0 0-13.75 6.875 6.875 0 0 0 0 13.75zm0-2.75a4.125 4.125 0 1 1 0-8.25 4.125 4.125 0 0 1 0 8.25z" fill="#fff"/></svg>