<?xml version="1.0" encoding="utf-8"?>
<!-- Generator: Adobe Illustrator 27.4.1, SVG Export Plug-In . SVG Version: 6.00 Build 0)  -->
<svg version="1.1" id="Layer_1" xmlns="http://www.w3.org/2000/svg" xmlns:xlink="http://www.w3.org/1999/xlink" x="0px" y="0px"
	 viewBox="0 0 2579.9 1318.8" style="enable-background:new 0 0 2579.9 1318.8;" xml:space="preserve">
<style type="text/css">
	.st0{fill:#1E364D;}
	.st1{fill:#ACBFDA;}
	.st2{fill:#F20404;}
</style>
<g>
	<g>
		<path class="st0" d="M28.8,399.7L218,570c29.5,26.5,67.7,41.2,107.3,41.2h188.4c165.7,0,300-134.3,300-300v0
			c0-165.7-134.3-300-300-300h-179c-45.2,0-88.3,19.1-118.7,52.5L22.6,276.4C-9.8,312.1-7,367.4,28.8,399.7z"/>
		<path class="st0" d="M678.8,661.2h-344c-45.2,0-88.3,19.1-118.7,52.5L22.6,926.4c-32.5,35.7-29.7,91,6.2,123.3L218,1220
			c29.5,26.5,67.7,41.2,107.3,41.2h353.4c165.7,0,300-134.3,300-300v0C978.8,795.5,844.5,661.2,678.8,661.2z"/>
	</g>
	<path class="st1" d="M2097.4,448.6h-900c-27.6,0-50-22.4-50-50v-70c0-27.6,22.4-50,50-50h900c27.6,0,50,22.4,50,50v70
		C2147.4,426.2,2125,448.6,2097.4,448.6z"/>
	<path class="st1" d="M1487.4,738.6h-290c-27.6,0-50-22.4-50-50v-70c0-27.6,22.4-50,50-50h290c27.6,0,50,22.4,50,50v70
		C1537.4,716.2,1515,738.6,1487.4,738.6z"/>
	<path class="st1" d="M2307.4,738.6h-670c-27.6,0-50-22.4-50-50v-70c0-27.6,22.4-50,50-50h670c27.6,0,50,22.4,50,50v70
		C2357.4,716.2,2335,738.6,2307.4,738.6z"/>
	<path class="st1" d="M1747.4,1028.6h-550c-27.6,0-50-22.4-50-50v-70c0-27.6,22.4-50,50-50h550c27.6,0,50,22.4,50,50v70
		C1797.4,1006.2,1775,1028.6,1747.4,1028.6z"/>
	<path class="st1" d="M2047.4,1028.6h-150c-27.6,0-50-22.4-50-50v-70c0-27.6,22.4-50,50-50h150c27.6,0,50,22.4,50,50v70
		C2097.4,1006.2,2075,1028.6,2047.4,1028.6z"/>
	<path class="st1" d="M2347.4,1028.6h-150c-27.6,0-50-22.4-50-50v-70c0-27.6,22.4-50,50-50h150c27.6,0,50,22.4,50,50v70
		C2397.4,1006.2,2375,1028.6,2347.4,1028.6z"/>
	<path class="st2" d="M2317.2,32c23.8,0,45.6,10.8,60,29.7l155.4,204.8c25.1,33,18.6,80.3-14.4,105.3l-1185.7,899.7
		c-13.2,10-28.9,15.3-45.4,15.3c-23.8,0-45.6-10.8-60-29.7l-155.4-204.8c-25.1-33-18.6-80.3,14.4-105.3L2271.9,47.3
		C2285.1,37.3,2300.7,32,2317.2,32L2317.2,32L2317.2,32 M2317.2,0c-22.6,0-45.3,7.1-64.7,21.8L1066.9,921.5
		c-47.2,35.8-56.4,103-20.6,150.2l155.4,204.8c21.1,27.8,53.1,42.4,85.5,42.4c22.6,0,45.3-7.1,64.7-21.8l1185.7-899.7
		c47.2-35.8,56.4-103,20.6-150.2L2402.7,42.4C2381.6,14.6,2349.6,0,2317.2,0L2317.2,0z"/>
	<g>
		<path class="st2" d="M1328,1106.4l-26.1,19.8l-57.1-75.3l-23.6,17.9l-16.2-21.4l73.3-55.6l16.2,21.4l-23.5,17.9L1328,1106.4z"/>
		<path class="st2" d="M1424.7,1033l-18.5-14.5l-31.4,23.8l8.9,21.8l-28.7,21.8l-42.1-121l34.8-26.4l105.6,72.8L1424.7,1033z
			 M1384.5,1001.2l-16.2-12.7c-3.6-2.8-8.3-6.5-13.9-11c-5.6-4.5-9.6-7.9-11.9-10c1.3,2.5,3.3,6.8,6.1,12.9
			c2.7,6,7.9,18.2,15.4,36.4L1384.5,1001.2z"/>
		<path class="st2" d="M1548.2,939.3l-29.6,22.4l-65.9-27.2l37.2,49l-26.2,19.9l-73.4-96.7l26.2-19.9l35.5,46.8l-7.9-67.8l28.7-21.8
			l5.2,68.8L1548.2,939.3z"/>
		<path class="st2" d="M1676.1,842.3l-26.2,19.9l-29.9-39.4l-30.3,23l29.9,39.4l-26.2,19.9l-73.4-96.7l26.2-19.9l27.2,35.8l30.3-23
			l-27.2-35.8l26.2-19.9L1676.1,842.3z"/>
		<path class="st2" d="M1754.3,782.9l-57.4,43.5l-73.4-96.7l57.4-43.5l15.9,21l-31.3,23.7l11.5,15.2l29-22l15.9,21l-29,22l13.8,18.2
			l31.3-23.7L1754.3,782.9z"/>
		<path class="st2" d="M1791.3,634c-6.2,4.7-9.1,10.9-8.8,18.7c0.4,7.7,4,16.1,10.8,25c14.1,18.6,28.2,22.5,42.4,11.8
			c4.3-3.2,8-7,11.1-11.2c3.1-4.2,6.1-8.7,8.8-13.5l16.8,22.1c-5.4,9.7-13.1,18.4-23.3,26.1c-14.6,11.1-29,15.3-43.2,12.8
			c-14.2-2.6-27.4-11.8-39.5-27.8c-7.6-10-12.4-20.2-14.4-30.7c-2-10.4-1-20.4,3-29.8c4-9.4,10.8-17.8,20.3-25.1
			c10.4-7.9,22.2-13.2,35.1-15.9l7.6,26.6c-4.8,1-9.5,2.3-13.9,3.9C1799.7,628.6,1795.4,630.9,1791.3,634z"/>
		<path class="st2" d="M1948,559.6c12.3,16.3,17.7,31.7,16.2,46.2c-1.6,14.5-10,27.6-25.4,39.3c-15.2,11.5-30,16.1-44.6,13.7
			c-14.5-2.4-28-11.7-40.3-28c-12.2-16.1-17.5-31.4-15.9-46c1.6-14.6,10.1-27.7,25.4-39.3c15.4-11.7,30.2-16.3,44.6-13.9
			C1922.3,533.9,1935.6,543.2,1948,559.6z M1881.5,610c14.2,18.7,27.8,23.1,40.8,13.2c6.6-5,9.8-11,9.5-18c-0.2-7-4-15.3-11.3-24.9
			c-7.3-9.7-14.4-15.6-21.1-17.7c-6.7-2.1-13.3-0.8-19.8,4.1C1866.6,576.8,1867.2,591.2,1881.5,610z"/>
		<path class="st2" d="M1969.6,455c-10.5,8-20,11.9-28.3,11.8c-8.3-0.1-16.1-4.3-23.2-12.4l21.6-16.4c3.5,4.2,6.8,6.6,10,7.2
			c3.1,0.7,6.5-0.4,10.2-3.2c6.6-5,7.1-11.9,1.5-20.5l21.9-16.6C1994.1,423.2,1989.6,439.9,1969.6,455z M1928.9,498.1l23.3-17.7
			l31.5,41.5c3.3,4.4,9.7,13.5,19,27.3l0.5-0.4l-13-97.2l32.3-24.5l73.4,96.7l-23.1,17.6l-30.7-40.5c-4.6-6.1-11.2-15.6-19.7-28.4
			l-0.5,0.4l12.7,97.5l-32.2,24.4L1928.9,498.1z"/>
		<path class="st2" d="M2236.8,464.2l-25.5,19.3l-22.8-30.1l-56.3,42.7l22.8,30.1l-25.5,19.3l-39.1-51.5l8-6.1
			c-1.7-14.2-5.5-29.1-11.5-44.8c-6-15.7-14-31.3-24.1-46.8l64.5-48.9l57.1,75.2l13.2-10L2236.8,464.2z M2158.2,442.7l-40.9-53.9
			l-17.2,13c12.5,20.2,21.2,42,26,65.2L2158.2,442.7z"/>
		<path class="st2" d="M2140.6,307.4c-2.5-3.3-3.4-6.6-2.8-10c0.6-3.4,2.7-6.4,6.1-9c3.5-2.6,7-3.8,10.4-3.5
			c3.5,0.3,6.4,2.1,8.9,5.3c2.4,3.1,3.2,6.4,2.6,9.8s-2.7,6.5-6.2,9.1c-3.4,2.6-6.9,3.8-10.3,3.5
			C2146,312.4,2143,310.6,2140.6,307.4z M2284.3,380.7l-57.4,43.5l-73.4-96.7l57.4-43.5l15.9,21l-31.3,23.7l11.5,15.2l29-22l15.9,21
			l-29,22l13.8,18.2l31.3-23.7L2284.3,380.7z M2172.2,283.3c-2.5-3.3-3.4-6.6-2.8-10c0.6-3.4,2.7-6.4,6.2-9.1
			c3.5-2.7,7-3.8,10.5-3.5c3.5,0.3,6.4,2.1,8.8,5.3c2.4,3.1,3.2,6.4,2.6,9.8s-2.7,6.5-6.2,9.2c-3.6,2.7-7.1,3.9-10.4,3.6
			C2177.6,288.3,2174.7,286.5,2172.2,283.3z"/>
		<path class="st2" d="M2343.9,335.5l-26.1,19.8l-57.1-75.3L2237,298l-16.2-21.4l73.3-55.6l16.2,21.4l-23.5,17.9L2343.9,335.5z"/>
		<path class="st2" d="M2375.5,257.8l-21.8,16.6l-50.8-60l28.6-21.7L2375.5,257.8z M2368.1,299.8c-3-4-4.2-8-3.5-12.1
			s3.3-7.8,7.8-11.2c4.5-3.4,8.7-4.9,12.7-4.4c4,0.5,7.5,2.7,10.6,6.7c3,4,4.2,8,3.4,12c-0.7,4-3.2,7.7-7.5,11
			c-4.4,3.3-8.6,4.8-12.8,4.4C2374.7,306,2371.1,303.8,2368.1,299.8z"/>
	</g>
</g>
</svg>
