<?xml version="1.0" encoding="UTF-8"?>
<svg id="Layer_1" data-name="Layer 1" xmlns="http://www.w3.org/2000/svg" viewBox="0 0 256 160">
  <defs>
    <style>
      .cls-1, .cls-2 {
        stroke-width: 0px;
      }

        :root { fill:#222 }
        .accent { fill: #f9322c; }

        @media (prefers-color-scheme: dark) {
        :root {  fill: #f9322c; }
        .accent { fill:#dee2e6; }
        }
    </style>
  </defs>
  <g>
    <path class="accent" d="m5.21,45.42c3.92,10.29.38,35.23.38,35.23l11.91.93s1.81-23.46,0-36.16H5.21Z"/>
    <path class="accent" d="m246.18,64.98c-8.59-7.38-33.31-11.76-33.31-11.76l-10.1,4.05s6.35,7.63,6.33,7.93l-.03.3c8.24,0,18.39,8.93,18.39,8.93,0,0,15.6,1.41,21.11,5.28"/>
    <path class="accent" d="m173.48,56.22s-24.54-5.63-40.15-1.51v.02c-5.2-1.05-20.4-3.74-28.65-1.02-17.18-3.82-31.55,1.41-31.55,1.41l-19.09,3.59c1.71,4.24,20.8,5.97,22.2,7.72,1.41,1.75,6.53,7.18,6.53,7.18,0,0,12.22-1.61,14.3-2.61,6.8.4,28.44-2.11,28.44-2.11,0,0,.9.17,2.37.41l-.21.57c2.9.6,6.12.76,9.27.68,6.16.68,13.04,1.02,15.77-.35l-1.49-1.27c.86-.15,1.39-.25,1.46-.23.4.1,14.27,2.91,19.09,2.11-2.51-3.01,1.71-14.57,1.71-14.57Z"/>
    <path class="cls-1" d="m21.65,90.29c-.15,0-.3-.03-.45-.11-.49-.25-.69-.85-.44-1.34,7.39-14.69,1.07-36.49,1.01-36.7-.16-.53.15-1.09.67-1.24.52-.16,1.09.14,1.24.67.27.92,6.61,22.77-1.14,38.17-.18.35-.53.55-.89.55Z"/>
    <path class="cls-1" d="m8.86,88.05c-.08,0-.15,0-.23-.03-.54-.12-.87-.66-.75-1.2.05-.23,5.32-23.3,1.26-36.97-.09-.32-.02-.66.19-.92.21-.26.53-.39.87-.36l13.39,1.27c.55.05.95.54.9,1.09-.05.55-.54.95-1.09.9l-11.96-1.14c3.49,14.23-1.4,35.64-1.62,36.57-.11.46-.52.77-.97.77Z"/>
    <path class="cls-1" d="m55.05,94.09c-.26,0-.51,0-.75-.02-1.88-.12-6.91-2.01-12.74-4.19-5.94-2.22-12.68-4.74-16.4-5.48-.54-.11-.89-.63-.79-1.18.11-.54.63-.9,1.18-.79,3.88.77,10.69,3.32,16.71,5.57,5.2,1.95,10.58,3.96,12.17,4.06,8.89.6,28.33-10.29,29.07-13.33.38-1.56.26-2.77-.35-3.71-1.46-2.24-5.75-3.03-10.3-3.87-2.73-.5-5.55-1.02-8.15-1.9-9.68-3.25-9.87-8.65-9.88-8.88,0-.55.43-1.01.98-1.02h.02c.54,0,.99.44,1,.98,0,.03.3,4.26,8.51,7.02,2.47.83,5.22,1.34,7.88,1.83,4.98.92,9.69,1.79,11.62,4.75.91,1.41,1.12,3.18.62,5.27-1.1,4.58-20.99,14.88-30.39,14.88Z"/>
    <path class="cls-1" d="m78.8,60.93c-.4,0-.76-.37-2.01-1.65-2.16-2.22-6.67-6.84-9.29-7.78-3.5-1.26-15.33-1.71-20,0-4.83,1.76-17.94,4.19-23.19,4.5-.54.03-1.03-.39-1.06-.94-.03-.55.39-1.02.94-1.06,5.12-.31,17.92-2.67,22.62-4.38,4.92-1.8,17.12-1.53,21.37,0,3.05,1.1,7.6,5.76,10.04,8.27.47.48.96.98,1.14,1.15.21.12.38.31.46.56.17.52-.11,1.09-.63,1.26-.15.05-.27.08-.38.08Z"/>
    <path class="cls-1" d="m84.71,77.51c-.53,0-.97-.41-1-.94-.03-.55.39-1.02.94-1.06,6.95-.42,11.25-1.34,12.5-1.96-1.34-1.86-6.81-9.03-13.48-11.41-6.32-2.25-17.93-1.8-24.16-1.56-1.6.06-2.87.11-3.77.11-.55,0-1-.45-1-1s.45-1,1-1c.86,0,2.17-.05,3.69-.11,6.82-.27,18.23-.71,24.91,1.67,8.26,2.95,14.48,12.18,14.74,12.57.31.39.38.93.15,1.43-.97,2.14-9.48,2.96-14.47,3.25-.02,0-.04,0-.06,0Zm12.73-3.56s.02.03.03.04c0,0-.01-.02-.03-.04Z"/>
    <path class="cls-1" d="m113.88,77.72c-6.25,0-13.27-.49-16.88-1.91-.51-.2-.77-.78-.56-1.3.2-.51.79-.77,1.3-.56,6.33,2.49,23.88,1.83,26.94,1.18-.12-1.93-3.39-9.38-9.84-12.02-7.25-2.97-25.52-3.43-33.87-1.62-.54.12-1.07-.23-1.19-.76-.12-.54.22-1.07.76-1.19,7.95-1.73,26.82-1.65,35.05,1.72,7.11,2.91,10.73,10.79,11.05,13.59.04.34.15,1.37-.59,1.89-.74.52-6.09.99-12.18.99Z"/>
    <path class="cls-1" d="m142.31,77.72c-6.25,0-13.27-.49-16.88-1.91-.51-.2-.77-.78-.56-1.3.2-.51.78-.77,1.3-.56,6.33,2.49,23.88,1.83,26.94,1.18-.12-1.93-3.39-9.38-9.84-12.02-7.25-2.97-25.52-3.43-33.87-1.62-.54.12-1.07-.23-1.19-.76-.12-.54.22-1.07.76-1.19,7.95-1.73,26.82-1.65,35.05,1.72,7.11,2.91,10.73,10.79,11.05,13.59.04.34.15,1.37-.59,1.89-.74.52-6.09.99-12.18.99Z"/>
    <path class="cls-1" d="m21.8,94.16c-5.68,0-11.07-1.78-14.93-4.99l-6.71,1.11c-.55.09-1.06-.28-1.15-.82-.09-.54.28-1.06.82-1.15l7.17-1.18c.3-.05.6.04.82.24,4.2,3.69,10.59,5.42,17.1,4.61,4.97-.61,9.1-2.67,11.05-5.49.31-.46.94-.57,1.39-.26.46.31.57.94.26,1.39-2.3,3.34-6.84,5.65-12.45,6.34-1.13.14-2.26.21-3.38.21Z"/>
    <path class="cls-1" d="m168.48,77.83c-4.74,0-10.97-.37-15.16-2.02-.51-.2-.77-.78-.56-1.3.2-.51.79-.77,1.3-.56,6.03,2.37,16.88,1.91,20.06,1.71.54-.03,1.03.38,1.06.94.03.55-.38,1.03-.94,1.06-1.14.07-3.24.18-5.75.18Z"/>
    <path class="cls-1" d="m137.08,61.52c-.46,0-.87-.32-.98-.79-.12-.54.22-1.07.76-1.19,7.17-1.56,24.33-2.37,33.34-.29.54.12.87.66.75,1.2-.12.54-.66.87-1.2.75-8.76-2.02-25.47-1.23-32.47.3-.07.02-.14.02-.21.02Z"/>
    <path class="cls-1" d="m248.05,88.29c-1.88,0-8.98-2.47-13.53-4.32-.51-.21-.76-.79-.55-1.3.21-.51.79-.76,1.3-.55,5.72,2.33,10.84,3.89,12.34,4.15.58-1.79.24-9.25-4.19-14.09-.21-.23-.43-.45-.66-.67-6.17-5.83-25.58-13.61-33.34-14.82-.55-.08-.92-.6-.83-1.14.09-.54.59-.92,1.14-.83,7.99,1.24,28,9.29,34.41,15.34.26.25.52.5.76.77,4.67,5.09,5.48,13.15,4.6,16.05-.24.78-.63,1.25-1.18,1.39-.07.02-.17.03-.28.03Z"/>
    <path class="cls-1" d="m75.78,83.89c-2.73,0-6.13-.29-9.4-1.36-.53-.17-.81-.74-.64-1.26.17-.52.74-.81,1.26-.64,6.53,2.14,13.89.9,13.97.88.55-.1,1.06.27,1.16.81.09.54-.27,1.06-.81,1.16-.17.03-2.42.41-5.54.41Z"/>
    <path class="cls-1" d="m234.63,98.21c-.07,0-.14,0-.21-.02-7.92-1.73-20.87-4.47-22.26-4.52-7.31,1.26-31.4-8.91-32.77-9.88-1-.72-4.41-4.84-11.39-13.78l-.56-.72c-2.71-3.46,3.16-10.87,6.89-14.98.1-.11.23-.2.36-.25,6.66-2.71,26.4-3.67,29.49-3.34,3.27.35,6.1,4.23,6.22,4.39.21.29.25.67.1,1-.15.33-.46.55-.82.58-4.17.38-8.15,1.21-8.98,1.86.37,2.66,2.63,10.44,3.92,10.99h0c.08,0,10.8.92,12.72,5.03,1.6,3.43-1.33,8.88-1.67,9.49-.27.48-.88.66-1.36.39-.48-.27-.66-.88-.39-1.36.78-1.41,2.6-5.54,1.6-7.67-1.02-2.19-7.75-3.62-11.12-3.89-3.45-.28-5.7-12.84-5.71-12.97-.03-.29,0-.74.37-1.18,1.11-1.36,5.63-2.12,8.53-2.48-.98-.99-2.34-2.06-3.62-2.2-2.88-.31-21.85.64-28.32,3.12-6,6.64-7.66,10.92-6.64,12.23l.56.72c8.08,10.35,10.43,12.99,10.98,13.38,1.48,1.02,24.99,10.71,31.31,9.53.99-.17,13.04,2.37,22.98,4.54.54.12.88.65.76,1.19-.1.47-.52.79-.98.79Z"/>
    <path class="cls-1" d="m234.9,84.04c-.11,0-.23-.02-.34-.06l-16.65-6.02c-.52-.19-.79-.76-.6-1.28.19-.52.76-.79,1.28-.6l16.65,6.02c.52.19.79.76.6,1.28-.15.41-.53.66-.94.66Z"/>
    <path class="cls-1" d="m229.43,116.02c-.19,0-.35-.03-.48-.06-2.75-.67-4.9-7.28-7.62-16.54-.55-1.88-1.03-3.5-1.42-4.65-.18-.52.1-1.09.62-1.27.52-.18,1.09.1,1.27.62.41,1.19.89,2.83,1.45,4.73,1.22,4.13,4.45,15.11,6.19,15.17,0,0,.06-.02.19-.15,3.15-3.3,5.9-19.38,4.28-30.69-.08-.55.3-1.05.85-1.13.54-.08,1.05.3,1.13.85,1.75,12.24-1.23,28.61-4.82,32.36-.58.61-1.18.76-1.64.76Z"/>
    <path class="cls-1" d="m229.43,117.89c-.51,0-.94-.38-.99-.9-.06-.55.34-1.04.89-1.1l16.23-1.7c5.13-9.26,4.71-19.88,3.98-25.45-.04-.29.05-.57.24-.79.19-.22.46-.34.75-.34h5.46c.55,0,1,.45,1,1s-.45,1-1,1h-4.34c.66,6.14.73,16.75-4.62,26.02-.16.28-.44.46-.76.5l-16.75,1.75s-.07,0-.1,0Z"/>
    <path class="cls-1" d="m222.41,79.52c-.34,0-.67-.17-.86-.48-.29-.47-.14-1.09.33-1.37,2.36-1.44,3.56-3.08,3.67-5.02.31-5.59-8.46-12.36-11.35-14.59-.44-.34-.52-.97-.18-1.4.34-.44.96-.52,1.4-.18,5.36,4.14,12.45,10.33,12.12,16.28-.15,2.61-1.7,4.84-4.63,6.62-.16.1-.34.15-.52.15Z"/>
    <path class="cls-1" d="m117.54,125.58c-.29,0-.57-.12-.76-.36-8.67-10.29-12.27-22.83-9.63-33.56,2.04-8.3,7.74-14.75,16.05-18.15.4-.16.85-.06,1.13.26.23.26,5.53,6.44,3.24,16.66-.79,3.52-2.23,7.38-3.76,11.48-2.83,7.59-5.76,15.43-5.26,22.59.03.43-.22.83-.62,1-.12.05-.25.07-.38.07Zm5.71-49.92c-7.42,3.25-12.31,8.94-14.16,16.48-2.3,9.34.47,20.21,7.42,29.53.3-6.77,3-13.99,5.41-20.46,1.5-4.03,2.93-7.83,3.69-11.22,1.71-7.63-1.2-12.71-2.36-14.34Z"/>
    <path class="cls-1" d="m137.08,117.89c-.22,0-.44-.07-.62-.22-11.19-8.89-12.81-20.2-12.87-20.68-.07-.55.31-1.05.86-1.12.55-.08,1.05.31,1.12.86.01.1,1.31,9.03,9.36,16.93-.91-3.98-1.09-9.22-1.27-14.69-.3-8.84-.62-17.98-4.07-21.44-.39-.39-.39-1.02,0-1.41s1.02-.39,1.41,0c4.01,4.01,4.34,13.55,4.65,22.78.24,6.85.48,13.93,2.31,17.53.21.42.11.93-.26,1.23-.18.15-.41.23-.63.23Z"/>
    <path class="cls-1" d="m10.11,50.57H0c-.55,0-1-.45-1-1S-.55,48.57,0,48.57h10.11c.55,0,1,.45,1,1s-.45,1-1,1Z"/>
    <path class="cls-1" d="m256,116.14h-9.82c-.55,0-1-.45-1-1s.45-1,1-1h9.82c.55,0,1,.45,1,1s-.45,1-1,1Z"/>
  </g>
  <path class="cls-1" d="m256,75.1c-.15,0-.31-.02-.46-.07-.05-.02-5.34-1.72-11.73-2.27-.83-.07-1.44-.8-1.37-1.62.07-.83.81-1.43,1.62-1.37,6.75.58,12.17,2.34,12.4,2.41.79.26,1.22,1.1.96,1.89-.21.63-.79,1.03-1.43,1.03Z"/>
</svg>
