<?xml version="1.0" encoding="UTF-8"?>
<svg id="Layer_1" data-name="Layer 1" xmlns="http://www.w3.org/2000/svg" viewBox="0 0 256 160">
  <defs>
    <style>
      .cls-1, .cls-2, .cls-3 {
        stroke-width: 0px;
      }

      .cls-2 {
        fill: none;
      }

        :root { fill:#222 }
        .accent { fill: #f9322c; }

        @media (prefers-color-scheme: dark) {
        :root {  fill: #f9322c; }
        .accent { fill:#dee2e6; }
        }

    </style>
  </defs>
  <g>
    <path class="accent" d="m164.7,145.65c-2.08,5.88-1.36,10.74.09,14.35h6.52c.52-4.93-.31-11.17-6.62-14.35Z"/>
    <path class="accent" d="m98.3,159.47l-4.99-67.62,88.98,18.5.97,49.65h18.98l-1.11-50.58,28.48-17.54c.85-.77,1.73-1.27,1.73-1.27l-2.69-7.31-1.18,2.29c-4.74-5.85-2.04-17.7-2.04-17.7,0,0,5.64-1.34,3.98-4.3-1.65-2.97-5.07,1.58-5.07,1.58,0,0-4.07-5.38-1.4-9.02-3.04-1.17-8.03-8.26-6.95-10.58h0s-1.41.42-1.41.42h0c-.58.23-1.3.03-1.76-.53-.55-.68-.51-1.63.09-2.12.21-.17.47-.26.73-.28v-.03s9.64-2.69,9.64-2.69c.61-.49,1.55-.34,2.1.34.55.68.51,1.63-.09,2.12h-.23s-.08,0-.08,0l-.32.1.32.16c4.23,3.15,4.1,10.56,4.1,10.56,0,0,4.94,2.88,6.26,5.4-3.26-.27-1.27,3.85.08,4.25s1.84-2.3,1.84-2.3c0,0,4.78,11.59,5.03,17.24l-2.49-.73.45,7.25,11.04-6.64-1.69,58.16-25.04,23.76h6.36l21.77-21.26,2.08-74.14,1.55-.87-3.26-2.77.02-8.68-17.26-14.01-1.79-14.12-67.64-3.87-57.2,9.42.24,12.45-26.59,21.6.21,10.57-4.46,3.48,4.8.9,6.03,81.29h10.89l-2.02-.53Z"/>
  </g>
  <path class="accent" d="m120.45,136.87c-10.84,1.61-18.07,18.02-18.07,18.02,0,0,12.77-.79,18.07-18.02Z"/>
  <path class="accent" d="m138.15,128.72c-11.01,4.61-15.34,21.52-15.34,21.52,0,0,13.18-4.43,15.34-21.52Z"/>
  <path class="accent" d="m113.24,133.29c-8.05-5.82-2.82-22.68-2.82-22.68,0,0,10.25,5.92,2.82,22.68Z"/>
  <path class="accent" d="m126.91,133.94c-9.32-3.46-6.57-20.28-6.57-20.28,0,0,11.62,3.03,6.57,20.28Z"/>
  <path class="accent" d="m144.18,120.85c-10.98,2.86-14.77-11.3-14.77-11.3,0,0,13.19-4.52,14.77,11.3Z"/>
  <path class="accent" d="m152.8,132.65c-9.56,9.84-7.4,25.01-7.4,25.01,0,0,11.88-10.97,7.4-25.01Z"/>
  <path class="accent" d="m160.55,142.99c5.36-13.14,19.11-15.83,19.11-15.83,0,0-5.58,15.91-19.11,15.83Z"/>
  <path class="accent" d="m152.15,121.97c9.43-10.06,20.39-4.11,20.39-4.11,0,0-10.77,12.76-20.39,4.11Z"/>
  <g>
    <path class="cls-2" d="m256.32,102.83v-37.45l-11.21,6.29c.46,1.84.79,3.58.85,4.99.01.32-.13.63-.38.83-.25.2-.59.26-.9.17l-1.12-.33.13,2.14,9.98-6c.31-.19.7-.19,1.02,0,.32.18.5.53.5.89l-1.7,58.16c0,.26-.12.51-.31.7l-28.23,26.79h6.63l23.79-23.24.95-33.93Z"/>
    <path class="cls-2" d="m251.51,132.04l1.63-55.92-9.3,5.59.1,1.6c.77.28,1.63.98,2.16,2.45.74,2.07-.6,4.2-1.26,5.08.4,1.94,1.67,9.14-.43,13.37,2.41,3.84,2.77,7.34,1.18,11.29-.59,1.45-.77,3.16-.68,4.76,1.72-1.19,3.47-3.19,5.22-6.01.29-.47.91-.61,1.38-.32.47.29.61.91.32,1.38-2.15,3.46-4.37,5.84-6.6,7.11.36,1.49.98,2.69,1.74,3.16.4.25.74.33.99.23.31-.11.56-.45.72-.74-.4-.36-.92-.48-1.54-.34-.54.13-1.08-.2-1.21-.74-.13-.54.2-1.08.74-1.21,1.44-.34,2.78.06,3.67,1.11,1.01,1.17,1.26,2.92.64,4.47-.43,1.06-1.42,1.75-2.78,1.93-.25.03-.51.05-.77.05-2.09,0-4.41-1.07-5.65-2.68-.75-.98-1.33-2.52-1.94-4.32-.7-.16-1.37-.42-2.02-.77,2.82,7.34.82,16,.71,16.44-.1.4-.43.7-.83.76-.05,0-.09,0-.14,0-.36,0-.69-.19-.87-.51-.03-.05-.13-.23-.29-.54-.16.97-.3,1.55-.3,1.55,0,0-5.23-9.19-3.06-20.02.06.07.11.14.16.21.08-.63.18-1.27.31-1.91,0-.02.02-.05.02-.07-2.03-2.89-3.67-6.75-4.9-10.91-.23,5.48-.87,10.3-1.9,14.42.1.11.18.23.22.38,3.65,12.67-1.79,21.65-2.02,22.02-.18.3-.51.47-.85.47-.06,0-.12,0-.19-.02-.31-.06-.57-.26-.7-.53-.33.68-.56,1.06-.56,1.06,0,0-1.14-6.25-.45-12.75-.7.98-1.45,1.86-2.26,2.62.16.15.28.35.31.58,2.06,14.22-4.26,20.67-4.53,20.94-.19.19-.45.29-.7.29-.12,0-.24-.02-.36-.07-.16-.06-.28-.16-.39-.28-.42.56-.7.85-.7.85,0,0-.47-8.29,1.56-14.83.47-1.93,1.11-3.81,2-5.41-2.04,1.15-4.31,1.73-6.78,1.73-1.47,0-3.01-.21-4.61-.61l.47,21.55h15.84l29.46-27.96Z"/>
    <path class="cls-2" d="m243.9,67.46c.23.73.46,1.47.67,2.22l11.75-6.59v-2.32l-12.42,6.7Z"/>
    <path class="cls-2" d="m217.48,149.29c.81-2.59,1.38-6.04,1.07-10.41-.17.35-.33.71-.48,1.08.3,3.73-.02,6.82-.59,9.33Z"/>
    <path class="cls-2" d="m225,139.09c.94-3.1,1.73-7.72.72-13.23-.17.52-.31,1.05-.44,1.58.81,4.62.43,8.61-.28,11.64Z"/>
    <path class="cls-2" d="m236.83,134.57c.09.25.18.52.27.75.38-3.54.48-9.32-1.99-13.86-.06.66-.1,1.3-.11,1.94,1.7,3.66,1.98,7.87,1.84,11.16Z"/>
    <path class="cls-2" d="m216.94,43.52c.15-.12.17-.45-.05-.72h0c-.11-.14-.26-.23-.41-.25-.02,0-.05,0-.08,0-.07,0-.14.02-.2.07-.09.07-.11.18-.12.26,0,.15.05.32.16.46.22.27.54.32.69.19Z"/>
    <path class="cls-2" d="m197.23,92.61l.19,3.51,29.52-16.55c-.22-.89-.37-1.8-.47-2.71l-29.25,15.76Z"/>
    <path class="cls-2" d="m227.41,40.33s.01-.06.02-.08c0-.15-.05-.32-.16-.46-.22-.27-.54-.32-.69-.19-.11.09-.23.15-.36.19l-7.53,2.1c.19.32.3.66.35,1l8.31-2.55s.05,0,.07,0Z"/>
    <polygon class="cls-2" points="234.44 160 256.32 160 256.32 138.62 234.44 160"/>
    <path class="cls-2" d="m231.22,63.58l-34.7,15.97.59,10.86,29.22-15.75c-.13-4.39.72-8.21.78-8.49.08-.37.37-.66.74-.75.9-.22,2.83-.94,3.37-1.84Z"/>
    <path class="cls-2" d="m203.7,137.28c-.01-.07,0-.14,0-.21l-.69-31.38c0-.35.17-.69.48-.87l28.72-17.69-1.05-2.85-.14.27c-.16.3-.45.5-.79.54-.34.04-.67-.1-.88-.37-.77-.95-1.36-2.04-1.8-3.2l-30.02,16.83,1.21,61.65h5.48l-.5-22.72Z"/>
    <path class="cls-2" d="m224.19,55.04c-2.38-1.53-5.06-5.08-6.15-7.79-.27-.67-.43-1.27-.5-1.82-.26.09-.53.14-.81.14-.7,0-1.39-.31-1.92-.87l-21.74,6.13,3.22,26.6,29.58-13.61c-.88-1.31-3.25-5.36-1.69-8.79Z"/>
    <path class="cls-2" d="m139.87,132.63c-7.12,4.08-11.03,13.72-12.46,17.96,3.43-1.81,10.4-6.78,12.46-17.96Z"/>
    <path class="cls-2" d="m180.91,130.84c-3.67,1.21-11.65,4.72-15.8,13.23,8.96-.85,13.98-9.39,15.8-13.23Z"/>
    <path class="cls-2" d="m149.22,157.45c2.77-3.27,8.21-11.15,6.1-20.61-5.83,7.07-6.25,16.4-6.1,20.61Z"/>
    <path class="cls-2" d="m163.14,126.11c4.7-.32,8.9-3.96,10.7-5.75-2.88-1.11-10.33-2.97-17.22,3.7,2,1.52,4.19,2.22,6.52,2.06Z"/>
    <path class="cls-2" d="m97.3,90.09l4.84,65.58,2.47.65c1.06-2.29,7.47-15.31,17.14-17.94-7.04-.55-14.04-4.39-20.87-11.48-.38-.4-.37-1.03.03-1.41.4-.38,1.03-.37,1.41.03,3.66,3.79,7.35,6.59,11.04,8.42-5.19-7.29-1.09-20.81-.89-21.45.09-.29.31-.52.59-.63.28-.11.6-.09.86.07.11.06,10.78,6.49,3.38,23.59,3.16.96,6.33,1.2,9.48.7.27-.04.54-.12.81-.17-7.63-5.08-5.35-19.7-5.25-20.37.05-.28.21-.52.44-.68.24-.15.52-.2.8-.13.17.04,4.24,1.15,6.73,5.54,2.12,3.74,2.41,8.65.92,14.58,4.77-1.84,9.43-5.43,13.88-10.63-.24.02-.5.05-.73.05-7.51,0-11.69-7.78-12.93-12.41-.14-.51.14-1.03.64-1.2.24-.08,5.86-1.96,10.51,1.02,2.75,1.76,4.52,4.81,5.29,9.06,3.09-4.19,6.07-9.18,8.89-14.96.23-.46.77-.68,1.25-.5.48.18.75.71.61,1.2-1.48,5.32-2.3,10.46-2.5,15.19,9.43-8.16,19.76-2.72,19.87-2.66.26.14.45.4.51.69.06.3-.02.6-.22.83-.24.28-5.95,6.96-13.02,7.44-.27.02-.54.03-.81.03-2.26,0-4.38-.67-6.35-1.99.32,7.51,2.42,13.62,6.16,17.18.23.22.46.42.7.61,5.72-12.76,18.91-15.49,19.48-15.6.35-.07.71.06.95.33s.31.65.19.98c-.22.63-5.22,14.48-17.29,16.3,4.08,1.72,9.26,1.55,15.49-.54.52-.17,1.09.11,1.27.63.18.52-.11,1.09-.63,1.27-3.56,1.19-6.86,1.78-9.86,1.78-.45,0-.89-.03-1.32-.05,3.28,3.02,4.19,7.17,4.16,10.96h9.81l-1.01-51.84-86.9-18.07Z"/>
    <path class="cls-2" d="m147.41,159.96c-.09-.64-2.11-15.77,7.68-25.85.02-.02.04-.03.06-.05-1.53-6.25-1.31-13.61-.1-20.59-4.08,7.14-8.45,12.8-13.02,16.93.1.18.15.39.12.6-2.21,17.51-15.45,22.15-16.01,22.34-.1.03-.21.05-.32.05-.25,0-.49-.09-.68-.27-.27-.25-.38-.63-.29-.98.13-.5,2.34-8.89,7.56-15.49-1.75.72-3.52,1.23-5.31,1.51-.95.15-1.9.23-2.85.26.19.25.25.58.16.89-3.85,12.52-11.47,16.67-15.79,18.05l10.03,2.63h28.78s-.01-.03-.01-.04Z"/>
    <path class="cls-2" d="m168.27,149.28c-1.25,4.2-1.02,7.8-.18,10.72h5.39c.04-3.88-1.06-8.12-5.21-10.72Z"/>
    <path class="cls-2" d="m114,114.46c-.94,3.81-3.01,14.44,1.85,19.34,4.71-11.66.35-17.37-1.85-19.34Z"/>
    <path class="cls-2" d="m121.94,140.39c-7.31,2.23-12.78,11.45-14.79,15.33,3.42-.88,10.76-4.04,14.79-15.33Z"/>
    <path class="cls-2" d="m141.51,113.48c-2.82-1.81-6.22-1.41-7.83-1.06,1,2.91,4.6,11.22,12.41,9.82-.57-4.23-2.11-7.18-4.57-8.76Z"/>
    <path class="cls-2" d="m88.15,78.38l6.05,81.62h16.56l-9.82-2.58c-.41-.11-.71-.47-.74-.89l-4.99-67.62c-.02-.31.1-.62.34-.83.24-.21.55-.29.86-.23l88.98,18.5c.46.09.79.49.8.96l1.03,52.68h9.51l-1.2-61.39-107.37-20.22Z"/>
    <path class="cls-2" d="m212.85,134.98c.22.19.44.35.67.48-.55-6.27-2.32-9.11-3.76-10.4-.56-.5-1.09-.79-1.53-.96.08.41.18.87.29,1.35,1.65,1.23,3.52,3.87,4.33,9.53Z"/>
    <path class="cls-2" d="m128.6,121.42c-1.33-2.38-3.24-3.61-4.43-4.19-.37,3.64-.89,14.19,5.09,17.48,1.43-5.5,1.21-9.96-.66-13.29Z"/>
    <path class="cls-2" d="m166.54,148.15c-2.12-.72-4.02-1.83-5.64-3.37-1.22-1.16-2.25-2.51-3.11-3.99.16,9.74-6.26,17.21-8.17,19.21h16.45c-.85-3.28-1.01-7.27.47-11.85Z"/>
    <path class="cls-2" d="m229.07,41.48c3.15,3.08,3.6,8.31,3.66,10.07,1.37.84,4.95,3.21,6.16,5.5.12.24.15.51.07.77l15.91-7.32-15.61-12.67-9.87,2.78c-.05.31-.16.61-.32.87Z"/>
    <path class="cls-2" d="m235.62,114.56c-3.22-2.74-2.48-5.52-2.16-6.62-2.69-3.67-1.5-8.74-.72-11.08-1.11-.3-2.36-1.06-2.91-2.74-.5-1.51.23-2.86,1.16-3.89l-25.98,16,.66,30.14c1.7.48,3.31.7,4.83.68-3.63-3.43-4.95-12.65-4.95-12.65,0,0,.27-.02.7.05-.13-.68-.21-1.19-.24-1.42-.04-.27.04-.55.21-.76.17-.22.42-.35.7-.37.2-.02,2.08-.13,4.08,1.61.52.45.98,1,1.41,1.6-.66-1.74-1.01-3.08-1.01-3.08,0,0,.29-.14.78-.23-.18-.58-.28-.96-.3-1.03-.12-.47.11-.95.54-1.15.09-.04,2.26-1.03,4.7.27,2.39,1.27,4.11,4.23,5.13,8.79,1.51-3,2.65-6.75,3.4-11.24-.79.56-1.64.9-2.53,1.02-4.15,2.3-8.24-3.21-8.24-3.21,0,0,.24-.38.65-.9,0,0,0,0,0,0-.24-.33-.26-.77-.05-1.12.11-.17,2.7-4.27,6.24-4.15,1.68.06,3.23,1.03,4.63,2.88.35-3.92.46-8.26.33-13.02-.01-.53.38-.97.9-1.02.51-.04,1,.31,1.08.83,1.9,11.5,5.93,19.98,10.36,22.23-.87-2.54-1.9-5.11-3.4-6.39Z"/>
    <path class="cls-2" d="m192.89,48.81l21.2-5.97s0-.04,0-.06c.03-.68.34-1.31.85-1.72.29-.24.64-.39,1.01-.46.03-.01.05-.03.08-.04l9.48-2.64c1.02-.67,2.47-.42,3.31.62.03.04.06.09.09.13l9.48-2.67-1.54-12.15-45.05,11.2,1.09,13.77Z"/>
    <path class="cls-2" d="m238.7,60.13l-.72.33c.14.17.28.29.39.34.07-.06.2-.33.33-.67Z"/>
    <polygon class="cls-2" points="231.06 23.22 170.11 19.73 121.15 27.8 190.65 33.27 231.06 23.22"/>
    <path class="cls-2" d="m241.69,67.51c-.11-.2-.13-.43-.09-.64-.62-1.85-1.25-3.56-1.73-4.83-.16.18-.33.34-.54.47-.47.29-1,.36-1.53.2-1.46-.43-2.82-2.83-2.53-4.43.06-.3.26-1.02,1-1.45-1.46-1.59-3.99-3.25-5.04-3.86-.31-.18-.5-.52-.5-.88,0-.07.06-6.75-3.55-9.62l-7.7,2.36c0,.35.1.9.41,1.67,1.16,2.86,4.21,6.5,6.04,7.2.29.11.51.35.6.65s.03.62-.15.87c-1.56,2.13-.21,5.18.71,6.77.89-.91,2.28-2,3.67-1.91.52.04,1.21.25,1.8.98.24.09.45.27.57.52.09.2.09.4.06.6.3.86.15,1.58-.07,2.07-.74,1.67-3.04,2.57-4.19,2.93-.22,1.2-.69,4.13-.61,7.34.03.04.08.08.1.13.18.33.14.72-.05,1.01.15,2.26.61,4.57,1.63,6.46l.4-.78c.18-.35.56-.56.95-.54.4.02.74.28.88.65l2.69,7.31c.17.46-.02.98-.45,1.22-1.08.61-3.16,2.26-2.75,3.5.55,1.66,2.23,1.52,2.3,1.52.34-.03.7.12.9.41.21.29.25.66.1.99-.03.07-2.95,6.82.27,10.65.15.17.23.4.23.62,0,.25-.06.48-.15.76-.29.99-.78,2.64,1.52,4.6,2.22,1.89,3.43,5.53,4.5,8.74.65,1.96,1.27,3.81,1.95,4.69,1.08,1.4,3.21,2.06,4.56,1.87.44-.06,1.01-.23,1.2-.7.02-.06.03-.13.05-.19-.16.1-.34.19-.53.26-.25.09-.56.16-.92.16-.51,0-1.12-.14-1.82-.57-1.46-.91-2.38-2.92-2.78-5.19-.01-.06-.03-.12-.03-.19-.39-2.43-.18-5.15.63-7.15,1.41-3.49,1.01-6.46-1.32-9.94-.22-.32-.23-.75-.02-1.08,2.02-3.3.97-10.45.39-12.92-.07-.32.01-.65.23-.9.48-.54,1.64-2.22,1.2-3.48-.44-1.25-1.09-1.28-1.14-1.28-.27.03-.53-.05-.74-.23-.21-.18-.32-.43-.34-.71l-.51-8.2c-.02-.33.12-.64.37-.84.25-.2.59-.27.91-.18l1.07.31c-.32-2.2-1.09-4.97-1.93-7.56-.08-.07-.15-.15-.2-.25Zm1.9,41.37c.23,2-.51,4.03-1.94,5.31-.19.17-.43.25-.67.25-.27,0-.55-.11-.75-.33-.37-.41-.33-1.04.08-1.41.95-.85,1.45-2.22,1.29-3.58-.19-1.61-1.27-3.02-3.05-3.99-.49-.26-.67-.87-.4-1.36.26-.49.87-.67,1.36-.4,2.37,1.29,3.82,3.25,4.09,5.52Z"/>
    <path class="cls-2" d="m243.26,65.53l12.46-6.72v-6.52s-14.85,6.84-14.85,6.84c.18.45,1.27,3.11,2.39,6.4Z"/>
    <polygon class="cls-2" points="190.9 48.97 189.81 35.2 113.88 29.24 114.09 39.72 190.9 48.97"/>
    <polygon class="cls-2" points="195.23 92.74 86.99 73.83 84.62 75.68 195.44 96.56 195.23 92.74"/>
    <polygon class="cls-2" points="195.12 90.69 194.52 79.78 87.54 63.37 87.71 71.93 195.12 90.69"/>
    <polygon class="cls-2" points="191.09 51.01 113.41 41.65 88.9 61.56 194.33 77.73 191.09 51.01"/>
    <path class="cls-2" d="m219.8,130.19c.26.09.51.14.77.15-1.05-5.76-2.92-7.91-4.34-8.68-.82-.45-1.58-.49-2.13-.44.06.21.14.44.22.67,1.85.54,4.14,2.49,5.48,8.3Z"/>
    <path class="cls-2" d="m214.35,129.13c.6,1.91,1.01,4.14,1.2,6.74.68-.33,1.34-.7,1.95-1.17.71-.53,1.36-1.18,1.98-1.89-2.1.2-3.83-1.54-5.14-3.68Z"/>
    <path class="cls-2" d="m225,115.39c.25-.22.49-.48.72-.77-.96-1.71-2.37-3.51-4.07-3.57-.63-.02-1.23.2-1.77.51,1.57-.1,3.35.8,5.12,3.83Z"/>
    <path class="accent" d="m213.55,157.58s.28-.29.7-.85c-.14-.16-.24-.37-.25-.6-.02-.41-.38-7.19,1.11-13.38-2.03,6.54-1.56,14.83-1.56,14.83Z"/>
    <path class="accent" d="m217.48,149.29c.58-2.51.89-5.59.59-9.33-1.67,4.13-2.05,9.59-2.11,12.96.51-.93,1.05-2.15,1.52-3.64Z"/>
    <path class="accent" d="m222.64,145.38s.23-.38.56-1.06c-.04-.08-.08-.17-.09-.27-.06-.35-1.04-5.85-.57-11.91-.11.17-.23.33-.35.49-.69,6.5.45,12.75.45,12.75Z"/>
    <path class="accent" d="m224.64,140.21c.12-.35.25-.73.37-1.13.71-3.03,1.09-7.02.28-11.64-1.09,4.48-.94,9.5-.65,12.77Z"/>
    <path class="accent" d="m212.85,134.98c-.8-5.65-2.68-8.3-4.33-9.53.75,3.27,2.2,7.72,4.33,9.53Z"/>
    <path class="accent" d="m205.56,124.38s1.32,9.22,4.95,12.65c.54,0,1.07-.04,1.59-.11-3.6-2.44-5.26-9.37-5.84-12.49-.43-.07-.7-.05-.7-.05Z"/>
    <path class="accent" d="m212.42,125.09c.78,1.1,1.43,2.45,1.93,4.04,1.31,2.15,3.03,3.89,5.14,3.68.16-.18.32-.34.48-.53-.56-.08-1.11-.27-1.65-.57-3.34-1.84-5.4-7.57-6.12-9.94-.48.09-.78.23-.78.23,0,0,.35,1.34,1.01,3.08Z"/>
    <path class="accent" d="m219.28,129.97c.17.1.35.16.52.22-1.34-5.81-3.63-7.76-5.48-8.3.9,2.69,2.68,6.83,4.96,8.08Z"/>
    <path class="accent" d="m223.14,118.44c-.2.03-.4.05-.61.06-.02,0-.04,0-.07,0-3.75,0-6.74-3.94-6.91-4.17-.42.52-.65.9-.65.9,0,0,4.09,5.51,8.24,3.21Z"/>
    <path class="accent" d="m217.6,113.67c.85.95,2.79,2.82,4.86,2.82.02,0,.03,0,.05,0,.87-.01,1.71-.38,2.5-1.1-1.77-3.03-3.55-3.93-5.12-3.83-1,.57-1.82,1.5-2.28,2.11Z"/>
    <path class="accent" d="m236.83,134.57c.14-3.3-.14-7.5-1.84-11.16-.12,4.5.88,8.46,1.84,11.16Z"/>
    <path class="accent" d="m236.11,140.3s.14-.58.3-1.55c-1.03-2.02-4.34-9.39-3.2-18.27-.05-.07-.1-.14-.16-.21-2.16,10.84,3.06,20.02,3.06,20.02Z"/>
    <polygon class="cls-1" points="256.32 102.83 255.37 136.76 231.58 160 234.44 160 256.32 138.62 256.32 102.83"/>
    <path class="cls-1" d="m88.15,78.38l107.37,20.22,1.2,61.39h2l-1.21-61.65,30.02-16.83c.44,1.16,1.03,2.25,1.8,3.2.21.26.53.4.88.37.34-.03.63-.24.79-.54l.14-.27,1.05,2.85-28.72,17.69c-.3.19-.48.52-.48.87l.69,31.38c0,.07,0,.14,0,.21l.5,22.72h2l-.47-21.55c1.61.41,3.15.61,4.61.61,2.47,0,4.73-.58,6.78-1.73-.89,1.61-1.54,3.48-2,5.41.63-2.02,1.49-3.87,2.68-5.26.12.85.21,1.68.28,2.47.15-.37.31-.74.48-1.08.31,4.37-.26,7.81-1.07,10.41-.88,3.82-2.35,6.26-3.23,7.44.1.12.23.22.39.28.12.04.24.07.36.07.26,0,.51-.1.7-.29.27-.27,6.59-6.72,4.53-20.94-.03-.23-.15-.43-.31-.58.81-.76,1.56-1.64,2.26-2.62.31-2.96,1.01-5.97,2.36-8.47.32,1.13.55,2.21.74,3.28.13-.54.27-1.07.44-1.58,1,5.51.22,10.12-.72,13.23-.56,2.4-1.3,4.19-1.81,5.24.14.27.39.48.7.53.06.01.12.02.19.02.34,0,.67-.18.85-.47.23-.38,5.67-9.35,2.02-22.02-.04-.14-.12-.27-.22-.38,1.03-4.12,1.66-8.93,1.9-14.42,1.23,4.17,2.87,8.03,4.9,10.91,0,.02-.02.05-.02.07-.13.64-.23,1.28-.31,1.91.72.91,1.31,1.89,1.78,2.92.02-.64.05-1.28.11-1.94,2.47,4.54,2.38,10.32,1.99,13.86-.09-.23-.18-.5-.27-.75-.07,1.7-.26,3.16-.43,4.18.15.3.26.49.29.54.18.32.51.51.87.51.05,0,.09,0,.14,0,.41-.06.74-.36.83-.76.11-.44,2.11-9.09-.71-16.44.65.35,1.32.61,2.02.77.61,1.81,1.19,3.35,1.94,4.32,1.24,1.61,3.56,2.68,5.65,2.68.26,0,.52-.02.77-.05,1.36-.19,2.35-.87,2.78-1.93.62-1.54.37-3.29-.64-4.47-.9-1.05-2.24-1.45-3.67-1.11-.54.13-.87.67-.74,1.21.13.54.67.87,1.21.74.62-.15,1.15-.02,1.54.34-.17.29-.42.63-.72.74-.26.09-.59.02-.99-.23-.76-.47-1.37-1.66-1.74-3.16,2.24-1.27,4.45-3.65,6.6-7.11.29-.47.15-1.09-.32-1.38-.47-.29-1.09-.15-1.38.32-1.75,2.81-3.5,4.82-5.22,6.01-.1-1.6.09-3.31.68-4.76,1.59-3.95,1.23-7.45-1.18-11.29,2.09-4.23.82-11.43.43-13.37.66-.88,2-3.01,1.26-5.08-.52-1.48-1.39-2.17-2.16-2.45l-.1-1.6,9.3-5.59-1.63,55.92-29.46,27.96h2.91l28.23-26.79c.19-.18.3-.43.31-.7l1.7-58.16c0-.37-.18-.71-.5-.89-.32-.19-.71-.18-1.02,0l-9.98,6-.13-2.14,1.12.33c.31.09.65.03.9-.17.25-.2.4-.51.38-.83-.06-1.41-.39-3.15-.85-4.99l11.21-6.29v-2.29l-11.75,6.59c-.21-.74-.44-1.49-.67-2.22l12.42-6.7v-11.67l-15.9-12.9-1.74-13.72s-.02-.04-.02-.06c0-.02,0-.04,0-.05,0-.03-.03-.06-.04-.09-.03-.07-.06-.14-.1-.2-.03-.04-.06-.08-.09-.12-.05-.05-.1-.1-.15-.14-.04-.03-.08-.06-.13-.09-.06-.03-.12-.05-.19-.07-.05-.02-.1-.03-.16-.04-.02,0-.03-.01-.05-.01l-67.64-3.87c-.08,0-.15,0-.22.01l-57.2,9.42s-.06.02-.09.03c-.04.01-.08.03-.12.04-.08.03-.16.07-.23.13-.03.02-.05.04-.08.07-.06.06-.12.13-.16.2-.02.04-.04.07-.06.11-.03.07-.05.15-.07.23,0,.03-.03.06-.03.1,0,.02,0,.03,0,.05,0,.02,0,.03,0,.05l.23,11.97-26.21,21.29s-.03.05-.05.07c-.07.07-.14.15-.19.24-.03.05-.04.1-.06.15-.02.05-.05.1-.06.16,0,.03,0,.06,0,.09,0,.03-.02.05-.02.08l.2,10.07-4.07,3.18c-.31.24-.45.64-.36,1.02s.4.67.79.75l4.04.76,6.08,82h2.01l-6.05-81.62Zm104.93-27.55l21.74-6.13c.52.56,1.22.87,1.92.87.27,0,.55-.05.81-.14.07.55.23,1.15.5,1.82,1.1,2.71,3.77,6.26,6.15,7.79-1.56,3.43.81,7.47,1.69,8.79l-29.58,13.61-3.22-26.6Zm23-7.97c0-.08.03-.19.12-.26.06-.05.14-.07.2-.07.03,0,.05,0,.08,0,.15.02.3.12.41.25h0c.22.27.2.59.05.72-.15.12-.48.08-.69-.19-.11-.14-.17-.3-.16-.46Zm2.6-.98l7.53-2.1c.13-.04.26-.1.36-.19.15-.13.47-.08.69.19.11.14.17.3.16.46,0,.02,0,.05-.02.08-.02,0-.05,0-.07,0l-8.31,2.55c-.05-.34-.16-.68-.35-1Zm-21.26,54.23l-.19-3.51,29.25-15.76c.1.91.25,1.82.47,2.71l-29.52,16.55Zm29.69-29.95c-.06.28-.91,4.1-.78,8.49l-29.22,15.75-.59-10.86,34.7-15.97c-.54.9-2.47,1.62-3.37,1.84-.37.09-.66.38-.74.75Zm1.57,32.56c-.09-.52-.57-.88-1.08-.83-.52.05-.92.5-.9,1.02.14,4.75.02,9.09-.33,13.02-1.4-1.85-2.95-2.82-4.63-2.88-3.54-.12-6.13,3.97-6.24,4.15-.21.35-.19.79.05,1.12,0,0,0,0,0,0,.84-1.05,2.43-2.64,4.34-2.76.55-.32,1.15-.53,1.77-.51,1.7.06,3.11,1.87,4.07,3.57-.24.29-.48.55-.72.77.15.26.3.53.46.83-.76,1.08-1.54,1.79-2.32,2.22.89-.12,1.74-.45,2.53-1.02-.75,4.49-1.89,8.24-3.4,11.24-1.02-4.56-2.74-7.52-5.13-8.79-2.43-1.3-4.61-.31-4.7-.27-.44.2-.66.69-.54,1.15.02.07.12.45.3,1.03.53-.1,1.28-.15,2.13.1-.08-.23-.15-.46-.22-.67.55-.06,1.31-.01,2.13.44,1.42.77,3.29,2.92,4.34,8.68-.26,0-.51-.06-.77-.15.17.76.33,1.58.47,2.47-.27.09-.53.13-.79.16-.62.71-1.28,1.36-1.98,1.89-.62.47-1.28.84-1.95,1.17-.19-2.6-.6-4.83-1.2-6.74-.8-1.32-1.45-2.78-1.93-4.04-.43-.6-.9-1.15-1.41-1.6-2-1.73-3.88-1.63-4.08-1.61-.27.02-.53.16-.7.37-.17.21-.25.49-.21.76.03.23.11.73.24,1.42.55.09,1.37.35,2.26,1.01-.11-.48-.21-.93-.29-1.35.44.17.97.46,1.53.96,1.44,1.28,3.2,4.13,3.76,10.4-.23-.13-.46-.29-.67-.48.14,1.01.26,2.11.32,3.32-1-.06-1.88-.53-2.66-1.26-1.52.02-3.13-.21-4.83-.68l-.66-30.14,25.98-16c-.94,1.03-1.66,2.38-1.16,3.89.55,1.68,1.8,2.44,2.91,2.74-.78,2.34-1.97,7.42.72,11.08-.32,1.11-1.06,3.88,2.16,6.62,1.5,1.28,2.53,3.85,3.4,6.39-4.43-2.24-8.46-10.73-10.36-22.23Zm14.08-23.71c-.32-.09-.65-.03-.91.18-.25.2-.39.52-.37.84l.51,8.2c.02.27.12.53.34.71.21.18.46.26.74.23.05,0,.7.03,1.14,1.28.45,1.26-.71,2.94-1.2,3.48-.22.24-.31.58-.23.9.58,2.48,1.63,9.62-.39,12.92-.2.33-.2.75.02,1.08,2.33,3.48,2.73,6.46,1.32,9.94-.81,2.01-1.02,4.72-.63,7.15,0,.06.02.12.03.19.39,2.28,1.31,4.29,2.78,5.19.69.43,1.31.57,1.82.57.36,0,.67-.07.92-.16.19-.07.37-.16.53-.26-.02.06-.02.13-.05.19-.19.47-.75.64-1.2.7-1.35.19-3.48-.48-4.56-1.87-.68-.88-1.29-2.73-1.95-4.69-1.07-3.21-2.28-6.85-4.5-8.74-2.29-1.95-1.81-3.61-1.52-4.6.08-.29.15-.51.15-.76,0-.23-.09-.45-.23-.62-3.22-3.83-.3-10.58-.27-10.65.14-.32.1-.7-.1-.99-.21-.29-.56-.44-.9-.41-.07,0-1.76.15-2.3-1.52-.41-1.24,1.68-2.9,2.75-3.5.43-.24.62-.76.45-1.22l-2.69-7.31c-.14-.37-.48-.63-.88-.65-.39-.03-.77.19-.95.54l-.4.78c-1.03-1.89-1.48-4.2-1.63-6.46.19-.3.23-.68.05-1.01-.03-.05-.07-.08-.1-.13-.08-3.21.38-6.14.61-7.34,1.15-.36,3.45-1.26,4.19-2.93.21-.48.36-1.2.07-2.07.04-.2.03-.4-.06-.6-.12-.25-.32-.43-.57-.52-.59-.73-1.28-.95-1.8-.98-1.39-.09-2.78,1.01-3.67,1.91-.92-1.59-2.28-4.64-.71-6.77.18-.25.24-.57.15-.87s-.31-.54-.6-.65c-1.84-.7-4.89-4.34-6.04-7.2-.31-.77-.41-1.31-.41-1.67l7.7-2.36c3.61,2.87,3.55,9.55,3.55,9.62,0,.36.18.7.5.88,1.05.61,3.58,2.27,5.04,3.86-.74.43-.95,1.15-1,1.45-.3,1.6,1.07,4,2.53,4.43.53.16,1.06.09,1.53-.2.2-.12.38-.29.54-.47.48,1.27,1.11,2.98,1.73,4.83-.04.21-.02.43.09.64.05.1.12.18.2.25.84,2.59,1.61,5.35,1.93,7.56l-1.07-.31Zm-5.41-16.46s.02-.01.03-.01c-.01,0-.02,0-.03.01Zm.64,1.91l.72-.33c-.13.34-.26.61-.33.67-.11-.04-.25-.17-.39-.34Zm17.75-1.65l-12.46,6.72c-1.12-3.29-2.2-5.95-2.39-6.4l14.87-6.84v6.52Zm-16.47-20.99l15.61,12.67-15.91,7.32c.08-.25.06-.53-.07-.77-1.21-2.3-4.79-4.66-6.16-5.5-.06-1.76-.51-6.99-3.66-10.07.16-.26.27-.56.32-.87l9.87-2.78Zm-.87-1.83l-9.48,2.67s-.05-.09-.09-.13c-.85-1.04-2.29-1.29-3.31-.62l-9.48,2.64s-.05.03-.08.04c-.37.07-.72.22-1.01.46-.51.42-.82,1.04-.85,1.72,0,.02,0,.04,0,.06l-21.2,5.97-1.09-13.77,45.05-11.2,1.54,12.15Zm-68.27-16.26l60.94,3.49-40.4,10.05-69.5-5.46,48.97-8.07Zm19.69,15.47l1.09,13.76-76.81-9.25-.21-10.48,75.92,5.97Zm-76.4,6.44l77.68,9.36,3.24,26.73-105.43-16.17,24.51-19.91Zm81.12,38.14l.6,10.9-107.41-18.76-.17-8.55,106.98,16.41Zm-109.9-4.1l2.37-1.85,108.24,18.91.21,3.82-110.82-20.87Z"/>
    <path class="cls-1" d="m214,156.13c.01.23.11.43.25.6.87-1.18,2.35-3.61,3.23-7.44-.47,1.49-1.01,2.71-1.52,3.64.06-3.37.44-8.83,2.11-12.96-.06-.8-.16-1.62-.28-2.47-1.19,1.39-2.05,3.24-2.68,5.26-1.49,6.19-1.14,12.97-1.11,13.38Z"/>
    <path class="cls-1" d="m223.1,144.06c.02.1.05.18.09.27.51-1.05,1.25-2.84,1.81-5.24-.12.4-.24.78-.37,1.13-.29-3.26-.44-8.29.65-12.77-.19-1.06-.41-2.15-.74-3.28-1.35,2.5-2.05,5.51-2.36,8.47.12-.16.23-.32.35-.49-.47,6.06.5,11.55.57,11.91Z"/>
    <path class="cls-1" d="m212.1,136.92c-.52.07-1.05.11-1.59.11.78.73,1.66,1.21,2.66,1.26-.07-1.21-.18-2.31-.32-3.32-2.12-1.81-3.57-6.25-4.33-9.53-.89-.66-1.71-.92-2.26-1.01.58,3.12,2.25,10.05,5.84,12.49Z"/>
    <path class="cls-1" d="m218.31,131.72c.54.3,1.09.48,1.65.57-.15.19-.32.35-.48.53.26-.02.52-.07.79-.16-.14-.89-.3-1.71-.47-2.47-.17-.06-.35-.12-.52-.22-2.28-1.26-4.06-5.39-4.96-8.08-.85-.25-1.6-.2-2.13-.1.73,2.37,2.78,8.09,6.12,9.94Z"/>
    <path class="cls-1" d="m214.35,129.13c-.5-1.6-1.14-2.95-1.93-4.04.48,1.26,1.12,2.72,1.93,4.04Z"/>
    <path class="cls-1" d="m222.46,118.5s.04,0,.07,0c.21,0,.41-.03.61-.06.78-.43,1.57-1.14,2.32-2.22-.15-.29-.3-.57-.46-.83-.79.72-1.62,1.09-2.5,1.1-.02,0-.03,0-.05,0-2.07,0-4-1.87-4.86-2.82.46-.6,1.28-1.53,2.28-2.11-1.91.12-3.49,1.72-4.34,2.76.17.23,3.17,4.17,6.91,4.17Z"/>
    <path class="cls-1" d="m236.4,138.75c.17-1.02.35-2.48.43-4.18-.96-2.71-1.96-6.66-1.84-11.16-.48-1.03-1.06-2.01-1.78-2.92-1.14,8.87,2.17,16.25,3.2,18.27Z"/>
    <path class="cls-1" d="m108.62,157.37c4.32-1.37,11.94-5.53,15.79-18.05.09-.31.03-.64-.16-.89.95-.03,1.9-.11,2.85-.26,1.78-.28,3.55-.79,5.31-1.51-5.22,6.6-7.43,14.99-7.56,15.49-.09.35.02.73.29.98.19.17.43.27.68.27.11,0,.21-.02.32-.05.56-.19,13.8-4.83,16.01-22.34.03-.21-.02-.42-.12-.6,4.57-4.13,8.94-9.79,13.02-16.93-1.21,6.98-1.43,14.34.1,20.59-.02.02-.04.03-.06.05-9.79,10.08-7.77,25.21-7.68,25.85,0,.02,0,.03.01.04h2.2c1.91-2.01,8.33-9.47,8.17-19.21.87,1.48,1.89,2.82,3.11,3.99,1.62,1.54,3.51,2.66,5.64,3.37-1.48,4.58-1.32,8.58-.47,11.85h2.02c-.83-2.92-1.07-6.52.18-10.72,4.15,2.6,5.25,6.85,5.21,10.72h1.92c.03-3.78-.88-7.93-4.16-10.96.44.03.87.05,1.32.05,3,0,6.3-.59,9.86-1.78.52-.18.81-.74.63-1.27-.17-.52-.74-.8-1.27-.63-6.22,2.08-11.41,2.25-15.49.54,12.07-1.81,17.07-15.67,17.29-16.3.12-.34.05-.71-.19-.98s-.59-.4-.95-.33c-.57.11-13.76,2.84-19.48,15.6-.24-.2-.47-.4-.7-.61-3.75-3.56-5.84-9.67-6.16-17.18,1.97,1.32,4.1,1.99,6.35,1.99.27,0,.54,0,.81-.03,7.07-.49,12.78-7.16,13.02-7.44.19-.23.27-.53.22-.83-.06-.3-.24-.55-.51-.69-.11-.06-10.44-5.5-19.87,2.66.2-4.73,1.02-9.87,2.5-15.19.14-.5-.12-1.02-.61-1.2-.48-.18-1.03.03-1.25.5-2.82,5.78-5.79,10.77-8.89,14.96-.77-4.26-2.55-7.3-5.29-9.06-4.65-2.98-10.27-1.11-10.51-1.02-.5.17-.78.7-.64,1.2,1.24,4.63,5.42,12.41,12.93,12.41.24,0,.49-.03.73-.05-4.45,5.21-9.11,8.79-13.88,10.63,1.5-5.93,1.2-10.84-.92-14.58-2.49-4.39-6.56-5.5-6.73-5.54-.27-.07-.56-.02-.8.13-.24.15-.4.4-.44.68-.11.67-2.38,15.3,5.25,20.37-.27.05-.54.13-.81.17-3.15.5-6.32.26-9.48-.7,7.4-17.1-3.27-23.53-3.38-23.59-.26-.15-.58-.18-.86-.07-.28.11-.5.34-.59.63-.2.64-4.3,14.16.89,21.45-3.7-1.82-7.38-4.62-11.04-8.42-.38-.4-1.02-.41-1.41-.03-.4.38-.41,1.02-.03,1.41,6.84,7.09,13.83,10.92,20.87,11.48-9.67,2.64-16.08,15.66-17.14,17.94l-2.47-.65-4.84-65.58,86.9,18.07,1.01,51.84h2l-1.03-52.68c0-.47-.34-.86-.8-.96l-88.98-18.5c-.31-.07-.63.02-.86.23-.24.21-.36.51-.34.83l4.99,67.62c.03.43.33.79.74.89l9.82,2.58h7.88l-10.03-2.63Zm72.3-26.53c-1.82,3.84-6.84,12.38-15.8,13.23,4.15-8.52,12.13-12.03,15.8-13.23Zm-7.07-10.48c-1.8,1.79-6,5.43-10.7,5.75-2.33.16-4.52-.53-6.52-2.06,6.89-6.67,14.34-4.8,17.22-3.7Zm-24.62,37.09c-.15-4.21.26-13.54,6.1-20.61,2.12,9.46-3.32,17.34-6.1,20.61Zm-15.55-45.04c1.62-.35,5.01-.75,7.83,1.06,2.46,1.58,4,4.52,4.57,8.76-7.81,1.41-11.4-6.91-12.41-9.82Zm6.19,20.21c-2.05,11.18-9.03,16.15-12.46,17.96,1.43-4.24,5.34-13.87,12.46-17.96Zm-15.7-15.41c1.19.58,3.1,1.82,4.43,4.19,1.87,3.33,2.09,7.79.66,13.29-5.98-3.29-5.46-13.85-5.09-17.48Zm-10.17-2.76c2.2,1.98,6.56,7.68,1.85,19.34-4.86-4.9-2.79-15.53-1.85-19.34Zm7.94,25.93c-4.04,11.28-11.38,14.45-14.79,15.33,2.02-3.88,7.48-13.1,14.79-15.33Z"/>
    <path class="cls-1" d="m238.15,103.77c-.26.49-.08,1.09.4,1.36,1.78.97,2.87,2.38,3.05,3.99.16,1.36-.34,2.73-1.29,3.58-.41.37-.45,1-.08,1.41.2.22.47.33.75.33.24,0,.47-.08.67-.25,1.43-1.28,2.18-3.31,1.94-5.31-.26-2.27-1.71-4.23-4.09-5.52-.48-.26-1.09-.08-1.36.4Z"/>
  </g>
</svg>
