<?xml version="1.0" encoding="UTF-8"?>
<svg id="Layer_1" data-name="Layer 1" xmlns="http://www.w3.org/2000/svg" viewBox="0 0 256 160">
  <defs>
    <style>
      .cls-1, .cls-2 {
        stroke-width: 0px;
      }

        :root { fill:#222 }
        .accent { fill: #f9322c; }

        @media (prefers-color-scheme: dark) {
        :root {  fill: #f9322c; }
        .accent { fill:#dee2e6; }
        }
    </style>
  </defs>
  <path class="accent" d="m232.81,38.4c-7.23-9.4-1.45-26.74-1.45-26.74,0,0,10.12,11.57,1.45,26.74Z"/>
  <path class="accent" d="m116.43,130.2c-5.06,5.06,0,15.55,0,15.55,0,0,5.78-3.26,0-15.55Z"/>
  <path class="accent" d="m150.2,160c-.37-5.56-1.01-8.84-1.01-8.84,0,0,6.04,3.19,9.97,8.84h10.12c.79-3.88,2.1-7.78,4.26-11.01,7.23-10.84,10.41-18.82,10.41-18.82,0,0,1.34,7.17,8.48,6.49,7.14-.68,7.23-16.33,7.23-16.33,0,0,14.82,17.69,14.36,33.73-.05,1.92-.2,3.92-.4,5.95h13c-.16-.79-.36-1.57-.6-2.34,1.15.68,2.23,1.43,3.25,2.25l26.74.09v-62c-6.74-12.57-11.67-22.25-11.67-22.25,0,0-7.55,4.21-8.99,16.49s-3.61,30.36-8.67,37.63c0-15.14-7.95-52.08-7.95-52.08l-4.34-13.53c-4.34-13.53,0-40.69,0-40.69,0,0-18.79,10.12-33.97,32.63-15.18,22.51-15.01,42.23-15.01,42.23,0,0-4.51-7.64-9.65-17.57-5.14-9.93-19.44-9.27-19.44-9.27,0,0,2.18.41,7.96,12.7,5.78,12.29-1.21,46.97-1.21,46.97,0,0-7.47-7.21-19.79-10.98,3.23,10.73,0,24.56-3.91,39.49l30.84.23Z"/>
  <path class="cls-1" d="m123.89,161c-.1,0-.19-.01-.29-.04-.53-.16-.83-.72-.67-1.25,4.13-13.66,7.39-24.45-4.87-48.39-.16-.31-.14-.68.04-.98.18-.3.5-.48.85-.48,9.17,0,18.87,7.98,23.69,12.56-1.04-3.45-2.29-8.48-2.29-12.83,0-1.61.2-3.62.44-5.94.84-8.27,1.98-19.6-4.51-26.64-.26-.28-.33-.67-.2-1.02.13-.35.45-.6.82-.65,13.28-1.56,20.69,9.69,22.75,15.86,1.24,3.72,3.23,6.72,4.64,8.54.36-7.1,2.35-26.98,13.13-41.35,12.94-17.25,36.09-35.43,36.33-35.61.31-.25.74-.28,1.09-.09.35.19.55.57.52.97-.02.22-2,22.55-.72,35.96,1.34,14.12,4.85,24.31,8.24,34.17,3.03,8.8,5.92,17.21,6.74,27.42.46-3.65.48-7.32.5-10.92.02-3.89.04-7.56.61-10.98,1.48-8.89,9.34-16.83,9.68-17.17.38-.38.98-.39,1.38-.03.33.3,8.18,7.48,15.07,18.88.29.47.13,1.09-.34,1.37-.47.28-1.09.13-1.37-.34-5.55-9.2-11.89-15.72-13.98-17.76-1.91,2.1-7.32,8.57-8.45,15.37-.54,3.26-.56,6.86-.58,10.67-.04,6.27-.07,12.76-2.35,19.14-.17.46-.64.74-1.13.65-.48-.09-.83-.52-.82-1.01.38-13.64-3.13-23.84-6.84-34.64-3.43-9.97-6.97-20.27-8.33-34.63-1.05-11.01.06-27.88.53-34-5.68,4.62-23.47,19.54-34.16,33.79-12.66,16.87-12.81,42.51-12.81,42.77,0,.4-.24.77-.62.92-.37.16-.8.07-1.09-.22-.18-.18-4.53-4.58-6.75-11.23-1.76-5.28-7.77-14.63-18.41-14.63-.11,0-.22,0-.33,0,5.67,7.73,4.53,19.01,3.76,26.65-.23,2.27-.43,4.22-.43,5.74,0,6.95,3.51,16.17,3.55,16.27.17.45,0,.96-.41,1.21s-.94.17-1.27-.19c-.13-.14-12.34-13.65-23.6-14.93,11.69,23.61,8.22,35.08,4.22,48.33-.13.43-.53.71-.96.71Z"/>
  <path class="cls-1" d="m157.27,73.73c-.23,0-.45-.08-.63-.23-3.33-2.73-5.25-6.42-5.55-10.68-.41-5.9,2.36-12.55,7.62-18.24.31-.34.82-.42,1.22-.2.4.22.6.7.48,1.14-1.71,6.15-1.26,9.94-.82,13.6.48,4.01.93,7.79-1.38,13.95-.11.3-.37.53-.68.61-.08.02-.17.03-.26.03Zm.29-24.58c-3.17,4.46-4.78,9.24-4.48,13.54.22,3.21,1.51,6.05,3.74,8.29,1.58-4.88,1.2-8.02.77-11.61-.34-2.83-.71-5.95-.04-10.22Z"/>
  <path class="cls-1" d="m241.86,160.47c-.23,0-.45-.08-.63-.23-1.9-1.55-2.99-3.66-3.16-6.08-.23-3.31,1.31-7.02,4.23-10.19.31-.34.82-.42,1.22-.2.4.22.6.7.48,1.14-.9,3.23-.66,5.23-.43,7.16.25,2.12.52,4.32-.77,7.74-.11.3-.37.53-.68.61-.08.02-.17.03-.26.03Zm-.5-11.8c-.96,1.81-1.42,3.65-1.3,5.35.09,1.34.56,2.55,1.35,3.57.55-2.11.37-3.6.17-5.28-.13-1.08-.27-2.25-.22-3.64Z"/>
  <path class="cls-1" d="m116.81,148.91c-.23,0-.45-.08-.63-.23-1.9-1.55-2.99-3.66-3.16-6.08-.23-3.31,1.31-7.02,4.23-10.19.31-.34.82-.42,1.22-.2.4.22.6.7.48,1.14-.9,3.23-.66,5.23-.43,7.16.25,2.12.52,4.32-.77,7.74-.11.3-.37.53-.68.61-.08.02-.17.03-.26.03Zm-.5-11.8c-.96,1.81-1.42,3.65-1.3,5.35.09,1.34.56,2.55,1.35,3.57.55-2.11.37-3.6.17-5.28-.13-1.08-.27-2.25-.22-3.64Z"/>
  <path class="cls-1" d="m229.55,41.2s-.07,0-.11,0c-.34-.04-.64-.24-.79-.55-2.25-4.51-1.92-9.42-1.57-14.61.36-5.28.76-11.26-1.38-18.06-.14-.45.05-.94.46-1.17.41-.23.92-.15,1.24.2,6.14,6.82,12.36,22.03,2.93,33.82-.19.24-.48.38-.78.38Zm-.75-28.95c.88,5.14.57,9.75.29,13.92-.3,4.48-.57,8.42.7,12.03,5.87-8.71,3.18-19.14-.99-25.95Z"/>
  <path class="cls-1" d="m189.24,117.46s-.07,0-.11,0c-.34-.04-.64-.24-.79-.55-1.85-3.7-1.58-7.71-1.29-11.95.29-4.26.62-9.1-1.11-14.58-.14-.45.05-.94.46-1.17.41-.23.92-.15,1.24.2,5.02,5.58,10.11,18.02,2.38,27.68-.19.24-.48.38-.78.38Zm-.27-22.72c.53,3.8.3,7.22.08,10.35-.24,3.46-.44,6.52.44,9.31,4.2-6.57,2.49-14.29-.52-19.67Z"/>
  <path class="cls-1" d="m249.34,70.84c-.25,0-.49-.09-.68-.27-3.62-3.37-5.41-6.98-5.33-10.72.12-5.63,4.45-9.41,4.64-9.56.36-.31.88-.32,1.25-.04.14.1,3.42,2.65,1.81,8.3-1.37,4.8-.7,11.12-.69,11.18.05.42-.17.82-.55,1-.14.07-.3.11-.45.11Zm-.75-18.35c-1.11,1.21-3.19,3.94-3.26,7.42-.05,2.46.91,4.88,2.84,7.24-.07-2.43.04-6.02.93-9.15.82-2.88.08-4.64-.51-5.51Z"/>
  <path class="cls-1" d="m168.01,161c-.07,0-.13,0-.2-.02-.54-.11-.89-.64-.78-1.18,1.14-5.62,3.1-10.37,5.82-14.12,8.32-11.46,9.08-20.49,9.09-20.58.04-.54.49-.96,1.03-.93.54.02.96.46.96,1,0,.36.1,8.89,6.91,8.89,1.95,0,3.24-.42,3.94-1.29.88-1.09.99-3.07.35-6.07-2.25-10.52,3.62-15.73,9.33-17,.42-.09.85.09,1.07.46.22.37.19.83-.08,1.16-4.91,5.9-4.07,12.83,2.67,21.83,6.79,9.07,7.49,18.68,7.28,26.88-.01.55-.5,1.01-1.03.97-.55-.01-.99-.47-.97-1.02.2-7.86-.46-17.05-6.88-25.63-2.44-3.26-9.43-12.59-4.41-21.69-3.8,1.96-6.6,6.27-5.02,13.63.79,3.68.55,6.14-.75,7.75-1.1,1.37-2.9,2.03-5.5,2.03-4.41,0-6.79-2.78-7.95-5.79-1.14,3.92-3.52,9.82-8.43,16.58-2.55,3.52-4.4,8-5.48,13.34-.1.47-.51.8-.98.8Z"/>
  <path class="cls-1" d="m148.9,161c-.42,0-.8-.26-.95-.68-1.07-3.14-2.12-4.96-2.13-4.98-.18-.31-.18-.69,0-1s.51-.5.87-.5c.32,0,7.79.06,12.24,5.53.35.43.28,1.06-.14,1.41-.43.35-1.06.28-1.41-.14-2.66-3.26-6.71-4.3-8.99-4.63.41.9.93,2.14,1.46,3.68.18.52-.1,1.09-.62,1.27-.11.04-.22.05-.32.05Z"/>
  <path class="cls-1" d="m160.52,152.16c-.17,0-.33-.04-.49-.13-.41-.23-.61-.71-.47-1.16,1.1-3.68.61-6.65.13-9.53-.42-2.56-.86-5.2-.15-8.19.08-.35.34-.62.68-.72.34-.11.71-.02.97.22,3.8,3.49,6.45,12,.07,19.18-.2.22-.47.34-.75.34Zm.67-16.44c-.1,1.8.18,3.51.48,5.3.29,1.75.59,3.54.57,5.51,1.57-4.01.73-8.12-1.05-10.81Z"/>
</svg>
