<?xml version="1.0" encoding="UTF-8"?>
<svg id="Layer_1" data-name="Layer 1" xmlns="http://www.w3.org/2000/svg" viewBox="0 0 256 160">
  <defs>
    <style>
      .cls-1, .cls-2 {
        stroke-width: 0px;
      }

      .cls-2 {
        fill: #ff2d20;
      }

        :root { fill:#222 }
        .accent { fill: #f9322c; }

        @media (prefers-color-scheme: dark) {
        :root {  fill: #f9322c; }
        .accent { fill:#dee2e6; }
        }
    </style>
  </defs>
  <path class="cls-1" d="m241.07,156.69c-.82,0-1.49-.66-1.5-1.48l-1.38-108c-.01-.83.65-1.51,1.48-1.52h.02c.82,0,1.49.66,1.5,1.48l1.38,108c.01.83-.65,1.51-1.48,1.52h-.02Z"/>
  <path class="cls-1" d="m231.34,71.6c-.83,0-1.5-.67-1.5-1.5v-22.99c0-.83.67-1.5,1.5-1.5s1.5.67,1.5,1.5v22.99c0,.83-.67,1.5-1.5,1.5Z"/>
  <path class="cls-1" d="m231.91,161.5c-.83,0-1.5-.67-1.5-1.5v-48.21c0-.83.67-1.5,1.5-1.5s1.5.67,1.5,1.5v48.21c0,.83-.67,1.5-1.5,1.5Z"/>
  <g>
    <path class="accent" d="m244.41,160l-.81-108.16,6.89-12.98-3.22-11.48-15.93-2.4-7.66-2.65L0,23.19v19.01l226.08,1.55.89,116.26h17.44Zm-26.89-117.8"/>
    <polyline class="accent" points="96 160 102.07 68.55 33.39 61.49 22.32 72.17 15.88 160"/>
    <polyline class="accent" points="204.96 160 203.27 153.81 194.91 143.48 204.11 125.39 199.66 100.76 126.19 115.4 135.04 160"/>
    <path class="cls-1" d="m242.19,48.19h0l-127.89-.98H0c-.55,0-1-.45-1-1S-.55,45.22,0,45.22h114.3l127.39.97,4.19-5.68-1.85-1.39-7.55-.83c-.52-.06-.9-.5-.89-1.02.01-.52.42-.94.94-.97l9.15-.55.06-4.89-11.33-.32c-.35,0-.67-.2-.84-.51s-.17-.68,0-.99l1.49-2.61-1.16-.45L.35,26.84h0c-.55,0-1-.45-1-1,0-.55.44-1,1-1l233.76-.86c.17,0,.25.02.37.07l2.41.95c.27.11.48.32.58.6s.07.58-.08.83l-1.24,2.17,10.65.3c.55.02.98.47.97,1.01l-.09,6.8c0,.52-.42.95-.94.99l-1.18.07,2.32,1.75c.44.33.53.95.2,1.39l-5.08,6.89c-.19.26-.49.41-.8.41Z"/>
    <path class="cls-1" d="m98.2,161s-.06,0-.09,0c-.55-.05-.95-.54-.9-1.09l8.13-86.77-70.63-8.33c.25,1.91-.11,5.16-4.43,7.66-.46.26-1.04.13-1.33-.31-.05-.07-1.18-1.69-2.24-1.16-1.13,2.26-2.62,22.24-3.49,40.34l4.68,4.62c.25.25.35.61.27.96-.09.34-.35.62-.69.71l-4.34,1.25-3.64,41.2c-.05.55-.53.96-1.08.91-.55-.05-.96-.53-.91-1.08l3.7-41.88c.04-.41.32-.76.72-.87l3.35-.96-3.78-3.74c-.2-.2-.31-.48-.3-.76,0-.1.48-10.19,1.19-20.31,1.47-20.94,2.42-21.55,3.11-22,1.76-1.14,3.47-.15,4.49.9,4.04-2.76,2.57-6.07,2.5-6.22-.15-.33-.12-.71.1-1.01s.57-.45.93-.41l73.03,8.61c.54.06.93.55.88,1.09l-8.22,87.74c-.05.52-.48.91-1,.91ZM26.74,70.91h0Z"/>
    <path class="cls-1" d="m26.04,71.22c-.27,0-.55-.11-.75-.33-.37-.41-.33-1.04.08-1.41l7.35-6.57c.41-.37,1.04-.33,1.41.08.37.41.33,1.04-.08,1.41l-7.35,6.57c-.19.17-.43.25-.67.25Z"/>
    <path class="cls-1" d="m132.96,161c-.47,0-.88-.33-.98-.8l-8.42-41.44c-.05-.26,0-.54.15-.76.15-.22.38-.38.65-.42l72.44-13.31c.53-.1,1.04.24,1.16.76l7.99,34.58c.06.26.01.53-.13.76l-3.9,6.19,6.01,6.19c.15.15.24.35.27.56l.91,6.56c.08.55-.31,1.05-.85,1.13-.55.08-1.05-.31-1.13-.85l-.87-6.24-6.33-6.52c-.32-.33-.37-.84-.13-1.23l4.1-6.5-7.68-33.25-70.49,12.95,8.22,40.45c.11.54-.24,1.07-.78,1.18-.07.01-.13.02-.2.02Z"/>
    <path class="cls-1" d="m35.61,76.48c-1.78,0-3.23-1.45-3.23-3.23s1.45-3.23,3.23-3.23,3.23,1.45,3.23,3.23-1.45,3.23-3.23,3.23Zm0-4.45c-.68,0-1.23.55-1.23,1.23s.55,1.23,1.23,1.23,1.23-.55,1.23-1.23-.55-1.23-1.23-1.23Z"/>
    <path class="cls-1" d="m98.31,81.47c-1.78,0-3.23-1.45-3.23-3.23s1.45-3.23,3.23-3.23,3.23,1.45,3.23,3.23-1.45,3.23-3.23,3.23Zm0-4.45c-.68,0-1.23.55-1.23,1.23s.55,1.23,1.23,1.23,1.23-.55,1.23-1.23-.55-1.23-1.23-1.23Z"/>
    <path class="cls-1" d="m160.41,122.47c-1.78,0-3.23-1.45-3.23-3.23s1.45-3.23,3.23-3.23,3.23,1.45,3.23,3.23-1.45,3.23-3.23,3.23Zm0-4.45c-.68,0-1.23.55-1.23,1.23s.55,1.23,1.23,1.23,1.23-.55,1.23-1.23-.55-1.23-1.23-1.23Z"/>
    <path class="cls-1" d="m189.52,31.72c-.54,0-.99-.44-1-.98,0-.55.43-1.01.98-1.02l44.44-.69c.6,0,1.01.43,1.02.98,0,.55-.43,1.01-.98,1.02l-44.44.69h-.02Z"/>
    <path class="cls-1" d="m157.02,38.15h0l-106.79-.8c-.55,0-1-.46-.99-1.01,0-.55.45-.99,1-.99h0l106.79.8c.55,0,1,.46.99,1.01,0,.55-.45.99-1,.99Z"/>
    <path class="cls-1" d="m200.94,41.13h-19.64c-.55,0-1-.45-1-1s.45-1,1-1h19.64c.55,0,1,.45,1,1s-.45,1-1,1Z"/>
    <path class="cls-1" d="m223.68,161c-.55,0-1-.45-1-1V47.19c0-.55.45-1,1-1s1,.45,1,1v112.81c0,.55-.45,1-1,1Z"/>
    <g>
      <path class="cls-1" d="m220.47,74.25h-114.05c-.55,0-1-.45-1-1s.45-1,1-1h114.05c.55,0,1,.45,1,1s-.45,1-1,1Z"/>
      <path class="cls-1" d="m220.47,102.58h-116.85c-.55,0-1-.45-1-1s.45-1,1-1h116.85c.55,0,1,.45,1,1s-.45,1-1,1Z"/>
      <path class="cls-1" d="m22.32,102.58H-1.12c-.55,0-1-.45-1-1s.45-1,1-1h23.44c.55,0,1,.45,1,1s-.45,1-1,1Z"/>
      <path class="cls-1" d="m220.47,130.92h-17.2c-.55,0-1-.45-1-1s.45-1,1-1h17.2c.55,0,1,.45,1,1s-.45,1-1,1Z"/>
      <path class="cls-1" d="m126.85,130.92h-25.83c-.55,0-1-.45-1-1s.45-1,1-1h25.83c.55,0,1,.45,1,1s-.45,1-1,1Z"/>
      <path class="cls-1" d="m21.15,130.92H.61c-.55,0-1-.45-1-1s.45-1,1-1h20.54c.55,0,1,.45,1,1s-.45,1-1,1Z"/>
      <path class="cls-1" d="m220.47,159.25h-12.6c-.55,0-1-.45-1-1s.45-1,1-1h12.6c.55,0,1,.45,1,1s-.45,1-1,1Z"/>
      <path class="cls-1" d="m132.6,159.25h-34.24c-.55,0-1-.45-1-1s.45-1,1-1h34.24c.55,0,1,.45,1,1s-.45,1-1,1Z"/>
      <path class="cls-1" d="m18.65,159.25H1.12c-.55,0-1-.45-1-1s.45-1,1-1h17.52c.55,0,1,.45,1,1s-.45,1-1,1Z"/>
    </g>
    <path class="cls-1" d="m132.63,89.67h-27.75c-.55,0-1-.45-1-1s.45-1,1-1h27.75c.55,0,1,.45,1,1s-.45,1-1,1Z"/>
    <path class="cls-1" d="m197.67,59.61h-19.98c-.55,0-1-.45-1-1s.45-1,1-1h19.98c.55,0,1,.45,1,1s-.45,1-1,1Z"/>
    <path class="cls-1" d="m118.76,118.01h-7.9c-.55,0-1-.45-1-1s.45-1,1-1h7.9c.55,0,1,.45,1,1s-.45,1-1,1Z"/>
    <path class="cls-1" d="m220.05,89.67h-32.38c-.55,0-1-.45-1-1s.45-1,1-1h32.38c.55,0,1,.45,1,1s-.45,1-1,1Z"/>
    <path class="cls-1" d="m2.78,138.28H.34c-.55,0-1-.45-1-1s.45-1,1-1h2.44c.55,0,1,.45,1,1s-.45,1-1,1Z"/>
    <path class="cls-1" d="m31.97,85.11c-.14,0-.29-.03-.42-.09-.5-.23-.72-.83-.48-1.33l2.41-5.17c.23-.5.83-.72,1.33-.48.5.23.72.83.48,1.33l-2.41,5.17c-.17.36-.53.58-.91.58Z"/>
    <path class="cls-1" d="m43.79,79.94c-.23,0-.47-.08-.66-.25l-3.33-2.93c-.42-.36-.46-1-.09-1.41.36-.41,1-.45,1.41-.09l3.33,2.93c.42.36.46,1,.09,1.41-.2.22-.47.34-.75.34Z"/>
    <path class="cls-1" d="m41.73,72.02c-.49,0-.92-.36-.99-.86-.07-.55.31-1.05.86-1.13l5.86-.8c.55-.08,1.05.31,1.13.85.07.55-.31,1.05-.86,1.13l-5.86.8s-.09,0-.14,0Z"/>
    <path class="cls-1" d="m86.97,82.53c-.32,0-.63-.15-.83-.44-.31-.46-.19-1.08.26-1.39l4.82-3.28c.46-.31,1.08-.19,1.39.26.31.46.19,1.08-.26,1.39l-4.82,3.28c-.17.12-.37.17-.56.17Z"/>
    <path class="cls-1" d="m92.71,91.2c-.2,0-.4-.06-.57-.18-.45-.32-.56-.94-.25-1.39l4.25-6.09c.31-.45.94-.57,1.39-.25.45.32.56.94.25,1.39l-4.25,6.09c-.19.28-.51.43-.82.43Z"/>
    <path class="cls-1" d="m151.16,133.92c-.16,0-.32-.04-.47-.12-.49-.26-.67-.87-.41-1.35l3.33-6.2c.26-.49.87-.67,1.35-.41.49.26.67.87.41,1.35l-3.33,6.2c-.18.34-.53.53-.88.53Z"/>
    <path class="cls-1" d="m168.07,133.46c-.33,0-.65-.16-.84-.46l-4.85-7.46c-.3-.46-.17-1.08.29-1.38.46-.3,1.08-.17,1.38.29l4.85,7.46c.3.46.17,1.08-.29,1.38-.17.11-.36.16-.54.16Z"/>
    <path class="cls-1" d="m143.77,152.52c-.46,0-.88-.32-.98-.8-.11-.54.23-1.07.77-1.18l27.94-5.83c.53-.11,1.07.23,1.18.77s-.23,1.07-.77,1.18l-27.94,5.83c-.07.01-.14.02-.21.02Z"/>
    <path class="cls-1" d="m57.62,105.27s-.07,0-.11,0l-24.11-2.57c-.55-.06-.95-.55-.89-1.1.06-.55.55-.95,1.1-.89l24.11,2.57c.55.06.95.55.89,1.1-.05.51-.49.89-.99.89Z"/>
    <path class="cls-1" d="m90.71,108.8s-.07,0-.11,0l-20.99-2.24c-.55-.06-.95-.55-.89-1.1.06-.55.56-.95,1.1-.89l20.99,2.24c.55.06.95.55.89,1.1-.05.51-.49.89-.99.89Z"/>
    <path class="cls-1" d="m77.92,119.91s-.07,0-.11,0l-45.73-4.87c-.55-.06-.95-.55-.89-1.1.06-.55.56-.95,1.1-.89l45.73,4.87c.55.06.95.55.89,1.1-.05.51-.49.89-.99.89Z"/>
    <path class="cls-1" d="m57.6,131.35s-.07,0-.11,0l-26.84-2.86c-.55-.06-.95-.55-.89-1.1.06-.55.55-.95,1.1-.89l26.84,2.86c.55.06.95.55.89,1.1-.05.51-.49.89-.99.89Z"/>
  </g>
</svg>
