<?xml version="1.0" encoding="UTF-8"?>
<svg id="Layer_1" data-name="Layer 1" xmlns="http://www.w3.org/2000/svg" viewBox="0 0 256 160">
  <defs>
    <style>
      .cls-1, .cls-2, .cls-3 {
        stroke-width: 0px;
      }

      .cls-2 {
        fill: none;
      }

        :root { fill:#222 }
        .accent { fill: #f9322c; }

        @media (prefers-color-scheme: dark) {
        :root {  fill: #f9322c; }
        .accent { fill:#dee2e6; }
        }
    </style>
  </defs>
  <path class="cls-1" d="m2.79,138.28H.34c-.55,0-1-.45-1-1s.45-1,1-1h2.44c.55,0,1,.45,1,1s-.45,1-1,1Z"/>
  <path class="accent" d="m30.38,123.86c-3.74,4.86-3.13,28.92,0,34.17h10.11s-7.19-17.52,0-34.64c-10.11.94-10.11.47-10.11.47Z"/>
  <path class="accent" d="m50.84,123.39s-5.28,7.93-3.75,18.6c1.53,10.68,4.08,16.04,4.08,16.04h41.84l3.46-33.34-4.38-.83-41.25-.47Z"/>
  <path class="accent" d="m19.07,95.78h21.43s-6.16-17.78-2.11-27.66h-21.67s-6.58,17.59,2.35,27.66Z"/>
  <path class="accent" d="m62.33,68.85s-3.22,14,1.75,26.31h34.05l1.47-9.57,1.41-16.74h-38.69Z"/>
  <path class="accent" d="m156.4,54.41l-.24-.39-2.93-4.91-16.45,5.31s-7.3-.05-10.99-6.61-7.52-15.56-.87-23.28c6.65-7.72,30.51-12.69,30.51-12.69,0,0,32.29,2.42,46.73,3.09s19.86-4.11,26.64-2.35c14.1,3.65,17.07,45.04,17.07,45.04h-24.78l-21.02,12.24-10.01-8.51-8.33-5.31-8.88-2.01-16.46.39Z"/>
  <path class="cls-1" d="m200.82,98.86c-.26,0-.52-.09-.72-.28-.42-.4-.45-1.06-.05-1.49,9.86-10.53,22.07-9.66,22.59-9.62.58.05,1.01.56.96,1.14-.05.58-.57,1-1.14.96-.12-.01-11.74-.81-20.88,8.96-.21.22-.49.33-.77.33Z"/>
  <path class="cls-1" d="m200.82,151.78c-.29,0-.58-.12-.79-.36-7.93-9.04-17.21-10.76-17.3-10.77-.57-.1-.95-.64-.86-1.22.1-.57.64-.96,1.21-.86.41.07,10.09,1.83,18.53,11.46.38.44.34,1.1-.1,1.49-.2.17-.45.26-.69.26Z"/>
  <path class="cls-1" d="m200.82,90.4c-.32,0-.64-.15-.85-.42-4.53-6.09-11.97-8.22-12.04-8.24-.56-.16-.89-.74-.73-1.3s.74-.89,1.29-.73c.33.09,8.2,2.33,13.17,9.01.35.47.25,1.13-.22,1.47-.19.14-.41.21-.63.21Z"/>
  <g>
    <path class="cls-1" d="m185.81,70.64c-.1,0-.2-.02-.3-.07-8.21-3.9-18.65-3.97-31.44-3.66h-.02c-.38,0-.69-.3-.7-.68,0-.39.3-.71.68-.72,12.98-.32,23.58-.24,32.07,3.8.35.17.5.59.33.93-.12.25-.37.4-.63.4Z"/>
    <path class="cls-1" d="m138.51,67.2c-2.46,0-4.99-.03-7.56-.12-.39-.01-.69-.34-.68-.72s.35-.7.72-.68c6.43.22,12.64.1,17.96-.04.39,0,.71.3.72.68,0,.39-.3.71-.68.72-3.22.08-6.77.16-10.49.16Z"/>
    <path class="cls-1" d="m127.26,66.91s-.03,0-.04,0c-1.94-.11-3.88-.25-5.76-.42-.39-.04-.67-.38-.64-.76.04-.39.37-.67.76-.64,1.86.17,3.78.31,5.71.42.39.02.68.35.66.74-.02.37-.33.66-.7.66Z"/>
    <path class="cls-1" d="m172.86,79.86s-.04,0-.06,0c-2.87-.25-6.09-.34-10.12-.28h-.01c-.38,0-.7-.31-.7-.69,0-.39.3-.71.69-.71,4.08-.06,7.35.03,10.27.28.39.03.67.37.64.76-.03.37-.34.64-.7.64Z"/>
    <path class="cls-1" d="m136.19,80.38c-4.95,0-10.09-.18-15.35-.71-.39-.04-.67-.38-.63-.77.04-.38.38-.66.77-.63,11.1,1.11,21.72.66,31.1.26,2.1-.09,4.16-.18,6.16-.25.4-.02.71.29.72.68.01.39-.29.71-.68.72-2,.07-4.05.16-6.15.25-5,.21-10.35.44-15.95.44Z"/>
    <path class="cls-1" d="m184.98,95.1c-.1,0-.2-.02-.29-.06-7.89-3.63-18.99-2.96-31.84-2.2-9.9.59-21.12,1.26-32.63,0-.38-.04-.66-.39-.62-.77.04-.39.38-.66.77-.62,11.39,1.24,22.55.58,32.39-.01,13.04-.78,24.3-1.45,32.51,2.32.35.16.51.58.34.93-.12.26-.37.41-.64.41Z"/>
    <path class="cls-1" d="m184.57,107.33c-.1,0-.19-.02-.29-.06-7.44-3.36-18.29-2.52-30.86-1.56-10.35.8-22.07,1.7-33.82.31-.38-.05-.66-.39-.61-.78.05-.38.39-.66.78-.61,11.61,1.38,23.27.48,33.55-.31,12.75-.98,23.77-1.83,31.54,1.68.35.16.51.57.35.93-.12.26-.37.41-.64.41Z"/>
    <path class="cls-1" d="m143.42,119.46c-.36,0-.67-.28-.7-.65-.03-.39.26-.72.65-.75,3.55-.26,7.03-.59,10.4-.9,1.99-.19,3.94-.37,5.84-.54.39-.04.73.25.76.64.03.39-.25.73-.64.76-1.9.16-3.84.35-5.83.54-3.37.32-6.86.65-10.43.91-.02,0-.03,0-.05,0Z"/>
    <path class="cls-1" d="m131.45,119.94c-4.52,0-8.59-.25-12.48-.74-.38-.05-.66-.4-.61-.79.05-.38.41-.64.79-.61,5.89.76,12.22.92,19.93.52.37-.03.72.28.74.66.02.39-.28.72-.66.74-2.72.14-5.28.21-7.71.21Z"/>
    <path class="cls-1" d="m183.74,131.79c-.09,0-.19-.02-.28-.06-6.65-2.88-17.61-1.66-28.22-.47-.38.05-.73-.23-.78-.62-.04-.38.23-.73.62-.78,11.29-1.26,21.95-2.45,28.94.58.36.15.52.57.37.92-.12.26-.37.42-.64.42Z"/>
    <path class="cls-1" d="m132.79,133.11c-.38,0-.69-.3-.7-.69,0-.39.3-.71.69-.72,5.59-.12,11.08-.63,15.24-1.06.38-.04.73.24.77.63.04.39-.24.73-.63.77-4.19.43-9.71.95-15.36,1.07h-.02Z"/>
    <path class="cls-1" d="m126.84,133.08s-.02,0-.02,0c-2.96-.1-5.81-.34-8.46-.7-.38-.05-.65-.41-.6-.79.05-.38.4-.65.79-.6,2.61.36,5.41.59,8.32.69.39.01.69.34.68.72-.01.38-.32.68-.7.68Z"/>
    <path class="cls-1" d="m152.8,144.38c-.35,0-.65-.26-.7-.61-.05-.38.22-.74.61-.79l1.72-.22c12.08-1.56,22.52-2.91,29.17-.1.36.15.52.56.37.92-.15.36-.56.52-.92.37-6.3-2.67-16.56-1.34-28.45.2l-1.72.22s-.06,0-.09,0Z"/>
    <path class="cls-1" d="m129.15,146.33c-3.84,0-7.69-.22-11.43-.78-.38-.06-.65-.41-.59-.8.06-.38.42-.64.8-.59,9.87,1.47,20.57.55,29.74-.55.38-.05.73.23.78.61.05.38-.23.73-.61.78-5.81.69-12.23,1.32-18.69,1.32Z"/>
    <path class="cls-1" d="m136.92,159.14c-.36,0-.67-.28-.7-.65-.03-.39.26-.72.64-.76,4.75-.38,9.49-1.02,13.09-1.53.38-.06.74.21.79.6.05.38-.21.74-.6.79-3.62.51-8.39,1.15-13.18,1.54-.02,0-.04,0-.06,0Z"/>
    <path class="cls-1" d="m128.08,159.53c-3.99,0-7.6-.27-10.97-.8-.38-.06-.64-.42-.58-.8s.42-.64.8-.58c4.35.7,9.14.93,14.63.71.38-.04.71.29.73.67s-.29.71-.67.73c-1.35.05-2.66.08-3.94.08Z"/>
  </g>
  <path class="cls-1" d="m93.6,156.38H27.96c-.34,0-.66-.16-.85-.44-.1-.14-9.9-14.16,1.11-32.62.19-.32.53-.51.9-.51h67.35c.58,0,1.05.47,1.05,1.05s-.47,1.05-1.05,1.05H29.73c-8.9,15.41-2.7,26.97-1.2,29.37h65.08c.58,0,1.05.47,1.05,1.05s-.47,1.05-1.05,1.05Z"/>
  <path class="cls-1" d="m99.05,96.11H21.59c-.34,0-.66-.16-.85-.44-.1-.14-9.9-14.16,1.11-32.62.19-.32.53-.51.9-.51h79.18c.58,0,1.05.47,1.05,1.05s-.47,1.05-1.05,1.05H23.36c-8.9,15.41-2.7,26.97-1.2,29.37h76.89c.58,0,1.05.47,1.05,1.05s-.47,1.05-1.05,1.05Z"/>
  <path class="cls-1" d="m40.07,156.38c-.45,0-.87-.29-1.01-.75-.25-.82-6.08-20.29.07-32.26.27-.52.9-.72,1.42-.45.52.27.72.9.45,1.42-5.76,11.2.01,30.49.07,30.68.17.56-.14,1.14-.7,1.31-.1.03-.21.05-.31.05Z"/>
  <path class="cls-1" d="m49.77,156.38c-.45,0-.87-.29-1.01-.75-.25-.82-6.08-20.29.07-32.26.27-.52.9-.72,1.42-.45.52.27.72.9.45,1.42-5.76,11.2.01,30.49.07,30.68.17.56-.14,1.14-.7,1.31-.1.03-.21.05-.31.05Z"/>
  <path class="cls-1" d="m40.07,96.11c-.45,0-.87-.29-1.01-.75-.25-.82-6.08-20.29.07-32.26.27-.52.9-.72,1.42-.45.52.27.72.9.45,1.42-5.76,11.2.01,30.49.07,30.68.17.56-.14,1.14-.7,1.31-.1.03-.21.05-.31.05Z"/>
  <path class="cls-1" d="m61.58,96.11c-.45,0-.87-.29-1.01-.75-.25-.82-6.08-20.29.07-32.26.27-.52.9-.72,1.42-.45.52.27.72.9.45,1.42-5.76,11.2.01,30.49.07,30.68.17.56-.14,1.14-.7,1.31-.1.03-.21.05-.31.05Z"/>
  <path class="cls-1" d="m33.44,156.03c-.28,0-.54-.16-.65-.44-3.45-8.41-3.11-14.65-3.09-14.91.02-.39.37-.66.74-.66.39.02.68.36.66.74,0,.06-.33,6.21,2.99,14.3.15.36-.02.77-.38.92-.09.04-.18.05-.27.05Z"/>
  <path class="cls-1" d="m58.93,156.03c-.26,0-.52-.15-.64-.4-3.33-7.12-4.02-15.17-4.05-15.51-.03-.39.26-.72.64-.76.39-.02.72.26.76.64,0,.08.69,8.15,3.92,15.03.16.35.01.77-.34.93-.1.05-.2.07-.3.07Z"/>
  <path class="cls-1" d="m66.23,156.03c-.2,0-.4-.08-.53-.25-2.74-3.21-2.71-8.54-2.71-8.76,0-.38.32-.69.7-.69h0c.39,0,.7.32.69.71,0,.05-.02,5.03,2.38,7.84.25.3.22.74-.08.99-.13.11-.29.17-.46.17Z"/>
  <path class="cls-1" d="m35.15,124.91c-.22,0-.44-.07-.63-.21-.46-.35-.56-1.01-.21-1.47.03-.04,3.27-4.41,2.78-8.02-.26-1.91-1.29-3.82-2.2-5.51-1.01-1.88-1.82-3.37-1.41-4.63.47-1.45,1.45-4.61,1.74-5.54l-.88-4.15c-.07-.31.01-.63.21-.88.2-.25.5-.39.82-.39h63.62c.58,0,1.05.47,1.05,1.05s-.47,1.05-1.05,1.05h-62.32l.67,3.15c.04.18.03.36-.02.53,0,0-1.28,4.1-1.83,5.82-.13.41.71,1.96,1.26,2.98.95,1.75,2.12,3.93,2.43,6.23.6,4.47-3.03,9.36-3.19,9.57-.21.27-.52.42-.84.42Z"/>
  <path class="cls-1" d="m58.16,100.28h-21.84c-.39,0-.7-.31-.7-.7s.31-.7.7-.7h21.84c.39,0,.7.31.7.7s-.31.7-.7.7Z"/>
  <path class="cls-1" d="m98.59,100.28h-29.27c-.39,0-.7-.31-.7-.7s.31-.7.7-.7h29.27c.39,0,.7.31.7.7s-.31.7-.7.7Z"/>
  <path class="cls-1" d="m40.07,106.09h-5.59c-.39,0-.7-.31-.7-.7s.31-.7.7-.7h5.59c.39,0,.7.31.7.7s-.31.7-.7.7Z"/>
  <path class="cls-1" d="m67.56,106.09h-23.23c-.39,0-.7-.31-.7-.7s.31-.7.7-.7h23.23c.39,0,.7.31.7.7s-.31.7-.7.7Z"/>
  <path class="cls-1" d="m98.13,106.09h-21.83c-.39,0-.7-.31-.7-.7s.31-.7.7-.7h21.83c.39,0,.7.31.7.7s-.31.7-.7.7Z"/>
  <path class="cls-1" d="m97.59,112.06h-60.65c-.39,0-.7-.31-.7-.7s.31-.7.7-.7h60.65c.39,0,.7.31.7.7s-.31.7-.7.7Z"/>
  <path class="cls-1" d="m81.49,118.02h-43.41c-.39,0-.7-.31-.7-.7s.31-.7.7-.7h43.41c.39,0,.7.31.7.7s-.31.7-.7.7Z"/>
  <path class="cls-1" d="m96.98,118.02h-9.77c-.39,0-.7-.31-.7-.7s.31-.7.7-.7h9.77c.39,0,.7.31.7.7s-.31.7-.7.7Z"/>
  <path class="cls-1" d="m27.19,95.76c-.27,0-.53-.16-.64-.42-3.66-8.39-3.87-13.97-3.87-14.21-.01-.39.29-.71.68-.72,0,0,.01,0,.02,0,.38,0,.69.3.7.68,0,.05.21,5.57,3.76,13.69.16.36,0,.77-.36.92-.09.04-.19.06-.28.06Z"/>
  <path class="cls-1" d="m30.67,84.86c-.33,0-.62-.23-.69-.57-.05-.26-1.23-6.44-.28-12.36.06-.38.42-.65.8-.58.38.06.64.42.58.8-.91,5.66.26,11.8.27,11.87.07.38-.17.75-.55.82-.05,0-.09.01-.13.01Z"/>
  <path class="cls-1" d="m57.44,95.76c-.26,0-.51-.15-.63-.4-2.72-5.67-3.98-11.86-4.04-12.12-.08-.38.17-.75.55-.83.39-.07.75.17.83.55.01.06,1.29,6.29,3.93,11.79.17.35.02.77-.33.94-.1.05-.2.07-.3.07Z"/>
  <path class="cls-1" d="m70.71,95.76c-.28,0-.54-.16-.65-.44-2.35-5.72-1.95-22.58-1.93-23.3.01-.39.34-.7.72-.68.39.01.69.33.68.72,0,.17-.41,17.28,1.83,22.73.15.36-.02.77-.38.92-.09.04-.18.05-.27.05Z"/>
  <path class="cls-1" d="m77.18,95.42c-.32,0-.6-.22-.68-.54-.56-2.36-.89-8.97-.9-9.25-.02-.39.28-.72.67-.74.38-.03.72.28.74.67,0,.07.33,6.76.87,9,.09.38-.14.75-.52.84-.05.01-.11.02-.16.02Z"/>
  <path class="cls-1" d="m155.47,55.07c-.51,0-.96-.37-1.04-.89-.53-3.38-.12-6.16.31-9.09.42-2.82.84-5.74.47-9.5-.67-6.73-5.67-14.81-17.59-15.47-9.82-.53-12.54,10.92-13.07,13.75l3.91,2.93c.31.24.47.63.41,1.02s-.34.71-.72.83l-2.62.84c.55,3.89,3.03,7.78,6.34,9.88,1.72,1.09,4.38,2.15,7.33,1,3.55-1.38,6.14-3.79,7.09-6.61.78-2.32.47-4.85-.91-7.35l-9.66,3.65c-.27.1-.57.09-.83-.04-.26-.12-.46-.35-.55-.62-1.27-3.89.82-6.9,3.31-8.05,2.76-1.28,6.68-.71,9.21,3.42,1.98,3.23,2.47,6.57,1.43,9.67-1.15,3.42-4.19,6.29-8.32,7.9-2.94,1.14-6.21.72-9.22-1.19-4.09-2.59-7.06-7.54-7.4-12.33-.03-.48.27-.93.73-1.08l1.5-.48-2.8-2.1c-.31-.23-.46-.61-.41-.99.02-.17,2.5-16.87,15.37-16.17,13.25.73,18.82,9.81,19.57,17.36.4,4.02-.07,7.2-.48,10.01-.41,2.78-.79,5.4-.31,8.46.09.57-.3,1.11-.88,1.2-.06,0-.11.01-.17.01Zm-15.04-22.21c-.69,0-1.33.16-1.88.41-1.48.69-2.69,2.27-2.43,4.41l8.04-3.04c-1.18-1.29-2.52-1.78-3.73-1.78Z"/>
  <path class="cls-1" d="m250.65,59.29c-.17,0-.35-.04-.51-.13-2.53-1.39-3.66-7.52-5.42-18.22-1.47-8.92-3.14-19.02-6.12-22.76-5.96-7.47-15.88-10.12-23.09-6.15-8.12,4.47-31.72,2.94-44.39,2.12-13.6-.88-30.45,4.15-37.06,6.35-.55.18-1.15-.11-1.33-.67-.18-.55.11-1.15.67-1.33,6.73-2.24,23.9-7.36,37.87-6.46,11.58.75,35.66,2.31,43.24-1.86,8.09-4.46,19.16-1.59,25.75,6.68,3.32,4.17,4.97,14.11,6.55,23.73,1.16,7.02,2.6,15.75,4.36,16.72.51.28.69.92.41,1.43-.19.35-.55.54-.92.54Z"/>
  <path class="cls-1" d="m159.67,22.31c-.35,0-.66-.27-.7-.62-.04-.38.23-.73.62-.78,9.78-1.1,17.15-1.22,17.22-1.22h.01c.38,0,.7.31.7.69,0,.39-.3.71-.69.71-.07,0-7.38.12-17.09,1.21-.03,0-.05,0-.08,0Z"/>
  <path class="cls-1" d="m171.19,26.96s-.03,0-.04,0c-.04,0-4.02-.22-9.33,0-.4.01-.71-.28-.73-.67-.02-.39.28-.71.67-.73,5.39-.22,9.43,0,9.47,0,.39.02.68.35.66.74-.02.37-.33.66-.7.66Z"/>
  <path class="cls-1" d="m163.55,31.94c-.29,0-.57-.19-.67-.48-.12-.37.08-.77.44-.89,2.47-.82,6.56-.06,6.73-.02.38.07.63.44.56.82-.07.38-.44.63-.82.56-.04,0-3.91-.73-6.03-.02-.07.02-.15.04-.22.04Z"/>
  <path class="cls-1" d="m137.49,33.7c-.29,0-.59-.12-.8-.36-.38-.44-.33-1.1.11-1.48,2.53-2.19,15.12-4.99,16.54-5.31.57-.13,1.13.23,1.25.8.12.57-.23,1.13-.8,1.25-5.19,1.14-14.01,3.46-15.61,4.84-.2.17-.44.26-.69.26Z"/>
  <path class="cls-1" d="m139.59,53.19c-.54,0-1-.41-1.05-.95-.05-.58.37-1.09.95-1.14,6.9-.64,15.44-4.22,15.53-4.25.54-.22,1.15.02,1.38.56.23.54-.02,1.15-.56,1.38-.36.15-8.92,3.74-16.15,4.41-.03,0-.07,0-.1,0Z"/>
  <path class="cls-1" d="m151.55,33.35c-.27,0-.53-.16-.65-.43-.15-.36.02-.77.38-.92l3.38-1.42c.36-.15.77.02.92.38.15.36-.02.77-.38.92l-3.38,1.42c-.09.04-.18.05-.27.05Z"/>
  <path class="cls-1" d="m151.55,44.43c-.31,0-.6-.21-.68-.53-.09-.38.13-.76.51-.85l4.85-1.22c.38-.09.76.13.85.51.09.38-.13.76-.51.85l-4.85,1.22c-.06.01-.11.02-.17.02Z"/>
  <path class="cls-1" d="m144.31,24.42h-10.59c-.39,0-.7-.31-.7-.7s.31-.7.7-.7h10.59c.39,0,.7.31.7.7s-.31.7-.7.7Z"/>
  <path class="cls-1" d="m136.79,27.51s-.06,0-.09,0l-4.53-.55c-.38-.05-.66-.4-.61-.78.05-.38.4-.66.78-.61l4.53.55c.38.05.66.4.61.78-.04.36-.35.62-.7.62Z"/>
  <path class="cls-1" d="m236.07,24.42h-5.1c-.39,0-.7-.31-.7-.7s.31-.7.7-.7h5.1c.39,0,.7.31.7.7s-.31.7-.7.7Z"/>
  <path class="cls-1" d="m243.58,52.06h-8.81c-.39,0-.7-.31-.7-.7s.31-.7.7-.7h8.81c.39,0,.7.31.7.7s-.31.7-.7.7Z"/>
  <g>
    <path class="cls-1" d="m253.58,57.62c-18.86-3-39.79-4.03-52.73,10.68.52.61.81.99.83,1.01.13.18.2.4.2.62v.39c12.22-14.62,32.81-13.59,51.37-10.63.92.15,1.84.27,2.75.37v-2.12c-.8-.09-1.61-.19-2.42-.32Z"/>
    <path class="cls-1" d="m244.67,70.42h.02c.38,0,.69-.3.7-.68,0-.39-.3-.71-.68-.72-12.98-.31-23.58-.23-32.07,3.8-.35.17-.5.59-.33.93.12.25.37.4.63.4.1,0,.2-.02.3-.07,8.21-3.9,18.64-3.97,31.44-3.66Z"/>
    <path class="cls-1" d="m249.77,69.14c-.4,0-.71.3-.72.68,0,.39.3.71.68.72,1.97.05,4.08.09,6.26.12v-1.4c-2.17-.03-4.26-.08-6.23-.13Z"/>
    <path class="cls-1" d="m225.82,81.96c-.39.03-.67.37-.64.76.03.37.34.64.7.64.02,0,.04,0,.06,0,2.87-.25,6.09-.34,10.12-.28h.01c.38,0,.7-.31.7-.69,0-.39-.3-.71-.69-.71-4.09-.07-7.35.03-10.27.28Z"/>
    <path class="cls-1" d="m246.66,82.03c-2.1-.09-4.16-.18-6.16-.25-.38-.03-.71.29-.72.68-.01.39.29.71.68.72,2,.07,4.05.16,6.15.25,3.01.13,6.16.26,9.4.34v-1.4c-3.22-.09-6.35-.21-9.34-.34Z"/>
    <path class="cls-1" d="m214.05,98.54c6.28-2.89,14.6-2.99,22.66-2.68.4.03.71-.29.73-.67.01-.39-.29-.71-.67-.73-8.23-.32-16.76-.2-23.3,2.81-.35.16-.51.58-.34.93.12.26.37.41.64.41.1,0,.2-.02.29-.06Z"/>
    <path class="cls-1" d="m245.97,94.94l-2.97-.18c-.38-.01-.72.27-.74.66-.02.39.27.72.66.74l2.97.18c3.24.19,6.63.39,10.11.53v-1.4c-3.45-.14-6.81-.33-10.03-.53Z"/>
    <path class="cls-1" d="m225.63,108.45c.39-.02.68-.35.66-.74-.02-.39-.32-.67-.74-.66-4.78.26-8.59,1.05-11.66,2.44-.35.16-.51.57-.35.93.12.26.37.41.64.41.1,0,.19-.02.29-.06,2.91-1.31,6.56-2.07,11.16-2.32Z"/>
    <path class="cls-1" d="m231.52,106.98c-.38,0-.69.3-.7.69,0,.39.3.71.69.72,4.29.1,8.92.45,13.82.83,2.06.16,4.17.32,6.31.47.02,0,.03,0,.05,0,.37,0,.67-.28.7-.65.03-.39-.26-.72-.65-.75-2.14-.15-4.24-.31-6.3-.47-4.92-.38-9.57-.74-13.89-.84h-.02Z"/>
    <path class="cls-1" d="m215.28,121.24c6.65-2.88,17.62-1.66,28.22-.47.39.05.73-.23.78-.62.04-.38-.23-.73-.62-.78-11.29-1.26-21.95-2.45-28.94.58-.36.15-.52.57-.37.92.12.27.37.42.64.42.09,0,.19-.02.28-.06Z"/>
    <path class="cls-1" d="m250.72,120.15c-.39-.03-.73.24-.77.63-.04.39.24.73.63.77,1.63.17,3.46.35,5.42.51v-1.41c-1.91-.16-3.69-.34-5.28-.5Z"/>
    <path class="cls-1" d="m246.03,132.5l-1.72-.22c-12.08-1.56-22.52-2.91-29.17-.1-.36.15-.52.56-.37.92.15.36.57.52.92.37,6.3-2.67,16.56-1.34,28.44.2l1.72.22s.06,0,.09,0c.35,0,.65-.26.7-.61.05-.38-.22-.74-.61-.79Z"/>
    <path class="cls-2" d="m109.83,57.37l-2.22,1.54-8.04,101.09h4.24c.69-8.77,1.96-24.05,3.57-39.9,1.91-18.87,2.35-49.78,2.45-62.73Z"/>
    <path class="cls-2" d="m160.8,54.56c-22.38,2.58-43.53-.93-48.84-1.92,0,.38,0,.85,0,1.37,0,0,0,0,0,0,0,0,0,0,0,0-.05,9.92-.37,45.41-2.49,66.3-1.59,15.73-2.86,30.9-3.55,39.69h93.85v-89.7c-1.82-2.27-15.66-18.42-38.97-15.74Z"/>
    <path class="cls-2" d="m106,57.47l3.45-2.4h-5.71l-9.5,104.93h3.22l8.09-101.75c.02-.31.19-.6.45-.78Z"/>
    <path class="cls-1" d="m200.16,70.76c-.45-.37-.52-1.03-.15-1.48.27-.33.56-.65.84-.97-3.44-4-17.56-18.45-40.29-15.83-25.4,2.93-49.19-2.09-49.43-2.14-.31-.07-.63.01-.88.21-.25.2-.39.5-.39.82,0,.05,0,.61,0,1.6h1.05c.58,0,1.05.47,1.05,1.05,0-.53,0-1,0-1.37,5.31,1,26.46,4.51,48.84,1.92,23.31-2.68,37.15,13.47,38.97,15.74v89.7h2.1v-89.67c-.08.09-.16.18-.24.28-.37.45-1.03.52-1.48.15Z"/>
    <path class="cls-1" d="m201.67,69.32s-.3-.4-.83-1.01c-.28.32-.56.64-.84.97-.37.45-.3,1.11.15,1.48.45.37,1.11.3,1.48-.15.08-.09.16-.18.24-.28v-.39c0-.22-.07-.44-.2-.62Z"/>
    <path class="cls-1" d="m111.95,54.02c0,.26-.1.48-.26.67.02.02.04.04.06.06.33.48.21,1.13-.26,1.46l-1.67,1.16c-.1,12.95-.54,43.87-2.45,62.73-1.61,15.85-2.88,31.13-3.57,39.9h2.11c.7-8.78,1.96-23.95,3.55-39.69,2.12-20.88,2.44-56.38,2.49-66.3Z"/>
    <path class="cls-1" d="m109.83,57.37c0-.85.01-1.61.02-2.3h-.4l-3.45,2.4c-.26.18-.42.47-.45.78l-8.09,101.75h2.11l8.04-101.09,2.22-1.54Z"/>
    <path class="cls-1" d="m109.84,55.07c0,.68,0,1.45-.02,2.3l1.67-1.16c.48-.33.6-.99.26-1.46-.02-.02-.04-.04-.06-.06-.19.23-.47.38-.8.38h-1.06Z"/>
    <path class="cls-1" d="m109.45,55.07l.4-.28c0-.71,0-1.33,0-1.83h-7.07c-.54,0-1,.42-1.05.96l-9.61,106.08h2.11l9.5-104.93h5.71Z"/>
    <polygon class="cls-1" points="111.95 54.02 111.95 54.01 111.95 54.02 111.95 54.02"/>
    <path class="cls-1" d="m110.3,54.48c.45-.31,1.06-.21,1.4.2.15-.18.26-.41.26-.67h0c0-.58-.47-1.05-1.05-1.05h-1.05c0,.5,0,1.12,0,1.83l.45-.31Z"/>
    <path class="cls-1" d="m109.45,55.07h.4c0-.09,0-.18,0-.28l-.4.28Z"/>
    <path class="cls-1" d="m110.3,54.48l-.45.31c0,.09,0,.18,0,.28h1.06c.32,0,.6-.15.8-.38-.35-.42-.95-.52-1.4-.2Z"/>
  </g>
</svg>
