<?xml version="1.0" encoding="UTF-8"?>
<svg id="Layer_1" data-name="Layer 1" xmlns="http://www.w3.org/2000/svg" viewBox="0 0 250 250">
  <defs>
    <style>
      .cls-1 {
        fill: #fff;
      }

      .cls-1, .cls-2 {
        stroke-width: 0px;
      }

      .cls-2 {
        fill: #ff2d20;
      }
    </style>
  </defs>
  <rect class="cls-2" width="250" height="250"/>
  <path class="cls-1" d="m127.81,106.01c-5.36,0-9.71,4.36-9.71,9.71s4.36,9.71,9.71,9.71,9.71-4.36,9.71-9.71-4.36-9.71-9.71-9.71Zm0,16.42c-3.7,0-6.71-3.01-6.71-6.71s3.01-6.71,6.71-6.71,6.71,3.01,6.71,6.71-3.01,6.71-6.71,6.71Z"/>
  <path class="cls-1" d="m136.03,92.9h-12.14c-.83,0-1.5.67-1.5,1.5s.67,1.5,1.5,1.5h12.14c.83,0,1.5-.67,1.5-1.5s-.67-1.5-1.5-1.5Z"/>
  <path class="cls-1" d="m224.38,157.94c3.65-2.24,6.1-6.26,6.1-10.85,0-8.85-7.2-16.05-16.05-16.05h-2.07v-.76c0-8.85-7.2-16.05-16.05-16.05h-3.79v-34.79c0-25.43-20.29-46.2-45.54-47V15.08c0-.83-.67-1.5-1.5-1.5s-1.5.67-1.5,1.5v17.35c-25.24.8-45.54,21.57-45.54,47v7.09c0,.83.67,1.5,1.5,1.5h3.15v13.21h-.47c-4.3,0-7.81,3.5-7.81,7.81v24.8c0,2.06-1.68,3.74-3.74,3.74-3.72,0-6.74,3.02-6.74,6.74,0,5.37,4.37,9.73,9.73,9.73h1.07c-.88,2.06-1.82,5.53-1.82,10.9,0,.81.65,1.48,1.46,1.5,10.05.26,17.27,2.86,22.28,5.77h-17.21c-2.89,0-5.24,2.35-5.24,5.24,0,2.02,1.16,3.76,2.84,4.63-1.5,2.32-2.71,4.59-3.62,6.82h-49.79c-16.98,0-30.79-13.81-30.79-30.8s13.81-30.79,30.79-30.79h3.17c.83,0,1.5-.67,1.5-1.5v-2.78c.2.1.42.16.66.16h8l10.26,6.38c.86.53,1.84.81,2.82.81.74,0,1.48-.15,2.17-.46,1.58-.7,2.69-2.07,3.05-3.76.36-1.69-.09-3.4-1.25-4.68l-4.46-4.98,16.47-4.79c2.64-.77,4.25-3.38,3.76-6.08l-.85-4.67c-.46-2.54-2.67-4.39-5.25-4.39h-35.38v-2.66c0-.83-.67-1.5-1.5-1.5h-6.52C25.33,92.41,11.2,97.71,0,106.57v3.88c10.96-9.37,25.16-15.04,40.68-15.04h5.02v28.91h-1.67c-18.63,0-33.79,15.16-33.79,33.79s15.16,33.8,33.79,33.8h48.77c-2.1,7.31-.88,14.16,3.69,20.75,2.86,3.91,8.11,6.71,14.52,8.16H40.68C25.16,220.82,10.96,215.14,0,205.77v3.88c11.2,8.86,25.33,14.16,40.68,14.16h78.56c-4.5,7.35-5.51,18.41-5.59,26.18h3.03c.1-8.96,1.43-22.36,8.03-28.14,3.14-.18,6.34-.63,9.52-1.38,14.86-3.49,24.53-12.15,26.53-23.75.14-.82-.41-1.59-1.22-1.73-.81-.14-1.59.41-1.73,1.22-2.53,14.71-17.81,19.82-24.26,21.33-14.23,3.34-29.44.41-34.61-6.65-6.04-8.7-5.49-17.69,1.71-28.22h2.09c.83,0,1.5-.67,1.5-1.5s-.67-1.5-1.5-1.5h-2.89c-1.24,0-2.24-1.01-2.24-2.24s1.01-2.24,2.24-2.24h20.63c.26,0,.5-.07.72-.19,3.73,2.97,5.3,5.58,5.33,5.64.27.47.77.75,1.3.75.09,0,.17,0,.26-.02.62-.11,1.11-.6,1.22-1.22.03-.15,1.45-9.14-2.92-17.82,19.83-1.04,35.51-14.31,41.72-28.02,2.8,2.36,6.4,3.79,10.33,3.79h.59c.78,12.1,10.86,21.7,23.15,21.7h15.58c1.14,0,2.23-.16,3.28-.44.09.09.19.17.3.24,18.67,10.89,26.58,20.09,28.67,45.5v-17.69c-3.88-12.87-11.5-21.01-25.62-29.49ZM48.7,99.56h35.38c1.13,0,2.1.81,2.3,1.92l.85,4.67c.21,1.18-.49,2.33-1.65,2.67l-18.76,5.46c-.5.14-.88.53-1.02,1.03-.14.5-.02,1.03.33,1.41l6.05,6.75c.51.56.7,1.31.55,2.05s-.65,1.34-1.34,1.65c-.71.32-1.53.26-2.19-.15l-10.63-6.6c-.24-.15-.51-.23-.79-.23h-8.43c-.24,0-.46.06-.66.16v-20.79Zm52.75-14.54v-5.59c0-24.28,19.75-44.04,44.04-44.04s44.04,19.75,44.04,44.04v5.59h-88.07Zm25.15,90.86c-4-4.35-13.13-11.56-30.26-12.38.2-5.51,1.52-8.38,2.15-9.46h4.13c2.37,0,4.51-.98,6.04-2.56,6.9,2.26,11.2,5.98,13.84,9.99.07.17.17.33.3.46,3.15,5.03,3.79,10.44,3.79,13.95Zm-1.96-16.49c-2.85-4.19-7.32-8.04-14.25-10.49.44-1.02.68-2.14.68-3.31v-3.31c0-.83-.67-1.5-1.5-1.5s-1.5.67-1.5,1.5v3.31c0,3-2.44,5.45-5.45,5.45h-8.55c-3.71,0-6.73-3.02-6.73-6.73,0-2.06,1.68-3.74,3.74-3.74,3.71,0,6.74-3.02,6.74-6.74v-24.8c0-2.65,2.16-4.81,4.81-4.81h1.97c.83,0,1.5-.67,1.5-1.5v-14.71h41.74v9.48c0,8.35,6.4,15.22,14.55,15.98v8.57c0,3.75,1.3,7.19,3.46,9.93-5.6,13.59-21.29,27.08-41.2,27.41Zm93.11-2.58h-15.58c-11.14,0-20.2-9.06-20.2-20.2,0-.83-.67-1.5-1.5-1.5h-2.04c-7.2,0-13.05-5.86-13.05-13.05v-10c0-.83-.67-1.5-1.5-1.5-7.2,0-13.05-5.86-13.05-13.05v-9.48h38.69v27.69c0,.83.67,1.5,1.5,1.5h5.29c7.2,0,13.05,5.86,13.05,13.05v2.26c0,.83.67,1.5,1.5,1.5h3.57c7.2,0,13.05,5.86,13.05,13.05,0,5.37-4.37,9.73-9.73,9.73Z"/>
</svg>