<?xml version="1.0" encoding="UTF-8"?>
<svg id="Layer_1" data-name="Layer 1" xmlns="http://www.w3.org/2000/svg" viewBox="0 0 250 250">
  <defs>
    <style>
      .cls-1 {
        fill: #fff;
      }

      .cls-1, .cls-2 {
        stroke-width: 0px;
      }

      .cls-2 {
        fill: #ff2d20;
      }
    </style>
  </defs>
  <rect class="cls-2" x="0" width="250" height="250"/>
  <g>
    <path class="cls-1" d="m131.29,111.49c-12.11,0-21.96,9.85-21.96,21.96s9.85,21.96,21.96,21.96,21.96-9.85,21.96-21.96-9.85-21.96-21.96-21.96Zm0,40.92c-10.45,0-18.96-8.5-18.96-18.96s8.5-18.96,18.96-18.96,18.96,8.5,18.96,18.96-8.5,18.96-18.96,18.96Z"/>
    <path class="cls-1" d="m224.41,161.18c-.04-.23-.14-.43-.27-.6,1.49-4.75,2.41-9.68,2.7-14.73.58-10.03-1.44-18.43-6.34-26.44-5.06-8.26-8.1-17.83-8.78-27.68-2.55-36.9-46.48-52.72-46.92-52.87-.41-.14-.87-.1-1.24.12-.38.22-.64.59-.73,1.02-.2,1.06-4.8,25.36-3.27,44.13-1.48-.08-2.87-.12-4.2-.12-4.66,0-9.23.39-13.66,1.14-.15.03-.3.06-.46.09-7.39,1.29-14.39,3.58-20.79,6.69-.29.05-.57.18-.78.39-19.65,9.85-33.53,27.55-35.53,48.24-4.64,2.06-9.37,2.47-9.42,2.47-.69.06-1.25.58-1.36,1.26-.18,1.11-3.52,22.8,1.48,38.94-.05.37.04.76.28,1.08.04.05.08.09.11.14,1.04,3.04,2.4,5.84,4.16,8.24,3.19,4.35,7.41,6.94,12.53,7.69,12.09,1.79,25.57,3.42,36.19,4.62,16.19,6.59,30.1,26.35,32.5,40.05.3,1.72.44,3.37.47,4.95h3.01c-.03-1.74-.19-3.57-.52-5.47-2.17-12.45-13.36-29.64-27.34-38.64,2.87.31,5.3.56,7.13.75,4.01.58,8.04.88,11.99.88,18.84,0,36.51-6.41,49.76-18.04,7.79-6.84,13.65-15.12,17.34-24.22,2.04,5.62,6.19,10.83,10.99,15.37-.73,15.08-31.33,37.34-31.64,37.56-.67.48-.82,1.42-.34,2.09.29.41.75.62,1.22.62.3,0,.61-.09.88-.28,1.27-.91,29.31-21.31,32.61-37.56,4.66,3.99,9.65,7.36,13.84,9.91v-3.57c-9.92-6.26-23.35-16.67-25.59-28.23Zm-69.06,43.35c-3.8,0-7.69-.29-11.62-.86-8.99-.93-31.98-3.39-51.37-6.25-4.3-.64-7.85-2.82-10.55-6.5-.69-.94-1.31-1.97-1.88-3.06,1.7.62,3.52.85,5.29.85,4.89,0,9.39-1.74,9.72-1.87.77-.3,1.15-1.17.84-1.94s-1.18-1.15-1.94-.85c-.11.05-11.2,4.31-15.92-1.05-4.45-13.59-2.39-32.38-1.76-37.13,1.97-.28,6.06-1.04,10.04-2.97.48-.23.8-.7.84-1.23,1.6-19.92,14.84-37.03,33.74-46.57,9.43,4.34,13.17,8.94,13.2,8.98.3.38.74.58,1.18.58.32,0,.65-.1.92-.32.65-.51.77-1.45.26-2.11-.15-.2-3.56-4.45-12.09-8.78,5.41-2.38,11.22-4.15,17.32-5.23,20.2,8.32,30.13,25.34,30.23,25.51.28.48.78.75,1.3.75.25,0,.51-.06.74-.2.72-.41.97-1.33.56-2.05-.39-.69-9.12-15.67-27.31-24.8,2.71-.28,5.45-.44,8.24-.44,1.78,0,3.66.07,5.76.22.58.04,1.15-.28,1.42-.8.16-.29.21-.63.15-.95-1.46-14.12,1.07-32.67,2.37-40.8,19.14,24.54,19.79,64.91,19.79,65.33,0,.82.68,1.48,1.5,1.48h.02c.83,0,1.49-.69,1.48-1.52-.02-1.74-.65-41.28-20.01-66.6,10.67,4.8,38.91,20.14,40.88,48.57.71,10.33,3.9,20.37,9.21,29.04,4.57,7.46,6.45,15.31,5.91,24.7-1.93,33.55-31.38,58.85-68.49,58.85Z"/>
    <path class="cls-1" d="m80,228.41c-2.02-6.06-4.87-11.7-8.59-16.8-2.02-2.78-4.27-5.34-6.69-7.66-.11-.11-.23-.21-.34-.31-9.97-9.42-22.92-14.84-36.2-14.84-8.82,0-16,7.18-16,16s7.18,16,16,16c6.48,0,12.96,3.6,17.35,9.64,3.8,5.22,5.8,11.89,6.02,19.58h3c-.22-8.33-2.42-15.61-6.59-21.34-4.95-6.81-12.34-10.87-19.78-10.87s-13-5.83-13-13,5.83-13,13-13c12.32,0,24.34,4.97,33.69,13.61-.61,1.36-3.05,4.88-12.52,8.46-.78.29-1.17,1.16-.87,1.93.23.6.8.97,1.4.97.18,0,.36-.03.53-.1,8.74-3.3,12.27-6.77,13.69-9.08,1.74,1.8,3.38,3.72,4.88,5.79,3.31,4.55,5.91,9.56,7.81,14.93-2.53,1.34-9.35,4.61-17.1,5.38-.82.08-1.43.82-1.34,1.64.08.77.73,1.35,1.49,1.35.05,0,.1,0,.15,0,7.88-.79,14.72-3.9,17.75-5.47,1.76,5.89,2.7,12.19,2.82,18.81h3c-.12-7.55-1.3-14.71-3.49-21.37-.02-.08-.04-.15-.08-.22Z"/>
    <path class="cls-1" d="m225.52,226.23c-.62.54-.69,1.49-.15,2.12.3.34.71.52,1.13.52.35,0,.7-.12.98-.37.74-.64,14.81-12.98,22.51-25.88v-6.51c-6.07,13.99-24.28,29.95-24.48,30.13Z"/>
  </g>
</svg>