<?xml version="1.0" encoding="UTF-8"?>
<svg id="Layer_1" data-name="Layer 1" xmlns="http://www.w3.org/2000/svg" viewBox="0 0 250 250">
  <defs>
    <style>
      .cls-1 {
        fill: #fff;
      }

      .cls-1, .cls-2 {
        stroke-width: 0px;
      }

      .cls-2 {
        fill: #ff2d20;
      }
    </style>
  </defs>
  <rect class="cls-2" width="250" height="250"/>
  <path class="cls-1" d="m191.09,97.84c7.07,0,12.81-5.75,12.81-12.81s-5.75-12.81-12.81-12.81-12.81,5.75-12.81,12.81,5.75,12.81,12.81,12.81Zm0-22.63c5.41,0,9.81,4.4,9.81,9.81s-4.4,9.81-9.81,9.81-9.81-4.4-9.81-9.81,4.4-9.81,9.81-9.81Z"/>
  <path class="cls-1" d="m140.27,86.46c.15.05.31.07.46.07.64,0,1.23-.41,1.43-1.04l8.53-26.73,8.53,26.73c.25.79,1.09,1.22,1.88.97.79-.25,1.22-1.1.97-1.89l-9.96-31.21c-.2-.62-.78-1.04-1.43-1.04s-1.23.42-1.43,1.04l-9.96,31.21c-.25.79.18,1.63.97,1.89Z"/>
  <path class="cls-1" d="m162.2,111.02l22.85,3.83c.06,0,.11.01.17.01.48,0,.9-.35.99-.83.09-.54-.28-1.06-.82-1.15l-22.85-3.83c-.54-.09-1.06.28-1.15.82-.09.54.28,1.06.82,1.15Z"/>
  <path class="cls-1" d="m179.69,116.31l-15.24,1.28c-.55.05-.96.53-.91,1.08.04.52.48.92,1,.92.03,0,.06,0,.08,0l15.24-1.28c.55-.05.96-.53.91-1.08-.04-.55-.53-.96-1.08-.91Z"/>
  <path class="cls-1" d="m200.01,235.91l.49-4.31c.09-.8-.47-1.54-1.27-1.65l-77.62-11.44v-26.59c3.43,5.85,7.65,9.45,12.59,10.71,1.36.35,2.7.49,3.98.49,5.8,0,10.61-2.99,12.36-4.24,2.99,1.03,13.59,4.13,21.63-.2,4.09-2.2,6.85-5.95,8.22-11.16h21.03c8.64,0,15.67-7.03,15.67-15.67v-2.46c0-.8-.62-1.45-1.42-1.5l-34.97-1.92v-5.22l32.26-1.91c3.11,0,5.49-1.4,6.37-3.74.42-1.11.41-2.3.04-3.34,1.1-.64,1.93-1.52,2.49-2.62,1.48-2.91.36-6.27.31-6.42-.2-.58-.73-.98-1.34-1.01l-34.97-1.92v-6.24l27.32-1.9c2.98-.02,5.66-1.69,7-4.37,1.32-2.65,1.06-5.77-.7-8.14,6.11-1.09,9.66-5.58,9.66-12.46s-9.34-17.89-11.59-20.51v-24.63c0-7.29-4.09-10.61-6.54-11.94-3.03-1.65-6.73-2.07-9.54-1.2l-10.22-38.68c-.17-.66-.77-1.12-1.45-1.12h-41.52c-.7,0-1.31.49-1.46,1.17l-9.4,42.26c-5.37,2.22-19.25,9.27-22.24,23.82l-28.62-2.83-16.47-28.95c-.31-.54-.92-.84-1.54-.74l-16.65,2.7c-.62.1-1.11.58-1.23,1.19l-6.43,32.99-11.59,4.46L7.3,59.31c-.46-.46-1.15-.57-1.72-.29L0,61.77v3.32c.06-.02.12-.04.17-.06l5.77-2.84,25.28,25.28c.42.42,1.05.55,1.6.34l13.28-5.11c.48-.19.83-.61.93-1.11l6.39-32.78,14.59-2.37,15.69,27.57-2.3,18.75c-7.23-.2-40.09.56-81.39,27.47v3.51c.12-.04.23-.09.34-.16,45.59-30.2,81.9-27.79,82.25-27.77.81.06,1.51-.52,1.61-1.31l2.27-18.51,28,2.77c-2.59,9.34-13.25,54.24,4.14,106.33v.32h0v24.49l-18.07-77.51c-1.75-7.5-6.36-13.78-12.99-17.69-6.63-3.91-14.36-4.9-21.77-2.8-14.7,4.17-23.33,19.54-19.25,34.27l28.79,103.8h3.11l-29.01-104.6c-3.64-13.14,4.06-26.86,17.18-30.58,6.61-1.87,13.51-.99,19.42,2.5s10.04,9.09,11.59,15.78l20.27,86.94c.14.6.63,1.05,1.24,1.14l78.22,11.53-1.96,17.29h3.02l1.26-11.08c13.81,3.68,21.16,8.23,24.7,11.08h4.45c-2.34-2.53-9.93-9.12-28.8-14.09ZM149.5,11.58h39.16l9.73,36.81c-7.97-1.88-33.35-6.6-57.59,2.31l8.71-39.12Zm-27.91,173.05c0-.05-.02-.11-.04-.16,0-.03,0-.05-.02-.08-19.26-57.43-3.85-105.98-3.69-106.46.01-.03.01-.07.02-.1.01-.05.03-.09.04-.14,1.77-11.66,12.2-19.62,21.36-23.18,0,0,0,0,.01,0,0,0,0,0,.01,0,28.36-11.66,60.46-2.68,60.78-2.59.05.01.09.02.14.03.04,0,.07.02.11.02.09.01.18.01.27,0,.02,0,.04,0,.06,0,.11-.01.22-.04.32-.07.03,0,.05-.02.07-.03.08-.03.15-.06.22-.11.01,0,.03-.01.04-.02,1.67-1.08,5.23-1.19,8.29.48,2.27,1.24,4.97,3.86,4.97,9.31v25.19c0,.36.13.72.37.99,3.12,3.55,11.22,13.89,11.22,18.96,0,4.41-1.67,9.65-9.57,9.72-3.28-.8-46.28-11.45-57.26-19.92-.15-.12-.33-.21-.51-.26-4.01-1.12-7.57.15-9.53,3.4-1.33,2.2-1.59,4.88-.81,6.95-3.95,1.82-4.7,5.32-4.04,8.02.83,3.39,3.91,6.6,7.67,7.31-2.05,3.58-1.28,6.71.39,8.65,1.49,1.72,3.95,2.83,6.69,2.83,1.97,0,4.09-.58,6.07-1.93.03-.02.06-.04.09-.07,8.83-7.05,45.95-9.5,52.11-9.86.74,1.37.77,2.97.05,4.42-.85,1.69-2.48,2.71-4.37,2.71-.04,0-.07,0-.1,0l-28.76,2c-.79.05-1.4.71-1.4,1.5v9.06c0,.8.62,1.45,1.42,1.5l35.26,1.94c.13.84.18,2.09-.36,3.15-.45.88-1.26,1.49-2.46,1.87-.52.16-.91.59-1.02,1.12s.07,1.08.48,1.44c.46.4.6,1.14.35,1.83-.42,1.12-1.75,1.79-3.65,1.79l-33.76,2c-.79.05-1.41.7-1.41,1.5v8.06c0,.8.62,1.45,1.42,1.5l34.97,1.92v1.04c0,6.99-5.69,12.67-12.67,12.67h-22.21c-.71,0-1.32.49-1.47,1.19-1.05,4.92-3.4,8.4-6.98,10.33-8.03,4.32-19.81-.19-19.93-.24-.5-.2-1.08-.11-1.5.24-.07.06-6.94,5.58-14.4,3.68-5.4-1.37-9.89-6.28-13.33-14.58v-.28s0-.06,0-.09c0-.05,0-.1-.02-.15Zm34.81-65c-.27-.47-.77-.75-1.3-.75-.11,0-.21.01-.32.04-3.37.73-6.69-2.05-7.42-5.04-.6-2.46.72-4.26,3.73-5.06.51-.14.91-.53,1.05-1.04.14-.51.01-1.05-.35-1.44-1.02-1.09-.99-3.41.07-5.17.71-1.18,2.41-2.99,5.89-2.13,10.74,8.01,46.2,17.29,55.92,19.72-11.55.81-41.59,3.51-50.14,10.24-3.29,2.2-7.1,1.51-8.76-.41-1.59-1.85-1.07-4.47,1.43-7.19.44-.48.52-1.2.2-1.76Z"/>
  <path class="cls-1" d="m60.63,57.92c-.55-.08-1.05.31-1.13.86l-2.3,16.85c-.07.55.31,1.05.86,1.13.05,0,.09,0,.14,0,.49,0,.92-.36.99-.86l2.3-16.85c.07-.55-.31-1.05-.86-1.13Z"/>
  <path class="cls-1" d="m15.02,81.72c-.41-.37-1.04-.34-1.41.07-.37.41-.34,1.04.07,1.41l14.17,12.83c.19.17.43.26.67.26.27,0,.54-.11.74-.33.37-.41.34-1.04-.07-1.41l-14.17-12.83Z"/>
  <path class="cls-1" d="m7.23,96.92c-.21-.51-.8-.75-1.31-.53-.51.21-.75.8-.53,1.31l3.26,7.75c.16.38.53.61.92.61.13,0,.26-.03.39-.08.51-.21.75-.8.53-1.31l-3.26-7.75Z"/>
  <path class="cls-1" d="m70.2,69.76c-.24-.49-.84-.7-1.34-.46-.5.24-.7.84-.46,1.34l4.98,10.15c.17.35.53.56.9.56.15,0,.3-.03.44-.1.5-.24.7-.84.46-1.34l-4.98-10.15Z"/>
  <path class="cls-1" d="m26.79,182.42c-.51-.21-1.1.03-1.31.54l-15.06,36.35c-.21.51.03,1.1.54,1.31.12.05.25.08.38.08.39,0,.76-.23.92-.62l15.06-36.35c.21-.51-.03-1.1-.54-1.31Z"/>
  <path class="cls-1" d="m39.43,223.3c-.55,0-1,.45-1,1v19.14c0,.55.45,1,1,1s1-.45,1-1v-19.14c0-.55-.45-1-1-1Z"/>
  <path class="cls-1" d="m24.99,141.6c-.43-.35-1.06-.27-1.41.16L0,171.26v3.2l25.15-31.45c.34-.43.27-1.06-.16-1.41Z"/>
</svg>