<?xml version="1.0" encoding="UTF-8"?>
<svg id="Layer_1" data-name="Layer 1" xmlns="http://www.w3.org/2000/svg" viewBox="0 0 250 250">
  <defs>
    <style>
      .cls-1 {
        fill: #fff;
      }

      .cls-1, .cls-2 {
        stroke-width: 0px;
      }

      .cls-2 {
        fill: #ff2d20;
      }
    </style>
  </defs>
  <rect class="cls-2" x="0" width="250" height="250"/>
  <g>
    <path class="cls-1" d="m235.05,250h4.67c3.69-3.23,7.12-6.75,10.28-10.56v-4.81c-4.39,5.75-9.41,10.88-14.95,15.37Z"/>
    <path class="cls-1" d="m241.6,191.71c-.48.51-.54,1.28-.15,1.86.39.58,1.13.81,1.78.57.29-.11,3.13-1.21,6.78-3.34v-3.54c-1,.63-1.96,1.19-2.84,1.67.89-1.55,1.88-3.49,2.84-5.82v-10.02c-3.04,12.66-8.33,18.54-8.4,18.62Z"/>
    <path class="cls-1" d="m87.17,215.04c0-13.56,2.95-23.32,5.55-31.92,4.58-15.16,8.55-28.3-4.52-55.02,12.55,1.88,25.97,16.7,26.11,16.86.48.54,1.28.66,1.9.28.62-.38.88-1.14.62-1.82-.04-.1-4.03-10.58-4.03-18.47,0-1.71.23-3.94.49-6.52.87-8.6,2.15-21.23-3.96-30.15,11.75.19,18.42,10.59,20.39,16.48,2.56,7.69,7.59,12.77,7.8,12.98.43.43,1.08.56,1.63.33.56-.23.93-.78.93-1.39,0-.29.17-29.47,14.58-48.69,11.81-15.75,31.25-32.23,38.34-38.04-.57,7.59-1.71,25.79-.54,38.11,1.57,16.46,5.62,28.26,9.55,39.68,4.23,12.32,8.23,23.95,7.8,39.48-.02.74.5,1.38,1.22,1.52.72.14,1.44-.27,1.69-.97,2.62-7.35,2.67-14.8,2.71-22,.02-4.34.05-8.44.66-12.14,1.23-7.41,6.98-14.48,9.33-17.12,4.14,4.09,19.13,19.99,24.6,40.53v-9.54c-8-19.85-22.83-33.49-23.66-34.24-.59-.54-1.5-.52-2.07.05-.38.38-9.45,9.55-11.16,19.82-.66,3.94-.68,8.15-.71,12.62-.02,2.92-.03,5.88-.23,8.85-1.27-10.12-4.25-18.79-7.35-27.83-3.87-11.25-7.87-22.88-9.4-38.99-1.46-15.29.8-40.79.83-41.05.05-.6-.25-1.17-.78-1.45-.53-.29-1.17-.23-1.64.14-.27.21-26.77,21.01-41.6,40.78-11.92,15.9-14.48,37.63-15.03,46.5-1.52-2.08-3.42-5.16-4.66-8.89-2.38-7.15-10.96-20.18-26.39-18.37-.56.07-1.04.44-1.23.97-.2.53-.08,1.12.3,1.54,7.32,7.92,6.01,20.79,5.06,30.17-.27,2.66-.5,4.96-.5,6.82,0,4.51,1.16,9.64,2.26,13.52-5.81-5.36-16.36-13.57-26.38-13.57-.52,0-1.01.27-1.28.72-.27.45-.29,1-.06,1.47,13.95,27.25,10.22,39.57,5.51,55.16-2.66,8.8-5.67,18.78-5.67,32.79s5.79,25.8,15.25,34.96h4.42c-10.27-8.93-16.67-20.62-16.67-34.96Z"/>
    <path class="cls-1" d="m122.16,67.13c.27.22.61.34.95.34.13,0,.26-.02.39-.05.47-.13.84-.47,1.01-.92,2.67-7.12,2.15-11.49,1.6-16.12-.5-4.15-1.01-8.45.92-15.41.19-.67-.11-1.37-.72-1.71-.6-.34-1.36-.22-1.83.29-6.07,6.58-9.28,14.28-8.8,21.12.35,4.97,2.59,9.28,6.47,12.46Zm.72-26.66c-.48,4.16-.1,7.35.25,10.27.47,3.92.88,7.36-.69,12.55-2.24-2.43-3.53-5.44-3.76-8.82-.31-4.43,1.19-9.33,4.2-13.99Z"/>
    <path class="cls-1" d="m232.01,150.51c-.6-.34-1.36-.22-1.83.29-3.4,3.69-5.2,8.03-4.93,11.91.2,2.88,1.5,5.37,3.74,7.21.27.22.61.34.95.34.13,0,.26-.02.39-.05.47-.13.84-.47,1.01-.92,1.5-4,1.19-6.55.9-9.02-.27-2.27-.53-4.42.48-8.05.19-.67-.11-1.38-.72-1.71Zm-2.75,15.25c-.59-.96-.93-2.05-1.02-3.25-.1-1.43.17-2.95.79-4.49.04.94.14,1.8.24,2.61.2,1.67.38,3.17,0,5.13Z"/>
    <path class="cls-1" d="m64.93,141.1c-.6-.34-1.36-.22-1.83.29-3.4,3.69-5.2,8.03-4.93,11.91.2,2.88,1.5,5.37,3.74,7.21.27.22.61.34.95.34.13,0,.26-.02.39-.05.47-.13.84-.47,1.01-.92,1.5-4,1.19-6.55.9-9.02-.27-2.27-.53-4.42.48-8.05.19-.67-.11-1.37-.72-1.71Zm-2.75,15.25c-.59-.96-.93-2.05-1.02-3.25-.1-1.43.18-2.95.79-4.49.04.94.14,1.8.24,2.61.2,1.67.38,3.17,0,5.13Z"/>
    <path class="cls-1" d="m208.94,29.4c-.41,5.99-.79,11.65,1.83,16.89.23.46.67.77,1.18.82.05,0,.11,0,.16,0,.45,0,.88-.21,1.17-.56,10.92-13.65,3.73-31.25-3.36-39.13-.47-.52-1.25-.65-1.86-.3-.61.35-.9,1.08-.69,1.75,2.44,7.71,1.97,14.52,1.57,20.52Zm2.94-13.93c4.05,7.49,6.27,18.02.61,27.04-1.17-3.87-.88-8.12-.55-12.91.29-4.29.61-8.96-.05-14.13Z"/>
    <path class="cls-1" d="m161.48,76.55c-.61.35-.9,1.08-.69,1.75,1.96,6.21,1.59,11.7,1.26,16.54-.33,4.9-.65,9.53,1.51,13.85.23.46.67.77,1.18.82.05,0,.11,0,.16,0,.45,0,.88-.21,1.17-.56,8.97-11.21,3.08-25.64-2.74-32.11-.47-.52-1.25-.65-1.86-.3Zm3.56,18.5c.21-3.06.43-6.37.12-9.98,2.7,5.71,3.93,13.17.14,19.72-.73-2.93-.51-6.14-.26-9.74Z"/>
    <path class="cls-1" d="m178.86,160.69c-.56-.42-1.34-.4-1.88.06-.17.15-4.28,3.73-4.39,9.06-.08,3.55,1.6,6.95,4.99,10.11.28.27.65.4,1.02.4.23,0,.46-.05.67-.16.56-.28.89-.88.82-1.51,0-.06-.6-5.63.6-9.85,1.57-5.49-1.71-8.02-1.85-8.13Zm-1.04,7.3c-.62,2.15-.82,4.54-.87,6.54-.93-1.53-1.39-3.08-1.36-4.63.04-2.44,1.27-4.45,2.23-5.66.31.79.5,2.01,0,3.75Z"/>
    <path class="cls-1" d="m118.81,235.09c-2.06-7.85-.06-13.81,2.06-20.12,1.6-4.77,3.26-9.7,3.26-15.67,0-9.75-2.62-17.18-4.24-20.85,3.59.62,9.92,2.73,11.84,9.93,3.1,11.62,7.79,14.26,8.31,14.52.49.25,1.08.2,1.53-.11.45-.31.69-.85.63-1.4-.02-.21-2.2-20.67,7.2-33.62,5.26-7.24,7.99-13.63,9.4-18.13,1.49,3.18,4.25,5.94,9.03,5.94,3.08,0,5.23-.8,6.57-2.45,1.56-1.93,1.85-4.84.93-9.16-1.61-7.51.85-12.17,4.52-14.58-4.75,10.23,2.9,20.44,5.63,24.08,9.52,12.72,8.29,26.74,6.85,42.98-.12,1.4-.25,2.81-.37,4.23-1.52,18.25.77,23.85.87,24.08.19.45.6.78,1.08.88.47.1.98-.05,1.34-.39.72-.69,16.85-16.44,16.48-39.71,13.68,13.9,15.91,39.67,11.94,53.28-1.23,4.21-3.3,7.93-6.18,11.18h3.89c2.32-3.08,4.06-6.53,5.17-10.34,4.44-15.22,1.45-44.93-15.56-58.85-.47-.38-1.12-.45-1.65-.16-.53.28-.85.86-.79,1.46,1.74,19.09-9.07,33.79-13.52,38.97-.49-3.06-.98-9.22-.07-20.14.12-1.42.24-2.82.36-4.21,1.42-16.15,2.77-31.4-7.44-45.04-7.58-10.13-8.56-17.92-3.06-24.52.41-.49.46-1.19.13-1.74-.33-.55-.98-.82-1.61-.68-6.69,1.49-13.57,7.58-10.94,19.86.71,3.32.6,5.49-.33,6.64-.73.9-2.11,1.34-4.23,1.34-7.42,0-7.54-9.41-7.54-9.8,0-.81-.64-1.47-1.44-1.5-.8-.03-1.49.58-1.55,1.39,0,.1-.88,10.34-10.32,23.34-7.55,10.39-8.2,24.75-8,31.68-1.34-1.87-2.99-5.01-4.35-10.08-3.27-12.27-17.13-12.42-17.27-12.42-.54,0-1.03.29-1.3.75-.27.46-.27,1.04,0,1.5.05.09,5.07,8.9,5.07,21.85,0,5.47-1.58,10.17-3.11,14.71-2.17,6.45-4.41,13.12-2.12,21.84.78,2.95,2.68,8.47,6.89,14.15h3.85c-4.94-5.88-7.03-11.86-7.84-14.91Z"/>
    <path class="cls-1" d="m143.95,244.57c-1.08-5.51-.23-8.46.66-11.57.79-2.78,1.61-5.63,1.13-10.14,7.25,2.9,7.66,8.67,7.67,8.93.02.47.26.91.65,1.18s.89.33,1.33.18c.37-.13,8.92-3.28,4.44-18.52-1.82-6.17-1.5-11.33.94-15.34,2-3.3,5.11-5.24,7.53-6.33-2.46,4.79-5.61,13.39-.67,19.43,1.98,2.42,4.17,3.52,6.5,3.26,2.64-.29,4.76-2.3,6.18-4.11,1.45,5.98,3.8,18.84-.68,25.63-.31.47-.33,1.07-.06,1.56.27.49.79.77,1.36.76,4.12-.14,7.14-1.12,9.06-1.99-.2,2.96-.97,8.04-3.73,12.5h3.45c3.71-7.12,3.35-14.78,3.33-15.18-.03-.56-.37-1.05-.88-1.28-.51-.23-1.11-.16-1.55.19-.03.02-2.43,1.86-7.14,2.54,4.43-10.69-.92-28.04-1.17-28.83-.18-.58-.7-1-1.31-1.05-.61-.05-1.19.28-1.46.82-.71,1.42-3.14,5.17-5.75,5.46-1.25.14-2.55-.59-3.84-2.18-5.61-6.85,2.81-19.25,2.9-19.38.35-.5.35-1.16.02-1.67-.33-.51-.94-.77-1.54-.65-.35.07-8.73,1.74-13.11,8.91-2.91,4.77-3.34,10.75-1.27,17.78,2.45,8.34.54,12.15-1.03,13.77-.93-2.98-3.67-7.88-11.64-10.01-.5-.13-1.03,0-1.41.35-.38.35-.55.87-.45,1.38.99,5.29.17,8.17-.7,11.22-.95,3.32-1.93,6.75-.72,12.97.31,1.6.91,3.24,1.8,4.86h3.52c-1.24-1.78-2.02-3.64-2.37-5.43Z"/>
  </g>
</svg>