<?xml version="1.0" encoding="UTF-8"?>
<svg id="Layer_1" data-name="Layer 1" xmlns="http://www.w3.org/2000/svg" viewBox="0 0 250 250">
  <defs>
    <style>
      .cls-1 {
        fill: #fff;
      }

      .cls-1, .cls-2 {
        stroke-width: 0px;
      }

      .cls-2 {
        fill: #ff2d20;
      }
    </style>
  </defs>
  <rect class="cls-2" width="250" height="250"/>
  <path class="cls-1" d="m120.35,106.13c-7.18,0-13.02,5.84-13.02,13.02s5.84,13.02,13.02,13.02,13.02-5.84,13.02-13.02-5.84-13.02-13.02-13.02Zm0,23.04c-5.52,0-10.02-4.49-10.02-10.02s4.5-10.02,10.02-10.02,10.02,4.49,10.02,10.02-4.49,10.02-10.02,10.02Z"/>
  <path class="cls-1" d="m144.4,137.92c-.55,0-1,.45-1,1s.45,1,1,1c10.36,0,18.79,8.43,18.79,18.79s-8.43,18.79-18.79,18.79c-.55,0-1,.45-1,1s.45,1,1,1c11.46,0,20.79-9.33,20.79-20.79s-9.33-20.79-20.79-20.79Z"/>
  <path class="cls-1" d="m175.49,98.36c-.55,0-1,.45-1,1s.45,1,1,1c10.36,0,18.79,8.43,18.79,18.79s-8.43,18.79-18.79,18.79c-.55,0-1,.45-1,1s.45,1,1,1c11.46,0,20.79-9.33,20.79-20.79s-9.33-20.79-20.79-20.79Z"/>
  <path class="cls-1" d="m198.65,149.44c-.55,0-1,.45-1,1s.45,1,1,1c10.36,0,18.79,8.43,18.79,18.79s-8.43,18.79-18.79,18.79c-.55,0-1,.45-1,1s.45,1,1,1c11.46,0,20.79-9.33,20.79-20.79s-9.33-20.79-20.79-20.79Z"/>
  <path class="cls-1" d="m60.58,184.48c-2.08-.33-4.21.47-5.56,2.07l-.2.23c-1.08,1.27-1.58,2.88-1.4,4.54.17,1.66.99,3.13,2.31,4.16l15.17,11.81c-10.36-3.16-21.99-5.03-34.64-5.41-1.69-.05-3.21.56-4.39,1.71-1.19,1.15-1.84,2.7-1.84,4.36,0,2.05,1.03,3.95,2.75,5.07l30.61,19.99c-6.12-.88-12.89-1.38-20.41-1.53-1.63-.04-3.18.58-4.34,1.73-1.17,1.15-1.82,2.69-1.82,4.33v.27c0,1.88.85,3.62,2.34,4.78l9.5,7.4h4.88l-12.54-9.76c-.74-.58-1.18-1.48-1.18-2.41v-.27c0-.83.33-1.61.92-2.19.59-.58,1.35-.88,2.18-.87,10.23.2,19.16,1.09,26.91,2.73.31.2.66.26.99.22,11.14,2.49,19.76,6.6,26.19,12.55h4.26c-2.08-2.24-4.39-4.27-6.95-6.07-6.23-4.36-13.9-7.51-23.38-9.56l-36.52-23.85c-.87-.57-1.39-1.52-1.39-2.56,0-.84.33-1.62.93-2.2.6-.58,1.42-.9,2.21-.86,41.32,1.23,71.46,18.59,80.05,45.11h3.16c-5.31-17.53-19.39-31.32-39.61-39.58-.05-.06-.1-.11-.17-.16l-22.02-17.14c-.67-.52-1.08-1.26-1.17-2.1-.09-.84.17-1.65.71-2.29l.2-.23c.69-.81,1.76-1.21,2.81-1.05,36.46,5.74,62.55,12.53,66.28,47.84.61,5.73,1.83,10.58,3.61,14.71h3.21c-1.98-4.2-3.22-9.17-3.84-15.03-3.94-37.36-32.23-44.73-68.8-50.49Z"/>
  <path class="cls-1" d="m246.48,92.04c-9.71-10.97-29.94-13.98-43.01-6.59-10.44-6.19-21.89-10.37-33.86-12.32l9.25-24.56c.97-2.57-.12-5.51-2.53-6.83-2.52-1.38-5.74-.58-7.32,1.82l-10.64,16.2h-4.9l-3.29-21.2c-.42-2.73-2.73-4.7-5.49-4.7h-.59c-2.76,0-5.07,1.98-5.49,4.7l-3.29,21.2h-4.9l-10.64-16.2c-1.58-2.41-4.79-3.21-7.32-1.82-2.41,1.32-3.5,4.26-2.53,6.83l10.27,27.26c-24.13,6.79-36.56,22.22-37.06,46.13h-5.61c-3.04,0-5.51,2.47-5.51,5.51v2.62c0,1.58.67,3,1.73,4.01-1.07,1.01-1.73,2.43-1.73,4.01v1.85c0,3.04,2.47,5.51,5.51,5.51h5.77c.52,3.47,2.5,12.94,9.33,22.5,7.74,10.84,23.44,23.76,54.23,23.76,2.26,0,4.44.11,6.57.29-2.66,2.2-4.69,5.67-5.66,9.91-1.75,7.72.44,15.3,5.59,19.3l.44.34c9.41,7.31,19.15,14.87,22.5,23.62.14.37.43.67.79.83.19.09.4.13.61.13.18,0,.37-.03.54-.1,5.03-1.95,15.43-7.45,17.31-20.05,3.19,10.3,3.41,19.97,3.34,24h3.02c.18-7.18-.51-30.04-15.12-45.85-7.13-7.72-16.52-12.56-28.02-14.48-.05,0-.09-.01-.14-.02-3.71-.61-7.63-.92-11.77-.92-23.64,0-41.04-7.53-51.71-22.38-7.98-11.1-9.02-22.38-9.03-22.5-.07-.78-.72-1.37-1.5-1.37h-7.09c-1.38,0-2.51-1.13-2.51-2.51v-1.85c0-1.38,1.12-2.51,2.51-2.51.83,0,1.5-.67,1.5-1.5s-.67-1.5-1.5-1.5c-1.38,0-2.51-1.13-2.51-2.51v-2.62c0-1.38,1.12-2.51,2.51-2.51h7.09c.83,0,1.5-.67,1.5-1.5,0-32.26,22.79-48.61,67.73-48.61,4.52,0,8.96.32,13.31.93.13.03.25.05.38.05,12.53,1.8,24.25,6.05,34.71,12.29.24.3.57.5.93.56,25.91,15.85,43.85,43.97,46.82,77.14v-17.74c-2.35-9.18-5.88-17.91-10.52-26,4.25-.38,8.48,2.21,10.52,3.69v-2.44c-2.68-1.75-7.1-3.93-11.62-3.13-3.5-5.8-7.57-11.26-12.19-16.28,7.88-1.62,16.72.17,20.51,4.39.2.22.47.33.74.33.24,0,.48-.08.67-.26.41-.37.44-1,.07-1.41-4.42-4.91-14.78-6.93-23.58-4.74-.53-.55-1.07-1.1-1.62-1.64-5.11-5.07-10.66-9.51-16.55-13.3,11.8-5.63,29.46-2.68,37.8,6.74,2.07,2.34,4,4.87,5.76,7.37v-5.08c-1.12-1.46-2.29-2.9-3.52-4.28Zm-87.97,100.63c3.85.66,7.43,1.67,10.76,3.02-9.77,9.49-6.07,20.17-6.03,20.28.15.41.53.66.94.66.11,0,.23-.02.34-.06.52-.19.79-.76.6-1.28-.15-.42-3.43-10.04,6.14-18.74,4.08,1.88,7.73,4.31,10.95,7.29-5.69,7.91-3.88,19.13-3.79,19.62.08.49.51.83.99.83.05,0,.11,0,.17-.01.54-.09.91-.61.82-1.15-.02-.11-1.71-10.64,3.27-17.88.3.31.61.61.9.92,3.44,3.72,6.06,7.91,8.05,12.19,1.83,15.03-8.35,21.76-14.12,24.33-4.07-8.9-13.62-16.31-22.87-23.5l-.44-.34c-5.14-4-5.64-11.26-4.51-16.26,1.18-5.22,4.16-8.99,7.81-9.93Zm8.06-119.99c-4.19-.55-8.43-.83-12.71-.83-11.69,0-21.93,1.08-30.74,3.23l-10.38-27.56c-.45-1.18.05-2.54,1.16-3.14,1.16-.64,2.64-.27,3.37.84l11.08,16.88c.28.42.75.68,1.25.68h6.99c.74,0,1.37-.54,1.48-1.27l3.49-22.47c.2-1.25,1.26-2.17,2.53-2.17h.59c1.27,0,2.33.91,2.53,2.17l3.49,22.47c.11.73.74,1.27,1.48,1.27h6.99c.5,0,.98-.25,1.25-.68l11.08-16.88c.73-1.11,2.2-1.48,3.37-.84,1.11.61,1.61,1.96,1.16,3.14l-9.48,25.17Z"/>
</svg>