<?xml version="1.0" encoding="UTF-8"?>
<svg id="Layer_1" data-name="Layer 1" xmlns="http://www.w3.org/2000/svg" viewBox="0 0 250 250">
  <defs>
    <style>
      .cls-1 {
        fill: #fff;
      }

      .cls-1, .cls-2 {
        stroke-width: 0px;
      }

      .cls-2 {
        fill: #ff2d20;
      }
    </style>
  </defs>
  <rect class="cls-2" width="250" height="250"/>
  <path class="cls-1" d="m85.68,240.25s-.09,0-.13,0c-.74-.06-1.33-.67-1.37-1.41-1.03-18.58-5.1-35.12-12.41-50.47l-1.25,1.64c-.39.51-1.05.71-1.65.52-.6-.19-1.02-.75-1.04-1.38-.16-5.5-1.31-10.56-3.57-15.72l-1.02,1.65c-.31.51-.89.78-1.48.7-.59-.08-1.07-.5-1.24-1.08-.67-2.35-.95-4.58-1.21-6.75-.27-2.21-.53-4.3-1.19-6.26-.07-.21-.16-.44-.24-.67-.34-.95-.74-2.02-.89-3.19-.14-.85-.29-1.24-.39-1.42-.18.07-.54.27-1.11.8-.44.4-1.07.5-1.6.27-.54-.23-.89-.76-.91-1.35-.09-5.16-1.14-10.17-2.15-15.02-.7-3.32-1.41-6.73-1.82-10.21-.67.78-1.61,1.56-3.16,1.62-.42,0-.84-.15-1.14-.46-.3-.31-.45-.73-.41-1.16.39-4.87-.11-9.67-.63-14.75-.2-1.92-.4-3.88-.56-5.87-.08.04-.17.07-.25.09-.42.11-.87.03-1.23-.21l-1.06-.72c-.36-.24-.59-.63-.64-1.05-.43-3.4-.05-6.75.32-9.99l.06-.54c.46-3.58.88-7.37,1.32-11.94.04-.48.19-.96.32-1.38.05-.16.11-.37.16-.55-.14-.02-.34-.04-.62-.05-.65,0-1.23-.27-1.6-.76-.69-.9-.38-2.02-.16-2.85l.2-.78c2.06-7.87,4.19-16.01,8.79-23.25,8.55-13.43,29.78-31.34,53.19-25.65,11.24,2.73,19.21,8.8,23.69,18.05.67,1.42,1.11,2.69,1.35,3.86l.24-.8c2.94-9.77,5.99-19.88,10.71-29.27.21-.42.41-.83.61-1.25.55-1.15,1.12-2.34,1.91-3.4.12-.16.26-.44.41-.74.5-.99,1.53-3.06,3.94-2.51,2.4.53,4.26,1.95,5.24,4.01,1.42,2.84-.69,4.71-1.83,5.71-7.3,6.71-10.74,15.25-13.99,24.38,1.9-2.17,3.9-4.36,6.17-6.28,16.85-14.29,34.86-17.9,53.54-10.73,16.86,6.48,28.24,19.39,33.82,38.36,3.64,12.45,3.12,25.48-1.59,39.85-.84,2.57-1.5,5.29-2.15,7.91-.36,1.47-.72,2.94-1.11,4.4-.04.15-.07.32-.11.49-.18.88-.44,2.09-1.54,2.77-.67.41-1.47.52-2.43.32-.15.11-.33.29-.39.39-1.59,3.5-3.83,6.54-6.01,9.49-1.84,2.5-3.59,4.87-4.98,7.5-.44.86-.82,1.79-1.35,3.08-.23.55-.48,1.17-.77,1.87-.26.63-.94,1-1.6.91-.68-.1-1.2-.65-1.27-1.33l-.24-2.4c-2.33,2.5-4.87,4.69-7.35,6.83-3.84,3.32-7.48,6.45-10.24,10.52-.24.36-.63.59-1.06.65-.42.05-.86-.08-1.18-.37-.77-.69-1.14-1.38-1.28-2.02-5.04,3.78-9.75,8.01-14.04,12.61-.18.19-.4.54-.62.87-.68,1.05-2.1,3.23-4.4,2.15-1.37-.65-1.6-1.77-1.5-2.77-6.33,4.75-11.56,10.43-17.06,16.4-.83.91-1.67,1.82-2.52,2.73-.42.45-1.07.6-1.65.38-.57-.23-.95-.78-.95-1.4v-1.7c-2.08,1.26-4.19,2.4-6.26,3.52-6.44,3.48-12.52,6.76-16.44,12.99-.34.54-.98.8-1.59.67-.62-.14-1.08-.64-1.17-1.27l-.18-1.38c-2.5,2.88-5.25,5.58-7.91,8.2-7.36,7.24-14.97,14.72-17.62,26.19-.16.69-.77,1.16-1.46,1.16Zm-13.63-56.23s.09,0,.14,0c.52.05.97.36,1.2.82,7.14,14.29,11.49,29.54,13.2,46.44,3.74-8.42,9.98-14.55,16.05-20.53,3.14-3.09,6.39-6.29,9.16-9.7.48-.59,1.32-.73,1.97-.32l.94.6c.26.17.47.41.58.7,4.23-5,9.85-8.03,15.32-10.99,2.78-1.5,5.65-3.05,8.35-4.85.46-.31,1.05-.34,1.54-.08.49.26.79.77.79,1.32v.59c6.43-6.98,12.52-13.57,20.49-18.88.44-.29,1.01-.33,1.48-.1.48.23.8.7.84,1.23.08,1-.16,1.91-.38,2.67.05-.07.09-.14.13-.2.28-.44.58-.89.93-1.27,5.15-5.53,10.89-10.53,17.07-14.88.06-.07.12-.14.19-.2.07-.07.14-.14.22-.2.6-.43,1.42-.36,1.93.16l.08.08c.3.3.45.69.44,1.1,2.49-2.84,5.33-5.29,8.1-7.69,3.23-2.79,6.57-5.67,9.27-9.11.38-.48,1.01-.69,1.6-.52.59.17,1.01.68,1.08,1.29v.14c1.5-2.79,3.36-5.31,5.16-7.75,2.18-2.95,4.23-5.74,5.69-8.95.39-.92,2-2.55,3.51-2.15.22.06.36.08.45.08.08-.19.15-.56.2-.79.05-.22.09-.44.15-.64.39-1.45.74-2.9,1.1-4.35.66-2.68,1.33-5.45,2.21-8.13,4.52-13.78,5.03-26.23,1.56-38.08-5.3-18.03-16.07-30.28-32.01-36.41-17.57-6.75-34.58-3.31-50.53,10.22-2.47,2.09-4.55,4.48-6.76,7.02-1.34,1.54-2.73,3.13-4.21,4.64-.49.5-1.27.6-1.87.22-.24-.15-.42-.35-.54-.59-.44.74-1.14,1.38-2.34,1.33-2.28-.16-2.39-2.32-2.44-3.14-.01-.2-.02-.4-.05-.58-.17-1.07-.56-2.25-1.2-3.62-4.12-8.5-11.22-13.88-21.69-16.42-21.74-5.28-42.17,12.13-49.95,24.34-4.35,6.85-6.33,14.41-8.42,22.4l-.19.72c.75.13,1.53.43,2.04,1.13.8,1.1.4,2.39.14,3.25-.09.28-.18.6-.2.78-.44,4.62-.86,8.43-1.33,12.03l-.06.52c-.24,2.16-.48,4.23-.49,6.29l.27-.55c.31-.62,1-.95,1.67-.8.68.15,1.16.74,1.17,1.44.07,3.65.44,7.25.8,10.73.43,4.17.84,8.16.78,12.21.52-.66,1.19-1.38,2.24-1.79.44-.17.95-.12,1.36.13s.66.7.69,1.18c.25,4.35,1.12,8.51,2.04,12.92.88,4.19,1.78,8.51,2.1,13.01.55-.16,1.15-.19,1.75.02,1.83.64,2.21,2.99,2.35,3.88.12.89.44,1.76.74,2.6.09.25.18.49.26.72.76,2.25,1.05,4.59,1.33,6.86.11.9.22,1.81.37,2.73l.5-.82c.29-.46.8-.74,1.34-.71.54.02,1.03.34,1.28.82,2.6,5.16,4.15,10.15,4.76,15.44l.32-.43c.29-.37.73-.59,1.19-.59Zm-30.57-103.09h.01-.01Zm102.6-63.42c-.17.07-.45.61-.61.93-.19.39-.4.79-.67,1.16-.63.85-1.11,1.86-1.62,2.93-.21.44-.42.88-.64,1.31-3.23,6.42-5.67,13.26-7.85,20.1,2.98-7.91,6.67-15.65,13.37-21.8,0,0,.08-.07.09-.08,1.34-1.19,1.44-1.51,1.12-2.15-.79-1.65-2.34-2.21-3.2-2.4Zm-56.7,153.93c-.62,0-1.18-.38-1.4-.96-.24-.63-.04-1.34.5-1.74l.43-.32c2.02-1.52,4.06-3.08,7.64-3.04.66,0,1.23.44,1.42,1.07.19.63-.05,1.3-.59,1.67-2.51,1.7-4.68,3.02-7.86,3.32-.05,0-.09,0-.14,0Z"/>
  <path class="cls-1" d="m94.96,192.26c-.07,0-.14,0-.22-.02-.82-.12-1.39-.88-1.27-1.7,6.35-43.76,30.64-122.08,30.88-122.87.25-.79,1.09-1.23,1.88-.99.79.25,1.23,1.09.99,1.88-.24.78-24.46,78.88-30.78,122.4-.11.75-.75,1.28-1.48,1.28Z"/>
  <path class="cls-1" d="m88.37,172.27c-.52,0-1.02-.27-1.3-.75-.41-.72-.17-1.64.55-2.05l12.64-7.28c.72-.41,1.63-.17,2.05.55.41.72.17,1.64-.55,2.05l-12.64,7.28c-.24.14-.49.2-.75.2Z"/>
  <path class="cls-1" d="m107.35,178.19c-.37,0-.73-.13-1.02-.4l-6.35-5.92c-.61-.56-.64-1.51-.07-2.12.56-.61,1.52-.64,2.12-.07l6.35,5.92c.61.56.64,1.51.07,2.12-.29.32-.7.48-1.1.48Z"/>
  <path class="cls-1" d="m121.6,146.49c-.49,0-.97-.24-1.26-.69-.24-.37-6.02-9.06-13.83-5.31-.75.36-1.64.04-2-.71-.36-.75-.04-1.64.71-2,8.16-3.91,15.12,2.47,17.65,6.39.45.7.25,1.62-.45,2.07-.25.16-.53.24-.81.24Z"/>
  <path class="cls-1" d="m86.08,138.77c-.67,0-1.28-.45-1.45-1.13-.2-.8.28-1.62,1.09-1.82.16-.04,16.41-4.15,21.7-6.55.76-.34,1.64,0,1.99.75.34.75,0,1.64-.75,1.99-5.54,2.51-21.53,6.56-22.21,6.73-.12.03-.25.05-.37.05Z"/>
  <path class="cls-1" d="m113.01,113.56c-.55,0-1.08-.3-1.34-.82-.38-.74-.08-1.64.66-2.02,8.58-4.34,19.91-.45,20.39-.28.78.27,1.19,1.13.92,1.91s-1.13,1.19-1.91.92c-.11-.04-10.62-3.64-18.04.13-.22.11-.45.16-.68.16Z"/>
  <path class="cls-1" d="m115.18,100.84c-.2,0-.41-.04-.6-.13-17.84-7.83-28.88-3.17-28.99-3.12-.76.33-1.64-.01-1.98-.77s0-1.64.76-1.98c.49-.22,12.25-5.29,31.41,3.12.76.33,1.1,1.22.77,1.98-.25.56-.8.9-1.38.9Z"/>
  <path class="cls-1" d="m120.13,90.54c-.37,0-.74-.14-1.03-.41-.6-.57-.63-1.52-.06-2.12,14.15-14.94,38.85-13.16,39.89-13.07.83.07,1.44.79,1.38,1.61s-.8,1.45-1.61,1.38c-.24-.02-24.33-1.74-37.48,12.14-.29.31-.69.47-1.09.47Z"/>
  <path class="cls-1" d="m121.86,82.64c-.6,0-1.17-.37-1.4-.96-8.44-22.06-20.74-26.53-20.87-26.58-.78-.27-1.2-1.12-.93-1.91.27-.78,1.12-1.2,1.91-.93.56.19,13.76,4.98,22.69,28.34.3.77-.09,1.64-.87,1.94-.18.07-.36.1-.54.1Z"/>
</svg>