<?xml version="1.0" encoding="UTF-8"?>
<svg id="Layer_1" data-name="Layer 1" xmlns="http://www.w3.org/2000/svg" viewBox="0 0 250 250">
  <defs>
    <style>
      .cls-1 {
        fill: #fff;
      }

      .cls-1, .cls-2 {
        stroke-width: 0px;
      }

      .cls-2 {
        fill: #ff2d20;
      }
    </style>
  </defs>
  <rect class="cls-2" width="250" height="250"/>
  <g>
    <path class="cls-2" d="m237.32,62.34l-40.06-3.87c-.77-.07-1.36-.72-1.36-1.49v-16.17h-91.89v16.17c0,.77-.59,1.42-1.36,1.49l-40.06,3.87v4.22h174.71v-4.22Z"/>
    <path class="cls-2" d="m154.61,206.49c10.51-8.61,18.81-15.41,18.86-26.86-3-10.51-6-23.8-6.94-37.2-3.65,5.68-10.16,9.01-19.02,9.63,5.59,7.59,7.9,16.93,7.58,29.29-.02.81-.69,1.46-1.5,1.46-.01,0-.03,0-.04,0-.83-.02-1.48-.71-1.46-1.54.49-18.83-5.47-30.16-20.57-39.1-.71-.42-.95-1.34-.53-2.06.42-.71,1.34-.95,2.05-.53,4.91,2.91,8.91,6.05,12.09,9.57,11.69-.19,18.98-4.9,21.1-13.66,0-.46-.02-.92-.02-1.38,0-.83.67-1.5,1.5-1.5,5.17,0,9.18-1.68,11.29-4.73,1.74-2.52,1.98-5.8.68-9.26-2.56-6.77-12.18-6.71-12.27-6.72-.43,0-.84-.17-1.13-.49-.41-.45-6.07-6.77-10.9-16.36-2.97-4.02-8.45-5.73-17.88-5.73-.83,0-1.5-.67-1.5-1.5s.67-1.5,1.5-1.5c5.28,0,10.78.45,15.16,2.69-2.31-5.82-4.02-12.44-4.19-19.47h-33.38v26.71c0,15.3-12.45,27.75-27.75,27.75h-9.68c-2.37,0-4.31,1.93-4.31,4.31s1.93,4.3,4.31,4.3h35.93c.83,0,1.5.67,1.5,1.5s-.67,1.5-1.5,1.5h-6.82c-2.7,6.74-2.89,14.45-2.83,17.71,5.73-.56,24.69-1.31,35.75,11.59.1.09.18.19.26.3,1.28,1.53,2.45,3.24,3.48,5.18.39.73.11,1.64-.62,2.03-.22.12-.46.18-.7.18-.54,0-1.06-.29-1.33-.8-.84-1.58-1.79-2.99-2.83-4.27h-21.49c-1.95,0-3.54,1.59-3.54,3.54s1.59,3.54,3.54,3.54h17.14c.83,0,1.5.67,1.5,1.5s-.67,1.5-1.5,1.5h-13.23c.27,4.46,1.7,8.23,3.09,11.87,3.32,8.67,6.18,16.16-10.16,26.38-17.87,11.17-22.66,30.86-23.35,34.15h29.26c2.62-4.57,6.68-11.19,12.92-20.6,6.55-9.87,15.01-16.8,22.48-22.91Zm-12.51-107.37c6.24,0,11.31,5.07,11.31,11.31s-5.07,11.31-11.31,11.31-11.31-5.07-11.31-11.31,5.07-11.31,11.31-11.31Zm-4.31,109.8c.05-.09,4.48-9.19,1.36-21.26-.14-.53.18-1.08.72-1.22.54-.14,1.08.18,1.22.72,3.32,12.82-1.31,22.26-1.51,22.65-.18.35-.53.55-.89.55-.15,0-.3-.03-.45-.11-.49-.25-.69-.85-.45-1.34Zm-12.46,10.1c-.17.05-17.14,5.16-24.48,26.54-.14.41-.53.68-.95.68-.11,0-.22-.02-.32-.05-.52-.18-.8-.75-.62-1.27,7.69-22.41,25.09-27.6,25.82-27.81.54-.15,1.08.16,1.24.69.15.53-.16,1.08-.69,1.24Z"/>
    <path class="cls-2" d="m111.72,213.31c14.25-8.9,12.14-14.42,8.95-22.76-1.43-3.73-3.01-7.93-3.29-12.94h-.91c-3.6,0-6.54-2.93-6.54-6.54s2.93-6.54,6.54-6.54h18.67c-12.32-11.18-32.14-8.08-32.37-8.04-.42.07-.84-.04-1.17-.3-.33-.26-.54-.65-.57-1.07-.03-.45-.73-10.4,2.55-19.5h-25.9c-4.03,0-7.31-3.28-7.31-7.3s3.28-7.31,7.31-7.31h9.68c13.65,0,24.75-11.1,24.75-24.75v-26.71h-51c-.83,0-1.5-.67-1.5-1.5v-7.09c0-.77.59-1.42,1.36-1.49l40.06-3.87v-16.31c0-.83.67-1.5,1.5-1.5h94.89c.83,0,1.5.67,1.5,1.5v16.31l40.06,3.87c.77.07,1.36.72,1.36,1.49v7.09c0,.83-.67,1.5-1.5,1.5h-39.88c.32,12.28,5.53,22.96,10.59,33.31,4.06,8.3,8.26,16.89,9.9,26.24,2.72,15.55,21.82,30.42,30.58,36.51V0H0v250h86.9s0,0,0-.01c.16-.97,4.2-23.79,24.81-36.68Z"/>
    <path class="cls-2" d="m211.34,208.6c-14.3-5.24-20-14.46-22.15-19.6l-5.82,11.9c-.26.53-.82.86-1.39.84-.59-.02-1.11-.38-1.34-.92-.06-.14-2.37-5.73-5.13-14.41-2.63,8.99-10.34,15.31-19,22.41-7.3,5.98-15.58,12.76-21.88,22.25-5.56,8.38-9.36,14.52-11.94,18.94h127.31v-31c-4.57-3.63-10.43-4.51-17.93-5.63-6.1-.91-13-1.94-20.72-4.77Z"/>
    <path class="cls-2" d="m142.1,118.74c4.58,0,8.31-3.73,8.31-8.31s-3.73-8.31-8.31-8.31-8.31,3.73-8.31,8.31,3.73,8.31,8.31,8.31Z"/>
    <path class="cls-2" d="m214.95,181.89c-.32-.45-.2-1.08.25-1.39.45-.31,1.08-.2,1.39.25,4.51,6.48,22.26,12.81,33.41,16.27v-27.75c-8.02-5.34-30.38-21.66-33.53-39.65-1.56-8.93-5.49-16.95-9.64-25.44-5.21-10.66-10.58-21.67-10.9-34.63h-25.85c.89,15.58,15.17,30.2,15.32,30.35.39.39.38,1.03,0,1.41-.2.19-.45.29-.7.29s-.52-.1-.71-.3c-.63-.64-15.05-15.39-15.9-31.76h-16.59c.24,9.03,3.26,17.48,6.69,24.26.53.79,1,1.68,1.41,2.65,3.6,6.48,7.3,11.04,8.52,12.47,2.63.11,11.54,1.05,14.4,8.65,1.66,4.4,1.3,8.67-1.02,12.02-2.46,3.56-6.77,5.65-12.24,5.98.35,25.32,9.56,51.96,12.94,60.92l5.94-12.15c.28-.58.91-.91,1.55-.83.64.09,1.15.57,1.27,1.21.11.58,2.97,14.27,21.43,21.04,7.43,2.73,14.18,3.73,20.13,4.62,6.59.98,12.55,1.88,17.49,4.95v-16.22c-11.32-3.47-30.09-10.1-35.05-17.24Zm-23.7-11.09s-.03,0-.04,0c-.53,0-.97-.42-1-.96,0-.15-.69-15.21-4.51-26.31-.18-.52.1-1.09.62-1.27.52-.18,1.09.1,1.27.62,3.92,11.38,4.59,26.25,4.62,26.88.02.55-.4,1.02-.96,1.04Zm3.76-57.55c-.1-.54.26-1.06.8-1.17.54-.1,1.06.26,1.17.8,7.86,42.47,35.29,57.16,35.56,57.3.49.25.68.86.43,1.35-.18.34-.53.54-.89.54-.16,0-.31-.04-.46-.11-.29-.15-28.57-15.29-36.61-58.71Z"/>
    <path class="cls-1" d="m142.1,121.74c6.24,0,11.31-5.07,11.31-11.31s-5.07-11.31-11.31-11.31-11.31,5.07-11.31,11.31,5.07,11.31,11.31,11.31Zm0-19.62c4.58,0,8.31,3.73,8.31,8.31s-3.73,8.31-8.31,8.31-8.31-3.73-8.31-8.31,3.73-8.31,8.31-8.31Z"/>
    <path class="cls-1" d="m212.38,205.78c-18.46-6.77-21.32-20.47-21.43-21.04-.12-.64-.63-1.12-1.27-1.21-.64-.09-1.27.25-1.55.83l-5.94,12.15c-3.38-8.96-12.59-35.61-12.94-60.92,5.47-.32,9.78-2.42,12.24-5.98,2.32-3.35,2.68-7.62,1.02-12.02-2.87-7.59-11.78-8.54-14.4-8.65-1.22-1.43-4.92-5.99-8.52-12.47-.41-.97-.87-1.86-1.41-2.65-3.43-6.77-6.45-15.22-6.69-24.26h16.59c.85,16.37,15.27,31.12,15.9,31.76.2.2.45.3.71.3s.51-.1.7-.29c.39-.39.4-1.02,0-1.41-.15-.15-14.43-14.78-15.32-30.35h25.85c.31,12.95,5.68,23.97,10.9,34.63,4.15,8.49,8.08,16.51,9.64,25.44,3.15,17.99,25.51,34.31,33.53,39.65v-3.65c-8.76-6.09-27.85-20.97-30.58-36.51-1.64-9.35-5.84-17.93-9.9-26.24-5.06-10.34-10.27-21.03-10.59-33.31h39.88c.83,0,1.5-.67,1.5-1.5v-7.09c0-.77-.59-1.42-1.36-1.49l-40.06-3.87v-16.31c0-.83-.67-1.5-1.5-1.5h-94.89c-.83,0-1.5.67-1.5,1.5v16.31l-40.06,3.87c-.77.07-1.36.72-1.36,1.49v7.09c0,.83.67,1.5,1.5,1.5h51v26.71c0,13.65-11.1,24.75-24.75,24.75h-9.68c-4.03,0-7.31,3.28-7.31,7.31s3.28,7.3,7.31,7.3h25.9c-3.28,9.1-2.58,19.05-2.55,19.5.03.42.24.81.57,1.07.33.26.76.37,1.17.3.23-.04,20.05-3.15,32.37,8.04h-18.67c-3.6,0-6.54,2.93-6.54,6.54s2.93,6.54,6.54,6.54h.91c.28,5.01,1.86,9.21,3.29,12.94,3.19,8.34,5.3,13.86-8.95,22.76-20.62,12.89-24.65,35.71-24.81,36.68,0,0,0,0,0,.01h3.06c.69-3.28,5.48-22.98,23.35-34.15,16.34-10.21,13.48-17.7,10.16-26.38-1.39-3.65-2.82-7.41-3.09-11.87h13.23c.83,0,1.5-.67,1.5-1.5s-.67-1.5-1.5-1.5h-17.14c-1.95,0-3.54-1.59-3.54-3.54s1.59-3.54,3.54-3.54h21.49c1.03,1.28,1.99,2.69,2.83,4.27.27.51.79.8,1.33.8.24,0,.48-.06.7-.18.73-.39,1.01-1.3.62-2.03-1.02-1.93-2.2-3.64-3.48-5.18-.07-.11-.16-.21-.26-.3-11.06-12.9-30.02-12.16-35.75-11.59-.06-3.25.13-10.97,2.83-17.71h6.82c.83,0,1.5-.67,1.5-1.5s-.67-1.5-1.5-1.5h-35.93c-2.37,0-4.31-1.93-4.31-4.3s1.93-4.31,4.31-4.31h9.68c15.3,0,27.75-12.45,27.75-27.75v-26.71h33.38c.17,7.03,1.88,13.65,4.19,19.47-4.38-2.24-9.89-2.69-15.16-2.69-.83,0-1.5.67-1.5,1.5s.67,1.5,1.5,1.5c9.43,0,14.91,1.7,17.88,5.73,4.83,9.59,10.49,15.91,10.9,16.36.29.32.7.49,1.13.49.09.01,9.71-.06,12.27,6.72,1.3,3.45,1.06,6.74-.68,9.26-2.11,3.05-6.12,4.73-11.29,4.73-.83,0-1.5.67-1.5,1.5,0,.46.01.92.02,1.38-2.12,8.76-9.41,13.47-21.1,13.66-3.19-3.52-7.19-6.66-12.09-9.57-.71-.42-1.63-.19-2.05.53-.42.71-.19,1.63.53,2.06,15.1,8.95,21.06,20.28,20.57,39.1-.02.83.63,1.52,1.46,1.54.01,0,.03,0,.04,0,.81,0,1.48-.65,1.5-1.46.32-12.37-1.98-21.7-7.58-29.29,8.85-.62,15.37-3.95,19.02-9.63.94,13.41,3.94,26.69,6.94,37.2-.05,11.44-8.35,18.25-18.86,26.86-7.47,6.12-15.93,13.05-22.48,22.91-6.24,9.4-10.29,16.03-12.92,20.6h3.47c2.58-4.42,6.38-10.56,11.94-18.94,6.3-9.49,14.58-16.27,21.88-22.25,8.67-7.1,16.37-13.41,19-22.41,2.76,8.68,5.07,14.27,5.13,14.41.23.54.75.9,1.34.92.57.02,1.13-.31,1.39-.84l5.82-11.9c2.15,5.14,7.85,14.36,22.15,19.6,7.72,2.83,14.63,3.86,20.72,4.77,7.5,1.12,13.36,2.01,17.93,5.63v-3.65c-4.94-3.07-10.9-3.97-17.49-4.95-5.95-.89-12.7-1.89-20.13-4.62ZM62.6,66.56v-4.22l40.06-3.87c.77-.07,1.36-.72,1.36-1.49v-16.17h91.89v16.17c0,.77.59,1.42,1.36,1.49l40.06,3.87v4.22H62.6Z"/>
    <path class="cls-1" d="m186.32,142.26c-.52.18-.8.75-.62,1.27,3.82,11.11,4.5,26.16,4.51,26.31.02.54.47.96,1,.96.01,0,.03,0,.04,0,.55-.02.98-.49.96-1.04-.03-.63-.7-15.49-4.62-26.88-.18-.52-.75-.8-1.27-.62Z"/>
    <path class="cls-1" d="m231.62,171.96c.15.08.3.11.46.11.36,0,.71-.2.89-.54.25-.49.06-1.09-.43-1.35-.28-.14-27.7-14.83-35.56-57.3-.1-.54-.62-.9-1.17-.8-.54.1-.9.62-.8,1.17,8.04,43.42,36.32,58.56,36.61,58.71Z"/>
    <path class="cls-1" d="m216.59,180.75c-.32-.45-.94-.56-1.39-.25-.45.32-.57.94-.25,1.39,4.96,7.13,23.73,13.77,35.05,17.24v-2.11c-11.14-3.45-28.9-9.79-33.41-16.27Z"/>
    <path class="cls-1" d="m124.78,217.1c-.74.21-18.13,5.4-25.82,27.81-.18.52.1,1.09.62,1.27.11.04.22.05.32.05.42,0,.8-.26.95-.68,7.34-21.38,24.31-26.49,24.48-26.54.53-.15.84-.71.69-1.24-.15-.53-.7-.84-1.24-.69Z"/>
    <path class="cls-1" d="m138.24,210.26c.14.07.3.11.45.11.37,0,.72-.2.89-.55.2-.4,4.83-9.83,1.51-22.65-.14-.53-.68-.85-1.22-.72-.54.14-.86.68-.72,1.22,3.12,12.06-1.31,21.17-1.36,21.26-.25.49-.05,1.09.45,1.34Z"/>
  </g>
</svg>