<?xml version="1.0" encoding="UTF-8"?>
<svg id="Layer_1" data-name="Layer 1" xmlns="http://www.w3.org/2000/svg" viewBox="0 0 250 250">
  <defs>
    <style>
      .cls-1 {
        fill: #fff;
      }

      .cls-1, .cls-2 {
        stroke-width: 0px;
      }

      .cls-2 {
        fill: #ff2d20;
      }
    </style>
  </defs>
  <rect class="cls-2" width="250" height="250"/>
  <path class="cls-1" d="m71.5,87.24c-4.61,0-8.37,3.75-8.37,8.37s3.75,8.37,8.37,8.37,8.37-3.75,8.37-8.37-3.75-8.37-8.37-8.37Zm0,13.73c-2.96,0-5.37-2.41-5.37-5.37s2.41-5.37,5.37-5.37,5.37,2.41,5.37,5.37-2.41,5.37-5.37,5.37Z"/>
  <path class="cls-1" d="m150.8,68.1c0-4.61-3.75-8.37-8.37-8.37s-8.37,3.75-8.37,8.37,3.75,8.37,8.37,8.37,8.37-3.75,8.37-8.37Zm-8.37,5.37c-2.96,0-5.37-2.41-5.37-5.37s2.41-5.37,5.37-5.37,5.37,2.41,5.37,5.37-2.41,5.37-5.37,5.37Z"/>
  <path class="cls-1" d="m214.31,58.8c-4.61,0-8.37,3.75-8.37,8.37s3.75,8.37,8.37,8.37,8.37-3.75,8.37-8.37-3.75-8.37-8.37-8.37Zm0,13.73c-2.96,0-5.37-2.41-5.37-5.37s2.41-5.37,5.37-5.37,5.37,2.41,5.37,5.37-2.41,5.37-5.37,5.37Z"/>
  <path class="cls-1" d="m123.84,239.37c.36-.45.43-1.07.18-1.59-.25-.52-.78-.85-1.35-.85h-25.87l27.04-33.58c.36-.45.43-1.07.18-1.59-.25-.52-.78-.85-1.35-.85h-25.87l27.94-34.69c.23-.29.35-.66.33-1.03-1.84-30.2-24.03-51.21-56.52-53.53-23.2-1.66-34.16-1.55-38.62-1.34-1.17.04-2.27-.72-2.6-1.92-.21-.76-.07-1.57.4-2.21.47-.64,1.19-1.03,1.98-1.06l24.77-1.01c.75-.03,1.36-.61,1.43-1.35l.46-4.73c.04-.43-.1-.85-.4-1.17s-.74-.5-1.14-.47l-25.78.75c-2.45.06-4.49-1.78-4.65-4.22-.16-2.38,1.57-4.49,3.94-4.79l28.05-3.64.32-.03c.67-.06,1.23-.57,1.34-1.24l5.65-32.35c.08-.47-.06-.95-.39-1.29s-.8-.51-1.27-.45c-4.64.58-8.57,1.85-13.79,6.39-3,2.6-5.32,3.08-6.49,2.65-.57-.2-.91-.63-1.01-1.22.03-.88,2.68-3.58,4.61-5.55,3.37-3.44,7.56-7.72,9.84-12.58,5.18-12.31,13.29-12.31,13.62-12.31.46.02.94-.21,1.23-.59.29-.38.39-.89.25-1.35,0-.02-.54-1.89-.44-6.76.02-1.21.39-2.09,1.12-2.7,1.4-1.17,3.96-1.25,5.89-.94,2.1.34,2.84,3.4,2.84,3.43.05.22.15.43.29.6l.79,1c-.57.33-1.19.82-1.84,1.54-1.71,1.87-1.13,4.44-.4,7.68.53,2.33,1.18,5.23,1.23,8.71.06,4.83-5.22,8.03-8.38,9.5-.5.23-.83.72-.86,1.27l-1.96,34.65c-.02.4.12.8.39,1.09s.65.47,1.05.49c.82.03,1.63.07,2.46.12.74.04,1.4-.46,1.56-1.18l6.98-32.52c.33-1.53,1.72-2.61,3.27-2.54.89.03,1.71.42,2.3,1.1.59.67.87,1.53.78,2.42l-3.12,32.77c-.07.77.45,1.47,1.2,1.61,23.15,4.54,53.64,19.44,67.44,64.64.2.66.79,1.09,1.51,1.06.69-.03,1.26-.53,1.4-1.2,4.45-22.03-.73-43.04-14.57-59.15-10.66-12.41-27.45-22.97-34.18-26.93-.78-.46-1.26-1.31-1.26-2.22s.45-1.72,1.24-2.2c.79-.48,1.71-.51,2.52-.09l17.45,9.03c.37.19.8.22,1.19.08.39-.14.71-.44.87-.82l1.63-3.76c.3-.7.03-1.52-.63-1.9l-19.69-11.33c-1.9-1.1-2.65-3.42-1.73-5.42.96-2.1,3.38-3.03,5.5-2.12,4.36,1.87,11.17,4.9,18.89,8.74.67.33,1.47.12,1.9-.48l20.84-29.86c.9-1.28,2.58-1.73,4-1.07.81.38,1.41,1.05,1.69,1.9s.2,1.75-.22,2.53l-16.73,31.15c-.37.69-.15,1.55.51,1.97l1.78,1.14c.66.42,1.53.27,2.01-.36l21.17-27.97c1.18-1.56,3.31-2.04,5.04-1.15.64.33,1.1.89,1.3,1.57.2.69.11,1.41-.25,2.02l-18.14,30.85c-.41.69-.2,1.58.48,2.02,21.6,14.05,28.91,73.41,28.01,82.98-.05.55.21,1.09.67,1.4.47.31,1.06.33,1.55.06,24.4-13.51,31.39-35.75,18.7-59.49-10.47-19.59-20.22-40.72-22.96-46.72-.39-.86-.28-1.87.3-2.63.74-.97,1.87-1.49,3.09-1.45,1.22.05,2.3.67,2.95,1.7l11.59,18.16c.22.34.56.58.96.66.39.08.81,0,1.15-.23l3.46-2.34c.65-.44.85-1.3.47-1.98l-13.08-23.26c-.45-.8-.55-1.73-.29-2.61.27-.88.87-1.6,1.69-2.01,1.42-.72,3.15-.34,4.13.91,3.03,3.85,9,11.58,14.94,20.08.47.68,1.41.84,2.09.37l27.4-19.09c1.28-.9,3.02-.74,4.12.37.31.31.54.67.69,1.05v-4.22c-2.02-1.11-4.55-1.05-6.53.33l-26.17,18.24c-5.7-8.07-11.28-15.3-14.18-18.99-1.86-2.36-5.16-3.09-7.85-1.73-1.56.79-2.7,2.14-3.2,3.81-.51,1.67-.32,3.43.54,4.95l12.41,22.06-1.04.7-10.76-16.86c-1.17-1.84-3.18-2.99-5.36-3.09-2.18-.09-4.27.89-5.6,2.62-1.25,1.64-1.5,3.82-.65,5.69,2.75,6.03,12.53,27.22,23.04,46.89,11.41,21.35,5.7,41.41-15.21,54.12-.19-15.25-7.72-67.08-28.26-82.18l17.43-29.65c.77-1.32.97-2.91.55-4.38-.43-1.47-1.45-2.71-2.8-3.41-3.04-1.56-6.75-.72-8.81,2.01l-17.75,23.46,14.05-26.16c.82-1.52.97-3.26.42-4.9s-1.71-2.94-3.27-3.67c-2.74-1.28-5.99-.41-7.72,2.07l-20.11,28.8c-7.3-3.6-13.71-6.45-17.89-8.23-3.62-1.55-7.76.04-9.4,3.63-1.56,3.41-.29,7.4,2.96,9.27l18.53,10.67-.46,1.06-16.02-8.29c-1.74-.9-3.78-.83-5.46.19-1.68,1.02-2.68,2.8-2.68,4.76s1.05,3.81,2.74,4.8c5.15,3.03,22.77,13.9,33.43,26.3,12.16,14.15,17.25,31.55,14.88,50.62-14.71-41.27-43.73-55.81-66.47-60.6l2.99-31.43c.16-1.72-.37-3.38-1.51-4.68s-2.71-2.05-4.44-2.12c-2.99-.11-5.68,1.95-6.32,4.91l-6.32,29.42,1.72-30.4c6.06-3.05,9.35-7.23,9.29-11.86-.05-3.79-.74-6.87-1.3-9.33-.54-2.39-.97-4.28-.31-5,1.01-1.11,1.61-1.17,1.73-1.17.59.27,1.3.13,1.75-.37.48-.54.51-1.36.05-1.93l-2.15-2.71c-.35-1.18-1.69-4.8-5.2-5.37-1.61-.26-5.63-.62-8.29,1.6-1.4,1.17-2.15,2.88-2.19,4.94-.05,2.79.09,4.7.24,5.93-3.25.59-10.1,3.12-14.65,13.91-2.04,4.34-6.04,8.42-9.25,11.7-3.49,3.56-5.79,5.92-5.42,8.1.28,1.71,1.36,3.02,2.96,3.59,2.6.93,6.05-.24,9.48-3.21,3.9-3.38,6.87-4.71,10.17-5.36l-5.1,29.18-27.34,3.55c-3.93.51-6.81,4.01-6.54,7.97.26,3.98,3.54,7.03,7.5,7.03.08,0,.15,0,.23,0l24.08-.7-.17,1.74-23.46.96c-1.71.07-3.27.9-4.28,2.29-1.01,1.38-1.32,3.12-.85,4.82.7,2.52,3.01,4.22,5.63,4.08,4.4-.21,15.22-.31,38.27,1.33,30.69,2.19,51.71,21.85,53.7,50.15l-29.53,36.68c-.36.45-.43,1.07-.18,1.59.25.52.78.85,1.35.85h25.87l-27.04,33.58c-.36.45-.43,1.07-.18,1.59.25.52.78.85,1.35.85h25.87l-8.11,10.07h3.85l8.56-10.63ZM82.72,21.51s0,0,0,0c0,0,0,0,0,0Zm0,0s0,0,0,0c0,0,0,0,0,0Z"/>
  <path class="cls-1" d="m231.67,73.16c-.55.45-.71,1.23-.37,1.86,6.09,11.46,13.72,28.72,9.73,46.19-4.4,19.3-24.37,41.07-26.63,43.49-.51.54-.54,1.38-.07,1.96l27.58,34.25h-25.87c-.58,0-1.1.33-1.35.85-.25.52-.18,1.14.18,1.59l27.03,33.58h-25.87c-.58,0-1.1.33-1.35.85-.25.52-.18,1.14.18,1.59l8.56,10.63h3.85l-8.11-10.07h25.87c.58,0,1.1-.33,1.35-.85.25-.52.18-1.14-.18-1.59l-27.03-33.58h25.87c.58,0,1.1-.33,1.35-.85.25-.52.18-1.14-.18-1.59l-28.73-35.69c4.6-5.06,22.27-25.44,26.49-43.91,4.08-17.89-3.23-35.3-9.44-47.17l15.48-12.69v-3.88l-18.33,15.02Z"/>
  <path class="cls-1" d="m249.16,36.16l-25.78,22.85c-.55.49-.67,1.3-.28,1.92.54.85,1.06,1.7,1.57,2.54.21.35.55.59.94.68.39.09.81.02,1.15-.2l23.24-14.9v-3.56l-23.57,15.11c-.04-.06-.08-.13-.12-.19l23.69-20.99v-4.48c-.18.46-.46.88-.84,1.22Z"/>
  <path class="cls-1" d="m137.45,133.95c.13,0,.26-.03.39-.08.51-.21.75-.8.54-1.31-.09-.21-9.08-21.28-31.23-32.67-.49-.25-1.09-.06-1.35.43-.25.49-.06,1.09.43,1.35,21.48,11.05,30.21,31.46,30.3,31.67.16.38.53.61.92.61Z"/>
  <path class="cls-1" d="m132.88,164.97c-.01.55.42,1.01.98,1.02h.02c.54,0,.99-.43,1-.97.01-.43.18-10.76-7.15-24-.27-.48-.88-.66-1.36-.39-.48.27-.66.88-.39,1.36,7.04,12.73,6.9,22.88,6.9,22.98Z"/>
  <path class="cls-1" d="m163.24,120.29s.05,0,.08,0c.55-.04.96-.52.92-1.07-.57-7.37-5.79-25.3-14.18-34.8-.36-.41-1-.45-1.41-.09-.41.37-.45,1-.09,1.41,8.66,9.8,13.24,27.78,13.69,33.63.04.52.48.92,1,.92Z"/>
  <path class="cls-1" d="m172.03,105.35c-.51.22-.74.81-.52,1.32,4.7,10.76,4.26,24.19,4.26,24.33-.02.55.41,1.02.96,1.04.01,0,.03,0,.04,0,.54,0,.98-.42,1-.96.02-.57.46-14.02-4.42-25.2-.22-.5-.8-.74-1.32-.52Z"/>
  <path class="cls-1" d="m220.28,120.46c-.55-.05-1.04.34-1.1.89-.02.18-2.05,18.16-18.44,28.75-.46.3-.6.92-.3,1.38.19.3.51.46.84.46.19,0,.37-.05.54-.16,17.18-11.11,19.26-29.45,19.35-30.23.06-.55-.34-1.04-.89-1.1Z"/>
  <path class="cls-1" d="m220.17,107.27c.06,0,.12,0,.18-.02.54-.1.9-.62.81-1.16-.08-.44-2-10.87-7.02-19.11-.29-.47-.9-.62-1.37-.33-.47.29-.62.9-.33,1.37,4.82,7.91,6.74,18.32,6.76,18.42.09.48.51.82.98.82Z"/>
  <path class="cls-1" d="m138.69,188.62c.13.06.28.09.42.09.38,0,.74-.22.91-.58l5.75-12.51c.23-.5,0-1.1-.49-1.33-.5-.23-1.1-.01-1.33.49l-5.75,12.51c-.23.5,0,1.1.49,1.33Z"/>
  <path class="cls-1" d="m164.79,146.26c-.54-.09-1.05.3-1.13.84l-3.7,25.28c-.08.55.3,1.05.84,1.13.05,0,.1.01.15.01.49,0,.92-.36.99-.86l3.7-25.28c.08-.55-.3-1.05-.84-1.13Z"/>
  <path class="cls-1" d="m191.45,163.1c-.55.07-.94.57-.87,1.12l2.68,20.94c.06.5.5.87.99.87.04,0,.08,0,.13,0,.55-.07.94-.57.87-1.12l-2.68-20.94c-.07-.55-.57-.92-1.12-.87Z"/>
  <path class="cls-1" d="m204.45,212.87c-.28-.48-.88-.64-1.37-.37-.48.28-.64.89-.37,1.37l6.38,11.11c.19.32.52.5.87.5.17,0,.34-.04.5-.13.48-.28.64-.89.37-1.37l-6.38-11.11Z"/>
  <path class="cls-1" d="m146.67,193.89c-.46-.3-1.09-.16-1.38.3-.65,1.02-15.97,24.91-16.36,25.56-.28.47-.13,1.09.34,1.37.16.1.34.14.51.14.34,0,.67-.17.86-.49.3-.51,10.81-16.91,16.33-25.51.3-.46.16-1.08-.3-1.38Z"/>
  <path class="cls-1" d="m159.09,217.24c.16-.53-.13-1.09-.66-1.25-.53-.16-1.09.14-1.25.66l-10.24,33.35h2.09l10.06-32.76Z"/>
  <path class="cls-1" d="m172.21,190.04c-.55.05-.95.54-.9,1.09l2.94,30.38c.05.52.49.9.99.9.03,0,.06,0,.1,0,.55-.05.95-.54.9-1.09l-2.94-30.38c-.05-.55-.53-.95-1.09-.9Z"/>
  <path class="cls-1" d="m191.42,236.19c-.16-.53-.72-.83-1.25-.67-.53.16-.83.72-.67,1.25l4,13.23h2.09l-4.17-13.81Z"/>
  <path class="cls-1" d="m82.99,106.53c-.55-.1-1.06.27-1.16.81-.1.54.26,1.06.81,1.16,11.94,2.13,20.82,9.08,20.91,9.15.18.15.4.22.62.22.29,0,.59-.13.78-.38.34-.43.27-1.06-.16-1.4-.38-.3-9.34-7.33-21.8-9.55Z"/>
</svg>