<?xml version="1.0" encoding="UTF-8"?>
<svg id="Layer_1" data-name="Layer 1" xmlns="http://www.w3.org/2000/svg" viewBox="0 0 250 250">
  <defs>
    <style>
      .cls-1 {
        fill: #fff;
      }

      .cls-1, .cls-2 {
        stroke-width: 0px;
      }

      .cls-2 {
        fill: #ff2d20;
      }
    </style>
  </defs>
  <rect class="cls-2" x="0" width="250" height="250"/>
  <g>
    <path class="cls-1" d="m63.38,202.02c0,6.74,5.48,12.22,12.22,12.22s12.22-5.48,12.22-12.22-5.48-12.22-12.22-12.22-12.22,5.48-12.22,12.22Zm21.45,0c0,5.09-4.14,9.22-9.22,9.22s-9.22-4.14-9.22-9.22,4.14-9.22,9.22-9.22,9.22,4.14,9.22,9.22Z"/>
    <path class="cls-1" d="m248.73,146.75c-19.53,28.89-51.44,39.06-74.77,42.51-22.88,3.38-42.22,1.15-46.01.64-2.12-3.3-12.51-17.96-29.39-18.3,8.86-12.8,22.23-49.8,21.04-59.59-.5-4.07,2.83-7.98,6.04-11.76,4.21-4.95,8.97-10.57,4.7-16.98-3.7-5.56-8.47-6.96-11.82-7.17-4.94-.3-10.18,1.85-13.29,5.49-5.12,5.97-1.25,12.91,2.49,19.62l.4.72c3.43,6.17,3.5,16.81-3.64,26.82-.66-5.8-3.45-11.42-5.96-16.5-1.92-3.87-3.73-7.53-4.47-10.87-1.25-5.63-6.27-11.19-12.49-13.83-5.2-2.21-10.36-2.01-14.52.54-4.4,2.69-6.77,5.89-7.04,9.49-.27,3.52,1.53,7.11,5.07,10.12,2.75,2.33,6.28,2.51,9.69,2.68,3.67.18,7.46.37,10.57,3.17,5.71,5.15,10.89,19.29,6.18,35.24-3.39-13.85-16.91-26.79-25.44-34.96l-.15-.14c-6.02-5.76-14.9-7.83-21.11-4.92-4.77,2.23-7.26,7.04-6.83,13.2.87,12.66,8.8,13.75,18.84,15.13,2.84.39,6.06.83,9.37,1.56,9.62,2.3,14.94,12.89,14.53,21.79-.38,8.04-5.18,13.49-12.86,14.58-19.81,2.82-26.76,21.64-28.07,25.8-3.48,1.18-17.48,6.27-22.24,13.41-.33.5-.34,1.14-.01,1.64,6.93,10.78,37.97,13.63,41.68,13.94,1.97,1.03,13.1,6.44,28.44,6.44.63,0,1.26,0,1.91-.03,16.3-.48,32.77-16.93,36-20.33,9.71,1.33,93.82,12.12,124.44-6.47v-3.55c-16.04,11.18-52.23,12.16-81.53,10.78.68-.47,1.29-1.01,1.81-1.62,3.36-3.96,1.93-9.17,1.87-9.39-.23-.8-1.06-1.26-1.85-1.03-.8.23-1.26,1.05-1.04,1.85.01.04,1.06,3.88-1.27,6.64-1.75,2.06-5.1,3.05-9.75,2.97-18.72-1.26-32.65-3.19-33.03-3.25-.49-.07-.99.11-1.32.48-.18.19-17.9,19.45-34.42,19.94-16.7.49-28.98-6.13-29.11-6.2-.19-.1-.4-.17-.61-.18-8.93-.67-32.72-4.07-39.1-11.78,5.41-6.71,20.65-11.59,20.81-11.64.5-.16.88-.56,1-1.07.05-.21,5.61-21.49,25.82-24.37,9.21-1.31,14.98-7.82,15.43-17.41.47-10.12-5.69-22.18-16.85-24.85-3.46-.76-6.74-1.21-9.64-1.61-10.02-1.38-15.55-2.14-16.25-12.37-.34-4.93,1.48-8.58,5.11-10.28,5.13-2.4,12.6-.56,17.76,4.38l.15.14c9.46,9.06,25.31,24.22,25.31,39.08,0,.71.5,1.32,1.19,1.47.69.15,1.4-.21,1.68-.86,8.59-19.53,2.2-38.01-4.84-44.36-3.9-3.52-8.43-3.74-12.43-3.94-3.18-.16-5.93-.29-7.9-1.96-2.75-2.34-4.21-5.11-4.02-7.6.2-2.59,2.09-5,5.62-7.16,3.31-2.03,7.5-2.15,11.78-.33,5.29,2.24,9.7,7.06,10.74,11.72.82,3.69,2.71,7.51,4.71,11.55,3.11,6.27,6.32,12.75,5.73,19.22-.06.65.3,1.26.9,1.51.59.26,1.29.1,1.72-.38,10.64-11.97,10.87-25.74,6.57-33.47l-.4-.72c-3.54-6.35-6.59-11.83-2.83-16.21,2.07-2.41,6.23-4.72,10.83-4.45,2.67.16,6.49,1.3,9.51,5.83,2.82,4.22.18,7.87-4.49,13.37-3.63,4.27-7.38,8.69-6.73,14.06,1.2,9.85-14.24,51.22-22.33,59.81-.43.45-.53,1.12-.26,1.68.27.56.87.89,1.48.84,18.69-1.69,30.12,17.16,30.24,17.35.23.39.62.65,1.06.72.21.03,21.65,3.28,47.5-.53,23.48-3.46,55.44-13.6,75.68-42.08v-4.07c-.49,0-.97.22-1.27.66Z"/>
    <path class="cls-1" d="m157.65,84.74v-28.12c0-13.89-5.41-26.95-15.23-36.78L122.57,0h-4.24l21.97,21.97c9.26,9.26,14.36,21.57,14.36,34.66v28.12c0,28.66,23.32,51.99,51.99,52.01,14.56.01,29.12.11,43.35.29v-3c-14.24-.18-28.79-.28-43.35-.29-27.01-.02-48.99-22.01-48.99-49.01Z"/>
    <path class="cls-1" d="m250,67.75v-6.64c-3.93,8.44-8.82,15.59-14.86,19.53-.41-.13-.82-.26-1.26-.37-8.87-2.22-17.5,4.11-23.26,9.91.52-3.54.26-7.95-1.75-13.14-1.06-2.73-2.69-4.7-4.65-6.12,23.69-11.7,36.93-43.18,40.11-70.92h-3.07c-1.06,8.91-3.15,18.11-6.19,26.71-7.42,21.01-19.52,36.07-34.07,42.4-.02,0-.04.02-.06.04-6.04-2.38-13.61-1.35-18.13-.35,3.38-5.62,9.06-17.43,5.94-29.32-.74-2.83-1.92-5.26-3.37-7.37,19.4-4.44,27.89-19.14,31.57-32.1h-3.1c-3.59,11.98-11.58,25.2-29.23,29.2-.41.09-.74.35-.95.69-5.64-6.49-13.74-9.15-17.2-10.03.94-3.66,2.35-12.69-4.04-19.85h-4.37c9.76,7.87,5.34,19.82,5.12,20.41-.16.42-.13.89.09,1.28.22.39.6.66,1.04.74.18.03,17.74,3.32,21.54,17.8,3.85,14.67-7.54,29.97-7.66,30.12-.4.52-.41,1.24-.02,1.78.38.53,1.06.76,1.69.55.21-.07,21.42-6.92,26.22,5.45,3.38,8.72,1.2,14.84-.58,17.9-1.06,1.36-1.7,2.3-1.82,2.47-.43.64-.31,1.5.29,2,.59.49,1.47.45,2.01-.1.11-.11.95-.98,1.91-2.55,4.1-5.23,14.88-17.27,25.26-14.67,12.75,3.19,10.72,16.38,10.63,16.93-.13.75.33,1.48,1.06,1.69.14.04.28.06.42.06.59,0,1.14-.35,1.38-.92.03-.06,1.15-2.65,3.36-5.62v-4.74c-1.31,1.39-2.41,2.82-3.29,4.13-.56-4.18-2.48-9.59-8.29-12.71,4.48-3.41,8.31-8.4,11.58-14.25Z"/>
    <path class="cls-1" d="m198.84,200.54c-.82.11-1.39.87-1.28,1.69.1.75.75,1.3,1.48,1.3.07,0,.14,0,.21-.01,8.08-1.11,13.29-3.63,15.49-7.48,1.38-2.41,1.46-5.23.24-8.15-.32-.76-1.2-1.13-1.96-.81-.76.32-1.13,1.2-.81,1.96.86,2.06.83,3.92-.08,5.51-1.18,2.06-4.45,4.78-13.3,6Z"/>
  </g>
</svg>