<?xml version="1.0" encoding="UTF-8"?>
<svg id="Layer_1" data-name="Layer 1" xmlns="http://www.w3.org/2000/svg" viewBox="0 0 250 250">
  <defs>
    <style>
      .cls-1 {
        fill: #fff;
      }

      .cls-1, .cls-2 {
        stroke-width: 0px;
      }

      .cls-2 {
        fill: #ff2d20;
      }
    </style>
  </defs>
  <rect class="cls-2" width="250" height="250"/>
  <g>
    <path class="cls-1" d="m229.91,94.23c0-.83-.67-1.5-1.5-1.5h-27.44L167.13,6.37c-.22-.57-.78-.95-1.4-.95s-1.17.38-1.4.95l-33.84,86.37h-27.44c-.83,0-1.5.67-1.5,1.5s.67,1.5,1.5,1.5h21.8v25.46l-12.49,10.44c-1.26,1.05-2.1,2.52-2.37,4.14l-4.23,25.21c-.34,2,.22,4.04,1.53,5.59.51.61,1.12,1.11,1.8,1.5-4.26,11.72-.13,22.05,1.41,25.23-3.2,3.68-4.07,8.24-2.21,11.31-3.24,6.97-3.71,17.43-3.16,27.22-8.87,5.3-19.72,5.94-29.15,1.67-8.81-3.99-14.99-11.7-16.65-20.69,1.15-1.99,1.83-4.29,1.83-6.75v-21.32c0-6.42-4.51-11.8-10.53-13.16v-31.77c16.77-3.22,29.49-17.99,29.49-35.69,0-20.04-16.31-36.35-36.35-36.35S7.4,84.08,7.4,104.13v40.4c0,.83.67,1.5,1.5,1.5h23.97c.83,0,1.5-.67,1.5-1.5v-5.28c.83.22,1.67.41,2.51.57v31.77c-6.02,1.36-10.53,6.74-10.53,13.16v21.32c0,6.42,4.51,11.8,10.53,13.16v30.78h3v-30.44h7.72v30.44h3v-30.78c2.42-.54,4.59-1.74,6.32-3.39,2.44,8.88,8.9,16.37,17.79,20.4,4.55,2.06,9.4,3.08,14.24,3.08,5.65,0,11.28-1.4,16.38-4.16.45,5.63,1.17,10.86,1.82,14.84h3.06c-1.79-10.94-4.36-32.36.56-43.66.18.02.38.03.6.03,2.2,0,6.33-.95,14.65-4.02,7-2.59,13.8-5.54,13.87-5.57.42-.18.71-.54.83-.96,6.15-1.38,11.61-4.27,14.28-9.79.24-.5.19-1.08-.13-1.53-1.95-2.71-3.73-5.26-5.35-7.63,13.95.48,22.97-1.98,26.8-3.34.24,6.21,1.59,16.18,7.08,25.45.62,1.05,1.3,2.05,2,3.03-.53,5.34-10.95,13.04-21.03,20.5-11.34,8.39-23.08,17.07-24.63,24.94-.18.91-.33,1.74-.47,2.55h3.05c.11-.62.23-1.27.37-1.96,1.33-6.73,13.09-15.43,23.47-23.11,10.06-7.44,18.96-14.02,21.53-20.01,3.25,3.79,7.13,6.91,11.61,9.3,11.75,6.25,12.72,24.94,12.21,35.78h3.04c.56-11.52-.57-31.37-13.84-38.43-6.16-3.27-11.11-8.02-14.72-14.12-5.12-8.65-6.42-17.99-6.65-23.88,2.01-.19,8.36-1.52,13.55-10.69,3.85-6.79,1.48-15.2-3.15-18.78-3.73-2.89-8.33-2.53-12.51.9-5.9-5.77-5.33-13.28-4.78-20.56.41-5.38.79-10.46-1.89-13.95-3.22-4.18-11.97-4.22-21.23-4.27-8.46-.04-17.99-.09-21.48-3.66v-6.83h72.09s0,0,0,0,0,0,0,0h4.36c8.93,25.45,21.19,81.33,21.78,105.13.47,19.07-5.21,41.93-7.15,49.13h3.1c2.15-8.11,7.51-30.41,7.05-49.21-.58-23.73-12.63-78.96-21.6-105.06h20.93c.83,0,1.5-.67,1.5-1.5Zm-196.57,41.58c-.45-.15-.96-.07-1.35.21s-.62.73-.62,1.21v5.79h-5.95v-6.29c0-.83-.67-1.5-1.5-1.5s-1.5.67-1.5,1.5v6.29h-4.02v-6.29c0-.83-.67-1.5-1.5-1.5s-1.5.67-1.5,1.5v6.29h-5v-38.9c0-18.39,14.96-33.35,33.35-33.35s33.35,14.96,33.35,33.35-14.96,33.35-33.35,33.35c-3.54,0-7.04-.56-10.41-1.67Zm14.27,4.67v30.13h-7.72v-30.13h7.72Zm.03,76.09h-7.79c-5.79,0-10.5-4.71-10.5-10.5v-21.32c0-5.79,4.71-10.5,10.5-10.5h7.79c5.79,0,10.5,4.71,10.5,10.5v21.32c0,2.06-.6,3.97-1.63,5.59,0,.01-.02.03-.03.04-1.87,2.92-5.13,4.87-8.85,4.87Zm63.39-13.21c-1.43-1.89-.64-5.38,1.79-8.15,2.36.48,9.19,1.73,16.8,1.73.75,0,1.5-.02,2.26-.04-9.56,3.84-18.85,6.95-20.85,6.46Zm40.88-17.85c-7.17,12.43-34,7.65-38.6,6.73-1.2-2.44-5.37-12.29-1.34-23.25.19.02.38.03.58.03.8,0,1.57-.15,2.3-.42.83,10.4,4.55,14.14,4.72,14.29.29.28.66.42,1.03.42s.77-.15,1.07-.45c.58-.58.57-1.53,0-2.11-.03-.03-3.31-3.47-3.9-13.32-.01-.23-.08-.44-.19-.63.6-.64,1.09-1.38,1.41-2.23l1.37-3.63c.56-1.47,1.93-2.45,3.5-2.51l.95-.03c1.92,7.25,6.45,21.96,12.65,26.89.28.22.61.33.93.33.44,0,.88-.19,1.17-.57.52-.65.41-1.59-.24-2.11-3.87-3.08-8.1-12.23-11.44-24.65l6.27-.22c1.19,2.16,4.79,8.47,11.16,17.93,0,0,0,.01.01.02,1.94,2.88,4.12,6.05,6.59,9.49Zm-2.6-76.28c8.14.04,16.55.08,18.87,3.1,1.99,2.58,1.66,6.9,1.28,11.9-.58,7.61-1.29,17.09,6.79,23.95.59.5,1.46.47,2.01-.06,3.37-3.25,6.8-3.83,9.64-1.63,3.56,2.76,5.41,9.57,2.38,14.94-4.58,8.1-9.9,9.06-11.19,9.18-.12-.21-.29-.39-.5-.52-.44-.27-.99-.31-1.45-.08-.1.05-10.35,4.85-29.71,3.79-6.65-9.93-10.13-16.19-10.91-17.62v-10.09c0-.83-.67-1.5-1.5-1.5s-1.5.67-1.5,1.5v9.02l-7.63.26h-.03s-2.12.07-2.12.07c-2.78.1-5.22,1.84-6.2,4.45l-1.37,3.63c-.57,1.5-2.03,2.51-3.63,2.51-1.14,0-2.23-.5-2.96-1.38-.74-.87-1.06-2.02-.87-3.15l4.23-25.21c.15-.91.63-1.74,1.34-2.34l13.03-10.89c.34-.29.54-.71.54-1.15v-15.6c4.97,2.84,13.32,2.88,21.46,2.92Zm-15.59-16.49L165.73,11.03l32.01,81.71h-64.03Z"/>
    <path class="cls-1" d="m146.6,131.61c5.36,0,9.71-4.36,9.71-9.71s-4.36-9.71-9.71-9.71-9.71,4.36-9.71,9.71,4.36,9.71,9.71,9.71Zm0-16.42c3.7,0,6.71,3.01,6.71,6.71s-3.01,6.71-6.71,6.71-6.71-3.01-6.71-6.71,3.01-6.71,6.71-6.71Z"/>
    <path class="cls-1" d="m32.87,90.59c-5.36,0-9.71,4.36-9.71,9.71s4.36,9.71,9.71,9.71,9.71-4.36,9.71-9.71-4.36-9.71-9.71-9.71Zm0,16.42c-3.7,0-6.71-3.01-6.71-6.71s3.01-6.71,6.71-6.71,6.71,3.01,6.71,6.71-3.01,6.71-6.71,6.71Z"/>
  </g>
</svg>