<?xml version="1.0" standalone="no"?>
<!DOCTYPE svg PUBLIC "-//W3C//DTD SVG 20010904//EN"
 "http://www.w3.org/TR/2001/REC-SVG-20010904/DTD/svg10.dtd">
<svg version="1.0" xmlns="http://www.w3.org/2000/svg"
 width="832.000000pt" height="832.000000pt" viewBox="0 0 832.000000 832.000000"
 preserveAspectRatio="xMidYMid meet">
<metadata>
Created by potrace 1.14, written by Peter Selinger 2001-2017
</metadata>
<g transform="translate(0.000000,832.000000) scale(0.100000,-0.100000)"
fill="#000000" stroke="none">
<path d="M995 7866 c-607 -349 -795 -462 -812 -487 l-23 -32 0 -2679 0 -2678
33 -34 c19 -20 443 -270 1072 -631 572 -329 1257 -724 1523 -877 266 -153 497
-285 514 -294 63 -33 85 -23 558 249 2544 1464 2665 1534 2688 1567 l22 33 0
857 0 858 138 80 c75 43 394 227 707 407 314 180 591 341 617 357 84 52 78
-19 78 1001 l0 904 -22 33 c-13 18 -34 41 -48 51 -14 9 -370 216 -792 458
-689 397 -771 441 -810 441 -38 0 -129 -50 -837 -458 -694 -400 -796 -462
-812 -492 -18 -33 -19 -77 -19 -890 l-1 -855 -157 -89 c-86 -49 -370 -213
-631 -363 -260 -150 -475 -273 -477 -273 -2 0 -5 744 -6 1653 -3 1837 3 1687
-73 1738 -33 22 -740 430 -1404 811 -126 72 -162 88 -196 88 -36 0 -139 -56
-830 -454z m1515 -220 c311 -179 570 -328 575 -330 7 -2 7 -7 0 -14 -9 -8
-1240 -720 -1255 -725 -14 -5 -1270 727 -1263 734 5 5 290 171 633 368 l625
360 60 -34 c33 -18 314 -180 625 -359z m4376 -734 c786 -452 825 -475 822
-477 -5 -4 -378 -219 -820 -474 -241 -138 -443 -251 -449 -251 -18 0 -1269
723 -1263 729 4 4 1249 725 1260 730 1 1 204 -115 450 -257z m-5578 -344 l382
-220 0 -1717 c0 -1099 4 -1729 10 -1752 5 -19 22 -47 37 -61 16 -14 197 -121
403 -237 206 -117 536 -303 732 -414 l358 -202 0 -733 0 -734 -32 20 c-18 11
-247 142 -508 292 -261 151 -628 362 -815 469 -187 108 -591 340 -898 516
l-557 320 0 2482 0 2482 253 -146 c138 -80 424 -244 635 -365z m1920 -1099
l-3 -1601 -165 -95 c-91 -52 -361 -208 -600 -345 -239 -138 -450 -259 -467
-270 l-33 -20 0 1604 0 1605 208 119 c114 65 396 228 627 361 231 133 423 243
428 243 4 0 6 -720 5 -1601z m2438 375 c341 -196 625 -361 632 -366 9 -8 12
-166 12 -729 0 -396 -3 -719 -7 -719 -5 0 -291 164 -638 363 l-630 363 -3 722
c-1 416 2 722 7 722 5 0 287 -160 627 -356z m2174 -367 l0 -723 -267 -154
c-747 -430 -979 -563 -990 -567 -10 -4 -13 144 -13 718 l0 724 258 148 c141
81 424 244 627 361 204 118 373 215 378 215 4 1 7 -324 7 -722z m-1951 -1517
c203 -117 280 -166 270 -172 -115 -70 -2787 -1591 -2794 -1591 -6 0 -236 127
-510 282 -275 156 -557 315 -627 355 -70 39 -128 73 -128 76 0 3 136 84 303
180 166 95 523 301 792 456 270 155 764 439 1098 632 l609 350 351 -202 c194
-111 480 -276 636 -366z m419 -1122 l-3 -723 -695 -400 c-382 -220 -1003 -578
-1380 -794 -377 -217 -695 -401 -707 -409 l-23 -14 0 734 0 734 1393 796 c765
438 1398 796 1405 797 10 1 12 -146 10 -721z"/>
</g>
</svg>
