<svg height="429" viewBox="0 0 544 429" width="544" xmlns="http://www.w3.org/2000/svg">
    <style>
        :root { fill:#222 }
        .accent { fill: #f9322c; }

        @media (prefers-color-scheme: dark) {
        :root {  fill: #f9322c; }
        .accent { fill:#dee2e6; }
        }
    </style>

    <path
        d="m263.994 190.718c8.862-6.773 11.192-13.972 11.007-30.146-.184-16.173 4.789-37.473-5.495-39.819-10.285-2.346-16.367 13.859-11.281 20.528s14.832 13.129 12.373 25.229c-2.458 12.1-8.661 21.115-8.661 21.115z"
        class="accent"/>
    <path
        d="m285.984 159.745 14.358-21.646s.177-15.081 6.042-25.132 13.699-18.6885 24.441-28.6836c10.743-9.9951 18.135-24.7547 16.905-27.5266-1.229-2.7719-14.775-.6187-21.235 5.7448-6.46 6.3634-5.608 18.2305-11.385 27.6391-5.777 9.4085-13.298 16.1173-14.905 23.1153-1.606 6.998-16.021 39.265-14.864 42.479s.643 4.002.643 4.002z"
        class="accent"/>
    <path
        d="m346.397 180.369c15.828-5.383 41.073-1.286 50.361 6.653 9.288 7.938 20.617 15.081 31.592 16.929s16.72 13.233 15.587 15.796-17.796 1.743-23.975-3.945c-6.179-5.697-13.868-14.414-26.996-21.388-13.129-6.975-40.101-6.059-46.569-6.059s-15.386-1.325-11.385-4.306 11.385-3.68 11.385-3.68z"
        class="accent"/>
    <path
        d="m271.627 193.257c15.531-3.841 26.12-13.169 29.672-17.515 3.551-4.347 25.71-16.046 28.563-14.206 2.852 1.84-2.692 12.542-7.77 14.768s-9.617 4.387-8.846 6.155c.771 1.767 7.496-1.125 9.055-2.089 1.559-.965 31.174-27.688 42.945-30.837 11.771-3.15 16.953-4.492 16.953-4.492l30.13 4.235s20.038-1.318 27.334-4.235c7.295-2.916 18.359-5.801 13.691-9.481-4.668-3.679-5.424-3.438-5.424-3.438s24.361-4.484 24.851-15.154c-6.99-12.51-31.359-15.386-31.359-15.386s-18.752 7.874-31.118 8.702l-12.365.835s-28.37 12.285-33.191 16.535c-4.821 4.251-9.368 9.883-9.368 9.883s-10.919 7.705-21.292 11.393-28.403 14.912-34.766 20.657l-6.355 5.745s-31.183 20.351-21.332 17.925z"
        class="accent"/>
    <path
        d="m296.534 162.597 14.149-11.16 11.771-17.098 10.79-4.258 9.554 3.382 18.527-11.618 34.003-26.6826 18.046-8.3881-2.25-3.4549-24.923-2.6514-25.832 13.5865-1.317-1.7676-27.165 17.8211s-5.585 7.729-12.864 14.012-14.35 19.797-14.35 19.797l-8.131 18.464z"
        class="accent"/>
    <path
        d="m267.32 253.444c5.736-6.725 19.13-16.335 24.128-14.712 9.304-4.836 18.471-3.953 16.35 4.219 10.598-2.917 12.253 4.162 12.253 4.162s8.002-.691 8.018 3.655c.016 4.347.94 2.668.94 2.668s8.766-.522 10.614 2.33.563 6.018.563 6.018 7.825.136 9.055 2.788c1.229 2.651 1.406 4.154 1.406 4.154s5.029-.852 10.983-.844c8.87.016 12.486 4.965 12.486 4.965s21.87-10.541 29.511-9.77c7.641.772 0 11.795 0 11.795s17.981-3.848 21.999-1.382c4.025 2.459-6.026 8.806-6.026 8.806s30.282-3.583 34.854-1.607c4.572 1.977-4.202 12.181-4.202 12.181s12.566.667 16.664 5.744c4.097 5.078-8.975 8.308-8.975 8.308s12.719 8.26 13.434 14.72-16.053.409-21.645-2.668c-5.593-3.077-12.51-3.76-12.51-3.76s21.323 9.039 26.811 22.119c5.488 13.081 2.82 16.825.458 17.797s-26.715-15.716-35.384-21.846c-8.67-6.131-52.965-3.592-55.15-5.849-2.185-2.258-16.455-3.785-20.07-3.359 2.619-6.54-2.62-11.642-2.62-11.642l-6.219.37-2.008-6.637-5.616-3.953-5.311-.313-2.579-3.343-4.934-6.877s-5.825-2.58-9.963-2.347c-.683-7.311-3.985-13.538-14.679-12.927.233-7.231-10.517-10.566-10.517-10.566l-4.524-2.82-2.322-2.073 1.414-.868s-6.411-2.442-13.843-2.362c-.474-.731-.635-2.097-.635-2.097l-2.217-2.193z"
        class="accent"/>
    <path
        d="m163.617 54.7157c-4.845.8919.819 28.8202-1.029 38.3573-1.848 9.537-26.972 57.849-26.972 60.211 0 2.363.82 5.721.82 5.721l2.016 4.564-1.944 12.944s2.081-1.897 6.492 0c4.411 1.896 6.613 9.697 6.613 9.697s7.938-3.133 11.176-1.125c3.238 2.009 9.288 10.068 9.288 10.068s6.668-.233 8.926 5.206c8.412-3.286 12.1 1.157 13.643 4.58 8.308.755 9.746 13.233 9.746 13.233s16.816-9.175 16.318-15.298l-.506-6.122-2.049-7.665-2.723-.619c.915-3.535-6.854-6.845-8.276-6.387s.305-8.156-4.074-6.999 3.536-12.927 2.772-14.349c-.763-1.423 7.73-4.307 10.268-9.272 2.539-4.966 3.825-10.389-2.587-13.619 4.162-7.424-1.141-14.92-1.141-14.92s12.157-19.002 9.851-26.2334c-2.306-7.2312-9.232-4.0414-9.232-4.0414s3.15-17.6521-2.153-19.3474-6.396-1.1007-6.396-1.1007l-1.221-8.2034s-1.928-12.309-7.079-14.8479c-5.15-2.539-8.002 5.1501-8.613 10.7663-.61 5.6162-15.699 52.7389-15.699 52.7389l-1.455-3.189s3.335-31.8737 3.592-38.1728c.257-6.2992-3.053-17.5557-8.364-16.5835z"
        class="accent"/>
    <path
        d="m75.5901 295.04s9.8665 23.581 12.2528 24.738c2.3862 1.157 5.3832 6.235 8.1551 6.693s9.176 3.921 12.622 3.463c3.447-.458 12.309-4.789 14.222-4.949 1.912-.161 8.83-1.133 11.337-2.13 2.506-.996 47.661-3.92 56.973-9.842 9.312-5.921 17.708-11.473 15.507-17.965-2.202-6.492-5.126-6.299-5.126-6.299s4.314-10.654-7.4-11.442c-2.29-7.223-11.835-2.217-11.835-2.217s-5.375-7.818-13-.346c-1.615 4.017-.844 2.804-.844 2.804l.161 10.052s-6.468 7.946-21.244 13.409c-14.775 5.464-39.385 2.459-39.385 2.459l-4.885-7.553-11.988-3.792 1.864-2.499 27.189-14.542 13.571-9.079 2.097-4.54-3.921-6.46-5.231-.844h-3.921l-4.073 4.387-1.921 6.693-2.08 4.998-6.067 5.463-6.572 5.592-3.3584 1.88.5062-2.747 5.0292-7.215 4.845-5.649 3.503-6.765 1.808-5.126-.16-9.304-2.644-3.8-7.135-.145-3.679 2.836.152 5.464-.385 10.766-1.8484 10.389-4.8449 6.154-1.7676 3.865.2973-2.169 2.7317-15.724 1.2695-14.205-4.9574-5.456-6.9901-.321-5.1984 3.511-.5785 7.737 5.1422 4.387s6.4678 5.849 2.7478 18.231c-3.72 12.381-10.9512 17.186-10.9512 17.186z"
        class="accent"/>
    <g>
        <path
            d="m78.6508 310.386c-.0884 0-.1687-.009-.2571-.033-6.7169-1.47-24.2887-12.51-25.0359-12.976-.4097-.257-.6267-.739-.5463-1.221.0803-.482.4419-.868.924-.972.4178-.096 10.3164-2.29 19.958 0 .6508.153 1.0445.803.8918 1.454s-.8035 1.045-1.4543.892c-5.9617-1.422-12.1644-.988-15.7639-.514 5.2627 3.198 16.7281 9.931 21.5408 10.983.6508.145 1.0606.788.916 1.438-.1206.563-.6187.949-1.1731.949z"/>
        <path
            d="m88.333 321.561c-.5142 0-1.0364-.056-1.5587-.176-2.3461-.531-4.2021-2.17-4.8449-4.267-.5061-1.655-1.9765-4.362-3.8325-7.785-1.872-3.455-4.2021-7.746-6.4357-12.623-.1446-.313-.1446-.675 0-.988s.4017-.554.7311-.659c9.1033-2.94 16.3666-13.401 17.2664-24.891.3616-4.644-2.0488-6.227-5.7045-8.613-.8919-.579-1.8078-1.181-2.7479-1.872-2.8362-2.089-4.3708-5.648-3.9048-9.071.474-3.479 2.9246-6.299 6.7169-7.746 3.3424-1.269 6.9259-.731 9.6014 1.447 3.1978 2.611 4.5717 7.006 3.7602 12.06-.3214 1.976-.6186 4.338-.94 6.845-.9722 7.665-2.081 16.359-4.4592 21.059-.3054.594-1.0285.827-1.623.53-.5946-.305-.8276-1.028-.5303-1.623 2.1934-4.331 3.3183-13.169 4.2182-20.279.3213-2.523.6267-4.909.948-6.926.6749-4.186-.3856-7.762-2.9005-9.81-1.9925-1.623-4.6922-2.025-7.2231-1.061-2.9889 1.133-4.8288 3.206-5.1823 5.817-.3455 2.563.8034 5.231 2.9407 6.805.8838.651 1.7756 1.238 2.6433 1.8 3.7361 2.443 7.2633 4.757 6.7893 10.823-.9401 12.084-8.123 22.77-17.644 26.538 2.0327 4.315 4.1137 8.147 5.817 11.281 1.9203 3.543 3.4389 6.339 4.0173 8.227.3937 1.278 1.5748 2.282 3.0773 2.628 1.5105.345 3.013-.089 4.0012-1.165.45-.491 1.2133-.523 1.7034-.073s.5222 1.213.0723 1.704c-1.2293 1.333-2.9326 2.056-4.7485 2.056z"/>
        <path
            d="m89.0071 286.972c-.2973 0-.5945-.112-.8275-.329-.4821-.458-.4982-1.221-.0402-1.703 8.589-9.023 12.7346-16.937 12.3336-23.534-.153-2.539-.4745-4.732-.7557-6.669-.7231-4.949-1.2374-8.524 2.0087-11.77 2.089-2.089 4.789-2.965 7.416-2.411 2.876.611 5.238 2.788 6.476 5.986 2.33 6.01-1.615 16.335-6.765 22.851-.884 1.116-1.704 2.129-2.467 3.069-3.366 4.154-5.584 6.902-7.5847 11.538-.2651.61-.9722.891-1.5828.626s-.8918-.972-.6267-1.583c2.1292-4.941 4.5632-7.946 7.9302-12.1.755-.94 1.575-1.944 2.443-3.045 4.652-5.881 8.339-15.515 6.411-20.488-.94-2.427-2.659-4.066-4.724-4.5-1.84-.385-3.696.233-5.215 1.76-2.394 2.394-2.016 4.998-1.325 9.722.289 1.985.618 4.226.771 6.87.442 7.287-3.929 15.82-12.9921 25.341-.233.249-.5544.377-.8757.377z"/>
        <path
            d="m88.4052 294.404c-.3696 0-.7392-.169-.9722-.498-.3937-.538-.2732-1.294.2651-1.687 2.3381-1.704 8.0989-4.95 14.7759-8.71 11.505-6.476 28.892-16.27 30.636-19.749 1.109-2.217.739-4.845-.956-6.861-1.406-1.672-4.034-3.126-7.199-2.186-3.881 1.157-5.118 4.982-6.42 9.031-.659 2.049-1.342 4.162-2.402 5.889-4.018 6.525-10.534 11.787-19.9102 16.086-.6026.281-1.3176.016-1.5989-.595-.2812-.602-.008-1.317.5946-1.599 8.9345-4.097 15.0975-9.055 18.8655-15.153.908-1.47 1.518-3.358 2.161-5.359 1.374-4.258 2.925-9.087 8.027-10.598 3.583-1.068 7.311.065 9.73 2.949 2.322 2.764 2.804 6.404 1.261 9.489-1.912 3.832-14.872 11.345-31.608 20.769-6.6046 3.72-12.3092 6.934-14.5348 8.557-.2169.153-.466.233-.707.233z"/>
        <path
            d="m95.9335 319.44c-2.081 0-4.2021-.602-6.026-1.791-.5544-.362-.7151-1.109-.3535-1.671.3615-.555 1.1087-.716 1.6712-.354 3.0853 2.017 6.3955 1.551 8.2837.538 1.5671-.835 2.4751-2.097 2.4911-3.455 0-.61.466-1.116 1.068-1.181.233-.032 5.833-.731 5.552-5.102-.305-4.756-7.52-12.092-18.5679-13.217-.6588-.064-1.1409-.658-1.0766-1.317s.6588-1.133 1.3177-1.077c11.7068 1.189 20.3198 9.103 20.7288 15.459.306 4.772-3.84 6.877-6.733 7.496-.377 1.832-1.687 3.479-3.655 4.532-1.4385.771-3.0695 1.148-4.7166 1.148z"/>
        <path
            d="m98.6969 307.573s-.0482 0-.0804 0c-2.8041-.273-5.0055-1.743-6.9419-3.037-3.1255-2.089-5.6001-3.736-9.8745-.94-.3696.241-.8678.137-1.1088-.233-.2411-.369-.1366-.867.233-1.108 5.1662-3.375 8.4604-1.173 11.6502.956 1.8721 1.245 3.8004 2.539 6.2027 2.772.4419.04.7633.434.7231.875-.0401.418-.3937.724-.7954.724z"/>
        <path
            d="m89.7309 308.055c-2.5068 0-5.9697-.627-7.1588-6.026-.0964-.434.1768-.86.6106-.956.4259-.096.8597.177.9561.611.924 4.194 3.3424 4.764 5.5841 4.764.4419 0 .8035.362.8035.804s-.3616.803-.8035.803z"/>
        <path
            d="m94.286 329.588c-1.157 0-2.3461-.297-3.5031-.907-3.3745-1.776-5.3189-5.52-4.5154-8.702.1607-.643.8275-1.036 1.4623-.876.6427.161 1.0364.82.8757 1.463-.5945 2.338 1.2133 4.877 3.3023 5.977 1.0123.539 3.6236 1.503 5.8893-1.076.4419-.498 1.1972-.547 1.7034-.113.4981.442.5465 1.205.1125 1.704-1.4623 1.663-3.3424 2.522-5.319 2.522z"/>
        <path
            d="m99.7736 326.776c-1.4141 0-2.772-.313-3.9611-.948-.5865-.313-.8115-1.044-.4981-1.631.3133-.586 1.0445-.811 1.631-.498 2.0167 1.077 4.7726.844 7.1906-.611 2.861-1.719 4.5-4.62 4.5-7.962 0-.667.538-1.205 1.205-1.205s1.205.538 1.205 1.205c0 4.146-2.121 7.898-5.664 10.027-1.784 1.069-3.744 1.615-5.6004 1.615z"/>
        <path
            d="m104.812 334.634c-1.109 0-2.226-.104-3.319-.329-3.6715-.747-6.5318-2.716-7.8575-5.391-.2973-.595-.0482-1.318.5463-1.615.5946-.298 1.3177-.049 1.615.546.9882 2.009 3.246 3.495 6.1782 4.098 3.994.819 8.3-.137 10.976-2.435.506-.434 1.269-.378 1.703.129.434.506.378 1.269-.129 1.703-2.466 2.113-6.058 3.294-9.713 3.294z"/>
        <path
            d="m114.782 331.725c-2.025 0-4.266-.458-6.677-1.599-.602-.281-.859-1.004-.57-1.607.281-.602 1.004-.859 1.607-.57 7.311 3.455 12.646-.498 14.446-3.069.386-.547 1.133-.675 1.679-.298.547.378.675 1.133.298 1.68-1.599 2.281-5.448 5.463-10.775 5.463z"/>
        <path
            d="m126.778 326.182c-2.667 0-5.03-.731-7.054-1.567-.619-.249-.908-.956-.659-1.575.249-.618.956-.908 1.575-.659 4.218 1.736 8.99 2.676 15.241-2.129.531-.401 1.286-.305 1.688.225.401.531.305 1.286-.225 1.687-3.921 3.013-7.457 4.01-10.574 4.01z"/>
        <path
            d="m116.454 309.068c-2.266 0-4.524-.121-6.749-.378-.659-.072-1.133-.675-1.061-1.334.072-.658.691-1.14 1.334-1.06 21.396 2.45 45.492-7.633 54.86-22.963.346-.57 1.093-.747 1.655-.402.571.346.747 1.093.402 1.655-8.838 14.463-30.066 24.482-50.441 24.482z"/>
        <path
            d="m168.751 289.439c-.554 0-1.052-.385-1.173-.956-3.214-15 4.845-34.95 8.091-39.41-.072-.514-.137-1.068-.209-1.695-.892-7.56-2.531-21.637-27.398-20.183-18.062 1.053-30.218-2.233-35.159-9.513-3.608-5.319-3.351-12.494.771-21.332.281-.602.996-.867 1.599-.586.602.281.868.996.586 1.599-3.736 8.01-4.065 14.39-.964 18.961 4.443 6.541 15.861 9.465 33.022 8.461 27.133-1.583 29.022 14.551 29.929 22.304.097.819.177 1.518.282 2.113.064.362-.049.731-.29 1.004-2.587 2.885-10.975 23.453-7.906 37.763.137.651-.273 1.294-.924 1.43-.088.016-.168.024-.257.024z"/>
        <path
            d="m113.746 196.205c-.425 0-.835-.225-1.052-.619-.322-.578-.113-1.317.466-1.639 5.785-3.222 7.287-11.2 8.742-18.913.538-2.853 1.044-5.552 1.767-7.946 1.728-5.721 4.483-9.313 7.778-10.108 1.558-.378 3.945-.281 6.46 2.33 3.037 3.15 1.711 8.991.168 15.756-1.197 5.263-2.555 11.232-1.944 16.543.072.659-.402 1.262-1.061 1.334-.675.08-1.261-.402-1.333-1.061-.659-5.72.747-11.899 1.992-17.354 1.326-5.826 2.579-11.329.442-13.547-1.382-1.438-2.78-1.992-4.162-1.663-2.354.57-4.612 3.728-6.034 8.46-.683 2.266-1.181 4.902-1.703 7.698-1.487 7.882-3.166 16.808-9.939 20.576-.185.105-.386.153-.587.153z"/>
        <path
            d="m149.316 197.411c-.386 0-.772-.185-1.005-.538-1.703-2.555-.474-6.669.715-10.654.78-2.604 1.663-5.552 1.197-6.894-.514-1.478-2.201-3.35-4.676-3.961-1.759-.434-4.499-.346-7.568 2.523-.482.45-1.246.426-1.704-.056-.458-.491-.425-1.246.057-1.704 3.005-2.812 6.484-3.913 9.786-3.101 2.916.715 5.479 2.932 6.379 5.504.723 2.072-.193 5.134-1.157 8.38-.98 3.286-2.097 7.014-1.02 8.629.369.554.217 1.301-.338 1.671-.208.137-.433.201-.666.201z"/>
        <path
            d="m165.57 202.946c-.297 0-.587-.104-.82-.321-.337-.314-1.35-1.254-.442-9.738.29-2.668-.45-4.7-2.129-5.857-2.049-1.423-5.383-1.39-8.283.08-.595.297-1.318.064-1.623-.53-.298-.595-.065-1.318.53-1.623 3.728-1.88 7.938-1.848 10.742.088 2.419 1.671 3.535 4.548 3.158 8.099-.651 6.082-.217 7.689-.129 7.93.305.45.265 1.069-.12 1.487-.241.257-.563.385-.884.385z"/>
        <path
            d="m177.372 209.269c-.506 0-.98-.321-1.149-.835-.394-1.181.233-2.483.964-3.985.763-1.575 1.623-3.367 1.454-5.127-.112-1.132-.691-2.048-1.671-2.635-1.583-.94-3.977-.892-6.403.137-.611.257-1.318-.024-1.583-.643-.257-.611.024-1.318.642-1.583 3.174-1.342 6.3-1.342 8.581.008 1.648.98 2.66 2.571 2.845 4.475.233 2.427-.828 4.636-1.68 6.404-.353.739-.899 1.864-.843 2.193.209.635-.137 1.31-.763 1.519-.129.04-.25.064-.378.064z"/>
        <path
            d="m198.608 223.41c-.065 0-.121 0-.185-.016-.659-.096-1.109-.715-1.012-1.374.554-3.623 1.124-8.581-.274-9.802-.988-.86-3.527-.362-7.046.667-.426.128-.9 0-1.205-.322-.314-.321-.418-.795-.273-1.221 1.004-2.997.112-5.062-.812-6.275-1.478-1.928-4.122-3.021-6.886-2.852-.69.04-1.237-.466-1.277-1.133s.466-1.237 1.133-1.278c3.559-.216 6.982 1.238 8.942 3.793 1.406 1.832 1.977 4.065 1.672 6.428 3.495-.884 5.785-.989 7.343.377 1.856 1.631 2.145 4.869 1.069 11.972-.089.594-.603 1.02-1.189 1.02z"/>
        <path
            d="m135.054 211.013c-.096 0-.193-.008-.289-.032-.643-.16-1.036-.811-.876-1.462 1.471-5.922-1.301-10.533-4.499-12.317-2.306-1.286-4.612-1.093-6.171.506-.466.474-1.229.482-1.703.024-.474-.466-.482-1.229-.024-1.703 2.338-2.395 5.809-2.748 9.071-.932 3.969 2.217 7.44 7.858 5.664 15-.136.547-.626.916-1.173.916z"/>
        <path
            d="m151.557 214.259c-.104 0-.217-.016-.329-.048-.643-.177-1.013-.844-.836-1.487.796-2.844-.972-7.166-3.72-9.063-2.201-1.518-4.684-1.349-7.183.482-.538.394-1.293.282-1.687-.257-.394-.538-.281-1.293.257-1.687 4.532-3.326 8.195-1.759 9.979-.522 3.608 2.491 5.745 7.85 4.668 11.69-.152.531-.635.884-1.157.884z"/>
        <path
            d="m168.519 214.741c-.491 0-.957-.305-1.133-.787-.948-2.587-2.7-4.556-4.805-5.399-1.985-.796-4.202-.595-6.588.586-.595.298-1.318.048-1.615-.546-.298-.595-.049-1.318.546-1.615 2.989-1.478 5.946-1.703 8.557-.667 2.74 1.093 4.989 3.576 6.17 6.805.233.627-.088 1.318-.715 1.543-.136.048-.273.072-.417.072z"/>
        <path
            d="m181.936 230.151c-.121 0-.241-.016-.362-.056-.634-.201-.988-.876-.787-1.51 1.044-3.343.394-6.966-1.655-9.216-1.109-1.221-3.085-2.539-6.219-1.88-.651.136-1.294-.281-1.43-.932-.137-.651.281-1.294.932-1.43 3.318-.691 6.331.233 8.501 2.619 2.611 2.876 3.462 7.416 2.169 11.562-.161.514-.635.843-1.149.843z"/>
        <path
            d="m190.043 243.955c-.064 0-.128 0-.201-.024-.434-.104-.691-.546-.586-.972.016-.048 1.221-4.982-.587-7.689-.626-.94-1.526-1.487-2.764-1.671-.442-.065-.739-.474-.675-.916.065-.442.474-.74.916-.675 1.688.257 2.989 1.052 3.865 2.37 2.202 3.302.86 8.742.803 8.975-.088.361-.417.602-.779.602z"/>
        <path
            d="m132.338 159.23c-.12 0-.241-.016-.361-.056-.635-.201-.989-.876-.788-1.51 2.451-7.77 7.183-16.07 12.189-24.859 6.781-11.9 13.795-24.201 14.88-35.2483 1.277-13.1045.136-26.1929-.547-34.0186-.385-4.4592-.538-6.2992-.289-7.1348.153-.5302.788-1.7274 3.327-1.5024 4.194.3776 11.232 4.5717 12.268 14.2293 1.326 12.293-3.414 43.0738-3.615 44.3748-.105.659-.715 1.109-1.374 1.005-.659-.105-1.109-.715-1.004-1.374.048-.314 4.893-31.7691 3.607-43.7487-.739-6.8776-4.668-9.8906-6.934-11.0797-1.888-.9883-3.423-1.1088-3.977-.9963-.04.8757.177 3.3745.402 6.0099.691 7.906 1.84 21.139.538 34.4604-1.133 11.5614-8.276 24.0874-15.185 36.2044-4.95 8.677-9.618 16.864-11.988 24.385-.161.514-.635.843-1.149.843z"/>
        <path
            d="m151.557 165.087c-.048 0-.088 0-.136 0-.659-.072-1.141-.667-1.069-1.333 1.004-9.08 10.156-30.958 20.745-42.568 9.385-10.3 18.874-23.469 26.033-36.1396 4.981-8.8059 2.892-28.1211-1.206-33.1267-.932-1.1409-1.51-.9481-1.703-.8838-2.909.9481-5.946 13.0723-8.629 23.7744-2.346 9.3604-5.006 19.9741-8.348 27.3417-3.511 7.746-7.119 12.309-11.297 17.588-4.893 6.187-10.983 13.876-19.066 29.656-.305.594-1.028.827-1.623.522s-.828-1.028-.522-1.623c8.187-15.989 14.358-23.783 19.315-30.05 4.25-5.367 7.601-9.609 10.991-17.089 3.246-7.167 5.882-17.6683 8.204-26.9322 3.744-14.9524 6.243-24.1762 10.22-25.4778.876-.2812 2.595-.4499 4.314 1.6471 4.958 6.0501 6.613 26.691 1.439 35.8425-7.248 12.8152-16.849 26.1444-26.354 36.5734-10.116 11.096-19.187 32.653-20.127 41.21-.064.618-.586 1.068-1.197 1.068z"/>
        <path
            d="m165.569 158.82c-.161 0-.321-.032-.482-.096-.611-.265-.892-.972-.627-1.575.129-.289 3.302-7.408 22.602-28.386 18.27-19.862 22.738-35.7864 24.851-50.0399.964-6.508-.458-10.0915-2.194-10.6619-1.502-.4982-4.387 1.0606-7.592 7.0785-.314.5865-1.045.8115-1.632.4981-.586-.3133-.811-1.0445-.498-1.631 3.367-6.3152 7.175-9.3201 10.477-8.2355 3.407 1.1249 4.869 6.2188 3.817 13.3054-2.169 14.639-6.757 30.9813-25.462 51.3173-18.873 20.512-22.135 27.647-22.167 27.711-.201.45-.643.723-1.109.723z"/>
        <path
            d="m171.997 157.864c-.37 0-.739-.169-.972-.498-.394-.539-.273-1.294.265-1.688.136-.096 13.675-9.987 28.145-23.035 14.76-13.305 22.465-31.086 22.352-38.8151-.048-3.238-.924-5.4957-2.297-5.9055-1.559-.466-4.733 1.2373-8.935 7.432-.37.5544-1.125.691-1.671.3214-.554-.3776-.691-1.1248-.322-1.6712 5.528-8.1471 9.369-9.055 11.619-8.3881 2.49.7472 3.953 3.728 4.017 8.1873.136 9.3842-8.678 27.5912-23.148 40.6392-14.567 13.128-28.201 23.091-28.338 23.188-.217.152-.466.233-.707.233z"/>
        <path
            d="m161.472 185.977c-.249 0-.498-.08-.715-.241-.538-.394-.643-1.149-.249-1.687 6.805-9.176 25.084-27.326 37.12-33.754 7.223-3.864 12.325-10.18 12.687-15.716.2-3.021-1.053-5.592-3.624-7.44-.538-.385-.667-1.14-.273-1.679.385-.538 1.141-.667 1.679-.273 3.278 2.354 4.877 5.656 4.62 9.553-.426 6.436-5.897 13.378-13.956 17.684-11.747 6.275-29.632 24.064-36.317 33.063-.233.321-.602.49-.972.49z"/>
        <path
            d="m176.938 185.977c-.161 0-.321-.032-.482-.096-.611-.265-.892-.972-.627-1.583 3.52-8.123 18.199-19.958 27.495-25.767 5.688-3.559 9.32-8.332 8.83-11.61-.241-1.631-1.551-2.772-3.889-3.398-.643-.169-1.028-.828-.852-1.479.169-.643.836-1.02 1.471-.851 3.254.867 5.262 2.771 5.648 5.367.651 4.33-3.246 9.834-9.939 14.012-10.461 6.54-23.589 17.837-26.554 24.682-.201.458-.643.723-1.109.723z"/>
        <path
            d="m186.5 194.462c-.121 0-.249-.016-.37-.056-.634-.201-.98-.884-.779-1.518.145-.458 3.688-11.265 9.127-15.065 1.535-1.069 6.549-4.893 6.701-9.128.065-1.848-.819-3.503-2.723-5.045-.515-.418-.595-1.182-.177-1.696s1.181-.594 1.695-.176c2.491 2.024 3.704 4.386 3.608 7.006-.193 5.206-5.472 9.432-7.73 11.015-4.772 3.335-8.179 13.723-8.211 13.828-.169.506-.635.835-1.149.835z"/>
        <path
            d="m201.243 189.039c-.305 0-.611-.112-.844-.345-.474-.467-.482-1.23-.016-1.704 2.475-2.531 5.046-10.26 3.656-12.429-.129-.201-.53-.82-2.394-.161-.627.225-1.318-.105-1.543-.731-.225-.627.104-1.318.731-1.543 3.19-1.133 4.644.225 5.231 1.133 2.362 3.688-1.214 12.598-3.961 15.41-.233.241-.547.362-.86.362z"/>
        <path
            d="m199.901 197.073c-.458 0-.9-.265-1.101-.707-.273-.602 0-1.317.603-1.598.08-.041 8.107-3.68 11.626-6.203 1.061-.755 1.519-1.744 1.205-2.579-.474-1.262-2.82-2.563-7.906-2.073-.651.056-1.253-.418-1.317-1.085-.065-.659.417-1.253 1.084-1.318 5.456-.53 9.345.828 10.397 3.632.707 1.872-.104 3.985-2.065 5.383-3.712 2.66-11.69 6.283-12.028 6.436-.16.072-.329.104-.498.104z"/>
        <path
            d="m202.392 216.124c-.128 0-.265-.025-.393-.065-.627-.217-.965-.9-.748-1.534 1.214-3.544 5.183-7.786 11.803-12.591 2.716-1.976 5.126-6.363 4.283-9.272-.49-1.687-2.081-2.627-4.725-2.796-.667-.04-1.165-.618-1.125-1.277.041-.659.627-1.173 1.278-1.125 4.941.313 6.436 2.973 6.886 4.532 1.165 4.009-1.744 9.392-5.183 11.891-6.114 4.451-9.898 8.396-10.935 11.425-.169.498-.643.812-1.141.812z"/>
        <path
            d="m215.208 217.12c-.289 0-.571-.105-.804-.306-.498-.442-.538-1.205-.088-1.703 3.953-4.395 4.909-8.436 4.106-10.493-.458-1.165-1.511-1.832-3.126-1.977-.667-.064-1.149-.651-1.093-1.309.065-.667.659-1.149 1.31-1.093 2.531.233 4.355 1.478 5.15 3.503 1.334 3.399-.418 8.372-4.555 12.984-.241.265-.571.402-.9.402z"/>
        <path
            d="m217.73 223.33c-.434 0-.788-.345-.804-.779-.08-2.483-1.133-4.395-2.74-4.99-2.201-.811-5.286.78-8.685 4.492-.297.329-.803.345-1.133.048-.329-.298-.345-.812-.048-1.133 4.965-5.415 8.412-5.665 10.429-4.917 2.233.827 3.68 3.294 3.784 6.443.016.442-.329.812-.779.828-.008 0-.016 0-.024 0z"/>
        <path
            d="m234.755 222.174c-.217 0-.433-.057-.634-.177-.571-.346-.748-1.093-.394-1.655.024-.04 2.692-4.468 2.443-9.602-.081-1.711-1.005-3.093-2.58-3.88-2.41-1.198-6.942-1.149-12.461 2.603-.547.377-1.302.233-1.671-.322-.378-.554-.233-1.301.321-1.671 5.415-3.68 10.983-4.724 14.896-2.772 2.362 1.181 3.792 3.335 3.913 5.922.289 5.905-2.668 10.774-2.796 10.983-.225.37-.627.571-1.029.571z"/>
        <path
            d="m234.434 207.157c-.417 0-.827-.217-1.044-.611-.33-.579-.129-1.318.45-1.647.715-.41 1.438-.812 2.153-1.213 7.737-4.347 15.041-8.445 18.512-16.335 2.217-5.029 3.334-10.879 4.154-15.145.771-4.025 1.213-6.179 2.081-7.183.875-1.02 1.912-.996 2.587-.635 1.968 1.053 2.45 5.592 1.109 10.325-1.615 5.688-.796 10.686-.788 10.742.113.659-.329 1.278-.988 1.39-.643.113-1.278-.329-1.39-.98-.04-.225-.932-5.568.844-11.803.996-3.519.675-6.155.273-7.167-.442.964-.932 3.503-1.366 5.769-.844 4.379-1.993 10.381-4.315 15.659-3.792 8.63-11.795 13.121-19.54 17.468-.715.401-1.43.803-2.145 1.205-.185.104-.394.161-.595.161z"/>
        <path
            d="m258.225 191.481c-.337 0-.667-.137-.9-.402-.442-.498-.394-1.261.105-1.703 7.914-7.014 12.831-19.066 12.236-30.001-.401-7.448-3.929-11.819-7.038-15.668-1.607-1.984-3.126-3.864-4.13-6.002-1.824-3.88-1.382-8.782 1.093-12.204 2.458-3.391 6.54-4.917 11.481-4.307 2.515.314 4.411 1.35 5.633 3.077 2.836 4.018 1.341 10.686.144 16.046-.45 2-.835 3.728-.884 4.877-.618 13.907 1.125 21.902 1.149 21.982.145.651-.265 1.294-.916 1.438-.642.145-1.293-.265-1.438-.907-.072-.338-1.832-8.356-1.205-22.618.056-1.358.466-3.182.94-5.295 1.037-4.636 2.459-10.983.241-14.133-.827-1.173-2.121-1.848-3.953-2.073-5.182-.642-7.874 1.455-9.232 3.327-1.952 2.691-2.306 6.709-.867 9.77.883 1.872 2.314 3.648 3.824 5.52 3.342 4.138 7.127 8.822 7.577 17.049.634 11.626-4.612 24.458-13.041 31.938-.233.201-.514.305-.795.305z"/>
        <path
            d="m274.117 173.331c-.176 0-.361-.04-.53-.128-.594-.298-.844-1.021-.546-1.615 6.749-13.683 13.618-35.393 12.702-44.673-.417-4.21-2.129-6.797-3.945-9.529-2.257-3.407-4.587-6.926-3.816-13.305.98-8.1313 6.428-16.4311 9.529-16.1338 3.142.2973 14.551 15.4588 13.908 25.3818-.297 4.628-3.632 13.12-7.167 22.111-3.905 9.947-8.332 21.219-7.826 25.895.073.659-.401 1.254-1.068 1.326-.643.072-1.254-.402-1.326-1.068-.57-5.263 3.776-16.335 7.978-27.037 3.311-8.42 6.725-17.13 7.007-21.38.578-8.902-9.61-21.565-11.755-22.7943-1.446.5544-5.994 6.6286-6.886 13.9883-.667 5.496 1.238 8.364 3.431 11.682 1.808 2.732 3.857 5.825 4.339 10.63 1.06 10.718-6.83 33.585-12.936 45.974-.209.426-.635.675-1.085.675z"/>
        <path
            d="m300.237 110.677c-.297 0-.586-.105-.819-.321-.49-.45-.515-1.214-.065-1.704l1.752-1.872c8.219-8.7898 15.973-17.0895 17.427-24.2725.233-1.1489.434-2.2979.643-3.4307 1.245-6.9982 2.426-13.6107 9.32-17.6842 8.79-5.1904 14.84-3.1576 15.965-2.6997.691.2812 1.133.9481 1.317 1.9765.627 3.5353-1.759 13.7312-4.844 16.5433-.491.45-1.254.4178-1.704-.0723s-.418-1.2534.081-1.7033c2.579-2.3622 4.812-12.6947 4.049-14.5909-1.31-.474-6.259-1.7435-13.635 2.6113-5.937 3.5031-6.974 9.304-8.171 16.029-.209 1.149-.41 2.314-.651 3.487-1.591 7.8499-9.577 16.3907-18.029 25.4375l-1.744 1.872c-.241.257-.562.386-.884.386z"/>
        <path
            d="m276.375 181.574c-.112 0-.233-.016-.345-.048-.635-.193-1.005-.86-.812-1.502 3.102-10.373 13.611-26.45 20.561-37.096 2.394-3.664 4.29-6.564 5.086-8.035 1.366-2.531 1.454-6.516 1.55-10.734.105-4.628.217-9.417 2.041-13.072 3.648-7.304 15.161-14.1012 24.642-17.0418.603-.1848 1.792-.2491 2.981 1.4462 2.435 3.4629 4.234 13.5786-1.028 20.5686-2.909 3.865-5.793 6.195-8.846 8.653-3.367 2.716-6.838 5.52-10.646 10.743-7.159 9.802-15.772 28.731-15.853 28.916-.273.603-.988.876-1.598.603-.603-.273-.876-.988-.603-1.599.353-.787 8.806-19.339 16.101-29.343 3.994-5.471 7.601-8.38 11.08-11.192 2.933-2.362 5.697-4.604 8.428-8.227 3.399-4.516 3.327-10.775 2.242-14.7598-.594-2.1694-1.358-3.2219-1.687-3.4549-10.437 3.2701-20.119 9.8907-23.068 15.7797-1.582 3.166-1.687 7.681-1.783 12.044-.105 4.516-.201 8.782-1.84 11.819-.844 1.559-2.756 4.491-5.191 8.203-6.459 9.883-17.274 26.426-20.271 36.462-.153.522-.635.859-1.157.859z"/>
        <path
            d="m288.563 169c-.409 0-.803-.209-1.028-.579-.346-.57-.161-1.309.402-1.655 8.862-5.375 19.813-13.361 23.999-19.677.892-1.341 1.719-2.715 2.523-4.041 3.254-5.375 6.331-10.445 12.735-13.113 5.005-2.089 10.943-1.108 17.66 2.893.169.104.305.185.402.233.265.145.867.603.755 1.687-.314 2.957-7.28 13.643-12.864 15.338-5.696 1.736-24.722 10.654-29.551 15.571-.466.474-1.229.482-1.703.016s-.482-1.229-.016-1.703c5.262-5.359 24.843-14.438 30.571-16.19 4.468-1.357 10.397-10.453 11.096-12.927-5.994-3.56-11.184-4.468-15.426-2.692-5.673 2.362-8.421 6.894-11.602 12.14-.812 1.342-1.655 2.732-2.571 4.122-4.403 6.645-15.676 14.904-24.755 20.408-.193.121-.41.177-.627.177z"/>
        <path
            d="m280.89 190.445c-.442 0-.876-.249-1.085-.675-.297-.595-.048-1.318.555-1.615 15.876-7.802 19.765-12.213 24.288-18.536 5.255-7.352 16.391-10.943 24.329-11.787 2.78-.297 3.664 1.157 3.945 2.057 1.35 4.307-6.251 14.543-9.874 16.543-1.575.868-3.849 1.407-6.742 2.098-5.021 1.197-11.907 2.836-18.487 7.247-.555.369-1.302.225-1.671-.33-.37-.554-.225-1.301.329-1.671 6.942-4.644 14.069-6.347 19.267-7.585 2.603-.618 4.853-1.157 6.13-1.864 3.23-1.783 9.562-11.103 8.742-13.707-.04-.128-.169-.514-1.39-.377-8.034.851-18.142 4.515-22.617 10.79-5.375 7.521-10.06 11.867-25.189 19.299-.169.081-.353.121-.53.121z"/>
        <path
            d="m317.881 101.517c-.209 0-.425-.056-.618-.169-.571-.337-.764-1.076-.418-1.6547 7.665-12.8635 23.943-29.3505 44.608-33.4723 14.221-2.8442 27.061.8196 27.599.9722.635.1848 1.004.8517.82 1.4945-.185.6347-.852 1.0043-1.495.8195-.128-.0402-12.831-3.6477-26.45-.924-19.886 3.9772-35.601 19.9098-43.017 32.3478-.225.377-.627.586-1.037.586z"/>
        <path
            d="m412.336 85.4963c-.514 0-.996-.3375-1.157-.8597-.192-.6348.169-1.3097.804-1.5025 4.033-1.2132 7.882-2.9728 8.605-3.9048-10.606-11.9877-20.279-15.0087-31.367-9.7942-.603.2812-1.318.0241-1.607-.5785-.281-.6026-.024-1.3177.578-1.607 12.101-5.6885 23.012-2.3461 34.34 10.5415.498.5624.659 1.2534.458 1.9524-.731 2.563-7.456 4.8368-10.316 5.6965-.113.0322-.233.0482-.346.0482z"/>
        <path
            d="m331.878 97.9424c-.29 0-.579-.1045-.804-.3134-.498-.4419-.538-1.2052-.088-1.7033 18.552-20.6008 45.235-20.2231 56.748-17.1539.643.1687 1.029.8356.852 1.4784-.169.6427-.836 1.0284-1.478.8516-12.816-3.4227-37.851-1.872-54.338 16.4389-.242.2651-.563.4017-.9.4017z"/>
        <path
            d="m333.243 110.677c-.297 0-.594-.113-.827-.33-.482-.458-.498-1.221-.04-1.703 16.784-17.6761 30.909-18.2305 31.503-18.2465.643-.0483 1.222.5061 1.238 1.173s-.506 1.2213-1.173 1.2373c-.137 0-13.788.6107-29.817 17.4912-.233.249-.554.378-.876.378z"/>
        <path
            d="m339.302 121.957c-.169 0-.338-.032-.506-.112-.603-.282-.868-.997-.587-1.599 11.032-23.8712 35.786-39.7074 52.394-40.6957 7.585-.4499 12.614 1.141 17.049 2.547 2.893.916 5.633 1.7837 8.854 2.0569.667.0562 1.157.6427 1.101 1.3016-.056.6669-.651 1.1489-1.301 1.1007-3.495-.2972-6.356-1.2052-9.385-2.1613-4.443-1.406-9.039-2.8683-16.174-2.4425-15.916.94-39.691 16.238-50.352 39.2973-.201.442-.643.699-1.093.699z"/>
        <path
            d="m340.476 132.346c-.193 0-.386-.048-.563-.136-.586-.314-.811-1.045-.498-1.632 10.075-19.026 27.157-32.9897 37.208-35.0144.659-.1366 1.286.2892 1.422.9401.129.6508-.289 1.2855-.94 1.4221-9.553 1.9283-26.12 15.9652-35.561 33.7772-.217.41-.635.643-1.068.643z"/>
        <path
            d="m355.556 137.673c-.265 0-.538-.088-.763-.273-.514-.426-.586-1.181-.169-1.695.603-.731 14.961-17.973 39.242-24.859 5.921-1.679 10.782-1.711 15.924-1.752 4.668-.032 9.497-.072 15.877-1.237 11.642-2.129 20.552-11.4895 21.042-14.7194.056-.3937-.032-.4419-.072-.466-.442-.233-.956-.5223-1.543-.8597-4.33-2.4747-12.397-7.0946-25.895-5.0779-15.483 2.314-31.038 14.334-38.928 21.292l-.113.096c-8.187 7.215-19.403 17.106-36.822 25.984-.595.305-1.318.064-1.623-.53-.306-.595-.064-1.318.522-1.623 17.146-8.742 27.776-18.11 36.325-25.647l.112-.096c9.883-8.7176 24.875-19.5804 40.165-21.8623 14.326-2.1372 22.859 2.7398 27.446 5.3672.547.3133 1.037.5945 1.455.8114 1.052.5464 1.542 1.6311 1.341 2.9648-.771 5.0859-11.369 14.5989-22.987 16.7279-6.58 1.205-11.738 1.246-16.286 1.278-5.198.04-9.682.072-15.29 1.663-23.557 6.685-37.899 23.895-38.036 24.072-.241.289-.586.441-.932.441z"/>
        <path
            d="m347.883 151.847c-.361 0-.723-.161-.956-.474-.402-.531-.305-1.286.225-1.688 18.014-13.811 40.953-20.809 68.174-20.809 8.091 0 13.032 1.366 17.001 2.458 4.066 1.125 7.006 1.929 11.506.804 6.572-1.647 11.754-4.66 12.598-7.328.257-.803.072-1.526-.57-2.266-6.966-7.231-18.335-8.396-24.265-7.407-3.294.546-7.753 1.968-12.92 3.615-5.391 1.72-11.505 3.664-18.415 5.351-2.169.53-4.684 1.029-7.344 1.559-14.414 2.868-36.196 7.199-55.294 25.847-.474.466-1.237.458-1.703-.024-.466-.474-.458-1.237.024-1.703 19.612-19.147 41.812-23.566 56.507-26.49 2.636-.523 5.134-1.021 7.248-1.535 6.829-1.663 12.895-3.599 18.246-5.303 5.255-1.671 9.786-3.117 13.257-3.696 6.428-1.068 18.785.217 26.434 8.163 1.238 1.423 1.607 3.005 1.093 4.62-1.35 4.291-8.276 7.432-14.31 8.943-5.118 1.277-8.476.353-12.735-.82-3.832-1.052-8.597-2.37-16.358-2.37-26.675 0-49.124 6.838-66.712 20.312-.216.168-.474.249-.731.249z"/>
        <path
            d="m457.74 126.473c-.49 0-.956-.305-1.133-.796-.225-.626.097-1.317.715-1.542 6.605-2.411 13.932-6.179 14.246-8.059.008-.048.024-.145-.225-.353l-.097-.081c-4.531-3.696-13.956-11.401-29.318-11.658-.667-.008-1.197-.562-1.181-1.229.008-.667.522-1.197 1.229-1.181 16.198.273 26.434 8.637 30.805 12.204l.096.081c.86.707 1.246 1.631 1.077 2.619-.691 4.106-12.269 8.629-15.796 9.923-.137.048-.273.072-.41.072z"/>
        <path
            d="m310.683 188.227c-.434 0-.844-.233-1.069-.635-.313-.586-.088-1.317.498-1.631 17.548-9.352 29.817-18.945 39.667-26.659 7.818-6.114 13.997-10.951 20.022-13.474 8.622-3.607 21.429-1.55 32.734.257 6.564 1.053 12.767 2.049 16.816 1.647 5.994-.594 9.151-2.257 12.205-3.872 2.458-1.302 4.788-2.531 8.251-2.997 8.951-1.197 16.985 2.836 18.504 3.656.683.369 1.792 1.366 1.583 3.929-.37 4.732-5.319 13.281-14.744 16.599-9.256 3.254-15.933.354-22.392-2.45-1.969-.86-4.01-1.744-6.107-2.451-.425-.145-42.551-13.964-62.34 9.858-.426.515-1.189.587-1.696.161-.514-.426-.586-1.189-.16-1.695 7.986-9.61 20.151-14.623 36.156-14.888 14.904-.233 27.43 3.816 28.812 4.274 2.193.739 4.282 1.647 6.299 2.523 6.315 2.74 12.269 5.327 20.633 2.394 8.717-3.069 12.863-10.967 13.144-14.51.073-.948-.12-1.503-.329-1.623-3.881-2.097-10.67-4.242-17.042-3.383-3.037.41-5.077 1.487-7.44 2.74-3.109 1.639-6.628 3.503-13.096 4.138-4.371.434-10.71-.587-17.435-1.671-10.983-1.768-23.437-3.761-31.423-.418-5.729 2.402-11.795 7.143-19.468 13.153-9.931 7.769-22.288 17.435-40.021 26.891-.177.097-.377.145-.562.145z"/>
        <path
            d="m451.465 200.68c-6.42 0-14.053-.819-18.19-3.43-3.118-1.969-4.741-4.05-6.46-6.251-2.523-3.238-5.391-6.91-14.358-11.104-6.918-3.23-32.355-12.623-69.218 2.193-.619.249-1.318-.048-1.567-.667-.249-.618.048-1.317.667-1.566 37.763-15.178 63.996-5.472 71.138-2.138 9.489 4.436 12.542 8.348 15.234 11.803 1.655 2.121 3.077 3.953 5.849 5.697 6.436 4.057 22.698 3.238 26.024 2.394-.201-3.174-1.583-12.839-6.58-16.246-4.572-3.109-8.581-3.487-13.659-3.953-1.647-.153-3.35-.313-5.23-.57-2.981-.41-7.649-1.961-13.555-3.913-9.995-3.31-22.432-7.432-32.749-7.995-16.776-.916-30.748 3.262-52.217 11.835-.611.249-1.318-.056-1.567-.675-.249-.618.057-1.317.675-1.566 21.79-8.702 36.003-12.944 53.238-12.004 10.637.578 23.252 4.756 33.375 8.115 5.56 1.84 10.365 3.431 13.129 3.816 1.832.249 3.503.41 5.126.555 5.215.482 9.714.9 14.8 4.363 7.207 4.909 7.657 18.801 7.657 18.937 0 .241-.081.852-.804 1.254-1.028.57-5.479 1.116-10.742 1.116z"/>
        <path
            d="m437.935 222.575c-5.672 0-12.606-1.197-17.29-4.708-3.97-2.981-6.01-5.672-7.987-8.284-2.346-3.093-4.555-6.009-10.019-9.022-9.698-5.351-29.889-16.479-54.459-10.164-.65.169-1.301-.225-1.47-.868s.225-1.302.868-1.47c25.494-6.557 46.255 4.885 56.226 10.38 5.913 3.263 8.276 6.38 10.774 9.682 1.872 2.475 3.817 5.038 7.513 7.81 7.657 5.745 21.846 4.507 23.806 3.021-.032-2.394-1.799-7.103-8.323-10.759-3.624-2.024-6.934-2.322-10.775-2.667-3.736-.337-7.97-.707-13.04-2.876-3.503-1.495-6.396-4.556-9.746-8.091-6.846-7.223-15.354-16.214-34.742-19.693-.659-.121-1.092-.747-.972-1.398.121-.659.755-1.093 1.398-.972 20.167 3.615 29.359 13.321 36.067 20.408 3.166 3.342 5.906 6.234 8.943 7.536 4.716 2.017 8.573 2.362 12.301 2.692 3.937.353 7.665.683 11.739 2.964 9.569 5.36 9.585 12.406 9.553 13.193-.032.804-.579 1.471-1.639 1.969-1.583.755-4.869 1.309-8.734 1.309z"/>
        <path
            d="m401.667 230.457c-2.933 0-5.713-.273-7.826-.932-4.724-1.47-8.002-5.857-11.473-10.501-2.619-3.503-5.327-7.135-8.71-9.433-6.516-4.435-40.984-25.132-79.325 2.957-.539.394-1.294.273-1.688-.257-.393-.538-.273-1.294.257-1.687 30.717-22.497 62.55-16.302 82.106-3.005 3.712 2.523 6.54 6.315 9.28 9.979 3.23 4.322 6.283 8.404 10.26 9.641 6.725 2.089 19.388-.184 21.774-1.526-1.036-2.226-5.455-8.187-10.26-10.903-2.619-1.479-5.198-1.27-8.179-1.021-2.812.233-6.002.499-9.658-.691-3.399-1.108-6.355-3.567-10.099-6.676-4.604-3.833-10.333-8.597-19.388-12.88-15.941-7.528-46.802-2.161-70.271 12.221-.57.345-1.309.169-1.655-.402-.345-.57-.169-1.31.402-1.655 24.489-15.009 55.688-20.312 72.56-12.341 9.329 4.411 15.194 9.288 19.894 13.201 3.543 2.948 6.34 5.278 9.304 6.243 3.19 1.036 6.002.803 8.71.578 3.238-.265 6.299-.522 9.561 1.326 5.777 3.262 10.943 10.597 11.578 12.815.08.281.185 1.004-.522 1.695-1.704 1.663-9.61 3.246-16.64 3.246z"/>
        <path
            d="m286.033 233.374c-.145 0-.297-.025-.442-.089-.619-.249-.924-.948-.675-1.567 1.711-4.33 8.934-18.479 29.905-18.817 9.907-.16 16.302-5.303 19.235-8.348 2.74-2.844 3.704-5.094 3.8-5.728-.217-.466-.128-1.029.265-1.398.482-.45 1.254-.426 1.704.064.883.956.208 2.539-.008 3.061-2.009 4.716-10.751 14.535-24.956 14.768-19.476.313-26.129 13.313-27.703 17.298-.185.474-.643.764-1.117.764z"/>
        <path
            d="m336.145 206.144c-.539 0-1.029-.361-1.165-.907-.169-.643.224-1.302.867-1.471 10.59-2.732 14.728-5.608 14.768-5.632.538-.386 1.293-.257 1.679.281s.265 1.294-.281 1.679c-.177.129-4.467 3.142-15.571 6.01-.105.024-.201.04-.306.04z"/>
        <path
            d="m133.752 324.31c-.667 0-1.205-.539-1.205-1.206 0-.666.538-1.205 1.205-1.205 23.533-.08 55.085-9.183 64.928-18.72.474-.466 1.237-.45 1.703.024s.45 1.237-.024 1.703c-11.176 10.831-44.978 19.323-66.599 19.404z"/>
        <path
            d="m247.908 271.216c-.064 0-.136 0-.201-.024-.433-.112-.69-.546-.578-.98.378-1.478.121-2.756-.691-3.431-1.245-1.02-3.712-.715-6.966.86-.402.193-.884.024-1.077-.37-.192-.401-.024-.875.37-1.076 4.925-2.386 7.44-1.671 8.685-.659 1.318 1.077 1.776 2.973 1.23 5.07-.097.361-.418.602-.78.602z"/>
        <path
            d="m260.241 270.437c-.345 0-.667-.225-.771-.57-.04-.137-1.213-3.487-7.127-2.692-.442.056-.844-.249-.9-.691s.249-.844.691-.9c7.328-.98 8.822 3.616 8.878 3.817.129.426-.112.875-.538 1.004-.08.024-.161.032-.233.032z"/>
        <path
            d="m273.306 276.014c-.53 0-1.012-.354-1.165-.884-.747-2.724-2.354-4.379-4.395-4.54-1.647-.136-3.182.771-3.881 2.314-.273.603-.996.868-1.598.595-.603-.273-.868-.989-.595-1.599 1.109-2.435 3.632-3.929 6.267-3.712 3.069.249 5.504 2.603 6.524 6.299.177.643-.201 1.302-.844 1.478-.104.032-.216.04-.321.04z"/>
        <path
            d="m291.906 292.026c-.097 0-.193-.008-.289-.032-.643-.161-1.045-.812-.884-1.454.667-2.716.618-6.765-1.696-9.248-1.96-2.113-5.246-2.796-9.754-2.033-.658.105-1.277-.329-1.39-.988-.112-.659.33-1.278.989-1.39 5.359-.9 9.376.024 11.923 2.772 2.957 3.182 3.11 8.01 2.266 11.465-.137.547-.627.916-1.173.916z"/>
        <path
            d="m310.988 310.145c-.073 0-.137 0-.209-.017-.659-.112-1.093-.739-.98-1.398.458-2.595.104-4.571-1.053-5.889-1.647-1.872-4.7-2.137-6.974-2.033-.434.016-.868-.201-1.093-.586-.225-.386-.225-.86 0-1.238.868-1.438 1.101-4.145-.184-6.323-1.342-2.266-3.994-3.382-7.633-3.23-.667.032-1.23-.49-1.254-1.157s.49-1.229 1.157-1.253c6.131-.249 8.774 2.651 9.81 4.411 1.342 2.258 1.479 4.901.933 6.966 3.117.153 5.535 1.125 7.054 2.852 1.663 1.888 2.209 4.54 1.615 7.898-.105.587-.611.997-1.189.997z"/>
        <path
            d="m320.493 322.815c-.417 0-.819-.217-1.044-.603-.338-.578-.137-1.31.442-1.647.112-.064 2.981-1.832 3.503-6.291.185-1.607-.683-3.045-2.266-3.736-2.314-1.021-6.251-.402-10.373 4.363-.433.506-1.197.562-1.703.128s-.562-1.197-.129-1.703c4.974-5.761 10.068-6.364 13.161-4.998 2.555 1.125 4.001 3.568 3.688 6.227-.667 5.713-4.523 8.011-4.684 8.099-.193.112-.402.161-.603.161z"/>
        <path
            d="m303.596 337.864c-17.186 0-23.774-14.655-29.607-27.623-2.314-5.158-4.508-10.019-7.191-13.602-3.399-4.54-8.067-7.031-13.491-7.2-7.014-.216-14.783 3.439-19.781 9.321-7.97 9.376-16.045 13.417-40.422 11.031-.659-.064-1.149-.651-1.085-1.318.065-.658.643-1.148 1.318-1.084 23.445 2.298 30.781-1.286 38.349-10.196 5.456-6.42 13.989-10.413 21.694-10.172 6.186.193 11.489 3.013 15.346 8.163 2.836 3.793 5.086 8.782 7.456 14.061 5.97 13.273 12.156 26.996 28.836 26.169 23.477-1.157 29.6-5.801 29.656-5.85 2.603-1.88 3.214-4.66 1.671-7.472-1.952-3.575-6.926-6.106-11.875-4.154-.619.241-1.318-.056-1.567-.683-.241-.618.065-1.317.683-1.566 6.42-2.531 12.454.811 14.872 5.246 2.105 3.857 1.197 7.987-2.306 10.526-.626.49-7.255 5.19-31.021 6.355-.523.024-1.045.04-1.543.04z"/>
        <path
            d="m269.602 260.82c-.241 0-.49-.073-.699-.225-.539-.386-.667-1.141-.281-1.68.827-1.157.072-2.804-1.101-3.84-1.872-1.647-5.359-2.386-9.015.996-.49.45-1.253.418-1.703-.064-.45-.49-.426-1.254.064-1.704 4.523-4.186 9.408-3.535 12.245-1.036 2.314 2.041 2.932 4.998 1.47 7.046-.233.33-.603.507-.98.507z"/>
        <path
            d="m274.391 268.397c-.273 0-.539-.089-.764-.273-.514-.426-.586-1.181-.16-1.696.128-.152 3.206-3.84 8.79-6.628 1.309-.651 1.494-1.181 1.478-1.238-.249-.683-4.025-2.426-13.281-.305-.651.153-1.294-.257-1.446-.908-.153-.651.257-1.293.907-1.446 8.525-1.96 14.993-1.221 16.086 1.84.265.731.53 2.611-2.668 4.21-5.102 2.547-7.978 5.978-8.01 6.01-.241.289-.579.434-.932.434z"/>
        <path
            d="m287.84 273.298c-.249 0-.498-.073-.715-.233-.539-.394-.651-1.149-.257-1.688 1.51-2.057 2.04-3.848 1.478-5.037-.562-1.206-2.306-1.945-4.909-2.097-.667-.041-1.173-.611-1.133-1.27.04-.667.603-1.149 1.269-1.133 4.516.257 6.276 2.033 6.95 3.479.675 1.43.924 3.897-1.719 7.488-.233.322-.603.491-.972.491z"/>
        <path
            d="m296.06 285.486c-.322 0-.651-.129-.884-.386-.45-.49-.418-1.253.072-1.703.016-.016 1.816-1.712 2.957-4.395.418-.997.554-2.636-.33-4.267-.763-1.398-2.531-3.213-6.62-3.921-.659-.112-1.093-.739-.98-1.39.112-.65.739-1.092 1.39-.98 5.037.868 7.303 3.278 8.323 5.142 1.101 2.025 1.27 4.403.434 6.364-1.35 3.182-3.455 5.142-3.543 5.222-.233.217-.522.322-.819.322z"/>
        <path
            d="m309.839 296.389c-.088 0-.184-.008-.273-.032-.651-.153-1.052-.795-.9-1.446.016-.089.506-2.17 1.945-7.039.57-1.944-.571-3.535-1.302-4.306-1.784-1.888-5.343-3.383-9.304-2.467-.651.153-1.294-.249-1.446-.9-.153-.65.249-1.293.9-1.446 4.298-1.004 8.846.241 11.602 3.158 1.848 1.96 2.531 4.387 1.864 6.644-1.414 4.789-1.905 6.886-1.913 6.902-.128.555-.626.932-1.173.932z"/>
        <path
            d="m330.006 302.712c-.064 0-.128 0-.193-.016-.658-.104-1.108-.723-1.004-1.382.313-1.976-.466-4.074-2.185-5.897-3.206-3.391-8.774-5.134-14.535-4.548-.659.064-1.253-.418-1.318-1.077-.064-.658.418-1.253 1.077-1.317 6.484-.667 12.815 1.366 16.527 5.287 2.25 2.378 3.254 5.19 2.82 7.93-.096.594-.602 1.02-1.189 1.02z"/>
        <path
            d="m343.994 313.647c-.065 0-.137 0-.201-.016-.659-.112-1.101-.731-.988-1.39 0-.032.594-3.872-1.382-6.387-1.824-2.314-8.292-4.813-15.684-.434-.57.337-1.31.153-1.647-.426-.337-.57-.153-1.31.426-1.647 8.372-4.965 16.174-2.33 18.809 1.012 2.643 3.359 1.896 8.075 1.864 8.276-.097.587-.611 1.004-1.189 1.004z"/>
        <path
            d="m342.002 335.028c-4.21 0-8.043-.434-10.847-1.511-.619-.241-.932-.932-.699-1.559.241-.618.94-.932 1.559-.699 9.858 3.777 34.171-1.068 39.064-4.089.169-.105 1.012-.651.892-1.021-.466-1.454-6.42-3.8-14.744-3.246-.458.033-.867-.192-1.1-.57s-.241-.852-.025-1.237c.097-.169 2.387-4.251-.313-6.034-3.021-1.993-10.067-3.431-16.125 1.165-.531.401-1.286.297-1.688-.233-.401-.531-.297-1.286.233-1.688 6.275-4.772 14.431-4.21 18.906-1.253 2.812 1.848 2.675 5.022 1.904 7.368 7.641-.145 14.278 1.984 15.242 4.997.265.82.361 2.395-1.921 3.809-3.904 2.418-18.608 5.809-30.346 5.809z"/>
        <path
            d="m465.325 354.134c-7.44 0-25.02-14.591-28.756-17.764-14.952-12.711-43.065-12.084-62.606-7.69-.65.145-1.293-.265-1.438-.907-.144-.643.265-1.294.908-1.439 20.079-4.515 49.067-5.078 64.695 8.204 14.35 12.196 25.606 18.367 27.832 17.081.41-.241.241-1.341.176-1.679-2.78-14.888-11.007-25.325-25.148-31.905-.602-.282-.868-.997-.586-1.599.281-.603.996-.86 1.599-.587 14.896 6.934 23.565 17.941 26.498 33.649.474 2.563-.466 3.704-1.334 4.21-.506.298-1.133.434-1.848.434z"/>
        <path
            d="m469.326 332.184c-4.21 0-9.489-3.198-15.997-7.143-3.663-2.226-7.817-4.741-12.365-7.022-15.812-7.947-49.148-2.121-67.057 1.012-.659.121-1.277-.321-1.398-.98-.12-.659.321-1.278.98-1.398 18.183-3.182 52.032-9.103 68.552-.796 4.628 2.33 8.83 4.869 12.534 7.119 9.424 5.705 14.912 8.766 18.182 5.239 1.004-1.085 1.245-2.475.739-4.259-1.783-6.299-12.228-14.671-21.484-17.234-.643-.177-1.021-.844-.844-1.478.177-.643.844-1.021 1.478-.844 10.108 2.796 21.147 11.803 23.164 18.897.731 2.588.289 4.853-1.293 6.565-1.511 1.631-3.246 2.322-5.207 2.322z"/>
        <path
            d="m384.175 309.389c-.522 0-.996-.338-1.157-.86-.193-.635.177-1.309.811-1.502 14.559-4.315 35.57-3.688 52.459-3.182 9.496.281 17.692.53 21.677-.281 3.832-.78 6.171-2.435 6.098-4.315-.088-2.225-3.479-4.893-9.802-5.68-.659-.081-1.133-.683-1.045-1.342.081-.659.675-1.133 1.342-1.045 6.974.868 11.763 4.074 11.908 7.979.12 3.19-2.877 5.721-8.027 6.765-4.258.868-12.189.627-22.232.329-16.712-.498-37.513-1.124-51.703 3.078-.112.032-.233.048-.345.048z"/>
        <path
            d="m380.198 301.491c-.498 0-.956-.305-1.133-.804-.225-.626.104-1.317.731-1.542 24.305-8.662 36.999-7.215 51.695-5.544l2.563.289c15.378 1.711 23.268-4.154 24.827-8.509.088-.241.064-.337.064-.337-.643-1.045-7.368-.522-12.293-.137-5.664.442-12.084.948-18.23.547-18.737-1.238-39.997 6.821-40.206 6.901-.618.233-1.317-.072-1.558-.69-.241-.619.072-1.318.691-1.559.883-.338 21.95-8.324 41.225-7.063 5.97.394 12.301-.104 17.877-.538 8.646-.675 12.872-.916 14.39 1.077.378.498.739 1.35.29 2.611-2.17 6.082-11.659 11.835-27.358 10.091l-2.571-.289c-14.398-1.639-26.836-3.053-50.611 5.416-.136.048-.273.072-.401.072z"/>
        <path
            d="m363.406 290.162c-.458 0-.892-.265-1.101-.707-.273-.602-.008-1.317.594-1.599 26.458-12.059 58.533-19.588 65.997-15.49 2.073 1.141 2.177 2.611 2.049 3.382-.804 5.038-16.287 9.987-24.402 11.514-.65.12-1.285-.305-1.406-.964-.12-.651.306-1.286.964-1.406 11.426-2.154 22.08-7.119 22.465-9.521.057-.346-.498-.707-.835-.892-5.359-2.941-33.545 1.767-63.835 15.571-.161.072-.33.104-.499.104z"/>
        <path
            d="m357.717 285.486c-.337 0-.675-.145-.916-.418-.433-.506-.377-1.261.129-1.703 12.454-10.743 35.674-20.472 43.274-19.613 1.165.129 2.001.531 2.491 1.189.322.434.651 1.165.442 2.202-.956 4.596-13.506 12.06-16.013 13.514-.578.329-1.31.137-1.647-.442-.337-.578-.137-1.309.442-1.647 5.841-3.383 14.318-9.312 14.864-11.915.04-.201 0-.249-.016-.281-.619-.635-5.657-.547-16.543 3.864-9.899 4.009-19.508 9.602-25.711 14.953-.225.192-.506.289-.788.289z"/>
        <path
            d="m272.221 245.739c-.321 0-.642-.129-.875-.378-.458-.482-.434-1.245.048-1.703 4.531-4.267 15.635-13.94 20.825-11.538 1.157.538 2.499 1.88 2.331 5.255-.033.667-.611 1.165-1.262 1.141-.667-.033-1.173-.603-1.141-1.262.056-1.117-.056-2.539-.932-2.941-2.065-.956-8.629 2.114-18.166 11.104-.233.217-.53.33-.828.33z"/>
        <path
            d="m294.517 253.685c-.531 0-1.013-.353-1.165-.884-.177-.642.201-1.301.843-1.478 6.484-1.776 9.393-7.552 8.999-11.039-.128-1.133-.651-2.499-2.41-2.572-5.689-.257-12.582 3.921-21.662 13.097-.466.474-1.229.474-1.703.008s-.474-1.229-.008-1.703c9.73-9.827 16.985-14.093 23.477-13.812 2.587.113 4.387 1.912 4.708 4.708.563 4.99-3.39 11.618-10.758 13.635-.104.032-.217.04-.321.04z"/>
        <path
            d="m297.859 264.7c-.442 0-.867-.241-1.076-.667-.298-.594-.057-1.317.538-1.615.136-.072 13.827-6.933 16.776-13.329.555-1.205 1.294-3.415 0-4.62-1.309-1.221-4.821-1.39-9.432 1.125-.587.321-1.318.104-1.64-.482-.321-.587-.104-1.318.483-1.639 5.013-2.732 9.81-3.037 12.236-.771 1.029.964 2.467 3.205.539 7.391-3.303 7.167-17.299 14.181-17.893 14.479-.169.088-.354.128-.539.128z"/>
        <path
            d="m314.202 270.116c-.072 0-.144 0-.217-.016-.651-.121-1.084-.747-.964-1.406.346-1.888 2.788-4.267 6.741-7.995 3.568-3.358 7.601-7.167 8.661-9.995.515-1.374.603-2.386.241-2.772-.69-.731-3.39-1.012-12.268 1.808-.635.201-1.31-.153-1.511-.787-.201-.635.153-1.31.788-1.511 8.765-2.788 12.903-3.117 14.751-1.173 1.615 1.695.603 4.387.273 5.279-1.253 3.35-5.512 7.36-9.272 10.903-2.587 2.434-5.801 5.471-6.026 6.677-.104.578-.61.988-1.181.988z"/>
        <path
            d="m314.651 284.835c-.128 0-.249-.016-.377-.064-.635-.209-.981-.892-.772-1.519 2.78-8.46 12.631-14.663 19.822-19.187 2.956-1.856 6.636-4.17 6.877-5.118.298-1.165-.321-2.057-.891-2.595-1.607-1.526-5.536-2.691-11.329-.908-.635.193-1.31-.16-1.503-.795s.161-1.31.796-1.503c6.781-2.081 11.521-.602 13.699 1.471 1.446 1.374 2.016 3.181 1.566 4.941-.458 1.792-3.037 3.479-7.93 6.564-6.885 4.331-16.31 10.26-18.817 17.893-.169.507-.635.828-1.141.828z"/>
        <path
            d="m334.618 280.818c-.474 0-.924-.282-1.117-.748-.257-.618.04-1.317.651-1.574.088-.041 9.151-3.817 13.723-8.035 1.51-1.398 1.96-3.037 1.229-4.507-1.036-2.089-4.588-3.761-10.196-2.772-.651.12-1.277-.322-1.398-.981-.112-.658.322-1.277.98-1.398 7.304-1.277 11.45 1.398 12.775 4.074 1.198 2.418.523 5.238-1.759 7.344-4.885 4.515-14.045 8.331-14.438 8.492-.153.064-.306.089-.458.089z"/>
        <path
            d="m366.113 278.946c-.208 0-.425-.056-.618-.168-.571-.346-.755-1.085-.41-1.656 1.792-2.972 2.009-5.455.627-6.998-1.985-2.201-7.762-2.836-14.551.338-.603.281-1.318.024-1.599-.579-.281-.602-.024-1.317.579-1.599 7.11-3.318 14.253-3.222 17.362.233 1.246 1.382 2.861 4.508-.353 9.851-.225.377-.627.586-1.037.586z"/>
        <path
            d="m166.63 311.382c-.353 0-.675-.233-.771-.595-.113-.426.137-.868.562-.988 1.623-.442 6.075-1.953 7.119-3.584.514-.803.619-2.209-.161-3.358-.715-1.045-2.739-2.627-8.299-1.519-.442.089-.86-.192-.949-.626-.088-.434.193-.86.627-.948 6.468-1.294 9.007.811 9.947 2.185 1.229 1.8.964 3.921.193 5.126-1.567 2.443-7.392 4.09-8.051 4.267-.072.016-.144.032-.209.032z"/>
        <path
            d="m178.827 288.402c-.273 0-.538-.136-.691-.393-.225-.378-.104-.876.281-1.101.241-.145 5.833-3.56 3.953-8.268-.9-2.258-2.579-2.314-3.495-2.153-2.121.386-4.363 2.611-4.435 5.664-.008.442-.394.772-.819.788-.442-.008-.796-.378-.788-.82.089-3.881 2.997-6.709 5.761-7.207 2.346-.426 4.315.747 5.271 3.142 1.912 4.788-2.186 8.798-4.628 10.244-.129.08-.273.112-.41.112z"/>
        <path
            d="m189.473 297.209c-.434 0-.796-.346-.804-.788s.346-.811.788-.819c.088 0 8.412-.281 8.38-4.202-.024-2.354-1.326-4.524-3.174-5.263-1.792-.715-3.856 0-5.833 2.025-.313.321-.819.321-1.133.016-.321-.313-.321-.82-.016-1.133 3.318-3.399 6.171-2.957 7.577-2.394 2.434.98 4.154 3.752 4.186 6.741.056 5.56-9.545 5.817-9.955 5.825h-.016z"/>
        <path
            d="m190.879 271.883c-.161 0-.322-.048-.466-.152-.362-.257-.45-.756-.193-1.117.032-.048 3.455-4.957 1.318-8.589-1.165-1.969-4.403-3.672-6.998-2.997-2.443.635-3.785 3.141-3.881 7.239-.008.434-.37.788-.804.788h-.016c-.442-.009-.795-.378-.787-.82.153-6.516 3.254-8.284 5.078-8.758 3.414-.884 7.303 1.213 8.782 3.736 2.675 4.532-1.222 10.1-1.39 10.333-.153.217-.402.337-.651.337z"/>
        <path
            d="m202.794 285.864c-.434 0-.787-.346-.804-.78-.016-.442.338-.811.78-.827 7.327-.209 9.424-4.371 9.513-6.549.032-.731-1.366-3.262-4.082-4.644-2.008-1.02-5.214-1.607-9.071 1.439-.345.273-.852.217-1.125-.137-.273-.345-.217-.852.137-1.125 4.764-3.752 8.806-2.619 10.79-1.607 2.917 1.487 5.022 4.467 4.958 6.139-.105 2.691-2.563 7.841-11.072 8.091z"/>
        <path
            d="m209.069 300.438c-.377 0-.771-.008-1.173-.032-.442-.024-.779-.402-.755-.844.024-.441.434-.811.843-.755 6.862.354 9.216-2.82 9.907-4.21.9-1.808.747-3.84-.385-5.182-1.166-1.374-3.182-1.752-5.544-1.037-.434.129-.876-.112-1.005-.538-.128-.426.113-.876.539-1.004 2.997-.908 5.64-.354 7.231 1.542 1.55 1.832 1.783 4.556.594 6.934-.787 1.591-3.334 5.134-10.26 5.134z"/>
        <path
            d="m239.118 293.617c-.297 0-.602-.112-.835-.337-.482-.458-.499-1.221-.033-1.703 2.499-2.604 3.246-5.03 2.009-6.492-1.366-1.615-4.901-1.921-7.978.192-.547.378-1.302.241-1.671-.313-.378-.546-.242-1.302.313-1.671 3.824-2.627 8.846-2.523 11.184.233.795.94 2.989 4.403-2.105 9.722-.233.249-.554.369-.868.369z"/>
        <path
            d="m227.894 281.364c-.329 0-.635-.201-.755-.53-.153-.418.064-.876.482-1.029 4.796-1.735 6.524-4.507 6.09-6.355-.386-1.663-2.386-2.539-5.094-2.234-.434.049-.836-.265-.892-.707-.048-.441.265-.835.707-.891 3.56-.402 6.251.956 6.838 3.462.602 2.596-1.358 6.147-7.103 8.228-.088.032-.185.048-.273.048z"/>
        <path
            d="m210.556 264.114c-.177 0-.362-.065-.507-.185-.345-.281-.393-.788-.112-1.133 1.486-1.808 1.743-3.439.715-4.588-1.575-1.767-5.745-2.177-8.951-.096-.369.241-.867.136-1.108-.233-.241-.37-.137-.868.233-1.109 3.607-2.346 8.757-2.169 11.023.37.755.843 2.202 3.189-.675 6.684-.16.193-.385.29-.618.29z"/>
        <path
            d="m202.392 246.872s-.072 0-.112 0c-.442-.065-.747-.466-.683-.908.554-3.921-.193-6.79-2.105-8.059-1.977-1.318-5.118-.884-8.613 1.189-.386.225-.876.097-1.101-.281s-.105-.876.281-1.101c4.05-2.402 7.81-2.82 10.325-1.149 2.458 1.639 3.446 5.054 2.804 9.626-.057.401-.402.691-.796.691z"/>
        <path
            d="m236.821 257.703c-.257 0-.506-.121-.659-.346-.257-.361-.161-.867.201-1.116 2.957-2.049 4.387-5.223 3.559-7.907-1.02-3.302-5.038-5.222-11.007-5.262-.442 0-.804-.362-.796-.812 0-.442.362-.795.804-.795 6.725.04 11.288 2.37 12.534 6.387 1.036 3.351-.643 7.248-4.178 9.698-.137.097-.298.145-.458.145z"/>
        <path
            d="m248.101 236.041c-.169 0-.33-.048-.474-.161-.354-.265-.434-.763-.169-1.124 2.459-3.343 3.15-7.223 1.623-9.224-1.503-1.977-4.933-2.081-9.682-.289-.418.16-.876-.057-1.036-.466-.161-.418.056-.876.466-1.037 7.376-2.788 10.389-.683 11.529.82 1.969 2.603 1.31 7.191-1.614 11.152-.161.217-.402.329-.651.329z"/>
        <path
            d="m262.29 244.437c-.128 0-.265-.032-.385-.096-.386-.217-.531-.707-.314-1.093 3.793-6.861 8.999-9.047 12.478-8.171 2.378.595 3.817 2.515 3.849 5.134 0 .442-.354.812-.796.812h-.008c-.442 0-.795-.354-.803-.796-.024-1.872-.98-3.182-2.628-3.599-2.779-.699-7.319 1.309-10.678 7.392-.144.265-.417.417-.707.417z"/>
        <path
            d="m281.791 232.249c-.193 0-.386-.065-.539-.201-.329-.297-.361-.804-.064-1.133.771-.86.763-2.949-.394-4.355-1.711-2.073-5.046-1.848-9.159.611-.378.225-.876.104-1.101-.281-.225-.378-.104-.876.273-1.101 6.91-4.13 10.148-1.559 11.225-.257 1.59 1.928 1.751 4.877.353 6.452-.161.176-.378.265-.603.265z"/>
        <path
            d="m260.242 215.721c-.145 0-.29-.04-.426-.121-.378-.233-.49-.731-.257-1.108 1.856-2.989 1.004-8.758-1.583-10.646-2.001-1.462-4.17.297-5.641 2.025-.289.337-.795.377-1.132.088-.338-.289-.378-.795-.089-1.133 3.784-4.443 6.725-3.077 7.818-2.282 3.262 2.387 4.306 9.079 1.992 12.791-.152.241-.417.378-.682.378z"/>
        <path
            d="m279.082 214.91c-.233 0-.466-.104-.626-.297-.282-.346-.225-.852.12-1.133 2.017-1.639 2.563-3.591 1.551-5.504-1.318-2.474-5.175-4.411-9.112-3.213-.433.128-.875-.113-1.004-.539-.128-.426.113-.876.538-1.004 4.781-1.454 9.353.892 11 4.001 1.374 2.587.643 5.391-1.953 7.504-.144.121-.329.177-.506.177z"/>
        <path
            d="m260.667 197.668c-.177 0-.354-.056-.498-.177-.346-.273-.402-.779-.129-1.133 2.427-3.045 2.563-5.238 2.25-6.54-.241-.988-.739-1.494-.932-1.639-.281 0-.547-.153-.691-.41-.217-.385-.081-.876.305-1.092.538-.306 1.237-.033 1.872.715.555.65 3.069 4.17-1.551 9.963-.16.2-.393.305-.626.305z"/>
        <path
            d="m447.93 143.482c-.619 0-1.141-.474-1.197-1.101-.056-.658.426-1.245 1.093-1.309 2.908-.265 4.885-2.242 4.845-3.849-.049-1.832-2.644-3.061-6.766-3.222-.667-.024-1.181-.586-1.157-1.253s.595-1.165 1.254-1.157c8.3.313 9.047 4.339 9.079 5.568.08 3.125-3.077 5.954-7.038 6.307-.041 0-.073 0-.113 0z"/>
        <path d="m270.116 138.774c2.611-6.324-.675-13.265-4.516-10.574-3.84 2.692 3.23 13.667 4.516 10.574z"/>
        <path d="m287.535 100.111c-4.033 1.262-2.121 13.812 2.66 15.571 4.78 1.76 5.278-18.0536-2.66-15.571z"/>
        <path d="m314.981 117.266c1.069 2.587 14.985-7.987 10.703-13.185-4.291-5.1906-12.189 9.569-10.703 13.185z"/>
        <path d="m327.619 76.6344c.506 2.2416 14.037-4.9734 11.016-10.4048-3.021-5.4315-11.651 7.6087-11.016 10.4048z"/>
        <path d="m393.752 72.5611c-1.84 1.7435 14.495 9.1836 18.102 4.8127 3.608-4.3708-14.623-8.115-18.102-4.8127z"/>
        <path d="m409.388 100.313c2.258 4.049 30.154 2.418 26.723-6.6129-3.43-9.0309-28.707 3.0532-26.723 6.6129z"/>
        <path d="m427.748 122.889c-.651 3.993 19.966 9.328 20.182 1.864.217-7.464-19.821-4.09-20.182-1.864z"/>
        <path d="m430.752 155.454c.241 2.273 17.756 4.451 17.813-3.608.056-8.067-18.118.779-17.813 3.608z"/>
        <path d="m431.957 183.262c-3.455 3.254 17.813 15.587 21.067 8.605s-19.018-10.533-21.067-8.605z"/>
        <path d="m422.452 209.077c-4.121-.29 13.724 9.513 15.049 6.982 1.326-2.531-2.29-6.083-15.049-6.982z"/>
        <path d="m392.113 217.931c-3.133.603 10.654 9.996 16.672 5.721 6.018-4.274-13.546-6.323-16.672-5.721z"/>
        <path d="m324.188 142.494c-.739 2.483 13.298.177 11.956-4.917s-11.184 2.346-11.956 4.917z"/>
        <path d="m315.118 170.623c0 3.319 11.184-.128 9.344-5.254s-9.344 4.443-9.344 5.254z"/>
        <path d="m320.308 202.031c-.08 2.41 14.085-1.27 13.771-3.72-.313-2.451-13.675.964-13.771 3.72z"/>
        <path d="m442.458 113.609c4.106-4.7 19.364.081 20.272 2.427s-6.5 4.716-6.5 4.716l-7.312-5.07-6.451-2.065z"/>
        <path d="m85.5125 247.876c-5.3832 2.498 3.4629 11.899 4.9011 11.409s1.1248-14.205-4.9011-11.409z"/>
        <path d="m108.363 245.747c-6.259-1.109-3.487 14.101-1.976 15.001 1.51.9 9.513-13.667 1.976-15.001z"/>
        <path d="m121.901 266.951c1.711 2.723 11.594-4.46 6.588-8.356-4.997-3.897-7.592 6.773-6.588 8.356z"/>
        <path
            d="m146.543 319.047c-.185 0-.369-.064-.522-.193-.338-.289-.378-.795-.088-1.133 2.956-3.471 3.583-6.452 3.591-6.484.088-.434.506-.715.94-.634.434.08.715.506.635.94-.024.136-.691 3.406-3.945 7.215-.161.185-.386.281-.611.281z"/>
        <path
            d="m152.385 318.348c-.161 0-.314-.048-.458-.145-.362-.249-.458-.755-.201-1.116 1.245-1.8 1.478-3.19 1.478-3.206.073-.434.474-.731.916-.667.434.064.739.474.675.908-.008.072-.273 1.743-1.751 3.88-.153.225-.41.346-.659.346z"/>
        <path
            d="m285.695 322.815c-.249 0-.498-.12-.659-.337-.096-.137-2.45-3.527-2.338-10.558 0-.442.37-.787.804-.787h.016c.442 0 .795.369.787.819-.104 6.508 2.017 9.57 2.041 9.602.257.361.177.859-.185 1.117-.144.096-.305.152-.466.152z"/>
        <path
            d="m292.806 330.046c-.257 0-.506-.121-.659-.346-.096-.136-2.362-3.438-3.768-10.059-.088-.434.185-.86.619-.956.433-.096.859.185.956.619 1.325 6.267 3.495 9.448 3.511 9.472.249.362.16.868-.201 1.117-.137.097-.297.145-.458.145z"/>
        <path
            d="m298.703 331.967c-.241 0-.482-.105-.635-.314-.016-.024-1.808-2.37-3.575-5.134-.241-.369-.129-.867.241-1.108.369-.241.867-.129 1.108.241 1.728 2.707 3.479 4.997 3.504 5.021.273.354.2.86-.153 1.125-.145.113-.322.169-.49.169z"/>
        <path
            d="m248.101 251.323c-.064 0-.136-.008-.2-.024-.426-.112-.683-.554-.571-.98 0-.024.691-2.732 0-5.64-.104-.434.161-.868.595-.973.434-.104.867.161.972.595.795 3.318.032 6.299 0 6.428-.097.361-.418.602-.779.602z"/>
        <path
            d="m250.696 248.655c-.089 0-.169-.016-.257-.04-.418-.145-.643-.595-.506-1.021 0 0 .433-1.406-.025-3.808-.088-.434.201-.86.635-.94.442-.088.86.201.94.635.555 2.852 0 4.555-.024 4.628-.112.337-.426.546-.763.546z"/>
        <path
            d="m253.572 246.542s-.032 0-.056 0c-.442-.032-.779-.41-.747-.852 0-.016.096-1.574 0-3.856-.016-.442.321-.82.771-.836.482-.032.82.322.836.771.104 2.379 0 3.962 0 4.026-.024.426-.378.755-.804.755z"/>
        <path
            d="m123.773 221.04c-.193 0-.386-.072-.538-.209-.113-.104-2.74-2.514-4.323-5.535-.209-.394-.056-.876.337-1.085.394-.209.876-.056 1.085.337 1.454 2.764 3.961 5.07 3.985 5.094.33.298.354.804.049 1.133-.161.177-.378.265-.595.265z"/>
        <path
            d="m128.08 221.771c-.297 0-.586-.169-.723-.458 0-.016-.61-1.253-1.494-2.659-.233-.378-.129-.868.249-1.109.377-.241.868-.129 1.109.249.94 1.486 1.558 2.764 1.582 2.82.193.402.024.876-.377 1.069-.113.056-.233.08-.346.08z"/>
        <path
            d="m132.66 222.76s-1.455-1.503-2.604-2.652c-.313-.313-.313-.819 0-1.133.314-.313.82-.313 1.133 0 1.157 1.157 2.628 2.676 2.628 2.676l-1.157 1.117z"/>
        <path
            d="m187.464 308.674c-.081 0-.161-.016-.249-.04-.426-.137-.659-.587-.523-1.013.82-2.539 1.278-5.455 1.278-5.487.064-.442.482-.739.916-.667.442.064.739.482.667.916-.016.12-.482 3.069-1.334 5.729-.113.337-.426.554-.763.554z"/>
        <path
            d="m184.7 309.501c-.081 0-.161-.008-.241-.04-.426-.136-.659-.586-.522-1.012.482-1.511.273-3.801.273-3.825-.04-.442.281-.835.723-.875.434-.041.835.281.876.723.008.104.241 2.635-.346 4.467-.112.337-.426.562-.763.562z"/>
        <path
            d="m338.402 294.814c-.37 0-.707-.257-.788-.635-.088-.433.185-.859.619-.948 3.824-.803 6.588-1.574 6.612-1.582.426-.121.868.128.989.554.12.426-.129.868-.555.988-.032 0-2.836.796-6.717 1.615-.056.008-.112.016-.168.016z"/>
        <path
            d="m350.647 296.863s-.064 0-.097 0c-.024 0-2.522-.306-5.945-.523-.442-.032-.78-.409-.747-.851.024-.442.401-.772.851-.748 3.471.217 6.018.531 6.042.531.442.056.756.458.699.892-.048.409-.393.707-.795.707z"/>
        <path
            d="m354.608 301.089c-.065 0-.137-.008-.201-.024-.04-.008-4.363-1.125-7.416-1.23-.442-.016-.796-.385-.78-.827.017-.434.37-.779.804-.779h.024c3.23.104 7.585 1.229 7.77 1.277.425.113.682.554.578.98-.096.362-.418.603-.779.603z"/>
        <path
            d="m161.471 175.492s-.064 0-.096 0c0 0-2.467-.305-5.705-.731-.442-.056-.747-.458-.691-.9.057-.441.45-.755.9-.691 3.23.418 5.697.732 5.697.732.442.056.755.458.699.9-.048.409-.394.707-.796.707z"/>
        <path
            d="m159.849 171.033c-.04 0-1.076 0-4.154-.314-.442-.048-.763-.433-.723-.875s.442-.764.876-.723c2.973.297 3.985.305 4.001.305.442 0 .804.361.804.803s-.362.804-.804.804z"/>
        <path
            d="m155.076 167.803c-.425 0-.787-.338-.803-.772-.016-.441.329-.819.771-.835 1.864-.08 3.544 0 3.616 0 .442.016.787.394.763.835-.024.442-.426.78-.835.764-.016 0-1.688-.073-3.471 0-.008 0-.024 0-.032 0z"/>
        <path
            d="m339.302 163.111c-.08 0-.168-.016-.249-.04-.417-.137-.65-.595-.514-1.012.008-.033 1.012-3.11 1.133-4.934.032-.442.418-.779.852-.747.442.032.779.41.747.852-.137 2.024-1.165 5.19-1.213 5.327-.113.337-.426.554-.764.554z"/>
        <path
            d="m342.797 159.808c-.113 0-.225-.024-.33-.072-.401-.185-.578-.659-.401-1.06 0-.016.771-1.712.859-2.981.032-.442.402-.788.86-.747.442.032.779.409.747.851-.104 1.567-.964 3.463-.996 3.543-.137.298-.426.474-.731.474z"/>
        <path
            d="m319.015 134.267c-.169 0-.346-.057-.49-.169-.354-.273-.418-.771-.145-1.125.41-.538 1.47-2.185 1.47-3.382 0-.442.354-.804.804-.804.442 0 .803.362.803.804 0 1.96-1.615 4.129-1.799 4.37-.161.209-.394.314-.635.314z"/>
        <path
            d="m322.911 129.301c-.184 0-.369-.064-.522-.193-.337-.289-.378-.795-.088-1.132.016-.017 1.301-1.551 1.574-2.957.089-.434.507-.723.941-.635.433.088.723.506.634.94-.353 1.824-1.872 3.616-1.936 3.688-.161.185-.386.281-.611.281z"/>
        <path
            d="m378.56 92.5269-1.414-.7633s1.269-2.3702 2.193-4.0173c.217-.3857.707-.5223 1.093-.3053.385.2169.522.707.305 1.0927-.916 1.639-2.177 3.9852-2.177 3.9852z"/>
        <path
            d="m382.705 90.9515c-.201 0-.402-.0723-.554-.225-.322-.3053-.33-.8195-.025-1.1328.017-.0161 1.39-1.4623 1.792-3.1657.097-.4338.53-.699.964-.6026.434.1045.699.5303.603.9642-.498 2.1372-2.129 3.8405-2.194 3.9128-.16.1607-.369.2411-.578.2411z"/>
        <path
            d="m387.421 89.9558c-.185 0-.369-.0643-.522-.1929-.338-.2892-.378-.7954-.089-1.1328.595-.691 1.599-2.0489 1.792-2.7479.121-.4258.563-.6829.988-.5624.426.1205.683.5544.563.9883-.346 1.2614-1.936 3.1495-2.113 3.3665-.161.1848-.386.2812-.611.2812z"/>
        <path
            d="m353.885 184.852c-.193 0-.378-.064-.531-.201-.329-.297-.361-.803-.064-1.133.073-.08 1.76-1.976 3.222-2.683.402-.193.876-.024 1.077.369.193.402.032.884-.37 1.077-.972.474-2.298 1.824-2.724 2.306-.16.177-.377.273-.602.273z"/>
        <path
            d="m359.734 184.852c-.297 0-.578-.16-.723-.442-.201-.393-.04-.875.362-1.076.024-.008 2.217-1.117 3.985-2.427.362-.265.86-.192 1.125.169.265.354.193.86-.169 1.125-1.88 1.39-4.13 2.523-4.218 2.571-.113.056-.241.088-.362.088z"/>
        <path
            d="m215.625 304.247c-.225 0-.458-.096-.61-.281-.29-.338-.249-.844.088-1.133.538-.458 2.049-1.824 2.499-2.571.225-.378.723-.506 1.1-.273.378.225.507.723.274 1.101-.667 1.108-2.612 2.779-2.837 2.964-.152.129-.337.193-.522.193z"/>
        <path
            d="m223.009 300.969c-.161 0-.314-.048-.458-.145-.362-.249-.458-.755-.201-1.117.016-.024 1.743-2.555 2.121-5.198.064-.442.474-.739.908-.683.442.064.747.466.683.908-.434 3.021-2.314 5.769-2.394 5.881-.153.225-.41.346-.659.346z"/>
        <path
            d="m286.033 226.191c-.426 0-.78-.329-.804-.755 0-.024-.16-2.467-1.293-4.106-.257-.362-.161-.868.201-1.117.361-.257.867-.161 1.116.201 1.399 2.009 1.567 4.813 1.575 4.925.024.442-.313.82-.755.844-.016 0-.032 0-.048 0z"/>
        <path
            d="m290.396 221.041s-.025 0-.033 0c-.442-.017-.787-.386-.771-.836 0-.024.072-2.338-1.028-3.559-.298-.33-.265-.836.064-1.133.329-.298.836-.273 1.133.064 1.534 1.703 1.438 4.572 1.438 4.692-.016.434-.37.772-.803.772z"/>
        <path
            d="m288.346 223.933c-.442 0-.803-.362-.803-.804 0-.016 0-1.663-.474-3.382-.121-.426.136-.868.562-.989.426-.112.868.137.988.563.523 1.928.531 3.728.531 3.8 0 .442-.362.804-.804.804z"/>
    </g>
</svg>
