<svg width="544" height="429" viewBox="0 0 544 429" fill="none" xmlns="http://www.w3.org/2000/svg">
<path d="M263.994 190.718C272.856 183.945 275.186 176.746 275.001 160.572C274.817 144.399 279.79 123.099 269.506 120.753C259.221 118.407 253.139 134.612 258.225 141.281C263.311 147.95 273.057 154.41 270.598 166.51C268.14 178.61 261.937 187.625 261.937 187.625L263.994 190.718Z" fill="#FF3939"/>
<path d="M285.984 159.745L300.342 138.099C300.342 138.099 300.519 123.018 306.384 112.967C312.249 102.916 320.083 94.2785 330.825 84.2834C341.568 74.2883 348.96 59.5287 347.73 56.7568C346.501 53.9849 332.955 56.1381 326.495 62.5016C320.035 68.865 320.887 80.7321 315.11 90.1407C309.333 99.5492 301.812 106.258 300.205 113.256C298.599 120.254 284.184 152.521 285.341 155.735C286.498 158.949 285.984 159.737 285.984 159.737V159.745Z" fill="#FF3939"/>
<path d="M346.397 180.369C362.225 174.986 387.47 179.083 396.758 187.022C406.046 194.96 417.375 202.103 428.35 203.951C439.325 205.799 445.07 217.184 443.937 219.747C442.804 222.31 426.141 221.49 419.962 215.802C413.783 210.105 406.094 201.388 392.966 194.414C379.837 187.439 352.865 188.355 346.397 188.355C339.929 188.355 331.011 187.03 335.012 184.049C339.013 181.068 346.397 180.369 346.397 180.369Z" fill="#FF3939"/>
<path d="M271.627 193.257C287.158 189.416 297.747 180.088 301.299 175.742C304.85 171.395 327.009 159.696 329.862 161.536C332.714 163.376 327.17 174.078 322.092 176.304C317.014 178.53 312.475 180.691 313.246 182.459C314.017 184.226 320.742 181.334 322.301 180.37C323.86 179.405 353.475 152.682 365.246 149.533C377.017 146.383 382.199 145.041 382.199 145.041L412.329 149.276C412.329 149.276 432.367 147.958 439.663 145.041C446.958 142.125 458.022 139.24 453.354 135.56C448.686 131.881 447.93 132.122 447.93 132.122C447.93 132.122 472.291 127.638 472.781 116.968C465.791 104.458 441.422 101.582 441.422 101.582C441.422 101.582 422.67 109.456 410.304 110.284L397.939 111.119C397.939 111.119 369.569 123.404 364.748 127.654C359.927 131.905 355.38 137.537 355.38 137.537C355.38 137.537 344.461 145.242 334.088 148.93C323.715 152.618 305.685 163.842 299.322 169.587L292.967 175.332C292.967 175.332 261.784 195.683 271.635 193.257H271.627Z" fill="#FF3939"/>
<path d="M296.534 162.597L310.683 151.437L322.454 134.339L333.244 130.081L342.798 133.463L361.325 121.845L395.328 95.1624L413.374 86.7743L411.124 83.3194L386.201 80.668L360.369 94.2545L359.052 92.4869L331.887 110.308C331.887 110.308 326.302 118.037 319.023 124.32C311.744 130.603 304.673 144.117 304.673 144.117L296.542 162.581L296.534 162.597Z" fill="#FF3939"/>
<path d="M267.32 253.444C273.056 246.719 286.45 237.109 291.448 238.732C300.752 233.896 309.919 234.779 307.798 242.951C318.396 240.034 320.051 247.113 320.051 247.113C320.051 247.113 328.053 246.422 328.069 250.768C328.085 255.115 329.009 253.436 329.009 253.436C329.009 253.436 337.775 252.914 339.623 255.766C341.471 258.618 340.186 261.784 340.186 261.784C340.186 261.784 348.011 261.92 349.241 264.572C350.47 267.223 350.647 268.726 350.647 268.726C350.647 268.726 355.676 267.874 361.63 267.882C370.5 267.898 374.116 272.847 374.116 272.847C374.116 272.847 395.986 262.306 403.627 263.077C411.268 263.849 403.627 274.872 403.627 274.872C403.627 274.872 421.608 271.024 425.626 273.49C429.651 275.949 419.6 282.296 419.6 282.296C419.6 282.296 449.882 278.713 454.454 280.689C459.026 282.666 450.252 292.87 450.252 292.87C450.252 292.87 462.818 293.537 466.916 298.614C471.013 303.692 457.941 306.922 457.941 306.922C457.941 306.922 470.66 315.182 471.375 321.642C472.09 328.102 455.322 322.051 449.73 318.974C444.137 315.897 437.22 315.214 437.22 315.214C437.22 315.214 458.543 324.253 464.031 337.333C469.519 350.414 466.851 354.158 464.489 355.13C462.127 356.102 437.774 339.414 429.105 333.284C420.435 327.153 376.14 329.692 373.955 327.435C371.77 325.177 357.5 323.65 353.885 324.076C356.504 317.536 351.265 312.434 351.265 312.434L345.046 312.804L343.038 306.167L337.422 302.214L332.111 301.901L329.532 298.558L324.598 291.681C324.598 291.681 318.773 289.101 314.635 289.334C313.952 282.023 310.65 275.796 299.956 276.407C300.189 269.176 289.439 265.841 289.439 265.841L284.915 263.021L282.593 260.948L284.007 260.08C284.007 260.08 277.596 257.638 270.164 257.718C269.69 256.987 269.529 255.621 269.529 255.621L267.312 253.428L267.32 253.444Z" fill="#FF3939"/>
<path d="M163.617 54.7157C158.772 55.6076 164.436 83.5359 162.588 93.073C160.74 102.61 135.616 150.922 135.616 153.284C135.616 155.647 136.436 159.005 136.436 159.005L138.452 163.569L136.508 176.513C136.508 176.513 138.589 174.616 143 176.513C147.411 178.409 149.613 186.21 149.613 186.21C149.613 186.21 157.551 183.077 160.789 185.085C164.027 187.094 170.077 195.153 170.077 195.153C170.077 195.153 176.745 194.92 179.003 200.359C187.415 197.073 191.103 201.516 192.646 204.939C200.954 205.694 202.392 218.172 202.392 218.172C202.392 218.172 219.208 208.997 218.71 202.874L218.204 196.752L216.155 189.087L213.432 188.468C214.347 184.933 206.578 181.623 205.156 182.081C203.734 182.539 205.461 173.925 201.082 175.082C196.703 176.239 204.618 162.155 203.854 160.733C203.091 159.31 211.584 156.426 214.122 151.461C216.661 146.495 217.947 141.072 211.535 137.842C215.697 130.418 210.394 122.922 210.394 122.922C210.394 122.922 222.551 103.92 220.245 96.6886C217.939 89.4574 211.013 92.6472 211.013 92.6472C211.013 92.6472 214.163 74.9951 208.86 73.2998C203.557 71.6045 202.464 72.1991 202.464 72.1991L201.243 63.9957C201.243 63.9957 199.315 51.6867 194.164 49.1478C189.014 46.6088 186.162 54.2979 185.551 59.9141C184.941 65.5303 169.852 112.653 169.852 112.653L168.397 109.464C168.397 109.464 171.732 77.5903 171.989 71.2912C172.246 64.992 168.936 53.7355 163.625 54.7077L163.617 54.7157Z" fill="#FF3939"/>
<path d="M75.5901 295.04C75.5901 295.04 85.4566 318.621 87.8429 319.778C90.2291 320.935 93.2261 326.013 95.998 326.471C98.7699 326.929 105.174 330.392 108.62 329.934C112.067 329.476 120.929 325.145 122.842 324.985C124.754 324.824 131.672 323.852 134.179 322.855C136.685 321.859 181.84 318.935 191.152 313.013C200.464 307.092 208.86 301.54 206.659 295.048C204.457 288.556 201.533 288.749 201.533 288.749C201.533 288.749 205.847 278.095 194.133 277.307C191.843 270.084 182.298 275.09 182.298 275.09C182.298 275.09 176.923 267.272 169.298 274.744C167.683 278.761 168.454 277.548 168.454 277.548L168.615 287.6C168.615 287.6 162.147 295.546 147.371 301.009C132.596 306.473 107.986 303.468 107.986 303.468L103.101 295.915L91.113 292.123L92.977 289.624L120.166 275.082L133.737 266.003L135.834 261.463L131.913 255.003L126.682 254.159H122.761L118.688 258.546L116.767 265.239L114.687 270.237L108.62 275.7L102.048 281.292L98.6896 283.172L99.1958 280.425L104.225 273.21L109.07 267.561L112.573 260.796L114.381 255.67L114.221 246.366L111.577 242.566L104.442 242.421L100.763 245.257L100.915 250.721L100.53 261.487L98.6816 271.876L93.8367 278.03L92.0691 281.895L92.3664 279.726L95.0981 264.002L96.3676 249.797L91.4102 244.341L84.4201 244.02L79.2217 247.531L78.6432 255.268L83.7854 259.655C83.7854 259.655 90.2532 265.504 86.5332 277.886C82.8132 290.267 75.582 295.072 75.582 295.072L75.5901 295.04Z" fill="#FF3939"/>
<path d="M78.6508 310.386C78.5624 310.386 78.4821 310.377 78.3937 310.353C71.6768 308.883 54.105 297.843 53.3578 297.377C52.9481 297.12 52.7311 296.638 52.8115 296.156C52.8918 295.674 53.2534 295.288 53.7355 295.184C54.1533 295.088 64.0519 292.894 73.6935 295.184C74.3443 295.337 74.738 295.987 74.5853 296.638C74.4326 297.289 73.7818 297.683 73.131 297.53C67.1693 296.108 60.9666 296.542 57.3671 297.016C62.6298 300.214 74.0952 306.947 78.9079 307.999C79.5587 308.144 79.9685 308.787 79.8239 309.437C79.7033 310 79.2052 310.386 78.6508 310.386Z" fill="black"/>
<path d="M88.333 321.561C87.8188 321.561 87.2966 321.505 86.7743 321.385C84.4282 320.854 82.5722 319.215 81.9294 317.118C81.4233 315.463 79.9529 312.756 78.0969 309.333C76.2249 305.878 73.8948 301.587 71.6612 296.71C71.5166 296.397 71.5166 296.035 71.6612 295.722C71.8058 295.409 72.0629 295.168 72.3923 295.063C81.4956 292.123 88.7589 281.662 89.6587 270.172C90.0203 265.528 87.6099 263.945 83.9542 261.559C83.0623 260.98 82.1464 260.378 81.2063 259.687C78.3701 257.598 76.8355 254.039 77.3015 250.616C77.7755 247.137 80.2261 244.317 84.0184 242.87C87.3608 241.601 90.9443 242.139 93.6198 244.317C96.8176 246.928 98.1915 251.323 97.38 256.377C97.0586 258.353 96.7614 260.715 96.44 263.222C95.4678 270.887 94.359 279.581 91.9808 284.281C91.6754 284.875 90.9523 285.108 90.3578 284.811C89.7632 284.506 89.5302 283.783 89.8275 283.188C92.0209 278.857 93.1458 270.019 94.0457 262.909C94.367 260.386 94.6724 258 94.9937 255.983C95.6686 251.797 94.6081 248.221 92.0932 246.173C90.1007 244.55 87.401 244.148 84.8701 245.112C81.8812 246.245 80.0413 248.318 79.6878 250.929C79.3423 253.492 80.4912 256.16 82.6285 257.734C83.5123 258.385 84.4041 258.972 85.2718 259.534C89.0079 261.977 92.5351 264.291 92.0611 270.357C91.121 282.441 83.9381 293.127 74.4171 296.895C76.4498 301.21 78.5308 305.042 80.2341 308.176C82.1544 311.719 83.673 314.515 84.2514 316.403C84.6451 317.681 85.8262 318.685 87.3287 319.031C88.8392 319.376 90.3417 318.942 91.3299 317.866C91.7799 317.375 92.5432 317.343 93.0333 317.793C93.5234 318.243 93.5555 319.006 93.1056 319.497C91.8763 320.83 90.173 321.553 88.3571 321.553L88.333 321.561Z" fill="black"/>
<path d="M89.0071 286.972C88.7098 286.972 88.4126 286.86 88.1796 286.643C87.6975 286.185 87.6814 285.422 88.1394 284.94C96.7284 275.917 100.874 268.003 100.473 261.406C100.32 258.867 99.9985 256.674 99.7173 254.737C98.9942 249.788 98.4799 246.213 101.726 242.967C103.815 240.878 106.515 240.002 109.142 240.556C112.018 241.167 114.38 243.344 115.618 246.542C117.948 252.552 114.003 262.877 108.853 269.393C107.969 270.509 107.149 271.522 106.386 272.462C103.02 276.616 100.802 279.364 98.8013 284C98.5362 284.61 97.8291 284.891 97.2185 284.626C96.6079 284.361 96.3267 283.654 96.5918 283.043C98.721 278.102 101.155 275.097 104.522 270.943C105.277 270.003 106.097 268.999 106.965 267.898C111.617 262.017 115.304 252.383 113.376 247.41C112.436 244.983 110.717 243.344 108.652 242.91C106.812 242.525 104.956 243.143 103.437 244.67C101.043 247.064 101.421 249.668 102.112 254.392C102.401 256.377 102.73 258.618 102.883 261.262C103.325 268.549 98.954 277.082 89.8909 286.603C89.6579 286.852 89.3365 286.98 89.0152 286.98L89.0071 286.972Z" fill="black"/>
<path d="M88.4052 294.404C88.0356 294.404 87.666 294.235 87.433 293.906C87.0393 293.368 87.1598 292.612 87.6981 292.219C90.0362 290.515 95.797 287.269 102.474 283.509C113.979 277.033 131.366 267.239 133.11 263.76C134.219 261.543 133.849 258.915 132.154 256.899C130.748 255.227 128.12 253.773 124.955 254.713C121.074 255.87 119.837 259.695 118.535 263.744C117.876 265.793 117.193 267.906 116.133 269.633C112.115 276.158 105.599 281.42 96.2228 285.719C95.6202 286 94.9052 285.735 94.6239 285.124C94.3427 284.522 94.6159 283.807 95.2185 283.525C104.153 279.428 110.316 274.47 114.084 268.372C114.992 266.902 115.602 265.014 116.245 263.013C117.619 258.755 119.17 253.926 124.272 252.415C127.855 251.347 131.583 252.48 134.002 255.364C136.324 258.128 136.806 261.768 135.263 264.853C133.351 268.685 120.391 276.198 103.655 285.622C97.0504 289.342 91.3458 292.556 89.1202 294.179C88.9033 294.332 88.6542 294.412 88.4132 294.412L88.4052 294.404Z" fill="black"/>
<path d="M95.9335 319.44C93.8525 319.44 91.7314 318.838 89.9075 317.649C89.3531 317.287 89.1924 316.54 89.554 315.978C89.9155 315.423 90.6627 315.262 91.2252 315.624C94.3105 317.641 97.6207 317.175 99.5089 316.162C101.076 315.327 101.984 314.065 102 312.707C102 312.097 102.466 311.591 103.068 311.526C103.301 311.494 108.901 310.795 108.62 306.424C108.315 301.668 101.1 294.332 90.0521 293.207C89.3933 293.143 88.9112 292.549 88.9755 291.89C89.0398 291.231 89.6343 290.757 90.2932 290.813C102 292.002 110.613 299.916 111.022 306.272C111.328 311.044 107.182 313.149 104.289 313.768C103.912 315.6 102.602 317.247 100.634 318.3C99.1955 319.071 97.5645 319.448 95.9174 319.448L95.9335 319.44Z" fill="black"/>
<path d="M98.6969 307.573C98.6969 307.573 98.6487 307.573 98.6165 307.573C95.8124 307.3 93.611 305.83 91.6746 304.536C88.5491 302.447 86.0745 300.8 81.8001 303.596C81.4305 303.837 80.9323 303.733 80.6913 303.363C80.4502 302.994 80.5547 302.496 80.9243 302.255C86.0905 298.88 89.3847 301.082 92.5745 303.211C94.4466 304.456 96.3749 305.75 98.7772 305.983C99.2191 306.023 99.5405 306.417 99.5003 306.858C99.4602 307.276 99.1066 307.582 98.7049 307.582L98.6969 307.573Z" fill="black"/>
<path d="M89.7309 308.055C87.2241 308.055 83.7612 307.428 82.5721 302.029C82.4757 301.595 82.7489 301.169 83.1827 301.073C83.6086 300.977 84.0424 301.25 84.1388 301.684C85.0628 305.878 87.4812 306.448 89.7229 306.448C90.1648 306.448 90.5264 306.81 90.5264 307.252C90.5264 307.694 90.1648 308.055 89.7229 308.055H89.7309Z" fill="black"/>
<path d="M94.286 329.588C93.129 329.588 91.9399 329.291 90.7829 328.681C87.4084 326.905 85.464 323.161 86.2675 319.979C86.4282 319.336 87.095 318.943 87.7298 319.103C88.3725 319.264 88.7662 319.923 88.6055 320.566C88.011 322.904 89.8188 325.443 91.9078 326.543C92.9201 327.082 95.5314 328.046 97.7971 325.467C98.239 324.969 98.9943 324.92 99.5005 325.354C99.9986 325.796 100.047 326.559 99.613 327.058C98.1507 328.721 96.2706 329.58 94.294 329.58L94.286 329.588Z" fill="black"/>
<path d="M99.7736 326.776C98.3595 326.776 97.0016 326.463 95.8125 325.828C95.226 325.515 95.001 324.784 95.3144 324.197C95.6277 323.611 96.3589 323.386 96.9454 323.699C98.9621 324.776 101.718 324.543 104.136 323.088C106.997 321.369 108.636 318.468 108.636 315.126C108.636 314.459 109.174 313.921 109.841 313.921C110.508 313.921 111.046 314.459 111.046 315.126C111.046 319.272 108.925 323.024 105.382 325.153C103.598 326.222 101.638 326.768 99.7816 326.768L99.7736 326.776Z" fill="black"/>
<path d="M104.812 334.634C103.703 334.634 102.586 334.53 101.493 334.305C97.8215 333.558 94.9612 331.589 93.6355 328.914C93.3382 328.319 93.5873 327.596 94.1818 327.299C94.7764 327.001 95.4995 327.25 95.7968 327.845C96.785 329.854 99.0428 331.34 101.975 331.943C105.969 332.762 110.275 331.806 112.951 329.508C113.457 329.074 114.22 329.13 114.654 329.637C115.088 330.143 115.032 330.906 114.525 331.34C112.059 333.453 108.467 334.634 104.812 334.634Z" fill="black"/>
<path d="M114.782 331.725C112.757 331.725 110.516 331.267 108.105 330.126C107.503 329.845 107.246 329.122 107.535 328.519C107.816 327.917 108.539 327.66 109.142 327.949C116.453 331.404 121.788 327.451 123.588 324.88C123.974 324.333 124.721 324.205 125.267 324.582C125.814 324.96 125.942 325.715 125.565 326.262C123.966 328.543 120.117 331.725 114.79 331.725H114.782Z" fill="black"/>
<path d="M126.778 326.182C124.111 326.182 121.748 325.451 119.724 324.615C119.105 324.366 118.816 323.659 119.065 323.04C119.314 322.422 120.021 322.132 120.64 322.381C124.858 324.117 129.63 325.057 135.881 320.252C136.412 319.851 137.167 319.947 137.569 320.477C137.97 321.008 137.874 321.763 137.344 322.164C133.423 325.177 129.887 326.174 126.77 326.174L126.778 326.182Z" fill="black"/>
<path d="M116.454 309.068C114.188 309.068 111.93 308.947 109.705 308.69C109.046 308.618 108.572 308.015 108.644 307.356C108.716 306.698 109.335 306.216 109.978 306.296C131.374 308.746 155.47 298.663 164.838 283.333C165.184 282.763 165.931 282.586 166.493 282.931C167.064 283.277 167.24 284.024 166.895 284.586C158.057 299.049 136.829 309.068 116.454 309.068Z" fill="black"/>
<path d="M168.751 289.439C168.197 289.439 167.699 289.054 167.578 288.483C164.364 273.483 172.423 253.533 175.669 249.073C175.597 248.559 175.532 248.005 175.46 247.378C174.568 239.818 172.929 225.741 148.062 227.195C130 228.248 117.844 224.962 112.903 217.682C109.295 212.363 109.552 205.188 113.674 196.35C113.955 195.748 114.67 195.483 115.273 195.764C115.875 196.045 116.141 196.76 115.859 197.363C112.123 205.373 111.794 211.753 114.895 216.324C119.338 222.865 130.756 225.789 147.917 224.785C175.05 223.202 176.939 239.336 177.846 247.089C177.943 247.908 178.023 248.607 178.128 249.202C178.192 249.564 178.079 249.933 177.838 250.206C175.251 253.091 166.863 273.659 169.932 287.969C170.069 288.62 169.659 289.263 169.008 289.399C168.92 289.415 168.84 289.423 168.751 289.423V289.439Z" fill="black"/>
<path d="M113.746 196.205C113.321 196.205 112.911 195.98 112.694 195.586C112.372 195.008 112.581 194.269 113.16 193.947C118.945 190.725 120.447 182.747 121.902 175.034C122.44 172.181 122.946 169.482 123.669 167.088C125.397 161.367 128.152 157.775 131.447 156.98C133.005 156.602 135.392 156.699 137.907 159.31C140.944 162.46 139.618 168.301 138.075 175.066C136.878 180.329 135.52 186.298 136.131 191.609C136.203 192.268 135.729 192.871 135.07 192.943C134.395 193.023 133.809 192.541 133.737 191.882C133.078 186.162 134.484 179.983 135.729 174.528C137.055 168.702 138.308 163.199 136.171 160.981C134.789 159.543 133.391 158.989 132.009 159.318C129.655 159.888 127.397 163.046 125.975 167.778C125.292 170.044 124.794 172.68 124.272 175.476C122.785 183.358 121.106 192.284 114.333 196.052C114.148 196.157 113.947 196.205 113.746 196.205Z" fill="black"/>
<path d="M149.316 197.411C148.93 197.411 148.544 197.226 148.311 196.873C146.608 194.318 147.837 190.204 149.026 186.219C149.806 183.615 150.689 180.667 150.223 179.325C149.709 177.847 148.022 175.975 145.547 175.364C143.788 174.93 141.048 175.018 137.979 177.887C137.497 178.337 136.733 178.313 136.275 177.831C135.817 177.34 135.85 176.585 136.332 176.127C139.337 173.315 142.816 172.214 146.118 173.026C149.034 173.741 151.597 175.958 152.497 178.53C153.22 180.602 152.304 183.664 151.34 186.91C150.36 190.196 149.243 193.924 150.32 195.539C150.689 196.093 150.537 196.84 149.982 197.21C149.774 197.347 149.549 197.411 149.316 197.411Z" fill="black"/>
<path d="M165.57 202.946C165.273 202.946 164.983 202.842 164.75 202.625C164.413 202.311 163.4 201.371 164.308 192.887C164.598 190.219 163.858 188.187 162.179 187.03C160.13 185.607 156.796 185.64 153.896 187.11C153.301 187.407 152.578 187.174 152.273 186.58C151.975 185.985 152.208 185.262 152.803 184.957C156.531 183.077 160.741 183.109 163.545 185.045C165.964 186.716 167.08 189.593 166.703 193.144C166.052 199.226 166.486 200.833 166.574 201.074C166.879 201.524 166.839 202.143 166.454 202.561C166.213 202.818 165.891 202.946 165.57 202.946Z" fill="black"/>
<path d="M177.372 209.269C176.866 209.269 176.392 208.948 176.223 208.434C175.829 207.253 176.456 205.951 177.187 204.449C177.95 202.874 178.81 201.082 178.641 199.322C178.529 198.19 177.95 197.274 176.97 196.687C175.387 195.747 172.993 195.795 170.567 196.824C169.956 197.081 169.249 196.8 168.984 196.181C168.727 195.57 169.008 194.863 169.626 194.598C172.8 193.256 175.926 193.256 178.207 194.606C179.855 195.586 180.867 197.177 181.052 199.081C181.285 201.508 180.224 203.717 179.372 205.485C179.019 206.224 178.473 207.349 178.529 207.678C178.738 208.313 178.392 208.988 177.766 209.197C177.637 209.237 177.516 209.261 177.388 209.261L177.372 209.269Z" fill="black"/>
<path d="M198.608 223.41C198.543 223.41 198.487 223.41 198.423 223.394C197.764 223.298 197.314 222.679 197.411 222.02C197.965 218.397 198.535 213.439 197.137 212.218C196.149 211.358 193.61 211.856 190.091 212.885C189.665 213.013 189.191 212.885 188.886 212.563C188.572 212.242 188.468 211.768 188.613 211.342C189.617 208.345 188.725 206.28 187.801 205.067C186.323 203.139 183.679 202.046 180.915 202.215C180.225 202.255 179.678 201.749 179.638 201.082C179.598 200.415 180.104 199.845 180.771 199.804C184.33 199.588 187.753 201.042 189.713 203.597C191.119 205.429 191.69 207.662 191.385 210.025C194.88 209.141 197.17 209.036 198.728 210.402C200.584 212.033 200.873 215.271 199.797 222.374C199.708 222.968 199.194 223.394 198.608 223.394V223.41Z" fill="black"/>
<path d="M135.054 211.013C134.958 211.013 134.861 211.005 134.765 210.981C134.122 210.821 133.729 210.17 133.889 209.519C135.36 203.597 132.588 198.986 129.39 197.202C127.084 195.916 124.778 196.109 123.219 197.708C122.753 198.182 121.99 198.19 121.516 197.732C121.042 197.266 121.034 196.503 121.492 196.029C123.83 193.634 127.301 193.281 130.563 195.097C134.532 197.314 138.003 202.955 136.227 210.097C136.091 210.644 135.601 211.013 135.054 211.013Z" fill="black"/>
<path d="M151.557 214.259C151.453 214.259 151.34 214.243 151.228 214.211C150.585 214.034 150.215 213.367 150.392 212.724C151.188 209.88 149.42 205.558 146.672 203.661C144.471 202.143 141.988 202.312 139.489 204.143C138.951 204.537 138.196 204.425 137.802 203.886C137.408 203.348 137.521 202.593 138.059 202.199C142.591 198.873 146.254 200.44 148.038 201.677C151.646 204.168 153.783 209.527 152.706 213.367C152.554 213.898 152.071 214.251 151.549 214.251L151.557 214.259Z" fill="black"/>
<path d="M168.519 214.741C168.028 214.741 167.562 214.436 167.386 213.954C166.438 211.367 164.686 209.398 162.581 208.555C160.596 207.759 158.379 207.96 155.993 209.141C155.398 209.439 154.675 209.189 154.378 208.595C154.08 208 154.329 207.277 154.924 206.98C157.913 205.502 160.87 205.277 163.481 206.313C166.221 207.406 168.47 209.889 169.651 213.118C169.884 213.745 169.563 214.436 168.936 214.661C168.8 214.709 168.663 214.733 168.519 214.733V214.741Z" fill="black"/>
<path d="M181.936 230.151C181.815 230.151 181.695 230.135 181.574 230.095C180.94 229.894 180.586 229.219 180.787 228.585C181.831 225.242 181.181 221.619 179.132 219.369C178.023 218.148 176.047 216.83 172.913 217.489C172.262 217.625 171.619 217.208 171.483 216.557C171.346 215.906 171.764 215.263 172.415 215.127C175.733 214.436 178.746 215.36 180.916 217.746C183.527 220.622 184.378 225.162 183.085 229.308C182.924 229.822 182.45 230.151 181.936 230.151Z" fill="black"/>
<path d="M190.043 243.955C189.979 243.955 189.915 243.955 189.842 243.931C189.408 243.827 189.151 243.385 189.256 242.959C189.272 242.911 190.477 237.977 188.669 235.27C188.043 234.33 187.143 233.783 185.905 233.599C185.463 233.534 185.166 233.125 185.23 232.683C185.295 232.241 185.704 231.943 186.146 232.008C187.834 232.265 189.135 233.06 190.011 234.378C192.213 237.68 190.871 243.12 190.814 243.353C190.726 243.714 190.397 243.955 190.035 243.955H190.043Z" fill="black"/>
<path d="M132.338 159.23C132.218 159.23 132.097 159.214 131.977 159.174C131.342 158.973 130.988 158.298 131.189 157.664C133.64 149.894 138.372 141.594 143.378 132.805C150.159 120.905 157.173 108.604 158.258 97.5567C159.535 84.4522 158.394 71.3638 157.711 63.5381C157.326 59.0789 157.173 57.2389 157.422 56.4033C157.575 55.8731 158.21 54.6759 160.749 54.9009C164.943 55.2785 171.981 59.4726 173.017 69.1302C174.343 81.4232 169.603 112.204 169.402 113.505C169.297 114.164 168.687 114.614 168.028 114.51C167.369 114.405 166.919 113.795 167.024 113.136C167.072 112.822 171.917 81.3669 170.631 69.3873C169.892 62.5097 165.963 59.4967 163.697 58.3076C161.809 57.3193 160.274 57.1988 159.72 57.3113C159.68 58.187 159.897 60.6858 160.122 63.3212C160.813 71.2272 161.962 84.4602 160.66 97.7816C159.527 109.343 152.384 121.869 145.475 133.986C140.525 142.663 135.857 150.85 133.487 158.371C133.326 158.885 132.852 159.214 132.338 159.214V159.23Z" fill="black"/>
<path d="M151.557 165.087C151.509 165.087 151.469 165.087 151.421 165.087C150.762 165.015 150.28 164.42 150.352 163.754C151.356 154.674 160.508 132.796 171.097 121.186C180.482 110.886 189.971 97.717 197.13 85.0464C202.111 76.2405 200.022 56.9253 195.924 51.9197C194.992 50.7788 194.414 50.9716 194.221 51.0359C191.312 51.984 188.275 64.1082 185.592 74.8103C183.246 84.1707 180.586 94.7844 177.244 102.152C173.733 109.898 170.125 114.461 165.947 119.74C161.054 125.927 154.964 133.616 146.881 149.396C146.576 149.99 145.853 150.223 145.258 149.918C144.663 149.613 144.43 148.89 144.736 148.295C152.923 132.306 159.094 124.512 164.051 118.245C168.301 112.878 171.652 108.636 175.042 101.156C178.288 93.989 180.924 83.4877 183.246 74.2238C186.99 59.2714 189.489 50.0476 193.466 48.746C194.342 48.4648 196.061 48.2961 197.78 50.3931C202.738 56.4432 204.393 77.0841 199.219 86.2356C191.971 99.0508 182.37 112.38 172.865 122.809C162.749 133.905 153.678 155.462 152.738 164.019C152.674 164.637 152.152 165.087 151.541 165.087H151.557Z" fill="black"/>
<path d="M165.569 158.82C165.408 158.82 165.248 158.788 165.087 158.724C164.476 158.459 164.195 157.752 164.46 157.149C164.589 156.86 167.762 149.741 187.062 128.763C205.332 108.901 209.8 92.9766 211.913 78.7231C212.877 72.2151 211.455 68.6316 209.719 68.0612C208.217 67.563 205.332 69.1218 202.127 75.1397C201.813 75.7262 201.082 75.9512 200.495 75.6378C199.909 75.3245 199.684 74.5933 199.997 74.0068C203.364 67.6916 207.172 64.6867 210.474 65.7713C213.881 66.8962 215.343 71.9901 214.291 79.0767C212.122 93.7157 207.534 110.058 188.829 130.394C169.956 150.906 166.694 158.041 166.662 158.105C166.461 158.555 166.019 158.828 165.553 158.828L165.569 158.82Z" fill="black"/>
<path d="M171.997 157.864C171.627 157.864 171.258 157.695 171.025 157.366C170.631 156.827 170.752 156.072 171.29 155.678C171.426 155.582 184.965 145.691 199.435 132.643C214.195 119.338 221.9 101.557 221.787 93.8279C221.739 90.5899 220.863 88.3322 219.49 87.9224C217.931 87.4564 214.757 89.1597 210.555 95.3544C210.185 95.9088 209.43 96.0454 208.884 95.6758C208.33 95.2982 208.193 94.551 208.562 94.0046C214.09 85.8575 217.931 84.9496 220.181 85.6165C222.671 86.3637 224.134 89.3445 224.198 93.8038C224.334 103.188 215.52 121.395 201.05 134.443C186.483 147.571 172.849 157.534 172.712 157.631C172.495 157.783 172.246 157.864 172.005 157.864H171.997Z" fill="black"/>
<path d="M161.472 185.977C161.223 185.977 160.974 185.897 160.757 185.736C160.219 185.342 160.114 184.587 160.508 184.049C167.313 174.873 185.592 156.723 197.628 150.295C204.851 146.431 209.953 140.115 210.315 134.579C210.515 131.558 209.262 128.987 206.691 127.139C206.153 126.754 206.024 125.999 206.418 125.46C206.803 124.922 207.559 124.793 208.097 125.187C211.375 127.541 212.974 130.843 212.717 134.74C212.291 141.176 206.82 148.118 198.761 152.424C187.014 158.699 169.129 176.488 162.444 185.487C162.211 185.808 161.842 185.977 161.472 185.977Z" fill="black"/>
<path d="M176.938 185.977C176.777 185.977 176.617 185.945 176.456 185.881C175.845 185.616 175.564 184.909 175.829 184.298C179.349 176.175 194.028 164.34 203.324 158.531C209.012 154.972 212.644 150.199 212.154 146.921C211.913 145.29 210.603 144.149 208.265 143.523C207.622 143.354 207.237 142.695 207.413 142.044C207.582 141.401 208.249 141.024 208.884 141.193C212.138 142.06 214.146 143.964 214.532 146.56C215.183 150.89 211.286 156.394 204.593 160.572C194.132 167.112 181.004 178.409 178.039 185.254C177.838 185.712 177.396 185.977 176.93 185.977H176.938Z" fill="black"/>
<path d="M186.5 194.462C186.379 194.462 186.251 194.446 186.13 194.406C185.496 194.205 185.15 193.522 185.351 192.888C185.496 192.43 189.039 181.623 194.478 177.823C196.013 176.754 201.027 172.93 201.179 168.695C201.244 166.847 200.36 165.192 198.456 163.65C197.941 163.232 197.861 162.468 198.279 161.954C198.697 161.44 199.46 161.36 199.974 161.778C202.465 163.802 203.678 166.164 203.582 168.784C203.389 173.99 198.11 178.216 195.852 179.799C191.08 183.134 187.673 193.522 187.641 193.627C187.472 194.133 187.006 194.462 186.492 194.462H186.5Z" fill="black"/>
<path d="M201.243 189.039C200.938 189.039 200.632 188.927 200.399 188.694C199.925 188.227 199.917 187.464 200.383 186.99C202.858 184.459 205.429 176.73 204.039 174.561C203.91 174.36 203.509 173.741 201.645 174.4C201.018 174.625 200.327 174.295 200.102 173.669C199.877 173.042 200.206 172.351 200.833 172.126C204.023 170.993 205.477 172.351 206.064 173.259C208.426 176.947 204.85 185.857 202.103 188.669C201.87 188.91 201.556 189.031 201.243 189.031V189.039Z" fill="black"/>
<path d="M199.901 197.073C199.443 197.073 199.001 196.808 198.8 196.366C198.527 195.764 198.8 195.049 199.403 194.768C199.483 194.727 207.51 191.088 211.029 188.565C212.09 187.81 212.548 186.821 212.234 185.986C211.76 184.724 209.414 183.423 204.328 183.913C203.677 183.969 203.075 183.495 203.011 182.828C202.946 182.169 203.428 181.575 204.095 181.51C209.551 180.98 213.44 182.338 214.492 185.142C215.199 187.014 214.388 189.127 212.427 190.525C208.715 193.185 200.737 196.808 200.399 196.961C200.239 197.033 200.07 197.065 199.901 197.065V197.073Z" fill="black"/>
<path d="M202.392 216.124C202.264 216.124 202.127 216.099 201.999 216.059C201.372 215.842 201.034 215.159 201.251 214.525C202.465 210.981 206.434 206.739 213.054 201.934C215.77 199.958 218.18 195.571 217.337 192.662C216.847 190.975 215.256 190.035 212.612 189.866C211.945 189.826 211.447 189.248 211.487 188.589C211.528 187.93 212.114 187.416 212.765 187.464C217.706 187.777 219.201 190.437 219.651 191.996C220.816 196.005 217.907 201.388 214.468 203.887C208.354 208.338 204.57 212.283 203.533 215.312C203.364 215.81 202.89 216.124 202.392 216.124Z" fill="black"/>
<path d="M215.208 217.12C214.919 217.12 214.637 217.015 214.404 216.814C213.906 216.372 213.866 215.609 214.316 215.111C218.269 210.716 219.225 206.675 218.422 204.618C217.964 203.453 216.911 202.786 215.296 202.641C214.629 202.577 214.147 201.99 214.203 201.332C214.268 200.665 214.862 200.183 215.513 200.239C218.044 200.472 219.868 201.717 220.663 203.742C221.997 207.141 220.245 212.114 216.108 216.726C215.867 216.991 215.537 217.128 215.208 217.128V217.12Z" fill="black"/>
<path d="M217.73 223.33C217.296 223.33 216.942 222.985 216.926 222.551C216.846 220.068 215.793 218.156 214.186 217.561C211.985 216.75 208.9 218.341 205.501 222.053C205.204 222.382 204.698 222.398 204.368 222.101C204.039 221.803 204.023 221.289 204.32 220.968C209.285 215.553 212.732 215.303 214.749 216.051C216.982 216.878 218.429 219.345 218.533 222.494C218.549 222.936 218.204 223.306 217.754 223.322C217.746 223.322 217.738 223.322 217.73 223.322V223.33Z" fill="black"/>
<path d="M234.755 222.174C234.538 222.174 234.322 222.117 234.121 221.997C233.55 221.651 233.373 220.904 233.727 220.342C233.751 220.302 236.419 215.874 236.17 210.74C236.089 209.029 235.165 207.647 233.59 206.86C231.18 205.662 226.648 205.711 221.129 209.463C220.582 209.84 219.827 209.696 219.458 209.141C219.08 208.587 219.225 207.84 219.779 207.47C225.194 203.79 230.762 202.746 234.675 204.698C237.037 205.879 238.467 208.033 238.588 210.62C238.877 216.525 235.92 221.394 235.792 221.603C235.567 221.973 235.165 222.174 234.763 222.174H234.755Z" fill="black"/>
<path d="M234.434 207.157C234.017 207.157 233.607 206.94 233.39 206.546C233.06 205.967 233.261 205.228 233.84 204.899C234.555 204.489 235.278 204.087 235.993 203.686C243.73 199.339 251.034 195.241 254.505 187.351C256.722 182.322 257.839 176.472 258.659 172.206C259.43 168.181 259.872 166.027 260.74 165.023C261.615 164.003 262.652 164.027 263.327 164.388C265.295 165.441 265.777 169.98 264.436 174.713C262.821 180.401 263.64 185.399 263.648 185.455C263.761 186.114 263.319 186.733 262.66 186.845C262.017 186.958 261.382 186.516 261.27 185.865C261.23 185.64 260.338 180.297 262.114 174.062C263.11 170.543 262.789 167.907 262.387 166.895C261.945 167.859 261.455 170.398 261.021 172.664C260.177 177.043 259.028 183.045 256.706 188.323C252.914 196.953 244.911 201.444 237.166 205.791C236.451 206.192 235.736 206.594 235.021 206.996C234.836 207.1 234.627 207.157 234.426 207.157H234.434Z" fill="black"/>
<path d="M258.225 191.481C257.888 191.481 257.558 191.344 257.325 191.079C256.883 190.581 256.931 189.818 257.43 189.376C265.344 182.362 270.261 170.31 269.666 159.375C269.265 151.927 265.737 147.556 262.628 143.707C261.021 141.723 259.502 139.843 258.498 137.705C256.674 133.825 257.116 128.923 259.591 125.501C262.049 122.11 266.131 120.584 271.072 121.194C273.587 121.508 275.483 122.544 276.705 124.271C279.541 128.289 278.046 134.957 276.849 140.317C276.399 142.317 276.014 144.045 275.965 145.194C275.347 159.101 277.09 167.096 277.114 167.176C277.259 167.827 276.849 168.47 276.198 168.614C275.556 168.759 274.905 168.349 274.76 167.707C274.688 167.369 272.928 159.351 273.555 145.089C273.611 143.731 274.021 141.907 274.495 139.794C275.532 135.158 276.954 128.811 274.736 125.661C273.909 124.488 272.615 123.813 270.783 123.588C265.601 122.946 262.909 125.043 261.551 126.915C259.599 129.606 259.245 133.624 260.684 136.685C261.567 138.557 262.998 140.333 264.508 142.205C267.85 146.343 271.635 151.027 272.085 159.254C272.719 170.88 267.473 183.712 259.044 191.192C258.811 191.393 258.53 191.497 258.249 191.497L258.225 191.481Z" fill="black"/>
<path d="M274.117 173.331C273.941 173.331 273.756 173.291 273.587 173.203C272.993 172.905 272.743 172.182 273.041 171.588C279.79 157.905 286.659 136.195 285.743 126.915C285.326 122.705 283.614 120.118 281.798 117.386C279.541 113.979 277.211 110.46 277.982 104.081C278.962 95.9497 284.41 87.6499 287.511 87.9472C290.653 88.2445 302.062 103.406 301.419 113.329C301.122 117.957 297.787 126.449 294.252 135.44C290.347 145.387 285.92 156.659 286.426 161.335C286.499 161.994 286.025 162.589 285.358 162.661C284.715 162.733 284.104 162.259 284.032 161.593C283.462 156.33 287.808 145.258 292.01 134.556C295.321 126.136 298.735 117.426 299.017 113.176C299.595 104.274 289.407 91.611 287.262 90.3817C285.816 90.9361 281.268 97.0103 280.376 104.37C279.709 109.866 281.614 112.734 283.807 116.052C285.615 118.784 287.664 121.877 288.146 126.682C289.206 137.4 281.316 160.267 275.21 172.656C275.001 173.082 274.575 173.331 274.125 173.331H274.117Z" fill="black"/>
<path d="M300.237 110.677C299.94 110.677 299.651 110.572 299.418 110.356C298.928 109.906 298.903 109.142 299.353 108.652L301.105 106.78C309.324 97.9902 317.078 89.6905 318.532 82.5075C318.765 81.3586 318.966 80.2096 319.175 79.0768C320.42 72.0786 321.601 65.4661 328.495 61.3926C337.285 56.2022 343.335 58.235 344.46 58.6929C345.151 58.9741 345.593 59.641 345.777 60.6694C346.404 64.2047 344.018 74.4006 340.933 77.2127C340.442 77.6627 339.679 77.6305 339.229 77.1404C338.779 76.6503 338.811 75.887 339.31 75.4371C341.889 73.0749 344.122 62.7424 343.359 60.8462C342.049 60.3722 337.1 59.1027 329.724 63.4575C323.787 66.9606 322.75 72.7615 321.553 79.4865C321.344 80.6355 321.143 81.8005 320.902 82.9735C319.311 90.8234 311.325 99.3642 302.873 108.411L301.129 110.283C300.888 110.54 300.567 110.669 300.245 110.669L300.237 110.677Z" fill="black"/>
<path d="M276.375 181.574C276.263 181.574 276.142 181.558 276.03 181.526C275.395 181.333 275.025 180.666 275.218 180.024C278.32 169.651 288.829 153.574 295.779 142.928C298.173 139.264 300.069 136.364 300.865 134.893C302.231 132.362 302.319 128.377 302.415 124.159C302.52 119.531 302.632 114.742 304.456 111.087C308.104 103.783 319.617 96.9858 329.098 94.0452C329.701 93.8604 330.89 93.7961 332.079 95.4914C334.514 98.9543 336.313 109.07 331.051 116.06C328.142 119.925 325.258 122.255 322.205 124.713C318.838 127.429 315.367 130.233 311.559 135.456C304.4 145.258 295.787 164.187 295.706 164.372C295.433 164.975 294.718 165.248 294.108 164.975C293.505 164.702 293.232 163.987 293.505 163.376C293.858 162.589 302.311 144.037 309.606 134.033C313.6 128.562 317.207 125.653 320.686 122.841C323.619 120.479 326.383 118.237 329.114 114.614C332.513 110.098 332.441 103.839 331.356 99.8542C330.762 97.6848 329.998 96.6323 329.669 96.3993C319.232 99.6694 309.55 106.29 306.601 112.179C305.019 115.345 304.914 119.86 304.818 124.223C304.713 128.739 304.617 133.005 302.978 136.042C302.134 137.601 300.222 140.533 297.787 144.245C291.328 154.128 280.513 170.671 277.516 180.707C277.363 181.229 276.881 181.566 276.359 181.566L276.375 181.574Z" fill="black"/>
<path d="M288.563 169C288.154 169 287.76 168.791 287.535 168.421C287.189 167.851 287.374 167.112 287.937 166.766C296.799 161.391 307.75 153.405 311.936 147.089C312.828 145.748 313.655 144.374 314.459 143.048C317.713 137.673 320.79 132.603 327.194 129.935C332.199 127.846 338.137 128.827 344.854 132.828C345.023 132.932 345.159 133.013 345.256 133.061C345.521 133.206 346.123 133.664 346.011 134.748C345.697 137.705 338.731 148.391 333.147 150.086C327.451 151.822 308.425 160.74 303.596 165.657C303.13 166.131 302.367 166.139 301.893 165.673C301.419 165.207 301.411 164.444 301.877 163.97C307.139 158.611 326.72 149.532 332.448 147.78C336.916 146.423 342.845 137.327 343.544 134.853C337.55 131.293 332.36 130.385 328.118 132.161C322.445 134.523 319.697 139.055 316.516 144.301C315.704 145.643 314.861 147.033 313.945 148.423C309.542 155.068 298.269 163.327 289.19 168.831C288.997 168.952 288.78 169.008 288.563 169.008V169Z" fill="black"/>
<path d="M280.89 190.445C280.448 190.445 280.014 190.196 279.805 189.77C279.508 189.175 279.757 188.452 280.36 188.155C296.236 180.353 300.125 175.942 304.648 169.619C309.903 162.267 321.039 158.676 328.977 157.832C331.757 157.535 332.641 158.989 332.922 159.889C334.272 164.196 326.671 174.432 323.048 176.432C321.473 177.3 319.199 177.839 316.306 178.53C311.285 179.727 304.399 181.366 297.819 185.777C297.264 186.146 296.517 186.002 296.148 185.447C295.778 184.893 295.923 184.146 296.477 183.776C303.419 179.132 310.546 177.429 315.744 176.191C318.347 175.573 320.597 175.034 321.874 174.327C325.104 172.544 331.436 163.224 330.616 160.62C330.576 160.492 330.447 160.106 329.226 160.243C321.192 161.094 311.084 164.758 306.609 171.033C301.234 178.554 296.549 182.9 281.42 190.332C281.251 190.413 281.067 190.453 280.89 190.453V190.445Z" fill="black"/>
<path d="M317.881 101.517C317.672 101.517 317.456 101.461 317.263 101.348C316.692 101.011 316.499 100.272 316.845 99.6933C324.51 86.8298 340.788 70.3428 361.453 66.221C375.674 63.3768 388.514 67.0406 389.052 67.1932C389.687 67.378 390.056 68.0449 389.872 68.6877C389.687 69.3224 389.02 69.692 388.377 69.5072C388.249 69.467 375.546 65.8595 361.927 68.5832C342.041 72.5604 326.326 88.493 318.91 100.931C318.685 101.308 318.283 101.517 317.873 101.517H317.881Z" fill="black"/>
<path d="M412.336 85.4963C411.822 85.4963 411.34 85.1588 411.179 84.6366C410.987 84.0018 411.348 83.3269 411.983 83.1341C416.016 81.9209 419.865 80.1613 420.588 79.2293C409.982 67.2416 400.309 64.2206 389.221 69.4351C388.618 69.7163 387.903 69.4592 387.614 68.8566C387.333 68.254 387.59 67.5389 388.192 67.2496C400.293 61.5611 411.204 64.9035 422.532 77.7911C423.03 78.3535 423.191 79.0445 422.99 79.7435C422.259 82.3065 415.534 84.5803 412.674 85.44C412.561 85.4722 412.441 85.4882 412.328 85.4882L412.336 85.4963Z" fill="black"/>
<path d="M331.878 97.9424C331.588 97.9424 331.299 97.8379 331.074 97.629C330.576 97.1871 330.536 96.4238 330.986 95.9257C349.538 75.3249 376.221 75.7026 387.734 78.7718C388.377 78.9405 388.763 79.6074 388.586 80.2502C388.417 80.8929 387.75 81.2786 387.108 81.1018C374.292 77.6791 349.257 79.2298 332.77 97.5407C332.528 97.8058 332.207 97.9424 331.87 97.9424H331.878Z" fill="black"/>
<path d="M333.243 110.677C332.946 110.677 332.649 110.564 332.416 110.347C331.934 109.889 331.918 109.126 332.376 108.644C349.16 90.9679 363.285 90.4135 363.879 90.3975C364.522 90.3492 365.101 90.9036 365.117 91.5705C365.133 92.2374 364.611 92.7918 363.944 92.8078C363.807 92.8078 350.156 93.4185 334.127 110.299C333.894 110.548 333.573 110.677 333.251 110.677H333.243Z" fill="black"/>
<path d="M339.302 121.957C339.133 121.957 338.964 121.925 338.796 121.845C338.193 121.563 337.928 120.848 338.209 120.246C349.241 96.3748 373.995 80.5386 390.603 79.5503C398.188 79.1004 403.217 80.6913 407.652 82.0973C410.545 83.0133 413.285 83.881 416.506 84.1542C417.173 84.2104 417.663 84.7969 417.607 85.4558C417.551 86.1227 416.956 86.6047 416.306 86.5565C412.811 86.2593 409.95 85.3513 406.921 84.3952C402.478 82.9892 397.882 81.5269 390.747 81.9527C374.831 82.8927 351.056 98.1907 340.395 121.25C340.194 121.692 339.752 121.949 339.302 121.949V121.957Z" fill="black"/>
<path d="M340.476 132.346C340.283 132.346 340.09 132.298 339.913 132.21C339.327 131.896 339.102 131.165 339.415 130.578C349.49 111.552 366.572 97.5883 376.623 95.5636C377.282 95.427 377.909 95.8528 378.045 96.5037C378.174 97.1545 377.756 97.7892 377.105 97.9258C367.552 99.8541 350.985 113.891 341.544 131.703C341.327 132.113 340.909 132.346 340.476 132.346Z" fill="black"/>
<path d="M355.556 137.673C355.291 137.673 355.018 137.585 354.793 137.4C354.279 136.974 354.207 136.219 354.624 135.705C355.227 134.974 369.585 117.732 393.866 110.846C399.787 109.167 404.648 109.135 409.79 109.094C414.458 109.062 419.287 109.022 425.667 107.857C437.309 105.728 446.219 96.3675 446.709 93.1376C446.765 92.7439 446.677 92.6957 446.637 92.6716C446.195 92.4386 445.681 92.1493 445.094 91.8119C440.764 89.3372 432.697 84.7173 419.199 86.734C403.716 89.048 388.161 101.068 380.271 108.026L380.158 108.122C371.971 115.337 360.755 125.228 343.336 134.106C342.741 134.411 342.018 134.17 341.713 133.576C341.407 132.981 341.649 132.258 342.235 131.953C359.381 123.211 370.011 113.843 378.56 106.306L378.672 106.21C388.555 97.4924 403.547 86.6296 418.837 84.3477C433.163 82.2105 441.696 87.0875 446.283 89.7149C446.83 90.0282 447.32 90.3094 447.738 90.5263C448.79 91.0727 449.28 92.1574 449.079 93.4911C448.308 98.577 437.71 108.09 426.092 110.219C419.512 111.424 414.354 111.465 409.806 111.497C404.608 111.537 400.124 111.569 394.516 113.16C370.959 119.845 356.617 137.055 356.48 137.232C356.239 137.521 355.894 137.673 355.548 137.673H355.556Z" fill="black"/>
<path d="M347.883 151.847C347.522 151.847 347.16 151.686 346.927 151.373C346.525 150.842 346.622 150.087 347.152 149.685C365.166 135.874 388.105 128.876 415.326 128.876C423.417 128.876 428.358 130.242 432.327 131.334C436.393 132.459 439.333 133.263 443.833 132.138C450.405 130.491 455.587 127.478 456.431 124.81C456.688 124.007 456.503 123.284 455.861 122.544C448.895 115.313 437.526 114.148 431.596 115.137C428.302 115.683 423.843 117.105 418.676 118.752C413.285 120.472 407.171 122.416 400.261 124.103C398.092 124.633 395.577 125.132 392.917 125.662C378.503 128.53 356.721 132.861 337.623 151.509C337.149 151.975 336.386 151.967 335.92 151.485C335.454 151.011 335.462 150.248 335.944 149.782C355.556 130.635 377.756 126.216 392.451 123.292C395.087 122.769 397.585 122.271 399.699 121.757C406.528 120.094 412.594 118.158 417.945 116.454C423.2 114.783 427.731 113.337 431.202 112.758C437.63 111.69 449.987 112.975 457.636 120.921C458.874 122.344 459.243 123.926 458.729 125.541C457.379 129.832 450.453 132.973 444.419 134.484C439.301 135.761 435.943 134.837 431.684 133.664C427.852 132.612 423.087 131.294 415.326 131.294C388.651 131.294 366.202 138.132 348.614 151.606C348.398 151.774 348.14 151.855 347.883 151.855V151.847Z" fill="black"/>
<path d="M457.74 126.473C457.25 126.473 456.784 126.168 456.607 125.677C456.382 125.051 456.704 124.36 457.322 124.135C463.927 121.724 471.254 117.956 471.568 116.076C471.576 116.028 471.592 115.931 471.343 115.723L471.246 115.642C466.715 111.946 457.29 104.241 441.928 103.984C441.261 103.976 440.731 103.422 440.747 102.755C440.755 102.088 441.269 101.558 441.976 101.574C458.174 101.847 468.41 110.211 472.781 113.778L472.877 113.859C473.737 114.566 474.123 115.49 473.954 116.478C473.263 120.584 461.685 125.107 458.158 126.401C458.021 126.449 457.885 126.473 457.748 126.473H457.74Z" fill="black"/>
<path d="M310.683 188.227C310.249 188.227 309.839 187.994 309.614 187.592C309.301 187.006 309.526 186.275 310.112 185.961C327.66 176.609 339.929 167.016 349.779 159.302C357.597 153.188 363.776 148.351 369.801 145.828C378.423 142.221 391.23 144.278 402.535 146.085C409.099 147.138 415.302 148.134 419.351 147.732C425.345 147.138 428.502 145.475 431.556 143.86C434.014 142.558 436.344 141.329 439.807 140.863C448.758 139.666 456.792 143.699 458.311 144.519C458.994 144.888 460.103 145.885 459.894 148.448C459.524 153.18 454.575 161.729 445.15 165.047C435.894 168.301 429.217 165.401 422.758 162.597C420.789 161.737 418.748 160.853 416.651 160.146C416.226 160.001 374.1 146.182 354.311 170.004C353.885 170.519 353.122 170.591 352.615 170.165C352.101 169.739 352.029 168.976 352.455 168.47C360.441 158.86 372.606 153.847 388.611 153.582C403.515 153.349 416.041 157.398 417.423 157.856C419.616 158.595 421.705 159.503 423.722 160.379C430.037 163.119 435.991 165.706 444.355 162.773C453.072 159.704 457.218 151.806 457.499 148.263C457.572 147.315 457.379 146.76 457.17 146.64C453.289 144.543 446.5 142.398 440.128 143.257C437.091 143.667 435.051 144.744 432.688 145.997C429.579 147.636 426.06 149.5 419.592 150.135C415.221 150.569 408.882 149.548 402.157 148.464C391.174 146.696 378.72 144.703 370.734 148.046C365.005 150.448 358.939 155.189 351.266 161.199C341.335 168.968 328.978 178.634 311.245 188.09C311.068 188.187 310.868 188.235 310.683 188.235V188.227Z" fill="black"/>
<path d="M451.465 200.68C445.045 200.68 437.412 199.861 433.275 197.25C430.157 195.281 428.534 193.2 426.815 190.999C424.292 187.761 421.424 184.089 412.457 179.895C405.539 176.665 380.102 167.272 343.239 182.088C342.62 182.337 341.921 182.04 341.672 181.421C341.423 180.803 341.72 180.104 342.339 179.855C380.102 164.677 406.335 174.383 413.477 177.717C422.966 182.153 426.019 186.065 428.711 189.52C430.366 191.641 431.788 193.473 434.56 195.217C440.996 199.274 457.258 198.455 460.584 197.611C460.383 194.437 459.001 184.772 454.004 181.365C449.432 178.256 445.423 177.878 440.345 177.412C438.698 177.259 436.995 177.099 435.115 176.842C432.134 176.432 427.466 174.881 421.56 172.929C411.565 169.619 399.128 165.497 388.811 164.934C372.035 164.018 358.063 168.196 336.594 176.769C335.983 177.018 335.276 176.713 335.027 176.094C334.778 175.476 335.084 174.777 335.702 174.528C357.492 165.826 371.705 161.584 388.94 162.524C399.577 163.102 412.192 167.28 422.315 170.639C427.875 172.479 432.68 174.07 435.444 174.455C437.276 174.704 438.947 174.865 440.57 175.01C445.785 175.492 450.284 175.91 455.37 179.373C462.577 184.282 463.027 198.174 463.027 198.31C463.027 198.551 462.946 199.162 462.223 199.564C461.195 200.134 456.744 200.68 451.481 200.68H451.465Z" fill="black"/>
<path d="M437.935 222.575C432.263 222.575 425.329 221.378 420.645 217.867C416.675 214.886 414.635 212.195 412.658 209.583C410.312 206.49 408.103 203.574 402.639 200.561C392.941 195.21 372.75 184.082 348.18 190.397C347.53 190.566 346.879 190.172 346.71 189.529C346.541 188.886 346.935 188.227 347.578 188.059C373.072 181.502 393.833 192.944 403.804 198.439C409.717 201.702 412.08 204.819 414.578 208.121C416.45 210.596 418.395 213.159 422.091 215.931C429.748 221.676 443.937 220.438 445.897 218.952C445.865 216.558 444.098 211.849 437.574 208.193C433.95 206.169 430.64 205.871 426.799 205.526C423.063 205.189 418.829 204.819 413.759 202.65C410.256 201.155 407.363 198.094 404.013 194.559C397.167 187.336 388.659 178.345 369.271 174.866C368.612 174.745 368.179 174.119 368.299 173.468C368.42 172.809 369.054 172.375 369.697 172.496C389.864 176.111 399.056 185.817 405.764 192.904C408.93 196.246 411.67 199.138 414.707 200.44C419.423 202.457 423.28 202.802 427.008 203.132C430.945 203.485 434.673 203.815 438.747 206.096C448.316 211.456 448.332 218.502 448.3 219.289C448.268 220.093 447.721 220.76 446.661 221.258C445.078 222.013 441.792 222.567 437.927 222.567L437.935 222.575Z" fill="black"/>
<path d="M401.667 230.457C398.734 230.457 395.954 230.184 393.841 229.525C389.117 228.055 385.839 223.668 382.368 219.024C379.749 215.521 377.041 211.889 373.658 209.591C367.142 205.156 332.674 184.459 294.333 212.548C293.794 212.942 293.039 212.821 292.645 212.291C292.252 211.753 292.372 210.997 292.902 210.604C323.619 188.107 355.452 194.302 375.008 207.599C378.72 210.122 381.548 213.914 384.288 217.578C387.518 221.9 390.571 225.982 394.548 227.219C401.273 229.308 413.936 227.035 416.322 225.693C415.286 223.467 410.867 217.506 406.062 214.79C403.443 213.311 400.864 213.52 397.883 213.769C395.071 214.002 391.881 214.268 388.225 213.078C384.826 211.97 381.87 209.511 378.126 206.402C373.522 202.569 367.793 197.805 358.738 193.522C342.797 185.994 311.936 191.361 288.467 205.743C287.897 206.088 287.158 205.912 286.812 205.341C286.467 204.771 286.643 204.031 287.214 203.686C311.703 188.677 342.902 183.374 359.774 191.345C369.103 195.756 374.968 200.633 379.668 204.546C383.211 207.494 386.008 209.824 388.972 210.789C392.162 211.825 394.974 211.592 397.682 211.367C400.92 211.102 403.981 210.845 407.243 212.693C413.02 215.955 418.186 223.29 418.821 225.508C418.901 225.789 419.006 226.512 418.299 227.203C416.595 228.866 408.689 230.449 401.659 230.449L401.667 230.457Z" fill="black"/>
<path d="M286.033 233.374C285.888 233.374 285.736 233.349 285.591 233.285C284.972 233.036 284.667 232.337 284.916 231.718C286.627 227.388 293.85 213.239 314.821 212.901C324.728 212.741 331.123 207.598 334.056 204.553C336.796 201.709 337.76 199.459 337.856 198.825C337.639 198.359 337.728 197.796 338.121 197.427C338.603 196.977 339.375 197.001 339.825 197.491C340.708 198.447 340.033 200.03 339.817 200.552C337.808 205.268 329.066 215.087 314.861 215.32C295.385 215.633 288.732 228.633 287.158 232.618C286.973 233.092 286.515 233.382 286.041 233.382L286.033 233.374Z" fill="black"/>
<path d="M336.145 206.144C335.606 206.144 335.116 205.783 334.98 205.237C334.811 204.594 335.204 203.935 335.847 203.766C346.437 201.034 350.575 198.158 350.615 198.134C351.153 197.748 351.908 197.877 352.294 198.415C352.68 198.953 352.559 199.709 352.013 200.094C351.836 200.223 347.546 203.236 336.442 206.104C336.337 206.128 336.241 206.144 336.136 206.144H336.145Z" fill="black"/>
<path d="M133.752 324.31C133.085 324.31 132.547 323.771 132.547 323.104C132.547 322.438 133.085 321.899 133.752 321.899C157.285 321.819 188.837 312.716 198.68 303.179C199.154 302.713 199.917 302.729 200.383 303.203C200.849 303.677 200.833 304.44 200.359 304.906C189.183 315.737 155.381 324.229 133.76 324.31H133.752Z" fill="black"/>
<path d="M247.908 271.216C247.844 271.216 247.772 271.216 247.707 271.192C247.274 271.08 247.017 270.646 247.129 270.212C247.507 268.734 247.25 267.456 246.438 266.781C245.193 265.761 242.726 266.066 239.472 267.641C239.07 267.834 238.588 267.665 238.395 267.271C238.203 266.87 238.371 266.396 238.765 266.195C243.69 263.809 246.205 264.524 247.45 265.536C248.768 266.613 249.226 268.509 248.68 270.606C248.583 270.967 248.262 271.208 247.9 271.208L247.908 271.216Z" fill="black"/>
<path d="M260.241 270.437C259.896 270.437 259.574 270.212 259.47 269.867C259.43 269.73 258.257 266.38 252.343 267.175C251.901 267.231 251.499 266.926 251.443 266.484C251.387 266.042 251.692 265.64 252.134 265.584C259.462 264.604 260.956 269.2 261.012 269.401C261.141 269.827 260.9 270.276 260.474 270.405C260.394 270.429 260.313 270.437 260.241 270.437Z" fill="black"/>
<path d="M273.306 276.014C272.776 276.014 272.294 275.66 272.141 275.13C271.394 272.406 269.787 270.751 267.746 270.59C266.099 270.454 264.564 271.361 263.865 272.904C263.592 273.507 262.869 273.772 262.267 273.499C261.664 273.226 261.399 272.51 261.672 271.9C262.781 269.465 265.304 267.971 267.939 268.188C271.008 268.437 273.443 270.791 274.463 274.487C274.64 275.13 274.262 275.789 273.619 275.965C273.515 275.997 273.403 276.005 273.298 276.005L273.306 276.014Z" fill="black"/>
<path d="M291.906 292.026C291.809 292.026 291.713 292.018 291.617 291.994C290.974 291.833 290.572 291.182 290.733 290.54C291.4 287.824 291.351 283.775 289.037 281.292C287.077 279.179 283.791 278.496 279.283 279.259C278.625 279.364 278.006 278.93 277.893 278.271C277.781 277.612 278.223 276.993 278.882 276.881C284.241 275.981 288.258 276.905 290.805 279.653C293.762 282.835 293.915 287.663 293.071 291.118C292.934 291.665 292.444 292.034 291.898 292.034L291.906 292.026Z" fill="black"/>
<path d="M310.988 310.145C310.915 310.145 310.851 310.145 310.779 310.128C310.12 310.016 309.686 309.389 309.799 308.73C310.257 306.135 309.903 304.159 308.746 302.841C307.099 300.969 304.046 300.704 301.772 300.808C301.338 300.824 300.904 300.607 300.679 300.222C300.454 299.836 300.454 299.362 300.679 298.984C301.547 297.546 301.78 294.839 300.495 292.661C299.153 290.395 296.501 289.279 292.862 289.431C292.195 289.463 291.632 288.941 291.608 288.274C291.584 287.607 292.098 287.045 292.765 287.021C298.896 286.772 301.539 289.672 302.575 291.432C303.917 293.69 304.054 296.333 303.508 298.398C306.625 298.551 309.043 299.523 310.562 301.25C312.225 303.138 312.771 305.79 312.177 309.148C312.072 309.735 311.566 310.145 310.988 310.145Z" fill="black"/>
<path d="M320.493 322.815C320.076 322.815 319.674 322.598 319.449 322.212C319.111 321.634 319.312 320.902 319.891 320.565C320.003 320.501 322.872 318.733 323.394 314.274C323.579 312.667 322.711 311.229 321.128 310.538C318.814 309.517 314.877 310.136 310.755 314.901C310.322 315.407 309.558 315.463 309.052 315.029C308.546 314.595 308.49 313.832 308.923 313.326C313.897 307.565 318.991 306.962 322.084 308.328C324.639 309.453 326.085 311.896 325.772 314.555C325.105 320.268 321.249 322.566 321.088 322.654C320.895 322.766 320.686 322.815 320.485 322.815H320.493Z" fill="black"/>
<path d="M303.596 337.864C286.41 337.864 279.822 323.209 273.989 310.241C271.675 305.083 269.481 300.222 266.798 296.639C263.399 292.099 258.731 289.608 253.307 289.439C246.293 289.223 238.524 292.878 233.526 298.76C225.556 308.136 217.481 312.177 193.104 309.791C192.445 309.727 191.955 309.14 192.019 308.473C192.084 307.815 192.662 307.325 193.337 307.389C216.782 309.687 224.118 306.103 231.686 297.193C237.142 290.773 245.675 286.78 253.38 287.021C259.566 287.214 264.869 290.034 268.726 295.184C271.562 298.977 273.812 303.966 276.182 309.245C282.152 322.518 288.338 336.241 305.018 335.414C328.495 334.257 334.618 329.613 334.674 329.564C337.277 327.684 337.888 324.904 336.345 322.092C334.393 318.517 329.419 315.986 324.47 317.938C323.851 318.179 323.152 317.882 322.903 317.255C322.662 316.637 322.968 315.938 323.586 315.689C330.006 313.158 336.04 316.5 338.458 320.935C340.563 324.792 339.655 328.922 336.152 331.461C335.526 331.951 328.897 336.651 305.131 337.816C304.608 337.84 304.086 337.856 303.588 337.856L303.596 337.864Z" fill="black"/>
<path d="M269.602 260.82C269.361 260.82 269.112 260.747 268.903 260.595C268.364 260.209 268.236 259.454 268.622 258.915C269.449 257.758 268.694 256.111 267.521 255.075C265.649 253.428 262.162 252.689 258.506 256.071C258.016 256.521 257.253 256.489 256.803 256.007C256.353 255.517 256.377 254.753 256.867 254.303C261.39 250.117 266.275 250.768 269.112 253.267C271.426 255.308 272.044 258.265 270.582 260.313C270.349 260.643 269.979 260.82 269.602 260.82Z" fill="black"/>
<path d="M274.391 268.397C274.118 268.397 273.852 268.308 273.627 268.124C273.113 267.698 273.041 266.943 273.467 266.428C273.595 266.276 276.673 262.588 282.257 259.8C283.566 259.149 283.751 258.619 283.735 258.562C283.486 257.879 279.71 256.136 270.454 258.257C269.803 258.41 269.16 258 269.008 257.349C268.855 256.698 269.265 256.056 269.915 255.903C278.44 253.943 284.908 254.682 286.001 257.743C286.266 258.474 286.531 260.354 283.333 261.953C278.231 264.5 275.355 267.931 275.323 267.963C275.082 268.252 274.744 268.397 274.391 268.397Z" fill="black"/>
<path d="M287.84 273.298C287.591 273.298 287.342 273.225 287.125 273.065C286.586 272.671 286.474 271.916 286.868 271.377C288.378 269.32 288.908 267.529 288.346 266.34C287.784 265.134 286.04 264.395 283.437 264.243C282.77 264.202 282.264 263.632 282.304 262.973C282.344 262.306 282.907 261.824 283.573 261.84C288.089 262.097 289.849 263.873 290.523 265.319C291.198 266.749 291.447 269.216 288.804 272.807C288.571 273.129 288.201 273.298 287.832 273.298H287.84Z" fill="black"/>
<path d="M296.06 285.486C295.738 285.486 295.409 285.357 295.176 285.1C294.726 284.61 294.758 283.847 295.248 283.397C295.264 283.381 297.064 281.685 298.205 279.002C298.623 278.005 298.759 276.366 297.875 274.735C297.112 273.337 295.344 271.522 291.255 270.814C290.596 270.702 290.162 270.075 290.275 269.424C290.387 268.774 291.014 268.332 291.665 268.444C296.702 269.312 298.968 271.722 299.988 273.586C301.089 275.611 301.258 277.989 300.422 279.95C299.072 283.132 296.967 285.092 296.879 285.172C296.646 285.389 296.357 285.494 296.06 285.494V285.486Z" fill="black"/>
<path d="M309.839 296.389C309.751 296.389 309.655 296.381 309.566 296.357C308.915 296.204 308.514 295.562 308.666 294.911C308.682 294.822 309.172 292.741 310.611 287.872C311.181 285.928 310.04 284.337 309.309 283.566C307.525 281.678 303.966 280.183 300.005 281.099C299.354 281.252 298.711 280.85 298.559 280.199C298.406 279.549 298.808 278.906 299.459 278.753C303.757 277.749 308.305 278.994 311.061 281.911C312.909 283.871 313.592 286.298 312.925 288.555C311.511 293.344 311.02 295.441 311.012 295.457C310.884 296.012 310.386 296.389 309.839 296.389Z" fill="black"/>
<path d="M330.006 302.712C329.942 302.712 329.878 302.712 329.813 302.696C329.155 302.592 328.705 301.973 328.809 301.314C329.122 299.338 328.343 297.24 326.624 295.417C323.418 292.026 317.85 290.283 312.089 290.869C311.43 290.933 310.836 290.451 310.771 289.792C310.707 289.134 311.189 288.539 311.848 288.475C318.332 287.808 324.663 289.841 328.375 293.762C330.625 296.14 331.629 298.952 331.195 301.692C331.099 302.286 330.593 302.712 330.006 302.712Z" fill="black"/>
<path d="M343.994 313.647C343.929 313.647 343.857 313.647 343.793 313.631C343.134 313.519 342.692 312.9 342.805 312.241C342.805 312.209 343.399 308.369 341.423 305.854C339.599 303.54 333.131 301.041 325.739 305.42C325.169 305.757 324.429 305.573 324.092 304.994C323.755 304.424 323.939 303.684 324.518 303.347C332.89 298.382 340.692 301.017 343.327 304.359C345.97 307.718 345.223 312.434 345.191 312.635C345.094 313.222 344.58 313.639 344.002 313.639L343.994 313.647Z" fill="black"/>
<path d="M342.002 335.028C337.792 335.028 333.959 334.594 331.155 333.517C330.536 333.276 330.223 332.585 330.456 331.958C330.697 331.34 331.396 331.026 332.015 331.259C341.873 335.036 366.186 330.191 371.079 327.17C371.248 327.065 372.091 326.519 371.971 326.149C371.505 324.695 365.551 322.349 357.227 322.903C356.769 322.936 356.36 322.711 356.127 322.333C355.894 321.955 355.886 321.481 356.102 321.096C356.199 320.927 358.489 316.845 355.789 315.062C352.768 313.069 345.722 311.631 339.664 316.227C339.133 316.628 338.378 316.524 337.976 315.994C337.575 315.463 337.679 314.708 338.209 314.306C344.484 309.534 352.64 310.096 357.115 313.053C359.927 314.901 359.79 318.075 359.019 320.421C366.66 320.276 373.297 322.405 374.261 325.418C374.526 326.238 374.622 327.813 372.34 329.227C368.436 331.645 353.732 335.036 341.994 335.036L342.002 335.028Z" fill="black"/>
<path d="M465.325 354.134C457.885 354.134 440.305 339.543 436.569 336.37C421.617 323.659 393.504 324.286 373.963 328.68C373.313 328.825 372.67 328.415 372.525 327.773C372.381 327.13 372.79 326.479 373.433 326.334C393.512 321.819 422.5 321.256 438.128 334.538C452.478 346.734 463.734 352.905 465.96 351.619C466.37 351.378 466.201 350.278 466.136 349.94C463.356 335.052 455.129 324.615 440.988 318.035C440.386 317.753 440.12 317.038 440.402 316.436C440.683 315.833 441.398 315.576 442.001 315.849C456.897 322.783 465.566 333.79 468.499 349.498C468.973 352.061 468.033 353.202 467.165 353.708C466.659 354.006 466.032 354.142 465.317 354.142L465.325 354.134Z" fill="black"/>
<path d="M469.326 332.184C465.116 332.184 459.837 328.986 453.329 325.041C449.666 322.815 445.512 320.3 440.964 318.019C425.152 310.072 391.816 315.898 373.907 319.031C373.248 319.152 372.63 318.71 372.509 318.051C372.389 317.392 372.83 316.773 373.489 316.653C391.672 313.471 425.521 307.55 442.041 315.857C446.669 318.187 450.871 320.726 454.575 322.976C463.999 328.681 469.487 331.742 472.757 328.215C473.761 327.13 474.002 325.74 473.496 323.956C471.713 317.657 461.268 309.285 452.012 306.722C451.369 306.545 450.991 305.878 451.168 305.244C451.345 304.601 452.012 304.223 452.646 304.4C462.754 307.196 473.793 316.203 475.81 323.297C476.541 325.885 476.099 328.15 474.517 329.862C473.006 331.493 471.271 332.184 469.31 332.184H469.326Z" fill="black"/>
<path d="M384.175 309.389C383.653 309.389 383.179 309.051 383.018 308.529C382.825 307.894 383.195 307.22 383.829 307.027C398.388 302.712 419.399 303.339 436.288 303.845C445.784 304.126 453.98 304.375 457.965 303.564C461.797 302.784 464.136 301.129 464.063 299.249C463.975 297.024 460.584 294.356 454.261 293.569C453.602 293.488 453.128 292.886 453.216 292.227C453.297 291.568 453.891 291.094 454.558 291.182C461.532 292.05 466.321 295.256 466.466 299.161C466.586 302.351 463.589 304.882 458.439 305.926C454.181 306.794 446.25 306.553 436.207 306.255C419.495 305.757 398.694 305.131 384.504 309.333C384.392 309.365 384.271 309.381 384.159 309.381L384.175 309.389Z" fill="black"/>
<path d="M380.198 301.491C379.7 301.491 379.242 301.186 379.065 300.687C378.84 300.061 379.169 299.37 379.796 299.145C404.101 290.483 416.795 291.93 431.491 293.601L434.054 293.89C449.432 295.601 457.322 289.736 458.881 285.381C458.969 285.14 458.945 285.044 458.945 285.044C458.302 283.999 451.577 284.522 446.652 284.907C440.988 285.349 434.568 285.855 428.422 285.454C409.685 284.216 388.425 292.275 388.216 292.355C387.598 292.588 386.899 292.283 386.658 291.665C386.417 291.046 386.73 290.347 387.349 290.106C388.232 289.768 409.299 281.782 428.574 283.043C434.544 283.437 440.875 282.939 446.451 282.505C455.097 281.83 459.323 281.589 460.841 283.582C461.219 284.08 461.58 284.932 461.131 286.193C458.961 292.275 449.472 298.028 433.773 296.284L431.202 295.995C416.804 294.356 404.366 292.942 380.591 301.411C380.455 301.459 380.318 301.483 380.19 301.483L380.198 301.491Z" fill="black"/>
<path d="M363.406 290.162C362.948 290.162 362.514 289.897 362.305 289.455C362.032 288.853 362.297 288.138 362.899 287.856C389.357 275.797 421.432 268.268 428.896 272.366C430.969 273.507 431.073 274.977 430.945 275.748C430.141 280.786 414.658 285.735 406.543 287.262C405.893 287.382 405.258 286.957 405.137 286.298C405.017 285.647 405.443 285.012 406.101 284.892C417.527 282.738 428.181 277.773 428.566 275.371C428.623 275.025 428.068 274.664 427.731 274.479C422.372 271.538 394.186 276.246 363.896 290.05C363.735 290.122 363.566 290.154 363.397 290.154L363.406 290.162Z" fill="black"/>
<path d="M357.717 285.486C357.38 285.486 357.042 285.341 356.801 285.068C356.368 284.562 356.424 283.807 356.93 283.365C369.384 272.622 392.604 262.893 400.204 263.752C401.369 263.881 402.205 264.283 402.695 264.941C403.017 265.375 403.346 266.106 403.137 267.143C402.181 271.739 389.631 279.203 387.124 280.657C386.546 280.986 385.814 280.794 385.477 280.215C385.14 279.637 385.34 278.906 385.919 278.568C391.76 275.185 400.237 269.256 400.783 266.653C400.823 266.452 400.783 266.404 400.767 266.372C400.148 265.737 395.11 265.825 384.224 270.236C374.325 274.245 364.716 279.838 358.513 285.189C358.288 285.381 358.007 285.478 357.725 285.478L357.717 285.486Z" fill="black"/>
<path d="M272.221 245.739C271.9 245.739 271.579 245.61 271.346 245.361C270.888 244.879 270.912 244.116 271.394 243.658C275.925 239.391 287.029 229.718 292.219 232.12C293.376 232.658 294.718 234 294.55 237.375C294.517 238.042 293.939 238.54 293.288 238.516C292.621 238.483 292.115 237.913 292.147 237.254C292.203 236.137 292.091 234.715 291.215 234.313C289.15 233.357 282.586 236.427 273.049 245.417C272.816 245.634 272.519 245.747 272.221 245.747V245.739Z" fill="black"/>
<path d="M294.517 253.685C293.986 253.685 293.504 253.332 293.352 252.801C293.175 252.159 293.553 251.5 294.195 251.323C300.679 249.547 303.588 243.771 303.194 240.284C303.066 239.151 302.543 237.785 300.784 237.712C295.095 237.455 288.202 241.633 279.122 250.809C278.656 251.283 277.893 251.283 277.419 250.817C276.945 250.351 276.945 249.588 277.411 249.114C287.141 239.287 294.396 235.021 300.888 235.302C303.475 235.415 305.275 237.214 305.596 240.01C306.159 245 302.206 251.628 294.838 253.645C294.734 253.677 294.621 253.685 294.517 253.685Z" fill="black"/>
<path d="M297.859 264.7C297.417 264.7 296.992 264.459 296.783 264.033C296.485 263.439 296.726 262.716 297.321 262.418C297.457 262.346 311.148 255.485 314.097 249.089C314.652 247.884 315.391 245.674 314.097 244.469C312.788 243.248 309.276 243.079 304.665 245.594C304.078 245.915 303.347 245.698 303.025 245.112C302.704 244.525 302.921 243.794 303.508 243.473C308.521 240.741 313.318 240.436 315.744 242.702C316.773 243.666 318.211 245.907 316.283 250.093C312.98 257.26 298.984 264.274 298.39 264.572C298.221 264.66 298.036 264.7 297.851 264.7H297.859Z" fill="black"/>
<path d="M314.202 270.116C314.13 270.116 314.058 270.116 313.985 270.1C313.334 269.979 312.901 269.353 313.021 268.694C313.367 266.806 315.809 264.427 319.762 260.699C323.33 257.341 327.363 253.532 328.423 250.704C328.938 249.33 329.026 248.318 328.664 247.932C327.974 247.201 325.274 246.92 316.396 249.74C315.761 249.941 315.086 249.587 314.885 248.953C314.684 248.318 315.038 247.643 315.673 247.442C324.438 244.654 328.576 244.325 330.424 246.269C332.039 247.964 331.027 250.656 330.697 251.548C329.444 254.898 325.185 258.908 321.425 262.451C318.838 264.885 315.624 267.922 315.399 269.128C315.295 269.706 314.789 270.116 314.218 270.116H314.202Z" fill="black"/>
<path d="M314.651 284.835C314.523 284.835 314.402 284.819 314.274 284.771C313.639 284.562 313.293 283.879 313.502 283.252C316.282 274.792 326.133 268.589 333.324 264.065C336.28 262.209 339.96 259.895 340.201 258.947C340.499 257.782 339.88 256.89 339.31 256.352C337.703 254.826 333.774 253.661 327.981 255.444C327.346 255.637 326.671 255.284 326.478 254.649C326.285 254.014 326.639 253.339 327.274 253.146C334.055 251.065 338.795 252.544 340.973 254.617C342.419 255.991 342.989 257.798 342.539 259.558C342.081 261.35 339.502 263.037 334.609 266.122C327.724 270.453 318.299 276.382 315.792 284.015C315.623 284.522 315.157 284.843 314.651 284.843V284.835Z" fill="black"/>
<path d="M334.618 280.818C334.144 280.818 333.694 280.536 333.501 280.07C333.244 279.452 333.541 278.753 334.152 278.496C334.24 278.455 343.303 274.679 347.875 270.461C349.385 269.063 349.835 267.424 349.104 265.954C348.068 263.865 344.516 262.193 338.908 263.182C338.257 263.302 337.631 262.86 337.51 262.201C337.398 261.543 337.832 260.924 338.49 260.803C345.794 259.526 349.94 262.201 351.265 264.877C352.463 267.295 351.788 270.115 349.506 272.221C344.621 276.736 335.461 280.552 335.068 280.713C334.915 280.777 334.762 280.802 334.61 280.802L334.618 280.818Z" fill="black"/>
<path d="M366.113 278.946C365.905 278.946 365.688 278.89 365.495 278.778C364.924 278.432 364.74 277.693 365.085 277.122C366.877 274.15 367.094 271.667 365.712 270.124C363.727 267.923 357.95 267.288 351.161 270.462C350.558 270.743 349.843 270.486 349.562 269.883C349.281 269.281 349.538 268.566 350.141 268.284C357.251 264.966 364.394 265.062 367.503 268.517C368.749 269.899 370.364 273.025 367.15 278.368C366.925 278.745 366.523 278.954 366.113 278.954V278.946Z" fill="black"/>
<path d="M166.63 311.382C166.277 311.382 165.955 311.149 165.859 310.787C165.746 310.361 165.996 309.919 166.421 309.799C168.044 309.357 172.496 307.846 173.54 306.215C174.054 305.412 174.159 304.006 173.379 302.857C172.664 301.812 170.64 300.23 165.08 301.338C164.638 301.427 164.22 301.146 164.131 300.712C164.043 300.278 164.324 299.852 164.758 299.764C171.226 298.47 173.765 300.575 174.705 301.949C175.934 303.749 175.669 305.87 174.898 307.075C173.331 309.518 167.506 311.165 166.847 311.342C166.775 311.358 166.703 311.374 166.638 311.374L166.63 311.382Z" fill="black"/>
<path d="M178.827 288.402C178.554 288.402 178.289 288.266 178.136 288.009C177.911 287.631 178.032 287.133 178.417 286.908C178.658 286.763 184.25 283.348 182.37 278.64C181.47 276.382 179.791 276.326 178.875 276.487C176.754 276.873 174.512 279.098 174.44 282.151C174.432 282.593 174.046 282.923 173.621 282.939C173.179 282.931 172.825 282.561 172.833 282.119C172.922 278.238 175.83 275.41 178.594 274.912C180.94 274.486 182.909 275.659 183.865 278.054C185.777 282.842 181.679 286.852 179.237 288.298C179.108 288.378 178.964 288.41 178.827 288.41V288.402Z" fill="black"/>
<path d="M189.473 297.209C189.039 297.209 188.677 296.863 188.669 296.421C188.661 295.979 189.015 295.61 189.457 295.602C189.545 295.602 197.869 295.321 197.837 291.4C197.813 289.046 196.511 286.876 194.663 286.137C192.871 285.422 190.807 286.137 188.83 288.162C188.517 288.483 188.011 288.483 187.697 288.178C187.376 287.865 187.376 287.358 187.681 287.045C190.999 283.646 193.852 284.088 195.258 284.651C197.692 285.631 199.412 288.403 199.444 291.392C199.5 296.952 189.899 297.209 189.489 297.217H189.473V297.209Z" fill="black"/>
<path d="M190.879 271.883C190.718 271.883 190.557 271.835 190.413 271.731C190.051 271.474 189.963 270.975 190.22 270.614C190.252 270.566 193.675 265.657 191.538 262.025C190.373 260.056 187.135 258.353 184.54 259.028C182.097 259.663 180.755 262.169 180.659 266.267C180.651 266.701 180.289 267.055 179.855 267.055H179.839C179.397 267.046 179.044 266.677 179.052 266.235C179.205 259.719 182.306 257.951 184.13 257.477C187.544 256.593 191.433 258.69 192.912 261.213C195.587 265.745 191.69 271.313 191.522 271.546C191.369 271.763 191.12 271.883 190.871 271.883H190.879Z" fill="black"/>
<path d="M202.794 285.864C202.36 285.864 202.007 285.518 201.99 285.084C201.974 284.642 202.328 284.273 202.77 284.257C210.097 284.048 212.194 279.886 212.283 277.708C212.315 276.977 210.917 274.446 208.201 273.064C206.193 272.044 202.987 271.457 199.13 274.503C198.785 274.776 198.278 274.72 198.005 274.366C197.732 274.021 197.788 273.514 198.142 273.241C202.906 269.489 206.948 270.622 208.932 271.634C211.849 273.121 213.954 276.101 213.89 277.773C213.785 280.464 211.327 285.614 202.818 285.864H202.794Z" fill="black"/>
<path d="M209.069 300.438C208.692 300.438 208.298 300.43 207.896 300.406C207.454 300.382 207.117 300.004 207.141 299.562C207.165 299.121 207.575 298.751 207.984 298.807C214.846 299.161 217.2 295.987 217.891 294.597C218.791 292.789 218.638 290.757 217.506 289.415C216.34 288.041 214.324 287.663 211.962 288.378C211.528 288.507 211.086 288.266 210.957 287.84C210.829 287.414 211.07 286.964 211.496 286.836C214.493 285.928 217.136 286.482 218.727 288.378C220.277 290.21 220.51 292.934 219.321 295.312C218.534 296.903 215.987 300.446 209.061 300.446L209.069 300.438Z" fill="black"/>
<path d="M239.118 293.617C238.821 293.617 238.516 293.505 238.283 293.28C237.801 292.822 237.784 292.059 238.25 291.577C240.749 288.973 241.496 286.547 240.259 285.085C238.893 283.47 235.358 283.164 232.281 285.277C231.734 285.655 230.979 285.518 230.61 284.964C230.232 284.418 230.368 283.662 230.923 283.293C234.747 280.666 239.769 280.77 242.107 283.526C242.902 284.466 245.096 287.929 240.002 293.248C239.769 293.497 239.448 293.617 239.134 293.617H239.118Z" fill="black"/>
<path d="M227.894 281.364C227.565 281.364 227.259 281.163 227.139 280.834C226.986 280.416 227.203 279.958 227.621 279.805C232.417 278.07 234.145 275.298 233.711 273.45C233.325 271.787 231.325 270.911 228.617 271.216C228.183 271.265 227.781 270.951 227.725 270.509C227.677 270.068 227.99 269.674 228.432 269.618C231.992 269.216 234.683 270.574 235.27 273.08C235.872 275.676 233.912 279.227 228.167 281.308C228.079 281.34 227.982 281.356 227.894 281.356V281.364Z" fill="black"/>
<path d="M210.556 264.114C210.379 264.114 210.194 264.049 210.049 263.929C209.704 263.648 209.656 263.141 209.937 262.796C211.423 260.988 211.68 259.357 210.652 258.208C209.077 256.441 204.907 256.031 201.701 258.112C201.332 258.353 200.834 258.248 200.593 257.879C200.352 257.509 200.456 257.011 200.826 256.77C204.433 254.424 209.583 254.601 211.849 257.14C212.604 257.983 214.051 260.329 211.174 263.824C211.014 264.017 210.789 264.114 210.556 264.114Z" fill="black"/>
<path d="M202.392 246.872C202.392 246.872 202.32 246.872 202.28 246.872C201.838 246.807 201.533 246.406 201.597 245.964C202.151 242.043 201.404 239.174 199.492 237.905C197.515 236.587 194.374 237.021 190.879 239.094C190.493 239.319 190.003 239.191 189.778 238.813C189.553 238.435 189.673 237.937 190.059 237.712C194.109 235.31 197.869 234.892 200.384 236.563C202.842 238.202 203.83 241.617 203.188 246.189C203.131 246.59 202.786 246.88 202.392 246.88V246.872Z" fill="black"/>
<path d="M236.821 257.703C236.564 257.703 236.315 257.582 236.162 257.357C235.905 256.996 236.001 256.49 236.363 256.241C239.32 254.192 240.75 251.018 239.922 248.334C238.902 245.032 234.884 243.112 228.915 243.072C228.473 243.072 228.111 242.71 228.119 242.26C228.119 241.818 228.481 241.465 228.923 241.465C235.648 241.505 240.211 243.835 241.457 247.852C242.493 251.203 240.814 255.1 237.279 257.55C237.142 257.647 236.981 257.695 236.821 257.695V257.703Z" fill="black"/>
<path d="M248.101 236.041C247.932 236.041 247.771 235.993 247.627 235.88C247.273 235.615 247.193 235.117 247.458 234.756C249.917 231.413 250.608 227.533 249.081 225.532C247.578 223.555 244.148 223.451 239.399 225.243C238.981 225.403 238.523 225.186 238.363 224.777C238.202 224.359 238.419 223.901 238.829 223.74C246.205 220.952 249.218 223.057 250.358 224.56C252.327 227.163 251.668 231.751 248.744 235.712C248.583 235.929 248.342 236.041 248.093 236.041H248.101Z" fill="black"/>
<path d="M262.29 244.437C262.162 244.437 262.025 244.405 261.905 244.341C261.519 244.124 261.374 243.634 261.591 243.248C265.384 236.387 270.59 234.201 274.069 235.077C276.447 235.672 277.886 237.592 277.918 240.211C277.918 240.653 277.564 241.023 277.122 241.023H277.114C276.672 241.023 276.319 240.669 276.311 240.227C276.287 238.355 275.331 237.045 273.683 236.628C270.904 235.929 266.364 237.937 263.005 244.02C262.861 244.285 262.588 244.437 262.298 244.437H262.29Z" fill="black"/>
<path d="M281.791 232.249C281.598 232.249 281.405 232.184 281.252 232.048C280.923 231.751 280.891 231.244 281.188 230.915C281.959 230.055 281.951 227.966 280.794 226.56C279.083 224.487 275.748 224.712 271.635 227.171C271.257 227.396 270.759 227.275 270.534 226.89C270.309 226.512 270.43 226.014 270.807 225.789C277.717 221.659 280.955 224.23 282.032 225.532C283.622 227.46 283.783 230.409 282.385 231.984C282.224 232.16 282.007 232.249 281.782 232.249H281.791Z" fill="black"/>
<path d="M260.242 215.721C260.097 215.721 259.952 215.681 259.816 215.6C259.438 215.367 259.326 214.869 259.559 214.492C261.415 211.503 260.563 205.734 257.976 203.846C255.975 202.384 253.806 204.143 252.335 205.871C252.046 206.208 251.54 206.248 251.203 205.959C250.865 205.67 250.825 205.164 251.114 204.826C254.898 200.383 257.839 201.749 258.932 202.544C262.194 204.931 263.238 211.623 260.924 215.335C260.772 215.576 260.507 215.713 260.242 215.713V215.721Z" fill="black"/>
<path d="M279.082 214.91C278.849 214.91 278.616 214.806 278.456 214.613C278.174 214.267 278.231 213.761 278.576 213.48C280.593 211.841 281.139 209.889 280.127 207.976C278.809 205.502 274.952 203.565 271.015 204.763C270.582 204.891 270.14 204.65 270.011 204.224C269.883 203.798 270.124 203.348 270.549 203.22C275.33 201.766 279.902 204.112 281.549 207.221C282.923 209.808 282.192 212.612 279.596 214.725C279.452 214.846 279.267 214.902 279.09 214.902L279.082 214.91Z" fill="black"/>
<path d="M260.667 197.668C260.49 197.668 260.313 197.612 260.169 197.491C259.823 197.218 259.767 196.712 260.04 196.358C262.467 193.313 262.603 191.12 262.29 189.818C262.049 188.83 261.551 188.324 261.358 188.179C261.077 188.179 260.811 188.026 260.667 187.769C260.45 187.384 260.586 186.893 260.972 186.677C261.51 186.371 262.209 186.644 262.844 187.392C263.399 188.042 265.913 191.562 261.293 197.355C261.133 197.555 260.9 197.66 260.667 197.66V197.668Z" fill="black"/>
<path d="M447.93 143.482C447.311 143.482 446.789 143.008 446.733 142.381C446.677 141.723 447.159 141.136 447.826 141.072C450.734 140.807 452.711 138.83 452.671 137.223C452.622 135.391 450.027 134.162 445.905 134.001C445.238 133.977 444.724 133.415 444.748 132.748C444.772 132.081 445.343 131.583 446.002 131.591C454.302 131.904 455.049 135.93 455.081 137.159C455.161 140.284 452.004 143.113 448.043 143.466C448.002 143.466 447.97 143.466 447.93 143.466V143.482Z" fill="black"/>
<path d="M270.116 138.774C272.727 132.45 269.441 125.509 265.6 128.2C261.76 130.892 268.83 141.867 270.116 138.774Z" fill="black"/>
<path d="M287.535 100.111C283.502 101.373 285.414 113.923 290.195 115.682C294.975 117.442 295.473 97.6284 287.535 100.111Z" fill="black"/>
<path d="M314.981 117.266C316.05 119.853 329.966 109.279 325.684 104.081C321.393 98.8904 313.495 113.65 314.981 117.266Z" fill="black"/>
<path d="M327.619 76.6344C328.125 78.876 341.656 71.661 338.635 66.2296C335.614 60.7981 326.984 73.8383 327.619 76.6344Z" fill="black"/>
<path d="M393.752 72.5611C391.912 74.3046 408.247 81.7447 411.854 77.3738C415.462 73.003 397.231 69.2588 393.752 72.5611Z" fill="black"/>
<path d="M409.388 100.313C411.646 104.362 439.542 102.731 436.111 93.7001C432.681 84.6692 407.404 96.7533 409.388 100.313Z" fill="black"/>
<path d="M427.748 122.889C427.097 126.882 447.714 132.217 447.93 124.753C448.147 117.289 428.109 120.663 427.748 122.889Z" fill="black"/>
<path d="M430.752 155.454C430.993 157.727 448.508 159.905 448.565 151.846C448.621 143.779 430.447 152.625 430.752 155.454Z" fill="black"/>
<path d="M431.957 183.262C428.502 186.516 449.77 198.849 453.024 191.867C456.278 184.885 434.006 181.334 431.957 183.262Z" fill="black"/>
<path d="M422.452 209.077C418.331 208.787 436.176 218.59 437.501 216.059C438.827 213.528 435.211 209.976 422.452 209.077Z" fill="black"/>
<path d="M392.113 217.931C388.98 218.534 402.767 227.927 408.785 223.652C414.803 219.378 395.239 217.329 392.113 217.931Z" fill="black"/>
<path d="M324.188 142.494C323.449 144.977 337.486 142.671 336.144 137.577C334.802 132.483 324.96 139.923 324.188 142.494Z" fill="black"/>
<path d="M315.118 170.623C315.118 173.942 326.302 170.495 324.462 165.369C322.622 160.243 315.118 169.812 315.118 170.623Z" fill="black"/>
<path d="M320.308 202.031C320.228 204.441 334.393 200.761 334.079 198.311C333.766 195.86 320.404 199.275 320.308 202.031Z" fill="black"/>
<path d="M442.458 113.609C446.564 108.909 461.822 113.69 462.73 116.036C463.638 118.382 456.23 120.752 456.23 120.752L448.918 115.682L442.467 113.617L442.458 113.609Z" fill="black"/>
<path d="M85.5125 247.876C80.1293 250.374 88.9754 259.775 90.4136 259.285C91.8518 258.795 91.5384 245.08 85.5125 247.876Z" fill="black"/>
<path d="M108.363 245.747C102.104 244.638 104.876 259.848 106.387 260.748C107.897 261.648 115.9 247.081 108.363 245.747Z" fill="black"/>
<path d="M121.901 266.951C123.612 269.674 133.495 262.491 128.489 258.595C123.492 254.698 120.897 265.368 121.901 266.951Z" fill="black"/>
<path d="M146.543 319.047C146.358 319.047 146.174 318.983 146.021 318.854C145.683 318.565 145.643 318.059 145.933 317.721C148.889 314.25 149.516 311.269 149.524 311.237C149.612 310.803 150.03 310.522 150.464 310.603C150.898 310.683 151.179 311.109 151.099 311.543C151.075 311.679 150.408 314.949 147.154 318.758C146.993 318.943 146.768 319.039 146.543 319.039V319.047Z" fill="black"/>
<path d="M152.385 318.348C152.224 318.348 152.071 318.3 151.927 318.203C151.565 317.954 151.469 317.448 151.726 317.087C152.971 315.287 153.204 313.897 153.204 313.881C153.277 313.447 153.678 313.15 154.12 313.214C154.554 313.278 154.859 313.688 154.795 314.122C154.787 314.194 154.522 315.865 153.044 318.002C152.891 318.227 152.634 318.348 152.385 318.348Z" fill="black"/>
<path d="M285.695 322.815C285.446 322.815 285.197 322.695 285.036 322.478C284.94 322.341 282.586 318.951 282.698 311.92C282.698 311.478 283.068 311.133 283.502 311.133H283.518C283.96 311.133 284.313 311.502 284.305 311.952C284.201 318.46 286.322 321.522 286.346 321.554C286.603 321.915 286.523 322.413 286.161 322.671C286.017 322.767 285.856 322.823 285.695 322.823V322.815Z" fill="black"/>
<path d="M292.806 330.046C292.549 330.046 292.3 329.925 292.147 329.7C292.051 329.564 289.785 326.262 288.379 319.641C288.291 319.207 288.564 318.781 288.998 318.685C289.431 318.589 289.857 318.87 289.954 319.304C291.279 325.571 293.449 328.752 293.465 328.776C293.714 329.138 293.625 329.644 293.264 329.893C293.127 329.99 292.967 330.038 292.806 330.038V330.046Z" fill="black"/>
<path d="M298.703 331.967C298.462 331.967 298.221 331.862 298.068 331.653C298.052 331.629 296.26 329.283 294.493 326.519C294.252 326.15 294.364 325.652 294.734 325.411C295.103 325.17 295.601 325.282 295.842 325.652C297.57 328.359 299.321 330.649 299.346 330.673C299.619 331.027 299.546 331.533 299.193 331.798C299.048 331.911 298.871 331.967 298.703 331.967Z" fill="black"/>
<path d="M248.101 251.323C248.037 251.323 247.965 251.315 247.901 251.299C247.475 251.187 247.218 250.745 247.33 250.319C247.33 250.295 248.021 247.587 247.33 244.679C247.226 244.245 247.491 243.811 247.925 243.706C248.359 243.602 248.792 243.867 248.897 244.301C249.692 247.619 248.929 250.6 248.897 250.729C248.8 251.09 248.479 251.331 248.118 251.331L248.101 251.323Z" fill="black"/>
<path d="M250.696 248.655C250.607 248.655 250.527 248.639 250.439 248.615C250.021 248.47 249.796 248.02 249.933 247.594C249.933 247.594 250.366 246.188 249.908 243.786C249.82 243.352 250.109 242.926 250.543 242.846C250.985 242.758 251.403 243.047 251.483 243.481C252.038 246.333 251.483 248.036 251.459 248.109C251.347 248.446 251.033 248.655 250.696 248.655Z" fill="black"/>
<path d="M253.572 246.542C253.572 246.542 253.54 246.542 253.516 246.542C253.074 246.51 252.737 246.132 252.769 245.69C252.769 245.674 252.865 244.116 252.769 241.834C252.753 241.392 253.09 241.014 253.54 240.998C254.022 240.966 254.36 241.32 254.376 241.769C254.48 244.148 254.376 245.731 254.376 245.795C254.352 246.221 253.998 246.55 253.572 246.55V246.542Z" fill="black"/>
<path d="M123.773 221.04C123.58 221.04 123.387 220.968 123.235 220.831C123.122 220.727 120.495 218.317 118.912 215.296C118.703 214.902 118.856 214.42 119.249 214.211C119.643 214.002 120.125 214.155 120.334 214.548C121.788 217.312 124.295 219.618 124.319 219.642C124.649 219.94 124.673 220.446 124.368 220.775C124.207 220.952 123.99 221.04 123.773 221.04Z" fill="black"/>
<path d="M128.08 221.771C127.783 221.771 127.494 221.602 127.357 221.313C127.357 221.297 126.747 220.06 125.863 218.654C125.63 218.276 125.734 217.786 126.112 217.545C126.489 217.304 126.98 217.416 127.221 217.794C128.161 219.28 128.779 220.558 128.803 220.614C128.996 221.016 128.827 221.49 128.426 221.683C128.313 221.739 128.193 221.763 128.08 221.763V221.771Z" fill="black"/>
<path d="M132.66 222.76C132.66 222.76 131.205 221.257 130.056 220.108C129.743 219.795 129.743 219.289 130.056 218.975C130.37 218.662 130.876 218.662 131.189 218.975C132.346 220.132 133.817 221.651 133.817 221.651L132.66 222.768V222.76Z" fill="black"/>
<path d="M187.464 308.674C187.383 308.674 187.303 308.658 187.215 308.634C186.789 308.497 186.556 308.047 186.692 307.621C187.512 305.082 187.97 302.166 187.97 302.134C188.034 301.692 188.452 301.395 188.886 301.467C189.328 301.531 189.625 301.949 189.553 302.383C189.537 302.503 189.071 305.452 188.219 308.112C188.106 308.449 187.793 308.666 187.456 308.666L187.464 308.674Z" fill="black"/>
<path d="M184.7 309.501C184.619 309.501 184.539 309.493 184.459 309.461C184.033 309.325 183.8 308.875 183.937 308.449C184.419 306.938 184.21 304.648 184.21 304.624C184.17 304.182 184.491 303.789 184.933 303.749C185.367 303.708 185.768 304.03 185.809 304.472C185.817 304.576 186.05 307.107 185.463 308.939C185.351 309.276 185.037 309.501 184.7 309.501Z" fill="black"/>
<path d="M338.402 294.814C338.032 294.814 337.695 294.557 337.614 294.179C337.526 293.746 337.799 293.32 338.233 293.231C342.057 292.428 344.821 291.657 344.845 291.649C345.271 291.528 345.713 291.777 345.834 292.203C345.954 292.629 345.705 293.071 345.279 293.191C345.247 293.191 342.443 293.987 338.562 294.806C338.506 294.814 338.45 294.822 338.394 294.822L338.402 294.814Z" fill="black"/>
<path d="M350.647 296.863C350.647 296.863 350.583 296.863 350.55 296.863C350.526 296.863 348.028 296.557 344.605 296.34C344.163 296.308 343.825 295.931 343.858 295.489C343.882 295.047 344.259 294.717 344.709 294.741C348.18 294.958 350.727 295.272 350.751 295.272C351.193 295.328 351.507 295.73 351.45 296.164C351.402 296.573 351.057 296.871 350.655 296.871L350.647 296.863Z" fill="black"/>
<path d="M354.608 301.089C354.543 301.089 354.471 301.081 354.407 301.065C354.367 301.057 350.044 299.94 346.991 299.835C346.549 299.819 346.195 299.45 346.211 299.008C346.228 298.574 346.581 298.229 347.015 298.229C347.023 298.229 347.031 298.229 347.039 298.229C350.269 298.333 354.624 299.458 354.809 299.506C355.234 299.619 355.491 300.06 355.387 300.486C355.291 300.848 354.969 301.089 354.608 301.089Z" fill="black"/>
<path d="M161.471 175.492C161.471 175.492 161.407 175.492 161.375 175.492C161.375 175.492 158.908 175.187 155.67 174.761C155.228 174.705 154.923 174.303 154.979 173.861C155.036 173.42 155.429 173.106 155.879 173.17C159.109 173.588 161.576 173.902 161.576 173.902C162.018 173.958 162.331 174.36 162.275 174.802C162.227 175.211 161.881 175.509 161.479 175.509L161.471 175.492Z" fill="black"/>
<path d="M159.849 171.033C159.809 171.033 158.773 171.033 155.695 170.719C155.253 170.671 154.932 170.286 154.972 169.844C155.012 169.402 155.414 169.08 155.848 169.121C158.821 169.418 159.833 169.426 159.849 169.426C160.291 169.426 160.653 169.787 160.653 170.229C160.653 170.671 160.291 171.033 159.849 171.033Z" fill="black"/>
<path d="M155.076 167.803C154.651 167.803 154.289 167.465 154.273 167.031C154.257 166.59 154.602 166.212 155.044 166.196C156.908 166.116 158.588 166.196 158.66 166.196C159.102 166.212 159.447 166.59 159.423 167.031C159.399 167.473 158.997 167.811 158.588 167.795C158.572 167.795 156.9 167.722 155.117 167.795C155.109 167.795 155.093 167.795 155.085 167.795L155.076 167.803Z" fill="black"/>
<path d="M339.302 163.111C339.222 163.111 339.134 163.095 339.053 163.071C338.636 162.934 338.403 162.476 338.539 162.059C338.547 162.026 339.551 158.949 339.672 157.125C339.704 156.683 340.09 156.346 340.524 156.378C340.966 156.41 341.303 156.788 341.271 157.23C341.134 159.254 340.106 162.42 340.058 162.557C339.945 162.894 339.632 163.111 339.294 163.111H339.302Z" fill="black"/>
<path d="M342.797 159.808C342.684 159.808 342.572 159.784 342.467 159.736C342.066 159.551 341.889 159.077 342.066 158.676C342.066 158.66 342.837 156.964 342.925 155.695C342.957 155.253 343.327 154.907 343.785 154.948C344.227 154.98 344.564 155.357 344.532 155.799C344.428 157.366 343.568 159.262 343.536 159.342C343.399 159.64 343.11 159.816 342.805 159.816L342.797 159.808Z" fill="black"/>
<path d="M319.015 134.267C318.846 134.267 318.669 134.21 318.525 134.098C318.171 133.825 318.107 133.327 318.38 132.973C318.79 132.435 319.85 130.788 319.85 129.591C319.85 129.149 320.204 128.787 320.654 128.787C321.096 128.787 321.457 129.149 321.457 129.591C321.457 131.551 319.842 133.72 319.658 133.961C319.497 134.17 319.264 134.275 319.023 134.275L319.015 134.267Z" fill="black"/>
<path d="M322.911 129.301C322.727 129.301 322.542 129.237 322.389 129.108C322.052 128.819 322.011 128.313 322.301 127.976C322.317 127.959 323.602 126.425 323.875 125.019C323.964 124.585 324.382 124.296 324.816 124.384C325.249 124.472 325.539 124.89 325.45 125.324C325.097 127.148 323.578 128.94 323.514 129.012C323.353 129.197 323.128 129.293 322.903 129.293L322.911 129.301Z" fill="black"/>
<path d="M378.56 92.5269L377.146 91.7636C377.146 91.7636 378.415 89.3934 379.339 87.7463C379.556 87.3606 380.046 87.224 380.432 87.441C380.817 87.6579 380.954 88.148 380.737 88.5337C379.821 90.1727 378.56 92.5189 378.56 92.5189V92.5269Z" fill="black"/>
<path d="M382.705 90.9515C382.504 90.9515 382.303 90.8792 382.151 90.7265C381.829 90.4212 381.821 89.907 382.126 89.5937C382.143 89.5776 383.516 88.1314 383.918 86.428C384.015 85.9942 384.448 85.729 384.882 85.8254C385.316 85.9299 385.581 86.3557 385.485 86.7896C384.987 88.9268 383.356 90.6301 383.291 90.7024C383.131 90.8631 382.922 90.9435 382.713 90.9435L382.705 90.9515Z" fill="black"/>
<path d="M387.421 89.9558C387.236 89.9558 387.052 89.8915 386.899 89.7629C386.561 89.4737 386.521 88.9675 386.81 88.6301C387.405 87.9391 388.409 86.5812 388.602 85.8822C388.723 85.4564 389.165 85.1993 389.59 85.3198C390.016 85.4403 390.273 85.8742 390.153 86.3081C389.807 87.5695 388.217 89.4576 388.04 89.6746C387.879 89.8594 387.654 89.9558 387.429 89.9558H387.421Z" fill="black"/>
<path d="M353.885 184.852C353.692 184.852 353.507 184.788 353.354 184.651C353.025 184.354 352.993 183.848 353.29 183.518C353.363 183.438 355.05 181.542 356.512 180.835C356.914 180.642 357.388 180.811 357.589 181.204C357.782 181.606 357.621 182.088 357.219 182.281C356.247 182.755 354.921 184.105 354.495 184.587C354.335 184.764 354.118 184.86 353.893 184.86L353.885 184.852Z" fill="black"/>
<path d="M359.734 184.852C359.437 184.852 359.156 184.692 359.011 184.41C358.81 184.017 358.971 183.535 359.373 183.334C359.397 183.326 361.59 182.217 363.358 180.907C363.72 180.642 364.218 180.715 364.483 181.076C364.748 181.43 364.676 181.936 364.314 182.201C362.434 183.591 360.184 184.724 360.096 184.772C359.983 184.828 359.855 184.86 359.734 184.86V184.852Z" fill="black"/>
<path d="M215.625 304.247C215.4 304.247 215.167 304.151 215.015 303.966C214.725 303.628 214.766 303.122 215.103 302.833C215.641 302.375 217.152 301.009 217.602 300.262C217.827 299.884 218.325 299.756 218.702 299.989C219.08 300.214 219.209 300.712 218.976 301.09C218.309 302.198 216.364 303.869 216.139 304.054C215.987 304.183 215.802 304.247 215.617 304.247H215.625Z" fill="black"/>
<path d="M223.009 300.969C222.848 300.969 222.695 300.921 222.551 300.824C222.189 300.575 222.093 300.069 222.35 299.707C222.366 299.683 224.093 297.152 224.471 294.509C224.535 294.067 224.945 293.77 225.379 293.826C225.821 293.89 226.126 294.292 226.062 294.734C225.628 297.755 223.748 300.503 223.668 300.615C223.515 300.84 223.258 300.961 223.009 300.961V300.969Z" fill="black"/>
<path d="M286.033 226.191C285.607 226.191 285.253 225.862 285.229 225.436C285.229 225.412 285.069 222.969 283.936 221.33C283.679 220.968 283.775 220.462 284.137 220.213C284.498 219.956 285.004 220.052 285.253 220.414C286.652 222.423 286.82 225.227 286.828 225.339C286.852 225.781 286.515 226.159 286.073 226.183C286.057 226.183 286.041 226.183 286.025 226.183L286.033 226.191Z" fill="black"/>
<path d="M290.396 221.041C290.396 221.041 290.371 221.041 290.363 221.041C289.921 221.024 289.576 220.655 289.592 220.205C289.592 220.181 289.664 217.867 288.564 216.646C288.266 216.316 288.299 215.81 288.628 215.513C288.957 215.215 289.464 215.24 289.761 215.577C291.295 217.28 291.199 220.149 291.199 220.269C291.183 220.703 290.829 221.041 290.396 221.041Z" fill="black"/>
<path d="M288.346 223.933C287.904 223.933 287.543 223.571 287.543 223.129C287.543 223.113 287.543 221.466 287.069 219.747C286.948 219.321 287.205 218.879 287.631 218.758C288.057 218.646 288.499 218.895 288.619 219.321C289.142 221.249 289.15 223.049 289.15 223.121C289.15 223.563 288.788 223.925 288.346 223.925V223.933Z" fill="black"/>
</svg>
