<svg fill="none" height="851" viewBox="0 0 1074 851" width="1074" xmlns="http://www.w3.org/2000/svg"><path d="m326.957 68.3061c-88.086 4.5177-276.6405-18.7485-326.174773-147.955l1104.097773 65.0201c34.39 2.0249 61 30.9008 60.22 65.3367l-16.69 737.7391c-.78 34.774-29.12 62.553-63.9 62.553h-227.01c-228 0-307.196-107.5-307.196-252.992-18.797 80.189-64.13 125.366-166.958 109.554 97.579-35.82 89.851-137.246 37.041-226.254-66.894-112.744 22.666-184.038 22.666-184.038-92.877 18.238-245.952-18.536-283.053-107.77 70.21 0 140.973-17.686 166.957-121.1939z" fill="#212529"/></svg>