<svg width="112" height="128" viewBox="0 0 112 128" fill="none" xmlns="http://www.w3.org/2000/svg">
<path opacity="0.15" d="M80.75 13C99 29.75 112 57.25 112 70.5C112 102.25 86.75 128 56 128C25 128 0 102.25 0 70.5C0 52.5 17.25 23 42 0C51.5 9 60 18.5 66.75 28C71 22.75 75.5 17.75 80.75 13ZM76 98C88.25 89.5 91 72.75 84.25 59.75C83.5 58.25 82.5 56.5 81.5 54.75L66.75 71.5C66.75 71.5 43.75 42 42 40C30 54.75 24 63.25 24 72.75C24 92.25 38.5 104 56.5 104C63.75 104 70.5 101.75 76 98Z" fill="#FF2D20"/>
</svg>
