<svg viewBox="0 0 677.07 533.16" xmlns="http://www.w3.org/2000/svg"><g fill="#ff3939"><path d="m217.41 380.07s.83-19.84-2.59-25.92-12.63-10.76-17.52.58.7 27.84.7 27.84l19.4-2.5z"/><path d="m297.56 438.59c-27.73-5.93-42.15 14.48-40.15 28.48s26 34.02 47.5 28.01 24.76-19.01 23.63-26.01-9.83-25.96-30.98-30.48z"/><path d="m462.73 415.23c-20.51 13.01-21.73 44.93-18.03 48.38s23.7-10.54 31.7-31.54 10-27 5-29-17.35 11.32-18.68 12.16z"/><path d="m384.41 75.07c-10-13-2-37-2-37s14 16 2 37z"/><path d="m223.41 202.07c-7 7 0 21.51 0 21.51s8-4.51 0-21.51z"/><path d="m343.95 260.57s-9.54-13.5-1.54-22.5c6 8 1.54 22.5 1.54 22.5z"/><path d="m294.41 290.07c10 3 15 14 15 14s9.95 3.38 6.97-11.81-4.97-34.19 8.03-41.19c-3 7-4.96 27.79 5.52 29.4s13.45-6.46 13.45-6.46 4.44 27.6-1.26 36.33c9.29-.27 15.29-7.27 15.29-7.27s2.26 37.41-28.87 37.41-33.13-17.41-35.13-27.41 2-15 1-23z"/><path d="m450.04 232.32s-16.13 14.25-32.72 21.01c9.41-21.24 16.59-63.76 4.6-85.76s-21.57-40.82-21.57-40.82-10.44 5.82-12.44 22.82-5 42-12 52.05c0-20.95-11-72.05-11-72.05l-6-18.71c-6-18.71 0-56.29 0-56.29s-26 14-47 45.15-20.76 58.43-20.76 58.43-6.24-10.57-13.35-24.31c-7.11-13.73-26.9-12.83-26.9-12.83s3.01.56 11.01 17.56-1.67 64.97-1.67 64.97-10.33-9.97-27.37-15.19c5.96 19.79-3.96 47.21-10.86 75.69s1.89 88.52 108.91 88.52c120 0 119.13-120.25 119.13-120.25zm-59.63 84.75c-12.63 20.5-39 28.66-65.88 28.66-43.12 0-63.12-28.66-57.12-59.66s1.32-55 1.32-55 15.13 8 17.91 21.5c2.77 13.5 8.83 15.88 8.83 15.88s-3.06-25.38 6.94-40.38 14.4-26.04 14.4-26.04 1.86 9.91 11.73 8.98 10-22.6 10-22.6 20.51 24.47 19.87 46.66c-.63 22.19-10 51.53-1.5 60.77 8.5-5.77 24.69-34.77 18.1-55.77 25.4 15 28.03 56.5 15.4 77z"/></g><path d="m330.91 354.02c-52.43 0-105.5-24.54-105.5-71.45 0-16.9 3.64-28.95 6.85-39.58 5.72-18.94 10.24-33.9-6.69-66.98-.24-.46-.22-1.02.06-1.47.27-.45.76-.72 1.28-.72 12.52 0 25.76 10.72 32.54 17.12-1.42-4.77-3.04-11.51-3.04-17.37 0-2.24.28-5.01.61-8.22 1.16-11.42 2.74-27.06-6.21-36.76-.38-.42-.5-1.01-.3-1.54s.67-.9 1.23-.97c18.46-2.19 28.74 13.45 31.6 22.01 1.66 4.97 4.28 9.01 6.21 11.54.55-10.09 3.39-37.25 18.17-56.96 17.91-23.88 49.96-49.03 50.28-49.28.47-.37 1.12-.42 1.64-.14.52.29.83.86.78 1.45-.03.31-2.77 31.19-1 49.72 1.86 19.52 6.7 33.62 11.39 47.25 4.07 11.86 7.97 23.2 9.23 36.82.5-4.67.53-9.35.56-13.96.03-5.39.06-10.47.85-15.21 2.06-12.33 12.96-23.35 13.42-23.81.57-.57 1.48-.59 2.07-.05.33.29 32.48 29.84 34.49 67.03 1.42 26.2-5.49 42-9.93 49.28 6.44-3.39 17.14-10.36 21.03-20.73.22-.58.76-.96 1.38-.97.58.02 1.18.36 1.41.93 8.14 19.64 3.14 47.69-12.74 71.46-21.88 32.76-58.93 51.56-101.65 51.56zm-101.49-177.03c16.08 32.57 11.27 48.5 5.71 66.88-3.15 10.43-6.73 22.25-6.73 38.71 0 26.21 17.48 42.17 32.14 50.94 18.61 11.13 44.25 17.51 70.36 17.51 41.69 0 77.83-18.31 99.15-50.22 14.44-21.62 19.62-46.76 13.7-65.27-7.52 14.14-25.5 21.13-26.32 21.44-.65.25-1.39.01-1.78-.57s-.33-1.35.15-1.86c.14-.15 14.53-16.07 12.6-51.89-1.74-32.13-26.91-58.52-32.44-63.95-2.7 2.99-10.03 11.83-11.58 21.12-.75 4.5-.78 9.47-.81 14.74-.05 8.69-.1 17.67-3.26 26.52-.25.69-.97 1.1-1.69.97-.72-.14-1.24-.78-1.22-1.52.52-18.84-4.32-32.95-9.46-47.88-4.74-13.8-9.65-28.06-11.54-47.94-1.44-15.08.05-38.1.72-46.79-8.08 6.57-32.38 27.03-47.02 46.55-17.48 23.31-17.7 58.75-17.7 59.1 0 .61-.37 1.15-.93 1.39-.56.23-1.21.1-1.63-.33-.25-.25-6.29-6.36-9.36-15.59-2.42-7.27-10.71-20.17-25.35-20.17-.08 0-.15 0-.22 0 7.73 10.72 6.15 26.25 5.09 36.77-.32 3.13-.59 5.84-.59 7.92 0 9.6 4.85 22.33 4.9 22.46.26.68 0 1.44-.62 1.82s-1.42.26-1.9-.28c-.18-.2-16.89-18.68-32.37-20.59z"/><path d="m279.91 124.07c-.34 0-.68-.12-.95-.34-4.64-3.79-7.3-8.93-7.72-14.85-.57-8.2 3.28-17.43 10.57-25.32.47-.51 1.23-.63 1.83-.29.61.34.9 1.04.72 1.71-2.36 8.49-1.73 13.72-1.13 18.77.67 5.56 1.29 10.81-1.91 19.35-.17.45-.55.8-1.01.92-.13.04-.26.05-.39.05zm.21-33.65c-4.18 6.03-6.29 12.46-5.89 18.25.3 4.34 2.02 8.2 5.01 11.26 2.11-6.62 1.59-10.92 1.01-15.83-.46-3.82-.96-8.01-.12-13.68z"/><path d="m396.94 244.07c-.34 0-.68-.12-.95-.34-2.65-2.17-4.18-5.11-4.42-8.5-.32-4.61 1.82-9.78 5.88-14.18.47-.51 1.23-.63 1.83-.29.61.34.9 1.04.72 1.71-1.24 4.45-.91 7.2-.59 9.86.35 2.95.72 6-1.07 10.76-.17.45-.55.8-1.01.92-.13.04-.26.05-.39.05zm-.82-15.93c-1.16 2.34-1.71 4.7-1.56 6.88.12 1.75.7 3.34 1.7 4.69.68-2.77.44-4.78.17-7.02-.16-1.37-.34-2.83-.31-4.55z"/><path d="m223.94 228.07c-.34 0-.68-.12-.95-.34-2.65-2.17-4.18-5.11-4.42-8.5-.32-4.61 1.82-9.78 5.88-14.18.47-.51 1.23-.63 1.83-.29.61.34.9 1.04.72 1.71-1.24 4.45-.91 7.2-.59 9.86.35 2.95.72 6-1.07 10.76-.17.45-.55.8-1.01.92-.13.04-.26.05-.39.05zm-.82-15.93c-1.16 2.34-1.71 4.7-1.56 6.88.12 1.75.7 3.34 1.7 4.69.68-2.77.44-4.78.17-7.02-.16-1.37-.34-2.83-.31-4.55z"/><path d="m379.91 79.07c-.05 0-.11 0-.16 0-.51-.05-.96-.36-1.18-.82-3.13-6.26-2.67-13.07-2.18-20.28.5-7.29 1.06-15.55-1.91-24.94-.21-.67.07-1.4.69-1.75.61-.35 1.39-.23 1.86.3 8.52 9.46 17.15 30.58 4.06 46.94-.29.36-.72.56-1.17.56zm-.83-39.59c1.1 6.89.68 13.07.3 18.69-.41 6.09-.78 11.46.89 16.37 7.77-11.74 4.35-25.71-1.19-35.06z"/><path d="m324.13 184.57c-.05 0-.11 0-.16 0-.51-.05-.96-.36-1.18-.82-2.57-5.15-2.2-10.71-1.8-16.59.4-5.89.85-12.56-1.54-20.13-.21-.67.07-1.4.69-1.75.61-.35 1.39-.23 1.86.3 6.97 7.75 14.03 25.03 3.3 38.44-.29.36-.72.56-1.17.56zm-.18-30.95c.62 5.02.32 9.56.03 13.73-.32 4.67-.6 8.82.52 12.6 5.48-8.77 3.36-19-.56-26.33z"/><path d="m439.91 195.07c-.32 0-.63-.1-.9-.3-.2-.15-4.8-3.71-2.54-11.61 1.9-6.64.96-15.33.95-15.42-.07-.62.26-1.22.82-1.51.56-.28 1.24-.18 1.7.24 5.03 4.69 7.52 9.71 7.41 14.92-.17 7.84-6.2 13.1-6.46 13.32-.28.24-.63.36-.98.36zm.74-23.44c.07 3.36-.1 8.16-1.3 12.35-1.09 3.81-.18 6.19.62 7.4 1.55-1.72 4.29-5.41 4.38-10.08.06-3.28-1.18-6.52-3.69-9.67z"/><path d="m407.28 120.07c-.37 0-.74-.14-1.02-.4-5.03-4.69-7.52-9.71-7.41-14.92.17-7.84 6.2-13.1 6.46-13.32.54-.46 1.32-.48 1.88-.06.2.15 4.8 3.71 2.54 11.61-1.9 6.64-.96 15.33-.95 15.42.07.62-.26 1.22-.82 1.51-.21.11-.44.16-.67.16zm-1.06-25.31c-1.55 1.72-4.29 5.41-4.38 10.08-.06 3.28 1.18 6.52 3.69 9.67-.07-3.36.1-8.16 1.3-12.35 1.09-3.81.18-6.19-.62-7.4z"/><path d="m342.72 262.07c-.37 0-.74-.14-1.02-.4-4.03-3.76-6.03-7.8-5.94-12 .13-6.32 5-10.56 5.2-10.73.54-.46 1.32-.48 1.88-.06.16.12 3.96 3.06 2.12 9.5-1.48 5.18-.75 11.97-.74 12.04.07.62-.26 1.22-.82 1.51-.21.11-.44.16-.67.16zm-.89-19.73c-1.21 1.43-3.02 4.11-3.08 7.42-.04 2.24.72 4.47 2.27 6.65 0-2.58.2-5.91 1.05-8.86.72-2.54.28-4.23-.23-5.21z"/><path d="m324.53 347.23c-46.68 0-58.28-30.28-60.72-39.56-2.75-10.46-.05-18.48 2.56-26.25 1.86-5.52 3.78-11.23 3.78-17.9 0-15.77-6.12-26.49-6.18-26.6-.27-.46-.27-1.04 0-1.5s.76-.75 1.3-.75c.17 0 16.7.17 20.6 14.79 1.86 6.96 4.18 10.93 5.91 13.11-.32-7.89.13-26.11 9.59-39.13 11.49-15.82 12.54-28.28 12.55-28.41.06-.8.74-1.38 1.55-1.39.81.03 1.44.69 1.44 1.5 0 .5.14 12.18 9.44 12.18 2.67 0 4.42-.57 5.37-1.74 1.19-1.47 1.34-4.19.46-8.3-3.14-14.64 5.04-21.9 13-23.66.63-.14 1.27.14 1.61.68s.28 1.25-.13 1.74c-6.76 8.11-5.58 17.66 3.7 30.06 12.28 16.41 10.73 33.96 8.94 54.28-.15 1.68-.3 3.38-.44 5.1-1.17 14.06-.43 21.62.2 25.1 5.11-5.8 19.04-24.02 16.87-47.89-.05-.6.26-1.18.79-1.46.54-.28 1.18-.22 1.65.16 20.48 16.76 24.07 52.55 18.73 70.88-6.67 22.87-31.76 34.96-72.56 34.96zm-56.72-109.34c1.91 4.19 5.34 13.39 5.34 25.63 0 7.17-2 13.11-3.93 18.86-2.58 7.68-5.02 14.94-2.5 24.53 2.3 8.76 13.28 37.32 57.82 37.32 39.33 0 63.42-11.34 69.68-32.8 4.88-16.72 2.05-48.56-15.08-65.33.83 28.45-18.95 47.76-19.83 48.6-.36.34-.86.49-1.34.39s-.89-.43-1.08-.88c-.12-.27-2.86-6.98-1.03-28.98.14-1.72.29-3.42.44-5.11 1.74-19.71 3.24-36.73-8.36-52.22-3.36-4.49-12.92-17.25-6.29-29.79-5.04 2.78-8.66 8.66-6.54 18.55 1.1 5.13.76 8.56-1.06 10.82-1.55 1.92-4.07 2.85-7.7 2.85-6 0-9.31-3.7-10.98-7.77-1.62 5.43-4.91 13.47-11.58 22.65-11.45 15.76-8.8 40.65-8.77 40.89.06.55-.18 1.08-.63 1.4s-1.04.36-1.53.11c-.25-.12-6.12-3.2-9.9-17.37-2.48-9.28-10.87-11.71-15.15-12.34z"/><path d="m284.41 232.57c-.25 0-.5-.06-.73-.19-.61-.34-.91-1.07-.71-1.74 1.52-5.06.84-9.16.18-13.13-.59-3.55-1.2-7.22-.2-11.38.12-.52.51-.93 1.02-1.09.51-.15 1.06-.03 1.45.33 5.29 4.86 8.98 16.71.11 26.7-.29.33-.7.5-1.12.5zm1.03-22.5c-.08 2.35.29 4.6.68 6.95.36 2.16.74 4.48.77 7.02 1.81-5.18.77-10.41-1.45-13.97z"/><path d="m326.63 339.07c-21.05 0-30.64-10.85-32.45-20.14-1.45-7.45-.28-11.57.86-15.55 1.07-3.73 2.07-7.25.86-13.72-.09-.51.08-1.03.46-1.38s.91-.48 1.41-.35c9.97 2.66 13.05 8.93 14.01 12.39 2.02-1.8 4.91-6.43 1.7-17.33-2.48-8.42-1.97-15.57 1.5-21.25 5.23-8.57 15.23-10.56 15.66-10.64.6-.11 1.21.14 1.54.65s.32 1.17-.02 1.67c-.1.15-10.43 15.35-3.49 23.83 1.64 2 3.29 2.93 4.93 2.75 3.29-.36 6.31-5.01 7.2-6.77.27-.55.86-.88 1.46-.82.61.05 1.13.46 1.31 1.04.3.97 6.91 22.42 1.2 35.18 6.16-.77 9.3-3.18 9.34-3.21.44-.35 1.04-.42 1.55-.19s.85.72.88 1.28c.03.6.71 14.79-8.31 24.33-5.17 5.46-12.43 8.23-21.58 8.23zm-27.4-47.53c.69 5.69-.32 9.23-1.3 12.66-1.09 3.81-2.12 7.4-.8 14.15 1.59 8.17 10.28 17.72 29.5 17.72 8.29 0 14.81-2.45 19.39-7.28 5.98-6.31 7.23-15.23 7.47-19.56-2.25 1.09-6.02 2.41-11.32 2.6-.58.04-1.09-.28-1.36-.76-.28-.49-.25-1.09.06-1.56 5.65-8.57 2.44-24.98.7-31.93-1.67 2.26-4.35 5.03-7.65 5.39-2.69.32-5.26-.99-7.59-3.83-6.14-7.51-1.71-18.41 1.26-23.95-3.06 1.25-7.37 3.69-10.07 8.12-3 4.93-3.39 11.26-1.17 18.82 5.34 18.16-4.74 21.88-5.17 22.03-.45.15-.94.09-1.33-.18s-.63-.7-.65-1.18c-.02-.33-.52-7.76-9.97-11.28z"/><path d="m195.91 384.07c-.63 0-1.21-.4-1.42-1.03-3.75-11.24-2.57-25.75 2.67-33.03 2.33-3.24 5.36-4.95 8.75-4.95 10.91 0 98.61 4.18 102.33 4.36.83.04 1.47.74 1.43 1.57s-.73 1.45-1.57 1.43c-.91-.04-91.35-4.36-102.19-4.36-2.42 0-4.55 1.25-6.32 3.7-4.74 6.58-5.74 19.9-2.26 30.32.26.79-.16 1.64-.95 1.9-.16.05-.32.08-.47.08z"/><path d="m216.03 367.69c-.78 0-1.44-.6-1.49-1.39-.3-4.28-1.82-18.23-8.63-18.23-.83 0-1.5-.67-1.5-1.5s.67-1.5 1.5-1.5c6.53 0 10.66 7.46 11.62 21.01.06.83-.56 1.54-1.39 1.6-.04 0-.07 0-.11 0z"/><path d="m203.91 412.07c-.6 0-1.17-.37-1.4-.96-4.04-10.51-10.72-23.04-19.6-23.04-.83 0-1.5-.67-1.5-1.5s.67-1.5 1.5-1.5c8.49 0 16.03 8.4 22.4 24.96.3.77-.09 1.64-.86 1.94-.18.07-.36.1-.54.1z"/><path d="m198.07 442.25c-6.4 0-14.35-5.49-19.58-21.21-4.32-12.96-4.83-24.62-1.37-31.18 1.3-2.46 3.16-4.1 5.38-4.74 6.94-1.98 125.68-32.75 130.73-34.06.8-.21 1.62.27 1.83 1.08.21.8-.27 1.62-1.08 1.83-1.24.32-123.75 32.07-130.66 34.04-1.44.41-2.63 1.51-3.56 3.25-3.04 5.76-2.44 16.81 1.57 28.83 6.74 20.22 16.41 19.37 18.28 19 1.89-.38 4.79-5.68 5.07-14.28.03-.83.75-1.48 1.55-1.45.83.03 1.48.72 1.45 1.55-.26 7.82-2.91 16.21-7.48 17.12-.69.14-1.4.21-2.13.21z"/><path d="m199.91 442.07c-.59 0-1.15-.35-1.39-.92-.32-.77.05-1.64.81-1.96l53-22c.77-.32 1.64.04 1.96.81s-.05 1.64-.81 1.96l-53 22c-.19.08-.38.11-.57.11z"/><path d="m233.43 442.07c-.12 0-.24-.01-.35-.04-.4-.1-.75-.36-.95-.72l-4.52-8c-.41-.72-.16-1.63.56-2.04l67.85-38.91 30.99-28.88c.58-.54 1.5-.54 2.07.02l2.96 2.88c.29.29.46.68.45 1.09s-.17.8-.47 1.08l-32.08 30.12c-.06.06-.13.11-.2.16l-65.48 43c-.25.16-.53.25-.82.25zm-2.48-8.94 3 5.31 64.03-42.05 30.84-28.96-.81-.79-30.07 28.03c-.08.08-.18.15-.28.2z"/><path d="m282.34 403.42c-.33 0-.66-.11-.94-.33-.65-.52-.75-1.46-.23-2.11l39.55-49.41c.28-.36.72-.56 1.17-.56h6.64c.58 0 1.11.33 1.36.86s.17 1.15-.2 1.59l-34.63 42.05c-.53.64-1.47.73-2.11.21-.64-.53-.73-1.47-.21-2.11l32.61-39.6h-2.74l-39.1 48.84c-.3.37-.73.56-1.17.56z"/><path d="m266.11 442.24c-.1 0-.21-.01-.31-.03l-10.2-2.17c-.48-.1-.88-.43-1.07-.88s-.15-.96.11-1.38l13.41-21.57c.44-.7 1.36-.92 2.07-.48.7.44.92 1.36.48 2.07l-12.28 19.75 6.96 1.48 14.89-30.69c.36-.75 1.26-1.06 2-.7.75.36 1.06 1.26.7 2l-15.4 31.75c-.25.53-.78.85-1.35.85z"/><path d="m300.51 500.57c-4.13 0-8.48-.51-12.94-1.54-15.96-3.68-23.6-12.12-27.21-18.54-3.48-6.21-4.59-13.26-2.88-18.39 3-8.99 24.91-53.93 25.84-55.84.36-.74 1.26-1.05 2.01-.69.74.36 1.05 1.26.69 2.01-.23.46-22.76 46.67-25.69 55.47-1.08 3.26-1.04 9.39 2.65 15.98 3.31 5.9 10.38 13.65 25.27 17.09 13.31 3.07 25.42 1.26 33.25-4.97 4.39-3.49 6.91-8.08 6.91-12.57 0-11.97 6.73-57.3 7.02-59.22.12-.82.89-1.39 1.7-1.26.82.12 1.38.88 1.26 1.7-.07.47-6.98 47.03-6.98 58.78 0 5.42-2.93 10.85-8.04 14.92-5.86 4.66-13.84 7.08-22.86 7.08z"/><path d="m329.41 483.77s-.07 0-.11 0c-.83-.06-1.45-.78-1.39-1.61 1.44-19.54-14.22-36.23-29.19-38.1-.82-.1-1.4-.85-1.3-1.67s.86-1.41 1.67-1.3c16.33 2.04 33.41 19.5 31.81 41.3-.06.79-.72 1.39-1.49 1.39z"/><path d="m258.91 464.07c-.19 0-.37-.03-.56-.11-.77-.31-1.14-1.18-.84-1.95 2.77-6.93 8.12-12.61 15.46-16.42.74-.38 1.64-.1 2.02.64s.1 1.64-.64 2.02c-6.7 3.48-11.56 8.62-14.06 14.87-.23.59-.8.94-1.39.94z"/><path d="m364.1 469.85c-6.49 0-12.77-1.52-17.62-4.45-4.51-2.73-7.29-6.38-8.05-10.56-1.99-10.93-5.83-78.87-6.02-82.16-.16-1.73-1.27-15.65 4.87-18.48 5.27-2.42 11.09-2.08 17.3 1.02.31.16.56.41.7.73l3.68 8.29 4.24.85c.44.09.81.36 1.02.75.24.44 24.13 44.31 32.08 64.16 3.47 8.67 3.69 16.29.67 22.64-3.25 6.84-10.38 12.15-20.62 15.35-3.96 1.24-8.15 1.84-12.25 1.84zm-19.57-114.25c-2.08 0-4.07.44-6 1.33-3.21 1.48-3.63 10.29-3.13 15.5v.06c.04.71 4.02 71.03 5.98 81.82.6 3.31 2.9 6.26 6.65 8.53 7.2 4.36 17.97 5.26 27.42 2.31 9.42-2.94 15.92-7.71 18.81-13.77 2.65-5.57 2.39-12.38-.75-20.24-7.36-18.41-28.66-57.82-31.59-63.22l-4.31-.86c-.48-.1-.88-.42-1.08-.86l-3.78-8.5c-2.91-1.39-5.63-2.08-8.23-2.08z"/><path d="m449.79 465.13c-1.78 0-3.64-.48-5.57-1.57-10.08-5.7-55.74-46.49-57.68-48.22-.62-.55-.67-1.5-.12-2.12s1.5-.67 2.12-.12c.47.42 47.36 42.31 57.16 47.84 7.08 4 12.89-2.74 20.31-12.71.92-1.24 1.82-2.45 2.71-3.59 5.77-7.42 11.17-26.05 9.78-33.79-.24-1.36-.7-2.31-1.27-2.67-5.75-3.57-116.46-56.91-117.58-57.45-.75-.36-1.06-1.26-.7-2s1.26-1.06 2-.7c4.57 2.2 111.97 53.95 117.86 57.6 1.35.84 2.24 2.42 2.65 4.69 1.65 9.21-4.64 28.8-10.37 36.16-.88 1.13-1.77 2.32-2.67 3.54-5.12 6.87-11.25 15.1-18.63 15.1z"/><path d="m440.91 450.07s-.06 0-.08 0c-.83-.05-1.46-.75-1.42-1.58.99-17.79 21.13-43.07 38.62-43.07.83 0 1.5.67 1.5 1.5s-.67 1.5-1.5 1.5c-14.66 0-34.64 22.56-35.62 40.24-.04.8-.71 1.42-1.5 1.42z"/><path d="m338.76 446.08c-.17 0-.34-.03-.5-.09-.78-.28-1.19-1.14-.91-1.92 7.33-20.53 23.51-24.79 24.2-24.96.81-.2 1.62.29 1.82 1.09s-.29 1.62-1.09 1.82c-.15.04-15.33 4.1-22.1 23.06-.22.61-.8 1-1.41 1z"/><path d="m396.34 436.23c-.54 0-1.06-.29-1.33-.8-2.19-4.13-4.46-8.4-17.54-12.43-.79-.24-1.24-1.08-.99-1.88.24-.79 1.08-1.23 1.88-.99 13.21 4.07 16.45 8.5 19.31 13.89.39.73.11 1.64-.62 2.03-.22.12-.47.18-.7.18z"/><path d="m476.41 357.57c-.72 0-1.35-.52-1.48-1.25-.04-.22-.99-5.31-6.19-7.91-4.33-2.03-64.74 2.36-101.81 5.6-.83.07-1.55-.54-1.62-1.36-.07-.83.54-1.55 1.36-1.62 16.2-1.42 97.34-8.33 103.42-5.29 6.61 3.3 7.76 9.82 7.81 10.09.14.82-.42 1.59-1.23 1.73-.08.01-.17.02-.25.02z"/><path d="m428.39 371.19c-10.62 0-20.92-.38-29.15-1.42-.82-.1-1.4-.85-1.3-1.68.1-.82.85-1.4 1.68-1.3 26.81 3.38 76.05-.35 85.19-1.1l-.71-9.43c-5.28 2.07-20.45 7.64-34.5 9.29-16.96 2-61.91-2.31-63.82-2.5-.82-.08-1.43-.81-1.35-1.64s.81-1.43 1.64-1.35c.46.04 46.53 4.46 63.18 2.5 16.59-1.95 35.43-9.77 35.62-9.85.45-.19.95-.15 1.36.1s.68.69.71 1.17l.98 12.96c.06.82-.55 1.54-1.37 1.61-.41.04-30.35 2.62-58.15 2.62z"/><path d="m467.21 400.64c-2.42 0-4.57-.17-4.99-.2-.83-.07-1.44-.79-1.37-1.62s.79-1.44 1.62-1.37c2.02.17 7.75.44 9.97-.3 2.24-1.42 8.86-20.75 6.36-29.16-.24-.79.22-1.63 1.01-1.87s1.63.22 1.87 1.01c2.65 8.91-3.82 31.37-8.28 32.86-1.53.51-3.96.65-6.17.65z"/><path d="m391.73 351.96c-.49 0-.98-.24-1.26-.69-.45-.7-.24-1.63.46-2.07l45.18-28.89c.69-.44 1.6-.25 2.06.43l6 9c.23.34.3.76.22 1.15s-.33.74-.68.96l-30.75 18.82c-.7.43-1.63.21-2.06-.5s-.21-1.63.5-2.06l29.42-18.01-4.32-6.48-43.94 28.1c-.25.16-.53.24-.81.24z"/><path d="m287.94 350.89c-.16 0-.32-.02-.48-.08l-51.68-17.37-1.28 3.23 26.9 9.48c.78.28 1.19 1.13.92 1.91-.28.78-1.13 1.19-1.91.92l-28.37-10c-.38-.14-.7-.42-.87-.79s-.18-.79-.03-1.17l2.37-6c.29-.74 1.12-1.12 1.87-.87l53.03 17.82c.79.26 1.21 1.11.94 1.9-.21.63-.79 1.02-1.42 1.02z"/><path d="m258.41 387.78c-1.61 0-2.85-.48-3.75-1.04-2.15-1.33-3.34-3.68-3.66-5.32-.51.07-1.5.25-3.35.74-.53.14-1.08-.18-1.22-.71s.18-1.08.71-1.22c4.18-1.1 4.84-.92 5.33-.55.28.22.44.54.44.89 0 .81.81 3.24 2.81 4.47 1.78 1.1 4.05.98 6.75-.37 2.38-1.19 5.39-3.01 8.88-5.12 8.2-4.96 18.4-11.12 28.3-13.95.53-.14 1.08.16 1.24.69.15.53-.16 1.08-.69 1.24-9.64 2.75-19.72 8.84-27.81 13.74-3.52 2.13-6.56 3.97-9.02 5.19-1.92.96-3.57 1.31-4.94 1.31z"/><path d="m209.91 394.57c-.41 0-.8-.25-.94-.66-.19-.52.08-1.09.61-1.28.13-.05 12.88-4.6 24.21-8.31.53-.17 1.09.11 1.26.64.17.52-.11 1.09-.64 1.26-11.3 3.71-24.03 8.25-24.16 8.29-.11.04-.22.06-.34.06z"/><path d="m263.51 401.32c-.5 0-.94-.38-.99-.89-.06-.55.33-1.04.88-1.11 4.41-.49 7.69-1.35 10.04-2.63l11-6c.48-.27 1.09-.09 1.36.4.26.48.09 1.09-.4 1.36l-11 6c-2.58 1.41-6.1 2.34-10.77 2.87-.04 0-.08 0-.11 0z"/><path d="m216.91 418.57c-.38 0-.74-.21-.91-.58-.23-.5-.01-1.1.49-1.33 8.89-4.1 10.58-6.98 12.38-10.03.77-1.31 1.57-2.67 2.94-4.12 2.12-2.25 7.94-2.5 14.75-2.58h.01c.55 0 .99.44 1 .99 0 .55-.44 1-.99 1.01-5.87.07-11.74.28-13.32 1.95-1.21 1.28-1.92 2.48-2.67 3.76-1.87 3.18-3.81 6.47-13.27 10.83-.14.06-.28.09-.42.09z"/><path d="m286.91 425.57c-.14 0-.29-.03-.43-.1-.5-.24-.71-.83-.47-1.33l8.29-17.41c.24-.5.83-.71 1.33-.47s.71.83.47 1.33l-8.29 17.41c-.17.36-.53.57-.9.57z"/><path d="m323.91 449.57c-.05 0-.1 0-.16-.01-.54-.09-.92-.6-.83-1.14l7-44c.09-.54.59-.92 1.14-.83.54.09.92.6.83 1.14l-7 44c-.08.49-.5.84-.99.84z"/><path d="m304.91 410.57c-.26 0-.51-.1-.71-.29-.39-.39-.39-1.02 0-1.41l2.92-2.92c.69-1.08 7.17-11.31 10.92-17.87.27-.48.88-.65 1.36-.37.48.27.65.88.37 1.36-3.97 6.94-10.95 17.93-11.02 18.04-.04.06-.08.12-.14.17l-3 3c-.2.2-.45.29-.71.29z"/><path d="m297.56 432.15c-.08 0-.15 0-.23-.03-.54-.13-.87-.66-.75-1.2 0-.04 1.01-4.31 2.36-9.03.15-.53.7-.84 1.24-.69.53.15.84.71.69 1.24-1.34 4.67-2.33 8.89-2.34 8.93-.11.46-.52.77-.97.77z"/><path d="m276.2 357.07s-.03 0-.05 0l-19.39-.93c-.55-.03-.98-.5-.95-1.05s.51-.98 1.05-.95l19.39.93c.55.03.98.5.95 1.05-.03.54-.47.95-1 .95z"/><path d="m248.12 355.73s-.03 0-.05 0l-24.21-1.16c-.55-.03-.98-.5-.95-1.05s.5-.98 1.05-.95l24.21 1.16c.55.03.98.5.95 1.05-.03.54-.47.95-1 .95z"/><path d="m236.92 365.39c-.52 0-.96-.41-1-.94-.03-.55.39-1.03.94-1.06l16.37-1c.56-.02 1.03.39 1.06.94s-.39 1.03-.94 1.06l-16.37 1s-.04 0-.06 0z"/><path d="m353.91 414.57c-.42 0-.81-.26-.95-.68-1.94-5.81-7.3-21.39-8.88-23.76-.4-.6-1.02-1.98-1.69-6.92-.07-.55.31-1.05.86-1.13.55-.07 1.05.31 1.13.86.62 4.56 1.17 5.77 1.37 6.08 2.05 3.08 8.83 23.38 9.12 24.24.17.52-.11 1.09-.63 1.26-.11.04-.21.05-.32.05z"/><path d="m342.43 374.71c-.52 0-.96-.4-1-.92-.35-4.44-.52-8.13-.52-8.17-.03-.55.4-1.02.95-1.05.55-.02 1.02.4 1.05.95 0 .04.18 3.7.52 8.11.04.55-.37 1.03-.92 1.07-.03 0-.05 0-.08 0z"/><path d="m376.91 413.57c-.43 0-.83-.28-.96-.71-.02-.06-1.79-5.95-3.86-11.58-.19-.52.08-1.09.59-1.28.52-.19 1.09.08 1.28.59 2.09 5.68 3.88 11.63 3.9 11.69.16.53-.14 1.09-.67 1.25-.1.03-.19.04-.29.04z"/><path d="m367.91 391.57c-.19 0-.38-.05-.55-.17-.24-.16-.49-.32-.76-.5-3.27-2.1-8.75-5.61-10.66-16.16-.1-.54.26-1.06.8-1.16s1.06.26 1.16.8c1.76 9.69 6.58 12.78 9.78 14.83.28.18.55.35.79.52.46.31.58.93.28 1.39-.19.29-.51.45-.83.45z"/><path d="m454.03 404.96c-.14 0-.28-.03-.41-.09l-42.2-19.22c-.5-.23-.72-.82-.5-1.32.23-.5.82-.73 1.32-.5l42.2 19.22c.5.23.72.82.5 1.32-.17.37-.53.59-.91.59z"/><path d="m388.26 375.02c-.14 0-.28-.03-.41-.09l-16.35-7.45c-.5-.23-.72-.82-.5-1.32.23-.5.82-.73 1.32-.5l16.35 7.45c.5.23.72.82.5 1.32-.17.37-.53.59-.91.59z"/><path d="m439.98 419.57c-.12 0-.23-.02-.35-.06-.16-.06-16.27-6.1-27.15-12.13-5.06-2.81-9.51-6.81-14.23-11.06-2.01-1.81-4.09-3.68-6.28-5.52-4.76-3.99-9.06-6.96-13.53-9.35-.49-.26-.67-.87-.41-1.35.26-.49.86-.67 1.35-.41 4.6 2.45 9.01 5.5 13.88 9.58 2.22 1.87 4.31 3.75 6.34 5.57 4.63 4.17 9 8.1 13.86 10.79 10.75 5.96 26.72 11.95 26.88 12.01.52.19.78.77.59 1.29-.15.4-.53.65-.94.65z"/><path d="m399.26 410.86c-.21 0-.43-.07-.61-.21l-9.45-7.29c-.44-.34-.52-.97-.18-1.4.34-.44.96-.52 1.4-.18l9.45 7.29c.44.34.52.97.18 1.4-.2.25-.49.39-.79.39z"/><path d="m432.96 433.58c-.2 0-.4-.06-.58-.18l-17.36-12.34c-.45-.32-.56-.94-.24-1.39s.94-.56 1.39-.24l17.36 12.34c.45.32.56.94.24 1.39-.2.27-.5.42-.82.42z"/><path d="m451.91 384.57c-.53 0-.97-.42-1-.95-.03-.55.4-1.02.95-1.04l21.65-1c.55-.02 1.02.4 1.04.95.03.55-.4 1.02-.95 1.04l-21.65 1s-.03 0-.05 0z"/><path d="m421.08 357.59s-.04 0-.06 0c-9.78-.53-18.27-.72-23.9-.52-.51.03-1.02-.41-1.03-.96-.02-.55.41-1.01.96-1.03 5.69-.2 14.25-.02 24.08.52.55.03.97.5.94 1.05-.03.53-.47.95-1 .95z"/><path d="m445.02 359.66c-.48 0-.92-.04-1.31-.11-1.32-.26-4.47-.62-8.63-.98-.55-.05-.96-.53-.91-1.08s.52-.97 1.08-.91c4.3.37 7.44.73 8.85 1.01 3.85.78 16.03-4.02 20.4-5.94.5-.22 1.1 0 1.32.52.22.51 0 1.09-.52 1.32-1.54.67-14.3 6.18-20.29 6.18z"/><path d="m302.41 479.07c-.29 0-.58-.13-.78-.38-.34-.43-.27-1.06.16-1.41 2.1-1.68 2.98-5.11 2.14-8.33-1.09-4.18-4.62-7.06-9.68-7.9-.54-.09-.91-.61-.82-1.15s.61-.92 1.15-.82c5.88.98 9.99 4.39 11.29 9.37 1.05 4.03-.09 8.21-2.83 10.4-.18.15-.41.22-.62.22z"/><path d="m274.21 470.07s-.03 0-.05 0c-.55-.03-.98-.5-.95-1.05.27-5.42 2.56-9.59 6.63-12.05 7.3-4.41 18.82-2.58 26.99 1.19.5.23.72.83.49 1.33s-.82.72-1.33.49c-7.7-3.55-18.45-5.33-25.12-1.3-3.52 2.13-5.42 5.64-5.66 10.44-.03.53-.47.95-1 .95z"/><path d="m295.2 488.96c-.53 0-.98-.42-1-.96-.02-.55.41-1.02.96-1.04 7.28-.31 12.4-2.27 15.21-5.83 3.08-3.9 2.26-8.39 2.25-8.43-.11-.54.25-1.07.79-1.17.54-.11 1.07.25 1.17.79.04.22 1 5.44-2.64 10.05-3.19 4.04-8.81 6.25-16.7 6.58-.01 0-.03 0-.04 0z"/><path d="m366.98 461.33c-1.93 0-3.79-.23-5.5-.64-6.75-1.62-11.63-5.95-12.13-10.79-.71-6.77 1.22-13.17 5.28-17.55 4.36-4.69 10.86-6.94 19.26-6.68.55.02.99.48.97 1.03-.02.54-.46.97-1 .97h-.03c-7.85-.24-13.79 1.79-17.74 6.04-3.67 3.95-5.41 9.78-4.76 15.98.42 4 4.68 7.63 10.61 9.05 6.97 1.67 16.58.13 22.63-9.22.3-.46.92-.6 1.38-.3s.6.92.3 1.38c-5.13 7.93-12.61 10.72-19.27 10.72z"/><path d="m367.66 451.15c-.85 0-1.67-.09-2.43-.27-3.91-.94-5.77-4.02-5.12-8.45.08-.55.59-.93 1.13-.84.55.08.92.59.84 1.13-.49 3.38.75 5.53 3.61 6.22 4.17 1 10.88-1.62 12.27-5.76.18-.52.74-.81 1.27-.63.52.18.8.74.63 1.27-1.51 4.48-7.35 7.33-12.2 7.33z"/><path d="m472.66 427.65c-.11 0-.22-.02-.33-.06-.52-.18-.8-.75-.61-1.27 1.32-3.75 1.41-6.94.22-7.76-.85-.59-3.89-1.06-13.9 7.28-.43.35-1.05.3-1.41-.13-.35-.42-.3-1.06.13-1.41 8.25-6.87 13.58-9.29 16.32-7.38 2.94 2.04 1.34 7.72.52 10.06-.14.41-.53.67-.94.67z"/><path d="m459.27 440.84c-.81 0-1.57-.18-2.19-.66-1.4-1.08-1.61-3.21-.63-6.5.16-.53.71-.83 1.24-.67s.83.71.67 1.24c-.96 3.22-.36 4.12-.06 4.35.97.76 3.91-.38 5.59-1.38.47-.28 1.09-.13 1.37.34s.13 1.09-.34 1.37c-.66.4-3.34 1.91-5.66 1.91z"/><path d="m450.2 456.18c-.72 0-1.37-.18-1.91-.63-2.33-1.93-.9-7.43 2.23-19.47l.42-1.6c.14-.53.69-.86 1.22-.72.54.14.86.68.72 1.22l-.42 1.61c-2.37 9.11-4.24 16.31-2.89 17.43.23.19 1.07.48 4.03-.91 8.02-3.76 14.45-13.7 14.52-13.8.3-.46.92-.6 1.38-.3s.6.92.3 1.38c-.27.43-6.81 10.52-15.35 14.54-1.42.67-2.94 1.27-4.25 1.27z"/><path d="m199.91 371.9c-.5 0-.93-.38-.99-.89-.96-8.41 1.45-16.04 5.37-17 1.52-.38 4.48 0 7.05 6.7.2.52-.06 1.09-.57 1.29-.52.19-1.09-.06-1.29-.57-1.46-3.79-3.22-5.84-4.71-5.47-2.25.55-4.82 6.46-3.86 14.83.06.55-.33 1.04-.88 1.11-.04 0-.08 0-.11 0z"/><path d="m195.23 432.66c-.45 0-.92-.06-1.4-.17-5.46-1.33-11.98-10.33-13.97-19.26-.12-.54.22-1.07.76-1.19s1.07.22 1.19.76c1.77 8 7.84 16.63 12.49 17.75 1.35.33 2.45-.04 3.34-1.12 4.31-5.17 2.09-22.62-8.56-32.76-.4-.38-.42-1.01-.04-1.41s1.02-.41 1.41-.04c10.8 10.28 14.12 29.01 8.72 35.49-1.08 1.29-2.42 1.95-3.95 1.95z"/><path d="m189.91 422.8c-.77 0-1.53-.34-2.21-1.02-2.36-2.36-4.08-9.29-2.66-13.72.73-2.26 2.18-3.64 4.21-3.98.54-.09 1.06.28 1.15.82s-.28 1.06-.82 1.15c-1.27.21-2.13 1.07-2.63 2.62-1.17 3.64.26 9.78 2.17 11.69.63.63 1.01.45 1.31.23 1.3-.95 2.37-4.64 1.13-7.07-.25-.49-.06-1.09.44-1.35.49-.25 1.09-.06 1.35.44 1.67 3.27.44 8.01-1.74 9.6-.54.39-1.12.59-1.69.59z"/><path d="m162.91 383.07c-.45 0-.9-.2-1.2-.59-4.77-6.28-5.85-12.4-5.9-12.66-.07-.44.05-.88.33-1.22.29-.34.71-.53 1.15-.53h4.18l-2.69-7.7c-.17-.48-.08-1.01.23-1.42.31-.4.8-.62 1.31-.57.22.02 5.06.52 12.91 7.48-2.37-26.23-19.24-55.08-19.42-55.38-.37-.62-.24-1.42.3-1.89.55-.47 1.35-.49 1.92-.05.66.52 15.92 12.96 28.49 53.82l7.27-12.77c.33-.58 1.01-.87 1.65-.72.65.16 1.12.72 1.15 1.39l.67 14.22c.04.83-.6 1.53-1.43 1.57s-1.53-.6-1.57-1.43l-.43-9.06-6.45 11.32c-.3.52-.88.81-1.48.75-.6-.07-1.1-.49-1.26-1.07-6.56-22.43-14.09-36.66-19.76-45.11 5.64 11.95 12.98 30.66 13.58 48.06.02.62-.34 1.18-.9 1.43-.56.24-1.22.12-1.66-.32-5.07-5.07-8.96-7.38-11.31-8.42l2.4 6.86c.16.46.09.97-.19 1.36s-.74.63-1.22.63h-4.38c.63 2.11 2.04 5.84 4.89 9.59.5.66.37 1.6-.29 2.1-.27.21-.59.31-.91.31z"/><path d="m107 409.07h-10.09c-.83 0-1.5-.67-1.5-1.5s.67-1.5 1.5-1.5h9.86l11.64-3.8c.39-.13.81-.09 1.17.1l5.73 3.05 4.35-12.4c.25-.72 1-1.13 1.74-.97.74.17 1.24.86 1.17 1.62l-.84 8.26c.27-.13.57-.17.88-.12l7.66 1.22-5.04-5.42c-.48-.52-.54-1.31-.13-1.89s1.17-.79 1.82-.51l13.99 6.05c-3.21-7.48-9.89-10.41-9.97-10.44-.56-.24-.93-.8-.91-1.42s.4-1.16.98-1.37c.36-.13 8.31-2.96 16.23 4.31 5.95-16.99 12.75-19.48 13.54-19.72.56-.17 1.17 0 1.56.45.39.44.48 1.06.25 1.6-.09.21-9.36 21.32-4.61 31.72.34.75.01 1.64-.74 1.99s-1.64.01-1.99-.74c-3.77-8.26-.07-21.58 2.54-28.92-2.4 2.77-5.56 7.83-8.47 16.89-.17.51-.59.9-1.12 1.01s-1.07-.07-1.43-.47c-3.88-4.35-7.88-5.54-10.73-5.71 3.09 2.32 7.15 6.49 8.82 13.19.14.55-.05 1.14-.48 1.51-.44.37-1.04.46-1.57.23l-10.52-4.55 3.13 3.36c.44.47.53 1.16.23 1.73-.3.56-.92.88-1.56.78l-11.04-1.75-2.12 2.96c-.4.55-1.11.77-1.75.53s-1.03-.88-.96-1.56l.09-.88-.73 2.1c-.15.41-.46.74-.87.9s-.86.13-1.25-.07l-6.7-3.58-11.26 3.68c-.15.05-.31.07-.47.07z"/><path d="m488.14 381.05c-.08 0-.16 0-.24-.02-.82-.13-1.37-.9-1.24-1.72 1.45-8.96 6.95-20.55 11.58-29.13-3.32 3.97-7.09 8.92-10.56 14.46-.44.7-1.36.92-2.07.48-.7-.44-.92-1.36-.48-2.07 9.04-14.46 20.16-24.95 20.27-25.05.55-.52 1.4-.54 1.98-.06s.71 1.32.31 1.96c-.16.25-15.61 24.63-18.08 39.89-.12.74-.76 1.26-1.48 1.26z"/><path d="m503.83 403.46c-.05 0-.1 0-.15 0-.63-.06-1.15-.51-1.3-1.13-2.46-9.82.61-19.76 3.42-26.09-1.77 1.83-3.63 4.18-5.05 7.01-.3.59-.96.92-1.6.81-.65-.12-1.15-.65-1.23-1.31-.01-.11-1.29-11.03-5.05-20.68-.3-.77.08-1.64.85-1.94s1.64.08 1.94.85c2.47 6.34 3.89 13.04 4.61 17.23 4.12-5.9 9.32-9.01 9.58-9.16.6-.35 1.37-.25 1.85.26.48.5.55 1.28.17 1.86-.09.14-8.22 12.69-7.31 25.79 4.12-8.44 9.97-17.95 26.31-21.01.74-.14 1.47.29 1.7 1.01s-.1 1.5-.79 1.82c-14.07 6.65-13.82 16.28-13.8 16.69.04.82-.6 1.53-1.42 1.57-.81.06-1.53-.59-1.57-1.41-.02-.36-.28-6.91 6.31-13.35-8.6 4.5-12.07 11.8-15.21 18.43-.31.65-.61 1.28-.91 1.91-.25.52-.78.85-1.35.85z"/><path d="m545.07 409.7c-.21 0-.42-.04-.62-.13-.5-.23-.83-.71-.88-1.25-.24-3.16 1.46-6.21 3.15-8.41l-.28.05c-.46.08-.92-.06-1.26-.37s-.52-.76-.48-1.22l.32-4.2c-1.6 1.17-3.64 2.81-5.12 4.53-.34.4-.87.59-1.38.5-.52-.08-.95-.43-1.15-.92-1.68-4.19-1.85-8.36-1.52-11.68-2.56 4.1-5.77 10.79-7.65 20.53-.13.66-.67 1.15-1.34 1.21-.65.06-1.29-.33-1.53-.96-1.63-4.27-5.85-7.21-9.17-8.95 1.3 2.34 2.57 5.36 2.7 8.35.03.83-.61 1.53-1.44 1.56-.81.05-1.53-.61-1.56-1.44-.22-5.17-4.86-10.84-4.91-10.9-.42-.51-.46-1.24-.09-1.79s1.06-.8 1.69-.6c.42.13 8.93 2.83 13.55 9.05 3.99-16.27 11.31-23.12 11.64-23.42.52-.47 1.29-.52 1.86-.13.58.4.8 1.14.54 1.79-.03.07-2.63 6.81-.75 13.98 2.94-2.76 6.39-4.89 6.56-5 .48-.29 1.09-.29 1.57 0s.76.83.71 1.39l-.42 5.4 2.71-.45c.67-.11 1.32.24 1.61.84s.13 1.33-.38 1.77c-1.07.92-3.3 3.25-4.48 5.82l3.65-2.73c.55-.41 1.31-.4 1.85.04l4.61 3.76 4.06-1.35c.36-.12.76-.1 1.11.06 1.44.67 3.19 1.45 3.74 1.63h12.59c.83 0 1.5.67 1.5 1.5s-.67 1.5-1.5 1.5h-12.76c-.31 0-.7 0-4.29-1.66l-4.28 1.43c-.49.16-1.02.06-1.42-.26l-4.34-3.54-5.84 4.37c-.26.2-.58.3-.9.3z"/></svg>