<svg fill="none" height="146" viewBox="0 0 226 146" width="226" xmlns="http://www.w3.org/2000/svg" xmlns:xlink="http://www.w3.org/1999/xlink"><clipPath id="a"><path d="m0 0h208.52v94.784h-208.52z" transform="matrix(.96588109 -.25898594 .25898594 .96588109 0 54.0039)"/></clipPath><g clip-path="url(#a)"><path d="m61.1926 129.408c-2.2316-11.875-2.7796-47.4341 14.7208-68.5344s30.6816-22.4149 31.3226-19.6216c.642 2.7932-34.106 36.4859-33.4682 58.1395.6377 21.6535 1.7803 24.3705-.3537 25.8955-2.1339 1.524-12.2215 4.121-12.2215 4.121z" fill="#ff3939"/><path d="m122.52 59.6083c-2.572 2.3956-1.995 11.0951 5.401 12.2676 7.396 1.1726 9.076-11.0971 4.491-13.2139-4.585-2.1169-6.941-1.8246-9.902.9406z" fill="#ff3939"/><path d="m24.1837 123.346c-.9109 14.118 10.5039 19.622 15.0203 15.553 4.5165-4.068 7.1129-37.754 14.7757-56.6225 7.0502-17.354 17.0507-28.1524 30.6857-36.455 13.635-8.3025 4.8695-13.7792 1.489-12.9805-3.3804.7987-25.8642 15.3916-36.4572 33.4637-10.5931 18.072-25.5135 57.0413-25.5135 57.0413z" fill="#ff3939"/><g fill="#000"><path d="m31.5954 139.714c-.2086.056-.4173.111-.6398.146-3.5976.7-6.8468-.823-8.9261-4.191-2.1629-3.495 1.7816-21.002 15.5382-51.1534 14.5689-31.9099 50.2016-53.7142 53.0746-54.7993 2.1287-.8027 5.0886.5985 6.0843 2.8909.5774 1.3195 1.2371 4.7372-5.0596 7.8502-40.3266 19.3109-52.6825 85.9776-53.9595 93.5096-.4283 2.541-3.0002 4.904-6.1142 5.739zm59.9889-107.782s-.0619.0165-.0928.0248c-2.6706 1.006-37.743 22.892-51.7354 53.5539-14.5874 31.9643-16.8765 46.9653-15.6871 48.8993 2.0891 3.374 4.9245 3.384 6.4293 3.096 2.5724-.507 4.5852-2.422 4.8357-3.897 1.305-7.705 13.8769-75.4812 55.2835-95.3053 3.1156-1.5394 4.5474-3.2734 3.9074-4.7334-.4927-1.1269-2.0752-1.8704-2.9406-1.6383z"/><path d="m35.2962 142.672s-.0541.014-.0773.021c-5.4771 1.319-7.937-1.831-8.4728-3.675-.1875-.638.1816-1.3.8188-1.487.6233-.209 1.2994.181 1.4868.819.0984.305 1.1102 3.09 5.5997 2.01 2.6732-.626 45.4104-17.063 91.5826-35.332 61.095-24.1756 86.625-35.1293 90.651-37.5672-1.456-3.1131-8.902-16.3978-35.095-31.5141-26.101-15.0829-66.796-10.8303-86.0817-3.2157-.6052.2451-1.3168-.0611-1.5562-.6761-.2394-.6149.0611-1.3167.676-1.5562 20.3039-8.0199 61.0799-12.2777 88.1739 3.3588s35.088 29.2631 36.475 33.5379c.108.3436.076.7167-.109 1.0478-.454.8092-1.644 2.9505-90.951 38.3018-43.6004 17.265-89.3964 34.928-93.1131 35.925z"/><path d="m59.3073 128.307c-.5796.156-1.1979-.142-1.4269-.719-.2395-.615.061-1.316.676-1.556l154.4366-61.0723c.615-.2394 1.316.0611 1.556.676.239.615-.061 1.3168-.676 1.5562l-154.4365 61.0721c-.0463.013-.0927.025-.1313.036z"/><path d="m131.655 72.7633c-1.136.3046-2.386.4326-3.632.3276-2.724-.2137-4.92-1.4552-6.015-3.4063-1.411-2.5123-1.245-5.754.42-8.0721 1.537-2.1433 4.023-3.0666 6.822-2.5417 3.238.6145 5.687 2.5503 6.716 5.3059.827 2.2215.566 4.6768-.671 6.2425-.773.9776-2.095 1.7298-3.648 2.1462zm-5.081-11.2853c-.888.2382-1.636.7535-2.197 1.5335-1.117 1.5501-1.232 3.8089-.281 5.5004.952 1.6993 2.989 2.0975 4.114 2.1851 2.131.1656 4.369-.509 5.211-1.5712.716-.9126.84-2.4866.308-3.9174-.431-1.1434-1.636-3.1644-4.916-3.784-.812-.155-1.561-.1365-2.233.0438z"/><path d="m68.9142 124.506-6.8076 1.825c-.6413.172-1.2978-.207-1.4698-.848l-.8847-3.3c-.1409-.525.0923-1.076.5573-1.35.8975-.514 1.6889-.991 2.3825-1.401 2.6703-1.594 3.7845-2.257 4.8244-1.931.4351.14.7818.444.9695.866.4192.915 1.1388 4.093 1.2814 4.717.1425.625-.2349 1.256-.8608 1.424zm-6.2701-.804 4.5281-1.214c-.213-.887-.4524-1.842-.6398-2.479-.6237.3-1.6226.899-2.6025 1.477-.4938.289-1.0277.615-1.6157.955l.3356 1.251z"/><path d="m61.2219 123.032c-.1314.035-.2689.047-.4127.036-.6608-.055-1.148-.637-1.101-1.295.0948-1.161 2.4365-28.5991 9.0176-42.6054l.541-1.1639c6.3242-13.4818 13.4812-28.769 35.0972-39.7415.525-.2651 1.17-.115 1.514.3643s.297 1.138-.121 1.5565c-18.86 18.8723-34.6701 37.8131-37.1685 78.753-.0393.657-.6147 1.167-1.2713 1.128-.6643-.038-1.1649-.607-1.1277-1.272 2.2736-37.268 15.3456-56.6591 31.7777-74.0522-15.1318 9.9794-20.9108 22.3129-26.5289 34.2885l-.5488 1.1659c-6.3956 13.617-8.7743 41.5048-8.7987 41.7848-.0436.517-.413.93-.8844 1.057z"/><path d="m73.6852 122.622c-.1159.031-.2436.048-.3699.041-.6643-.037-1.1706-.597-1.1334-1.262.0095-.242 1.3348-24.7995 6.8326-41.4557 5.1453-15.5925 22.3195-33.8308 25.3805-36.9955l-.643-3.3889c-.126-.6538.286-1.2779.958-1.3999.653-.1256 1.282.3023 1.4.9581l.756 3.9964c.071.3869-.046.7828-.327 1.0651-.194.2012-19.8838 20.2733-25.2452 36.5119-5.3962 16.3556-6.7019 40.5845-6.7191 40.8295-.0317.53-.3949.967-.8895 1.1z"/><path d="m138.265 27.3578c-.232.0622-.49.0569-.731-.0361-.617-.2321-.935-.9252-.695-1.5445l2.737-7.2441c.232-.6171.927-.9278 1.544-.6957.618.2321.936.9253.696 1.5445l-2.737 7.2441c-.139.3769-.451.6345-.814.7318z"/><path d="m91.3458 40.1536c-.4096.1098-.8443-.1215-.9716-.5346-.1295-.4208.1054-.8731.5263-1.0025l47.4315-14.8053c.404-.133.874.1054 1.003.5263.129.4208-.106.8731-.526 1.0025l-47.4323 14.8053s-.0232.0062-.0309.0083z"/><path d="m144.467 34.4579c-.231.0622-.49.0569-.73-.0361-.617-.2321-.935-.9252-.696-1.5445l2.738-7.2441c.232-.6171.927-.9278 1.544-.6957s.936.9253.696 1.5445l-2.737 7.2441c-.14.3769-.452.6345-.815.7318z"/><path d="m103.783 46.907c-.402.1077-.825-.1102-.963-.5037-.145-.4167.072-.8726.489-1.0174l41.186-14.4392c.411-.1351.872.0725 1.017.4892s-.073.8726-.489 1.0174l-41.186 14.4392s-.039.0103-.062.0165z"/><path d="m69.2526 59.0151c-.4018.1078-.8247-.1101-.9633-.5037-.1449-.4167.0725-.8725.4892-1.0174l17.8073-6.2407c.4167-.1449.8725.0725 1.0174.4892s-.0725.8725-.4892 1.0174l-17.8073 6.2407s-.0386.0104-.0618.0166z"/><path d="m157.123 39.1235c-.232.0621-.49.0568-.73-.0361-.617-.2321-.936-.9253-.696-1.5446l2.737-7.244c.232-.6172.928-.9279 1.545-.6958s.935.9253.696 1.5445l-2.738 7.2441c-.139.3769-.451.6345-.814.7319z"/><path d="m91.7552 60.9576c-.3941.1056-.8149-.1046-.9633-.5037-.1526-.4147.0647-.8705.4794-1.0231l65.8747-23.8339c.399-.1484.878.0627 1.023.4794.153.4147-.064.8705-.479 1.0231l-65.8751 23.8339s-.0463.0124-.0695.0186z"/><path d="m58.4214 73.0184c-.3941.1057-.8149-.1045-.9633-.5037-.1526-.4146.0647-.8705.4793-1.0231l19.0788-6.9047c.4146-.1526.8705.0648 1.023.4794.1526.4147-.0647.8705-.4794 1.0231l-19.0787 6.9047s-.0463.0124-.0695.0186z"/><path d="m170.636 43.9569c-.232.0621-.49.0568-.731-.0361-.617-.2321-.935-.9253-.695-1.5445l2.737-7.2441c.232-.6172.925-.9356 1.544-.6957.618.232.936.9252.696 1.5445l-2.737 7.244c-.139.3769-.451.6345-.814.7319z"/><path d="m83.2003 74.3671c-.3941.1056-.8149-.1046-.9613-.496-.1526-.4146.0627-.8782.4773-1.0308l87.9347-32.4076c.425-.147.879.0627 1.031.4773.153.4146-.062.8782-.477 1.0308l-87.9373 32.3999s-.0463.0124-.0695.0186z"/><path d="m51.9472 85.8778c-.3941.1057-.8149-.1045-.9613-.496-.1526-.4146.0627-.8782.4774-1.0308l18.6407-6.87c.4244-.147.8782.0627 1.0308.4773s-.0627.8782-.4773 1.0308l-18.6408 6.8701s-.0463.0124-.0695.0186z"/><path d="m178.155 51.118c-.232.0622-.49.0569-.731-.0361-.617-.2321-.935-.9253-.695-1.5445l2.737-7.2441c.232-.6171.925-.9355 1.545-.6957.617.2321.935.9253.695 1.5445l-2.737 7.2441c-.139.3769-.451.6344-.814.7318z"/><path d="m79.5304 86.0105c-.3941.1057-.8149-.1045-.9535-.4981-.1526-.4146.055-.8761.4696-1.0287l99.1315-36.8924c.413-.1603.876.055 1.029.4696.152.4147-.055.8762-.47 1.0287l-99.1314 36.8924s-.0464.0125-.0695.0187z"/><path d="m47.1762 98.0488c-.394.1057-.8148-.1045-.9535-.498-.1526-.4147.055-.8762.4696-1.0287l19.062-7.0907c.3992-.1485.8761.0549 1.0287.4696.1526.4146-.055.8761-.4696 1.0287l-19.062 7.0907s-.0463.0124-.0695.0186z"/><path d="m185.249 58.393c-.232.0621-.49.0568-.73-.0361-.617-.2321-.936-.9253-.696-1.5445l2.737-7.2441c.232-.6172.928-.9278 1.545-.6957.617.232.935.9252.696 1.5445l-2.738 7.244c-.139.3769-.451.6345-.814.7319z"/><path d="m76.677 96.1269c-.3941.1057-.8149-.1045-.9612-.496-.1526-.4146.0627-.8782.4794-1.023l109.0788-39.7336c.409-.1428.871.0647 1.023.4794.153.4146-.062.8782-.479 1.023l-109.0792 39.7336s-.0463.0125-.0695.0187z"/><path d="m43.846 108.086c-.3941.105-.8149-.105-.9613-.496-.1525-.415.0627-.879.4794-1.023l20.3432-7.4098c.4069-.1505.8782.0627 1.0231.4794.1448.4164-.0627.8784-.4794 1.0234l-20.3432 7.409s-.0464.012-.0695.019z"/><path d="m196.957 62.3935c-.232.0621-.49.0568-.73-.0361-.617-.2321-.936-.9253-.696-1.5445l2.737-7.2441c.232-.6172.928-.9278 1.545-.6958.617.2321.935.9253.696 1.5446l-2.738 7.244c-.139.3769-.451.6345-.814.7319z"/><path d="m75.4774 106.015c-.3941.106-.8071-.106-.9514-.49-.1526-.415.0549-.876.4696-1.029l121.9864-45.6212c.407-.1505.876.055 1.029.4696s-.055.8761-.47 1.0287l-121.9863 45.6209s-.0464.013-.0773.021z"/><path d="m40.9319 118.93c-.3941.106-.8072-.106-.9515-.49-.1526-.415.055-.876.4696-1.029l21.2288-7.936c.3992-.149.8761.055 1.0287.469.1526.415-.0549.876-.4696 1.029l-21.2288 7.937s-.0463.012-.0772.02z"/><path d="m209.03 65.6576c-.232.0621-.49.0568-.73-.0361-.617-.2321-.936-.9253-.696-1.5445l2.738-7.2441c.232-.6172.925-.9356 1.544-.6958.617.2321.936.9253.696 1.5446l-2.738 7.244c-.139.3769-.451.6345-.814.7319z"/><path d="m74.2427 115.805c-.3864.103-.8051-.099-.9494-.483-.1603-.413.0473-.874.4598-1.034l135.2949-52.147c.413-.1603.874.0472 1.034.4598.161.4125-.047.874-.459 1.0343l-135.2953 52.1469s-.0541.014-.085.023z"/><path d="m37.9264 129.808c-.3864.103-.8051-.099-.9494-.483-.1603-.412.0472-.874.4598-1.034l22.6108-8.713c.4224-.155.8741.047 1.0344.459.1603.413-.0472.875-.4598 1.035l-22.6109 8.713s-.054.015-.0849.023z"/></g></g></svg>