<svg width="778" height="613" viewBox="0 0 778 613" fill="none" xmlns="http://www.w3.org/2000/svg">
<path d="M297.508 94.0904C315.508 78.0904 324.008 48.5905 373.008 48.5905C403.508 48.5903 432.509 44.0903 446.509 60.0903C460.509 76.0903 520.509 94.0904 551.509 111.09C582.509 128.09 615.415 142.59 615.415 174.59C615.415 206.59 612.008 231.09 628.008 269.09C644.008 307.09 641.008 308.59 639.008 333.59C637.008 358.59 668.508 378.09 654.508 414.09C640.508 450.09 598.509 461.09 596.509 485.09C594.509 509.09 561.509 537.09 551.509 537.09C541.509 537.09 506.509 546.09 484.509 566.09C462.509 586.09 420.508 577.09 384.508 560.09C348.508 543.09 297.508 524.09 280.508 537.09C263.509 550.09 208.508 552.09 185.508 537.09C162.508 522.09 182.008 474.09 162.008 446.09C142.007 418.09 130.008 382.59 131.008 338.59C132.008 294.59 180.508 277.09 185.508 243.09C190.508 209.09 178.508 192.09 191.508 153.09C204.508 114.09 279.508 110.09 297.508 94.0904Z" fill="#E1E3E6"/>
<path d="M276.008 72.5901C276.508 85.0899 257.008 89.5901 235.508 82.0901C219.289 78.5901 212.008 65.0902 213.508 55.0902C215.008 45.0902 235.508 48.5905 254.508 55.0902C273.508 61.5898 275.508 60.0903 276.008 72.5901Z" fill="#E1E3E6"/>
<path d="M162.008 189.59C152.507 179.59 143.008 202.59 147.008 219.59C147.935 227.09 168.008 233.59 178.008 223.09C188.008 212.59 171.508 199.59 162.008 189.59Z" fill="#E1E3E6"/>
<path d="M535.008 36.0902C532.508 30.0902 515.508 26.5902 508.508 42.0902C508.508 48.0902 497.008 60.0903 508.508 64.0903C520.008 68.0902 537.508 42.0902 535.008 36.0902Z" fill="#E1E3E6"/>
<path d="M646.508 223.09C642.008 213.59 639.008 206.09 634.008 185.09C634.008 159.09 663.008 196.59 664.508 216.09C666.008 235.59 651.008 232.59 646.508 223.09Z" fill="#E1E3E6"/>
<path d="M547.508 42.0902C561.008 36.0902 573.008 37.0906 566.508 48.5905C560.008 60.0904 543.508 57.59 547.508 42.0902Z" fill="#E1E3E6"/>
<path d="M268.008 33.09C279.008 37.59 286.008 40.5895 279.008 47.0898C272.008 53.5902 257.008 33.09 268.008 33.09Z" fill="#E1E3E6"/>
<path d="M124.508 235.59C120.008 243.09 122.507 255.09 131.008 254.59C139.508 254.09 134.509 225.09 124.508 235.59Z" fill="#E1E3E6"/>
<path d="M104.008 502.59C93.0081 488.09 105.508 470.59 131.008 456.59C158.007 446.09 143.508 495.59 138.508 502.59C133.508 509.59 115.008 517.09 104.008 502.59Z" fill="#E1E3E6"/>
<path d="M143.508 515.59C147.508 528.59 158.508 521.59 157.508 515.59C156.508 509.59 148.508 505.09 143.508 515.59Z" fill="#E1E3E6"/>
<path d="M116.508 451.59C106.008 447.59 114.508 429.59 121.508 419.09C132.508 405.09 135.508 430.59 138.508 440.09C141.508 449.59 127.008 455.59 116.508 451.59Z" fill="#E1E3E6"/>
<path d="M369.508 578.09C350.508 583.09 359.008 598.09 369.508 602.09C380.008 606.09 394.008 578.09 369.508 578.09Z" fill="#E1E3E6"/>
<path d="M536.008 550.59C531.008 560.09 547.009 578.09 551.509 570.59C556.008 563.09 548.508 535.09 536.008 550.59Z" fill="#E1E3E6"/>
<path d="M634.008 506.59C626.008 502.59 617.508 485.09 628.008 473.59C632.859 462.09 654.508 456.59 662.508 476.09C670.507 495.59 642.008 510.59 634.008 506.59Z" fill="#E1E3E6"/>
<path d="M654.403 443.27L654.508 443.09C662.509 434.59 662.508 456.59 654.508 456.59C646.566 456.59 649.466 451.661 654.403 443.27Z" fill="#E1E3E6"/>
<path d="M634.008 236.09C628.008 243.09 631.509 252.09 639.008 249.09C646.508 246.09 644.008 229.09 634.008 236.09Z" fill="#E1E3E6"/>
<path d="M675.508 303.59C665.508 295.09 664.508 288.59 670.008 277.59C681.008 270.59 696.508 291.09 695.008 303.59C693.508 316.09 685.508 312.09 675.508 303.59Z" fill="#E1E3E6"/>
<path d="M496.508 32.0898C490.508 39.0898 493.008 44.0899 495.008 43.5899C497.008 43.0898 506.008 28.0898 496.508 32.0898Z" fill="#E1E3E6"/>
<path d="M351 99.5L358.5 81.5L376 62.5L392 56.5L407 55.5L420.5 62.5L432.5 97L439.5 108.5L443.5 117L437.5 119.5L446.5 132.5L445 143V153L438.5 156.5L437.5 159.5L431 164.5L446.5 173L451.5 183L446.5 197L491 219.5L499 226L507 238.5L508.5 254L507 272L513.5 290.5L522 319V332L513.5 349L523 364.5L529 373L527.5 387V397L522 407.5L510.5 421L501.5 422.5L493.5 429H484L480 434L419.5 461.5L439 466.5L442 471.5L446.5 472L455.5 475.5L461.5 481.5L465.5 497L474 506L486.5 517.5L491.5 532.5V540.5L475 556L464.5 561.5L455.5 560.5L445.5 554.5L442.5 545.5L435 527.5L428 521L405.5 511.5L399.5 497L393 492.5L367.5 475.5L354 493.5L339.5 506L326.5 519.5L321 538L324 540.5L322 548.5L315 554.5L293.5 551L296 540.5L320 501.5L316 452.5L309 446.5L287 434.5L284.5 430L270.5 421.5L266.5 409.5L261 405L250 394L248.5 385L250 363.5L260 350L251.5 340L252.5 327L263.5 306L274 265L283 230.5L286 226L303 213.5L341.5 193.5L332 176L335.5 171.5L355 165.5V162H348.5L344 156.5L334 153V142V129L339 121.5V106.5L351 99.5Z" fill="white"/>
<path d="M507.82 412.852C507.613 412.852 507.406 412.794 507.222 412.679C506.682 412.346 506.51 411.645 506.843 411.093C506.843 411.07 508.268 408.667 508.038 404.861C508.003 404.229 508.486 403.688 509.118 403.642C509.739 403.619 510.29 404.091 510.336 404.723C510.612 409.288 508.888 412.174 508.808 412.289C508.589 412.645 508.21 412.84 507.831 412.84L507.82 412.852Z" fill="#222222"/>
<path d="M347.432 384.556L353.017 386.752L375.941 407.011L385.329 417.301L395.785 405.838L403.967 394.835L430.372 373.553C430.372 373.553 438.439 383.82 438.289 397.33C438.14 410.84 434.038 422.521 434.038 422.521C434.038 422.521 456.916 420.52 479.805 436.215C445.184 454.024 420.984 463.372 420.984 463.372C420.984 463.372 437.899 473.202 443.23 474.524C448.562 475.846 455.169 475.501 461.179 486.39C467.188 497.278 484.654 518.56 483.62 528.539C482.586 538.519 454.434 564.055 446.804 557.157C439.174 550.258 437.565 528.827 434.486 526.769C431.406 524.711 404.116 516.053 402.071 511.282C400.025 506.51 391.534 489.241 382.939 485.619C374.344 481.998 368.058 480.675 368.058 480.675C368.058 480.675 359.67 495.944 348.673 501.072C337.677 506.2 319.774 527.344 319.625 533.069C319.476 538.795 319.51 550.58 319.51 550.58C319.51 550.58 308.893 555.087 297.253 551.339C285.612 547.591 272.973 541.141 278.994 517.801C285.015 494.461 290.439 495.737 293.955 486.367C297.471 476.996 309.674 453.219 309.674 453.219L312.581 450.874L284.119 437.077L285.003 430.765H295.713C295.713 430.765 294.242 427.971 306.123 426.511C318.005 425.039 342.939 428.856 342.939 428.856C342.939 428.856 339.78 408.724 340.71 405.079C341.641 401.435 345.134 392.455 345.134 392.455L347.432 384.533V384.556Z" fill="#FF3939"/>
<path d="M361.416 84.5753L357.992 82.3448C357.992 82.3448 369.402 65.8114 371.482 64.0178C373.562 62.2242 400.416 52.2559 410.24 51.4856C420.065 50.7152 425.557 61.4769 431.395 78.6081C437.232 95.7394 435.302 101.799 435.302 101.799C435.302 101.799 419.398 77.5849 417.422 74.722C415.446 71.8591 410.493 71.7441 410.493 71.7441C410.493 71.7441 403.897 94.5322 401.197 96.4062C398.497 98.2803 386.075 75.8257 384.639 73.0663C383.203 70.307 377.182 68.6628 372.126 71.8591C367.07 75.0554 361.428 84.5868 361.428 84.5868L361.416 84.5753Z" fill="#FF3939"/>
<path d="M338.584 188.812C329.3 193.342 287.405 216.578 285.348 220.982C283.291 225.385 272.973 285.919 269.744 297.221C266.515 308.523 254.047 321.389 258.15 330.806C262.252 340.222 265.63 345.028 265.63 345.028C265.63 345.028 283.28 338.946 289.393 340.682C295.506 342.418 302.779 345.672 303.963 347.086C305.146 348.5 310.639 356.249 310.639 356.249H312.88C312.88 356.249 303.848 277.848 304.032 274.318C304.216 270.789 306.342 266.408 306.342 266.408L310.191 263.43L320.487 262.2H461.753L470.842 263.43L476.369 270.087L473.922 298.808L470.543 343.2L472.083 346.339C472.083 346.339 497.064 346.339 500.166 346.764C503.269 347.189 511.91 351.581 514.702 350.374C517.494 349.167 533.018 325.77 529.065 315.525C525.113 305.281 505.533 264.132 505.096 254.784C504.659 245.437 505.027 217.797 497.397 212.738C489.767 207.679 445.896 198.722 445.896 198.722C445.896 198.722 439.22 213.324 434.497 215.267C429.774 217.21 402.794 222.752 402.794 222.752L395.911 227.34L380.043 217.797L358.279 209.576L349.087 203.896L338.573 188.789L338.584 188.812Z" fill="#FF3939"/>
<path d="M394.234 192.905C387.523 192.905 379.445 191.295 377.435 190.697C372.654 189.294 357.533 166.702 356.269 162.954L356.039 162.264C354.729 158.435 353.775 155.664 354.281 145.65C354.327 144.696 355.143 143.96 356.085 144.017C357.039 144.063 357.762 144.88 357.717 145.822C357.245 155.17 358.061 157.55 359.291 161.137L359.532 161.838C360.957 166.035 375.504 186.328 378.423 187.386C382.801 188.674 396.279 190.559 400.267 188.593C404.587 186.466 416.411 168.668 417.974 164.253C419.548 159.826 422.57 148.064 422.604 147.949C422.846 147.03 423.788 146.478 424.707 146.708C425.626 146.949 426.19 147.88 425.948 148.812C425.822 149.306 422.846 160.838 421.226 165.403C419.571 170.071 407.241 188.995 401.783 191.686C399.991 192.571 397.244 192.893 394.234 192.893V192.905Z" fill="#222222"/>
<path d="M364.668 143.259C364.484 143.259 364.301 143.213 364.128 143.121C363.565 142.822 363.358 142.12 363.657 141.569C364.668 139.683 366.668 138.418 369.31 138.027C373.252 137.441 377.894 138.821 380.376 141.293C380.824 141.741 380.824 142.465 380.376 142.914C379.928 143.362 379.204 143.362 378.756 142.914C376.779 140.936 372.884 139.809 369.655 140.292C368.311 140.488 366.53 141.063 365.691 142.638C365.484 143.029 365.082 143.247 364.68 143.247L364.668 143.259Z" fill="#222222"/>
<path d="M371.735 146.972C370.505 146.972 369.402 146.628 368.494 145.938C367.115 144.891 366.277 143.132 365.989 140.718C365.92 140.085 366.369 139.511 367.001 139.442C367.633 139.373 368.196 139.821 368.276 140.453C368.483 142.201 369.046 143.466 369.885 144.11C370.54 144.604 371.402 144.776 372.459 144.615C374.263 144.34 374.676 141.109 374.676 141.074C374.745 140.442 375.308 139.993 375.94 140.062C376.572 140.131 377.02 140.695 376.963 141.327C376.94 141.534 376.388 146.34 372.803 146.892C372.436 146.949 372.079 146.972 371.723 146.972H371.735Z" fill="#222222"/>
<path d="M412.079 144.351C411.665 144.351 411.274 144.132 411.068 143.741C410.137 141.994 407.436 140.717 404.334 140.579C401.737 140.453 398.416 141.166 396.865 143.523C396.509 144.052 395.796 144.201 395.268 143.845C394.739 143.5 394.59 142.787 394.946 142.246C396.716 139.568 400.278 138.084 404.449 138.28C408.448 138.475 411.768 140.154 413.101 142.66C413.4 143.224 413.182 143.914 412.63 144.213C412.458 144.305 412.274 144.351 412.09 144.351H412.079Z" fill="#222222"/>
<path d="M403.725 147.731C403.38 147.731 403.013 147.708 402.645 147.65C399.06 147.099 398.508 142.293 398.485 142.086C398.416 141.453 398.876 140.89 399.508 140.821C400.14 140.752 400.703 141.212 400.772 141.844C400.772 141.879 401.186 145.098 402.99 145.385C404.047 145.546 404.909 145.385 405.564 144.88C406.414 144.236 406.977 142.971 407.184 141.223C407.264 140.591 407.827 140.154 408.459 140.212C409.091 140.281 409.539 140.855 409.47 141.488C409.183 143.902 408.344 145.661 406.965 146.708C406.069 147.386 404.966 147.742 403.725 147.742V147.731Z" fill="#222222"/>
<path d="M396.612 163.425C395.555 163.425 394.59 163.08 393.866 162.46C391.786 162.896 385.248 164.081 381.226 162.724C378.434 161.781 376.538 160.068 376.044 158.01C375.596 156.193 376.262 154.25 377.905 152.549C380.79 149.559 385.133 139.269 385.214 133.992C385.214 133.359 385.731 132.854 386.363 132.854H386.374C387.006 132.854 387.512 133.382 387.512 134.015C387.443 139.43 383.053 150.525 379.56 154.135C378.802 154.929 377.951 156.147 378.273 157.458C378.583 158.734 379.928 159.861 381.962 160.539C386.064 161.919 393.901 160.091 393.981 160.068C394.429 159.965 394.889 160.126 395.164 160.493C395.739 161.241 396.785 161.137 397.083 161.08C397.934 160.942 398.669 160.424 398.864 159.838C399.106 159.102 398.531 158.274 397.991 157.723C397.555 157.263 397.566 156.538 398.026 156.101C398.485 155.665 399.209 155.676 399.646 156.136C401.496 158.068 401.312 159.746 401.036 160.574C400.565 161.977 399.163 163.069 397.451 163.356C397.164 163.402 396.877 163.425 396.601 163.425H396.612Z" fill="#222222"/>
<path d="M367.208 167.863C366.656 167.863 366.173 167.472 366.081 166.921C365.587 164.173 367.276 161.517 369.85 160.999C370.482 160.873 371.08 161.275 371.206 161.896C371.333 162.517 370.931 163.126 370.31 163.253C368.977 163.517 368.092 165.012 368.357 166.507C368.472 167.127 368.058 167.725 367.426 167.84C367.357 167.852 367.288 167.863 367.219 167.863H367.208Z" fill="#222222"/>
<path d="M388.753 172.611C387.466 172.611 386.121 172.313 385.133 171.853C384.777 171.692 383.248 171.381 381.893 171.105C378.744 170.473 374.447 169.599 372.171 168.323C371.62 168.012 371.425 167.311 371.735 166.759C372.045 166.207 372.746 166.012 373.298 166.322C375.251 167.426 379.353 168.254 382.341 168.852C384.409 169.266 385.512 169.496 386.087 169.76C387.27 170.3 389.304 170.542 390.315 170.013C390.993 169.657 391.912 169.657 393.188 169.645C395.681 169.634 399.439 169.611 402.714 166.782C403.196 166.368 403.92 166.414 404.334 166.897C404.748 167.38 404.69 168.104 404.219 168.518C400.301 171.899 395.865 171.922 393.211 171.933C392.499 171.933 391.614 171.933 391.384 172.037C390.637 172.427 389.706 172.6 388.753 172.6V172.611Z" fill="#222222"/>
<path d="M387.017 191.513C386.546 191.513 386.11 191.226 385.937 190.754C385.753 190.26 384.179 185.822 384.915 183.086C385.076 182.476 385.708 182.108 386.328 182.269C386.937 182.43 387.305 183.063 387.144 183.683C386.684 185.408 387.684 188.8 388.109 189.961C388.327 190.559 388.017 191.214 387.42 191.433C387.293 191.479 387.155 191.502 387.029 191.502L387.017 191.513Z" fill="#222222"/>
<path d="M409.057 168.657C409.057 168.657 409.022 168.657 408.999 168.657C408.367 168.622 407.873 168.082 407.908 167.449C407.954 166.495 407.23 165.035 405.805 164.908C405.173 164.851 404.702 164.299 404.759 163.667C404.817 163.034 405.368 162.563 406 162.62C408.643 162.85 410.309 165.368 410.206 167.564C410.171 168.185 409.666 168.657 409.057 168.657Z" fill="#222222"/>
<path d="M385.455 117.93C384.604 117.93 383.869 117.297 383.754 116.435C383.628 115.492 384.294 114.618 385.236 114.492C388.741 114.02 398.255 111.698 400.071 106.697C400.393 105.8 401.392 105.34 402.277 105.662C403.173 105.984 403.633 106.972 403.311 107.869C400.404 115.86 386.294 117.826 385.696 117.907C385.616 117.907 385.547 117.918 385.466 117.918L385.455 117.93Z" fill="#222222"/>
<path d="M378.905 124.38C377.998 124.38 377.239 123.667 377.182 122.747C377.136 121.793 377.86 120.988 378.813 120.931C384.26 120.632 390.086 117.309 390.798 114.09C391.005 113.158 391.924 112.572 392.855 112.779C393.786 112.986 394.372 113.906 394.165 114.837C393.004 120.114 385.386 124.035 378.997 124.38C378.963 124.38 378.928 124.38 378.905 124.38Z" fill="#222222"/>
<path d="M362.738 132.899C362.255 132.899 361.773 132.888 361.301 132.854C360.348 132.796 359.635 131.968 359.693 131.014C359.762 130.06 360.623 129.347 361.531 129.404C367.254 129.772 375.056 127.542 378.652 121.735C379.158 120.931 380.215 120.678 381.019 121.184C381.824 121.689 382.077 122.747 381.582 123.564C377.538 130.094 369.276 132.899 362.726 132.899H362.738Z" fill="#222222"/>
<path d="M344.858 146.386C344.054 146.386 343.33 145.822 343.169 144.994C342.985 144.063 343.583 143.155 344.513 142.959C344.582 142.948 351.752 141.465 355.338 137.82C355.636 137.521 356.027 137.337 356.441 137.314C360.543 137.027 361.428 135.532 362.772 133.256C363.45 132.117 364.208 130.818 365.449 129.588C366.127 128.91 367.219 128.91 367.885 129.588C368.563 130.266 368.563 131.358 367.885 132.025C366.966 132.957 366.369 133.945 365.737 135.015C364.312 137.418 362.703 140.131 357.314 140.694C352.902 144.753 345.502 146.271 345.18 146.34C345.065 146.363 344.95 146.374 344.835 146.374L344.858 146.386Z" fill="#222222"/>
<path d="M346.789 138.74C346.191 138.74 345.617 138.429 345.295 137.878C343.974 135.578 342.836 129.979 347.984 125.184C348.685 124.529 349.765 124.575 350.42 125.276C351.063 125.978 351.029 127.07 350.328 127.714C345.881 131.853 348.179 135.98 348.283 136.153C348.754 136.981 348.478 138.038 347.651 138.51C347.375 138.671 347.088 138.74 346.789 138.74Z" fill="#222222"/>
<path d="M344.605 122.425C341.871 122.425 340.044 121.183 339.366 120.631C337.148 118.826 335.631 108.053 336.838 105.765C337.378 104.765 338.78 103.868 342.192 101.787C346.088 99.4069 351.408 96.1531 353.637 93.1177C353.81 92.8878 371.229 69.6514 375.619 67.8808C379.733 66.2251 382.766 67.7083 383.846 69.7893C383.996 70.0768 384.271 70.7321 384.938 72.3303C391.487 88.1393 394.762 93.6121 396.36 95.3827C401.266 90.1399 408.252 75.0207 408.781 71.0081C409.091 68.6971 410.493 67.1794 412.538 66.9495C415.066 66.662 418.203 68.4786 419.031 70.6861C420.065 73.457 428.775 94.233 434.543 99.6483C439.76 104.546 444.448 112.514 444.391 116.366C444.368 117.642 443.851 118.366 443.414 118.746C441.208 120.677 439.289 121.436 436.841 121.379C435.75 121.356 434.727 120.551 432.486 118.815C427.292 114.767 416.491 106.351 399.968 105.006C385.685 104.73 369.219 109.858 351.098 120.286L350.201 120.804C348.064 122.011 346.168 122.425 344.594 122.425H344.605ZM341.606 118.01C342.33 118.573 344.697 119.953 348.524 117.791L349.397 117.297C368.092 106.535 385.156 101.246 400.106 101.557C400.14 101.557 400.174 101.557 400.209 101.557C417.79 102.971 429.154 111.836 434.612 116.09C435.589 116.849 436.68 117.699 437.129 117.929C438.542 117.929 439.553 117.504 440.955 116.32C441.104 114.572 437.783 107.421 432.187 102.166C425.224 95.6357 415.882 72.1348 415.802 71.9049C415.572 71.284 414.021 70.2607 412.929 70.3872C412.699 70.4102 412.332 70.4562 412.194 71.468C411.539 76.3774 403.174 94.371 397.555 98.9929C397.037 99.4184 396.314 99.5103 395.716 99.2114C392.728 97.7742 388.684 90.3698 381.755 73.6525C381.307 72.5832 380.893 71.5714 380.79 71.376C380.479 70.7781 379.158 70.1802 376.917 71.0771C374.516 72.1348 361.853 87.7369 356.429 95.1528C353.81 98.74 348.145 102.201 344.008 104.73C342.388 105.719 340.377 106.949 339.871 107.444C339.435 109.053 340.653 116.676 341.606 117.998V118.01Z" fill="#222222"/>
<path d="M385.455 96.3947C384.834 96.3947 384.248 96.0613 383.938 95.4865C382.904 93.5434 373.78 76.2971 373.677 70.0655C373.665 69.1112 374.424 68.3294 375.366 68.3179C376.308 68.2949 377.101 69.0652 377.124 70.0195C377.205 74.5955 384.26 88.7949 386.983 93.8768C387.431 94.7161 387.109 95.7624 386.271 96.2108C386.018 96.3488 385.731 96.4177 385.455 96.4177V96.3947Z" fill="#222222"/>
<path d="M403.978 98.671C403.484 98.671 402.989 98.4641 402.656 98.0502C402.047 97.3143 402.151 96.2336 402.875 95.6242C410.953 88.8867 412.596 78.4585 412.607 78.355C412.745 77.4122 413.63 76.7683 414.561 76.9063C415.503 77.0443 416.146 77.9181 416.008 78.8609C415.939 79.3438 414.181 90.6803 405.069 98.2801C404.748 98.5446 404.357 98.6825 403.966 98.6825L403.978 98.671Z" fill="#222222"/>
<path d="M340.136 120.609C339.642 120.609 339.159 120.402 338.814 119.988C338.205 119.263 338.297 118.171 339.021 117.562C352.58 106.156 377.067 99.0279 378.101 98.7405C379.009 98.476 379.974 99.0049 380.238 99.9247C380.503 100.845 379.974 101.799 379.055 102.063C378.813 102.132 354.235 109.284 341.239 120.218C340.917 120.494 340.526 120.62 340.136 120.62V120.609Z" fill="#222222"/>
<path d="M436.818 115.619C436.404 115.619 435.979 115.469 435.646 115.159C435.543 115.067 425.247 105.685 410.435 101.304C409.528 101.04 408.999 100.074 409.275 99.1657C409.551 98.2574 410.504 97.7285 411.412 98.0044C427.017 102.615 437.542 112.227 437.979 112.629C438.68 113.273 438.726 114.365 438.071 115.067C437.726 115.435 437.266 115.619 436.807 115.619H436.818Z" fill="#222222"/>
<path d="M432.785 101.385C432.004 101.385 431.303 100.856 431.107 100.062C428.281 88.2659 423.305 69.594 421.237 66.5012L420.628 65.5929C417.95 61.5572 415.434 57.7516 408.091 56.7628C399.542 55.613 380.387 58.5449 373.849 64.2132C366.771 70.3413 356.475 85.8169 353.028 98.2342C352.775 99.154 351.822 99.6829 350.902 99.43C349.983 99.177 349.443 98.2227 349.707 97.3029C353.315 84.2993 364.14 68.0533 371.597 61.6032C378.905 55.2796 399.198 52.0833 408.563 53.348C417.445 54.5438 420.674 59.4072 423.512 63.6958L424.109 64.5926C427.2 69.1916 433.739 96.2107 434.474 99.2805C434.692 100.212 434.129 101.143 433.199 101.362C433.061 101.396 432.923 101.408 432.796 101.408L432.785 101.385Z" fill="#222222"/>
<path d="M335.011 139.465C334.241 139.465 333.528 138.936 333.333 138.154C333.195 137.602 330.127 124.598 339.251 119.206C340.067 118.723 341.124 118.988 341.606 119.815C342.089 120.632 341.825 121.689 340.997 122.172C334.091 126.254 336.654 137.223 336.677 137.337C336.907 138.257 336.332 139.2 335.413 139.419C335.275 139.453 335.137 139.465 334.999 139.465H335.011Z" fill="#222222"/>
<path d="M335.528 149.869C334.988 149.869 334.448 149.617 334.115 149.134C331.322 145.132 331.265 138.866 336.585 134.647C337.332 134.049 338.412 134.175 339.01 134.923C339.596 135.67 339.481 136.751 338.734 137.349C334.919 140.384 335.137 144.558 336.953 147.168C337.493 147.949 337.309 149.019 336.528 149.571C336.229 149.777 335.884 149.881 335.539 149.881L335.528 149.869Z" fill="#222222"/>
<path d="M355.855 163.851C355.855 163.851 355.74 163.851 355.682 163.851C355.211 163.805 345.111 162.735 342.663 156.768C339.63 157.343 336.711 156.481 334.723 154.319C332.655 152.066 332.127 148.95 333.379 146.386C333.804 145.535 334.827 145.179 335.689 145.592C336.539 146.006 336.895 147.041 336.481 147.903C335.861 149.18 336.16 150.789 337.263 151.997C338.688 153.549 340.928 153.928 343.261 153.02C343.755 152.824 344.33 152.882 344.778 153.158C345.237 153.434 345.536 153.917 345.594 154.446C346.088 159.275 355.924 160.401 356.016 160.413C356.958 160.505 357.659 161.356 357.555 162.298C357.463 163.184 356.717 163.851 355.843 163.851H355.855Z" fill="#222222"/>
<path d="M354.671 155.986C354.671 155.986 354.637 155.986 354.625 155.986C346.834 155.791 345.237 151.318 345.237 144.661C345.237 143.707 346.007 142.937 346.961 142.937C347.915 142.937 348.685 143.707 348.685 144.661C348.685 151.215 350.259 152.422 354.706 152.537C355.659 152.56 356.406 153.353 356.383 154.308C356.36 155.25 355.59 155.986 354.66 155.986H354.671Z" fill="#222222"/>
<path d="M351.787 149.548C351.477 149.548 351.167 149.41 350.937 149.157C350.81 149.007 350.167 148.179 350.167 146.65C350.167 146.018 350.684 145.5 351.316 145.5C351.948 145.5 352.465 146.018 352.465 146.65C352.465 147.352 352.706 147.697 352.718 147.708C353.074 148.214 352.994 148.927 352.511 149.306C352.293 149.479 352.04 149.559 351.787 149.559V149.548Z" fill="#222222"/>
<path d="M376.71 133.877C376.124 133.877 375.63 133.44 375.573 132.842C375.515 132.209 375.975 131.646 376.595 131.589C376.63 131.589 380.571 131.163 382.168 129.025C382.548 128.519 383.271 128.415 383.777 128.783C384.283 129.163 384.386 129.887 384.007 130.393C381.801 133.359 377.021 133.854 376.814 133.877C376.779 133.877 376.733 133.877 376.699 133.877H376.71Z" fill="#222222"/>
<path d="M400.588 134.394C399.221 134.394 396.233 134.118 394.556 131.91C394.176 131.405 394.268 130.68 394.774 130.301C395.279 129.921 396.003 130.013 396.383 130.519C397.784 132.359 401.048 132.083 401.082 132.083C401.714 132.025 402.277 132.485 402.335 133.118C402.392 133.75 401.933 134.313 401.301 134.371C401.255 134.371 400.99 134.394 400.588 134.394Z" fill="#222222"/>
<path d="M406.689 135.153C406.689 135.153 406.666 135.153 406.655 135.153C406.517 135.153 403.127 135.015 400.68 130.818C400.358 130.266 400.542 129.565 401.093 129.243C401.645 128.921 402.346 129.105 402.668 129.657C404.426 132.681 406.632 132.842 406.724 132.853C407.356 132.888 407.838 133.416 407.816 134.049C407.793 134.67 407.287 135.153 406.678 135.153H406.689Z" fill="#222222"/>
<path d="M412.527 137.085C412.527 137.085 412.447 137.085 412.401 137.085C412.24 137.073 408.482 136.763 406.506 133.647C406 132.842 406.23 131.773 407.034 131.267C407.839 130.761 408.907 130.991 409.413 131.796C410.459 133.428 412.642 133.647 412.665 133.647C413.607 133.727 414.32 134.555 414.239 135.498C414.17 136.395 413.423 137.085 412.527 137.085Z" fill="#222222"/>
<path d="M368.058 135.153C368.058 135.153 367.989 135.153 367.955 135.153C367.323 135.153 366.806 134.624 366.817 133.992C366.817 133.359 367.334 132.853 367.966 132.853C368.001 132.853 368.035 132.853 368.058 132.853C371.735 132.853 374.952 130.784 374.975 130.761C375.504 130.416 376.216 130.565 376.561 131.094C376.906 131.623 376.757 132.336 376.228 132.681C376.079 132.784 372.425 135.141 368.047 135.141L368.058 135.153Z" fill="#222222"/>
<path d="M390.798 125.035C390.166 125.035 389.568 124.69 389.258 124.092C388.822 123.241 389.166 122.206 390.005 121.769C391.487 121.011 395.59 118.355 396.704 115.285C397.026 114.388 398.014 113.928 398.91 114.25C399.807 114.572 400.266 115.561 399.944 116.458C398.14 121.448 391.832 124.701 391.568 124.839C391.315 124.966 391.051 125.023 390.786 125.023L390.798 125.035Z" fill="#222222"/>
<path d="M414.17 125.253C414.17 125.253 414.101 125.253 414.055 125.253C409.654 124.977 401.013 122.298 399.749 114.158C399.6 113.215 400.243 112.342 401.185 112.192C402.128 112.043 403.001 112.698 403.15 113.629C404.299 121.045 413.86 121.781 414.262 121.804C415.216 121.873 415.928 122.689 415.871 123.632C415.813 124.54 415.055 125.242 414.158 125.242L414.17 125.253Z" fill="#222222"/>
<path d="M420.881 133.854C420.881 133.854 420.846 133.854 420.823 133.854C413.446 133.612 408.712 129.864 407.839 123.552C407.712 122.609 408.367 121.735 409.31 121.609C410.263 121.471 411.125 122.138 411.252 123.081C412.056 128.898 416.962 130.278 420.927 130.404C421.88 130.439 422.627 131.232 422.593 132.187C422.558 133.118 421.8 133.854 420.869 133.854H420.881Z" fill="#222222"/>
<path d="M421.926 123.104C421.823 123.104 421.708 123.104 421.605 123.069C420.674 122.897 420.053 121.988 420.226 121.057C420.26 120.873 420.984 116.125 416.078 110.077C415.48 109.341 415.583 108.249 416.33 107.651C417.066 107.053 418.157 107.157 418.755 107.904C424.741 115.262 423.673 121.436 423.627 121.701C423.466 122.529 422.742 123.104 421.938 123.104H421.926Z" fill="#222222"/>
<path d="M436.703 148.087C433.313 148.087 429.257 147.455 426.787 144.856C420.271 143.994 416.261 137.556 416.261 131.818C416.261 130.864 417.031 130.094 417.985 130.094C418.939 130.094 419.708 130.864 419.708 131.818C419.708 136.233 422.937 141.166 427.752 141.488C428.246 141.522 428.706 141.764 429.004 142.155C431.417 145.293 438.22 144.799 441.253 144.247C443.425 141.683 444.436 138.245 444.103 134.486C443.655 129.438 440.943 124.586 436.83 121.494C436.071 120.919 435.91 119.838 436.485 119.079C437.059 118.32 438.139 118.171 438.898 118.734C443.77 122.402 446.999 128.174 447.527 134.175C447.964 139.119 446.505 143.661 443.414 146.995C443.172 147.248 442.862 147.432 442.517 147.501C442.299 147.547 439.771 148.076 436.692 148.076L436.703 148.087Z" fill="#222222"/>
<path d="M435.301 158.665C434.566 158.665 433.888 158.194 433.658 157.458C433.371 156.55 433.877 155.584 434.784 155.296C439.243 153.882 442.943 151.008 443.552 148.455C443.827 147.306 443.46 146.236 442.403 145.179C441.725 144.5 441.725 143.408 442.403 142.741C443.081 142.063 444.172 142.063 444.839 142.741C447.263 145.167 447.298 147.628 446.895 149.272C445.838 153.606 440.576 157.067 435.818 158.585C435.646 158.642 435.474 158.665 435.301 158.665Z" fill="#222222"/>
<path d="M425.316 165.932C423.776 165.932 422.179 165.782 420.547 165.46C419.617 165.276 419.008 164.368 419.191 163.437C419.375 162.505 420.295 161.896 421.214 162.08C428.798 163.575 435.451 160.93 437.059 155.779C437.347 154.871 438.312 154.365 439.22 154.641C440.127 154.929 440.633 155.894 440.357 156.803C438.599 162.471 432.613 165.943 425.316 165.943V165.932Z" fill="#222222"/>
<path d="M422.765 160.263C422.627 160.263 422.478 160.263 422.328 160.263C421.375 160.24 420.616 159.459 420.639 158.504C420.662 157.55 421.444 156.757 422.397 156.814C426.959 156.895 429.315 155.193 429.774 154.009C430.487 152.181 433.015 145.662 433.015 145.662L436.232 146.903C436.232 146.903 433.704 153.445 432.98 155.274C432.072 157.608 428.844 160.275 422.753 160.275L422.765 160.263Z" fill="#222222"/>
<path d="M427.269 153.56C426.971 153.56 426.672 153.445 426.442 153.204C426.005 152.744 426.017 152.02 426.477 151.583C426.477 151.583 427.947 150.123 427.442 148.835C427.212 148.249 427.499 147.582 428.097 147.34C428.683 147.11 429.349 147.398 429.591 147.996C430.659 150.721 428.189 153.147 428.074 153.239C427.856 153.457 427.568 153.56 427.281 153.56H427.269Z" fill="#222222"/>
<path d="M389.465 177.59C388.465 177.59 387.236 177.544 385.776 177.417C385.144 177.36 384.673 176.808 384.731 176.176C384.788 175.543 385.317 175.072 385.972 175.129C390.04 175.474 392.165 175.141 392.188 175.129C392.809 175.037 393.406 175.451 393.51 176.084C393.613 176.705 393.188 177.302 392.567 177.406C392.51 177.406 391.464 177.59 389.476 177.59H389.465Z" fill="#222222"/>
<path d="M363.266 201.482H363.243C362.29 201.482 361.531 200.688 361.543 199.734C361.543 199.539 361.772 179.533 361.543 171.508C361.508 170.554 362.255 169.76 363.209 169.726C364.163 169.691 364.955 170.439 364.978 171.393C365.231 179.487 364.99 199.562 364.99 199.757C364.99 200.7 364.208 201.459 363.266 201.459V201.482Z" fill="#222222"/>
<path d="M418.744 196.089C417.824 196.089 417.054 195.353 417.02 194.422C417.02 194.296 416.572 181.395 416.273 169.438C416.25 168.484 416.997 167.69 417.951 167.667C417.962 167.667 417.985 167.667 417.997 167.667C418.927 167.667 419.697 168.415 419.72 169.346C420.019 181.292 420.456 194.181 420.467 194.307C420.502 195.261 419.755 196.055 418.801 196.089C418.778 196.089 418.755 196.089 418.744 196.089Z" fill="#222222"/>
<path d="M394.716 227.466C394.395 227.466 394.073 227.374 393.786 227.19C393.659 227.11 380.491 218.659 364.415 216.222C355.096 214.808 346.421 204.287 340.79 195.71C335.597 187.811 329.782 176.188 330.38 173.9C331.242 170.611 338.607 165.782 356.671 162.08C357.601 161.896 358.509 162.494 358.704 163.425C358.9 164.357 358.291 165.265 357.36 165.46C339.894 169.036 334.528 173.359 333.781 174.624C334.643 179.2 350.155 210.565 364.932 212.807C381.766 215.371 395.095 223.925 395.658 224.293C396.463 224.81 396.681 225.88 396.164 226.673C395.831 227.179 395.279 227.455 394.716 227.455V227.466Z" fill="#222222"/>
<path d="M386.351 222.994C385.961 222.994 385.57 222.867 385.248 222.591C385.156 222.522 376.194 215.107 361.336 210.439C344.353 205.092 341.641 175.509 341.641 175.222C341.641 171.451 350.949 167.898 359.67 165.84C360.601 165.621 361.52 166.196 361.75 167.116C361.968 168.047 361.394 168.967 360.474 169.197C349.512 171.796 345.72 174.624 345.111 175.44C345.33 179.487 349.236 203.023 362.382 207.15C377.929 212.037 387.087 219.637 387.466 219.958C388.19 220.568 388.293 221.66 387.684 222.384C387.34 222.787 386.857 223.005 386.363 223.005L386.351 222.994Z" fill="#222222"/>
<path d="M343.376 176.935C343.376 176.935 343.272 176.935 343.215 176.935L337.136 176.383C336.194 176.302 335.493 175.463 335.574 174.509C335.666 173.554 336.493 172.853 337.447 172.945L343.525 173.497C344.467 173.577 345.168 174.417 345.088 175.371C345.008 176.268 344.249 176.935 343.376 176.935Z" fill="#222222"/>
<path d="M396.842 227.167C396.544 227.167 396.245 227.087 395.981 226.937C395.153 226.454 394.877 225.408 395.36 224.58C397.509 220.867 404.759 218.682 413.929 215.911C419.445 214.244 425.695 212.358 431.28 209.955C444.781 204.138 449.102 180.832 448.275 178.475C447.217 175.727 439.944 168.806 425.259 166.116C424.328 165.943 423.708 165.046 423.868 164.103C424.041 163.161 424.937 162.551 425.879 162.712C441.553 165.575 449.906 173.129 451.492 177.222C453.239 181.741 447.758 206.61 432.636 213.117C426.868 215.601 420.525 217.521 414.917 219.211C407.494 221.453 399.807 223.775 398.336 226.305C398.014 226.857 397.44 227.167 396.842 227.167Z" fill="#222222"/>
<path d="M401.68 222.522C401.346 222.522 401.025 222.43 400.726 222.235C399.933 221.706 399.715 220.636 400.243 219.843C402.507 216.417 409.172 213.174 416.882 209.415C423.891 206 431.831 202.137 435.29 198.366C442.931 190.019 439.691 179.912 439.541 179.487C438.795 177.509 427.683 170.749 418.065 169.197C417.123 169.047 416.491 168.162 416.64 167.219C416.79 166.276 417.675 165.644 418.617 165.793C427.901 167.3 441.472 174.359 442.816 178.395C444.345 182.982 445.022 192.847 437.829 200.688C433.934 204.942 426.028 208.794 418.399 212.508C411.745 215.75 404.874 219.096 403.127 221.729C402.794 222.235 402.243 222.499 401.691 222.499L401.68 222.522Z" fill="#222222"/>
<path d="M449.872 179.579H445.896C444.942 179.579 444.172 178.809 444.172 177.855C444.172 176.9 444.942 176.13 445.896 176.13H449.872C450.825 176.13 451.595 176.9 451.595 177.855C451.595 178.809 450.825 179.579 449.872 179.579Z" fill="#222222"/>
<path d="M358.728 240.872C356.326 240.872 353.591 240.297 351.466 238.826C349.409 237.4 348.145 235.273 347.812 232.686C347.363 229.202 348.34 226.098 350.558 223.936C352.948 221.602 356.556 220.614 360.451 221.223C364.439 221.844 367.92 225.155 368.725 229.099C369.621 233.468 365.829 239.573 361.6 240.573C360.762 240.769 359.773 240.884 358.728 240.884V240.872ZM358.222 224.5C356.096 224.5 354.235 225.167 352.959 226.408C351.512 227.811 350.914 229.835 351.224 232.249C351.431 233.882 352.155 235.112 353.43 235.997C355.74 237.607 359.187 237.595 360.807 237.216C363.002 236.699 365.886 232.479 365.335 229.8C364.737 226.903 362.094 224.983 359.911 224.638C359.337 224.546 358.762 224.5 358.222 224.5Z" fill="#222222"/>
<path d="M357.785 235.606C357.785 235.606 357.682 235.606 357.624 235.606C356.992 235.595 356.487 235.066 356.498 234.434C356.51 233.801 357.004 233.341 357.67 233.307C357.705 233.307 357.739 233.307 357.774 233.307C360.21 233.307 361.003 231.548 361.083 231.352C361.324 230.766 361.979 230.478 362.577 230.72C363.163 230.95 363.45 231.605 363.22 232.192C363.163 232.33 361.853 235.606 357.774 235.606H357.785Z" fill="#222222"/>
<path d="M426.086 239.216C425.73 239.216 425.362 239.205 424.994 239.17C421.57 238.883 418.467 237.354 417.261 235.353C414.078 230.041 415.147 224.879 420.271 220.797C424.385 217.521 430.785 220.085 433.808 222.855C437.266 226.029 436.979 231.823 433.153 236.33C431.567 238.193 429.039 239.216 426.086 239.216ZM422.42 223.499C418.663 226.489 417.95 229.777 420.226 233.583C420.754 234.456 422.834 235.537 425.281 235.733C426.362 235.825 429.039 235.848 430.521 234.1C433.13 231.042 433.543 227.305 431.475 225.408C429.257 223.373 424.73 221.66 422.42 223.499Z" fill="#222222"/>
<path d="M426.327 234.273C425.868 234.273 425.431 233.997 425.259 233.537C425.029 232.95 425.316 232.284 425.914 232.042C426.982 231.617 428.327 230.317 428.568 228.041C428.637 227.409 429.2 226.96 429.832 227.018C430.464 227.087 430.924 227.65 430.855 228.282C430.51 231.594 428.43 233.537 426.753 234.192C426.615 234.25 426.477 234.273 426.327 234.273Z" fill="#222222"/>
<path d="M313.454 357.422C312.592 357.422 311.845 356.778 311.742 355.893L302.32 274.514C301.917 271.03 303.02 267.523 305.353 264.902C307.686 262.281 311.041 260.774 314.546 260.774H466.211C469.658 260.774 472.979 262.235 475.3 264.787C477.633 267.339 478.782 270.766 478.472 274.203L471.888 347.396C471.807 348.339 470.968 349.041 470.015 348.96C469.061 348.88 468.371 348.04 468.452 347.086L475.036 273.893C475.266 271.387 474.45 268.972 472.749 267.11C471.049 265.247 468.728 264.224 466.2 264.224H314.534C312.006 264.224 309.593 265.304 307.915 267.19C306.238 269.076 305.434 271.605 305.732 274.112L315.155 355.491C315.258 356.434 314.58 357.296 313.638 357.399C313.569 357.399 313.5 357.399 313.443 357.399L313.454 357.422Z" fill="#222222"/>
<path d="M319.912 353.525C319.05 353.525 318.303 352.881 318.2 352.007L308.973 274.411C308.755 272.536 309.341 270.639 310.593 269.225C311.846 267.811 313.65 266.995 315.546 266.995H458.995C459.949 266.995 460.719 267.765 460.719 268.719C460.719 269.674 459.949 270.444 458.995 270.444H315.546C314.626 270.444 313.788 270.823 313.179 271.513C312.57 272.203 312.294 273.088 312.397 273.997L321.624 351.593C321.739 352.536 321.061 353.398 320.119 353.513C320.05 353.513 319.981 353.525 319.912 353.525Z" fill="#222222"/>
<path d="M423.903 384.004H346.754C345.801 384.004 345.031 383.234 345.031 382.28C345.031 381.326 345.801 380.555 346.754 380.555H423.903C424.857 380.555 425.626 381.326 425.626 382.28C425.626 383.234 424.857 384.004 423.903 384.004Z" fill="#222222"/>
<path d="M372.217 228.846C369.942 228.846 367.851 228.811 366.024 228.731C365.07 228.696 364.335 227.891 364.369 226.937C364.404 226.006 365.174 225.281 366.093 225.281C366.116 225.281 366.139 225.281 366.162 225.281C381.353 225.914 412.86 223.764 418.226 222.097C419.134 221.809 420.099 222.327 420.386 223.235C420.674 224.143 420.157 225.109 419.249 225.396C413.825 227.075 388.339 228.834 372.217 228.834V228.846Z" fill="#222222"/>
<path d="M380.411 239.699C374.975 239.699 369.46 239.561 364.163 239.205C363.209 239.136 362.497 238.32 362.554 237.365C362.623 236.411 363.439 235.687 364.393 235.756C389.109 237.411 419.169 234.318 419.479 234.295C420.421 234.192 421.271 234.882 421.375 235.836C421.478 236.779 420.789 237.63 419.835 237.733C419.594 237.756 400.669 239.699 380.411 239.699Z" fill="#222222"/>
<path d="M366.093 263.936C365.989 263.936 365.886 263.936 365.783 263.913C364.852 263.741 364.22 262.844 364.392 261.912C364.99 258.624 364.392 255.945 362.634 254.163C361.048 252.553 358.555 251.795 356.119 252.186C353.763 252.565 352.189 253.381 351.431 254.635C350.603 255.991 350.615 258.026 351.465 260.671C351.752 261.579 351.258 262.545 350.351 262.844C349.443 263.131 348.478 262.637 348.179 261.728C347.007 258.072 347.11 255.083 348.489 252.829C349.799 250.691 352.189 249.323 355.579 248.782C359.164 248.207 362.715 249.323 365.105 251.76C367.633 254.336 368.575 258.164 367.782 262.545C367.633 263.384 366.909 263.959 366.093 263.959V263.936Z" fill="#222222"/>
<path d="M421.88 263.936C421.674 263.936 421.467 263.902 421.26 263.821C417.629 262.418 415.296 259.636 414.699 255.98C414.067 252.117 415.538 247.598 418.123 245.471C422.11 242.171 429.085 242.93 432.762 247.046C435.267 249.852 434.807 254.865 434.486 256.888C434.29 258.176 433.475 262.464 431.395 263.695C430.579 264.178 429.522 263.913 429.028 263.085C428.545 262.269 428.809 261.211 429.637 260.717C430.062 260.337 431.061 257.888 431.257 254.704C431.406 252.266 431.004 250.254 430.188 249.334C427.718 246.563 422.926 245.977 420.329 248.127C418.881 249.323 417.652 252.542 418.111 255.428C418.514 257.9 419.996 259.636 422.512 260.602C423.397 260.947 423.845 261.947 423.501 262.832C423.236 263.522 422.581 263.936 421.892 263.936H421.88Z" fill="#222222"/>
<path d="M360.463 262.338C360.221 262.338 359.98 262.257 359.773 262.108C359.268 261.729 359.164 261.004 359.544 260.498C359.544 260.498 360.244 259.556 360.612 258.383C360.807 257.773 361.439 257.44 362.048 257.635C362.657 257.831 362.991 258.475 362.795 259.084C362.301 260.648 361.405 261.844 361.371 261.89C361.141 262.188 360.796 262.349 360.451 262.349L360.463 262.338Z" fill="#222222"/>
<path d="M426.005 259.728C425.718 259.728 425.442 259.624 425.224 259.417C424.764 258.98 424.741 258.256 425.167 257.796C425.661 257.256 426.902 255.566 426.637 254.221C426.511 253.6 426.925 252.99 427.545 252.875C428.166 252.749 428.775 253.163 428.89 253.784C429.43 256.52 427.108 259.095 426.844 259.383C426.614 259.624 426.316 259.751 426.005 259.751V259.728Z" fill="#222222"/>
<path d="M389.488 256.509C379.606 256.509 369.667 255.531 363.416 253.91C362.496 253.669 361.945 252.726 362.175 251.806C362.416 250.886 363.358 250.323 364.277 250.564C378.675 254.301 408.011 254.06 416.296 248.886C417.1 248.38 418.169 248.633 418.674 249.438C419.18 250.242 418.927 251.312 418.123 251.818C412.803 255.14 401.186 256.509 389.488 256.509Z" fill="#222222"/>
<path d="M395.969 255.715C395.015 255.715 394.245 254.945 394.245 253.991V239.147C394.245 238.193 395.015 237.423 395.969 237.423C396.922 237.423 397.692 238.193 397.692 239.147V253.991C397.692 254.945 396.922 255.715 395.969 255.715Z" fill="#222222"/>
<path d="M393.901 215.693C393.659 215.693 393.418 215.693 393.177 215.693C381.594 215.44 369.896 209.691 358.406 198.584C357.716 197.917 357.705 196.837 358.36 196.147C359.026 195.457 360.118 195.445 360.796 196.101C371.643 206.575 382.559 212.013 393.246 212.243C393.464 212.243 393.682 212.243 393.889 212.243C407.931 212.243 419.95 202.378 423.627 197.515C424.201 196.756 425.282 196.607 426.04 197.182C426.798 197.756 426.948 198.837 426.373 199.596C421.616 205.885 408.678 215.704 393.889 215.704L393.901 215.693Z" fill="#222222"/>
<path d="M258.885 349.88C258.632 349.88 258.379 349.822 258.138 349.707C257.862 349.569 251.347 346.293 249.29 336.623C247.957 330.357 253.025 321.608 257.494 313.893C259.919 309.719 262.206 305.764 262.792 303.281C263.067 302.142 263.608 299.762 264.343 296.509C270.87 267.868 278.81 234.158 282.314 227.708C287.14 218.831 316.43 202.068 339.699 192.56C340.584 192.203 341.583 192.629 341.951 193.503C342.307 194.388 341.894 195.388 341.009 195.756C316.304 205.851 289.255 222.177 285.348 229.363C281.613 236.227 271.513 280.584 267.71 297.279C266.963 300.544 266.423 302.947 266.147 304.085C265.435 307.063 263.136 311.03 260.471 315.617C256.518 322.435 251.6 330.932 252.657 335.899C254.346 343.844 259.448 346.488 259.655 346.603C260.505 347.028 260.85 348.063 260.425 348.914C260.126 349.523 259.517 349.88 258.885 349.88Z" fill="#222222"/>
<path d="M269.732 325.218C269.525 325.218 269.318 325.183 269.112 325.103C268.227 324.758 267.79 323.769 268.123 322.884C268.307 322.401 270.031 318.17 273.627 317.411C275.696 316.974 282.429 312.26 286.486 308.696C291.553 304.258 298.746 305.017 308.479 311.018C309.295 311.513 309.536 312.582 309.042 313.387C308.536 314.203 307.479 314.456 306.675 313.95C294.38 306.362 290.151 310.064 288.761 311.283C286.175 313.548 277.936 320.009 274.34 320.768C272.835 321.09 271.64 323.344 271.341 324.103C271.077 324.781 270.422 325.195 269.732 325.195V325.218Z" fill="#222222"/>
<path d="M288.072 320.377C287.6 320.377 287.129 320.182 286.785 319.803C286.153 319.09 286.21 317.997 286.922 317.365C291.886 312.916 301.918 312.387 304.285 312.847C306.606 313.295 309.168 313.858 309.168 313.858C310.099 314.065 310.685 314.985 310.478 315.916C310.272 316.848 309.352 317.434 308.422 317.227C308.422 317.227 305.894 316.675 303.63 316.238C301.814 315.893 292.99 316.549 289.209 319.941C288.876 320.239 288.474 320.377 288.06 320.377H288.072Z" fill="#222222"/>
<path d="M290.427 259.728C290.059 259.728 289.715 259.555 289.485 259.234C289.485 259.234 287.865 256.923 285.371 253.22C285.015 252.691 285.153 251.979 285.681 251.622C286.21 251.266 286.922 251.404 287.279 251.933C289.761 255.612 291.369 257.911 291.369 257.911C291.737 258.429 291.611 259.153 291.082 259.509C290.887 259.647 290.645 259.716 290.427 259.716V259.728Z" fill="#222222"/>
<path d="M286.658 267.569C286.405 267.569 286.164 267.489 285.946 267.328C285.877 267.271 284.234 265.971 283.038 264.063C282.705 263.522 282.866 262.81 283.406 262.476C283.946 262.143 284.659 262.304 284.992 262.844C285.98 264.419 287.359 265.511 287.37 265.523C287.865 265.914 287.956 266.638 287.566 267.133C287.336 267.42 287.003 267.569 286.658 267.569Z" fill="#222222"/>
<path d="M282.981 275.112C282.717 275.112 282.464 275.02 282.246 274.847C282.188 274.801 280.809 273.651 279.43 271.869C279.04 271.363 279.132 270.651 279.637 270.26C280.143 269.869 280.855 269.961 281.246 270.467C282.464 272.042 283.705 273.088 283.716 273.088C284.199 273.491 284.268 274.215 283.854 274.709C283.625 274.985 283.303 275.123 282.97 275.123L282.981 275.112Z" fill="#222222"/>
<path d="M298.562 245.735C297.769 245.735 297.057 245.195 296.884 244.39C295.954 240.217 288.887 231.283 283.578 229.846C282.659 229.593 282.119 228.65 282.36 227.73C282.613 226.811 283.555 226.27 284.475 226.512C291.243 228.351 299.091 238.48 300.251 243.631C300.458 244.563 299.872 245.482 298.941 245.689C298.815 245.712 298.688 245.735 298.562 245.735Z" fill="#222222"/>
<path d="M468.797 264.235C468.739 264.235 468.67 264.235 468.613 264.235C467.671 264.132 466.981 263.292 467.073 262.338C468.326 250.346 473.887 244.206 474.117 243.953C474.76 243.252 475.852 243.218 476.553 243.861C477.254 244.505 477.3 245.598 476.645 246.299C476.599 246.345 471.623 251.921 470.497 262.694C470.405 263.58 469.659 264.235 468.785 264.235H468.797Z" fill="#222222"/>
<path d="M513.794 351.42C513.484 351.42 513.174 351.34 512.887 351.167C512.071 350.673 511.818 349.604 512.324 348.799C514.932 344.556 521.551 332.197 520.884 325.999C520.022 318.078 513.829 295.704 510.014 286.747C506.084 277.537 505.085 259.935 506.153 252.335C507.049 245.919 500.638 228.42 497.363 224.936C494.329 221.717 475.944 210.657 445.276 198.492C444.391 198.136 443.954 197.136 444.31 196.25C444.667 195.365 445.666 194.928 446.551 195.284C476.645 207.219 496.168 218.613 499.879 222.568C503.786 226.719 510.646 245.172 509.577 252.806C508.555 260.107 509.623 277.009 513.197 285.379C517.184 294.726 523.424 317.284 524.331 325.609C525.262 334.243 515.69 349.926 515.288 350.581C514.967 351.11 514.392 351.397 513.817 351.397L513.794 351.42Z" fill="#222222"/>
<path d="M509.175 332.599C508.267 332.599 507.497 331.886 507.451 330.955C507.13 324.287 502.648 315.365 501.143 314.525C498.799 313.64 493.065 310.57 487.975 307.213C483.022 303.948 478.024 305.534 475.484 306.776C474.622 307.19 473.6 306.833 473.186 305.983C472.772 305.12 473.129 304.097 473.979 303.672C479.426 301.027 485.217 301.269 489.871 304.338C494.547 307.42 500.224 310.49 502.407 311.317C505.969 312.674 510.565 324.252 510.887 330.794C510.933 331.748 510.198 332.553 509.244 332.599C509.221 332.599 509.186 332.599 509.163 332.599H509.175Z" fill="#222222"/>
<path d="M483.321 320.676C482.689 320.676 482.172 320.159 482.172 319.527C482.172 319.504 482.069 316.1 478.3 310.478C477.944 309.949 478.081 309.236 478.61 308.88C479.139 308.524 479.851 308.662 480.207 309.19C484.424 315.468 484.47 319.354 484.47 319.515C484.47 320.148 483.953 320.665 483.321 320.665V320.676Z" fill="#222222"/>
<path d="M489.262 316.387C489.262 316.387 489.216 316.387 489.181 316.387C488.549 316.341 488.067 315.801 488.113 315.169C488.113 315.169 488.009 313.697 485.596 310.547C485.205 310.041 485.309 309.316 485.814 308.937C486.32 308.546 487.044 308.65 487.423 309.156C490.399 313.042 490.434 314.973 490.411 315.33C490.365 315.939 489.859 316.399 489.262 316.399V316.387Z" fill="#222222"/>
<path d="M481.287 291.185C480.782 291.185 480.322 290.852 480.184 290.346C480.012 289.737 480.368 289.104 480.988 288.932C485.401 287.701 488.836 284.666 488.871 284.632C489.342 284.206 490.066 284.252 490.491 284.724C490.916 285.195 490.87 285.919 490.399 286.345C490.25 286.483 486.55 289.771 481.597 291.151C481.494 291.174 481.391 291.197 481.287 291.197V291.185Z" fill="#222222"/>
<path d="M483.321 294.704C482.769 294.704 482.287 294.301 482.183 293.738C482.08 293.117 482.505 292.519 483.126 292.416C485.987 291.944 489.055 290.346 489.089 290.335C489.652 290.047 490.342 290.254 490.641 290.817C490.928 291.381 490.721 292.071 490.158 292.37C490.02 292.439 486.734 294.152 483.505 294.681C483.436 294.681 483.378 294.692 483.31 294.692L483.321 294.704Z" fill="#222222"/>
<path d="M458.352 219.004C458.352 219.004 458.271 219.004 458.225 219.004C457.593 218.946 457.134 218.337 457.203 217.705C457.249 217.279 457.639 215.888 460.386 212.082C460.753 211.565 461.477 211.45 461.994 211.818C462.511 212.186 462.626 212.91 462.247 213.428C459.765 216.865 459.489 217.969 459.478 218.015C459.42 218.601 458.926 219.004 458.352 219.004Z" fill="#222222"/>
<path d="M465.051 218.188C464.936 218.188 464.833 218.176 464.718 218.142C464.109 217.958 463.764 217.325 463.948 216.716C463.971 216.624 464.614 214.509 466.821 212.554C467.292 212.129 468.016 212.175 468.441 212.646C468.866 213.117 468.82 213.842 468.349 214.267C466.671 215.762 466.154 217.36 466.154 217.371C466.005 217.866 465.545 218.188 465.051 218.188Z" fill="#222222"/>
<path d="M486.516 232.674C486.102 232.674 485.688 232.525 485.355 232.226C484.654 231.594 484.597 230.501 485.229 229.8C485.378 229.639 488.906 225.787 497.972 222.154C498.857 221.798 499.856 222.235 500.212 223.12C500.569 224.005 500.132 225.005 499.259 225.362C491.031 228.662 487.825 232.076 487.791 232.111C487.446 232.479 486.987 232.674 486.516 232.674Z" fill="#222222"/>
<path d="M434.612 379.084C434.405 379.084 434.198 379.049 434.003 378.969C433.118 378.635 432.67 377.635 433.003 376.738C438.358 362.665 458.248 355.065 459.099 354.743C459.983 354.41 460.983 354.858 461.316 355.755C461.65 356.652 461.201 357.641 460.305 357.974C460.11 358.043 441.024 365.356 436.221 377.957C435.956 378.647 435.301 379.072 434.612 379.072V379.084Z" fill="#222222"/>
<path d="M526.009 395.088C525.848 395.088 525.687 395.065 525.515 395.019C524.607 394.743 524.079 393.789 524.354 392.88C527.147 383.43 528.594 372.162 526.055 370.426C521.505 367.299 518.46 360.343 516.46 355.744C516.035 354.766 515.667 353.939 515.369 353.341C513.611 349.834 500.729 348.546 496.501 348.121L484.056 346.5C470.716 344.764 459.754 354.387 454.767 372.265C454.514 373.185 453.56 373.714 452.641 373.461C451.722 373.208 451.193 372.254 451.446 371.334C456.938 351.662 469.302 341.107 484.505 343.085L496.892 344.695C510.347 346.04 516.61 348.098 518.46 351.8C518.781 352.444 519.172 353.329 519.62 354.364C521.355 358.354 524.274 365.022 528.008 367.586C533.731 371.518 529.192 388.695 527.664 393.858C527.445 394.605 526.756 395.088 526.009 395.088Z" fill="#222222"/>
<path d="M497.753 424.246C493.008 424.246 490.537 423.188 490.388 423.131C489.515 422.751 489.124 421.728 489.503 420.854C489.882 419.98 490.905 419.589 491.778 419.969C491.813 419.98 496.501 421.889 505.682 419.865C514.84 417.842 527.043 399.492 525.159 390.558C524.963 389.627 525.561 388.707 526.492 388.512C527.422 388.316 528.342 388.914 528.537 389.845C530.789 400.538 517.357 420.82 506.429 423.234C502.993 423.993 500.098 424.246 497.765 424.246H497.753Z" fill="#222222"/>
<path d="M482.253 431.386C478.736 431.386 475.071 430.983 471.474 430.121C470.544 429.902 469.98 428.971 470.199 428.04C470.417 427.109 471.348 426.534 472.279 426.764C485.033 429.822 497.305 426.499 500.339 421.613C500.844 420.796 501.902 420.555 502.717 421.061C503.522 421.567 503.775 422.624 503.269 423.441C500.167 428.442 491.744 431.397 482.264 431.397L482.253 431.386Z" fill="#222222"/>
<path d="M477.162 403.493C474.99 403.493 472.784 403.343 470.578 402.987C469.636 402.837 468.992 401.952 469.142 401.009C469.291 400.067 470.187 399.434 471.118 399.572C484.229 401.665 498.34 395.789 498.489 395.72C499.362 395.353 500.373 395.755 500.753 396.64C501.132 397.526 500.718 398.526 499.845 398.905C499.328 399.124 488.894 403.481 477.174 403.481L477.162 403.493Z" fill="#222222"/>
<path d="M499.155 417.853C498.983 417.853 498.811 417.819 498.638 417.727C498.075 417.439 497.834 416.749 498.121 416.186C498.144 416.152 500.098 412.185 500.649 408.46C500.741 407.827 501.327 407.402 501.959 407.494C502.591 407.586 503.016 408.172 502.924 408.805C502.315 412.898 500.258 417.048 500.178 417.221C499.983 417.623 499.569 417.853 499.144 417.853H499.155Z" fill="#222222"/>
<path d="M478.621 435.444C478.208 435.444 477.794 435.295 477.472 435.007C477.289 434.846 458.697 418.52 431.521 420.624C430.878 420.67 430.292 420.371 429.947 419.842C429.602 419.313 429.579 418.635 429.878 418.083C436.324 406.172 434.417 382.786 431.016 375.611C430.625 374.783 430.947 373.795 431.751 373.358L435.416 371.38C436.255 370.92 437.301 371.242 437.749 372.081C438.197 372.921 437.887 373.967 437.048 374.415L434.75 375.657C437.853 384.188 439.323 404.378 434.176 417.025C457.559 416.197 473.968 427.775 478.53 431.408L480.793 429.166C481.471 428.5 482.563 428.5 483.229 429.178C483.896 429.856 483.896 430.949 483.218 431.615L479.84 434.95C479.506 435.283 479.07 435.444 478.633 435.444H478.621Z" fill="#222222"/>
<path d="M386.179 418.428C385.708 418.428 385.248 418.232 384.903 417.864C384.26 417.163 384.317 416.071 385.018 415.427C385.352 415.116 418.847 384.614 431.429 373.576C432.142 372.944 433.233 373.024 433.865 373.737C434.497 374.45 434.417 375.542 433.704 376.174C421.133 387.189 387.673 417.68 387.339 417.979C387.006 418.278 386.592 418.428 386.179 418.428Z" fill="#222222"/>
<path d="M420.283 462.049C419.628 462.049 419.008 461.67 418.709 461.037C418.318 460.175 418.697 459.152 419.559 458.749L477.909 432.144C478.782 431.753 479.793 432.144 480.196 432.995C480.586 433.857 480.207 434.881 479.345 435.283L420.996 461.888C420.766 461.992 420.524 462.038 420.283 462.038V462.049Z" fill="#222222"/>
<path d="M461.764 443.136C461.477 443.136 461.19 443.067 460.937 442.918C447.286 435.375 434.244 436.962 427.97 437.721C425.523 438.02 424.167 438.181 423.213 437.836C420.398 436.812 411.619 425.959 410.217 422.314C409.976 421.693 409.712 420.75 410.183 419.877C410.907 418.497 418.789 396.813 419.306 385.062C419.352 384.108 420.145 383.361 421.099 383.418C422.053 383.464 422.788 384.269 422.742 385.212C422.248 396.583 415.043 417.347 413.423 421.072C414.262 423.613 422.374 433.662 424.42 434.605C424.718 434.639 426.224 434.467 427.557 434.295C434.187 433.49 447.987 431.811 462.603 439.894C463.442 440.354 463.741 441.4 463.281 442.239C462.971 442.814 462.373 443.125 461.776 443.125L461.764 443.136Z" fill="#222222"/>
<path d="M334.574 392.593C334.16 392.593 333.758 392.443 333.425 392.156C332.713 391.524 332.655 390.431 333.287 389.719C337.194 385.35 337.205 379.992 336.516 376.267C335.344 369.862 331.253 363.7 326.588 361.285C318.384 357.043 309.099 358.078 309.007 358.089C308.065 358.193 307.203 357.526 307.088 356.583C306.973 355.64 307.651 354.778 308.594 354.663C309.019 354.617 319.004 353.479 328.174 358.215C333.724 361.09 338.55 368.253 339.906 375.634C341.066 381.969 339.63 387.787 335.85 392.018C335.505 392.398 335.034 392.593 334.563 392.593H334.574Z" fill="#222222"/>
<path d="M288.531 431.454C283.027 431.454 276.673 429.787 273.11 426.476C270.226 423.786 268.56 418.922 267.089 414.622C266.25 412.162 265.458 409.828 264.676 408.758C263.998 407.827 262.056 406.355 259.988 404.792C255.541 401.434 250.014 397.249 248.038 392.225C245.004 384.556 246.693 363.401 252.174 355.261C259.299 344.683 265.055 341.602 280.189 340.256C295.207 338.923 302.584 341.222 307.422 348.742C311.914 355.732 311.386 363.217 311.351 363.539C311.271 364.493 310.421 365.194 309.501 365.125C308.559 365.056 307.847 364.217 307.916 363.274C307.916 363.205 308.364 356.594 304.514 350.616C301.033 345.189 295.977 342.326 280.476 343.694C266.319 344.947 261.562 347.465 255.024 357.192C250.255 364.275 248.566 384.223 251.232 390.96C252.864 395.076 257.966 398.94 262.056 402.044C264.527 403.906 266.469 405.39 267.446 406.735C268.526 408.218 269.364 410.667 270.33 413.507C271.605 417.221 273.179 421.854 275.443 423.958C279.097 427.361 287.991 429.063 293.414 427.384C294.322 427.108 295.287 427.614 295.575 428.523C295.851 429.431 295.345 430.397 294.437 430.684C292.748 431.201 290.703 431.466 288.519 431.466L288.531 431.454Z" fill="#222222"/>
<path d="M333.988 402.274C333.241 402.274 332.552 401.791 332.334 401.032C332.069 400.124 332.586 399.158 333.506 398.893C333.586 398.87 341.917 396.375 344.617 390.972C347.272 385.671 345.042 380.337 338.516 376.335C337.7 375.841 337.447 374.772 337.941 373.967C338.435 373.151 339.504 372.898 340.308 373.392C348.306 378.29 351.144 385.625 347.697 392.512C344.318 399.273 334.862 402.09 334.459 402.205C334.299 402.251 334.138 402.274 333.977 402.274H333.988Z" fill="#222222"/>
<path d="M325.037 415.002C324.566 415.002 324.106 414.806 323.762 414.438C323.187 413.794 309.536 398.664 305.939 387.281C305.652 386.373 306.158 385.407 307.066 385.12C307.973 384.832 308.938 385.338 309.226 386.246C312.593 396.905 326.175 411.978 326.312 412.127C326.956 412.829 326.898 413.921 326.198 414.565C325.864 414.864 325.451 415.013 325.037 415.013V415.002Z" fill="#222222"/>
<path d="M265.492 391.926C263.033 391.926 260.218 391.719 257.334 391.11C256.713 390.984 256.311 390.374 256.449 389.753C256.587 389.132 257.184 388.73 257.805 388.868C265.825 390.558 273.375 388.891 273.455 388.868C274.076 388.73 274.685 389.121 274.834 389.73C274.972 390.351 274.581 390.961 273.972 391.11C273.754 391.156 270.284 391.926 265.504 391.926H265.492Z" fill="#222222"/>
<path d="M269.146 400.687C268.514 400.687 267.997 400.17 267.997 399.538C267.997 398.905 268.503 398.388 269.146 398.388C274.535 398.376 276.719 396.491 276.741 396.468C277.213 396.042 277.937 396.088 278.362 396.548C278.787 397.008 278.764 397.732 278.304 398.158C278.201 398.261 275.558 400.664 269.158 400.687H269.146Z" fill="#222222"/>
<path d="M284.027 357.388C283.694 357.388 283.36 357.25 283.142 356.963C283.142 356.963 281.361 355.054 275.156 354.134C274.524 354.042 274.099 353.456 274.191 352.823C274.283 352.191 274.869 351.777 275.501 351.858C282.625 352.915 284.716 355.249 284.935 355.502C285.337 355.997 285.268 356.721 284.774 357.123C284.555 357.296 284.303 357.388 284.05 357.388H284.027Z" fill="#222222"/>
<path d="M289.979 355.766C289.588 355.766 289.22 355.571 289.002 355.215C289.002 355.203 287.91 353.478 286.014 352.179C285.486 351.823 285.359 351.11 285.716 350.581C286.072 350.052 286.784 349.926 287.313 350.282C289.634 351.869 290.909 353.927 290.967 354.007C291.3 354.548 291.128 355.261 290.588 355.594C290.404 355.709 290.197 355.766 289.99 355.766H289.979Z" fill="#222222"/>
<path d="M286.658 436.295C286.382 436.295 286.107 436.226 285.854 436.1C285.348 435.835 285.004 435.329 284.946 434.754L284.417 429.81C284.314 428.868 285.004 428.017 285.946 427.913C286.911 427.81 287.738 428.5 287.842 429.442L288.106 431.903C309.697 421.532 333.736 425.579 341.768 427.396C340.504 421.038 337.918 405.171 341.17 395.318C341.469 394.41 342.434 393.927 343.342 394.214C344.249 394.513 344.732 395.49 344.445 396.387C340.699 407.758 345.663 429.121 345.709 429.339C345.847 429.937 345.663 430.558 345.226 430.983C344.778 431.409 344.146 431.558 343.56 431.397C343.25 431.305 312.547 422.728 287.474 436.1C287.221 436.237 286.945 436.306 286.658 436.306V436.295Z" fill="#222222"/>
<path d="M461.328 563.285C452.331 563.285 443.334 557.03 441.311 548.924L440.863 547.096C439.105 539.876 436.91 530.896 430.384 526.125C423.156 520.836 410.355 514.788 407.115 513.754C404.725 512.995 403.461 509.821 402.013 506.165C400.841 503.21 399.508 499.853 397.716 498.301C393.602 494.76 356.521 468.603 339.216 463.268C321.613 457.841 287.233 436.939 285.785 436.054C284.969 435.559 284.716 434.501 285.21 433.685C285.704 432.869 286.773 432.616 287.577 433.11C287.934 433.329 323.038 454.668 340.239 459.98C358.13 465.499 395.257 491.632 399.968 495.691C402.415 497.795 403.909 501.566 405.219 504.889C406.012 506.878 407.322 510.201 408.161 510.465C411.654 511.581 424.788 517.755 432.417 523.342C439.967 528.861 442.322 538.519 444.218 546.28L444.667 548.097C446.448 555.214 455.341 560.744 463.304 559.721C471.854 558.617 486.918 544.578 489.492 538.048C491.916 531.92 485.033 518.433 482.195 515.329C481.023 514.041 478.53 512.075 475.898 510.005C471.922 506.867 467.418 503.314 465.212 500.371C463.626 498.255 462.626 494.507 461.466 490.161C459.995 484.653 458.157 477.801 455.135 476.352C452.802 475.226 450.642 475.042 448.562 474.858C445.551 474.593 442.437 474.317 440.208 470.925C438.634 468.534 434.658 467.752 430.453 466.924C427.764 466.395 424.983 465.844 422.398 464.832C414.756 461.842 398.876 439.376 392.407 429.856C385.708 419.992 378.101 408.816 347.731 384.74C346.984 384.154 346.858 383.062 347.455 382.314C348.041 381.567 349.133 381.441 349.88 382.038C380.675 406.448 388.431 417.853 395.268 427.925C404.92 442.124 418.146 459.474 423.662 461.635C425.96 462.532 428.591 463.05 431.131 463.556C436.072 464.533 440.748 465.453 443.104 469.051C444.356 470.971 445.862 471.178 448.872 471.443C451.032 471.638 453.733 471.868 456.628 473.259C461.075 475.398 462.971 482.457 464.787 489.287C465.763 492.943 466.775 496.737 467.97 498.312C469.9 500.899 474.221 504.303 478.024 507.304C480.885 509.569 483.367 511.512 484.723 513.006C487.906 516.501 495.8 531.391 492.675 539.313C489.756 546.717 473.726 561.848 463.718 563.135C462.914 563.239 462.109 563.285 461.305 563.285H461.328Z" fill="#222222"/>
<path d="M349.007 449.552C348.823 449.552 348.662 449.54 348.501 449.506C347.915 449.402 346.927 449.092 345.433 448.643C337.918 446.344 317.947 440.227 306.33 446.919C305.503 447.39 304.457 447.114 303.975 446.286C303.503 445.459 303.779 444.401 304.607 443.929C317.534 436.49 338.539 442.918 346.444 445.344C347.674 445.723 348.742 446.045 349.121 446.114C349.144 446.114 349.167 446.114 349.202 446.114C351.799 446.114 362.152 437.548 362.968 435.26C362.968 434.34 361.899 430.707 360.945 427.488C357.671 416.335 352.707 399.492 356.441 390.213C356.797 389.328 357.797 388.902 358.682 389.259C359.566 389.615 359.992 390.616 359.635 391.501C356.361 399.676 361.302 416.485 364.255 426.522C366.047 432.604 366.645 434.777 366.323 436.042C365.496 439.376 353.821 449.54 349.007 449.54V449.552Z" fill="#222222"/>
<path d="M392.073 450.724C391.602 450.724 391.166 450.437 390.993 449.977L386.006 436.617C385.788 436.019 386.087 435.364 386.684 435.134C387.282 434.915 387.937 435.214 388.167 435.812L393.154 449.172C393.372 449.77 393.073 450.426 392.476 450.655C392.338 450.701 392.211 450.724 392.073 450.724Z" fill="#222222"/>
<path d="M398.681 450.724C398.164 450.724 397.692 450.379 397.566 449.85L396.095 443.975C395.946 443.354 396.314 442.733 396.934 442.584C397.543 442.435 398.175 442.802 398.324 443.423L399.795 449.299C399.945 449.919 399.577 450.54 398.956 450.69C398.865 450.713 398.773 450.724 398.681 450.724Z" fill="#222222"/>
<path d="M401.174 491.966C401.116 491.966 401.059 491.966 401.002 491.954C400.37 491.862 399.944 491.276 400.036 490.643L400.507 487.574L397.865 489.413C397.336 489.77 396.624 489.643 396.267 489.126C395.9 488.608 396.026 487.884 396.555 487.528L401.392 484.147C401.771 483.883 402.266 483.871 402.656 484.113C403.047 484.354 403.254 484.814 403.185 485.263L402.3 490.988C402.208 491.552 401.725 491.966 401.162 491.966H401.174Z" fill="#222222"/>
<path d="M412.906 471.271C412.642 471.271 412.389 471.179 412.171 471.006C411.688 470.604 411.619 469.868 412.033 469.385L416.583 463.958C416.997 463.475 417.721 463.406 418.203 463.82C418.686 464.223 418.755 464.958 418.341 465.441L413.791 470.868C413.561 471.144 413.239 471.282 412.906 471.282V471.271Z" fill="#222222"/>
<path d="M418.192 473.616C417.64 473.616 417.158 473.225 417.066 472.661C416.962 472.04 417.376 471.443 417.996 471.328L427.235 469.718C427.878 469.615 428.453 470.028 428.568 470.649C428.671 471.27 428.258 471.868 427.637 471.983L418.399 473.593C418.33 473.593 418.261 473.604 418.203 473.604L418.192 473.616Z" fill="#222222"/>
<path d="M404.679 509.867C404.311 509.867 403.932 509.752 403.622 509.499C402.875 508.913 402.737 507.832 403.323 507.073C406.276 503.291 407.62 498.289 408.804 493.874C410.114 488.999 411.24 484.791 414.262 482.894C416.123 481.721 419.582 480.836 423.581 479.801C430.544 478.008 440.082 475.547 441.575 471.098C441.874 470.189 442.862 469.706 443.759 470.017C444.666 470.316 445.149 471.305 444.839 472.201C442.747 478.422 432.59 481.043 424.431 483.136C420.858 484.055 417.491 484.918 416.077 485.803C414.204 486.976 413.193 490.758 412.113 494.76C410.838 499.496 409.401 504.866 406.012 509.189C405.667 509.626 405.161 509.856 404.656 509.856L404.679 509.867Z" fill="#222222"/>
<path d="M455.594 514.283C455.135 514.283 454.698 513.995 454.514 513.535C454.284 512.937 454.583 512.282 455.18 512.052L464.867 508.384C465.465 508.166 466.12 508.453 466.349 509.051C466.579 509.649 466.28 510.304 465.683 510.534L455.996 514.202C455.858 514.248 455.721 514.271 455.594 514.271V514.283Z" fill="#222222"/>
<path d="M461.764 518.974C461.167 518.974 460.661 518.514 460.615 517.904C460.569 517.272 461.041 516.72 461.673 516.674L471.784 515.938C472.416 515.892 472.968 516.364 473.014 516.996C473.06 517.628 472.589 518.18 471.957 518.226L461.845 518.962C461.845 518.962 461.787 518.962 461.764 518.962V518.974Z" fill="#222222"/>
<path d="M449.458 559.916C448.792 559.916 448.171 559.537 447.884 558.893C447.493 558.019 447.884 557.007 448.757 556.616C456.042 553.385 458.398 545.74 459.811 541.187C460.259 539.726 460.593 538.669 461.006 537.944C462.006 536.243 464.247 536.323 467.338 536.438C472.198 536.622 478.863 536.863 482.092 530.816C482.54 529.976 483.586 529.655 484.424 530.114C485.263 530.563 485.585 531.609 485.125 532.448C480.874 540.393 472.325 540.083 467.211 539.887C466.039 539.841 464.477 539.784 463.856 539.922C463.649 540.405 463.362 541.313 463.086 542.198C461.604 546.981 458.858 555.903 450.136 559.766C449.906 559.87 449.677 559.916 449.435 559.916H449.458Z" fill="#222222"/>
<path d="M391.051 486.24C390.522 486.24 390.04 485.872 389.925 485.332C389.798 484.711 390.189 484.101 390.809 483.963L395.544 482.963C396.164 482.837 396.773 483.228 396.911 483.848C397.037 484.469 396.647 485.079 396.026 485.217L391.292 486.217C391.212 486.228 391.131 486.24 391.051 486.24Z" fill="#222222"/>
<path d="M448.849 495.496C448.309 495.496 447.838 495.116 447.723 494.576C447.597 493.955 447.999 493.346 448.619 493.219C453.204 492.299 455.72 488.735 455.743 488.701C456.1 488.183 456.812 488.045 457.341 488.413C457.858 488.77 457.996 489.483 457.639 490.011C457.513 490.184 454.594 494.369 449.067 495.484C448.987 495.496 448.918 495.507 448.837 495.507L448.849 495.496Z" fill="#222222"/>
<path d="M320.452 541.463C319.521 541.463 318.751 540.727 318.729 539.796C318.729 539.382 318.717 535.472 322.049 524.228C325.129 513.823 330.162 510.373 334.597 507.327C335.241 506.89 335.873 506.453 336.493 505.993C341.388 502.44 351.167 494.357 353.12 492.265C353.557 491.793 353.982 491.035 354.568 489.977C356.188 487.057 358.888 482.17 366.874 474.766C367.575 474.122 368.667 474.156 369.311 474.858C369.954 475.559 369.92 476.651 369.219 477.295C361.635 484.32 359.107 488.896 357.59 491.644C356.912 492.874 356.372 493.84 355.648 494.622C353.396 497.036 343.227 505.372 338.527 508.787C337.883 509.258 337.217 509.718 336.551 510.166C332.391 513.018 328.093 515.961 325.359 525.194C322.176 535.909 322.176 539.658 322.176 539.692C322.176 540.635 321.429 541.428 320.487 541.44C320.487 541.44 320.464 541.44 320.452 541.44V541.463Z" fill="#222222"/>
<path d="M312.282 556.271C306.881 556.271 296.655 554.259 287.301 548.338C276.868 541.739 273.329 533.345 275.822 521.147C277.201 514.432 281.717 507.706 285.693 501.773C288.611 497.427 291.369 493.323 291.955 490.471L292.426 488.137C294.299 478.778 295.942 471.42 298.62 468.879C300.952 466.66 302.515 463.326 303.136 461.141C303.699 459.175 306.1 457.404 310.673 454.174C312.087 453.173 313.684 452.047 315.27 450.851C316.028 450.276 317.108 450.425 317.683 451.196C318.257 451.955 318.108 453.035 317.338 453.61C315.706 454.841 314.086 455.99 312.65 457.002C310.018 458.865 306.732 461.187 306.433 462.107C306.169 463.05 304.641 467.925 300.975 471.397C298.872 473.386 297.023 482.687 295.793 488.839L295.322 491.184C294.609 494.702 291.794 498.876 288.542 503.716C284.739 509.385 280.418 515.812 279.177 521.859C276.948 532.736 279.832 539.566 289.117 545.452C298.413 551.339 308.789 553.098 313.167 552.822C317.752 552.535 320.567 545.797 321.819 541.221C316.924 542.394 306.686 544.371 299.608 542.405C290.163 539.795 287.531 535.461 287.267 534.978C286.807 534.15 287.106 533.092 287.945 532.633C288.772 532.173 289.829 532.472 290.289 533.311C290.289 533.311 292.484 536.864 300.539 539.094C308.973 541.428 323.509 537.232 323.658 537.197C324.232 537.025 324.841 537.174 325.29 537.565C325.738 537.956 325.945 538.565 325.841 539.152C325.726 539.83 322.865 555.696 313.397 556.283C313.052 556.306 312.673 556.317 312.271 556.317L312.282 556.271Z" fill="#222222"/>
<path d="M356.246 488.114C355.981 488.114 355.706 488.057 355.453 487.919C349.57 484.872 348.834 479.974 348.306 476.398C348.076 474.881 347.869 473.432 347.306 472.857C346.053 471.558 341.067 471.293 337.068 471.086C334.402 470.949 331.633 470.799 329.243 470.397C323.991 469.523 320.383 464.843 316.902 460.336C315.454 458.462 314.075 456.68 312.65 455.254C311.972 454.576 311.972 453.484 312.65 452.817C313.328 452.15 314.42 452.139 315.086 452.817C316.672 454.404 318.177 456.347 319.625 458.232C322.704 462.222 325.899 466.349 329.806 467.005C332.012 467.373 334.678 467.511 337.252 467.649C342.813 467.948 347.605 468.201 349.799 470.477C351.121 471.857 351.408 473.823 351.718 475.904C352.213 479.215 352.718 482.641 357.039 484.872C357.889 485.309 358.211 486.355 357.774 487.194C357.464 487.792 356.866 488.126 356.246 488.126V488.114Z" fill="#222222"/>
<path d="M318.407 488.114C317.97 488.114 317.522 487.942 317.189 487.608C316.913 487.332 310.478 480.848 308.019 472.972C307.732 472.064 308.237 471.098 309.145 470.811C310.064 470.523 311.018 471.041 311.305 471.937C313.5 478.985 319.556 485.09 319.613 485.159C320.291 485.826 320.291 486.919 319.613 487.597C319.28 487.93 318.832 488.103 318.395 488.103L318.407 488.114Z" fill="#222222"/>
<path d="M308.938 495.496C308.847 495.496 308.766 495.496 308.674 495.461C308.502 495.415 304.503 494.438 301.102 490.057C300.711 489.551 300.803 488.839 301.309 488.448C301.814 488.057 302.538 488.149 302.917 488.655C305.79 492.357 309.18 493.219 309.214 493.231C309.835 493.38 310.214 494.001 310.065 494.622C309.938 495.151 309.467 495.507 308.95 495.507L308.938 495.496Z" fill="#222222"/>
<path d="M303.607 502.244C302.159 502.244 299.275 501.992 296.08 500.313C295.517 500.014 295.299 499.324 295.598 498.761C295.897 498.197 296.586 497.99 297.149 498.278C300.929 500.267 304.262 499.922 304.285 499.911C304.928 499.853 305.48 500.29 305.56 500.922C305.629 501.555 305.193 502.118 304.561 502.199C304.515 502.199 304.17 502.244 303.595 502.244H303.607Z" fill="#222222"/>
<path d="M415.618 391.409H356.602C355.648 391.409 354.878 390.638 354.878 389.684C354.878 388.73 355.648 387.959 356.602 387.959H415.618C416.571 387.959 417.341 388.73 417.341 389.684C417.341 390.638 416.571 391.409 415.618 391.409Z" fill="#222222"/>
<path d="M419.996 308.512C419.973 308.455 419.938 308.328 419.915 308.294C419.892 308.236 419.823 308.075 419.789 308.018C419.743 307.937 419.686 307.857 419.651 307.811C419.605 307.742 419.548 307.673 419.433 307.558C419.41 307.535 419.272 307.431 419.249 307.408C419.203 307.374 419.077 307.282 419.031 307.247L407.988 300.889C407.345 300.521 406.552 300.521 405.92 300.889L394.866 307.259C394.866 307.259 394.682 307.397 394.659 307.408C394.601 307.443 394.498 307.535 394.452 307.581C394.383 307.65 394.326 307.719 394.28 307.799C394.234 307.845 394.165 307.96 394.13 308.018C394.073 308.11 394.038 308.213 394.015 308.271C393.981 308.34 393.946 308.443 393.923 308.512C393.877 308.684 393.854 308.868 393.854 309.041V320.458L386.949 324.436V302.786C386.949 302.614 386.926 302.43 386.868 302.234C386.845 302.154 386.822 302.085 386.788 302.039C386.753 301.947 386.719 301.855 386.661 301.763C386.638 301.729 386.535 301.591 386.523 301.556C386.477 301.487 386.363 301.349 386.305 301.303C386.259 301.257 386.19 301.211 386.133 301.165C386.087 301.131 385.96 301.039 385.903 301.004L374.86 294.646C374.228 294.278 373.435 294.278 372.792 294.646L361.749 301.004C361.658 301.062 361.577 301.119 361.531 301.165C361.462 301.211 361.393 301.269 361.301 301.361C361.255 301.407 361.186 301.499 361.152 301.556C361.106 301.614 361.026 301.717 360.991 301.775C360.934 301.878 360.888 301.993 360.888 302.016C360.853 302.085 360.807 302.2 360.784 302.28C360.738 302.453 360.715 302.637 360.715 302.809V340.659C360.715 341.395 361.117 342.085 361.749 342.453L383.835 355.18C383.938 355.238 384.053 355.284 384.087 355.295C384.156 355.33 384.271 355.364 384.34 355.387C384.513 355.433 384.685 355.456 384.857 355.456C385.03 355.456 385.225 355.433 385.42 355.387C385.443 355.387 385.535 355.341 385.558 355.341C385.673 355.307 385.776 355.261 385.891 355.192L407.988 342.464C408.62 342.096 409.022 341.406 409.022 340.671V329.254L419.031 323.493C419.674 323.125 420.076 322.435 420.076 321.7V309.087C420.076 308.903 420.053 308.719 420.007 308.547L419.996 308.512ZM373.826 298.831L380.721 302.798L373.826 306.776L366.932 302.798L373.826 298.831ZM382.8 306.385V326.839L378.043 329.587L375.906 330.817V310.363L382.812 306.385H382.8ZM382.8 349.788L364.852 339.452V306.385L371.758 310.363V334.393C371.758 334.485 371.758 334.565 371.781 334.623C371.781 334.715 371.804 334.818 371.827 334.899C371.861 335.037 371.907 335.14 371.919 335.14C371.919 335.14 371.953 335.221 371.976 335.267C371.999 335.313 372.022 335.359 372.045 335.405C372.091 335.485 372.149 335.566 372.206 335.635C372.24 335.692 372.286 335.75 372.332 335.796C372.332 335.796 372.355 335.819 372.367 335.83C372.424 335.888 372.505 335.957 372.574 336.003C372.631 336.049 372.758 336.141 372.826 336.175L382.823 341.832V349.765L382.8 349.788ZM384.869 338.268L378.009 334.381L395.923 324.057L402.806 328.023L384.88 338.268H384.869ZM404.886 339.452L386.937 349.788V341.843L404.886 331.587V339.44V339.452ZM404.886 324.448L397.98 320.469V312.628L404.886 316.606V324.448ZM406.954 313.019L400.059 309.041L406.954 305.063L413.848 309.029L406.954 313.008V313.019ZM415.928 320.469L409.022 324.448V316.606L415.928 312.628V320.469Z" fill="#FF3939"/>
<path d="M379.353 411.851C379.077 411.851 378.813 411.782 378.549 411.656C377.71 411.207 377.388 410.173 377.825 409.322C379.342 406.436 381.387 405.976 383.03 405.608C384.329 405.309 385.351 405.079 386.512 403.7C386.581 403.619 386.615 403.55 386.592 403.355C386.305 400.871 379.652 395.87 376.457 393.467C375.148 392.478 374.021 391.627 373.275 390.983C372.562 390.363 372.482 389.27 373.102 388.546C373.723 387.833 374.814 387.753 375.538 388.373C376.182 388.937 377.273 389.753 378.526 390.696C384.558 395.237 389.591 399.296 390.017 402.952C390.143 404.056 389.844 405.079 389.155 405.907C387.259 408.184 385.259 408.632 383.8 408.965C382.375 409.287 381.663 409.448 380.893 410.932C380.583 411.518 379.985 411.851 379.365 411.851H379.353Z" fill="#222222"/>
</svg>
