<svg fill="none" height="613" viewBox="0 0 778 613" width="778" xmlns="http://www.w3.org/2000/svg"><path d="m297.508 94.0904c18-16 26.5-45.4999 75.5-45.4999 30.5-.0002 59.501-4.5002 73.501 11.4998s74 34.0001 105 50.9997c31 17 63.906 31.5 63.906 63.5s-3.407 56.5 12.593 94.5 13 39.5 11 64.5 29.5 44.5 15.5 80.5-55.999 47-57.999 71-35 52-45 52-45 9-67 29-64.001 11-100.001-6-87-36-104-23c-16.999 13-72 15-95 0s-3.5-63-23.5-91c-20.001-28-32-63.5-31-107.5s49.5-61.5 54.5-95.5-7-51 6-90 88-43 106-58.9996z" fill="#e1e3e6"/><path d="m276.008 72.5901c.5 12.4998-19 17-40.5 9.5-16.219-3.5-23.5-16.9999-22-26.9999s22-6.4997 41 0c19 6.4996 21 5.0001 21.5 17.4999z" fill="#e1e3e6"/><path d="m162.008 189.59c-9.501-10-19 13-15 30 .927 7.5 21 14 31 3.5s-6.5-23.5-16-33.5z" fill="#e1e3e6"/><path d="m535.008 36.0902c-2.5-6-19.5-9.5-26.5 6 0 6-11.5 18.0001 0 22.0001 11.5 3.9999 29-22.0001 26.5-28.0001z" fill="#e1e3e6"/><path d="m646.508 223.09c-4.5-9.5-7.5-17-12.5-38 0-26 29 11.5 30.5 31s-13.5 16.5-18 7z" fill="#e1e3e6"/><path d="m547.508 42.0902c13.5-6 25.5-4.9996 19 6.5003s-23 8.9995-19-6.5003z" fill="#e1e3e6"/><path d="m268.008 33.09c11 4.5 18 7.4995 11 13.9998-7 6.5004-22-13.9998-11-13.9998z" fill="#e1e3e6"/><path d="m124.508 235.59c-4.5 7.5-2.001 19.5 6.5 19 8.5-.5 3.501-29.5-6.5-19z" fill="#e1e3e6"/><path d="m104.008 502.59c-10.9999-14.5 1.5-32 27-46 26.999-10.5 12.5 39 7.5 46s-23.5 14.5-34.5 0z" fill="#e1e3e6"/><path d="m143.508 515.59c4 13 15 6 14 0s-9-10.5-14 0z" fill="#e1e3e6"/><path d="m116.508 451.59c-10.5-4-2-22 5-32.5 11-14 14 11.5 17 21s-11.5 15.5-22 11.5z" fill="#e1e3e6"/><path d="m369.508 578.09c-19 5-10.5 20 0 24s24.5-24 0-24z" fill="#e1e3e6"/><path d="m536.008 550.59c-5 9.5 11.001 27.5 15.501 20 4.499-7.5-3.001-35.5-15.501-20z" fill="#e1e3e6"/><path d="m634.008 506.59c-8-4-16.5-21.5-6-33 4.851-11.5 26.5-17 34.5 2.5 7.999 19.5-20.5 34.5-28.5 30.5z" fill="#e1e3e6"/><path d="m654.403 443.27.105-.18c8.001-8.5 8 13.5 0 13.5-7.942 0-5.042-4.929-.105-13.32z" fill="#e1e3e6"/><path d="m634.008 236.09c-6 7-2.499 16 5 13 7.5-3 5-20-5-13z" fill="#e1e3e6"/><path d="m675.508 303.59c-10-8.5-11-15-5.5-26 11-7 26.5 13.5 25 26s-9.5 8.5-19.5 0z" fill="#e1e3e6"/><path d="m496.508 32.0898c-6 7-3.5 12.0001-1.5 11.5001 2-.5001 11-15.5001 1.5-11.5001z" fill="#e1e3e6"/><path d="m351 99.5 7.5-18 17.5-19 16-6 15-1 13.5 7 12 34.5 7 11.5 4 8.5-6 2.5 9 13-1.5 10.5v10l-6.5 3.5-1 3-6.5 5 15.5 8.5 5 10-5 14 44.5 22.5 8 6.5 8 12.5 1.5 15.5-1.5 18 6.5 18.5 8.5 28.5v13l-8.5 17 9.5 15.5 6 8.5-1.5 14v10l-5.5 10.5-11.5 13.5-9 1.5-8 6.5h-9.5l-4 5-60.5 27.5 19.5 5 3 5 4.5.5 9 3.5 6 6 4 15.5 8.5 9 12.5 11.5 5 15v8l-16.5 15.5-10.5 5.5-9-1-10-6-3-9-7.5-18-7-6.5-22.5-9.5-6-14.5-6.5-4.5-25.5-17-13.5 18-14.5 12.5-13 13.5-5.5 18.5 3 2.5-2 8-7 6-21.5-3.5 2.5-10.5 24-39-4-49-7-6-22-12-2.5-4.5-14-8.5-4-12-5.5-4.5-11-11-1.5-9 1.5-21.5 10-13.5-8.5-10 1-13 11-21 10.5-41 9-34.5 3-4.5 17-12.5 38.5-20-9.5-17.5 3.5-4.5 19.5-6v-3.5h-6.5l-4.5-5.5-10-3.5v-11-13l5-7.5v-15z" fill="#fff"/><path d="m507.82 412.852c-.207 0-.414-.058-.598-.173-.54-.333-.712-1.034-.379-1.586 0-.023 1.425-2.426 1.195-6.232-.035-.632.448-1.173 1.08-1.219.621-.023 1.172.449 1.218 1.081.276 4.565-1.448 7.451-1.528 7.566-.219.356-.598.551-.977.551z" fill="#222"/><path d="m347.432 384.556 5.585 2.196 22.924 20.259 9.388 10.29 10.456-11.463 8.182-11.003 26.405-21.282s8.067 10.267 7.917 23.777c-.149 13.51-4.251 25.191-4.251 25.191s22.878-2.001 45.767 13.694c-34.621 17.809-58.821 27.157-58.821 27.157s16.915 9.83 22.246 11.152c5.332 1.322 11.939.977 17.949 11.866 6.009 10.888 23.475 32.17 22.441 42.149-1.034 9.98-29.186 35.516-36.816 28.618-7.63-6.899-9.239-28.33-12.318-30.388-3.08-2.058-30.37-10.716-32.415-15.487-2.046-4.772-10.537-22.041-19.132-25.663-8.595-3.621-14.881-4.944-14.881-4.944s-8.388 15.269-19.385 20.397c-10.996 5.128-28.899 26.272-29.048 31.997-.149 5.726-.115 17.511-.115 17.511s-10.617 4.507-22.257.759c-11.641-3.748-24.28-10.198-18.259-33.538s11.445-22.064 14.961-31.434c3.516-9.371 15.719-33.148 15.719-33.148l2.907-2.345-28.462-13.797.884-6.312h10.71s-1.471-2.794 10.41-4.254c11.882-1.472 36.816 2.345 36.816 2.345s-3.159-20.132-2.229-23.777c.931-3.644 4.424-12.624 4.424-12.624l2.298-7.922z" fill="#ff3939"/><path d="m361.416 84.5753-3.424-2.2305s11.41-16.5334 13.49-18.327 28.934-11.7619 38.758-12.5322c9.825-.7704 15.317 9.9913 21.155 27.1225 5.837 17.1313 3.907 23.1909 3.907 23.1909s-15.904-24.2141-17.88-27.077-6.929-2.9779-6.929-2.9779-6.596 22.7881-9.296 24.6621c-2.7 1.8741-15.122-20.5805-16.558-23.3399-1.436-2.7593-7.457-4.4035-12.513-1.2072s-10.698 12.7277-10.698 12.7277z" fill="#ff3939"/><path d="m338.584 188.812c-9.284 4.53-51.179 27.766-53.236 32.17-2.057 4.403-12.375 64.937-15.604 76.239s-15.697 24.168-11.594 33.585c4.102 9.416 7.48 14.222 7.48 14.222s17.65-6.082 23.763-4.346 13.386 4.99 14.57 6.404c1.183 1.414 6.676 9.163 6.676 9.163h2.241s-9.032-78.401-8.848-81.931c.184-3.529 2.31-7.91 2.31-7.91l3.849-2.978 10.296-1.23h141.266l9.089 1.23 5.527 6.657-2.447 28.721-3.379 44.392 1.54 3.139s24.981 0 28.083.425c3.103.425 11.744 4.817 14.536 3.61s18.316-24.604 14.363-34.849c-3.952-10.244-23.532-51.393-23.969-60.741-.437-9.347-.069-36.987-7.699-42.046s-51.501-14.016-51.501-14.016-6.676 14.602-11.399 16.545-31.703 7.485-31.703 7.485l-6.883 4.588-15.868-9.543-21.764-8.221-9.192-5.68-10.514-15.107z" fill="#ff3939"/><g fill="#222"><path d="m394.234 192.905c-6.711 0-14.789-1.61-16.799-2.208-4.781-1.403-19.902-23.995-21.166-27.743l-.23-.69c-1.31-3.829-2.264-6.6-1.758-16.614.046-.954.862-1.69 1.804-1.633.954.046 1.677.863 1.632 1.805-.472 9.348.344 11.728 1.574 15.315l.241.701c1.425 4.197 15.972 24.49 18.891 25.548 4.378 1.288 17.856 3.173 21.844 1.207 4.32-2.127 16.144-19.925 17.707-24.34 1.574-4.427 4.596-16.189 4.63-16.304.242-.919 1.184-1.471 2.103-1.241.919.241 1.483 1.172 1.241 2.104-.126.494-3.102 12.026-4.722 16.591-1.655 4.668-13.985 23.592-19.443 26.283-1.792.885-4.539 1.207-7.549 1.207z"/><path d="m364.668 143.259c-.184 0-.367-.046-.54-.138-.563-.299-.77-1.001-.471-1.552 1.011-1.886 3.011-3.151 5.653-3.542 3.942-.586 8.584.794 11.066 3.266.448.448.448 1.172 0 1.621-.448.448-1.172.448-1.62 0-1.977-1.978-5.872-3.105-9.101-2.622-1.344.196-3.125.771-3.964 2.346-.207.391-.609.609-1.011.609z"/><path d="m371.735 146.972c-1.23 0-2.333-.344-3.241-1.034-1.379-1.047-2.217-2.806-2.505-5.22-.069-.633.38-1.207 1.012-1.276s1.195.379 1.275 1.011c.207 1.748.77 3.013 1.609 3.657.655.494 1.517.666 2.574.505 1.804-.275 2.217-3.506 2.217-3.541.069-.632.632-1.081 1.264-1.012s1.08.633 1.023 1.265c-.023.207-.575 5.013-4.16 5.565-.367.057-.724.08-1.08.08z"/><path d="m412.079 144.351c-.414 0-.805-.219-1.011-.61-.931-1.747-3.632-3.024-6.734-3.162-2.597-.126-5.918.587-7.469 2.944-.356.529-1.069.678-1.597.322-.529-.345-.678-1.058-.322-1.599 1.77-2.678 5.332-4.162 9.503-3.966 3.999.195 7.319 1.874 8.652 4.38.299.564.081 1.254-.471 1.553-.172.092-.356.138-.54.138z"/><path d="m403.725 147.731c-.345 0-.712-.023-1.08-.081-3.585-.551-4.137-5.357-4.16-5.564-.069-.633.391-1.196 1.023-1.265s1.195.391 1.264 1.023c0 .035.414 3.254 2.218 3.541 1.057.161 1.919 0 2.574-.505.85-.644 1.413-1.909 1.62-3.657.08-.632.643-1.069 1.275-1.011.632.069 1.08.643 1.011 1.276-.287 2.414-1.126 4.173-2.505 5.22-.896.678-1.999 1.034-3.24 1.034z"/><path d="m396.612 163.425c-1.057 0-2.022-.345-2.746-.965-2.08.436-8.618 1.621-12.64.264-2.792-.943-4.688-2.656-5.182-4.714-.448-1.817.218-3.76 1.861-5.461 2.885-2.99 7.228-13.28 7.309-18.557 0-.633.517-1.138 1.149-1.138h.011c.632 0 1.138.528 1.138 1.161-.069 5.415-4.459 16.51-7.952 20.12-.758.794-1.609 2.012-1.287 3.323.31 1.276 1.655 2.403 3.689 3.081 4.102 1.38 11.939-.448 12.019-.471.448-.103.908.058 1.183.425.575.748 1.621.644 1.919.587.851-.138 1.586-.656 1.781-1.242.242-.736-.333-1.564-.873-2.115-.436-.46-.425-1.185.035-1.622.459-.436 1.183-.425 1.62.035 1.85 1.932 1.666 3.61 1.39 4.438-.471 1.403-1.873 2.495-3.585 2.782-.287.046-.574.069-.85.069z"/><path d="m367.208 167.863c-.552 0-1.035-.391-1.127-.942-.494-2.748 1.195-5.404 3.769-5.922.632-.126 1.23.276 1.356.897.127.621-.275 1.23-.896 1.357-1.333.264-2.218 1.759-1.953 3.254.115.62-.299 1.218-.931 1.333-.069.012-.138.023-.207.023z"/><path d="m388.753 172.611c-1.287 0-2.632-.298-3.62-.758-.356-.161-1.885-.472-3.24-.748-3.149-.632-7.446-1.506-9.722-2.782-.551-.311-.746-1.012-.436-1.564s1.011-.747 1.563-.437c1.953 1.104 6.055 1.932 9.043 2.53 2.068.414 3.171.644 3.746.908 1.183.54 3.217.782 4.228.253.678-.356 1.597-.356 2.873-.368 2.493-.011 6.251-.034 9.526-2.863.482-.414 1.206-.368 1.62.115s.356 1.207-.115 1.621c-3.918 3.381-8.354 3.404-11.008 3.415-.712 0-1.597 0-1.827.104-.747.39-1.678.563-2.631.563z"/><path d="m387.017 191.513c-.471 0-.907-.287-1.08-.759-.184-.494-1.758-4.932-1.022-7.668.161-.61.793-.978 1.413-.817.609.161.977.794.816 1.414-.46 1.725.54 5.117.965 6.278.218.598-.092 1.253-.689 1.472-.127.046-.265.069-.391.069z"/><path d="m409.057 168.657s-.035 0-.058 0c-.632-.035-1.126-.575-1.091-1.208.046-.954-.678-2.414-2.103-2.541-.632-.057-1.103-.609-1.046-1.241.058-.633.609-1.104 1.241-1.047 2.643.23 4.309 2.748 4.206 4.944-.035.621-.54 1.093-1.149 1.093z"/><path d="m385.455 117.93c-.851 0-1.586-.633-1.701-1.495-.126-.943.54-1.817 1.482-1.943 3.505-.472 13.019-2.794 14.835-7.795.322-.897 1.321-1.357 2.206-1.035.896.322 1.356 1.31 1.034 2.207-2.907 7.991-17.017 9.957-17.615 10.038-.08 0-.149.011-.23.011z"/><path d="m378.905 124.38c-.907 0-1.666-.713-1.723-1.633-.046-.954.678-1.759 1.631-1.816 5.447-.299 11.273-3.622 11.985-6.841.207-.932 1.126-1.518 2.057-1.311s1.517 1.127 1.31 2.058c-1.161 5.277-8.779 9.198-15.168 9.543-.034 0-.069 0-.092 0z"/><path d="m362.738 132.899c-.483 0-.965-.011-1.437-.045-.953-.058-1.666-.886-1.608-1.84.069-.954.93-1.667 1.838-1.61 5.723.368 13.525-1.862 17.121-7.669.506-.804 1.563-1.057 2.367-.551.805.505 1.058 1.563.563 2.38-4.044 6.53-12.306 9.335-18.856 9.335z"/><path d="m344.858 146.386c-.804 0-1.528-.564-1.689-1.392-.184-.931.414-1.839 1.344-2.035.069-.011 7.239-1.494 10.825-5.139.298-.299.689-.483 1.103-.506 4.102-.287 4.987-1.782 6.331-4.058.678-1.139 1.436-2.438 2.677-3.668.678-.678 1.77-.678 2.436 0 .678.678.678 1.77 0 2.437-.919.932-1.516 1.92-2.148 2.99-1.425 2.403-3.034 5.116-8.423 5.679-4.412 4.059-11.812 5.577-12.134 5.646-.115.023-.23.034-.345.034z"/><path d="m346.789 138.74c-.598 0-1.172-.311-1.494-.862-1.321-2.3-2.459-7.899 2.689-12.694.701-.655 1.781-.609 2.436.092.643.702.609 1.794-.092 2.438-4.447 4.139-2.149 8.266-2.045 8.439.471.828.195 1.885-.632 2.357-.276.161-.563.23-.862.23z"/><path d="m344.605 122.425c-2.734 0-4.561-1.242-5.239-1.794-2.218-1.805-3.735-12.578-2.528-14.866.54-1 1.942-1.897 5.354-3.978 3.896-2.3801 9.216-5.6339 11.445-8.6693.173-.2299 17.592-23.4663 21.982-25.2369 4.114-1.6557 7.147-.1725 8.227 1.9085.15.2875.425.9428 1.092 2.541 6.549 15.809 9.824 21.2818 11.422 23.0524 4.906-5.2428 11.892-20.362 12.421-24.3746.31-2.311 1.712-3.8287 3.757-4.0586 2.528-.2875 5.665 1.5291 6.493 3.7366 1.034 2.7709 9.744 23.5469 15.512 28.9622 5.217 4.8977 9.905 12.8657 9.848 16.7177-.023 1.276-.54 2-.977 2.38-2.206 1.931-4.125 2.69-6.573 2.633-1.091-.023-2.114-.828-4.355-2.564-5.194-4.048-15.995-12.464-32.518-13.809-14.283-.276-30.749 4.852-48.87 15.28l-.897.518c-2.137 1.207-4.033 1.621-5.607 1.621zm-2.999-4.415c.724.563 3.091 1.943 6.918-.219l.873-.494c18.695-10.762 35.759-16.051 50.709-15.74h.103c17.581 1.414 28.945 10.279 34.403 14.533.977.759 2.068 1.609 2.517 1.839 1.413 0 2.424-.425 3.826-1.609.149-1.748-3.172-8.899-8.768-14.154-6.963-6.5303-16.305-30.0312-16.385-30.2611-.23-.6209-1.781-1.6442-2.873-1.5177-.23.023-.597.069-.735 1.0808-.655 4.9094-9.02 22.903-14.639 27.5249-.518.4255-1.241.5174-1.839.2185-2.988-1.4372-7.032-8.8416-13.961-25.5589-.448-1.0693-.862-2.0811-.965-2.2765-.311-.5979-1.632-1.1958-3.873-.2989-2.401 1.0577-15.064 16.6598-20.488 24.0757-2.619 3.5872-8.284 7.0482-12.421 9.5772-1.62.989-3.631 2.219-4.137 2.714-.436 1.609.782 9.232 1.735 10.554z"/><path d="m385.455 96.3947c-.621 0-1.207-.3334-1.517-.9082-1.034-1.9431-10.158-19.1894-10.261-25.421-.012-.9543.747-1.7361 1.689-1.7476.942-.023 1.735.7473 1.758 1.7016.081 4.576 7.136 18.7754 9.859 23.8573.448.8393.126 1.8856-.712 2.334-.253.138-.54.2069-.816.2069z"/><path d="m403.978 98.671c-.494 0-.989-.2069-1.322-.6208-.609-.7359-.505-1.8166.219-2.426 8.078-6.7375 9.721-17.1657 9.732-17.2692.138-.9428 1.023-1.5867 1.954-1.4487.942.138 1.585 1.0118 1.447 1.9546-.069.4829-1.827 11.8194-10.939 19.4192-.321.2645-.712.4024-1.103.4024z"/><path d="m340.136 120.609c-.494 0-.977-.207-1.322-.621-.609-.725-.517-1.817.207-2.426 13.559-11.406 38.046-18.5341 39.08-18.8215.908-.2645 1.873.2644 2.137 1.1842.265.9203-.264 1.8743-1.183 2.1383-.242.069-24.82 7.221-37.816 18.155-.322.276-.713.402-1.103.402z"/><path d="m436.818 115.619c-.414 0-.839-.15-1.172-.46-.103-.092-10.399-9.474-25.211-13.855-.907-.264-1.436-1.23-1.16-2.1383s1.229-1.4372 2.137-1.1613c15.605 4.6106 26.13 14.2226 26.567 14.6246.701.644.747 1.736.092 2.438-.345.368-.805.552-1.264.552z"/><path d="m432.785 101.385c-.781 0-1.482-.529-1.678-1.323-2.826-11.7961-7.802-30.468-9.87-33.5608l-.609-.9083c-2.678-4.0357-5.194-7.8413-12.537-8.8301-8.549-1.1498-27.704 1.7821-34.242 7.4504-7.078 6.1281-17.374 21.6037-20.821 34.021-.253.9198-1.206 1.4487-2.126 1.1958-.919-.253-1.459-1.2073-1.195-2.1271 3.608-13.0036 14.433-29.2496 21.89-35.6997 7.308-6.3236 27.601-9.5199 36.966-8.2552 8.882 1.1958 12.111 6.0592 14.949 10.3478l.597.8968c3.091 4.599 9.63 31.6181 10.365 34.6879.218.9315-.345 1.8625-1.275 2.0815-.138.034-.276.046-.403.046z"/><path d="m335.011 139.465c-.77 0-1.483-.529-1.678-1.311-.138-.552-3.206-13.556 5.918-18.948.816-.483 1.873-.218 2.355.609.483.817.219 1.874-.609 2.357-6.906 4.082-4.343 15.051-4.32 15.165.23.92-.345 1.863-1.264 2.082-.138.034-.276.046-.414.046z"/><path d="m335.528 149.869c-.54 0-1.08-.252-1.413-.735-2.793-4.002-2.85-10.268 2.47-14.487.747-.598 1.827-.472 2.425.276.586.747.471 1.828-.276 2.426-3.815 3.035-3.597 7.209-1.781 9.819.54.781.356 1.851-.425 2.403-.299.206-.644.31-.989.31z"/><path d="m355.855 163.851s-.115 0-.173 0c-.471-.046-10.571-1.116-13.019-7.083-3.033.575-5.952-.287-7.94-2.449-2.068-2.253-2.596-5.369-1.344-7.933.425-.851 1.448-1.207 2.31-.794.85.414 1.206 1.449.792 2.311-.62 1.277-.321 2.886.782 4.094 1.425 1.552 3.665 1.931 5.998 1.023.494-.196 1.069-.138 1.517.138.459.276.758.759.816 1.288.494 4.829 10.33 5.955 10.422 5.967.942.092 1.643.943 1.539 1.885-.092.886-.838 1.553-1.712 1.553z"/><path d="m354.671 155.986s-.034 0-.046 0c-7.791-.195-9.388-4.668-9.388-11.325 0-.954.77-1.724 1.724-1.724s1.724.77 1.724 1.724c0 6.554 1.574 7.761 6.021 7.876.953.023 1.7.816 1.677 1.771-.023.942-.793 1.678-1.723 1.678z"/><path d="m351.787 149.548c-.31 0-.62-.138-.85-.391-.127-.15-.77-.978-.77-2.507 0-.632.517-1.15 1.149-1.15s1.149.518 1.149 1.15c0 .702.241 1.047.253 1.058.356.506.276 1.219-.207 1.598-.218.173-.471.253-.724.253z"/><path d="m376.71 133.877c-.586 0-1.08-.437-1.137-1.035-.058-.633.402-1.196 1.022-1.253.035 0 3.976-.426 5.573-2.564.38-.506 1.103-.61 1.609-.242.506.38.609 1.104.23 1.61-2.206 2.966-6.986 3.461-7.193 3.484-.035 0-.081 0-.115 0z"/><path d="m400.588 134.394c-1.367 0-4.355-.276-6.032-2.484-.38-.505-.288-1.23.218-1.609.505-.38 1.229-.288 1.609.218 1.401 1.84 4.665 1.564 4.699 1.564.632-.058 1.195.402 1.253 1.035.057.632-.402 1.195-1.034 1.253-.046 0-.311.023-.713.023z"/><path d="m406.689 135.153s-.023 0-.034 0c-.138 0-3.528-.138-5.975-4.335-.322-.552-.138-1.253.413-1.575.552-.322 1.253-.138 1.575.414 1.758 3.024 3.964 3.185 4.056 3.196.632.035 1.114.563 1.092 1.196-.023.621-.529 1.104-1.138 1.104z"/><path d="m412.527 137.085s-.08 0-.126 0c-.161-.012-3.919-.322-5.895-3.438-.506-.805-.276-1.874.528-2.38.805-.506 1.873-.276 2.379.529 1.046 1.632 3.229 1.851 3.252 1.851.942.08 1.655.908 1.574 1.851-.069.897-.816 1.587-1.712 1.587z"/><path d="m368.058 135.153s-.069 0-.103 0c-.632 0-1.149-.529-1.138-1.161 0-.633.517-1.139 1.149-1.139h.092c3.677 0 6.894-2.069 6.917-2.092.529-.345 1.241-.196 1.586.333s.196 1.242-.333 1.587c-.149.103-3.803 2.46-8.181 2.46z"/><path d="m390.798 125.035c-.632 0-1.23-.345-1.54-.943-.436-.851-.092-1.886.747-2.323 1.482-.758 5.585-3.414 6.699-6.484.322-.897 1.31-1.357 2.206-1.035.897.322 1.356 1.311 1.034 2.208-1.804 4.99-8.112 8.243-8.376 8.381-.253.127-.517.184-.782.184z"/><path d="m414.17 125.253s-.069 0-.115 0c-4.401-.276-13.042-2.955-14.306-11.095-.149-.943.494-1.816 1.436-1.966.943-.149 1.816.506 1.965 1.437 1.149 7.416 10.71 8.152 11.112 8.175.954.069 1.666.885 1.609 1.828-.058.908-.816 1.61-1.713 1.61z"/><path d="m420.881 133.854s-.035 0-.058 0c-7.377-.242-12.111-3.99-12.984-10.302-.127-.943.528-1.817 1.471-1.943.953-.138 1.815.529 1.942 1.472.804 5.817 5.71 7.197 9.675 7.323.953.035 1.7.828 1.666 1.783-.035.931-.793 1.667-1.724 1.667z"/><path d="m421.926 123.104c-.103 0-.218 0-.321-.035-.931-.172-1.552-1.081-1.379-2.012.034-.184.758-4.932-4.148-10.98-.598-.736-.495-1.828.252-2.426.736-.598 1.827-.494 2.425.253 5.986 7.358 4.918 13.532 4.872 13.797-.161.828-.885 1.403-1.689 1.403z"/><path d="m436.703 148.087c-3.39 0-7.446-.632-9.916-3.231-6.516-.862-10.526-7.3-10.526-13.038 0-.954.77-1.724 1.724-1.724s1.723.77 1.723 1.724c0 4.415 3.229 9.348 8.044 9.67.494.034.954.276 1.252.667 2.413 3.138 9.216 2.644 12.249 2.092 2.172-2.564 3.183-6.002 2.85-9.761-.448-5.048-3.16-9.9-7.273-12.992-.759-.575-.92-1.656-.345-2.415.574-.759 1.654-.908 2.413-.345 4.872 3.668 8.101 9.44 8.629 15.441.437 4.944-1.022 9.486-4.113 12.82-.242.253-.552.437-.897.506-.218.046-2.746.575-5.825.575z"/><path d="m435.301 158.665c-.735 0-1.413-.471-1.643-1.207-.287-.908.219-1.874 1.126-2.162 4.459-1.414 8.159-4.288 8.768-6.841.275-1.149-.092-2.219-1.149-3.276-.678-.679-.678-1.771 0-2.438.678-.678 1.769-.678 2.436 0 2.424 2.426 2.459 4.887 2.056 6.531-1.057 4.334-6.319 7.795-11.077 9.313-.172.057-.344.08-.517.08z"/><path d="m425.316 165.932c-1.54 0-3.137-.15-4.769-.472-.93-.184-1.539-1.092-1.356-2.023.184-.932 1.104-1.541 2.023-1.357 7.584 1.495 14.237-1.15 15.845-6.301.288-.908 1.253-1.414 2.161-1.138.907.288 1.413 1.253 1.137 2.162-1.758 5.668-7.744 9.14-15.041 9.14z"/><path d="m422.765 160.263c-.138 0-.287 0-.437 0-.953-.023-1.712-.804-1.689-1.759.023-.954.805-1.747 1.758-1.69 4.562.081 6.918-1.621 7.377-2.805.713-1.828 3.241-8.347 3.241-8.347l3.217 1.241s-2.528 6.542-3.252 8.371c-.908 2.334-4.136 5.001-10.227 5.001z"/><path d="m427.269 153.56c-.298 0-.597-.115-.827-.356-.437-.46-.425-1.184.035-1.621 0 0 1.47-1.46.965-2.748-.23-.586.057-1.253.655-1.495.586-.23 1.252.058 1.494.656 1.068 2.725-1.402 5.151-1.517 5.243-.218.218-.506.321-.793.321z"/><path d="m389.465 177.59c-1 0-2.229-.046-3.689-.173-.632-.057-1.103-.609-1.045-1.241.057-.633.586-1.104 1.241-1.047 4.068.345 6.193.012 6.216 0 .621-.092 1.218.322 1.322.955.103.621-.322 1.218-.943 1.322-.057 0-1.103.184-3.091.184z"/><path d="m363.266 201.482h-.023c-.953 0-1.712-.794-1.7-1.748 0-.195.229-20.201 0-28.226-.035-.954.712-1.748 1.666-1.782.954-.035 1.746.713 1.769 1.667.253 8.094.012 28.169.012 28.364 0 .943-.782 1.702-1.724 1.702z"/><path d="m418.744 196.089c-.92 0-1.69-.736-1.724-1.667 0-.126-.448-13.027-.747-24.984-.023-.954.724-1.748 1.678-1.771h.046c.93 0 1.7.748 1.723 1.679.299 11.946.736 24.835.747 24.961.035.954-.712 1.748-1.666 1.782-.023 0-.046 0-.057 0z"/><path d="m394.716 227.466c-.321 0-.643-.092-.93-.276-.127-.08-13.295-8.531-29.371-10.968-9.319-1.414-17.994-11.935-23.625-20.512-5.193-7.899-11.008-19.522-10.41-21.81.862-3.289 8.227-8.118 26.291-11.82.93-.184 1.838.414 2.033 1.345.196.932-.413 1.84-1.344 2.035-17.466 3.576-22.832 7.899-23.579 9.164.862 4.576 16.374 35.941 31.151 38.183 16.834 2.564 30.163 11.118 30.726 11.486.805.517 1.023 1.587.506 2.38-.333.506-.885.782-1.448.782z"/><path d="m386.351 222.994c-.39 0-.781-.127-1.103-.403-.092-.069-9.054-7.484-23.912-12.152-16.983-5.347-19.695-34.93-19.695-35.217 0-3.771 9.308-7.324 18.029-9.382.931-.219 1.85.356 2.08 1.276.218.931-.356 1.851-1.276 2.081-10.962 2.599-14.754 5.427-15.363 6.243.219 4.047 4.125 27.583 17.271 31.71 15.547 4.887 24.705 12.487 25.084 12.808.724.61.827 1.702.218 2.426-.344.403-.827.621-1.321.621z"/><path d="m343.376 176.935s-.104 0-.161 0l-6.079-.552c-.942-.081-1.643-.92-1.562-1.874.092-.955.919-1.656 1.873-1.564l6.078.552c.942.08 1.643.92 1.563 1.874-.08.897-.839 1.564-1.712 1.564z"/><path d="m396.842 227.167c-.298 0-.597-.08-.861-.23-.828-.483-1.104-1.529-.621-2.357 2.149-3.713 9.399-5.898 18.569-8.669 5.516-1.667 11.766-3.553 17.351-5.956 13.501-5.817 17.822-29.123 16.995-31.48-1.058-2.748-8.331-9.669-23.016-12.359-.931-.173-1.551-1.07-1.391-2.013.173-.942 1.069-1.552 2.011-1.391 15.674 2.863 24.027 10.417 25.613 14.51 1.747 4.519-3.734 29.388-18.856 35.895-5.768 2.484-12.111 4.404-17.719 6.094-7.423 2.242-15.11 4.564-16.581 7.094-.322.552-.896.862-1.494.862z"/><path d="m401.68 222.522c-.334 0-.655-.092-.954-.287-.793-.529-1.011-1.599-.483-2.392 2.264-3.426 8.929-6.669 16.639-10.428 7.009-3.415 14.949-7.278 18.408-11.049 7.641-8.347 4.401-18.454 4.251-18.879-.746-1.978-11.858-8.738-21.476-10.29-.942-.15-1.574-1.035-1.425-1.978.15-.943 1.035-1.575 1.977-1.426 9.284 1.507 22.855 8.566 24.199 12.602 1.529 4.587 2.206 14.452-4.987 22.293-3.895 4.254-11.801 8.106-19.43 11.82-6.654 3.242-13.525 6.588-15.272 9.221-.333.506-.884.77-1.436.77z"/><path d="m449.872 179.579h-3.976c-.954 0-1.724-.77-1.724-1.724 0-.955.77-1.725 1.724-1.725h3.976c.953 0 1.723.77 1.723 1.725 0 .954-.77 1.724-1.723 1.724z"/><path d="m358.728 240.872c-2.402 0-5.137-.575-7.262-2.046-2.057-1.426-3.321-3.553-3.654-6.14-.449-3.484.528-6.588 2.746-8.75 2.39-2.334 5.998-3.322 9.893-2.713 3.988.621 7.469 3.932 8.274 7.876.896 4.369-2.896 10.474-7.125 11.474-.838.196-1.827.311-2.872.311zm-.506-16.372c-2.126 0-3.987.667-5.263 1.908-1.447 1.403-2.045 3.427-1.735 5.841.207 1.633.931 2.863 2.206 3.748 2.31 1.61 5.757 1.598 7.377 1.219 2.195-.517 5.079-4.737 4.528-7.416-.598-2.897-3.241-4.817-5.424-5.162-.574-.092-1.149-.138-1.689-.138z"/><path d="m357.785 235.606s-.103 0-.161 0c-.632-.011-1.137-.54-1.126-1.172.012-.633.506-1.093 1.172-1.127h.104c2.436 0 3.229-1.759 3.309-1.955.241-.586.896-.874 1.494-.632.586.23.873.885.643 1.472-.057.138-1.367 3.414-5.446 3.414z"/><path d="m426.086 239.216c-.356 0-.724-.011-1.092-.046-3.424-.287-6.527-1.816-7.733-3.817-3.183-5.312-2.114-10.474 3.01-14.556 4.114-3.276 10.514-.712 13.537 2.058 3.458 3.174 3.171 8.968-.655 13.475-1.586 1.863-4.114 2.886-7.067 2.886zm-3.666-15.717c-3.757 2.99-4.47 6.278-2.194 10.084.528.873 2.608 1.954 5.055 2.15 1.081.092 3.758.115 5.24-1.633 2.609-3.058 3.022-6.795.954-8.692-2.218-2.035-6.745-3.748-9.055-1.909z"/><path d="m426.327 234.273c-.459 0-.896-.276-1.068-.736-.23-.587.057-1.253.655-1.495 1.068-.425 2.413-1.725 2.654-4.001.069-.632.632-1.081 1.264-1.023.632.069 1.092.632 1.023 1.264-.345 3.312-2.425 5.255-4.102 5.91-.138.058-.276.081-.426.081z"/><path d="m313.454 357.422c-.862 0-1.609-.644-1.712-1.529l-9.422-81.379c-.403-3.484.7-6.991 3.033-9.612s5.688-4.128 9.193-4.128h151.665c3.447 0 6.768 1.461 9.089 4.013 2.333 2.552 3.482 5.979 3.172 9.416l-6.584 73.193c-.081.943-.92 1.645-1.873 1.564-.954-.08-1.644-.92-1.563-1.874l6.584-73.193c.23-2.506-.586-4.921-2.287-6.783-1.7-1.863-4.021-2.886-6.549-2.886h-151.666c-2.528 0-4.941 1.08-6.619 2.966-1.677 1.886-2.481 4.415-2.183 6.922l9.423 81.379c.103.943-.575 1.805-1.517 1.908-.069 0-.138 0-.195 0z"/><path d="m319.912 353.525c-.862 0-1.609-.644-1.712-1.518l-9.227-77.596c-.218-1.875.368-3.772 1.62-5.186 1.253-1.414 3.057-2.23 4.953-2.23h143.449c.954 0 1.724.77 1.724 1.724 0 .955-.77 1.725-1.724 1.725h-143.449c-.92 0-1.758.379-2.367 1.069s-.885 1.575-.782 2.484l9.227 77.596c.115.943-.563 1.805-1.505 1.92-.069 0-.138.012-.207.012z"/><path d="m423.903 384.004h-77.149c-.953 0-1.723-.77-1.723-1.724s.77-1.725 1.723-1.725h77.149c.954 0 1.723.771 1.723 1.725s-.769 1.724-1.723 1.724z"/><path d="m372.217 228.846c-2.275 0-4.366-.035-6.193-.115-.954-.035-1.689-.84-1.655-1.794.035-.931.805-1.656 1.724-1.656h.069c15.191.633 46.698-1.517 52.064-3.184.908-.288 1.873.23 2.16 1.138.288.908-.229 1.874-1.137 2.161-5.424 1.679-30.91 3.438-47.032 3.438z"/><path d="m380.411 239.699c-5.436 0-10.951-.138-16.248-.494-.954-.069-1.666-.885-1.609-1.84.069-.954.885-1.678 1.839-1.609 24.716 1.655 54.776-1.438 55.086-1.461.942-.103 1.792.587 1.896 1.541.103.943-.586 1.794-1.54 1.897-.241.023-19.166 1.966-39.424 1.966z"/><path d="m366.093 263.936c-.104 0-.207 0-.31-.023-.931-.172-1.563-1.069-1.391-2.001.598-3.288 0-5.967-1.758-7.749-1.586-1.61-4.079-2.368-6.515-1.977-2.356.379-3.93 1.195-4.688 2.449-.828 1.356-.816 3.391.034 6.036.287.908-.207 1.874-1.114 2.173-.908.287-1.873-.207-2.172-1.116-1.172-3.656-1.069-6.645.31-8.899 1.31-2.138 3.7-3.506 7.09-4.047 3.585-.575 7.136.541 9.526 2.978 2.528 2.576 3.47 6.404 2.677 10.785-.149.839-.873 1.414-1.689 1.414z"/><path d="m421.88 263.936c-.206 0-.413-.034-.62-.115-3.631-1.403-5.964-4.185-6.561-7.841-.632-3.863.839-8.382 3.424-10.509 3.987-3.3 10.962-2.541 14.639 1.575 2.505 2.806 2.045 7.819 1.724 9.842-.196 1.288-1.011 5.576-3.091 6.807-.816.483-1.873.218-2.367-.61-.483-.816-.219-1.874.609-2.368.425-.38 1.424-2.829 1.62-6.013.149-2.438-.253-4.45-1.069-5.37-2.47-2.771-7.262-3.357-9.859-1.207-1.448 1.196-2.677 4.415-2.218 7.301.403 2.472 1.885 4.208 4.401 5.174.885.345 1.333 1.345.989 2.23-.265.69-.92 1.104-1.609 1.104z"/><path d="m360.463 262.338c-.242 0-.483-.081-.69-.23-.505-.379-.609-1.104-.229-1.61 0 0 .7-.942 1.068-2.115.195-.61.827-.943 1.436-.748.609.196.943.84.747 1.449-.494 1.564-1.39 2.76-1.424 2.806-.23.298-.575.459-.92.459z"/><path d="m426.005 259.728c-.287 0-.563-.104-.781-.311-.46-.437-.483-1.161-.057-1.621.494-.54 1.735-2.23 1.47-3.575-.126-.621.288-1.231.908-1.346.621-.126 1.23.288 1.345.909.54 2.736-1.782 5.311-2.046 5.599-.23.241-.528.368-.839.368z"/><path d="m389.488 256.509c-9.882 0-19.821-.978-26.072-2.599-.92-.241-1.471-1.184-1.241-2.104.241-.92 1.183-1.483 2.102-1.242 14.398 3.737 43.734 3.496 52.019-1.678.804-.506 1.873-.253 2.378.552.506.804.253 1.874-.551 2.38-5.32 3.322-16.937 4.691-28.635 4.691z"/><path d="m395.969 255.715c-.954 0-1.724-.77-1.724-1.724v-14.844c0-.954.77-1.724 1.724-1.724.953 0 1.723.77 1.723 1.724v14.844c0 .954-.77 1.724-1.723 1.724z"/><path d="m393.901 215.693c-.242 0-.483 0-.724 0-11.583-.253-23.281-6.002-34.771-17.109-.69-.667-.701-1.747-.046-2.437.666-.69 1.758-.702 2.436-.046 10.847 10.474 21.763 15.912 32.45 16.142h.643c14.042 0 26.061-9.865 29.738-14.728.574-.759 1.655-.908 2.413-.333.758.574.908 1.655.333 2.414-4.757 6.289-17.695 16.108-32.484 16.108z"/><path d="m258.885 349.88c-.253 0-.506-.058-.747-.173-.276-.138-6.791-3.414-8.848-13.084-1.333-6.266 3.735-15.015 8.204-22.73 2.425-4.174 4.712-8.129 5.298-10.612.275-1.139.816-3.519 1.551-6.772 6.527-28.641 14.467-62.351 17.971-68.801 4.826-8.877 34.116-25.64 57.385-35.148.885-.357 1.884.069 2.252.943.356.885-.057 1.885-.942 2.253-24.705 10.095-51.754 26.421-55.661 33.607-3.735 6.864-13.835 51.221-17.638 67.916-.747 3.265-1.287 5.668-1.563 6.806-.712 2.978-3.011 6.945-5.676 11.532-3.953 6.818-8.871 15.315-7.814 20.282 1.689 7.945 6.791 10.589 6.998 10.704.85.425 1.195 1.46.77 2.311-.299.609-.908.966-1.54.966z"/><path d="m269.732 325.218c-.207 0-.414-.035-.62-.115-.885-.345-1.322-1.334-.989-2.219.184-.483 1.908-4.714 5.504-5.473 2.069-.437 8.802-5.151 12.859-8.715 5.067-4.438 12.26-3.679 21.993 2.322.816.495 1.057 1.564.563 2.369-.506.816-1.563 1.069-2.367.563-12.295-7.588-16.524-3.886-17.914-2.667-2.586 2.265-10.825 8.726-14.421 9.485-1.505.322-2.7 2.576-2.999 3.335-.264.678-.919 1.092-1.609 1.092z"/><path d="m288.072 320.377c-.472 0-.943-.195-1.287-.574-.632-.713-.575-1.806.137-2.438 4.964-4.449 14.996-4.978 17.363-4.518 2.321.448 4.883 1.011 4.883 1.011.931.207 1.517 1.127 1.31 2.058-.206.932-1.126 1.518-2.056 1.311 0 0-2.528-.552-4.792-.989-1.816-.345-10.64.311-14.421 3.703-.333.298-.735.436-1.149.436z"/><path d="m290.427 259.728c-.368 0-.712-.173-.942-.494 0 0-1.62-2.311-4.114-6.014-.356-.529-.218-1.241.31-1.598.529-.356 1.241-.218 1.598.311 2.482 3.679 4.09 5.978 4.09 5.978.368.518.242 1.242-.287 1.598-.195.138-.437.207-.655.207z"/><path d="m286.658 267.569c-.253 0-.494-.08-.712-.241-.069-.057-1.712-1.357-2.908-3.265-.333-.541-.172-1.253.368-1.587.54-.333 1.253-.172 1.586.368.988 1.575 2.367 2.667 2.378 2.679.495.391.586 1.115.196 1.61-.23.287-.563.436-.908.436z"/><path d="m282.981 275.112c-.264 0-.517-.092-.735-.265-.058-.046-1.437-1.196-2.816-2.978-.39-.506-.298-1.218.207-1.609.506-.391 1.218-.299 1.609.207 1.218 1.575 2.459 2.621 2.47 2.621.483.403.552 1.127.138 1.621-.229.276-.551.414-.884.414z"/><path d="m298.562 245.735c-.793 0-1.505-.54-1.678-1.345-.93-4.173-7.997-13.107-13.306-14.544-.919-.253-1.459-1.196-1.218-2.116.253-.919 1.195-1.46 2.115-1.218 6.768 1.839 14.616 11.968 15.776 17.119.207.932-.379 1.851-1.31 2.058-.126.023-.253.046-.379.046z"/><path d="m468.797 264.235c-.058 0-.127 0-.184 0-.942-.103-1.632-.943-1.54-1.897 1.253-11.992 6.814-18.132 7.044-18.385.643-.701 1.735-.735 2.436-.092.701.644.747 1.737.092 2.438-.046.046-5.022 5.622-6.148 16.395-.092.886-.838 1.541-1.712 1.541z"/><path d="m513.794 351.42c-.31 0-.62-.08-.907-.253-.816-.494-1.069-1.563-.563-2.368 2.608-4.243 9.227-16.602 8.56-22.8-.862-7.921-7.055-30.295-10.87-39.252-3.93-9.21-4.929-26.812-3.861-34.412.896-6.416-5.515-23.915-8.79-27.399-3.034-3.219-21.419-14.279-52.087-26.444-.885-.356-1.322-1.356-.966-2.242.357-.885 1.356-1.322 2.241-.966 30.094 11.935 49.617 23.329 53.328 27.284 3.907 4.151 10.767 22.604 9.698 30.238-1.022 7.301.046 24.203 3.62 32.573 3.987 9.347 10.227 31.905 11.134 40.23.931 8.634-8.641 24.317-9.043 24.972-.321.529-.896.816-1.471.816z"/><path d="m509.175 332.599c-.908 0-1.678-.713-1.724-1.644-.321-6.668-4.803-15.59-6.308-16.43-2.344-.885-8.078-3.955-13.168-7.312-4.953-3.265-9.951-1.679-12.491-.437-.862.414-1.884.057-2.298-.793-.414-.863-.057-1.886.793-2.311 5.447-2.645 11.238-2.403 15.892.666 4.676 3.082 10.353 6.152 12.536 6.979 3.562 1.357 8.158 12.935 8.48 19.477.046.954-.689 1.759-1.643 1.805-.023 0-.058 0-.081 0z"/><path d="m483.321 320.676c-.632 0-1.149-.517-1.149-1.149 0-.023-.103-3.427-3.872-9.049-.356-.529-.219-1.242.31-1.598s1.241-.218 1.597.31c4.217 6.278 4.263 10.164 4.263 10.325 0 .633-.517 1.15-1.149 1.15z"/><path d="m489.262 316.387s-.046 0-.081 0c-.632-.046-1.114-.586-1.068-1.218 0 0-.104-1.472-2.517-4.622-.391-.506-.287-1.231.218-1.61.506-.391 1.23-.287 1.609.219 2.976 3.886 3.011 5.817 2.988 6.174-.046.609-.552 1.069-1.149 1.069z"/><path d="m481.287 291.185c-.505 0-.965-.333-1.103-.839-.172-.609.184-1.242.804-1.414 4.413-1.231 7.848-4.266 7.883-4.3.471-.426 1.195-.38 1.62.092.425.471.379 1.195-.092 1.621-.149.138-3.849 3.426-8.802 4.806-.103.023-.206.046-.31.046z"/><path d="m483.321 294.704c-.552 0-1.034-.403-1.138-.966-.103-.621.322-1.219.943-1.322 2.861-.472 5.929-2.07 5.963-2.081.563-.288 1.253-.081 1.552.482.287.564.08 1.254-.483 1.553-.138.069-3.424 1.782-6.653 2.311-.069 0-.127.011-.195.011z"/><path d="m458.352 219.004s-.081 0-.127 0c-.632-.058-1.091-.667-1.022-1.299.046-.426.436-1.817 3.183-5.623.367-.517 1.091-.632 1.608-.264s.632 1.092.253 1.61c-2.482 3.437-2.758 4.541-2.769 4.587-.058.586-.552.989-1.126.989z"/><path d="m465.051 218.188c-.115 0-.218-.012-.333-.046-.609-.184-.954-.817-.77-1.426.023-.092.666-2.207 2.873-4.162.471-.425 1.195-.379 1.62.092s.379 1.196-.092 1.621c-1.678 1.495-2.195 3.093-2.195 3.104-.149.495-.609.817-1.103.817z"/><path d="m486.516 232.674c-.414 0-.828-.149-1.161-.448-.701-.632-.758-1.725-.126-2.426.149-.161 3.677-4.013 12.743-7.646.885-.356 1.884.081 2.24.966.357.885-.08 1.885-.953 2.242-8.228 3.3-11.434 6.714-11.468 6.749-.345.368-.804.563-1.275.563z"/><path d="m434.612 379.084c-.207 0-.414-.035-.609-.115-.885-.334-1.333-1.334-1-2.231 5.355-14.073 25.245-21.673 26.096-21.995.884-.333 1.884.115 2.217 1.012.334.897-.115 1.886-1.011 2.219-.195.069-19.281 7.382-24.084 19.983-.265.69-.92 1.115-1.609 1.115z"/><path d="m526.009 395.088c-.161 0-.322-.023-.494-.069-.908-.276-1.436-1.23-1.161-2.139 2.793-9.45 4.24-20.718 1.701-22.454-4.55-3.127-7.595-10.083-9.595-14.682-.425-.978-.793-1.805-1.091-2.403-1.758-3.507-14.64-4.795-18.868-5.22l-12.445-1.621c-13.34-1.736-24.302 7.887-29.289 25.765-.253.92-1.207 1.449-2.126 1.196s-1.448-1.207-1.195-2.127c5.492-19.672 17.856-30.227 33.059-28.249l12.387 1.61c13.455 1.345 19.718 3.403 21.568 7.105.321.644.712 1.529 1.16 2.564 1.735 3.99 4.654 10.658 8.388 13.222 5.723 3.932 1.184 21.109-.344 26.272-.219.747-.908 1.23-1.655 1.23z"/><path d="m497.753 424.246c-4.745 0-7.216-1.058-7.365-1.115-.873-.38-1.264-1.403-.885-2.277s1.402-1.265 2.275-.885c.035.011 4.723 1.92 13.904-.104 9.158-2.023 21.361-20.373 19.477-29.307-.196-.931.402-1.851 1.333-2.046.93-.196 1.85.402 2.045 1.333 2.252 10.693-11.18 30.975-22.108 33.389-3.436.759-6.331 1.012-8.664 1.012z"/><path d="m482.253 431.386c-3.517 0-7.182-.403-10.779-1.265-.93-.219-1.494-1.15-1.275-2.081.218-.931 1.149-1.506 2.08-1.276 12.754 3.058 25.026-.265 28.06-5.151.505-.817 1.563-1.058 2.378-.552.805.506 1.058 1.563.552 2.38-3.102 5.001-11.525 7.956-21.005 7.956z"/><path d="m477.162 403.493c-2.172 0-4.378-.15-6.584-.506-.942-.15-1.586-1.035-1.436-1.978.149-.942 1.045-1.575 1.976-1.437 13.111 2.093 27.222-3.783 27.371-3.852.873-.367 1.884.035 2.264.92.379.886-.035 1.886-.908 2.265-.517.219-10.951 4.576-22.671 4.576z"/><path d="m499.155 417.853c-.172 0-.344-.034-.517-.126-.563-.288-.804-.978-.517-1.541.023-.034 1.977-4.001 2.528-7.726.092-.633.678-1.058 1.31-.966s1.057.678.965 1.311c-.609 4.093-2.666 8.243-2.746 8.416-.195.402-.609.632-1.034.632z"/><path d="m478.621 435.444c-.413 0-.827-.149-1.149-.437-.183-.161-18.775-16.487-45.951-14.383-.643.046-1.229-.253-1.574-.782s-.368-1.207-.069-1.759c6.446-11.911 4.539-35.297 1.138-42.472-.391-.828-.069-1.816.735-2.253l3.665-1.978c.839-.46 1.885-.138 2.333.701.448.84.138 1.886-.701 2.334l-2.298 1.242c3.103 8.531 4.573 28.721-.574 41.368 23.383-.828 39.792 10.75 44.354 14.383l2.263-2.242c.678-.666 1.77-.666 2.436.012.667.678.667 1.771-.011 2.437l-3.378 3.335c-.334.333-.77.494-1.207.494z"/><path d="m386.179 418.428c-.471 0-.931-.196-1.276-.564-.643-.701-.586-1.793.115-2.437.334-.311 33.829-30.813 46.411-41.851.713-.632 1.804-.552 2.436.161s.552 1.805-.161 2.437c-12.571 11.015-46.031 41.506-46.365 41.805-.333.299-.747.449-1.16.449z"/><path d="m420.283 462.049c-.655 0-1.275-.379-1.574-1.012-.391-.862-.012-1.885.85-2.288l58.35-26.605c.873-.391 1.884 0 2.287.851.39.862.011 1.886-.851 2.288l-58.349 26.605c-.23.104-.472.15-.713.15z"/><path d="m461.764 443.136c-.287 0-.574-.069-.827-.218-13.651-7.543-26.693-5.956-32.967-5.197-2.447.299-3.803.46-4.757.115-2.815-1.024-11.594-11.877-12.996-15.522-.241-.621-.505-1.564-.034-2.437.724-1.38 8.606-23.064 9.123-34.815.046-.954.839-1.701 1.793-1.644.954.046 1.689.851 1.643 1.794-.494 11.371-7.699 32.135-9.319 35.86.839 2.541 8.951 12.59 10.997 13.533.298.034 1.804-.138 3.137-.31 6.63-.805 20.43-2.484 35.046 5.599.839.46 1.138 1.506.678 2.345-.31.575-.908.886-1.505.886z"/><path d="m334.574 392.593c-.414 0-.816-.15-1.149-.437-.712-.632-.77-1.725-.138-2.437 3.907-4.369 3.918-9.727 3.229-13.452-1.172-6.405-5.263-12.567-9.928-14.982-8.204-4.242-17.489-3.207-17.581-3.196-.942.104-1.804-.563-1.919-1.506s.563-1.805 1.506-1.92c.425-.046 10.41-1.184 19.58 3.552 5.55 2.875 10.376 10.038 11.732 17.419 1.16 6.335-.276 12.153-4.056 16.384-.345.38-.816.575-1.287.575z"/><path d="m288.531 431.454c-5.504 0-11.858-1.667-15.421-4.978-2.884-2.69-4.55-7.554-6.021-11.854-.839-2.46-1.631-4.794-2.413-5.864-.678-.931-2.62-2.403-4.688-3.966-4.447-3.358-9.974-7.543-11.95-12.567-3.034-7.669-1.345-28.824 4.136-36.964 7.125-10.578 12.881-13.659 28.015-15.005 15.018-1.333 22.395.966 27.233 8.486 4.492 6.99 3.964 14.475 3.929 14.797-.08.954-.93 1.655-1.85 1.586-.942-.069-1.654-.908-1.585-1.851 0-.069.448-6.68-3.402-12.658-3.481-5.427-8.537-8.29-24.038-6.922-14.157 1.253-18.914 3.771-25.452 13.498-4.769 7.083-6.458 27.031-3.792 33.768 1.632 4.116 6.734 7.98 10.824 11.084 2.471 1.862 4.413 3.346 5.39 4.691 1.08 1.483 1.918 3.932 2.884 6.772 1.275 3.714 2.849 8.347 5.113 10.451 3.654 3.403 12.548 5.105 17.971 3.426.908-.276 1.873.23 2.161 1.139.276.908-.23 1.874-1.138 2.161-1.689.517-3.734.782-5.918.782z"/><path d="m333.988 402.274c-.747 0-1.436-.483-1.654-1.242-.265-.908.252-1.874 1.172-2.139.08-.023 8.411-2.518 11.111-7.921 2.655-5.301.425-10.635-6.101-14.637-.816-.494-1.069-1.563-.575-2.368.494-.816 1.563-1.069 2.367-.575 7.998 4.898 10.836 12.233 7.389 19.12-3.379 6.761-12.835 9.578-13.238 9.693-.16.046-.321.069-.482.069z"/><path d="m325.037 415.002c-.471 0-.931-.196-1.275-.564-.575-.644-14.226-15.774-17.823-27.157-.287-.908.219-1.874 1.127-2.161.907-.288 1.872.218 2.16 1.126 3.367 10.659 16.949 25.732 17.086 25.881.644.702.586 1.794-.114 2.438-.334.299-.747.448-1.161.448z"/><path d="m265.492 391.926c-2.459 0-5.274-.207-8.158-.816-.621-.126-1.023-.736-.885-1.357s.735-1.023 1.356-.885c8.02 1.69 15.57.023 15.65 0 .621-.138 1.23.253 1.379.862.138.621-.253 1.231-.862 1.38-.218.046-3.688.816-8.468.816z"/><path d="m269.146 400.687c-.632 0-1.149-.517-1.149-1.149 0-.633.506-1.15 1.149-1.15 5.389-.012 7.573-1.897 7.595-1.92.472-.426 1.196-.38 1.621.08s.402 1.184-.058 1.61c-.103.103-2.746 2.506-9.146 2.529z"/><path d="m284.027 357.388c-.333 0-.667-.138-.885-.425 0 0-1.781-1.909-7.986-2.829-.632-.092-1.057-.678-.965-1.311.092-.632.678-1.046 1.31-.965 7.124 1.057 9.215 3.391 9.434 3.644.402.495.333 1.219-.161 1.621-.219.173-.471.265-.724.265z"/><path d="m289.979 355.766c-.391 0-.759-.195-.977-.551 0-.012-1.092-1.737-2.988-3.036-.528-.356-.655-1.069-.298-1.598.356-.529 1.068-.655 1.597-.299 2.321 1.587 3.596 3.645 3.654 3.725.333.541.161 1.254-.379 1.587-.184.115-.391.172-.598.172z"/><path d="m286.658 436.295c-.276 0-.551-.069-.804-.195-.506-.265-.85-.771-.908-1.346l-.529-4.944c-.103-.942.587-1.793 1.529-1.897.965-.103 1.792.587 1.896 1.529l.264 2.461c21.591-10.371 45.63-6.324 53.662-4.507-1.264-6.358-3.85-22.225-.598-32.078.299-.908 1.264-1.391 2.172-1.104.907.299 1.39 1.276 1.103 2.173-3.746 11.371 1.218 32.734 1.264 32.952.138.598-.046 1.219-.483 1.644-.448.426-1.08.575-1.666.414-.31-.092-31.013-8.669-56.086 4.703-.253.137-.529.206-.816.206z"/><path d="m461.328 563.285c-8.997 0-17.994-6.255-20.017-14.361l-.448-1.828c-1.758-7.22-3.953-16.2-10.479-20.971-7.228-5.289-20.029-11.337-23.269-12.371-2.39-.759-3.654-3.933-5.102-7.589-1.172-2.955-2.505-6.312-4.297-7.864-4.114-3.541-41.195-29.698-58.5-35.033-17.603-5.427-51.983-26.329-53.431-27.214-.816-.495-1.069-1.553-.575-2.369s1.563-1.069 2.367-.575c.357.219 35.461 21.558 52.662 26.87 17.891 5.519 55.018 31.652 59.729 35.711 2.447 2.104 3.941 5.875 5.251 9.198.793 1.989 2.103 5.312 2.942 5.576 3.493 1.116 16.627 7.29 24.256 12.877 7.55 5.519 9.905 15.177 11.801 22.938l.449 1.817c1.781 7.117 10.674 12.647 18.637 11.624 8.55-1.104 23.614-15.143 26.188-21.673 2.424-6.128-4.459-19.615-7.297-22.719-1.172-1.288-3.665-3.254-6.297-5.324-3.976-3.138-8.48-6.691-10.686-9.634-1.586-2.116-2.586-5.864-3.746-10.21-1.471-5.508-3.309-12.36-6.331-13.809-2.333-1.126-4.493-1.31-6.573-1.494-3.011-.265-6.125-.541-8.354-3.933-1.574-2.391-5.55-3.173-9.755-4.001-2.689-.529-5.47-1.08-8.055-2.092-7.642-2.99-23.522-25.456-29.991-34.976-6.699-9.864-14.306-21.04-44.676-45.116-.747-.586-.873-1.678-.276-2.426.586-.747 1.678-.873 2.425-.276 30.795 24.41 38.551 35.815 45.388 45.887 9.652 14.199 22.878 31.549 28.394 33.71 2.298.897 4.929 1.415 7.469 1.921 4.941.977 9.617 1.897 11.973 5.495 1.252 1.92 2.758 2.127 5.768 2.392 2.16.195 4.861.425 7.756 1.816 4.447 2.139 6.343 9.198 8.159 16.028.976 3.656 1.988 7.45 3.183 9.025 1.93 2.587 6.251 5.991 10.054 8.992 2.861 2.265 5.343 4.208 6.699 5.702 3.183 3.495 11.077 18.385 7.952 26.307-2.919 7.404-18.949 22.535-28.957 23.822-.804.104-1.609.15-2.413.15z"/><path d="m349.007 449.552c-.184 0-.345-.012-.506-.046-.586-.104-1.574-.414-3.068-.863-7.515-2.299-27.486-8.416-39.103-1.724-.827.471-1.873.195-2.355-.633-.472-.827-.196-1.885.632-2.357 12.927-7.439 33.932-1.011 41.837 1.415 1.23.379 2.298.701 2.677.77h.081c2.597 0 12.95-8.566 13.766-10.854 0-.92-1.069-4.553-2.023-7.772-3.274-11.153-8.238-27.996-4.504-37.275.356-.885 1.356-1.311 2.241-.954.884.356 1.31 1.357.953 2.242-3.274 8.175 1.667 24.984 4.62 35.021 1.792 6.082 2.39 8.255 2.068 9.52-.827 3.334-12.502 13.498-17.316 13.498z"/><path d="m392.073 450.724c-.471 0-.907-.287-1.08-.747l-4.987-13.36c-.218-.598.081-1.253.678-1.483.598-.219 1.253.08 1.483.678l4.987 13.36c.218.598-.081 1.254-.678 1.483-.138.046-.265.069-.403.069z"/><path d="m398.681 450.724c-.517 0-.989-.345-1.115-.874l-1.471-5.875c-.149-.621.219-1.242.839-1.391.609-.149 1.241.218 1.39.839l1.471 5.876c.15.62-.218 1.241-.839 1.391-.091.023-.183.034-.275.034z"/><path d="m401.174 491.966c-.058 0-.115 0-.172-.012-.632-.092-1.058-.678-.966-1.311l.471-3.069-2.642 1.839c-.529.357-1.241.23-1.598-.287-.367-.518-.241-1.242.288-1.598l4.837-3.381c.379-.264.874-.276 1.264-.034.391.241.598.701.529 1.15l-.885 5.725c-.092.564-.575.978-1.138.978z"/><path d="m412.906 471.271c-.264 0-.517-.092-.735-.265-.483-.402-.552-1.138-.138-1.621l4.55-5.427c.414-.483 1.138-.552 1.62-.138.483.403.552 1.138.138 1.621l-4.55 5.427c-.23.276-.552.414-.885.414z"/><path d="m418.192 473.616c-.552 0-1.034-.391-1.126-.955-.104-.621.31-1.218.93-1.333l9.239-1.61c.643-.103 1.218.31 1.333.931.103.621-.31 1.219-.931 1.334l-9.238 1.61c-.069 0-.138.011-.196.011z"/><path d="m404.679 509.867c-.368 0-.747-.115-1.057-.368-.747-.586-.885-1.667-.299-2.426 2.953-3.782 4.297-8.784 5.481-13.199 1.31-4.875 2.436-9.083 5.458-10.98 1.861-1.173 5.32-2.058 9.319-3.093 6.963-1.793 16.501-4.254 17.994-8.703.299-.909 1.287-1.392 2.184-1.081.907.299 1.39 1.288 1.08 2.184-2.092 6.221-12.249 8.842-20.408 10.935-3.573.919-6.94 1.782-8.354 2.667-1.873 1.173-2.884 4.955-3.964 8.957-1.275 4.736-2.712 10.106-6.101 14.429-.345.437-.851.667-1.356.667z"/><path d="m455.594 514.283c-.459 0-.896-.288-1.08-.748-.23-.598.069-1.253.666-1.483l9.687-3.668c.598-.218 1.253.069 1.482.667.23.598-.069 1.253-.666 1.483l-9.687 3.668c-.138.046-.275.069-.402.069z"/><path d="m461.764 518.974c-.597 0-1.103-.46-1.149-1.07-.046-.632.426-1.184 1.058-1.23l10.111-.736c.632-.046 1.184.426 1.23 1.058s-.425 1.184-1.057 1.23l-10.112.736s-.058 0-.081 0z"/><path d="m449.458 559.916c-.666 0-1.287-.379-1.574-1.023-.391-.874 0-1.886.873-2.277 7.285-3.231 9.641-10.876 11.054-15.429.448-1.461.782-2.518 1.195-3.243 1-1.701 3.241-1.621 6.332-1.506 4.86.184 11.525.425 14.754-5.622.448-.84 1.494-1.161 2.332-.702.839.449 1.161 1.495.701 2.334-4.251 7.945-12.8 7.635-17.914 7.439-1.172-.046-2.734-.103-3.355.035-.207.483-.494 1.391-.77 2.276-1.482 4.783-4.228 13.705-12.95 17.568-.23.104-.459.15-.701.15z"/><path d="m391.051 486.24c-.529 0-1.011-.368-1.126-.908-.127-.621.264-1.231.884-1.369l4.735-1c.62-.126 1.229.265 1.367.885.126.621-.264 1.231-.885 1.369l-4.734 1c-.08.011-.161.023-.241.023z"/><path d="m448.849 495.496c-.54 0-1.011-.38-1.126-.92-.126-.621.276-1.23.896-1.357 4.585-.92 7.101-4.484 7.124-4.518.357-.518 1.069-.656 1.598-.288.517.357.655 1.07.298 1.598-.126.173-3.045 4.358-8.572 5.473-.08.012-.149.023-.23.023z"/><path d="m320.452 541.463c-.931 0-1.701-.736-1.723-1.667 0-.414-.012-4.324 3.32-15.568 3.08-10.405 8.113-13.855 12.548-16.901.644-.437 1.276-.874 1.896-1.334 4.895-3.553 14.674-11.636 16.627-13.728.437-.472.862-1.23 1.448-2.288 1.62-2.92 4.32-7.807 12.306-15.211.701-.644 1.793-.61 2.437.092.643.701.609 1.793-.092 2.437-7.584 7.025-10.112 11.601-11.629 14.349-.678 1.23-1.218 2.196-1.942 2.978-2.252 2.414-12.421 10.75-17.121 14.165-.644.471-1.31.931-1.976 1.379-4.16 2.852-8.458 5.795-11.192 15.028-3.183 10.715-3.183 14.464-3.183 14.498 0 .943-.747 1.736-1.689 1.748 0 0-.023 0-.035 0z"/><path d="m312.282 556.271c-5.401 0-15.627-2.012-24.981-7.933-10.433-6.599-13.972-14.993-11.479-27.191 1.379-6.715 5.895-13.441 9.871-19.374 2.918-4.346 5.676-8.45 6.262-11.302l.471-2.334c1.873-9.359 3.516-16.717 6.194-19.258 2.332-2.219 3.895-5.553 4.516-7.738.563-1.966 2.964-3.737 7.537-6.967 1.414-1.001 3.011-2.127 4.597-3.323.758-.575 1.838-.426 2.413.345.574.759.425 1.839-.345 2.414-1.632 1.231-3.252 2.38-4.688 3.392-2.632 1.863-5.918 4.185-6.217 5.105-.264.943-1.792 5.818-5.458 9.29-2.103 1.989-3.952 11.29-5.182 17.442l-.471 2.345c-.713 3.518-3.528 7.692-6.78 12.532-3.803 5.669-8.124 12.096-9.365 18.143-2.229 10.877.655 17.707 9.94 23.593 9.296 5.887 19.672 7.646 24.05 7.37 4.585-.287 7.4-7.025 8.652-11.601-4.895 1.173-15.133 3.15-22.211 1.184-9.445-2.61-12.077-6.944-12.341-7.427-.46-.828-.161-1.886.678-2.345.827-.46 1.884-.161 2.344.678 0 0 2.195 3.553 10.25 5.783 8.434 2.334 22.97-1.862 23.119-1.897.574-.172 1.183-.023 1.632.368.448.391.655 1 .551 1.587-.115.678-2.976 16.544-12.444 17.131-.345.023-.724.034-1.126.034z"/><path d="m356.246 488.114c-.265 0-.54-.057-.793-.195-5.883-3.047-6.619-7.945-7.147-11.521-.23-1.517-.437-2.966-1-3.541-1.253-1.299-6.239-1.564-10.238-1.771-2.666-.137-5.435-.287-7.825-.689-5.252-.874-8.86-5.554-12.341-10.061-1.448-1.874-2.827-3.656-4.252-5.082-.678-.678-.678-1.77 0-2.437s1.77-.678 2.436 0c1.586 1.587 3.091 3.53 4.539 5.415 3.079 3.99 6.274 8.117 10.181 8.773 2.206.368 4.872.506 7.446.644 5.561.299 10.353.552 12.547 2.828 1.322 1.38 1.609 3.346 1.919 5.427.495 3.311 1 6.737 5.321 8.968.85.437 1.172 1.483.735 2.322-.31.598-.908.932-1.528.932z"/><path d="m318.407 488.114c-.437 0-.885-.172-1.218-.506-.276-.276-6.711-6.76-9.17-14.636-.287-.908.218-1.874 1.126-2.161.919-.288 1.873.23 2.16 1.126 2.195 7.048 8.251 13.153 8.308 13.222.678.667.678 1.76 0 2.438-.333.333-.781.506-1.218.506z"/><path d="m308.938 495.496c-.091 0-.172 0-.264-.035-.172-.046-4.171-1.023-7.572-5.404-.391-.506-.299-1.218.207-1.609.505-.391 1.229-.299 1.608.207 2.873 3.702 6.263 4.564 6.297 4.576.621.149 1 .77.851 1.391-.127.529-.598.885-1.115.885z"/><path d="m303.607 502.244c-1.448 0-4.332-.252-7.527-1.931-.563-.299-.781-.989-.482-1.552.299-.564.988-.771 1.551-.483 3.78 1.989 7.113 1.644 7.136 1.633.643-.058 1.195.379 1.275 1.011.069.633-.367 1.196-.999 1.277-.046 0-.391.045-.966.045z"/><path d="m415.618 391.409h-59.016c-.954 0-1.724-.771-1.724-1.725s.77-1.725 1.724-1.725h59.016c.953 0 1.723.771 1.723 1.725s-.77 1.725-1.723 1.725z"/></g><path d="m419.996 308.512c-.023-.057-.058-.184-.081-.218-.023-.058-.092-.219-.126-.276-.046-.081-.103-.161-.138-.207-.046-.069-.103-.138-.218-.253-.023-.023-.161-.127-.184-.15-.046-.034-.172-.126-.218-.161l-11.043-6.358c-.643-.368-1.436-.368-2.068 0l-11.054 6.37s-.184.138-.207.149c-.058.035-.161.127-.207.173-.069.069-.126.138-.172.218-.046.046-.115.161-.15.219-.057.092-.092.195-.115.253-.034.069-.069.172-.092.241-.046.172-.069.356-.069.529v11.417l-6.905 3.978v-21.65c0-.172-.023-.356-.081-.552-.023-.08-.046-.149-.08-.195-.035-.092-.069-.184-.127-.276-.023-.034-.126-.172-.138-.207-.046-.069-.16-.207-.218-.253-.046-.046-.115-.092-.172-.138-.046-.034-.173-.126-.23-.161l-11.043-6.358c-.632-.368-1.425-.368-2.068 0l-11.043 6.358c-.091.058-.172.115-.218.161-.069.046-.138.104-.23.196-.046.046-.115.138-.149.195-.046.058-.126.161-.161.219-.057.103-.103.218-.103.241-.035.069-.081.184-.104.264-.046.173-.069.357-.069.529v37.85c0 .736.402 1.426 1.034 1.794l22.086 12.727c.103.058.218.104.252.115.069.035.184.069.253.092.173.046.345.069.517.069.173 0 .368-.023.563-.069.023 0 .115-.046.138-.046.115-.034.218-.08.333-.149l22.097-12.728c.632-.368 1.034-1.058 1.034-1.793v-11.417l10.009-5.761c.643-.368 1.045-1.058 1.045-1.793v-12.613c0-.184-.023-.368-.069-.54zm-46.17-9.681 6.895 3.967-6.895 3.978-6.894-3.978zm8.974 7.554v20.454l-4.757 2.748-2.137 1.23v-20.454l6.906-3.978zm0 43.403-17.948-10.336v-33.067l6.906 3.978v24.03c0 .092 0 .172.023.23 0 .092.023.195.046.276.034.138.08.241.092.241 0 0 .034.081.057.127s.046.092.069.138c.046.08.104.161.161.23.034.057.08.115.126.161 0 0 .023.023.035.034.057.058.138.127.207.173.057.046.184.138.252.172l9.997 5.657v7.933zm2.069-11.52-6.86-3.887 17.914-10.324 6.883 3.966-17.926 10.245zm20.017 1.184-17.949 10.336v-7.945l17.949-10.256v7.853zm0-15.004-6.906-3.979v-7.841l6.906 3.978zm2.068-11.429-6.895-3.978 6.895-3.978 6.894 3.966-6.894 3.979zm8.974 7.45-6.906 3.979v-7.842l6.906-3.978z" fill="#ff3939"/><path d="m379.353 411.851c-.276 0-.54-.069-.804-.195-.839-.449-1.161-1.483-.724-2.334 1.517-2.886 3.562-3.346 5.205-3.714 1.299-.299 2.321-.529 3.482-1.908.069-.081.103-.15.08-.345-.287-2.484-6.94-7.485-10.135-9.888-1.309-.989-2.436-1.84-3.182-2.484-.713-.62-.793-1.713-.173-2.437.621-.713 1.712-.793 2.436-.173.644.564 1.735 1.38 2.988 2.323 6.032 4.541 11.065 8.6 11.491 12.256.126 1.104-.173 2.127-.862 2.955-1.896 2.277-3.896 2.725-5.355 3.058-1.425.322-2.137.483-2.907 1.967-.31.586-.908.919-1.528.919z" fill="#222"/></svg>