<svg fill="none" height="56" viewBox="0 0 362 56" width="362" xmlns="http://www.w3.org/2000/svg" xmlns:xlink="http://www.w3.org/1999/xlink"><clipPath id="a"><path d="m.55957 0h54.88v56h-54.88z"/></clipPath><g clip-path="url(#a)"><g stroke="#fff"><path d="m1.67969 25.3989 6.93677 3.4684v22.5445l-6.93677-3.4684z" stroke-linejoin="round"/><path d="m15.5537 54.8798v-8.6709l12.1394-6.0697v8.671z" stroke-linejoin="round"/><path d="m20.7559 28 6.9368 3.4684v8.6709l-6.9368-3.4684z" stroke-linejoin="round"/><path d="m27.6924 40.1393 6.9367-3.4683v-8.671l-6.9367 3.4684z" stroke-linejoin="round"/><path d="m8.61621 51.4118 6.93679-3.4684v-22.5445l-6.93679 3.4684z" stroke-linejoin="round"/><path d="m15.5532 25.3986-6.93674-3.4684-6.93677 3.4684 6.93677 3.4683z" stroke-linejoin="round"/><path d="m34.6294 28.0002-6.9367-3.4685-6.9368 3.4685 6.9368 3.4683z" stroke-linejoin="round"/><path d="m8.61621 42.7407 6.93679 3.4684v8.671l-6.93679-3.4684z" fill="#fff" stroke-linejoin="round"/><path d="m27.6923 40.1393-6.9367-3.4684-12.13939 6.0697 6.93679 3.4684z" fill="#fff" stroke-linejoin="round"/><path d="m27.6924 24.5314v-12.1393"/></g><path d="m21.6231 10.6582h33.8168v3.4684h-37.2851z" fill="#fff"/><path d="m55.4397 51.4116h-26.0129v3.4684h26.0129z" fill="#fff"/><path d="m47.6347 43.6079h-10.4052v11.2722h10.4052z" fill="#fff"/><path d="m45.0341 1.12012h.8671v46.82328h-6.9368v-37.2852z" stroke="#fff"/><path d="m38.9644 14.1265 6.9368 4.769" stroke="#fff"/><path d="m38.9644 26.2661 6.9368 4.769" stroke="#fff"/><path d="m38.9644 38.4053 6.9368 4.7689" stroke="#fff"/><path d="m38.9644 24.9654 6.9368-4.7691" stroke="#fff"/><path d="m38.9644 37.1044 6.9368-4.769" stroke="#fff"/></g><path d="m74.9915 45v-34.08h6.624v28.272h17.376v5.808zm34.2715.48c-1.216 0-2.352-.192-3.408-.576-1.056-.416-1.968-.976-2.736-1.68-.768-.736-1.376-1.584-1.824-2.544-.416-.96-.624-2.016-.624-3.168 0-1.184.256-2.272.768-3.264.544-1.024 1.28-1.888 2.208-2.592.96-.704 2.096-1.248 3.408-1.632 1.312-.416 2.752-.624 4.32-.624 1.12 0 2.208.096 3.264.288 1.088.192 2.048.464 2.88.816v-1.44c0-1.664-.48-2.944-1.44-3.84-.928-.896-2.32-1.344-4.176-1.344-1.344 0-2.656.24-3.936.72s-2.592 1.184-3.936 2.112l-1.968-4.08c3.232-2.144 6.72-3.216 10.464-3.216 3.616 0 6.416.896 8.4 2.688 2.016 1.76 3.024 4.32 3.024 7.68v7.824c0 .672.112 1.152.336 1.44.256.288.656.448 1.2.48v5.472c-1.088.224-2.032.336-2.832.336-1.216 0-2.16-.272-2.832-.816-.64-.544-1.04-1.264-1.2-2.16l-.144-1.392c-1.12 1.472-2.48 2.592-4.08 3.36s-3.312 1.152-5.136 1.152zm1.824-4.704c1.088 0 2.112-.192 3.072-.576.992-.384 1.76-.896 2.304-1.536.704-.544 1.056-1.152 1.056-1.824v-2.88c-.768-.288-1.6-.512-2.496-.672-.896-.192-1.76-.288-2.592-.288-1.664 0-3.024.384-4.08 1.152-1.056.736-1.584 1.68-1.584 2.832 0 1.088.416 2 1.248 2.736.832.704 1.856 1.056 3.072 1.056zm33.85-15.36c-1.952.032-3.696.416-5.232 1.152-1.536.704-2.64 1.776-3.312 3.216v15.216h-6.432v-25.152h5.904v5.376c.448-.864.976-1.632 1.584-2.304.608-.704 1.264-1.312 1.968-1.824s1.408-.896 2.112-1.152c.736-.288 1.44-.432 2.112-.432h.768c.192 0 .368.016.528.048zm10.123 20.064c-1.216 0-2.352-.192-3.408-.576-1.056-.416-1.968-.976-2.736-1.68-.768-.736-1.376-1.584-1.824-2.544-.416-.96-.624-2.016-.624-3.168 0-1.184.256-2.272.768-3.264.544-1.024 1.28-1.888 2.208-2.592.96-.704 2.096-1.248 3.408-1.632 1.312-.416 2.752-.624 4.32-.624 1.12 0 2.208.096 3.264.288 1.088.192 2.048.464 2.88.816v-1.44c0-1.664-.48-2.944-1.44-3.84-.928-.896-2.32-1.344-4.176-1.344-1.344 0-2.656.24-3.936.72s-2.592 1.184-3.936 2.112l-1.968-4.08c3.232-2.144 6.72-3.216 10.464-3.216 3.616 0 6.416.896 8.4 2.688 2.016 1.76 3.024 4.32 3.024 7.68v7.824c0 .672.112 1.152.336 1.44.256.288.656.448 1.2.48v5.472c-1.088.224-2.032.336-2.832.336-1.216 0-2.16-.272-2.832-.816-.64-.544-1.04-1.264-1.2-2.16l-.144-1.392c-1.12 1.472-2.48 2.592-4.08 3.36s-3.312 1.152-5.136 1.152zm1.824-4.704c1.088 0 2.112-.192 3.072-.576.992-.384 1.76-.896 2.304-1.536.704-.544 1.056-1.152 1.056-1.824v-2.88c-.768-.288-1.6-.512-2.496-.672-.896-.192-1.76-.288-2.592-.288-1.664 0-3.024.384-4.08 1.152-1.056.736-1.584 1.68-1.584 2.832 0 1.088.416 2 1.248 2.736.832.704 1.856 1.056 3.072 1.056zm24.986 4.224-9.264-25.152h6.624l6.384 19.92 6.432-19.92h6.048l-9.264 25.152zm30.396.48c-2.016 0-3.84-.336-5.472-1.008-1.632-.704-3.024-1.648-4.176-2.832s-2.048-2.56-2.688-4.128c-.608-1.568-.912-3.216-.912-4.944 0-1.792.304-3.472.912-5.04.608-1.6 1.488-2.992 2.64-4.176 1.152-1.216 2.544-2.176 4.176-2.88 1.664-.704 3.52-1.056 5.568-1.056s3.872.352 5.472 1.056c1.632.704 3.008 1.648 4.128 2.832 1.152 1.184 2.016 2.56 2.592 4.128.608 1.568.912 3.2.912 4.896 0 .416-.016.816-.048 1.2 0 .384-.032.704-.096.96h-19.44c.096.992.336 1.872.72 2.64s.88 1.424 1.488 1.968 1.296.96 2.064 1.248 1.568.432 2.4.432c1.28 0 2.48-.304 3.6-.912 1.152-.64 1.936-1.472 2.352-2.496l5.52 1.536c-.928 1.92-2.416 3.504-4.464 4.752-2.016 1.216-4.432 1.824-7.248 1.824zm6.528-15.168c-.16-1.888-.864-3.392-2.112-4.512-1.216-1.152-2.704-1.728-4.464-1.728-.864 0-1.68.16-2.448.48-.736.288-1.392.704-1.968 1.248s-1.056 1.2-1.44 1.968c-.352.768-.56 1.616-.624 2.544zm10.494-20.352h6.432v26.976c0 .928.224 1.648.672 2.16s1.088.768 1.92.768c.384 0 .8-.064 1.248-.192.48-.128.928-.288 1.344-.48l.864 4.896c-.864.416-1.872.736-3.024.96s-2.192.336-3.12.336c-2.016 0-3.584-.528-4.704-1.584-1.088-1.088-1.632-2.624-1.632-4.608zm25.938 35.04v-34.08h6.624v34.08zm13.734 0v-34.08h12.384c2.784 0 5.216.448 7.296 1.344 2.112.896 3.872 2.112 5.28 3.648s2.464 3.344 3.168 5.424c.704 2.048 1.056 4.24 1.056 6.576 0 2.592-.4 4.944-1.2 7.056-.768 2.08-1.888 3.872-3.36 5.376-1.472 1.472-3.248 2.624-5.328 3.456-2.048.8-4.352 1.2-6.912 1.2zm22.512-17.088c0-1.632-.224-3.136-.672-4.512s-1.104-2.56-1.968-3.552-1.936-1.76-3.216-2.304c-1.248-.544-2.672-.816-4.272-.816h-5.76v22.464h5.76c1.632 0 3.072-.288 4.32-.864 1.28-.576 2.336-1.36 3.168-2.352.864-1.024 1.52-2.224 1.968-3.6s.672-2.864.672-4.464zm35.512 11.28v5.808h-23.664v-34.08h23.232v5.808h-16.608v8.208h14.352v5.376h-14.352v8.88zm14.86-28.272h5.856l12.96 34.08h-6.816l-3.168-8.496h-11.904l-3.12 8.496h-6.816zm7.632 20.928-4.704-13.392-4.896 13.392z" fill="#fafafa"/></svg>