<?xml version="1.0" encoding="UTF-8"?>
<svg id="Layer_1" data-name="Layer 1" xmlns="http://www.w3.org/2000/svg" viewBox="0 0 180 54">
  <g>
    <path d="m69.99,6.09v23.35h8.45v4.03h-12.95V6.09h4.5Zm24.33,11.62v-2.46h4.26v18.23h-4.26v-2.47c-.57.91-1.39,1.63-2.44,2.15-1.06.52-2.12.78-3.19.78-1.38,0-2.65-.25-3.79-.76-1.12-.49-2.12-1.2-2.95-2.09-.82-.89-1.47-1.92-1.91-3.05-.46-1.17-.69-2.42-.69-3.68,0-1.28.23-2.5.68-3.66.44-1.13,1.09-2.18,1.92-3.07.83-.89,1.84-1.6,2.95-2.09,1.15-.51,2.41-.76,3.79-.76,1.07,0,2.13.26,3.19.78,1.06.52,1.87,1.24,2.44,2.15h0Zm-.39,8.88c.26-.71.4-1.47.39-2.23,0-.78-.13-1.53-.39-2.23-.24-.68-.62-1.3-1.09-1.84-.48-.53-1.06-.95-1.7-1.25-.66-.31-1.4-.47-2.21-.47s-1.54.16-2.19.47c-.64.3-1.21.73-1.68,1.25-.48.53-.84,1.16-1.07,1.84-.25.72-.38,1.47-.37,2.23,0,.78.12,1.53.37,2.23.25.71.61,1.32,1.08,1.84.47.52,1.04.95,1.68,1.25.65.31,1.38.47,2.19.47s1.55-.16,2.21-.47c.65-.3,1.22-.72,1.7-1.25.48-.54.85-1.16,1.09-1.84Zm8.02,6.88V15.25h11.58v4.2h-7.32v14.03h-4.26,0Zm27.03-15.76v-2.46h4.26v18.23h-4.26v-2.47c-.57.91-1.39,1.63-2.44,2.15-1.06.52-2.12.78-3.19.78-1.38,0-2.65-.25-3.79-.76-1.12-.49-2.12-1.2-2.95-2.09-.82-.89-1.47-1.92-1.92-3.05-.46-1.17-.69-2.42-.68-3.68,0-1.28.23-2.5.68-3.66.44-1.13,1.09-2.18,1.91-3.07.83-.89,1.84-1.61,2.95-2.09,1.15-.51,2.41-.76,3.79-.76,1.07,0,2.13.26,3.19.78,1.06.52,1.87,1.24,2.44,2.15Zm-.39,8.88c.26-.71.39-1.47.39-2.23,0-.78-.13-1.53-.39-2.23-.24-.68-.62-1.3-1.09-1.84-.48-.53-1.06-.95-1.7-1.25-.66-.31-1.4-.47-2.21-.47s-1.54.16-2.19.47c-.64.3-1.21.73-1.68,1.25-.48.53-.84,1.16-1.08,1.84-.25.72-.38,1.47-.37,2.23,0,.78.12,1.53.37,2.23.25.71.61,1.32,1.08,1.84.47.52,1.04.95,1.68,1.25.65.31,1.38.47,2.19.47s1.55-.16,2.21-.47c.65-.3,1.22-.72,1.7-1.25.48-.54.85-1.16,1.09-1.84Zm21.75-11.34h4.32l-7,18.23h-5.36l-7-18.23h4.32l5.36,13.96,5.36-13.96Zm13.62-.47c5.8,0,9.76,5.15,9.02,11.17h-14.14c0,1.57,1.59,4.61,5.36,4.61,3.24,0,5.42-2.85,5.42-2.85l2.88,2.23c-2.58,2.75-4.68,4.01-7.99,4.01-5.9,0-9.9-3.73-9.9-9.58,0-5.29,4.13-9.58,9.35-9.58h0Zm-5.11,8h10.22c-.03-.35-.59-4.61-5.14-4.61s-5.05,4.26-5.08,4.61Zm16.91,10.7V6.09h4.26v27.38h-4.26Z" style="fill: #ff2d20; fill-rule: evenodd;"/>
    <g>
      <path d="m65.49,45.12v-8.63h3.82c.4,0,.76.08,1.1.25.34.17.63.39.87.66.24.27.43.58.57.92s.21.69.21,1.04c0,.56-.14,1.07-.42,1.53s-.66.79-1.14.99l1.97,3.25h-1.88l-1.76-2.89h-1.65v2.89h-1.68Zm1.68-4.36h2.1c.15,0,.3-.04.43-.11s.25-.17.35-.3c.1-.13.17-.27.23-.44.06-.17.09-.35.09-.55s-.03-.39-.1-.56c-.06-.17-.15-.32-.26-.44-.11-.13-.23-.22-.38-.29-.14-.07-.28-.1-.43-.1h-2.03v2.8Z" style="fill: #5d769c;"/>
      <path d="m75.27,45.25c-.66,0-1.16-.21-1.5-.63-.34-.42-.51-1.05-.51-1.87v-3.99h1.63v3.63c0,.98.35,1.47,1.06,1.47.32,0,.62-.09.92-.29.29-.19.54-.48.72-.87v-3.95h1.63v4.5c0,.17.03.29.09.36.06.07.16.11.3.12v1.39c-.16.03-.3.05-.41.06-.11,0-.21.01-.3.01-.29,0-.53-.07-.71-.2s-.29-.32-.32-.55l-.04-.51c-.28.44-.65.77-1.09.98-.45.22-.94.33-1.47.33Z" style="fill: #5d769c;"/>
      <path d="m83.24,45.25c-.54,0-1.06-.09-1.57-.26-.51-.17-.95-.41-1.31-.73l.61-1.02c.39.28.77.48,1.14.63.37.14.73.21,1.1.21.32,0,.58-.06.77-.18.19-.12.28-.3.28-.52s-.11-.39-.33-.5c-.22-.11-.58-.23-1.07-.36-.41-.11-.77-.22-1.06-.33-.29-.1-.53-.22-.7-.36-.18-.13-.31-.29-.39-.46s-.12-.38-.12-.63c0-.32.06-.62.19-.88.13-.26.3-.48.53-.66.23-.18.49-.32.8-.42.3-.1.63-.15.99-.15.48,0,.93.07,1.34.21.42.14.8.36,1.15.67l-.66.98c-.32-.24-.64-.42-.94-.53-.3-.11-.61-.17-.91-.17-.28,0-.51.06-.69.17-.19.11-.28.3-.28.55,0,.11.02.21.07.28s.12.14.21.19.22.11.38.16c.16.05.35.11.59.16.44.11.81.23,1.12.34.31.11.57.24.77.39.2.15.34.31.44.5.09.19.14.42.14.69,0,.62-.23,1.12-.69,1.48-.46.36-1.09.54-1.88.54Z" style="fill: #5d769c;"/>
      <path d="m89.29,45.25c-.54,0-1.06-.09-1.57-.26-.51-.17-.95-.41-1.31-.73l.61-1.02c.39.28.77.48,1.14.63.37.14.73.21,1.1.21.32,0,.58-.06.77-.18.19-.12.28-.3.28-.52s-.11-.39-.33-.5c-.22-.11-.58-.23-1.07-.36-.41-.11-.77-.22-1.06-.33-.29-.1-.53-.22-.7-.36-.18-.13-.31-.29-.39-.46s-.12-.38-.12-.63c0-.32.06-.62.19-.88.13-.26.3-.48.53-.66.23-.18.49-.32.8-.42.3-.1.63-.15.99-.15.48,0,.93.07,1.34.21.42.14.8.36,1.15.67l-.66.98c-.32-.24-.64-.42-.94-.53-.3-.11-.61-.17-.91-.17-.28,0-.51.06-.69.17-.19.11-.28.3-.28.55,0,.11.02.21.07.28s.12.14.21.19.22.11.38.16c.16.05.35.11.59.16.44.11.81.23,1.12.34.31.11.57.24.77.39.2.15.34.31.44.5.09.19.14.42.14.69,0,.62-.23,1.12-.69,1.48-.46.36-1.09.54-1.88.54Z" style="fill: #5d769c;"/>
      <path d="m92.92,37.87v-1.62h1.63v1.62h-1.63Zm0,7.26v-6.37h1.63v6.37h-1.63Z" style="fill: #5d769c;"/>
      <path d="m97.76,45.25c-.31,0-.6-.05-.86-.15-.27-.1-.5-.24-.69-.43-.19-.18-.35-.39-.46-.64s-.16-.51-.16-.8.07-.58.2-.83.32-.47.56-.65.53-.32.86-.42c.33-.1.7-.15,1.09-.15.28,0,.56.02.83.07.27.05.51.12.72.21v-.36c0-.42-.12-.74-.36-.97-.24-.23-.59-.34-1.06-.34-.34,0-.67.06-1,.18-.32.12-.66.3-1,.53l-.5-1.03c.82-.54,1.7-.82,2.65-.82s1.63.23,2.13.67c.51.45.76,1.1.76,1.95v1.98c0,.17.03.29.09.36.06.07.16.11.3.12v1.39c-.27.06-.51.09-.72.09-.31,0-.54-.07-.71-.21s-.27-.32-.31-.55l-.04-.35c-.28.37-.63.66-1.03.85-.41.19-.84.29-1.3.29Zm.46-1.19c.27,0,.54-.05.78-.15.25-.1.44-.23.58-.39.18-.14.27-.29.27-.46v-.73c-.19-.07-.4-.13-.63-.18-.23-.04-.45-.07-.66-.07-.42,0-.77.09-1.03.29-.27.19-.4.43-.4.72,0,.27.1.5.32.69s.47.27.78.27Z" style="fill: #5d769c;"/>
      <path d="m108.91,45.12h-1.63v-3.57c0-.51-.09-.88-.27-1.12s-.43-.35-.74-.35c-.16,0-.33.03-.5.1-.17.06-.33.16-.48.27-.15.12-.29.26-.41.42-.12.16-.21.34-.27.54v3.72h-1.63v-6.37h1.47v1.18c.24-.41.58-.72,1.02-.95.45-.23.95-.34,1.51-.34.4,0,.72.07.97.22.25.15.45.34.58.57.14.24.23.5.29.8s.08.6.08.91v3.97Z" style="fill: #5d769c;"/>
      <path d="m112.89,40.75c0-.53.09-1.05.29-1.56.19-.51.47-.97.83-1.38.36-.41.81-.73,1.34-.99s1.13-.38,1.8-.38c.79,0,1.48.18,2.06.52.58.35,1.01.8,1.29,1.36l-1.29.89c-.11-.24-.25-.45-.41-.61-.16-.17-.34-.3-.52-.39-.19-.1-.38-.17-.58-.21-.2-.04-.4-.07-.6-.07-.42,0-.79.09-1.1.26-.31.17-.57.39-.78.66-.21.27-.36.58-.47.92-.11.34-.16.69-.16,1.03,0,.38.06.75.18,1.1.12.35.29.66.52.93.22.27.49.48.8.64.31.16.65.24,1.03.24.19,0,.4-.02.61-.07.21-.05.41-.13.6-.23.19-.1.37-.24.53-.41s.29-.37.39-.6l1.37.79c-.14.32-.33.61-.59.86-.26.25-.54.45-.86.63-.32.17-.66.3-1.03.39-.36.09-.72.13-1.07.13-.62,0-1.18-.13-1.69-.39-.51-.26-.95-.6-1.32-1.02-.37-.42-.66-.89-.86-1.42-.21-.53-.31-1.07-.31-1.62Z" style="fill: #5d769c;"/>
      <path d="m124.53,45.25c-.52,0-.98-.09-1.4-.27-.41-.18-.76-.42-1.05-.72-.29-.3-.51-.65-.66-1.05-.15-.4-.23-.81-.23-1.25s.08-.87.23-1.26c.15-.4.37-.75.66-1.05s.64-.54,1.05-.72.88-.27,1.4-.27.98.09,1.39.27.76.42,1.05.72.51.65.66,1.05c.15.4.23.82.23,1.26s-.08.85-.23,1.25c-.15.4-.37.75-.66,1.05-.28.3-.63.54-1.05.72-.41.18-.88.27-1.4.27Zm-1.66-3.29c0,.28.04.54.13.77.09.23.2.43.35.6.15.17.33.3.53.4.2.09.42.14.66.14s.45-.05.66-.14c.2-.09.38-.23.53-.4.15-.17.27-.37.35-.61s.13-.49.13-.78-.04-.53-.13-.77c-.09-.23-.2-.44-.35-.61-.15-.17-.33-.3-.53-.39-.2-.09-.42-.14-.66-.14s-.45.05-.66.15c-.2.1-.38.23-.53.4-.15.17-.27.37-.35.61-.09.23-.13.49-.13.77Z" style="fill: #5d769c;"/>
      <path d="m138.85,45.12h-1.63v-3.57c0-.51-.09-.88-.26-1.12s-.42-.35-.72-.35c-.32,0-.63.12-.91.37-.28.25-.49.57-.61.97v3.71h-1.63v-3.57c0-.51-.09-.88-.26-1.12s-.42-.35-.72-.35-.62.12-.91.36c-.29.24-.49.56-.61.96v3.72h-1.63v-6.37h1.47v1.18c.24-.41.56-.73.97-.95.41-.22.88-.33,1.4-.33s.95.13,1.24.39.48.58.56.96c.26-.44.59-.77.99-1,.4-.23.85-.35,1.36-.35.39,0,.71.07.96.22.25.15.45.34.58.57.14.24.23.5.29.8s.08.6.08.91v3.97Z" style="fill: #5d769c;"/>
      <path d="m150.16,45.12h-1.63v-3.57c0-.51-.09-.88-.26-1.12s-.42-.35-.72-.35c-.32,0-.63.12-.91.37-.28.25-.49.57-.61.97v3.71h-1.63v-3.57c0-.51-.09-.88-.26-1.12s-.42-.35-.72-.35-.62.12-.91.36c-.29.24-.49.56-.61.96v3.72h-1.63v-6.37h1.47v1.18c.24-.41.56-.73.97-.95.41-.22.88-.33,1.4-.33s.95.13,1.24.39.48.58.56.96c.26-.44.59-.77.99-1,.4-.23.85-.35,1.36-.35.39,0,.71.07.96.22.25.15.45.34.58.57.14.24.23.5.29.8s.08.6.08.91v3.97Z" style="fill: #5d769c;"/>
      <path d="m153.53,45.25c-.66,0-1.16-.21-1.5-.63-.34-.42-.51-1.05-.51-1.87v-3.99h1.63v3.63c0,.98.35,1.47,1.06,1.47.32,0,.62-.09.92-.29.29-.19.54-.48.72-.87v-3.95h1.63v4.5c0,.17.03.29.09.36.06.07.16.11.3.12v1.39c-.16.03-.3.05-.41.06-.11,0-.21.01-.3.01-.29,0-.53-.07-.71-.2s-.29-.32-.32-.55l-.04-.51c-.28.44-.65.77-1.09.98-.45.22-.94.33-1.47.33Z" style="fill: #5d769c;"/>
      <path d="m165.01,45.12h-1.63v-3.57c0-.51-.09-.88-.27-1.12s-.43-.35-.74-.35c-.16,0-.33.03-.5.1-.17.06-.33.16-.48.27-.15.12-.29.26-.41.42-.12.16-.21.34-.27.54v3.72h-1.63v-6.37h1.47v1.18c.24-.41.58-.72,1.02-.95.45-.23.95-.34,1.51-.34.4,0,.72.07.97.22.25.15.45.34.58.57.14.24.23.5.29.8s.08.6.08.91v3.97Z" style="fill: #5d769c;"/>
      <path d="m166.44,37.87v-1.62h1.63v1.62h-1.63Zm0,7.26v-6.37h1.63v6.37h-1.63Z" style="fill: #5d769c;"/>
      <path d="m173.35,44.8c-.22.1-.49.19-.8.29s-.65.15-1,.15c-.23,0-.44-.03-.64-.09-.2-.06-.37-.15-.52-.27-.15-.13-.27-.29-.36-.49-.09-.2-.13-.44-.13-.72v-3.66h-.84v-1.25h.84v-2.07h1.63v2.07h1.34v1.25h-1.34v3.11c0,.23.06.39.18.48s.26.14.43.14.34-.03.5-.09c.16-.06.29-.1.39-.15l.33,1.29Z" style="fill: #5d769c;"/>
      <path d="m174.34,46.36c.14.04.27.07.4.09.13.02.24.03.33.03.1,0,.2-.02.29-.06s.17-.11.24-.21c.07-.1.15-.24.22-.42s.15-.4.23-.67l-2.52-6.37h1.68l1.73,4.96,1.53-4.96h1.53l-2.67,7.63c-.15.45-.42.81-.79,1.09s-.83.43-1.39.43c-.13,0-.26,0-.39-.03-.13-.02-.27-.05-.42-.1v-1.41Z" style="fill: #5d769c;"/>
    </g>
  </g>
  <path d="m52.43,12.22c.02.07.03.15.03.22v11.59c0,.3-.16.58-.42.73l-9.73,5.6v11.1c0,.3-.16.58-.42.73l-20.31,11.69s-.1.04-.15.06c-.02,0-.04.02-.06.02-.14.04-.29.04-.43,0-.02,0-.04-.02-.07-.03-.05-.02-.1-.03-.14-.06L.42,42.2c-.26-.15-.42-.43-.42-.73V6.69c0-.08.01-.15.03-.22,0-.02.02-.05.03-.07.02-.04.03-.09.05-.13.02-.03.04-.05.06-.08.02-.03.05-.07.08-.1.02-.02.06-.04.08-.06.03-.03.06-.05.09-.07h0L10.58.11c.26-.15.58-.15.85,0l10.15,5.85h0s.06.05.09.07c.03.02.06.04.08.06.03.03.05.07.08.1.02.03.04.05.06.08.02.04.04.09.05.13,0,.02.02.05.03.07.02.07.03.15.03.22v21.72l8.46-4.87v-11.1c0-.07.01-.15.03-.22,0-.03.02-.05.03-.07.02-.04.03-.09.05-.13.02-.03.04-.05.06-.08.03-.03.05-.07.08-.1.02-.02.05-.04.08-.06.03-.03.06-.05.09-.07h0l10.15-5.85c.26-.15.58-.15.85,0l10.15,5.85s.06.05.1.07c.03.02.06.04.08.06.03.03.05.07.08.1.02.03.04.05.06.08.02.04.04.09.05.13,0,.02.02.05.03.07Zm-1.66,11.32v-9.64l-3.55,2.05-4.91,2.83v9.64l8.46-4.87h0Zm-10.15,17.44v-9.65l-4.83,2.76-13.79,7.87v9.74l18.61-10.72ZM1.69,8.15v32.82l18.61,10.72v-9.73l-9.72-5.5h0s0,0,0,0c-.03-.02-.06-.05-.09-.07-.03-.02-.06-.04-.08-.06h0s-.05-.06-.07-.09c-.02-.03-.05-.05-.06-.08h0s-.03-.07-.04-.11c-.01-.03-.03-.06-.04-.1h0s-.01-.08-.02-.12c0-.03-.01-.06-.01-.1h0V13.03l-4.91-2.83-3.55-2.04h0ZM11,1.82L2.54,6.69l8.46,4.87,8.46-4.87L11,1.82h0Zm4.4,30.39l4.91-2.82V8.15l-3.55,2.05-4.91,2.83v21.23l3.55-2.05ZM41.46,7.57l-8.46,4.87,8.46,4.87,8.46-4.87-8.46-4.87Zm-.85,11.2l-4.91-2.83-3.55-2.05v9.64l4.91,2.82,3.55,2.05v-9.64Zm-19.46,21.72l12.41-7.08,6.2-3.54-8.45-4.87-9.73,5.6-8.87,5.11,8.44,4.78Z" style="fill: #ff2d20; fill-rule: evenodd;"/>
</svg>