<svg viewBox="0 0 677.07 533.16" xmlns="http://www.w3.org/2000/svg">

    <style>
        :root { fill:#222 }
        .accent { fill: #f9322c; }

        @media (prefers-color-scheme: dark) {
            :root {  fill: #f9322c; }
            .accent { fill:#dee2e6; }
        }
    </style>

    <g class="accent">
        <path
            d="m219.56 46.07c-4.15 9-.15 17.19 11.85 19.6l12 2.4 64.62 81.95 23.63-19.78s-59.25-74.98-68.75-82.58l-9.5-7.6s-17-8-21-6-12.85 12-12.85 12z"/>
        <path
            d="m302.05 158.51.1-.84v13.9s-15.74 11.5-12.74 33.5 29 42 29 42l1.19 10.6h57.11s-3.3-7.6 2.7-13.6 30.8-24.53 27.9-45.76-15.66-32.69-15.66-32.69l-.74-6.89-35 4.85-30.39-1.53-23.46-3.54z"/>
        <path
            d="m235.41 377.07c-14.25 8.21-14.03 10.82-14 10.99l-2.21-10.55-29.76 4.36-5.03 2.2c-14 7-28.33 6.96-28.33 6.96l6.62 12.91s-8.29 15.13-4.29 24.13 3.89 17 9.45 21 34.55 12.38 43.05 3.69c5.5 1.31 6.5 1.31 15.5-1.69s17.85-16.73 17.85-16.73l15.45-30.87 16.24-23.9.46-6.5s-26.24-4.5-41 4zm-19 63-5.21 4h-9.13s-13.66-3-11.17-7.02 9.01-2.48 9.01-2.48l-1-5.39s5.5-4.11 8.8-1.14c0 0-.3 1.03.7 5.03 4-5 8 1 8 1l1.87 1.45z"/>
        <path
            d="m348.41 407.07c4 4 4 14 4 14s11.21 5 13.11 15-25.11 24-35.11 24-12.04-1.19-12.04-1.19l9.92-25.86c6.11-11.95 12.59-21.91 20.12-25.95z"/>
    </g>
    <path
        d="m313.41 157.57c-.47 0-.93-.22-1.22-.62-.46-.64-46.09-64.1-56.93-76.91-7.52-8.88-25.46-14.46-35.48-16.99-1.96-.5-3.53-1.93-4.19-3.84s-.32-4.01.92-5.62l13.72-17.84c1.62-2.1 4.45-2.9 6.89-1.95 44.89 17.59 97.84 103.35 100.07 106.99.43.71.21 1.63-.5 2.06s-1.63.21-2.06-.5c-.54-.88-54.66-88.54-98.61-105.76-1.21-.47-2.61-.07-3.42.99l-13.72 17.84c-.63.82-.79 1.84-.46 2.81s1.1 1.67 2.09 1.92c10.37 2.62 28.98 8.43 37.04 17.96 10.91 12.9 56.61 76.45 57.07 77.09.48.67.33 1.61-.34 2.09-.26.19-.57.28-.87.28z"/>
    <path
        d="m346.91 164.07c-29.26 0-47.46-2.59-49.93-7.12-.48-.88-.45-1.86.08-2.69 1.74-2.72 8.71-3.25 14.16-2.87.83.06 1.45.77 1.39 1.6s-.78 1.46-1.6 1.39c-6.38-.44-10.26.57-11.23 1.31 1.08.94 8.27 5.38 47.13 5.38 36.45 0 41.73-3.66 42.43-4.4-.3-.33-1.33-1.03-3.73-1.66-.8-.21-1.28-1.03-1.07-1.83s1.03-1.28 1.83-1.07c5.32 1.4 6.21 3.44 6.02 4.9-.23 1.75-.91 7.06-45.48 7.06z"/>
    <path
        d="m309.33 161.77c-.47 0-.94-.22-1.23-.64-.48-.68-.31-1.61.37-2.09l29.2-20.5c.66-.46 1.57-.32 2.06.33l15.45 20.5c.5.66.37 1.6-.3 2.1-.66.5-1.6.37-2.1-.3l-14.57-19.34-28.02 19.67c-.26.18-.56.27-.86.27z"/>
    <path
        d="m375.41 259.17h-61c-.83 0-1.5-.67-1.5-1.5v-5.5c-.35-.84-3.03-3.23-5.4-5.35-9.3-8.3-26.6-23.76-26.6-44.75s8.71-28.53 13.39-32.54c.97-.83 2.3-1.97 2.34-2.38v-11.08c0-.83.67-1.5 1.5-1.5s1.5.67 1.5 1.5v11.08c0 1.76-1.42 2.97-3.38 4.66-4.31 3.69-12.34 10.57-12.34 30.26s16.65 34.52 25.6 42.51c4.76 4.25 6.4 5.8 6.4 7.49v4.1h58v-4.1c0-1.68 1.65-3.24 6.4-7.49 8.95-7.99 25.6-22.86 25.6-42.51s-8.03-26.57-12.34-30.26c-1.96-1.68-3.38-2.9-3.38-4.66 0-3.78-.76-10.35-.76-10.41-.09-.82.49-1.57 1.32-1.66.82-.1 1.57.49 1.66 1.32.03.28.78 6.8.78 10.76.04.41 1.37 1.55 2.34 2.38 4.68 4.01 13.39 11.47 13.39 32.54s-17.3 36.45-26.6 44.75c-2.37 2.12-5.05 4.51-5.4 5.35v5.5c0 .83-.67 1.5-1.5 1.5z"/>
    <path
        d="m334.64 253.57h-20.23c-.83 0-1.5-.67-1.5-1.5s.67-1.5 1.5-1.5h20.23c.83 0 1.5.67 1.5 1.5s-.67 1.5-1.5 1.5z"/>
    <path
        d="m375.41 253.57h-12.52c-.83 0-1.5-.67-1.5-1.5s.67-1.5 1.5-1.5h12.52c.83 0 1.5.67 1.5 1.5s-.67 1.5-1.5 1.5z"/>
    <path
        d="m352.01 174.36c-15.84 0-39.75-.82-54.31-5.19-.79-.24-1.24-1.07-1-1.87.24-.79 1.08-1.24 1.87-1 22.27 6.69 68.81 4.8 69.28 4.78.8-.03 1.53.61 1.56 1.44.04.83-.61 1.53-1.44 1.56-.69.03-7.05.29-15.96.29z"/>
    <path
        d="m382.91 173.07c-.67 0-1.28-.46-1.45-1.14-.2-.8.29-1.62 1.09-1.82 3.74-.94 8.46-3.66 8.51-3.68.72-.42 1.64-.17 2.05.54.42.72.17 1.63-.54 2.05-.21.12-5.13 2.96-9.28 4-.12.03-.25.04-.37.04z"/>
    <path
        d="m340.6 179.11c-4.7 0-8.71-.22-9-.24-.55-.03-.97-.5-.94-1.05s.51-.96 1.05-.94c.12 0 12.24.67 19.05-.3.55-.08 1.05.3 1.13.85s-.3 1.05-.85 1.13c-3.01.43-6.92.55-10.45.55z"/>
    <path
        d="m337.85 196.26c-3.84 0-8.21-.19-13.05-.7-.55-.06-.95-.55-.89-1.1s.55-.95 1.1-.89c18.57 1.95 30.54-.95 30.65-.98.53-.13 1.08.19 1.21.73s-.19 1.08-.73 1.21c-.37.09-7.07 1.72-18.3 1.72z"/>
    <path
        d="m339.94 191.46c-2.17 0-4.57-.16-7.08-.59-.54-.09-.91-.61-.82-1.15s.6-.91 1.15-.82c9.51 1.63 17.33-.83 17.41-.86.52-.17 1.09.12 1.26.65s-.12 1.09-.64 1.26c-.25.08-4.81 1.52-11.28 1.52z"/>
    <path
        d="m341.95 204.45c-3.97 0-8.5-.22-13.18-.89-.55-.08-.93-.58-.85-1.13s.59-.92 1.13-.85c13.68 1.95 26.05.02 26.18 0 .54-.09 1.06.28 1.15.83s-.28 1.06-.83 1.15c-.08.01-5.72.89-13.6.89z"/>
    <path
        d="m344.44 210.71c-3.21 0-7.43-.17-12.88-.69-.55-.05-.95-.54-.9-1.09s.54-.97 1.09-.9c15.74 1.49 21 .05 21.06.04.53-.15 1.08.15 1.24.68s-.14 1.08-.67 1.24c-.15.04-2.55.73-8.93.73z"/>
    <path
        d="m339.23 217.91c-1.15 0-2.33-.07-3.47-.24-.55-.08-.92-.59-.84-1.13s.58-.94 1.13-.84c5.71.84 12.51-1.07 12.58-1.09.53-.15 1.08.16 1.24.69s-.16 1.08-.69 1.24c-.24.07-4.91 1.38-9.95 1.38z"/>
    <path
        d="m340.37 223.85c-1.14 0-2.36-.08-3.63-.3-.54-.09-.91-.61-.82-1.15.09-.55.6-.92 1.15-.82 5.63.94 10.42-.92 10.47-.94.51-.2 1.09.05 1.3.56.2.51-.04 1.09-.56 1.3-.17.07-3.45 1.35-7.91 1.35z"/>
    <path
        d="m381.91 193.57c-.47 0-.88-.33-.98-.8-.11-.54.24-1.07.78-1.18 4.76-.95 8.62-3.42 8.65-3.44.46-.3 1.08-.17 1.38.3.3.46.17 1.08-.3 1.38-.17.11-4.22 2.7-9.35 3.73-.07.01-.13.02-.2.02z"/>
    <path
        d="m386.41 207.22c-.49 0-.92-.36-.99-.86-.08-.55.3-1.05.85-1.13 4.23-.61 8.75-3.47 8.8-3.5.46-.3 1.08-.16 1.38.3s.16 1.08-.3 1.38c-.2.13-4.93 3.12-9.59 3.8-.05 0-.1.01-.14.01z"/>
    <path
        d="m303.91 220.57c-.1 0-.21-.02-.32-.05-.06-.02-6.12-2.05-13.08-5.03-.51-.22-.74-.81-.53-1.31.22-.51.81-.75 1.31-.53 6.88 2.95 12.86 4.95 12.92 4.97.52.17.81.74.63 1.26-.14.42-.53.68-.95.68z"/>
    <path
        d="m300.91 189.57c-.07 0-.13 0-.2-.02-.21-.04-5.23-1.06-8.36-3.15-.46-.31-.58-.93-.28-1.39.31-.46.92-.58 1.39-.28 2.8 1.87 7.59 2.84 7.64 2.85.54.11.89.63.78 1.18-.09.48-.51.8-.98.8z"/>
    <path
        d="m262.91 73.57c-.22 0-.44-.07-.63-.22-.16-.13-16.07-12.92-35.61-17.81-.54-.13-.86-.68-.73-1.21.13-.54.68-.87 1.21-.73 19.98 5 36.23 18.06 36.39 18.19.43.35.49.98.15 1.41-.2.24-.49.37-.78.37z"/>
    <path
        d="m313.91 141.57c-.3 0-.59-.13-.79-.38l-43-55c-.34-.44-.26-1.06.17-1.4.44-.34 1.06-.26 1.4.17l43 55c.34.44.26 1.06-.17 1.4-.18.14-.4.21-.62.21z"/>
    <path
        d="m250.91 50.57c-.2 0-.39-.06-.57-.18-.08-.05-7.92-5.45-14.63-6.84-.54-.11-.89-.64-.78-1.18s.63-.89 1.18-.78c7.12 1.48 15.03 6.93 15.37 7.16.45.31.57.94.25 1.39-.19.28-.51.43-.82.43z"/>
    <path
        d="m332.64 144.91c-.29 0-.59-.13-.78-.38l-21.73-27.34c-.34-.43-.27-1.06.16-1.41.43-.34 1.06-.27 1.41.16l21.73 27.34c.34.43.27 1.06-.16 1.41-.18.15-.4.22-.62.22z"/>
    <path
        d="m319.6 162.56c-.33 0-.65-.16-.84-.46-.3-.46-.16-1.08.3-1.38l23.82-15.31c.47-.3 1.08-.16 1.38.3s.16 1.08-.3 1.38l-23.82 15.31c-.17.11-.35.16-.54.16z"/>
    <path
        d="m341.96 144.91c-.46 0-.87-.32-.97-.78-1.67-7.43.92-14.67 6.93-19.37 5.47-4.28 12.54-5.48 18.44-3.24-.06-8.27 3.17-12.8 5.98-15.18 4.42-3.73 10.36-4.5 14.29-3.61.54.12.88.66.75 1.2-.12.54-.65.87-1.2.75-3.33-.76-8.68-.08-12.56 3.19-3.84 3.25-5.6 8.34-5.22 15.14.02.36-.15.7-.45.89s-.68.22-1 .06c-5.48-2.74-12.47-1.81-17.81 2.37-5.38 4.21-7.71 10.7-6.21 17.36.12.54-.22 1.07-.76 1.19-.07.02-.15.02-.22.02z"/>
    <path
        d="m404.41 107.07c-.2 0-.41-.06-.59-.19-3.5-2.55-5.46-5.57-5.82-8.98-.5-4.76 2.28-8.77 3.3-10.06-1.01-3.91-1.2-11.15 4.71-13.68.5-.22 1.09.02 1.31.53s-.02 1.09-.53 1.31c-6.09 2.61-3.46 11.7-3.44 11.79.1.33.02.7-.21.95-.04.04-3.67 4.17-3.16 8.96.3 2.82 1.99 5.37 5.01 7.56.45.32.55.95.22 1.4-.2.27-.5.41-.81.41z"/>
    <path
        d="m361.39 153.57c-.34 0-.68-.18-.86-.49-4.33-7.4 1.62-13.61 5.37-15.86.47-.28 1.09-.13 1.37.34s.13 1.09-.34 1.37c-.37.23-9.09 5.6-4.67 13.14.28.48.12 1.09-.36 1.37-.16.09-.33.14-.5.14z"/>
    <path
        d="m376.91 163.07c-.7 0-1.32-.49-1.47-1.2-.17-.81.36-1.6 1.17-1.77 6.18-1.26 7.99-7.77 8.48-10.51 1.2-6.67-.81-13.95-4.48-16.25-.43-.27-.7-.74-.71-1.25 0-.51.24-.99.67-1.27 7.96-5.31 4.44-16.32 4.41-16.43-.24-.74.12-1.54.83-1.85.72-.31 1.54-.02 1.91.67.17.3 4.25 7.44 14.74 5.99 10.26-1.41 10.44-11.7 10.44-12.13 0-.78.6-1.43 1.38-1.49 3.34-.28 5.78-1.38 7.24-3.27 2.19-2.83 1.58-6.53 1.58-6.56-.07-.4.03-.81.26-1.14.24-.33.6-.54 1-.6.02 0 3.03-.5 4.56-3 1.23-2.02 1.25-4.86.06-8.45-.13-.38-.1-.79.08-1.15 1.05-2.1-.14-5.83-2.84-8.86-2.9-3.25-7.91-6.02-13.3-4.06-.43.15-.91.11-1.3-.13-4.28-2.63-8.47-3.35-12.45-2.11-4.98 1.54-9.62 6.2-12.39 12.45-.17.37-.48.66-.86.8-.39.14-.81.11-1.18-.07-.61-.3-14.92-7.25-22.08 3.49-7.42 11.13-1.94 23.42-1.88 23.54.19.42.18.9-.03 1.31s-.59.7-1.04.79c-.06.01-5.99 1.27-8.29 5.64-1.34 2.54-1.21 5.74.38 9.5.32.76-.04 1.64-.8 1.97-.76.32-1.64-.04-1.97-.8-1.96-4.64-2.05-8.7-.26-12.08 2.12-4 6.29-5.9 8.64-6.69-1.39-4-4.02-14.68 2.75-24.84 7.18-10.77 20.22-6.81 24.51-5.12 3.18-6.35 8.19-11.07 13.62-12.75 4.65-1.44 9.45-.75 14.3 2.06 6.54-2.01 12.45 1.27 15.88 5.12 3.38 3.8 4.75 8.36 3.55 11.6 1.31 4.24 1.12 7.75-.54 10.45-1.5 2.42-3.82 3.54-5.29 4.02.04 1.76-.23 4.87-2.28 7.52-1.79 2.32-4.51 3.76-8.09 4.28-.42 3.43-2.52 12.32-12.92 13.75-6.77.93-11.35-1.2-14.16-3.43.23 4.01-.47 9.47-4.89 13.36 3.7 3.68 5.49 10.96 4.22 18.02s-5.22 11.77-10.84 12.92c-.1.02-.2.03-.3.03z"/>
    <path
        d="m388.35 145.41c-.83 0-1.5-.67-1.5-1.5s.67-1.5 1.5-1.5c2.76 0 4.79-.8 6.04-2.38 2.68-3.39 1.3-9.39 1.29-9.45-.12-.5.03-1.03.39-1.39.36-.37.89-.52 1.38-.42.12.03 12.32 2.51 16.69-4.5 4.39-7.03 2.08-11.27 1.98-11.45-.24-.42-.26-.93-.07-1.36s.58-.76 1.05-.86c.25-.06 6.29-1.54 5.61-10.22-.06-.83.55-1.55 1.38-1.61.84-.08 1.55.55 1.61 1.38.65 8.28-3.83 11.59-6.35 12.79.66 2.3 1.11 6.88-2.67 12.93-4.27 6.83-13.56 6.65-17.75 6.17.26 2.54.23 6.79-2.19 9.85-1.85 2.34-4.67 3.53-8.4 3.53z"/>
    <path
        d="m321.78 119.89c-.09 0-.17 0-.26-.02-.82-.14-1.36-.92-1.22-1.74 1.42-8.07 10.34-9.2 15.52-8.65 2.07-2.19 9.36-8.49 19.06-1.32.67.49.81 1.43.31 2.1-.49.67-1.43.81-2.1.31-9.08-6.71-15.23 1.08-15.49 1.41-.33.43-.88.65-1.42.57-.47-.07-11.57-1.66-12.93 6.1-.13.73-.76 1.24-1.48 1.24z"/>
    <path
        d="m403.8 152.87c-1.75 0-3.36-.19-4.62-.58-3.06-.94-3.42-2.76-3.36-3.76.31-5.11 4.13-7.45 6.64-8.14.7-1.17 2.42-3.5 5.33-4.46 2.54-.84 5.33-.46 8.29 1.15.12.06.23.15.33.24 4.39 4.25 3.89 7.55 2.7 9.57-2.34 3.97-9.62 5.98-15.31 5.98zm6.69-14.37c-.6 0-1.18.09-1.73.27-2.64.86-3.94 3.54-3.96 3.57-.21.44-.63.76-1.11.84-.18.03-4.59.88-4.88 5.53 0 .08.29.42 1.24.71 4.27 1.31 14.21-.24 16.46-4.06.92-1.55.23-3.49-2.05-5.74-1.42-.74-2.75-1.12-3.98-1.12z"/>
    <path
        d="m335.26 102.6c-2.46 0-4.71-.56-6.58-1.7-3.03-1.84-4.77-5.06-4.77-8.83 0-2.8.87-4.9 2.58-6.24 1.74-1.36 3.94-1.55 5.46-1.46.49-2.34 2.6-4.36 5.44-4.93 3.34-.66 7.71.95 9.32 7.58 2.14 1.1 3.42 2.96 3.53 5.2.15 3.03-1.82 6.06-5.03 7.72-3.42 1.77-6.85 2.67-9.96 2.67zm-3.94-15.26c-.96 0-2.12.17-2.99.86-.94.74-1.42 2.04-1.42 3.87 0 2.74 1.18 4.96 3.33 6.27 3.32 2.02 8.4 1.62 13.59-1.07 2.14-1.11 3.51-3.08 3.42-4.9-.07-1.31-.89-2.31-2.39-2.9-.47-.19-.82-.6-.92-1.1-.87-4.32-3.09-6.56-5.96-5.98-1.94.39-3.38 1.97-3.1 3.4.1.5-.06 1.02-.44 1.38-.37.35-.9.49-1.4.37-.01 0-.76-.18-1.73-.18z"/>
    <path
        d="m415.02 59.05c-.44 0-.88-.02-1.32-.06-4.45-.43-7.05-3.12-6.79-7.02.33-4.88 2.43-8.47 5.94-10.11 3.54-1.66 8.2-1.12 11.58 1.34 2.53 1.84 3.8 4.41 3.47 7.06-.66 5.3-7.07 8.8-12.88 8.8zm-5.11-6.88c-.19 2.83 2.12 3.65 4.08 3.83 4.53.44 10.46-2.31 10.93-6.12.26-2.09-1.3-3.56-2.25-4.26-2.49-1.81-6-2.24-8.54-1.05-2.51 1.17-3.96 3.8-4.22 7.59z"/>
    <path
        d="m415.91 294.07s-.08 0-.12 0l-93-7.37-1.79 4.81c-.22.59-.78.98-1.41.98h-98.63c-.83 0-1.5-.67-1.5-1.5v-24.4c0-.14.02-.29.06-.42l11.95-40.43c.19-.64.77-1.08 1.44-1.08h57.5c.83 0 1.5.67 1.5 1.5s-.67 1.5-1.5 1.5h-56.38l-11.57 39.15v22.69h96.09l1.82-4.89c.23-.63.86-1.02 1.52-.97l93.31 7.39 2.02-2.71c.46-.61 1.29-.78 1.95-.4l5.49 3.17h81.01v-28.42l-25.49-32.58-82.85.52c-.82 0-1.5-.67-1.5-1.49 0-.83.66-1.5 1.49-1.51l83.59-.52c.46 0 .9.21 1.18.58l26.27 33.56c.21.26.32.59.32.92v30.44c0 .83-.67 1.5-1.5 1.5h-82.91c-.26 0-.52-.07-.75-.2l-4.68-2.71-1.72 2.3c-.28.38-.73.6-1.2.6z"/>
    <path
        d="m318.24 292.48c-.73 0-1.36-.53-1.48-1.27l-3.63-23.14h-92.16c-.83 0-1.5-.67-1.5-1.5s.67-1.5 1.5-1.5h93.45c.74 0 1.37.54 1.48 1.27l3.83 24.4c.13.82-.43 1.59-1.25 1.71-.08.01-.16.02-.23.02z"/>
    <path
        d="m418.43 290.7c-.72 0-1.34-.51-1.47-1.23l-4.22-23.28h-89.46v18.93c0 .83-.67 1.5-1.5 1.5s-1.5-.67-1.5-1.5v-20.43c0-.83.67-1.5 1.5-1.5h92.21c.73 0 1.35.52 1.48 1.23l1.99 10.95.4-10.74c.03-.81.69-1.44 1.5-1.44h87.83c.83 0 1.5.67 1.5 1.5s-.67 1.5-1.5 1.5h-86.38l-.86 23.07c-.03.77-.63 1.39-1.39 1.44-.04 0-.07 0-.11 0z"/>
    <path
        d="m314.41 268.08c-.67 0-1.28-.45-1.45-1.13-.21-.8.28-1.62 1.08-1.83l7.37-1.89c.8-.21 1.62.28 1.83 1.08s-.28 1.62-1.08 1.83l-7.37 1.89c-.12.03-.25.05-.37.05z"/>
    <path d="m419.35 266.19h-5.36c-.83 0-1.5-.67-1.5-1.5s.67-1.5 1.5-1.5h5.36c.83 0 1.5.67 1.5 1.5s-.67 1.5-1.5 1.5z"/>
    <path
        d="m374.86 340.07h-7.95c-.83 0-1.5-.67-1.5-1.5v-31c0-.83.67-1.5 1.5-1.5h7.95c.83 0 1.5.67 1.5 1.5v31c0 .83-.67 1.5-1.5 1.5zm-6.45-3h4.95v-28h-4.95z"/>
    <path
        d="m377.73 385.9h-18.32c-.72 0-1.34-.52-1.48-1.23l-6.5-35.33c-.02-.09-.02-.18-.02-.27v-15.5c0-.83.67-1.5 1.5-1.5h13c.83 0 1.5.67 1.5 1.5s-.67 1.5-1.5 1.5h-11.5v13.86l6.25 33.97h15.85l6.88-33.38-1.9-14.45h-6.63c-.83 0-1.5-.67-1.5-1.5s.67-1.5 1.5-1.5h7.95c.75 0 1.39.56 1.49 1.3l2.11 16c.02.17.02.33-.02.5l-7.18 34.83c-.14.7-.76 1.2-1.47 1.2z"/>
    <path
        d="m384.91 350.07h-20.84c-.83 0-1.5-.67-1.5-1.5s.67-1.5 1.5-1.5h20.84c.83 0 1.5.67 1.5 1.5s-.67 1.5-1.5 1.5z"/>
    <path
        d="m494.23 488.07h-76c-.71 0-1.32-.5-1.47-1.19-.18-.85-18.47-85.18-52.69-85.18s-52.51 84.33-52.69 85.18c-.15.69-.76 1.19-1.47 1.19h-76c-.83 0-1.5-.67-1.5-1.5 0-45.37 20.95-76.59 33.47-95.25 5.32-7.93 9.53-14.19 9.53-17.75s-2.8-6.66-6.67-11.07c-8.93-10.16-23.88-27.17-23.88-71.52 0-.83.67-1.5 1.5-1.5s1.5.67 1.5 1.5c0 43.22 13.92 59.06 23.13 69.54 4.14 4.71 7.41 8.43 7.41 13.05s-3.99 10.42-10.04 19.43c-12.19 18.16-32.5 48.42-32.96 92.07h73.29c2.45-10.9 20.64-86.37 55.37-86.37s52.92 75.47 55.37 86.37h73.29c-.46-43.65-20.77-73.91-32.96-92.07-6.04-9-10.04-14.95-10.04-19.43s3.41-8.21 7.72-12.73c9.54-9.99 23.96-25.09 23.96-68.27 0-.83.67-1.5 1.5-1.5s1.5.67 1.5 1.5c0 44.39-15.52 60.64-24.79 70.34-4 4.19-6.89 7.21-6.89 10.66s4.2 9.82 9.53 17.75c12.52 18.65 33.47 49.88 33.47 95.25 0 .83-.67 1.5-1.5 1.5z"/>
    <path
        d="m192.91 444.07c-.16 0-.32-.02-.47-.08-2.74-.91-3.61-3.51-3.89-5.11-3.86-.61-15.06-2.77-17.92-7.54-.14-.23-.21-.5-.21-.77 0-5.28-3.31-18.18-3.87-20.31-1.16-1.51-6.07-8.72-5.25-21.58.03-.43.23-.82.57-1.08s.77-.37 1.19-.3c8.6 1.52 14.96 5.9 17.08 7.52 2.74-1.18 11.52-4.42 23.84-3.81 1.45-3.03 6.33-12 13.75-12.93.62-.07 1.24.25 1.53.82 4.55 9.11 2.84 17.37 2.25 19.58 1.92 4.48 5.62 11.52 8.08 12.75.56.28.88.87.82 1.49-.94 9.36-9.08 18.44-11.03 20.49l-.26 4.44c-.05.83-.74 1.47-1.58 1.41-.83-.05-1.46-.76-1.41-1.58l.29-4.99c.02-.37.18-.71.44-.97.09-.09 9.04-9.14 10.45-18.19-4.1-3.14-8.28-12.98-8.78-14.17-.14-.33-.15-.71-.04-1.05.03-.08 2.53-7.96-1.43-16.83-6.46 1.76-10.71 11.78-10.76 11.88-.25.59-.83.96-1.48.92-14.37-.96-24.13 3.8-24.23 3.85-.54.27-1.19.19-1.64-.2-.06-.05-6.05-5.1-14.73-7.11-.25 11.81 4.79 17.94 4.85 18 .14.17.25.37.31.58.16.61 3.86 14.55 4.04 20.92 2.31 3.04 11.36 5.27 16.71 5.98.75.1 1.3.74 1.3 1.49 0 .02.05 2.94 1.97 3.58.79.26 1.21 1.11.95 1.9-.21.63-.79 1.03-1.42 1.03z"/>
    <path
        d="m193.95 458.31c-2.15 0-4.25-.09-6.17-.25-8.08-.67-18.36-3.39-22.98-9-1.89-2.3-2.7-4.88-2.39-7.66.68-6.15-.52-9.71-1.68-13.15-.47-1.38-.95-2.81-1.29-4.36-2.06-9.27 1.74-19.3 4.58-21.2.69-.46 1.62-.28 2.08.41s.28 1.62-.41 2.08c-1.32.89-5.24 9.45-3.32 18.06.31 1.39.75 2.68 1.21 4.05 1.21 3.58 2.58 7.63 1.82 14.45-.22 1.97.34 3.74 1.73 5.42 3.36 4.09 11.38 7.12 20.91 7.92 12.75 1.06 21.91-1.36 22.45-2.98.81-2.43-1-6.5-1.97-7.2-.63-.16-3-.16-5.09-.16-6.19 0-15.53 0-21.18-2.83-.74-.37-1.04-1.27-.67-2.01s1.27-1.04 2.01-.67c5.02 2.51 13.94 2.51 19.84 2.51 4.19 0 5.69.03 6.56.54 2.39 1.42 4.53 7.22 3.35 10.77-1.28 3.84-10.72 5.27-19.38 5.27z"/>
    <path
        d="m170.41 392.53c-.41 0-.82-.17-1.11-.5-.55-.62-.51-1.56.11-2.12 10.88-9.81 32.88-13.47 44.55-10.08.8.23 1.25 1.06 1.02 1.86s-1.06 1.26-1.86 1.02c-10.93-3.17-31.53.25-41.71 9.43-.29.26-.65.39-1 .39z"/>
    <path
        d="m223.91 386.07c-.2 0-.4-.04-.58-.12l-4.72-2c-.76-.32-1.12-1.2-.8-1.97.32-.76 1.2-1.12 1.97-.8l4.15 1.76c2.22-.89 10.44-4.21 16.39-6.76 11.15-4.78 23.54-5.91 36.83-3.36.81.16 1.35.94 1.19 1.76-.16.81-.94 1.34-1.76 1.19-12.69-2.43-24.49-1.37-35.08 3.17-6.94 2.97-16.93 6.97-17.03 7.01-.18.07-.37.11-.56.11z"/>
    <path
        d="m241.91 412.07c-.56 0-1.1-.32-1.36-.86-.1-.21-9.9-20.66-17.44-25.37-.7-.44-.92-1.37-.48-2.07s1.37-.92 2.07-.48c8.28 5.17 18.14 25.75 18.56 26.63.36.75.04 1.64-.71 2-.21.1-.43.15-.64.15z"/>
    <path
        d="m218.91 456.07c-1.69 0-3.2-.64-4.37-1.86-3.01-3.11-3.05-8.97-2.99-10.7.11-3.08 2.57-5.07 6.31-8.08 2.42-1.95 5.43-4.38 8.99-7.93.59-.59 1.54-.59 2.12 0s.59 1.54 0 2.12c-3.67 3.67-6.75 6.15-9.23 8.15-3.56 2.87-5.14 4.21-5.2 5.84-.1 2.8.41 6.71 2.15 8.51.62.64 1.32.94 2.22.94 2.98 0 11.18-2.85 16.26-8.31 3.1-3.33 4.53-7.06 4.24-11.09-.72-10.13-.92-12.31-.97-12.77-.02-.11-.04-.22-.04-.33 0-.81.64-1.49 1.45-1.51 1.03 0 1.36.4 1.54 1.52s0 .03 0 .04c.07.46.12 1.03.17 1.73.14 1.72.38 4.98.82 11.12.35 4.89-1.35 9.38-5.04 13.34-6.02 6.46-15.13 9.26-18.46 9.26z"/>
    <path
        d="m327.4 464.53c-2.98 0-6.18-.15-9.63-.47-.83-.08-1.43-.81-1.35-1.63.08-.83.82-1.44 1.63-1.35 27.71 2.58 38.6-6.31 42.62-11.84 3.71-5.1 3.74-10.01 2.86-12.08-3.14-7.32-6.84-14.09-12.62-14.09-.44 0-.86-.19-1.14-.53-.29-.34-.41-.78-.33-1.22.03-.2.67-5.24-6.19-10.43-.66-.5-.79-1.44-.29-2.1s1.44-.79 2.1-.29c6.01 4.54 7.2 9.26 7.38 11.68 7.58 1.13 11.63 10.58 13.86 15.8 1.38 3.23.97 9.3-3.19 15.02-3.88 5.33-13.47 13.53-35.7 13.53z"/>
    <path
        d="m329.07 436.38c-.58 0-1.17-.02-1.76-.05-.83-.05-1.46-.76-1.41-1.59s.75-1.46 1.59-1.41c11.75.69 21.39-6.85 21.49-6.93.65-.52 1.59-.41 2.11.24s.41 1.59-.23 2.11c-.41.33-9.69 7.63-21.78 7.63z"/>
    <path
        d="m201.82 436.4c-1.75 0-2.49-.75-2.81-1.38-.82-1.63-2.23-5.71-2.8-7.39-2.55.15-10.57.3-15.86-3.22-.46-.31-.58-.93-.28-1.39.31-.46.93-.58 1.39-.28 5.64 3.76 15.25 2.85 15.35 2.84.46-.04.9.24 1.05.68.02.06 1.99 5.96 2.95 7.87.07.14.41.28 1.02.28 1.96 0 4.72-1.33 5.19-2.28.55-1.1-.27-4.28-1.03-6.18-.12-.31-.08-.66.1-.93.19-.27.5-.44.83-.44.25 0 6.36-.13 9.06-7.35.19-.52.77-.78 1.29-.58.52.19.78.77.58 1.29-2.41 6.43-7.2 8.08-9.56 8.5.59 1.78 1.39 4.86.52 6.59-.94 1.87-4.58 3.38-6.98 3.38z"/>
    <path
        d="m171.41 405.07c-.55 0-1-.45-1-1v-3c0-.31.14-.6.38-.79s.56-.26.86-.18l1.55.39c-.96-1.15-2.61-2.76-5.35-4.59-.46-.31-.58-.93-.28-1.39s.92-.58 1.39-.28c6.21 4.14 7.35 7.38 7.39 7.52.12.35.03.73-.21 1-.25.27-.62.38-.98.29l-2.76-.69v1.72c0 .55-.45 1-1 1z"/>
    <path
        d="m214.41 397.07c-.16 0-.33-.04-.48-.12-.32-.17-.52-.51-.52-.88v-1.2l-1.68 1.05c-.37.23-.86.19-1.19-.1s-.43-.77-.25-1.17c3.25-7.08 5.33-9.2 5.42-9.29.39-.39 1.02-.39 1.41 0s.39 1.02 0 1.41c-.03.03-1.35 1.42-3.51 5.62l.27-.17c.31-.19.7-.2 1.01-.03.32.18.51.51.51.87v1.16l.46-.3c.46-.3 1.08-.17 1.38.29s.17 1.08-.29 1.38l-2 1.3c-.17.11-.35.16-.54.16z"/>
    <path
        d="m201.41 443.07c-.22 0-.44-.07-.62-.22-.43-.34-.5-.97-.16-1.41 1.75-2.19 3.32-5.17 2.89-6.13-.23-.5 0-1.1.5-1.32.51-.23 1.1 0 1.32.5 1.18 2.59-2.41 7.29-3.15 8.2-.2.25-.49.38-.78.38z"/>
    <path
        d="m212.41 442.07c-.1 0-.21-.02-.32-.05-.63-.21-6.23-2.1-8.15-3.68-.43-.35-.49-.98-.13-1.41.35-.42.98-.49 1.41-.13 1.38 1.14 5.89 2.79 7.51 3.33.52.17.81.74.63 1.26-.14.42-.53.68-.95.68z"/>
    <path
        d="m187.41 416.07c-.32 0-.64-.16-.83-.44-.09-.13-2.13-3.25-3.15-9.39-.09-.54.28-1.06.82-1.15.54-.1 1.06.28 1.15.82.95 5.68 2.83 8.58 2.85 8.61.3.46.18 1.08-.28 1.38-.17.11-.36.17-.55.17z"/>
    <path
        d="m200.41 415.07c-.46 0-.87-.32-.98-.78-.02-.09-2.01-8.89-5.86-14.66-.31-.46-.18-1.08.28-1.39s1.08-.18 1.39.28c4.06 6.08 6.06 14.96 6.14 15.34.12.54-.22 1.07-.76 1.19-.07.02-.15.02-.22.02z"/>
    <path
        d="m212.41 412.94c-.44 0-.85-.3-.97-.75-.01-.04-1.02-3.91-2.98-9.81-.17-.52.11-1.09.63-1.26.53-.18 1.09.11 1.26.63 1.99 5.96 3.01 9.9 3.02 9.94.14.53-.18 1.08-.72 1.22-.08.02-.17.03-.25.03z"/>
    <path
        d="m170.41 446.07c-.12 0-.25-.02-.37-.07-.51-.21-.76-.79-.56-1.3 2.2-5.49 9.14-6.34 9.43-6.38.55-.07 1.04.33 1.11.88s-.33 1.04-.88 1.11c-.06 0-6.05.76-7.8 5.13-.16.39-.53.63-.93.63z"/>
    <path
        d="m177.41 450.07c-.1 0-.21-.02-.32-.05-.52-.17-.81-.74-.63-1.26 1.12-3.35 5.32-5.49 5.5-5.58.5-.24 1.09-.05 1.34.45s.05 1.09-.45 1.34c-.04.02-3.64 1.86-4.5 4.42-.14.42-.53.68-.95.68z"/>
    <path
        d="m250.41 397.07c-.42 0-.81-.26-.95-.68-.02-.05-2.06-5.83-10.67-12.53-.44-.34-.51-.97-.17-1.4s.97-.52 1.4-.17c9.13 7.1 11.25 13.22 11.33 13.47.17.52-.11 1.09-.63 1.26-.11.04-.21.05-.32.05z"/>
    <path
        d="m254.41 388.07c-.42 0-.81-.26-.95-.68 0-.02-1.04-2.89-5.76-7.61-.39-.39-.39-1.02 0-1.41s1.02-.39 1.41 0c5.11 5.11 6.2 8.26 6.24 8.39.17.52-.11 1.09-.63 1.26-.11.04-.21.05-.32.05z"/>
    <path
        d="m265.41 391.07c-.55 0-1-.45-1-1 0-.07-.06-6.72-3.78-11.38-.34-.43-.27-1.06.16-1.41s1.06-.28 1.41.16c4.17 5.21 4.22 12.33 4.22 12.62 0 .55-.45 1-1 1z"/>
    <path
        d="m270.41 382.07c-.37 0-.72-.2-.9-.55 0-.02-1-1.99-2.94-4.89-.31-.46-.18-1.08.28-1.39s1.08-.18 1.39.28c2.01 3.02 3.02 5.02 3.06 5.11.25.49.05 1.09-.45 1.34-.14.07-.3.11-.45.11z"/>
    <path
        d="m335.41 459.07s-.07 0-.1 0c-.55-.05-.95-.54-.9-1.09 0-.1.9-9.77-3.85-17.37-.29-.47-.15-1.09.32-1.38s1.09-.15 1.38.32c5.12 8.2 4.19 18.21 4.15 18.63-.05.52-.49.9-.99.9z"/>
    <path
        d="m340.41 453.07c-.55 0-1-.45-1-1 0-.05-.03-4.82-1.77-8.34-.25-.5-.04-1.09.45-1.34.5-.25 1.09-.04 1.34.45 1.95 3.95 1.98 9.02 1.98 9.23 0 .55-.45 1-1 1z"/>
    <path
        d="m352.41 453.07c-.06 0-.13 0-.2-.02-.54-.11-.89-.63-.79-1.17.02-.1 1.8-9.58-4.73-16.1-.39-.39-.39-1.02 0-1.41s1.02-.39 1.41 0c7.29 7.29 5.36 17.47 5.27 17.9-.09.47-.51.8-.98.8z"/>
    <path
        d="m358.41 445.07c-.55 0-1-.45-1-1 0-.05-.04-4.63-2.71-7.29-.39-.39-.39-1.02 0-1.41s1.02-.39 1.41 0c3.26 3.26 3.29 8.49 3.29 8.71 0 .55-.45 1-1 1z"/>
    <path
        d="m339.41 423.07c-.15 0-.3-.03-.45-.11-.49-.25-.69-.85-.45-1.34.09-.18 2.23-4.36 7.52-6.48.51-.21 1.09.04 1.3.56.21.51-.04 1.09-.56 1.3-4.59 1.84-6.46 5.48-6.48 5.52-.18.35-.53.55-.9.55z"/>
    <path
        d="m231.41 444.07c-.48 0-.9-.35-.99-.84-.04-.21-.98-5.31-6.18-6.18-.54-.09-.91-.61-.82-1.15s.6-.92 1.15-.82c5.3.88 7.44 5.5 7.82 7.82.09.54-.28 1.06-.82 1.15-.06 0-.11.01-.17.01z"/>
    <path
        d="m235.41 437.07c-.55 0-1-.45-1-1s-.22-1.38-3.34-2.52c-.52-.19-.79-.76-.6-1.28s.76-.78 1.28-.6c4.53 1.66 4.66 4.13 4.66 4.4 0 .55-.45 1-1 1z"/>
    <path d="m270.41 334.57c-.55 0-1-.45-1-1v-42.58c0-.55.45-1 1-1s1 .45 1 1v42.58c0 .55-.45 1-1 1z"/>
    <path d="m284.28 344.07c-.55 0-1-.45-1-1v-35.5c0-.55.45-1 1-1s1 .45 1 1v35.5c0 .55-.45 1-1 1z"/>
    <path d="m259 324.07c-.55 0-1-.45-1-1v-10.79c0-.55.45-1 1-1s1 .45 1 1v10.79c0 .55-.45 1-1 1z"/>
    <path d="m251.41 475.69c-.55 0-1-.45-1-1v-31.62c0-.55.45-1 1-1s1 .45 1 1v31.62c0 .55-.45 1-1 1z"/>
    <path d="m264.37 477.22c-.55 0-1-.45-1-1v-65.65c0-.55.45-1 1-1s1 .45 1 1v65.65c0 .55-.45 1-1 1z"/>
    <path d="m279.49 464.03c-.55 0-1-.45-1-1v-51.96c0-.55.45-1 1-1s1 .45 1 1v51.96c0 .55-.45 1-1 1z"/>
    <path d="m298.83 438.56c-.55 0-1-.45-1-1v-9.99c0-.55.45-1 1-1s1 .45 1 1v9.99c0 .55-.45 1-1 1z"/>
    <path d="m320.41 363.67c-.55 0-1-.45-1-1v-56.6c0-.55.45-1 1-1s1 .45 1 1v56.6c0 .55-.45 1-1 1z"/>
    <path d="m339.41 315.07c-.55 0-1-.45-1-1v-10c0-.55.45-1 1-1s1 .45 1 1v10c0 .55-.45 1-1 1z"/>
    <path d="m339.41 337.24c-.55 0-1-.45-1-1v-13.17c0-.55.45-1 1-1s1 .45 1 1v13.17c0 .55-.45 1-1 1z"/>
    <path d="m422.41 323.07c-.55 0-1-.45-1-1v-22c0-.55.45-1 1-1s1 .45 1 1v22c0 .55-.45 1-1 1z"/>
    <path d="m423.3 355.82c-.55 0-1-.45-1-1v-16.25c0-.55.45-1 1-1s1 .45 1 1v16.25c0 .55-.45 1-1 1z"/>
    <path d="m422.41 377.07c-.55 0-1-.45-1-1v-7.47c0-.55.45-1 1-1s1 .45 1 1v7.47c0 .55-.45 1-1 1z"/>
    <path d="m433.83 365.77c-.55 0-1-.45-1-1v-42.7c0-.55.45-1 1-1s1 .45 1 1v42.7c0 .55-.45 1-1 1z"/>
    <path d="m450.11 318.67c-.55 0-1-.45-1-1v-26.69c0-.55.45-1 1-1s1 .45 1 1v26.69c0 .55-.45 1-1 1z"/>
    <path d="m437.66 487.57c-.55 0-1-.45-1-1v-43.5c0-.55.45-1 1-1s1 .45 1 1v43.5c0 .55-.45 1-1 1z"/>
    <path d="m448.39 453.07c-.55 0-1-.45-1-1v-16.67c0-.55.45-1 1-1s1 .45 1 1v16.67c0 .55-.45 1-1 1z"/>
    <path d="m448.39 472.82c-.55 0-1-.45-1-1v-9.58c0-.55.45-1 1-1s1 .45 1 1v9.58c0 .55-.45 1-1 1z"/>
    <path d="m464.41 465.82c-.55 0-1-.45-1-1v-39.75c0-.55.45-1 1-1s1 .45 1 1v39.75c0 .55-.45 1-1 1z"/>
    <path d="m475.35 475.69c-.55 0-1-.45-1-1v-13.79c0-.55.45-1 1-1s1 .45 1 1v13.79c0 .55-.45 1-1 1z"/>
    <path
        d="m231.41 282.07s-.08 0-.11 0c-.55-.06-.94-.56-.88-1.1.04-.38 1.12-9.28 9.11-14.51l5.91-26.6c.12-.54.66-.87 1.19-.76.54.12.88.65.76 1.19l-6 27c-.06.26-.22.49-.45.63-7.47 4.67-8.53 13.18-8.54 13.26-.06.51-.49.89-.99.89z"/>
    <path
        d="m253.41 291.07c-.41 0-.79-.25-.94-.66-4.17-11.47 3.89-19.7 4.23-20.05.39-.39 1.02-.39 1.41 0s.39 1.02 0 1.41c-.31.31-7.49 7.71-3.77 17.95.19.52-.08 1.09-.6 1.28-.11.04-.23.06-.34.06z"/>
    <path
        d="m267.41 286.07c-.07 0-.14 0-.21-.02-.54-.12-.88-.65-.77-1.19.13-.59 3.17-14.45 10.21-19.11.46-.3 1.08-.18 1.39.28.3.46.18 1.08-.28 1.39-6.37 4.21-9.33 17.73-9.36 17.87-.1.47-.52.79-.98.79z"/>
    <path
        d="m278.41 284.07c-.55 0-1-.45-1-1 0-.27.05-6.54 4.4-9.8.44-.33 1.07-.24 1.4.2s.24 1.07-.2 1.4c-3.54 2.66-3.6 8.15-3.6 8.2 0 .55-.45 1-1 1z"/>
    <path
        d="m333.38 287.03c-.48 0-.91-.35-.99-.84-.09-.54.28-1.06.82-1.15 17.32-2.85 25.25-16.34 25.32-16.47.28-.48.88-.64 1.37-.37.48.27.64.88.37 1.36-.34.59-8.45 14.45-26.74 17.45-.05 0-.11.01-.16.01z"/>
    <path
        d="m361.41 282.07c-.38 0-.75-.22-.92-.59-.22-.5 0-1.1.51-1.32.18-.08 17.81-7.99 23.57-16.64.3-.46.92-.58 1.39-.28.46.31.58.93.28 1.39-6.09 9.14-23.68 17.03-24.43 17.36-.13.06-.27.09-.41.09z"/>
    <path
        d="m380.99 290.8c-.4 0-.77-.24-.93-.63-.2-.51.05-1.09.56-1.3 9.04-3.58 15.9-13.28 15.97-13.38.32-.45.94-.56 1.39-.25.45.32.56.94.25 1.39-.29.42-7.28 10.29-16.87 14.09-.12.05-.25.07-.37.07z"/>
    <path
        d="m425.41 279.07c-.5 0-.93-.37-.99-.87-.04-.35-.96-8.75 9.58-14.39.49-.26 1.09-.08 1.35.41s.08 1.09-.41 1.35c-9.29 4.97-8.58 12.08-8.54 12.38.06.55-.33 1.04-.87 1.11-.04 0-.08 0-.12 0z"/>
    <path
        d="m434.41 287.07c-.52 0-.96-.41-1-.93 0-.16-.88-15.77 13.74-22.36.5-.23 1.1 0 1.32.5.23.5 0 1.1-.5 1.32-13.36 6.03-12.57 20.26-12.56 20.41.04.55-.38 1.03-.93 1.06-.02 0-.04 0-.07 0z"/>
    <path
        d="m447.3 279.07c-.19 0-.39-.06-.56-.17-.46-.31-.58-.93-.26-1.39.26-.38 6.49-9.36 21.68-13.4.53-.14 1.08.17 1.22.71.14.53-.17 1.08-.71 1.22-14.42 3.85-20.48 12.51-20.54 12.6-.19.28-.51.44-.83.44z"/>
    <path
        d="m457.41 290.07c-.14 0-.29-.03-.43-.1-.5-.24-.71-.83-.48-1.33.33-.71 8.45-17.48 31.34-24.91.52-.17 1.09.12 1.26.64s-.12 1.09-.64 1.26c-22.03 7.15-30.07 23.69-30.15 23.86-.17.36-.53.57-.91.57z"/>
    <path
        d="m275.41 249.07s-.08 0-.12 0c-.55-.07-.94-.57-.87-1.12l1.79-14.28c.07-.55.57-.94 1.12-.87s.94.57.87 1.12l-1.79 14.28c-.06.51-.49.88-.99.88z"/>
    <path
        d="m409.41 255.07c-.43 0-.82-.27-.95-.7l-5-16c-.17-.53.13-1.09.66-1.25.52-.17 1.09.13 1.25.66l5 16c.17.53-.13 1.09-.66 1.25-.1.03-.2.05-.3.05z"/>
    <path
        d="m436.41 236.07c-.34 0-.68-.18-.86-.49l-3.66-6.2c-.28-.48-.12-1.09.35-1.37.48-.28 1.09-.12 1.37.35l3.66 6.2c.28.48.12 1.09-.35 1.37-.16.09-.33.14-.51.14z"/>
</svg>
