<svg version="1.1" id="Layer_1" xmlns="http://www.w3.org/2000/svg" xmlns:xlink="http://www.w3.org/1999/xlink" x="0" y="0" width="1218" height="1218" viewBox="0 0 1218 1218" enable-background="new 0 0 1218 1218" xml:space="preserve"><rect x="0" y="0" width="1218" height="1218" fill="rgba(255,255,255)"/><g><g><g transform="translate(84,84) translate(336,0) scale(0.42,0.42) " fill="rgb(0, 0, 0)"><rect width="100" height="100"/></g></g><g><g transform="translate(84,84) translate(378,0) scale(0.42,0.42) " fill="rgb(0, 0, 0)"><rect width="100" height="100"/></g></g><g><g transform="translate(84,84) translate(462,0) scale(0.42,0.42) " fill="rgb(0, 0, 0)"><rect width="100" height="100"/></g></g><g><g transform="translate(84,84) translate(504,0) scale(0.42,0.42) " fill="rgb(0, 0, 0)"><rect width="100" height="100"/></g></g><g><g transform="translate(84,84) translate(672,0) scale(0.42,0.42) " fill="rgb(0, 0, 0)"><rect width="100" height="100"/></g></g><g><g transform="translate(84,84) translate(336,42) scale(0.42,0.42) " fill="rgb(0, 0, 0)"><rect width="100" height="100"/></g></g><g><g transform="translate(84,84) translate(378,42) scale(0.42,0.42) " fill="rgb(0, 0, 0)"><rect width="100" height="100"/></g></g><g><g transform="translate(84,84) translate(420,42) scale(0.42,0.42) " fill="rgb(0, 0, 0)"><rect width="100" height="100"/></g></g><g><g transform="translate(84,84) translate(462,42) scale(0.42,0.42) " fill="rgb(0, 0, 0)"><rect width="100" height="100"/></g></g><g><g transform="translate(84,84) translate(546,42) scale(0.42,0.42) " fill="rgb(0, 0, 0)"><rect width="100" height="100"/></g></g><g><g transform="translate(84,84) translate(672,42) scale(0.42,0.42) " fill="rgb(0, 0, 0)"><rect width="100" height="100"/></g></g><g><g transform="translate(84,84) translate(546,84) scale(0.42,0.42) " fill="rgb(0, 0, 0)"><rect width="100" height="100"/></g></g><g><g transform="translate(84,84) translate(630,84) scale(0.42,0.42) " fill="rgb(0, 0, 0)"><rect width="100" height="100"/></g></g><g><g transform="translate(84,84) translate(336,126) scale(0.42,0.42) " fill="rgb(0, 0, 0)"><rect width="100" height="100"/></g></g><g><g transform="translate(84,84) translate(462,126) scale(0.42,0.42) " fill="rgb(0, 0, 0)"><rect width="100" height="100"/></g></g><g><g transform="translate(84,84) translate(504,126) scale(0.42,0.42) " fill="rgb(0, 0, 0)"><rect width="100" height="100"/></g></g><g><g transform="translate(84,84) translate(546,126) scale(0.42,0.42) " fill="rgb(0, 0, 0)"><rect width="100" height="100"/></g></g><g><g transform="translate(84,84) translate(588,126) scale(0.42,0.42) " fill="rgb(0, 0, 0)"><rect width="100" height="100"/></g></g><g><g transform="translate(84,84) translate(378,168) scale(0.42,0.42) " fill="rgb(0, 0, 0)"><rect width="100" height="100"/></g></g><g><g transform="translate(84,84) translate(504,168) scale(0.42,0.42) " fill="rgb(0, 0, 0)"><rect width="100" height="100"/></g></g><g><g transform="translate(84,84) translate(630,168) scale(0.42,0.42) " fill="rgb(0, 0, 0)"><rect width="100" height="100"/></g></g><g><g transform="translate(84,84) translate(672,168) scale(0.42,0.42) " fill="rgb(0, 0, 0)"><rect width="100" height="100"/></g></g><g><g transform="translate(84,84) translate(378,210) scale(0.42,0.42) " fill="rgb(0, 0, 0)"><rect width="100" height="100"/></g></g><g><g transform="translate(84,84) translate(420,210) scale(0.42,0.42) " fill="rgb(0, 0, 0)"><rect width="100" height="100"/></g></g><g><g transform="translate(84,84) translate(504,210) scale(0.42,0.42) " fill="rgb(0, 0, 0)"><rect width="100" height="100"/></g></g><g><g transform="translate(84,84) translate(546,210) scale(0.42,0.42) " fill="rgb(0, 0, 0)"><rect width="100" height="100"/></g></g><g><g transform="translate(84,84) translate(588,210) scale(0.42,0.42) " fill="rgb(0, 0, 0)"><rect width="100" height="100"/></g></g><g><g transform="translate(84,84) translate(336,252) scale(0.42,0.42) " fill="rgb(0, 0, 0)"><rect width="100" height="100"/></g></g><g><g transform="translate(84,84) translate(420,252) scale(0.42,0.42) " fill="rgb(0, 0, 0)"><rect width="100" height="100"/></g></g><g><g transform="translate(84,84) translate(504,252) scale(0.42,0.42) " fill="rgb(0, 0, 0)"><rect width="100" height="100"/></g></g><g><g transform="translate(84,84) translate(588,252) scale(0.42,0.42) " fill="rgb(0, 0, 0)"><rect width="100" height="100"/></g></g><g><g transform="translate(84,84) translate(672,252) scale(0.42,0.42) " fill="rgb(0, 0, 0)"><rect width="100" height="100"/></g></g><g><g transform="translate(84,84) translate(336,294) scale(0.42,0.42) " fill="rgb(0, 0, 0)"><rect width="100" height="100"/></g></g><g><g transform="translate(84,84) translate(378,294) scale(0.42,0.42) " fill="rgb(0, 0, 0)"><rect width="100" height="100"/></g></g><g><g transform="translate(84,84) translate(462,294) scale(0.42,0.42) " fill="rgb(0, 0, 0)"><rect width="100" height="100"/></g></g><g><g transform="translate(84,84) translate(504,294) scale(0.42,0.42) " fill="rgb(0, 0, 0)"><rect width="100" height="100"/></g></g><g><g transform="translate(84,84) translate(588,294) scale(0.42,0.42) " fill="rgb(0, 0, 0)"><rect width="100" height="100"/></g></g><g><g transform="translate(84,84) translate(630,294) scale(0.42,0.42) " fill="rgb(0, 0, 0)"><rect width="100" height="100"/></g></g><g><g transform="translate(84,84) translate(0,336) scale(0.42,0.42) " fill="rgb(0, 0, 0)"><rect width="100" height="100"/></g></g><g><g transform="translate(84,84) translate(84,336) scale(0.42,0.42) " fill="rgb(0, 0, 0)"><rect width="100" height="100"/></g></g><g><g transform="translate(84,84) translate(126,336) scale(0.42,0.42) " fill="rgb(0, 0, 0)"><rect width="100" height="100"/></g></g><g><g transform="translate(84,84) translate(210,336) scale(0.42,0.42) " fill="rgb(0, 0, 0)"><rect width="100" height="100"/></g></g><g><g transform="translate(84,84) translate(252,336) scale(0.42,0.42) " fill="rgb(0, 0, 0)"><rect width="100" height="100"/></g></g><g><g transform="translate(84,84) translate(294,336) scale(0.42,0.42) " fill="rgb(0, 0, 0)"><rect width="100" height="100"/></g></g><g><g transform="translate(84,84) translate(378,336) scale(0.42,0.42) " fill="rgb(0, 0, 0)"><rect width="100" height="100"/></g></g><g><g transform="translate(84,84) translate(588,336) scale(0.42,0.42) " fill="rgb(0, 0, 0)"><rect width="100" height="100"/></g></g><g><g transform="translate(84,84) translate(756,336) scale(0.42,0.42) " fill="rgb(0, 0, 0)"><rect width="100" height="100"/></g></g><g><g transform="translate(84,84) translate(882,336) scale(0.42,0.42) " fill="rgb(0, 0, 0)"><rect width="100" height="100"/></g></g><g><g transform="translate(84,84) translate(966,336) scale(0.42,0.42) " fill="rgb(0, 0, 0)"><rect width="100" height="100"/></g></g><g><g transform="translate(84,84) translate(1008,336) scale(0.42,0.42) " fill="rgb(0, 0, 0)"><rect width="100" height="100"/></g></g><g><g transform="translate(84,84) translate(0,378) scale(0.42,0.42) " fill="rgb(0, 0, 0)"><rect width="100" height="100"/></g></g><g><g transform="translate(84,84) translate(84,378) scale(0.42,0.42) " fill="rgb(0, 0, 0)"><rect width="100" height="100"/></g></g><g><g transform="translate(84,84) translate(210,378) scale(0.42,0.42) " fill="rgb(0, 0, 0)"><rect width="100" height="100"/></g></g><g><g transform="translate(84,84) translate(420,378) scale(0.42,0.42) " fill="rgb(0, 0, 0)"><rect width="100" height="100"/></g></g><g><g transform="translate(84,84) translate(504,378) scale(0.42,0.42) " fill="rgb(0, 0, 0)"><rect width="100" height="100"/></g></g><g><g transform="translate(84,84) translate(588,378) scale(0.42,0.42) " fill="rgb(0, 0, 0)"><rect width="100" height="100"/></g></g><g><g transform="translate(84,84) translate(672,378) scale(0.42,0.42) " fill="rgb(0, 0, 0)"><rect width="100" height="100"/></g></g><g><g transform="translate(84,84) translate(714,378) scale(0.42,0.42) " fill="rgb(0, 0, 0)"><rect width="100" height="100"/></g></g><g><g transform="translate(84,84) translate(798,378) scale(0.42,0.42) " fill="rgb(0, 0, 0)"><rect width="100" height="100"/></g></g><g><g transform="translate(84,84) translate(966,378) scale(0.42,0.42) " fill="rgb(0, 0, 0)"><rect width="100" height="100"/></g></g><g><g transform="translate(84,84) translate(0,420) scale(0.42,0.42) " fill="rgb(0, 0, 0)"><rect width="100" height="100"/></g></g><g><g transform="translate(84,84) translate(42,420) scale(0.42,0.42) " fill="rgb(0, 0, 0)"><rect width="100" height="100"/></g></g><g><g transform="translate(84,84) translate(84,420) scale(0.42,0.42) " fill="rgb(0, 0, 0)"><rect width="100" height="100"/></g></g><g><g transform="translate(84,84) translate(210,420) scale(0.42,0.42) " fill="rgb(0, 0, 0)"><rect width="100" height="100"/></g></g><g><g transform="translate(84,84) translate(252,420) scale(0.42,0.42) " fill="rgb(0, 0, 0)"><rect width="100" height="100"/></g></g><g><g transform="translate(84,84) translate(294,420) scale(0.42,0.42) " fill="rgb(0, 0, 0)"><rect width="100" height="100"/></g></g><g><g transform="translate(84,84) translate(420,420) scale(0.42,0.42) " fill="rgb(0, 0, 0)"><rect width="100" height="100"/></g></g><g><g transform="translate(84,84) translate(462,420) scale(0.42,0.42) " fill="rgb(0, 0, 0)"><rect width="100" height="100"/></g></g><g><g transform="translate(84,84) translate(504,420) scale(0.42,0.42) " fill="rgb(0, 0, 0)"><rect width="100" height="100"/></g></g><g><g transform="translate(84,84) translate(546,420) scale(0.42,0.42) " fill="rgb(0, 0, 0)"><rect width="100" height="100"/></g></g><g><g transform="translate(84,84) translate(714,420) scale(0.42,0.42) " fill="rgb(0, 0, 0)"><rect width="100" height="100"/></g></g><g><g transform="translate(84,84) translate(798,420) scale(0.42,0.42) " fill="rgb(0, 0, 0)"><rect width="100" height="100"/></g></g><g><g transform="translate(84,84) translate(42,462) scale(0.42,0.42) " fill="rgb(0, 0, 0)"><rect width="100" height="100"/></g></g><g><g transform="translate(84,84) translate(126,462) scale(0.42,0.42) " fill="rgb(0, 0, 0)"><rect width="100" height="100"/></g></g><g><g transform="translate(84,84) translate(168,462) scale(0.42,0.42) " fill="rgb(0, 0, 0)"><rect width="100" height="100"/></g></g><g><g transform="translate(84,84) translate(336,462) scale(0.42,0.42) " fill="rgb(0, 0, 0)"><rect width="100" height="100"/></g></g><g><g transform="translate(84,84) translate(378,462) scale(0.42,0.42) " fill="rgb(0, 0, 0)"><rect width="100" height="100"/></g></g><g><g transform="translate(84,84) translate(420,462) scale(0.42,0.42) " fill="rgb(0, 0, 0)"><rect width="100" height="100"/></g></g><g><g transform="translate(84,84) translate(504,462) scale(0.42,0.42) " fill="rgb(0, 0, 0)"><rect width="100" height="100"/></g></g><g><g transform="translate(84,84) translate(546,462) scale(0.42,0.42) " fill="rgb(0, 0, 0)"><rect width="100" height="100"/></g></g><g><g transform="translate(84,84) translate(588,462) scale(0.42,0.42) " fill="rgb(0, 0, 0)"><rect width="100" height="100"/></g></g><g><g transform="translate(84,84) translate(630,462) scale(0.42,0.42) " fill="rgb(0, 0, 0)"><rect width="100" height="100"/></g></g><g><g transform="translate(84,84) translate(756,462) scale(0.42,0.42) " fill="rgb(0, 0, 0)"><rect width="100" height="100"/></g></g><g><g transform="translate(84,84) translate(840,462) scale(0.42,0.42) " fill="rgb(0, 0, 0)"><rect width="100" height="100"/></g></g><g><g transform="translate(84,84) translate(882,462) scale(0.42,0.42) " fill="rgb(0, 0, 0)"><rect width="100" height="100"/></g></g><g><g transform="translate(84,84) translate(924,462) scale(0.42,0.42) " fill="rgb(0, 0, 0)"><rect width="100" height="100"/></g></g><g><g transform="translate(84,84) translate(42,504) scale(0.42,0.42) " fill="rgb(0, 0, 0)"><rect width="100" height="100"/></g></g><g><g transform="translate(84,84) translate(168,504) scale(0.42,0.42) " fill="rgb(0, 0, 0)"><rect width="100" height="100"/></g></g><g><g transform="translate(84,84) translate(210,504) scale(0.42,0.42) " fill="rgb(0, 0, 0)"><rect width="100" height="100"/></g></g><g><g transform="translate(84,84) translate(252,504) scale(0.42,0.42) " fill="rgb(0, 0, 0)"><rect width="100" height="100"/></g></g><g><g transform="translate(84,84) translate(294,504) scale(0.42,0.42) " fill="rgb(0, 0, 0)"><rect width="100" height="100"/></g></g><g><g transform="translate(84,84) translate(378,504) scale(0.42,0.42) " fill="rgb(0, 0, 0)"><rect width="100" height="100"/></g></g><g><g transform="translate(84,84) translate(462,504) scale(0.42,0.42) " fill="rgb(0, 0, 0)"><rect width="100" height="100"/></g></g><g><g transform="translate(84,84) translate(546,504) scale(0.42,0.42) " fill="rgb(0, 0, 0)"><rect width="100" height="100"/></g></g><g><g transform="translate(84,84) translate(588,504) scale(0.42,0.42) " fill="rgb(0, 0, 0)"><rect width="100" height="100"/></g></g><g><g transform="translate(84,84) translate(714,504) scale(0.42,0.42) " fill="rgb(0, 0, 0)"><rect width="100" height="100"/></g></g><g><g transform="translate(84,84) translate(756,504) scale(0.42,0.42) " fill="rgb(0, 0, 0)"><rect width="100" height="100"/></g></g><g><g transform="translate(84,84) translate(840,504) scale(0.42,0.42) " fill="rgb(0, 0, 0)"><rect width="100" height="100"/></g></g><g><g transform="translate(84,84) translate(924,504) scale(0.42,0.42) " fill="rgb(0, 0, 0)"><rect width="100" height="100"/></g></g><g><g transform="translate(84,84) translate(966,504) scale(0.42,0.42) " fill="rgb(0, 0, 0)"><rect width="100" height="100"/></g></g><g><g transform="translate(84,84) translate(1008,504) scale(0.42,0.42) " fill="rgb(0, 0, 0)"><rect width="100" height="100"/></g></g><g><g transform="translate(84,84) translate(84,546) scale(0.42,0.42) " fill="rgb(0, 0, 0)"><rect width="100" height="100"/></g></g><g><g transform="translate(84,84) translate(210,546) scale(0.42,0.42) " fill="rgb(0, 0, 0)"><rect width="100" height="100"/></g></g><g><g transform="translate(84,84) translate(378,546) scale(0.42,0.42) " fill="rgb(0, 0, 0)"><rect width="100" height="100"/></g></g><g><g transform="translate(84,84) translate(462,546) scale(0.42,0.42) " fill="rgb(0, 0, 0)"><rect width="100" height="100"/></g></g><g><g transform="translate(84,84) translate(588,546) scale(0.42,0.42) " fill="rgb(0, 0, 0)"><rect width="100" height="100"/></g></g><g><g transform="translate(84,84) translate(630,546) scale(0.42,0.42) " fill="rgb(0, 0, 0)"><rect width="100" height="100"/></g></g><g><g transform="translate(84,84) translate(714,546) scale(0.42,0.42) " fill="rgb(0, 0, 0)"><rect width="100" height="100"/></g></g><g><g transform="translate(84,84) translate(756,546) scale(0.42,0.42) " fill="rgb(0, 0, 0)"><rect width="100" height="100"/></g></g><g><g transform="translate(84,84) translate(798,546) scale(0.42,0.42) " fill="rgb(0, 0, 0)"><rect width="100" height="100"/></g></g><g><g transform="translate(84,84) translate(840,546) scale(0.42,0.42) " fill="rgb(0, 0, 0)"><rect width="100" height="100"/></g></g><g><g transform="translate(84,84) translate(1008,546) scale(0.42,0.42) " fill="rgb(0, 0, 0)"><rect width="100" height="100"/></g></g><g><g transform="translate(84,84) translate(42,588) scale(0.42,0.42) " fill="rgb(0, 0, 0)"><rect width="100" height="100"/></g></g><g><g transform="translate(84,84) translate(126,588) scale(0.42,0.42) " fill="rgb(0, 0, 0)"><rect width="100" height="100"/></g></g><g><g transform="translate(84,84) translate(252,588) scale(0.42,0.42) " fill="rgb(0, 0, 0)"><rect width="100" height="100"/></g></g><g><g transform="translate(84,84) translate(420,588) scale(0.42,0.42) " fill="rgb(0, 0, 0)"><rect width="100" height="100"/></g></g><g><g transform="translate(84,84) translate(504,588) scale(0.42,0.42) " fill="rgb(0, 0, 0)"><rect width="100" height="100"/></g></g><g><g transform="translate(84,84) translate(546,588) scale(0.42,0.42) " fill="rgb(0, 0, 0)"><rect width="100" height="100"/></g></g><g><g transform="translate(84,84) translate(672,588) scale(0.42,0.42) " fill="rgb(0, 0, 0)"><rect width="100" height="100"/></g></g><g><g transform="translate(84,84) translate(840,588) scale(0.42,0.42) " fill="rgb(0, 0, 0)"><rect width="100" height="100"/></g></g><g><g transform="translate(84,84) translate(924,588) scale(0.42,0.42) " fill="rgb(0, 0, 0)"><rect width="100" height="100"/></g></g><g><g transform="translate(84,84) translate(966,588) scale(0.42,0.42) " fill="rgb(0, 0, 0)"><rect width="100" height="100"/></g></g><g><g transform="translate(84,84) translate(0,630) scale(0.42,0.42) " fill="rgb(0, 0, 0)"><rect width="100" height="100"/></g></g><g><g transform="translate(84,84) translate(126,630) scale(0.42,0.42) " fill="rgb(0, 0, 0)"><rect width="100" height="100"/></g></g><g><g transform="translate(84,84) translate(168,630) scale(0.42,0.42) " fill="rgb(0, 0, 0)"><rect width="100" height="100"/></g></g><g><g transform="translate(84,84) translate(294,630) scale(0.42,0.42) " fill="rgb(0, 0, 0)"><rect width="100" height="100"/></g></g><g><g transform="translate(84,84) translate(336,630) scale(0.42,0.42) " fill="rgb(0, 0, 0)"><rect width="100" height="100"/></g></g><g><g transform="translate(84,84) translate(504,630) scale(0.42,0.42) " fill="rgb(0, 0, 0)"><rect width="100" height="100"/></g></g><g><g transform="translate(84,84) translate(588,630) scale(0.42,0.42) " fill="rgb(0, 0, 0)"><rect width="100" height="100"/></g></g><g><g transform="translate(84,84) translate(630,630) scale(0.42,0.42) " fill="rgb(0, 0, 0)"><rect width="100" height="100"/></g></g><g><g transform="translate(84,84) translate(672,630) scale(0.42,0.42) " fill="rgb(0, 0, 0)"><rect width="100" height="100"/></g></g><g><g transform="translate(84,84) translate(714,630) scale(0.42,0.42) " fill="rgb(0, 0, 0)"><rect width="100" height="100"/></g></g><g><g transform="translate(84,84) translate(798,630) scale(0.42,0.42) " fill="rgb(0, 0, 0)"><rect width="100" height="100"/></g></g><g><g transform="translate(84,84) translate(840,630) scale(0.42,0.42) " fill="rgb(0, 0, 0)"><rect width="100" height="100"/></g></g><g><g transform="translate(84,84) translate(1008,630) scale(0.42,0.42) " fill="rgb(0, 0, 0)"><rect width="100" height="100"/></g></g><g><g transform="translate(84,84) translate(84,672) scale(0.42,0.42) " fill="rgb(0, 0, 0)"><rect width="100" height="100"/></g></g><g><g transform="translate(84,84) translate(126,672) scale(0.42,0.42) " fill="rgb(0, 0, 0)"><rect width="100" height="100"/></g></g><g><g transform="translate(84,84) translate(252,672) scale(0.42,0.42) " fill="rgb(0, 0, 0)"><rect width="100" height="100"/></g></g><g><g transform="translate(84,84) translate(294,672) scale(0.42,0.42) " fill="rgb(0, 0, 0)"><rect width="100" height="100"/></g></g><g><g transform="translate(84,84) translate(420,672) scale(0.42,0.42) " fill="rgb(0, 0, 0)"><rect width="100" height="100"/></g></g><g><g transform="translate(84,84) translate(462,672) scale(0.42,0.42) " fill="rgb(0, 0, 0)"><rect width="100" height="100"/></g></g><g><g transform="translate(84,84) translate(546,672) scale(0.42,0.42) " fill="rgb(0, 0, 0)"><rect width="100" height="100"/></g></g><g><g transform="translate(84,84) translate(672,672) scale(0.42,0.42) " fill="rgb(0, 0, 0)"><rect width="100" height="100"/></g></g><g><g transform="translate(84,84) translate(714,672) scale(0.42,0.42) " fill="rgb(0, 0, 0)"><rect width="100" height="100"/></g></g><g><g transform="translate(84,84) translate(756,672) scale(0.42,0.42) " fill="rgb(0, 0, 0)"><rect width="100" height="100"/></g></g><g><g transform="translate(84,84) translate(798,672) scale(0.42,0.42) " fill="rgb(0, 0, 0)"><rect width="100" height="100"/></g></g><g><g transform="translate(84,84) translate(840,672) scale(0.42,0.42) " fill="rgb(0, 0, 0)"><rect width="100" height="100"/></g></g><g><g transform="translate(84,84) translate(882,672) scale(0.42,0.42) " fill="rgb(0, 0, 0)"><rect width="100" height="100"/></g></g><g><g transform="translate(84,84) translate(924,672) scale(0.42,0.42) " fill="rgb(0, 0, 0)"><rect width="100" height="100"/></g></g><g><g transform="translate(84,84) translate(966,672) scale(0.42,0.42) " fill="rgb(0, 0, 0)"><rect width="100" height="100"/></g></g><g><g transform="translate(84,84) translate(1008,672) scale(0.42,0.42) " fill="rgb(0, 0, 0)"><rect width="100" height="100"/></g></g><g><g transform="translate(84,84) translate(336,714) scale(0.42,0.42) " fill="rgb(0, 0, 0)"><rect width="100" height="100"/></g></g><g><g transform="translate(84,84) translate(420,714) scale(0.42,0.42) " fill="rgb(0, 0, 0)"><rect width="100" height="100"/></g></g><g><g transform="translate(84,84) translate(504,714) scale(0.42,0.42) " fill="rgb(0, 0, 0)"><rect width="100" height="100"/></g></g><g><g transform="translate(84,84) translate(546,714) scale(0.42,0.42) " fill="rgb(0, 0, 0)"><rect width="100" height="100"/></g></g><g><g transform="translate(84,84) translate(588,714) scale(0.42,0.42) " fill="rgb(0, 0, 0)"><rect width="100" height="100"/></g></g><g><g transform="translate(84,84) translate(672,714) scale(0.42,0.42) " fill="rgb(0, 0, 0)"><rect width="100" height="100"/></g></g><g><g transform="translate(84,84) translate(840,714) scale(0.42,0.42) " fill="rgb(0, 0, 0)"><rect width="100" height="100"/></g></g><g><g transform="translate(84,84) translate(924,714) scale(0.42,0.42) " fill="rgb(0, 0, 0)"><rect width="100" height="100"/></g></g><g><g transform="translate(84,84) translate(1008,714) scale(0.42,0.42) " fill="rgb(0, 0, 0)"><rect width="100" height="100"/></g></g><g><g transform="translate(84,84) translate(336,756) scale(0.42,0.42) " fill="rgb(0, 0, 0)"><rect width="100" height="100"/></g></g><g><g transform="translate(84,84) translate(378,756) scale(0.42,0.42) " fill="rgb(0, 0, 0)"><rect width="100" height="100"/></g></g><g><g transform="translate(84,84) translate(462,756) scale(0.42,0.42) " fill="rgb(0, 0, 0)"><rect width="100" height="100"/></g></g><g><g transform="translate(84,84) translate(504,756) scale(0.42,0.42) " fill="rgb(0, 0, 0)"><rect width="100" height="100"/></g></g><g><g transform="translate(84,84) translate(546,756) scale(0.42,0.42) " fill="rgb(0, 0, 0)"><rect width="100" height="100"/></g></g><g><g transform="translate(84,84) translate(672,756) scale(0.42,0.42) " fill="rgb(0, 0, 0)"><rect width="100" height="100"/></g></g><g><g transform="translate(84,84) translate(756,756) scale(0.42,0.42) " fill="rgb(0, 0, 0)"><rect width="100" height="100"/></g></g><g><g transform="translate(84,84) translate(840,756) scale(0.42,0.42) " fill="rgb(0, 0, 0)"><rect width="100" height="100"/></g></g><g><g transform="translate(84,84) translate(924,756) scale(0.42,0.42) " fill="rgb(0, 0, 0)"><rect width="100" height="100"/></g></g><g><g transform="translate(84,84) translate(966,756) scale(0.42,0.42) " fill="rgb(0, 0, 0)"><rect width="100" height="100"/></g></g><g><g transform="translate(84,84) translate(1008,756) scale(0.42,0.42) " fill="rgb(0, 0, 0)"><rect width="100" height="100"/></g></g><g><g transform="translate(84,84) translate(336,798) scale(0.42,0.42) " fill="rgb(0, 0, 0)"><rect width="100" height="100"/></g></g><g><g transform="translate(84,84) translate(420,798) scale(0.42,0.42) " fill="rgb(0, 0, 0)"><rect width="100" height="100"/></g></g><g><g transform="translate(84,84) translate(504,798) scale(0.42,0.42) " fill="rgb(0, 0, 0)"><rect width="100" height="100"/></g></g><g><g transform="translate(84,84) translate(588,798) scale(0.42,0.42) " fill="rgb(0, 0, 0)"><rect width="100" height="100"/></g></g><g><g transform="translate(84,84) translate(630,798) scale(0.42,0.42) " fill="rgb(0, 0, 0)"><rect width="100" height="100"/></g></g><g><g transform="translate(84,84) translate(672,798) scale(0.42,0.42) " fill="rgb(0, 0, 0)"><rect width="100" height="100"/></g></g><g><g transform="translate(84,84) translate(840,798) scale(0.42,0.42) " fill="rgb(0, 0, 0)"><rect width="100" height="100"/></g></g><g><g transform="translate(84,84) translate(966,798) scale(0.42,0.42) " fill="rgb(0, 0, 0)"><rect width="100" height="100"/></g></g><g><g transform="translate(84,84) translate(420,840) scale(0.42,0.42) " fill="rgb(0, 0, 0)"><rect width="100" height="100"/></g></g><g><g transform="translate(84,84) translate(462,840) scale(0.42,0.42) " fill="rgb(0, 0, 0)"><rect width="100" height="100"/></g></g><g><g transform="translate(84,84) translate(588,840) scale(0.42,0.42) " fill="rgb(0, 0, 0)"><rect width="100" height="100"/></g></g><g><g transform="translate(84,84) translate(672,840) scale(0.42,0.42) " fill="rgb(0, 0, 0)"><rect width="100" height="100"/></g></g><g><g transform="translate(84,84) translate(714,840) scale(0.42,0.42) " fill="rgb(0, 0, 0)"><rect width="100" height="100"/></g></g><g><g transform="translate(84,84) translate(756,840) scale(0.42,0.42) " fill="rgb(0, 0, 0)"><rect width="100" height="100"/></g></g><g><g transform="translate(84,84) translate(798,840) scale(0.42,0.42) " fill="rgb(0, 0, 0)"><rect width="100" height="100"/></g></g><g><g transform="translate(84,84) translate(840,840) scale(0.42,0.42) " fill="rgb(0, 0, 0)"><rect width="100" height="100"/></g></g><g><g transform="translate(84,84) translate(882,840) scale(0.42,0.42) " fill="rgb(0, 0, 0)"><rect width="100" height="100"/></g></g><g><g transform="translate(84,84) translate(1008,840) scale(0.42,0.42) " fill="rgb(0, 0, 0)"><rect width="100" height="100"/></g></g><g><g transform="translate(84,84) translate(336,882) scale(0.42,0.42) " fill="rgb(0, 0, 0)"><rect width="100" height="100"/></g></g><g><g transform="translate(84,84) translate(420,882) scale(0.42,0.42) " fill="rgb(0, 0, 0)"><rect width="100" height="100"/></g></g><g><g transform="translate(84,84) translate(504,882) scale(0.42,0.42) " fill="rgb(0, 0, 0)"><rect width="100" height="100"/></g></g><g><g transform="translate(84,84) translate(714,882) scale(0.42,0.42) " fill="rgb(0, 0, 0)"><rect width="100" height="100"/></g></g><g><g transform="translate(84,84) translate(756,882) scale(0.42,0.42) " fill="rgb(0, 0, 0)"><rect width="100" height="100"/></g></g><g><g transform="translate(84,84) translate(840,882) scale(0.42,0.42) " fill="rgb(0, 0, 0)"><rect width="100" height="100"/></g></g><g><g transform="translate(84,84) translate(882,882) scale(0.42,0.42) " fill="rgb(0, 0, 0)"><rect width="100" height="100"/></g></g><g><g transform="translate(84,84) translate(924,882) scale(0.42,0.42) " fill="rgb(0, 0, 0)"><rect width="100" height="100"/></g></g><g><g transform="translate(84,84) translate(966,882) scale(0.42,0.42) " fill="rgb(0, 0, 0)"><rect width="100" height="100"/></g></g><g><g transform="translate(84,84) translate(1008,882) scale(0.42,0.42) " fill="rgb(0, 0, 0)"><rect width="100" height="100"/></g></g><g><g transform="translate(84,84) translate(336,924) scale(0.42,0.42) " fill="rgb(0, 0, 0)"><rect width="100" height="100"/></g></g><g><g transform="translate(84,84) translate(378,924) scale(0.42,0.42) " fill="rgb(0, 0, 0)"><rect width="100" height="100"/></g></g><g><g transform="translate(84,84) translate(420,924) scale(0.42,0.42) " fill="rgb(0, 0, 0)"><rect width="100" height="100"/></g></g><g><g transform="translate(84,84) translate(462,924) scale(0.42,0.42) " fill="rgb(0, 0, 0)"><rect width="100" height="100"/></g></g><g><g transform="translate(84,84) translate(504,924) scale(0.42,0.42) " fill="rgb(0, 0, 0)"><rect width="100" height="100"/></g></g><g><g transform="translate(84,84) translate(672,924) scale(0.42,0.42) " fill="rgb(0, 0, 0)"><rect width="100" height="100"/></g></g><g><g transform="translate(84,84) translate(714,924) scale(0.42,0.42) " fill="rgb(0, 0, 0)"><rect width="100" height="100"/></g></g><g><g transform="translate(84,84) translate(756,924) scale(0.42,0.42) " fill="rgb(0, 0, 0)"><rect width="100" height="100"/></g></g><g><g transform="translate(84,84) translate(840,924) scale(0.42,0.42) " fill="rgb(0, 0, 0)"><rect width="100" height="100"/></g></g><g><g transform="translate(84,84) translate(924,924) scale(0.42,0.42) " fill="rgb(0, 0, 0)"><rect width="100" height="100"/></g></g><g><g transform="translate(84,84) translate(966,924) scale(0.42,0.42) " fill="rgb(0, 0, 0)"><rect width="100" height="100"/></g></g><g><g transform="translate(84,84) translate(378,966) scale(0.42,0.42) " fill="rgb(0, 0, 0)"><rect width="100" height="100"/></g></g><g><g transform="translate(84,84) translate(462,966) scale(0.42,0.42) " fill="rgb(0, 0, 0)"><rect width="100" height="100"/></g></g><g><g transform="translate(84,84) translate(504,966) scale(0.42,0.42) " fill="rgb(0, 0, 0)"><rect width="100" height="100"/></g></g><g><g transform="translate(84,84) translate(546,966) scale(0.42,0.42) " fill="rgb(0, 0, 0)"><rect width="100" height="100"/></g></g><g><g transform="translate(84,84) translate(588,966) scale(0.42,0.42) " fill="rgb(0, 0, 0)"><rect width="100" height="100"/></g></g><g><g transform="translate(84,84) translate(756,966) scale(0.42,0.42) " fill="rgb(0, 0, 0)"><rect width="100" height="100"/></g></g><g><g transform="translate(84,84) translate(840,966) scale(0.42,0.42) " fill="rgb(0, 0, 0)"><rect width="100" height="100"/></g></g><g><g transform="translate(84,84) translate(924,966) scale(0.42,0.42) " fill="rgb(0, 0, 0)"><rect width="100" height="100"/></g></g><g><g transform="translate(84,84) translate(336,1008) scale(0.42,0.42) " fill="rgb(0, 0, 0)"><rect width="100" height="100"/></g></g><g><g transform="translate(84,84) translate(462,1008) scale(0.42,0.42) " fill="rgb(0, 0, 0)"><rect width="100" height="100"/></g></g><g><g transform="translate(84,84) translate(504,1008) scale(0.42,0.42) " fill="rgb(0, 0, 0)"><rect width="100" height="100"/></g></g><g><g transform="translate(84,84) translate(546,1008) scale(0.42,0.42) " fill="rgb(0, 0, 0)"><rect width="100" height="100"/></g></g><g><g transform="translate(84,84) translate(756,1008) scale(0.42,0.42) " fill="rgb(0, 0, 0)"><rect width="100" height="100"/></g></g><g><g transform="translate(84,84) translate(798,1008) scale(0.42,0.42) " fill="rgb(0, 0, 0)"><rect width="100" height="100"/></g></g><g><g transform="translate(84,84) translate(840,1008) scale(0.42,0.42) " fill="rgb(0, 0, 0)"><rect width="100" height="100"/></g></g><g><g transform="translate(84,84) translate(882,1008) scale(0.42,0.42) " fill="rgb(0, 0, 0)"><rect width="100" height="100"/></g></g><g><g transform="translate(84,84) translate(924,1008) scale(0.42,0.42) " fill="rgb(0, 0, 0)"><rect width="100" height="100"/></g></g><g><g transform="translate(84,84) translate(966,1008) scale(0.42,0.42) " fill="rgb(0, 0, 0)"><rect width="100" height="100"/></g></g><g><g transform="translate(84,84) translate(1008,1008) scale(0.42,0.42) " fill="rgb(0, 0, 0)"><rect width="100" height="100"/></g></g><g><g fill="rgb(0, 0, 0)"><g transform="translate(84,84) translate(0,0) scale(2.94, 2.94) "><rect x="15" y="15" width="70" height="70" fill="none"/><path d="M85,0H15H0v15v70v15h15h70h15V85V15V0H85z M85,85H15V15h70V85z"/></g></g></g><g><g fill="rgb(0, 0, 0)"><g transform="translate(84,84) translate(756,0) scale(2.94, 2.94) "><rect x="15" y="15" width="70" height="70" fill="none"/><path d="M85,0H15H0v15v70v15h15h70h15V85V15V0H85z M85,85H15V15h70V85z"/></g></g></g><g><g fill="rgb(0, 0, 0)"><g transform="translate(84,84) translate(0,756) scale(2.94, 2.94) "><rect x="15" y="15" width="70" height="70" fill="none"/><path d="M85,0H15H0v15v70v15h15h70h15V85V15V0H85z M85,85H15V15h70V85z"/></g></g></g><g><g transform="translate(84,84) translate(84,84) scale(1.26, 1.26) " fill="rgb(0, 0, 0)"><rect width="100" height="100"/></g></g><g><g transform="translate(84,84) translate(840,84) scale(1.26, 1.26) " fill="rgb(0, 0, 0)"><rect width="100" height="100"/></g></g><g><g transform="translate(84,84) translate(84,840) scale(1.26, 1.26) " fill="rgb(0, 0, 0)"><rect width="100" height="100"/></g></g></g></svg>