<svg fill="currentColor" height="429" viewBox="0 0 544 429" width="544" xmlns="http://www.w3.org/2000/svg">

    <style>
        :root { fill:#222 }
        .accent { fill: #f9322c; }

        @media (prefers-color-scheme: dark) {
        :root {  fill: #f9322c; }
        .accent { fill:#dee2e6; }
        }
    </style>

    <path
        d="m237.6 360.373-4.628 40.65 28.225 5.23 2.845-1.279-.804-5.021 3.825 1.891v-18.161l3.559 17.251 4.652-8.682 6.99-11.353-2.571 11.933-.787 6.437 3.358-2.607 3.559-3.83-1.341 7.121h5.495l1.977.571 7.649-3.774v-31.783l-24.996 21.259-7.279-4.305z"
        class="accent"/>
    <path d="m247.522 259.801-3.776 56.196 30.162 21.017 18.978-22.868-3.383-52.752-15.241 16.504z" class="accent"/>
    <path
        d="m269.08 166.97-6.372-2.583-15.683-9.551-2.636 51.385 29.68 19.866 9.384-14.91-1.606-33.497-9.763-.571-1.823-5.681.819-4.675z"
        class="accent"/>
    <path d="m258.707 71.0576-2.041 3.4841v7.7647l21.951-2.2529 2.297-8.9959z" class="accent"/>
    <g>
        <path
            d="m244.855 238.245s-.032 0-.048 0l-17.411-.636c-.33-.008-.643-.161-.86-.41l-16.568-18.925c-.417-.483-.393-1.207.065-1.658l16.969-16.752c.249-.25.586-.37.94-.346.345.024.667.209.876.491l2.314 3.154-.868-3.597c-.088-.37 0-.756.241-1.046s.611-.451.98-.443l16.11.588c.667.024 1.181.587 1.157 1.247-.024.668-.595 1.191-1.246 1.159l-14.518-.531 1.896 7.877c.136.555-.145 1.135-.667 1.376s-1.141.08-1.478-.378l-5.038-6.864-15.169 14.975 15.474 17.677 16.889.62c.667.024 1.181.587 1.157 1.247-.024.652-.562 1.167-1.205 1.167z"/>
        <path
            d="m300.599 240.281s-.032 0-.048 0l-12.317-.451c-.667-.024-1.181-.587-1.157-1.247s.579-1.199 1.245-1.159l11.112.402 1.27-34.8-13.956-.507c-.667-.024-1.181-.587-1.157-1.247s.602-1.183 1.245-1.159l15.161.555c.667.024 1.181.588 1.157 1.247l-1.358 37.215c-.024.652-.562 1.167-1.205 1.167z"/>
        <path
            d="m300.599 240.281c-.514 0-.996-.33-1.149-.853-.193-.636.161-1.312.795-1.505l4.636-1.424 1.141-31.429-4.571-2.108c-.603-.282-.868-.998-.595-1.602.281-.603.996-.869 1.599-.595l5.303 2.446c.442.201.715.652.699 1.143l-1.205 33.094c-.016.515-.362.958-.852 1.111l-5.456 1.673c-.12.033-.233.057-.353.057z"/>
        <path
            d="m267.489 63.9446c-11.827 0-21.453-9.6395-21.453-21.4838 0-11.8442 9.626-21.4837 21.453-21.4837s21.452 9.6395 21.452 21.4837c0 11.8443-9.625 21.4838-21.452 21.4838zm0-40.5456c-10.502 0-19.042 8.5533-19.042 19.0699s8.54 19.0699 19.042 19.0699c10.501 0 19.042-8.5533 19.042-19.0699s-8.541-19.0699-19.042-19.0699z"/>
        <path
            d="m278.07 72.2646h-21.155c-2.957 0-5.359-2.4059-5.359-5.3669 0-2.9611 2.402-5.3669 5.359-5.3669h21.155c2.957 0 5.359 2.4058 5.359 5.3669 0 2.961-2.402 5.3669-5.359 5.3669zm-21.155-8.3199c-1.623 0-2.949 1.3276-2.949 2.953s1.326 2.953 2.949 2.953h21.155c1.623 0 2.949-1.3276 2.949-2.953s-1.326-2.953-2.949-2.953z"/>
        <path
            d="m264.556 407.46c-.072 0-.145 0-.209-.016l-31.584-5.616c-.611-.105-1.036-.66-.988-1.272l20.448-281.494c.048-.668.651-1.159 1.285-1.118.667.048 1.165.627 1.117 1.287l-20.368 280.408 30.516 5.431c.659.113 1.093.74.972 1.4-.104.588-.611.998-1.181.998z"/>
        <path
            d="m256.16 82.7326s-.057 0-.089 0c-.667-.0483-1.165-.6276-1.117-1.2874l.764-10.4684c.048-.6276.57-1.1184 1.205-1.1184h17.692c.667 0 1.205.5391 1.205 1.207v9.2855c0 .6678-.538 1.2069-1.205 1.2069s-1.205-.5391-1.205-1.2069v-8.0786h-15.362l-.675 9.3499c-.048.6356-.579 1.1184-1.197 1.1184z"/>
        <path
            d="m274.607 141.133c-.667 0-1.205-.539-1.205-1.207v-22.208c0-.668.538-1.207 1.205-1.207s1.205.539 1.205 1.207v22.208c0 .668-.538 1.207-1.205 1.207z"/>
        <path
            d="m274.607 394.762c-.667 0-1.205-.539-1.205-1.206v-215.876c0-.668.538-1.207 1.205-1.207s1.205.539 1.205 1.207v215.876c0 .667-.538 1.206-1.205 1.206z"/>
        <path
            d="m288.909 403.051c-.466 0-.908-.274-1.109-.724-.265-.612.016-1.32.627-1.586l8.299-3.596-13.353-219.079c-.04-.668.466-1.239 1.133-1.279s1.237.467 1.277 1.134l13.402 219.924c.032.507-.257.981-.723 1.183l-9.079 3.934c-.153.065-.322.097-.474.097z"/>
        <path
            d="m282.377 143c-.635 0-1.166-.491-1.206-1.134l-1.47-24.075c-.04-.668.466-1.239 1.133-1.28.675-.048 1.237.467 1.277 1.135l1.471 24.075c.04.668-.466 1.239-1.133 1.279-.024 0-.048 0-.072 0z"/>
        <path
            d="m278.617 81.2601c-.635 0-1.165-.4909-1.206-1.1346l-.546-8.9958c-.04-.6679.466-1.2392 1.133-1.2794.683-.0483 1.237.4667 1.277 1.1345l.547 8.9959c.04.6678-.466 1.2391-1.133 1.2794-.024 0-.048 0-.072 0z"/>
        <path
            d="m222.655 383.128c-.361 0-.723-.161-.964-.475-3.591-4.731-8.765-9.543-8.814-9.591-.361-.338-.482-.861-.305-1.328.185-.458.627-.764 1.125-.764h3.358l-2.161-6.196c-.137-.386-.064-.813.185-1.142.249-.322.643-.499 1.052-.459.177.016 4.066.418 10.373 6.019-1.904-21.106-15.459-44.32-15.603-44.561-.298-.499-.193-1.143.241-1.521.442-.378 1.084-.394 1.542-.04.547.434 13.458 10.975 23.703 46.009.184.636-.177 1.311-.82 1.497-.635.185-1.31-.177-1.494-.821-5.271-18.048-11.321-29.498-15.877-36.297 4.532 9.623 10.421 24.67 10.911 38.671.016.498-.273.949-.723 1.15-.45.193-.98.097-1.334-.257-4.073-4.08-7.199-5.939-9.087-6.775l1.929 5.519c.128.371.072.781-.153 1.095s-.595.507-.98.507h-2.089c1.888 1.891 4.684 4.836 6.942 7.813.401.531.297 1.287-.233 1.689-.217.169-.475.25-.732.25z"/>
        <path
            d="m176.721 405.03h-8.107c-.667 0-1.205-.539-1.205-1.207s.538-1.207 1.205-1.207h7.923l9.352-3.058c.313-.104.651-.072.94.081l4.604 2.454 3.495-9.977c.201-.58.811-.91 1.398-.781.594.137.996.692.94 1.304l-.675 6.646c.217-.105.458-.137.707-.097l6.154.982-4.049-4.361c-.386-.419-.434-1.054-.104-1.521.329-.467.94-.636 1.462-.41l11.24 4.868c-2.579-6.019-7.946-8.376-8.01-8.401-.45-.193-.747-.643-.731-1.142s.321-.934.787-1.103c.289-.104 6.677-2.381 13.04 3.468 4.781-13.67 10.244-15.682 10.879-15.867.45-.137.94 0 1.254.362.313.354.385.853.2 1.287-.072.169-7.52 17.155-3.704 25.524.274.603.008 1.319-.594 1.601-.603.281-1.318.008-1.599-.596-3.029-6.646-.056-17.364 2.041-23.27-1.929 2.229-4.468 6.301-6.806 13.591-.136.41-.474.724-.899.812-.426.089-.86-.056-1.149-.378-3.118-3.5-6.332-4.458-8.622-4.594 2.483 1.866 5.745 5.222 7.087 10.613.112.442-.04.917-.386 1.215-.353.297-.835.37-1.261.185l-8.453-3.661 2.515 2.703c.354.379.426.934.185 1.392-.241.459-.739.708-1.253.628l-8.871-1.408-1.703 2.382c-.321.442-.892.619-1.406.426s-.827-.708-.771-1.255l.072-.708-.586 1.689c-.121.33-.37.596-.699.725-.33.128-.691.104-1.005-.057l-5.383-2.88-9.047 2.961c-.12.04-.249.056-.378.056z"/>
        <path
            d="m302.463 383.128c-.064 0-.128 0-.193-.016-.658-.105-1.1-.724-.996-1.384 1.165-7.202 5.576-16.519 9.296-23.423-3.977 4.771-8.79 11.305-12.381 18.587-.297.595-1.012.845-1.615.547-.595-.298-.844-1.022-.546-1.617 7.504-15.224 19.781-26.859 20.303-27.342.442-.418 1.125-.434 1.591-.048s.57 1.062.249 1.577c-.129.201-12.542 19.818-14.527 32.097-.096.595-.61 1.014-1.189 1.014z"/>
        <path
            d="m315.07 401.159c-.041 0-.081 0-.121 0-.506-.048-.924-.41-1.044-.909-1.977-7.901.49-15.899 2.747-20.993-1.422 1.473-2.916 3.364-4.057 5.641-.241.474-.771.74-1.286.651-.522-.096-.924-.523-.988-1.054-.008-.088-1.036-8.875-4.057-16.64-.241-.619.064-1.319.683-1.561.618-.241 1.317.065 1.558.684 1.985 5.102 3.126 10.493 3.704 13.864 3.31-4.747 7.488-7.249 7.697-7.37.482-.282 1.101-.201 1.487.209.385.402.442 1.03.136 1.497-.072.112-6.604 10.211-5.873 20.751 3.31-6.791 8.011-14.443 21.139-16.905.595-.113 1.181.233 1.366.813.185.579-.08 1.206-.635 1.464-11.304 5.351-11.104 13.099-11.087 13.429.032.66-.483 1.231-1.141 1.264-.643.04-1.23-.475-1.262-1.135-.016-.29-.225-5.56 5.07-10.742-6.91 3.621-9.698 9.495-12.221 14.838-.249.515-.49 1.03-.731 1.537-.201.418-.626.683-1.084.683z"/>
        <path
            d="m304.046 365.289c-.538 0-1.028-.362-1.165-.909-.554-2.149-1.205-3.983-1.88-5.303-.281-.547-.105-1.215.41-1.553.514-.338 1.197-.241 1.591.234 1.06 1.271 2.064 2.687 2.972 4.2.346.571.161 1.311-.409 1.657-.113.065-.233.113-.354.145v.024c.169.644-.225 1.304-.868 1.473-.096.024-.201.04-.305.04z"/>
        <path
            d="m302.954 393.459c-.298 0-.587-.104-.82-.322-.49-.45-.514-1.215-.064-1.705 2.298-2.479 3.205-9.72 2.306-18.443-.065-.66.409-1.255 1.076-1.327.643-.065 1.254.41 1.326 1.078.37 3.621 1.261 15.803-2.941 20.333-.233.257-.562.386-.883.386z"/>
        <path
            d="m348.212 406.18c-.168 0-.337-.032-.498-.104-.402-.185-.667-.572-.707-1.006-.193-2.543 1.173-4.997 2.531-6.767l-.225.04c-.369.065-.739-.048-1.012-.298-.273-.249-.418-.611-.386-.981l.257-3.38c-1.285.942-2.924 2.261-4.114 3.645-.273.322-.69.475-1.108.403-.418-.065-.764-.346-.924-.741-1.35-3.371-1.487-6.726-1.222-9.398-2.056 3.299-4.636 8.682-6.146 16.519-.104.531-.538.926-1.077.974-.522.048-1.036-.266-1.229-.772-1.31-3.436-4.7-5.802-7.368-7.202 1.045 1.883 2.065 4.313 2.17 6.719.024.668-.49 1.231-1.157 1.255-.651.032-1.23-.491-1.254-1.159-.177-4.144-3.905-8.722-3.945-8.77-.337-.411-.369-.998-.072-1.441.297-.442.852-.643 1.358-.482.337.104 7.175 2.277 10.887 7.282 3.206-13.092 9.087-18.604 9.352-18.845.41-.378 1.036-.418 1.494-.105.466.322.643.918.434 1.441-.024.056-2.113 5.479-.602 11.249 2.37-2.221 5.134-3.935 5.278-4.024.386-.233.876-.233 1.262 0 .386.234.611.668.57 1.119l-.337 4.345 2.177-.362c.539-.089 1.061.193 1.294.676.233.482.104 1.07-.305 1.424-.86.74-2.652 2.615-3.592 4.683l2.933-2.197c.442-.33 1.052-.322 1.486.032l3.704 3.026 3.262-1.086c.297-.097.611-.081.892.048 1.157.539 2.563 1.167 3.005 1.311h10.115c.667 0 1.206.54 1.206 1.207 0 .668-.539 1.207-1.206 1.207h-10.252c-.249 0-.562 0-3.447-1.343l-3.438 1.15c-.394.129-.82.049-1.141-.209l-3.487-2.848-4.692 3.516c-.209.161-.467.241-.724.241z"/>
        <path
            d="m267.721 168.233c-.241 0-.49-.072-.707-.225l-16.888-12.19c-.539-.386-.659-1.143-.274-1.682.386-.539 1.141-.66 1.68-.273l16.888 12.19c.539.386.659 1.142.274 1.682-.233.329-.603.498-.981.498z"/>
        <path
            d="m274.607 227.825c-.257 0-.514-.089-.731-.242l-26.892-20.397c-.53-.402-.634-1.159-.233-1.69.402-.531 1.157-.635 1.688-.233l25.823 19.593 11.071-18.217c.346-.572 1.093-.749 1.656-.403.57.346.747 1.087.401 1.658l-11.762 19.36c-.177.289-.466.49-.804.555-.072.016-.152.024-.225.024z"/>
        <path
            d="m274.607 281.559c-.265 0-.514-.089-.731-.242l-30.861-23.415c-.53-.402-.635-1.158-.233-1.69.402-.531 1.157-.635 1.687-.233l29.857 22.651 14.181-20.599c.378-.547 1.133-.684 1.679-.306.547.378.683 1.135.306 1.682l-14.897 21.637c-.184.273-.474.45-.803.506-.064.009-.129.017-.193.017z"/>
        <path
            d="m274.607 335.3c-.257 0-.506-.08-.731-.241l-34.878-26.457c-.53-.402-.635-1.158-.233-1.689s1.157-.636 1.687-.234l33.93 25.741 17.347-22.297c.41-.523 1.165-.619 1.695-.209.523.41.619 1.167.209 1.698l-18.078 23.238c-.241.305-.594.466-.948.466z"/>
        <path
            d="m274.607 389.034c-.257 0-.506-.081-.731-.242l-38.614-29.297c-.531-.402-.635-1.158-.233-1.689.401-.531 1.157-.636 1.687-.234l37.69 28.597 20.456-25c.426-.515 1.181-.587 1.696-.169.514.427.586 1.183.168 1.698l-21.187 25.893c-.241.29-.586.443-.932.443z"/>
        <path
            d="m297.787 408.015c-.257 0-.506-.081-.723-.241l-3.977-3.018-6.291 2.816c-.474.21-1.028.097-1.382-.289-.354-.387-.418-.95-.161-1.408l2.877-5.094-3.511.37c-.45.041-.884-.161-1.133-.539s-.265-.861-.049-1.255c.017-.024 1.061-1.963 1.198-4.546-2.186 3.066-4.813 5.262-4.958 5.383-.345.29-.827.354-1.245.177s-.699-.571-.731-1.022c-.016-.258-.322-5.512 3.864-17.316-5.013 8.497-8.926 20.808-8.974 20.969-.169.531-.691.885-1.238.837-.554-.04-1.012-.459-1.1-1.006l-2.306-13.985.867 14.428c.033.498-.249.965-.707 1.174-.458.21-.996.105-1.349-.249l-2.194-2.197c.571 1.239 1.157 2.591 1.72 3.991.249.62-.049 1.32-.667 1.569-.619.25-1.318-.048-1.567-.668-2.242-5.56-4.925-10.387-4.957-10.436-.298-.523-.153-1.191.321-1.553.482-.362 1.157-.313 1.583.113l5.214 5.222-2.081-34.543c-.04-.644.434-1.199 1.069-1.271.643-.081 1.221.37 1.326 1.006l5.319 32.282c2.458-6.784 7.52-19.191 13.08-23.882.426-.362 1.044-.378 1.494-.048s.611.933.394 1.44c-4.532 10.661-6.01 17.469-6.492 20.993 1.342-1.424 2.989-3.428 3.969-5.592.209-.459.667-.724 1.173-.708.498.032.924.37 1.077.845.948 3.065.418 5.93-.177 7.748l3.833-.402c.458-.04.883.161 1.132.539.25.378.266.861.041 1.255l-2.226 3.943 3.608-1.609c.401-.177.867-.129 1.221.136l4.539 3.444c.531.403.635 1.159.233 1.69-.233.314-.594.475-.964.475z"/>
        <path
            d="m260.739 57.6281c-.393 0-.739-.2896-.795-.6919-.064-.4426.249-.8449.683-.9093 5.415-.7483 6.05-6.1876 6.058-6.244.048-.4425.45-.7644.884-.7161.442.0483.763.4426.715.8851 0 .0644-.796 6.7429-7.44 7.6682-.04 0-.073 0-.113 0z"/>
        <path
            d="m271.12 57.6281c-.281 0-.562-.1529-.707-.4184-.209-.3863-.072-.8771.322-1.0943 4.772-2.6071 3.511-7.7728 3.455-7.9901-.113-.4264.144-.869.578-.9816.434-.1127.868.1448.98.5712.016.0644 1.647 6.59-4.242 9.8086-.121.0643-.257.0965-.386.0965z"/>
        <path
            d="m280.272 53.5806c-.169 0-.346-.0564-.491-.169-.353-.2736-.417-.7725-.152-1.1265 3.31-4.3209.072-8.5292-.065-8.7062-.273-.346-.216-.8529.129-1.1265.346-.2735.852-.2172 1.125.1288.04.0563 4.17 5.3589.088 10.6855-.16.2093-.393.3139-.634.3139z"/>
        <path
            d="m255.3 40.409c-.442 0-.803-.362-.803-.8046 0-5.9141 6.435-11.7235 12.992-11.7235.441 0 .803.362.803.8046 0 .4425-.362.8046-.803.8046-5.641 0-11.385 5.1014-11.385 10.1143 0 .4426-.362.8046-.804.8046z"/>
        <path
            d="m277.484 67.702h-2.314c-.442 0-.804-.362-.804-.8046 0-.4425.362-.8046.804-.8046h2.314c.442 0 .803.3621.803.8046 0 .4426-.361.8046-.803.8046z"/>
        <path
            d="m216.758 123.439c-.289 0-.562-.104-.779-.289l-19.645-16.825c-.506-.435-.562-1.199-.136-1.706l17.378-20.3494c.209-.2414.507-.3943.82-.4184l77.414-6.0428c.554-.0403 1.076.3057 1.245.8448l1.872 6.067.964-6.2923c.08-.5552.538-.9736 1.101-1.0219l10.959-.8529c.667-.0402 1.245.4426 1.294 1.1104l2.892 37.1255c.048.668-.442 1.248-1.109 1.296l-94.173 7.354s-.065 0-.097 0zm-17.949-18.168 18.351 15.714 92.47-7.225-2.707-34.7205-8.798.6839-1.607 10.5407c-.089.5552-.539.9817-1.101 1.0219-.554.0322-1.077-.3057-1.237-.8448l-3.142-10.1546-75.959 5.9302-16.27 19.0462z"/>
        <path
            d="m310.932 116.085c-.442 0-.868-.249-1.085-.668-.297-.595-.048-1.32.546-1.617l3.769-1.867-2.451-31.4452-4.114-1.6012c-.618-.2414-.924-.9414-.683-1.561.242-.6196.941-.9253 1.559-.6839l4.821 1.8828c.434.169.731.5713.763 1.0299l2.571 33.0146c.041.49-.225.957-.667 1.174l-4.499 2.229c-.169.089-.353.129-.53.129z"/>
        <path
            d="m271.618 178.726c-.506 0-.972-.322-1.141-.813l-2.298-6.614c-.12-.354-.072-.748.137-1.062l1.374-2.068-1.551.169c-.546.056-1.084-.274-1.269-.805l-2.748-7.909c-.072-.21-.088-.443-.04-.66l4.274-18.885c.121-.523.571-.909 1.109-.941l7.352-.411c.377-.016.739.137.988.427.241.289.337.676.257 1.046l-4.194 18.555 2.378 6.855c.217.628-.112 1.32-.739 1.537-.635.217-1.318-.113-1.535-.74l-2.498-7.186c-.073-.209-.089-.442-.041-.659l3.921-17.324-4.853.273-3.993 17.662 2.322 6.679 3.158-.338c.466-.049.916.177 1.157.571.241.402.233.901-.024 1.295l-2.467 3.71 1.8 5.182 4.853-.274-1.792-5.15c-.217-.627.112-1.319.739-1.537.627-.225 1.318.113 1.535.741l2.314 6.662c.12.354.072.756-.137 1.07s-.554.515-.932.531l-7.351.411s-.049 0-.065 0z"/>
        <path
            d="m296.55 180.061s-.081 0-.121 0l-17.58-1.746c-.466-.048-.867-.362-1.02-.804l-2.274-6.542c-.217-.628.113-1.32.739-1.537.627-.217 1.318.113 1.535.74l2.017 5.81 15.306 1.521-4.058-31.47-13.337-4.53-3.897 17.244 2.386 6.879c.217.628-.112 1.32-.739 1.537-.635.217-1.318-.113-1.535-.74l-2.506-7.202c-.073-.217-.089-.442-.04-.66l4.274-18.884c.072-.33.289-.62.586-.789.298-.169.659-.201.973-.088l15.314 5.206c.434.144.747.531.811.989l4.347 33.723c.048.362-.072.732-.33.997-.225.234-.538.37-.867.37z"/>
        <path
            d="m234.804 288.591s-.049 0-.073 0l-7.351-.467c-.539-.032-.989-.418-1.101-.949l-4.13-18.917c-.048-.217-.032-.451.04-.66l6.484-18.241c.177-.507.675-.837 1.213-.797l7.352.467c.378.024.723.225.932.539s.257.708.129 1.07l-6.372 17.92 4.058 18.579c.08.37-.016.756-.265 1.046-.233.265-.563.418-.916.418zm-6.364-2.824 4.845.306-3.792-17.356c-.048-.218-.032-.451.04-.66l5.954-16.737-4.845-.305-6.066 17.058z"/>
        <path
            d="m241.175 288.993s-.048 0-.08 0l-6.364-.402c-.538-.032-.988-.419-1.101-.95l-4.129-18.917c-.049-.217-.032-.45.04-.659l6.484-18.242c.201-.563.787-.893 1.374-.78l6.588 1.328c.595.12 1.004.659.964 1.271l-2.579 36.241c-.048.635-.57 1.118-1.205 1.118zm-5.383-2.76 4.266.274 2.419-33.988-4.524-.909-6.018 16.937 3.865 17.694z"/>
        <path
            d="m296.55 180.061s-.04 0-.065 0l-24.931-1.335c-.635-.033-1.141-.564-1.141-1.207 0-.644.498-1.175 1.141-1.207l7.352-.411h.184l17.58 1.746c.651.065 1.133.636 1.085 1.296-.048.636-.579 1.118-1.205 1.118z"/>
        <path
            d="m224.021 116.045c-.225 0-.45-.097-.602-.274l-3.825-4.417c-.289-.338-.257-.845.081-1.135.337-.29.843-.257 1.132.08l3.825 4.418c.289.338.257.845-.08 1.134-.153.129-.338.194-.531.194z"/>
        <path
            d="m230.899 116.045c-.225 0-.442-.089-.603-.274l-2.531-2.857c-.297-.329-.265-.836.065-1.134.329-.298.835-.266 1.132.072l2.531 2.857c.298.33.266.837-.064 1.134-.153.137-.345.202-.53.202z"/>
        <path
            d="m296.076 81.55c-.241 0-.29 0-4.548-1.392-.635-.2092-.98-.8851-.771-1.5208s.884-.9817 1.518-.7725c1.736.5713 3.704 1.207 4.042 1.2955.546.1127.964.5954.964 1.1828 0 .6679-.538 1.207-1.205 1.207z"/>
        <path
            d="m269.369 172.249c-.41 0-.796-.209-1.021-.555-.249-.395-.249-.902 0-1.296l1.415-2.229-1.623.169c-.667.073-1.254-.41-1.326-1.07s.41-1.255 1.068-1.328l7.232-.772c.233-.024.466.016.675.121l6.684 3.403c.482.25.748.789.635 1.32-.112.531-.562.925-1.109.957l-5.391.338-7.095.926c-.048 0-.104.008-.152.008zm3.455-4.41-1.061 1.674 4.62-.604 1.061-.064-2.435-1.239z"/>
        <path
            d="m264.612 89.5643c-.546 0-1.068-.1609-1.526-.4747-1.021-.7081-1.479-2.076-1.133-3.3875.305-1.1667 1.165-1.9794 2.193-2.0679 1.069-.0966 2.298.3299 3.061 1.054.539.515.82 1.1668.788 1.8346-.048 1.038-.876 2.1484-2.009 2.7036-.458.2253-.924.3379-1.374.3379zm-.193-3.5404c-.064.0724-.176.2817-.168.5713 0 .1368.032.3782.209.5069.048.0322.136.0966.377 0 .346-.1367.635-.4666.723-.6517-.16-.177-.683-.4426-1.141-.4184z"/>
        <path
            d="m285.269 152.036c-.313 0-.747-.104-1.189-.547-.707-.708-1.398-2.197-1.278-3.58.113-1.352.948-1.899 1.631-1.956 1.005-.08 1.889.732 2.186 1.964.008.048.578 2.422-.201 3.508-.249.354-.619.563-1.029.603-.04 0-.08 0-.12 0z"/>
        <path
            d="m224.31 215.9c-.249 0-.49-.113-.642-.322l-1.559-2.092c-.265-.354-.193-.861.169-1.126.353-.266.859-.193 1.125.169l1.558 2.092c.265.354.193.861-.168 1.126-.145.105-.314.161-.483.161z"/>
        <path
            d="m232.586 216.922c-.225 0-.45-.096-.61-.281l-5.793-6.727c-.289-.338-.249-.845.08-1.135.33-.289.844-.249 1.133.081l5.793 6.726c.289.338.249.845-.08 1.135-.153.129-.338.193-.523.193z"/>
        <path
            d="m306.882 215.908c-.056 0-.112 0-.168-.016l-12.293-1.746c-.611-.088-1.061-.619-1.037-1.231.024-.611.498-1.118 1.109-1.167l6.99-.531h.249l5.367.724c.611.081 1.069.62 1.045 1.24l-.056 1.561c-.016.346-.169.659-.434.885-.217.185-.49.281-.772.281z"/>
        <path
            d="m238.355 262.199c-.177 0-.345-.056-.498-.169l-3.768-2.969-2.909.418c-.442.073-.844-.241-.908-.684-.064-.442.241-.844.683-.909l3.246-.467c.209-.032.434.025.611.161l4.041 3.179c.346.273.41.78.137 1.126-.161.201-.394.306-.635.306z"/>
        <path
            d="m288.306 172.232c-.442 0-.803-.362-.803-.804v-3.701c0-.443.361-.805.803-.805s.804.362.804.805v3.701c0 .442-.362.804-.804.804z"/>
        <path
            d="m282.417 296.171c-.064 0-.129 0-.185-.024-.434-.105-.699-.539-.595-.974l1.848-7.7c.105-.435.539-.7.973-.596.434.105.699.539.594.974l-1.848 7.7c-.088.37-.418.62-.779.62z"/>
        <path
            d="m285.044 302.012c-.088 0-.184-.016-.273-.048-.418-.153-.635-.611-.482-1.03l1.559-4.288c.153-.419.61-.636 1.028-.483s.635.611.482 1.03l-1.558 4.288c-.121.33-.426.531-.756.531z"/>
        <path
            d="m257.132 355.327c-.249 0-.49-.112-.643-.322l-4.708-6.356c-.265-.354-.193-.861.169-1.127.353-.265.859-.193 1.124.169l4.709 6.357c.265.354.193.861-.169 1.126-.145.105-.313.161-.474.161z"/>
        <path
            d="m254.504 361.177c-.329 0-.634-.201-.755-.531l-1.559-4.289c-.152-.418.065-.877.483-1.03.417-.153.875.065 1.028.483l1.559 4.289c.152.418-.065.877-.482 1.03-.089.032-.185.048-.274.048z"/>
        <path
            d="m238.034 397.048c-.362 0-.683-.241-.78-.604l-.876-3.411c-.112-.435.145-.869.579-.982.426-.105.868.145.98.579l.876 3.412c.112.435-.145.869-.579.982-.064.016-.136.024-.2.024z"/>
        <path
            d="m243.385 398.214c-.314 0-.603-.177-.739-.482l-2.242-5.158c-.177-.41.008-.885.418-1.062.409-.177.883.008 1.06.418l2.242 5.158c.177.41-.008.885-.418 1.062-.104.048-.209.064-.321.064z"/>
        <path
            d="m250.495 399.39c-.329 0-.635-.202-.755-.531l-4.668-12.963c-.153-.419.064-.877.482-1.03s.876.064 1.028.483l4.668 12.962c.153.419-.064.877-.482 1.03-.088.032-.184.049-.273.049z"/>
        <path
            d="m291.954 395.744c-.129 0-.265-.024-.394-.064-.627-.217-.964-.909-.739-1.537l1.462-4.2c.217-.628.9-.966 1.535-.74.626.217.964.909.739 1.537l-1.462 4.2c-.177.499-.643.812-1.141.812z"/>
        <path
            d="m258.184 245.583c-.265 0-.522-.129-.674-.37l-2.628-4.096c-.241-.37-.128-.869.241-1.11.378-.241.868-.129 1.109.241l2.627 4.096c.241.37.129.869-.241 1.11-.136.089-.281.129-.434.129z"/>
        <path
            d="m261.294 238.76c-.241 0-.474-.105-.635-.306l-1.848-2.341c-.273-.346-.217-.853.129-1.127.353-.273.851-.217 1.133.129l1.847 2.341c.274.346.217.853-.128 1.135-.145.121-.321.177-.498.177z"/>
        <path
            d="m263.921 232.13c-.209 0-.409-.081-.57-.234l-1.366-1.367c-.313-.314-.313-.821 0-1.135s.82-.314 1.133 0l1.366 1.368c.313.314.313.821 0 1.134-.161.153-.362.234-.571.234z"/>
        <path
            d="m260.876 126.57c-.281 0-.554-.145-.699-.411-.217-.386-.08-.877.306-1.094l3.792-2.14c.386-.218.876-.081 1.093.305.217.387.08.877-.306 1.095l-3.792 2.14c-.129.072-.257.105-.394.105z"/>
        <path
            d="m267.135 128.911c-.233 0-.458-.096-.618-.29-.29-.338-.241-.844.096-1.134l2.483-2.092c.337-.29.843-.242 1.133.096.289.338.241.845-.097 1.135l-2.483 2.092c-.152.129-.337.193-.514.193z"/>
    </g>
</svg>
