<svg width="544" height="429" viewBox="0 0 544 429" fill="none" xmlns="http://www.w3.org/2000/svg">
<path d="M237.6 360.373L232.972 401.023L261.197 406.253L264.042 404.974L263.238 399.953L267.063 401.844V383.683L270.622 400.934L275.274 392.252L282.264 380.899L279.693 392.832L278.906 399.269L282.264 396.662L285.823 392.832L284.482 399.953H289.977L291.954 400.524L299.603 396.75V364.967L274.607 386.226L267.328 381.921L237.6 360.373Z" fill="#FF3939"/>
<path d="M247.522 259.801L243.746 315.997L273.908 337.014L292.886 314.146L289.503 261.394L274.262 277.898L247.522 259.801Z" fill="#FF3939"/>
<path d="M269.08 166.97L262.708 164.387L247.025 154.836L244.389 206.221L274.069 226.087L283.453 211.177L281.847 177.68L272.084 177.109L270.261 171.428L271.08 166.753L269.08 166.97Z" fill="#FF3939"/>
<path d="M258.707 71.0576L256.666 74.5417V82.3064L278.617 80.0535L280.914 71.0576H258.707Z" fill="#FF3939"/>
<path d="M244.855 238.245C244.855 238.245 244.823 238.245 244.807 238.245L227.396 237.609C227.066 237.601 226.753 237.448 226.536 237.199L209.968 218.274C209.551 217.791 209.575 217.067 210.033 216.616L227.002 199.864C227.251 199.614 227.588 199.494 227.942 199.518C228.287 199.542 228.609 199.727 228.818 200.009L231.132 203.163L230.264 199.566C230.176 199.196 230.264 198.81 230.505 198.52C230.746 198.23 231.116 198.069 231.485 198.077L247.595 198.665C248.262 198.689 248.776 199.252 248.752 199.912C248.728 200.58 248.157 201.103 247.506 201.071L232.988 200.54L234.884 208.417C235.02 208.972 234.739 209.552 234.217 209.793C233.695 210.034 233.076 209.873 232.739 209.415L227.701 202.551L212.532 217.526L228.006 235.203L244.895 235.823C245.562 235.847 246.076 236.41 246.052 237.07C246.028 237.722 245.49 238.237 244.847 238.237L244.855 238.245Z" fill="black"/>
<path d="M300.599 240.281C300.599 240.281 300.567 240.281 300.551 240.281L288.234 239.83C287.567 239.806 287.053 239.243 287.077 238.583C287.101 237.923 287.656 237.384 288.322 237.424L299.434 237.826L300.704 203.026L286.748 202.519C286.081 202.495 285.567 201.932 285.591 201.272C285.615 200.612 286.193 200.089 286.836 200.113L301.997 200.668C302.664 200.692 303.178 201.256 303.154 201.915L301.796 239.13C301.772 239.782 301.234 240.297 300.591 240.297L300.599 240.281Z" fill="black"/>
<path d="M300.599 240.281C300.085 240.281 299.603 239.951 299.45 239.428C299.257 238.792 299.611 238.116 300.245 237.923L304.881 236.499L306.022 205.07L301.451 202.962C300.848 202.68 300.583 201.964 300.856 201.36C301.137 200.757 301.852 200.491 302.455 200.765L307.758 203.211C308.2 203.412 308.473 203.863 308.457 204.354L307.252 237.448C307.236 237.963 306.89 238.406 306.4 238.559L300.944 240.232C300.824 240.265 300.711 240.289 300.591 240.289L300.599 240.281Z" fill="black"/>
<path d="M267.489 63.9446C255.662 63.9446 246.036 54.3051 246.036 42.4608C246.036 30.6166 255.662 20.9771 267.489 20.9771C279.316 20.9771 288.941 30.6166 288.941 42.4608C288.941 54.3051 279.316 63.9446 267.489 63.9446ZM267.489 23.399C256.987 23.399 248.447 31.9523 248.447 42.4689C248.447 52.9855 256.987 61.5388 267.489 61.5388C277.99 61.5388 286.531 52.9855 286.531 42.4689C286.531 31.9523 277.99 23.399 267.489 23.399Z" fill="black"/>
<path d="M278.07 72.2646H256.915C253.958 72.2646 251.556 69.8587 251.556 66.8977C251.556 63.9366 253.958 61.5308 256.915 61.5308H278.07C281.027 61.5308 283.429 63.9366 283.429 66.8977C283.429 69.8587 281.027 72.2646 278.07 72.2646ZM256.915 63.9447C255.292 63.9447 253.966 65.2723 253.966 66.8977C253.966 68.5231 255.292 69.8507 256.915 69.8507H278.07C279.693 69.8507 281.019 68.5231 281.019 66.8977C281.019 65.2723 279.693 63.9447 278.07 63.9447H256.915Z" fill="black"/>
<path d="M264.556 407.46C264.484 407.46 264.411 407.46 264.347 407.444L232.763 401.828C232.152 401.723 231.727 401.168 231.775 400.556L252.223 119.062C252.271 118.394 252.874 117.903 253.508 117.944C254.175 117.992 254.673 118.571 254.625 119.231L234.257 399.639L264.773 405.07C265.432 405.183 265.866 405.81 265.745 406.47C265.641 407.058 265.134 407.468 264.564 407.468L264.556 407.46Z" fill="black"/>
<path d="M256.16 82.7326C256.16 82.7326 256.103 82.7326 256.071 82.7326C255.404 82.6843 254.906 82.105 254.954 81.4452L255.718 70.9768C255.766 70.3492 256.288 69.8584 256.923 69.8584H274.615C275.282 69.8584 275.82 70.3975 275.82 71.0654V80.3509C275.82 81.0187 275.282 81.5578 274.615 81.5578C273.948 81.5578 273.41 81.0187 273.41 80.3509V72.2723H258.048L257.373 81.6222C257.325 82.2578 256.794 82.7406 256.176 82.7406L256.16 82.7326Z" fill="black"/>
<path d="M274.607 141.133C273.94 141.133 273.402 140.594 273.402 139.926V117.718C273.402 117.05 273.94 116.511 274.607 116.511C275.274 116.511 275.812 117.05 275.812 117.718V139.926C275.812 140.594 275.274 141.133 274.607 141.133Z" fill="black"/>
<path d="M274.607 394.762C273.94 394.762 273.402 394.223 273.402 393.556V177.68C273.402 177.012 273.94 176.473 274.607 176.473C275.274 176.473 275.812 177.012 275.812 177.68V393.556C275.812 394.223 275.274 394.762 274.607 394.762Z" fill="black"/>
<path d="M288.909 403.051C288.443 403.051 288.001 402.777 287.8 402.327C287.535 401.715 287.816 401.007 288.427 400.741L296.726 397.145L283.373 178.066C283.333 177.398 283.839 176.827 284.506 176.787C285.173 176.747 285.743 177.254 285.783 177.921L299.185 397.845C299.217 398.352 298.928 398.826 298.462 399.028L289.383 402.962C289.23 403.027 289.061 403.059 288.909 403.059V403.051Z" fill="black"/>
<path d="M282.377 143C281.742 143 281.211 142.509 281.171 141.866L279.701 117.791C279.661 117.123 280.167 116.552 280.834 116.511C281.509 116.463 282.071 116.978 282.111 117.646L283.582 141.721C283.622 142.389 283.116 142.96 282.449 143C282.425 143 282.401 143 282.377 143Z" fill="black"/>
<path d="M278.617 81.2601C277.982 81.2601 277.452 80.7692 277.411 80.1255L276.865 71.1297C276.825 70.4618 277.331 69.8905 277.998 69.8503C278.681 69.802 279.235 70.317 279.275 70.9848L279.822 79.9807C279.862 80.6485 279.356 81.2198 278.689 81.2601C278.665 81.2601 278.641 81.2601 278.617 81.2601Z" fill="black"/>
<path d="M222.655 383.128C222.294 383.128 221.932 382.967 221.691 382.653C218.1 377.922 212.926 373.11 212.877 373.062C212.516 372.724 212.395 372.201 212.572 371.734C212.757 371.276 213.199 370.97 213.697 370.97H217.055L214.894 364.774C214.757 364.388 214.83 363.961 215.079 363.632C215.328 363.31 215.722 363.133 216.131 363.173C216.308 363.189 220.197 363.591 226.504 369.192C224.6 348.086 211.045 324.872 210.901 324.631C210.603 324.132 210.708 323.488 211.142 323.11C211.584 322.732 212.226 322.716 212.684 323.07C213.231 323.504 226.142 334.045 236.387 369.079C236.571 369.715 236.21 370.39 235.567 370.576C234.932 370.761 234.257 370.399 234.073 369.755C228.802 351.707 222.752 340.257 218.196 333.458C222.728 343.081 228.617 358.128 229.107 372.129C229.123 372.627 228.834 373.078 228.384 373.279C227.934 373.472 227.404 373.376 227.05 373.022C222.977 368.942 219.851 367.083 217.963 366.247L219.892 371.766C220.02 372.137 219.964 372.547 219.739 372.861C219.514 373.175 219.144 373.368 218.759 373.368H216.67C218.558 375.259 221.354 378.204 223.612 381.181C224.013 381.712 223.909 382.468 223.379 382.87C223.162 383.039 222.904 383.12 222.647 383.12L222.655 383.128Z" fill="black"/>
<path d="M176.721 405.03H168.614C167.947 405.03 167.409 404.491 167.409 403.823C167.409 403.155 167.947 402.616 168.614 402.616H176.537L185.889 399.558C186.202 399.454 186.54 399.486 186.829 399.639L191.433 402.093L194.928 392.116C195.129 391.536 195.739 391.206 196.326 391.335C196.92 391.472 197.322 392.027 197.266 392.639L196.591 399.285C196.808 399.18 197.049 399.148 197.298 399.188L203.452 400.17L199.403 395.809C199.017 395.39 198.969 394.755 199.299 394.288C199.628 393.821 200.239 393.652 200.761 393.878L212.001 398.746C209.422 392.727 204.055 390.37 203.991 390.345C203.541 390.152 203.244 389.702 203.26 389.203C203.276 388.704 203.581 388.269 204.047 388.1C204.336 387.996 210.724 385.719 217.087 391.568C221.868 377.898 227.331 375.886 227.966 375.701C228.416 375.564 228.906 375.701 229.22 376.063C229.533 376.417 229.605 376.916 229.42 377.35C229.348 377.519 221.9 394.505 225.716 402.874C225.99 403.477 225.724 404.193 225.122 404.475C224.519 404.756 223.804 404.483 223.523 403.879C220.494 397.233 223.467 386.515 225.564 380.609C223.635 382.838 221.096 386.91 218.758 394.2C218.622 394.61 218.284 394.924 217.859 395.012C217.433 395.101 216.999 394.956 216.71 394.634C213.592 391.134 210.378 390.176 208.088 390.04C210.571 391.906 213.833 395.262 215.175 400.653C215.287 401.095 215.135 401.57 214.789 401.868C214.436 402.165 213.954 402.238 213.528 402.053L205.075 398.392L207.59 401.095C207.944 401.474 208.016 402.029 207.775 402.487C207.534 402.946 207.036 403.195 206.522 403.115L197.651 401.707L195.948 404.089C195.627 404.531 195.056 404.708 194.542 404.515C194.028 404.322 193.715 403.807 193.771 403.26L193.843 402.552L193.257 404.241C193.136 404.571 192.887 404.837 192.558 404.966C192.228 405.094 191.867 405.07 191.553 404.909L186.17 402.029L177.123 404.99C177.003 405.03 176.874 405.046 176.745 405.046L176.721 405.03Z" fill="black"/>
<path d="M302.463 383.128C302.399 383.128 302.335 383.128 302.27 383.112C301.612 383.007 301.17 382.388 301.274 381.728C302.439 374.526 306.85 365.209 310.57 358.305C306.593 363.076 301.78 369.61 298.189 376.892C297.892 377.487 297.177 377.737 296.574 377.439C295.979 377.141 295.73 376.417 296.028 375.822C303.532 360.598 315.809 348.963 316.331 348.48C316.773 348.062 317.456 348.046 317.922 348.432C318.388 348.818 318.492 349.494 318.171 350.009C318.042 350.21 305.629 369.827 303.644 382.106C303.548 382.701 303.034 383.12 302.455 383.12L302.463 383.128Z" fill="black"/>
<path d="M315.07 401.159C315.029 401.159 314.989 401.159 314.949 401.159C314.443 401.111 314.025 400.749 313.905 400.25C311.928 392.349 314.395 384.351 316.652 379.257C315.23 380.73 313.736 382.621 312.595 384.898C312.354 385.372 311.824 385.638 311.309 385.549C310.787 385.453 310.385 385.026 310.321 384.495C310.313 384.407 309.285 375.62 306.264 367.855C306.023 367.236 306.328 366.536 306.947 366.294C307.565 366.053 308.264 366.359 308.505 366.978C310.49 372.08 311.631 377.471 312.209 380.842C315.519 376.095 319.697 373.593 319.906 373.472C320.388 373.19 321.007 373.271 321.393 373.681C321.778 374.083 321.835 374.711 321.529 375.178C321.457 375.29 314.925 385.389 315.656 395.929C318.966 389.138 323.667 381.486 336.795 379.024C337.39 378.911 337.976 379.257 338.161 379.837C338.346 380.416 338.081 381.043 337.526 381.301C326.222 386.652 326.422 394.4 326.439 394.73C326.471 395.39 325.956 395.961 325.298 395.994C324.655 396.034 324.068 395.519 324.036 394.859C324.02 394.569 323.811 389.299 329.106 384.117C322.196 387.738 319.408 393.612 316.885 398.955C316.636 399.47 316.395 399.985 316.154 400.492C315.953 400.91 315.528 401.175 315.07 401.175V401.159Z" fill="black"/>
<path d="M304.046 365.289C303.508 365.289 303.018 364.927 302.881 364.38C302.327 362.231 301.676 360.397 301.001 359.077C300.72 358.53 300.896 357.862 301.411 357.524C301.925 357.186 302.608 357.283 303.002 357.758C304.062 359.029 305.066 360.445 305.974 361.958C306.32 362.529 306.135 363.269 305.565 363.615C305.452 363.68 305.332 363.728 305.211 363.76C305.211 363.76 305.211 363.776 305.211 363.784C305.38 364.428 304.986 365.088 304.343 365.257C304.247 365.281 304.142 365.297 304.038 365.297L304.046 365.289Z" fill="black"/>
<path d="M302.954 393.459C302.656 393.459 302.367 393.355 302.134 393.137C301.644 392.687 301.62 391.922 302.07 391.432C304.368 388.953 305.275 381.712 304.376 372.989C304.311 372.329 304.785 371.734 305.452 371.662C306.095 371.597 306.706 372.072 306.778 372.74C307.148 376.361 308.039 388.543 303.837 393.073C303.604 393.33 303.275 393.459 302.954 393.459Z" fill="black"/>
<path d="M348.212 406.18C348.044 406.18 347.875 406.148 347.714 406.076C347.312 405.891 347.047 405.504 347.007 405.07C346.814 402.527 348.18 400.073 349.538 398.303L349.313 398.343C348.944 398.408 348.574 398.295 348.301 398.045C348.028 397.796 347.883 397.434 347.915 397.064L348.172 393.684C346.887 394.626 345.248 395.945 344.058 397.329C343.785 397.651 343.368 397.804 342.95 397.732C342.532 397.667 342.186 397.386 342.026 396.991C340.676 393.62 340.539 390.265 340.804 387.593C338.748 390.892 336.168 396.275 334.658 404.112C334.554 404.643 334.12 405.038 333.581 405.086C333.059 405.134 332.545 404.82 332.352 404.314C331.042 400.878 327.652 398.512 324.984 397.112C326.029 398.995 327.049 401.425 327.154 403.831C327.178 404.499 326.664 405.062 325.997 405.086C325.346 405.118 324.767 404.595 324.743 403.927C324.566 399.783 320.838 395.205 320.798 395.157C320.461 394.746 320.429 394.159 320.726 393.716C321.023 393.274 321.578 393.073 322.084 393.234C322.421 393.338 329.259 395.511 332.971 400.516C336.177 387.424 342.058 381.912 342.323 381.671C342.733 381.293 343.359 381.253 343.817 381.566C344.283 381.888 344.46 382.484 344.251 383.007C344.227 383.063 342.138 388.486 343.649 394.256C346.019 392.035 348.783 390.321 348.927 390.232C349.313 389.999 349.803 389.999 350.189 390.232C350.575 390.466 350.8 390.9 350.759 391.351L350.422 395.696L352.599 395.334C353.138 395.245 353.66 395.527 353.893 396.01C354.126 396.492 353.997 397.08 353.588 397.434C352.728 398.174 350.936 400.049 349.996 402.117L352.929 399.92C353.371 399.59 353.981 399.598 354.415 399.952L358.119 402.978L361.381 401.892C361.678 401.795 361.992 401.811 362.273 401.94C363.43 402.479 364.836 403.107 365.278 403.251H375.393C376.06 403.251 376.599 403.791 376.599 404.458C376.599 405.126 376.06 405.665 375.393 405.665H365.141C364.892 405.665 364.579 405.665 361.694 404.322L358.256 405.472C357.862 405.601 357.436 405.521 357.115 405.263L353.628 402.415L348.936 405.931C348.727 406.092 348.469 406.172 348.212 406.172V406.18Z" fill="black"/>
<path d="M267.721 168.233C267.48 168.233 267.231 168.161 267.014 168.008L250.126 155.818C249.587 155.432 249.467 154.675 249.852 154.136C250.238 153.597 250.993 153.476 251.532 153.863L268.42 166.053C268.959 166.439 269.079 167.195 268.694 167.735C268.461 168.064 268.091 168.233 267.713 168.233H267.721Z" fill="black"/>
<path d="M274.607 227.825C274.35 227.825 274.093 227.736 273.876 227.583L246.984 207.186C246.454 206.784 246.35 206.027 246.751 205.496C247.153 204.965 247.908 204.861 248.439 205.263L274.262 224.856L285.333 206.639C285.679 206.067 286.426 205.89 286.989 206.236C287.559 206.582 287.736 207.323 287.39 207.894L275.628 227.254C275.451 227.543 275.162 227.744 274.824 227.809C274.752 227.825 274.672 227.833 274.599 227.833L274.607 227.825Z" fill="black"/>
<path d="M274.607 281.559C274.342 281.559 274.093 281.47 273.876 281.317L243.015 257.902C242.485 257.5 242.38 256.744 242.782 256.212C243.184 255.681 243.939 255.577 244.469 255.979L274.326 278.63L288.507 258.031C288.885 257.484 289.64 257.347 290.186 257.725C290.733 258.103 290.869 258.86 290.492 259.407L275.595 281.044C275.411 281.317 275.121 281.494 274.792 281.55C274.728 281.559 274.663 281.567 274.599 281.567L274.607 281.559Z" fill="black"/>
<path d="M274.607 335.3C274.35 335.3 274.101 335.22 273.876 335.059L238.998 308.602C238.468 308.2 238.363 307.444 238.765 306.913C239.167 306.382 239.922 306.277 240.452 306.679L274.382 332.42L291.729 310.123C292.139 309.6 292.894 309.504 293.424 309.914C293.947 310.324 294.043 311.081 293.633 311.612L275.555 334.85C275.314 335.155 274.961 335.316 274.607 335.316V335.3Z" fill="black"/>
<path d="M274.607 389.034C274.35 389.034 274.101 388.953 273.876 388.792L235.262 359.495C234.731 359.093 234.627 358.337 235.029 357.806C235.43 357.275 236.186 357.17 236.716 357.572L274.406 386.169L294.862 361.169C295.288 360.654 296.043 360.582 296.558 361C297.072 361.427 297.144 362.183 296.726 362.698L275.539 388.591C275.298 388.881 274.953 389.034 274.607 389.034Z" fill="black"/>
<path d="M297.787 408.015C297.53 408.015 297.281 407.934 297.064 407.774L293.087 404.756L286.796 407.572C286.322 407.782 285.768 407.669 285.414 407.283C285.06 406.896 284.996 406.333 285.253 405.875L288.13 400.781L284.619 401.151C284.169 401.192 283.735 400.99 283.486 400.612C283.237 400.234 283.221 399.751 283.437 399.357C283.454 399.333 284.498 397.394 284.635 394.811C282.449 397.877 279.822 400.073 279.677 400.194C279.332 400.484 278.85 400.548 278.432 400.371C278.014 400.194 277.733 399.8 277.701 399.349C277.685 399.091 277.379 393.837 281.565 382.033C276.552 390.53 272.639 402.841 272.591 403.002C272.422 403.533 271.9 403.887 271.353 403.839C270.799 403.799 270.341 403.38 270.253 402.833L267.947 388.848L268.814 403.276C268.847 403.774 268.565 404.241 268.107 404.45C267.649 404.66 267.111 404.555 266.758 404.201L264.564 402.004C265.135 403.243 265.721 404.595 266.284 405.995C266.533 406.615 266.235 407.315 265.617 407.564C264.998 407.814 264.299 407.516 264.05 406.896C261.808 401.336 259.125 396.509 259.093 396.46C258.795 395.937 258.94 395.269 259.414 394.907C259.896 394.545 260.571 394.594 260.997 395.02L266.211 400.242L264.13 365.699C264.09 365.055 264.564 364.5 265.199 364.428C265.842 364.347 266.42 364.798 266.525 365.434L271.844 397.716C274.302 390.932 279.364 378.525 284.924 373.834C285.35 373.472 285.968 373.456 286.418 373.786C286.868 374.116 287.029 374.719 286.812 375.226C282.28 385.887 280.802 392.695 280.32 396.219C281.662 394.795 283.309 392.791 284.289 390.627C284.498 390.168 284.956 389.903 285.462 389.919C285.96 389.951 286.386 390.289 286.539 390.764C287.487 393.829 286.957 396.694 286.362 398.512L290.195 398.11C290.653 398.07 291.078 398.271 291.327 398.649C291.577 399.027 291.593 399.51 291.368 399.904L289.142 403.847L292.75 402.238C293.151 402.061 293.617 402.109 293.971 402.374L298.51 405.818C299.041 406.221 299.145 406.977 298.743 407.508C298.51 407.822 298.149 407.983 297.779 407.983L297.787 408.015Z" fill="black"/>
<path d="M260.739 57.6281C260.346 57.6281 260 57.3385 259.944 56.9362C259.88 56.4936 260.193 56.0913 260.627 56.0269C266.042 55.2786 266.677 49.8393 266.685 49.7829C266.733 49.3404 267.135 49.0185 267.569 49.0668C268.011 49.1151 268.332 49.5094 268.284 49.9519C268.284 50.0163 267.488 56.6948 260.844 57.6201C260.804 57.6201 260.771 57.6201 260.731 57.6201L260.739 57.6281Z" fill="black"/>
<path d="M271.12 57.6281C270.839 57.6281 270.558 57.4752 270.413 57.2097C270.204 56.8234 270.341 56.3326 270.735 56.1154C275.507 53.5083 274.246 48.3426 274.19 48.1253C274.077 47.6989 274.334 47.2563 274.768 47.1437C275.202 47.031 275.636 47.2885 275.748 47.7149C275.764 47.7793 277.395 54.3049 271.506 57.5235C271.385 57.5878 271.249 57.62 271.12 57.62V57.6281Z" fill="black"/>
<path d="M280.272 53.5806C280.103 53.5806 279.926 53.5242 279.781 53.4116C279.428 53.138 279.364 52.6391 279.629 52.2851C282.939 47.9642 279.701 43.7559 279.564 43.5789C279.291 43.2329 279.348 42.726 279.693 42.4524C280.039 42.1789 280.545 42.2352 280.818 42.5812C280.858 42.6375 284.988 47.9401 280.906 53.2667C280.746 53.476 280.513 53.5806 280.272 53.5806Z" fill="black"/>
<path d="M255.3 40.409C254.858 40.409 254.497 40.047 254.497 39.6044C254.497 33.6903 260.932 27.8809 267.489 27.8809C267.93 27.8809 268.292 28.2429 268.292 28.6855C268.292 29.128 267.93 29.4901 267.489 29.4901C261.848 29.4901 256.104 34.5915 256.104 39.6044C256.104 40.047 255.742 40.409 255.3 40.409Z" fill="black"/>
<path d="M277.484 67.702H275.17C274.728 67.702 274.366 67.34 274.366 66.8974C274.366 66.4549 274.728 66.0928 275.17 66.0928H277.484C277.926 66.0928 278.287 66.4549 278.287 66.8974C278.287 67.34 277.926 67.702 277.484 67.702Z" fill="black"/>
<path d="M216.758 123.439C216.469 123.439 216.196 123.335 215.979 123.15L196.334 106.325C195.828 105.89 195.772 105.126 196.198 104.619L213.576 84.2696C213.785 84.0282 214.083 83.8753 214.396 83.8512L291.81 77.8084C292.364 77.7681 292.886 78.1141 293.055 78.6532L294.927 84.7202L295.891 78.4279C295.971 77.8727 296.429 77.4543 296.992 77.406L307.951 76.5531C308.618 76.5129 309.196 76.9957 309.245 77.6635L312.137 114.789C312.185 115.457 311.695 116.037 311.028 116.085L216.855 123.439C216.855 123.439 216.79 123.439 216.758 123.439ZM198.809 105.271L217.16 120.985L309.63 113.76L306.923 79.0395L298.125 79.7234L296.518 90.2641C296.429 90.8193 295.979 91.2458 295.417 91.286C294.863 91.3182 294.34 90.9803 294.18 90.4412L291.038 80.2866L215.079 86.2168L198.809 105.263V105.271Z" fill="black"/>
<path d="M310.932 116.085C310.49 116.085 310.064 115.836 309.847 115.417C309.55 114.822 309.799 114.097 310.393 113.8L314.162 111.933L311.711 80.4878L307.597 78.8866C306.979 78.6452 306.673 77.9452 306.914 77.3256C307.156 76.706 307.855 76.4003 308.473 76.6417L313.294 78.5245C313.728 78.6935 314.025 79.0958 314.057 79.5544L316.628 112.569C316.669 113.059 316.403 113.526 315.961 113.743L311.462 115.972C311.293 116.061 311.109 116.101 310.932 116.101V116.085Z" fill="black"/>
<path d="M271.618 178.726C271.112 178.726 270.646 178.404 270.477 177.913L268.179 171.299C268.059 170.945 268.107 170.551 268.316 170.237L269.69 168.169L268.139 168.338C267.593 168.394 267.055 168.064 266.87 167.533L264.122 159.624C264.05 159.414 264.034 159.181 264.082 158.964L268.356 140.079C268.477 139.556 268.927 139.17 269.465 139.138L276.817 138.727C277.194 138.711 277.556 138.864 277.805 139.154C278.046 139.443 278.142 139.83 278.062 140.2L273.868 158.755L276.246 165.61C276.463 166.238 276.134 166.93 275.507 167.147C274.872 167.364 274.189 167.034 273.972 166.407L271.474 159.221C271.401 159.012 271.385 158.779 271.433 158.562L275.354 141.238L270.501 141.511L266.508 159.173L268.83 165.852L271.988 165.514C272.454 165.465 272.904 165.691 273.145 166.085C273.386 166.487 273.378 166.986 273.121 167.38L270.654 171.09L272.454 176.272L277.307 175.998L275.515 170.848C275.298 170.221 275.627 169.529 276.254 169.311C276.881 169.086 277.572 169.424 277.789 170.052L280.103 176.714C280.223 177.068 280.175 177.47 279.966 177.784C279.757 178.098 279.412 178.299 279.034 178.315L271.683 178.726C271.683 178.726 271.634 178.726 271.618 178.726Z" fill="black"/>
<path d="M296.55 180.061C296.55 180.061 296.469 180.061 296.429 180.061L278.849 178.315C278.383 178.267 277.982 177.953 277.829 177.511L275.555 170.969C275.338 170.341 275.668 169.649 276.294 169.432C276.921 169.215 277.612 169.545 277.829 170.172L279.846 175.982L295.152 177.503L291.094 146.033L277.757 141.503L273.86 158.747L276.246 165.626C276.463 166.254 276.134 166.946 275.507 167.163C274.872 167.38 274.189 167.05 273.972 166.423L271.466 159.221C271.393 159.004 271.377 158.779 271.426 158.561L275.7 139.677C275.772 139.347 275.989 139.057 276.286 138.888C276.584 138.719 276.945 138.687 277.259 138.8L292.573 144.006C293.007 144.15 293.32 144.537 293.384 144.995L297.731 178.718C297.779 179.08 297.659 179.45 297.401 179.715C297.176 179.949 296.863 180.085 296.534 180.085L296.55 180.061Z" fill="black"/>
<path d="M234.804 288.591C234.804 288.591 234.755 288.591 234.731 288.591L227.38 288.124C226.841 288.092 226.391 287.706 226.279 287.175L222.149 268.258C222.101 268.041 222.117 267.807 222.189 267.598L228.673 249.357C228.85 248.85 229.348 248.52 229.886 248.56L237.238 249.027C237.616 249.051 237.961 249.252 238.17 249.566C238.379 249.88 238.427 250.274 238.299 250.636L231.927 268.556L235.985 287.135C236.065 287.505 235.969 287.891 235.72 288.181C235.487 288.446 235.157 288.599 234.804 288.599V288.591ZM228.44 285.767L233.285 286.073L229.493 268.717C229.445 268.499 229.461 268.266 229.533 268.057L235.487 251.32L230.642 251.015L224.576 268.073L228.44 285.767Z" fill="black"/>
<path d="M241.175 288.993C241.175 288.993 241.127 288.993 241.095 288.993L234.731 288.591C234.193 288.559 233.743 288.172 233.63 287.641L229.501 268.724C229.452 268.507 229.469 268.274 229.541 268.065L236.025 249.823C236.226 249.26 236.812 248.93 237.399 249.043L243.987 250.371C244.582 250.491 244.991 251.03 244.951 251.642L242.372 287.883C242.324 288.518 241.802 289.001 241.167 289.001L241.175 288.993ZM235.792 286.233L240.058 286.507L242.477 252.519L237.953 251.61L231.935 268.547L235.8 286.241L235.792 286.233Z" fill="black"/>
<path d="M296.55 180.061C296.55 180.061 296.51 180.061 296.485 180.061L271.554 178.726C270.919 178.693 270.413 178.162 270.413 177.519C270.413 176.875 270.911 176.344 271.554 176.312L278.906 175.901C278.97 175.901 279.034 175.901 279.09 175.901L296.67 177.647C297.321 177.712 297.803 178.283 297.755 178.943C297.707 179.579 297.176 180.061 296.55 180.061Z" fill="black"/>
<path d="M224.021 116.045C223.796 116.045 223.571 115.948 223.419 115.771L219.594 111.354C219.305 111.016 219.337 110.509 219.675 110.219C220.012 109.929 220.518 109.962 220.807 110.299L224.632 114.717C224.921 115.055 224.889 115.562 224.552 115.851C224.399 115.98 224.214 116.045 224.021 116.045Z" fill="black"/>
<path d="M230.899 116.045C230.674 116.045 230.457 115.956 230.296 115.771L227.765 112.914C227.468 112.585 227.5 112.078 227.83 111.78C228.159 111.482 228.665 111.514 228.962 111.852L231.493 114.709C231.791 115.039 231.759 115.546 231.429 115.843C231.276 115.98 231.084 116.045 230.899 116.045Z" fill="black"/>
<path d="M296.076 81.55C295.835 81.55 295.786 81.55 291.528 80.158C290.893 79.9488 290.548 79.2729 290.757 78.6372C290.966 78.0015 291.641 77.6555 292.275 77.8647C294.011 78.436 295.979 79.0717 296.317 79.1602C296.863 79.2729 297.281 79.7556 297.281 80.343C297.281 81.0109 296.743 81.55 296.076 81.55Z" fill="black"/>
<path d="M269.369 172.249C268.959 172.249 268.573 172.04 268.348 171.694C268.099 171.299 268.099 170.792 268.348 170.398L269.763 168.169L268.14 168.338C267.473 168.411 266.886 167.928 266.814 167.268C266.742 166.608 267.224 166.013 267.882 165.94L275.114 165.168C275.347 165.144 275.58 165.184 275.789 165.289L282.473 168.692C282.955 168.942 283.221 169.481 283.108 170.012C282.996 170.543 282.546 170.937 281.999 170.969L276.608 171.307L269.513 172.233C269.465 172.233 269.409 172.241 269.361 172.241L269.369 172.249ZM272.824 167.839L271.763 169.513L276.383 168.909L277.444 168.845L275.009 167.606L272.824 167.839Z" fill="black"/>
<path d="M264.612 89.5643C264.066 89.5643 263.544 89.4034 263.086 89.0896C262.065 88.3815 261.607 87.0136 261.953 85.7021C262.258 84.5354 263.118 83.7227 264.146 83.6342C265.215 83.5376 266.444 83.9641 267.207 84.6882C267.746 85.2032 268.027 85.855 267.995 86.5228C267.947 87.5608 267.119 88.6712 265.986 89.2264C265.528 89.4517 265.062 89.5643 264.612 89.5643ZM264.419 86.0239C264.355 86.0963 264.243 86.3056 264.251 86.5952C264.251 86.732 264.283 86.9734 264.46 87.1021C264.508 87.1343 264.596 87.1987 264.837 87.1021C265.183 86.9654 265.472 86.6355 265.56 86.4504C265.4 86.2734 264.877 86.0078 264.419 86.032V86.0239Z" fill="black"/>
<path d="M285.269 152.036C284.956 152.036 284.522 151.932 284.08 151.489C283.373 150.781 282.682 149.292 282.802 147.909C282.915 146.557 283.75 146.01 284.433 145.953C285.438 145.873 286.322 146.685 286.619 147.917C286.627 147.965 287.197 150.339 286.418 151.425C286.169 151.779 285.799 151.988 285.389 152.028C285.349 152.028 285.309 152.028 285.269 152.028V152.036Z" fill="black"/>
<path d="M224.31 215.9C224.061 215.9 223.82 215.787 223.668 215.578L222.109 213.486C221.844 213.132 221.916 212.625 222.278 212.36C222.631 212.094 223.137 212.167 223.403 212.529L224.961 214.621C225.226 214.975 225.154 215.482 224.793 215.747C224.648 215.852 224.479 215.908 224.31 215.908V215.9Z" fill="black"/>
<path d="M232.586 216.922C232.361 216.922 232.136 216.826 231.976 216.641L226.183 209.914C225.894 209.576 225.934 209.069 226.263 208.779C226.593 208.49 227.107 208.53 227.396 208.86L233.189 215.586C233.478 215.924 233.438 216.431 233.109 216.721C232.956 216.85 232.771 216.914 232.586 216.914V216.922Z" fill="black"/>
<path d="M306.882 215.908C306.826 215.908 306.77 215.908 306.714 215.892L294.421 214.146C293.81 214.058 293.36 213.527 293.384 212.915C293.408 212.304 293.882 211.797 294.493 211.748L301.483 211.217C301.572 211.217 301.652 211.217 301.732 211.217L307.099 211.941C307.71 212.022 308.168 212.561 308.144 213.181L308.088 214.742C308.072 215.088 307.919 215.401 307.654 215.627C307.437 215.812 307.164 215.908 306.882 215.908Z" fill="black"/>
<path d="M238.355 262.199C238.178 262.199 238.01 262.143 237.857 262.03L234.089 259.061L231.18 259.479C230.738 259.552 230.336 259.238 230.272 258.795C230.208 258.353 230.513 257.951 230.955 257.886L234.201 257.419C234.41 257.387 234.635 257.444 234.812 257.58L238.853 260.759C239.199 261.032 239.263 261.539 238.99 261.885C238.829 262.086 238.596 262.191 238.355 262.191V262.199Z" fill="black"/>
<path d="M288.306 172.232C287.864 172.232 287.503 171.87 287.503 171.428V167.727C287.503 167.284 287.864 166.922 288.306 166.922C288.748 166.922 289.11 167.284 289.11 167.727V171.428C289.11 171.87 288.748 172.232 288.306 172.232Z" fill="black"/>
<path d="M282.417 296.171C282.353 296.171 282.288 296.171 282.232 296.147C281.798 296.042 281.533 295.608 281.637 295.173L283.485 287.473C283.59 287.038 284.024 286.773 284.458 286.877C284.892 286.982 285.157 287.416 285.052 287.851L283.204 295.551C283.116 295.921 282.786 296.171 282.425 296.171H282.417Z" fill="black"/>
<path d="M285.044 302.012C284.956 302.012 284.86 301.996 284.771 301.964C284.353 301.811 284.136 301.353 284.289 300.934L285.848 296.646C286.001 296.227 286.458 296.01 286.876 296.163C287.294 296.316 287.511 296.774 287.358 297.193L285.8 301.481C285.679 301.811 285.374 302.012 285.044 302.012Z" fill="black"/>
<path d="M257.132 355.327C256.883 355.327 256.642 355.215 256.489 355.005L251.781 348.649C251.516 348.295 251.588 347.788 251.95 347.522C252.303 347.257 252.809 347.329 253.074 347.691L257.783 354.048C258.048 354.402 257.976 354.909 257.614 355.174C257.469 355.279 257.301 355.335 257.14 355.335L257.132 355.327Z" fill="black"/>
<path d="M254.504 361.177C254.175 361.177 253.87 360.976 253.749 360.646L252.19 356.357C252.038 355.939 252.255 355.48 252.673 355.327C253.09 355.174 253.548 355.392 253.701 355.81L255.26 360.099C255.412 360.517 255.195 360.976 254.778 361.129C254.689 361.161 254.593 361.177 254.504 361.177Z" fill="black"/>
<path d="M238.034 397.048C237.672 397.048 237.351 396.807 237.254 396.444L236.378 393.033C236.266 392.598 236.523 392.164 236.957 392.051C237.383 391.946 237.825 392.196 237.937 392.63L238.813 396.042C238.925 396.477 238.668 396.911 238.234 397.024C238.17 397.04 238.098 397.048 238.034 397.048Z" fill="black"/>
<path d="M243.385 398.214C243.071 398.214 242.782 398.037 242.646 397.732L240.404 392.574C240.227 392.164 240.412 391.689 240.822 391.512C241.231 391.335 241.705 391.52 241.882 391.93L244.124 397.088C244.301 397.498 244.116 397.973 243.706 398.15C243.602 398.198 243.497 398.214 243.385 398.214Z" fill="black"/>
<path d="M250.495 399.39C250.166 399.39 249.86 399.188 249.74 398.859L245.072 385.896C244.919 385.477 245.136 385.019 245.554 384.866C245.972 384.713 246.43 384.93 246.582 385.349L251.25 398.311C251.403 398.73 251.186 399.188 250.768 399.341C250.68 399.373 250.584 399.39 250.495 399.39Z" fill="black"/>
<path d="M291.954 395.744C291.825 395.744 291.689 395.72 291.56 395.68C290.933 395.463 290.596 394.771 290.821 394.143L292.283 389.943C292.5 389.315 293.183 388.977 293.818 389.203C294.444 389.42 294.782 390.112 294.557 390.74L293.095 394.94C292.918 395.439 292.452 395.752 291.954 395.752V395.744Z" fill="black"/>
<path d="M258.184 245.583C257.919 245.583 257.662 245.454 257.51 245.213L254.882 241.117C254.641 240.747 254.754 240.248 255.123 240.007C255.501 239.766 255.991 239.878 256.232 240.248L258.859 244.344C259.1 244.714 258.988 245.213 258.618 245.454C258.482 245.543 258.337 245.583 258.184 245.583Z" fill="black"/>
<path d="M261.294 238.76C261.053 238.76 260.82 238.655 260.659 238.454L258.811 236.113C258.538 235.767 258.594 235.26 258.94 234.986C259.293 234.713 259.791 234.769 260.073 235.115L261.92 237.456C262.194 237.802 262.137 238.309 261.792 238.591C261.647 238.712 261.471 238.768 261.294 238.768V238.76Z" fill="black"/>
<path d="M263.921 232.13C263.712 232.13 263.512 232.049 263.351 231.896L261.985 230.529C261.672 230.215 261.672 229.708 261.985 229.394C262.298 229.08 262.805 229.08 263.118 229.394L264.484 230.762C264.797 231.076 264.797 231.583 264.484 231.896C264.323 232.049 264.122 232.13 263.913 232.13H263.921Z" fill="black"/>
<path d="M260.876 126.57C260.595 126.57 260.322 126.425 260.177 126.159C259.96 125.773 260.097 125.282 260.483 125.065L264.275 122.925C264.661 122.707 265.151 122.844 265.368 123.23C265.585 123.617 265.448 124.107 265.062 124.325L261.27 126.465C261.141 126.537 261.013 126.57 260.876 126.57Z" fill="black"/>
<path d="M267.135 128.911C266.902 128.911 266.677 128.815 266.517 128.621C266.227 128.283 266.276 127.777 266.613 127.487L269.096 125.395C269.433 125.105 269.939 125.153 270.229 125.491C270.518 125.829 270.47 126.336 270.132 126.626L267.649 128.718C267.497 128.847 267.312 128.911 267.135 128.911Z" fill="black"/>
</svg>
