<svg fill="none" height="271" viewBox="0 0 1440 271" width="1440" xmlns="http://www.w3.org/2000/svg"
     xmlns:xlink="http://www.w3.org/1999/xlink">

    <style>
        :root { fill:#222 }
        .accent { fill: #f9322c; }

        @media (prefers-color-scheme: dark) {
        :root {  fill: #f9322c; }
        .accent { fill:#dee2e6; }
        }
    </style>

    <clipPath id="a">
        <path d="m0-.000977h1440v271h-1440z"/>
    </clipPath>
    <g clip-path="url(#a)">
        <path
            d="m86.8226 98.5205c-3.7403 9.3455 2.3986 31.5745 7.6268 41.7415 5.2283 10.166-5.342 30.85-5.7567 37.544s12.3513 25.279 12.3513 25.279l32.597-15.991s-9.448-16.6-8.928-27.662c.52-11.061-7.684-27.052-18.474-35.779-10.7894-8.727-19.4083-25.1244-19.4083-25.1244z"
            class="accent"/>
        <path
            d="m217.716 68.2148c1.902 7.2307-17.124 20.7649-18.685 32.3962-1.553 11.63 6.748 28.117 6.537 39.406-.211 11.29-5.895 18.52-5.895 18.52l46.778-16.031s-4.139-8.873-15.035-17.698c-10.895-8.825-6.716-22.262-7.683-35.4054-.968-13.1437-6.017-21.1796-6.017-21.1796z"
            class="accent"/>
        <path
            d="m335.761 37.1689c12.457 11.0047 16.783 30.1103 15.124 43.5061-1.659 13.3959 23.978 39.09 21.693 42.205-2.284 3.115-49.672 13.916-52.526 15.941-2.854 2.026 1.553-30.329 5.602-45.3927 4.05-15.0551 14.742-20.0246 15.466-33.8353.723-13.8107-5.367-22.4241-5.367-22.4241z"
            class="accent"/>
        <path
            d="m437.318 21.959c16.815 7.2551 21.905 26.5803 21.067 37.7394-.829 11.1592 5.708 37.1376 5.708 37.1376l-38.077 5.889s4.651-21.4891 4.545-34.1529c-.106-12.6639 6.017-20.3501 6.017-28.7601s.723-17.853.723-17.853z"
            class="accent"/>
        <path
            d="m601.515 20.9346c-6.489 21.6351 3.269 40.3259 5.765 48.3211 2.488 7.9952-2.7 23.4814-2.7 23.4814l-55.949-2.0903s11.213-14.5346 17.856-21.3911c6.643-6.8566 8.098-4.6686 8.716-20.1467.618-15.478 26.312-28.1744 26.312-28.1744z"
            class="accent"/>
        <path
            d="m731.213 43.708c-15.571 10.6956-23.67 19.4228-23.564 29.183s-19.823 26.5396-19.823 26.5396l33.321 5.5394s-2.7-26.475 4.984-35.8204 5.09-25.4416 5.09-25.4416z"
            class="accent"/>
        <path
            d="m827.435 126.939c-2.7-13.559 12.562-32.2493 12.562-32.2493s13.913 6.6453 21.588-6.0188c-18.376 2.3912-33.109-26.377-33.109-26.377s2.699 28.7601-8.302 36.2348c-11.001 7.4743-14.115 22.5293-14.115 22.5293l21.384 5.873z"
            class="accent"/>
        <path
            d="m966.735 87.0107c-.016 13.1603-23.352 33.6403-23.149 43.5063.212 9.866-4.724 23.123-4.285 22.668.439-.456-32.979-9.801-32.979-9.801s3.114-11.55 15.88-19.48c12.765-7.93 14.221-13.745 18.376-23.188 4.155-9.4433 26.157-13.7053 26.157-13.7053z"
            class="accent"/>
        <path
            d="m922.201 123.904c-39.703-12.119-236.043-36.0881-313.116-39.0487-77.074-2.9606-172.573 13.9083-232.612 31.9807-60.039 18.065-174.337 46.703-266.819 109.266l50.762 25.742 201.942 15.421h293.805l246.158-25.702 154.139-65.011s-94.563-40.529-134.267-52.648zm-498.755 123.922-25.743 12.168-65.292 4.156-20.238-22.009v-3.53c5.082-7.231 38.509-18.276 38.509-18.276s5.602 29.175 22.734 30.216 32.174-19.626 33.426-32.916c16.279 2.879 30.313 17.129 30.313 17.129l-13.701 13.062zm253.89-13.998c-17.026 8.101-54.112 6.743-68.251 2.392-14.14-4.352-22.572-10.175-27.345-9.451-4.773.723-14.636 7.58-14.53 1.87.203-11.232 10.798-26.791 22.214-35.299 11.416-8.516 22.116-3.091 22.116-3.091s-3.74 40.879 20.856 40.57c24.597-.309 27.613-15.055 28.963-20.041s-2.285-26.06-2.285-26.06l45.151 13.079s-9.862 27.93-26.881 36.031z"
            class="accent"/>
        <g>
            <path
                d="m361.325 269.698c-3.139 0-6.139-.261-8.871-.863-27.117-6.018-39.817-23.44-43.623-29.752-16.424 9.345-35.898 19.081-64.706 26.377-1.317.333-2.635-.464-2.968-1.765-.333-1.31.463-2.635 1.764-2.969 34.362-8.711 55.267-20.992 73.708-31.826 12.05-7.076 23.433-13.77 36.988-18.561 36.101-12.777 79.399 6.686 90.978 26.044.39.659.455 1.456.17 2.163-.284.708-.886 1.245-1.626 1.44-2.756.748-5.066 1.277-6.919 1.7-6.351 1.464-7.497 1.724-9.294 5.628-2.464 5.352-20.815 12.558-30.174 15.625-6.944 2.269-22.32 6.75-35.419 6.75zm-48.241-33.063c3.488 5.644 15.481 21.895 40.435 27.434 22.328 4.953 66.617-14.185 68.975-18.796 2.798-6.076 6.082-6.833 12.628-8.337 1.041-.236 2.163-.496 3.399-.797-12.896-16.625-51.648-32.388-83.27-21.196-13.115 4.644-24.295 11.216-36.142 18.17-1.976 1.163-3.976 2.334-6.025 3.522z"/>
            <path
                d="m376.018 256.88c-1.122 0-2.261-.065-3.415-.204-9.034-1.065-16.701-7.84-20.507-18.129-3.927-10.615-2.789-22.254 2.781-28.297.911-.992 2.456-1.057 3.448-.138.992.911 1.057 2.456.138 3.449-4.301 4.676-5.058 14.477-1.789 23.294 1.521 4.099 6.163 13.762 16.506 14.974 7.261.854 13.953-1.611 18.831-6.946 4.684-5.116 7.164-12.469 6.034-17.878-2.139-10.224-7.074-15.291-7.123-15.34-.943-.951-.951-2.497 0-3.448.951-.952 2.48-.96 3.439-.016.244.244 6.001 6.035 8.465 17.804 1.455 6.954-1.44 15.868-7.204 22.172-5.196 5.677-12.059 8.703-19.596 8.703z"/>
            <path d="m374.156 215.992c-8.537 2.57-2.984 26.686 2.667 25.263 5.651-1.424 3.277-27.044-2.667-25.263z"/>
            <path
                d="m264.566 199.856c-2.155 0-3.96-1.7-4.058-3.88-.105-2.245 1.627-4.148 3.871-4.254 21.311-1 40.533-12.631 59.128-23.88 7.351-4.441 14.945-9.044 22.418-12.786 28.45-14.258 61.86-10.386 91.677 10.623 1.837 1.293 2.276 3.83.984 5.669-1.293 1.838-3.83 2.277-5.668.984-27.686-19.512-57.291-23.059-83.351-9.996-7.187 3.603-14.31 7.914-21.856 12.476-19.457 11.778-39.582 23.954-62.958 25.044-.065 0-.13 0-.195 0z"/>
            <path
                d="m261.769 234.463c-1.212 0-2.261-.903-2.415-2.139-.171-1.334.78-2.554 2.114-2.725 15.351-1.927 32.54-10.012 52.445-19.374 11.481-5.4 23.352-10.988 36.565-16.258 37.199-14.836 72.894 1.732 83.343 18.853.699 1.147.341 2.652-.813 3.351-1.147.699-2.651.342-3.35-.813-3.781-6.19-13.27-14.462-28.573-19.13-11.147-3.4-28.662-5.759-48.802 2.269-13.075 5.213-24.881 10.769-36.297 16.137-20.278 9.54-37.793 17.78-53.908 19.805-.106.016-.204.016-.309.016z"/>
            <path
                d="m637.299 240.287c-6.928 0-13.18-.52-17.01-.927-9.79-1.041-29.239-4.254-32.768-8.98-2.569-3.448-3.748-3.464-10.261-3.562-1.903-.033-4.277-.065-7.123-.22-.764-.04-1.464-.439-1.895-1.073-.43-.635-.536-1.432-.284-2.156 7.277-21.342 45.574-49.411 83.546-44.449 14.254 1.862 26.783 6.027 40.045 10.435 20.295 6.751 43.306 14.396 78.724 15.747 1.35.048 2.399 1.187 2.342 2.529-.049 1.342-1.138 2.399-2.529 2.343-29.702-1.131-50.778-6.58-68.788-12.298-2.407 6.97-11.196 26.661-36.459 38.203-7.562 3.456-18.173 4.408-27.532 4.408zm-63.454-18.422c1.268.04 2.423.057 3.488.073 6.716.106 10.09.163 14.091 5.523 3.26 4.009 50.567 13.493 71.374 3.985 23.246-10.622 31.581-29.012 33.825-35.267-2.244-.732-4.448-1.464-6.627-2.188-13.034-4.335-25.344-8.426-39.134-10.232-33.264-4.343-67.87 19.155-77.017 38.106z"/>
            <path
                d="m633.673 229.705c-5.424 0-10.684-1.691-15.351-5.026-6.952-4.962-11.644-13.071-11.677-20.179-.048-12.022 4.375-18.895 4.562-19.179.74-1.131 2.252-1.44 3.374-.7 1.13.74 1.439 2.253.7 3.376-.033.049-3.806 6.035-3.757 16.478.024 5.523 3.984 12.2 9.627 16.227 5.887 4.196 12.945 5.213 19.864 2.863 9.863-3.351 12.392-13.771 13.018-18.098 1.358-9.312-1.423-18.739-6.611-22.407-1.097-.781-1.357-2.302-.577-3.4.781-1.098 2.301-1.358 3.399-.578 6.7 4.75 10.245 15.893 8.619 27.093-1.578 10.858-7.66 19.081-16.279 22.009-2.976 1.009-5.976 1.513-8.919 1.513z"/>
            <path d="m632.592 188.729c8.879.732 8.48 25.474 2.667 25.263-5.814-.212-8.847-25.767-2.667-25.263z"/>
            <path
                d="m563.031 159.595c-.992 0-1.976-.358-2.765-1.082-1.65-1.529-1.748-4.099-.219-5.75 24.775-26.768 56.648-37.528 87.441-29.517 8.09 2.107 16.481 5.01 24.588 7.825 20.531 7.125 41.761 14.485 62.812 11.02 2.219-.366 4.309 1.139 4.675 3.351.366 2.213-1.138 4.311-3.35 4.677-23.092 3.799-45.306-3.904-66.796-11.362-8.326-2.888-16.197-5.621-23.97-7.638-28.215-7.336-56.421 2.31-79.432 27.174-.805.863-1.895 1.302-2.984 1.302z"/>
            <path
                d="m575.878 201.328c-.269 0-.545-.041-.813-.138-1.269-.447-1.936-1.838-1.488-3.115 6.651-18.927 38.118-42.571 77.578-35.828 14.017 2.399 26.791 5.376 39.15 8.263 21.417 5.002 39.923 9.321 55.332 8.012 1.333-.106 2.52.878 2.634 2.22s-.878 2.522-2.22 2.635c-16.188 1.383-35.036-3.025-56.86-8.117-12.286-2.871-24.986-5.84-38.858-8.206-21.376-3.652-38.012 2.318-48.2 7.962-13.994 7.76-21.547 17.829-23.954 24.669-.35 1.001-1.293 1.635-2.301 1.635z"/>
            <path
                d="m487.924 269.706c-1.154 0-2.171-.813-2.398-1.992-.139-.732-14.051-73.584-33.801-86.256-1.13-.724-1.464-2.237-.732-3.367.724-1.131 2.236-1.464 3.366-.732 21.499 13.802 35.378 86.377 35.956 89.46.252 1.326-.618 2.603-1.944 2.847-.154.032-.3.04-.455.04z"/>
            <path
                d="m543.044 269.706c-1.268 0-2.341-.984-2.431-2.269-.236-3.335-5.464-81.961 13.075-102.58.902-1 2.439-1.081 3.447-.179 1.001.903 1.082 2.44.179 3.449-17.172 19.097-11.887 98.179-11.838 98.976.089 1.343-.919 2.514-2.269 2.603-.057 0-.114 0-.171 0z"/>
            <path
                d="m59.7217 236.146c-.6261 0-1.2359-.284-1.6343-.821l-5.9275-8.012c-.6667-.902-.4797-2.171.4228-2.846.9026-.667 2.171-.48 2.8459.423l5.9275 8.011c.6667.903.4797 2.172-.4228 2.847-.3659.268-.7887.398-1.2034.398z"/>
            <path
                d="m70.4062 228.241c-.6261 0-1.236-.285-1.6344-.822l-23.8238-32.225c-.6667-.903-.4797-2.171.4228-2.846.9025-.667 2.171-.48 2.8459.422l23.8238 32.225c.6667.903.4797 2.172-.4228 2.847-.3659.269-.7887.399-1.2034.399z"/>
            <path
                d="m102.45 204.532c-.626 0-1.236-.285-1.634-.821l-5.9276-8.012c-.6667-.903-.4797-2.172.4228-2.847.9026-.667 2.171-.479 2.8459.423l5.9279 8.012c.666.903.479 2.171-.423 2.847-.366.268-.789.398-1.204.398z"/>
            <path
                d="m91.7665 212.438c-.6261 0-1.2359-.285-1.6343-.822l-23.8239-32.224c-.6667-.903-.4797-2.172.4229-2.847.9025-.667 2.1709-.48 2.8458.423l23.8238 32.225c.6668.902.4798 2.171-.4228 2.846-.3659.269-.7887.399-1.2034.399z"/>
            <path
                d="m81.09 220.343c-.6261 0-1.2359-.284-1.6343-.821l-41.2323-55.763c-.6668-.903-.4797-2.172.4228-2.847.9025-.667 2.171-.48 2.8458.423l41.2323 55.763c.6668.903.4798 2.172-.4228 2.847-.3659.268-.7887.398-1.2034.398z"/>
            <path
                d="m155.375 172.25c-.846 0-1.627-.528-1.919-1.366l-3.22-9.305c-.366-1.057.195-2.22 1.252-2.586s2.22.195 2.586 1.252l3.22 9.305c.366 1.057-.196 2.221-1.253 2.587-.219.073-.447.113-.666.113z"/>
            <path
                d="m167.775 167.947c-.846 0-1.626-.528-1.919-1.366l-12.961-37.406c-.366-1.057.195-2.221 1.252-2.587s2.22.196 2.586 1.253l12.961 37.406c.366 1.057-.195 2.22-1.252 2.586-.22.074-.448.114-.667.114z"/>
            <path
                d="m204.973 155.056c-.845 0-1.626-.529-1.919-1.366l-3.219-9.305c-.366-1.057.195-2.221 1.252-2.587s2.219.196 2.585 1.253l3.22 9.305c.366 1.057-.195 2.22-1.252 2.586-.219.073-.447.114-.667.114z"/>
            <path
                d="m192.574 159.351c-.846 0-1.627-.529-1.919-1.367l-12.961-37.406c-.366-1.057.195-2.22 1.252-2.586s2.22.195 2.586 1.252l12.961 37.406c.365 1.058-.196 2.221-1.253 2.587-.219.073-.447.114-.666.114z"/>
            <path
                d="m180.174 163.653c-.846 0-1.626-.529-1.919-1.367l-22.425-64.7341c-.366-1.0574.195-2.2205 1.252-2.5865s2.22.1952 2.585 1.2526l22.426 64.734c.366 1.058-.195 2.221-1.252 2.587-.22.073-.448.114-.667.114z"/>
            <path
                d="m267.713 135.275c-.894 0-1.716-.594-1.959-1.497l-2.586-9.459c-.301-1.082.341-2.204 1.423-2.497 1.081-.301 2.203.342 2.496 1.424l2.586 9.459c.301 1.082-.342 2.204-1.423 2.497-.179.049-.358.073-.537.073z"/>
            <path
                d="m280.324 131.818c-.894 0-1.715-.593-1.959-1.496l-10.408-38.0243c-.301-1.0817.341-2.2042 1.423-2.497 1.081-.3009 2.203.3417 2.496 1.4234l10.408 38.0239c.301 1.082-.342 2.204-1.423 2.497-.179.049-.358.073-.537.073z"/>
            <path
                d="m318.133 121.464c-.894 0-1.716-.593-1.96-1.496l-2.585-9.459c-.301-1.082.341-2.205 1.423-2.497 1.081-.301 2.203.341 2.496 1.423l2.586 9.459c.3 1.082-.342 2.204-1.423 2.497-.179.049-.358.073-.537.073z"/>
            <path
                d="m305.53 124.913c-.894 0-1.715-.594-1.959-1.496l-10.408-38.0245c-.301-1.0818.342-2.2042 1.423-2.497 1.081-.301 2.203.3416 2.496 1.4233l10.408 38.0242c.301 1.082-.342 2.204-1.423 2.497-.179.049-.358.073-.537.073z"/>
            <path
                d="m292.927 128.37c-.894 0-1.716-.594-1.96-1.497l-18.018-65.7999c-.301-1.0817.342-2.2042 1.423-2.497 1.082-.3009 2.204.3416 2.496 1.4234l18.019 65.7995c.3 1.082-.342 2.205-1.423 2.497-.179.049-.358.074-.537.074z"/>
            <path
                d="m390.604 103.375c-.967 0-1.829-.7-2-1.684l-1.683-9.703c-.195-1.1062.545-2.1635 1.659-2.3506 1.105-.1952 2.162.5531 2.349 1.6593l1.684 9.7033c.195 1.106-.545 2.163-1.659 2.35-.114.025-.236.033-.35.033z"/>
            <path
                d="m403.541 101.13c-.968 0-1.83-.699-2.001-1.6836l-6.765-39.0082c-.195-1.1062.545-2.1635 1.659-2.3506 1.114-.1952 2.155.5531 2.35 1.6592l6.765 39.0083c.195 1.1062-.545 2.1639-1.659 2.3509-.114.024-.236.032-.349.032z"/>
            <path
                d="m442.326 94.4042c-.968 0-1.83-.6995-2.001-1.6836l-1.683-9.7033c-.195-1.1062.553-2.1554 1.659-2.3506 1.114-.1952 2.155.5531 2.35 1.6592l1.683 9.7033c.195 1.1062-.553 2.1554-1.659 2.3506-.114.0244-.236.0325-.349.0325z"/>
            <path
                d="m429.397 96.6411c-.968 0-1.829-.6995-2-1.6837l-6.765-39.0082c-.195-1.1062.545-2.1635 1.659-2.3506 1.105-.1952 2.162.545 2.349 1.6592l6.765 39.0083c.196 1.1061-.544 2.1635-1.658 2.3506-.114.0244-.236.0325-.35.0325z"/>
            <path
                d="m416.469 98.8857c-.967 0-1.829-.6995-2-1.6837l-11.7-67.4999c-.196-1.1061.544-2.1554 1.658-2.3506 1.098-.1952 2.155.545 2.35 1.6593l11.701 67.4999c.195 1.1061-.545 2.1553-1.659 2.3506-.114.0244-.236.0325-.35.0325z"/>
            <path
                d="m511.789 89.5488c-1.114 0-2.016-.8946-2.032-2.0089l-.114-9.9636c-.016-1.1224.886-2.0415 2.008-2.0577h.025c1.113 0 2.016.8946 2.032 2.0089l.114 9.9636c.016 1.1224-.886 2.0415-2.008 2.0577z"/>
            <path
                d="m525.076 89.4022c-1.114 0-2.017-.8947-2.033-2.009l-.447-40.0737c-.016-1.1224.886-2.0415 2.008-2.0578h.025c1.114 0 2.016.8947 2.032 2.009l.448 40.0737c.016 1.1225-.887 2.0415-2.009 2.0578z"/>
            <path
                d="m564.933 88.9629c-1.114 0-2.016-.8947-2.032-2.009l-.106-9.9635c-.008-1.1224.886-2.0415 2.008-2.0578h.025c1.114 0 2.016.8947 2.032 2.009l.106 9.9635c.008 1.1224-.886 2.0415-2.008 2.0578z"/>
            <path
                d="m551.648 89.1092c-1.114 0-2.017-.8946-2.033-2.0089l-.439-40.0738c-.008-1.1224.886-2.0415 2.008-2.0577h.025c1.114 0 2.016.8946 2.032 2.0089l.439 40.0738c.009 1.1224-.886 2.0415-2.008 2.0577z"/>
            <path
                d="m538.362 89.256c-1.114 0-2.017-.8946-2.033-2.0089l-.764-69.3544c-.009-1.1224.886-2.0415 2.008-2.0577h.024c1.114 0 2.017.8946 2.033 2.0089l.764 69.3544c.008 1.1224-.886 2.0415-2.008 2.0577z"/>
            <path
                d="m633.543 94.3795c-.065 0-.139 0-.204-.0082-1.114-.1138-1.927-1.1143-1.821-2.2285l.992-9.8009c.114-1.1143 1.098-1.9276 2.228-1.8219 1.114.1139 1.927 1.1143 1.821 2.2286l-.992 9.8008c-.105 1.0493-.992 1.8301-2.016 1.8301z"/>
            <path
                d="m646.609 95.7054c-.065 0-.138 0-.203-.0081-1.114-.1139-1.927-1.1143-1.822-2.2286l3.985-39.4068c.113-1.1142 1.105-1.9357 2.228-1.8219 1.113.1139 1.927 1.1143 1.821 2.2286l-3.984 39.4068c-.106 1.0492-.992 1.83-2.017 1.83z"/>
            <path
                d="m685.8 99.6669c-.065 0-.138 0-.203-.0081-1.114-.1139-1.927-1.1143-1.821-2.2286l.992-9.8009c.114-1.1143 1.097-1.9357 2.228-1.8219 1.114.1139 1.927 1.1143 1.821 2.2286l-.992 9.8009c-.106 1.0492-.992 1.83-2.016 1.83z"/>
            <path
                d="m672.734 98.349c-.065 0-.138 0-.203-.0081-1.114-.1139-1.927-1.1143-1.822-2.2286l3.985-39.4068c.113-1.1143 1.105-1.9358 2.228-1.8219 1.113.1139 1.927 1.1143 1.821 2.2286l-3.984 39.4068c-.106 1.0492-.992 1.83-2.017 1.83z"/>
            <path
                d="m659.675 97.0231c-.065 0-.138 0-.203-.0081-1.114-.1139-1.927-1.1143-1.821-2.2286l6.903-68.1913c.114-1.1142 1.098-1.9357 2.228-1.8219 1.114.1139 1.927 1.1143 1.821 2.2286l-6.903 68.1913c-.106 1.0492-.992 1.83-2.016 1.83z"/>
            <path
                d="m749.41 111.086c-.131 0-.261-.008-.399-.04-1.098-.22-1.821-1.285-1.602-2.392l1.903-9.6215c.22-1.1061 1.293-1.8219 2.391-1.6023 1.097.2196 1.821 1.2851 1.601 2.3913l-1.902 9.6215c-.195.968-1.041 1.643-1.992 1.643z"/>
            <path
                d="m762.24 113.624c-.13 0-.26-.009-.398-.041-1.098-.22-1.822-1.285-1.602-2.391l7.643-38.6995c.22-1.1062 1.293-1.8219 2.391-1.6023 1.097.2196 1.821 1.2851 1.601 2.3912l-7.643 38.6996c-.195.967-1.04 1.643-1.992 1.643z"/>
            <path
                d="m800.732 121.237c-.13 0-.26-.008-.398-.041-1.098-.22-1.821-1.285-1.602-2.391l1.903-9.622c.219-1.106 1.293-1.822 2.39-1.602 1.098.219 1.822 1.285 1.602 2.391l-1.903 9.622c-.195.968-1.04 1.643-1.992 1.643z"/>
            <path
                d="m787.902 118.699c-.13 0-.26-.008-.399-.041-1.097-.219-1.821-1.285-1.601-2.391l7.651-38.6993c.219-1.1062 1.293-1.8219 2.39-1.6023 1.098.2196 1.822 1.2851 1.602 2.3912l-7.651 38.6994c-.195.968-1.041 1.643-1.992 1.643z"/>
            <path
                d="m775.071 116.161c-.13 0-.26-.008-.398-.04-1.098-.22-1.822-1.286-1.602-2.392l13.237-66.9709c.22-1.1061 1.293-1.8219 2.391-1.6023 1.097.2196 1.821 1.2851 1.602 2.3913l-13.238 66.9709c-.195.968-1.04 1.643-1.992 1.643z"/>
            <path
                d="m862.008 133.738c-.171 0-.35-.025-.529-.074-1.081-.292-1.732-1.407-1.439-2.488l2.537-9.517c.292-1.081 1.406-1.724 2.488-1.439 1.081.293 1.732 1.407 1.439 2.489l-2.537 9.516c-.244.911-1.065 1.513-1.959 1.513z"/>
            <path
                d="m874.692 137.121c-.171 0-.349-.024-.528-.073-1.082-.293-1.732-1.407-1.44-2.489l10.213-38.2678c.293-1.0817 1.407-1.7243 2.488-1.4396 1.082.2928 1.732 1.4071 1.439 2.4889l-10.212 38.2685c-.244.911-1.065 1.512-1.96 1.512z"/>
            <path
                d="m912.753 147.28c-.171 0-.349-.024-.528-.073-1.082-.293-1.732-1.407-1.439-2.489l2.536-9.516c.293-1.082 1.407-1.732 2.488-1.439 1.082.292 1.732 1.407 1.44 2.488l-2.537 9.517c-.244.911-1.065 1.512-1.96 1.512z"/>
            <path
                d="m900.069 143.897c-.171 0-.35-.025-.529-.074-1.081-.292-1.732-1.407-1.439-2.488l10.212-38.269c.293-1.081 1.407-1.732 2.489-1.439 1.081.293 1.731 1.407 1.439 2.489l-10.213 38.268c-.244.911-1.065 1.513-1.959 1.513z"/>
            <path
                d="m887.385 140.505c-.171 0-.35-.025-.529-.073-1.081-.293-1.732-1.408-1.439-2.489l17.669-66.2232c.292-1.0818 1.406-1.7324 2.488-1.4396 1.081.2928 1.732 1.4071 1.439 2.4888l-17.669 66.223c-.244.911-1.065 1.513-1.959 1.513z"/>
            <path
                d="m958.343 160.473c-.227 0-.463-.041-.691-.122-1.057-.382-1.602-1.546-1.219-2.603l3.398-9.37c.382-1.057 1.553-1.602 2.602-1.22 1.057.383 1.602 1.546 1.22 2.603l-3.399 9.37c-.301.829-1.081 1.342-1.911 1.342z"/>
            <path
                d="m970.833 165.003c-.228 0-.464-.04-.691-.122-1.057-.382-1.602-1.545-1.22-2.602l13.652-37.683c.382-1.057 1.553-1.602 2.602-1.22 1.057.382 1.602 1.545 1.219 2.603l-13.652 37.682c-.3.83-1.081 1.342-1.91 1.342z"/>
            <path
                d="m1008.31 178.586c-.23 0-.47-.041-.69-.122-1.06-.382-1.6-1.545-1.22-2.603l3.4-9.369c.38-1.058 1.55-1.603 2.6-1.22 1.06.382 1.6 1.545 1.22 2.602l-3.4 9.37c-.3.83-1.08 1.342-1.91 1.342z"/>
            <path
                d="m995.819 174.064c-.228 0-.463-.041-.691-.122-1.057-.382-1.602-1.546-1.22-2.603l13.652-37.682c.38-1.058 1.55-1.603 2.6-1.22 1.06.382 1.6 1.545 1.22 2.602l-13.65 37.683c-.301.829-1.082 1.342-1.911 1.342z"/>
            <path
                d="m983.322 169.534c-.228 0-.464-.041-.691-.122-1.057-.382-1.602-1.546-1.22-2.603l23.629-65.206c.38-1.057 1.55-1.602 2.6-1.22 1.06.382 1.6 1.545 1.22 2.603l-23.627 65.206c-.301.829-1.082 1.342-1.911 1.342z"/>
            <path
                d="m82.2531 223.67c-1.0408 0-2.0816-.399-2.8784-1.188-1.5855-1.586-1.5855-4.164 0-5.75 41.3133-41.326 106.8093-60.896 159.4323-76.626 9.798-2.928 19.059-5.693 27.8-8.483 50.225-16.015 167.71-46.2959 252.85-46.2959 58.389 0 79.407 2.2042 111.224 5.5471 12.652 1.3258 26.987 2.8304 46.07 4.4409 52.413 4.4083 149.277 27.5969 201.316 40.0579 14.359 3.44 25.702 6.148 31.483 7.36 26.702 5.588 70.235 20.066 72.073 20.684 2.13.707 3.285 3.009 2.569 5.14-.715 2.131-3.016 3.286-5.138 2.57-.448-.146-44.932-14.941-71.171-20.439-5.895-1.236-17.287-3.961-31.711-7.41-51.827-12.411-148.301-35.502-200.104-39.862-19.165-1.61-33.548-3.123-46.233-4.4571-31.556-3.3103-52.412-5.4983-110.37-5.4983-84.131 0-200.567 30.0294-250.378 45.9054-8.814 2.814-18.108 5.588-27.938 8.524-51.746 15.462-116.151 34.706-156.0094 74.576-.7969.797-1.8376 1.188-2.8784 1.188z"/>
        </g>
        <path
            d="m1440 15.8839s-205.57-9.34542-465.272 143.9141c-259.712 153.251-553.046 111.201-974.728 37.382v73.827h1440z"
            fill="#14161f"/>
        <path
            d="m97.3201 208.306c-.3821 0-.7643-.106-1.1058-.334-.9432-.61-1.2034-1.87-.5936-2.814 2.4962-3.839.9107-9.101-1.0977-15.771-1.2847-4.27-2.7401-9.109-3.2361-14.298-.4472-4.693-.2358-8.858-.0406-12.534.3577-6.954.6423-12.444-3.1224-19.041-6.6349-11.622 2.293-34.583 2.6751-35.551.3985-1.017 1.5287-1.529 2.5532-1.18.5691.196 14.0018 4.872 20.1568 10.379.846.756 1.821 1.578 2.862 2.464 6.22 5.271 15.62 13.242 18.303 24.262 2.642 10.859 16.603 24.32 24.978 24.32.204 0 .399 0 .602-.025 1.106-.073 2.098.74 2.195 1.863.09 1.122-.74 2.098-1.862 2.196-.268.024-.544.032-.821.032-10.237 0-25.921-14.648-29.027-27.418-2.375-9.735-10.815-16.893-16.986-22.123-1.073-.911-2.074-1.757-2.944-2.537-4.276-3.823-13.0498-7.41-16.8958-8.874-1.9189 5.531-6.9439 21.96-2.2523 30.175 4.3582 7.638 4.0167 14.258 3.659 21.269-.1952 3.709-.3903 7.548.0244 11.94.4553 4.783 1.7888 9.216 3.0816 13.51 2.1301 7.068 4.1391 13.746.6098 19.171-.3902.602-1.0407.919-1.7075.919z"
            />
        <path
            d="m100.784 147.345c-.691 0-1.3744-.358-1.7484-1-5.1713-8.744-4.7729-18.74-2.6751-25.182.3497-1.065 1.4961-1.651 2.5613-1.301 1.0651.35 1.6502 1.497 1.3012 2.562-1.8216 5.596-2.1712 14.282 2.309 21.855.569.968.252 2.212-.716 2.781-.325.196-.683.285-1.032.285z"
            />
        <path
            d="m111.996 197.822c-.723 0-1.422-.39-1.788-1.073-.374-.692-9.115-17.121-9.115-30.102 0-1.123.91-2.034 2.033-2.034 1.122 0 2.032.911 2.032 2.034 0 11.948 8.546 28.011 8.635 28.174.529.992.163 2.221-.829 2.749-.309.163-.634.244-.959.244z"
            />
        <path
            d="m132.259 185.979c-.366 0-.805-.097-1.261-.398-1.553-1.025-9.562-10.826-8.968-18.463.52-6.8.073-13.429-10.782-25.759-.74-.846-.658-2.131.179-2.871.846-.74 2.131-.659 2.87.179 11.888 13.501 12.36 21.301 11.782 28.752-.414 5.351 5.546 13.273 7.058 14.656.398.179.74.488.959.911.521.992.139 2.221-.861 2.741-.179.098-.529.236-.976.236zm-.83-3.888s-.056.025-.081.041c.025-.016.057-.024.081-.041z"
            />
        <path
            d="m203.365 158.87c-.171 0-.342-.024-.513-.065-1.089-.284-1.74-1.39-1.455-2.48.797-3.067 2.008-5.677 3.179-8.207 2.879-6.222 4.96-10.712-.227-18.479-6.448-9.647-7.31-23.148-2.188-34.3887 3.269-7.1819 7.489-11.3788 10.871-14.7542 2.708-2.7003 4.66-4.6442 5.001-6.9704.106-.7483.618-1.3664 1.334-1.6186.707-.2521 1.496-.0894 2.057.4148 1.992 1.8301 3.846 3.3998 5.48 4.7907 6.31 5.3599 10.473 8.898 11.814 17.7391 1.505 9.9473 6.814 18.4303 13.197 21.1063 5.358 2.245 9.269 6.011 12.717 9.329 5.09 4.905 8.204 7.621 12.952 6.304 1.082-.301 2.204.333 2.505 1.423.301 1.082-.334 2.204-1.423 2.505-7.204 1.993-11.896-2.521-16.856-7.296-3.342-3.22-6.805-6.555-11.464-8.507-7.652-3.205-13.937-12.949-15.653-24.2461-1.113-7.3365-4.423-10.1506-10.432-15.2503-1.024-.8703-2.13-1.8138-3.317-2.8468-1.147 2.1229-3.009 3.9692-5.049 6.0107-3.155 3.1395-7.083 7.0517-10.042 13.5585-4.554 9.988-3.822 21.936 1.862 30.444 6.464 9.662 3.447 16.161.536 22.448-1.097 2.367-2.227 4.815-2.935 7.524-.236.911-1.065 1.521-1.968 1.521z"
            />
        <path
            d="m218.643 138.626c-.236 0-.472-.041-.699-.122-1.057-.39-1.594-1.553-1.204-2.611.025-.065 2.35-6.653-.935-10.85-4.236-5.417-8.968-20.358-3.301-30.8422.537-.9841 1.773-1.3582 2.756-.8214.984.5368 1.358 1.7649.822 2.7572-4.757 8.8004-.626 21.8624 2.927 26.4014 4.691 5.994 1.683 14.404 1.553 14.762-.301.822-1.082 1.334-1.911 1.334z"
            />
        <path
            d="m234.994 128.37c-.464 0-.927-.155-1.309-.48-8.944-7.516-9.66-18.96-10.343-30.0211-.537-8.5401-1.041-16.6167-5.017-22.969-.593-.9516-.309-2.2041.643-2.806.951-.5938 2.203-.3091 2.805.6425 4.529 7.2307 5.082 16.202 5.626 24.8723.667 10.6793 1.293 20.7643 8.904 27.1573.862.724.967 2.009.252 2.863-.407.48-.976.724-1.561.724z"
            />
        <path
            d="m315.548 125.816c-1.106 0-2.009-.886-2.033-1.992-.399-20.017 6.342-31.103 12.302-40.8794 2.057-3.3754 3.992-6.5638 5.586-9.9798 6.082-13.0624 4.968-31.3791 4.952-31.558-.041-.61.195-1.1956.634-1.6186.439-.4148 1.049-.61 1.651-.5368.862.1139 21.254 2.9037 27.352 20.6184 3.066 8.9062 8.432 12.5175 13.156 15.6977 3.854 2.5946 7.497 5.0509 9.107 9.7358 3.431 9.9635.146 20.1627.008 20.5937-.349 1.066-1.496 1.643-2.569 1.294-1.065-.35-1.643-1.505-1.293-2.571.033-.089 2.984-9.3532.008-17.9909-1.171-3.3999-3.976-5.295-7.537-7.6943-5.001-3.3673-11.221-7.5561-14.726-17.7473-4.13-11.9807-16.424-16.1694-21.644-17.4301.105 5.7666-.252 19.8213-5.424 30.9154-1.683 3.6194-3.683 6.9053-5.797 10.3784-5.944 9.7601-12.083 19.8538-11.709 38.6828.025 1.122-.87 2.05-1.992 2.074-.016 0-.024 0-.04 0z"
            />
        <path
            d="m338.379 86.1325c-.439 0-.886-.1464-1.26-.4392-.878-.6995-1.025-1.9765-.325-2.8549 7.814-9.8415 9.529-21.8547 4.838-33.8191-.407-1.0492.105-2.2286 1.146-2.6352 1.049-.4148 2.228.1057 2.635 1.1468 5.171 13.1763 3.187 26.9625-5.44 37.8289-.399.5043-.992.7727-1.594.7727z"
            />
        <path
            d="m328.875 117.902c-.781 0-1.529-.455-1.854-1.22-.09-.203-2.098-5.059-.122-14.607.228-1.098 1.301-1.806 2.407-1.578 1.097.227 1.805 1.301 1.577 2.407-1.683 8.15-.13 12.16-.114 12.2.415 1.033-.073 2.221-1.106 2.644-.26.106-.52.154-.788.154z"
            />
        <path
            d="m358.78 112.81c-.813 0-1.577-.488-1.894-1.293-5.993-15.2665-.984-27.6782-.765-28.1988.431-1.0411 1.618-1.5291 2.659-1.098s1.529 1.6186 1.098 2.6597c-.041.1057-4.57 11.4682.797 25.1491.406 1.049-.106 2.228-1.147 2.635-.244.097-.496.138-.74.138z"
            />
        <path
            d="m426.023 101.131c-.65 0-1.292-.309-1.683-.894-.626-.9276-.382-2.1964.545-2.8227 7.269-4.9207 7.456-12.6232 7.676-21.5456.162-6.702.333-13.6317 3.488-20.2117 6.789-14.1767 3.488-34.0875 3.448-34.2909-.098-.5612.048-1.1305.39-1.586.349-.4473.862-.732 1.431-.789.764-.0732 18.791-1.5453 26.548 9.1584 2.333 3.2208 4.114 6.6776 5.83 10.0204 3.61 7.0192 7.025 13.6562 15.115 17.1129 6.448 2.7573 11.879 9.8334 17.132 16.6818 5.366 7.003 10.92 14.2418 16.311 14.6159 1.122.0813 1.968 1.0492 1.886 2.1717-.081 1.1224-1.065 1.9601-2.171 1.8869-7.22-.5043-13.066-8.1335-19.254-16.2019-4.927-6.4336-10.025-13.0787-15.498-15.4211-9.44-4.0342-13.351-11.6309-17.14-18.9836-1.65-3.2046-3.358-6.5231-5.504-9.4918-4.993-6.8972-16.1-7.5885-20.743-7.5723.716 5.8968 1.895 21.8873-4.114 34.4373-2.773 5.791-2.935 12.2815-3.09 18.5525-.227 9.2071-.455 18.7233-9.456 24.8148-.35.236-.748.35-1.138.35z"
            />
        <path
            d="m452.352 69.3698c-.114 0-.236-.0082-.358-.0326-1.106-.1952-1.846-1.2525-1.651-2.3587.114-.6588.244-1.342.366-2.0415 2.09-11.5252 4.952-27.3041-6.643-41.7004-.707-.8785-.569-2.1554.309-2.8549.878-.7076 2.155-.5693 2.854.3091 12.766 15.844 9.587 33.3798 7.481 44.9782-.131.6914-.252 1.3746-.366 2.0253-.171.9841-1.033 1.6836-2.001 1.6836z"
            />
        <path
            d="m474.062 73.2084c-.35 0-.708-.0895-1.033-.2847-7.529-4.449-8.066-9.6626-8.814-16.877-.349-3.3754-.748-7.2063-1.854-11.9806-.252-1.0899.423-2.188 1.521-2.4401s2.187.4229 2.439 1.521c1.163 5.0265 1.594 9.1583 1.935 12.4849.74 7.1249 1.074 10.3865 6.838 13.7944.968.5693 1.285 1.8219.716 2.7817-.382.6425-1.057 1.0004-1.748 1.0004z"
            />
        <path
            d="m640.08 97.9836c-.187 0-.382-.0244-.577-.0814-.626-.187-15.416-4.6279-20.132-12.7777-5.22-9.0282-3.48-17.7229-1.944-25.4009.212-1.0655.423-2.131.618-3.1802.7-3.8146-2.967-8.6296-7.61-14.7216-3.724-4.8883-8.294-10.8827-11.912-18.2028-4.553 2.3506-16.604 10.3377-16.604 28.9308 0 10.11-4.805 14.6078-9.448 18.9511-4.464 4.1806-9.082 8.4995-10.172 18.6013-.122 1.1143-1.114 1.9195-2.236 1.8056-1.114-.122-1.927-1.1224-1.805-2.2367 1.252-11.6065 6.668-16.6736 11.441-21.1389 4.382-4.0993 8.163-7.6374 8.163-15.9824 0-25.3114 20.718-33.4368 20.929-33.5181 1-.3741 2.122.0813 2.57 1.0574 3.545 7.7512 8.212 13.8676 12.326 19.2682 5.253 6.8891 9.4 12.3304 8.375 17.9181-.195 1.0736-.415 2.1554-.634 3.2453-1.464 7.312-2.976 14.868 1.48 22.5623 3.903 6.7427 17.628 10.8663 17.766 10.907 1.073.3172 1.691 1.4478 1.374 2.5295-.26.8866-1.073 1.4559-1.951 1.4559z"
            />
        <path
            d="m573.178 81.6263c-.536 0-1.065-.2114-1.471-.6263-.781-.8133-.748-2.0984.065-2.8792.293-.2847 7.318-7.0029 12.66-10.9233 2.293-1.6918 2.268-6.5963 2.244-12.2734-.024-4.384-.041-9.3536 1.024-14.1035.244-1.0981 1.326-1.7894 2.432-1.5373 1.097.244 1.78 1.3339 1.536 2.432-.967 4.2944-.943 9.02-.927 13.1925.033 6.7915.065 12.6557-3.902 15.5675-5.123 3.7658-12.181 10.5166-12.254 10.5898-.39.3742-.902.5612-1.407.5612z"
            />
        <path
            d="m601.515 65.1401c-.773 0-1.512-.4474-1.854-1.1957-1.455-3.2127-1.228-6.9785-1-10.9558.268-4.5466.569-9.7033-1.659-14.7948-.447-1.0248.016-2.2286 1.049-2.6759 1.025-.4474 2.228.0162 2.675 1.0492 2.618 5.9862 2.285 11.6553 1.992 16.6574-.211 3.6194-.398 6.7426.643 9.0444.463 1.0248 0 2.2286-1.017 2.6922-.268.122-.553.179-.837.179z"
            />
        <path
            d="m605.247 91.4353c-.349 0-.715-.0894-1.04-.2846-.968-.5775-1.285-1.8219-.708-2.7898.106-.1871 2.781-4.9289-.065-10.4678-.512-1.0005-.122-2.2205.878-2.741.992-.5124 2.22-.122 2.741.8784 3.894 7.5886.105 14.1279-.066 14.4044-.382.6426-1.057.9923-1.748.9923z"
            />
        <path
            d="m754.735 113.803c-.593 0-1.179-.261-1.585-.757-.35-.431-8.562-10.72-8.562-19.3737 0-3.3022-2.204-5.6121-4.757-8.2799-2.707-2.8305-5.781-6.0432-6.724-11.0453-.585-3.107-.211-5.7422.163-8.2962.691-4.7906 1.292-8.9793-5.505-15.6976-2.919 3.9854-7.651 6.4987-12.262 8.9387-7.187 3.8065-11.537 6.4173-10.472 11.8017 1.91 9.6707-4.578 14.9168-11.441 20.472-3.268 2.6515-6.659 5.3844-9.554 8.8333-.723.862-2 .968-2.862.252-.862-.7241-.975-2.001-.252-2.8632 3.147-3.7495 6.847-6.7426 10.107-9.386 6.643-5.3763 11.44-9.2641 10.009-16.5273-1.699-8.6215 5.871-12.6394 12.563-16.1775 4.854-2.5783 9.879-5.238 11.887-9.4267.277-.5775.805-.9842 1.431-1.1143.626-.1302 1.277.0488 1.748.4717 10.319 9.1746 9.416 15.4537 8.619 20.9926-.333 2.3262-.65 4.5222-.187 6.9623.724 3.8146 3.123 6.3278 5.668 8.9875 2.894 3.0256 5.886 6.157 5.886 11.0941 0 7.2148 7.587 16.7228 7.66 16.8198.707.879.569 2.156-.309 2.855-.374.301-.829.447-1.277.447z"
            />
        <path
            d="m711.593 72.5902c-.196 0-.391-.0244-.578-.0895-1.073-.3172-1.691-1.4558-1.366-2.5295 1.025-3.4323 3.684-5.5633 6.505-7.8081 4.155-3.3185 8.448-6.7427 9.139-15.169.09-1.1224 1.082-1.9439 2.196-1.8626 1.122.0895 1.951 1.0736 1.862 2.1961-.838 10.175-6.286 14.5183-10.66 18.0157-2.504 2.0008-4.488 3.5787-5.147 5.791-.26.8784-1.073 1.4559-1.943 1.4559z"
            />
        <path
            d="m712.129 106.011c-.675 0-1.333-.341-1.724-.951-.593-.952-.309-2.205.643-2.807 3.228-2.025 3.789-6.3274 4.504-11.7687.813-6.2628 1.83-14.0466 7.538-21.204.699-.8785 1.975-1.0249 2.854-.3254.878.6995 1.024 1.9765.325 2.8549-5.001 6.2709-5.895 13.1356-6.684 19.195-.78 5.9863-1.52 11.6472-6.374 14.6892-.334.211-.708.309-1.082.309z"
            />
        <path
            d="m735.864 95.6981c-.383 0-.773-.1139-1.114-.3416-.22-.1464-5.399-3.7251-5.57-13.404-.016-1.1224.87-2.0496 2-2.0659 1.138-.0325 2.049.8703 2.065 2.0008.131 7.4096 3.643 10.0042 3.798 10.11.902.6425 1.138 1.9032.504 2.8223-.399.5693-1.025.8865-1.675.8865z"
            />
        <path
            d="m862.008 134.576c-.781 0-1.521-.447-1.862-1.212-.959-2.163-9.164-21.383-3.098-30.265 3.171-4.6356 3.529-9.7353 3.358-12.8667-2.073 1.1061-5.057 2.2041-8.31 1.8137-8.261-1.0004-13.05-9.3698-14.595-25.5636-5.252 3.9855-10.993 11.5984-13.237 21.2529-1.35 5.8073-5.814 10.1099-10.538 14.6567-5.439 5.238-11.066 10.655-13.27 19.154-.284 1.09-1.398 1.741-2.48 1.456-1.089-.285-1.74-1.391-1.455-2.481 2.496-9.613 8.814-15.697 14.384-21.0654 4.464-4.3026 8.318-8.0196 9.391-12.6475 2.919-12.5907 11.375-22.1394 17.994-25.6775.61-.3253 1.341-.3172 1.943.0163.602.3334.992.9597 1.041 1.6511 1.016 15.9416 4.814 24.4249 11.294 25.2138 4.155.5043 8.058-2.7654 8.098-2.7979.537-.4555 1.269-.6019 1.944-.3904.666.2115 1.179.7564 1.349 1.4396.106.4148 2.48 10.2726-3.569 19.1379-4.066 5.954 1.122 21.025 3.456 26.328.455 1.025-.009 2.229-1.041 2.684-.268.122-.545.171-.821.171z"
            />
        <path
            d="m812.644 121.96c-.122 0-.244-.008-.366-.032-1.105-.203-1.837-1.253-1.642-2.359.106-.602 2.781-14.868 13.294-20.8704 6.237-3.5624 6.944-9.6544 7.83-17.3569.358-3.0582.724-6.2302 1.464-9.5324.244-1.098 1.333-1.7813 2.431-1.5372 1.098.244 1.781 1.3338 1.537 2.4319-.699 3.0907-1.049 6.1408-1.391 9.1014-.943 8.1416-1.829 15.8359-9.854 20.4236-8.847 5.059-11.286 17.934-11.311 18.064-.178.984-1.032 1.667-2 1.667z"
            />
        <path
            d="m839.265 119.619c-.13 0-.252-.009-.382-.033-1.106-.211-1.829-1.269-1.618-2.375.122-.651 3.155-16.015 14.441-19.7074 1.073-.3497 2.212.2359 2.561 1.3014.35 1.0655-.236 2.212-1.301 2.562-8.993 2.944-11.684 16.47-11.717 16.609-.187.976-1.04 1.651-1.992 1.651z"
            />
        <path
            d="m965.849 164.63c-.569 0-1.122-.236-1.529-.7-.228-.26-2.325-2.798-6.123-11.078-2.203-4.798-.187-9.467 1.936-14.412 2.081-4.832 4.431-10.305 3.252-16.91l-.154-.862c-1.594-8.849-3.57-20.6753-3.651-27.6864-11.075 4.8964-16.466 17.9264-18.344 23.6194-1.48 4.474-5.065 6.499-8.863 8.638-5.895 3.327-13.237 7.467-17.66 22.928-.309 1.082-1.431 1.708-2.513 1.391-1.081-.309-1.699-1.431-1.39-2.513 4.887-17.064 13.375-21.855 19.571-25.344 3.488-1.968 6.017-3.392 7.001-6.377 2.236-6.75 9.017-22.9117 23.791-27.2469.659-.1952 1.374-.0406 1.895.4067.52.4474.781 1.1306.691 1.8056-.52 4.0017.642 13.9816 3.472 29.6546l.154.87c1.399 7.809-1.325 14.145-3.52 19.236-1.911 4.441-3.423 7.955-1.976 11.111 3.545 7.735 5.488 10.093 5.513 10.118.715.854.618 2.139-.236 2.863-.382.325-.854.488-1.325.488z"
            />
        <path
            d="m920.234 151.103c-.154 0-.309-.016-.463-.057-1.09-.252-1.773-1.342-1.521-2.44 1.578-6.799 9.489-12.184 15.847-16.511 2.586-1.756 5.025-3.416 6.334-4.733 4.115-4.116 4.855-10.842 4.863-10.907.114-1.115 1.106-1.936 2.236-1.814 1.114.114 1.927 1.114 1.813 2.237-.032.333-.911 8.239-6.033 13.363-1.586 1.586-4.057 3.27-6.928 5.222-5.773 3.928-12.961 8.816-14.172 14.062-.22.944-1.057 1.578-1.976 1.578z"
            />
        <path
            d="m953.709 131.461c-.138 0-.276-.016-.422-.041-1.098-.227-1.806-1.309-1.57-2.407.033-.138 2.773-13.559.025-24.254-.277-1.09.374-2.196 1.463-2.473 1.09-.276 2.196.374 2.472 1.464 2.992 11.631.146 25.523.024 26.109-.203.96-1.049 1.618-1.984 1.618z"
            />
    </g>
</svg>
