<svg width="1440" height="271" viewBox="0 0 1440 271" fill="none" xmlns="http://www.w3.org/2000/svg">
<g clip-path="url(#clip0_242_4844)">
<path d="M86.8226 98.5205C83.0823 107.866 89.2212 130.095 94.4494 140.262C99.6777 150.428 89.1074 171.112 88.6927 177.806C88.278 184.5 101.044 203.085 101.044 203.085L133.641 187.094C133.641 187.094 124.193 170.494 124.713 159.432C125.233 148.371 117.029 132.38 106.239 123.653C95.4496 114.926 86.8307 98.5286 86.8307 98.5286L86.8226 98.5205Z" fill="#FF3939"/>
<path d="M217.716 68.2148C219.618 75.4455 200.592 88.9797 199.031 100.611C197.478 112.241 205.779 128.728 205.568 140.017C205.357 151.307 199.673 158.537 199.673 158.537L246.451 142.506C246.451 142.506 242.312 133.633 231.416 124.808C220.521 115.983 224.7 102.546 223.733 89.4026C222.765 76.2589 217.716 68.223 217.716 68.223V68.2148Z" fill="#FF3939"/>
<path d="M335.761 37.1689C348.218 48.1736 352.544 67.2792 350.885 80.675C349.226 94.0709 374.863 119.765 372.578 122.88C370.294 125.995 322.906 136.796 320.052 138.821C317.198 140.847 321.605 108.492 325.654 93.4283C329.704 78.3732 340.396 73.4037 341.12 59.593C341.843 45.7823 335.753 37.1689 335.753 37.1689H335.761Z" fill="#FF3939"/>
<path d="M437.318 21.959C454.133 29.2141 459.223 48.5393 458.385 59.6984C457.556 70.8576 464.093 96.836 464.093 96.836L426.016 102.725C426.016 102.725 430.667 81.2359 430.561 68.5721C430.455 55.9082 436.578 48.222 436.578 39.812C436.578 31.402 437.301 21.959 437.301 21.959H437.318Z" fill="#FF3939"/>
<path d="M601.515 20.9346C595.026 42.5697 604.784 61.2605 607.28 69.2557C609.768 77.2509 604.58 92.7371 604.58 92.7371L548.631 90.6468C548.631 90.6468 559.844 76.1122 566.487 69.2557C573.13 62.3991 574.585 64.5871 575.203 49.109C575.821 33.631 601.515 20.9346 601.515 20.9346Z" fill="#FF3939"/>
<path d="M731.213 43.708C715.642 54.4036 707.543 63.1308 707.649 72.891C707.755 82.6512 687.826 99.4306 687.826 99.4306L721.147 104.97C721.147 104.97 718.447 78.495 726.131 69.1496C733.815 59.8042 731.221 43.708 731.221 43.708H731.213Z" fill="#FF3939"/>
<path d="M827.435 126.939C824.735 113.38 839.997 94.6897 839.997 94.6897C839.997 94.6897 853.91 101.335 861.585 88.6709C843.209 91.0621 828.476 62.2939 828.476 62.2939C828.476 62.2939 831.175 91.054 820.174 98.5287C809.173 106.003 806.059 121.058 806.059 121.058L827.443 126.931L827.435 126.939Z" fill="#FF3939"/>
<path d="M966.735 87.0107C966.719 100.171 943.383 120.651 943.586 130.517C943.798 140.383 938.862 153.64 939.301 153.185C939.74 152.729 906.322 143.384 906.322 143.384C906.322 143.384 909.436 131.834 922.202 123.904C934.967 115.974 936.423 110.159 940.578 100.716C944.733 91.2727 966.735 87.0107 966.735 87.0107Z" fill="#FF3939"/>
<path d="M922.201 123.904C882.498 111.785 686.158 87.8159 609.085 84.8553C532.011 81.8947 436.512 98.7636 376.473 116.836C316.434 134.901 202.136 163.539 109.654 226.102L160.416 251.844L362.358 267.265H656.163L902.321 241.563L1056.46 176.552C1056.46 176.552 961.897 136.023 922.193 123.904H922.201ZM423.446 247.826L397.703 259.994L332.411 264.15L312.173 242.141V238.611C317.255 231.38 350.682 220.335 350.682 220.335C350.682 220.335 356.284 249.51 373.416 250.551C390.548 251.592 405.59 230.925 406.842 217.635C423.121 220.514 437.155 234.764 437.155 234.764L423.454 247.826H423.446ZM677.336 233.828C660.31 241.929 623.224 240.571 609.085 236.22C594.945 231.868 586.513 226.045 581.74 226.769C576.967 227.492 567.104 234.349 567.21 228.639C567.413 217.407 578.008 201.848 589.424 193.34C600.84 184.824 611.54 190.249 611.54 190.249C611.54 190.249 607.8 231.128 632.396 230.819C656.993 230.51 660.009 215.764 661.359 210.778C662.709 205.792 659.074 184.718 659.074 184.718L704.225 197.797C704.225 197.797 694.363 225.727 677.344 233.828H677.336Z" fill="#FF3939"/>
<path d="M361.325 269.698C358.186 269.698 355.186 269.437 352.454 268.835C325.337 262.817 312.637 245.395 308.831 239.083C292.407 248.428 272.933 258.164 244.125 265.46C242.808 265.793 241.49 264.996 241.157 263.695C240.824 262.385 241.62 261.06 242.921 260.726C277.283 252.015 298.188 239.734 316.629 228.9C328.679 221.824 340.062 215.13 353.617 210.339C389.718 197.562 433.016 217.025 444.595 236.383C444.985 237.042 445.05 237.839 444.765 238.546C444.481 239.254 443.879 239.791 443.139 239.986C440.383 240.734 438.073 241.263 436.22 241.686C429.869 243.15 428.723 243.41 426.926 247.314C424.462 252.666 406.111 259.872 396.752 262.939C389.808 265.208 374.432 269.689 361.333 269.689L361.325 269.698ZM313.084 236.635C316.572 242.279 328.565 258.53 353.519 264.069C375.847 269.022 420.136 249.884 422.494 245.273C425.292 239.197 428.576 238.44 435.122 236.936C436.163 236.7 437.285 236.44 438.521 236.139C425.625 219.514 386.873 203.751 355.251 214.943C342.136 219.587 330.956 226.159 319.109 233.113C317.133 234.276 315.133 235.447 313.084 236.635Z" fill="black"/>
<path d="M376.018 256.88C374.896 256.88 373.757 256.815 372.603 256.676C363.569 255.611 355.902 248.836 352.096 238.547C348.169 227.932 349.307 216.293 354.877 210.25C355.788 209.258 357.333 209.193 358.325 210.112C359.317 211.023 359.382 212.568 358.463 213.561C354.162 218.237 353.405 228.038 356.674 236.855C358.195 240.954 362.837 250.617 373.18 251.829C380.441 252.683 387.133 250.218 392.011 244.883C396.695 239.767 399.175 232.414 398.045 227.005C395.906 216.781 390.971 211.714 390.922 211.665C389.979 210.714 389.971 209.168 390.922 208.217C391.873 207.265 393.402 207.257 394.361 208.201C394.605 208.445 400.362 214.236 402.826 226.005C404.281 232.959 401.386 241.873 395.622 248.177C390.426 253.854 383.563 256.88 376.026 256.88H376.018Z" fill="black"/>
<path d="M374.156 215.992C365.619 218.562 371.172 242.678 376.823 241.255C382.474 239.831 380.1 214.211 374.156 215.992Z" fill="black"/>
<path d="M264.566 199.856C262.411 199.856 260.606 198.156 260.508 195.976C260.403 193.731 262.135 191.828 264.379 191.722C285.69 190.722 304.912 179.091 323.507 167.842C330.858 163.401 338.452 158.798 345.925 155.056C374.375 140.798 407.785 144.67 437.602 165.679C439.439 166.972 439.878 169.509 438.586 171.348C437.293 173.186 434.756 173.625 432.918 172.332C405.232 152.82 375.627 149.273 349.567 162.336C342.38 165.939 335.257 170.25 327.711 174.812C308.254 186.59 288.129 198.766 264.753 199.856C264.688 199.856 264.623 199.856 264.558 199.856H264.566Z" fill="black"/>
<path d="M261.769 234.463C260.557 234.463 259.508 233.56 259.354 232.324C259.183 230.99 260.134 229.77 261.468 229.599C276.819 227.672 294.008 219.587 313.913 210.225C325.394 204.825 337.265 199.237 350.478 193.967C387.677 179.131 423.372 195.699 433.821 212.82C434.52 213.967 434.162 215.472 433.008 216.171C431.861 216.87 430.357 216.513 429.658 215.358C425.877 209.168 416.388 200.896 401.085 196.228C389.938 192.828 372.423 190.469 352.283 198.497C339.208 203.71 327.402 209.266 315.986 214.634C295.708 224.174 278.193 232.414 262.078 234.439C261.972 234.455 261.874 234.455 261.769 234.455V234.463Z" fill="black"/>
<path d="M637.299 240.287C630.371 240.287 624.119 239.767 620.289 239.36C610.499 238.319 591.05 235.106 587.521 230.38C584.952 226.932 583.773 226.916 577.26 226.818C575.357 226.785 572.983 226.753 570.137 226.598C569.373 226.558 568.673 226.159 568.242 225.525C567.812 224.89 567.706 224.093 567.958 223.369C575.235 202.027 613.532 173.958 651.504 178.92C665.758 180.782 678.287 184.947 691.549 189.355C711.844 196.106 734.855 203.751 770.273 205.102C771.623 205.15 772.672 206.289 772.615 207.631C772.566 208.973 771.477 210.03 770.086 209.974C740.384 208.843 719.308 203.394 701.298 197.676C698.891 204.646 690.102 224.337 664.839 235.879C657.277 239.335 646.666 240.287 637.307 240.287H637.299ZM573.845 221.865C575.113 221.905 576.268 221.922 577.333 221.938C584.049 222.044 587.423 222.101 591.424 227.461C594.684 231.47 641.991 240.954 662.798 231.446C686.044 220.824 694.379 202.434 696.623 196.179C694.379 195.447 692.175 194.715 689.996 193.991C676.962 189.656 664.652 185.565 650.862 183.759C617.598 179.416 582.992 202.914 573.845 221.865Z" fill="black"/>
<path d="M633.673 229.705C628.249 229.705 622.989 228.014 618.322 224.679C611.37 219.717 606.678 211.608 606.645 204.5C606.597 192.478 611.02 185.605 611.207 185.321C611.947 184.19 613.459 183.881 614.581 184.621C615.711 185.361 616.02 186.874 615.281 187.997C615.248 188.046 611.475 194.032 611.524 204.475C611.548 209.998 615.508 216.675 621.151 220.702C627.038 224.898 634.096 225.915 641.015 223.565C650.878 220.214 653.407 209.794 654.033 205.467C655.391 196.155 652.61 186.728 647.422 183.06C646.325 182.279 646.065 180.758 646.845 179.66C647.626 178.562 649.146 178.302 650.244 179.082C656.944 183.832 660.489 194.975 658.863 206.175C657.285 217.033 651.203 225.256 642.584 228.184C639.608 229.193 636.608 229.697 633.665 229.697L633.673 229.705Z" fill="black"/>
<path d="M632.592 188.729C641.471 189.461 641.072 214.203 635.259 213.992C629.445 213.78 626.412 188.225 632.592 188.729Z" fill="black"/>
<path d="M563.031 159.595C562.039 159.595 561.055 159.237 560.266 158.513C558.616 156.984 558.518 154.414 560.047 152.763C584.822 125.995 616.695 115.235 647.488 123.246C655.578 125.353 663.969 128.256 672.076 131.071C692.607 138.196 713.837 145.556 734.888 142.091C737.107 141.725 739.197 143.23 739.563 145.442C739.929 147.655 738.425 149.753 736.213 150.119C713.121 153.918 690.907 146.215 669.417 138.757C661.091 135.869 653.22 133.136 645.447 131.119C617.232 123.783 589.026 133.429 566.015 158.293C565.21 159.156 564.12 159.595 563.031 159.595Z" fill="black"/>
<path d="M575.878 201.328C575.609 201.328 575.333 201.287 575.065 201.19C573.796 200.743 573.129 199.352 573.577 198.075C580.228 179.148 611.695 155.504 651.155 162.247C665.172 164.646 677.946 167.623 690.305 170.51C711.722 175.512 730.228 179.831 745.637 178.522C746.97 178.416 748.157 179.4 748.271 180.742C748.385 182.084 747.393 183.264 746.051 183.377C729.863 184.76 711.015 180.352 689.191 175.26C676.905 172.389 664.205 169.42 650.333 167.054C628.957 163.402 612.321 169.372 602.133 175.016C588.139 182.776 580.586 192.845 578.179 199.685C577.829 200.686 576.886 201.32 575.878 201.32V201.328Z" fill="black"/>
<path d="M487.924 269.706C486.77 269.706 485.753 268.893 485.526 267.714C485.387 266.982 471.475 194.13 451.725 181.458C450.595 180.734 450.261 179.221 450.993 178.091C451.717 176.96 453.229 176.627 454.359 177.359C475.858 191.161 489.737 263.736 490.315 266.819C490.567 268.145 489.697 269.422 488.371 269.666C488.217 269.698 488.071 269.706 487.916 269.706H487.924Z" fill="black"/>
<path d="M543.044 269.706C541.776 269.706 540.703 268.722 540.613 267.437C540.377 264.102 535.149 185.476 553.688 164.857C554.59 163.857 556.127 163.776 557.135 164.678C558.136 165.581 558.217 167.118 557.314 168.127C540.142 187.224 545.427 266.306 545.476 267.103C545.565 268.446 544.557 269.617 543.207 269.706C543.15 269.706 543.093 269.706 543.036 269.706H543.044Z" fill="black"/>
<path d="M59.7217 236.146C59.0956 236.146 58.4858 235.862 58.0874 235.325L52.1599 227.313C51.4932 226.411 51.6802 225.142 52.5827 224.467C53.4853 223.8 54.7537 223.987 55.4286 224.89L61.3561 232.901C62.0228 233.804 61.8358 235.073 60.9333 235.748C60.5674 236.016 60.1446 236.146 59.7299 236.146H59.7217Z" fill="black"/>
<path d="M70.4062 228.241C69.7801 228.241 69.1702 227.956 68.7718 227.419L44.948 195.194C44.2813 194.291 44.4683 193.023 45.3708 192.348C46.2733 191.681 47.5418 191.868 48.2167 192.77L72.0405 224.995C72.7072 225.898 72.5202 227.167 71.6177 227.842C71.2518 228.111 70.829 228.241 70.4143 228.241H70.4062Z" fill="black"/>
<path d="M102.45 204.532C101.824 204.532 101.214 204.247 100.816 203.711L94.8884 195.699C94.2217 194.796 94.4087 193.527 95.3112 192.852C96.2138 192.185 97.4822 192.373 98.1571 193.275L104.085 201.287C104.751 202.19 104.564 203.458 103.662 204.134C103.296 204.402 102.873 204.532 102.458 204.532H102.45Z" fill="black"/>
<path d="M91.7665 212.438C91.1404 212.438 90.5306 212.153 90.1322 211.616L66.3083 179.392C65.6416 178.489 65.8286 177.22 66.7312 176.545C67.6337 175.878 68.9021 176.065 69.577 176.968L93.4008 209.193C94.0676 210.095 93.8806 211.364 92.978 212.039C92.6121 212.308 92.1893 212.438 91.7746 212.438H91.7665Z" fill="black"/>
<path d="M81.09 220.343C80.4639 220.343 79.8541 220.059 79.4557 219.522L38.2234 163.759C37.5566 162.856 37.7437 161.587 38.6462 160.912C39.5487 160.245 40.8172 160.432 41.492 161.335L82.7243 217.098C83.3911 218.001 83.2041 219.27 82.3015 219.945C81.9356 220.213 81.5128 220.343 81.0981 220.343H81.09Z" fill="black"/>
<path d="M155.375 172.25C154.529 172.25 153.748 171.722 153.456 170.884L150.236 161.579C149.87 160.522 150.431 159.359 151.488 158.993C152.545 158.627 153.708 159.188 154.074 160.245L157.294 169.55C157.66 170.607 157.098 171.771 156.041 172.137C155.822 172.21 155.594 172.25 155.375 172.25Z" fill="black"/>
<path d="M167.775 167.947C166.929 167.947 166.149 167.419 165.856 166.581L152.895 129.175C152.529 128.118 153.09 126.954 154.147 126.588C155.204 126.222 156.367 126.784 156.733 127.841L169.694 165.247C170.06 166.304 169.499 167.467 168.442 167.833C168.222 167.907 167.994 167.947 167.775 167.947Z" fill="black"/>
<path d="M204.973 155.056C204.128 155.056 203.347 154.527 203.054 153.69L199.835 144.385C199.469 143.328 200.03 142.164 201.087 141.798C202.144 141.432 203.306 141.994 203.672 143.051L206.892 152.356C207.258 153.413 206.697 154.576 205.64 154.942C205.421 155.015 205.193 155.056 204.973 155.056Z" fill="black"/>
<path d="M192.574 159.351C191.728 159.351 190.947 158.822 190.655 157.984L177.694 120.578C177.328 119.521 177.889 118.358 178.946 117.992C180.003 117.626 181.166 118.187 181.532 119.244L194.493 156.65C194.858 157.708 194.297 158.871 193.24 159.237C193.021 159.31 192.793 159.351 192.574 159.351Z" fill="black"/>
<path d="M180.174 163.653C179.328 163.653 178.548 163.124 178.255 162.286L155.83 97.5519C155.464 96.4945 156.025 95.3314 157.082 94.9654C158.139 94.5994 159.302 95.1606 159.667 96.218L182.093 160.952C182.459 162.01 181.898 163.173 180.841 163.539C180.621 163.612 180.393 163.653 180.174 163.653Z" fill="black"/>
<path d="M267.713 135.275C266.819 135.275 265.997 134.681 265.754 133.778L263.168 124.319C262.867 123.237 263.509 122.115 264.591 121.822C265.672 121.521 266.794 122.164 267.087 123.246L269.673 132.705C269.974 133.787 269.331 134.909 268.25 135.202C268.071 135.251 267.892 135.275 267.713 135.275Z" fill="black"/>
<path d="M280.324 131.818C279.43 131.818 278.609 131.225 278.365 130.322L267.957 92.2977C267.656 91.216 268.298 90.0935 269.38 89.8007C270.461 89.4998 271.583 90.1424 271.876 91.2241L282.284 129.248C282.585 130.33 281.942 131.452 280.861 131.745C280.682 131.794 280.503 131.818 280.324 131.818Z" fill="black"/>
<path d="M318.133 121.464C317.239 121.464 316.417 120.871 316.173 119.968L313.588 110.509C313.287 109.427 313.929 108.304 315.011 108.012C316.092 107.711 317.214 108.353 317.507 109.435L320.093 118.894C320.393 119.976 319.751 121.098 318.67 121.391C318.491 121.44 318.312 121.464 318.133 121.464Z" fill="black"/>
<path d="M305.53 124.913C304.636 124.913 303.815 124.319 303.571 123.417L293.163 85.3925C292.862 84.3107 293.505 83.1883 294.586 82.8955C295.667 82.5945 296.789 83.2371 297.082 84.3188L307.49 122.343C307.791 123.425 307.148 124.547 306.067 124.84C305.888 124.889 305.709 124.913 305.53 124.913Z" fill="black"/>
<path d="M292.927 128.37C292.033 128.37 291.211 127.776 290.967 126.873L272.949 61.0731C272.648 59.9914 273.291 58.8689 274.372 58.5761C275.454 58.2752 276.576 58.9177 276.868 59.9995L294.887 125.799C295.187 126.881 294.545 128.004 293.464 128.296C293.285 128.345 293.106 128.37 292.927 128.37Z" fill="black"/>
<path d="M390.604 103.375C389.637 103.375 388.775 102.675 388.604 101.691L386.921 91.988C386.726 90.8818 387.466 89.8245 388.58 89.6374C389.685 89.4422 390.742 90.1905 390.929 91.2967L392.613 101C392.808 102.106 392.068 103.163 390.954 103.35C390.84 103.375 390.718 103.383 390.604 103.383V103.375Z" fill="black"/>
<path d="M403.541 101.13C402.573 101.13 401.711 100.431 401.54 99.4464L394.775 60.4382C394.58 59.332 395.32 58.2747 396.434 58.0876C397.548 57.8924 398.589 58.6407 398.784 59.7468L405.549 98.7551C405.744 99.8613 405.004 100.919 403.89 101.106C403.776 101.13 403.654 101.138 403.541 101.138V101.13Z" fill="black"/>
<path d="M442.326 94.4042C441.358 94.4042 440.496 93.7047 440.325 92.7206L438.642 83.0173C438.447 81.9111 439.195 80.8619 440.301 80.6667C441.415 80.4715 442.456 81.2198 442.651 82.3259L444.334 92.0292C444.529 93.1354 443.781 94.1846 442.675 94.3798C442.561 94.4042 442.439 94.4123 442.326 94.4123V94.4042Z" fill="black"/>
<path d="M429.397 96.6411C428.429 96.6411 427.568 95.9416 427.397 94.9574L420.632 55.9492C420.437 54.843 421.177 53.7857 422.291 53.5986C423.396 53.4034 424.453 54.1436 424.64 55.2578L431.405 94.2661C431.601 95.3722 430.861 96.4296 429.747 96.6167C429.633 96.6411 429.511 96.6492 429.397 96.6492V96.6411Z" fill="black"/>
<path d="M416.469 98.8857C415.502 98.8857 414.64 98.1862 414.469 97.202L402.769 29.7021C402.573 28.596 403.313 27.5467 404.427 27.3515C405.525 27.1563 406.582 27.8965 406.777 29.0108L418.478 96.5107C418.673 97.6168 417.933 98.666 416.819 98.8613C416.705 98.8857 416.583 98.8938 416.469 98.8938V98.8857Z" fill="black"/>
<path d="M511.789 89.5488C510.675 89.5488 509.773 88.6542 509.757 87.5399L509.643 77.5763C509.627 76.4539 510.529 75.5348 511.651 75.5186H511.676C512.789 75.5186 513.692 76.4132 513.708 77.5275L513.822 87.4911C513.838 88.6135 512.936 89.5326 511.814 89.5488H511.789Z" fill="black"/>
<path d="M525.076 89.4022C523.962 89.4022 523.059 88.5075 523.043 87.3932L522.596 47.3195C522.58 46.1971 523.482 45.278 524.604 45.2617H524.629C525.743 45.2617 526.645 46.1564 526.661 47.2707L527.109 87.3444C527.125 88.4669 526.222 89.3859 525.1 89.4022H525.076Z" fill="black"/>
<path d="M564.933 88.9629C563.819 88.9629 562.917 88.0682 562.901 86.9539L562.795 76.9904C562.787 75.868 563.681 74.9489 564.803 74.9326H564.828C565.942 74.9326 566.844 75.8273 566.86 76.9416L566.966 86.9051C566.974 88.0275 566.08 88.9466 564.958 88.9629H564.933Z" fill="black"/>
<path d="M551.648 89.1092C550.534 89.1092 549.631 88.2146 549.615 87.1003L549.176 47.0265C549.168 45.9041 550.062 44.985 551.184 44.9688H551.209C552.323 44.9688 553.225 45.8634 553.241 46.9777L553.68 87.0515C553.689 88.1739 552.794 89.093 551.672 89.1092H551.648Z" fill="black"/>
<path d="M538.362 89.256C537.248 89.256 536.345 88.3614 536.329 87.2471L535.565 17.8927C535.556 16.7703 536.451 15.8512 537.573 15.835H537.597C538.711 15.835 539.614 16.7296 539.63 17.8439L540.394 87.1983C540.402 88.3207 539.508 89.2398 538.386 89.256H538.362Z" fill="black"/>
<path d="M633.543 94.3795C633.478 94.3795 633.404 94.3795 633.339 94.3713C632.225 94.2575 631.412 93.257 631.518 92.1428L632.51 82.3419C632.624 81.2276 633.608 80.4143 634.738 80.52C635.852 80.6339 636.665 81.6343 636.559 82.7486L635.567 92.5494C635.462 93.5987 634.575 94.3795 633.551 94.3795H633.543Z" fill="black"/>
<path d="M646.609 95.7054C646.544 95.7054 646.471 95.7054 646.406 95.6973C645.292 95.5834 644.479 94.583 644.584 93.4687L648.569 54.0619C648.682 52.9477 649.674 52.1262 650.797 52.24C651.91 52.3539 652.724 53.3543 652.618 54.4686L648.634 93.8754C648.528 94.9246 647.642 95.7054 646.617 95.7054H646.609Z" fill="black"/>
<path d="M685.8 99.6669C685.735 99.6669 685.662 99.6669 685.597 99.6588C684.483 99.5449 683.67 98.5445 683.776 97.4302L684.768 87.6293C684.882 86.515 685.865 85.6936 686.996 85.8074C688.11 85.9213 688.923 86.9217 688.817 88.036L687.825 97.8369C687.719 98.8861 686.833 99.6669 685.809 99.6669H685.8Z" fill="black"/>
<path d="M672.734 98.349C672.669 98.349 672.596 98.349 672.531 98.3409C671.417 98.227 670.604 97.2266 670.709 96.1123L674.694 56.7055C674.807 55.5912 675.799 54.7697 676.922 54.8836C678.035 54.9975 678.849 55.9979 678.743 57.1122L674.759 96.519C674.653 97.5682 673.767 98.349 672.742 98.349H672.734Z" fill="black"/>
<path d="M659.675 97.0231C659.61 97.0231 659.537 97.0231 659.472 97.015C658.358 96.9011 657.545 95.9007 657.651 94.7864L664.554 26.5951C664.668 25.4809 665.652 24.6594 666.782 24.7732C667.896 24.8871 668.709 25.8875 668.603 27.0018L661.7 95.1931C661.594 96.2423 660.708 97.0231 659.684 97.0231H659.675Z" fill="black"/>
<path d="M749.41 111.086C749.279 111.086 749.149 111.078 749.011 111.046C747.913 110.826 747.19 109.761 747.409 108.654L749.312 99.0325C749.532 97.9264 750.605 97.2106 751.703 97.4302C752.8 97.6498 753.524 98.7153 753.304 99.8215L751.402 109.443C751.207 110.411 750.361 111.086 749.41 111.086Z" fill="black"/>
<path d="M762.24 113.624C762.11 113.624 761.98 113.615 761.842 113.583C760.744 113.363 760.02 112.298 760.24 111.192L767.883 72.4925C768.103 71.3863 769.176 70.6706 770.274 70.8902C771.371 71.1098 772.095 72.1753 771.875 73.2814L764.232 111.981C764.037 112.948 763.192 113.624 762.24 113.624Z" fill="black"/>
<path d="M800.732 121.237C800.602 121.237 800.472 121.229 800.334 121.196C799.236 120.976 798.513 119.911 798.732 118.805L800.635 109.183C800.854 108.077 801.928 107.361 803.025 107.581C804.123 107.8 804.847 108.866 804.627 109.972L802.724 119.594C802.529 120.562 801.684 121.237 800.732 121.237Z" fill="black"/>
<path d="M787.902 118.699C787.772 118.699 787.642 118.691 787.503 118.658C786.406 118.439 785.682 117.373 785.902 116.267L793.553 77.5677C793.772 76.4615 794.846 75.7458 795.943 75.9654C797.041 76.185 797.765 77.2505 797.545 78.3566L789.894 117.056C789.699 118.024 788.853 118.699 787.902 118.699Z" fill="black"/>
<path d="M775.071 116.161C774.941 116.161 774.811 116.153 774.673 116.121C773.575 115.901 772.851 114.835 773.071 113.729L786.308 46.7581C786.528 45.652 787.601 44.9362 788.699 45.1558C789.796 45.3754 790.52 46.4409 790.301 47.5471L777.063 114.518C776.868 115.486 776.023 116.161 775.071 116.161Z" fill="black"/>
<path d="M862.008 133.738C861.837 133.738 861.658 133.713 861.479 133.664C860.398 133.372 859.747 132.257 860.04 131.176L862.577 121.659C862.869 120.578 863.983 119.935 865.065 120.22C866.146 120.513 866.797 121.627 866.504 122.709L863.967 132.225C863.723 133.136 862.902 133.738 862.008 133.738Z" fill="black"/>
<path d="M874.692 137.121C874.521 137.121 874.343 137.097 874.164 137.048C873.082 136.755 872.432 135.641 872.724 134.559L882.937 96.2912C883.23 95.2095 884.344 94.5669 885.425 94.8516C886.507 95.1444 887.157 96.2587 886.864 97.3405L876.652 135.609C876.408 136.52 875.587 137.121 874.692 137.121Z" fill="black"/>
<path d="M912.753 147.28C912.582 147.28 912.404 147.256 912.225 147.207C911.143 146.914 910.493 145.8 910.786 144.718L913.322 135.202C913.615 134.12 914.729 133.47 915.81 133.763C916.892 134.055 917.542 135.17 917.25 136.251L914.713 145.768C914.469 146.679 913.648 147.28 912.753 147.28Z" fill="black"/>
<path d="M900.069 143.897C899.898 143.897 899.719 143.872 899.54 143.823C898.459 143.531 897.808 142.416 898.101 141.335L908.313 103.066C908.606 101.985 909.72 101.334 910.802 101.627C911.883 101.92 912.533 103.034 912.241 104.116L902.028 142.384C901.784 143.295 900.963 143.897 900.069 143.897Z" fill="black"/>
<path d="M887.385 140.505C887.214 140.505 887.035 140.48 886.856 140.432C885.775 140.139 885.124 139.024 885.417 137.943L903.086 71.7198C903.378 70.638 904.492 69.9874 905.574 70.2802C906.655 70.573 907.306 71.6873 907.013 72.769L889.344 138.992C889.1 139.903 888.279 140.505 887.385 140.505Z" fill="black"/>
<path d="M958.343 160.473C958.116 160.473 957.88 160.432 957.652 160.351C956.595 159.969 956.05 158.805 956.433 157.748L959.831 148.378C960.213 147.321 961.384 146.776 962.433 147.158C963.49 147.541 964.035 148.704 963.653 149.761L960.254 159.131C959.953 159.96 959.173 160.473 958.343 160.473Z" fill="black"/>
<path d="M970.833 165.003C970.605 165.003 970.369 164.963 970.142 164.881C969.085 164.499 968.54 163.336 968.922 162.279L982.574 124.596C982.956 123.539 984.127 122.994 985.176 123.376C986.233 123.758 986.778 124.921 986.395 125.979L972.743 163.661C972.443 164.491 971.662 165.003 970.833 165.003Z" fill="black"/>
<path d="M1008.31 178.586C1008.08 178.586 1007.84 178.545 1007.62 178.464C1006.56 178.082 1006.02 176.919 1006.4 175.861L1009.8 166.492C1010.18 165.434 1011.35 164.889 1012.4 165.272C1013.46 165.654 1014 166.817 1013.62 167.874L1010.22 177.244C1009.92 178.074 1009.14 178.586 1008.31 178.586Z" fill="black"/>
<path d="M995.819 174.064C995.591 174.064 995.356 174.023 995.128 173.942C994.071 173.56 993.526 172.396 993.908 171.339L1007.56 133.657C1007.94 132.599 1009.11 132.054 1010.16 132.437C1011.22 132.819 1011.76 133.982 1011.38 135.039L997.73 172.722C997.429 173.551 996.648 174.064 995.819 174.064Z" fill="black"/>
<path d="M983.322 169.534C983.094 169.534 982.858 169.493 982.631 169.412C981.574 169.03 981.029 167.866 981.411 166.809L1005.04 101.603C1005.42 100.546 1006.59 100.001 1007.64 100.383C1008.7 100.765 1009.24 101.928 1008.86 102.986L985.233 168.192C984.932 169.021 984.151 169.534 983.322 169.534Z" fill="black"/>
<path d="M82.2531 223.67C81.2123 223.67 80.1715 223.271 79.3747 222.482C77.7892 220.896 77.7892 218.318 79.3747 216.732C120.688 175.406 186.184 155.836 238.807 140.106C248.605 137.178 257.866 134.413 266.607 131.623C316.832 115.608 434.317 85.3271 519.457 85.3271C577.846 85.3271 598.864 87.5313 630.681 90.8742C643.333 92.2 657.668 93.7046 676.751 95.3151C729.164 99.7234 826.028 122.912 878.067 135.373C892.426 138.813 903.769 141.521 909.55 142.733C936.252 148.321 979.785 162.799 981.623 163.417C983.753 164.124 984.908 166.426 984.192 168.557C983.477 170.688 981.176 171.843 979.054 171.127C978.606 170.981 934.122 156.186 907.883 150.688C901.988 149.452 890.596 146.727 876.172 143.278C824.345 130.867 727.871 107.776 676.068 103.416C656.903 101.806 642.52 100.293 629.835 98.9589C598.279 95.6486 577.423 93.4606 519.465 93.4606C435.334 93.4606 318.898 123.49 269.087 139.366C260.273 142.18 250.979 144.954 241.149 147.89C189.403 163.352 124.998 182.596 85.1396 222.466C84.3427 223.263 83.302 223.654 82.2612 223.654L82.2531 223.67Z" fill="black"/>
<path d="M1440 15.8839C1440 15.8839 1234.43 6.53848 974.728 159.798C715.016 313.049 421.682 270.999 0 197.18V271.007H1440V15.8839Z" fill="#111319"/>
<path d="M97.3201 208.306C96.938 208.306 96.5558 208.2 96.2143 207.972C95.2711 207.362 95.0109 206.102 95.6207 205.158C98.1169 201.319 96.5314 196.057 94.523 189.387C93.2383 185.117 91.7829 180.278 91.2869 175.089C90.8397 170.396 91.0511 166.231 91.2463 162.555C91.604 155.601 91.8886 150.111 88.1239 143.514C81.489 131.892 90.4169 108.931 90.799 107.963C91.1975 106.946 92.3277 106.434 93.3522 106.783C93.9213 106.979 107.354 111.655 113.509 117.162C114.355 117.918 115.33 118.74 116.371 119.626C122.591 124.897 131.991 132.868 134.674 143.888C137.316 154.747 151.277 168.208 159.652 168.208C159.856 168.208 160.051 168.208 160.254 168.183C161.36 168.11 162.352 168.923 162.449 170.046C162.539 171.168 161.709 172.144 160.587 172.242C160.319 172.266 160.043 172.274 159.766 172.274C149.529 172.274 133.845 157.626 130.739 144.856C128.364 135.121 119.924 127.963 113.753 122.733C112.68 121.822 111.679 120.976 110.809 120.196C106.533 116.373 97.7592 112.786 93.9132 111.322C91.9943 116.853 86.9693 133.282 91.6609 141.497C96.0191 149.135 95.6776 155.755 95.3199 162.766C95.1247 166.475 94.9296 170.314 95.3443 174.706C95.7996 179.489 97.1331 183.922 98.4259 188.216C100.556 195.284 102.565 201.962 99.0357 207.387C98.6455 207.989 97.995 208.306 97.3282 208.306H97.3201Z" fill="black"/>
<path d="M100.784 147.345C100.093 147.345 99.4096 146.987 99.0356 146.345C93.8643 137.601 94.2627 127.605 96.3605 121.163C96.7102 120.098 97.8566 119.512 98.9218 119.862C99.9869 120.212 100.572 121.359 100.223 122.424C98.4014 128.02 98.0518 136.706 102.532 144.279C103.101 145.247 102.784 146.491 101.816 147.06C101.491 147.256 101.133 147.345 100.784 147.345Z" fill="black"/>
<path d="M111.996 197.822C111.273 197.822 110.574 197.432 110.208 196.749C109.834 196.057 101.093 179.628 101.093 166.647C101.093 165.524 102.003 164.613 103.126 164.613C104.248 164.613 105.158 165.524 105.158 166.647C105.158 178.595 113.704 194.658 113.793 194.821C114.322 195.813 113.956 197.042 112.964 197.57C112.655 197.733 112.33 197.814 112.005 197.814L111.996 197.822Z" fill="black"/>
<path d="M132.259 185.979C131.893 185.979 131.454 185.882 130.998 185.581C129.445 184.556 121.436 174.755 122.03 167.118C122.55 160.318 122.103 153.689 111.248 141.359C110.508 140.513 110.59 139.228 111.427 138.488C112.273 137.748 113.558 137.829 114.297 138.667C126.185 152.168 126.657 159.968 126.079 167.419C125.665 172.77 131.625 180.692 133.137 182.075C133.535 182.254 133.877 182.563 134.096 182.986C134.617 183.978 134.235 185.207 133.235 185.727C133.056 185.825 132.706 185.963 132.259 185.963V185.979ZM131.429 182.091C131.429 182.091 131.373 182.116 131.348 182.132C131.373 182.116 131.405 182.108 131.429 182.091Z" fill="black"/>
<path d="M203.365 158.87C203.194 158.87 203.023 158.846 202.852 158.805C201.763 158.521 201.112 157.415 201.397 156.325C202.194 153.258 203.405 150.648 204.576 148.118C207.455 141.896 209.536 137.406 204.349 129.639C197.901 119.992 197.039 106.491 202.161 95.2503C205.43 88.0684 209.65 83.8715 213.032 80.4961C215.74 77.7958 217.692 75.8519 218.033 73.5257C218.139 72.7774 218.651 72.1593 219.367 71.9071C220.074 71.655 220.863 71.8177 221.424 72.3219C223.416 74.152 225.27 75.7217 226.904 77.1126C233.214 82.4725 237.377 86.0106 238.718 94.8517C240.223 104.799 245.532 113.282 251.915 115.958C257.273 118.203 261.184 121.969 264.632 125.287C269.722 130.192 272.836 132.908 277.584 131.591C278.666 131.29 279.788 131.924 280.089 133.014C280.39 134.096 279.755 135.218 278.666 135.519C271.462 137.512 266.77 132.998 261.81 128.223C258.468 125.003 255.005 121.668 250.346 119.716C242.694 116.511 236.409 106.767 234.693 95.4699C233.58 88.1334 230.27 85.3193 224.261 80.2196C223.237 79.3493 222.131 78.4058 220.944 77.3728C219.797 79.4957 217.935 81.342 215.895 83.3835C212.74 86.523 208.812 90.4352 205.853 96.942C201.299 106.93 202.031 118.878 207.715 127.386C214.179 137.048 211.162 143.547 208.251 149.834C207.154 152.201 206.024 154.649 205.316 157.358C205.08 158.269 204.251 158.879 203.348 158.879L203.365 158.87Z" fill="black"/>
<path d="M218.643 138.626C218.407 138.626 218.171 138.585 217.944 138.504C216.887 138.114 216.35 136.951 216.74 135.893C216.765 135.828 219.09 129.24 215.805 125.043C211.569 119.626 206.837 104.685 212.504 94.2008C213.041 93.2167 214.277 92.8426 215.26 93.3794C216.244 93.9162 216.618 95.1443 216.082 96.1366C211.325 104.937 215.456 117.999 219.009 122.538C223.7 128.532 220.692 136.942 220.562 137.3C220.261 138.122 219.48 138.634 218.651 138.634L218.643 138.626Z" fill="black"/>
<path d="M234.994 128.37C234.53 128.37 234.067 128.215 233.685 127.89C224.741 120.374 224.025 108.93 223.342 97.8689C222.805 89.3288 222.301 81.2522 218.325 74.8999C217.732 73.9483 218.016 72.6958 218.968 72.0939C219.919 71.5001 221.171 71.7848 221.773 72.7364C226.302 79.9671 226.855 88.9384 227.399 97.6087C228.066 108.288 228.692 118.373 236.303 124.766C237.165 125.49 237.27 126.775 236.555 127.629C236.148 128.109 235.579 128.353 234.994 128.353V128.37Z" fill="black"/>
<path d="M315.548 125.816C314.442 125.816 313.539 124.93 313.515 123.824C313.116 103.807 319.857 92.721 325.817 82.9446C327.874 79.5692 329.809 76.3808 331.403 72.9648C337.485 59.9024 336.371 41.5857 336.355 41.4068C336.314 40.7968 336.55 40.2112 336.989 39.7882C337.428 39.3734 338.038 39.1782 338.64 39.2514C339.502 39.3653 359.894 42.1551 365.992 59.8698C369.058 68.776 374.424 72.3873 379.148 75.5675C383.002 78.1621 386.645 80.6184 388.255 85.3033C391.686 95.2668 388.401 105.466 388.263 105.897C387.914 106.963 386.767 107.54 385.694 107.191C384.629 106.841 384.051 105.686 384.401 104.62C384.434 104.531 387.385 95.2668 384.409 86.6291C383.238 83.2292 380.433 81.3341 376.872 78.9348C371.871 75.5675 365.651 71.3787 362.146 61.1875C358.016 49.2068 345.722 45.0181 340.502 43.7574C340.607 49.524 340.25 63.5787 335.078 74.6728C333.395 78.2922 331.395 81.5781 329.281 85.0512C323.337 94.8113 317.198 104.905 317.572 123.734C317.597 124.856 316.702 125.784 315.58 125.808C315.564 125.808 315.556 125.808 315.54 125.808L315.548 125.816Z" fill="black"/>
<path d="M338.379 86.1325C337.94 86.1325 337.493 85.9861 337.119 85.6933C336.241 84.9938 336.094 83.7168 336.794 82.8384C344.608 72.9969 346.323 60.9837 341.632 49.0193C341.225 47.9701 341.737 46.7907 342.778 46.3841C343.827 45.9693 345.006 46.4898 345.413 47.5309C350.584 60.7072 348.6 74.4934 339.973 85.3598C339.574 85.8641 338.981 86.1325 338.379 86.1325Z" fill="black"/>
<path d="M328.875 117.902C328.094 117.902 327.346 117.447 327.021 116.682C326.931 116.479 324.923 111.623 326.899 102.075C327.127 100.977 328.2 100.269 329.306 100.497C330.403 100.724 331.111 101.798 330.883 102.904C329.2 111.054 330.753 115.064 330.769 115.104C331.184 116.137 330.696 117.325 329.663 117.748C329.403 117.854 329.143 117.902 328.875 117.902Z" fill="black"/>
<path d="M358.78 112.81C357.967 112.81 357.203 112.322 356.886 111.517C350.893 96.2505 355.902 83.8388 356.121 83.3182C356.552 82.2771 357.739 81.7891 358.78 82.2202C359.821 82.6513 360.309 83.8388 359.878 84.8799C359.837 84.9856 355.308 96.3481 360.675 110.029C361.081 111.078 360.569 112.257 359.528 112.664C359.284 112.761 359.032 112.802 358.788 112.802L358.78 112.81Z" fill="black"/>
<path d="M426.023 101.131C425.373 101.131 424.731 100.822 424.34 100.237C423.714 99.3094 423.958 98.0406 424.885 97.4143C432.154 92.4936 432.341 84.7911 432.561 75.8687C432.723 69.1667 432.894 62.237 436.049 55.657C442.838 41.4803 439.537 21.5695 439.497 21.3661C439.399 20.8049 439.545 20.2356 439.887 19.7801C440.236 19.3328 440.749 19.0481 441.318 18.9911C442.082 18.9179 460.109 17.4458 467.866 28.1495C470.199 31.3703 471.98 34.8271 473.696 38.1699C477.306 45.1891 480.721 51.8261 488.811 55.2828C495.259 58.0401 500.69 65.1162 505.943 71.9646C511.309 78.9676 516.863 86.2064 522.254 86.5805C523.376 86.6618 524.222 87.6297 524.14 88.7522C524.059 89.8746 523.075 90.7123 521.969 90.6391C514.749 90.1348 508.903 82.5056 502.715 74.4372C497.788 68.0036 492.69 61.3585 487.217 59.0161C477.777 54.9819 473.866 47.3852 470.077 40.0325C468.427 36.8279 466.719 33.5094 464.573 30.5407C459.58 23.6435 448.473 22.9522 443.83 22.9684C444.546 28.8652 445.725 44.8557 439.716 57.4057C436.943 63.1967 436.781 69.6872 436.626 75.9582C436.399 85.1653 436.171 94.6815 427.17 100.773C426.82 101.009 426.422 101.123 426.032 101.123L426.023 101.131Z" fill="black"/>
<path d="M452.352 69.3698C452.238 69.3698 452.116 69.3616 451.994 69.3372C450.888 69.142 450.148 68.0847 450.343 66.9785C450.457 66.3197 450.587 65.6365 450.709 64.937C452.799 53.4118 455.661 37.6329 444.066 23.2366C443.359 22.3581 443.497 21.0812 444.375 20.3817C445.253 19.6741 446.53 19.8124 447.229 20.6908C459.995 36.5348 456.816 54.0706 454.71 65.669C454.579 66.3604 454.458 67.0436 454.344 67.6943C454.173 68.6784 453.311 69.3779 452.343 69.3779L452.352 69.3698Z" fill="black"/>
<path d="M474.062 73.2084C473.712 73.2084 473.354 73.1189 473.029 72.9237C465.5 68.4747 464.963 63.2611 464.215 56.0467C463.866 52.6713 463.467 48.8404 462.361 44.0661C462.109 42.9762 462.784 41.8781 463.882 41.626C464.98 41.3739 466.069 42.0489 466.321 43.147C467.484 48.1735 467.915 52.3053 468.256 55.6319C468.996 62.7568 469.33 66.0184 475.094 69.4263C476.062 69.9956 476.379 71.2482 475.81 72.208C475.428 72.8505 474.753 73.2084 474.062 73.2084Z" fill="black"/>
<path d="M640.08 97.9836C639.893 97.9836 639.698 97.9592 639.503 97.9022C638.877 97.7152 624.087 93.2743 619.371 85.1245C614.151 76.0963 615.891 67.4016 617.427 59.7236C617.639 58.6581 617.85 57.5926 618.045 56.5434C618.745 52.7288 615.078 47.9138 610.435 41.8218C606.711 36.9335 602.141 30.9391 598.523 23.619C593.97 25.9696 581.919 33.9567 581.919 52.5498C581.919 62.6598 577.114 67.1576 572.471 71.5009C568.007 75.6815 563.389 80.0004 562.299 90.1022C562.177 91.2165 561.185 92.0217 560.063 91.9078C558.949 91.7858 558.136 90.7854 558.258 89.6711C559.51 78.0646 564.926 72.9975 569.699 68.5322C574.081 64.4329 577.862 60.8948 577.862 52.5498C577.862 27.2384 598.58 19.113 598.791 19.0317C599.791 18.6576 600.913 19.113 601.361 20.0891C604.906 27.8403 609.573 33.9567 613.687 39.3573C618.94 46.2464 623.087 51.6877 622.062 57.2754C621.867 58.349 621.647 59.4308 621.428 60.5207C619.964 67.8327 618.452 75.3887 622.908 83.083C626.811 89.8257 640.536 93.9493 640.674 93.99C641.747 94.3072 642.365 95.4378 642.048 96.5195C641.788 97.4061 640.975 97.9754 640.097 97.9754L640.08 97.9836Z" fill="black"/>
<path d="M573.178 81.6263C572.642 81.6263 572.113 81.4149 571.707 81C570.926 80.1867 570.959 78.9016 571.772 78.1208C572.065 77.8361 579.09 71.1179 584.432 67.1975C586.725 65.5057 586.7 60.6012 586.676 54.9241C586.652 50.5401 586.635 45.5705 587.7 40.8206C587.944 39.7225 589.026 39.0312 590.132 39.2833C591.229 39.5273 591.912 40.6172 591.668 41.7153C590.701 46.0097 590.725 50.7353 590.741 54.9078C590.774 61.6993 590.806 67.5635 586.839 70.4753C581.716 74.2411 574.658 80.9919 574.585 81.0651C574.195 81.4393 573.683 81.6263 573.178 81.6263Z" fill="black"/>
<path d="M601.515 65.1401C600.742 65.1401 600.003 64.6927 599.661 63.9444C598.206 60.7317 598.433 56.9659 598.661 52.9886C598.929 48.442 599.23 43.2853 597.002 38.1938C596.555 37.169 597.018 35.9652 598.051 35.5179C599.076 35.0705 600.279 35.5341 600.726 36.5671C603.344 42.5533 603.011 48.2224 602.718 53.2245C602.507 56.8439 602.32 59.9671 603.361 62.2689C603.824 63.2937 603.361 64.4975 602.344 64.9611C602.076 65.0831 601.791 65.1401 601.507 65.1401H601.515Z" fill="black"/>
<path d="M605.247 91.4353C604.898 91.4353 604.532 91.3459 604.207 91.1507C603.239 90.5732 602.922 89.3288 603.499 88.3609C603.605 88.1738 606.28 83.432 603.434 77.8931C602.922 76.8926 603.312 75.6726 604.312 75.1521C605.304 74.6397 606.532 75.0301 607.053 76.0305C610.947 83.6191 607.158 90.1584 606.987 90.4349C606.605 91.0775 605.93 91.4272 605.239 91.4272L605.247 91.4353Z" fill="black"/>
<path d="M754.735 113.803C754.142 113.803 753.556 113.542 753.15 113.046C752.8 112.615 744.588 102.326 744.588 93.6723C744.588 90.3701 742.384 88.0602 739.831 85.3924C737.124 82.5619 734.05 79.3492 733.107 74.3471C732.522 71.2401 732.896 68.6049 733.27 66.0509C733.961 61.2603 734.562 57.0716 727.765 50.3533C724.846 54.3387 720.114 56.852 715.503 59.292C708.316 63.0985 703.966 65.7093 705.031 71.0937C706.941 80.7644 700.453 86.0105 693.59 91.5657C690.322 94.2172 686.931 96.9501 684.036 100.399C683.313 101.261 682.036 101.367 681.174 100.651C680.312 99.9269 680.199 98.65 680.922 97.7878C684.069 94.0383 687.769 91.0452 691.029 88.4018C697.672 83.0255 702.469 79.1377 701.038 71.8745C699.339 63.253 706.909 59.2351 713.601 55.697C718.455 53.1187 723.48 50.459 725.488 46.2703C725.765 45.6928 726.293 45.2861 726.919 45.156C727.545 45.0258 728.196 45.2048 728.667 45.6277C738.986 54.8023 738.083 61.0814 737.286 66.6203C736.953 68.9465 736.636 71.1425 737.099 73.5826C737.823 77.3972 740.222 79.9104 742.767 82.5701C745.661 85.5957 748.653 88.7271 748.653 93.6642C748.653 100.879 756.24 110.387 756.313 110.484C757.02 111.363 756.882 112.64 756.004 113.339C755.63 113.64 755.175 113.786 754.727 113.786L754.735 113.803Z" fill="black"/>
<path d="M711.593 72.5902C711.397 72.5902 711.202 72.5658 711.015 72.5007C709.942 72.1835 709.324 71.0449 709.649 69.9712C710.674 66.5389 713.333 64.4079 716.154 62.1631C720.309 58.8446 724.602 55.4204 725.293 46.9941C725.383 45.8717 726.375 45.0502 727.489 45.1315C728.611 45.221 729.44 46.2051 729.351 47.3276C728.513 57.5026 723.065 61.8459 718.691 65.3433C716.187 67.3441 714.203 68.922 713.544 71.1343C713.284 72.0127 712.471 72.5902 711.601 72.5902H711.593Z" fill="black"/>
<path d="M712.129 106.011C711.454 106.011 710.796 105.67 710.405 105.06C709.812 104.108 710.096 102.855 711.048 102.253C714.276 100.228 714.837 95.9256 715.552 90.4843C716.365 84.2215 717.382 76.4377 723.09 69.2803C723.789 68.4018 725.065 68.2554 725.944 68.9549C726.822 69.6544 726.968 70.9314 726.269 71.8098C721.268 78.0807 720.374 84.9454 719.585 91.0048C718.805 96.9911 718.065 102.652 713.211 105.694C712.877 105.905 712.503 106.003 712.129 106.003V106.011Z" fill="black"/>
<path d="M735.864 95.6981C735.481 95.6981 735.091 95.5842 734.75 95.3565C734.53 95.2101 729.351 91.6314 729.18 81.9525C729.164 80.8301 730.05 79.9029 731.18 79.8866C732.318 79.8541 733.229 80.7569 733.245 81.8874C733.376 89.297 736.888 91.8916 737.043 91.9974C737.945 92.6399 738.181 93.9006 737.547 94.8197C737.148 95.389 736.522 95.7062 735.872 95.7062L735.864 95.6981Z" fill="black"/>
<path d="M862.008 134.576C861.227 134.576 860.487 134.129 860.146 133.364C859.187 131.201 850.982 111.981 857.048 103.099C860.219 98.4634 860.577 93.3637 860.406 90.2323C858.333 91.3384 855.349 92.4364 852.096 92.046C843.835 91.0456 839.046 82.6762 837.501 66.4824C832.249 70.4679 826.508 78.0808 824.264 87.7353C822.914 93.5426 818.45 97.8452 813.726 102.392C808.287 107.63 802.66 113.047 800.456 121.546C800.172 122.636 799.058 123.287 797.976 123.002C796.887 122.717 796.236 121.611 796.521 120.521C799.017 110.908 805.335 104.824 810.905 99.4556C815.369 95.153 819.223 91.436 820.296 86.8081C823.215 74.2174 831.671 64.6687 838.29 61.1306C838.9 60.8053 839.631 60.8134 840.233 61.1469C840.835 61.4803 841.225 62.1066 841.274 62.798C842.29 78.7396 846.088 87.2229 852.568 88.0118C856.723 88.5161 860.626 85.2464 860.666 85.2139C861.203 84.7584 861.935 84.612 862.61 84.8235C863.276 85.035 863.789 85.5799 863.959 86.2631C864.065 86.6779 866.439 96.5357 860.39 105.401C856.324 111.355 861.512 126.426 863.846 131.729C864.301 132.754 863.837 133.958 862.805 134.413C862.537 134.535 862.26 134.584 861.984 134.584L862.008 134.576Z" fill="black"/>
<path d="M812.644 121.96C812.522 121.96 812.4 121.952 812.278 121.928C811.173 121.725 810.441 120.675 810.636 119.569C810.742 118.967 813.417 104.701 823.93 98.6986C830.167 95.1362 830.874 89.0442 831.76 81.3417C832.118 78.2835 832.484 75.1115 833.224 71.8093C833.468 70.7113 834.557 70.028 835.655 70.2721C836.753 70.5161 837.436 71.6059 837.192 72.704C836.493 75.7947 836.143 78.8448 835.801 81.8054C834.858 89.947 833.972 97.6413 825.947 102.229C817.1 107.288 814.661 120.163 814.636 120.293C814.458 121.277 813.604 121.96 812.636 121.96H812.644Z" fill="black"/>
<path d="M839.265 119.619C839.135 119.619 839.013 119.61 838.883 119.586C837.777 119.375 837.054 118.317 837.265 117.211C837.387 116.56 840.42 101.196 851.706 97.5036C852.779 97.1539 853.918 97.7395 854.267 98.805C854.617 99.8705 854.031 101.017 852.966 101.367C843.973 104.311 841.282 117.837 841.249 117.976C841.062 118.952 840.209 119.627 839.257 119.627L839.265 119.619Z" fill="black"/>
<path d="M965.849 164.63C965.28 164.63 964.727 164.394 964.32 163.93C964.092 163.67 961.995 161.132 958.197 152.852C955.994 148.054 958.01 143.385 960.133 138.44C962.214 133.608 964.564 128.135 963.385 121.53L963.231 120.668C961.637 111.819 959.661 99.9927 959.58 92.9816C948.505 97.878 943.114 110.908 941.236 116.601C939.756 121.075 936.171 123.1 932.373 125.239C926.478 128.566 919.136 132.706 914.713 148.167C914.404 149.249 913.282 149.875 912.2 149.558C911.119 149.249 910.501 148.127 910.81 147.045C915.697 129.981 924.185 125.19 930.381 121.701C933.869 119.733 936.398 118.309 937.382 115.324C939.618 108.574 946.399 92.4123 961.173 88.0771C961.832 87.8819 962.547 88.0365 963.068 88.4838C963.588 88.9312 963.849 89.6144 963.759 90.2894C963.239 94.2911 964.401 104.271 967.231 119.944L967.385 120.814C968.784 128.623 966.06 134.959 963.865 140.05C961.954 144.491 960.442 148.005 961.889 151.161C965.434 158.896 967.377 161.254 967.402 161.279C968.117 162.133 968.02 163.418 967.166 164.142C966.784 164.467 966.312 164.63 965.841 164.63H965.849Z" fill="black"/>
<path d="M920.234 151.103C920.08 151.103 919.925 151.087 919.771 151.046C918.681 150.794 917.998 149.704 918.25 148.606C919.828 141.807 927.739 136.422 934.097 132.095C936.683 130.339 939.122 128.679 940.431 127.362C944.546 123.246 945.286 116.52 945.294 116.455C945.408 115.34 946.4 114.519 947.53 114.641C948.644 114.755 949.457 115.755 949.343 116.878C949.311 117.211 948.432 125.117 943.31 130.241C941.724 131.827 939.253 133.511 936.382 135.463C930.609 139.391 923.421 144.279 922.21 149.525C921.99 150.469 921.153 151.103 920.234 151.103Z" fill="black"/>
<path d="M953.709 131.461C953.571 131.461 953.433 131.445 953.287 131.42C952.189 131.193 951.481 130.111 951.717 129.013C951.75 128.875 954.49 115.454 951.742 104.759C951.465 103.669 952.116 102.563 953.205 102.286C954.295 102.01 955.401 102.66 955.677 103.75C958.669 115.381 955.823 129.273 955.701 129.859C955.498 130.819 954.652 131.477 953.717 131.477L953.709 131.461Z" fill="black"/>
</g>
<defs>
<clipPath id="clip0_242_4844">
<rect width="1440" height="271" fill="white" transform="translate(0 -0.000976562)"/>
</clipPath>
</defs>
</svg>
