<svg viewBox="0 0 677.07 533.16" xmlns="http://www.w3.org/2000/svg">

    <style>
        :root { fill:#222 }
        .accent { fill: #f9322c; }

        @media (prefers-color-scheme: dark) {
        :root {  fill: #f9322c; }
        .accent { fill:#dee2e6; }
        }
    </style>

    <g class="accent">
        <path
            d="m633.54 297.9c-8.87 1.83-28.53-7.33-28.53-7.33l-12.87 7.33 36.42 7.17s-4.15 7-13.15 17-27 8-57.5 14.5-49.5 18.5-64.93 29.5-51.57 20-78 22.64-63.57 6.36-76.44 10.72-31.63 13.02-31.63 13.02-27.5-14.38-38.5-20.38c-9.33-5.09-38.09-6.59-59.33-18.52l-1.22 7.31c15.2 6.91 27.86 8.77 45.91 13.2 24.36 5.99 50.55 26.77 50.55 26.77s.09 11.24.09 17.24 6 4 11 4 4-10 0-21.44c11-11.44 64-21.56 92.46-23.46 28.45-1.89 84.54-19.11 84.54-19.11l17.81-10.82c17.81-10.82 50.19-31.18 84.26-33.68 9.46-.69 17.06-2.64 23.11-5.09l5.32-14.91v12.43c11.59-6.14 15.61-13.65 15.61-13.65l.89-3.29 3.7.33c3.7.33 11.3-5.33 11.3-9.83s-12-3.5-20.87-1.67z"/>
        <path
            d="m193.8 373.38c3.21 1.94 6.26 3.64 9.19 5.13l3.05-6.78c-2.66-1.69-5.18-3.56-7.48-5.65-3.11-2.83-6.4-5.46-9.8-7.89l5.04 15.2z"/>
        <path
            d="m185.91 364.57-6.59-12.52c-16.87-9.93-34.32-15.26-42.91-15.98-12-1-36-14-36-14l31.11-7.25-6.37-4.88-37.75 9.13s0 1-10 1-9 6-6 10 12-7 12-7 23 16 48 22c23.62 5.67 33.85 10.45 55.34 23.91l-.84-4.41z"/>
        <path
            d="m125.41 293.07s-.51-6.99-.76-7 .24 0 .24 0l7.99-3.57 3.35-4.28 7.17 1.84 5-4 8.22-1.5 7.56 3.66s.21-3.16 5.21-2.16 4 5 4 5 4.49-4 9.74-3.5 8.23 4.93 8.23 4.93 6.62-.43 6.32 1.07 1.91 7.62 1.91 7.62-37.21 10.88-56.21 6.88-18-5-18-5z"/>
        <path
            d="m325.43 248.35c-.16-.07-.31-.13-.44-.19-2.4-1.02-.95-.42-2.72-.75-1.86-.35-6.86 2.65-5.86 5.65l1 3s5 5 8 4 2.9-.68 2.9-.68l14.27 10.73s-.75 12.75-.96 15.35-7.11.6-5.66 5.1 1.45 3.5 1.45 3.5l13.73 20.55 9.13.29 11.88-1.82 6.78 4.98 3.48 7.49 10.42-.36 11.85 9.52 9.23-6.75-4.08-4.64 3.13-4.54 5.54.28 5.82 5.63 5.03-1.37-3.36-4.54 2.92-3.51 3.48.18 4.31 2.61 4.22-.5 10.76-1.24s11.74-1.34 13.24-6.8-5.63-8.96-5.63-8.96l-9.37-16 3.95-11.27-11.9-13.91-.96 9.75-20.08-14.86 7 20.29-7-2.14s-11.72-6.34-20.61-5.85-19.28-4.32-20.59-5.42-21.31-14.09-23.81-16.59-13.31-12.5-16.4-8-1.84 5.86-.97 7.18 13.37 10.82 13.37 10.82l5 5s-1.54 3.72-3.52 3.61-21.16-6.98-21.16-6.98l-6.32-7.28-.48-.57z"/>
        <path
            d="m549.19 318.57c4.22.5 9.22-.5 9.22-.5s-2 .21 4 1.61 5.57.39 6.79.39 3.54-1.5 3.54-1.5 1.67.5 6.67.5h6s4.9 3 5.95-.5.86-3.98.86-3.98l-4.24-9.04s-3.9-6.82-5.24-7.65-.34.17-2.34-.83-6.11-1.28-6.11-1.28l-8.89-.72s-3.27 2.66-3.63 2.83-4.37-.83-4.37-.83-8 3-9 5 .73 4.28.73 4.28-4.18 11.72.05 12.22z"/>
        <path
            d="m245.41 340.07v9.32l-9.85 7.01 18.35.28s11.5 15.38 22.5 17.38 54.75 7.47 61.87 3.23 6.78-9.15 6.78-9.15 2.34 1.91 6.34-4.09 0-8.31 0-8.31l-25.98-5.69-9.64-7-20.8 2.11s-4.58 5.89-12.58 6.89-25.4-3-25.4-3l-11.6-9z"/>
        <path
            d="m213.82 219.9c-5.41 3.17-6.54 12.17-6.54 12.17h.13s2.5 12.51 2.5 12.51-2.22 16.86.64 18.68 3.27 1.81 3.27 1.81l4.09 1.09-3.5 11.91.79 3.95h13.47l3.48-6.98-6.23-6.2.45-5.67s5.04 4.34 6.55-2.88 7.12-15.22 7.31-24.22l.19-9s0-7.33-7-7.17-7-.5-7.5-.67-12.09.67-12.09.67z"/>
        <path d="m388.83 263.18 20.45-6.56-3.36-8.27-15.75 5.72z"/>
        <path d="m472.55 260.31 6.55 2.21 6.1-8.95-11.11-1.07z"/>
        <path d="m294.91 275.67 9.01-2.84 5.91-4.43 5.52-.83-.44-3-5.82.76-11.89 3.68-4.03 2.52z"/>
    </g>
    <path
        d="m177.91 404.07c-.45 0-.9-.2-1.2-.59-4.77-6.28-5.85-12.4-5.9-12.66-.07-.44.05-.88.33-1.22.29-.34.71-.53 1.15-.53h4.18l-2.69-7.7c-.17-.48-.08-1.01.23-1.42.31-.4.8-.62 1.31-.57.22.02 5.06.52 12.91 7.48-2.37-26.23-19.24-55.08-19.42-55.38-.37-.62-.24-1.42.3-1.89s1.35-.49 1.92-.05c.66.52 15.92 12.96 28.49 53.82l7.27-12.77c.33-.58 1.01-.87 1.65-.72.65.16 1.12.72 1.15 1.39l.67 14.22c.04.83-.6 1.53-1.43 1.57-.82.03-1.53-.6-1.57-1.43l-.43-9.06-6.45 11.32c-.3.52-.88.82-1.48.75s-1.1-.49-1.26-1.07c-6.56-22.43-14.09-36.66-19.76-45.11 5.64 11.95 12.98 30.66 13.58 48.06.02.62-.34 1.18-.9 1.43-.56.24-1.22.12-1.66-.32-5.07-5.07-8.96-7.38-11.31-8.42l2.4 6.86c.16.46.09.97-.19 1.36s-.74.63-1.22.63h-4.38c.63 2.11 2.04 5.84 4.89 9.59.5.66.37 1.6-.29 2.1-.27.21-.59.31-.91.31z"/>
    <path
        d="m617.14 297.05c-.08 0-.16 0-.24-.02-.82-.13-1.37-.9-1.24-1.72 1.16-7.21 4.96-16.12 8.81-23.8-5.7 7.46-12.13 16.22-16.29 22.86-.44.7-1.37.92-2.07.48s-.92-1.36-.48-2.07c8.99-14.37 28.43-38.39 28.63-38.63.5-.62 1.4-.74 2.04-.27.64.46.82 1.35.39 2.02-.16.25-15.61 24.63-18.08 39.89-.12.74-.76 1.26-1.48 1.26z"/>
    <path
        d="m577.91 295.07c-.55 0-1.08-.3-1.34-.83-.29-.59-.16-1.28.28-1.73.16-.41.84-2.92-1.4-12.61-2.97-12.88-7.66-22.04-20.85-24.87-.58-.12-1.04-.59-1.16-1.17-1.72-8.6-8.31-12.48-13.13-15.31-.4-.24-.8-.47-1.17-.69-2.46-1.47-4.59-1.25-7.29-.97-2.08.22-4.44.46-7.18-.12-3.83-.82-5.07-2.94-6.07-4.65-.79-1.35-1.42-2.42-3.25-3.16-2.33-.93-5.95-.3-9.68 1.69-5.24 2.79-11.49 8.79-13.3 17.23-.13.62-.65 1.09-1.28 1.17-7.03.88-11.62 13.53-10.69 29.42.05.83-.58 1.54-1.41 1.58-.84.06-1.54-.58-1.58-1.41-1.02-17.35 3.98-30.39 12.26-32.38 2.28-8.93 8.96-15.26 14.59-18.27 4.57-2.44 9.02-3.11 12.21-1.83 2.79 1.12 3.86 2.95 4.73 4.43.91 1.56 1.57 2.68 4.11 3.23 2.27.49 4.29.28 6.23.07 2.87-.3 5.83-.61 9.15 1.38.37.22.75.45 1.15.68 4.84 2.85 12.07 7.11 14.34 16.35 14.86 3.61 19.46 15.05 22.2 26.91 2.2 9.52 2.27 14.65.21 15.68-.22.11-.44.16-.67.16zm-.7-2.83s0 0 0 0zm0 0s0 0 0 0zm0 0s0 0 0 0zm0 0s0 0 0 0zm0 0s0 0 0 0zm0 0s0 0 0 0z"/>
    <path
        d="m498.91 272.07c-.75 0-1.4-.57-1.49-1.33-.01-.09-1.08-8.95-7.85-22.5-.37-.74-.07-1.64.67-2.01s1.64-.07 2.01.67c7.04 14.08 8.11 23.13 8.15 23.5.09.82-.5 1.56-1.32 1.66-.06 0-.11 0-.17 0z"/>
    <path
        d="m506.91 269.07s-.06 0-.09 0c-.83-.05-1.46-.76-1.41-1.59 0-.16.82-15.73-9.32-31.36-.45-.69-.25-1.62.44-2.07s1.62-.26 2.07.44c10.71 16.5 9.84 32.51 9.8 33.18-.05.79-.71 1.41-1.5 1.41z"/>
    <path
        d="m539.91 277.07c-8.64 0-14.59-21.11-16.49-35.3-.11-.82.47-1.58 1.29-1.69.81-.1 1.58.47 1.69 1.29 2.32 17.42 8.64 32.7 13.51 32.7.22 0 .37-.05.55-.29 2.15-2.88-.61-16.81-3.25-25.78-.23-.79.22-1.63 1.01-1.86.8-.23 1.63.22 1.86 1.01 1.14 3.85 6.61 23.31 2.78 28.43-.73.98-1.75 1.5-2.95 1.5z"/>
    <path
        d="m557.91 279.07c-.75 0-1.39-.55-1.49-1.31l-3-24c-.1-.82.48-1.57 1.3-1.67s1.57.48 1.67 1.3l3 24c.1.82-.48 1.57-1.3 1.67-.06 0-.13.01-.19.01z"/>
    <path
        d="m564.28 287.2c-.41 0-.83-.13-1.21-.38-.69-.46-.88-1.39-.42-2.08.26-.4.68-.63 1.13-.66.81-2.3 1-11.01.68-18.44-.04-.83.61-1.53 1.43-1.56.81-.03 1.53.61 1.56 1.43.85 19.72-1.45 21.01-2.2 21.43-.31.17-.64.26-.98.26z"/>
    <path
        d="m509.91 283.07c-.2 0-.41-.04-.61-.13-.76-.34-1.1-1.22-.76-1.98.02-.04 1.81-4.17.59-7.27-.49-1.25-1.41-2.15-2.81-2.74-1.61-.69-3.5-.18-4.81 1.29-1.36 1.53-2.16 4.32-.29 7.58.41.72.16 1.64-.56 2.05s-1.63.16-2.05-.56c-2.65-4.64-1.4-8.76.66-11.07 2.19-2.45 5.42-3.26 8.23-2.05 2.14.92 3.63 2.4 4.42 4.42 1.67 4.27-.55 9.36-.64 9.57-.25.56-.8.89-1.37.89z"/>
    <path
        d="m502.42 299.4c-16.93 0-29.84-5.03-33.79-10.22-1.63-2.14-1.52-3.95-1.14-5.09 2.89-8.68 30.87-8.92 31.15-8.92.83 0 1.5.67 1.5 1.5s-.67 1.5-1.5 1.5c-10.63 0-26.83 2.45-28.3 6.87-.22.66 0 1.44.68 2.32 3.81 5 18.59 9.82 35.84 8.92 25.46-1.34 29.51-5.58 30.15-6.84.2-.41.35-1-.34-2.04-2.97-4.46-18.57-7.54-24.33-8.35-.82-.12-1.39-.87-1.28-1.69.12-.82.87-1.39 1.69-1.28 2.25.32 22.16 3.28 26.41 9.65 1.44 2.16 1.08 3.94.53 5.05-2.32 4.61-13.31 7.47-32.67 8.5-1.56.08-3.09.12-4.59.12z"/>
    <path
        d="m501.91 334.07c-15.79 0-28.5-7.93-28.5-14.5 0-15.63-2.93-28.53-2.96-28.66-.19-.81.32-1.61 1.12-1.8.81-.18 1.61.32 1.8 1.12.03.13 3.04 13.35 3.04 29.34 0 3.51 9.63 11.5 25.5 11.5s25.9-4.95 26.58-6.97c.29-.86.76-4.52 1.26-8.4 1.49-11.51 2.89-21.26 4.96-24.03.5-.66 1.44-.8 2.1-.3s.8 1.44.3 2.1c-1.77 2.36-3.41 15.04-4.39 22.61-.65 5-1.03 7.88-1.39 8.96-1.42 4.27-13.86 9.03-29.42 9.03z"/>
    <path
        d="m428.31 313.09c-1.32 0-2.73-.08-4.22-.22-10.78-1.08-24-6.21-26.39-9.39-2.69-3.58-1.37-9.87 3.91-18.67 2.88-4.81 20.15-8.22 26.54-9.33l-6.7-23.49c-.19-.67.11-1.39.72-1.72.61-.34 1.38-.21 1.84.31 6.74 7.53 18.01 19.24 21.44 20.61 1.67.67 2.86 1.82 3.43 3.33 1.14 3.01-.46 6.36-.65 6.74-.12.24-.3.45-.53.59l-28 18c-.69.45-1.63.25-2.07-.45-.45-.7-.25-1.62.45-2.07l27.62-17.76c.37-.9.87-2.68.37-3.99-.28-.72-.84-1.24-1.74-1.6-3.71-1.48-12.76-10.79-18.26-16.69l5.42 18.99c.12.41.05.85-.18 1.22-.23.36-.6.61-1.03.68-9.75 1.57-24.29 5.15-26.11 8.19-4.47 7.44-5.92 12.89-4.09 15.33 1.58 2.11 13.56 7.13 24.29 8.21 6.33.64 11.01-.2 13.52-2.43 2.43-2.16 3.7-4.49 3.77-6.92.11-3.9-2.8-6.87-2.83-6.89-.59-.59-.59-1.54 0-2.12s1.54-.59 2.12 0c.16.16 3.86 3.92 3.71 9.1-.1 3.29-1.7 6.35-4.78 9.08-2.54 2.26-6.43 3.4-11.59 3.4z"/>
    <path
        d="m445.91 319.07c-.7 0-1.33-.49-1.47-1.21-.16-.81.36-1.6 1.18-1.76 7.37-1.47 15.88-3.62 18.28-4.83-.36-.38-.98-.85-1.5-1.25-1.17-.88-2.63-1.99-3.73-3.62-.56-.84-1.03-2.13-1.67-3.91-1.88-5.22-5.04-13.95-13.66-17.54-.76-.32-1.13-1.2-.81-1.96s1.2-1.12 1.96-.81c9.84 4.1 13.28 13.61 15.33 19.29.53 1.46.98 2.72 1.34 3.26.81 1.21 1.99 2.11 3.04 2.89 1.44 1.08 2.79 2.1 2.98 3.79.15 1.33.38 3.35-20.97 7.62-.1.02-.2.03-.3.03z"/>
    <path
        d="m355.91 318.07c-.48 0-.95-.23-1.24-.65-5.64-8.21-10.78-13.51-14.53-17.38-3.7-3.82-6.14-6.34-6.71-9.17-.36-1.78.31-2.97.93-3.66 1.85-2.04 5.75-2.28 8.06-2.22.07-3.34.42-9.31 1.93-11.82-1.67-2.27-11.44-9.14-20.42-14.8-1.03.61-2.73 1.37-4.26.9-.71-.21-1.66-.77-2.15-2.2-.93-2.7.08-9.59 2.71-11.62 1.07-.82 2.38-.87 3.51-.12 2.51 1.67 3.3 3.45 3.55 4.45 1.69 1.38 8.53 6.69 15.94 8.33 2.76.61 6 .84 9.42 1.08 7.62.54 16.25 1.15 24.06 6.12 11.21 7.14 15.48 15.24 15.66 15.59.38.74.09 1.64-.65 2.02-.73.38-1.64.09-2.02-.65-.04-.07-4.12-7.76-14.6-14.43-7.17-4.56-15.4-5.14-22.66-5.65-3.54-.25-6.88-.49-9.86-1.15-9.27-2.06-17.32-9.04-17.66-9.33-.33-.29-.51-.7-.51-1.13s-.14-1.29-2.33-2.75c0 0-.01-.01-.01-.01-1.13.66-2.45 6.12-1.7 8.28.01.03.1.28.18.31.45.13 1.69-.43 2.46-1.01.5-.37 1.17-.41 1.7-.08 10.21 6.38 22.46 14.64 22.81 17.73.07.61-.12 1.18-.54 1.6-.83.83-1.56 6.41-1.56 11.94 0 .42-.18.83-.49 1.11s-.73.42-1.16.38c-2.33-.23-6.1-.02-7.17 1.16-.17.19-.33.46-.21 1.05.39 1.97 2.71 4.36 5.92 7.67 3.82 3.95 9.06 9.35 14.84 17.77.47.68.3 1.62-.39 2.09-.26.18-.56.26-.85.26z"/>
    <path
        d="m425.98 278.17c-.35 0-.69-.12-.98-.36-.07-.06-6.97-5.94-16.53-8.8-9.59-2.88-20.33-1.95-20.43-1.94-.3.03-.61-.04-.88-.19-.14-.08-14.02-7.98-24.77-11.89-6.15-2.24-12.85-7.16-18.24-11.11-3.71-2.72-7.91-5.8-9.25-5.8-.48 0-.81.14-.97.84-.38 1.62.71 4.36 2.64 5.32.49.25 1.09.52 1.77.84 4.96 2.29 14.21 6.55 17.88 15.2.32.76-.03 1.64-.79 1.97-.76.32-1.64-.03-1.97-.79-3.22-7.58-11.78-11.53-16.38-13.65-.71-.33-1.34-.62-1.86-.88-3.31-1.65-4.88-5.91-4.22-8.7.46-1.97 1.92-3.15 3.89-3.15 2.22 0 5.31 2.19 11.02 6.38 5.23 3.84 11.74 8.62 17.49 10.71 10.08 3.67 22.41 10.52 24.83 11.88 2.26-.16 11.99-.64 21.09 2.09 10.19 3.06 17.32 9.15 17.62 9.4.63.54.7 1.49.16 2.11-.3.34-.71.52-1.14.52z"/>
    <path
        d="m447.44 286.97c-.43 0-.86-.18-1.15-.54-.53-.64-.44-1.58.19-2.11l8.4-7.01-9.47-13.24v6.5c0 .83-.67 1.5-1.5 1.5s-1.5-.67-1.5-1.5v-11.18c0-.65.42-1.23 1.04-1.43s1.3.03 1.68.56l13 18.18c.46.64.34 1.52-.26 2.02l-9.47 7.9c-.28.23-.62.35-.96.35z"/>
    <path
        d="m381.93 303.04c-7.26 0-17.58-1.68-26.96-9.3-.64-.52-.74-1.47-.22-2.11s1.47-.74 2.11-.22c15.19 12.34 33.62 7.75 33.8 7.7.8-.21 1.62.27 1.83 1.07s-.27 1.62-1.07 1.83c-.35.09-4.07 1.03-9.49 1.03z"/>
    <path
        d="m320.52 379.97c-16.05 0-33.02-2.31-42.03-4.96-14.93-4.39-22.43-13.92-24.43-16.83-3.34.42-14.58 1.61-22.47-.15-.45-.1-.83-.4-1.03-.82s-.19-.9.01-1.32c2.48-4.96 7.3-6.85 9.71-7.5-.12-2.05.05-6.02 2.29-10.5.33-.67 1.11-.99 1.82-.75 7.78 2.59 12.67 8.62 14.25 10.82 2.39-.29 9.45-1.08 22.86-1.87 7.72-3.99 35.19-4.98 36.37-5.02.51-.03 1.01.23 1.3.67.02.02 1.96 2.84 8.31 8.33 23.83.09 31.12 6.1 31.42 6.36.22.19.38.44.47.73.02.08 2.02 7.5-7.15 11.2 1.01 2.35.64 5.06.59 5.44-.07.48-.37.89-.8 1.11-7.17 3.68-19.04 5.06-31.47 5.06zm-65.73-24.9c.52 0 1.02.28 1.29.73.07.11 7.07 11.57 23.25 16.33 17.58 5.17 55.29 7.59 70.55.46.05-1.17-.09-3.02-1.04-3.96-.37-.37-.52-.92-.39-1.43s.52-.92 1.02-1.07c7.1-2.13 7.26-6.23 7.07-7.69-1.73-1.12-9.65-5.37-29.64-5.37-.36 0-.7-.13-.98-.36-5.25-4.5-7.77-7.37-8.75-8.61-8.52.33-29.22 1.74-34.53 4.77-.2.11-.42.18-.66.19-16.71.98-23.81 1.98-23.88 1.99-.59.08-1.17-.19-1.48-.69-.04-.07-4.37-6.84-11.94-9.91-2.06 4.91-1.32 8.78-1.31 8.82.08.4 0 .82-.25 1.16-.24.34-.6.56-1.01.62-.05 0-4.83.76-7.76 4.44 8.55 1.24 20.08-.39 20.21-.41.07-.01.14-.02.21-.02z"/>
    <path
        d="m311.18 344.41c-.81 0-1.47-.64-1.5-1.46-.16-5.55 1.15-9.8 3.91-12.64 2.49-2.56 6.15-3.98 10.9-4.21.67-5.69 5.19-11.22 11.44-13.81 7.11-2.95 14.41-1.41 20.03 4.21.59.59.59 1.54 0 2.12s-1.54.59-2.12 0c-4.72-4.72-10.83-6.02-16.77-3.56-5.61 2.32-9.67 7.58-9.67 12.5 0 .83-.67 1.5-1.5 1.5-4.6 0-8.02 1.12-10.16 3.33-2.17 2.24-3.2 5.76-3.07 10.47.02.83-.63 1.52-1.46 1.54-.01 0-.03 0-.04 0z"/>
    <path
        d="m318.17 394.09c-17.56 0-36.66-3.03-50.77-8.11-15.63-5.63-19.53-12.55-20.04-17.36-.5-4.68 2.09-9.4 6.76-12.32.7-.44 1.63-.22 2.07.48s.22 1.63-.48 2.07c-2.89 1.8-5.81 5.24-5.36 9.46.6 5.6 7.02 10.88 18.08 14.86 25.52 9.19 67.61 11.61 85.74 1.11 6.35-3.67 6.99-6.01 6.81-7.07-.47-2.77-6.96-4.85-10.02-5.43-.81-.15-1.35-.94-1.2-1.75.15-.82.94-1.35 1.75-1.2 1.17.22 11.48 2.32 12.43 7.87.56 3.3-2.14 6.62-8.26 10.17-8.67 5.02-22.52 7.22-37.49 7.22z"/>
    <path
        d="m352.91 335.07c-.67 0-1.28-.46-1.45-1.14-1.22-4.88-.27-10.6 2.47-14.93 2.32-3.67 5.76-6.12 9.69-6.9 5.43-1.09 9.92-.44 13.34 1.91 4.53 3.12 5.4 8.1 5.44 8.31.14.82-.42 1.59-1.23 1.73-.83.13-1.59-.42-1.73-1.23 0-.03-.73-3.98-4.21-6.36-2.72-1.86-6.42-2.33-11.01-1.42-4 .8-6.42 3.47-7.74 5.56-2.32 3.67-3.12 8.49-2.1 12.6.2.8-.29 1.62-1.09 1.82-.12.03-.25.04-.37.04z"/>
    <path
        d="m354.85 371.67c-.74 0-1.38-.54-1.48-1.29-.12-.82.46-1.58 1.28-1.69.47-.07 46.9-6.61 54.59-10.45 2.69-1.35 4.07-3.42 3.89-5.83-.23-3.05-3.16-7.18-10.69-9.62-.79-.26-1.22-1.1-.96-1.89s1.1-1.22 1.89-.96c7.48 2.43 12.37 7.12 12.75 12.25.27 3.6-1.8 6.87-5.54 8.74-8.13 4.06-53.59 10.47-55.52 10.74-.07 0-.14.01-.21.01z"/>
    <path
        d="m454.92 360.13c-13.88 0-29.64-3.23-40.95-8.92-.74-.37-1.04-1.27-.67-2.01s1.27-1.04 2.01-.67c20.5 10.32 58.95 12.22 66.31.26 2.76-4.48 3.37-8.49 1.82-11.9-1.96-4.32-7.49-7.62-14.79-8.83-.82-.14-1.37-.91-1.23-1.73s.9-1.37 1.73-1.23c8.41 1.4 14.61 5.25 17.03 10.55 1.37 3.01 2.13 8-2 14.71-4.15 6.74-15.83 9.77-29.26 9.77z"/>
    <path
        d="m591.91 320.07c-.29 0-.58-.08-.83-.25-.69-.46-.88-1.39-.42-2.08 3.18-4.76-3.58-9.92-3.65-9.97-.44-.33-.66-.87-.58-1.41.19-1.35-.06-2.4-.76-3.21-1.75-2.02-5.71-2.07-5.75-2.07-.44 0-.86-.2-1.15-.54-.04-.04-3.64-4.26-7.79-4.5-1.79-.12-3.4.54-4.94 1.98-.41.39-1.01.51-1.54.31-2.03-.75-3.85-.73-5.56.07-3.78 1.75-5.59 6.64-5.61 6.69-.27.74-1.06 1.15-1.82.93-.9-.25-3.56-.71-5.05.21-.57.35-.91.88-1.07 1.65-.82 4.1 1.5 6.55 1.6 6.65.57.59.57 1.54-.02 2.12s-1.52.58-2.11 0c-.15-.15-3.55-3.63-2.41-9.35.32-1.58 1.17-2.84 2.45-3.62 2-1.22 4.58-1.06 6.13-.81.91-1.89 3.04-5.5 6.64-7.17 2.18-1.01 4.53-1.16 7-.44 1.97-1.59 4.14-2.33 6.5-2.19 4.49.27 8.18 3.73 9.44 5.06 1.53.11 5.21.64 7.33 3.08 1.12 1.29 1.64 2.88 1.55 4.73 3.13 2.65 7.21 8.21 3.68 13.5-.29.43-.76.67-1.25.67z"/>
    <path
        d="m570.01 328.05c-13.47 0-28.91-3.03-39.52-13.47-.59-.58-.6-1.53-.02-2.12s1.53-.6 2.12-.02c18.68 18.37 54.73 12.08 62.74 8.74 4.59-1.91 7.18-4.62 6.93-7.24-.27-2.87-4.26-6.72-14.66-8.91-.81-.17-1.33-.97-1.16-1.78s.97-1.33 1.78-1.16c10.34 2.18 16.55 6.39 17.03 11.56.38 4.06-2.81 7.81-8.77 10.29-4.11 1.71-14.52 4.1-26.47 4.1z"/>
    <path
        d="m532.45 308.42c-.3 0-.59-.09-.86-.27-.68-.47-.85-1.41-.37-2.09 3.07-4.41 13.7-8 23.69-8 .83 0 1.5.67 1.5 1.5s-.67 1.5-1.5 1.5c-9.47 0-19.02 3.54-21.23 6.71-.29.42-.76.64-1.23.64z"/>
    <path
        d="m585.91 302.07c-.63 0-1.21-.4-1.42-1.03-.26-.79.16-1.63.95-1.9.09-.03 8.73-2.95 13.41-7.64 1.47-1.47 1.83-3.84.96-6.34s-5.25-10.82-25.07-13.11c-.82-.09-1.41-.84-1.32-1.66s.83-1.42 1.66-1.32c20.97 2.42 26.26 11.37 27.56 15.1 1.24 3.56.6 7.18-1.67 9.45-5.19 5.19-14.21 8.24-14.59 8.36-.16.05-.32.08-.47.08z"/>
    <path
        d="m170.2 328.08c-7.48 0-15.57-1.35-23.6-3.04-20.73-4.36-30.41-30.4-32.16-39.17-.08-.39 0-.79.22-1.13 12.84-19.26 41.01-19.16 49.34-18.67 16.63.98 33.49 3.79 44.1 17.58.15.2.25.42.29.67 2.2 13.18-6.88 29.69-16.54 37.42-5.86 4.69-13.38 6.34-21.65 6.34zm-52.69-42.2c2.34 10.66 12.32 32.56 29.71 36.22 16.19 3.41 32.57 5.44 42.75-2.7 10.21-8.17 17.1-23.42 15.52-34.21-9.9-12.58-25.87-15.19-41.67-16.12-7.85-.46-34.2-.59-46.31 16.82z"/>
    <path
        d="m161.52 301.54c-13.43 0-34.07-2.31-46.67-14.91-.59-.59-.59-1.54 0-2.12s1.54-.59 2.12 0c12.65 12.65 36.6 15.3 54.8 13.57 20.21-1.92 33.99-14.48 34.12-14.61.61-.56 1.56-.53 2.12.08s.53 1.56-.08 2.12c-.59.54-14.62 13.37-35.88 15.39-2.31.22-6.01.48-10.53.48z"/>
    <path
        d="m123.91 292.07c-.1 0-.2 0-.3-.03-.81-.16-1.34-.95-1.18-1.76.97-4.84 5.71-7.2 7.4-7.9.97-1.79 3.74-6.3 7.07-6.3 2.45 0 5.38 1.13 6.81 1.76 2.87-2.16 9.48-6.74 12.67-5.68 1.98.66 3.24 1.7 3.98 2.52 1.96-.86 5.99-2.13 10.1-.49 3.08 1.23 4.57 2.54 5.29 3.59l5.74-1.64c.53-.15 1.09 0 1.47.38l3.28 3.28c1.11-.23 2.84-.1 5.54.81 3.83 1.29 5.62 2.55 5.62 3.97v2.32l2.3 2.71c.54.63.46 1.58-.17 2.11-.63.54-1.58.46-2.11-.17l-2.65-3.13c-.23-.27-.36-.62-.36-.97v-2.39c-.34-.26-1.27-.84-3.58-1.61-2.7-.91-3.75-.76-3.98-.7-.23.19-.52.3-.83.33-.44.03-.86-.13-1.17-.44l-3.38-3.38-6.15 1.76c-.45.13-.94.04-1.32-.25-.33-.25-.54-.63-.59-1.04-.06-.17-.62-1.39-4.07-2.77-4.22-1.69-8.63.87-8.68.9-.36.21-.79.27-1.19.15s-.73-.39-.92-.77c-.02-.04-.82-1.48-3.13-2.25-1.18-.4-6.14 2.29-10.6 5.76-.46.35-1.08.41-1.59.16-1.03-.51-4.17-1.84-6.33-1.84-1.35 0-3.57 3-4.66 5.17-.18.35-.49.63-.87.75-.05.02-5.19 1.8-6 5.87-.14.71-.77 1.21-1.47 1.21zm63.2-9.6s0 0 0 0zm0 0s0 0 0 0zm0 0s0 0 0 0zm0 0s0 0 0 0zm0 0s0 0 0 0zm-13.71-2.88s0 0 0 0zm0 0s0 0 0 0zm0 0s0 0 0 0z"/>
    <path
        d="m260.71 320.3c-3.2 0-6.94-.56-11.03-2.21-2.92.25-20.93 1.48-30.15-5.32-5.61-4.13-6.38-13.24-4.25-19.71 1.9-5.78 5.91-9.42 10.88-9.94 1.08-5.01 3.52-8.74 6.95-10.56 3.3-1.76 7.28-1.76 11.85-.02 1.36-3.9 3.59-6.53 6.63-7.81 4.77-2.01 10.05-.03 12.13.93 1.96-1.4 7.25-4.66 13.13-3.87 3.69.5 6.9 2.49 9.56 5.91 2.19-.82 4.12-.69 5.73.37 3.78 2.48 4.28 9.47 4.3 12.83 3.41-.25 10.64-.39 13.62 2.64 1.11 1.13 1.57 2.59 1.33 4.23-.52 3.61-1.31 5.81-2.06 7.15 2.4 1.18 6.07 3.78 6.07 8.63 0 3.24-2.11 6.73-5.51 9.12-4.29 3.01-9.64 3.78-14.79 2.13-13.66 6.93-21.76 4.51-24.21 3.42-1.5.68-5.17 2.06-10.19 2.06zm-10.05-5.05c11.04 4.52 19.18.19 19.52 0 .48-.26 1.06-.24 1.52.04.06.04 7.62 4.37 22.59-3.43.37-.2.81-.22 1.2-.08 4.4 1.58 9.02 1.02 12.68-1.55 2.57-1.81 4.23-4.43 4.23-6.67 0-4.78-5.67-6.49-5.92-6.56-.64-.19-1.21-.73-1.21-1.39 0-.64.29-1.17.88-1.37.27-.27 1.52-1.77 2.25-6.89.1-.72-.05-1.25-.5-1.7-2.03-2.07-8.95-2.08-12.83-1.6-.44.06-.88-.09-1.21-.39-.32-.3-.5-.74-.47-1.18.2-3.73-.41-10.25-2.92-11.89-.35-.23-1.42-.93-3.92.32-.67.33-1.48.12-1.9-.49-2.29-3.31-5.06-5.21-8.21-5.65-5.96-.83-11.56 3.76-11.62 3.8-.48.39-1.15.46-1.69.15-.06-.03-5.8-3.18-10.4-1.22-2.55 1.08-4.36 3.58-5.39 7.45-.11.43-.41.78-.81.97s-.86.19-1.26 0c-4.34-1.97-7.96-2.21-10.77-.72-2.85 1.52-4.85 4.93-5.63 9.6-.12.72-.75 1.25-1.48 1.25-6.02 0-8.5 5.55-9.28 7.94-2.08 6.32-.68 13.51 3.18 16.36 6.62 4.88 19 5.12 25.01 4.91-3.72-4.25-4.99-9.77-4.49-13.93.47-3.89 2.46-6.86 5.48-8.15 7.61-3.27 18.78 3.31 19.25 3.59.71.42.94 1.34.52 2.06-.42.71-1.34.95-2.06.52-.1-.06-10.32-6.07-16.54-3.41-2.75 1.18-3.49 4.11-3.69 5.75-.48 4.01 1.15 9.93 5.85 13.56z"/>
    <path
        d="m272.32 327.97c-24.87 0-59.89-4.79-72.69-17.76-.58-.59-.58-1.54.01-2.12s1.54-.58 2.12.01c14.82 15.02 64.72 18.88 86.95 15.98 16.99-2.22 30.61-10.93 35.29-18.4 1.1-1.76 2.25-4.33 1.48-6.64-2.72-8.17-16.32-12.37-16.46-12.42-.79-.24-1.24-1.08-1-1.87s1.08-1.24 1.87-1c.62.19 15.23 4.71 18.44 14.34.9 2.71.29 5.88-1.78 9.18-5.05 8.06-19.53 17.44-37.44 19.78-4.52.59-10.31.92-16.79.92z"/>
    <path
        d="m207.22 291.14c-.37 0-.74-.14-1.03-.41-.6-.57-.62-1.51-.06-2.12.29-.31 7.3-7.54 21.72-7.61.83 0 1.5.67 1.5 1.49 0 .83-.66 1.5-1.49 1.51-13.06.06-19.49 6.61-19.55 6.67-.29.31-.69.46-1.08.46z"/>
    <path
        d="m321.91 293.29c-.79 0-1.45-.62-1.5-1.42-.04-.83.59-1.53 1.42-1.58.03 0 3.64-.29 8.15-3.89 1.61-1.29 2.28-3.54 1.81-6.03-.87-4.58-5.1-8.46-11.31-10.37-7.28-2.24-12.17.02-14.16 2.64-1.79 2.37-1.79 5.33 0 8.12.45.7.25 1.62-.45 2.07s-1.62.25-2.07-.45c-2.48-3.86-2.44-8.18.13-11.56 2.69-3.55 8.68-6.38 17.43-3.69 7.29 2.24 12.29 6.98 13.38 12.68.69 3.6-.39 6.94-2.88 8.93-5.31 4.25-9.67 4.54-9.86 4.55-.03 0-.06 0-.08 0z"/>
    <path
        d="m224.44 264.76c-5.6 0-12.34-1.87-14.59-4.12-2-2-2.2-7.19-2.35-15.5-.1-5.03-.2-10.23-1.03-13.15-1.17-4.1-.85-7.28.98-9.71 2.64-3.5 8.35-5.2 17.46-5.2 6.95 0 11.41 1.43 13.63 4.37 2.63 3.49 1.34 8.01.4 11.32-.22.78-.43 1.52-.55 2.11-.28 1.41-.4 3.9-.53 6.78-.33 7.14-.75 16.03-4.03 19.91-1.62 1.92-4.53 3.02-8.39 3.19-.32.01-.65.02-.99.02zm.47-44.69c-7.99 0-13.06 1.35-15.07 4.01-1.24 1.65-1.4 3.9-.49 7.08.94 3.29 1.04 8.69 1.14 13.91.1 5.15.23 12.2 1.48 13.44 1.46 1.46 7.71 3.46 13.33 3.23 2.96-.12 5.17-.88 6.23-2.12 2.62-3.1 3.02-11.77 3.32-18.11.14-3 .26-5.59.59-7.23.14-.71.37-1.51.61-2.35.81-2.85 1.83-6.39.09-8.69-1.59-2.11-5.37-3.17-11.23-3.17z"/>
    <path
        d="m223.26 231.14c-6.08 0-12.84-1.41-16.95-4.88-.63-.54-.71-1.48-.18-2.11s1.48-.71 2.11-.18c3.79 3.2 11.6 4.83 19.02 3.94 4.77-.57 8.48-2.09 9.94-4.08.49-.67 1.43-.82 2.1-.32.67.49.81 1.43.32 2.1-2.69 3.68-8.68 4.9-12 5.29-1.38.16-2.85.25-4.36.25z"/>
    <path
        d="m225.91 285.07h-.01l-6.59-.06c-7.44-.07-10.62-6.51-10.75-6.79-.33-.69-.09-1.52.56-1.92l7.39-4.62.91-7.29c.1-.82.85-1.4 1.67-1.3s1.4.85 1.3 1.67l-1 8c-.06.45-.31.85-.69 1.09l-6.74 4.21c1.08 1.49 3.45 3.92 7.37 3.95l6.59.06c.83 0 1.49.69 1.49 1.51s-.68 1.49-1.5 1.49z"/>
    <path
        d="m231.82 276.82c-.3 0-.6-.09-.86-.27l-3.91-2.75c-.32-.22-.54-.56-.61-.94l-1.55-8c-.16-.81.37-1.6 1.19-1.76.81-.16 1.6.37 1.76 1.19l1.44 7.41 3.42 2.4c.68.48.84 1.41.37 2.09-.29.42-.76.64-1.23.64z"/>
    <path
        d="m292.59 272.09c-.82 0-1.49-.66-1.5-1.49 0-.83.66-1.51 1.49-1.51 0 0 1.96-.08 4.5-1.77 1.08-.72-.94-5.5-1.91-7.81-.71-1.69-1.38-3.28-1.71-4.58-.53-2.12 1.15-5.41 4.41-11.54 3.22-6.05 7.62-14.33 6.59-18.46-1.64-6.54-5.05-9.89-18.43-8.87-.24.02-.48-.02-.71-.12-3.91-1.67-17.81-6.5-34.91.61v51.03c0 .83-.67 1.5-1.5 1.5s-1.5-.67-1.5-1.5v-52.02c0-.6.35-1.14.9-1.37 18.14-7.94 33.17-3.09 37.85-1.15 13-.93 18.97 2.21 21.21 11.16 1.31 5.25-3.03 13.4-6.86 20.6-1.86 3.49-4.4 8.26-4.14 9.4.27 1.08.9 2.57 1.56 4.14 1.85 4.39 3.95 9.37.81 11.47s-5.86 2.27-6.14 2.27h-.01z"/>
    <path
        d="m287.91 247.07c-.23 0-.47-.05-.69-.17-.5-.26-.81-.77-.81-1.33v-20.86c.01-.63.41-1.2 1.01-1.41 4.04-1.44 9.81-1.31 12.55 1.79 1.04 1.18 2.46 3.8.29 8.15-4.12 8.24-11.17 13.34-11.47 13.55-.26.19-.57.28-.87.28zm1.51-21.25v16.55c2.3-2.1 5.79-5.76 8.15-10.47 1.06-2.12 1.11-3.74.15-4.82-1.41-1.6-5.04-2.1-8.3-1.26z"/>
    <path
        d="m270.56 221.41c-3.99 0-9.04-.34-15.24-1.36-.82-.13-1.37-.91-1.24-1.72s.91-1.38 1.72-1.24c17.61 2.88 25.51.1 25.59.07.78-.28 1.64.11 1.92.89.29.77-.1 1.63-.88 1.92-.23.09-3.95 1.43-11.88 1.43z"/>
    <path
        d="m451.47 290.5c-.6 0-1.17-.36-1.4-.96-.3-.77.08-1.64.86-1.94l10.84-4.2c2.14-5.2 17.55-43.19 16.64-56.73-.04-.68.38-1.31 1.02-1.52 5.02-1.67 4.21-9.19 3.43-16.46-.4-3.75-.78-7.29-.45-10.28.38-3.42 2.23-7.12 4.38-11.41 3.81-7.6 8.12-16.21 5.66-26.06-3.64-14.56-25.2-12.88-25.42-12.87-.58.05-1.12-.23-1.42-.72s-3.32-4.35-20.79-5.27c-16.47-.87-22.56 2.41-24.77 5.3-1.52 2-1.77 4.6-.73 7.72 3.27 9.82 6.03 24.86 3.01 34.91l-3 10c-.04.14-.1.27-.18.38-.11.17-10.76 16.8-10.76 30.19s5.26 36.45 5.31 36.68c.19.81-.31 1.61-1.12 1.8-.81.18-1.61-.32-1.8-1.12-.22-.95-5.39-23.35-5.39-37.36s9.86-29.64 11.12-31.63l2.94-9.8c2.81-9.38.15-23.69-2.99-33.09-1.36-4.07-.95-7.69 1.18-10.49 3.85-5.05 13.04-7.23 27.32-6.48 15.58.82 20.92 4.34 22.57 5.96 4.2-.17 23.98-.12 27.81 15.17 2.73 10.93-2.04 20.47-5.88 28.13-2.02 4.03-3.76 7.51-4.08 10.4-.3 2.67.07 6.05.45 9.63.82 7.64 1.75 16.25-4.4 19.2.17 15.99-16.43 55.86-17.15 57.58-.16.38-.46.67-.84.82l-11.44 4.43c-.18.07-.36.1-.54.1z"/>
    <path
        d="m470.91 203.07c-.44 0-.86-.19-1.15-.53-8.5-10.05-10.36-25.04-5.53-44.55.12-.5.5-.9.99-1.06 4.52-1.49 9.01-.67 12.63 2.31 3.99 3.28 6.17 8.59 5.55 13.53-.57 4.58-2.38 8.5-4.66 13.48-1.85 4.03-4.15 9.04-6.41 15.81-.17.51-.61.9-1.14 1-.09.02-.19.03-.28.03zm-3.97-43.53c-4 16.74-2.84 29.81 3.46 38.9 2-5.6 3.98-9.91 5.61-13.46 2.26-4.92 3.89-8.48 4.41-12.6.48-3.88-1.32-8.23-4.48-10.84-2.59-2.13-5.76-2.83-9-2z"/>
    <path
        d="m443.93 156.04c-5.76 0-12.53-.73-19.5-3.05-.79-.26-1.21-1.11-.95-1.9s1.11-1.21 1.9-.95c17.31 5.77 33.94 1.03 34.1.98.79-.23 1.63.22 1.86 1.02.23.79-.22 1.63-1.02 1.86-.44.13-7.08 2.03-16.4 2.03z"/>
    <path
        d="m184.98 368.66c-.3 0-.6-.09-.86-.27-14.41-10.17-36.58-20.05-53.93-24.01-18.35-4.19-40.66-15.85-45.06-18.22l-12.42 7.69c-.63.39-1.45.26-1.93-.3-.27-.31-6.56-7.76-4.25-13.53 2.27-5.67 13.72-3.46 16.78-2.76l43.3-9.15c.8-.17 1.61.35 1.78 1.16s-.35 1.61-1.16 1.78l-43.63 9.22c-.22.05-.44.04-.66 0-4.89-1.17-12.59-1.71-13.63.88-1.16 2.89 1.28 7.17 2.96 9.46l12.02-7.44c.46-.29 1.04-.3 1.51-.04.25.14 25.11 13.78 45.06 18.34 17.69 4.04 40.3 14.11 55 24.48.68.48.84 1.41.36 2.09-.29.41-.76.63-1.23.63z"/>
    <path
        d="m203.56 380.15c-.21 0-.41-.04-.61-.13-3.25-1.46-6.21-2.98-8.79-4.5-.71-.42-.95-1.34-.53-2.06.42-.71 1.34-.95 2.06-.53 2.48 1.47 5.33 2.93 8.49 4.35.76.34 1.09 1.23.75 1.98-.25.56-.8.89-1.37.89z"/>
    <path
        d="m309.99 443.54c-3.44 0-5.82-.78-7.09-2.32-1.13-1.38-.98-2.84-.9-3.28l2.04-15.62c-5.31-3.5-36.67-23.8-55.58-28.21-10.73-2.5-26.55-6.45-40.06-11.79-.77-.3-1.15-1.18-.84-1.95.3-.77 1.17-1.15 1.95-.84 13.33 5.27 29.01 9.18 39.64 11.66 21.14 4.93 55.88 28.17 57.34 29.15.47.32.72.88.65 1.44l-2.17 16.6c0 .05-.02.11-.03.16s-.05.41.31.81c.37.42 1.67 1.36 5.85 1.16 2.01-.1 3.31-.63 3.86-1.59.86-1.47-.01-3.93-.39-4.68-.07-.13-.11-.27-.14-.42l-2-11.73c-.09-.52.1-1.04.5-1.39.54-.47 13.5-11.56 33.62-16.59 8.52-2.13 21.02-3.55 34.25-5.04 17.96-2.04 38.32-4.34 52.66-8.93 7.79-2.49 16.15-4.67 24.23-6.77 18.19-4.74 37-9.63 52.6-18.74 20.56-12.01 67.54-27.95 91.4-31.02.83-.11 1.57.47 1.68 1.3.11.82-.47 1.57-1.3 1.68-23.56 3.03-69.96 18.78-90.27 30.63-15.96 9.32-34.97 14.27-53.36 19.06-8.42 2.19-16.37 4.26-24.08 6.73-14.61 4.68-35.13 7-53.23 9.05-13.13 1.49-25.54 2.89-33.86 4.97-16.94 4.24-28.91 13.16-31.74 15.42l1.82 10.67c.44.97 1.84 4.5.19 7.32-1.1 1.88-3.22 2.91-6.3 3.07-.43.02-.85.03-1.26.03z"/>
    <path
        d="m608.91 336.07c-.83 0-1.5-.67-1.5-1.5s.67-1.5 1.5-1.5c1.68 0 3.36-.22 5-.66.81-.22 1.62.26 1.84 1.06s-.26 1.62-1.06 1.84c-1.89.51-3.83.77-5.78.77z"/>
    <path
        d="m623.76 330.33c-.44 0-.87-.19-1.16-.55-.52-.64-.43-1.59.22-2.11 9.84-8.01 15.1-22.19 15.15-22.33.28-.77 1.14-1.18 1.91-.9l9.45 3.34c1.21-1.93 2.9-5.4 1.95-7.6-.53-1.21-7.42-.26-15.19 2.74-.29.11-.61.13-.91.06l-35.63-8.94c-.8-.2-1.29-1.02-1.09-1.82s1.01-1.29 1.82-1.09l35.17 8.82c5.25-1.99 16.56-5.63 18.58-.96 2.02 4.66-2.4 10.81-2.91 11.49-.39.53-1.08.74-1.7.52l-9.18-3.24c-1.62 3.92-6.79 15.13-15.53 22.25-.28.23-.61.34-.95.34z"/>
    <path
        d="m483.2 255.07c-.12 0-.25-.02-.38-.05l-8.21-2.13c-.8-.21-1.28-1.03-1.07-1.83s1.03-1.28 1.83-1.07l8.21 2.13c.8.21 1.28 1.03 1.07 1.83-.18.67-.78 1.12-1.45 1.12z"/>
    <path
        d="m316.03 269.14c-.5 0-.98-.25-1.27-.7-.22-.34-5.32-8.48-6.34-18.72-.87-8.71 5.13-16.5 7.51-19.21-1.28-1.63-1.36-3.65 1.33-11.32 1.29-3.69-.88-12.53-3.19-21.89-2.18-8.86-4.65-18.9-4.65-26.73 0-5.78 1.84-10.4 5.48-13.75 6.44-5.93 16.71-6.21 22.63-5.79 6-4.15 20.53-4.8 26.98.1l16.9 1.91c.5.06.95.37 1.17.82.23.46.21.99-.05 1.43-5.06 8.57-18.36 31.83-19.14 36.53l-.18 1.04c-.98 5.75-2.47 14.44 3.21 17.06 7.22 3.33 24.73 20.96 25.38 36.3.62 14.7-3.38 19.66-3.55 19.86-.53.64-1.48.72-2.11.19s-.72-1.46-.2-2.1c.08-.1 3.43-4.59 2.86-17.82-.57-13.43-16.88-30.58-23.64-33.7-7.77-3.59-5.98-14.04-4.91-20.29l.17-1.03c.9-5.41 14.05-28.22 18.35-35.57l-15.04-1.7c-.29-.03-.57-.15-.79-.34-5.31-4.43-19.29-3.75-24.06.02-.3.24-.68.34-1.05.32-5.32-.44-15.11-.38-20.91 4.96-3 2.76-4.51 6.64-4.51 11.55 0 7.47 2.43 17.32 4.57 26.01 2.52 10.23 4.69 19.06 3.11 23.6-2.62 7.48-2.02 8.21-1.77 8.52l.75.92c.49.6.44 1.46-.1 2.01-.08.08-8.48 8.63-7.57 17.79.95 9.51 5.84 17.33 5.89 17.41.44.7.24 1.63-.46 2.07-.25.16-.53.23-.8.23z"/>
    <path
        d="m330.05 220.13c-.38 0-.75-.14-1.03-.41-.46-.44-.6-1.12-.33-1.71 2.17-4.8-2.94-20.9-6.32-31.55-1.13-3.55-2.19-6.9-2.9-9.49-2.05-7.53-.14-11.32 1.83-13.18 3.28-3.11 9.04-3.32 17.1-.63.48.16.84.55.97 1.04 8.32 31.21 1.66 50.5-8.63 55.78-.22.11-.45.17-.68.17zm-1.36-55.85c-2.35 0-4.15.56-5.34 1.68-2.48 2.35-1.91 6.85-.99 10.22.69 2.53 1.75 5.86 2.86 9.37 4.03 12.7 7.17 23.27 6.97 29.74 7.18-6.67 11.17-23.79 4.48-49.54-3.1-.98-5.78-1.47-7.98-1.47z"/>
    <path
        d="m353.05 159.85c-3.57 0-8.05-.46-13.51-1.82-.8-.2-1.29-1.02-1.09-1.82s1.01-1.29 1.82-1.09c15.1 3.77 22.12.17 22.19.14.73-.38 1.64-.12 2.03.61s.13 1.63-.59 2.03c-.21.12-3.69 1.96-10.85 1.96z"/>
    <path
        d="m388.83 255.07c-.64 0-1.24-.42-1.43-1.06-.24-.79.2-1.63 1-1.87l19.64-6c.79-.24 1.63.2 1.87 1s-.2 1.63-1 1.87l-19.64 6c-.15.04-.29.07-.44.07z"/>
    <path
        d="m242.91 301.07c-.18 0-.36-.03-.53-.1-.63-.24-15.38-5.95-16.46-16.25-.09-.82.51-1.56 1.33-1.65.82-.08 1.56.51 1.65 1.33.89 8.48 14.4 13.7 14.54 13.75.77.29 1.16 1.16.87 1.93-.23.6-.8.97-1.4.97z"/>
    <path
        d="m270.91 318.07c-.47 0-.94-.22-1.23-.64-4.73-6.75-6.27-14.31-4.02-19.74 1.21-2.92 4.1-6.65 10.99-7.85 4.92-.85 10.54 2 15.04 7.64 3.76 4.7 6.66 11.56 4.68 16.3-.32.76-1.2 1.13-1.96.81s-1.12-1.2-.81-1.96c1.26-3.02-.53-8.6-4.26-13.27-2.94-3.68-7.7-7.34-12.18-6.55-4.45.78-7.39 2.81-8.73 6.05-1.86 4.48-.44 10.94 3.7 16.86.48.68.31 1.61-.37 2.09-.26.18-.56.27-.86.27z"/>
    <path
        d="m291.91 301.07c-.55 0-1.08-.3-1.34-.83-.37-.74-.07-1.64.67-2.01 1.07-.54 10.61-5.2 15.96-4.13.81.16 1.34.95 1.18 1.76s-.95 1.35-1.76 1.18c-3.68-.73-11.38 2.54-14.04 3.87-.22.11-.44.16-.67.16z"/>
    <path
        d="m284.99 294.83c-.11 0-.21-.01-.32-.04-.81-.18-1.32-.98-1.14-1.79.09-.39 2.22-9.7 11.02-11.9.8-.2 1.62.29 1.82 1.09s-.29 1.62-1.09 1.82c-7.02 1.75-8.8 9.55-8.82 9.63-.15.7-.77 1.18-1.46 1.18z"/>
    <path
        d="m261.07 297.29c-.61 0-1.19-.38-1.41-.99-1.66-4.54-.85-9.98 2.11-14.21 2.68-3.83 6.74-6.02 11.15-6.02 7.62 0 15.81 9.86 16.16 10.28.53.64.43 1.58-.21 2.11s-1.58.43-2.11-.21c-2.1-2.55-8.69-9.18-13.84-9.18-3.46 0-6.55 1.68-8.69 4.74-2.37 3.39-3.05 7.89-1.75 11.46.28.78-.12 1.64-.89 1.92-.17.06-.34.09-.51.09z"/>
    <path
        d="m257.57 296.1s-.07 0-.11 0c-.83-.06-1.45-.78-1.39-1.61.57-7.8-2.81-13.55-10.96-18.65-.7-.44-.92-1.37-.48-2.07s1.37-.92 2.07-.48c9.09 5.68 13.01 12.48 12.36 21.41-.06.79-.72 1.39-1.49 1.39z"/>
    <path
        d="m269.05 279.73c-.72 0-1.35-.51-1.48-1.24-.01-.06-1.12-6.26-4.76-10.01-.58-.59-.56-1.54.03-2.12.6-.58 1.54-.56 2.12.03 4.3 4.43 5.51 11.3 5.56 11.59.14.82-.41 1.59-1.22 1.73-.09.01-.17.02-.26.02z"/>
    <path
        d="m287.91 285.69c-.07 0-.15 0-.23-.02-.82-.12-1.38-.89-1.26-1.71 0-.06.89-6.36-1.92-13.87-.29-.78.1-1.64.88-1.93.77-.29 1.64.1 1.93.88 3.1 8.27 2.12 15.08 2.08 15.37-.11.74-.75 1.28-1.48 1.28z"/>
    <path
        d="m339.79 353.74c-.13 0-.26-.02-.39-.05-.8-.21-1.28-1.03-1.06-1.83.7-2.65 1.31-18.13-12.91-22.87-.79-.26-1.21-1.11-.95-1.9s1.11-1.21 1.9-.95c15.16 5.05 16.21 21.41 14.86 26.48-.18.67-.79 1.12-1.45 1.12z"/>
    <path
        d="m358.07 362.86c-.82 0-1.49-.66-1.5-1.48-.01-.83.65-1.51 1.48-1.52 4.84-.08 8.48-2.51 9.98-6.67 1.73-4.8.12-10.58-3.92-14.05-3.76-3.23-8.24-4.54-12.62-3.67-4.15.82-7.64 3.48-9.58 7.3-.38.74-1.28 1.03-2.02.66-.74-.38-1.03-1.28-.66-2.02 2.36-4.65 6.61-7.89 11.67-8.89 5.3-1.05 10.68.49 15.15 4.33 5.04 4.33 6.97 11.3 4.79 17.34-1.92 5.32-6.69 8.56-12.76 8.65h-.03z"/>
    <path
        d="m384.21 355.53c-4.9 0-10.23-1.17-14.76-3.89-.71-.43-.94-1.35-.51-2.06s1.35-.94 2.06-.51c8.21 4.93 18.71 3.88 23.14 1.22.27-.17 7.27-4.71 7.27-13.71 0-3.27-1.99-6.32-5.47-8.37-5.81-3.43-13.84-3.29-20.46.36-6.96 3.84-7.31 10.36-7.32 10.63-.03.83-.73 1.48-1.55 1.44-.83-.03-1.47-.72-1.44-1.54.01-.34.37-8.47 8.87-13.16 7.53-4.15 16.73-4.27 23.43-.31 4.41 2.61 6.94 6.6 6.94 10.96 0 10.71-8.35 16.05-8.71 16.27-2.81 1.68-6.96 2.68-11.49 2.68z"/>
    <path
        d="m325.69 363.22c-2.4 0-3.31-.96-3.65-1.55-.44-.78-.39-1.71.15-2.56.85-1.35 3.25-2.82 7.23-2.53.55.04.96.52.92 1.07s-.52.97-1.07.92c-2.87-.21-4.81.69-5.39 1.61-.08.12-.19.35-.11.5.12.22.71.58 2.11.54 3.76-.1 4.53-1.14 4.53-1.15 0-.55.45-1 1-1s1 .45 1 1c0 .5-.31 2.98-6.47 3.15-.08 0-.17 0-.25 0z"/>
    <path
        d="m315.41 372.79c-.24 0-.47-.08-.66-.25-2.79-2.45-4.25-5.66-4.12-9.04.13-3.24 1.73-6.4 4.18-8.24.44-.33 1.07-.24 1.4.2s.24 1.07-.2 1.4c-1.98 1.49-3.28 4.06-3.38 6.72-.08 1.95.46 4.83 3.44 7.46.42.37.46 1 .09 1.41-.2.22-.47.34-.75.34z"/>
    <path
        d="m322.74 376.11c-.28 0-.55-.11-.75-.34-.23-.26-5.63-6.47-4.58-13.84.08-.55.59-.93 1.13-.85.55.08.93.58.85 1.13-.92 6.44 4.04 12.18 4.09 12.23.36.41.33 1.05-.09 1.41-.19.17-.43.25-.66.25z"/>
    <path
        d="m349.91 368.57s-.03 0-.05 0c-10.07-.48-11.96-.28-12.03-.27-.55.07-1.04-.32-1.11-.87-.07-.54.31-1.04.85-1.12.18-.03 2.09-.23 12.39.26.55.03.98.5.95 1.05-.03.54-.47.95-1 .95z"/>
    <path
        d="m272.1 361.56c-.14 0-.28-.03-.41-.09-1.43-.65-1.88-1.62-2-2.31-.27-1.54.81-3.04 1.42-3.74-.02-.92.51-2.55 3.76-4.09.5-.24 1.1-.02 1.33.48.24.5.02 1.1-.48 1.33-2.3 1.08-2.66 2.02-2.61 2.29.17.38.05.75-.25 1.04-.45.44-1.33 1.6-1.2 2.35.02.12.08.47.86.83.5.23.72.82.5 1.33-.17.37-.53.58-.91.58z"/>
    <path
        d="m286.41 367.07c-.26 0-.51-.1-.71-.29-.24-.24-2.37-2.44-1.85-4.62.15-.63.48-1.17 1-1.61-.36-.39-.6-.86-.71-1.4-.26-1.32.32-2.76 1.55-3.97-.58-.61-.84-1.42-.69-2.32.3-1.86 2.41-3.78 5.41-3.78.55 0 1 .45 1 1s-.45 1-1 1c-2.02 0-3.29 1.22-3.43 2.1-.03.18-.11.66.75.95.36.12.62.44.67.82s-.12.75-.44.96c-1.48.99-2 2.14-1.86 2.85.08.43.42.71.99.82.44.09.77.47.8.92s-.25.87-.68 1.01c-.84.28-1.32.65-1.42 1.1-.21.87.8 2.23 1.32 2.76.39.39.39 1.02 0 1.41-.2.19-.45.29-.71.29z"/>
    <path
        d="m301.06 371.32c-.83 0-1.99-.41-3.23-2.16-.54-.76-.74-1.63-.58-2.53.2-1.11.91-2.09 1.61-2.81-1.24-.54-2.7-1.61-3.23-3.7-.31-1.24.1-2.07.5-2.55.93-1.12 2.75-1.43 4.01-1.5-.12-.9-.08-2.08.62-3.08.85-1.22 2.42-1.79 4.62-1.75.55.02.99.48.97 1.03-.02.54-.46.97-1 .97h-.03c-1.04-.04-2.36.1-2.92.89-.56.8-.23 2.13-.06 2.57.12.32.08.68-.12.96s-.53.43-.87.41c-1.18-.08-3.11.12-3.68.79-.07.08-.22.27-.1.78.63 2.47 3.42 2.74 3.45 2.74.42.04.78.33.88.74.11.41-.06.84-.41 1.08-.56.38-2.06 1.63-2.27 2.8-.07.37 0 .69.24 1.01.92 1.29 1.56 1.38 1.74 1.3l.51.86.57.82s-.5.34-1.22.34z"/>
    <path
        d="m146.6 293.57c-.38 0-.73-.21-.9-.57s-1.2-1.86-6.87-1.43c-.54.05-1.03-.37-1.07-.92s.37-1.03.92-1.07c3.79-.28 6 .37 7.26 1.08.53-1.4 1.75-2.94 4.23-3.56 3.09-.78 5.6.94 6.96 2.2 1.22-2.2 3.64-4.65 7.1-3.57 5.19 1.61 4.93 5.2 4.91 5.35-.05.55-.52.96-1.09.91-.55-.05-.96-.54-.91-1.09 0-.07.06-2.15-3.51-3.26-3.51-1.09-5.21 3.57-5.28 3.77-.12.35-.43.6-.79.65-.37.05-.73-.1-.95-.39-.03-.03-2.66-3.44-5.96-2.63-3.06.77-3.06 3.21-3.05 3.48.02.47-.3.9-.76 1.01-.08.02-.16.03-.24.03z"/>
    <path
        d="m180.78 291.57c-.45 0-.86-.3-.97-.76-.17-.66-.86-2.49-2.03-3.03-.55-.25-1.18-.19-1.92.18-.49.25-1.09.05-1.34-.45-.25-.49-.05-1.09.45-1.34 1.62-.81 2.89-.56 3.66-.21 2.25 1.03 3.05 4.02 3.13 4.36.13.54-.19 1.08-.73 1.21-.08.02-.16.03-.24.03z"/>
    <path
        d="m223.41 238.07c-.55 0-1-.45-1-1s.45-1 1-1c4.69 0 8.52-1.88 8.55-1.89.5-.25 1.09-.04 1.34.45s.05 1.09-.45 1.34c-.17.09-4.27 2.11-9.45 2.11z"/>
    <path
        d="m226.89 244.35c-.91 0-1.83-.09-2.72-.31-.54-.13-.86-.68-.73-1.21.13-.54.68-.87 1.21-.73 3.64.91 8.34-.94 8.39-.96.52-.21 1.1.05 1.3.56s-.04 1.09-.56 1.3c-.17.07-3.43 1.35-6.89 1.35z"/>
    <path
        d="m224.41 251.07c-.55 0-1-.45-1-1s.45-1 1-1c3.79 0 6.66-.94 6.68-.95.53-.18 1.09.11 1.26.63s-.11 1.09-.63 1.26c-.13.04-3.2 1.05-7.32 1.05z"/>
    <path
        d="m224.77 276.04c-.8 0-1.71-.15-2.75-.54-.52-.19-.78-.77-.59-1.29s.77-.78 1.29-.59c3.21 1.19 4.58-.65 4.64-.73.32-.44.94-.55 1.39-.24s.57.92.26 1.38c-.07.1-1.41 2.01-4.24 2.01z"/>
    <path
        d="m270.78 228.28c-1.13 0-2.3-.06-3.5-.21-.55-.07-.94-.57-.87-1.12s.57-.94 1.12-.87c7.62.95 14.42-1.9 14.48-1.93.51-.21 1.1.02 1.31.53.22.51-.02 1.09-.53 1.31-.25.11-5.42 2.29-12.02 2.29z"/>
    <path
        d="m273.7 236.35c-1.33 0-2.82-.08-4.48-.29-.55-.07-.94-.57-.87-1.12s.56-.95 1.12-.87c7.61.94 11.46-.89 11.5-.9.5-.24 1.1-.04 1.34.46.24.49.04 1.09-.45 1.34-.14.07-2.85 1.39-8.16 1.39z"/>
    <path
        d="m272.37 246.65c-.6 0-1.18-.03-1.74-.09-.55-.06-.95-.55-.89-1.1s.54-.96 1.1-.89c4.42.48 11.23-1.45 11.29-1.47.53-.15 1.08.16 1.24.69.15.53-.16 1.08-.69 1.24-.26.07-5.72 1.62-10.32 1.62z"/>
    <path
        d="m272.41 256.07c-.55 0-1-.45-1-1s.45-1 1-1c4.81 0 8.72-.96 8.76-.97.53-.13 1.08.19 1.21.73s-.19 1.08-.73 1.21c-.17.04-4.18 1.03-9.24 1.03z"/>
    <path
        d="m361.39 195.67s-.05 0-.08 0c-.55-.04-.96-.53-.92-1.08l2.52-31.1c.04-.55.53-.96 1.08-.92s.96.53.92 1.08l-2.52 31.1c-.04.52-.48.92-1 .92z"/>
    <path
        d="m357.53 231.96c-1.49 0-3.09-.12-4.79-.41-.54-.09-.91-.61-.82-1.15s.6-.92 1.15-.82c11.33 1.89 17.97-4.09 18.04-4.15.41-.37 1.04-.35 1.41.06s.35 1.04-.05 1.41c-.25.24-5.57 5.06-14.94 5.06z"/>
    <path
        d="m360.05 241.94c-.47 0-.88-.33-.98-.8-.11-.54.24-1.07.79-1.18 11.41-2.28 16.05-5.95 16.09-5.99.43-.35 1.06-.28 1.41.14.35.43.29 1.05-.14 1.4-.2.16-5 4.01-16.97 6.4-.07.01-.13.02-.2.02z"/>
    <path
        d="m368.31 251.26c-.51 0-.94-.38-.99-.9-.06-.55.34-1.04.89-1.1 6.15-.65 10.95-5.36 10.99-5.41.39-.39 1.02-.39 1.41 0s.39 1.02 0 1.41c-.21.21-5.33 5.26-12.2 5.98-.04 0-.07 0-.11 0z"/>
    <path
        d="m440.14 171.72c-2.82 0-6.76-.38-11.97-1.68-.54-.13-.86-.68-.73-1.21.13-.54.67-.87 1.21-.73 11.43 2.86 16.35 1.06 16.39 1.04.52-.2 1.09.06 1.29.57s-.05 1.09-.56 1.29c-.12.05-1.88.72-5.64.72z"/>
    <path
        d="m436.78 183.99c-2.95 0-6.35-.49-9.78-2.01-.5-.22-.73-.82-.51-1.32.23-.5.82-.73 1.32-.51 8.49 3.77 17.14.5 17.23.46.52-.2 1.09.05 1.29.57.2.51-.05 1.09-.57 1.29-.24.09-3.96 1.51-8.99 1.51z"/>
    <path
        d="m438.21 197.41c-2.94 0-6.6-.34-11.02-1.36-.54-.12-.87-.66-.75-1.2.13-.54.67-.88 1.2-.75 12.51 2.89 18.59.1 18.65.07.5-.24 1.1-.03 1.33.47s.03 1.1-.47 1.33c-.18.08-3.11 1.43-8.93 1.43z"/>
    <path
        d="m434.03 224.82c-3.75 0-9.38-.78-17-3.83-.51-.21-.76-.79-.56-1.3.21-.51.79-.76 1.3-.56 14.33 5.73 21.17 3.04 21.24 3.01.51-.21 1.09.03 1.31.54s-.02 1.09-.53 1.31c-.15.06-2.03.83-5.77.83z"/>
    <path
        d="m430.67 235.18c-2.49 0-7.49-.47-15.58-3.16-.52-.17-.81-.74-.63-1.26.17-.52.74-.81 1.26-.63 11.5 3.83 16.45 2.98 16.49 2.97.55-.11 1.06.25 1.17.79.1.54-.24 1.06-.78 1.17-.07.01-.69.13-1.94.13z"/>
    <path
        d="m424.41 243.07c-.17 0-4.28-.03-9.42-2.4-.5-.23-.72-.83-.49-1.33s.83-.72 1.33-.49c4.75 2.19 8.54 2.22 8.58 2.22.55 0 1 .45 1 1s-.45 1-1 1z"/>
    <path
        d="m515.06 307.35c-1.77 0-3.69-.08-5.75-.29-.55-.05-.95-.54-.9-1.09.06-.55.53-.94 1.09-.9 9.67.97 16.56-.95 16.63-.97.53-.15 1.08.16 1.24.69.15.53-.16 1.08-.69 1.24-.23.07-4.72 1.32-11.63 1.32z"/>
    <path
        d="m515.96 314.35c-1.45 0-3.02-.08-4.68-.29-.55-.07-.94-.57-.87-1.12s.57-.93 1.12-.87c7.69.96 13.5-.94 13.56-.96.53-.18 1.09.11 1.26.63s-.11 1.09-.63 1.26c-.2.07-4.08 1.33-9.76 1.33z"/>
    <path
        d="m513.41 324.07c-.5 0-.93-.37-.99-.88-.07-.55.32-1.05.87-1.12 7.59-.95 10.54-2.82 10.57-2.84.46-.3 1.08-.17 1.38.29s.18 1.08-.28 1.38c-.13.09-3.29 2.14-11.43 3.16-.04 0-.08 0-.12 0z"/>
    <path
        d="m554 316.72c-1.67 0-3.43-.54-3.91-.7-.52-.17-.81-.74-.63-1.26.14-.42.52-.68.94-.68-.21 0-.41-.07-.59-.2-.44-.33-.53-.96-.2-1.4 2.28-3.05 4.43-2.75 5.24-2.47 1.53.51 2.56 2.15 2.56 4.07 0 1.09-.54 1.71-.99 2.03-.64.46-1.51.62-2.42.62zm-3.58-2.65c.1 0 .2.02.3.05 1.39.46 3.79.89 4.52.36.06-.04.16-.12.16-.41 0-1.05-.49-1.94-1.19-2.18-.84-.28-1.96.38-3.01 1.78-.19.26-.49.4-.79.4z"/>
    <path
        d="m573.41 316.72c-.13 0-.26-.03-.39-.08-.51-.22-.74-.81-.53-1.31.45-1.05 1.45-4.32.21-5.55-1.53-1.53-4.68-.48-4.72-.47-.27.09-.56.06-.81-.07-.25-.14-.42-.37-.49-.64-.01-.04-1.13-4.52-4.28-4.52-.55 0-1-.45-1-1s.45-1 1-1c3.6 0 5.29 3.37 5.92 5.09 1.42-.29 4.06-.52 5.78 1.21 2.41 2.41.44 7.21.21 7.75-.16.38-.53.61-.92.61z"/>
    <path
        d="m586.41 319.07c-.06 0-.13 0-.2-.02-.54-.11-.89-.63-.79-1.18.22-1.13.54-4.55-.86-5.47-.37-.24-.56-.17-.65-.14-.69.23-1.36 1.57-1.56 2.14-.15.42-.55.7-1.01.67-.45-.03-.82-.36-.91-.8-.16-.79-.66-1.98-1.18-2.14-.27-.09-.73.16-1.24.66-.4.38-1.03.38-1.41-.02s-.37-1.03.02-1.41c1.11-1.07 2.2-1.46 3.23-1.13.77.24 1.32.84 1.72 1.49.44-.57 1.01-1.1 1.71-1.34.55-.19 1.41-.28 2.39.36 2.78 1.82 1.85 6.95 1.73 7.53-.09.47-.51.8-.98.8z"/>
    <path
        d="m559.41 315.07c-.55 0-1-.45-1-1 0-3.96 3.27-5 5-5 .55 0 1 .45 1 1s-.45 1-1 1c-.5 0-3 .18-3 3 0 .55-.45 1-1 1z"/>
    <path
        d="m574.3 305.48c-.18 0-.36-.05-.52-.15-.47-.29-.62-.91-.33-1.38 2.54-4.11 5.41-2.88 5.53-2.83.5.23.73.82.5 1.32s-.82.73-1.32.5c-.03-.01-1.42-.5-3 2.06-.19.31-.52.47-.85.47z"/>
    <path
        d="m452.62 355.57c-1.25 0-3.07-.49-5.8-1.24-3.75-1.02-8.88-2.41-13.13-2.41-8.96 0-18.68-14.38-19.69-20.02-.75-4.17-5.26-6.71-5.3-6.74-.33-.18-.58-.48-.7-.84-.47-1.4-.22-2.81.7-4.09 1.61-2.23 5.17-3.66 6.5-3.66 1.78 0 4.46 1.53 6.84 3.91.93.93 6.09 2.86 9.86 4.28 5.94 2.23 9.64 3.67 10.93 4.96 1.07 1.07 3 3.98 5.23 7.35 2.25 3.39 6.01 9.06 7.1 9.7.96.48 1.59 1.32 1.76 2.35.45 2.79-2.51 5.79-2.54 5.82-.43.43-1 .62-1.77.62zm-41.84-32.65c1.53 1 5.37 3.93 6.18 8.45.86 4.78 9.75 17.55 16.73 17.55 4.65 0 10 1.46 13.91 2.52 1.82.5 4.05 1.1 4.9 1.14.79-.9 1.57-2.33 1.46-2.97 0-.06-.01-.09-.15-.16-1.54-.77-3.8-4.02-8.25-10.72-1.96-2.97-4-6.03-4.85-6.89-.93-.93-6.09-2.86-9.86-4.28-5.94-2.23-9.64-3.67-10.93-4.96-2.26-2.26-4.19-3.03-4.72-3.03-.54.05-3.17 1.05-4.13 2.51-.22.33-.29.61-.3.84z"/>
    <path
        d="m465.95 355.54c-1.27 0-3.11-.71-6.05-1.84-1.63-.63-3.49-1.34-5.41-1.98-.79-.26-1.21-1.11-.95-1.9s1.11-1.21 1.9-.95c1.99.66 3.88 1.38 5.54 2.02 1.76.68 3.92 1.5 4.76 1.63.88-.82 1.79-2.16 1.75-2.8 0-.06 0-.09-.13-.17-1.46-.92-3.38-4.38-7.12-11.5-1.65-3.15-3.37-6.41-4.13-7.34-.83-1.02-5.77-3.47-9.38-5.26-5.68-2.82-9.22-4.63-10.37-6.04-2.02-2.48-3.86-3.44-4.39-3.49-.51-.01-3.26.73-4.36 2.08-.25.31-.35.58-.38.8 1.15.94 3.69 3.29 4.79 6.59.26.79-.16 1.64-.95 1.9s-1.64-.16-1.9-.95c-1.09-3.28-4.21-5.5-4.24-5.52-.31-.21-.52-.54-.6-.9-.32-1.44.06-2.82 1.11-4 1.83-2.06 5.51-3.12 6.84-2.98 1.77.18 4.29 1.98 6.41 4.58.83 1.01 5.77 3.46 9.38 5.25 5.69 2.82 9.22 4.63 10.38 6.05.95 1.17 2.58 4.26 4.46 7.84 1.89 3.6 5.06 9.63 6.08 10.37.91.58 1.45 1.47 1.51 2.52.17 2.83-3.08 5.51-3.11 5.53-.39.32-.84.46-1.42.46z"/>
    <path
        d="m479.2 348.02c-1.12 0-2.67-.29-4.86-.69-2.62-.48-5.87-1.08-8.91-1.21-.83-.04-1.47-.74-1.43-1.56.04-.83.73-1.46 1.56-1.43 3.25.14 6.62.76 9.33 1.26 1.58.29 3.51.65 4.31.65h.02c.68-.94 1.15-2.21 1-2.56-1.51-.59-3.77-3.32-8.24-8.98-1.96-2.49-3.99-5.06-4.8-5.74-.87-.73-5.58-2.07-9.03-3.04-5.45-1.54-8.86-2.54-10.15-3.64-2.18-1.85-3.92-2.34-4.3-2.31-.3.06-1.88.75-2.88 1.8-.57.61-1.52.63-2.12.07-.6-.57-.63-1.52-.07-2.12 1.48-1.57 3.8-2.66 4.81-2.74 1.61-.14 4.17 1.05 6.49 3.01.87.73 5.58 2.07 9.03 3.04 5.45 1.54 8.86 2.54 10.15 3.64 1.04.88 2.98 3.33 5.22 6.17 2.23 2.82 5.95 7.54 6.98 8.06.93.37 1.59 1.11 1.83 2.07.63 2.53-1.84 5.48-1.86 5.51-.46.54-1.11.76-2.08.76z"/>
    <path
        d="m419.91 334.57c-.29 0-.57-.12-.77-.36-.36-.42-.3-1.05.12-1.41l2-1.69c.42-.36 1.05-.3 1.41.12s.3 1.05-.12 1.41l-2 1.69c-.19.16-.42.24-.64.24z"/>
    <path
        d="m422.91 339.57c-.27 0-.55-.11-.75-.33-.37-.41-.33-1.04.08-1.41l2.8-2.5c.41-.37 1.04-.33 1.41.08s.33 1.04-.08 1.41l-2.8 2.5c-.19.17-.43.25-.67.25z"/>
    <path
        d="m425.71 343.64c-.37 0-.72-.21-.9-.56-.25-.5-.04-1.09.45-1.34l4.2-2.07c.5-.25 1.09-.04 1.34.45.25.5.04 1.09-.45 1.34l-4.2 2.07c-.14.07-.29.1-.44.1z"/>
    <path
        d="m455.48 340.62c-.37 0-.72-.2-.89-.55l-4.57-9.05c-.25-.49-.05-1.09.44-1.34s1.09-.05 1.34.44l4.57 9.05c.25.49.05 1.09-.44 1.34-.14.07-.3.11-.45.11z"/>
    <path
        d="m470.91 337.57c-.28 0-.56-.12-.76-.35l-6-7c-.36-.42-.31-1.05.11-1.41s1.05-.31 1.41.11l6 7c.36.42.31 1.05-.11 1.41-.19.16-.42.24-.65.24z"/>
    <path
        d="m406.91 344.07c-.44 0-.88-.19-1.17-.56-2.39-2.99-3.12-5.78-2.15-8.29 1.96-5.13 10.22-6.63 11.15-6.78.83-.13 1.59.42 1.72 1.23.14.82-.42 1.59-1.23 1.73-2.07.35-7.69 1.9-8.84 4.9-.55 1.45.02 3.24 1.7 5.34.52.65.41 1.59-.23 2.11-.28.22-.61.33-.94.33z"/>
    <path
        d="m324.84 336.87c-1.93 0-4.35-1.18-4.9-2.42-.25-.56-.15-1.17.27-1.58.39-.39 1.02-.39 1.41 0 .25.25.34.59.27.91.49.46 2 1.2 3.2 1.08.61-.06.78-.34.87-.6.17-.52.74-.81 1.26-.63.52.17.81.74.63 1.26-.4 1.19-1.42 1.91-2.81 1.98-.07 0-.14 0-.21 0zm-3.22-2.59s0 0 0 0z"/>
    <path
        d="m345.19 329.84c-.89 0-1.81-.51-2.74-1.54-.91-1-1.12-2.4-.57-3.85.64-1.7 2.13-3 3.62-3.16 1.16-.13 2.17.4 2.88 1.49.3.46.17 1.08-.29 1.38s-1.08.17-1.38-.29c-.39-.59-.76-.62-.99-.6-.72.08-1.6.92-1.96 1.88-.16.42-.35 1.22.17 1.8.63.69 1.09.92 1.31.88.15-.02.28-.21.28-.22.25-.49.85-.69 1.34-.45.49.25.69.85.45 1.34-.06.12-.6 1.14-1.79 1.3-.1.01-.21.02-.32.02z"/>
    <path
        d="m364.04 349.01c-2 0-4.84-1.92-5.72-3.89-.46-1.04-.32-2.05.38-2.75.39-.39 1.02-.39 1.41 0s.39 1.02 0 1.41c-.04.04-.14.14.03.53.55 1.24 2.72 2.77 3.93 2.7.28-.01.33-.1.38-.25.17-.52.74-.81 1.26-.63.52.17.81.74.63 1.26-.33.98-1.12 1.57-2.18 1.62-.05 0-.09 0-.14 0z"/>
    <path
        d="m358.46 327.49c-.35 0-.7-.19-.88-.52-.26-.49-.09-1.09.4-1.36.18-.1.6-.73.56-1.45-.03-.55-.31-.94-.87-1.17-.51-.22-.74-.8-.53-1.31s.8-.75 1.31-.53c1.26.54 2.01 1.6 2.08 2.92.06 1.35-.62 2.77-1.6 3.31-.15.08-.32.12-.48.12z"/>
    <path
        d="m393.4 336.88c-.77 0-1.56-.22-2.28-.66-1.59-.98-2.24-2.73-1.66-4.46.17-.52.73-.81 1.26-.63.52.17.81.74.63 1.26-.4 1.21.44 1.89.82 2.13.71.44 1.8.58 2.53-.15.39-.39 1.02-.39 1.41 0s.39 1.02 0 1.41c-.73.73-1.7 1.1-2.71 1.1z"/>
    <path
        d="m391.04 350.74s-.08 0-.12 0c-.26-.03-6.43-.88-7.5-10.55-.06-.55.33-1.04.88-1.1s1.04.33 1.1.88c.89 8.02 5.56 8.76 5.76 8.79.54.08.93.58.86 1.12-.07.5-.49.87-.99.87z"/>
    <path
        d="m382.4 351.07c-.15 0-.3-.03-.44-.1-.1-.05-2.45-1.27-3.23-5.23-.11-.54.25-1.07.79-1.17.55-.11 1.07.25 1.17.79.58 2.94 2.11 3.8 2.17 3.84.48.26.67.86.42 1.34-.18.34-.52.54-.88.54z"/>
    <path
        d="m346.41 350.07c-.4 0-.77-.24-.93-.63-.09-.23-2.19-5.69 3.44-11.03.4-.38 1.03-.36 1.41.04s.36 1.03-.04 1.41c-4.61 4.37-3.02 8.66-2.96 8.84.2.51-.05 1.09-.57 1.29-.12.05-.25.07-.37.07z"/>
    <path
        d="m326.91 346.54c-.52 0-.96-.4-1-.93-.04-.55.37-1.03.92-1.07 5.62-.4 6.62-2.79 6.63-2.81.2-.5.77-.77 1.28-.59.51.19.78.73.61 1.24-.12.37-1.41 3.65-8.38 4.15-.02 0-.05 0-.07 0z"/>
    <path
        d="m332.38 349.01c-.06 0-.11 0-.17 0-.55-.01-.99-.47-.98-1.02.01-.54.46-.98 1-.98h.15c2.35 0 3.11-1.34 3.15-1.4.26-.48.87-.67 1.35-.42s.68.84.44 1.33c-.05.1-1.29 2.49-4.92 2.49z"/>
    <path
        d="m332.75 327.49c-.4 0-.77-.24-.93-.63-.06-.16-1.48-3.89.69-8.24.25-.5.85-.69 1.34-.45.49.25.69.85.45 1.34-1.76 3.52-.66 6.49-.62 6.62.2.51-.06 1.09-.57 1.29-.12.05-.24.07-.36.07z"/>
    <path
        d="m370.22 325.7c-.1 0-.21-.02-.31-.05-.52-.17-.81-.74-.64-1.26.03-.11.88-3.02-2.46-5.52-.44-.33-.53-.96-.2-1.4s.96-.53 1.4-.2c4.52 3.39 3.22 7.57 3.17 7.74-.14.42-.53.69-.95.69z"/>
    <path
        d="m374.41 323.07c-.55 0-1-.45-1-1 0-.05-.07-1.61-1.92-3.25-.41-.37-.45-1-.08-1.41.37-.42 1-.45 1.41-.08 2.56 2.27 2.59 4.65 2.59 4.75 0 .55-.45 1-1 1z"/>
    <path
        d="m297.91 269.07c-.7 0-1.33-.49-1.47-1.21-.16-.81.36-1.6 1.18-1.76l15-3c.81-.16 1.6.36 1.76 1.18s-.36 1.6-1.18 1.76l-15 3c-.1.02-.2.03-.3.03z"/>
    <path
        d="m204.41 363.07c-.3 0-.6-.14-.8-.4-.06-.08-5.96-7.84-14.61-11.69-.5-.22-.73-.82-.51-1.32s.82-.73 1.32-.51c9.13 4.06 15.14 11.98 15.39 12.31.33.44.24 1.07-.2 1.4-.18.13-.39.2-.6.2z"/>
    <path
        d="m210.41 351.07c-.3 0-.6-.14-.8-.4-.03-.04-2.94-3.8-9.26-6.12-.52-.19-.79-.76-.6-1.28s.77-.78 1.28-.6c6.91 2.53 10.04 6.62 10.17 6.8.33.44.24 1.07-.2 1.4-.18.13-.39.2-.6.2z"/>
    <path
        d="m216.86 344.61c-.35 0-.69-.18-.87-.51 0 0-1.49-2.3-7.89-4.6-.52-.19-.79-.76-.6-1.28s.76-.79 1.28-.6c7.12 2.55 8.79 5.2 8.96 5.49.27.48.11 1.09-.37 1.36-.16.09-.33.13-.49.13z"/>
    <path
        d="m413.41 383.07c-.52 0-.96-.41-1-.94-.03-.55.38-1.03.94-1.06 15.45-.97 21.45-4.8 21.51-4.84.46-.3 1.08-.17 1.38.28.3.46.18 1.08-.28 1.38-.25.17-6.41 4.16-22.49 5.17-.02 0-.04 0-.06 0z"/>
    <path
        d="m413.41 378.07c-.5 0-.94-.38-.99-.89-.06-.55.33-1.04.88-1.1 8.47-.94 11.69-3.89 11.72-3.92.4-.38 1.03-.36 1.41.04s.37 1.02-.03 1.41c-.15.14-3.65 3.44-12.89 4.47-.04 0-.08 0-.11 0z"/>
    <path
        d="m410.41 372.07c-.55 0-1-.45-1-1s.45-1 1-1c3.63 0 6.42-1.82 6.45-1.83.46-.31 1.08-.18 1.38.28s.18 1.08-.28 1.38c-.13.09-3.3 2.17-7.55 2.17z"/>
    <path
        d="m608.74 319.57c-.26 0-.52-.1-.72-.31-.38-.4-.37-1.03.03-1.41.04-.04 4.52-4.41 6.42-10.1.17-.52.73-.81 1.26-.63.52.17.81.74.63 1.26-2.05 6.16-6.73 10.71-6.92 10.9s-.44.28-.69.28z"/>
    <path
        d="m612.07 321.63c-.32 0-.64-.16-.83-.44-.31-.46-.18-1.08.27-1.39.01 0 2.19-1.59 5.03-7.52.24-.5.83-.71 1.33-.47s.71.84.47 1.33c-3.07 6.42-5.46 8.15-5.72 8.32-.17.11-.36.17-.56.17z"/>
    <path
        d="m514.41 349.07c-.37 0-.72-.2-.9-.55-.25-.49-.05-1.09.45-1.34 11.96-5.98 28.35-10.14 28.52-10.18.54-.13 1.08.19 1.21.73s-.19 1.08-.73 1.21c-.16.04-16.35 4.15-28.11 10.03-.14.07-.3.11-.45.11z"/>
    <path
        d="m128.41 333.07c-.09 0-.19-.01-.29-.04s-10.19-3.08-21.13-8.05c-.5-.23-.72-.82-.5-1.32.23-.5.82-.73 1.32-.5 10.81 4.91 20.77 7.92 20.87 7.95.53.16.83.72.67 1.25-.13.43-.53.71-.96.71z"/>
    <path
        d="m125.85 327.62c-1.6 0-6.09-.34-11.93-3.68-.48-.27-.65-.88-.37-1.36.27-.48.88-.65 1.36-.37 6.6 3.77 11.33 3.41 11.38 3.4.56-.03 1.03.36 1.08.91s-.35 1.03-.9 1.08c-.04 0-.25.02-.62.02z"/>
    <path
        d="m296.52 406.18c-.19 0-.38-.05-.55-.17-.12-.08-12.27-8.12-33.56-15.16-.52-.17-.81-.74-.63-1.26.17-.52.74-.81 1.26-.63 21.57 7.13 33.92 15.32 34.04 15.4.46.31.58.93.27 1.39-.19.29-.51.44-.83.44z"/>
    <path
        d="m29 318.07h-10.09c-.83 0-1.5-.67-1.5-1.5s.67-1.5 1.5-1.5h9.86l11.64-3.8c.39-.13.81-.09 1.17.1l5.73 3.05 4.35-12.4c.25-.72 1.01-1.13 1.74-.97.74.17 1.24.86 1.17 1.62l-.84 8.26c.27-.13.57-.17.88-.12l7.66 1.22-5.04-5.42c-.48-.52-.54-1.31-.13-1.89s1.17-.79 1.82-.51l13.99 6.05c-3.21-7.48-9.89-10.41-9.97-10.44-.56-.24-.93-.8-.91-1.42s.4-1.16.98-1.37c.36-.13 8.31-2.96 16.23 4.31 5.95-16.99 12.75-19.48 13.54-19.72.56-.17 1.17 0 1.56.45.39.44.48 1.06.25 1.6-.09.21-9.36 21.32-4.61 31.72.34.75.01 1.64-.74 1.99s-1.64.01-1.99-.74c-3.77-8.26-.07-21.58 2.54-28.92-2.4 2.77-5.56 7.83-8.47 16.89-.17.51-.59.9-1.12 1.01s-1.07-.07-1.43-.47c-3.88-4.35-7.88-5.54-10.73-5.71 3.09 2.32 7.15 6.49 8.82 13.19.14.55-.05 1.14-.48 1.51-.44.37-1.04.46-1.57.23l-10.52-4.55 3.13 3.36c.44.47.53 1.16.23 1.73-.3.56-.92.88-1.56.78l-11.04-1.75-2.12 2.96c-.4.55-1.11.77-1.75.53s-1.03-.88-.96-1.56l.09-.88-.73 2.1c-.15.41-.46.74-.87.9s-.86.13-1.25-.07l-6.7-3.58-11.26 3.68c-.15.05-.31.07-.47.07z"/>
    <path
        d="m631.07 342.7c-.21 0-.42-.04-.62-.13-.5-.23-.83-.71-.88-1.25-.24-3.16 1.46-6.21 3.15-8.41l-.28.05c-.46.08-.92-.06-1.26-.37s-.52-.76-.48-1.22l.32-4.2c-1.6 1.17-3.64 2.81-5.12 4.53-.34.4-.86.59-1.38.5-.52-.08-.95-.43-1.15-.92-1.68-4.19-1.85-8.36-1.52-11.68-2.56 4.1-5.77 10.79-7.65 20.53-.13.66-.67 1.15-1.34 1.21-.66.07-1.29-.33-1.53-.96-1.63-4.27-5.85-7.21-9.17-8.95 1.3 2.34 2.57 5.36 2.7 8.35.03.83-.61 1.53-1.44 1.56-.8.04-1.53-.61-1.56-1.44-.22-5.17-4.86-10.84-4.91-10.9-.42-.51-.46-1.24-.09-1.79s1.05-.8 1.69-.6c.42.13 8.93 2.83 13.55 9.05 3.99-16.27 11.31-23.12 11.64-23.42.51-.47 1.29-.52 1.86-.13.58.4.8 1.14.54 1.79-.03.07-2.63 6.81-.75 13.98 2.94-2.76 6.39-4.89 6.56-5 .48-.29 1.09-.29 1.57 0s.76.83.71 1.39l-.42 5.4 2.71-.45c.68-.11 1.32.24 1.61.84s.13 1.33-.38 1.77c-1.07.92-3.3 3.25-4.48 5.82l3.65-2.73c.55-.41 1.31-.4 1.85.04l4.61 3.76 4.06-1.35c.37-.12.76-.1 1.11.06 1.44.67 3.19 1.45 3.74 1.63h12.59c.83 0 1.5.67 1.5 1.5s-.67 1.5-1.5 1.5h-12.76c-.31 0-.7 0-4.29-1.66l-4.28 1.43c-.49.16-1.02.06-1.42-.26l-4.34-3.54-5.84 4.37c-.26.2-.58.3-.9.3z"/>
</svg>
