<svg xmlns="http://www.w3.org/2000/svg" viewBox="0 0 127 127"><style>.st0{fill:#0e2238}.st0,.st1,.st2{fill-rule:evenodd;clip-rule:evenodd}.st1{fill:#fff}.st2{fill:#ff3939}.st4{fill:#0e2238}.st5{fill-rule:evenodd;clip-rule:evenodd;fill:#e62721}.st6{fill:#fff;stroke:#0e2238;stroke-miterlimit:10}.st7{fill-rule:evenodd;clip-rule:evenodd;fill:#e62721}</style><path class="st0" d="M102.8 71.6c-7.9-2.9-12-8.5-12.1-17.1 0 0 18.9-6.5 21.9-2.2 4 5.8-9.8 19.3-9.8 19.3z"/><path class="st1" d="M82 3.3s6 7.1 5.2 7.7c-.8.5-4.2 0-3.2 1.2l6.1 7.2s-7.1-6-7.9-7.8c-.8-1.8 2.3-1.5 2.8-2.2l-3-6.1z"/><path class="st2" d="M51.3 100.3c3.4-6.9-9.4-12.8-9.4-12.8s-3.2-2.2-8.2 1.1c-5 3.3-9.1 5.8-12.9 5.9-3.8.1 1.2 3.2 4.3 2.3 3.1-.9-2 1.3-4.4 4.9-2.4 3.6-4.5 3.3-7.4 2.3-2.9-.9-.5 3 4.5 3s-4 3.8-9 3.4c-4.9-.4.9 5.2 7.6 3.3 7.3-2-3.6 3.9-.7 4.1s6.8-3.8 9.7-4.1c2.9-.3-.4 6 1.2 7.2 1.1.8 1.4-6.7 4.9-8.3s-.9 3.5.1 6.5c.8 2.6 1.7-5.1 9.3-8.6 6.1-2.8 7-3.2 10.4-10.2z"/><path d="M47.2 98.2c-.3-5.6-4.8-7-4.8-7s-4.4-1-6.4 1.5c-1.9 2.5-3.7 3.5-5.4 4-1.7.4-2 2 .6 2.1 2.6.1-.6 2.5-1.6 4.3-1 1.8-3.9 2.8-5 3.4-1.1.5-.5 1.8 2.2 1 2.7-.9 6.6-3.7 6.7-2.2s-3.9 2.7-2.7 3.4 4.9-4.2 6.4-3.6c1.5.6-2.6 4.8 3.3 2.3s6.9-6.6 6.7-9.2z" fill-rule="evenodd" clip-rule="evenodd" fill="#e62721"/><path class="st1" d="M102.8 71.6s-12-2.9-12.1-17.1c0 0-20.7 6.5-33.9 17.1L39.5 68l-26 22.2 30.8-6.6c-2.2 2.7-2.4 3.8-2.3 4.3.1 1.3 1 5.9 3.8 8.8 2.8 2.8 4.5 3.7 6.8 3.4 1.2-.2 2.3-.6 3.5-.9l-19.3 24.7L68 110l4.4-17.2C82.8 88 95 80.9 102.8 71.6z"/><path class="st4" d="M103 71.2c-.1 0-11.7-3-11.9-16.8v-.1l-.1-.1s-.1 0-.1-.1h-.1c-.2.1-20.8 6.6-33.9 17.1l-17.1-3.5h-.1s-.1 0-.1.1l-26.3 22s-.1.1-.1.2v.2c0 .1.1.1.1.2.1 0 .1.1.2.1s-1.4.3 30-6.4c-1.3 1.7-1.9 3-1.9 3.8.1 1 .3 2 .6 3-1.1-.2-4.6-.6-6.3 1.7-1.6 2.1-3.2 3.3-5.2 3.9-2.1.5-2.3 2.6.6 2.7.5 0 .7.1.7.2.2.4-1.9 2.4-2.6 3.6-.8 1.5-3.1 2.5-4.4 3-.2.1-.4.2-.5.2-1.4.6-.8 2.6 2.4 1.5 2.2-.7 6.2-3.3 6.3-2.4 0 .6-.9 1.2-1.6 1.7-.7.5-1.3.9-1.3 1.4 0 .2.1.4.3.5.2.1.3.2.5.2.8 0 1.8-.9 2.9-1.8 1.1-.9 2.5-2.1 3-1.8.2.1.2.5 0 1.2-.2.6-.4 1.3.1 1.7.5.4 1.5.2 3.5-.6 5.1-2.2 7.2-5.9 7-8.8 1.6 1.2 3 1.7 4.9 1.5.9-.2 1.7-.4 2.5-.7l-18.7 23.9c0 .1-.1.1-.1.2s0 .1.1.2c0 .1.1.1.2.1h.2L68 110.4s.1 0 .1-.1l.1-.1 4.3-17.1c10.5-4.8 22.7-11.9 30.4-21.2l.1-.1v-.2c0-.1 0-.1-.1-.1.2-.3.1-.3.1-.3zM14.7 89.5l25-21.2 16.5 3.4c-3.3 2.8-9.1 7.9-12 11.5l-29.5 6.3zM40.5 107c-2.2 1-2.7.8-2.8.7-.1-.1 0-.7.1-1 .2-.7.5-1.6-.3-2-.9-.4-2.3.7-3.7 1.9-.9.8-2.2 1.9-2.7 1.7H31c.3-.3.6-.6 1-.8.9-.6 2-1.4 1.9-2.3 0-.1 0-.3-.1-.4l-.3-.3c-1.1-.6-4.2 1.7-6.8 2.5-1.5.5-2.2.2-2.3 0 0-.1.1-.3.3-.4 1.5-.7 4.2-1.6 5.2-3.5.8-1.5 3-3.2 2.6-4.2-.2-.5-1-.6-1.2-.6-1.1 0-1.6-.3-1.6-.6s.4-.7 1.1-.9c2.1-.6 3.9-1.9 5.6-4.1 1.8-2.3 6-1.4 6-1.4.8 2.7 2.4 5 4.6 6.8.4 2.1-.6 6.4-6.5 8.9zm27.3 2.7l-30 13.2 18.5-23.6c5.4-1.7 10.6-3.7 15.7-6.1l-4.2 16.5zM70.9 93c-7.6 3.4-16.3 6.3-18.3 6.6-2.2.3-3.9-.6-6.6-3.3-2.7-2.8-3.6-7.5-3.7-8.6-.1-1.2 1.6-4.7 13.6-15 11.9-10.2 31.5-16.9 34.6-17.9.3 12.3 9.6 16.1 11.9 16.8C94.5 80.9 82 88.1 70.9 93z"/><path class="st1" d="M70.1 61.9c1.1 0 2.2-.3 3.2-.9.6-2.5.9-5.1.9-7.7l-4.3-9.5-4.4.6 4.6 17.5zm-6.8 15.8l1.2-.4 2.1 2.9c-.3.3-.5.6-.7 1 0 0-3.2.4-3.5-1.3-.1-.4-.1-.9 0-1.3.2-.3.5-.7.9-.9z"/><path class="st5" d="M66 81s-.2-.8-1.8-.7c-1.6.1-.9-2.6-.9-2.6-1.3-.1-1.8.1-3.8 1.2l.4 1.8.6-.3v2.4c0 1.2.7 4.7 3.1 6.5 1.2.9 2.4-.1 2.2-1.4-.1-.7-.4-1.7-.5-2.6 0-1.5.3-2.9.7-4.3z"/><path class="st4" d="M66.4 80.8s-.3-1.1-2.1-1H64c-.1 0-.2-.1-.2-.2-.3-.4-.2-1.4-.1-1.9.2-.1.6-.2 1.1-.4.1 0 .1-.1.2-.2v-.2c0-.1-.1-.1-.2-.2h-.2c-.5.2-1 .4-1.1.4-.8-.1-1.6 0-2.3.4-.1.1-1.1.5-1.6.8-.1 0-.1.1-.1.1v.2l.4 1.8s0 .1.1.1l.1.1h.2l.1-.1v1.9c0 1.4.8 4.9 3.3 6.7 1 .7 1.8.5 2.2-.2 1.2-.6.1-2.5 0-4.1.1-1.4.3-2.8.7-4.2-.2.3-.2.3-.2.2zm-1.7 8.3c-.2 0-.3 0-.5-.1s-.3-.1-.4-.2c-2.3-1.6-3-4.9-3-6.2V80l-.1-.1s-.1 0-.1-.1h-.2l-.2.1-.3-.9c.3-.2.7-.4 1-.5.2 1.3.2 2.7.2 4-.1 2.5 2.1 5.8 3.6 6.6.1 0 0 0 0 0zm.7-.5s-.2 0-.6-.3c-1.3-1-3.1-3.7-3-5.8.1-1.5 0-2.9-.2-4.3.5-.2 1-.3 1.5-.2-.1.6-.2 1.6.3 2.2.1.1.3.3.5.3.2.1.4.1.6.1 1-.1 1.4.3 1.4.4-.1.2-.2.6-.3 1.2-.7-.3-1.5-.4-2.3-.3-.1 0-.2.1-.2.1 0 .1-.1.2-.1.2 0 .1.1.2.1.2.1 0 .1.1.2.1.7-.1 1.4 0 2.1.3 0 .2-.1.3-.1.5-.7-.3-1.5-.4-2.3-.3-.1 0-.2 0-.2.1-.1.1-.1.1-.1.2s0 .2.1.2c.1.1.1.1.2.1.7 0 1.5.1 2.2.4-.1.4-.1.8-.1 1.2 0 1.4.8 3.2.3 3.4z"/><path class="st2" d="M72.6 63.2l.9-1.8c-.1-.5 0-1-.2-.9-3.5 1.3-8.6 2.1-8.6 1.6 0 0-1 2.9-.3 4.3.4.9 6.3 5 9.7 7 0 0-6.4 2.2-9.7 2.8 0 0-.5 3.5 1.5 5.5 0 0 4.3-1.1 13.7-5.2.2-.1.4-.3.6-.5.2-.2.3-.4.4-.7.5-3.1-8-12.1-8-12.1zm-2.9-18.9l-.3-.9c1-1.2 1.3-1.7 2.4-2.4 1.6-.9 4.8-4.2 6-5.5 1.8-1.9 3.5-4.4 4.8-5.8l3.4 2.5c.1 0-4.7 5.3-12.4 13.4 0 0-.4 1.8-.2 1.9.2.1.8.4 1.1.6 0 0-.2 4.5-.1 5.6.2-.5-2.9-7-4.7-9.4z"/><path class="st2" d="M65 44.5c-1.3.8-2.5 1.7-3.7 2.8-1.3 1.2-2.3 4-3.3 5.7-1 1.7-6.2 7.5-7 8.8 0 0 2 1.5 3.4 2.4 0 0 7.4-9.5 8.1-10.1.7 1 1.2 2.1 1.7 3.3.7 1.7-.6 5.8-.6 5.8s4.1 3.5 7.1 2.7c1-3.3 1.1-6.9.1-10.2-1.3-3.7-3-7.2-5-10.6l-.7-1.8c.1.4 0 .8-.1 1.2z"/><path class="st6" d="M82.3 3.1s6 7.1 5.2 7.7c-.8.5-4.2 0-3.2 1.2l6.1 7.2s-7.1-6-7.9-7.8c-.8-1.8 2.3-1.5 2.8-2.2l-3-6.1z"/><path class="st1" d="M53.5 63.6L51 61.9l-.7.9 2.4 2 .8-1.2zm29-33.7l.7-.8 2.7 1.8-.6 1.1-2.8-2.1z"/><path class="st4" d="M64.7 47.9h-.1l-.1-.1c-.2-.3-.5-.5-.9-.6-.4-.1-.7-.1-1.1 0h-.2s-.1 0-.1-.1c0 0 0-.1-.1-.1v-.2s0-.1.1-.1c0 0 .1 0 .1-.1.5-.1 1-.1 1.5 0 .5.2.9.4 1.2.8 0 0 .1.1.1.2v.2c0 .1-.1.1-.1.1h-.3z"/><path class="st7" d="M45.7 66.1s1.4-2 2.5-1.4c1.1.5 4.6 2.3 4.6 3.9-.2.7-.6 1.4-1.2 1.9l-1.4-1s1.2-1 .7-1.6c-.8-.8-2.8-2.3-3.2-1.7l-.8.8-1.2-.9z"/><path class="st0" d="M42.2 63.2l13.2 10.4c.4.3.7.7.9 1.2.1.5.1 1 0 1.5-.7 1.6-6 9.4-8.5 9.1S32.4 74.3 32 72.8c-.4-1.5.2-1.8 2.6-4.5 2.5-2.7 5-6.1 7.6-5.1z"/><path d="M56.6 74.4c-.2-.5-.5-.9-.9-1.2l-3.4-2.7c.5-.6.8-1.2 1-2 0-1.9-3.7-3.7-4.8-4.2-1-.5-2 .5-2.6 1.1l-.3-.2s-.1 0-.1-.1h-.2s-.1 0-.1.1c0 0 0 .1-.1.1v.2l.1.1L47 67s.1.1.2.1h.2c.1 0 .1-.1.1-.1v-.2c.1-.1.6-.5.6-.6.5-.1 2 1 2.7 1.7.2.2-.3.8-.6 1-.1 0-.1.1-.1.1l-.1.1v.2c0 .1.1.1.1.1 5.7 4.5 5.4 4.2 5.7 4.7-1.8.8-4.9 6.8-7.3 6.3-1.4-.3-9-7.1-13.9-11.7.1-.1.2-.3.4-.4.1-.1.1-.1.1-.2s0-.2-.1-.2c-.1-.1-.1-.1-.2-.1s-.2 0-.2.1c-2.3 2.5-3.1 3.1-2.7 4.8.4 1.6 13.2 12.4 15.9 12.7 2.8.3 8.1-7.5 8.8-9.3.2-.5.2-1.2 0-1.7zm-5.4-6.8c-.4-.4-2.2-2-3.2-1.9-.1 0-.2 0-.3.1-.1 0-.2.1-.2.2l-.5.4-.7-.6c.5-.5 1.2-1.2 1.8-1 2.2 1 4.4 2.5 4.4 3.6-.1.6-.4 1.2-.8 1.6l-.9-.7c.5-.5.9-1.2.4-1.7zm-3.5 17.2C45 84.2 32.8 74 32.4 72.6c0-.1 0-.2-.1-.3 2.7 2.4 13.1 11.5 15.3 12.2l.1.3zm-.1-1c-2-.9-10.1-7.8-15.2-12.3.5-.8 1.1-1.6 1.7-2.2 2 1.9 12.3 11.4 14.2 11.9 2.6.6 5.3-4.3 7.2-6-1.4 2-5.3 7.3-7.1 8.5-.3.3-.5.3-.8.1zm8.4-7.9c-.7 1.6-5.2 8.2-7.7 8.9v-.3c2-.8 6.3-6.7 7.8-9 0 .2-.1.3-.1.4z" fill="#fff"/><path class="st7" d="M40.1 75.4l2-1.9 1.6 1.3-1.9 2-1.7-1.4z"/><path class="st4" d="M41.6 77l-1.7-1.4-.1-.1v-.2s0-.1.1-.1l2-1.9c.1-.1.1-.1.2-.1s.2 0 .2.1l1.6 1.3.1.1v.2s0 .1-.1.1L42 77c-.1.1-.1.1-.2.1 0 0-.1-.1-.2-.1zm-1-1.7l1.2 1 1.4-1.5-1.1-.9-1.5 1.4z"/><path class="st1" d="M50.4 62.8c-.6.6-1.2 1.1-1.8 1.6-.8.5-.8 2.1-.4 2.3 0 0 .2.8.8.8l.6.6c.2.2.5.3.8.3.8 0 .6-1.3 1.3-1.3.5 0 .9.7.9.7.2-.3.3-.6.3-.9 0-.3 0-.6-.1-.9-.1-.2-.2-.5-.2-.7 0-.3 0-.5.1-.7l-2.3-1.8zm33.1-33.6c.2-.3.4-.7.5-1 .3-.9 0-1.4 1-2.2 1-.8 3.3-3 3.5-2.4.3.6-2 2.6-2 2.6s1.7.9 1 2-1.6.9-2.2 2.4l-1.8-1.4z"/><path class="st4" d="M87.1 25.9c1.1-1 2.1-2.1 1.8-2.7-.5-.9-2.4 1.1-4 2.4-1.3 1-.7 1.6-1.4 3-.1 0-.1-.1-.2-.1s-.2 0-.2.1l-.7.8c-.1.1-.1.1-.1.2s0 .2.1.2c.1.1.1.1.2.1s.2 0 .2-.1l.5-.6c1.8 1.2 2 1.3 2.2 1.5l-.5.8v.2s0 .1.1.1l.1.1h.2s.1 0 .1-.1l.1-.1.6-1.1c0-.1.1-.2 0-.2 0-.1-.1-.1-.1-.2l-.3-.2c.2-.4.6-.8 1-1 .8-.5 1.5-1.3 1.2-2.1-.1-.3-.4-.7-.9-1zm.3 1.9c-.6.9-1.4.9-2 2.1L84 29c.1-.3.3-.5.4-.8.3-.9 0-1.3.9-2.1s1.9-1.6 3-2.4c-.5.9-2.1 2.1-2.4 2.6-.1 0-.1 0-.2-.1h-.2c-.1 0-.1.1-.1.2v.2c0 .1.1.1.2.1.4.1.8.4 1 .7 0 .1.1.1.2.1s.2 0 .2-.1c.1 0 .1-.1.1-.2s0-.2-.1-.2l-.6-.6.2-.3c.6.6 1.1 1.2.8 1.7z"/><path class="st1" d="M65.5 43.1h-.1c-.3.2-.6.3-.9.3-.3 0-.5 0-.8-.1-.2-.1-.5-.2-.7-.4-.3-.3-.5-.6-.5-1s.1-.8.3-1.1c0 0-4.6-4.9 1.9-7.2.8-.3 1.6-.4 2.4-.2 1.5.4 2.1 1.3 2.4 3.4.1.4 1.2.9 1.4 1.6.1.6.1 1.3 0 1.9-.1 1.1-.7 2.1-1.5 2.9v.5l-.4 1.9c-1-.2-2-.6-2.8-1.2l-.7-1.3z"/><path class="st5" d="M68 47l1.3 1.5s2.7 5.9 2.7 8.9v4.1l3.3 3.2s.5-3.4.5-4.7c0 0-3.1-9-5.4-12.1l-.2-1.7-1.4-.5L68 47z"/><path class="st4" d="M67.6 35.7c-.1 0-.1 0-.2-.1-.1 0-.1-.1-.1-.2v-.2c0-.1.1-.1.1-.2.3-.2.5-.3.9-.4.3 0 .6 0 .9.1.1 0 .1.1.2.2v.2c0 .1-.1.1-.2.2H69c-.2-.1-.4-.1-.6 0-.2 0-.4.1-.6.2 0 .2-.1.2-.2.2zm-3.5 3c-.1 0-.1 0-.2-.1-.1 0-.1-.1-.1-.2 0 0-.5-1.4 1.3-2.1h.2c.1 0 .1.1.2.2s0 .2 0 .2c0 .1-.1.1-.2.2-1.2.4-1 1.2-.9 1.3v.1s0 .1-.1.1l-.1.1c0 .2 0 .2-.1.2zm4.1-2.3c.5-.3 1.2.9.7 1.2s-1.2-.9-.7-1.2zm-3.1 2.7c-.5-.8.3-1.3.8-.5.1.2.1.4.1.6 0 .1-.1.2-.2.2-.2.2-.6 0-.7-.3z"/><path class="st4" d="M67.2 40.3c-.5 0-.9-.6-.5-.8h.2c.1 0 .1.1.2.1.1.1.3-.1.4-.2.1-.2.2-.2.7-.4.6-.3.7-.4.7-.4s-.1-.1-.4-.3c-.1 0-.1-.1-.2-.2s0-.2 0-.2c0-.1.1-.1.2-.2h.2c.2.1.7.4.7.9 0 .7-1.3 1-1.5 1.2-.1.1-.2.3-.4.3.1.2-.1.2-.3.2zm1.6 2.4c-.9 0-2-1.5-1.2-2.2.4-.3 1.4-1 1.9-.7.4.2.3 1 .3 1.5-.1.6-.3 1.4-1 1.4zm.4-2.3c-.4.1-.8.3-1.2.6-.1.1 0 .2 0 .3.2.4.6.7.8.7.1-.1.1-.2.2-.3.2-.4.2-.8.2-1.3z"/><path class="st0" d="M61.8 36.5s-.7 2.2 1.3 2.4c.4.9.9 1.8 1.5 2.7l-.3.4-1.5-1c-.1 0-.1 0-.2.1-.1 0-.1.1-.2.1 0 .1-.1.1-.1.2v.2c-.9-1-1.5-2.3-1.7-3.7-.2-2.2 3.3-7.3 7.4-3.7-.3-.3-.8-.4-1.2-.4-1 .2-.5 1.2-2.3 1.5-1.6.3-2.3.7-2.7 1.2z"/><path class="st4" d="M84.4 75.5c-1 0-2-.2-2.9-.8-.9-.6-1.6-1.3-2-2.3-1.1-2.6.4-5.7 3.3-6.9s6.1 0 7.2 2.6c1.3 3.5-1.6 7.4-5.6 7.4zM83 66.1c-2.6 1-3.9 3.8-2.9 6.1.9 2.3 3.8 3.3 6.3 2.3 2.6-1 3.9-3.8 2.9-6.1-.9-2.3-3.8-3.3-6.3-2.3z"/><path class="st4" d="M80.9 71.9c-.7-1.8.3-4 2.4-4.8 3.4-1.4 6.5 1.5 5 4.5s-6.2 3.2-7.4.3zm2.7-4.3c-1.7.7-2.7 2.5-2.1 4 .7 1.6 2.7 2.1 4.3 1.4 1.7-.7 2.7-2.5 2.1-4-.6-1.5-2.5-2.1-4.3-1.4zm6.1 12.6c-1.2 0-1.7-.7-1.6-1.5.3-1.8 3.5-3.2 4.7-1.9.1.1.2.3.3.5 0 .2.1.4 0 .5-.3 1.2-2 2.4-3.4 2.4zm.1-2.8c-.3.1-.5.3-.7.6-.2.2-.3.5-.4.8v.3c0 .1.1.2.1.2.4.4 1.5.4 2.5-.2.3-.1.5-.3.7-.6.2-.2.3-.5.4-.8v-.3c0-.1-.1-.2-.1-.2-.4-.5-1.5-.5-2.5.2zM79.4 63.7c-1 0-1.8-.6-1.6-1.5.3-1.8 3.5-3.3 4.7-2 .1.1.2.3.3.5 0 .2.1.4 0 .5-.1 1.4-1.9 2.5-3.4 2.5zm1.8-3.3c-1.7 0-3.3 1.7-2.6 2.5.8.9 3.5-.3 3.6-1.6.1-.7-.4-.9-1-.9zM16.4 99.3c-2.7 0-8.7-1-11.6-9-3.9-10.4-.3-20.3 4.4-26 1.3-1.7 2.9-3.2 4.7-4.4-.3-3.3-.1-6.6.6-9.8 1.1-5.3 4.5-15.3 14.7-21.7 16.4-10.4 28.9-7.6 29-7.6.1 0 .2.1.2.1 0 .1.1.2 0 .2 0 .1-.1.2-.1.2-.1 0-.2.1-.2 0-.1 0-12.4-2.7-28.6 7.5-10 6.3-13.3 16.1-14.4 21.3-.7 3-.8 6.2-.6 9.2 2.8-1.8 5.7-2.6 8.3-2.2 2.8.4 4.7 1.7 5.5 3.7.3.9.5 1.8.3 2.7-.1.9-.5 1.8-1.1 2.6-.7.9-1.6 1.7-2.6 2.2-1 .5-2.2.8-3.3.8-1.6 0-4-.7-6.1-3.8-.9-1.5-1.4-3.2-1.6-4.9-1.6 1.2-3 2.6-4.3 4.1-4.5 5.6-8 15.2-4.3 25.4 3.7 10 11.9 8.5 12.3 8.5h.2l.1.1v.3l-.1.1h-.1c-.4.4-.9.4-1.3.4zm-1.9-39.1c.1 1.7.7 3.4 1.5 4.9 1.9 2.8 4.1 3.5 5.6 3.5 1.1 0 2.1-.2 3-.7.9-.5 1.8-1.2 2.4-2 .5-.7.8-1.4.9-2.3.1-.8 0-1.7-.3-2.4-.7-1.8-2.5-3-5-3.3-2.5-.4-5.3.5-8.1 2.3z"/><path class="st1" d="M94.8 90.9s9 3.5 9.8 5.1c.8 1.7-5 1.7-5 2.4s10.2 6.2 11.5 8.2c0 0-12.2-5.3-12.8-8-.3-1.4 4.5-2.3 4.5-2.3s1.1-.3-.5-1.1c-1.8-.8-7.5-4.2-7.5-4.3z"/><path class="st6" d="M95.2 90.6s9 3.5 9.8 5.1c.8 1.7-5 1.7-5 2.4s10.2 6.2 11.5 8.2c0 0-12.2-5.3-12.8-8-.3-1.4 4.5-2.3 4.5-2.3s1.1-.3-.5-1.1c-1.7-.8-7.5-4.1-7.5-4.3z"/><path class="st4" d="M81 37.8c-.1-.1-.1-.1-.2-.1s-.2 0-.2.1c-1.6 1.8-6.2 6.6-7.1 7.5-1.1-.8-2.2-1.6-3.3-2.3.6-.8 1-1.7 1.1-2.6.3-2 .1-2.3-.8-3.2-.2-.1-.3-.3-.4-.5-.1-.2-.1-.4-.1-.6-.4-2-2-2.9-3.2-2.8-.2 0-.4.1-.6.2-.2.1-.3.3-.4.5l-.6.6c-.2.1-.5.2-.8.2-1.3.2-2.3.3-2.8 1.7-.1.3-.1.6-.1.9 0 .3.1.6.3.9.1.2.3.4.6.5.2.1.5.2.7.2.3.8.8 1.6 1.3 2.3l-1.4-.7c-.1-.2-.6-.1-.8.2-.2.4-.2.8-.1 1.3.1.4.3.8.6 1.1.3.2.6.4 1 .5.4.1.8.1 1.1-.1-.2.9-.2 1.8-.2 2.8 0 .9 0 3.5.8 3 .4-.2.9-.4 1.3-.5-.4.6-.8 1.2-1 1.9v.2c0 .1.1.1.1.1s3.5 2.4 5 5.1c.7 3 .6 6.1-.3 9.1-2.5.5-5.8-2-6.5-2.5.2-.9 1-4.8.4-6.4-.4-.9-.8-1.7-1.4-2.5.4-.4 1-.7 1.5-.9.1 0 .2 0 .2-.1.1-.1.1-.1.1-.2s0-.2-.1-.2c-.1-.1-.1-.1-.2-.1-.7.1-1.3.5-1.8 1-1.1.9-5.6 6.7-8.4 10.2-1.4-.9-3.1-2.2-3.1-2.2s-.1 0-.1-.1h-.2s-.1 0-.1.1c-.9 1.2-.7 1-.8 1.1-.5.5-1.1 1-1.7 1.4-1 .6-1 2.3-.5 2.8l.3.6c.2.2.4.3.6.3.2.3.4.5.7.6.3.2.6.2.9.3 1 0 .9-1.3 1.3-1.3.3 0 .5.4.6.5l.1.1h.4l.1-.1c.2-.3.3-.6.3-1 0-.3 0-.7-.1-1-.1-.3-.2-.6-.1-.9h.1l.1-.1.6-.9c.2.1.5.3.7.4.1 0 .1.1.2 0 .1 0 .1-.1.2-.1 2.7-3.5 6.8-8.6 7.9-9.8.5.7 1 1.5 1.3 2.3.7 1.6-.4 6.2-.4 6.2v.2c0 .1.1.1.1.1s.1.1.3.2c-.3 1-.2 2.1.1 3 .5 1 5.7 4.8 9 6.8-1.7.5-6.3 1.9-8.8 2.6-.1 0-.1.1-.2.1 0 0-.1.1-.1.2 0 .2-.5 3.7 1.6 5.7l.1.1h.2c.1 0 5.1-1.3 14-5.3.3-.1.5-.3.6-.5.2-.2.3-.5.3-.8.7-3-6.8-11.1-7.8-12.2 0-.1 0-.2.1-.2l2.1 2.1s.1.1.2.1h.2c.1 0 .1-.1.1-.1s.1-.1.1-.2.5-3.4.5-4.8c0-.2-1.3-3.6-1.4-3.8 0-3.3-.5-3.8-.9-4.7-1.1-2.6-2.4-5.1-3.9-7.4l-.1-.3c1.1.7 2.1 1.4 3.1 2.2-.4.1-.9.3-1.1.6v.2c0 .1.1.1.1.2 2.5 1.4 2.4 1.4 2.5 1.4.1 0 .1 0 .2-.1.1 0 .1-.1.1-.2v-.2c0-.1-.1-.1-.1-.2l-1.9-1.1c.3-.1.7-.2 1-.2.1 0 .1 0 .2-.1l.1-.1v-.2c0-.1 0-.1-.1-.2l-.1-.1c1-1 5.5-5.8 7.1-7.5 0 0 0-.1.1-.1v-.1c-.1.1-.1 0-.2-.1 0 .1 0 0 0 0zM52.5 67c-.2-.2-.5-.3-.8-.3-.6 0-.8.5-.9.8-.5 1.2-.8-.1-.4-.9v-.2l-.2-.2H50c-.1 0-.1.1-.2.2-.2.4-.3.8-.2 1.2-.4-.4-.4-.5-.4-.6 0-.4.1-.7.2-1v-.2s0-.1-.1-.1c0 0-.1 0-.1-.1s-.1 0-.1 0H49s-.1 0-.1.1c0 0 0 .1-.1.1-.1.4-.2.7-.2 1.1 0-.1-.1-.1-.1-.2 0-.4.1-.8.3-1.2 0-.1.1-.1.1-.2v-.2c0-.1-.1-.1-.1-.1h-.2c.3-.5.4-.2 2-1.7l1.9 1.5c-.1.5-.1 1 .1 1.5 0 0 0 .4-.1.7zm.3-2.9l-2-1.5.4-.5c.4.3 1.2.9 2 1.4l-.4.6zm12.7-15.4c-.2-1.5-.3-3 0-4.5l.3.8s.8 1.3 1.7 3.1c-.7.1-1.3.3-2 .6zm3.2-3.4c-.9-.3-1.7-.7-2.5-1.2l-.3-.7c.8.3 1.6.5 2.5.5.2 0 .4 0 .7-.1 0 .1.1-.1-.4 1.5zm1.3 1l.1 1.3-.6.4-1-1.1.5-.9c.4.1.7.2 1 .3zm-1.6-.4l-.8 1.1c-.5-.9-.9-1.6-1.1-2 .6.4 1.2.7 1.9.9zm-1.9 4.9c.3-.8.8-1.5 1.3-2.1.9 1.8 1.8 3.6 2.5 5.5-1.1-1.3-2.4-2.4-3.8-3.4zm1.5-3.2l.2-.3 1 1.2c.2.4 2.6 5.7 2.7 8.6-.7-2.9-2.6-6.9-3.9-9.5zm4.4 15.7c2.2 2.3 10.2 11.4 7.2 12.7-4.4 2.1-9 3.8-13.7 5.3-1.5-1.6-1.4-4.1-1.3-4.9 2.9-.9 8.3-2.5 9.1-2.7.3.1.6.4.7.7 0 .1.1.1.2.2h.2c.1 0 .1-.1.2-.2v-.2c-.2-.6-.9-1-1.5-1.3-3.5-2.1-8.6-5.9-9-6.6-.3-.7-.3-1.6-.1-2.3 1.8 1.3 4.4 2.7 6.5 2.1 0 0 .1 0 .1-.1l.1-.1c.4-1.3.7-2.7.8-4l.5.5c-.1.3-.2.5-.2.8.1 0 .2.1.2.1zm-1.5-16.7c1.2 2.2 2.2 4.4 3.1 6.7 0 .3.1.6.1.9-.9-2.3-2-4.5-3.3-6.6l-.1-1.1c.1.1.2.1.2.1zm4.7 13.3l-.4 4-2.7-2.7v-4c0-2.7-2.1-7.6-2.6-8.8l.6-.3c2 3.2 4.8 11.1 5.1 11.8zm-5.2-14.2c-.4-.1-.7-.2-1.1-.3l.3-.9c.2.3.5.8.8 1.2zm-1-2.8c-.1.1-.3.2-.5.3-.2.1-.4.1-.5.1-.6 0-1.3-.1-1.9-.3-.5-.2-.5-.2-.7-.2-.5.1-1 .2-1.4.3-.2 0-.4 0-.6-.1l-.6-.3c-.2-.2-.4-.5-.4-.8 0-.2 0-.4.1-.6 1.4 1 1.3.9 1.5.9h.2l.1-.1.3-.4c0-.1.1-.1.1-.2s0-.1-.1-.2c-.6-.8-1.1-1.7-1.4-2.6 0-.1-.1-.1-.1-.1s-.1-.1-.2-.1c-.2 0-.4 0-.6-.1-.2-.1-.3-.2-.5-.4-.2-.4-.2-.8-.1-1.3.3-.9.9-1 2.3-1.3 2-.3 1.6-1.4 2.4-1.6.4 0 .8.1 1.1.3 1.1.9 1.2 1 1.4 2 0 .3.1.5.2.8.1.2.3.4.5.6.7.7.9.9.6 2.6-.2 1.1-.6 2.1-1.2 2.8z"/></svg>