<?xml version="1.0" encoding="UTF-8"?>
<svg id="Layer_2" data-name="Layer 2" xmlns="http://www.w3.org/2000/svg" viewBox="0 0 686.46 149.54">
  <defs>
    <style>
      .cls-1, .cls-2 {
        stroke-width: 0px;
      }

      .cls-2 {
        fill: #ffed00;
      }
    </style>
  </defs>
  <g id="Layer_1-2" data-name="Layer 1">
    <g>
      <path class="cls-1" d="m54.4,89.51c.98-.89,1.1-1.1,1.22-1.1,21.98.06,43.96-.1,65.93.41,5.13.12,10.21,2.54,15.48,3.95,1.34-4.39.5-7.58-4.5-8.44-5.88-1.01-11.77-2.51-17.68-2.64-17.66-.37-35.33-.33-53-.12-9.84.12-17.94-3.69-23.23-11.43-4.88-7.15-8.05-15.47-12.41-24.16,2.78-.35,4.17-.67,5.57-.67,29.67,0,59.34-.11,89,.19,5.36.05,10.7,1.79,16.25,2.79,1.62-3.98.58-6.83-4.23-7.59-4.59-.72-9.2-1.73-13.81-1.75-27.67-.15-55.34-.2-83,.03-13.62.11-22.76-6.36-28.54-18.12C4.75,15.36,2.68,9.58,0,3.16c2.51-.21,4.24-.48,5.97-.48,38.17-.03,76.34-.02,114.5-.05,8.39,0,16.24,1.8,23.05,6.88,2.24,1.67,3.67,1.32,5.57-.44C156.03,2.64,164.33,0,173.77,0c113.34.07,226.67.08,340.01.02,9.44,0,17.76,2.62,24.67,9.08,2.14,2,3.67,2.01,5.98.31,6.1-4.51,13.16-6.5,20.65-6.51,39.83-.05,79.65.02,119.48.07.64,0,1.27.24,1.91.38-4.67,19.45-13.89,36.4-35.82,36.04-27.66-.46-55.33-.2-83-.06-4.28.02-8.57.92-12.83,1.59-4.84.75-5.78,3.72-4.13,8.34,14.63-5.91,29.94-3.31,45-3.58,19.49-.35,39-.06,58.5-.03,1.76,0,3.53.17,6.22.3-4.7,11.03-6.83,22.39-16.51,29.75-5.36,4.07-11.25,6.15-18.09,6.09-18-.14-36-.23-54,.12-5.58.11-11.13,1.66-16.69,2.59-5.04.84-6.04,3.91-4.64,8.32,26.19-8.39,53.01-3.01,79.45-4.44.78-.04,1.59.28,2.39.43-4.18,19.03-13.5,37.11-35.72,35.85-5.15-.29-10.35.21-15.5-.09-15.5-.89-28.89,4.32-40.43,14.26-8.94,7.7-18.92,10.75-30.73,10.73-110.67-.22-221.34-.22-332.01,0-12.34.02-22.59-3.41-31.95-11.54-10.47-9.1-22.84-14.15-37.13-13.58-6.49.26-13-.06-19.5.04-12.68.18-21.67-5.88-27.36-16.78-3.05-5.84-5.13-12.18-7.59-18.16Zm289.26,43.88v.02c56.66,0,113.31,0,169.97,0,12.27,0,20.18-7.48,20.3-19.72.25-25.33-.16-50.68.54-76,.4-14.17-9.52-22.44-22.62-22.41-112.48.26-224.95.14-337.43.13-13.49,0-21.36,7.92-21.32,21.5.07,24.68.18,49.35.28,74.03.06,15.15,7.23,22.43,22.31,22.44,55.99.04,111.98.01,167.97.01Z"/>
      <path class="cls-2" d="m343.66,133.39c-55.99,0-111.98.02-167.97-.01-15.08,0-22.25-7.3-22.31-22.44-.1-24.68-.21-49.35-.28-74.03-.04-13.58,7.83-21.5,21.32-21.5,112.48,0,224.95.13,337.43-.13,13.09-.03,23.01,8.24,22.62,22.41-.71,25.32-.3,50.67-.54,76-.12,12.25-8.03,19.72-20.3,19.72-56.66,0-113.31,0-169.97,0v-.02Zm20.6-56.42s.07,0,.11,0c0,9,.09,18-.05,26.99-.05,3.43,1.26,4.76,4.69,4.73,15.82-.11,31.64.06,47.46-.14,9.15-.12,14.52-5.63,14.81-14.74.17-5.33.06-10.66.04-16-.05-10.14-4.88-14.96-15.08-15-10.49-.04-20.99-.18-31.47.11-4.35.12-5.82-1.14-5.71-5.6.09-3.83,1.03-5.32,5.05-5.24,10.82.2,21.65.1,32.47.02,7.45-.06,11.22-2.53,12.85-7.99,1.13-3.79.24-5.54-4.11-5.51-15.82.12-31.64-.07-47.46-.01-9.45.03-13.41,3.94-13.56,13.37-.14,8.33-.03,16.66-.03,24.99Zm-190.18-.08h.06c0,9,.07,18.01-.04,27.01-.04,3.44,1.39,4.73,4.77,4.71,15.83-.11,31.66.09,47.49-.17,9.32-.15,14.59-5.9,14.77-15.35.09-4.83.01-9.67-.02-14.5-.06-11.25-4.59-15.81-15.78-15.84-10.5-.03-21,.08-31.49-.08-1.55-.02-3.96-.77-4.47-1.87-2.42-5.22.1-8.9,5.76-8.91,10.83-.03,21.66.07,32.49-.03,6.53-.06,10.38-2.93,11.61-8.15.83-3.53-.04-5.26-4.11-5.23-15.99.11-31.99-.08-47.98,0-8.76.04-12.89,4.15-13.04,12.91-.15,8.5-.03,17-.03,25.51Zm93.84,6.29c-.49-.17-.98-.35-1.47-.52,0-1.78,0-3.55,0-5.33-.01-11.33-.11-22.67.01-34,.04-3.59-1.42-4.66-4.82-4.38-6.35.52-9.84,4.08-9.93,11.98-.22,17.83.03,35.66,0,53.49,0,2.97,1.23,3.83,3.99,3.33,8.39-1.5,15.23-5.58,20.52-12.25,7.66-9.66,15.29-19.34,22.97-28.98.94-1.18,2.05-2.22,3.69-3.97.11,1.99.2,2.81.2,3.63.03,12.5.16,25,.01,37.5-.04,3.68,1.31,4.65,4.75,4.22,6.61-.83,10.16-4.88,10.19-12.46.06-16.16-.04-32.33-.03-48.5,0-8.53-2.24-10.18-10.45-7.24-2,.71-4.06,1.77-5.57,3.21-3.84,3.67-7.61,7.46-10.99,11.55-7.81,9.46-15.38,19.13-23.05,28.71Zm189.72.72c-.38-.18-.76-.36-1.14-.53,0-1.46,0-2.93,0-4.39-.01-11.5,0-23.01-.05-34.51-.02-5.3-1.05-6.12-6.22-5.18-5.48,1-8.48,4.86-8.54,12.34-.14,17.5.1,35.01.07,52.51,0,3.59,1.63,4.22,4.71,3.65,7.88-1.46,14.32-5.34,19.34-11.48,5.59-6.83,10.98-13.83,16.48-20.75,3.26-4.1,6.56-8.16,9.84-12.24,1.07,1.95,1.07,3.53,1.08,5.11.03,11.67.18,23.34.04,35.01-.05,4.22,1.67,5.18,5.5,4.48,6.32-1.15,9.46-4.91,9.5-12.58.08-16.01-.02-32.01-.05-48.02-.02-8.9-2.62-10.65-11.11-7.23-2.12.86-4.3,2.07-5.88,3.67-4.19,4.27-8.23,8.7-12.03,13.32-7.28,8.85-14.36,17.86-21.53,26.81Zm-125.89-8.18c.9,5.89,5.22,9.68,10.5,9.64,5.3-.04,9.71-3.94,10.43-9.64h-20.93Zm20.71-3.42c-.19-5.43-4.47-9.44-9.95-9.61-5.68-.18-10.16,3.75-10.56,9.61h20.51Z"/>
      <path class="cls-1" d="m364.26,76.97c0-8.33-.11-16.67.03-24.99.16-9.43,4.12-13.34,13.56-13.37,15.82-.05,31.64.14,47.46.01,4.35-.03,5.24,1.71,4.11,5.51-1.63,5.46-5.4,7.94-12.85,7.99-10.82.08-21.65.19-32.47-.02-4.02-.08-4.96,1.41-5.05,5.24-.11,4.46,1.36,5.72,5.71,5.6,10.48-.29,20.98-.15,31.47-.11,10.21.03,15.04,4.86,15.08,15,.02,5.33.13,10.67-.04,16-.29,9.11-5.66,14.62-14.81,14.74-15.82.2-31.64.03-47.46.14-3.43.02-4.74-1.3-4.69-4.73.13-9,.05-18,.05-26.99-.04,0-.07,0-.11,0Zm15.06.56c0,4.91-.12,9.7.11,14.48.04.87,1.49,2.39,2.3,2.4,9.78.1,19.57.14,29.35-.19,3.7-.13,5.52-2.76,5.26-6.53-.27-3.91,1.49-9.59-4.49-9.97-10.67-.67-21.42-.19-32.52-.19Z"/>
      <path class="cls-1" d="m174.08,76.89c0-8.5-.12-17.01.03-25.51.16-8.76,4.28-12.86,13.04-12.91,15.99-.08,31.99.12,47.98,0,4.07-.03,4.94,1.7,4.11,5.23-1.23,5.22-5.08,8.09-11.61,8.15-10.83.1-21.66,0-32.49.03-5.66.01-8.18,3.69-5.76,8.91.51,1.1,2.92,1.85,4.47,1.87,10.5.16,20.99.05,31.49.08,11.19.03,15.71,4.59,15.78,15.84.03,4.83.11,9.67.02,14.5-.18,9.45-5.45,15.2-14.77,15.35-15.83.26-31.66.06-47.49.17-3.39.02-4.82-1.27-4.77-4.71.11-9,.04-18,.04-27.01h-.06Zm31.57,17.6s0-.04,0-.07c4.49,0,8.99.12,13.47-.03,4.09-.14,6.94-1.67,7.08-6.51.24-8.17-.53-10.14-6.25-10.68-5.94-.55-11.95-.4-17.94-.43-13.57-.08-13.49-.05-12.94,13.63.12,2.96,1.06,4.23,4.1,4.12,4.15-.15,8.32-.04,12.47-.04Z"/>
      <path class="cls-1" d="m267.92,83.18c7.67-9.58,15.23-19.25,23.05-28.71,3.38-4.09,7.15-7.88,10.99-11.55,1.51-1.44,3.58-2.5,5.57-3.21,8.21-2.94,10.46-1.3,10.45,7.24,0,16.17.09,32.33.03,48.5-.03,7.59-3.58,11.64-10.19,12.46-3.44.43-4.79-.54-4.75-4.22.15-12.5.02-25-.01-37.5,0-.82-.09-1.64-.2-3.63-1.64,1.75-2.75,2.79-3.69,3.97-7.67,9.65-15.31,19.32-22.97,28.98-5.29,6.67-12.13,10.75-20.52,12.25-2.76.49-3.99-.37-3.99-3.33.03-17.83-.21-35.66,0-53.49.1-7.9,3.59-11.46,9.93-11.98,3.4-.28,4.86.79,4.82,4.38-.12,11.33-.03,22.66-.01,34,0,1.78,0,3.55,0,5.33.49.17.98.35,1.47.52Z"/>
      <path class="cls-1" d="m457.64,83.91c7.16-8.95,14.24-17.97,21.53-26.81,3.8-4.62,7.84-9.05,12.03-13.32,1.58-1.61,3.76-2.82,5.88-3.67,8.49-3.42,11.09-1.67,11.11,7.23.03,16.01.13,32.01.05,48.02-.04,7.67-3.17,11.43-9.5,12.58-3.83.69-5.55-.26-5.5-4.48.14-11.67,0-23.34-.04-35.01,0-1.58,0-3.16-1.08-5.11-3.28,4.08-6.58,8.14-9.84,12.24-5.5,6.91-10.89,13.91-16.48,20.75-5.02,6.14-11.47,10.02-19.34,11.48-3.08.57-4.71-.06-4.71-3.65.04-17.5-.2-35.01-.07-52.51.06-7.48,3.06-11.34,8.54-12.34,5.17-.94,6.2-.12,6.22,5.18.04,11.5.04,23.01.05,34.51,0,1.46,0,2.93,0,4.39.38.18.76.36,1.14.53Z"/>
      <path class="cls-1" d="m331.75,75.72h20.93c-.72,5.7-5.13,9.6-10.43,9.64-5.28.04-9.6-3.75-10.5-9.64Z"/>
      <path class="cls-1" d="m352.46,72.3h-20.51c.4-5.86,4.89-9.79,10.56-9.61,5.48.17,9.75,4.18,9.95,9.61Z"/>
      <path class="cls-2" d="m379.32,77.53c11.11,0,21.85-.48,32.52.19,5.98.38,4.22,6.06,4.49,9.97.26,3.76-1.56,6.4-5.26,6.53-9.78.33-19.57.29-29.35.19-.81,0-2.26-1.53-2.3-2.4-.23-4.78-.11-9.57-.11-14.48Z"/>
      <path class="cls-2" d="m205.65,94.49c-4.16,0-8.32-.11-12.47.04-3.03.11-3.98-1.16-4.1-4.12-.55-13.68-.63-13.7,12.94-13.63,5.98.03,11.99-.12,17.94.43,5.72.53,6.49,2.51,6.25,10.68-.14,4.84-2.99,6.37-7.08,6.51-4.49.15-8.98.03-13.47.03,0,.02,0,.04,0,.07Z"/>
    </g>
  </g>
</svg>