<svg fill="none" height="25" viewBox="0 0 220 25" width="220" xmlns="http://www.w3.org/2000/svg" xmlns:xlink="http://www.w3.org/1999/xlink"><clipPath id="a"><path d="m0 0h220v24.3h-220z"/></clipPath><g clip-path="url(#a)" opacity=".7"><path d="m22.9 4.6c.5-2.7-.3-4.5-3.5-4.5h-9.9l-.9 4.6h8.4c.5 0 .7.3.6.9l-1.1 5.6h-5.2l.8-3.9-12.1 5.8h9l-.8 3.9 7.9-3.8-1 5.5c-.1.6-.4.8-1 .8h-8.4l-.9 4.7h9.9c3.2 0 4.7-1.9 5.2-4.5zm16.3 19.6 4.7-24.2h-11c-3.2 0-4.8 1.9-5.3 4.5l-5.6 19.7h5.4l5.1-18.6c.1-.6.4-.9.9-.9h4.4l-3.8 19.5zm17.5-11.2-1.1 5.9c-.1.6-.5.9-1 .9h-4.4l1.5-7.7h4.4c.6.1.8.3.6.9zm5.3-.6c.5-2.7-.3-4.6-3.5-4.6h-5.9l1.5-7.7h-5.2l-4.7 24.2h11.1c3.3 0 4.7-1.9 5.3-4.5zm17.1-7.7-2.9 14.8h-5.5l3.8-13.9c.1-.6.4-.9.9-.9zm2.3 14.8 3.8-19.5h-10.4c-3.2 0-4.8 1.9-5.3 4.5l-4.2 14.9h-2.2l-1 4.7h19.9l.9-4.7h-1.5zm18-13.9-2.5 13.1c-.2.6-.5.8-1 .8h-3.7c-.5 0-.7-.2-.6-.8l2.6-13.1c.1-.6.3-.9.9-.9h3.7c.5 0 .7.3.6.9zm5.3-1c.5-2.7-.3-4.5-3.5-4.5h-6.6c-3.2 0-4.8 1.9-5.4 4.5l-2.9 15.1c-.5 2.7.3 4.5 3.5 4.5h6.7c3.3 0 4.8-1.9 5.3-4.5zm14.7 1-1.2 6c-.1.7-.4.9-1 .9h-4.4l1.6-7.8h4.4c.5 0 .7.3.6.9zm5.3-1c.6-2.7-.3-4.5-3.5-4.5h-11l-4.7 24.2h5l1.4-7h6c3.2 0 4.5-1.9 5.1-4.6zm10.6 1.8-.8 9.4h-3.6l4.1-9.4zm4.3 17.8.6-24.2h-7l-11.6 24.2h5.6l1.9-4.5h5l-.4 4.5zm19.1-19.5-2.9 14.8h-5.5l3.8-13.9c.1-.6.4-.9.9-.9zm2.3 14.8 3.8-19.5h-10.4c-3.2 0-4.8 1.9-5.3 4.5l-4.2 14.9h-2.2l-1 4.7h19.9l.9-4.7h-1.5zm18.6-13.9-2.6 13.1c-.1.6-.4.8-.9.8h-3.7c-.5 0-.7-.2-.6-.8l2.5-13.1c.2-.6.5-.9.9-.9h3.7c.5 0 .8.3.7.9zm1.7-5.5h-6.7c-3.2 0-4.7 1.9-5.2 4.5l-2.9 15.1c-.5 2.7.3 4.5 3.5 4.5h6.7c3.2 0 4.7-1.9 5.2-4.5l3-15.1c.4-2.7-.4-4.5-3.6-4.5zm8.6 18.6-1.1 5.6h-5.1l1.1-5.6zm27.5 2.1c-.4 2-1.5 3.4-3.9 3.4h-4.3c-2.4 0-3-1.4-2.6-3.4l2.6-13.5h3.7l-2.5 12.9c-.1.3 0 .5.2.5h2.7c.3 0 .4-.1.5-.5l2.5-12.9h3.7zm-15.8-9.6-.9 4.2c-.1.5-.3.6-.7.6h-3l1.1-5.4h3.1c.3 0 .5.2.4.6zm1.2-3.9h-7.7l-3.3 16.9h3.5l1-4.9h1.7l.8 4.9h3.9l-1-5c1.4-.4 2.1-1.6 2.4-3.1l1.1-5.6c.5-1.9-.1-3.2-2.4-3.2z" fill="#ce1037"/></g></svg>