<?xml version="1.0" encoding="UTF-8"?>
<svg width="238px" height="55px" viewBox="0 0 238 55" version="1.1" xmlns="http://www.w3.org/2000/svg" xmlns:xlink="http://www.w3.org/1999/xlink">
    <title>logo-gpn_ru</title>
    <defs>
        <polygon id="path-1" points="0 0 238 0 238 55 0 55"></polygon>
    </defs>
    <g id="logo-gpn_ru" stroke="none" stroke-width="1" fill="none" fill-rule="evenodd">
        <g transform="translate(0.060000, 0.093000)">
            <mask id="mask-2" fill="white">
                <use xlink:href="#path-1"></use>
            </mask>
            <g id="Clip-2"></g>
            <path d="M73.7450716,43.8890583 C74.1572091,43.8890583 74.3021761,43.9789139 74.3021761,44.447361 L74.3021761,46.9824863 C74.3021761,47.444943 74.1572091,47.5599582 73.7450716,47.5599582 L73.4587318,47.5599582 L73.4587318,43.8890583 L73.7450716,43.8890583 L73.7450716,43.8890583 Z M103.239266,46.3415165 C103.650206,46.3415165 103.776004,46.4433529 103.776004,46.8950269 L103.776004,47.847496 C103.776004,48.2955758 103.650206,48.3998083 103.239266,48.3998083 L102.827129,48.3998083 L102.827129,46.3415165 L103.239266,46.3415165 L103.239266,46.3415165 Z M70.8181759,44.464134 C70.8181759,44.0052715 70.9703313,43.8890583 71.3740824,43.8890583 L71.6688087,43.8890583 L71.6688087,47.5599582 L71.3740824,47.5599582 C70.9703313,47.5599582 70.8181759,47.4545276 70.8181759,46.9908729 L70.8181759,44.464134 L70.8181759,44.464134 Z M36.2441458,52.0527371 L108.877404,52.0527371 L108.877404,39.9426013 L36.2441458,39.9426013 L36.2441458,52.0527371 Z M44.1310693,41.9074433 L42.288431,41.9074433 L42.288431,44.9493541 L41.3407541,44.9493541 L41.3407541,41.9074433 L39.4993138,41.9074433 L39.4993138,49.7931688 L41.3407541,49.7931688 L41.3407541,46.3415165 L42.288431,46.3415165 L42.288431,49.7931688 L44.1310693,49.7931688 L44.1310693,41.9074433 Z M59.398131,41.9014529 L54.9796327,41.9014529 L54.9796327,49.7979611 L59.398131,49.7979611 L59.398131,48.3027643 L56.8797787,48.3027643 L56.8797787,46.4433529 L59.1333566,46.4433529 L59.1333566,44.9493541 L56.8797787,44.9493541 L56.8797787,43.3966497 L59.398131,43.3966497 L59.398131,41.9014529 Z M76.0873069,44.5180474 C76.0873069,42.9078354 75.3037663,42.499292 73.4587318,42.499292 L73.4587318,41.9074433 L71.6688087,41.9074433 L71.6688087,42.499292 C69.8201799,42.499292 69.0294508,42.9078354 69.0294508,44.5180474 L69.0294508,46.9824863 C69.0294508,48.5819156 69.853726,49.0120243 71.6688087,49.0120243 L71.6688087,49.7931688 L73.4587318,49.7931688 L73.4587318,49.0120243 C75.2726164,49.0120243 76.0873069,48.5819156 76.0873069,46.9824863 L76.0873069,44.5180474 Z M90.249744,41.9014529 L85.6119982,41.9014529 L85.6119982,43.3966497 L87.1083931,43.3966497 L87.1083931,49.7979611 L88.8587797,49.7979611 L88.8587797,43.3966497 L90.249744,43.3966497 L90.249744,41.9014529 Z M105.615048,46.9489402 C105.615048,45.3710763 104.945324,44.9493541 103.13743,44.9493541 L102.827129,44.9493541 L102.827129,41.9074433 L100.985688,41.9074433 L100.985688,49.7931688 L102.827129,49.7931688 C104.829111,49.7931688 105.615048,49.4864618 105.615048,47.7588385 L105.615048,46.9489402 Z M31.3871523,33.8911277 L31.3871523,46.3151589 C28.0720805,49.8410918 23.3540637,52.051539 18.1160825,52.051539 C8.07502124,52.051539 -0.0718844621,43.9393774 -0.0718844621,33.9366545 C-0.0718844621,23.939922 8.07502124,15.8265624 18.1160825,15.8265624 L18.1160825,29.4450737 C15.5042804,29.4450737 12.8900821,30.4370793 10.8964864,32.4222885 C10.4208509,32.8931318 10.003921,33.3999172 9.64210251,33.9366545 C6.96680245,37.891498 7.38133618,43.3079922 10.8964864,46.8063694 C12.8900821,48.7867863 15.5042804,49.7835842 18.1160825,49.7835842 C20.7159039,49.7835842 23.3193195,48.7999651 25.3117172,46.8303309 C25.3213018,46.8171521 25.3320844,46.8111617 25.3428671,46.8051713 L25.3428671,46.7979829 L25.3680267,46.7776156 C27.3652166,44.7900102 27.3652166,41.5611998 25.3680267,39.5783867 C23.3708367,37.5883852 20.137234,37.5883852 18.1412421,39.5783867 C18.1280633,39.5855752 18.1220729,39.5903675 18.1160825,39.598754 L18.1160825,33.8911277 L31.3871523,33.8911277 Z M29.1239898,9.39050689 C30.2214259,14.2127562 30.2010587,17.1791884 29.7254231,20.5613523 C28.8616115,26.6523624 26.0964559,31.3080794 24.8983815,32.8703684 C24.0753044,31.8100725 22.8161283,29.6463502 21.9774762,27.628793 C21.9774762,27.628793 20.3900277,23.7865685 19.9695036,20.0437842 C19.5501775,16.2986037 19.7298887,12.4935195 20.9543207,8.20920557 C22.0745202,4.35859455 24.2753828,0.898555776 24.8780142,0 C25.2554077,0.637375564 28.0217614,4.56586142 29.1239898,9.39050689 L29.1239898,9.39050689 Z M24.8780142,31.6710959 C25.4399111,30.6311674 26.4031629,28.3476376 26.3180996,25.4470996 C26.1994903,22.4878559 25.1990982,20.3181432 24.8983815,19.799377 C24.552138,20.3181432 23.3936001,22.8041475 23.4127693,25.7106759 C23.4954364,28.708258 24.3376827,30.6527327 24.8780142,31.6710959 L24.8780142,31.6710959 Z M28.805302,17.5793452 C28.8400462,15.739103 28.6627312,12.6121289 27.7641754,9.34857429 C26.8620254,6.08382164 25.1140349,2.97961095 24.8564489,2.57825604 C24.5988629,2.97961095 23.2162851,5.50035942 21.9942492,9.44801446 C21.6719672,10.6293158 21.0932973,13.1955911 20.9926591,15.6971704 C20.8740497,18.7306947 21.2849892,21.7390594 21.4515216,22.5896922 C21.4515216,21.5857059 21.4706907,18.2406822 22.0924913,15.4779228 C22.7142919,12.711569 23.8967913,9.5258893 24.8564489,7.9084889 C25.8975755,9.61215065 27.2034766,13.2890409 27.6599429,15.4958939 C28.1247958,17.7015488 28.3656087,20.5218158 28.2661686,22.521402 C28.5429237,21.361666 28.7633694,19.4195874 28.805302,17.5793452 L28.805302,17.5793452 Z M104.339099,15.7331126 L108.877404,15.7331126 L108.877404,33.8935239 L105.383819,33.8935239 L105.383819,22.5034308 L105.264012,22.5034308 L103.465702,33.8935239 L100.676585,33.8935239 L98.8818699,22.5034308 L98.7632605,22.5034308 L98.7632605,33.8935239 L95.2684776,33.8935239 L95.2684776,15.7331126 L99.7995948,15.7331126 L102.062757,28.4950008 L104.339099,15.7331126 Z M79.4095672,25.7202605 C79.7893567,25.7202605 80.0601216,25.3859978 80.0601216,24.8121202 L80.0601216,18.8948309 C80.0601216,18.3245475 79.7893567,17.9878886 79.4095672,17.9878886 L78.4906441,17.9878886 L78.4906441,25.7202605 L79.4095672,25.7202605 Z M75.0042477,15.7331126 L80.4842399,15.7331126 C82.9271135,15.7331126 83.3140915,17.7063411 83.3140915,18.977498 L83.3140915,24.471867 C83.3140915,25.7478162 82.9271135,27.7210447 80.4842399,27.7210447 L78.4906441,27.7210447 L78.4906441,33.8935239 L75.0042477,33.8935239 L75.0042477,15.7331126 Z M64.4072799,15.7331126 L72.478707,15.7331126 L72.478707,33.8935239 L69.224737,33.8935239 L69.224737,17.9878886 L67.6588538,17.9878886 L67.6588538,33.8935239 L64.4072799,33.8935239 L64.4072799,15.7331126 Z M57.5303331,27.5341451 L57.5303331,30.9510532 C57.5303331,31.4218964 57.8729823,31.5512885 58.0754569,31.5512885 C58.3953428,31.5512885 58.6205807,31.2661468 58.6205807,30.9510532 L58.6205807,26.7290391 C58.6205807,26.16235 58.5235367,25.5381532 57.2248241,25.5381532 L55.8075021,25.5381532 L55.8075021,23.5421613 L57.2751432,23.5421613 C58.2719411,23.5421613 58.6205807,23.3001503 58.6205807,22.1955257 L58.6205807,18.5833315 C58.6205807,18.2706341 58.3953428,17.9878886 58.0754569,17.9878886 C57.8729823,17.9878886 57.5303331,18.1172806 57.5303331,18.5833315 L57.5303331,21.5437733 L54.0355501,21.5437733 L54.0355501,18.977498 C54.0355501,17.7063411 54.1901017,15.7331126 56.6281831,15.7331126 L59.5215327,15.7331126 C61.9632082,15.7331126 62.1129675,17.7063411 62.1129675,18.977498 L62.1129675,21.8864225 C62.1129675,23.8536607 60.7902934,24.3951903 59.7419783,24.3448712 L59.7419783,24.5293746 C62.0842137,24.471867 62.1129675,26.3432592 62.1129675,26.9926155 L62.1129675,30.6467423 C62.1129675,31.9214935 61.9632082,33.8935239 59.5215327,33.8935239 L56.6281831,33.8935239 C54.1901017,33.8935239 54.0355501,31.9214935 54.0355501,30.6467423 L54.0355501,27.5341451 L57.5303331,27.5341451 Z M48.6669789,27.0692923 L48.0691398,17.9878886 L47.8762498,17.9878886 L47.2724203,27.0692923 L48.6669789,27.0692923 Z M45.2309016,15.7331126 L50.7132899,15.7331126 L52.534363,33.8935239 L49.119851,33.8935239 L48.797569,29.0652842 L47.1526129,29.0652842 L46.8219444,33.8935239 L43.4158189,33.8935239 L45.2309016,15.7331126 Z M36.2441458,15.7331126 L42.900647,15.7331126 L42.900647,17.9878886 L39.7317403,17.9878886 L39.7317403,33.8935239 L36.2441458,33.8935239 L36.2441458,15.7331126 Z M90.6127606,15.7331126 C93.0568323,15.7331126 93.2101858,17.7063411 93.2101858,18.977498 L93.2101858,30.6467423 C93.2101858,31.9214935 93.0568323,33.8935239 90.6127606,33.8935239 L87.7265994,33.8935239 C85.28732,33.8935239 85.1399569,31.9214935 85.1399569,30.6467423 L85.1399569,18.977498 C85.1399569,17.7063411 85.28732,15.7331126 87.7265994,15.7331126 L90.6127606,15.7331126 L90.6127606,15.7331126 Z M89.1738733,31.6483325 C89.5943974,31.6483325 89.9442351,31.3260505 89.9442351,30.9258937 L89.9442351,18.6767813 L89.9382447,18.6192737 C89.9011044,18.2646437 89.5692378,17.9818982 89.1678829,17.9818982 C88.7689241,17.9818982 88.4478402,18.2646437 88.4011153,18.6192737 L88.4011153,30.9019322 L88.396323,30.9258937 C88.396323,31.3260505 88.7449626,31.6483325 89.1738733,31.6483325 L89.1738733,31.6483325 Z" id="1" fill="#006FAB" mask="url(#mask-2)"></path>
            <g id="2" mask="url(#mask-2)" fill="#006FAB">
                <g transform="translate(95.268478, 15.630078)">
                    <polyline id="Fill-4" points="9.07062104 0.10423247 13.6089267 0.10423247 13.6089267 18.2646437 10.1153419 18.2646437 10.1153419 6.87455072 9.99433638 6.87455072 8.19722482 18.2646437 5.40690962 18.2646437 3.61339229 6.87455072 3.49478293 6.87455072 3.49478293 18.2646437 0 18.2646437 0 0.10423247 4.53111726 0.10423247 6.79427974 12.8661206 9.07062104 0.10423247"></polyline>
                    <path d="M50.1046681,6.37375564 L54.6285969,6.37375564 C54.8634195,5.0247239 54.8083081,4.05308559 54.4608665,3.4588407 C54.113425,2.86459581 53.5119916,2.56747337 52.6565665,2.56747337 C51.9173547,2.56747337 51.2967521,2.77114601 50.795957,3.17609515 C50.29636,3.58224236 49.9105801,4.14054501 49.6410134,4.85100311 L46.7272965,4.85100311 C47.2963818,3.19885856 48.1398262,1.97682271 49.2504411,1.18609362 C50.3634522,0.395364541 51.665759,0 53.1597578,0 C53.9996079,0 54.7508005,0.128193957 55.4121376,0.382185723 C56.0734746,0.634979415 56.6030235,1.03393818 57.0043784,1.57786394 C57.4057333,2.12178971 57.6657155,2.80948439 57.7855229,3.64334415 C57.9041323,4.47840199 57.8502189,5.47519986 57.6237829,6.63493585 L57.2056549,8.76750822 C56.9804169,9.91166924 56.6449561,10.9012787 56.1992724,11.7351384 C55.7535888,12.5689982 55.2228418,13.259089 54.6082297,13.8018167 C53.9936175,14.3457425 53.3071209,14.7470974 52.5451456,15.0094757 C51.7843684,15.2694578 50.9828566,15.4000479 50.1418084,15.4000479 C48.604679,15.4000479 47.4461411,15.0154661 46.6697889,14.2463023 C45.8922387,13.4783366 45.5400048,12.2467162 45.6106912,10.5502429 L48.5256061,10.5502429 C48.5339926,11.3194066 48.700525,11.8908881 49.0264012,12.2682815 C49.3498813,12.6444769 49.8902128,12.8337726 50.6438016,12.8337726 C51.5148017,12.8337726 52.2384386,12.5222733 52.8183066,11.8992746 C53.3957784,11.2750779 53.8330756,10.2890627 54.1266038,8.94003093 L49.602675,8.94003093 L50.1046681,6.37375564" id="Fill-5"></path>
                    <polyline id="Fill-6" points="63.3505783 6.1557061 68.549023 6.1557061 69.7159475 0.196484196 72.7614525 0.196484196 69.8201799 15.2047618 66.7746749 15.2047618 68.0458318 8.72317947 62.8473871 8.72317947 61.5762302 15.2047618 58.5307252 15.2047618 61.4719977 0.196484196 64.5175028 0.196484196 63.3505783 6.1557061"></polyline>
                    <polyline id="Fill-7" points="85.1818895 0.196484196 84.6786982 2.76275949 78.3708367 2.76275949 77.7059054 6.1557061 83.3608164 6.1557061 82.8576252 8.72317947 77.2027142 8.72317947 76.4359466 12.6384865 82.7426101 12.6384865 82.2394188 15.2047618 72.8872503 15.2047618 75.8285229 0.196484196 85.1818895 0.196484196"></polyline>
                    <path d="M90.9134772,7.35138432 C91.9713769,7.35138432 92.7728887,7.16328664 93.3192106,6.78349707 C93.8643344,6.40610364 94.2177664,5.80826453 94.3771102,4.99117782 C94.5196811,4.26394667 94.3926852,3.71043632 93.9961226,3.33064674 C93.5983619,2.95205524 92.8699327,2.76275949 91.812033,2.76275949 L89.9202736,2.76275949 L89.0205197,7.35138432 L90.9134772,7.35138432 Z M88.5173285,9.91885769 L87.4809942,15.2047618 L84.4354891,15.2047618 L87.3779598,0.196484196 L92.7501253,0.196484196 C94.4753523,0.196484196 95.7644804,0.595442961 96.6151132,1.39336049 C97.466944,2.19007994 97.7353127,3.39294661 97.4190211,5.00315856 C97.1075217,6.59899362 96.3719041,7.81743525 95.2145642,8.65728538 C94.0560263,9.49833359 92.600366,9.91885769 90.845187,9.91885769 L88.5173285,9.91885769 L88.5173285,9.91885769 Z" id="Fill-8"></path>
                    <polyline id="Fill-9" points="108.994816 2.76275949 102.840308 2.76275949 100.402226 15.2047618 97.3567212 15.2047618 100.297994 0.196484196 109.498007 0.196484196 108.994816 2.76275949"></polyline>
                    <polyline id="Fill-10" points="114.109395 0.196484196 112.264361 9.6145468 120.374126 0.196484196 122.809811 0.196484196 119.868539 15.2047618 116.823034 15.2047618 118.647701 5.89572396 110.624197 15.2047618 108.122617 15.2047618 111.06389 0.196484196 114.109395 0.196484196"></polyline>
                    <path d="M131.923563,6.74396062 L132.704707,2.76275949 L130.659594,2.76275949 C129.731087,2.76275949 128.996667,2.90533034 128.456336,3.19047204 C127.913608,3.47441567 127.569761,3.98838957 127.423596,4.73119568 C127.3589,5.06785458 127.344523,5.35898665 127.384059,5.60578997 C127.421199,5.85379136 127.533818,6.06105823 127.718322,6.22878864 C127.904023,6.39651905 128.1676,6.52351493 128.512645,6.61337051 C128.858889,6.69963186 129.314157,6.74396062 129.87845,6.74396062 L131.923563,6.74396062 Z M121.718365,15.2047618 L126.429194,8.91846559 C125.577363,8.59977781 124.968741,8.09898273 124.604527,7.41727841 C124.236718,6.73677217 124.161239,5.84420677 124.376892,4.74197835 C124.675213,3.2204239 125.409633,2.08225325 126.578953,1.3274664 C127.75067,0.573877622 129.205132,0.196484196 130.944736,0.196484196 L136.252206,0.196484196 L133.310933,15.2047618 L130.265428,15.2047618 L131.42157,9.31023591 L129.333326,9.31023591 L125.068181,15.2047618 L121.718365,15.2047618 L121.718365,15.2047618 Z" id="Fill-11"></path>
                    <path d="M46.1665977,27.4706472 L48.1901453,27.4706472 C49.0299954,27.4706472 49.6685691,27.3196898 50.1046681,27.0153789 C50.5419653,26.711068 50.8139282,26.2893459 50.9181606,25.7538066 C50.9696778,25.4914283 50.9756682,25.261398 50.9361317,25.0577254 C50.8941991,24.8552508 50.7875705,24.680332 50.6138497,24.535365 C50.4389309,24.390398 50.1849391,24.2813732 49.8506764,24.2094887 C49.5164136,24.1364062 49.0743242,24.100464 48.524408,24.100464 L46.8279347,24.100464 L46.1665977,27.4706472 Z M44.8930446,33.976191 L47.090313,33.976191 C48.8874246,33.976191 49.9153724,33.3148539 50.1741564,31.9969721 C50.3131331,31.285316 50.1717603,30.7809267 49.7512362,30.4838042 C49.3319102,30.1866818 48.6070752,30.0393186 47.5779293,30.0393186 L45.6634065,30.0393186 L44.8930446,33.976191 Z M49.3091468,21.5341887 C51.0918814,21.5341887 52.389396,21.8540745 53.1992942,22.490252 C54.0103906,23.1288257 54.2823535,24.1220293 54.0187771,25.4710611 C53.8654236,26.2534036 53.5599146,26.9099484 53.0998541,27.4394972 C52.6409916,27.967848 52.0790947,28.3787875 51.4141634,28.6675235 C52.1389984,28.9586555 52.6589627,29.3899623 52.9764524,29.9626419 C53.2903479,30.5341233 53.356242,31.2925044 53.1717385,32.2353889 C53.0579214,32.8140589 52.8494565,33.3651731 52.5427495,33.8887316 C52.2372405,34.4098939 51.8298952,34.8663603 51.3183175,35.2581306 C50.8055416,35.6499009 50.1801468,35.9614002 49.4385388,36.1950247 C48.6957327,36.4262531 47.8331191,36.5424663 46.8471039,36.5424663 L41.3443484,36.5424663 L44.2844229,21.5341887 L49.3091468,21.5341887 L49.3091468,21.5341887 Z" id="Fill-12"></path>
                    <path d="M73.5605681,21.5341887 L70.6204936,36.5424663 L67.5749886,36.5424663 L70.0118718,24.100464 L66.2726817,24.100464 L65.9480036,25.7562028 C65.7035964,27.0057943 65.4807546,28.0600998 65.2854684,28.9155249 C65.0877862,29.7733461 64.9020846,30.4993792 64.7271658,31.0948221 C64.5522469,31.6902651 64.3773281,32.1922583 64.2048054,32.5984055 C64.0298865,33.0045527 63.844185,33.3819461 63.6453046,33.7317838 C63.1181519,34.6471126 62.4256649,35.361165 61.5714379,35.877535 C60.7172109,36.392707 59.6892631,36.6802448 58.4887926,36.7377524 L59.0806413,33.7138127 C59.559871,33.6419282 59.9648202,33.4969612 60.2966868,33.2789117 C60.6285534,33.0608622 60.9172893,32.7433725 61.1593003,32.3216503 C61.2946827,32.074847 61.4288671,31.7741303 61.5654475,31.4195003 C61.6996319,31.0636722 61.8326181,30.625177 61.9644063,30.1040146 C62.0937983,29.5816542 62.2375673,28.9646459 62.3921188,28.2553859 C62.5454724,27.5449278 62.7144009,26.7182565 62.8989043,25.7753719 L63.7291698,21.5341887 L73.5605681,21.5341887" id="Fill-13"></path>
                    <path d="M82.9822249,29.7338097 C82.6839044,31.2565622 82.6371795,32.3767617 82.8444464,33.0944083 C83.0529113,33.8120548 83.6052236,34.170279 84.5049775,34.170279 C85.4035332,34.170279 86.0972183,33.8084606 86.5884288,33.0836256 C87.0784412,32.3587906 87.4714096,31.2421853 87.767334,29.7338097 L88.0440891,28.3188838 C88.3364193,26.8272812 88.37955,25.7166663 88.1746792,24.9930294 C87.9686105,24.2669963 87.4151001,23.9051779 86.5165443,23.9051779 C85.6167905,23.9051779 84.9243035,24.2669963 84.433093,24.9930294 C83.9430806,25.7166663 83.5513103,26.8272812 83.2589801,28.3188838 L82.9822249,29.7338097 Z M90.7816891,29.8859651 C90.5432723,31.1044067 90.216198,32.1443353 89.8004662,33.0069488 C89.3847344,33.8695624 88.8911277,34.5776243 88.3196462,35.1287385 C87.7469667,35.6798527 87.0988085,36.0848019 86.3727754,36.3471802 C85.6479404,36.6071623 84.8572113,36.7377524 84.0017862,36.7377524 C83.160738,36.7377524 82.4311107,36.6107565 81.8141024,36.3567648 C81.1958961,36.102773 80.7082798,35.7074085 80.3488575,35.1718692 C79.9906332,34.6351319 79.7677914,33.9426449 79.680332,33.0944083 C79.5916745,32.2473697 79.6551724,31.2349968 79.8720239,30.0596859 L77.9802644,30.0596859 L76.7103056,36.5424663 L73.6648006,36.5424663 L76.6048751,21.5341887 L79.6503801,21.5341887 L78.4834557,27.4934106 L80.3752151,27.4934106 C80.9023678,25.3189056 81.7362276,23.7494282 82.8755963,22.7837803 C84.013767,21.8205285 85.3951467,21.3377045 87.0197356,21.3377045 C87.8751607,21.3377045 88.6143725,21.4694927 89.2373712,21.7294748 C89.861568,21.9894569 90.3503823,22.3968022 90.7074085,22.9479164 C91.0620385,23.4990306 91.2788899,24.2058945 91.3555667,25.0685081 C91.4334415,25.9311216 91.3531705,26.9710502 91.1147537,28.1906899 L90.7816891,29.8859651 L90.7816891,29.8859651 Z" id="Fill-14"></path>
                    <path d="M96.2113621,33.1471235 C96.1215065,33.3052693 96.0268586,33.4526325 95.9286166,33.5832226 C95.8303745,33.7138127 95.7321324,33.8456009 95.6350883,33.976191 L100.898229,33.976191 L102.833119,24.100464 L98.8974448,24.100464 L98.6158974,25.5393513 C98.4110266,26.5852702 98.2109482,27.4946087 98.0156621,28.2625743 C97.8215741,29.0341342 97.6298822,29.7134424 97.4429826,30.3016969 C97.2548849,30.8911495 97.0584007,31.4099157 96.854728,31.8603917 C96.6498573,32.3120657 96.4342039,32.7409763 96.2113621,33.1471235 Z M90.249744,39.3699218 L91.3064456,33.976191 L92.2637071,33.976191 C92.4925393,33.7725184 92.7201734,33.5113381 92.9502037,33.1926504 C93.1790359,32.8727645 93.3958873,32.5253229 93.6019561,32.1479295 C93.7696865,31.8004879 93.937417,31.430283 94.1003551,31.0385126 C94.2656893,30.6479404 94.4238351,30.1986625 94.581981,29.690679 C94.7401268,29.1826954 94.8994707,28.595639 95.0588146,27.9283116 C95.2169604,27.2621822 95.3870869,26.4714532 95.5656,25.5573224 L96.355131,21.5341887 L106.381815,21.5341887 L103.944932,33.976191 L105.813928,33.976191 L104.757227,39.3699218 L102.016032,39.3699218 L102.570741,36.5424663 L93.5444486,36.5424663 L92.9897401,39.3699218 L90.249744,39.3699218 L90.249744,39.3699218 Z" id="Fill-15"></path>
                    <path d="M116.323437,28.080467 L117.102185,24.100464 L115.057072,24.100464 C114.13096,24.100464 113.395343,24.2430348 112.853813,24.5269785 C112.311085,24.8121202 111.968436,25.324896 111.823469,26.0677021 C111.757575,26.4055591 111.743198,26.6966911 111.782735,26.9434945 C111.821073,27.1914959 111.932494,27.3987627 112.116997,27.5664931 C112.301501,27.7342235 112.567473,27.8624175 112.912519,27.9498769 C113.256366,28.0373364 113.712832,28.080467 114.278324,28.080467 L116.323437,28.080467 Z M106.117041,36.5424663 L110.829067,30.2561701 C109.977237,29.9374823 109.368615,29.4366872 109.002004,28.7549829 C108.635393,28.0732786 108.558717,27.1819113 108.775568,26.0796828 C109.073889,24.5581284 109.808308,23.4199577 110.978827,22.6651709 C112.148147,21.9115821 113.60261,21.5341887 115.342214,21.5341887 L120.650881,21.5341887 L117.710807,36.5424663 L114.665302,36.5424663 L115.820245,30.6479404 L113.732002,30.6479404 L109.466857,36.5424663 L106.117041,36.5424663 L106.117041,36.5424663 Z" id="Fill-16"></path>
                    <polyline id="Fill-17" points="119.559435 36.5424663 125.295815 28.7993117 122.955976 21.5341887 126.262661 21.5341887 127.717124 26.3180996 131.068138 21.5341887 134.353258 21.5341887 129.146426 28.7993117 131.86965 36.5424663 128.585728 36.5424663 126.715534 31.430283 122.866121 36.5424663 119.559435 36.5424663"></polyline>
                </g>
            </g>
            <polyline id="/" fill="#006FAB" mask="url(#mask-2)" points="130.908794 15.7343107 128.409611 15.7343107 121.339774 52.1066504 123.838957 52.1066504 130.908794 15.7343107"></polyline>
        </g>
    </g>
</svg>