<svg fill="none" height="64" viewBox="0 0 107 64" width="107" xmlns="http://www.w3.org/2000/svg" xmlns:xlink="http://www.w3.org/1999/xlink"><clipPath id="a"><path d="m0 0h106.46v64h-106.46z"/></clipPath><g clip-path="url(#a)" opacity=".7"><path d="m11.0156 63.9572h83.9165l-41.7356-41.735z" fill="#7bb51c"/><g fill="#000"><path d="m9.41216 61.9048 6.53784-6.378-2.1776-2.2334-4.10643 4.0077-7.23388-7.4168-2.43209 2.3727z"/><path d="m17.3851 54.0743 6.699-6.5373-1.8396-1.8845-4.2536 4.1494-2.0426-2.0941 3.4086-3.3255-1.9251-1.9718-3.4086 3.3238-1.75-1.7936 4.1137-4.0143-1.8385-1.8839-6.67779 6.5154z"/><path d="m39.3115 23.0836c-2.7016-2.7695-7.3883-2.4382-9.6453-.2357-2.2577 2.2025-3.4098 6.5942-.2217 9.8623 3.5018 3.589 7.6682 2.2855 9.9258.0842 3.3286-3.2475 2.1437-7.4532-.0588-9.7108zm-1.9856 7.8142c-1.4944 1.458-3.3214 1.0624-5.4088-1.0777-1.7542-1.7978-1.6488-3.6042-.3731-4.849.8771-.8559 2.6586-1.6216 4.7782.5512 2.4181 2.4788 2.4981 3.9174 1.0037 5.3755z"/><path d="m46.8464 25.3833 2.4714-2.4121-3.7181-3.8108-2.2255-9.25952-2.8331 2.76462 1.4738 5.2531-4.9793-1.8336-2.6713 2.6059 8.489 2.7259z"/><path d="m33.6689 38.2541s-6.0151-2.0522-6.301-2.0026c-.0927.0152 1.2921-3.6696-1.819-5.3027 0 0-2.3086-1.2497-4.6189.8492l-4.9241 4.8527 9.4927 9.56 2.5114-2.4503-5.1367-5.264 8.3036 2.1892zm-9.3164-1.3126c-1.3956 1.3593-1.584 1.4665-1.584 1.4665s-2.188-2.2425-2.2655-2.3218c-.0776-.0794 1.5646-1.4872 1.8233-1.7398.1096-.1072 1.1321-.7741 1.9783.0927 0 0 1.4429 1.1406.0479 2.5024z"/><path d="m46.0793 11.7255-2.1965-2.21461 9.5891-9.51089 3.1383 3.16384-3.4546 6.79894 7.0431-3.18079 3.0197 3.04511-9.5891 9.5109-2.3145-2.3334 5.0616-5.0198-6.9243 3.1414-1.4314-1.4435 3.2184-6.91767z"/><path d="m62.7293 28.5119-6.6487-6.7027 9.5896-9.5109 6.6675 6.7227-1.9372 1.9214-4.1772-4.2112-1.5623 1.5489 3.2947 3.322-2.0171 2.0002-3.2747-3.302-2.0959 2.0783 4.1379 4.1718z"/><path d="m84.6531 31.438 2.4709 2.492-7.2563 7.1964 4.0591 4.0912-2.3333 2.3158-6.53-6.5839z"/><path d="m83.3193 49.2736 9.5897-9.5109 2.4121 2.4315-9.5897 9.5103z"/><path d="m90.1044 56.1154-2.2558-2.2745 9.5903-9.5103 3.2751 3.3001-2.7984 9.8749 6.3474-6.2961 2.197 2.2146-9.5893 9.5103-2.864-2.8858 2.466-10.3668z"/><path d="m80.3197 27.0686-5.8243-5.8728-9.6097 9.4915 2.4709 2.4909 5.2391-5.1962-1.8857 8.5775 2.5297 2.5508s1.9941-6.1357 2.0553-6.3913c0 0 2.1607 1.1903 4.5316-.8481 0 0 2.274-2.2158.4931-4.8023zm-3.5564 2.7816s-1.2242.822-2.3031-.2654l-1.6852-1.7797s2.036-2.0195 2.2928-2.2745c0 0 1.5689 1.5822 1.7652 1.7797.1956.1974 1.4326 1.1279-.0697 2.5399z"/></g></g></svg>