<svg fill="none" height="40" viewBox="0 0 222 40" width="222" xmlns="http://www.w3.org/2000/svg" xmlns:xlink="http://www.w3.org/1999/xlink"><clipPath id="a"><path d="m0 0h221.091v40h-221.091z"/></clipPath><g clip-path="url(#a)" fill="#00b956" opacity=".7"><path d="m22.0365.509277v20.218223c0 .9454-.7272 1.6-1.6 1.6h-2.4c-.1454 0-.2181.1454-.2181.2181v16.9455c.5818 0 1.1636.1455 1.8181.1455 10.8364 0 19.6364-8.8001 19.6364-19.6364 0-9.9637-7.4909-18.32729-17.2364-19.490923zm-.4363 30.254523c-1.3818 0-2.4-1.1636-2.4-2.4 0-1.3818 1.1636-2.4 2.4-2.4 1.3818 0 2.4 1.1637 2.4 2.4.1454 1.3091-1.0182 2.4-2.4 2.4zm5.7454 0c-1.3818 0-2.4-1.1636-2.4-2.4 0-1.3818 1.1637-2.4 2.4-2.4 1.3818 0 2.4 1.1637 2.4 2.4 0 1.2364-.9454 2.4-2.4 2.4zm5.8182 0c-1.3818 0-2.4-1.1636-2.4-2.4 0-1.3818 1.1636-2.4 2.4-2.4 1.3818 0 2.4 1.1637 2.4 2.4 0 1.2364-1.0182 2.4-2.4 2.4z"/><path d="m19.6364.436523c-10.8364 0-19.6364 8.799997-19.6364 19.636377 0 9.5273 6.61818 17.3091 15.4909 19.1273v-17.6728c0-.8.7273-1.4545 1.4546-1.6h2.4c.1454 0 .2181-.1454.2181-.2182zm-3.7819 16.145477c-1.3818 0-2.4-1.1637-2.4-2.4 0-1.3818 1.1637-2.4 2.4-2.4 1.3819 0 2.4 1.1636 2.4 2.4 0 1.2363-1.0909 2.4-2.4 2.4z"/><path d="m216.218 11.1276v7.4182h-9.891v-7.4182h-5.018v19.6364h5.018v-7.9273h9.891v7.9273h4.873v-19.6364zm-81.745 2.2545c-.8-1.7454-2.4-2.6909-4-2.6909s-3.273.9455-4 2.6909l-7.928 17.4546h5.237l1.745-4.1455h10.182l1.745 4.1455h5.237zm-7.564 9.3819 2.982-7.2c.145-.2182.218-.2182.363-.2182.146 0 .364 0 .364.2182l2.982 7.2zm-50.9091-15.12731c-2.3272 0-3.7818 1.23637-4.8727 3.70911l-6.3273 14.7636-6.4-14.8363c-1.0181-2.40004-2.5454-3.70914-4.8727-3.70914-2.1818 0-4.3636 1.45455-4.3636 4.87274v18.2545h4.8727v-17.6l6.4727 14.6182c.8 2.1091 2.3273 3.3455 4.2909 3.3455 2.1091 0 3.4909-1.2364 4.2909-3.3455l6.4728-14.6182v17.8182h4.8727v-18.2545c-.0727-3.41821-2.2545-5.01821-4.4364-5.01821zm13.0182 18.98181c-.2182 0-.5091-.2182-.5091-.5091v-3.4909h12.218v-4h-12.218v-2.9818c0-.2182.2182-.5091.5091-.5091h12.1459v-4.1455h-14.5459c-1.7454 0-2.9091 1.3819-2.9091 2.9091v13.7455c0 1.4545 1.2364 2.9091 2.9091 2.9091h14.5459v-4.1455h-12.1459zm20.3639 4.1455v-14.9819c0-.2181.218-.509.509-.509h12.145v-4.1455h-14.545c-1.746 0-2.909 1.3818-2.909 2.9091v16.6545zm88.727-9.7455c0-6.8364-2.982-10.0364-10.4-10.0364h-1.745c-7.419 0-10.4 3.2728-10.4 10.0364 0 6.6909 2.981 10.0364 10.4 10.0364h1.6c7.563-.1455 10.545-3.3455 10.545-10.0364zm-10.545 5.8909h-1.6c-4 0-5.673-1.8182-5.673-5.8909 0-3.9273 1.382-5.8909 5.673-5.8909h1.6c4.145 0 5.672 1.9636 5.672 5.8909 0 4-1.527 5.8909-5.672 5.8909zm-25.6-18.83634h-9.746c-7.273 0-10.182 3.70904-10.182 10.03634 0 1.0182.146 1.9637.218 2.7637.8 4.509 3.491 7.2727 10.255 7.2727h2.182v2.5454h4.873v-2.5454h2.109c6.836 0 9.527-2.7637 10.254-7.2727.146-.8.218-1.7455.218-2.7637-.072-6.3273-3.054-10.03634-10.181-10.03634zm-7.419 16.00004h-2.181c-3.346 0-4.51-1.2364-5.237-3.2728-.218-.7272-.218-1.7454-.218-2.7636 0-4.1455 1.964-5.8909 4.727-5.8909h2.982v11.9273zm12.509-3.0546c-.727 1.9636-1.963 3.2727-5.236 3.2727h-2.182v-12h2.982c2.764 0 4.727 1.7455 4.727 5.8909-.072 1.091-.072 1.9637-.291 2.8364z"/></g></svg>