<svg fill="none" height="64" viewBox="0 0 64 64" width="64" xmlns="http://www.w3.org/2000/svg" xmlns:xlink="http://www.w3.org/1999/xlink"><clipPath id="a"><path d="m0 0h64v64h-64z"/></clipPath><mask id="b" height="64" maskUnits="userSpaceOnUse" width="64" x="0" y="0"><path d="m64 0h-64v64h64z" fill="#fff"/></mask><g clip-path="url(#a)" opacity=".7"><g mask="url(#b)"><path d="m64 0h-64v64h64z" fill="#ff0032"/><g fill="#fff"><path d="m42.6357 4.92188v2.94539h6.4406v11.82083h3.6v-11.82083h6.4275v-2.94539z"/><path d="m19.4787 4.92188-4.7127 9.76562-4.6995-9.76562h-5.14462v14.76622h3.613v-10.56413l4.59482 8.92783h3.2857l4.5948-8.92783v10.56413h3.6v-14.76622z"/><path d="m55.5034 54.1557c-.0916.5891-.3273 1.0735-.7069 1.44-.3534.3404-.8378.5891-1.44.7331-.5891.1309-1.466.2095-2.3824.2095-.9556 0-1.7934-.1179-2.5134-.3666-.6939-.2356-1.2437-.6545-1.6233-1.2305-.3927-.576-.5891-1.4137-.5891-2.5002v-1.5055c0-1.0735.1964-1.9113.5891-2.5004.3927-.576.9294-.9947 1.6233-1.2304.7069-.2487 1.5578-.3665 2.5134-.3665.9164 0 1.7933.0785 2.3824.2094.6022.144 1.0866.3795 1.44.733.3796.3665.6153.8509.7069 1.44h3.5999c-.1048-1.2175-.5104-2.2515-1.2304-3.0893-.6546-.7593-1.5709-1.3091-2.7098-1.6495-1.0997-.3272-2.5528-.4974-4.189-.4974-1.728 0-3.2204.2487-4.4509.7331-1.2435.4974-2.2122 1.3221-2.8799 2.4611-.6414 1.0864-.9687 2.5525-.9949 4.3329v.1702l.1964.0131-.1964.0131v.0131.157c.0262 1.7804.3535 3.2464.9949 4.333.6677 1.1389 1.6364 1.9636 2.8799 2.4611 1.2305.4843 2.7229.7331 4.4509.7331 1.6362 0 3.0893-.1702 4.189-.4975 1.1389-.3403 2.0421-.8902 2.7098-1.6494.72-.8248 1.1387-1.872 1.2304-3.0895h-3.5999z"/></g></g></g></svg>