<?xml version="1.0" encoding="utf-8"?>
<!-- Generator: Adobe Illustrator 28.0.0, SVG Export Plug-In . SVG Version: 6.00 Build 0)  -->
<svg version="1.1" id="Layer_1" fill="#777b8f" xmlns="http://www.w3.org/2000/svg" xmlns:xlink="http://www.w3.org/1999/xlink" x="0px" y="0px"
	 viewBox="0 0 106 60" style="enable-background:new 0 0 106 60;" xml:space="preserve">
<style type="text/css">
	.st0{fill-rule:evenodd;clip-rule:evenodd;fill:#92CFAE;}
	.st1{fill-rule:evenodd;clip-rule:evenodd;fill:#2A8288;}
	.st2{fill-rule:evenodd;clip-rule:evenodd;}
</style>
<g id="Page-1">
	<g id="Desk" transform="translate(-25.000000, -57.000000)">
		<g id="Group-2" transform="translate(25.000000, 57.000000)">
			<g id="Group">
				<polygon id="Fill-1" class="st0" points="0.9,16.1 0.9,42.1 26.9,16.1 				"/>
				<polygon id="Fill-2" class="st1" points="2.7,43.9 28.7,43.9 28.7,17.9 				"/>
			</g>
			<path id="Fill-3" class="st2" d="M43.3,29.4c3,0,4.6-1.5,4.6-4.2V25c0-3-1.7-4.1-4.6-4.1h-3.1v8.5H43.3z M34,16.1h9.5
				c6.7,0,10.4,3,10.4,8.9v0.2c0,5.9-4,8.7-10.3,8.7h-3.5v10.1H34V16.1z"/>
			<path id="Fill-5" class="st2" d="M66.2,39.1c3,0,4.5-1.3,4.5-3.9v-0.2c0-2.5-1.5-3.9-4.6-3.9h-3.5v7.9H66.2z M66.4,43.9h-9.8
				V16.1h17.5V21H62.6l0,5.8h4c6.2,0,9.9,2.8,9.9,8.3v0.2C76.5,40.8,73.1,43.9,66.4,43.9L66.4,43.9z"/>
			<polygon id="Fill-8" class="st2" points="81,16.1 87.4,16.1 87.4,28.1 97.4,16.1 104.3,16.1 93,29.3 104.9,43.9 97.3,43.9
				87.4,31.4 87.4,43.9 81,43.9 			"/>
		</g>
	</g>
</g>
</svg>
