<svg fill="none" height="64" viewBox="0 0 64 64" width="64" xmlns="http://www.w3.org/2000/svg" xmlns:xlink="http://www.w3.org/1999/xlink"><clipPath id="a"><path d="m0 0h64v64h-64z"/></clipPath><g clip-path="url(#a)" opacity=".7"><path d="m64 0h-64v64h64z" fill="#f01e00"/><path clip-rule="evenodd" d="m12.8748 17.7186c1.71 0 3.42.0025 5.13-.0025 1.375-.0063 2.7338.6112 3.6575 1.6262.8.8463 1.255 1.9875 1.315 3.1463.1175 1.6925-.7212 3.4087-2.1137 4.3737-.7363.5038-1.5938.8775-2.4963.9088-.9725.0325-1.9462-.0125-2.9187.0225.01.8587 0 1.7187.0062 2.5787-.86.005-1.72 0-2.58.0025zm2.5788 2.595c-.0025 1.6287 0 3.2587-.0025 4.8887.8662-.005 1.7337.0138 2.6-.0087 1.0762-.0325 2.0637-.8663 2.2775-1.92.17-.725-.0475-1.5075-.495-2.09-.4113-.5188-1.0613-.7913-1.7113-.8338-.8887-.0625-1.78-.03-2.6687-.0362zm9.5325-1.3163c-.03-.5925.4212-1.1375 1-1.2425.5212-.0737 1.05-.0225 1.575-.0362-.0025 2.7575.0112 5.515-.0063 8.2712 2.1538-2.7562 4.2713-5.5412 6.455-8.2737.835.005 1.67.0012 2.5063.0025-.0013 4.2187 0 8.4375-.0013 12.6562h-2.5775v-8.2737c-2.1337 2.7462-4.2575 5.5025-6.365 8.2687-.8675.01-1.7362.0025-2.6037.005.02-3.7925.015-7.585.0175-11.3775zm14.5-1.2775c2.2125-.0025 4.4237 0 6.6362-.0025 1.2488-.0087 2.625.08 3.645.885 1.4838 1.1825 1.81 3.5475.6525 5.065-.0775.1663-.4025.355-.16.535 1.1213 1.2925 1.1338 3.34.0875 4.6788-.35.435-.7775.8362-1.315 1.0212-.89.3238-1.8412.475-2.7875.4738-2.2537-.0038-4.5075 0-6.76 0 0-4.2188-.0025-8.4375.0013-12.655zm2.5925 2.5925v2.375c1.7625 0 3.5262.0025 5.2887 0 .5725.0113 1.0725-.4887 1.1238-1.0462.0887-.6488-.4575-1.3125-1.1213-1.3213-1.7637-.015-3.5275-.0025-5.2912-.0062zm0 5.0788c-.0038.7975 0 1.5937-.0025 2.3912 1.725-.005 3.4487.0025 5.1725-.0037.5487.0137 1.0825-.37 1.2175-.9063.1887-.6837-.3625-1.48-1.09-1.4725-1.765-.0225-3.5313-.0037-5.2975-.0087zm-14.0125 7.815c1.4412-.2475 2.97-.0138 4.245.71 1.6675.9137 2.905 2.5762 3.2887 4.44.2925 1.41.125 2.9237-.5237 4.2137-.7563 1.605-2.2113 2.8513-3.8988 3.3875-1.4562.4663-3.0737.4075-4.4937-.16-1.9875-.7675-3.5088-2.5937-3.945-4.675-.3125-1.4262-.1588-2.9612.4787-4.28.89-1.9087 2.7638-3.3225 4.8488-3.6362zm.11 2.7412c-.63.155-1.2175.4763-1.6825.9275-1.4225 1.2925-1.585 3.6675-.4088 5.1725 1.1263 1.5375 3.4438 1.9638 5.0588.9663 1.5912-.92 2.3287-3.055 1.5987-4.7525-.65-1.7863-2.7462-2.8188-4.5662-2.3138zm-15.3013-2.5262c3.0263.0025 6.0513-.0013 9.0763.0012.0012.8763.0025 1.7513 0 2.6263-2.1513-.0075-4.3038.005-6.455-.0063-.0275 3.345-.0038 6.6913-.0125 10.0375-.8675-.0025-1.7363-.0037-2.605 0-.0075-4.22-.0038-8.4387-.0025-12.6587zm24.59.0012c.87-.0012 1.74-.0012 2.6113 0 .0037 3.3538-.0025 6.7075.0025 10.0613h2.92c.0025-3.355-.005-6.71.0037-10.065.8688.0037 1.7363.0025 2.605 0 0 3.355.0013 6.71 0 10.0637h2.925c-.0062-3.355.0013-6.71-.0037-10.065.6362.0363 1.3087-.1012 1.9125.1575.4787.2288.7125.785.6837 1.2963-.005 3.735.0025 7.47-.0037 11.2062-4.5538-.015-9.1088.02-13.6613-.0175.0163-4.2137.0063-8.4262.005-12.64z" fill="#fff" fill-rule="evenodd"/></g></svg>