<?xml version="1.0" encoding="utf-8"?>
<!-- Generator: Adobe Illustrator 28.0.0, SVG Export Plug-In . SVG Version: 6.00 Build 0)  -->
<svg version="1.1" id="Layer_1" xmlns="http://www.w3.org/2000/svg" xmlns:xlink="http://www.w3.org/1999/xlink" x="0px" y="0px"
	 viewBox="0 0 2654 680" style="enable-background:new 0 0 2654 680;" xml:space="preserve">
<style type="text/css">
	.st0{fill:#777b8f;}
</style>
<path class="st0" d="M2290.9,228.7v20.1c76.8,1.7,122.5,34,122.5,91c0,57-45.7,86.8-122.5,88.5v20.1h-60.8v-20.1
	c-76.4-1.7-122.1-31.5-122.1-88.5c0-57,45.7-89.3,122.1-91v-20.1H2290.9z M2230.1,385.6V292c-41.9,1.7-60.4,21-60.4,47.8
	C2169.6,366.7,2188.1,383.9,2230.1,385.6z M2290.9,292v93.5c42.4-1.7,60.4-18.9,60.4-45.7C2351.3,313,2333.2,293.7,2290.9,292z"/>
<path class="st0" d="M1966,228.7v20.1c76.8,1.7,122.5,34,122.5,91c0,57-45.7,86.8-122.5,88.5v20.1h-60.8v-20.1
	c-76.3-1.7-122.1-31.5-122.1-88.5c0-57,45.7-89.3,122.1-91v-20.1H1966z M1905.2,385.6V292c-41.9,1.7-60.4,21-60.4,47.8
	C1844.8,366.7,1863.3,383.9,1905.2,385.6z M1966,292v93.5c42.4-1.7,60.4-18.9,60.4-45.7C2026.4,313,2008.4,293.7,1966,292z"/>
<path class="st0" d="M1633,234.6c81.4,0,130.5,46.1,130.5,105.7c0,59.6-49.1,105.7-130.5,105.7c-81.8,0-130.9-46.1-130.9-105.7
	C1502.2,280.7,1551.2,234.6,1633,234.6z M1633,397.3c40.3,0,66.7-24.3,66.7-57c0-32.7-26.4-56.6-66.7-56.6
	c-40.7,0-66.7,23.9-66.7,56.6C1566.3,373,1592.3,397.3,1633,397.3z"/>
<path class="st0" d="M1354.3,364.2h-16.8v75.5h-60.8V240h60.8v75.1h16.8l73.4-75.1h76.3l-97.3,95.6l101.1,104h-81L1354.3,364.2z"/>
<path class="st0" d="M1155.1,439.7h-123.3V240h60.8v53.7h62.5c15.1,0,31,0.4,44.5,5.5c28.1,10.5,45.7,33.6,45.7,66.7
	c0,34.8-20.6,60.4-52,69.2C1181.5,438.4,1169,439.7,1155.1,439.7z M1144.6,340.7h-52v50.8h52c10.5,0,17.2,0,23.9-2.9
	c9.6-4.2,15.5-13,15.5-23.5c0-10.1-5.9-18.5-15.9-21.8C1161,340.7,1153,340.7,1144.6,340.7z"/>
<path class="st0" d="M924.9,365.4h-97.7v74.2h-60.8V240h60.8v73h97.7v-73h60.8v199.7h-60.8V365.4z"/>
<path class="st0" d="M561.7,356.2L666.6,240h53.7v199.7h-60.8V323.5L554.6,439.7h-53.7V240h60.8V356.2z"/>
<path class="st0" d="M389.3,439.7h-62.9V293.3H240V240h235.7v53.3h-86.4V439.7z"/>
</svg>
