<?xml version="1.0" encoding="utf-8"?>
<!-- Generator: Adobe Illustrator 28.0.0, SVG Export Plug-In . SVG Version: 6.00 Build 0)  -->
<svg version="1.1" id="Layer_1" xmlns="http://www.w3.org/2000/svg" xmlns:xlink="http://www.w3.org/1999/xlink" x="0px" y="0px"
	 viewBox="0 0 2654 680" style="enable-background:new 0 0 2654 680;" xml:space="preserve">
<style type="text/css">
	.st0{fill:#777b8f;}
</style>
<g>
	<path class="st0" d="M1844.8,339.8c0,26.8,18.5,44,60.4,45.7V292C1863.3,293.7,1844.8,313,1844.8,339.8z"/>
	<path class="st0" d="M1168.1,343.2c-7.1-2.5-15.1-2.5-23.5-2.5h-52v50.8h52c10.5,0,17.2,0,23.9-2.9c9.6-4.2,15.5-13,15.5-23.5
		C1184.1,354.9,1178.2,346.5,1168.1,343.2z"/>
	<path class="st0" d="M1633,283.6c-40.7,0-66.7,23.9-66.7,56.6c0,32.7,26,57,66.7,57c40.3,0,66.7-24.3,66.7-57
		C1699.7,307.5,1673.3,283.6,1633,283.6z"/>
	<path class="st0" d="M1966,292v93.5c42.4-1.7,60.4-18.9,60.4-45.7C2026.4,313,2008.4,293.7,1966,292z"/>
	<path class="st0" d="M2290.9,292v93.5c42.4-1.7,60.4-18.9,60.4-45.7C2351.3,313,2333.2,293.7,2290.9,292z"/>
	<path class="st0" d="M2169.6,339.8c0,26.8,18.5,44,60.4,45.7V292C2188.1,293.7,2169.6,313,2169.6,339.8z"/>
	<path class="st0" d="M2554,0H100C44.8,0,0,44.8,0,100v479.7c0,55.2,44.8,100,100,100h2454c55.2,0,100-44.8,100-100V100
		C2654,44.8,2609.2,0,2554,0z M475.7,293.3h-86.4v146.4h-62.9V293.3H240V240h235.7V293.3z M720.3,439.7h-60.8V323.5L554.6,439.7
		h-53.7V240h60.8v116.2L666.6,240h53.7V439.7z M985.7,439.7h-60.8v-74.2h-97.7v74.2h-60.8V240h60.8v73h97.7v-73h60.8V439.7z
		 M1193.3,435.1c-11.8,3.4-24.3,4.6-38.2,4.6h-123.3V240h60.8v53.7h62.5c15.1,0,31,0.4,44.5,5.5c28.1,10.5,45.7,33.6,45.7,66.7
		C1245.3,400.7,1224.8,426.2,1193.3,435.1z M1426.9,439.7l-72.6-75.5h-16.8v75.5h-60.8V240h60.8v75.1h16.8l73.4-75.1h76.3
		l-97.3,95.6l101.1,104H1426.9z M1633,446c-81.8,0-130.9-46.1-130.9-105.7c0-59.6,49.1-105.7,130.9-105.7
		c81.4,0,130.5,46.1,130.5,105.7C1763.5,399.8,1714.4,446,1633,446z M1966,428.3v20.1h-60.8v-20.1c-76.3-1.7-122.1-31.5-122.1-88.5
		c0-57,45.7-89.3,122.1-91v-20.1h60.8v20.1c76.8,1.7,122.5,34,122.5,91C2088.5,396.9,2042.8,426.7,1966,428.3z M2290.9,428.3v20.1
		h-60.8v-20.1c-76.4-1.7-122.1-31.5-122.1-88.5c0-57,45.7-89.3,122.1-91v-20.1h60.8v20.1c76.8,1.7,122.5,34,122.5,91
		C2413.4,396.9,2367.6,426.7,2290.9,428.3z"/>
</g>
</svg>
