<svg fill="none" height="64" viewBox="0 0 82 64" width="82" xmlns="http://www.w3.org/2000/svg" xmlns:xlink="http://www.w3.org/1999/xlink"><clipPath id="a"><path d="m0 0h81.2698v64h-81.2698z"/></clipPath><g clip-path="url(#a)" opacity=".7"><path d="m14.9793 63.9909c8.2729 0 14.9794-6.7065 14.9794-14.9793 0-8.2729-6.7065-14.9794-14.9794-14.9794-8.27282 0-14.9793 6.7065-14.9793 14.9794 0 8.2728 6.70648 14.9793 14.9793 14.9793z" fill="#e8410f"/><g fill="#ef7403"><path d="m29.3009.594234c-.0811-.140062-.1899-.262125-.3198-.358738s-.278-.1657493-.4355-.2031888c-.1575-.03743948-.3209-.0423967-.4803-.0145689-.1595.0278277-.3116.0878567-.4471.1764227-2.644 1.707109-4.6777 4.209579-5.8082 7.146779-.0578.15238-.1125.30409-.164.45514-.641 1.93157-.8619 3.97782-.6478 6.00162.2141 2.0239.8582 3.9786 1.8891 5.7334 8.3687 14.4895 16.7374 28.979 25.1061 43.4685.0785.1357.1831.2546.3077.3499.1246.0952.2668.1649.4184.2051.1516.0401.3096.0499.4651.0288.1554-.021.3051-.0726.4405-.1517 1.8634-1.067 3.4458-2.5624 4.6165-4.3624 1.8096-2.8196 2.1844-5.8336 2.0212-8.3596-.1862-2.6255-.9751-5.1727-2.3055-7.4438-8.2188-14.2239-16.4376-28.4478-24.6564-42.671666z"/><path d="m54.2735.594234c-.0811-.140062-.1899-.262125-.3197-.358738-.1299-.096613-.2781-.1657493-.4355-.2031888-.1575-.03743948-.3209-.0423967-.4804-.0145689-.1594.0278277-.3115.0878567-.447.1764227-2.644 1.707109-4.6778 4.209579-5.8082 7.146779-.0578.15238-.1125.30409-.1641.45514-.641 1.93157-.8618 3.97782-.6477 6.00162.214 2.0239.8581 3.9786 1.889 5.7334 8.3687 14.4895 16.7374 28.979 25.1061 43.4685.0785.1357.1831.2546.3077.3499.1246.0952.2668.1649.4184.2051.1517.0401.3097.0499.4651.0288.1554-.021.3052-.0726.4406-.1517 1.8633-1.067 3.4458-2.5624 4.6164-4.3624 1.8096-2.8196 2.1845-5.8336 2.0213-8.3596-.1862-2.6255-.9752-5.1727-2.3056-7.4438-8.2188-14.2239-16.4376-28.4478-24.6564-42.671666z"/></g></g></svg>