<svg fill="none" height="64" viewBox="0 0 137 64" width="137" xmlns="http://www.w3.org/2000/svg" xmlns:xlink="http://www.w3.org/1999/xlink"><clipPath id="a"><path d="m0 0h136.657v64h-136.657z"/></clipPath><g clip-path="url(#a)" fill="#00aeef" opacity=".7"><path d="m29.616 52.7448c35.6798-15.2161 71.362-30.4315 107.044-45.64689-14.807-.01776-29.615-.0328-44.4229-.04851-2.1653 2.86912-4.4489 6.1216-6.4905 8.6053.85-2.8677 1.6993-5.73687 2.5466-8.6053-1.6816-.0164-3.3625-.03143-5.0475-.0492-1.37 3.9029-4.0607 8.7912-6.3443 12.3559-.9552 1.439-1.0919-.0786-.77-1.2019 1.1205-3.7171 2.2418-7.4362 3.3658-11.15332-1.6508.03212-3.3016.06492-4.9524.09771-.5111 1.77791-1.025 3.55721-1.5374 5.33651l-6.9689 9.0836c1.4254-4.8234 2.8514-9.6474 4.2795-14.46999h-5.1452c-.8322 2.88416-1.6665 5.76759-2.4994 8.65309-1.4582.3519-2.9184.7045-4.3758 1.0585.9621-3.2374 1.9228-6.4755 2.8855-9.71159-1.8592-.01639-3.7171-.03143-5.5783-.04919-1.0885 3.66988-2.179 7.33988-3.2675 11.00978-3.3987 4.0061-6.7946 8.0143-10.1933 12.019-.3512.4175-1.0461.8234-1.5189.7578-1.5497-.2706-1.4124-3.9945-1.2607-6.55 2.8855-1.1937 5.9781-3.1588 8.4536-5.6508 4.6635-4.3737 5.6016-11.53864-.576-11.53659-5.8223.05535-11.8734 6.35119-14.0415 16.30249-1.5026.6211-2.9539 1.1152-4.8397 1.9501-.3724-1.8216-1.1814-3.8462-2.9949-5.5626 6.4263-3.5237 13.7662-12.00055 9.6152-17.64176-3.111-3.9002-12.9448-2.456414-19.0391 5.14378-.5281 1.89065-1.0584 3.78268-1.5865 5.67328.3457.0069.6887.0158 1.0345.024 6.2971-8.71809 11.7299-7.29207 11.8256-3.79843.0977 3.02903-4.0048 8.72143-9.3891 12.51913 1.8579 1.8763 3.0427 4.2139 3.4595 7.2436-11.3842 5.7129-21.021955 18.202-21.2781875 27.1599.0799445 3.7991 1.3125975 8.0771 5.4328075 7.9336 9.67808-.4824 24.45418-20.3373 23.41278-35.3361 1.3604-.6409 2.4722-1.1657 3.8346-1.8066-.4359 3.2736.2187 11.2359 6.1182 9.305 4.4871-1.5217 8.8294-8.4284 12.3053-13.2216-1.0256 3.3337-2.0492 6.6675-3.0748 10.0012 2.0341-.6409 4.0696-1.2825 6.1038-1.9227 1.0106-3.5107 2.0205-7.0194 3.029-10.5301 1.523-.4155 3.0447-.833 4.5684-1.2505-1.0256 3.4137-2.0519 6.8274-3.0775 10.2411 1.8592-.6095 3.7185-1.2183 5.5784-1.8278 2.3225-3.0761 4.6449-6.153 6.9715-9.2291-.9395 4.9914.4551 6.7256 3.0038 6.5021 2.8602-.289 5.1916-6.1181 7.0897-9.3384-.494 2.248-1.3167 4.9114-1.2019 6.6818 1.4438-.481 2.8849-.9614 4.3266-1.4424 2.5179-3.221 5.0331-6.4434 7.5496-9.6637h2.5466c-.7195 2.3245-1.4396 4.647-2.1612 6.9709 1.7608-.561 3.5237-1.122 5.288-1.6823.5124-1.7622 1.0269-3.5264 1.538-5.2886l16.6345.0471c-28.0556 11.4588-56.1045 22.9188-84.1466 34.3769-.6894 2.3894-1.3775 4.7741-2.0662 7.1628m15.4416-42.0747c.8978.4326.768 1.9474.494 2.9457-.4701 2.2186-2.6559 5.361-5.6392 7.0289.727-3.4963 3.3734-10.6415 5.1452-9.9746zm-31.8261 44.7013c-4.61563 4.4537-6.03618 1.9057-5.94052-.947.13392-8.6552 7.57632-17.0644 14.19112-21.801-.2856 8.1428-4.0833 18.5492-8.2506 22.748z"/><path d="m90.3851 38.2935-1.5169 2.9326 2.576.0137v9.2414l3.1021.0485.0341-12.2362"/><path d="m100.361 38.2368c-2.9242.0335-4.5982 1.7485-4.6618 4.1353.0034 2.7727 2.0943 4.375 4.9508 3.894-.9782 1.411-1.9539 2.8193-2.9324 4.2296h3.3164c2.351-3.4472 3.98-5.3249 3.944-8.0273.068-2.3949-1.558-4.1899-4.619-4.2316m-.069 6.0348c-1.0479-.0266-1.8761-.8978-1.8515-1.9487.0287-1.0482.8992-1.8763 1.9485-1.8511 1.048.0281 1.877.8993 1.85 1.9481-.027 1.0502-.902 1.879-1.947 1.8517"/><path d="m105.691 42.6457c.035-2.3553 1.336-4.3471 4.398-4.3498 3.062-.0041 4.688 1.385 4.688 3.7007 0 2.3717-1.827 3.8544-4.038 6.0348 1.267-.011 2.579.0013 3.846-.0069.014.833-.014 1.6488 0 2.4804h-9.28c4.528-5.4349 6.579-7.5872 6.587-8.4605.004-.781-.796-1.5135-1.539-1.5135-.764 0-1.695.6218-1.678 2.1128"/><path d="m117.102 38.2981c-.224 2.2754-.447 4.287-.673 6.5623l.348-.002c1.632-.9812 4.676-.1585 4.671 1.5107-.017 1.385-2.755 2.5487-5.259.4141-.103.8575-.207 1.7144-.312 2.5726.773.9326 2.352 1.1568 3.677 1.1663 2.859-.0649 4.867-2.1346 4.831-4.3655.043-2.0929-1.985-4.5254-5.215-3.5435.017-.7134.03-1.1636.047-1.8763 1.475-.0171 3.004.0014 4.477-.0137 0-.8015-.054-1.6282-.054-2.4277-2.186.0048-4.366-.002-6.539.0027"/></g></svg>