<?xml version="1.0" encoding="UTF-8"?>
<svg id="Layer_1" data-name="Layer 1" xmlns="http://www.w3.org/2000/svg" viewBox="0 0 40 40">
  <defs>
    <style>
      .cls-1 {
        fill: none;
        stroke: #ff2d20;
        stroke-linecap: round;
        stroke-linejoin: round;
        stroke-width: 2px;
      }

      .cls-2 {
        fill: #ff2d20;
        stroke-width: 0px;
      }
    </style>
  </defs>
  <polygon class="cls-1" points="35.53 21 19.53 3 3.53 21 8.53 21 8.53 37 20 33 30.53 37 30.53 21 35.53 21"/>
  <g>
    <path class="cls-2" d="m12.8,19.51v-5.9h1.59v4.61h2.27v1.29h-3.86Z"/>
    <path class="cls-2" d="m22.7,13.62l-1.93,5.9h-1.88l-1.92-5.9h1.79l.8,2.99c.03.11.06.26.1.43s.08.35.11.53c.03.17.05.32.06.43.01-.11.03-.25.06-.42.03-.17.06-.34.1-.52.04-.17.07-.32.1-.43l.82-3h1.78Z"/>
    <path class="cls-2" d="m23.34,19.51v-5.9h1.59v4.61h2.27v1.29h-3.86Z"/>
    <path class="cls-2" d="m19.75,23.53v3.55c0,.49-.09.92-.28,1.29-.19.36-.47.65-.85.84-.38.2-.85.3-1.42.3-.81,0-1.43-.21-1.86-.62-.43-.42-.64-1.01-.64-1.77v-3.58h1.6v3.46c0,.42.08.72.23.91s.39.28.69.28c.22,0,.4-.04.53-.12.14-.08.24-.21.3-.39.06-.18.09-.41.09-.69v-3.45h1.59Z"/>
    <path class="cls-2" d="m23.03,23.53c.75,0,1.31.16,1.68.49.37.33.56.79.56,1.39,0,.27-.04.53-.11.77-.08.25-.2.47-.38.66-.17.19-.4.35-.69.46-.29.11-.64.17-1.06.17h-.45v1.96h-1.59v-5.9h2.04Zm-.04,1.29h-.41v1.35h.31c.14,0,.26-.02.38-.07.12-.05.21-.12.28-.23.07-.11.11-.25.11-.42,0-.19-.05-.34-.17-.45s-.28-.17-.51-.17Z"/>
  </g>
  <g>
    <line class="cls-1" x1="12" y1="5.05" x2="11" y2="2.05"/>
    <line class="cls-1" x1="5" y1="13.05" x2="2" y2="12.05"/>
    <line class="cls-1" x1="3.5" y1="4.05" x2="7" y2="7.05"/>
  </g>
  <g>
    <line class="cls-1" x1="28" y1="5.05" x2="29" y2="2.05"/>
    <line class="cls-1" x1="35" y1="13.05" x2="38" y2="12.05"/>
    <line class="cls-1" x1="36.5" y1="4.05" x2="33" y2="7.05"/>
  </g>
</svg>