<?xml version="1.0" encoding="UTF-8"?>
<svg id="Layer_1" data-name="Layer 1" xmlns="http://www.w3.org/2000/svg" viewBox="0 0 40 40">
  <defs>
    <style>
      .cls-1 {
        fill: none;
        stroke: #ff2d20;
        stroke-linecap: round;
        stroke-linejoin: round;
        stroke-width: 2px;
      }
    </style>
  </defs>
  <circle class="cls-1" cx="20.03" cy="20.05" r="13"/>
  <path class="cls-1" d="m15.53,18.05c-2-1-4,0-5,1"/>
  <line class="cls-1" x1="13.03" y1="18.11" x2="13.03" y2="20.05"/>
  <circle class="cls-1" cx="20" cy="25.05" r="4"/>
  <path class="cls-1" d="m21,25.05c0,.55-.45,1-1,1s-1-.45-1-1"/>
  <path class="cls-1" d="m20.53,39.05c-8,0-11-6-11-6l3.19-2.25"/>
  <path class="cls-1" d="m20.53,39.05c8,0,11-6,11-6l-3.19-2.25"/>
  <g>
    <path class="cls-1" d="m8.24,14.6c-.68-.34-1.43-.55-2.24-.55-2.76,0-5,2.24-5,5s2.24,5,5,5c.56,0,1.08-.11,1.58-.28"/>
    <path class="cls-1" d="m20,1.05c-2.76,0-5,2.24-5,5,0,.66.14,1.3.37,1.88"/>
    <path class="cls-1" d="m15.1,8.02c-.78-1.75-2.53-2.98-4.56-2.98-2.76,0-5,2.24-5,5,0,1.95,1.13,3.62,2.76,4.45"/>
  </g>
  <path class="cls-1" d="m24.47,18.05c2-1,4,0,5,1"/>
  <line class="cls-1" x1="26.97" y1="18.11" x2="26.97" y2="20.05"/>
  <g>
    <path class="cls-1" d="m31.76,14.6c.68-.34,1.43-.55,2.24-.55,2.76,0,5,2.24,5,5s-2.24,5-5,5c-.56,0-1.08-.11-1.58-.28"/>
    <path class="cls-1" d="m20,1.05c2.76,0,5,2.24,5,5,0,.66-.14,1.3-.37,1.88"/>
    <path class="cls-1" d="m24.9,8.02c.78-1.75,2.53-2.98,4.56-2.98,2.76,0,5,2.24,5,5,0,1.95-1.13,3.62-2.76,4.45"/>
  </g>
  <path class="cls-1" d="m11.53,11.05c3,2,13.16,1.45,15.08-1.28"/>
  <path class="cls-1" d="m22,11.86c-4.47,1.19-2.47,4.19-2.47,4.19"/>
</svg>