<svg viewBox="0 0 315.75 67.18" xmlns="http://www.w3.org/2000/svg"><path d="m33 0-9.9 19.8 6.6 13.2 3.3 6.4 3.3-6.4 6.6-13.2z" fill="#80bdff"/><path d="m52.79 39.6-6.6-13.2-13.2 26.4-13.2-26.4-6.6 13.2-13.19 26.39h5.02c5.01 0 9.58-2.83 11.82-7.32l2.95-5.9v.02s6.61 13.2 6.61 13.2h13.2l6.6-13.2v-.02s2.96 5.9 2.96 5.9c2.23 4.48 6.81 7.32 11.82 7.32h5.02l-13.2-26.4z" fill="#1148bf"/><path d="m92.48 17.31.1 1.09-3.13 6.8h-5.47l12.07-25.2 12.07 25.19h-5.51l-3.06-6.6.07-1.22-3.57-8.26-3.57 8.19zm-2.07-1.36h11.42l.58 3.84h-12.58z" fill="#80bdff"/><path d="m114.08 19.52c.6.66 1.26 1.17 1.99 1.53s1.51.54 2.35.54c.97 0 1.77-.25 2.38-.75s.92-1.18.92-2.04c0-.75-.19-1.35-.56-1.8s-.93-.86-1.67-1.21-1.64-.73-2.7-1.14c-.57-.2-1.22-.48-1.95-.83-.74-.35-1.43-.8-2.09-1.36s-1.2-1.24-1.63-2.04-.65-1.77-.65-2.91c0-1.36.35-2.53 1.04-3.52s1.63-1.75 2.82-2.28 2.52-.8 4-.8 2.83.25 3.93.76 2.02 1.16 2.75 1.94c.74.78 1.31 1.59 1.72 2.43l-3.81 2.11c-.32-.57-.7-1.08-1.14-1.55-.44-.46-.95-.84-1.51-1.12-.57-.28-1.21-.42-1.94-.42-.95 0-1.67.22-2.14.66-.48.44-.71.96-.71 1.55s.19 1.1.58 1.55c.38.44.97.86 1.77 1.26s1.79.8 2.99 1.21c.77.27 1.51.61 2.23 1.02.71.41 1.36.9 1.94 1.48s1.03 1.26 1.36 2.04.49 1.68.49 2.7c0 1.16-.23 2.19-.68 3.09-.45.91-1.08 1.67-1.87 2.29s-1.68 1.1-2.67 1.43-2.02.49-3.11.49c-1.45 0-2.81-.28-4.06-.83s-2.35-1.31-3.28-2.26-1.66-1.98-2.18-3.09l3.47-2.45c.5.88 1.05 1.66 1.65 2.31z" fill="#80bdff"/><path d="m134.18 19.52c.6.66 1.26 1.17 1.99 1.53s1.51.54 2.35.54c.97 0 1.77-.25 2.38-.75s.92-1.18.92-2.04c0-.75-.19-1.35-.56-1.8s-.93-.86-1.67-1.21-1.64-.73-2.7-1.14c-.57-.2-1.22-.48-1.95-.83-.74-.35-1.43-.8-2.09-1.36s-1.2-1.24-1.63-2.04-.65-1.77-.65-2.91c0-1.36.35-2.53 1.04-3.52s1.63-1.75 2.82-2.28 2.52-.8 4-.8 2.83.25 3.93.76 2.02 1.16 2.75 1.94c.74.78 1.31 1.59 1.72 2.43l-3.81 2.11c-.32-.57-.7-1.08-1.14-1.55-.44-.46-.95-.84-1.51-1.12-.57-.28-1.21-.42-1.94-.42-.95 0-1.67.22-2.14.66-.48.44-.71.96-.71 1.55s.19 1.1.58 1.55c.38.44.97.86 1.77 1.26s1.79.8 2.99 1.21c.77.27 1.51.61 2.23 1.02.71.41 1.36.9 1.94 1.48s1.03 1.26 1.36 2.04.49 1.68.49 2.7c0 1.16-.23 2.19-.68 3.09-.45.91-1.08 1.67-1.87 2.29s-1.68 1.1-2.67 1.43-2.02.49-3.11.49c-1.45 0-2.81-.28-4.06-.83s-2.35-1.31-3.28-2.26-1.66-1.98-2.18-3.09l3.47-2.45c.5.88 1.05 1.66 1.65 2.31z" fill="#80bdff"/><path d="m155.48 1.39v23.8h-4.93v-23.8z" fill="#80bdff"/><path d="m164 19.52c.6.66 1.26 1.17 1.99 1.53s1.51.54 2.35.54c.97 0 1.77-.25 2.38-.75s.92-1.18.92-2.04c0-.75-.19-1.35-.56-1.8s-.93-.86-1.67-1.21-1.64-.73-2.7-1.14c-.57-.2-1.22-.48-1.95-.83-.74-.35-1.43-.8-2.09-1.36s-1.2-1.24-1.63-2.04-.65-1.77-.65-2.91c0-1.36.35-2.53 1.04-3.52s1.63-1.75 2.82-2.28 2.52-.8 4-.8 2.83.25 3.93.76 2.02 1.16 2.75 1.94c.74.78 1.31 1.59 1.72 2.43l-3.81 2.11c-.32-.57-.7-1.08-1.14-1.55-.44-.46-.95-.84-1.51-1.12-.57-.28-1.21-.42-1.94-.42-.95 0-1.67.22-2.14.66-.48.44-.71.96-.71 1.55s.19 1.1.58 1.55c.38.44.97.86 1.77 1.26s1.79.8 2.99 1.21c.77.27 1.51.61 2.23 1.02.71.41 1.36.9 1.94 1.48s1.03 1.26 1.36 2.04.49 1.68.49 2.7c0 1.16-.23 2.19-.68 3.09-.45.91-1.08 1.67-1.87 2.29s-1.68 1.1-2.67 1.43-2.02.49-3.11.49c-1.45 0-2.81-.28-4.06-.83s-2.35-1.31-3.28-2.26-1.66-1.98-2.18-3.09l3.47-2.45c.5.88 1.05 1.66 1.65 2.31z" fill="#80bdff"/><path d="m177.99 1.39h17.68v4.39h-6.43v19.41h-4.86v-19.41h-6.39z" fill="#80bdff"/><path d="m202.77 1.39v23.8h-4.69v-23.8zm-1.56 0h12v4.11h-12zm0 9.15h11.32v4.05h-11.32zm0 10.54h12v4.11h-12z" fill="#80bdff"/><path d="m222.63 1.39v23.8h-4.96v-23.8zm-1.84 23.8v-4.42h4.79c1.04 0 2.03-.14 2.96-.43.93-.28 1.75-.73 2.45-1.34s1.25-1.39 1.65-2.33.59-2.07.59-3.38-.2-2.44-.59-3.38c-.4-.94-.95-1.72-1.65-2.33s-1.52-1.06-2.45-1.34-1.92-.42-2.96-.42h-4.79v-4.43h4.96c2.49 0 4.68.49 6.55 1.46s3.33 2.35 4.37 4.13 1.56 3.88 1.56 6.31-.52 4.53-1.56 6.31-2.5 3.16-4.37 4.13-4.05 1.46-6.55 1.46z" fill="#80bdff"/><g fill="#1148bf"><path d="m90.23 65.99h-5.07l3.54-24.99 9.96 15.37 9.96-15.37 3.54 24.99h-5.07l-1.53-13.36-6.9 11.15-6.9-11.15z"/><path d="m120.56 42.19v23.8h-4.93v-23.8z"/><path d="m146.98 42.19v24.99l-16.93-15.95v14.76h-4.69v-24.99l16.93 15.95v-14.76z"/><path d="m156.77 42.19v23.8h-4.96v-23.8zm-1.84 23.8v-4.42h4.79c1.04 0 2.03-.14 2.96-.43.93-.28 1.75-.73 2.45-1.34s1.25-1.39 1.65-2.33.59-2.07.59-3.38-.2-2.44-.59-3.38c-.4-.94-.95-1.72-1.65-2.33s-1.52-1.06-2.45-1.34-1.92-.42-2.96-.42h-4.79v-4.42h4.96c2.49 0 4.68.49 6.55 1.46s3.33 2.35 4.37 4.13 1.56 3.88 1.56 6.31-.52 4.53-1.56 6.31-2.5 3.16-4.37 4.13-4.05 1.46-6.55 1.46h-4.96z"/><path d="m180.5 42.19v23.8h-4.69v-23.8zm-1.56 0h10.64v4.25h-10.64zm0 9.59h10.3v4.05h-10.3z"/><path d="m198.39 42.19v15.67c0 1.36.36 2.45 1.07 3.28s1.77 1.24 3.18 1.24 2.47-.41 3.18-1.24 1.07-1.92 1.07-3.28v-15.67h4.86v15.98c0 1.41-.23 2.64-.68 3.71s-1.09 1.96-1.92 2.69-1.8 1.28-2.91 1.65-2.31.56-3.6.56-2.53-.19-3.64-.56-2.07-.92-2.89-1.65-1.45-1.62-1.9-2.69-.68-2.3-.68-3.71v-15.98z"/><path d="m221.23 42.19v19.55h9.49v4.25h-14.35v-23.8z"/><path d="m254.79 42.19v24.99l-16.93-15.95v14.76h-4.69v-24.99l16.93 15.95v-14.76z"/><path d="m264.31 42.19v23.8h-4.69v-23.8zm-1.56 0h12v4.11h-12zm0 9.15h11.32v4.05h-11.32zm0 10.54h12v4.11h-12z"/><path d="m282.93 60.32c.6.66 1.26 1.17 1.99 1.53s1.51.54 2.35.54c.97 0 1.77-.25 2.38-.75s.92-1.18.92-2.04c0-.75-.19-1.35-.56-1.8s-.93-.86-1.67-1.21-1.64-.73-2.7-1.14c-.57-.2-1.22-.48-1.95-.83-.74-.35-1.43-.8-2.09-1.36s-1.2-1.24-1.63-2.04-.65-1.77-.65-2.91c0-1.36.35-2.53 1.04-3.52s1.63-1.75 2.82-2.28 2.52-.8 4-.8 2.83.25 3.93.76 2.02 1.16 2.75 1.94c.74.78 1.31 1.59 1.72 2.43l-3.81 2.11c-.32-.57-.7-1.08-1.14-1.55-.44-.46-.95-.84-1.51-1.12-.57-.28-1.21-.42-1.94-.42-.95 0-1.67.22-2.14.66-.48.44-.71.96-.71 1.55s.19 1.1.58 1.55c.38.44.97.86 1.77 1.26s1.79.8 2.99 1.21c.77.27 1.51.61 2.23 1.02.71.41 1.36.9 1.94 1.48s1.03 1.26 1.36 2.04.49 1.68.49 2.7c0 1.16-.23 2.19-.68 3.09-.45.91-1.08 1.67-1.87 2.29s-1.68 1.1-2.67 1.43-2.02.49-3.11.49c-1.45 0-2.81-.28-4.06-.83s-2.35-1.31-3.28-2.26-1.66-1.98-2.18-3.09l3.47-2.45c.5.88 1.05 1.66 1.65 2.31z"/><path d="m303.02 60.32c.6.66 1.26 1.17 1.99 1.53s1.51.54 2.35.54c.97 0 1.77-.25 2.38-.75s.92-1.18.92-2.04c0-.75-.19-1.35-.56-1.8s-.93-.86-1.67-1.21-1.64-.73-2.7-1.14c-.57-.2-1.22-.48-1.95-.83-.74-.35-1.43-.8-2.09-1.36s-1.2-1.24-1.63-2.04-.65-1.77-.65-2.91c0-1.36.35-2.53 1.04-3.52s1.63-1.75 2.82-2.28 2.52-.8 4-.8 2.83.25 3.93.76 2.02 1.16 2.75 1.94c.74.78 1.31 1.59 1.72 2.43l-3.81 2.11c-.32-.57-.7-1.08-1.14-1.55-.44-.46-.95-.84-1.51-1.12-.57-.28-1.21-.42-1.94-.42-.95 0-1.67.22-2.14.66-.48.44-.71.96-.71 1.55s.19 1.1.58 1.55c.38.44.97.86 1.77 1.26s1.79.8 2.99 1.21c.77.27 1.51.61 2.23 1.02.71.41 1.36.9 1.94 1.48s1.03 1.26 1.36 2.04.49 1.68.49 2.7c0 1.16-.23 2.19-.68 3.09-.45.91-1.08 1.67-1.87 2.29s-1.68 1.1-2.67 1.43-2.02.49-3.11.49c-1.45 0-2.81-.28-4.06-.83s-2.35-1.31-3.28-2.26-1.66-1.98-2.18-3.09l3.47-2.45c.5.88 1.05 1.66 1.65 2.31z"/></g></svg>