<svg viewBox="0 0 186.8 96.98" xmlns="http://www.w3.org/2000/svg"><path d="m2.08 29.78 13.62 12.26c2.12 1.91 4.88 2.97 7.73 2.97h13.57c11.93 0 21.6-9.67 21.6-21.6 0-11.93-9.67-21.6-21.6-21.6h-12.89c-3.26 0-6.36 1.38-8.55 3.78l-13.93 15.31c-2.33 2.57-2.13 6.55.45 8.88z" fill="#569cde"/><path d="m48.89 48.62h-24.77c-3.26 0-6.36 1.38-8.55 3.78l-13.93 15.32c-2.34 2.57-2.14 6.55.45 8.88l13.62 12.26c2.12 1.91 4.88 2.97 7.73 2.97h25.45c11.93 0 21.6-9.67 21.6-21.6 0-11.93-9.66-21.6-21.6-21.6z" fill="#569cde"/><path d="m151.05 33.31h-64.81c-1.99 0-3.6-1.61-3.6-3.6v-5.04c0-1.99 1.61-3.6 3.6-3.6h64.81c1.99 0 3.6 1.61 3.6 3.6v5.04c0 1.99-1.61 3.6-3.6 3.6z" fill="#7188a8"/><path d="m107.12 54.19h-20.88c-1.99 0-3.6-1.61-3.6-3.6v-5.04c0-1.99 1.61-3.6 3.6-3.6h20.88c1.99 0 3.6 1.61 3.6 3.6v5.04c0 1.99-1.61 3.6-3.6 3.6z" fill="#7188a8"/><path d="m166.17 54.19h-48.25c-1.99 0-3.6-1.61-3.6-3.6v-5.04c0-1.99 1.61-3.6 3.6-3.6h48.25c1.99 0 3.6 1.61 3.6 3.6v5.04c0 1.99-1.61 3.6-3.6 3.6z" fill="#7188a8"/><path d="m125.84 75.07h-39.61c-1.99 0-3.6-1.61-3.6-3.6v-5.04c0-1.99 1.61-3.6 3.6-3.6h39.61c1.99 0 3.6 1.61 3.6 3.6v5.04c0 1.99-1.61 3.6-3.6 3.6z" fill="#7188a8"/><path d="m147.45 75.07h-10.8c-1.99 0-3.6-1.61-3.6-3.6v-5.04c0-1.99 1.61-3.6 3.6-3.6h10.8c1.99 0 3.6 1.61 3.6 3.6v5.04c0 1.99-1.61 3.6-3.6 3.6z" fill="#7188a8"/><path d="m169.05 75.07h-10.8c-1.99 0-3.6-1.61-3.6-3.6v-5.04c0-1.99 1.61-3.6 3.6-3.6h10.8c1.99 0 3.6 1.61 3.6 3.6v5.04c0 1.99-1.61 3.6-3.6 3.6z" fill="#7188a8"/><path d="m166.87 1c-1.63 0-3.26.51-4.66 1.57l-85.38 64.79c-3.4 2.58-4.06 7.42-1.48 10.82l11.19 14.75c1.52 2 3.82 3.05 6.16 3.05 1.63 0 3.26-.51 4.66-1.57l85.39-64.79c3.4-2.58 4.06-7.42 1.48-10.82l-11.2-14.75c-1.52-2-3.82-3.05-6.16-3.05z" fill="#fff"/><g fill="#ff3d3d"><path d="m92.7 96.98c-2.76 0-5.29-1.26-6.95-3.45l-11.19-14.75c-2.91-3.83-2.15-9.31 1.68-12.22l85.37-64.79c1.53-1.16 3.35-1.77 5.26-1.77 2.76 0 5.29 1.26 6.95 3.45l11.2 14.75c2.91 3.83 2.15 9.31-1.68 12.22l-85.39 64.79c-1.53 1.16-3.35 1.77-5.26 1.77zm74.17-94.98c-1.47 0-2.88.47-4.05 1.37l-85.38 64.79c-2.95 2.24-3.53 6.46-1.29 9.42l11.19 14.75c1.28 1.69 3.24 2.66 5.36 2.66 1.47 0 2.88-.47 4.06-1.37l85.38-64.8c2.95-2.24 3.53-6.46 1.29-9.42l-11.2-14.75c-1.28-1.69-3.24-2.66-5.36-2.66z"/><path d="m95.64 80.68-1.88 1.43-4.11-5.42-1.7 1.29-1.17-1.54 5.28-4 1.17 1.54-1.69 1.29 4.1 5.42z"/><path d="m102.6 75.39-1.33-1.04-2.26 1.71.64 1.57-2.07 1.57-3.03-8.71 2.51-1.9 7.6 5.24zm-2.89-2.29-1.17-.91c-.26-.2-.6-.47-1-.79s-.69-.57-.86-.72c.09.18.24.49.44.93.19.43.57 1.31 1.11 2.62l1.48-1.12z"/><path d="m111.5 68.64-2.13 1.61-4.75-1.96 2.68 3.53-1.89 1.43-5.29-6.96 1.89-1.43 2.56 3.37-.57-4.88 2.07-1.57.37 4.95z"/><path d="m120.71 61.66-1.89 1.43-2.15-2.84-2.18 1.66 2.15 2.84-1.89 1.43-5.29-6.96 1.89-1.43 1.96 2.58 2.18-1.66-1.96-2.58 1.89-1.43z"/><path d="m126.34 57.38-4.13 3.13-5.29-6.96 4.13-3.13 1.15 1.51-2.25 1.71.83 1.09 2.09-1.58 1.15 1.51-2.09 1.58.99 1.31 2.25-1.71 1.17 1.53z"/><path d="m129 46.66c-.45.34-.66.78-.63 1.35.03.55.29 1.16.78 1.8 1.02 1.34 2.03 1.62 3.05.85.31-.23.58-.5.8-.81s.44-.63.63-.97l1.21 1.59c-.39.7-.94 1.33-1.68 1.88-1.05.8-2.09 1.1-3.11.92-1.02-.19-1.97-.85-2.84-2-.55-.72-.89-1.45-1.04-2.21-.14-.75-.07-1.47.22-2.15s.78-1.28 1.46-1.81c.75-.57 1.6-.95 2.53-1.15l.55 1.92c-.35.07-.68.17-1 .28-.32.12-.63.28-.92.5z"/><path d="m140.29 41.3c.89 1.17 1.27 2.28 1.17 3.33-.12 1.04-.72 1.99-1.83 2.83-1.09.83-2.16 1.16-3.21.99-1.04-.17-2.02-.84-2.9-2.02-.88-1.16-1.26-2.26-1.15-3.31s.73-1.99 1.83-2.83c1.11-.84 2.17-1.17 3.21-1 1.03.17 1.99.84 2.88 2.02zm-4.79 3.63c1.02 1.35 2 1.66 2.94.95.48-.36.71-.79.68-1.3-.01-.5-.29-1.1-.81-1.79-.53-.7-1.04-1.12-1.52-1.27s-.96-.06-1.43.3c-.94.73-.89 1.76.14 3.12z"/><path d="m141.84 33.77c-.76.58-1.44.86-2.04.85s-1.16-.31-1.67-.89l1.56-1.18c.25.3.49.48.72.52.22.05.47-.03.73-.23.48-.36.51-.86.11-1.48l1.58-1.2c.78 1.32.45 2.52-.99 3.61zm-2.93 3.1 1.68-1.27 2.27 2.99c.24.32.7.97 1.37 1.97l.04-.03-.94-7 2.33-1.76 5.29 6.96-1.66 1.27-2.21-2.92c-.33-.44-.81-1.12-1.42-2.05l-.04.03.91 7.02-2.32 1.76-5.29-6.96z"/><path d="m161.08 34.43-1.84 1.39-1.64-2.17-4.05 3.07 1.64 2.17-1.84 1.39-2.82-3.71.58-.44c-.12-1.02-.4-2.1-.83-3.23s-1.01-2.25-1.74-3.37l4.64-3.52 4.11 5.42.95-.72 2.82 3.72zm-5.66-1.55-2.95-3.88-1.24.94c.9 1.45 1.53 3.02 1.87 4.7l2.31-1.75z"/><path d="m154.16 23.14c-.18-.24-.24-.48-.2-.72s.19-.46.44-.65.5-.27.75-.25.46.15.64.38c.17.22.23.46.19.71s-.19.47-.45.66c-.24.19-.5.27-.74.25-.24-.01-.45-.14-.63-.37zm10.35 5.28-4.13 3.13-5.29-6.96 4.13-3.13 1.15 1.51-2.25 1.71.83 1.09 2.09-1.58 1.15 1.51-2.09 1.58.99 1.31 2.25-1.71 1.17 1.53zm-8.07-7.01c-.18-.24-.24-.48-.2-.72s.19-.46.45-.66.5-.27.76-.25.46.15.63.38c.17.22.23.46.19.71s-.19.47-.45.66-.51.28-.75.26-.45-.15-.63-.38z"/><path d="m168.8 25.16-1.88 1.43-4.11-5.42-1.71 1.3-1.17-1.54 5.28-4 1.17 1.54-1.69 1.29 4.11 5.42z"/><path d="m171.07 19.57-1.57 1.2-3.66-4.32 2.06-1.56 3.17 4.69zm-.53 3.02c-.22-.29-.3-.58-.25-.87s.24-.56.56-.81c.32-.24.63-.35.91-.32s.54.19.76.48.3.58.24.86c-.05.29-.23.55-.54.79-.32.24-.62.35-.92.32-.3-.01-.55-.17-.77-.46z"/></g></svg>