<svg fill="none" height="40" viewBox="0 0 40 40" width="40" xmlns="http://www.w3.org/2000/svg" xmlns:xlink="http://www.w3.org/1999/xlink"><clipPath id="a"><path d="m0 0h40v40h-40z"/></clipPath><mask id="b" height="40" maskUnits="userSpaceOnUse" width="40" x="0" y="0"><path d="m40 0h-40v40h40z" fill="#fff"/></mask><g clip-path="url(#a)"><g mask="url(#b)" stroke="#0b531b" stroke-linecap="round" stroke-linejoin="round" stroke-width="2"><path d="m20 6v-5"/><path d="m11 15h-5"/><path d="m34 15h-5"/><path d="m13.6401 21.3594-1.54 1.54"/><path d="m27.9001 7.10156-1.54 1.54"/><path d="m26.3601 21.3594 1.54 1.54"/><path d="m12.1001 7.10156 1.54 1.54"/><path d="m20 10c0 2-2 3-3 5s0 5 3 5c4 0 4-4 3-6s-3-4-3-4z"/><path d="m21.04 19.9017c-1.04-.9-1.04-3.39-1.04-3.39"/><path d="m20.09 21.5898h-1.09c-1.1 0-2 .9-2 2v5.64h-1c-1.1 0-2 .89-2 2v3.78h-1.21c-1.1 0-2 .89-2 2v2h16.2v-2c0-1.1-.89-2-2-2h-2v-11.41c0-1.1-.9-2-2-2h-.91z"/><path d="m14 35v1"/><path d="m17 29.2305v4.77"/><path d="m23 35v1.38"/></g></g></svg>