<svg width="40" height="40" viewBox="0 0 40 40" fill="none" xmlns="http://www.w3.org/2000/svg">
<g id="Layer_1" clip-path="url(#clip0_502_157)">
<g id="Clip path group">
<mask id="mask0_502_157" style="mask-type:luminance" maskUnits="userSpaceOnUse" x="0" y="0" width="40" height="40">
<g id="clippath">
<path id="Vector" d="M40 0H0V40H40V0Z" fill="white"/>
</g>
</mask>
<g mask="url(#mask0_502_157)">
<g id="Group">
<path id="Vector_2" d="M20 6V1" stroke="#0B531B" stroke-width="2" stroke-linecap="round" stroke-linejoin="round"/>
<path id="Vector_3" d="M11 15H6" stroke="#0B531B" stroke-width="2" stroke-linecap="round" stroke-linejoin="round"/>
<path id="Vector_4" d="M34 15H29" stroke="#0B531B" stroke-width="2" stroke-linecap="round" stroke-linejoin="round"/>
<path id="Vector_5" d="M13.6401 21.3594L12.1001 22.8994" stroke="#0B531B" stroke-width="2" stroke-linecap="round" stroke-linejoin="round"/>
<path id="Vector_6" d="M27.9001 7.10156L26.3601 8.64156" stroke="#0B531B" stroke-width="2" stroke-linecap="round" stroke-linejoin="round"/>
<path id="Vector_7" d="M26.3601 21.3594L27.9001 22.8994" stroke="#0B531B" stroke-width="2" stroke-linecap="round" stroke-linejoin="round"/>
<path id="Vector_8" d="M12.1001 7.10156L13.6401 8.64156" stroke="#0B531B" stroke-width="2" stroke-linecap="round" stroke-linejoin="round"/>
<path id="Vector_9" d="M20 10C20 12 18 13 17 15C16 17 17 20 20 20C24 20 24 16 23 14C22 12 20 10 20 10Z" stroke="#0B531B" stroke-width="2" stroke-linecap="round" stroke-linejoin="round"/>
<path id="Vector_10" d="M21.04 19.9017C20 19.0017 20 16.5117 20 16.5117" stroke="#0B531B" stroke-width="2" stroke-linecap="round" stroke-linejoin="round"/>
<path id="Vector_11" d="M20.09 21.5898H19C17.9 21.5898 17 22.4898 17 23.5898V29.2298H16C14.9 29.2298 14 30.1198 14 31.2298V35.0098H12.79C11.69 35.0098 10.79 35.8998 10.79 37.0098V39.0098H26.99V37.0098C26.99 35.9098 26.1 35.0098 24.99 35.0098H22.99V23.5998C22.99 22.4998 22.09 21.5998 20.99 21.5998H20.08L20.09 21.5898Z" stroke="#0B531B" stroke-width="2" stroke-linecap="round" stroke-linejoin="round"/>
<path id="Vector_12" d="M14 35V36" stroke="#0B531B" stroke-width="2" stroke-linecap="round" stroke-linejoin="round"/>
<path id="Vector_13" d="M17 29.2305V34.0005" stroke="#0B531B" stroke-width="2" stroke-linecap="round" stroke-linejoin="round"/>
<path id="Vector_14" d="M23 35V36.38" stroke="#0B531B" stroke-width="2" stroke-linecap="round" stroke-linejoin="round"/>
</g>
</g>
</g>
</g>
<defs>
<clipPath id="clip0_502_157">
<rect width="40" height="40" fill="white"/>
</clipPath>
</defs>
</svg>
